G04 EAGLE Gerber RS-274X export*
G75*
%MOMM*%
%FSLAX34Y34*%
%LPD*%
%INCopper Layer 15*%
%IPPOS*%
%AMOC8*
5,1,8,0,0,1.08239X$1,22.5*%
G01*
%ADD10C,1.650000*%
%ADD11C,0.600000*%
%ADD12C,0.609600*%
%ADD13C,0.254000*%

G36*
X171848Y-37984D02*
X171848Y-37984D01*
X171967Y-37977D01*
X172005Y-37964D01*
X172046Y-37959D01*
X172156Y-37916D01*
X172269Y-37879D01*
X172304Y-37857D01*
X172341Y-37842D01*
X172437Y-37773D01*
X172538Y-37709D01*
X172566Y-37679D01*
X172599Y-37656D01*
X172675Y-37564D01*
X172756Y-37477D01*
X172776Y-37442D01*
X172801Y-37411D01*
X172852Y-37303D01*
X172910Y-37199D01*
X172920Y-37159D01*
X172937Y-37123D01*
X172959Y-37006D01*
X172989Y-36891D01*
X172993Y-36831D01*
X172997Y-36811D01*
X172995Y-36790D01*
X172999Y-36730D01*
X172999Y84137D01*
X172993Y84187D01*
X172995Y84236D01*
X172973Y84344D01*
X172959Y84453D01*
X172941Y84499D01*
X172931Y84548D01*
X172883Y84646D01*
X172842Y84748D01*
X172813Y84789D01*
X172791Y84833D01*
X172720Y84917D01*
X172656Y85006D01*
X172617Y85037D01*
X172585Y85075D01*
X172495Y85138D01*
X172411Y85209D01*
X172366Y85230D01*
X172325Y85258D01*
X172222Y85297D01*
X172123Y85344D01*
X172074Y85353D01*
X172028Y85371D01*
X171918Y85383D01*
X171811Y85404D01*
X171761Y85401D01*
X171712Y85406D01*
X171603Y85391D01*
X171493Y85384D01*
X171446Y85369D01*
X171397Y85362D01*
X171244Y85310D01*
X170495Y84999D01*
X168505Y84999D01*
X166667Y85761D01*
X165261Y87167D01*
X164499Y89005D01*
X164499Y90995D01*
X165261Y92833D01*
X165858Y93430D01*
X165918Y93508D01*
X165986Y93580D01*
X166015Y93633D01*
X166052Y93681D01*
X166092Y93772D01*
X166140Y93859D01*
X166155Y93917D01*
X166179Y93973D01*
X166194Y94071D01*
X166219Y94166D01*
X166225Y94266D01*
X166229Y94287D01*
X166227Y94299D01*
X166229Y94327D01*
X166229Y97025D01*
X166223Y97075D01*
X166225Y97124D01*
X166203Y97232D01*
X166189Y97341D01*
X166171Y97387D01*
X166161Y97436D01*
X166113Y97534D01*
X166072Y97637D01*
X166043Y97677D01*
X166021Y97721D01*
X165950Y97805D01*
X165886Y97894D01*
X165847Y97926D01*
X165815Y97963D01*
X165725Y98027D01*
X165641Y98097D01*
X165596Y98118D01*
X165555Y98146D01*
X165452Y98185D01*
X165353Y98232D01*
X165304Y98242D01*
X165258Y98259D01*
X165148Y98271D01*
X165041Y98292D01*
X164991Y98289D01*
X164942Y98294D01*
X164833Y98279D01*
X164723Y98272D01*
X164676Y98257D01*
X164627Y98250D01*
X164474Y98198D01*
X163995Y97999D01*
X161770Y97999D01*
X161652Y97984D01*
X161533Y97977D01*
X161495Y97964D01*
X161454Y97959D01*
X161344Y97916D01*
X161231Y97879D01*
X161196Y97857D01*
X161159Y97842D01*
X161062Y97772D01*
X160962Y97709D01*
X160934Y97679D01*
X160901Y97656D01*
X160825Y97564D01*
X160744Y97477D01*
X160724Y97442D01*
X160699Y97411D01*
X160648Y97303D01*
X160590Y97199D01*
X160580Y97159D01*
X160563Y97123D01*
X160541Y97006D01*
X160511Y96891D01*
X160507Y96831D01*
X160503Y96811D01*
X160505Y96790D01*
X160501Y96730D01*
X160501Y95505D01*
X159739Y93667D01*
X158333Y92261D01*
X156495Y91499D01*
X154505Y91499D01*
X152667Y92261D01*
X151261Y93667D01*
X150499Y95505D01*
X150499Y97495D01*
X151261Y99333D01*
X151858Y99930D01*
X151918Y100008D01*
X151986Y100080D01*
X152015Y100133D01*
X152052Y100181D01*
X152092Y100272D01*
X152140Y100359D01*
X152155Y100417D01*
X152179Y100473D01*
X152194Y100571D01*
X152219Y100666D01*
X152225Y100766D01*
X152229Y100787D01*
X152227Y100799D01*
X152229Y100827D01*
X152229Y153005D01*
X152221Y153074D01*
X152222Y153144D01*
X152201Y153231D01*
X152189Y153320D01*
X152164Y153385D01*
X152147Y153453D01*
X152105Y153532D01*
X152072Y153616D01*
X152031Y153672D01*
X151999Y153734D01*
X151938Y153800D01*
X151886Y153873D01*
X151832Y153918D01*
X151785Y153969D01*
X151710Y154019D01*
X151641Y154076D01*
X151577Y154106D01*
X151519Y154144D01*
X151434Y154173D01*
X151353Y154211D01*
X151284Y154225D01*
X151218Y154247D01*
X151129Y154254D01*
X151041Y154271D01*
X150971Y154267D01*
X150901Y154272D01*
X150813Y154257D01*
X150723Y154251D01*
X150657Y154230D01*
X150588Y154218D01*
X150506Y154181D01*
X150421Y154153D01*
X150362Y154116D01*
X150298Y154087D01*
X150228Y154031D01*
X150152Y153983D01*
X150104Y153932D01*
X150050Y153889D01*
X149995Y153817D01*
X149934Y153752D01*
X149900Y153691D01*
X149858Y153635D01*
X149787Y153490D01*
X149239Y152167D01*
X147833Y150761D01*
X145995Y149999D01*
X144005Y149999D01*
X142167Y150761D01*
X140761Y152167D01*
X139999Y154005D01*
X139999Y155995D01*
X140761Y157833D01*
X142167Y159239D01*
X144005Y160001D01*
X145995Y160001D01*
X147833Y159239D01*
X149239Y157833D01*
X149787Y156510D01*
X149822Y156449D01*
X149848Y156384D01*
X149900Y156312D01*
X149945Y156234D01*
X149993Y156183D01*
X150034Y156127D01*
X150104Y156070D01*
X150166Y156005D01*
X150226Y155969D01*
X150279Y155924D01*
X150361Y155886D01*
X150437Y155839D01*
X150504Y155818D01*
X150567Y155789D01*
X150655Y155772D01*
X150741Y155745D01*
X150811Y155742D01*
X150880Y155729D01*
X150969Y155734D01*
X151059Y155730D01*
X151127Y155744D01*
X151197Y155749D01*
X151282Y155776D01*
X151370Y155794D01*
X151433Y155825D01*
X151499Y155847D01*
X151575Y155895D01*
X151656Y155934D01*
X151709Y155979D01*
X151768Y156017D01*
X151830Y156082D01*
X151898Y156140D01*
X151938Y156197D01*
X151986Y156248D01*
X152029Y156327D01*
X152081Y156400D01*
X152106Y156466D01*
X152140Y156527D01*
X152162Y156614D01*
X152194Y156698D01*
X152202Y156767D01*
X152219Y156835D01*
X152229Y156995D01*
X152229Y231979D01*
X152227Y232000D01*
X152227Y232062D01*
X152048Y234785D01*
X152040Y234828D01*
X152039Y234872D01*
X152008Y235030D01*
X150598Y240290D01*
X150566Y240370D01*
X150543Y240452D01*
X150522Y240493D01*
X150518Y240506D01*
X150508Y240522D01*
X150482Y240575D01*
X150478Y240585D01*
X150475Y240588D01*
X150471Y240596D01*
X147749Y245312D01*
X147722Y245348D01*
X147702Y245387D01*
X147604Y245515D01*
X145804Y247566D01*
X145789Y247580D01*
X145748Y247627D01*
X144418Y248956D01*
X114017Y279357D01*
X113908Y279442D01*
X113801Y279531D01*
X113782Y279540D01*
X113766Y279552D01*
X113638Y279607D01*
X113513Y279666D01*
X113493Y279670D01*
X113474Y279678D01*
X113336Y279700D01*
X113200Y279726D01*
X113180Y279725D01*
X113160Y279728D01*
X113021Y279715D01*
X112883Y279706D01*
X112864Y279700D01*
X112844Y279698D01*
X112712Y279651D01*
X112581Y279608D01*
X112563Y279598D01*
X112544Y279591D01*
X112429Y279513D01*
X112312Y279438D01*
X112298Y279423D01*
X112281Y279412D01*
X112189Y279308D01*
X112094Y279207D01*
X112084Y279189D01*
X112071Y279174D01*
X112007Y279050D01*
X111940Y278928D01*
X111935Y278909D01*
X111926Y278890D01*
X111896Y278755D01*
X111861Y278620D01*
X111859Y278592D01*
X111856Y278580D01*
X111857Y278560D01*
X111851Y278460D01*
X111851Y275661D01*
X110290Y271893D01*
X107407Y269010D01*
X103639Y267449D01*
X99561Y267449D01*
X95793Y269010D01*
X92910Y271893D01*
X91349Y275661D01*
X91349Y279739D01*
X92910Y283507D01*
X95793Y286390D01*
X99561Y287951D01*
X101239Y287951D01*
X101309Y287959D01*
X101378Y287958D01*
X101466Y287979D01*
X101555Y287991D01*
X101620Y288016D01*
X101688Y288033D01*
X101767Y288075D01*
X101851Y288108D01*
X101907Y288149D01*
X101969Y288181D01*
X102035Y288242D01*
X102108Y288294D01*
X102152Y288348D01*
X102204Y288395D01*
X102253Y288470D01*
X102311Y288539D01*
X102341Y288603D01*
X102379Y288661D01*
X102408Y288746D01*
X102446Y288827D01*
X102459Y288896D01*
X102482Y288962D01*
X102489Y289051D01*
X102506Y289139D01*
X102502Y289209D01*
X102507Y289279D01*
X102492Y289367D01*
X102486Y289457D01*
X102465Y289523D01*
X102453Y289592D01*
X102416Y289674D01*
X102388Y289759D01*
X102351Y289818D01*
X102322Y289882D01*
X102266Y289952D01*
X102218Y290028D01*
X102167Y290076D01*
X102124Y290130D01*
X102052Y290185D01*
X101987Y290246D01*
X101925Y290280D01*
X101870Y290322D01*
X101725Y290393D01*
X99233Y291425D01*
X99131Y291453D01*
X99031Y291489D01*
X98948Y291503D01*
X98927Y291509D01*
X98911Y291509D01*
X98872Y291515D01*
X96760Y291723D01*
X96741Y291723D01*
X96636Y291729D01*
X22327Y291729D01*
X22229Y291717D01*
X22130Y291714D01*
X22072Y291697D01*
X22012Y291689D01*
X21920Y291653D01*
X21824Y291625D01*
X21772Y291595D01*
X21716Y291572D01*
X21636Y291514D01*
X21550Y291464D01*
X21475Y291398D01*
X21459Y291386D01*
X21451Y291376D01*
X21430Y291357D01*
X20888Y290816D01*
X19050Y290055D01*
X17061Y290055D01*
X15223Y290816D01*
X13816Y292223D01*
X13055Y294061D01*
X13055Y296117D01*
X13070Y296166D01*
X13071Y296186D01*
X13076Y296205D01*
X13078Y296344D01*
X13085Y296483D01*
X13081Y296503D01*
X13081Y296523D01*
X13049Y296658D01*
X13021Y296795D01*
X13012Y296813D01*
X13007Y296832D01*
X12942Y296955D01*
X12881Y297080D01*
X12868Y297096D01*
X12858Y297113D01*
X12765Y297217D01*
X12674Y297322D01*
X12658Y297334D01*
X12645Y297349D01*
X12528Y297426D01*
X12414Y297506D01*
X12396Y297513D01*
X12379Y297524D01*
X12247Y297569D01*
X12117Y297618D01*
X12097Y297621D01*
X12078Y297627D01*
X11940Y297638D01*
X11801Y297654D01*
X11781Y297651D01*
X11761Y297652D01*
X11624Y297629D01*
X11486Y297609D01*
X11460Y297600D01*
X11448Y297598D01*
X11429Y297590D01*
X11334Y297557D01*
X10725Y297305D01*
X8735Y297305D01*
X6897Y298066D01*
X5491Y299473D01*
X4729Y301311D01*
X4729Y303300D01*
X5491Y305138D01*
X6897Y306545D01*
X8735Y307306D01*
X10011Y307306D01*
X10060Y307313D01*
X10109Y307310D01*
X10217Y307332D01*
X10326Y307346D01*
X10372Y307364D01*
X10421Y307374D01*
X10520Y307423D01*
X10622Y307463D01*
X10662Y307492D01*
X10707Y307514D01*
X10790Y307585D01*
X10879Y307650D01*
X10911Y307688D01*
X10949Y307721D01*
X11012Y307810D01*
X11082Y307895D01*
X11103Y307940D01*
X11132Y307981D01*
X11171Y308083D01*
X11217Y308183D01*
X11227Y308231D01*
X11244Y308278D01*
X11257Y308387D01*
X11277Y308495D01*
X11274Y308545D01*
X11280Y308594D01*
X11264Y308703D01*
X11257Y308812D01*
X11242Y308860D01*
X11235Y308909D01*
X11183Y309061D01*
X10999Y309505D01*
X10999Y311495D01*
X11761Y313333D01*
X12530Y314103D01*
X12603Y314197D01*
X12682Y314286D01*
X12700Y314322D01*
X12725Y314354D01*
X12773Y314463D01*
X12827Y314569D01*
X12836Y314608D01*
X12852Y314646D01*
X12870Y314763D01*
X12896Y314879D01*
X12895Y314920D01*
X12902Y314960D01*
X12890Y315078D01*
X12887Y315197D01*
X12875Y315236D01*
X12872Y315276D01*
X12831Y315388D01*
X12798Y315503D01*
X12778Y315538D01*
X12764Y315576D01*
X12697Y315674D01*
X12637Y315777D01*
X12597Y315822D01*
X12586Y315839D01*
X12570Y315852D01*
X12530Y315898D01*
X11761Y316667D01*
X10999Y318505D01*
X10999Y320495D01*
X11761Y322333D01*
X13167Y323739D01*
X15005Y324501D01*
X16995Y324501D01*
X18833Y323739D01*
X20239Y322333D01*
X21001Y320495D01*
X21001Y318505D01*
X20239Y316667D01*
X19470Y315898D01*
X19397Y315804D01*
X19318Y315714D01*
X19299Y315678D01*
X19275Y315646D01*
X19227Y315537D01*
X19173Y315431D01*
X19164Y315392D01*
X19148Y315354D01*
X19130Y315237D01*
X19104Y315121D01*
X19105Y315080D01*
X19098Y315040D01*
X19110Y314922D01*
X19113Y314803D01*
X19125Y314764D01*
X19128Y314724D01*
X19169Y314611D01*
X19202Y314497D01*
X19222Y314463D01*
X19236Y314424D01*
X19303Y314326D01*
X19363Y314223D01*
X19403Y314178D01*
X19414Y314161D01*
X19430Y314148D01*
X19470Y314103D01*
X20239Y313333D01*
X21001Y311495D01*
X21001Y309505D01*
X20221Y307622D01*
X20141Y307526D01*
X20133Y307508D01*
X20120Y307492D01*
X20065Y307364D01*
X20006Y307238D01*
X20002Y307219D01*
X19994Y307200D01*
X19972Y307063D01*
X19946Y306926D01*
X19947Y306906D01*
X19944Y306886D01*
X19957Y306747D01*
X19966Y306609D01*
X19972Y306589D01*
X19974Y306569D01*
X20021Y306438D01*
X20064Y306306D01*
X20074Y306289D01*
X20081Y306270D01*
X20160Y306155D01*
X20234Y306037D01*
X20249Y306024D01*
X20260Y306007D01*
X20364Y305915D01*
X20466Y305819D01*
X20483Y305810D01*
X20498Y305796D01*
X20622Y305733D01*
X20744Y305666D01*
X20764Y305661D01*
X20782Y305652D01*
X20917Y305621D01*
X21052Y305587D01*
X21080Y305585D01*
X21092Y305582D01*
X21112Y305583D01*
X21213Y305576D01*
X26117Y305576D01*
X26120Y305573D01*
X26127Y305568D01*
X26133Y305560D01*
X26252Y305471D01*
X26371Y305378D01*
X26380Y305375D01*
X26387Y305369D01*
X26532Y305298D01*
X27219Y305014D01*
X27228Y305011D01*
X27236Y305007D01*
X27380Y304969D01*
X27525Y304930D01*
X27535Y304930D01*
X27544Y304927D01*
X27704Y304917D01*
X27708Y304917D01*
X27711Y304914D01*
X27712Y304914D01*
X27713Y304913D01*
X28483Y304142D01*
X28983Y303643D01*
X29061Y303582D01*
X29133Y303514D01*
X29186Y303485D01*
X29234Y303448D01*
X29325Y303408D01*
X29412Y303360D01*
X29470Y303345D01*
X29526Y303321D01*
X29624Y303306D01*
X29720Y303281D01*
X29820Y303275D01*
X29840Y303271D01*
X29852Y303273D01*
X29881Y303271D01*
X50732Y303271D01*
X50782Y303277D01*
X50831Y303275D01*
X50939Y303297D01*
X51048Y303311D01*
X51094Y303329D01*
X51143Y303339D01*
X51241Y303387D01*
X51344Y303428D01*
X51384Y303457D01*
X51428Y303479D01*
X51512Y303550D01*
X51601Y303614D01*
X51633Y303653D01*
X51670Y303685D01*
X51734Y303775D01*
X51804Y303859D01*
X51825Y303904D01*
X51854Y303945D01*
X51893Y304048D01*
X51939Y304147D01*
X51949Y304196D01*
X51966Y304242D01*
X51978Y304352D01*
X51999Y304459D01*
X51996Y304509D01*
X52002Y304558D01*
X51986Y304667D01*
X51979Y304777D01*
X51964Y304824D01*
X51957Y304873D01*
X51905Y305026D01*
X51499Y306005D01*
X51499Y307995D01*
X52261Y309833D01*
X53667Y311239D01*
X55505Y312001D01*
X57495Y312001D01*
X59333Y311239D01*
X59930Y310642D01*
X60008Y310582D01*
X60080Y310514D01*
X60133Y310485D01*
X60181Y310448D01*
X60272Y310408D01*
X60359Y310360D01*
X60417Y310345D01*
X60473Y310321D01*
X60571Y310306D01*
X60666Y310281D01*
X60766Y310275D01*
X60787Y310271D01*
X60799Y310273D01*
X60827Y310271D01*
X93279Y310271D01*
X93324Y310276D01*
X93370Y310274D01*
X93481Y310296D01*
X93594Y310311D01*
X93637Y310327D01*
X93681Y310336D01*
X93784Y310386D01*
X93890Y310428D01*
X93927Y310454D01*
X93968Y310474D01*
X94055Y310548D01*
X94147Y310614D01*
X94176Y310650D01*
X94211Y310679D01*
X94277Y310772D01*
X94350Y310859D01*
X94370Y310901D01*
X94396Y310938D01*
X94437Y311044D01*
X94486Y311147D01*
X94494Y311192D01*
X94511Y311235D01*
X94524Y311348D01*
X94545Y311459D01*
X94543Y311505D01*
X94548Y311550D01*
X94533Y311663D01*
X94526Y311777D01*
X94512Y311820D01*
X94505Y311866D01*
X94463Y311971D01*
X94428Y312079D01*
X94403Y312118D01*
X94386Y312160D01*
X94318Y312252D01*
X94257Y312348D01*
X94224Y312379D01*
X94197Y312416D01*
X94109Y312488D01*
X94026Y312566D01*
X93986Y312588D01*
X93950Y312617D01*
X93809Y312693D01*
X87389Y315643D01*
X87385Y315644D01*
X87244Y315699D01*
X59031Y324663D01*
X59026Y324664D01*
X58880Y324701D01*
X29780Y330135D01*
X29775Y330135D01*
X29625Y330154D01*
X78Y331974D01*
X73Y331974D01*
X-78Y331974D01*
X-7078Y331543D01*
X-7157Y331528D01*
X-7237Y331523D01*
X-7312Y331499D01*
X-7391Y331484D01*
X-7463Y331450D01*
X-7539Y331425D01*
X-7607Y331383D01*
X-7678Y331349D01*
X-7740Y331298D01*
X-7808Y331255D01*
X-7863Y331197D01*
X-7924Y331147D01*
X-7971Y331082D01*
X-8026Y331023D01*
X-8064Y330954D01*
X-8111Y330890D01*
X-8141Y330815D01*
X-8180Y330745D01*
X-8199Y330668D01*
X-8229Y330594D01*
X-8239Y330515D01*
X-8259Y330437D01*
X-8269Y330281D01*
X-8269Y330279D01*
X-8269Y330278D01*
X-8269Y330276D01*
X-8269Y286992D01*
X-8252Y286854D01*
X-8239Y286715D01*
X-8232Y286696D01*
X-8229Y286676D01*
X-8178Y286547D01*
X-8131Y286416D01*
X-8120Y286399D01*
X-8112Y286380D01*
X-8031Y286268D01*
X-7953Y286153D01*
X-7937Y286140D01*
X-7926Y286123D01*
X-7818Y286034D01*
X-7714Y285942D01*
X-7696Y285933D01*
X-7681Y285920D01*
X-7555Y285861D01*
X-7431Y285798D01*
X-7411Y285793D01*
X-7393Y285785D01*
X-7257Y285759D01*
X-7121Y285728D01*
X-7100Y285729D01*
X-7081Y285725D01*
X-6942Y285734D01*
X-6803Y285738D01*
X-6783Y285744D01*
X-6763Y285745D01*
X-6631Y285788D01*
X-6497Y285826D01*
X-6480Y285837D01*
X-6461Y285843D01*
X-6343Y285917D01*
X-6223Y285988D01*
X-6202Y286006D01*
X-6192Y286013D01*
X-6178Y286028D01*
X-6103Y286094D01*
X-5807Y286390D01*
X-2039Y287951D01*
X2039Y287951D01*
X5807Y286390D01*
X8690Y283507D01*
X10251Y279739D01*
X10251Y275661D01*
X8690Y271893D01*
X5807Y269010D01*
X2039Y267449D01*
X-2039Y267449D01*
X-5807Y269010D01*
X-6103Y269306D01*
X-6212Y269391D01*
X-6319Y269480D01*
X-6338Y269488D01*
X-6354Y269501D01*
X-6482Y269556D01*
X-6607Y269615D01*
X-6627Y269619D01*
X-6646Y269627D01*
X-6784Y269649D01*
X-6920Y269675D01*
X-6940Y269674D01*
X-6960Y269677D01*
X-7099Y269664D01*
X-7237Y269655D01*
X-7256Y269649D01*
X-7276Y269647D01*
X-7408Y269600D01*
X-7539Y269557D01*
X-7557Y269546D01*
X-7576Y269540D01*
X-7691Y269461D01*
X-7808Y269387D01*
X-7822Y269372D01*
X-7839Y269361D01*
X-7931Y269257D01*
X-8026Y269155D01*
X-8036Y269138D01*
X-8049Y269122D01*
X-8113Y268999D01*
X-8180Y268877D01*
X-8185Y268857D01*
X-8194Y268839D01*
X-8224Y268703D01*
X-8259Y268569D01*
X-8261Y268541D01*
X-8264Y268529D01*
X-8263Y268508D01*
X-8269Y268408D01*
X-8269Y261592D01*
X-8252Y261454D01*
X-8239Y261315D01*
X-8232Y261296D01*
X-8229Y261276D01*
X-8178Y261147D01*
X-8131Y261016D01*
X-8120Y260999D01*
X-8112Y260980D01*
X-8031Y260868D01*
X-7953Y260753D01*
X-7937Y260740D01*
X-7926Y260723D01*
X-7818Y260634D01*
X-7714Y260542D01*
X-7696Y260533D01*
X-7681Y260520D01*
X-7555Y260461D01*
X-7431Y260398D01*
X-7411Y260393D01*
X-7393Y260385D01*
X-7257Y260359D01*
X-7121Y260328D01*
X-7100Y260329D01*
X-7081Y260325D01*
X-6942Y260334D01*
X-6803Y260338D01*
X-6783Y260344D01*
X-6763Y260345D01*
X-6631Y260388D01*
X-6497Y260426D01*
X-6480Y260437D01*
X-6461Y260443D01*
X-6343Y260517D01*
X-6223Y260588D01*
X-6202Y260606D01*
X-6192Y260613D01*
X-6178Y260628D01*
X-6103Y260694D01*
X-5807Y260990D01*
X-2039Y262551D01*
X2039Y262551D01*
X5807Y260990D01*
X8690Y258107D01*
X10251Y254339D01*
X10251Y250261D01*
X8690Y246493D01*
X5807Y243610D01*
X2039Y242049D01*
X-2039Y242049D01*
X-5807Y243610D01*
X-6103Y243906D01*
X-6212Y243991D01*
X-6319Y244080D01*
X-6338Y244088D01*
X-6354Y244101D01*
X-6482Y244156D01*
X-6607Y244215D01*
X-6627Y244219D01*
X-6646Y244227D01*
X-6784Y244249D01*
X-6920Y244275D01*
X-6940Y244274D01*
X-6960Y244277D01*
X-7099Y244264D01*
X-7237Y244255D01*
X-7256Y244249D01*
X-7276Y244247D01*
X-7408Y244200D01*
X-7539Y244157D01*
X-7557Y244146D01*
X-7576Y244140D01*
X-7691Y244061D01*
X-7808Y243987D01*
X-7822Y243972D01*
X-7839Y243961D01*
X-7931Y243857D01*
X-8026Y243755D01*
X-8036Y243738D01*
X-8049Y243722D01*
X-8113Y243599D01*
X-8180Y243477D01*
X-8185Y243457D01*
X-8194Y243439D01*
X-8224Y243303D01*
X-8259Y243169D01*
X-8261Y243141D01*
X-8264Y243129D01*
X-8263Y243108D01*
X-8269Y243008D01*
X-8269Y209040D01*
X-8254Y208922D01*
X-8247Y208803D01*
X-8234Y208765D01*
X-8229Y208724D01*
X-8186Y208614D01*
X-8149Y208501D01*
X-8127Y208466D01*
X-8112Y208429D01*
X-8043Y208333D01*
X-7979Y208232D01*
X-7949Y208204D01*
X-7926Y208171D01*
X-7834Y208095D01*
X-7747Y208014D01*
X-7712Y207994D01*
X-7681Y207969D01*
X-7573Y207918D01*
X-7469Y207860D01*
X-7429Y207850D01*
X-7393Y207833D01*
X-7276Y207811D01*
X-7161Y207781D01*
X-7101Y207777D01*
X-7081Y207773D01*
X-7060Y207775D01*
X-7000Y207771D01*
X-2327Y207771D01*
X-2229Y207783D01*
X-2130Y207786D01*
X-2072Y207803D01*
X-2012Y207811D01*
X-1920Y207847D01*
X-1824Y207875D01*
X-1772Y207905D01*
X-1716Y207928D01*
X-1636Y207986D01*
X-1550Y208036D01*
X-1475Y208102D01*
X-1459Y208114D01*
X-1451Y208124D01*
X-1430Y208143D01*
X-833Y208739D01*
X1005Y209501D01*
X2995Y209501D01*
X4833Y208739D01*
X6239Y207333D01*
X7001Y205495D01*
X7001Y203505D01*
X6239Y201667D01*
X4833Y200261D01*
X2995Y199499D01*
X1005Y199499D01*
X-833Y200261D01*
X-1430Y200857D01*
X-1508Y200918D01*
X-1580Y200986D01*
X-1633Y201015D01*
X-1681Y201052D01*
X-1772Y201092D01*
X-1858Y201140D01*
X-1917Y201155D01*
X-1973Y201179D01*
X-2071Y201194D01*
X-2166Y201219D01*
X-2266Y201225D01*
X-2287Y201229D01*
X-2299Y201227D01*
X-2327Y201229D01*
X-7000Y201229D01*
X-7020Y201227D01*
X-7124Y201223D01*
X-8190Y201118D01*
X-8293Y201095D01*
X-8399Y201080D01*
X-8478Y201053D01*
X-8500Y201048D01*
X-8514Y201040D01*
X-8551Y201028D01*
X-10519Y200212D01*
X-10527Y200208D01*
X-10536Y200205D01*
X-10665Y200129D01*
X-10795Y200055D01*
X-10802Y200048D01*
X-10810Y200044D01*
X-10931Y199937D01*
X-12437Y198431D01*
X-12443Y198424D01*
X-12450Y198418D01*
X-12540Y198298D01*
X-12632Y198180D01*
X-12636Y198171D01*
X-12642Y198164D01*
X-12712Y198019D01*
X-13528Y196051D01*
X-13552Y195961D01*
X-13564Y195936D01*
X-13568Y195914D01*
X-13592Y195849D01*
X-13606Y195765D01*
X-13612Y195744D01*
X-13612Y195728D01*
X-13618Y195690D01*
X-13723Y194624D01*
X-13723Y194605D01*
X-13729Y194500D01*
X-13729Y185036D01*
X-13727Y185016D01*
X-13723Y184911D01*
X-13600Y183661D01*
X-13576Y183557D01*
X-13562Y183452D01*
X-13534Y183372D01*
X-13529Y183351D01*
X-13522Y183336D01*
X-13509Y183299D01*
X-12552Y180989D01*
X-12500Y180897D01*
X-12455Y180800D01*
X-12406Y180731D01*
X-12395Y180713D01*
X-12384Y180701D01*
X-12361Y180669D01*
X-11564Y179698D01*
X-11549Y179684D01*
X-11480Y179606D01*
X-11422Y179547D01*
X-11421Y179547D01*
X-5858Y173983D01*
X-4806Y172932D01*
X-2229Y166710D01*
X-2229Y140399D01*
X-2227Y140379D01*
X-2227Y140316D01*
X-2061Y137790D01*
X-2053Y137746D01*
X-2052Y137702D01*
X-2020Y137544D01*
X-712Y132662D01*
X-680Y132583D01*
X-657Y132501D01*
X-596Y132378D01*
X-592Y132368D01*
X-590Y132364D01*
X-586Y132356D01*
X1941Y127980D01*
X1968Y127944D01*
X1988Y127905D01*
X2086Y127777D01*
X3756Y125873D01*
X3771Y125860D01*
X3813Y125813D01*
X3881Y125744D01*
X5142Y124483D01*
X5546Y124079D01*
X6884Y122742D01*
X9771Y115772D01*
X9771Y108266D01*
X6913Y101367D01*
X1633Y96087D01*
X-5266Y93229D01*
X-9232Y93229D01*
X-9282Y93223D01*
X-9331Y93225D01*
X-9439Y93203D01*
X-9548Y93189D01*
X-9594Y93171D01*
X-9643Y93161D01*
X-9741Y93113D01*
X-9844Y93072D01*
X-9884Y93043D01*
X-9928Y93021D01*
X-10012Y92950D01*
X-10101Y92886D01*
X-10133Y92847D01*
X-10170Y92815D01*
X-10234Y92725D01*
X-10304Y92641D01*
X-10325Y92596D01*
X-10354Y92555D01*
X-10393Y92452D01*
X-10439Y92353D01*
X-10449Y92304D01*
X-10466Y92258D01*
X-10478Y92148D01*
X-10499Y92041D01*
X-10496Y91991D01*
X-10502Y91942D01*
X-10486Y91833D01*
X-10479Y91723D01*
X-10464Y91676D01*
X-10457Y91627D01*
X-10405Y91474D01*
X-9999Y90495D01*
X-9999Y88505D01*
X-10761Y86667D01*
X-12167Y85261D01*
X-14005Y84499D01*
X-15995Y84499D01*
X-17833Y85261D01*
X-18377Y85804D01*
X-18471Y85877D01*
X-18560Y85956D01*
X-18596Y85974D01*
X-18628Y85999D01*
X-18737Y86047D01*
X-18843Y86101D01*
X-18882Y86110D01*
X-18920Y86126D01*
X-19037Y86144D01*
X-19153Y86170D01*
X-19194Y86169D01*
X-19234Y86176D01*
X-19352Y86164D01*
X-19471Y86161D01*
X-19510Y86149D01*
X-19550Y86146D01*
X-19662Y86105D01*
X-19777Y86072D01*
X-19812Y86052D01*
X-19850Y86038D01*
X-19948Y85971D01*
X-20051Y85911D01*
X-20096Y85871D01*
X-20113Y85860D01*
X-20126Y85844D01*
X-20172Y85804D01*
X-20667Y85309D01*
X-22505Y84547D01*
X-24495Y84547D01*
X-26333Y85309D01*
X-27739Y86715D01*
X-28501Y88553D01*
X-28501Y90543D01*
X-27863Y92083D01*
X-27831Y92198D01*
X-27793Y92311D01*
X-27789Y92351D01*
X-27779Y92390D01*
X-27777Y92509D01*
X-27767Y92628D01*
X-27774Y92667D01*
X-27774Y92708D01*
X-27801Y92824D01*
X-27822Y92941D01*
X-27838Y92978D01*
X-27848Y93017D01*
X-27904Y93122D01*
X-27952Y93231D01*
X-27978Y93263D01*
X-27997Y93298D01*
X-28077Y93386D01*
X-28151Y93479D01*
X-28183Y93504D01*
X-28210Y93534D01*
X-28310Y93599D01*
X-28405Y93671D01*
X-28459Y93697D01*
X-28476Y93708D01*
X-28496Y93715D01*
X-28550Y93742D01*
X-29103Y93971D01*
X-29198Y93997D01*
X-29291Y94032D01*
X-29351Y94039D01*
X-29410Y94055D01*
X-29508Y94056D01*
X-29607Y94067D01*
X-29667Y94059D01*
X-29728Y94060D01*
X-29824Y94037D01*
X-29922Y94023D01*
X-29991Y93999D01*
X-31995Y93999D01*
X-33833Y94761D01*
X-34103Y95030D01*
X-34212Y95116D01*
X-34319Y95204D01*
X-34338Y95213D01*
X-34354Y95225D01*
X-34482Y95281D01*
X-34607Y95340D01*
X-34627Y95344D01*
X-34646Y95352D01*
X-34784Y95374D01*
X-34920Y95400D01*
X-34940Y95398D01*
X-34960Y95402D01*
X-35099Y95388D01*
X-35237Y95380D01*
X-35256Y95374D01*
X-35276Y95372D01*
X-35408Y95325D01*
X-35539Y95282D01*
X-35557Y95271D01*
X-35576Y95264D01*
X-35691Y95186D01*
X-35808Y95112D01*
X-35822Y95097D01*
X-35839Y95086D01*
X-35931Y94981D01*
X-36026Y94880D01*
X-36036Y94862D01*
X-36049Y94847D01*
X-36113Y94723D01*
X-36180Y94602D01*
X-36185Y94582D01*
X-36194Y94564D01*
X-36224Y94428D01*
X-36259Y94294D01*
X-36261Y94266D01*
X-36264Y94254D01*
X-36263Y94233D01*
X-36269Y94133D01*
X-36269Y73770D01*
X-36254Y73652D01*
X-36247Y73533D01*
X-36234Y73495D01*
X-36229Y73454D01*
X-36186Y73344D01*
X-36149Y73231D01*
X-36127Y73196D01*
X-36112Y73159D01*
X-36043Y73063D01*
X-35979Y72962D01*
X-35949Y72934D01*
X-35926Y72901D01*
X-35834Y72825D01*
X-35747Y72744D01*
X-35712Y72724D01*
X-35681Y72699D01*
X-35573Y72648D01*
X-35469Y72590D01*
X-35429Y72580D01*
X-35393Y72563D01*
X-35276Y72541D01*
X-35161Y72511D01*
X-35101Y72507D01*
X-35081Y72503D01*
X-35060Y72505D01*
X-35000Y72501D01*
X-33505Y72501D01*
X-31667Y71739D01*
X-30261Y70333D01*
X-29499Y68495D01*
X-29499Y66505D01*
X-30261Y64667D01*
X-31667Y63261D01*
X-33505Y62499D01*
X-35000Y62499D01*
X-35118Y62484D01*
X-35237Y62477D01*
X-35275Y62464D01*
X-35316Y62459D01*
X-35426Y62416D01*
X-35539Y62379D01*
X-35574Y62357D01*
X-35611Y62342D01*
X-35707Y62273D01*
X-35808Y62209D01*
X-35836Y62179D01*
X-35869Y62156D01*
X-35945Y62064D01*
X-36026Y61977D01*
X-36046Y61942D01*
X-36071Y61911D01*
X-36122Y61803D01*
X-36180Y61699D01*
X-36190Y61659D01*
X-36207Y61623D01*
X-36229Y61506D01*
X-36259Y61391D01*
X-36263Y61331D01*
X-36267Y61311D01*
X-36265Y61290D01*
X-36269Y61230D01*
X-36269Y19392D01*
X-36252Y19254D01*
X-36239Y19115D01*
X-36232Y19096D01*
X-36229Y19076D01*
X-36178Y18947D01*
X-36131Y18816D01*
X-36120Y18799D01*
X-36112Y18780D01*
X-36031Y18668D01*
X-35953Y18553D01*
X-35937Y18540D01*
X-35926Y18523D01*
X-35818Y18434D01*
X-35714Y18342D01*
X-35696Y18333D01*
X-35681Y18320D01*
X-35555Y18261D01*
X-35431Y18198D01*
X-35411Y18193D01*
X-35393Y18185D01*
X-35257Y18159D01*
X-35121Y18128D01*
X-35100Y18129D01*
X-35081Y18125D01*
X-34942Y18134D01*
X-34803Y18138D01*
X-34783Y18144D01*
X-34763Y18145D01*
X-34631Y18188D01*
X-34497Y18226D01*
X-34480Y18237D01*
X-34461Y18243D01*
X-34343Y18317D01*
X-34223Y18388D01*
X-34202Y18406D01*
X-34192Y18413D01*
X-34178Y18428D01*
X-34103Y18494D01*
X-31207Y21390D01*
X-27439Y22951D01*
X-23361Y22951D01*
X-19593Y21390D01*
X-16710Y18507D01*
X-15149Y14739D01*
X-15149Y10661D01*
X-16710Y6893D01*
X-19593Y4010D01*
X-23361Y2449D01*
X-27439Y2449D01*
X-31207Y4010D01*
X-34103Y6906D01*
X-34212Y6991D01*
X-34319Y7080D01*
X-34338Y7088D01*
X-34354Y7101D01*
X-34482Y7156D01*
X-34607Y7215D01*
X-34627Y7219D01*
X-34646Y7227D01*
X-34784Y7249D01*
X-34920Y7275D01*
X-34940Y7274D01*
X-34960Y7277D01*
X-35099Y7264D01*
X-35237Y7255D01*
X-35256Y7249D01*
X-35276Y7247D01*
X-35408Y7200D01*
X-35539Y7157D01*
X-35557Y7146D01*
X-35576Y7140D01*
X-35691Y7061D01*
X-35808Y6987D01*
X-35822Y6972D01*
X-35839Y6961D01*
X-35931Y6857D01*
X-36026Y6755D01*
X-36036Y6738D01*
X-36049Y6722D01*
X-36113Y6599D01*
X-36180Y6477D01*
X-36185Y6457D01*
X-36194Y6439D01*
X-36224Y6303D01*
X-36259Y6169D01*
X-36261Y6141D01*
X-36264Y6129D01*
X-36263Y6108D01*
X-36269Y6008D01*
X-36269Y-6008D01*
X-36252Y-6146D01*
X-36239Y-6285D01*
X-36232Y-6304D01*
X-36229Y-6324D01*
X-36178Y-6453D01*
X-36131Y-6584D01*
X-36120Y-6601D01*
X-36112Y-6620D01*
X-36031Y-6732D01*
X-35953Y-6847D01*
X-35937Y-6860D01*
X-35926Y-6877D01*
X-35818Y-6966D01*
X-35714Y-7058D01*
X-35696Y-7067D01*
X-35681Y-7080D01*
X-35555Y-7139D01*
X-35431Y-7202D01*
X-35411Y-7207D01*
X-35393Y-7215D01*
X-35257Y-7241D01*
X-35121Y-7272D01*
X-35100Y-7271D01*
X-35081Y-7275D01*
X-34942Y-7266D01*
X-34803Y-7262D01*
X-34783Y-7256D01*
X-34763Y-7255D01*
X-34631Y-7212D01*
X-34497Y-7174D01*
X-34480Y-7163D01*
X-34461Y-7157D01*
X-34343Y-7083D01*
X-34223Y-7012D01*
X-34202Y-6994D01*
X-34192Y-6987D01*
X-34178Y-6972D01*
X-34103Y-6906D01*
X-31207Y-4010D01*
X-27439Y-2449D01*
X-23361Y-2449D01*
X-19593Y-4010D01*
X-16710Y-6893D01*
X-15149Y-10661D01*
X-15149Y-14739D01*
X-16710Y-18507D01*
X-19593Y-21390D01*
X-23361Y-22951D01*
X-27439Y-22951D01*
X-31207Y-21390D01*
X-34103Y-18494D01*
X-34212Y-18409D01*
X-34319Y-18320D01*
X-34338Y-18312D01*
X-34354Y-18299D01*
X-34482Y-18244D01*
X-34607Y-18185D01*
X-34627Y-18181D01*
X-34646Y-18173D01*
X-34784Y-18151D01*
X-34920Y-18125D01*
X-34940Y-18126D01*
X-34960Y-18123D01*
X-35099Y-18136D01*
X-35237Y-18145D01*
X-35256Y-18151D01*
X-35276Y-18153D01*
X-35408Y-18200D01*
X-35539Y-18243D01*
X-35557Y-18254D01*
X-35576Y-18260D01*
X-35691Y-18339D01*
X-35808Y-18413D01*
X-35822Y-18428D01*
X-35839Y-18439D01*
X-35931Y-18543D01*
X-36026Y-18645D01*
X-36036Y-18662D01*
X-36049Y-18678D01*
X-36113Y-18801D01*
X-36180Y-18923D01*
X-36185Y-18943D01*
X-36194Y-18961D01*
X-36224Y-19097D01*
X-36259Y-19231D01*
X-36261Y-19259D01*
X-36264Y-19271D01*
X-36263Y-19292D01*
X-36269Y-19392D01*
X-36269Y-36730D01*
X-36254Y-36848D01*
X-36247Y-36967D01*
X-36234Y-37005D01*
X-36229Y-37046D01*
X-36186Y-37156D01*
X-36149Y-37269D01*
X-36127Y-37304D01*
X-36112Y-37341D01*
X-36043Y-37437D01*
X-35979Y-37538D01*
X-35949Y-37566D01*
X-35926Y-37599D01*
X-35834Y-37675D01*
X-35747Y-37756D01*
X-35712Y-37776D01*
X-35681Y-37801D01*
X-35573Y-37852D01*
X-35469Y-37910D01*
X-35429Y-37920D01*
X-35393Y-37937D01*
X-35276Y-37959D01*
X-35161Y-37989D01*
X-35101Y-37993D01*
X-35081Y-37997D01*
X-35060Y-37995D01*
X-35000Y-37999D01*
X171730Y-37999D01*
X171848Y-37984D01*
G37*
G36*
X-39422Y-37984D02*
X-39422Y-37984D01*
X-39303Y-37977D01*
X-39265Y-37964D01*
X-39224Y-37959D01*
X-39114Y-37916D01*
X-39001Y-37879D01*
X-38966Y-37857D01*
X-38929Y-37842D01*
X-38833Y-37773D01*
X-38732Y-37709D01*
X-38704Y-37679D01*
X-38671Y-37656D01*
X-38595Y-37564D01*
X-38514Y-37477D01*
X-38494Y-37442D01*
X-38469Y-37411D01*
X-38418Y-37303D01*
X-38360Y-37199D01*
X-38350Y-37159D01*
X-38333Y-37123D01*
X-38311Y-37006D01*
X-38281Y-36891D01*
X-38277Y-36831D01*
X-38273Y-36811D01*
X-38275Y-36790D01*
X-38271Y-36730D01*
X-38271Y40182D01*
X-38286Y40300D01*
X-38293Y40419D01*
X-38306Y40457D01*
X-38311Y40498D01*
X-38354Y40608D01*
X-38391Y40721D01*
X-38413Y40756D01*
X-38428Y40793D01*
X-38497Y40889D01*
X-38561Y40990D01*
X-38591Y41018D01*
X-38614Y41051D01*
X-38706Y41127D01*
X-38793Y41208D01*
X-38828Y41228D01*
X-38859Y41253D01*
X-38967Y41304D01*
X-39071Y41362D01*
X-39111Y41372D01*
X-39147Y41389D01*
X-39264Y41411D01*
X-39379Y41441D01*
X-39439Y41445D01*
X-39459Y41449D01*
X-39480Y41447D01*
X-39540Y41451D01*
X-42504Y41451D01*
X-44360Y42220D01*
X-45780Y43640D01*
X-46549Y45496D01*
X-46549Y47504D01*
X-45780Y49360D01*
X-44360Y50780D01*
X-42504Y51549D01*
X-39540Y51549D01*
X-39422Y51564D01*
X-39303Y51571D01*
X-39265Y51584D01*
X-39224Y51589D01*
X-39114Y51632D01*
X-39001Y51669D01*
X-38966Y51691D01*
X-38929Y51706D01*
X-38833Y51775D01*
X-38732Y51839D01*
X-38704Y51869D01*
X-38671Y51892D01*
X-38595Y51984D01*
X-38514Y52071D01*
X-38494Y52106D01*
X-38469Y52137D01*
X-38418Y52245D01*
X-38360Y52349D01*
X-38350Y52389D01*
X-38333Y52425D01*
X-38311Y52542D01*
X-38281Y52657D01*
X-38277Y52717D01*
X-38273Y52737D01*
X-38275Y52758D01*
X-38271Y52818D01*
X-38271Y63673D01*
X-38283Y63771D01*
X-38286Y63870D01*
X-38303Y63928D01*
X-38311Y63988D01*
X-38347Y64081D01*
X-38375Y64176D01*
X-38405Y64228D01*
X-38428Y64284D01*
X-38486Y64364D01*
X-38536Y64450D01*
X-38602Y64525D01*
X-38614Y64541D01*
X-38624Y64549D01*
X-38643Y64570D01*
X-38739Y64667D01*
X-39501Y66505D01*
X-39501Y68495D01*
X-38739Y70333D01*
X-38643Y70430D01*
X-38582Y70508D01*
X-38514Y70580D01*
X-38485Y70633D01*
X-38448Y70681D01*
X-38408Y70772D01*
X-38360Y70858D01*
X-38345Y70917D01*
X-38321Y70973D01*
X-38306Y71070D01*
X-38281Y71166D01*
X-38275Y71267D01*
X-38271Y71287D01*
X-38273Y71299D01*
X-38271Y71327D01*
X-38271Y101355D01*
X-35434Y104191D01*
X-35399Y104237D01*
X-35357Y104276D01*
X-35302Y104362D01*
X-35239Y104443D01*
X-35216Y104495D01*
X-35186Y104543D01*
X-35154Y104641D01*
X-35113Y104735D01*
X-35104Y104791D01*
X-35086Y104845D01*
X-35079Y104947D01*
X-35063Y105049D01*
X-35068Y105106D01*
X-35065Y105163D01*
X-35083Y105263D01*
X-35093Y105365D01*
X-35112Y105419D01*
X-35123Y105475D01*
X-35181Y105625D01*
X-35256Y105786D01*
X-35273Y105812D01*
X-35283Y105841D01*
X-35367Y105978D01*
X-36417Y107477D01*
X-36437Y107500D01*
X-36453Y107526D01*
X-36559Y107647D01*
X-37853Y108941D01*
X-37877Y108960D01*
X-37897Y108983D01*
X-38023Y109083D01*
X-39522Y110133D01*
X-39549Y110147D01*
X-39572Y110166D01*
X-39714Y110244D01*
X-41372Y111017D01*
X-41401Y111026D01*
X-41428Y111041D01*
X-41580Y111093D01*
X-43348Y111566D01*
X-43378Y111571D01*
X-43407Y111581D01*
X-43566Y111605D01*
X-45389Y111764D01*
X-45411Y111764D01*
X-45500Y111769D01*
X-49945Y111769D01*
X-51949Y111945D01*
X-53839Y112451D01*
X-55613Y113278D01*
X-57216Y114400D01*
X-58600Y115784D01*
X-59722Y117387D01*
X-60549Y119161D01*
X-61055Y121051D01*
X-61231Y123055D01*
X-61231Y132445D01*
X-61101Y133928D01*
X-60730Y135313D01*
X-60124Y136613D01*
X-59301Y137787D01*
X-58287Y138801D01*
X-57113Y139624D01*
X-55813Y140230D01*
X-55427Y140333D01*
X-55425Y140334D01*
X-55422Y140335D01*
X-55270Y140387D01*
X-54995Y140501D01*
X-54970Y140501D01*
X-54885Y140511D01*
X-54799Y140512D01*
X-54665Y140539D01*
X-54654Y140541D01*
X-54650Y140542D01*
X-54641Y140544D01*
X-54428Y140601D01*
X-52945Y140731D01*
X-26540Y140731D01*
X-26422Y140746D01*
X-26303Y140753D01*
X-26265Y140766D01*
X-26224Y140771D01*
X-26114Y140814D01*
X-26001Y140851D01*
X-25966Y140873D01*
X-25929Y140888D01*
X-25833Y140958D01*
X-25732Y141021D01*
X-25704Y141051D01*
X-25671Y141074D01*
X-25595Y141166D01*
X-25514Y141253D01*
X-25494Y141288D01*
X-25469Y141319D01*
X-25418Y141427D01*
X-25360Y141531D01*
X-25350Y141571D01*
X-25333Y141607D01*
X-25311Y141724D01*
X-25281Y141839D01*
X-25277Y141900D01*
X-25273Y141920D01*
X-25275Y141940D01*
X-25271Y142000D01*
X-25271Y198772D01*
X-22384Y205742D01*
X-21046Y207079D01*
X-19372Y208753D01*
X-19312Y208831D01*
X-19244Y208903D01*
X-19215Y208956D01*
X-19178Y209004D01*
X-19138Y209095D01*
X-19090Y209182D01*
X-19075Y209240D01*
X-19051Y209296D01*
X-19036Y209394D01*
X-19011Y209490D01*
X-19005Y209590D01*
X-19001Y209610D01*
X-19003Y209623D01*
X-19001Y209651D01*
X-19001Y210495D01*
X-18239Y212333D01*
X-16833Y213739D01*
X-14995Y214501D01*
X-13005Y214501D01*
X-12026Y214095D01*
X-11978Y214082D01*
X-11933Y214061D01*
X-11825Y214040D01*
X-11719Y214011D01*
X-11669Y214010D01*
X-11620Y214001D01*
X-11511Y214008D01*
X-11401Y214006D01*
X-11353Y214018D01*
X-11303Y214021D01*
X-11199Y214054D01*
X-11092Y214080D01*
X-11048Y214103D01*
X-11001Y214119D01*
X-10908Y214177D01*
X-10811Y214229D01*
X-10774Y214262D01*
X-10732Y214289D01*
X-10657Y214369D01*
X-10575Y214443D01*
X-10548Y214484D01*
X-10514Y214520D01*
X-10461Y214617D01*
X-10401Y214708D01*
X-10384Y214756D01*
X-10360Y214799D01*
X-10333Y214905D01*
X-10297Y215009D01*
X-10293Y215059D01*
X-10281Y215107D01*
X-10271Y215268D01*
X-10271Y306593D01*
X-10288Y306731D01*
X-10301Y306869D01*
X-10308Y306888D01*
X-10311Y306908D01*
X-10362Y307038D01*
X-10409Y307169D01*
X-10420Y307185D01*
X-10428Y307204D01*
X-10509Y307316D01*
X-10587Y307432D01*
X-10603Y307445D01*
X-10614Y307461D01*
X-10722Y307550D01*
X-10826Y307642D01*
X-10844Y307651D01*
X-10859Y307664D01*
X-10985Y307724D01*
X-11109Y307787D01*
X-11129Y307791D01*
X-11147Y307800D01*
X-11284Y307826D01*
X-11419Y307856D01*
X-11440Y307856D01*
X-11459Y307860D01*
X-11598Y307851D01*
X-11737Y307847D01*
X-11757Y307841D01*
X-11777Y307840D01*
X-11909Y307797D01*
X-12043Y307758D01*
X-12060Y307748D01*
X-12079Y307742D01*
X-12197Y307667D01*
X-12317Y307597D01*
X-12338Y307578D01*
X-12348Y307572D01*
X-12362Y307557D01*
X-12437Y307490D01*
X-13667Y306261D01*
X-15505Y305499D01*
X-17495Y305499D01*
X-19333Y306261D01*
X-20739Y307667D01*
X-21501Y309505D01*
X-21501Y311495D01*
X-20739Y313333D01*
X-20004Y314069D01*
X-19931Y314163D01*
X-19852Y314252D01*
X-19833Y314288D01*
X-19809Y314320D01*
X-19761Y314429D01*
X-19707Y314535D01*
X-19698Y314575D01*
X-19682Y314612D01*
X-19664Y314729D01*
X-19638Y314845D01*
X-19639Y314886D01*
X-19632Y314926D01*
X-19644Y315044D01*
X-19647Y315163D01*
X-19658Y315202D01*
X-19662Y315242D01*
X-19703Y315355D01*
X-19736Y315469D01*
X-19756Y315504D01*
X-19770Y315542D01*
X-19837Y315640D01*
X-19897Y315743D01*
X-19937Y315788D01*
X-19948Y315805D01*
X-19964Y315818D01*
X-20004Y315864D01*
X-20780Y316640D01*
X-21549Y318496D01*
X-21549Y320504D01*
X-20780Y322360D01*
X-19360Y323780D01*
X-17504Y324549D01*
X-11540Y324549D01*
X-11422Y324564D01*
X-11303Y324571D01*
X-11265Y324584D01*
X-11224Y324589D01*
X-11114Y324632D01*
X-11001Y324669D01*
X-10966Y324691D01*
X-10929Y324706D01*
X-10833Y324775D01*
X-10732Y324839D01*
X-10704Y324869D01*
X-10671Y324892D01*
X-10595Y324984D01*
X-10514Y325071D01*
X-10494Y325106D01*
X-10469Y325137D01*
X-10418Y325245D01*
X-10360Y325349D01*
X-10350Y325389D01*
X-10333Y325425D01*
X-10311Y325542D01*
X-10281Y325657D01*
X-10277Y325717D01*
X-10273Y325737D01*
X-10275Y325758D01*
X-10271Y325818D01*
X-10271Y329997D01*
X-10290Y330150D01*
X-10310Y330310D01*
X-10310Y330311D01*
X-10311Y330312D01*
X-10368Y330456D01*
X-10426Y330606D01*
X-10427Y330607D01*
X-10428Y330608D01*
X-10522Y330737D01*
X-10613Y330863D01*
X-10614Y330864D01*
X-10614Y330865D01*
X-10737Y330967D01*
X-10857Y331067D01*
X-10858Y331067D01*
X-10859Y331068D01*
X-10998Y331133D01*
X-11145Y331203D01*
X-11146Y331203D01*
X-11147Y331203D01*
X-11299Y331232D01*
X-11457Y331263D01*
X-11459Y331263D01*
X-11462Y331263D01*
X-11618Y331263D01*
X-29620Y330154D01*
X-29625Y330154D01*
X-29629Y330153D01*
X-29780Y330135D01*
X-58880Y324701D01*
X-58884Y324700D01*
X-59031Y324663D01*
X-87244Y315699D01*
X-87248Y315697D01*
X-87389Y315643D01*
X-114289Y303283D01*
X-114293Y303281D01*
X-114426Y303209D01*
X-139605Y287641D01*
X-139608Y287638D01*
X-139732Y287551D01*
X-162809Y269010D01*
X-162824Y268995D01*
X-162897Y268933D01*
X-172613Y259528D01*
X-172681Y259443D01*
X-172756Y259364D01*
X-172780Y259320D01*
X-172812Y259280D01*
X-172857Y259181D01*
X-172910Y259085D01*
X-172922Y259036D01*
X-172943Y258991D01*
X-172962Y258883D01*
X-172989Y258777D01*
X-172994Y258699D01*
X-172998Y258677D01*
X-172996Y258660D01*
X-172999Y258616D01*
X-172999Y-36730D01*
X-172984Y-36848D01*
X-172977Y-36967D01*
X-172964Y-37005D01*
X-172959Y-37046D01*
X-172916Y-37156D01*
X-172879Y-37269D01*
X-172857Y-37304D01*
X-172842Y-37341D01*
X-172773Y-37437D01*
X-172709Y-37538D01*
X-172679Y-37566D01*
X-172656Y-37599D01*
X-172564Y-37675D01*
X-172477Y-37756D01*
X-172442Y-37776D01*
X-172411Y-37801D01*
X-172303Y-37852D01*
X-172199Y-37910D01*
X-172159Y-37920D01*
X-172123Y-37937D01*
X-172006Y-37959D01*
X-171891Y-37989D01*
X-171831Y-37993D01*
X-171811Y-37997D01*
X-171790Y-37995D01*
X-171730Y-37999D01*
X-39540Y-37999D01*
X-39422Y-37984D01*
G37*
%LPC*%
G36*
X48761Y-22951D02*
X48761Y-22951D01*
X44993Y-21390D01*
X42110Y-18507D01*
X40549Y-14739D01*
X40549Y-10661D01*
X42110Y-6893D01*
X44993Y-4010D01*
X48761Y-2449D01*
X52839Y-2449D01*
X54328Y-3066D01*
X54363Y-3076D01*
X54395Y-3092D01*
X54516Y-3117D01*
X54635Y-3150D01*
X54671Y-3150D01*
X54706Y-3158D01*
X54830Y-3153D01*
X54953Y-3155D01*
X54988Y-3147D01*
X55024Y-3145D01*
X55142Y-3110D01*
X55262Y-3081D01*
X55294Y-3064D01*
X55329Y-3053D01*
X55434Y-2990D01*
X55543Y-2932D01*
X55570Y-2908D01*
X55601Y-2889D01*
X55687Y-2801D01*
X55778Y-2718D01*
X55798Y-2688D01*
X55824Y-2662D01*
X55913Y-2528D01*
X58471Y1904D01*
X58505Y1983D01*
X58547Y2057D01*
X58590Y2187D01*
X58595Y2197D01*
X58595Y2201D01*
X58598Y2210D01*
X58760Y2814D01*
X58780Y2958D01*
X58803Y3102D01*
X58801Y3115D01*
X58803Y3129D01*
X58787Y3273D01*
X58773Y3419D01*
X58768Y3431D01*
X58767Y3445D01*
X58714Y3581D01*
X58665Y3718D01*
X58658Y3729D01*
X58653Y3742D01*
X58568Y3861D01*
X58487Y3981D01*
X58477Y3990D01*
X58469Y4001D01*
X58357Y4095D01*
X58248Y4192D01*
X58236Y4198D01*
X58226Y4206D01*
X58095Y4270D01*
X57965Y4336D01*
X57952Y4339D01*
X57940Y4345D01*
X57797Y4374D01*
X57655Y4406D01*
X57641Y4405D01*
X57628Y4408D01*
X57483Y4401D01*
X57337Y4396D01*
X57324Y4392D01*
X57310Y4392D01*
X57171Y4348D01*
X57031Y4308D01*
X57020Y4301D01*
X57007Y4297D01*
X56883Y4220D01*
X56757Y4146D01*
X56743Y4134D01*
X56736Y4130D01*
X56725Y4117D01*
X56637Y4040D01*
X56607Y4010D01*
X52839Y2449D01*
X48761Y2449D01*
X44993Y4010D01*
X42110Y6893D01*
X40549Y10661D01*
X40549Y14739D01*
X42110Y18507D01*
X44993Y21390D01*
X48761Y22951D01*
X52839Y22951D01*
X56607Y21390D01*
X58063Y19934D01*
X58172Y19849D01*
X58279Y19760D01*
X58298Y19752D01*
X58314Y19739D01*
X58442Y19684D01*
X58567Y19625D01*
X58587Y19621D01*
X58606Y19613D01*
X58744Y19591D01*
X58880Y19565D01*
X58900Y19566D01*
X58920Y19563D01*
X59059Y19576D01*
X59197Y19585D01*
X59216Y19591D01*
X59236Y19593D01*
X59368Y19640D01*
X59499Y19683D01*
X59517Y19694D01*
X59536Y19700D01*
X59651Y19779D01*
X59768Y19853D01*
X59782Y19868D01*
X59799Y19879D01*
X59891Y19983D01*
X59986Y20085D01*
X59996Y20102D01*
X60009Y20117D01*
X60073Y20242D01*
X60140Y20363D01*
X60145Y20383D01*
X60154Y20401D01*
X60184Y20537D01*
X60219Y20671D01*
X60221Y20699D01*
X60224Y20711D01*
X60223Y20731D01*
X60229Y20832D01*
X60229Y42119D01*
X60217Y42218D01*
X60214Y42317D01*
X60197Y42375D01*
X60189Y42435D01*
X60153Y42527D01*
X60125Y42622D01*
X60095Y42674D01*
X60072Y42731D01*
X60014Y42811D01*
X59964Y42896D01*
X59898Y42972D01*
X59886Y42988D01*
X59876Y42996D01*
X59858Y43017D01*
X59007Y43868D01*
X57729Y46952D01*
X57729Y108389D01*
X60977Y120510D01*
X67251Y131376D01*
X68628Y132753D01*
X68688Y132831D01*
X68756Y132903D01*
X68785Y132956D01*
X68822Y133004D01*
X68862Y133095D01*
X68910Y133182D01*
X68925Y133240D01*
X68949Y133296D01*
X68964Y133394D01*
X68989Y133490D01*
X68995Y133590D01*
X68999Y133610D01*
X68997Y133623D01*
X68999Y133651D01*
X68999Y134495D01*
X69761Y136333D01*
X71167Y137739D01*
X73005Y138501D01*
X74995Y138501D01*
X76833Y137739D01*
X78239Y136333D01*
X79001Y134495D01*
X79001Y132505D01*
X78239Y130667D01*
X76833Y129261D01*
X74995Y128499D01*
X74527Y128499D01*
X74388Y128482D01*
X74248Y128468D01*
X74230Y128462D01*
X74211Y128459D01*
X74081Y128408D01*
X73949Y128360D01*
X73933Y128349D01*
X73916Y128342D01*
X73802Y128260D01*
X73686Y128181D01*
X73668Y128162D01*
X73658Y128156D01*
X73646Y128140D01*
X73573Y128067D01*
X72819Y127208D01*
X72795Y127171D01*
X72764Y127140D01*
X72675Y127006D01*
X67474Y117998D01*
X67441Y117919D01*
X67398Y117844D01*
X67355Y117715D01*
X67351Y117705D01*
X67350Y117700D01*
X67347Y117692D01*
X64655Y107644D01*
X64649Y107601D01*
X64635Y107559D01*
X64614Y107399D01*
X64407Y104237D01*
X64324Y102968D01*
X64273Y102198D01*
X64275Y102178D01*
X64271Y102115D01*
X64271Y55561D01*
X64277Y55511D01*
X64275Y55462D01*
X64297Y55354D01*
X64311Y55245D01*
X64329Y55199D01*
X64339Y55150D01*
X64387Y55051D01*
X64428Y54949D01*
X64457Y54909D01*
X64479Y54864D01*
X64550Y54781D01*
X64614Y54692D01*
X64653Y54660D01*
X64685Y54622D01*
X64775Y54559D01*
X64859Y54489D01*
X64904Y54468D01*
X64945Y54439D01*
X65048Y54400D01*
X65147Y54354D01*
X65196Y54344D01*
X65242Y54327D01*
X65352Y54314D01*
X65459Y54294D01*
X65509Y54297D01*
X65558Y54291D01*
X65667Y54307D01*
X65777Y54314D01*
X65824Y54329D01*
X65873Y54336D01*
X66026Y54388D01*
X67029Y54804D01*
X67055Y54818D01*
X67083Y54827D01*
X67193Y54897D01*
X67306Y54961D01*
X67327Y54982D01*
X67352Y54998D01*
X67441Y55092D01*
X67534Y55182D01*
X67550Y55208D01*
X67570Y55229D01*
X67632Y55343D01*
X67700Y55454D01*
X67709Y55482D01*
X67723Y55508D01*
X67756Y55633D01*
X67794Y55758D01*
X67795Y55787D01*
X67803Y55816D01*
X67813Y55976D01*
X67813Y57995D01*
X68574Y59833D01*
X69981Y61239D01*
X71819Y62001D01*
X73809Y62001D01*
X75646Y61239D01*
X77053Y59833D01*
X77814Y57995D01*
X77814Y56005D01*
X77053Y54167D01*
X75646Y52761D01*
X74284Y52196D01*
X74259Y52182D01*
X74231Y52173D01*
X74121Y52103D01*
X74008Y52039D01*
X73987Y52018D01*
X73962Y52002D01*
X73873Y51908D01*
X73780Y51818D01*
X73764Y51792D01*
X73744Y51771D01*
X73681Y51657D01*
X73613Y51546D01*
X73605Y51518D01*
X73590Y51492D01*
X73558Y51367D01*
X73520Y51242D01*
X73518Y51213D01*
X73511Y51184D01*
X73501Y51024D01*
X73501Y49005D01*
X72739Y47167D01*
X71333Y45761D01*
X69495Y44999D01*
X68040Y44999D01*
X67922Y44984D01*
X67803Y44977D01*
X67765Y44964D01*
X67724Y44959D01*
X67614Y44916D01*
X67501Y44879D01*
X67466Y44857D01*
X67429Y44842D01*
X67333Y44773D01*
X67232Y44709D01*
X67204Y44679D01*
X67171Y44656D01*
X67095Y44564D01*
X67014Y44477D01*
X66994Y44442D01*
X66969Y44411D01*
X66918Y44303D01*
X66860Y44199D01*
X66850Y44159D01*
X66833Y44123D01*
X66811Y44006D01*
X66781Y43891D01*
X66777Y43831D01*
X66773Y43811D01*
X66775Y43790D01*
X66771Y43730D01*
X66771Y20832D01*
X66788Y20694D01*
X66801Y20555D01*
X66808Y20536D01*
X66811Y20516D01*
X66862Y20387D01*
X66909Y20256D01*
X66920Y20239D01*
X66928Y20220D01*
X67009Y20108D01*
X67087Y19993D01*
X67103Y19980D01*
X67114Y19963D01*
X67222Y19874D01*
X67326Y19782D01*
X67344Y19773D01*
X67359Y19760D01*
X67485Y19701D01*
X67609Y19638D01*
X67629Y19633D01*
X67647Y19625D01*
X67784Y19599D01*
X67919Y19568D01*
X67940Y19569D01*
X67959Y19565D01*
X68098Y19574D01*
X68237Y19578D01*
X68257Y19583D01*
X68277Y19585D01*
X68409Y19627D01*
X68543Y19666D01*
X68560Y19677D01*
X68579Y19683D01*
X68697Y19757D01*
X68817Y19828D01*
X68838Y19846D01*
X68848Y19853D01*
X68862Y19868D01*
X68937Y19934D01*
X70393Y21390D01*
X74161Y22951D01*
X78239Y22951D01*
X82007Y21390D01*
X84890Y18507D01*
X86451Y14739D01*
X86451Y10661D01*
X84890Y6893D01*
X82007Y4010D01*
X78239Y2449D01*
X74161Y2449D01*
X70393Y4010D01*
X68512Y5891D01*
X68408Y5972D01*
X68307Y6057D01*
X68283Y6069D01*
X68261Y6086D01*
X68139Y6138D01*
X68021Y6196D01*
X67994Y6201D01*
X67969Y6212D01*
X67838Y6233D01*
X67709Y6259D01*
X67682Y6258D01*
X67655Y6262D01*
X67523Y6249D01*
X67391Y6243D01*
X67366Y6235D01*
X67339Y6232D01*
X67214Y6187D01*
X67088Y6148D01*
X67065Y6134D01*
X67039Y6125D01*
X66930Y6050D01*
X66817Y5981D01*
X66799Y5961D01*
X66776Y5946D01*
X66689Y5847D01*
X66597Y5751D01*
X66584Y5728D01*
X66566Y5707D01*
X66506Y5590D01*
X66440Y5474D01*
X66428Y5438D01*
X66421Y5424D01*
X66416Y5403D01*
X66389Y5322D01*
X64817Y-546D01*
X61042Y-7083D01*
X60600Y-7525D01*
X60582Y-7549D01*
X60559Y-7568D01*
X60485Y-7674D01*
X60405Y-7777D01*
X60393Y-7804D01*
X60376Y-7828D01*
X60330Y-7949D01*
X60279Y-8069D01*
X60274Y-8098D01*
X60264Y-8125D01*
X60249Y-8254D01*
X60229Y-8383D01*
X60232Y-8412D01*
X60228Y-8441D01*
X60247Y-8570D01*
X60259Y-8699D01*
X60269Y-8727D01*
X60273Y-8756D01*
X60325Y-8909D01*
X61051Y-10661D01*
X61051Y-14739D01*
X59490Y-18507D01*
X56607Y-21390D01*
X52839Y-22951D01*
X48761Y-22951D01*
G37*
%LPD*%
%LPC*%
G36*
X-78239Y267449D02*
X-78239Y267449D01*
X-82007Y269010D01*
X-84890Y271893D01*
X-86451Y275661D01*
X-86451Y279739D01*
X-84890Y283507D01*
X-82007Y286390D01*
X-78239Y287951D01*
X-74161Y287951D01*
X-70393Y286390D01*
X-67510Y283507D01*
X-65949Y279739D01*
X-65949Y275661D01*
X-67510Y271893D01*
X-70393Y269010D01*
X-74161Y267449D01*
X-78239Y267449D01*
G37*
%LPD*%
%LPC*%
G36*
X-103639Y267449D02*
X-103639Y267449D01*
X-107407Y269010D01*
X-110290Y271893D01*
X-111851Y275661D01*
X-111851Y279739D01*
X-110290Y283507D01*
X-107407Y286390D01*
X-103639Y287951D01*
X-99561Y287951D01*
X-95793Y286390D01*
X-92910Y283507D01*
X-91349Y279739D01*
X-91349Y275661D01*
X-92910Y271893D01*
X-95793Y269010D01*
X-99561Y267449D01*
X-103639Y267449D01*
G37*
%LPD*%
%LPC*%
G36*
X48761Y267449D02*
X48761Y267449D01*
X44993Y269010D01*
X42110Y271893D01*
X40549Y275661D01*
X40549Y279739D01*
X42110Y283507D01*
X44993Y286390D01*
X48761Y287951D01*
X52839Y287951D01*
X56607Y286390D01*
X59490Y283507D01*
X61051Y279739D01*
X61051Y275661D01*
X59490Y271893D01*
X56607Y269010D01*
X52839Y267449D01*
X48761Y267449D01*
G37*
%LPD*%
%LPC*%
G36*
X74161Y267449D02*
X74161Y267449D01*
X70393Y269010D01*
X67510Y271893D01*
X65949Y275661D01*
X65949Y279739D01*
X67510Y283507D01*
X70393Y286390D01*
X74161Y287951D01*
X78239Y287951D01*
X82007Y286390D01*
X84890Y283507D01*
X86451Y279739D01*
X86451Y275661D01*
X84890Y271893D01*
X82007Y269010D01*
X78239Y267449D01*
X74161Y267449D01*
G37*
%LPD*%
%LPC*%
G36*
X23361Y267449D02*
X23361Y267449D01*
X19593Y269010D01*
X16710Y271893D01*
X15149Y275661D01*
X15149Y279739D01*
X16710Y283507D01*
X19593Y286390D01*
X23361Y287951D01*
X27439Y287951D01*
X31207Y286390D01*
X34090Y283507D01*
X35651Y279739D01*
X35651Y275661D01*
X34090Y271893D01*
X31207Y269010D01*
X27439Y267449D01*
X23361Y267449D01*
G37*
%LPD*%
%LPC*%
G36*
X-78239Y242049D02*
X-78239Y242049D01*
X-82007Y243610D01*
X-84890Y246493D01*
X-86451Y250261D01*
X-86451Y254339D01*
X-84890Y258107D01*
X-82007Y260990D01*
X-78239Y262551D01*
X-74161Y262551D01*
X-70393Y260990D01*
X-67510Y258107D01*
X-65949Y254339D01*
X-65949Y250261D01*
X-67510Y246493D01*
X-70393Y243610D01*
X-74161Y242049D01*
X-78239Y242049D01*
G37*
%LPD*%
%LPC*%
G36*
X-103639Y242049D02*
X-103639Y242049D01*
X-107407Y243610D01*
X-110290Y246493D01*
X-111851Y250261D01*
X-111851Y254339D01*
X-110290Y258107D01*
X-107407Y260990D01*
X-103639Y262551D01*
X-99561Y262551D01*
X-95793Y260990D01*
X-92910Y258107D01*
X-91349Y254339D01*
X-91349Y250261D01*
X-92910Y246493D01*
X-95793Y243610D01*
X-99561Y242049D01*
X-103639Y242049D01*
G37*
%LPD*%
%LPC*%
G36*
X48761Y242049D02*
X48761Y242049D01*
X44993Y243610D01*
X42110Y246493D01*
X40549Y250261D01*
X40549Y254339D01*
X42110Y258107D01*
X44993Y260990D01*
X48761Y262551D01*
X52839Y262551D01*
X56607Y260990D01*
X59490Y258107D01*
X61051Y254339D01*
X61051Y250261D01*
X59490Y246493D01*
X56607Y243610D01*
X52839Y242049D01*
X48761Y242049D01*
G37*
%LPD*%
%LPC*%
G36*
X74161Y242049D02*
X74161Y242049D01*
X70393Y243610D01*
X67510Y246493D01*
X65949Y250261D01*
X65949Y254339D01*
X67510Y258107D01*
X70393Y260990D01*
X74161Y262551D01*
X78239Y262551D01*
X82007Y260990D01*
X84890Y258107D01*
X86451Y254339D01*
X86451Y250261D01*
X84890Y246493D01*
X82007Y243610D01*
X78239Y242049D01*
X74161Y242049D01*
G37*
%LPD*%
%LPC*%
G36*
X99561Y242049D02*
X99561Y242049D01*
X95793Y243610D01*
X92910Y246493D01*
X91349Y250261D01*
X91349Y254339D01*
X92910Y258107D01*
X95793Y260990D01*
X99561Y262551D01*
X103639Y262551D01*
X107407Y260990D01*
X110290Y258107D01*
X111851Y254339D01*
X111851Y250261D01*
X110290Y246493D01*
X107407Y243610D01*
X103639Y242049D01*
X99561Y242049D01*
G37*
%LPD*%
%LPC*%
G36*
X23361Y242049D02*
X23361Y242049D01*
X19593Y243610D01*
X16710Y246493D01*
X15149Y250261D01*
X15149Y254339D01*
X16710Y258107D01*
X19593Y260990D01*
X23361Y262551D01*
X27439Y262551D01*
X31207Y260990D01*
X34090Y258107D01*
X35651Y254339D01*
X35651Y250261D01*
X34090Y246493D01*
X31207Y243610D01*
X27439Y242049D01*
X23361Y242049D01*
G37*
%LPD*%
%LPC*%
G36*
X-129039Y-22951D02*
X-129039Y-22951D01*
X-132807Y-21390D01*
X-135690Y-18507D01*
X-137251Y-14739D01*
X-137251Y-10661D01*
X-135690Y-6893D01*
X-132807Y-4010D01*
X-129039Y-2449D01*
X-124961Y-2449D01*
X-121193Y-4010D01*
X-118310Y-6893D01*
X-116749Y-10661D01*
X-116749Y-14739D01*
X-118310Y-18507D01*
X-121193Y-21390D01*
X-124961Y-22951D01*
X-129039Y-22951D01*
G37*
%LPD*%
%LPC*%
G36*
X-129039Y2449D02*
X-129039Y2449D01*
X-132807Y4010D01*
X-135690Y6893D01*
X-137251Y10661D01*
X-137251Y14739D01*
X-135690Y18507D01*
X-132807Y21390D01*
X-129039Y22951D01*
X-124961Y22951D01*
X-121193Y21390D01*
X-118310Y18507D01*
X-116749Y14739D01*
X-116749Y10661D01*
X-118310Y6893D01*
X-121193Y4010D01*
X-124961Y2449D01*
X-129039Y2449D01*
G37*
%LPD*%
%LPC*%
G36*
X-103639Y2449D02*
X-103639Y2449D01*
X-107407Y4010D01*
X-110290Y6893D01*
X-111851Y10661D01*
X-111851Y14739D01*
X-110290Y18507D01*
X-107407Y21390D01*
X-103639Y22951D01*
X-99561Y22951D01*
X-95793Y21390D01*
X-92910Y18507D01*
X-91349Y14739D01*
X-91349Y10661D01*
X-92910Y6893D01*
X-95793Y4010D01*
X-99561Y2449D01*
X-103639Y2449D01*
G37*
%LPD*%
%LPC*%
G36*
X99561Y2449D02*
X99561Y2449D01*
X95793Y4010D01*
X92910Y6893D01*
X91349Y10661D01*
X91349Y14739D01*
X92910Y18507D01*
X95793Y21390D01*
X99561Y22951D01*
X103639Y22951D01*
X107407Y21390D01*
X110290Y18507D01*
X111851Y14739D01*
X111851Y10661D01*
X110290Y6893D01*
X107407Y4010D01*
X103639Y2449D01*
X99561Y2449D01*
G37*
%LPD*%
%LPC*%
G36*
X124961Y2449D02*
X124961Y2449D01*
X121193Y4010D01*
X118310Y6893D01*
X116749Y10661D01*
X116749Y14739D01*
X118310Y18507D01*
X121193Y21390D01*
X124961Y22951D01*
X129039Y22951D01*
X132807Y21390D01*
X135690Y18507D01*
X137251Y14739D01*
X137251Y10661D01*
X135690Y6893D01*
X132807Y4010D01*
X129039Y2449D01*
X124961Y2449D01*
G37*
%LPD*%
%LPC*%
G36*
X23361Y2449D02*
X23361Y2449D01*
X19593Y4010D01*
X16710Y6893D01*
X15149Y10661D01*
X15149Y14739D01*
X16710Y18507D01*
X19593Y21390D01*
X23361Y22951D01*
X27439Y22951D01*
X31207Y21390D01*
X34090Y18507D01*
X35651Y14739D01*
X35651Y10661D01*
X34090Y6893D01*
X31207Y4010D01*
X27439Y2449D01*
X23361Y2449D01*
G37*
%LPD*%
%LPC*%
G36*
X-103639Y-22951D02*
X-103639Y-22951D01*
X-107407Y-21390D01*
X-110290Y-18507D01*
X-111851Y-14739D01*
X-111851Y-10661D01*
X-110290Y-6893D01*
X-107407Y-4010D01*
X-103639Y-2449D01*
X-99561Y-2449D01*
X-95793Y-4010D01*
X-92910Y-6893D01*
X-91349Y-10661D01*
X-91349Y-14739D01*
X-92910Y-18507D01*
X-95793Y-21390D01*
X-99561Y-22951D01*
X-103639Y-22951D01*
G37*
%LPD*%
%LPC*%
G36*
X124961Y-22951D02*
X124961Y-22951D01*
X121193Y-21390D01*
X118310Y-18507D01*
X116749Y-14739D01*
X116749Y-10661D01*
X118310Y-6893D01*
X121193Y-4010D01*
X124961Y-2449D01*
X129039Y-2449D01*
X132807Y-4010D01*
X135690Y-6893D01*
X137251Y-10661D01*
X137251Y-14739D01*
X135690Y-18507D01*
X132807Y-21390D01*
X129039Y-22951D01*
X124961Y-22951D01*
G37*
%LPD*%
%LPC*%
G36*
X99561Y-22951D02*
X99561Y-22951D01*
X95793Y-21390D01*
X92910Y-18507D01*
X91349Y-14739D01*
X91349Y-10661D01*
X92910Y-6893D01*
X95793Y-4010D01*
X99561Y-2449D01*
X103639Y-2449D01*
X107407Y-4010D01*
X110290Y-6893D01*
X111851Y-10661D01*
X111851Y-14739D01*
X110290Y-18507D01*
X107407Y-21390D01*
X103639Y-22951D01*
X99561Y-22951D01*
G37*
%LPD*%
%LPC*%
G36*
X74161Y-22951D02*
X74161Y-22951D01*
X70393Y-21390D01*
X67510Y-18507D01*
X65949Y-14739D01*
X65949Y-10661D01*
X67510Y-6893D01*
X70393Y-4010D01*
X74161Y-2449D01*
X78239Y-2449D01*
X82007Y-4010D01*
X84890Y-6893D01*
X86451Y-10661D01*
X86451Y-14739D01*
X84890Y-18507D01*
X82007Y-21390D01*
X78239Y-22951D01*
X74161Y-22951D01*
G37*
%LPD*%
%LPC*%
G36*
X23361Y-22951D02*
X23361Y-22951D01*
X19593Y-21390D01*
X16710Y-18507D01*
X15149Y-14739D01*
X15149Y-10661D01*
X16710Y-6893D01*
X19593Y-4010D01*
X23361Y-2449D01*
X27439Y-2449D01*
X31207Y-4010D01*
X34090Y-6893D01*
X35651Y-10661D01*
X35651Y-14739D01*
X34090Y-18507D01*
X31207Y-21390D01*
X27439Y-22951D01*
X23361Y-22951D01*
G37*
%LPD*%
%LPC*%
G36*
X-2039Y2449D02*
X-2039Y2449D01*
X-5807Y4010D01*
X-8690Y6893D01*
X-10251Y10661D01*
X-10251Y14739D01*
X-8690Y18507D01*
X-5807Y21390D01*
X-2039Y22951D01*
X2039Y22951D01*
X5807Y21390D01*
X8690Y18507D01*
X10251Y14739D01*
X10251Y10661D01*
X8690Y6893D01*
X5807Y4010D01*
X2039Y2449D01*
X-2039Y2449D01*
G37*
%LPD*%
%LPC*%
G36*
X-2039Y-22951D02*
X-2039Y-22951D01*
X-5807Y-21390D01*
X-8690Y-18507D01*
X-10251Y-14739D01*
X-10251Y-10661D01*
X-8690Y-6893D01*
X-5807Y-4010D01*
X-2039Y-2449D01*
X2039Y-2449D01*
X5807Y-4010D01*
X8690Y-6893D01*
X10251Y-10661D01*
X10251Y-14739D01*
X8690Y-18507D01*
X5807Y-21390D01*
X2039Y-22951D01*
X-2039Y-22951D01*
G37*
%LPD*%
%LPC*%
G36*
X4005Y73499D02*
X4005Y73499D01*
X2167Y74261D01*
X761Y75667D01*
X-1Y77505D01*
X-1Y79495D01*
X761Y81333D01*
X1530Y82102D01*
X1603Y82197D01*
X1682Y82286D01*
X1700Y82322D01*
X1725Y82354D01*
X1773Y82463D01*
X1827Y82569D01*
X1836Y82608D01*
X1852Y82646D01*
X1870Y82763D01*
X1896Y82879D01*
X1895Y82920D01*
X1902Y82960D01*
X1890Y83078D01*
X1887Y83197D01*
X1875Y83236D01*
X1872Y83276D01*
X1831Y83388D01*
X1798Y83503D01*
X1778Y83538D01*
X1764Y83576D01*
X1697Y83674D01*
X1637Y83777D01*
X1597Y83822D01*
X1586Y83839D01*
X1570Y83852D01*
X1530Y83897D01*
X761Y84667D01*
X-1Y86505D01*
X-1Y88495D01*
X761Y90333D01*
X2167Y91739D01*
X4005Y92501D01*
X5995Y92501D01*
X7833Y91739D01*
X9239Y90333D01*
X9349Y90067D01*
X9408Y89964D01*
X9461Y89857D01*
X9487Y89826D01*
X9507Y89791D01*
X9590Y89706D01*
X9667Y89615D01*
X9700Y89592D01*
X9728Y89563D01*
X9830Y89500D01*
X9927Y89432D01*
X9965Y89418D01*
X9999Y89396D01*
X10113Y89361D01*
X10224Y89319D01*
X10265Y89315D01*
X10303Y89303D01*
X10422Y89297D01*
X10540Y89284D01*
X10580Y89290D01*
X10621Y89288D01*
X10738Y89312D01*
X10855Y89328D01*
X10912Y89348D01*
X10932Y89352D01*
X10951Y89361D01*
X11008Y89380D01*
X12505Y90001D01*
X14495Y90001D01*
X16333Y89239D01*
X17739Y87833D01*
X18501Y85995D01*
X18501Y84005D01*
X17739Y82167D01*
X16333Y80761D01*
X14495Y79999D01*
X12505Y79999D01*
X11756Y80310D01*
X11708Y80323D01*
X11663Y80344D01*
X11555Y80365D01*
X11449Y80394D01*
X11399Y80394D01*
X11350Y80404D01*
X11241Y80397D01*
X11131Y80399D01*
X11083Y80387D01*
X11033Y80384D01*
X10929Y80350D01*
X10822Y80325D01*
X10778Y80301D01*
X10731Y80286D01*
X10638Y80227D01*
X10541Y80176D01*
X10504Y80142D01*
X10462Y80116D01*
X10387Y80036D01*
X10305Y79962D01*
X10278Y79920D01*
X10244Y79884D01*
X10191Y79788D01*
X10131Y79696D01*
X10114Y79649D01*
X10090Y79606D01*
X10063Y79499D01*
X10027Y79395D01*
X10023Y79346D01*
X10011Y79298D01*
X10001Y79137D01*
X10001Y77505D01*
X9239Y75667D01*
X7833Y74261D01*
X5995Y73499D01*
X4005Y73499D01*
G37*
%LPD*%
%LPC*%
G36*
X95505Y44999D02*
X95505Y44999D01*
X93667Y45761D01*
X92261Y47167D01*
X91499Y49005D01*
X91499Y50430D01*
X91493Y50479D01*
X91495Y50529D01*
X91473Y50636D01*
X91459Y50746D01*
X91441Y50792D01*
X91431Y50840D01*
X91383Y50939D01*
X91342Y51041D01*
X91313Y51081D01*
X91291Y51126D01*
X91220Y51210D01*
X91156Y51299D01*
X91117Y51330D01*
X91085Y51368D01*
X90995Y51431D01*
X90911Y51501D01*
X90866Y51523D01*
X90825Y51551D01*
X90722Y51590D01*
X90623Y51637D01*
X90574Y51646D01*
X90528Y51664D01*
X90418Y51676D01*
X90311Y51697D01*
X90261Y51694D01*
X90212Y51699D01*
X90103Y51684D01*
X89993Y51677D01*
X89946Y51662D01*
X89897Y51655D01*
X89744Y51603D01*
X89495Y51499D01*
X87505Y51499D01*
X85667Y52261D01*
X84261Y53667D01*
X83499Y55505D01*
X83499Y57495D01*
X84261Y59333D01*
X85667Y60739D01*
X87505Y61501D01*
X89495Y61501D01*
X91333Y60739D01*
X92739Y59333D01*
X93501Y57495D01*
X93501Y56070D01*
X93507Y56021D01*
X93505Y55971D01*
X93527Y55864D01*
X93541Y55754D01*
X93559Y55708D01*
X93569Y55660D01*
X93617Y55561D01*
X93658Y55459D01*
X93687Y55419D01*
X93709Y55374D01*
X93780Y55290D01*
X93844Y55201D01*
X93883Y55170D01*
X93915Y55132D01*
X94005Y55069D01*
X94089Y54999D01*
X94134Y54977D01*
X94175Y54949D01*
X94278Y54910D01*
X94377Y54863D01*
X94426Y54854D01*
X94472Y54836D01*
X94582Y54824D01*
X94689Y54803D01*
X94739Y54806D01*
X94788Y54801D01*
X94897Y54816D01*
X95007Y54823D01*
X95054Y54838D01*
X95103Y54845D01*
X95256Y54897D01*
X95505Y55001D01*
X97495Y55001D01*
X99333Y54239D01*
X100739Y52833D01*
X101501Y50995D01*
X101501Y49005D01*
X100739Y47167D01*
X99333Y45761D01*
X97495Y44999D01*
X95505Y44999D01*
G37*
%LPD*%
%LPC*%
G36*
X-17088Y49592D02*
X-17088Y49592D01*
X-18926Y50354D01*
X-20341Y51769D01*
X-20382Y51840D01*
X-20434Y51947D01*
X-20460Y51978D01*
X-20480Y52013D01*
X-20563Y52098D01*
X-20640Y52189D01*
X-20673Y52212D01*
X-20702Y52241D01*
X-20803Y52303D01*
X-20900Y52372D01*
X-20938Y52386D01*
X-20973Y52408D01*
X-21086Y52443D01*
X-21198Y52485D01*
X-21238Y52489D01*
X-21277Y52501D01*
X-21395Y52507D01*
X-21514Y52520D01*
X-21554Y52514D01*
X-21594Y52516D01*
X-21711Y52492D01*
X-21829Y52476D01*
X-21886Y52456D01*
X-21906Y52452D01*
X-21924Y52443D01*
X-21981Y52424D01*
X-23005Y51999D01*
X-24995Y51999D01*
X-26833Y52761D01*
X-28239Y54167D01*
X-29001Y56005D01*
X-29001Y57995D01*
X-28239Y59833D01*
X-26833Y61239D01*
X-24995Y62001D01*
X-23005Y62001D01*
X-21167Y61239D01*
X-19752Y59824D01*
X-19711Y59753D01*
X-19659Y59646D01*
X-19633Y59615D01*
X-19613Y59580D01*
X-19530Y59495D01*
X-19453Y59404D01*
X-19420Y59381D01*
X-19392Y59352D01*
X-19290Y59290D01*
X-19193Y59221D01*
X-19155Y59207D01*
X-19120Y59186D01*
X-19007Y59151D01*
X-18895Y59108D01*
X-18855Y59104D01*
X-18817Y59092D01*
X-18698Y59086D01*
X-18579Y59073D01*
X-18539Y59079D01*
X-18499Y59077D01*
X-18382Y59101D01*
X-18264Y59118D01*
X-18208Y59137D01*
X-18187Y59141D01*
X-18169Y59150D01*
X-18112Y59170D01*
X-17088Y59594D01*
X-15098Y59594D01*
X-13260Y58833D01*
X-11854Y57426D01*
X-11092Y55588D01*
X-11092Y53598D01*
X-11854Y51760D01*
X-13260Y50354D01*
X-15098Y49592D01*
X-17088Y49592D01*
G37*
%LPD*%
%LPC*%
G36*
X45505Y44999D02*
X45505Y44999D01*
X43667Y45761D01*
X42261Y47167D01*
X41499Y49005D01*
X41499Y50995D01*
X41704Y51490D01*
X41736Y51604D01*
X41774Y51717D01*
X41778Y51758D01*
X41788Y51796D01*
X41790Y51915D01*
X41800Y52034D01*
X41793Y52074D01*
X41793Y52114D01*
X41766Y52230D01*
X41745Y52348D01*
X41729Y52384D01*
X41719Y52424D01*
X41663Y52529D01*
X41615Y52637D01*
X41589Y52669D01*
X41570Y52705D01*
X41490Y52793D01*
X41416Y52886D01*
X41384Y52910D01*
X41357Y52940D01*
X41257Y53006D01*
X41162Y53077D01*
X41108Y53104D01*
X41091Y53115D01*
X41071Y53122D01*
X41017Y53148D01*
X40612Y53316D01*
X39205Y54723D01*
X38444Y56561D01*
X38444Y58550D01*
X39205Y60388D01*
X40612Y61795D01*
X42450Y62556D01*
X44439Y62556D01*
X46277Y61795D01*
X47684Y60388D01*
X48445Y58550D01*
X48445Y56561D01*
X48240Y56066D01*
X48209Y55951D01*
X48170Y55838D01*
X48167Y55798D01*
X48156Y55759D01*
X48154Y55640D01*
X48145Y55521D01*
X48152Y55481D01*
X48151Y55441D01*
X48179Y55325D01*
X48199Y55208D01*
X48216Y55171D01*
X48225Y55132D01*
X48281Y55027D01*
X48330Y54918D01*
X48355Y54886D01*
X48374Y54851D01*
X48454Y54763D01*
X48528Y54670D01*
X48561Y54645D01*
X48588Y54615D01*
X48688Y54550D01*
X48783Y54478D01*
X48837Y54452D01*
X48854Y54441D01*
X48873Y54434D01*
X48927Y54407D01*
X49333Y54239D01*
X50739Y52833D01*
X51501Y50995D01*
X51501Y49005D01*
X50739Y47167D01*
X49333Y45761D01*
X47495Y44999D01*
X45505Y44999D01*
G37*
%LPD*%
%LPC*%
G36*
X22505Y44999D02*
X22505Y44999D01*
X20667Y45761D01*
X19261Y47167D01*
X18499Y49005D01*
X18499Y50995D01*
X19261Y52833D01*
X20667Y54239D01*
X22505Y55001D01*
X23440Y55001D01*
X23558Y55016D01*
X23677Y55023D01*
X23716Y55036D01*
X23756Y55041D01*
X23866Y55084D01*
X23980Y55121D01*
X24014Y55143D01*
X24051Y55158D01*
X24148Y55227D01*
X24248Y55291D01*
X24276Y55321D01*
X24309Y55344D01*
X24385Y55436D01*
X24466Y55523D01*
X24486Y55558D01*
X24512Y55589D01*
X24562Y55697D01*
X24620Y55801D01*
X24630Y55841D01*
X24647Y55877D01*
X24669Y55994D01*
X24675Y56015D01*
X25471Y57936D01*
X26878Y59343D01*
X28715Y60104D01*
X30705Y60104D01*
X32543Y59343D01*
X33950Y57936D01*
X34711Y56098D01*
X34711Y54109D01*
X33950Y52271D01*
X32543Y50864D01*
X30705Y50103D01*
X29770Y50103D01*
X29652Y50088D01*
X29533Y50081D01*
X29495Y50068D01*
X29454Y50063D01*
X29344Y50019D01*
X29231Y49982D01*
X29196Y49961D01*
X29159Y49946D01*
X29063Y49876D01*
X28962Y49812D01*
X28934Y49783D01*
X28901Y49759D01*
X28825Y49667D01*
X28744Y49581D01*
X28724Y49545D01*
X28699Y49514D01*
X28648Y49406D01*
X28590Y49302D01*
X28580Y49263D01*
X28563Y49226D01*
X28541Y49110D01*
X28535Y49089D01*
X27739Y47167D01*
X26333Y45761D01*
X24495Y44999D01*
X22505Y44999D01*
G37*
%LPD*%
%LPC*%
G36*
X109005Y215499D02*
X109005Y215499D01*
X107167Y216261D01*
X105761Y217667D01*
X104999Y219505D01*
X104999Y221495D01*
X105761Y223333D01*
X107167Y224739D01*
X109005Y225501D01*
X110995Y225501D01*
X112833Y224739D01*
X114239Y223333D01*
X115001Y221495D01*
X115001Y219505D01*
X114239Y217667D01*
X112833Y216261D01*
X110995Y215499D01*
X109005Y215499D01*
G37*
%LPD*%
%LPC*%
G36*
X29005Y214999D02*
X29005Y214999D01*
X27167Y215761D01*
X25761Y217167D01*
X24999Y219005D01*
X24999Y220995D01*
X25761Y222833D01*
X27167Y224239D01*
X29005Y225001D01*
X30995Y225001D01*
X32833Y224239D01*
X34239Y222833D01*
X35001Y220995D01*
X35001Y219005D01*
X34239Y217167D01*
X32833Y215761D01*
X30995Y214999D01*
X29005Y214999D01*
G37*
%LPD*%
%LPC*%
G36*
X139505Y205999D02*
X139505Y205999D01*
X137667Y206761D01*
X136261Y208167D01*
X135499Y210005D01*
X135499Y211995D01*
X136261Y213833D01*
X137667Y215239D01*
X139505Y216001D01*
X141495Y216001D01*
X143333Y215239D01*
X144739Y213833D01*
X145501Y211995D01*
X145501Y210005D01*
X144739Y208167D01*
X143333Y206761D01*
X141495Y205999D01*
X139505Y205999D01*
G37*
%LPD*%
%LPC*%
G36*
X57735Y204880D02*
X57735Y204880D01*
X55897Y205642D01*
X54491Y207048D01*
X53729Y208886D01*
X53729Y210876D01*
X54491Y212714D01*
X55897Y214121D01*
X57735Y214882D01*
X59725Y214882D01*
X61563Y214121D01*
X62969Y212714D01*
X63731Y210876D01*
X63731Y208886D01*
X62969Y207048D01*
X61563Y205642D01*
X59725Y204880D01*
X57735Y204880D01*
G37*
%LPD*%
%LPC*%
G36*
X29005Y169999D02*
X29005Y169999D01*
X27167Y170761D01*
X25761Y172167D01*
X24999Y174005D01*
X24999Y175995D01*
X25761Y177833D01*
X27167Y179239D01*
X29005Y180001D01*
X30995Y180001D01*
X32833Y179239D01*
X34239Y177833D01*
X35001Y175995D01*
X35001Y174005D01*
X34239Y172167D01*
X32833Y170761D01*
X30995Y169999D01*
X29005Y169999D01*
G37*
%LPD*%
%LPC*%
G36*
X99505Y167499D02*
X99505Y167499D01*
X97667Y168261D01*
X96261Y169667D01*
X95499Y171505D01*
X95499Y173495D01*
X96261Y175333D01*
X97667Y176739D01*
X99505Y177501D01*
X101495Y177501D01*
X103333Y176739D01*
X104739Y175333D01*
X105501Y173495D01*
X105501Y171505D01*
X104739Y169667D01*
X103333Y168261D01*
X101495Y167499D01*
X99505Y167499D01*
G37*
%LPD*%
%LPC*%
G36*
X64005Y166499D02*
X64005Y166499D01*
X62167Y167261D01*
X60761Y168667D01*
X59999Y170505D01*
X59999Y172495D01*
X60761Y174333D01*
X62167Y175739D01*
X64005Y176501D01*
X65995Y176501D01*
X67833Y175739D01*
X69239Y174333D01*
X70001Y172495D01*
X70001Y170505D01*
X69239Y168667D01*
X67833Y167261D01*
X65995Y166499D01*
X64005Y166499D01*
G37*
%LPD*%
%LPC*%
G36*
X44005Y149999D02*
X44005Y149999D01*
X42167Y150761D01*
X40761Y152167D01*
X39999Y154005D01*
X39999Y155995D01*
X40761Y157833D01*
X42167Y159239D01*
X44005Y160001D01*
X45995Y160001D01*
X47833Y159239D01*
X49239Y157833D01*
X50001Y155995D01*
X50001Y154005D01*
X49239Y152167D01*
X47833Y150761D01*
X45995Y149999D01*
X44005Y149999D01*
G37*
%LPD*%
%LPC*%
G36*
X74005Y149999D02*
X74005Y149999D01*
X72167Y150761D01*
X70761Y152167D01*
X69999Y154005D01*
X69999Y155995D01*
X70761Y157833D01*
X72167Y159239D01*
X74005Y160001D01*
X75995Y160001D01*
X77833Y159239D01*
X79239Y157833D01*
X80001Y155995D01*
X80001Y154005D01*
X79239Y152167D01*
X77833Y150761D01*
X75995Y149999D01*
X74005Y149999D01*
G37*
%LPD*%
%LPC*%
G36*
X104005Y29999D02*
X104005Y29999D01*
X102167Y30761D01*
X100761Y32167D01*
X99999Y34005D01*
X99999Y35995D01*
X100761Y37833D01*
X102167Y39239D01*
X104005Y40001D01*
X105995Y40001D01*
X107833Y39239D01*
X109239Y37833D01*
X110001Y35995D01*
X110001Y34005D01*
X109239Y32167D01*
X107833Y30761D01*
X105995Y29999D01*
X104005Y29999D01*
G37*
%LPD*%
%LPC*%
G36*
X14005Y124999D02*
X14005Y124999D01*
X12167Y125761D01*
X10761Y127167D01*
X9999Y129005D01*
X9999Y130995D01*
X10761Y132833D01*
X12167Y134239D01*
X14005Y135001D01*
X15995Y135001D01*
X17833Y134239D01*
X19239Y132833D01*
X20001Y130995D01*
X20001Y129005D01*
X19239Y127167D01*
X17833Y125761D01*
X15995Y124999D01*
X14005Y124999D01*
G37*
%LPD*%
%LPC*%
G36*
X139005Y114999D02*
X139005Y114999D01*
X137167Y115761D01*
X135761Y117167D01*
X134999Y119005D01*
X134999Y120995D01*
X135761Y122833D01*
X137167Y124239D01*
X139005Y125001D01*
X140995Y125001D01*
X142833Y124239D01*
X144239Y122833D01*
X145001Y120995D01*
X145001Y119005D01*
X144239Y117167D01*
X142833Y115761D01*
X140995Y114999D01*
X139005Y114999D01*
G37*
%LPD*%
%LPC*%
G36*
X149005Y74999D02*
X149005Y74999D01*
X147167Y75761D01*
X145761Y77167D01*
X144999Y79005D01*
X144999Y80995D01*
X145761Y82833D01*
X147167Y84239D01*
X149005Y85001D01*
X150995Y85001D01*
X152833Y84239D01*
X154239Y82833D01*
X155001Y80995D01*
X155001Y79005D01*
X154239Y77167D01*
X152833Y75761D01*
X150995Y74999D01*
X149005Y74999D01*
G37*
%LPD*%
%LPC*%
G36*
X50505Y166499D02*
X50505Y166499D01*
X48667Y167261D01*
X47261Y168667D01*
X46499Y170505D01*
X46499Y172495D01*
X47261Y174333D01*
X48667Y175739D01*
X50505Y176501D01*
X52495Y176501D01*
X54333Y175739D01*
X55739Y174333D01*
X56501Y172495D01*
X56501Y170505D01*
X55739Y168667D01*
X54333Y167261D01*
X52495Y166499D01*
X50505Y166499D01*
G37*
%LPD*%
%LPC*%
G36*
X119005Y124999D02*
X119005Y124999D01*
X117167Y125761D01*
X115761Y127167D01*
X114999Y129005D01*
X114999Y130995D01*
X115761Y132833D01*
X117167Y134239D01*
X119005Y135001D01*
X120995Y135001D01*
X122833Y134239D01*
X124239Y132833D01*
X125001Y130995D01*
X125001Y129005D01*
X124239Y127167D01*
X122833Y125761D01*
X120995Y124999D01*
X119005Y124999D01*
G37*
%LPD*%
%LPC*%
G36*
X149005Y29999D02*
X149005Y29999D01*
X147167Y30761D01*
X145761Y32167D01*
X144999Y34005D01*
X144999Y35995D01*
X145761Y37833D01*
X147167Y39239D01*
X149005Y40001D01*
X150995Y40001D01*
X152833Y39239D01*
X154239Y37833D01*
X155001Y35995D01*
X155001Y34005D01*
X154239Y32167D01*
X152833Y30761D01*
X150995Y29999D01*
X149005Y29999D01*
G37*
%LPD*%
%LPC*%
G36*
X5005Y48499D02*
X5005Y48499D01*
X3167Y49261D01*
X1761Y50667D01*
X999Y52505D01*
X999Y54495D01*
X1761Y56333D01*
X3167Y57739D01*
X5005Y58501D01*
X6995Y58501D01*
X8833Y57739D01*
X10239Y56333D01*
X11001Y54495D01*
X11001Y52505D01*
X10239Y50667D01*
X8833Y49261D01*
X6995Y48499D01*
X5005Y48499D01*
G37*
%LPD*%
%LPC*%
G36*
X4005Y164999D02*
X4005Y164999D01*
X2167Y165761D01*
X761Y167167D01*
X-1Y169005D01*
X-1Y170995D01*
X761Y172833D01*
X2167Y174239D01*
X4005Y175001D01*
X5995Y175001D01*
X7833Y174239D01*
X9239Y172833D01*
X10001Y170995D01*
X10001Y169005D01*
X9239Y167167D01*
X7833Y165761D01*
X5995Y164999D01*
X4005Y164999D01*
G37*
%LPD*%
D10*
X-127000Y12700D03*
X-127000Y-12700D03*
X-101600Y12700D03*
X-101600Y-12700D03*
X-76200Y12700D03*
X-76200Y-12700D03*
X-50800Y12700D03*
X-50800Y-12700D03*
X-25400Y12700D03*
X-25400Y-12700D03*
X0Y12700D03*
X0Y-12700D03*
X25400Y12700D03*
X25400Y-12700D03*
X50800Y12700D03*
X50800Y-12700D03*
X76200Y12700D03*
X76200Y-12700D03*
X101600Y12700D03*
X101600Y-12700D03*
X127000Y12700D03*
X127000Y-12700D03*
X-101600Y277700D03*
X-101600Y252300D03*
X-76200Y277700D03*
X-76200Y252300D03*
X-50800Y277700D03*
X-50800Y252300D03*
X-25400Y277700D03*
X-25400Y252300D03*
X0Y277700D03*
X0Y252300D03*
X25400Y277700D03*
X25400Y252300D03*
X50800Y277700D03*
X50800Y252300D03*
X76200Y277700D03*
X76200Y252300D03*
X101600Y277700D03*
X101600Y252300D03*
D11*
X-41500Y46500D03*
X131500Y166000D03*
X114000Y71500D03*
X52500Y82500D03*
X-26500Y81000D03*
X58500Y128500D03*
X27500Y77500D03*
X89500Y157500D03*
D12*
X-8000Y46500D02*
X-41500Y46500D01*
X-8000Y46500D02*
X-8000Y65000D01*
X27500Y65000D01*
X27500Y77500D01*
X-8000Y67500D02*
X-8000Y65000D01*
X-8000Y67500D02*
X-8004Y67826D01*
X-8016Y68152D01*
X-8035Y68478D01*
X-8063Y68803D01*
X-8098Y69127D01*
X-8142Y69451D01*
X-8193Y69773D01*
X-8252Y70094D01*
X-8318Y70413D01*
X-8392Y70731D01*
X-8474Y71047D01*
X-8564Y71360D01*
X-8661Y71672D01*
X-8765Y71981D01*
X-8877Y72287D01*
X-8997Y72591D01*
X-9123Y72891D01*
X-9257Y73189D01*
X-9398Y73483D01*
X-9546Y73774D01*
X-9701Y74061D01*
X-9863Y74344D01*
X-10032Y74623D01*
X-10208Y74898D01*
X-10390Y75169D01*
X-10578Y75435D01*
X-10773Y75697D01*
X-10974Y75954D01*
X-11182Y76205D01*
X-11395Y76452D01*
X-11614Y76694D01*
X-11839Y76930D01*
X-12070Y77161D01*
X-12306Y77386D01*
X-12548Y77605D01*
X-12795Y77818D01*
X-13046Y78026D01*
X-13303Y78227D01*
X-13565Y78422D01*
X-13831Y78610D01*
X-14102Y78792D01*
X-14377Y78968D01*
X-14656Y79137D01*
X-14939Y79299D01*
X-15226Y79454D01*
X-15517Y79602D01*
X-15811Y79743D01*
X-16109Y79877D01*
X-16409Y80003D01*
X-16713Y80123D01*
X-17019Y80235D01*
X-17328Y80339D01*
X-17640Y80436D01*
X-17953Y80526D01*
X-18269Y80608D01*
X-18587Y80682D01*
X-18906Y80748D01*
X-19227Y80807D01*
X-19549Y80858D01*
X-19873Y80902D01*
X-20197Y80937D01*
X-20522Y80965D01*
X-20848Y80984D01*
X-21174Y80996D01*
X-21500Y81000D01*
X-26500Y81000D01*
D11*
X-16500Y319500D03*
D12*
X-500Y319500D01*
D13*
X-500Y309400D01*
X-500Y309399D02*
X-493Y308830D01*
X-473Y308262D01*
X-439Y307694D01*
X-392Y307127D01*
X-331Y306562D01*
X-257Y305998D01*
X-169Y305436D01*
X-68Y304876D01*
X46Y304319D01*
X174Y303764D01*
X314Y303213D01*
X468Y302666D01*
X635Y302122D01*
X814Y301582D01*
X1007Y301047D01*
X1212Y300516D01*
X1430Y299991D01*
X1660Y299471D01*
X1902Y298956D01*
X2157Y298447D01*
X2423Y297945D01*
X2702Y297449D01*
X2992Y296960D01*
X3294Y296478D01*
X3607Y296003D01*
X3932Y295536D01*
X4267Y295076D01*
X4613Y294625D01*
X4970Y294182D01*
X5338Y293748D01*
X5715Y293322D01*
X6103Y292906D01*
X6500Y292499D01*
X6500Y292500D02*
X6869Y292122D01*
X7229Y291736D01*
X7580Y291341D01*
X7921Y290937D01*
X8252Y290526D01*
X8574Y290107D01*
X8885Y289681D01*
X9186Y289247D01*
X9477Y288806D01*
X9757Y288358D01*
X10027Y287904D01*
X10285Y287443D01*
X10533Y286977D01*
X10769Y286505D01*
X10995Y286027D01*
X11208Y285544D01*
X11410Y285056D01*
X11601Y284563D01*
X11779Y284066D01*
X11946Y283565D01*
X12101Y283060D01*
X12244Y282552D01*
X12374Y282040D01*
X12493Y281525D01*
X12599Y281008D01*
X12693Y280488D01*
X12774Y279966D01*
X12843Y279443D01*
X12900Y278917D01*
X12943Y278391D01*
X12975Y277864D01*
X12994Y277336D01*
X13000Y276808D01*
X13000Y174521D02*
X13002Y174455D01*
X13007Y174389D01*
X13015Y174324D01*
X13027Y174259D01*
X13043Y174195D01*
X13062Y174132D01*
X13084Y174070D01*
X13109Y174009D01*
X13137Y173950D01*
X13169Y173892D01*
X13203Y173836D01*
X13240Y173782D01*
X13280Y173729D01*
X13323Y173679D01*
X13368Y173631D01*
X13000Y174521D02*
X13000Y276808D01*
X13368Y173632D02*
X58500Y128500D01*
D11*
X-10000Y190000D03*
X105000Y112000D03*
X7500Y141000D03*
X-110000Y210000D03*
X-100000Y210000D03*
X-90000Y210000D03*
X-80000Y210000D03*
X-80000Y200000D03*
X-90000Y200000D03*
X-100000Y200000D03*
X-110000Y200000D03*
X-110000Y190000D03*
X-100000Y190000D03*
X-90000Y190000D03*
X-80000Y190000D03*
X-30000Y173000D03*
X110000Y220500D03*
X58730Y209881D03*
X15000Y130000D03*
X150000Y35000D03*
X140000Y120000D03*
X-45000Y155000D03*
X30000Y220000D03*
X30000Y175000D03*
X5000Y170000D03*
X45000Y155000D03*
X75000Y155000D03*
X145000Y155000D03*
X120000Y130000D03*
X150000Y80000D03*
X105000Y35000D03*
X140500Y211000D03*
X5000Y87500D03*
X163000Y103000D03*
D13*
X163000Y231979D01*
X162992Y232602D01*
X162969Y233225D01*
X162931Y233848D01*
X162878Y234469D01*
X162809Y235088D01*
X162725Y235706D01*
X162626Y236321D01*
X162512Y236934D01*
X162383Y237544D01*
X162239Y238151D01*
X162080Y238754D01*
X161906Y239352D01*
X161718Y239947D01*
X161515Y240536D01*
X161298Y241120D01*
X161067Y241699D01*
X160821Y242272D01*
X160561Y242839D01*
X160288Y243399D01*
X160001Y243952D01*
X159700Y244499D01*
X159386Y245037D01*
X159059Y245568D01*
X158719Y246090D01*
X158367Y246605D01*
X158001Y247110D01*
X157624Y247606D01*
X157234Y248093D01*
X156833Y248570D01*
X156420Y249037D01*
X155996Y249493D01*
X155561Y249940D01*
X111000Y294500D01*
X110680Y294812D01*
X110353Y295117D01*
X110019Y295413D01*
X109678Y295702D01*
X109330Y295983D01*
X108975Y296255D01*
X108614Y296518D01*
X108247Y296773D01*
X107874Y297019D01*
X107495Y297256D01*
X107111Y297484D01*
X106721Y297703D01*
X106327Y297913D01*
X105927Y298113D01*
X105523Y298303D01*
X105114Y298484D01*
X104701Y298655D01*
X104284Y298816D01*
X103864Y298967D01*
X103440Y299108D01*
X103012Y299239D01*
X102582Y299360D01*
X102149Y299471D01*
X101714Y299571D01*
X101276Y299661D01*
X100836Y299740D01*
X100394Y299809D01*
X99951Y299867D01*
X99507Y299915D01*
X99062Y299952D01*
X98615Y299979D01*
X98169Y299995D01*
X97722Y300000D01*
D11*
X9730Y302306D03*
D13*
X24762Y302306D01*
X28707Y300000D02*
X97722Y300000D01*
X28707Y300000D02*
X28628Y300002D01*
X28549Y300007D01*
X28471Y300016D01*
X28393Y300029D01*
X28316Y300045D01*
X28240Y300065D01*
X28165Y300088D01*
X28090Y300115D01*
X28018Y300145D01*
X27946Y300179D01*
X27876Y300216D01*
X27808Y300256D01*
X27742Y300299D01*
X27678Y300345D01*
X27616Y300394D01*
X27557Y300446D01*
X27500Y300500D01*
X26354Y301646D01*
X26353Y301646D02*
X26286Y301710D01*
X26216Y301772D01*
X26144Y301831D01*
X26069Y301886D01*
X25993Y301939D01*
X25914Y301988D01*
X25833Y302034D01*
X25750Y302076D01*
X25666Y302115D01*
X25580Y302151D01*
X25493Y302183D01*
X25404Y302211D01*
X25314Y302236D01*
X25224Y302257D01*
X25132Y302274D01*
X25040Y302288D01*
X24948Y302297D01*
X24855Y302303D01*
X24762Y302305D01*
D11*
X5000Y78500D03*
X169500Y90000D03*
D13*
X169500Y232479D01*
X169492Y233102D01*
X169469Y233725D01*
X169431Y234348D01*
X169378Y234969D01*
X169309Y235588D01*
X169225Y236206D01*
X169126Y236821D01*
X169012Y237434D01*
X168883Y238044D01*
X168739Y238651D01*
X168580Y239254D01*
X168406Y239852D01*
X168218Y240447D01*
X168015Y241036D01*
X167798Y241620D01*
X167567Y242199D01*
X167321Y242772D01*
X167061Y243339D01*
X166788Y243899D01*
X166501Y244452D01*
X166200Y244999D01*
X165886Y245537D01*
X165559Y246068D01*
X165219Y246590D01*
X164867Y247105D01*
X164501Y247610D01*
X164124Y248106D01*
X163734Y248593D01*
X163333Y249070D01*
X162920Y249537D01*
X162496Y249993D01*
X162061Y250440D01*
D11*
X56500Y307000D03*
D13*
X94979Y307000D02*
X95602Y306992D01*
X96225Y306969D01*
X96848Y306931D01*
X97469Y306878D01*
X98088Y306809D01*
X98706Y306725D01*
X99321Y306626D01*
X99934Y306512D01*
X100544Y306383D01*
X101151Y306239D01*
X101754Y306080D01*
X102352Y305906D01*
X102947Y305718D01*
X103536Y305515D01*
X104120Y305298D01*
X104699Y305067D01*
X105272Y304821D01*
X105839Y304561D01*
X106399Y304288D01*
X106952Y304001D01*
X107499Y303700D01*
X108037Y303386D01*
X108568Y303059D01*
X109090Y302719D01*
X109605Y302367D01*
X110110Y302001D01*
X110606Y301624D01*
X111093Y301234D01*
X111570Y300833D01*
X112037Y300420D01*
X112493Y299996D01*
X112940Y299561D01*
X94979Y307000D02*
X56500Y307000D01*
X112940Y299561D02*
X162061Y250440D01*
D11*
X13500Y85000D03*
X155500Y96500D03*
D13*
X155500Y231979D01*
X155492Y232602D01*
X155469Y233225D01*
X155431Y233848D01*
X155378Y234469D01*
X155309Y235088D01*
X155225Y235706D01*
X155126Y236321D01*
X155012Y236934D01*
X154883Y237544D01*
X154739Y238151D01*
X154580Y238754D01*
X154406Y239352D01*
X154218Y239947D01*
X154015Y240536D01*
X153798Y241120D01*
X153567Y241699D01*
X153321Y242272D01*
X153061Y242839D01*
X152788Y243399D01*
X152501Y243952D01*
X152200Y244499D01*
X151886Y245037D01*
X151559Y245568D01*
X151219Y246090D01*
X150867Y246605D01*
X150501Y247110D01*
X150124Y247606D01*
X149734Y248093D01*
X149333Y248570D01*
X148920Y249037D01*
X148496Y249493D01*
X148061Y249940D01*
X107500Y290500D01*
X107230Y290763D01*
X106954Y291020D01*
X106671Y291270D01*
X106383Y291513D01*
X106088Y291748D01*
X105788Y291976D01*
X105483Y292197D01*
X105172Y292411D01*
X104856Y292616D01*
X104535Y292814D01*
X104209Y293004D01*
X103879Y293186D01*
X103544Y293359D01*
X103205Y293525D01*
X102862Y293682D01*
X102516Y293830D01*
X102165Y293971D01*
X101812Y294102D01*
X101455Y294225D01*
X101096Y294338D01*
X100734Y294443D01*
X100369Y294540D01*
X100002Y294627D01*
X99633Y294705D01*
X99263Y294774D01*
X98890Y294834D01*
X98517Y294884D01*
X98142Y294926D01*
X97766Y294958D01*
X97390Y294981D01*
X97013Y294995D01*
X96636Y295000D01*
D11*
X18056Y295056D03*
D13*
X18074Y295039D01*
X18095Y295025D01*
X18117Y295014D01*
X18141Y295006D01*
X18165Y295002D01*
X18190Y295000D01*
X96636Y295000D01*
D11*
X88500Y56500D03*
X-30000Y132000D03*
X96500Y50000D03*
X-54000Y135500D03*
X72814Y57000D03*
X-56000Y127500D03*
X68500Y50000D03*
X-53500Y119500D03*
X23500Y50000D03*
X-23500Y89548D03*
X46500Y50000D03*
X-34500Y67500D03*
X43444Y57556D03*
X-24000Y57000D03*
X6000Y53500D03*
X29710Y55104D03*
X-16093Y54593D03*
D13*
X50800Y-12700D02*
X56061Y-7440D01*
X56483Y-7007D01*
X56895Y-6565D01*
X57296Y-6112D01*
X57686Y-5651D01*
X58066Y-5180D01*
X58434Y-4701D01*
X58790Y-4212D01*
X59135Y-3716D01*
X59468Y-3211D01*
X59789Y-2699D01*
X60097Y-2179D01*
X60393Y-1652D01*
X60676Y-1118D01*
X60947Y-577D01*
X61205Y-31D01*
X61449Y522D01*
X61681Y1081D01*
X61899Y1645D01*
X62103Y2213D01*
X62294Y2787D01*
X62471Y3365D01*
X62635Y3947D01*
X62784Y4533D01*
X62920Y5122D01*
X63041Y5714D01*
X63148Y6309D01*
X63241Y6906D01*
X63320Y7506D01*
X63385Y8107D01*
X63435Y8709D01*
X63471Y9312D01*
X63493Y9917D01*
X63500Y10521D01*
X63500Y42586D02*
X63498Y42703D01*
X63492Y42819D01*
X63482Y42935D01*
X63468Y43051D01*
X63450Y43166D01*
X63429Y43281D01*
X63403Y43394D01*
X63373Y43507D01*
X63340Y43619D01*
X63303Y43729D01*
X63262Y43838D01*
X63217Y43946D01*
X63169Y44052D01*
X63117Y44157D01*
X63062Y44259D01*
X63003Y44360D01*
X62941Y44458D01*
X62875Y44555D01*
X62806Y44649D01*
X62734Y44741D01*
X62659Y44830D01*
X62581Y44916D01*
X62500Y45000D01*
X63500Y42586D02*
X63500Y10521D01*
D11*
X74000Y133500D03*
D13*
X61000Y48621D02*
X61002Y48482D01*
X61008Y48344D01*
X61017Y48205D01*
X61030Y48067D01*
X61047Y47930D01*
X61067Y47793D01*
X61092Y47656D01*
X61120Y47520D01*
X61151Y47385D01*
X61187Y47251D01*
X61226Y47118D01*
X61268Y46986D01*
X61314Y46855D01*
X61364Y46726D01*
X61417Y46597D01*
X61473Y46471D01*
X61533Y46346D01*
X61597Y46222D01*
X61663Y46101D01*
X61733Y45981D01*
X61806Y45863D01*
X61882Y45747D01*
X61962Y45633D01*
X62044Y45522D01*
X62130Y45413D01*
X62218Y45306D01*
X62309Y45201D01*
X62403Y45099D01*
X62500Y45000D01*
X61000Y102115D02*
X61013Y103171D01*
X61050Y104227D01*
X61113Y105281D01*
X61201Y106334D01*
X61314Y107384D01*
X61452Y108432D01*
X61615Y109475D01*
X61802Y110515D01*
X62014Y111550D01*
X62251Y112579D01*
X62512Y113603D01*
X62798Y114620D01*
X63108Y115630D01*
X63441Y116632D01*
X63798Y117626D01*
X64179Y118611D01*
X64584Y119587D01*
X65011Y120553D01*
X65461Y121509D01*
X65934Y122453D01*
X66429Y123386D01*
X66946Y124307D01*
X67485Y125216D01*
X68046Y126111D01*
X68628Y126993D01*
X69230Y127861D01*
X69853Y128714D01*
X70496Y129552D01*
X71159Y130374D01*
X71841Y131181D01*
X72542Y131971D01*
X73262Y132744D01*
X74000Y133500D01*
X61000Y102115D02*
X61000Y48621D01*
D11*
X16000Y319500D03*
X16000Y310500D03*
X-16500Y310500D03*
X100500Y172500D03*
X-5000Y113000D03*
X-14000Y209500D03*
D13*
X-17404Y206096D02*
X-17665Y205829D01*
X-17919Y205555D01*
X-18167Y205276D01*
X-18408Y204991D01*
X-18643Y204700D01*
X-18870Y204404D01*
X-19090Y204102D01*
X-19303Y203795D01*
X-19509Y203484D01*
X-19707Y203167D01*
X-19898Y202846D01*
X-20081Y202520D01*
X-20256Y202190D01*
X-20423Y201857D01*
X-20582Y201519D01*
X-20733Y201177D01*
X-20876Y200832D01*
X-21011Y200484D01*
X-21137Y200132D01*
X-21255Y199778D01*
X-21364Y199421D01*
X-21465Y199061D01*
X-21558Y198700D01*
X-21641Y198336D01*
X-21716Y197970D01*
X-21783Y197602D01*
X-21840Y197233D01*
X-21889Y196863D01*
X-21929Y196492D01*
X-21960Y196119D01*
X-21982Y195747D01*
X-21996Y195373D01*
X-22000Y195000D01*
X-17404Y206096D02*
X-14000Y209500D01*
X-14561Y122561D02*
X-5000Y113000D01*
X-14561Y122560D02*
X-14983Y122993D01*
X-15395Y123435D01*
X-15796Y123888D01*
X-16186Y124349D01*
X-16566Y124820D01*
X-16934Y125299D01*
X-17290Y125788D01*
X-17635Y126284D01*
X-17968Y126789D01*
X-18289Y127301D01*
X-18597Y127821D01*
X-18893Y128348D01*
X-19176Y128882D01*
X-19447Y129423D01*
X-19705Y129969D01*
X-19949Y130522D01*
X-20181Y131081D01*
X-20399Y131645D01*
X-20603Y132213D01*
X-20794Y132787D01*
X-20971Y133365D01*
X-21135Y133947D01*
X-21284Y134533D01*
X-21420Y135122D01*
X-21541Y135714D01*
X-21648Y136309D01*
X-21741Y136906D01*
X-21820Y137506D01*
X-21885Y138107D01*
X-21935Y138709D01*
X-21971Y139312D01*
X-21993Y139917D01*
X-22000Y140521D01*
X-22000Y195000D01*
D11*
X-16436Y108064D03*
X65000Y171500D03*
X-24343Y105157D03*
X-12500Y166500D03*
D13*
X-24343Y105157D02*
X-24131Y104949D01*
X-23913Y104747D01*
X-23691Y104549D01*
X-23464Y104358D01*
X-23233Y104171D01*
X-22997Y103990D01*
X-22757Y103815D01*
X-22513Y103646D01*
X-22265Y103482D01*
X-22013Y103324D01*
X-21758Y103173D01*
X-21498Y103027D01*
X-21236Y102888D01*
X-20970Y102755D01*
X-20701Y102628D01*
X-20430Y102508D01*
X-20155Y102394D01*
X-19878Y102287D01*
X-19598Y102187D01*
X-19317Y102093D01*
X-19032Y102006D01*
X-18746Y101925D01*
X-18458Y101852D01*
X-18169Y101785D01*
X-17878Y101726D01*
X-17585Y101673D01*
X-17292Y101627D01*
X-16997Y101588D01*
X-16702Y101557D01*
X-16406Y101532D01*
X-16109Y101514D01*
X-15812Y101504D01*
X-15515Y101500D01*
X1500Y113000D02*
X1498Y113172D01*
X1492Y113345D01*
X1482Y113517D01*
X1467Y113688D01*
X1449Y113860D01*
X1426Y114031D01*
X1400Y114201D01*
X1369Y114371D01*
X1334Y114540D01*
X1296Y114708D01*
X1253Y114875D01*
X1207Y115041D01*
X1156Y115205D01*
X1102Y115369D01*
X1043Y115531D01*
X981Y115692D01*
X915Y115851D01*
X845Y116009D01*
X772Y116165D01*
X695Y116319D01*
X614Y116471D01*
X530Y116621D01*
X442Y116770D01*
X350Y116916D01*
X255Y117060D01*
X157Y117201D01*
X55Y117341D01*
X-50Y117477D01*
X-158Y117612D01*
X-269Y117743D01*
X-384Y117872D01*
X-501Y117998D01*
X-621Y118122D01*
X-5061Y122560D02*
X-5483Y122993D01*
X-5895Y123435D01*
X-6296Y123888D01*
X-6686Y124349D01*
X-7066Y124820D01*
X-7434Y125299D01*
X-7790Y125788D01*
X-8135Y126284D01*
X-8468Y126789D01*
X-8789Y127301D01*
X-9097Y127821D01*
X-9393Y128348D01*
X-9676Y128882D01*
X-9947Y129423D01*
X-10205Y129969D01*
X-10449Y130522D01*
X-10681Y131081D01*
X-10899Y131645D01*
X-11103Y132213D01*
X-11294Y132787D01*
X-11471Y133365D01*
X-11635Y133947D01*
X-11784Y134533D01*
X-11920Y135122D01*
X-12041Y135714D01*
X-12148Y136309D01*
X-12241Y136906D01*
X-12320Y137506D01*
X-12385Y138107D01*
X-12435Y138709D01*
X-12471Y139312D01*
X-12493Y139917D01*
X-12500Y140521D01*
X-12500Y166500D01*
X-5061Y122561D02*
X-621Y118121D01*
X1500Y113000D02*
X1497Y112722D01*
X1487Y112444D01*
X1470Y112167D01*
X1446Y111890D01*
X1416Y111614D01*
X1379Y111338D01*
X1336Y111064D01*
X1286Y110791D01*
X1229Y110518D01*
X1166Y110248D01*
X1096Y109979D01*
X1020Y109712D01*
X937Y109446D01*
X848Y109183D01*
X753Y108922D01*
X651Y108663D01*
X543Y108407D01*
X429Y108154D01*
X309Y107903D01*
X183Y107656D01*
X51Y107411D01*
X-87Y107170D01*
X-231Y106932D01*
X-381Y106698D01*
X-536Y106467D01*
X-696Y106240D01*
X-862Y106018D01*
X-1034Y105799D01*
X-1210Y105584D01*
X-1392Y105374D01*
X-1579Y105168D01*
X-1771Y104967D01*
X-1967Y104771D01*
X-2168Y104579D01*
X-2374Y104392D01*
X-2584Y104210D01*
X-2799Y104034D01*
X-3018Y103862D01*
X-3240Y103696D01*
X-3467Y103536D01*
X-3698Y103381D01*
X-3932Y103231D01*
X-4170Y103087D01*
X-4411Y102949D01*
X-4656Y102817D01*
X-4903Y102691D01*
X-5154Y102571D01*
X-5407Y102457D01*
X-5663Y102349D01*
X-5922Y102247D01*
X-6183Y102152D01*
X-6446Y102063D01*
X-6712Y101980D01*
X-6979Y101904D01*
X-7248Y101834D01*
X-7518Y101771D01*
X-7791Y101714D01*
X-8064Y101664D01*
X-8338Y101621D01*
X-8614Y101584D01*
X-8890Y101554D01*
X-9167Y101530D01*
X-9444Y101513D01*
X-9722Y101503D01*
X-10000Y101500D01*
X-15515Y101500D01*
D11*
X-15000Y89500D03*
X-31000Y99000D03*
X2000Y204500D03*
D13*
X-17000Y194500D02*
X-17000Y185036D01*
X-17000Y194500D02*
X-16997Y194742D01*
X-16988Y194983D01*
X-16974Y195224D01*
X-16953Y195465D01*
X-16927Y195705D01*
X-16895Y195945D01*
X-16857Y196184D01*
X-16814Y196421D01*
X-16764Y196658D01*
X-16709Y196893D01*
X-16649Y197127D01*
X-16582Y197359D01*
X-16511Y197590D01*
X-16433Y197819D01*
X-16350Y198046D01*
X-16262Y198271D01*
X-16168Y198494D01*
X-16069Y198714D01*
X-15964Y198932D01*
X-15855Y199147D01*
X-15740Y199360D01*
X-15620Y199570D01*
X-15495Y199776D01*
X-15365Y199980D01*
X-15230Y200181D01*
X-15090Y200378D01*
X-14946Y200572D01*
X-14797Y200762D01*
X-14643Y200948D01*
X-14485Y201131D01*
X-14323Y201310D01*
X-14156Y201485D01*
X-13985Y201656D01*
X-13810Y201823D01*
X-13631Y201985D01*
X-13448Y202143D01*
X-13262Y202297D01*
X-13072Y202446D01*
X-12878Y202590D01*
X-12681Y202730D01*
X-12480Y202865D01*
X-12276Y202995D01*
X-12070Y203120D01*
X-11860Y203240D01*
X-11647Y203355D01*
X-11432Y203464D01*
X-11214Y203569D01*
X-10994Y203668D01*
X-10771Y203762D01*
X-10546Y203850D01*
X-10319Y203933D01*
X-10090Y204011D01*
X-9859Y204082D01*
X-9627Y204149D01*
X-9393Y204209D01*
X-9158Y204264D01*
X-8921Y204314D01*
X-8684Y204357D01*
X-8445Y204395D01*
X-8205Y204427D01*
X-7965Y204453D01*
X-7724Y204474D01*
X-7483Y204488D01*
X-7242Y204497D01*
X-7000Y204500D01*
X2000Y204500D01*
X-31000Y99000D02*
X-30855Y98858D01*
X-30706Y98720D01*
X-30554Y98585D01*
X-30399Y98454D01*
X-30241Y98326D01*
X-30079Y98203D01*
X-29915Y98083D01*
X-29748Y97967D01*
X-29579Y97855D01*
X-29407Y97747D01*
X-29232Y97644D01*
X-29055Y97544D01*
X-28875Y97449D01*
X-28694Y97358D01*
X-28510Y97271D01*
X-28324Y97189D01*
X-28137Y97111D01*
X-27947Y97038D01*
X-27756Y96969D01*
X-27563Y96905D01*
X-27369Y96846D01*
X-27173Y96791D01*
X-26976Y96741D01*
X-26778Y96695D01*
X-26579Y96654D01*
X-26380Y96618D01*
X-26179Y96587D01*
X-25977Y96560D01*
X-25775Y96539D01*
X-25573Y96522D01*
X-25370Y96510D01*
X-25167Y96502D01*
X-24964Y96500D01*
X-9000Y96500D02*
X-8625Y96505D01*
X-8251Y96518D01*
X-7877Y96541D01*
X-7504Y96572D01*
X-7132Y96613D01*
X-6760Y96663D01*
X-6390Y96721D01*
X-6022Y96789D01*
X-5655Y96865D01*
X-5291Y96950D01*
X-4928Y97044D01*
X-4568Y97147D01*
X-4210Y97259D01*
X-3855Y97379D01*
X-3504Y97507D01*
X-3155Y97644D01*
X-2810Y97790D01*
X-2468Y97943D01*
X-2131Y98105D01*
X-1797Y98275D01*
X-1467Y98453D01*
X-1142Y98639D01*
X-822Y98833D01*
X-506Y99035D01*
X-195Y99244D01*
X111Y99460D01*
X411Y99684D01*
X706Y99915D01*
X995Y100153D01*
X1278Y100398D01*
X1556Y100650D01*
X1827Y100908D01*
X2092Y101173D01*
X2350Y101444D01*
X2602Y101722D01*
X2847Y102005D01*
X3085Y102294D01*
X3316Y102589D01*
X3540Y102889D01*
X3756Y103195D01*
X3965Y103506D01*
X4167Y103822D01*
X4361Y104142D01*
X4547Y104467D01*
X4725Y104797D01*
X4895Y105131D01*
X5057Y105468D01*
X5210Y105810D01*
X5356Y106155D01*
X5493Y106504D01*
X5621Y106855D01*
X5741Y107210D01*
X5853Y107568D01*
X5956Y107928D01*
X6050Y108291D01*
X6135Y108655D01*
X6211Y109022D01*
X6279Y109390D01*
X6337Y109760D01*
X6387Y110132D01*
X6428Y110504D01*
X6459Y110877D01*
X6482Y111251D01*
X6495Y111625D01*
X6500Y112000D01*
X6496Y112373D01*
X6482Y112747D01*
X6460Y113119D01*
X6429Y113492D01*
X6389Y113863D01*
X6340Y114233D01*
X6283Y114602D01*
X6216Y114970D01*
X6141Y115336D01*
X6058Y115700D01*
X5965Y116061D01*
X5864Y116421D01*
X5755Y116778D01*
X5637Y117132D01*
X5511Y117484D01*
X5376Y117832D01*
X5233Y118177D01*
X5082Y118519D01*
X4923Y118857D01*
X4756Y119190D01*
X4581Y119520D01*
X4398Y119846D01*
X4207Y120167D01*
X4009Y120484D01*
X3803Y120795D01*
X3590Y121102D01*
X3370Y121404D01*
X3143Y121700D01*
X2908Y121991D01*
X2667Y122276D01*
X2419Y122555D01*
X2165Y122829D01*
X1904Y123096D01*
X1500Y123500D01*
X1500Y123499D02*
X1103Y123906D01*
X715Y124322D01*
X338Y124748D01*
X-30Y125182D01*
X-387Y125625D01*
X-733Y126076D01*
X-1068Y126536D01*
X-1393Y127003D01*
X-1706Y127478D01*
X-2008Y127960D01*
X-2298Y128449D01*
X-2577Y128945D01*
X-2843Y129447D01*
X-3098Y129956D01*
X-3340Y130471D01*
X-3570Y130991D01*
X-3788Y131516D01*
X-3993Y132047D01*
X-4186Y132582D01*
X-4365Y133122D01*
X-4532Y133666D01*
X-4686Y134213D01*
X-4826Y134764D01*
X-4954Y135319D01*
X-5068Y135876D01*
X-5169Y136436D01*
X-5257Y136998D01*
X-5331Y137562D01*
X-5392Y138127D01*
X-5439Y138694D01*
X-5473Y139262D01*
X-5493Y139830D01*
X-5500Y140399D01*
X-9000Y96500D02*
X-24964Y96500D01*
X-5500Y140400D02*
X-5500Y163343D01*
X-5504Y163678D01*
X-5516Y164013D01*
X-5537Y164348D01*
X-5566Y164682D01*
X-5603Y165015D01*
X-5648Y165347D01*
X-5701Y165678D01*
X-5762Y166007D01*
X-5832Y166335D01*
X-5909Y166661D01*
X-5995Y166986D01*
X-6088Y167307D01*
X-6189Y167627D01*
X-6298Y167944D01*
X-6415Y168258D01*
X-6540Y168569D01*
X-6672Y168877D01*
X-6811Y169182D01*
X-6958Y169483D01*
X-7113Y169781D01*
X-7274Y170075D01*
X-7443Y170364D01*
X-7619Y170649D01*
X-7802Y170930D01*
X-7991Y171207D01*
X-8188Y171478D01*
X-8391Y171745D01*
X-8600Y172007D01*
X-8816Y172263D01*
X-9038Y172514D01*
X-9266Y172760D01*
X-9500Y173000D01*
X-13793Y177293D01*
X-13975Y177480D01*
X-14152Y177670D01*
X-14325Y177865D01*
X-14494Y178064D01*
X-14657Y178267D01*
X-14816Y178474D01*
X-14970Y178684D01*
X-15118Y178898D01*
X-15262Y179116D01*
X-15400Y179337D01*
X-15533Y179561D01*
X-15661Y179788D01*
X-15783Y180018D01*
X-15899Y180251D01*
X-16010Y180487D01*
X-16116Y180726D01*
X-16216Y180966D01*
X-16310Y181209D01*
X-16398Y181455D01*
X-16480Y181702D01*
X-16556Y181951D01*
X-16627Y182202D01*
X-16691Y182454D01*
X-16750Y182708D01*
X-16802Y182964D01*
X-16848Y183220D01*
X-16889Y183478D01*
X-16923Y183736D01*
X-16950Y183995D01*
X-16972Y184255D01*
X-16988Y184515D01*
X-16997Y184775D01*
X-17000Y185036D01*
D11*
X-20302Y117648D03*
X51500Y171500D03*
M02*
