M48
;GenerationSoftware,Autodesk,EAGLE,9.6.2*%
;CreationDate,2023-07-04T10:30:15Z*%
FMAT,2
ICI,OFF
METRIC,TZ,000.000
T2C0.300
T1C1.100
%
G90
M71
T1
X-7620Y27770
X-12700Y1270
X-12700Y-1270
X-10160Y1270
X-10160Y-1270
X-7620Y1270
X-7620Y-1270
X-5080Y1270
X-5080Y-1270
X-2540Y1270
X-2540Y-1270
X0Y1270
X0Y-1270
X2540Y1270
X2540Y-1270
X5080Y1270
X5080Y-1270
X7620Y1270
X7620Y-1270
X10160Y1270
X10160Y-1270
X12700Y1270
X12700Y-1270
X-10160Y27770
X-10160Y25230
X-7620Y25230
X-5080Y27770
X-5080Y25230
X-2540Y27770
X-2540Y25230
X0Y27770
X0Y25230
X2540Y27770
X2540Y25230
X5080Y27770
X5080Y25230
X7620Y27770
X7620Y25230
X10160Y27770
X10160Y25230
T2
X14050Y21100
X500Y8750
X16300Y10300
X973Y30231
X500Y7850
X16950Y9000
X5650Y30700
X1350Y8500
X15550Y9650
X1806Y29506
X8850Y5650
X-3000Y13200
X9650Y5000
X-5400Y13550
X7281Y5700
X-5600Y12750
X6850Y5000
X-5350Y11950
X2350Y5000
X-2350Y8955
X4650Y5000
X-8000Y21000
X4344Y5756
X-2400Y5700
X600Y5350
X2971Y5510
X-1609Y5459
X7400Y13350
X1600Y31950
X1600Y31050
X-1650Y31050
X10050Y17250
X-500Y11300
X-1400Y20950
X-1644Y10806
X6500Y17150
X-2434Y10516
X-1250Y16650
X-1500Y8950
X-3100Y9900
X200Y20450
X-2030Y11765
X5150Y17150
X-4150Y4650
X13150Y16600
X11400Y7150
X5250Y8250
X-2650Y8100
X5850Y12850
X2750Y7750
X8950Y15750
X-1650Y31950
X-1000Y19000
X10500Y11200
X750Y14100
X-11000Y21000
X-10000Y21000
X-9000Y21000
X-8000Y20000
X-9000Y20000
X-10000Y20000
X-11000Y20000
X-11000Y19000
X-10000Y19000
X-9000Y19000
X-8000Y19000
X-3000Y17300
X-3450Y6750
X11000Y22050
X5873Y20988
X1500Y13000
X15000Y3500
X14000Y12000
X-4500Y15500
X3000Y22000
X3000Y17500
X500Y17000
X4500Y15500
X7500Y15500
X14500Y15500
X12000Y13000
X15000Y8000
X10500Y3500
M30