G04 EAGLE Gerber RS-274X export*
G75*
%MOMM*%
%FSLAX34Y34*%
%LPD*%
%INSoldermask Bottom*%
%IPPOS*%
%AMOC8*
5,1,8,0,0,1.08239X$1,22.5*%
G01*
%ADD10C,0.605000*%
%ADD11C,1.750000*%
%ADD12C,0.301000*%

G36*
X-29000Y193545D02*
X-29000Y193545D01*
X-28999Y193545D01*
X-28690Y193594D01*
X-28690Y193595D01*
X-28689Y193595D01*
X-28410Y193737D01*
X-28410Y193738D01*
X-28409Y193737D01*
X-28187Y193959D01*
X-28187Y193960D01*
X-28045Y194239D01*
X-28045Y194240D01*
X-28044Y194240D01*
X-27995Y194549D01*
X-27995Y194550D01*
X-27995Y200250D01*
X-27995Y200251D01*
X-28044Y200560D01*
X-28045Y200560D01*
X-28045Y200561D01*
X-28187Y200840D01*
X-28188Y200840D01*
X-28187Y200841D01*
X-28409Y201063D01*
X-28410Y201063D01*
X-28689Y201206D01*
X-28690Y201205D01*
X-28690Y201206D01*
X-28999Y201255D01*
X-29000Y201255D01*
X-31000Y201255D01*
X-31001Y201255D01*
X-31310Y201206D01*
X-31310Y201205D01*
X-31311Y201206D01*
X-31590Y201063D01*
X-31591Y201063D01*
X-31813Y200841D01*
X-31813Y200840D01*
X-31956Y200561D01*
X-31955Y200560D01*
X-31956Y200560D01*
X-32005Y200251D01*
X-32005Y200250D01*
X-32005Y194550D01*
X-32005Y194549D01*
X-31956Y194240D01*
X-31955Y194240D01*
X-31956Y194239D01*
X-31813Y193960D01*
X-31813Y193959D01*
X-31591Y193737D01*
X-31590Y193737D01*
X-31311Y193595D01*
X-31310Y193595D01*
X-31310Y193594D01*
X-31001Y193545D01*
X-31000Y193545D01*
X-29000Y193545D01*
X-29000Y193545D01*
G37*
G36*
X66000Y193545D02*
X66000Y193545D01*
X66001Y193545D01*
X66310Y193594D01*
X66310Y193595D01*
X66311Y193595D01*
X66590Y193737D01*
X66590Y193738D01*
X66591Y193737D01*
X66813Y193959D01*
X66813Y193960D01*
X66956Y194239D01*
X66955Y194240D01*
X66956Y194240D01*
X67005Y194549D01*
X67005Y194550D01*
X67005Y200250D01*
X67005Y200251D01*
X66956Y200560D01*
X66955Y200560D01*
X66956Y200561D01*
X66813Y200840D01*
X66813Y200841D01*
X66591Y201063D01*
X66590Y201063D01*
X66311Y201206D01*
X66310Y201205D01*
X66310Y201206D01*
X66001Y201255D01*
X66000Y201255D01*
X64000Y201255D01*
X63999Y201255D01*
X63690Y201206D01*
X63690Y201205D01*
X63689Y201206D01*
X63410Y201063D01*
X63409Y201063D01*
X63187Y200841D01*
X63187Y200840D01*
X63045Y200561D01*
X63045Y200560D01*
X63044Y200560D01*
X62995Y200251D01*
X62995Y200250D01*
X62995Y194550D01*
X62995Y194549D01*
X63044Y194240D01*
X63045Y194240D01*
X63045Y194239D01*
X63187Y193960D01*
X63188Y193960D01*
X63187Y193959D01*
X63409Y193737D01*
X63410Y193737D01*
X63689Y193595D01*
X63690Y193595D01*
X63690Y193594D01*
X63999Y193545D01*
X64000Y193545D01*
X66000Y193545D01*
X66000Y193545D01*
G37*
G36*
X-34000Y193545D02*
X-34000Y193545D01*
X-33999Y193545D01*
X-33690Y193594D01*
X-33690Y193595D01*
X-33689Y193595D01*
X-33410Y193737D01*
X-33410Y193738D01*
X-33409Y193737D01*
X-33187Y193959D01*
X-33187Y193960D01*
X-33045Y194239D01*
X-33045Y194240D01*
X-33044Y194240D01*
X-32995Y194549D01*
X-32995Y194550D01*
X-32995Y200250D01*
X-32995Y200251D01*
X-33044Y200560D01*
X-33045Y200560D01*
X-33045Y200561D01*
X-33187Y200840D01*
X-33188Y200840D01*
X-33187Y200841D01*
X-33409Y201063D01*
X-33410Y201063D01*
X-33689Y201206D01*
X-33690Y201205D01*
X-33690Y201206D01*
X-33999Y201255D01*
X-34000Y201255D01*
X-36000Y201255D01*
X-36001Y201255D01*
X-36310Y201206D01*
X-36310Y201205D01*
X-36311Y201206D01*
X-36590Y201063D01*
X-36591Y201063D01*
X-36813Y200841D01*
X-36813Y200840D01*
X-36956Y200561D01*
X-36955Y200560D01*
X-36956Y200560D01*
X-37005Y200251D01*
X-37005Y200250D01*
X-37005Y194550D01*
X-37005Y194549D01*
X-36956Y194240D01*
X-36955Y194240D01*
X-36956Y194239D01*
X-36813Y193960D01*
X-36813Y193959D01*
X-36591Y193737D01*
X-36590Y193737D01*
X-36311Y193595D01*
X-36310Y193595D01*
X-36310Y193594D01*
X-36001Y193545D01*
X-36000Y193545D01*
X-34000Y193545D01*
X-34000Y193545D01*
G37*
G36*
X56000Y193545D02*
X56000Y193545D01*
X56001Y193545D01*
X56310Y193594D01*
X56310Y193595D01*
X56311Y193595D01*
X56590Y193737D01*
X56590Y193738D01*
X56591Y193737D01*
X56813Y193959D01*
X56813Y193960D01*
X56956Y194239D01*
X56955Y194240D01*
X56956Y194240D01*
X57005Y194549D01*
X57005Y194550D01*
X57005Y200250D01*
X57005Y200251D01*
X56956Y200560D01*
X56955Y200560D01*
X56956Y200561D01*
X56813Y200840D01*
X56813Y200841D01*
X56591Y201063D01*
X56590Y201063D01*
X56311Y201206D01*
X56310Y201205D01*
X56310Y201206D01*
X56001Y201255D01*
X56000Y201255D01*
X54000Y201255D01*
X53999Y201255D01*
X53690Y201206D01*
X53690Y201205D01*
X53689Y201206D01*
X53410Y201063D01*
X53409Y201063D01*
X53187Y200841D01*
X53187Y200840D01*
X53045Y200561D01*
X53045Y200560D01*
X53044Y200560D01*
X52995Y200251D01*
X52995Y200250D01*
X52995Y194550D01*
X52995Y194549D01*
X53044Y194240D01*
X53045Y194240D01*
X53045Y194239D01*
X53187Y193960D01*
X53188Y193960D01*
X53187Y193959D01*
X53409Y193737D01*
X53410Y193737D01*
X53689Y193595D01*
X53690Y193595D01*
X53690Y193594D01*
X53999Y193545D01*
X54000Y193545D01*
X56000Y193545D01*
X56000Y193545D01*
G37*
G36*
X-24000Y193545D02*
X-24000Y193545D01*
X-23999Y193545D01*
X-23690Y193594D01*
X-23690Y193595D01*
X-23689Y193595D01*
X-23410Y193737D01*
X-23410Y193738D01*
X-23409Y193737D01*
X-23187Y193959D01*
X-23187Y193960D01*
X-23045Y194239D01*
X-23045Y194240D01*
X-23044Y194240D01*
X-22995Y194549D01*
X-22995Y194550D01*
X-22995Y200250D01*
X-22995Y200251D01*
X-23044Y200560D01*
X-23045Y200560D01*
X-23045Y200561D01*
X-23187Y200840D01*
X-23188Y200840D01*
X-23187Y200841D01*
X-23409Y201063D01*
X-23410Y201063D01*
X-23689Y201206D01*
X-23690Y201205D01*
X-23690Y201206D01*
X-23999Y201255D01*
X-24000Y201255D01*
X-26000Y201255D01*
X-26001Y201255D01*
X-26310Y201206D01*
X-26310Y201205D01*
X-26311Y201206D01*
X-26590Y201063D01*
X-26591Y201063D01*
X-26813Y200841D01*
X-26813Y200840D01*
X-26956Y200561D01*
X-26955Y200560D01*
X-26956Y200560D01*
X-27005Y200251D01*
X-27005Y200250D01*
X-27005Y194550D01*
X-27005Y194549D01*
X-26956Y194240D01*
X-26955Y194240D01*
X-26956Y194239D01*
X-26813Y193960D01*
X-26813Y193959D01*
X-26591Y193737D01*
X-26590Y193737D01*
X-26311Y193595D01*
X-26310Y193595D01*
X-26310Y193594D01*
X-26001Y193545D01*
X-26000Y193545D01*
X-24000Y193545D01*
X-24000Y193545D01*
G37*
G36*
X61000Y193545D02*
X61000Y193545D01*
X61001Y193545D01*
X61310Y193594D01*
X61310Y193595D01*
X61311Y193595D01*
X61590Y193737D01*
X61590Y193738D01*
X61591Y193737D01*
X61813Y193959D01*
X61813Y193960D01*
X61956Y194239D01*
X61955Y194240D01*
X61956Y194240D01*
X62005Y194549D01*
X62005Y194550D01*
X62005Y200250D01*
X62005Y200251D01*
X61956Y200560D01*
X61955Y200560D01*
X61956Y200561D01*
X61813Y200840D01*
X61813Y200841D01*
X61591Y201063D01*
X61590Y201063D01*
X61311Y201206D01*
X61310Y201205D01*
X61310Y201206D01*
X61001Y201255D01*
X61000Y201255D01*
X59000Y201255D01*
X58999Y201255D01*
X58690Y201206D01*
X58690Y201205D01*
X58689Y201206D01*
X58410Y201063D01*
X58409Y201063D01*
X58187Y200841D01*
X58187Y200840D01*
X58045Y200561D01*
X58045Y200560D01*
X58044Y200560D01*
X57995Y200251D01*
X57995Y200250D01*
X57995Y194550D01*
X57995Y194549D01*
X58044Y194240D01*
X58045Y194240D01*
X58045Y194239D01*
X58187Y193960D01*
X58188Y193960D01*
X58187Y193959D01*
X58409Y193737D01*
X58410Y193737D01*
X58689Y193595D01*
X58690Y193595D01*
X58690Y193594D01*
X58999Y193545D01*
X59000Y193545D01*
X61000Y193545D01*
X61000Y193545D01*
G37*
G36*
X-34000Y178745D02*
X-34000Y178745D01*
X-33999Y178745D01*
X-33690Y178794D01*
X-33690Y178795D01*
X-33689Y178795D01*
X-33410Y178937D01*
X-33410Y178938D01*
X-33409Y178937D01*
X-33187Y179159D01*
X-33187Y179160D01*
X-33045Y179439D01*
X-33045Y179440D01*
X-33044Y179440D01*
X-32995Y179749D01*
X-32995Y179750D01*
X-32995Y185450D01*
X-32995Y185451D01*
X-33044Y185760D01*
X-33045Y185760D01*
X-33045Y185761D01*
X-33187Y186040D01*
X-33188Y186040D01*
X-33187Y186041D01*
X-33409Y186263D01*
X-33410Y186263D01*
X-33689Y186406D01*
X-33690Y186405D01*
X-33690Y186406D01*
X-33999Y186455D01*
X-34000Y186455D01*
X-36000Y186455D01*
X-36001Y186455D01*
X-36310Y186406D01*
X-36310Y186405D01*
X-36311Y186406D01*
X-36590Y186263D01*
X-36591Y186263D01*
X-36813Y186041D01*
X-36813Y186040D01*
X-36956Y185761D01*
X-36955Y185760D01*
X-36956Y185760D01*
X-37005Y185451D01*
X-37005Y185450D01*
X-37005Y179750D01*
X-37005Y179749D01*
X-36956Y179440D01*
X-36955Y179440D01*
X-36956Y179439D01*
X-36813Y179160D01*
X-36813Y179159D01*
X-36591Y178937D01*
X-36590Y178937D01*
X-36311Y178795D01*
X-36310Y178795D01*
X-36310Y178794D01*
X-36001Y178745D01*
X-36000Y178745D01*
X-34000Y178745D01*
X-34000Y178745D01*
G37*
G36*
X61000Y178745D02*
X61000Y178745D01*
X61001Y178745D01*
X61310Y178794D01*
X61310Y178795D01*
X61311Y178795D01*
X61590Y178937D01*
X61590Y178938D01*
X61591Y178937D01*
X61813Y179159D01*
X61813Y179160D01*
X61956Y179439D01*
X61955Y179440D01*
X61956Y179440D01*
X62005Y179749D01*
X62005Y179750D01*
X62005Y185450D01*
X62005Y185451D01*
X61956Y185760D01*
X61955Y185760D01*
X61956Y185761D01*
X61813Y186040D01*
X61813Y186041D01*
X61591Y186263D01*
X61590Y186263D01*
X61311Y186406D01*
X61310Y186405D01*
X61310Y186406D01*
X61001Y186455D01*
X61000Y186455D01*
X59000Y186455D01*
X58999Y186455D01*
X58690Y186406D01*
X58690Y186405D01*
X58689Y186406D01*
X58410Y186263D01*
X58409Y186263D01*
X58187Y186041D01*
X58187Y186040D01*
X58045Y185761D01*
X58045Y185760D01*
X58044Y185760D01*
X57995Y185451D01*
X57995Y185450D01*
X57995Y179750D01*
X57995Y179749D01*
X58044Y179440D01*
X58045Y179440D01*
X58045Y179439D01*
X58187Y179160D01*
X58188Y179160D01*
X58187Y179159D01*
X58409Y178937D01*
X58410Y178937D01*
X58689Y178795D01*
X58690Y178795D01*
X58690Y178794D01*
X58999Y178745D01*
X59000Y178745D01*
X61000Y178745D01*
X61000Y178745D01*
G37*
G36*
X-24000Y178745D02*
X-24000Y178745D01*
X-23999Y178745D01*
X-23690Y178794D01*
X-23690Y178795D01*
X-23689Y178795D01*
X-23410Y178937D01*
X-23410Y178938D01*
X-23409Y178937D01*
X-23187Y179159D01*
X-23187Y179160D01*
X-23045Y179439D01*
X-23045Y179440D01*
X-23044Y179440D01*
X-22995Y179749D01*
X-22995Y179750D01*
X-22995Y185450D01*
X-22995Y185451D01*
X-23044Y185760D01*
X-23045Y185760D01*
X-23045Y185761D01*
X-23187Y186040D01*
X-23188Y186040D01*
X-23187Y186041D01*
X-23409Y186263D01*
X-23410Y186263D01*
X-23689Y186406D01*
X-23690Y186405D01*
X-23690Y186406D01*
X-23999Y186455D01*
X-24000Y186455D01*
X-26000Y186455D01*
X-26001Y186455D01*
X-26310Y186406D01*
X-26310Y186405D01*
X-26311Y186406D01*
X-26590Y186263D01*
X-26591Y186263D01*
X-26813Y186041D01*
X-26813Y186040D01*
X-26956Y185761D01*
X-26955Y185760D01*
X-26956Y185760D01*
X-27005Y185451D01*
X-27005Y185450D01*
X-27005Y179750D01*
X-27005Y179749D01*
X-26956Y179440D01*
X-26955Y179440D01*
X-26956Y179439D01*
X-26813Y179160D01*
X-26813Y179159D01*
X-26591Y178937D01*
X-26590Y178937D01*
X-26311Y178795D01*
X-26310Y178795D01*
X-26310Y178794D01*
X-26001Y178745D01*
X-26000Y178745D01*
X-24000Y178745D01*
X-24000Y178745D01*
G37*
G36*
X-29000Y178745D02*
X-29000Y178745D01*
X-28999Y178745D01*
X-28690Y178794D01*
X-28690Y178795D01*
X-28689Y178795D01*
X-28410Y178937D01*
X-28410Y178938D01*
X-28409Y178937D01*
X-28187Y179159D01*
X-28187Y179160D01*
X-28045Y179439D01*
X-28045Y179440D01*
X-28044Y179440D01*
X-27995Y179749D01*
X-27995Y179750D01*
X-27995Y185450D01*
X-27995Y185451D01*
X-28044Y185760D01*
X-28045Y185760D01*
X-28045Y185761D01*
X-28187Y186040D01*
X-28188Y186040D01*
X-28187Y186041D01*
X-28409Y186263D01*
X-28410Y186263D01*
X-28689Y186406D01*
X-28690Y186405D01*
X-28690Y186406D01*
X-28999Y186455D01*
X-29000Y186455D01*
X-31000Y186455D01*
X-31001Y186455D01*
X-31310Y186406D01*
X-31310Y186405D01*
X-31311Y186406D01*
X-31590Y186263D01*
X-31591Y186263D01*
X-31813Y186041D01*
X-31813Y186040D01*
X-31956Y185761D01*
X-31955Y185760D01*
X-31956Y185760D01*
X-32005Y185451D01*
X-32005Y185450D01*
X-32005Y179750D01*
X-32005Y179749D01*
X-31956Y179440D01*
X-31955Y179440D01*
X-31956Y179439D01*
X-31813Y179160D01*
X-31813Y179159D01*
X-31591Y178937D01*
X-31590Y178937D01*
X-31311Y178795D01*
X-31310Y178795D01*
X-31310Y178794D01*
X-31001Y178745D01*
X-31000Y178745D01*
X-29000Y178745D01*
X-29000Y178745D01*
G37*
G36*
X56000Y178745D02*
X56000Y178745D01*
X56001Y178745D01*
X56310Y178794D01*
X56310Y178795D01*
X56311Y178795D01*
X56590Y178937D01*
X56590Y178938D01*
X56591Y178937D01*
X56813Y179159D01*
X56813Y179160D01*
X56956Y179439D01*
X56955Y179440D01*
X56956Y179440D01*
X57005Y179749D01*
X57005Y179750D01*
X57005Y185450D01*
X57005Y185451D01*
X56956Y185760D01*
X56955Y185760D01*
X56956Y185761D01*
X56813Y186040D01*
X56813Y186041D01*
X56591Y186263D01*
X56590Y186263D01*
X56311Y186406D01*
X56310Y186405D01*
X56310Y186406D01*
X56001Y186455D01*
X56000Y186455D01*
X54000Y186455D01*
X53999Y186455D01*
X53690Y186406D01*
X53690Y186405D01*
X53689Y186406D01*
X53410Y186263D01*
X53409Y186263D01*
X53187Y186041D01*
X53187Y186040D01*
X53045Y185761D01*
X53045Y185760D01*
X53044Y185760D01*
X52995Y185451D01*
X52995Y185450D01*
X52995Y179750D01*
X52995Y179749D01*
X53044Y179440D01*
X53045Y179440D01*
X53045Y179439D01*
X53187Y179160D01*
X53188Y179160D01*
X53187Y179159D01*
X53409Y178937D01*
X53410Y178937D01*
X53689Y178795D01*
X53690Y178795D01*
X53690Y178794D01*
X53999Y178745D01*
X54000Y178745D01*
X56000Y178745D01*
X56000Y178745D01*
G37*
G36*
X66000Y178745D02*
X66000Y178745D01*
X66001Y178745D01*
X66310Y178794D01*
X66310Y178795D01*
X66311Y178795D01*
X66590Y178937D01*
X66590Y178938D01*
X66591Y178937D01*
X66813Y179159D01*
X66813Y179160D01*
X66956Y179439D01*
X66955Y179440D01*
X66956Y179440D01*
X67005Y179749D01*
X67005Y179750D01*
X67005Y185450D01*
X67005Y185451D01*
X66956Y185760D01*
X66955Y185760D01*
X66956Y185761D01*
X66813Y186040D01*
X66813Y186041D01*
X66591Y186263D01*
X66590Y186263D01*
X66311Y186406D01*
X66310Y186405D01*
X66310Y186406D01*
X66001Y186455D01*
X66000Y186455D01*
X64000Y186455D01*
X63999Y186455D01*
X63690Y186406D01*
X63690Y186405D01*
X63689Y186406D01*
X63410Y186263D01*
X63409Y186263D01*
X63187Y186041D01*
X63187Y186040D01*
X63045Y185761D01*
X63045Y185760D01*
X63044Y185760D01*
X62995Y185451D01*
X62995Y185450D01*
X62995Y179750D01*
X62995Y179749D01*
X63044Y179440D01*
X63045Y179440D01*
X63045Y179439D01*
X63187Y179160D01*
X63188Y179160D01*
X63187Y179159D01*
X63409Y178937D01*
X63410Y178937D01*
X63689Y178795D01*
X63690Y178795D01*
X63690Y178794D01*
X63999Y178745D01*
X64000Y178745D01*
X66000Y178745D01*
X66000Y178745D01*
G37*
D10*
X107475Y124475D02*
X107475Y118525D01*
X102525Y118525D01*
X102525Y124475D01*
X107475Y124475D01*
X107475Y124272D02*
X102525Y124272D01*
X107475Y135525D02*
X107475Y141475D01*
X107475Y135525D02*
X102525Y135525D01*
X102525Y141475D01*
X107475Y141475D01*
X107475Y141272D02*
X102525Y141272D01*
D11*
X-127000Y12700D03*
X-127000Y-12700D03*
X-101600Y12700D03*
X-101600Y-12700D03*
X-76200Y12700D03*
X-76200Y-12700D03*
X-50800Y12700D03*
X-50800Y-12700D03*
X-25400Y12700D03*
X-25400Y-12700D03*
X0Y12700D03*
X0Y-12700D03*
X25400Y12700D03*
X25400Y-12700D03*
X50800Y12700D03*
X50800Y-12700D03*
X76200Y12700D03*
X76200Y-12700D03*
X101600Y12700D03*
X101600Y-12700D03*
X127000Y12700D03*
X127000Y-12700D03*
D10*
X-2475Y320525D02*
X-2475Y326475D01*
X2475Y326475D01*
X2475Y320525D01*
X-2475Y320525D01*
X-2475Y326272D02*
X2475Y326272D01*
X-2475Y309475D02*
X-2475Y303525D01*
X-2475Y309475D02*
X2475Y309475D01*
X2475Y303525D01*
X-2475Y303525D01*
X-2475Y309272D02*
X2475Y309272D01*
X23525Y302525D02*
X29475Y302525D01*
X23525Y302525D02*
X23525Y307475D01*
X29475Y307475D01*
X29475Y302525D01*
X40525Y302525D02*
X46475Y302525D01*
X40525Y302525D02*
X40525Y307475D01*
X46475Y307475D01*
X46475Y302525D01*
X-23525Y312475D02*
X-29475Y312475D01*
X-23525Y312475D02*
X-23525Y307525D01*
X-29475Y307525D01*
X-29475Y312475D01*
X-40525Y312475D02*
X-46475Y312475D01*
X-40525Y312475D02*
X-40525Y307525D01*
X-46475Y307525D01*
X-46475Y312475D01*
X-11475Y37525D02*
X-5525Y37525D01*
X-11475Y37525D02*
X-11475Y42475D01*
X-5525Y42475D01*
X-5525Y37525D01*
X5525Y37525D02*
X11475Y37525D01*
X5525Y37525D02*
X5525Y42475D01*
X11475Y42475D01*
X11475Y37525D01*
D12*
X24755Y45495D02*
X25245Y45495D01*
X25245Y42505D01*
X24755Y42505D01*
X24755Y45495D01*
X24755Y45364D02*
X25245Y45364D01*
X29755Y45495D02*
X30245Y45495D01*
X30245Y42505D01*
X29755Y42505D01*
X29755Y45495D01*
X29755Y45364D02*
X30245Y45364D01*
X34755Y45495D02*
X35245Y45495D01*
X35245Y42505D01*
X34755Y42505D01*
X34755Y45495D01*
X34755Y45364D02*
X35245Y45364D01*
X39755Y45495D02*
X40245Y45495D01*
X40245Y42505D01*
X39755Y42505D01*
X39755Y45495D01*
X39755Y45364D02*
X40245Y45364D01*
X44755Y45495D02*
X45245Y45495D01*
X45245Y42505D01*
X44755Y42505D01*
X44755Y45495D01*
X44755Y45364D02*
X45245Y45364D01*
X45245Y37495D02*
X44755Y37495D01*
X45245Y37495D02*
X45245Y34505D01*
X44755Y34505D01*
X44755Y37495D01*
X44755Y37364D02*
X45245Y37364D01*
X40245Y37495D02*
X39755Y37495D01*
X40245Y37495D02*
X40245Y34505D01*
X39755Y34505D01*
X39755Y37495D01*
X39755Y37364D02*
X40245Y37364D01*
X35245Y37495D02*
X34755Y37495D01*
X35245Y37495D02*
X35245Y34505D01*
X34755Y34505D01*
X34755Y37495D01*
X34755Y37364D02*
X35245Y37364D01*
X30245Y37495D02*
X29755Y37495D01*
X30245Y37495D02*
X30245Y34505D01*
X29755Y34505D01*
X29755Y37495D01*
X29755Y37364D02*
X30245Y37364D01*
X25245Y37495D02*
X24755Y37495D01*
X25245Y37495D02*
X25245Y34505D01*
X24755Y34505D01*
X24755Y37495D01*
X24755Y37364D02*
X25245Y37364D01*
X89755Y34505D02*
X90245Y34505D01*
X89755Y34505D02*
X89755Y37495D01*
X90245Y37495D01*
X90245Y34505D01*
X90245Y37364D02*
X89755Y37364D01*
X85245Y34505D02*
X84755Y34505D01*
X84755Y37495D01*
X85245Y37495D01*
X85245Y34505D01*
X85245Y37364D02*
X84755Y37364D01*
X80245Y34505D02*
X79755Y34505D01*
X79755Y37495D01*
X80245Y37495D01*
X80245Y34505D01*
X80245Y37364D02*
X79755Y37364D01*
X75245Y34505D02*
X74755Y34505D01*
X74755Y37495D01*
X75245Y37495D01*
X75245Y34505D01*
X75245Y37364D02*
X74755Y37364D01*
X70245Y34505D02*
X69755Y34505D01*
X69755Y37495D01*
X70245Y37495D01*
X70245Y34505D01*
X70245Y37364D02*
X69755Y37364D01*
X69755Y42505D02*
X70245Y42505D01*
X69755Y42505D02*
X69755Y45495D01*
X70245Y45495D01*
X70245Y42505D01*
X70245Y45364D02*
X69755Y45364D01*
X74755Y42505D02*
X75245Y42505D01*
X74755Y42505D02*
X74755Y45495D01*
X75245Y45495D01*
X75245Y42505D01*
X75245Y45364D02*
X74755Y45364D01*
X79755Y42505D02*
X80245Y42505D01*
X79755Y42505D02*
X79755Y45495D01*
X80245Y45495D01*
X80245Y42505D01*
X80245Y45364D02*
X79755Y45364D01*
X84755Y42505D02*
X85245Y42505D01*
X84755Y42505D02*
X84755Y45495D01*
X85245Y45495D01*
X85245Y42505D01*
X85245Y45364D02*
X84755Y45364D01*
X89755Y42505D02*
X90245Y42505D01*
X89755Y42505D02*
X89755Y45495D01*
X90245Y45495D01*
X90245Y42505D01*
X90245Y45364D02*
X89755Y45364D01*
D10*
X26475Y67475D02*
X20525Y67475D01*
X26475Y67475D02*
X26475Y62525D01*
X20525Y62525D01*
X20525Y67475D01*
X9475Y67475D02*
X3525Y67475D01*
X9475Y67475D02*
X9475Y62525D01*
X3525Y62525D01*
X3525Y67475D01*
X-52525Y73525D02*
X-52525Y79475D01*
X-52525Y73525D02*
X-57475Y73525D01*
X-57475Y79475D01*
X-52525Y79475D01*
X-52525Y79272D02*
X-57475Y79272D01*
X-52525Y90525D02*
X-52525Y96475D01*
X-52525Y90525D02*
X-57475Y90525D01*
X-57475Y96475D01*
X-52525Y96475D01*
X-52525Y96272D02*
X-57475Y96272D01*
X-22475Y150525D02*
X-22475Y156475D01*
X-17525Y156475D01*
X-17525Y150525D01*
X-22475Y150525D01*
X-22475Y156272D02*
X-17525Y156272D01*
X-22475Y139475D02*
X-22475Y133525D01*
X-22475Y139475D02*
X-17525Y139475D01*
X-17525Y133525D01*
X-22475Y133525D01*
X-22475Y139272D02*
X-17525Y139272D01*
X32525Y131475D02*
X32525Y125525D01*
X32525Y131475D02*
X37475Y131475D01*
X37475Y125525D01*
X32525Y125525D01*
X32525Y131272D02*
X37475Y131272D01*
X32525Y114475D02*
X32525Y108525D01*
X32525Y114475D02*
X37475Y114475D01*
X37475Y108525D01*
X32525Y108525D01*
X32525Y114272D02*
X37475Y114272D01*
D12*
X44755Y225495D02*
X45245Y225495D01*
X45245Y222505D01*
X44755Y222505D01*
X44755Y225495D01*
X44755Y225364D02*
X45245Y225364D01*
X49755Y225495D02*
X50245Y225495D01*
X50245Y222505D01*
X49755Y222505D01*
X49755Y225495D01*
X49755Y225364D02*
X50245Y225364D01*
X54755Y225495D02*
X55245Y225495D01*
X55245Y222505D01*
X54755Y222505D01*
X54755Y225495D01*
X54755Y225364D02*
X55245Y225364D01*
X59755Y225495D02*
X60245Y225495D01*
X60245Y222505D01*
X59755Y222505D01*
X59755Y225495D01*
X59755Y225364D02*
X60245Y225364D01*
X64755Y225495D02*
X65245Y225495D01*
X65245Y222505D01*
X64755Y222505D01*
X64755Y225495D01*
X64755Y225364D02*
X65245Y225364D01*
X65245Y217495D02*
X64755Y217495D01*
X65245Y217495D02*
X65245Y214505D01*
X64755Y214505D01*
X64755Y217495D01*
X64755Y217364D02*
X65245Y217364D01*
X60245Y217495D02*
X59755Y217495D01*
X60245Y217495D02*
X60245Y214505D01*
X59755Y214505D01*
X59755Y217495D01*
X59755Y217364D02*
X60245Y217364D01*
X55245Y217495D02*
X54755Y217495D01*
X55245Y217495D02*
X55245Y214505D01*
X54755Y214505D01*
X54755Y217495D01*
X54755Y217364D02*
X55245Y217364D01*
X50245Y217495D02*
X49755Y217495D01*
X50245Y217495D02*
X50245Y214505D01*
X49755Y214505D01*
X49755Y217495D01*
X49755Y217364D02*
X50245Y217364D01*
X45245Y217495D02*
X44755Y217495D01*
X45245Y217495D02*
X45245Y214505D01*
X44755Y214505D01*
X44755Y217495D01*
X44755Y217364D02*
X45245Y217364D01*
X-14755Y214505D02*
X-15245Y214505D01*
X-15245Y217495D01*
X-14755Y217495D01*
X-14755Y214505D01*
X-14755Y217364D02*
X-15245Y217364D01*
X-19755Y214505D02*
X-20245Y214505D01*
X-20245Y217495D01*
X-19755Y217495D01*
X-19755Y214505D01*
X-19755Y217364D02*
X-20245Y217364D01*
X-24755Y214505D02*
X-25245Y214505D01*
X-25245Y217495D01*
X-24755Y217495D01*
X-24755Y214505D01*
X-24755Y217364D02*
X-25245Y217364D01*
X-29755Y214505D02*
X-30245Y214505D01*
X-30245Y217495D01*
X-29755Y217495D01*
X-29755Y214505D01*
X-29755Y217364D02*
X-30245Y217364D01*
X-34755Y214505D02*
X-35245Y214505D01*
X-35245Y217495D01*
X-34755Y217495D01*
X-34755Y214505D01*
X-34755Y217364D02*
X-35245Y217364D01*
X-35245Y222505D02*
X-34755Y222505D01*
X-35245Y222505D02*
X-35245Y225495D01*
X-34755Y225495D01*
X-34755Y222505D01*
X-34755Y225364D02*
X-35245Y225364D01*
X-30245Y222505D02*
X-29755Y222505D01*
X-30245Y222505D02*
X-30245Y225495D01*
X-29755Y225495D01*
X-29755Y222505D01*
X-29755Y225364D02*
X-30245Y225364D01*
X-25245Y222505D02*
X-24755Y222505D01*
X-25245Y222505D02*
X-25245Y225495D01*
X-24755Y225495D01*
X-24755Y222505D01*
X-24755Y225364D02*
X-25245Y225364D01*
X-20245Y222505D02*
X-19755Y222505D01*
X-20245Y222505D02*
X-20245Y225495D01*
X-19755Y225495D01*
X-19755Y222505D01*
X-19755Y225364D02*
X-20245Y225364D01*
X-15245Y222505D02*
X-14755Y222505D01*
X-15245Y222505D02*
X-15245Y225495D01*
X-14755Y225495D01*
X-14755Y222505D01*
X-14755Y225364D02*
X-15245Y225364D01*
D10*
X-2525Y89475D02*
X-2525Y83525D01*
X-7475Y83525D01*
X-7475Y89475D01*
X-2525Y89475D01*
X-2525Y89272D02*
X-7475Y89272D01*
X-2525Y100525D02*
X-2525Y106475D01*
X-2525Y100525D02*
X-7475Y100525D01*
X-7475Y106475D01*
X-2525Y106475D01*
X-2525Y106272D02*
X-7475Y106272D01*
X12525Y110525D02*
X12525Y116475D01*
X17475Y116475D01*
X17475Y110525D01*
X12525Y110525D01*
X12525Y116272D02*
X17475Y116272D01*
X12525Y99475D02*
X12525Y93525D01*
X12525Y99475D02*
X17475Y99475D01*
X17475Y93525D01*
X12525Y93525D01*
X12525Y99272D02*
X17475Y99272D01*
X77525Y190525D02*
X77525Y196475D01*
X82475Y196475D01*
X82475Y190525D01*
X77525Y190525D01*
X77525Y196272D02*
X82475Y196272D01*
X77525Y179475D02*
X77525Y173525D01*
X77525Y179475D02*
X82475Y179475D01*
X82475Y173525D01*
X77525Y173525D01*
X77525Y179272D02*
X82475Y179272D01*
X-52475Y195525D02*
X-52475Y201475D01*
X-47525Y201475D01*
X-47525Y195525D01*
X-52475Y195525D01*
X-52475Y201272D02*
X-47525Y201272D01*
X-52475Y184475D02*
X-52475Y178525D01*
X-52475Y184475D02*
X-47525Y184475D01*
X-47525Y178525D01*
X-52475Y178525D01*
X-52475Y184272D02*
X-47525Y184272D01*
D11*
X-101600Y277700D03*
X-101600Y252300D03*
X-76200Y277700D03*
X-76200Y252300D03*
X-50800Y277700D03*
X-50800Y252300D03*
X-25400Y277700D03*
X-25400Y252300D03*
X0Y277700D03*
X0Y252300D03*
X25400Y277700D03*
X25400Y252300D03*
X50800Y277700D03*
X50800Y252300D03*
X76200Y277700D03*
X76200Y252300D03*
X101600Y277700D03*
X101600Y252300D03*
D12*
X6495Y193505D02*
X-2495Y193505D01*
X-2495Y197495D01*
X6495Y197495D01*
X6495Y193505D01*
X6495Y196364D02*
X-2495Y196364D01*
X-2495Y212505D02*
X6495Y212505D01*
X-2495Y212505D02*
X-2495Y216495D01*
X6495Y216495D01*
X6495Y212505D01*
X6495Y215364D02*
X-2495Y215364D01*
X23505Y203005D02*
X32495Y203005D01*
X23505Y203005D02*
X23505Y206995D01*
X32495Y206995D01*
X32495Y203005D01*
X32495Y205864D02*
X23505Y205864D01*
X98505Y203505D02*
X98505Y212495D01*
X102495Y212495D01*
X102495Y203505D01*
X98505Y203505D01*
X98505Y206364D02*
X102495Y206364D01*
X102495Y209223D02*
X98505Y209223D01*
X98505Y212082D02*
X102495Y212082D01*
X108005Y212495D02*
X108005Y203505D01*
X108005Y212495D02*
X111995Y212495D01*
X111995Y203505D01*
X108005Y203505D01*
X108005Y206364D02*
X111995Y206364D01*
X111995Y209223D02*
X108005Y209223D01*
X108005Y212082D02*
X111995Y212082D01*
X117505Y212495D02*
X117505Y203505D01*
X117505Y212495D02*
X121495Y212495D01*
X121495Y203505D01*
X117505Y203505D01*
X117505Y206364D02*
X121495Y206364D01*
X121495Y209223D02*
X117505Y209223D01*
X117505Y212082D02*
X121495Y212082D01*
X117505Y186495D02*
X117505Y177505D01*
X117505Y186495D02*
X121495Y186495D01*
X121495Y177505D01*
X117505Y177505D01*
X117505Y180364D02*
X121495Y180364D01*
X121495Y183223D02*
X117505Y183223D01*
X117505Y186082D02*
X121495Y186082D01*
X98505Y186495D02*
X98505Y177505D01*
X98505Y186495D02*
X102495Y186495D01*
X102495Y177505D01*
X98505Y177505D01*
X98505Y180364D02*
X102495Y180364D01*
X102495Y183223D02*
X98505Y183223D01*
X98505Y186082D02*
X102495Y186082D01*
D10*
X115525Y162475D02*
X121475Y162475D01*
X121475Y157525D01*
X115525Y157525D01*
X115525Y162475D01*
X104475Y162475D02*
X98525Y162475D01*
X104475Y162475D02*
X104475Y157525D01*
X98525Y157525D01*
X98525Y162475D01*
M02*
