G04 EAGLE Gerber RS-274X export*
G75*
%MOMM*%
%FSLAX34Y34*%
%LPD*%
%INSolderpaste Top*%
%IPPOS*%
%AMOC8*
5,1,8,0,0,1.08239X$1,22.5*%
G01*
%ADD10C,0.500000*%
%ADD11C,0.200000*%
%ADD12C,1.200000*%
%ADD13C,0.203000*%
%ADD14C,0.198000*%
%ADD15C,0.201000*%
%ADD16C,0.800000*%
%ADD17C,0.750000*%


D10*
X-44500Y37500D02*
X-38500Y37500D01*
X-38500Y32500D01*
X-44500Y32500D01*
X-44500Y37500D01*
X-44500Y37250D02*
X-38500Y37250D01*
X-55500Y37500D02*
X-61500Y37500D01*
X-55500Y37500D02*
X-55500Y32500D01*
X-61500Y32500D01*
X-61500Y37500D01*
X-61500Y37250D02*
X-55500Y37250D01*
D11*
X5000Y318000D02*
X11000Y318000D01*
X5000Y318000D02*
X5000Y321000D01*
X11000Y321000D01*
X11000Y318000D01*
X11000Y319900D02*
X5000Y319900D01*
X5000Y309000D02*
X11000Y309000D01*
X5000Y309000D02*
X5000Y312000D01*
X11000Y312000D01*
X11000Y309000D01*
X11000Y310900D02*
X5000Y310900D01*
X-5000Y309000D02*
X-11000Y309000D01*
X-11000Y312000D01*
X-5000Y312000D01*
X-5000Y309000D01*
X-5000Y310900D02*
X-11000Y310900D01*
X-11000Y318000D02*
X-5000Y318000D01*
X-11000Y318000D02*
X-11000Y321000D01*
X-5000Y321000D01*
X-5000Y318000D01*
X-5000Y319900D02*
X-11000Y319900D01*
D12*
X-136000Y51000D02*
X-136000Y39000D01*
X-154000Y39000D01*
X-154000Y51000D01*
X-136000Y51000D01*
X-136000Y50400D02*
X-154000Y50400D01*
X-136000Y89000D02*
X-136000Y101000D01*
X-136000Y89000D02*
X-154000Y89000D01*
X-154000Y101000D01*
X-136000Y101000D01*
X-136000Y100400D02*
X-154000Y100400D01*
D13*
X-5485Y37485D02*
X1985Y37485D01*
X1985Y32515D01*
X-5485Y32515D01*
X-5485Y37485D01*
X-5485Y34443D02*
X1985Y34443D01*
X1985Y36371D02*
X-5485Y36371D01*
X-14515Y37485D02*
X-21985Y37485D01*
X-14515Y37485D02*
X-14515Y32515D01*
X-21985Y32515D01*
X-21985Y37485D01*
X-21985Y34443D02*
X-14515Y34443D01*
X-14515Y36371D02*
X-21985Y36371D01*
D10*
X107500Y118500D02*
X107500Y124500D01*
X107500Y118500D02*
X102500Y118500D01*
X102500Y124500D01*
X107500Y124500D01*
X107500Y123250D02*
X102500Y123250D01*
X107500Y135500D02*
X107500Y141500D01*
X107500Y135500D02*
X102500Y135500D01*
X102500Y141500D01*
X107500Y141500D01*
X107500Y140250D02*
X102500Y140250D01*
D14*
X82490Y138490D02*
X82490Y147510D01*
X86510Y147510D01*
X86510Y138490D01*
X82490Y138490D01*
X82490Y140371D02*
X86510Y140371D01*
X86510Y142252D02*
X82490Y142252D01*
X82490Y144133D02*
X86510Y144133D01*
X86510Y146014D02*
X82490Y146014D01*
X72990Y147510D02*
X72990Y138490D01*
X72990Y147510D02*
X77010Y147510D01*
X77010Y138490D01*
X72990Y138490D01*
X72990Y140371D02*
X77010Y140371D01*
X77010Y142252D02*
X72990Y142252D01*
X72990Y144133D02*
X77010Y144133D01*
X77010Y146014D02*
X72990Y146014D01*
X63490Y147510D02*
X63490Y138490D01*
X63490Y147510D02*
X67510Y147510D01*
X67510Y138490D01*
X63490Y138490D01*
X63490Y140371D02*
X67510Y140371D01*
X67510Y142252D02*
X63490Y142252D01*
X63490Y144133D02*
X67510Y144133D01*
X67510Y146014D02*
X63490Y146014D01*
X63490Y121510D02*
X63490Y112490D01*
X63490Y121510D02*
X67510Y121510D01*
X67510Y112490D01*
X63490Y112490D01*
X63490Y114371D02*
X67510Y114371D01*
X67510Y116252D02*
X63490Y116252D01*
X63490Y118133D02*
X67510Y118133D01*
X67510Y120014D02*
X63490Y120014D01*
X82490Y121510D02*
X82490Y112490D01*
X82490Y121510D02*
X86510Y121510D01*
X86510Y112490D01*
X82490Y112490D01*
X82490Y114371D02*
X86510Y114371D01*
X86510Y116252D02*
X82490Y116252D01*
X82490Y118133D02*
X86510Y118133D01*
X86510Y120014D02*
X82490Y120014D01*
D15*
X47495Y82995D02*
X37505Y82995D01*
X47495Y82995D02*
X47495Y82005D01*
X37505Y82005D01*
X37505Y82995D01*
X37505Y87995D02*
X47495Y87995D01*
X47495Y87005D01*
X37505Y87005D01*
X37505Y87995D01*
X37505Y92995D02*
X47495Y92995D01*
X47495Y92005D01*
X37505Y92005D01*
X37505Y92995D01*
X37505Y97995D02*
X47495Y97995D01*
X47495Y97005D01*
X37505Y97005D01*
X37505Y97995D01*
X37505Y102995D02*
X47495Y102995D01*
X47495Y102005D01*
X37505Y102005D01*
X37505Y102995D01*
X37505Y107995D02*
X47495Y107995D01*
X47495Y107005D01*
X37505Y107005D01*
X37505Y107995D01*
X37505Y112995D02*
X47495Y112995D01*
X47495Y112005D01*
X37505Y112005D01*
X37505Y112995D01*
X37505Y117995D02*
X47495Y117995D01*
X47495Y117005D01*
X37505Y117005D01*
X37505Y117995D01*
X37505Y122995D02*
X47495Y122995D01*
X47495Y122005D01*
X37505Y122005D01*
X37505Y122995D01*
X37505Y127995D02*
X47495Y127995D01*
X47495Y127005D01*
X37505Y127005D01*
X37505Y127995D01*
X37505Y132995D02*
X47495Y132995D01*
X47495Y132005D01*
X37505Y132005D01*
X37505Y132995D01*
X37505Y137995D02*
X47495Y137995D01*
X47495Y137005D01*
X37505Y137005D01*
X37505Y137995D01*
X27005Y147505D02*
X27005Y157495D01*
X27995Y157495D01*
X27995Y147505D01*
X27005Y147505D01*
X27005Y149414D02*
X27995Y149414D01*
X27995Y151323D02*
X27005Y151323D01*
X27005Y153232D02*
X27995Y153232D01*
X27995Y155141D02*
X27005Y155141D01*
X27005Y157050D02*
X27995Y157050D01*
X22005Y157495D02*
X22005Y147505D01*
X22005Y157495D02*
X22995Y157495D01*
X22995Y147505D01*
X22005Y147505D01*
X22005Y149414D02*
X22995Y149414D01*
X22995Y151323D02*
X22005Y151323D01*
X22005Y153232D02*
X22995Y153232D01*
X22995Y155141D02*
X22005Y155141D01*
X22005Y157050D02*
X22995Y157050D01*
X17005Y157495D02*
X17005Y147505D01*
X17005Y157495D02*
X17995Y157495D01*
X17995Y147505D01*
X17005Y147505D01*
X17005Y149414D02*
X17995Y149414D01*
X17995Y151323D02*
X17005Y151323D01*
X17005Y153232D02*
X17995Y153232D01*
X17995Y155141D02*
X17005Y155141D01*
X17005Y157050D02*
X17995Y157050D01*
X12005Y157495D02*
X12005Y147505D01*
X12005Y157495D02*
X12995Y157495D01*
X12995Y147505D01*
X12005Y147505D01*
X12005Y149414D02*
X12995Y149414D01*
X12995Y151323D02*
X12005Y151323D01*
X12005Y153232D02*
X12995Y153232D01*
X12995Y155141D02*
X12005Y155141D01*
X12005Y157050D02*
X12995Y157050D01*
X7005Y157495D02*
X7005Y147505D01*
X7005Y157495D02*
X7995Y157495D01*
X7995Y147505D01*
X7005Y147505D01*
X7005Y149414D02*
X7995Y149414D01*
X7995Y151323D02*
X7005Y151323D01*
X7005Y153232D02*
X7995Y153232D01*
X7995Y155141D02*
X7005Y155141D01*
X7005Y157050D02*
X7995Y157050D01*
X2995Y157495D02*
X2995Y147505D01*
X2005Y147505D01*
X2005Y157495D01*
X2995Y157495D01*
X2995Y149414D02*
X2005Y149414D01*
X2005Y151323D02*
X2995Y151323D01*
X2995Y153232D02*
X2005Y153232D01*
X2005Y155141D02*
X2995Y155141D01*
X2995Y157050D02*
X2005Y157050D01*
X-2995Y157495D02*
X-2995Y147505D01*
X-2995Y157495D02*
X-2005Y157495D01*
X-2005Y147505D01*
X-2995Y147505D01*
X-2995Y149414D02*
X-2005Y149414D01*
X-2005Y151323D02*
X-2995Y151323D01*
X-2995Y153232D02*
X-2005Y153232D01*
X-2005Y155141D02*
X-2995Y155141D01*
X-2995Y157050D02*
X-2005Y157050D01*
X-7995Y157495D02*
X-7995Y147505D01*
X-7995Y157495D02*
X-7005Y157495D01*
X-7005Y147505D01*
X-7995Y147505D01*
X-7995Y149414D02*
X-7005Y149414D01*
X-7005Y151323D02*
X-7995Y151323D01*
X-7995Y153232D02*
X-7005Y153232D01*
X-7005Y155141D02*
X-7995Y155141D01*
X-7995Y157050D02*
X-7005Y157050D01*
X-12995Y157495D02*
X-12995Y147505D01*
X-12995Y157495D02*
X-12005Y157495D01*
X-12005Y147505D01*
X-12995Y147505D01*
X-12995Y149414D02*
X-12005Y149414D01*
X-12005Y151323D02*
X-12995Y151323D01*
X-12995Y153232D02*
X-12005Y153232D01*
X-12005Y155141D02*
X-12995Y155141D01*
X-12995Y157050D02*
X-12005Y157050D01*
X-17995Y157495D02*
X-17995Y147505D01*
X-17995Y157495D02*
X-17005Y157495D01*
X-17005Y147505D01*
X-17995Y147505D01*
X-17995Y149414D02*
X-17005Y149414D01*
X-17005Y151323D02*
X-17995Y151323D01*
X-17995Y153232D02*
X-17005Y153232D01*
X-17005Y155141D02*
X-17995Y155141D01*
X-17995Y157050D02*
X-17005Y157050D01*
X-22995Y157495D02*
X-22995Y147505D01*
X-22995Y157495D02*
X-22005Y157495D01*
X-22005Y147505D01*
X-22995Y147505D01*
X-22995Y149414D02*
X-22005Y149414D01*
X-22005Y151323D02*
X-22995Y151323D01*
X-22995Y153232D02*
X-22005Y153232D01*
X-22005Y155141D02*
X-22995Y155141D01*
X-22995Y157050D02*
X-22005Y157050D01*
X-27995Y157495D02*
X-27995Y147505D01*
X-27995Y157495D02*
X-27005Y157495D01*
X-27005Y147505D01*
X-27995Y147505D01*
X-27995Y149414D02*
X-27005Y149414D01*
X-27005Y151323D02*
X-27995Y151323D01*
X-27995Y153232D02*
X-27005Y153232D01*
X-27005Y155141D02*
X-27995Y155141D01*
X-27995Y157050D02*
X-27005Y157050D01*
X-37505Y137995D02*
X-47495Y137995D01*
X-37505Y137995D02*
X-37505Y137005D01*
X-47495Y137005D01*
X-47495Y137995D01*
X-47495Y132995D02*
X-37505Y132995D01*
X-37505Y132005D01*
X-47495Y132005D01*
X-47495Y132995D01*
X-47495Y127995D02*
X-37505Y127995D01*
X-37505Y127005D01*
X-47495Y127005D01*
X-47495Y127995D01*
X-47495Y122995D02*
X-37505Y122995D01*
X-37505Y122005D01*
X-47495Y122005D01*
X-47495Y122995D01*
X-47495Y117995D02*
X-37505Y117995D01*
X-37505Y117005D01*
X-47495Y117005D01*
X-47495Y117995D01*
X-47495Y112995D02*
X-37505Y112995D01*
X-37505Y112005D01*
X-47495Y112005D01*
X-47495Y112995D01*
X-47495Y107995D02*
X-37505Y107995D01*
X-37505Y107005D01*
X-47495Y107005D01*
X-47495Y107995D01*
X-47495Y102995D02*
X-37505Y102995D01*
X-37505Y102005D01*
X-47495Y102005D01*
X-47495Y102995D01*
X-47495Y97995D02*
X-37505Y97995D01*
X-37505Y97005D01*
X-47495Y97005D01*
X-47495Y97995D01*
X-47495Y92995D02*
X-37505Y92995D01*
X-37505Y92005D01*
X-47495Y92005D01*
X-47495Y92995D01*
X-47495Y87995D02*
X-37505Y87995D01*
X-37505Y87005D01*
X-47495Y87005D01*
X-47495Y87995D01*
X-47495Y82995D02*
X-37505Y82995D01*
X-37505Y82005D01*
X-47495Y82005D01*
X-47495Y82995D01*
X-27995Y72495D02*
X-27995Y62505D01*
X-27995Y72495D02*
X-27005Y72495D01*
X-27005Y62505D01*
X-27995Y62505D01*
X-27995Y64414D02*
X-27005Y64414D01*
X-27005Y66323D02*
X-27995Y66323D01*
X-27995Y68232D02*
X-27005Y68232D01*
X-27005Y70141D02*
X-27995Y70141D01*
X-27995Y72050D02*
X-27005Y72050D01*
X-22995Y72495D02*
X-22995Y62505D01*
X-22995Y72495D02*
X-22005Y72495D01*
X-22005Y62505D01*
X-22995Y62505D01*
X-22995Y64414D02*
X-22005Y64414D01*
X-22005Y66323D02*
X-22995Y66323D01*
X-22995Y68232D02*
X-22005Y68232D01*
X-22005Y70141D02*
X-22995Y70141D01*
X-22995Y72050D02*
X-22005Y72050D01*
X-17995Y72495D02*
X-17995Y62505D01*
X-17995Y72495D02*
X-17005Y72495D01*
X-17005Y62505D01*
X-17995Y62505D01*
X-17995Y64414D02*
X-17005Y64414D01*
X-17005Y66323D02*
X-17995Y66323D01*
X-17995Y68232D02*
X-17005Y68232D01*
X-17005Y70141D02*
X-17995Y70141D01*
X-17995Y72050D02*
X-17005Y72050D01*
X-12995Y72495D02*
X-12995Y62505D01*
X-12995Y72495D02*
X-12005Y72495D01*
X-12005Y62505D01*
X-12995Y62505D01*
X-12995Y64414D02*
X-12005Y64414D01*
X-12005Y66323D02*
X-12995Y66323D01*
X-12995Y68232D02*
X-12005Y68232D01*
X-12005Y70141D02*
X-12995Y70141D01*
X-12995Y72050D02*
X-12005Y72050D01*
X-7995Y72495D02*
X-7995Y62505D01*
X-7995Y72495D02*
X-7005Y72495D01*
X-7005Y62505D01*
X-7995Y62505D01*
X-7995Y64414D02*
X-7005Y64414D01*
X-7005Y66323D02*
X-7995Y66323D01*
X-7995Y68232D02*
X-7005Y68232D01*
X-7005Y70141D02*
X-7995Y70141D01*
X-7995Y72050D02*
X-7005Y72050D01*
X-2995Y72495D02*
X-2995Y62505D01*
X-2995Y72495D02*
X-2005Y72495D01*
X-2005Y62505D01*
X-2995Y62505D01*
X-2995Y64414D02*
X-2005Y64414D01*
X-2005Y66323D02*
X-2995Y66323D01*
X-2995Y68232D02*
X-2005Y68232D01*
X-2005Y70141D02*
X-2995Y70141D01*
X-2995Y72050D02*
X-2005Y72050D01*
X2005Y72495D02*
X2005Y62505D01*
X2005Y72495D02*
X2995Y72495D01*
X2995Y62505D01*
X2005Y62505D01*
X2005Y64414D02*
X2995Y64414D01*
X2995Y66323D02*
X2005Y66323D01*
X2005Y68232D02*
X2995Y68232D01*
X2995Y70141D02*
X2005Y70141D01*
X2005Y72050D02*
X2995Y72050D01*
X7005Y72495D02*
X7005Y62505D01*
X7005Y72495D02*
X7995Y72495D01*
X7995Y62505D01*
X7005Y62505D01*
X7005Y64414D02*
X7995Y64414D01*
X7995Y66323D02*
X7005Y66323D01*
X7005Y68232D02*
X7995Y68232D01*
X7995Y70141D02*
X7005Y70141D01*
X7005Y72050D02*
X7995Y72050D01*
X12005Y72495D02*
X12005Y62505D01*
X12005Y72495D02*
X12995Y72495D01*
X12995Y62505D01*
X12005Y62505D01*
X12005Y64414D02*
X12995Y64414D01*
X12995Y66323D02*
X12005Y66323D01*
X12005Y68232D02*
X12995Y68232D01*
X12995Y70141D02*
X12005Y70141D01*
X12005Y72050D02*
X12995Y72050D01*
X17005Y72495D02*
X17005Y62505D01*
X17005Y72495D02*
X17995Y72495D01*
X17995Y62505D01*
X17005Y62505D01*
X17005Y64414D02*
X17995Y64414D01*
X17995Y66323D02*
X17005Y66323D01*
X17005Y68232D02*
X17995Y68232D01*
X17995Y70141D02*
X17005Y70141D01*
X17005Y72050D02*
X17995Y72050D01*
X22005Y72495D02*
X22005Y62505D01*
X22005Y72495D02*
X22995Y72495D01*
X22995Y62505D01*
X22005Y62505D01*
X22005Y64414D02*
X22995Y64414D01*
X22995Y66323D02*
X22005Y66323D01*
X22005Y68232D02*
X22995Y68232D01*
X22995Y70141D02*
X22005Y70141D01*
X22005Y72050D02*
X22995Y72050D01*
X27005Y72495D02*
X27005Y62505D01*
X27005Y72495D02*
X27995Y72495D01*
X27995Y62505D01*
X27005Y62505D01*
X27005Y64414D02*
X27995Y64414D01*
X27995Y66323D02*
X27005Y66323D01*
X27005Y68232D02*
X27995Y68232D01*
X27995Y70141D02*
X27005Y70141D01*
X27005Y72050D02*
X27995Y72050D01*
D16*
X-105500Y171000D02*
X-105500Y179000D01*
X-78500Y179000D01*
X-78500Y171000D01*
X-105500Y171000D01*
X-105500Y178600D02*
X-78500Y178600D01*
X-161500Y179000D02*
X-161500Y171000D01*
X-161500Y179000D02*
X-134500Y179000D01*
X-134500Y171000D01*
X-161500Y171000D01*
X-161500Y178600D02*
X-134500Y178600D01*
D11*
X87000Y75000D02*
X87000Y63000D01*
X79000Y63000D01*
X79000Y75000D01*
X87000Y75000D01*
X87000Y64900D02*
X79000Y64900D01*
X79000Y66800D02*
X87000Y66800D01*
X87000Y68700D02*
X79000Y68700D01*
X79000Y70600D02*
X87000Y70600D01*
X87000Y72500D02*
X79000Y72500D01*
X79000Y74400D02*
X87000Y74400D01*
X87000Y85000D02*
X87000Y97000D01*
X87000Y85000D02*
X79000Y85000D01*
X79000Y97000D01*
X87000Y97000D01*
X87000Y86900D02*
X79000Y86900D01*
X79000Y88800D02*
X87000Y88800D01*
X87000Y90700D02*
X79000Y90700D01*
X79000Y92600D02*
X87000Y92600D01*
X87000Y94500D02*
X79000Y94500D01*
X79000Y96400D02*
X87000Y96400D01*
X71000Y97000D02*
X71000Y85000D01*
X63000Y85000D01*
X63000Y97000D01*
X71000Y97000D01*
X71000Y86900D02*
X63000Y86900D01*
X63000Y88800D02*
X71000Y88800D01*
X71000Y90700D02*
X63000Y90700D01*
X63000Y92600D02*
X71000Y92600D01*
X71000Y94500D02*
X63000Y94500D01*
X63000Y96400D02*
X71000Y96400D01*
X71000Y75000D02*
X71000Y63000D01*
X63000Y63000D01*
X63000Y75000D01*
X71000Y75000D01*
X71000Y64900D02*
X63000Y64900D01*
X63000Y66800D02*
X71000Y66800D01*
X71000Y68700D02*
X63000Y68700D01*
X63000Y70600D02*
X71000Y70600D01*
X71000Y72500D02*
X63000Y72500D01*
X63000Y74400D02*
X71000Y74400D01*
D10*
X107500Y74500D02*
X107500Y68500D01*
X102500Y68500D01*
X102500Y74500D01*
X107500Y74500D01*
X107500Y73250D02*
X102500Y73250D01*
X107500Y85500D02*
X107500Y91500D01*
X107500Y85500D02*
X102500Y85500D01*
X102500Y91500D01*
X107500Y91500D01*
X107500Y90250D02*
X102500Y90250D01*
D14*
X132510Y192490D02*
X132510Y201510D01*
X132510Y192490D02*
X128490Y192490D01*
X128490Y201510D01*
X132510Y201510D01*
X132510Y194371D02*
X128490Y194371D01*
X128490Y196252D02*
X132510Y196252D01*
X132510Y198133D02*
X128490Y198133D01*
X128490Y200014D02*
X132510Y200014D01*
X142010Y201510D02*
X142010Y192490D01*
X137990Y192490D01*
X137990Y201510D01*
X142010Y201510D01*
X142010Y194371D02*
X137990Y194371D01*
X137990Y196252D02*
X142010Y196252D01*
X142010Y198133D02*
X137990Y198133D01*
X137990Y200014D02*
X142010Y200014D01*
X151510Y201510D02*
X151510Y192490D01*
X147490Y192490D01*
X147490Y201510D01*
X151510Y201510D01*
X151510Y194371D02*
X147490Y194371D01*
X147490Y196252D02*
X151510Y196252D01*
X151510Y198133D02*
X147490Y198133D01*
X147490Y200014D02*
X151510Y200014D01*
X151510Y218490D02*
X151510Y227510D01*
X151510Y218490D02*
X147490Y218490D01*
X147490Y227510D01*
X151510Y227510D01*
X151510Y220371D02*
X147490Y220371D01*
X147490Y222252D02*
X151510Y222252D01*
X151510Y224133D02*
X147490Y224133D01*
X147490Y226014D02*
X151510Y226014D01*
X132510Y227510D02*
X132510Y218490D01*
X128490Y218490D01*
X128490Y227510D01*
X132510Y227510D01*
X132510Y220371D02*
X128490Y220371D01*
X128490Y222252D02*
X132510Y222252D01*
X132510Y224133D02*
X128490Y224133D01*
X128490Y226014D02*
X132510Y226014D01*
D17*
X48750Y180750D02*
X41250Y180750D01*
X41250Y189250D01*
X48750Y189250D01*
X48750Y180750D01*
X48750Y187875D02*
X41250Y187875D01*
X81250Y180750D02*
X88750Y180750D01*
X81250Y180750D02*
X81250Y189250D01*
X88750Y189250D01*
X88750Y180750D01*
X88750Y187875D02*
X81250Y187875D01*
D10*
X107500Y200500D02*
X107500Y206500D01*
X112500Y206500D01*
X112500Y200500D01*
X107500Y200500D01*
X107500Y205250D02*
X112500Y205250D01*
X107500Y189500D02*
X107500Y183500D01*
X107500Y189500D02*
X112500Y189500D01*
X112500Y183500D01*
X107500Y183500D01*
X107500Y188250D02*
X112500Y188250D01*
X21500Y187500D02*
X15500Y187500D01*
X21500Y187500D02*
X21500Y182500D01*
X15500Y182500D01*
X15500Y187500D01*
X15500Y187250D02*
X21500Y187250D01*
X4500Y187500D02*
X-1500Y187500D01*
X4500Y187500D02*
X4500Y182500D01*
X-1500Y182500D01*
X-1500Y187500D01*
X-1500Y187250D02*
X4500Y187250D01*
X127500Y253500D02*
X127500Y259500D01*
X127500Y253500D02*
X122500Y253500D01*
X122500Y259500D01*
X127500Y259500D01*
X127500Y258250D02*
X122500Y258250D01*
X127500Y270500D02*
X127500Y276500D01*
X127500Y270500D02*
X122500Y270500D01*
X122500Y276500D01*
X127500Y276500D01*
X127500Y275250D02*
X122500Y275250D01*
X128500Y172500D02*
X134500Y172500D01*
X128500Y172500D02*
X128500Y177500D01*
X134500Y177500D01*
X134500Y172500D01*
X134500Y177250D02*
X128500Y177250D01*
X145500Y172500D02*
X151500Y172500D01*
X145500Y172500D02*
X145500Y177500D01*
X151500Y177500D01*
X151500Y172500D01*
X151500Y177250D02*
X145500Y177250D01*
M02*
