G04 EAGLE Gerber RS-274X export*
G75*
%MOMM*%
%FSLAX34Y34*%
%LPD*%
%INSolderpaste Bottom*%
%IPPOS*%
%AMOC8*
5,1,8,0,0,1.08239X$1,22.5*%
G01*
%ADD10C,0.500000*%
%ADD11C,0.200000*%
%ADD12C,0.201000*%
%ADD13C,0.198000*%


D10*
X107500Y124500D02*
X107500Y118500D01*
X102500Y118500D01*
X102500Y124500D01*
X107500Y124500D01*
X107500Y123250D02*
X102500Y123250D01*
X107500Y135500D02*
X107500Y141500D01*
X107500Y135500D02*
X102500Y135500D01*
X102500Y141500D01*
X107500Y141500D01*
X107500Y140250D02*
X102500Y140250D01*
X-2500Y320500D02*
X-2500Y326500D01*
X2500Y326500D01*
X2500Y320500D01*
X-2500Y320500D01*
X-2500Y325250D02*
X2500Y325250D01*
X-2500Y309500D02*
X-2500Y303500D01*
X-2500Y309500D02*
X2500Y309500D01*
X2500Y303500D01*
X-2500Y303500D01*
X-2500Y308250D02*
X2500Y308250D01*
X23500Y302500D02*
X29500Y302500D01*
X23500Y302500D02*
X23500Y307500D01*
X29500Y307500D01*
X29500Y302500D01*
X29500Y307250D02*
X23500Y307250D01*
X40500Y302500D02*
X46500Y302500D01*
X40500Y302500D02*
X40500Y307500D01*
X46500Y307500D01*
X46500Y302500D01*
X46500Y307250D02*
X40500Y307250D01*
X-23500Y312500D02*
X-29500Y312500D01*
X-23500Y312500D02*
X-23500Y307500D01*
X-29500Y307500D01*
X-29500Y312500D01*
X-29500Y312250D02*
X-23500Y312250D01*
X-40500Y312500D02*
X-46500Y312500D01*
X-40500Y312500D02*
X-40500Y307500D01*
X-46500Y307500D01*
X-46500Y312500D01*
X-46500Y312250D02*
X-40500Y312250D01*
X-11500Y37500D02*
X-5500Y37500D01*
X-11500Y37500D02*
X-11500Y42500D01*
X-5500Y42500D01*
X-5500Y37500D01*
X-5500Y42250D02*
X-11500Y42250D01*
X5500Y37500D02*
X11500Y37500D01*
X5500Y37500D02*
X5500Y42500D01*
X11500Y42500D01*
X11500Y37500D01*
X11500Y42250D02*
X5500Y42250D01*
D11*
X24750Y45500D02*
X25250Y45500D01*
X25250Y42500D01*
X24750Y42500D01*
X24750Y45500D01*
X24750Y44400D02*
X25250Y44400D01*
X29750Y45500D02*
X30250Y45500D01*
X30250Y42500D01*
X29750Y42500D01*
X29750Y45500D01*
X29750Y44400D02*
X30250Y44400D01*
X34750Y45500D02*
X35250Y45500D01*
X35250Y42500D01*
X34750Y42500D01*
X34750Y45500D01*
X34750Y44400D02*
X35250Y44400D01*
X39750Y45500D02*
X40250Y45500D01*
X40250Y42500D01*
X39750Y42500D01*
X39750Y45500D01*
X39750Y44400D02*
X40250Y44400D01*
X44750Y45500D02*
X45250Y45500D01*
X45250Y42500D01*
X44750Y42500D01*
X44750Y45500D01*
X44750Y44400D02*
X45250Y44400D01*
X45250Y37500D02*
X44750Y37500D01*
X45250Y37500D02*
X45250Y34500D01*
X44750Y34500D01*
X44750Y37500D01*
X44750Y36400D02*
X45250Y36400D01*
X40250Y37500D02*
X39750Y37500D01*
X40250Y37500D02*
X40250Y34500D01*
X39750Y34500D01*
X39750Y37500D01*
X39750Y36400D02*
X40250Y36400D01*
X35250Y37500D02*
X34750Y37500D01*
X35250Y37500D02*
X35250Y34500D01*
X34750Y34500D01*
X34750Y37500D01*
X34750Y36400D02*
X35250Y36400D01*
X30250Y37500D02*
X29750Y37500D01*
X30250Y37500D02*
X30250Y34500D01*
X29750Y34500D01*
X29750Y37500D01*
X29750Y36400D02*
X30250Y36400D01*
X25250Y37500D02*
X24750Y37500D01*
X25250Y37500D02*
X25250Y34500D01*
X24750Y34500D01*
X24750Y37500D01*
X24750Y36400D02*
X25250Y36400D01*
X89750Y34500D02*
X90250Y34500D01*
X89750Y34500D02*
X89750Y37500D01*
X90250Y37500D01*
X90250Y34500D01*
X90250Y36400D02*
X89750Y36400D01*
X85250Y34500D02*
X84750Y34500D01*
X84750Y37500D01*
X85250Y37500D01*
X85250Y34500D01*
X85250Y36400D02*
X84750Y36400D01*
X80250Y34500D02*
X79750Y34500D01*
X79750Y37500D01*
X80250Y37500D01*
X80250Y34500D01*
X80250Y36400D02*
X79750Y36400D01*
X75250Y34500D02*
X74750Y34500D01*
X74750Y37500D01*
X75250Y37500D01*
X75250Y34500D01*
X75250Y36400D02*
X74750Y36400D01*
X70250Y34500D02*
X69750Y34500D01*
X69750Y37500D01*
X70250Y37500D01*
X70250Y34500D01*
X70250Y36400D02*
X69750Y36400D01*
X69750Y42500D02*
X70250Y42500D01*
X69750Y42500D02*
X69750Y45500D01*
X70250Y45500D01*
X70250Y42500D01*
X70250Y44400D02*
X69750Y44400D01*
X74750Y42500D02*
X75250Y42500D01*
X74750Y42500D02*
X74750Y45500D01*
X75250Y45500D01*
X75250Y42500D01*
X75250Y44400D02*
X74750Y44400D01*
X79750Y42500D02*
X80250Y42500D01*
X79750Y42500D02*
X79750Y45500D01*
X80250Y45500D01*
X80250Y42500D01*
X80250Y44400D02*
X79750Y44400D01*
X84750Y42500D02*
X85250Y42500D01*
X84750Y42500D02*
X84750Y45500D01*
X85250Y45500D01*
X85250Y42500D01*
X85250Y44400D02*
X84750Y44400D01*
X89750Y42500D02*
X90250Y42500D01*
X89750Y42500D02*
X89750Y45500D01*
X90250Y45500D01*
X90250Y42500D01*
X90250Y44400D02*
X89750Y44400D01*
D10*
X26500Y67500D02*
X20500Y67500D01*
X26500Y67500D02*
X26500Y62500D01*
X20500Y62500D01*
X20500Y67500D01*
X20500Y67250D02*
X26500Y67250D01*
X9500Y67500D02*
X3500Y67500D01*
X9500Y67500D02*
X9500Y62500D01*
X3500Y62500D01*
X3500Y67500D01*
X3500Y67250D02*
X9500Y67250D01*
X-52500Y73500D02*
X-52500Y79500D01*
X-52500Y73500D02*
X-57500Y73500D01*
X-57500Y79500D01*
X-52500Y79500D01*
X-52500Y78250D02*
X-57500Y78250D01*
X-52500Y90500D02*
X-52500Y96500D01*
X-52500Y90500D02*
X-57500Y90500D01*
X-57500Y96500D01*
X-52500Y96500D01*
X-52500Y95250D02*
X-57500Y95250D01*
X-22500Y150500D02*
X-22500Y156500D01*
X-17500Y156500D01*
X-17500Y150500D01*
X-22500Y150500D01*
X-22500Y155250D02*
X-17500Y155250D01*
X-22500Y139500D02*
X-22500Y133500D01*
X-22500Y139500D02*
X-17500Y139500D01*
X-17500Y133500D01*
X-22500Y133500D01*
X-22500Y138250D02*
X-17500Y138250D01*
X32500Y131500D02*
X32500Y125500D01*
X32500Y131500D02*
X37500Y131500D01*
X37500Y125500D01*
X32500Y125500D01*
X32500Y130250D02*
X37500Y130250D01*
X32500Y114500D02*
X32500Y108500D01*
X32500Y114500D02*
X37500Y114500D01*
X37500Y108500D01*
X32500Y108500D01*
X32500Y113250D02*
X37500Y113250D01*
D11*
X44750Y225500D02*
X45250Y225500D01*
X45250Y222500D01*
X44750Y222500D01*
X44750Y225500D01*
X44750Y224400D02*
X45250Y224400D01*
X49750Y225500D02*
X50250Y225500D01*
X50250Y222500D01*
X49750Y222500D01*
X49750Y225500D01*
X49750Y224400D02*
X50250Y224400D01*
X54750Y225500D02*
X55250Y225500D01*
X55250Y222500D01*
X54750Y222500D01*
X54750Y225500D01*
X54750Y224400D02*
X55250Y224400D01*
X59750Y225500D02*
X60250Y225500D01*
X60250Y222500D01*
X59750Y222500D01*
X59750Y225500D01*
X59750Y224400D02*
X60250Y224400D01*
X64750Y225500D02*
X65250Y225500D01*
X65250Y222500D01*
X64750Y222500D01*
X64750Y225500D01*
X64750Y224400D02*
X65250Y224400D01*
X65250Y217500D02*
X64750Y217500D01*
X65250Y217500D02*
X65250Y214500D01*
X64750Y214500D01*
X64750Y217500D01*
X64750Y216400D02*
X65250Y216400D01*
X60250Y217500D02*
X59750Y217500D01*
X60250Y217500D02*
X60250Y214500D01*
X59750Y214500D01*
X59750Y217500D01*
X59750Y216400D02*
X60250Y216400D01*
X55250Y217500D02*
X54750Y217500D01*
X55250Y217500D02*
X55250Y214500D01*
X54750Y214500D01*
X54750Y217500D01*
X54750Y216400D02*
X55250Y216400D01*
X50250Y217500D02*
X49750Y217500D01*
X50250Y217500D02*
X50250Y214500D01*
X49750Y214500D01*
X49750Y217500D01*
X49750Y216400D02*
X50250Y216400D01*
X45250Y217500D02*
X44750Y217500D01*
X45250Y217500D02*
X45250Y214500D01*
X44750Y214500D01*
X44750Y217500D01*
X44750Y216400D02*
X45250Y216400D01*
X-14750Y214500D02*
X-15250Y214500D01*
X-15250Y217500D01*
X-14750Y217500D01*
X-14750Y214500D01*
X-14750Y216400D02*
X-15250Y216400D01*
X-19750Y214500D02*
X-20250Y214500D01*
X-20250Y217500D01*
X-19750Y217500D01*
X-19750Y214500D01*
X-19750Y216400D02*
X-20250Y216400D01*
X-24750Y214500D02*
X-25250Y214500D01*
X-25250Y217500D01*
X-24750Y217500D01*
X-24750Y214500D01*
X-24750Y216400D02*
X-25250Y216400D01*
X-29750Y214500D02*
X-30250Y214500D01*
X-30250Y217500D01*
X-29750Y217500D01*
X-29750Y214500D01*
X-29750Y216400D02*
X-30250Y216400D01*
X-34750Y214500D02*
X-35250Y214500D01*
X-35250Y217500D01*
X-34750Y217500D01*
X-34750Y214500D01*
X-34750Y216400D02*
X-35250Y216400D01*
X-35250Y222500D02*
X-34750Y222500D01*
X-35250Y222500D02*
X-35250Y225500D01*
X-34750Y225500D01*
X-34750Y222500D01*
X-34750Y224400D02*
X-35250Y224400D01*
X-30250Y222500D02*
X-29750Y222500D01*
X-30250Y222500D02*
X-30250Y225500D01*
X-29750Y225500D01*
X-29750Y222500D01*
X-29750Y224400D02*
X-30250Y224400D01*
X-25250Y222500D02*
X-24750Y222500D01*
X-25250Y222500D02*
X-25250Y225500D01*
X-24750Y225500D01*
X-24750Y222500D01*
X-24750Y224400D02*
X-25250Y224400D01*
X-20250Y222500D02*
X-19750Y222500D01*
X-20250Y222500D02*
X-20250Y225500D01*
X-19750Y225500D01*
X-19750Y222500D01*
X-19750Y224400D02*
X-20250Y224400D01*
X-15250Y222500D02*
X-14750Y222500D01*
X-15250Y222500D02*
X-15250Y225500D01*
X-14750Y225500D01*
X-14750Y222500D01*
X-14750Y224400D02*
X-15250Y224400D01*
D10*
X-2500Y89500D02*
X-2500Y83500D01*
X-7500Y83500D01*
X-7500Y89500D01*
X-2500Y89500D01*
X-2500Y88250D02*
X-7500Y88250D01*
X-2500Y100500D02*
X-2500Y106500D01*
X-2500Y100500D02*
X-7500Y100500D01*
X-7500Y106500D01*
X-2500Y106500D01*
X-2500Y105250D02*
X-7500Y105250D01*
X12500Y110500D02*
X12500Y116500D01*
X17500Y116500D01*
X17500Y110500D01*
X12500Y110500D01*
X12500Y115250D02*
X17500Y115250D01*
X12500Y99500D02*
X12500Y93500D01*
X12500Y99500D02*
X17500Y99500D01*
X17500Y93500D01*
X12500Y93500D01*
X12500Y98250D02*
X17500Y98250D01*
D12*
X65495Y180255D02*
X65495Y184945D01*
X65495Y180255D02*
X64505Y180255D01*
X64505Y184945D01*
X65495Y184945D01*
X65495Y182164D02*
X64505Y182164D01*
X64505Y184073D02*
X65495Y184073D01*
X60495Y184945D02*
X60495Y180255D01*
X59505Y180255D01*
X59505Y184945D01*
X60495Y184945D01*
X60495Y182164D02*
X59505Y182164D01*
X59505Y184073D02*
X60495Y184073D01*
X55495Y184945D02*
X55495Y180255D01*
X54505Y180255D01*
X54505Y184945D01*
X55495Y184945D01*
X55495Y182164D02*
X54505Y182164D01*
X54505Y184073D02*
X55495Y184073D01*
X55495Y195055D02*
X55495Y199745D01*
X55495Y195055D02*
X54505Y195055D01*
X54505Y199745D01*
X55495Y199745D01*
X55495Y196964D02*
X54505Y196964D01*
X54505Y198873D02*
X55495Y198873D01*
X60495Y199745D02*
X60495Y195055D01*
X59505Y195055D01*
X59505Y199745D01*
X60495Y199745D01*
X60495Y196964D02*
X59505Y196964D01*
X59505Y198873D02*
X60495Y198873D01*
X65495Y199745D02*
X65495Y195055D01*
X64505Y195055D01*
X64505Y199745D01*
X65495Y199745D01*
X65495Y196964D02*
X64505Y196964D01*
X64505Y198873D02*
X65495Y198873D01*
X-24505Y184945D02*
X-24505Y180255D01*
X-25495Y180255D01*
X-25495Y184945D01*
X-24505Y184945D01*
X-24505Y182164D02*
X-25495Y182164D01*
X-25495Y184073D02*
X-24505Y184073D01*
X-29505Y184945D02*
X-29505Y180255D01*
X-30495Y180255D01*
X-30495Y184945D01*
X-29505Y184945D01*
X-29505Y182164D02*
X-30495Y182164D01*
X-30495Y184073D02*
X-29505Y184073D01*
X-34505Y184945D02*
X-34505Y180255D01*
X-35495Y180255D01*
X-35495Y184945D01*
X-34505Y184945D01*
X-34505Y182164D02*
X-35495Y182164D01*
X-35495Y184073D02*
X-34505Y184073D01*
X-34505Y195055D02*
X-34505Y199745D01*
X-34505Y195055D02*
X-35495Y195055D01*
X-35495Y199745D01*
X-34505Y199745D01*
X-34505Y196964D02*
X-35495Y196964D01*
X-35495Y198873D02*
X-34505Y198873D01*
X-29505Y199745D02*
X-29505Y195055D01*
X-30495Y195055D01*
X-30495Y199745D01*
X-29505Y199745D01*
X-29505Y196964D02*
X-30495Y196964D01*
X-30495Y198873D02*
X-29505Y198873D01*
X-24505Y199745D02*
X-24505Y195055D01*
X-25495Y195055D01*
X-25495Y199745D01*
X-24505Y199745D01*
X-24505Y196964D02*
X-25495Y196964D01*
X-25495Y198873D02*
X-24505Y198873D01*
D10*
X77500Y196500D02*
X77500Y190500D01*
X77500Y196500D02*
X82500Y196500D01*
X82500Y190500D01*
X77500Y190500D01*
X77500Y195250D02*
X82500Y195250D01*
X77500Y179500D02*
X77500Y173500D01*
X77500Y179500D02*
X82500Y179500D01*
X82500Y173500D01*
X77500Y173500D01*
X77500Y178250D02*
X82500Y178250D01*
X-52500Y195500D02*
X-52500Y201500D01*
X-47500Y201500D01*
X-47500Y195500D01*
X-52500Y195500D01*
X-52500Y200250D02*
X-47500Y200250D01*
X-52500Y184500D02*
X-52500Y178500D01*
X-52500Y184500D02*
X-47500Y184500D01*
X-47500Y178500D01*
X-52500Y178500D01*
X-52500Y183250D02*
X-47500Y183250D01*
D13*
X-2510Y193490D02*
X6510Y193490D01*
X-2510Y193490D02*
X-2510Y197510D01*
X6510Y197510D01*
X6510Y193490D01*
X6510Y195371D02*
X-2510Y195371D01*
X-2510Y197252D02*
X6510Y197252D01*
X6510Y212490D02*
X-2510Y212490D01*
X-2510Y216510D01*
X6510Y216510D01*
X6510Y212490D01*
X6510Y214371D02*
X-2510Y214371D01*
X-2510Y216252D02*
X6510Y216252D01*
X23490Y202990D02*
X32510Y202990D01*
X23490Y202990D02*
X23490Y207010D01*
X32510Y207010D01*
X32510Y202990D01*
X32510Y204871D02*
X23490Y204871D01*
X23490Y206752D02*
X32510Y206752D01*
X98490Y203490D02*
X98490Y212510D01*
X102510Y212510D01*
X102510Y203490D01*
X98490Y203490D01*
X98490Y205371D02*
X102510Y205371D01*
X102510Y207252D02*
X98490Y207252D01*
X98490Y209133D02*
X102510Y209133D01*
X102510Y211014D02*
X98490Y211014D01*
X107990Y212510D02*
X107990Y203490D01*
X107990Y212510D02*
X112010Y212510D01*
X112010Y203490D01*
X107990Y203490D01*
X107990Y205371D02*
X112010Y205371D01*
X112010Y207252D02*
X107990Y207252D01*
X107990Y209133D02*
X112010Y209133D01*
X112010Y211014D02*
X107990Y211014D01*
X117490Y212510D02*
X117490Y203490D01*
X117490Y212510D02*
X121510Y212510D01*
X121510Y203490D01*
X117490Y203490D01*
X117490Y205371D02*
X121510Y205371D01*
X121510Y207252D02*
X117490Y207252D01*
X117490Y209133D02*
X121510Y209133D01*
X121510Y211014D02*
X117490Y211014D01*
X117490Y186510D02*
X117490Y177490D01*
X117490Y186510D02*
X121510Y186510D01*
X121510Y177490D01*
X117490Y177490D01*
X117490Y179371D02*
X121510Y179371D01*
X121510Y181252D02*
X117490Y181252D01*
X117490Y183133D02*
X121510Y183133D01*
X121510Y185014D02*
X117490Y185014D01*
X98490Y186510D02*
X98490Y177490D01*
X98490Y186510D02*
X102510Y186510D01*
X102510Y177490D01*
X98490Y177490D01*
X98490Y179371D02*
X102510Y179371D01*
X102510Y181252D02*
X98490Y181252D01*
X98490Y183133D02*
X102510Y183133D01*
X102510Y185014D02*
X98490Y185014D01*
D10*
X115500Y162500D02*
X121500Y162500D01*
X121500Y157500D01*
X115500Y157500D01*
X115500Y162500D01*
X115500Y162250D02*
X121500Y162250D01*
X104500Y162500D02*
X98500Y162500D01*
X104500Y162500D02*
X104500Y157500D01*
X98500Y157500D01*
X98500Y162500D01*
X98500Y162250D02*
X104500Y162250D01*
M02*
