G04 EAGLE Gerber RS-274X export*
G75*
%MOMM*%
%FSLAX34Y34*%
%LPD*%
%INCopper Layer 15*%
%IPPOS*%
%AMOC8*
5,1,8,0,0,1.08239X$1,22.5*%
G01*
%ADD10C,1.705100*%
%ADD11C,1.650000*%
%ADD12C,0.400000*%
%ADD13C,0.609600*%
%ADD14C,0.254000*%
%ADD15C,0.250000*%

G36*
X171848Y28746D02*
X171848Y28746D01*
X171967Y28753D01*
X172005Y28766D01*
X172046Y28771D01*
X172156Y28814D01*
X172269Y28851D01*
X172304Y28873D01*
X172341Y28888D01*
X172437Y28958D01*
X172538Y29021D01*
X172566Y29051D01*
X172599Y29074D01*
X172675Y29166D01*
X172756Y29253D01*
X172776Y29288D01*
X172801Y29319D01*
X172852Y29427D01*
X172910Y29531D01*
X172920Y29571D01*
X172937Y29607D01*
X172959Y29724D01*
X172989Y29839D01*
X172993Y29900D01*
X172997Y29920D01*
X172995Y29940D01*
X172999Y30000D01*
X172999Y180000D01*
X172984Y180118D01*
X172977Y180237D01*
X172964Y180275D01*
X172959Y180316D01*
X172916Y180426D01*
X172879Y180539D01*
X172857Y180574D01*
X172842Y180611D01*
X172773Y180707D01*
X172709Y180808D01*
X172679Y180836D01*
X172656Y180869D01*
X172564Y180944D01*
X172477Y181026D01*
X172442Y181046D01*
X172411Y181071D01*
X172303Y181122D01*
X172199Y181180D01*
X172159Y181190D01*
X172123Y181207D01*
X172006Y181229D01*
X171891Y181259D01*
X171831Y181263D01*
X171811Y181267D01*
X171790Y181265D01*
X171730Y181269D01*
X162529Y181269D01*
X162431Y181257D01*
X162332Y181254D01*
X162273Y181237D01*
X162213Y181229D01*
X162121Y181193D01*
X162026Y181165D01*
X161974Y181135D01*
X161918Y181112D01*
X161838Y181054D01*
X161752Y181004D01*
X161677Y180938D01*
X161660Y180926D01*
X161653Y180916D01*
X161631Y180897D01*
X145092Y164358D01*
X145080Y164342D01*
X145008Y164265D01*
X144400Y163524D01*
X144343Y163434D01*
X144279Y163349D01*
X144242Y163273D01*
X144230Y163255D01*
X144225Y163240D01*
X144208Y163205D01*
X143477Y161440D01*
X143449Y161338D01*
X143413Y161238D01*
X143399Y161155D01*
X143393Y161134D01*
X143393Y161118D01*
X143387Y161079D01*
X143293Y160124D01*
X143293Y160105D01*
X143287Y160000D01*
X143287Y156161D01*
X140731Y149991D01*
X136009Y145269D01*
X129839Y142713D01*
X122505Y142713D01*
X122407Y142701D01*
X122308Y142698D01*
X122250Y142681D01*
X122190Y142673D01*
X122098Y142637D01*
X122003Y142609D01*
X121950Y142579D01*
X121894Y142556D01*
X121814Y142498D01*
X121729Y142448D01*
X121653Y142382D01*
X121637Y142370D01*
X121629Y142360D01*
X121608Y142342D01*
X121250Y141983D01*
X118750Y141983D01*
X116983Y143750D01*
X116983Y146250D01*
X118750Y148017D01*
X120714Y148017D01*
X120832Y148032D01*
X120951Y148039D01*
X120989Y148052D01*
X121030Y148057D01*
X121140Y148100D01*
X121253Y148137D01*
X121288Y148159D01*
X121325Y148174D01*
X121421Y148243D01*
X121522Y148307D01*
X121550Y148337D01*
X121583Y148360D01*
X121659Y148452D01*
X121740Y148539D01*
X121760Y148574D01*
X121785Y148605D01*
X121836Y148713D01*
X121894Y148817D01*
X121904Y148857D01*
X121921Y148893D01*
X121943Y149010D01*
X121973Y149125D01*
X121977Y149185D01*
X121981Y149205D01*
X121980Y149223D01*
X121981Y149229D01*
X121980Y149237D01*
X121983Y149286D01*
X121983Y150714D01*
X121968Y150832D01*
X121961Y150951D01*
X121948Y150989D01*
X121943Y151030D01*
X121900Y151140D01*
X121863Y151253D01*
X121841Y151288D01*
X121826Y151325D01*
X121757Y151421D01*
X121693Y151522D01*
X121663Y151550D01*
X121640Y151583D01*
X121548Y151659D01*
X121461Y151740D01*
X121426Y151760D01*
X121395Y151785D01*
X121287Y151836D01*
X121183Y151894D01*
X121143Y151904D01*
X121107Y151921D01*
X120990Y151943D01*
X120875Y151973D01*
X120815Y151977D01*
X120795Y151981D01*
X120774Y151979D01*
X120714Y151983D01*
X118750Y151983D01*
X116983Y153750D01*
X116983Y155685D01*
X116966Y155823D01*
X116964Y155841D01*
X116961Y155893D01*
X116959Y155900D01*
X116953Y155961D01*
X116946Y155981D01*
X116943Y156001D01*
X116892Y156130D01*
X116845Y156261D01*
X116834Y156278D01*
X116826Y156296D01*
X116745Y156409D01*
X116667Y156524D01*
X116651Y156537D01*
X116640Y156554D01*
X116533Y156642D01*
X116428Y156734D01*
X116410Y156744D01*
X116395Y156756D01*
X116269Y156816D01*
X116145Y156879D01*
X116125Y156883D01*
X116107Y156892D01*
X115971Y156918D01*
X115835Y156949D01*
X115814Y156948D01*
X115795Y156952D01*
X115656Y156943D01*
X115517Y156939D01*
X115497Y156933D01*
X115477Y156932D01*
X115345Y156889D01*
X115211Y156851D01*
X115194Y156840D01*
X115175Y156834D01*
X115057Y156760D01*
X114937Y156689D01*
X114916Y156670D01*
X114906Y156664D01*
X114892Y156649D01*
X114817Y156583D01*
X114735Y156501D01*
X114661Y156428D01*
X114661Y156427D01*
X95888Y137655D01*
X95828Y137576D01*
X95760Y137504D01*
X95731Y137451D01*
X95694Y137403D01*
X95654Y137312D01*
X95606Y137226D01*
X95591Y137167D01*
X95567Y137111D01*
X95552Y137013D01*
X95527Y136918D01*
X95521Y136818D01*
X95517Y136797D01*
X95519Y136785D01*
X95517Y136757D01*
X95517Y136250D01*
X93750Y134483D01*
X91250Y134483D01*
X89483Y136250D01*
X89483Y138750D01*
X91250Y140517D01*
X91757Y140517D01*
X91855Y140529D01*
X91954Y140532D01*
X92012Y140549D01*
X92073Y140557D01*
X92165Y140593D01*
X92260Y140621D01*
X92312Y140651D01*
X92368Y140674D01*
X92448Y140732D01*
X92534Y140782D01*
X92609Y140848D01*
X92626Y140860D01*
X92633Y140870D01*
X92655Y140888D01*
X111427Y159661D01*
X111501Y159735D01*
X113470Y161703D01*
X116085Y162787D01*
X117500Y162787D01*
X117520Y162789D01*
X117521Y162789D01*
X117531Y162788D01*
X117545Y162790D01*
X117624Y162793D01*
X117637Y162794D01*
X117735Y162816D01*
X117816Y162827D01*
X117822Y162829D01*
X117846Y162832D01*
X117915Y162856D01*
X117919Y162857D01*
X117925Y162859D01*
X117926Y162860D01*
X117947Y162864D01*
X117961Y162872D01*
X117998Y162884D01*
X118022Y162894D01*
X118048Y162909D01*
X118049Y162909D01*
X118056Y162914D01*
X118102Y162940D01*
X118111Y162944D01*
X118118Y162949D01*
X118208Y162990D01*
X118279Y163041D01*
X118298Y163052D01*
X118309Y163062D01*
X118314Y163066D01*
X118323Y163071D01*
X118329Y163077D01*
X118339Y163084D01*
X118349Y163092D01*
X118362Y163106D01*
X118444Y163177D01*
X120083Y164817D01*
X120168Y164926D01*
X120256Y165033D01*
X120265Y165052D01*
X120278Y165068D01*
X120333Y165196D01*
X120392Y165321D01*
X120396Y165341D01*
X120404Y165360D01*
X120426Y165498D01*
X120452Y165634D01*
X120451Y165654D01*
X120454Y165674D01*
X120441Y165813D01*
X120432Y165951D01*
X120426Y165970D01*
X120424Y165990D01*
X120377Y166122D01*
X120334Y166253D01*
X120323Y166271D01*
X120316Y166290D01*
X120238Y166405D01*
X120164Y166522D01*
X120149Y166536D01*
X120138Y166553D01*
X120034Y166645D01*
X119932Y166740D01*
X119914Y166750D01*
X119899Y166763D01*
X119776Y166826D01*
X119654Y166894D01*
X119634Y166899D01*
X119616Y166908D01*
X119480Y166938D01*
X119346Y166973D01*
X119318Y166975D01*
X119306Y166978D01*
X119285Y166977D01*
X119185Y166983D01*
X118750Y166983D01*
X116983Y168750D01*
X116983Y171250D01*
X118750Y173017D01*
X119257Y173017D01*
X119355Y173029D01*
X119454Y173032D01*
X119513Y173049D01*
X119573Y173057D01*
X119665Y173093D01*
X119760Y173121D01*
X119812Y173151D01*
X119868Y173174D01*
X119948Y173232D01*
X120034Y173282D01*
X120109Y173348D01*
X120126Y173360D01*
X120133Y173370D01*
X120155Y173388D01*
X125869Y179103D01*
X125954Y179212D01*
X126042Y179319D01*
X126051Y179338D01*
X126064Y179354D01*
X126119Y179482D01*
X126178Y179607D01*
X126182Y179627D01*
X126190Y179646D01*
X126212Y179784D01*
X126238Y179920D01*
X126237Y179940D01*
X126240Y179960D01*
X126227Y180099D01*
X126218Y180237D01*
X126212Y180256D01*
X126210Y180276D01*
X126163Y180408D01*
X126120Y180539D01*
X126109Y180557D01*
X126102Y180576D01*
X126024Y180691D01*
X125950Y180808D01*
X125935Y180822D01*
X125924Y180839D01*
X125820Y180931D01*
X125718Y181026D01*
X125700Y181036D01*
X125685Y181049D01*
X125562Y181112D01*
X125440Y181180D01*
X125420Y181185D01*
X125402Y181194D01*
X125266Y181224D01*
X125132Y181259D01*
X125104Y181261D01*
X125092Y181264D01*
X125071Y181263D01*
X124971Y181269D01*
X119286Y181269D01*
X119168Y181254D01*
X119049Y181247D01*
X119011Y181234D01*
X118970Y181229D01*
X118860Y181186D01*
X118747Y181149D01*
X118712Y181127D01*
X118675Y181112D01*
X118579Y181043D01*
X118478Y180979D01*
X118450Y180949D01*
X118417Y180926D01*
X118341Y180834D01*
X118260Y180747D01*
X118240Y180712D01*
X118215Y180681D01*
X118164Y180573D01*
X118106Y180469D01*
X118096Y180429D01*
X118079Y180393D01*
X118057Y180276D01*
X118027Y180161D01*
X118023Y180101D01*
X118019Y180081D01*
X118021Y180060D01*
X118017Y180000D01*
X118017Y178750D01*
X116250Y176983D01*
X113750Y176983D01*
X111983Y178750D01*
X111983Y180000D01*
X111968Y180118D01*
X111961Y180237D01*
X111948Y180275D01*
X111943Y180316D01*
X111900Y180426D01*
X111863Y180539D01*
X111841Y180574D01*
X111826Y180611D01*
X111757Y180707D01*
X111693Y180808D01*
X111663Y180836D01*
X111640Y180869D01*
X111548Y180945D01*
X111461Y181026D01*
X111426Y181046D01*
X111395Y181071D01*
X111287Y181122D01*
X111183Y181180D01*
X111143Y181190D01*
X111107Y181207D01*
X110990Y181229D01*
X110875Y181259D01*
X110815Y181263D01*
X110795Y181267D01*
X110774Y181265D01*
X110714Y181269D01*
X109286Y181269D01*
X109168Y181254D01*
X109049Y181247D01*
X109011Y181234D01*
X108970Y181229D01*
X108860Y181186D01*
X108747Y181149D01*
X108712Y181127D01*
X108675Y181112D01*
X108579Y181043D01*
X108478Y180979D01*
X108450Y180949D01*
X108417Y180926D01*
X108341Y180834D01*
X108260Y180747D01*
X108240Y180712D01*
X108215Y180681D01*
X108164Y180573D01*
X108106Y180469D01*
X108096Y180429D01*
X108079Y180393D01*
X108057Y180276D01*
X108027Y180161D01*
X108023Y180101D01*
X108019Y180081D01*
X108021Y180060D01*
X108017Y180000D01*
X108017Y178750D01*
X106250Y176983D01*
X104286Y176983D01*
X104168Y176968D01*
X104049Y176961D01*
X104011Y176948D01*
X103970Y176943D01*
X103860Y176900D01*
X103747Y176863D01*
X103712Y176841D01*
X103675Y176826D01*
X103579Y176757D01*
X103478Y176693D01*
X103450Y176663D01*
X103417Y176640D01*
X103341Y176548D01*
X103260Y176461D01*
X103240Y176426D01*
X103215Y176395D01*
X103164Y176287D01*
X103106Y176183D01*
X103096Y176143D01*
X103079Y176107D01*
X103057Y175990D01*
X103027Y175875D01*
X103023Y175815D01*
X103019Y175795D01*
X103021Y175774D01*
X103017Y175714D01*
X103017Y173750D01*
X101250Y171983D01*
X98750Y171983D01*
X96983Y173750D01*
X96983Y175714D01*
X96968Y175832D01*
X96961Y175951D01*
X96948Y175989D01*
X96943Y176030D01*
X96900Y176140D01*
X96863Y176253D01*
X96841Y176288D01*
X96826Y176325D01*
X96757Y176421D01*
X96693Y176522D01*
X96663Y176550D01*
X96640Y176583D01*
X96548Y176659D01*
X96461Y176740D01*
X96426Y176760D01*
X96395Y176785D01*
X96287Y176836D01*
X96183Y176894D01*
X96143Y176904D01*
X96107Y176921D01*
X95990Y176943D01*
X95875Y176973D01*
X95815Y176977D01*
X95795Y176981D01*
X95774Y176979D01*
X95714Y176983D01*
X93750Y176983D01*
X91983Y178750D01*
X91983Y180000D01*
X91968Y180118D01*
X91961Y180237D01*
X91948Y180275D01*
X91943Y180316D01*
X91900Y180426D01*
X91863Y180539D01*
X91841Y180574D01*
X91826Y180611D01*
X91757Y180707D01*
X91693Y180808D01*
X91663Y180836D01*
X91640Y180869D01*
X91548Y180945D01*
X91461Y181026D01*
X91426Y181046D01*
X91395Y181071D01*
X91287Y181122D01*
X91183Y181180D01*
X91143Y181190D01*
X91107Y181207D01*
X90990Y181229D01*
X90875Y181259D01*
X90815Y181263D01*
X90795Y181267D01*
X90774Y181265D01*
X90714Y181269D01*
X89286Y181269D01*
X89168Y181254D01*
X89049Y181247D01*
X89011Y181234D01*
X88970Y181229D01*
X88860Y181186D01*
X88747Y181149D01*
X88712Y181127D01*
X88675Y181112D01*
X88579Y181043D01*
X88478Y180979D01*
X88450Y180949D01*
X88417Y180926D01*
X88341Y180834D01*
X88260Y180747D01*
X88240Y180712D01*
X88215Y180681D01*
X88164Y180573D01*
X88106Y180469D01*
X88096Y180429D01*
X88079Y180393D01*
X88057Y180276D01*
X88027Y180161D01*
X88023Y180101D01*
X88019Y180081D01*
X88021Y180060D01*
X88017Y180000D01*
X88017Y178750D01*
X86250Y176983D01*
X83750Y176983D01*
X81983Y178750D01*
X81983Y180000D01*
X81968Y180118D01*
X81961Y180237D01*
X81948Y180275D01*
X81943Y180316D01*
X81900Y180426D01*
X81863Y180539D01*
X81841Y180574D01*
X81826Y180611D01*
X81757Y180707D01*
X81693Y180808D01*
X81663Y180836D01*
X81640Y180869D01*
X81548Y180945D01*
X81461Y181026D01*
X81426Y181046D01*
X81395Y181071D01*
X81287Y181122D01*
X81183Y181180D01*
X81143Y181190D01*
X81107Y181207D01*
X80990Y181229D01*
X80875Y181259D01*
X80815Y181263D01*
X80795Y181267D01*
X80774Y181265D01*
X80714Y181269D01*
X70000Y181269D01*
X69979Y181267D01*
X69909Y181266D01*
X68123Y181138D01*
X68083Y181130D01*
X68043Y181130D01*
X67885Y181098D01*
X65236Y180388D01*
X65157Y180356D01*
X65074Y180333D01*
X64952Y180272D01*
X64942Y180268D01*
X64938Y180266D01*
X64930Y180262D01*
X59639Y177207D01*
X59603Y177180D01*
X59564Y177160D01*
X59436Y177062D01*
X57135Y175043D01*
X57120Y175027D01*
X57103Y175015D01*
X57102Y175013D01*
X57100Y175012D01*
X56990Y174894D01*
X55328Y172868D01*
X55271Y172778D01*
X55207Y172693D01*
X55170Y172618D01*
X55158Y172599D01*
X55154Y172584D01*
X55136Y172549D01*
X54293Y170512D01*
X54274Y170445D01*
X54247Y170381D01*
X54233Y170292D01*
X54209Y170206D01*
X54208Y170136D01*
X54197Y170067D01*
X54205Y169978D01*
X54204Y169888D01*
X54220Y169820D01*
X54227Y169750D01*
X54257Y169666D01*
X54278Y169578D01*
X54311Y169517D01*
X54334Y169451D01*
X54385Y169377D01*
X54427Y169297D01*
X54474Y169246D01*
X54513Y169188D01*
X54580Y169129D01*
X54641Y169062D01*
X54699Y169024D01*
X54751Y168977D01*
X54831Y168937D01*
X54906Y168887D01*
X54972Y168865D01*
X55035Y168833D01*
X55122Y168813D01*
X55207Y168784D01*
X55277Y168779D01*
X55345Y168763D01*
X55434Y168766D01*
X55524Y168759D01*
X55593Y168771D01*
X55663Y168773D01*
X55749Y168798D01*
X55838Y168813D01*
X55901Y168842D01*
X55968Y168861D01*
X56046Y168907D01*
X56128Y168944D01*
X56182Y168987D01*
X56232Y169017D01*
X58214Y169017D01*
X58332Y169032D01*
X58451Y169039D01*
X58489Y169052D01*
X58530Y169057D01*
X58640Y169100D01*
X58753Y169137D01*
X58788Y169159D01*
X58825Y169174D01*
X58921Y169243D01*
X59022Y169307D01*
X59050Y169337D01*
X59083Y169360D01*
X59159Y169452D01*
X59240Y169539D01*
X59260Y169574D01*
X59285Y169605D01*
X59336Y169713D01*
X59394Y169817D01*
X59404Y169857D01*
X59421Y169893D01*
X59443Y170010D01*
X59473Y170125D01*
X59477Y170185D01*
X59481Y170205D01*
X59479Y170226D01*
X59483Y170286D01*
X59483Y171250D01*
X61250Y173017D01*
X63750Y173017D01*
X65517Y171250D01*
X65517Y170786D01*
X65532Y170668D01*
X65539Y170549D01*
X65552Y170511D01*
X65557Y170470D01*
X65600Y170360D01*
X65637Y170247D01*
X65659Y170212D01*
X65674Y170175D01*
X65743Y170079D01*
X65807Y169978D01*
X65837Y169950D01*
X65860Y169917D01*
X65952Y169841D01*
X66039Y169760D01*
X66074Y169740D01*
X66105Y169715D01*
X66213Y169664D01*
X66317Y169606D01*
X66357Y169596D01*
X66393Y169579D01*
X66510Y169557D01*
X66625Y169527D01*
X66685Y169523D01*
X66705Y169519D01*
X66726Y169521D01*
X66786Y169517D01*
X68750Y169517D01*
X70517Y167750D01*
X70517Y165250D01*
X68750Y163483D01*
X66250Y163483D01*
X64483Y165250D01*
X64483Y165714D01*
X64468Y165832D01*
X64461Y165951D01*
X64448Y165989D01*
X64443Y166030D01*
X64400Y166140D01*
X64363Y166253D01*
X64341Y166288D01*
X64326Y166325D01*
X64257Y166421D01*
X64193Y166522D01*
X64163Y166550D01*
X64140Y166583D01*
X64048Y166659D01*
X63961Y166740D01*
X63926Y166760D01*
X63895Y166785D01*
X63787Y166836D01*
X63683Y166894D01*
X63643Y166904D01*
X63607Y166921D01*
X63490Y166943D01*
X63375Y166973D01*
X63315Y166977D01*
X63295Y166981D01*
X63274Y166979D01*
X63214Y166983D01*
X61786Y166983D01*
X61668Y166968D01*
X61549Y166961D01*
X61511Y166948D01*
X61470Y166943D01*
X61360Y166900D01*
X61247Y166863D01*
X61212Y166841D01*
X61175Y166826D01*
X61079Y166757D01*
X60978Y166693D01*
X60950Y166663D01*
X60917Y166640D01*
X60841Y166548D01*
X60760Y166461D01*
X60740Y166426D01*
X60715Y166395D01*
X60664Y166287D01*
X60606Y166183D01*
X60596Y166143D01*
X60579Y166107D01*
X60557Y165990D01*
X60527Y165875D01*
X60523Y165815D01*
X60519Y165795D01*
X60521Y165774D01*
X60517Y165714D01*
X60517Y164750D01*
X58750Y162983D01*
X56250Y162983D01*
X54953Y164280D01*
X54844Y164365D01*
X54737Y164454D01*
X54718Y164463D01*
X54702Y164475D01*
X54574Y164531D01*
X54449Y164590D01*
X54429Y164593D01*
X54410Y164602D01*
X54272Y164623D01*
X54136Y164649D01*
X54116Y164648D01*
X54096Y164651D01*
X53957Y164638D01*
X53819Y164630D01*
X53800Y164623D01*
X53780Y164622D01*
X53648Y164574D01*
X53517Y164532D01*
X53499Y164521D01*
X53480Y164514D01*
X53365Y164436D01*
X53248Y164361D01*
X53234Y164347D01*
X53217Y164335D01*
X53125Y164231D01*
X53030Y164130D01*
X53020Y164112D01*
X53007Y164097D01*
X52943Y163973D01*
X52876Y163851D01*
X52871Y163832D01*
X52862Y163814D01*
X52832Y163678D01*
X52797Y163543D01*
X52795Y163515D01*
X52792Y163503D01*
X52793Y163483D01*
X52787Y163383D01*
X52787Y150117D01*
X52804Y149979D01*
X52817Y149841D01*
X52824Y149822D01*
X52827Y149802D01*
X52878Y149672D01*
X52925Y149542D01*
X52936Y149525D01*
X52944Y149506D01*
X53025Y149394D01*
X53103Y149278D01*
X53119Y149265D01*
X53130Y149249D01*
X53238Y149160D01*
X53342Y149068D01*
X53360Y149059D01*
X53375Y149046D01*
X53501Y148987D01*
X53625Y148923D01*
X53645Y148919D01*
X53663Y148910D01*
X53800Y148884D01*
X53935Y148854D01*
X53956Y148854D01*
X53975Y148851D01*
X54114Y148859D01*
X54253Y148863D01*
X54273Y148869D01*
X54293Y148870D01*
X54425Y148913D01*
X54559Y148952D01*
X54576Y148962D01*
X54595Y148968D01*
X54713Y149043D01*
X54833Y149113D01*
X54854Y149132D01*
X54864Y149139D01*
X54878Y149154D01*
X54953Y149220D01*
X56250Y150517D01*
X58750Y150517D01*
X60517Y148750D01*
X60517Y146250D01*
X58750Y144483D01*
X56250Y144483D01*
X54460Y146274D01*
X54455Y146296D01*
X54443Y146385D01*
X54418Y146450D01*
X54401Y146518D01*
X54359Y146597D01*
X54326Y146680D01*
X54285Y146737D01*
X54253Y146799D01*
X54192Y146865D01*
X54140Y146938D01*
X54086Y146982D01*
X54039Y147034D01*
X53964Y147083D01*
X53895Y147141D01*
X53831Y147170D01*
X53773Y147209D01*
X53688Y147238D01*
X53607Y147276D01*
X53538Y147289D01*
X53472Y147312D01*
X53383Y147319D01*
X53295Y147336D01*
X53225Y147332D01*
X53155Y147337D01*
X53067Y147322D01*
X52977Y147316D01*
X52911Y147295D01*
X52842Y147283D01*
X52760Y147246D01*
X52675Y147218D01*
X52616Y147181D01*
X52552Y147152D01*
X52482Y147096D01*
X52406Y147048D01*
X52358Y146997D01*
X52304Y146954D01*
X52249Y146882D01*
X52188Y146816D01*
X52154Y146755D01*
X52112Y146700D01*
X52041Y146555D01*
X51145Y144390D01*
X48110Y141355D01*
X44146Y139713D01*
X36505Y139713D01*
X36407Y139701D01*
X36308Y139698D01*
X36250Y139681D01*
X36190Y139673D01*
X36098Y139637D01*
X36003Y139609D01*
X35950Y139579D01*
X35894Y139556D01*
X35814Y139498D01*
X35729Y139448D01*
X35653Y139382D01*
X35637Y139370D01*
X35629Y139360D01*
X35608Y139342D01*
X35250Y138983D01*
X35000Y138983D01*
X34882Y138968D01*
X34763Y138961D01*
X34725Y138948D01*
X34684Y138943D01*
X34574Y138900D01*
X34461Y138863D01*
X34426Y138841D01*
X34389Y138826D01*
X34293Y138757D01*
X34192Y138693D01*
X34164Y138663D01*
X34131Y138640D01*
X34056Y138548D01*
X33974Y138461D01*
X33954Y138426D01*
X33929Y138395D01*
X33878Y138287D01*
X33820Y138183D01*
X33810Y138143D01*
X33793Y138107D01*
X33771Y137990D01*
X33741Y137875D01*
X33737Y137815D01*
X33733Y137795D01*
X33735Y137774D01*
X33731Y137714D01*
X33731Y45000D01*
X33733Y44979D01*
X33736Y44889D01*
X33963Y42285D01*
X33970Y42255D01*
X33970Y42225D01*
X34002Y42067D01*
X34679Y39541D01*
X34690Y39513D01*
X34696Y39483D01*
X34754Y39333D01*
X35859Y36964D01*
X35876Y36938D01*
X35886Y36909D01*
X35970Y36772D01*
X37470Y34630D01*
X37490Y34608D01*
X37505Y34582D01*
X37612Y34461D01*
X39461Y32612D01*
X39485Y32593D01*
X39504Y32570D01*
X39630Y32470D01*
X41772Y30970D01*
X41799Y30956D01*
X41822Y30936D01*
X41964Y30859D01*
X44333Y29754D01*
X44362Y29745D01*
X44389Y29730D01*
X44541Y29679D01*
X47067Y29002D01*
X47097Y28998D01*
X47126Y28988D01*
X47285Y28963D01*
X49889Y28736D01*
X49911Y28736D01*
X50000Y28731D01*
X171730Y28731D01*
X171848Y28746D01*
G37*
%LPC*%
G36*
X71750Y139483D02*
X71750Y139483D01*
X69983Y141250D01*
X69983Y143750D01*
X70086Y143853D01*
X70159Y143947D01*
X70238Y144036D01*
X70256Y144072D01*
X70281Y144104D01*
X70329Y144213D01*
X70383Y144319D01*
X70391Y144358D01*
X70407Y144396D01*
X70426Y144513D01*
X70452Y144629D01*
X70451Y144670D01*
X70457Y144710D01*
X70446Y144828D01*
X70443Y144947D01*
X70431Y144986D01*
X70428Y145026D01*
X70387Y145138D01*
X70354Y145253D01*
X70334Y145288D01*
X70320Y145326D01*
X70253Y145424D01*
X70193Y145527D01*
X70153Y145572D01*
X70141Y145589D01*
X70126Y145602D01*
X70086Y145648D01*
X69483Y146250D01*
X69483Y148750D01*
X71250Y150517D01*
X73750Y150517D01*
X75517Y148750D01*
X75517Y146250D01*
X75414Y146148D01*
X75341Y146053D01*
X75262Y145964D01*
X75244Y145928D01*
X75219Y145896D01*
X75172Y145787D01*
X75117Y145681D01*
X75109Y145642D01*
X75093Y145604D01*
X75074Y145487D01*
X75048Y145371D01*
X75049Y145330D01*
X75043Y145290D01*
X75054Y145172D01*
X75057Y145053D01*
X75069Y145014D01*
X75072Y144974D01*
X75113Y144862D01*
X75146Y144747D01*
X75166Y144712D01*
X75180Y144674D01*
X75247Y144576D01*
X75307Y144473D01*
X75347Y144428D01*
X75359Y144411D01*
X75374Y144398D01*
X75414Y144353D01*
X76017Y143750D01*
X76017Y141250D01*
X74250Y139483D01*
X71750Y139483D01*
G37*
%LPD*%
%LPC*%
G36*
X66750Y129483D02*
X66750Y129483D01*
X64983Y131250D01*
X64983Y133750D01*
X66750Y135517D01*
X69250Y135517D01*
X71017Y133750D01*
X71017Y131250D01*
X69250Y129483D01*
X66750Y129483D01*
G37*
%LPD*%
%LPC*%
G36*
X159750Y127983D02*
X159750Y127983D01*
X157983Y129750D01*
X157983Y132250D01*
X159750Y134017D01*
X162250Y134017D01*
X164017Y132250D01*
X164017Y129750D01*
X162250Y127983D01*
X159750Y127983D01*
G37*
%LPD*%
%LPC*%
G36*
X96250Y124983D02*
X96250Y124983D01*
X94483Y126750D01*
X94483Y129250D01*
X96250Y131017D01*
X98750Y131017D01*
X100517Y129250D01*
X100517Y126750D01*
X98750Y124983D01*
X96250Y124983D01*
G37*
%LPD*%
%LPC*%
G36*
X116250Y114483D02*
X116250Y114483D01*
X114483Y116250D01*
X114483Y118750D01*
X116250Y120517D01*
X118750Y120517D01*
X120517Y118750D01*
X120517Y116250D01*
X118750Y114483D01*
X116250Y114483D01*
G37*
%LPD*%
%LPC*%
G36*
X43750Y113483D02*
X43750Y113483D01*
X41983Y115250D01*
X41983Y117750D01*
X43750Y119517D01*
X46250Y119517D01*
X48017Y117750D01*
X48017Y115250D01*
X46250Y113483D01*
X43750Y113483D01*
G37*
%LPD*%
%LPC*%
G36*
X42250Y103475D02*
X42250Y103475D01*
X40483Y105242D01*
X40483Y107742D01*
X42250Y109509D01*
X44750Y109509D01*
X46517Y107742D01*
X46517Y105242D01*
X44750Y103475D01*
X42250Y103475D01*
G37*
%LPD*%
%LPC*%
G36*
X73750Y71983D02*
X73750Y71983D01*
X71983Y73750D01*
X71983Y76250D01*
X73750Y78017D01*
X76250Y78017D01*
X78017Y76250D01*
X78017Y73750D01*
X76250Y71983D01*
X73750Y71983D01*
G37*
%LPD*%
%LPC*%
G36*
X123750Y71483D02*
X123750Y71483D01*
X121983Y73250D01*
X121983Y75750D01*
X123750Y77517D01*
X126250Y77517D01*
X128017Y75750D01*
X128017Y73250D01*
X126250Y71483D01*
X123750Y71483D01*
G37*
%LPD*%
%LPC*%
G36*
X93750Y71483D02*
X93750Y71483D01*
X91983Y73250D01*
X91983Y75750D01*
X93750Y77517D01*
X96250Y77517D01*
X98017Y75750D01*
X98017Y73250D01*
X96250Y71483D01*
X93750Y71483D01*
G37*
%LPD*%
%LPC*%
G36*
X83750Y36983D02*
X83750Y36983D01*
X81983Y38750D01*
X81983Y41250D01*
X83750Y43017D01*
X86250Y43017D01*
X88017Y41250D01*
X88017Y38750D01*
X86250Y36983D01*
X83750Y36983D01*
G37*
%LPD*%
%LPC*%
G36*
X53750Y36983D02*
X53750Y36983D01*
X51983Y38750D01*
X51983Y41250D01*
X53750Y43017D01*
X56250Y43017D01*
X58017Y41250D01*
X58017Y38750D01*
X56250Y36983D01*
X53750Y36983D01*
G37*
%LPD*%
D10*
X-127000Y12700D03*
X-127000Y-12700D03*
X-101600Y12700D03*
X-101600Y-12700D03*
X-76200Y12700D03*
X-76200Y-12700D03*
X-50800Y12700D03*
X-50800Y-12700D03*
X-25400Y12700D03*
X-25400Y-12700D03*
X0Y12700D03*
X0Y-12700D03*
X25400Y12700D03*
X25400Y-12700D03*
X50800Y12700D03*
X50800Y-12700D03*
X76200Y12700D03*
X76200Y-12700D03*
X101600Y12700D03*
X101600Y-12700D03*
X127000Y12700D03*
X127000Y-12700D03*
D11*
X-114300Y312700D03*
X-114300Y287300D03*
X-88900Y312700D03*
X-88900Y287300D03*
X-63500Y312700D03*
X-63500Y287300D03*
X-38100Y312700D03*
X-38100Y287300D03*
X-12700Y312700D03*
X-12700Y287300D03*
X12700Y312700D03*
X12700Y287300D03*
X38100Y312700D03*
X38100Y287300D03*
X63500Y312700D03*
X63500Y287300D03*
X88900Y312700D03*
X88900Y287300D03*
X114300Y312700D03*
X114300Y287300D03*
D12*
X120000Y155000D03*
X68000Y132500D03*
X135500Y170000D03*
X-50000Y270040D03*
X-20000Y265500D03*
X50000Y265500D03*
X155500Y308000D03*
X97500Y128000D03*
X117500Y117500D03*
X95000Y74500D03*
X125000Y74500D03*
X161000Y131000D03*
X-95000Y180000D03*
X-85000Y180000D03*
X-85000Y170000D03*
X-75000Y170000D03*
X-75000Y180000D03*
X-65000Y180000D03*
X-65000Y170000D03*
X-55000Y180000D03*
X-95000Y170000D03*
X-75000Y190000D03*
X-65000Y190000D03*
X-55000Y190000D03*
X55000Y40000D03*
X85000Y40000D03*
X0Y0D03*
X13000Y165000D03*
X-26500Y42000D03*
X61500Y245500D03*
D13*
X-42700Y-30000D02*
X-130000Y-30000D01*
X-42700Y-30000D02*
X-42282Y-29995D01*
X-41864Y-29980D01*
X-41447Y-29955D01*
X-41030Y-29919D01*
X-40615Y-29874D01*
X-40200Y-29818D01*
X-39787Y-29753D01*
X-39376Y-29678D01*
X-38967Y-29592D01*
X-38560Y-29497D01*
X-38155Y-29392D01*
X-37753Y-29278D01*
X-37354Y-29153D01*
X-36958Y-29019D01*
X-36565Y-28876D01*
X-36176Y-28723D01*
X-35791Y-28561D01*
X-35410Y-28389D01*
X-35033Y-28208D01*
X-34660Y-28018D01*
X-34292Y-27820D01*
X-33930Y-27612D01*
X-33572Y-27396D01*
X-33219Y-27171D01*
X-32872Y-26938D01*
X-32531Y-26696D01*
X-32196Y-26446D01*
X-31867Y-26188D01*
X-31544Y-25923D01*
X-31228Y-25649D01*
X-30918Y-25368D01*
X-30616Y-25080D01*
X-30320Y-24784D01*
X-30032Y-24482D01*
X-29751Y-24172D01*
X-29477Y-23856D01*
X-29212Y-23533D01*
X-28954Y-23204D01*
X-28704Y-22869D01*
X-28462Y-22528D01*
X-28229Y-22181D01*
X-28004Y-21828D01*
X-27788Y-21470D01*
X-27580Y-21108D01*
X-27382Y-20740D01*
X-27192Y-20367D01*
X-27011Y-19990D01*
X-26839Y-19609D01*
X-26677Y-19224D01*
X-26524Y-18835D01*
X-26381Y-18442D01*
X-26247Y-18046D01*
X-26122Y-17647D01*
X-26008Y-17245D01*
X-25903Y-16840D01*
X-25808Y-16433D01*
X-25722Y-16024D01*
X-25647Y-15613D01*
X-25582Y-15200D01*
X-25526Y-14785D01*
X-25481Y-14370D01*
X-25445Y-13953D01*
X-25420Y-13536D01*
X-25405Y-13118D01*
X-25400Y-12700D01*
X-130000Y-30000D02*
X-130375Y-29995D01*
X-130749Y-29982D01*
X-131123Y-29959D01*
X-131496Y-29928D01*
X-131868Y-29887D01*
X-132240Y-29837D01*
X-132610Y-29779D01*
X-132978Y-29711D01*
X-133345Y-29635D01*
X-133709Y-29550D01*
X-134072Y-29456D01*
X-134432Y-29353D01*
X-134790Y-29241D01*
X-135145Y-29121D01*
X-135496Y-28993D01*
X-135845Y-28856D01*
X-136190Y-28710D01*
X-136532Y-28557D01*
X-136869Y-28395D01*
X-137203Y-28225D01*
X-137533Y-28047D01*
X-137858Y-27861D01*
X-138178Y-27667D01*
X-138494Y-27465D01*
X-138805Y-27256D01*
X-139111Y-27040D01*
X-139411Y-26816D01*
X-139706Y-26585D01*
X-139995Y-26347D01*
X-140278Y-26102D01*
X-140556Y-25850D01*
X-140827Y-25592D01*
X-141092Y-25327D01*
X-141350Y-25056D01*
X-141602Y-24778D01*
X-141847Y-24495D01*
X-142085Y-24206D01*
X-142316Y-23911D01*
X-142540Y-23611D01*
X-142756Y-23305D01*
X-142965Y-22994D01*
X-143167Y-22678D01*
X-143361Y-22358D01*
X-143547Y-22033D01*
X-143725Y-21703D01*
X-143895Y-21369D01*
X-144057Y-21032D01*
X-144210Y-20690D01*
X-144356Y-20345D01*
X-144493Y-19996D01*
X-144621Y-19645D01*
X-144741Y-19290D01*
X-144853Y-18932D01*
X-144956Y-18572D01*
X-145050Y-18209D01*
X-145135Y-17845D01*
X-145211Y-17478D01*
X-145279Y-17110D01*
X-145337Y-16740D01*
X-145387Y-16368D01*
X-145428Y-15996D01*
X-145459Y-15623D01*
X-145482Y-15249D01*
X-145495Y-14875D01*
X-145500Y-14500D01*
D12*
X-150000Y260000D03*
D13*
X-150000Y195000D02*
X-149745Y194738D01*
X-149495Y194471D01*
X-149253Y194197D01*
X-149017Y193918D01*
X-148787Y193633D01*
X-148564Y193343D01*
X-148349Y193048D01*
X-148140Y192748D01*
X-147939Y192442D01*
X-147745Y192132D01*
X-147558Y191818D01*
X-147379Y191499D01*
X-147208Y191176D01*
X-147044Y190849D01*
X-146888Y190518D01*
X-146740Y190184D01*
X-146601Y189846D01*
X-146469Y189505D01*
X-146345Y189161D01*
X-146230Y188814D01*
X-146122Y188465D01*
X-146024Y188112D01*
X-145933Y187758D01*
X-145851Y187402D01*
X-145778Y187044D01*
X-145713Y186684D01*
X-145656Y186323D01*
X-145609Y185960D01*
X-145570Y185596D01*
X-145539Y185232D01*
X-145517Y184867D01*
X-145504Y184502D01*
X-145500Y184136D01*
X-150000Y195000D02*
X-157561Y202561D01*
X-157561Y202560D02*
X-157996Y203007D01*
X-158420Y203463D01*
X-158833Y203930D01*
X-159234Y204407D01*
X-159624Y204894D01*
X-160001Y205390D01*
X-160367Y205895D01*
X-160719Y206410D01*
X-161059Y206932D01*
X-161386Y207463D01*
X-161700Y208001D01*
X-162001Y208548D01*
X-162288Y209101D01*
X-162561Y209661D01*
X-162821Y210228D01*
X-163067Y210801D01*
X-163298Y211380D01*
X-163515Y211964D01*
X-163718Y212553D01*
X-163906Y213148D01*
X-164080Y213746D01*
X-164239Y214349D01*
X-164383Y214956D01*
X-164512Y215566D01*
X-164626Y216179D01*
X-164725Y216794D01*
X-164809Y217412D01*
X-164878Y218031D01*
X-164931Y218652D01*
X-164969Y219275D01*
X-164992Y219898D01*
X-165000Y220521D01*
X-165000Y234479D02*
X-164992Y235102D01*
X-164969Y235725D01*
X-164931Y236348D01*
X-164878Y236969D01*
X-164809Y237588D01*
X-164725Y238206D01*
X-164626Y238821D01*
X-164512Y239434D01*
X-164383Y240044D01*
X-164239Y240651D01*
X-164080Y241254D01*
X-163906Y241852D01*
X-163718Y242447D01*
X-163515Y243036D01*
X-163298Y243620D01*
X-163067Y244199D01*
X-162821Y244772D01*
X-162561Y245339D01*
X-162288Y245899D01*
X-162001Y246452D01*
X-161700Y246999D01*
X-161386Y247537D01*
X-161059Y248068D01*
X-160719Y248590D01*
X-160367Y249105D01*
X-160001Y249610D01*
X-159624Y250106D01*
X-159234Y250593D01*
X-158833Y251070D01*
X-158420Y251537D01*
X-157996Y251993D01*
X-157561Y252440D01*
X-150000Y260000D01*
X-145500Y184136D02*
X-145500Y-14500D01*
X-165000Y220521D02*
X-165000Y234479D01*
D12*
X145000Y175000D03*
X75000Y75000D03*
X20000Y130000D03*
X0Y130000D03*
X10000Y130000D03*
X0Y120000D03*
X10000Y120000D03*
X20000Y120000D03*
X20000Y110000D03*
X10000Y110000D03*
X0Y110000D03*
X130000Y225000D03*
X120000Y205000D03*
X125000Y210000D03*
X130000Y215000D03*
X135000Y220000D03*
X125000Y220000D03*
X-55000Y170000D03*
X-85000Y190000D03*
X-35000Y210000D03*
X10000Y125000D03*
X10000Y135000D03*
X10000Y115000D03*
X10000Y105000D03*
X0Y105000D03*
X0Y115000D03*
X0Y125000D03*
X0Y135000D03*
X20000Y135000D03*
X20000Y125000D03*
X20000Y115000D03*
X20000Y105000D03*
X-95000Y190000D03*
X10000Y335000D03*
X129000Y109000D03*
X154500Y170000D03*
X119000Y90000D03*
X67500Y137500D03*
X97500Y122500D03*
X115500Y166000D03*
X82500Y142500D03*
X102500Y137500D03*
D14*
X171500Y273479D02*
X171493Y274083D01*
X171471Y274688D01*
X171435Y275291D01*
X171385Y275893D01*
X171320Y276494D01*
X171241Y277094D01*
X171148Y277691D01*
X171041Y278286D01*
X170920Y278878D01*
X170784Y279467D01*
X170635Y280053D01*
X170471Y280635D01*
X170294Y281213D01*
X170103Y281787D01*
X169899Y282355D01*
X169681Y282919D01*
X169449Y283478D01*
X169205Y284031D01*
X168947Y284577D01*
X168676Y285118D01*
X168393Y285652D01*
X168097Y286179D01*
X167789Y286699D01*
X167468Y287211D01*
X167135Y287716D01*
X166790Y288212D01*
X166434Y288701D01*
X166066Y289180D01*
X165686Y289651D01*
X165296Y290112D01*
X164895Y290565D01*
X164483Y291007D01*
X164061Y291440D01*
X127940Y327561D02*
X127216Y328267D01*
X126477Y328955D01*
X125721Y329626D01*
X124949Y330279D01*
X124162Y330913D01*
X123360Y331529D01*
X122544Y332125D01*
X121713Y332701D01*
X120870Y333258D01*
X120013Y333794D01*
X119144Y334310D01*
X118262Y334805D01*
X117369Y335279D01*
X116465Y335731D01*
X115551Y336162D01*
X114627Y336571D01*
X113693Y336958D01*
X112750Y337322D01*
X111799Y337664D01*
X110840Y337983D01*
X109873Y338280D01*
X108900Y338553D01*
X107921Y338803D01*
X106936Y339029D01*
X105946Y339232D01*
X104951Y339412D01*
X103952Y339568D01*
X102950Y339700D01*
X101945Y339808D01*
X100938Y339892D01*
X99929Y339952D01*
X98919Y339988D01*
X97908Y340000D01*
X127940Y327561D02*
X164061Y291440D01*
X171500Y187000D02*
X171495Y186589D01*
X171480Y186179D01*
X171455Y185769D01*
X171421Y185359D01*
X171376Y184951D01*
X171322Y184544D01*
X171257Y184138D01*
X171183Y183734D01*
X171099Y183332D01*
X171006Y182932D01*
X170903Y182534D01*
X170790Y182139D01*
X170668Y181747D01*
X170536Y181358D01*
X170395Y180972D01*
X170245Y180589D01*
X170085Y180211D01*
X169917Y179836D01*
X169739Y179466D01*
X169553Y179100D01*
X169357Y178738D01*
X169153Y178382D01*
X168941Y178030D01*
X168720Y177684D01*
X168491Y177343D01*
X168253Y177008D01*
X168008Y176678D01*
X167754Y176355D01*
X167493Y176038D01*
X167225Y175727D01*
X166949Y175423D01*
X166665Y175125D01*
X166375Y174835D01*
X166077Y174551D01*
X165773Y174275D01*
X165462Y174007D01*
X165145Y173746D01*
X164822Y173492D01*
X164492Y173247D01*
X164157Y173009D01*
X163816Y172780D01*
X163470Y172559D01*
X163118Y172347D01*
X162762Y172143D01*
X162400Y171947D01*
X162034Y171761D01*
X161664Y171583D01*
X161289Y171415D01*
X160911Y171255D01*
X160528Y171105D01*
X160142Y170964D01*
X159753Y170832D01*
X159361Y170710D01*
X158966Y170597D01*
X158568Y170494D01*
X158168Y170401D01*
X157766Y170317D01*
X157362Y170243D01*
X156956Y170178D01*
X156549Y170124D01*
X156141Y170079D01*
X155731Y170045D01*
X155321Y170020D01*
X154911Y170005D01*
X154500Y170000D01*
X171500Y187000D02*
X171500Y273479D01*
X97908Y340000D02*
X22071Y340000D01*
X21652Y339995D01*
X21233Y339979D01*
X20815Y339954D01*
X20398Y339918D01*
X19981Y339872D01*
X19566Y339815D01*
X19153Y339749D01*
X18741Y339672D01*
X18331Y339585D01*
X17923Y339488D01*
X17518Y339382D01*
X17116Y339265D01*
X16716Y339138D01*
X16320Y339002D01*
X15927Y338856D01*
X15538Y338701D01*
X15153Y338535D01*
X14772Y338361D01*
X14396Y338177D01*
X14024Y337984D01*
X13657Y337782D01*
X13295Y337571D01*
X12938Y337351D01*
X12587Y337123D01*
X12241Y336886D01*
X11902Y336641D01*
X11568Y336387D01*
X11241Y336125D01*
X10921Y335855D01*
X10607Y335578D01*
X10300Y335293D01*
X10000Y335000D01*
D12*
X15000Y59500D03*
D13*
X60000Y59500D01*
X60000Y109000D02*
X129000Y109000D01*
X60000Y109000D02*
X60000Y59500D01*
D12*
X55000Y68500D03*
X-75000Y120000D03*
X-75000Y125000D03*
X-75000Y130000D03*
X-165000Y75000D03*
X-160000Y75000D03*
X-155000Y75000D03*
X57500Y147500D03*
X-45500Y85500D03*
X-45500Y92500D03*
X57500Y166000D03*
X-72000Y98500D03*
X62500Y170000D03*
X-95000Y218500D03*
X-25000Y112500D03*
D14*
X-25000Y166479D02*
X-25008Y167102D01*
X-25031Y167725D01*
X-25069Y168348D01*
X-25122Y168969D01*
X-25191Y169588D01*
X-25275Y170206D01*
X-25374Y170821D01*
X-25488Y171434D01*
X-25617Y172044D01*
X-25761Y172651D01*
X-25920Y173254D01*
X-26094Y173852D01*
X-26282Y174447D01*
X-26485Y175036D01*
X-26702Y175620D01*
X-26933Y176199D01*
X-27179Y176772D01*
X-27439Y177339D01*
X-27712Y177899D01*
X-27999Y178452D01*
X-28300Y178999D01*
X-28614Y179537D01*
X-28941Y180068D01*
X-29281Y180590D01*
X-29633Y181105D01*
X-29999Y181610D01*
X-30376Y182106D01*
X-30766Y182593D01*
X-31167Y183070D01*
X-31580Y183537D01*
X-32004Y183993D01*
X-32439Y184440D01*
X-25000Y166479D02*
X-25000Y112500D01*
X-58560Y210561D02*
X-59037Y211025D01*
X-59524Y211478D01*
X-60022Y211919D01*
X-60531Y212347D01*
X-61051Y212763D01*
X-61580Y213166D01*
X-62120Y213555D01*
X-62668Y213932D01*
X-63226Y214294D01*
X-63792Y214643D01*
X-64367Y214978D01*
X-64950Y215299D01*
X-65540Y215606D01*
X-66138Y215897D01*
X-66743Y216174D01*
X-67355Y216437D01*
X-67972Y216684D01*
X-68596Y216915D01*
X-69225Y217132D01*
X-69859Y217333D01*
X-70498Y217518D01*
X-71142Y217688D01*
X-71789Y217841D01*
X-72440Y217979D01*
X-73094Y218101D01*
X-73751Y218207D01*
X-74410Y218296D01*
X-75071Y218369D01*
X-75734Y218427D01*
X-76398Y218467D01*
X-77063Y218492D01*
X-77728Y218500D01*
X-58561Y210561D02*
X-32440Y184440D01*
X-77728Y218500D02*
X-95000Y218500D01*
D12*
X45000Y245500D03*
X34000Y142000D03*
D14*
X42000Y142000D01*
X42205Y142002D01*
X42411Y142010D01*
X42616Y142022D01*
X42820Y142040D01*
X43025Y142062D01*
X43228Y142089D01*
X43431Y142121D01*
X43633Y142158D01*
X43834Y142200D01*
X44034Y142247D01*
X44233Y142299D01*
X44431Y142355D01*
X44627Y142416D01*
X44821Y142482D01*
X45014Y142552D01*
X45205Y142628D01*
X45395Y142707D01*
X45582Y142792D01*
X45767Y142880D01*
X45950Y142974D01*
X46131Y143071D01*
X46309Y143173D01*
X46485Y143280D01*
X46658Y143390D01*
X46829Y143505D01*
X46996Y143623D01*
X47161Y143746D01*
X47323Y143873D01*
X47481Y144003D01*
X47637Y144138D01*
X47789Y144276D01*
X47937Y144417D01*
X48083Y144563D01*
X48224Y144711D01*
X48362Y144863D01*
X48497Y145019D01*
X48627Y145177D01*
X48754Y145339D01*
X48877Y145504D01*
X48995Y145671D01*
X49110Y145842D01*
X49220Y146015D01*
X49327Y146191D01*
X49429Y146369D01*
X49526Y146550D01*
X49620Y146733D01*
X49708Y146918D01*
X49793Y147105D01*
X49872Y147295D01*
X49948Y147486D01*
X50018Y147679D01*
X50084Y147873D01*
X50145Y148069D01*
X50201Y148267D01*
X50253Y148466D01*
X50300Y148666D01*
X50342Y148867D01*
X50379Y149069D01*
X50411Y149272D01*
X50438Y149475D01*
X50460Y149680D01*
X50478Y149884D01*
X50490Y150089D01*
X50498Y150295D01*
X50500Y150500D01*
X50500Y164636D01*
X50505Y165039D01*
X50519Y165441D01*
X50543Y165843D01*
X50577Y166245D01*
X50620Y166645D01*
X50672Y167045D01*
X50734Y167443D01*
X50806Y167839D01*
X50887Y168233D01*
X50977Y168626D01*
X51077Y169016D01*
X51186Y169404D01*
X51304Y169789D01*
X51431Y170171D01*
X51567Y170550D01*
X51712Y170926D01*
X51866Y171298D01*
X52029Y171666D01*
X52201Y172031D01*
X52381Y172391D01*
X52570Y172747D01*
X52767Y173098D01*
X52973Y173444D01*
X53187Y173786D01*
X53408Y174122D01*
X53638Y174453D01*
X53876Y174778D01*
X54121Y175098D01*
X54374Y175411D01*
X54634Y175719D01*
X54901Y176020D01*
X55176Y176315D01*
X55457Y176603D01*
X55916Y177052D01*
X56385Y177489D01*
X56865Y177915D01*
X57355Y178329D01*
X57855Y178732D01*
X58364Y179122D01*
X58882Y179501D01*
X59409Y179867D01*
X59945Y180220D01*
X60489Y180560D01*
X61040Y180888D01*
X61600Y181202D01*
X62167Y181503D01*
X62741Y181790D01*
X63321Y182064D01*
X63908Y182323D01*
X64501Y182569D01*
X65099Y182800D01*
X65703Y183017D01*
X66312Y183220D01*
X66925Y183408D01*
X67543Y183581D01*
X68165Y183740D01*
X68790Y183884D01*
X69419Y184013D01*
X70050Y184127D01*
X70684Y184226D01*
X71320Y184309D01*
X71958Y184378D01*
X72598Y184431D01*
X73238Y184469D01*
X73879Y184492D01*
X74521Y184500D01*
X45000Y245500D02*
X45004Y245850D01*
X45017Y246201D01*
X45038Y246550D01*
X45068Y246899D01*
X45106Y247248D01*
X45152Y247595D01*
X45207Y247941D01*
X45270Y248286D01*
X45342Y248629D01*
X45421Y248970D01*
X45509Y249309D01*
X45605Y249646D01*
X45710Y249981D01*
X45822Y250313D01*
X45942Y250642D01*
X46070Y250968D01*
X46207Y251291D01*
X46350Y251610D01*
X46502Y251926D01*
X46661Y252238D01*
X46827Y252547D01*
X47001Y252851D01*
X47183Y253151D01*
X47371Y253446D01*
X47567Y253737D01*
X47769Y254023D01*
X47979Y254304D01*
X48195Y254580D01*
X48417Y254850D01*
X48647Y255115D01*
X48882Y255375D01*
X49124Y255628D01*
X49372Y255876D01*
X49625Y256118D01*
X49885Y256353D01*
X50150Y256583D01*
X50420Y256805D01*
X50696Y257021D01*
X50977Y257231D01*
X51263Y257433D01*
X51554Y257629D01*
X51849Y257817D01*
X52149Y257999D01*
X52453Y258173D01*
X52762Y258339D01*
X53074Y258498D01*
X53390Y258650D01*
X53709Y258793D01*
X54032Y258930D01*
X54358Y259058D01*
X54687Y259178D01*
X55019Y259290D01*
X55354Y259395D01*
X55691Y259491D01*
X56030Y259579D01*
X56371Y259658D01*
X56714Y259730D01*
X57059Y259793D01*
X57405Y259848D01*
X57752Y259894D01*
X58101Y259932D01*
X58450Y259962D01*
X58799Y259983D01*
X59150Y259996D01*
X59500Y260000D01*
X119015Y184500D02*
X119502Y184506D01*
X119990Y184523D01*
X120476Y184552D01*
X120962Y184593D01*
X121447Y184645D01*
X121930Y184709D01*
X122412Y184784D01*
X122892Y184870D01*
X123369Y184968D01*
X123845Y185077D01*
X124317Y185198D01*
X124786Y185330D01*
X125252Y185473D01*
X125715Y185627D01*
X126174Y185792D01*
X126629Y185967D01*
X127079Y186154D01*
X127525Y186351D01*
X127966Y186559D01*
X128402Y186777D01*
X128832Y187006D01*
X129258Y187244D01*
X129677Y187493D01*
X130090Y187752D01*
X130497Y188020D01*
X130897Y188298D01*
X131291Y188586D01*
X131678Y188883D01*
X132058Y189189D01*
X132430Y189503D01*
X132794Y189827D01*
X133151Y190159D01*
X133500Y190500D01*
X143061Y200061D01*
X143061Y200060D02*
X143511Y200522D01*
X143951Y200994D01*
X144379Y201477D01*
X144796Y201969D01*
X145201Y202472D01*
X145593Y202983D01*
X145974Y203504D01*
X146342Y204034D01*
X146697Y204573D01*
X147039Y205120D01*
X147368Y205674D01*
X147684Y206237D01*
X147987Y206807D01*
X148275Y207384D01*
X148550Y207967D01*
X148811Y208557D01*
X149058Y209153D01*
X149291Y209755D01*
X149509Y210362D01*
X149713Y210974D01*
X149902Y211591D01*
X150076Y212212D01*
X150236Y212837D01*
X150381Y213466D01*
X150510Y214098D01*
X150625Y214733D01*
X150724Y215370D01*
X150808Y216010D01*
X150877Y216651D01*
X150931Y217294D01*
X150969Y217938D01*
X150992Y218583D01*
X151000Y219228D01*
X119015Y184500D02*
X74521Y184500D01*
X122600Y260000D02*
X123286Y259992D01*
X123972Y259967D01*
X124657Y259925D01*
X125341Y259867D01*
X126023Y259793D01*
X126703Y259702D01*
X127381Y259595D01*
X128056Y259471D01*
X128728Y259331D01*
X129397Y259175D01*
X130061Y259002D01*
X130721Y258814D01*
X131376Y258610D01*
X132026Y258390D01*
X132671Y258154D01*
X133309Y257903D01*
X133942Y257637D01*
X134568Y257355D01*
X135187Y257059D01*
X135798Y256747D01*
X136402Y256421D01*
X136998Y256080D01*
X137585Y255725D01*
X138164Y255356D01*
X138733Y254973D01*
X139293Y254576D01*
X139843Y254166D01*
X140384Y253743D01*
X140914Y253307D01*
X141433Y252858D01*
X141941Y252396D01*
X142438Y251923D01*
X142923Y251438D01*
X143396Y250941D01*
X143858Y250433D01*
X144307Y249914D01*
X144743Y249384D01*
X145166Y248843D01*
X145576Y248293D01*
X145973Y247733D01*
X146356Y247164D01*
X146725Y246585D01*
X147080Y245998D01*
X147421Y245402D01*
X147747Y244798D01*
X148059Y244187D01*
X148355Y243568D01*
X148637Y242942D01*
X148903Y242309D01*
X149154Y241671D01*
X149390Y241026D01*
X149610Y240376D01*
X149814Y239721D01*
X150002Y239061D01*
X150175Y238397D01*
X150331Y237728D01*
X150471Y237056D01*
X150595Y236381D01*
X150702Y235703D01*
X150793Y235023D01*
X150867Y234341D01*
X150925Y233657D01*
X150967Y232972D01*
X150992Y232286D01*
X151000Y231600D01*
X151000Y219228D01*
X122600Y260000D02*
X59500Y260000D01*
D12*
X40000Y245000D03*
X37000Y148992D03*
D14*
X52146Y180768D02*
X52625Y181235D01*
X53115Y181691D01*
X53615Y182135D01*
X54126Y182567D01*
X54646Y182987D01*
X55177Y183394D01*
X55717Y183788D01*
X56267Y184170D01*
X56825Y184538D01*
X57392Y184893D01*
X57967Y185234D01*
X58551Y185562D01*
X59142Y185875D01*
X59740Y186175D01*
X60345Y186460D01*
X60957Y186731D01*
X61575Y186987D01*
X62199Y187228D01*
X62828Y187454D01*
X63463Y187665D01*
X64102Y187861D01*
X64746Y188042D01*
X65395Y188208D01*
X66046Y188358D01*
X66702Y188492D01*
X67360Y188611D01*
X68021Y188714D01*
X68684Y188801D01*
X69349Y188873D01*
X70016Y188928D01*
X70684Y188968D01*
X71352Y188992D01*
X72021Y189000D01*
X52146Y180768D02*
X51797Y180410D01*
X51457Y180045D01*
X51126Y179671D01*
X50803Y179290D01*
X50490Y178901D01*
X50186Y178505D01*
X49891Y178102D01*
X49606Y177691D01*
X49331Y177274D01*
X49066Y176851D01*
X48811Y176422D01*
X48567Y175986D01*
X48333Y175545D01*
X48109Y175098D01*
X47896Y174646D01*
X47694Y174190D01*
X47503Y173728D01*
X47323Y173263D01*
X47154Y172793D01*
X46996Y172319D01*
X46850Y171841D01*
X46715Y171360D01*
X46592Y170876D01*
X46480Y170390D01*
X46379Y169900D01*
X46291Y169409D01*
X46214Y168915D01*
X46148Y168420D01*
X46095Y167924D01*
X46053Y167426D01*
X46024Y166928D01*
X46006Y166428D01*
X46000Y165929D01*
X46000Y152414D02*
X45998Y152302D01*
X45993Y152191D01*
X45984Y152079D01*
X45971Y151968D01*
X45954Y151858D01*
X45934Y151748D01*
X45911Y151639D01*
X45884Y151530D01*
X45853Y151423D01*
X45819Y151317D01*
X45781Y151211D01*
X45740Y151108D01*
X45696Y151005D01*
X45648Y150904D01*
X45597Y150805D01*
X45543Y150707D01*
X45485Y150611D01*
X45425Y150517D01*
X45361Y150425D01*
X45295Y150336D01*
X45225Y150248D01*
X45153Y150163D01*
X45078Y150080D01*
X45000Y150000D01*
X44919Y149922D01*
X44835Y149846D01*
X44750Y149773D01*
X44661Y149703D01*
X44571Y149636D01*
X44478Y149572D01*
X44384Y149511D01*
X44287Y149453D01*
X44189Y149398D01*
X44088Y149347D01*
X43987Y149299D01*
X43883Y149254D01*
X43778Y149213D01*
X43672Y149175D01*
X43565Y149140D01*
X43457Y149109D01*
X43348Y149082D01*
X43237Y149058D01*
X43127Y149038D01*
X43015Y149021D01*
X42903Y149009D01*
X42791Y148999D01*
X42679Y148994D01*
X42566Y148992D01*
X37000Y148992D01*
X46000Y152414D02*
X46000Y165929D01*
X50000Y245000D02*
X50003Y245254D01*
X50012Y245507D01*
X50028Y245761D01*
X50049Y246013D01*
X50077Y246266D01*
X50110Y246517D01*
X50150Y246768D01*
X50196Y247017D01*
X50247Y247266D01*
X50305Y247513D01*
X50369Y247758D01*
X50438Y248002D01*
X50514Y248245D01*
X50595Y248485D01*
X50682Y248723D01*
X50775Y248959D01*
X50874Y249193D01*
X50978Y249425D01*
X51088Y249654D01*
X51203Y249880D01*
X51323Y250103D01*
X51449Y250323D01*
X51581Y250540D01*
X51717Y250754D01*
X51859Y250965D01*
X52005Y251172D01*
X52157Y251375D01*
X52313Y251575D01*
X52475Y251771D01*
X52641Y251963D01*
X52811Y252151D01*
X52986Y252334D01*
X53166Y252514D01*
X53349Y252689D01*
X53537Y252859D01*
X53729Y253025D01*
X53925Y253187D01*
X54125Y253343D01*
X54328Y253495D01*
X54535Y253641D01*
X54746Y253783D01*
X54960Y253919D01*
X55177Y254051D01*
X55397Y254177D01*
X55620Y254297D01*
X55846Y254412D01*
X56075Y254522D01*
X56307Y254626D01*
X56541Y254725D01*
X56777Y254818D01*
X57015Y254905D01*
X57255Y254986D01*
X57498Y255062D01*
X57742Y255131D01*
X57987Y255195D01*
X58234Y255253D01*
X58483Y255304D01*
X58732Y255350D01*
X58983Y255390D01*
X59234Y255423D01*
X59487Y255451D01*
X59739Y255472D01*
X59993Y255488D01*
X60246Y255497D01*
X60500Y255500D01*
X50000Y245000D02*
X50000Y243500D01*
X49998Y243374D01*
X49992Y243249D01*
X49982Y243124D01*
X49968Y242999D01*
X49951Y242874D01*
X49929Y242750D01*
X49904Y242627D01*
X49874Y242505D01*
X49841Y242384D01*
X49804Y242264D01*
X49764Y242145D01*
X49719Y242028D01*
X49671Y241911D01*
X49619Y241797D01*
X49564Y241684D01*
X49505Y241573D01*
X49443Y241464D01*
X49377Y241357D01*
X49308Y241252D01*
X49236Y241149D01*
X49161Y241048D01*
X49082Y240950D01*
X49000Y240855D01*
X48916Y240762D01*
X48828Y240672D01*
X48738Y240584D01*
X48645Y240500D01*
X48550Y240418D01*
X48452Y240339D01*
X48351Y240264D01*
X48248Y240192D01*
X48143Y240123D01*
X48036Y240057D01*
X47927Y239995D01*
X47816Y239936D01*
X47703Y239881D01*
X47589Y239829D01*
X47472Y239781D01*
X47355Y239736D01*
X47236Y239696D01*
X47116Y239659D01*
X46995Y239626D01*
X46873Y239596D01*
X46750Y239571D01*
X46626Y239549D01*
X46501Y239532D01*
X46376Y239518D01*
X46251Y239508D01*
X46126Y239502D01*
X46000Y239500D01*
X43500Y239500D01*
X43383Y239502D01*
X43266Y239508D01*
X43150Y239518D01*
X43033Y239531D01*
X42918Y239549D01*
X42803Y239570D01*
X42689Y239595D01*
X42575Y239624D01*
X42463Y239657D01*
X42352Y239694D01*
X42242Y239734D01*
X42134Y239778D01*
X42027Y239825D01*
X41921Y239876D01*
X41818Y239931D01*
X41716Y239989D01*
X41617Y240050D01*
X41519Y240114D01*
X41424Y240182D01*
X41331Y240253D01*
X41240Y240327D01*
X41152Y240404D01*
X41067Y240484D01*
X40984Y240567D01*
X40904Y240652D01*
X40827Y240740D01*
X40753Y240831D01*
X40682Y240924D01*
X40614Y241019D01*
X40550Y241117D01*
X40489Y241216D01*
X40431Y241318D01*
X40376Y241421D01*
X40325Y241527D01*
X40278Y241634D01*
X40234Y241742D01*
X40194Y241852D01*
X40157Y241963D01*
X40124Y242075D01*
X40095Y242189D01*
X40070Y242303D01*
X40049Y242418D01*
X40031Y242533D01*
X40018Y242650D01*
X40008Y242766D01*
X40002Y242883D01*
X40000Y243000D01*
X40000Y245000D01*
X118429Y189000D02*
X118835Y189005D01*
X119241Y189019D01*
X119647Y189043D01*
X120052Y189077D01*
X120456Y189121D01*
X120858Y189174D01*
X121260Y189236D01*
X121660Y189308D01*
X122058Y189390D01*
X122454Y189481D01*
X122847Y189582D01*
X123238Y189691D01*
X123627Y189811D01*
X124012Y189939D01*
X124395Y190076D01*
X124774Y190223D01*
X125149Y190378D01*
X125521Y190543D01*
X125888Y190716D01*
X126251Y190898D01*
X126610Y191088D01*
X126965Y191287D01*
X127314Y191494D01*
X127658Y191710D01*
X127997Y191934D01*
X128331Y192165D01*
X128659Y192405D01*
X128982Y192652D01*
X129298Y192907D01*
X129608Y193170D01*
X129912Y193439D01*
X130209Y193716D01*
X130500Y194000D01*
X118429Y189000D02*
X72021Y189000D01*
X130500Y194000D02*
X140490Y203990D01*
X140490Y203989D02*
X140831Y204339D01*
X141164Y204696D01*
X141488Y205062D01*
X141803Y205434D01*
X142110Y205815D01*
X142407Y206202D01*
X142695Y206597D01*
X142973Y206998D01*
X143242Y207406D01*
X143501Y207819D01*
X143751Y208240D01*
X143990Y208665D01*
X144219Y209097D01*
X144437Y209533D01*
X144646Y209975D01*
X144843Y210422D01*
X145030Y210873D01*
X145206Y211329D01*
X145371Y211788D01*
X145526Y212252D01*
X145669Y212719D01*
X145801Y213189D01*
X145922Y213662D01*
X146031Y214138D01*
X146129Y214616D01*
X146216Y215097D01*
X146291Y215580D01*
X146355Y216064D01*
X146407Y216549D01*
X146448Y217036D01*
X146477Y217524D01*
X146494Y218012D01*
X146500Y218500D01*
X146500Y230100D01*
X146493Y230714D01*
X146470Y231327D01*
X146433Y231940D01*
X146381Y232551D01*
X146315Y233162D01*
X146233Y233770D01*
X146137Y234376D01*
X146027Y234980D01*
X145902Y235581D01*
X145762Y236179D01*
X145608Y236773D01*
X145439Y237363D01*
X145257Y237949D01*
X145060Y238530D01*
X144849Y239107D01*
X144625Y239678D01*
X144387Y240244D01*
X144135Y240804D01*
X143869Y241357D01*
X143591Y241904D01*
X143299Y242444D01*
X142994Y242977D01*
X142676Y243502D01*
X142346Y244020D01*
X142004Y244529D01*
X141649Y245030D01*
X141282Y245522D01*
X140904Y246005D01*
X140514Y246479D01*
X140112Y246943D01*
X139700Y247398D01*
X139276Y247842D01*
X138842Y248276D01*
X138398Y248700D01*
X137943Y249112D01*
X137479Y249514D01*
X137005Y249904D01*
X136522Y250282D01*
X136030Y250649D01*
X135529Y251004D01*
X135020Y251346D01*
X134502Y251676D01*
X133977Y251994D01*
X133444Y252299D01*
X132904Y252591D01*
X132357Y252869D01*
X131804Y253135D01*
X131244Y253387D01*
X130678Y253625D01*
X130107Y253849D01*
X129530Y254060D01*
X128949Y254257D01*
X128363Y254439D01*
X127773Y254608D01*
X127179Y254762D01*
X126581Y254902D01*
X125980Y255027D01*
X125376Y255137D01*
X124770Y255233D01*
X124162Y255315D01*
X123551Y255381D01*
X122940Y255433D01*
X122327Y255470D01*
X121714Y255493D01*
X121100Y255500D01*
X60500Y255500D01*
D12*
X55000Y246000D03*
X41500Y153500D03*
D14*
X41500Y163979D01*
X41509Y164698D01*
X41534Y165417D01*
X41577Y166135D01*
X41637Y166852D01*
X41714Y167568D01*
X41808Y168281D01*
X41919Y168992D01*
X42046Y169700D01*
X42191Y170404D01*
X42352Y171106D01*
X42530Y171803D01*
X42724Y172495D01*
X42935Y173183D01*
X43163Y173866D01*
X43406Y174543D01*
X43665Y175214D01*
X43941Y175878D01*
X44232Y176536D01*
X44538Y177187D01*
X44860Y177830D01*
X45198Y178466D01*
X45550Y179093D01*
X45917Y179712D01*
X46299Y180322D01*
X46695Y180922D01*
X47105Y181513D01*
X47529Y182094D01*
X47967Y182665D01*
X48419Y183225D01*
X48883Y183774D01*
X49361Y184312D01*
X49851Y184839D01*
X50354Y185353D01*
X50842Y185830D01*
X51342Y186295D01*
X51854Y186747D01*
X52376Y187186D01*
X52909Y187613D01*
X53452Y188026D01*
X54005Y188426D01*
X54568Y188812D01*
X55141Y189185D01*
X55722Y189543D01*
X56312Y189887D01*
X56910Y190216D01*
X57515Y190530D01*
X58129Y190830D01*
X58750Y191114D01*
X59377Y191383D01*
X60011Y191636D01*
X60651Y191874D01*
X61296Y192096D01*
X61947Y192302D01*
X62603Y192492D01*
X63263Y192666D01*
X63927Y192824D01*
X64595Y192966D01*
X65266Y193091D01*
X65940Y193199D01*
X66616Y193291D01*
X67295Y193366D01*
X67975Y193425D01*
X68656Y193466D01*
X69338Y193492D01*
X70021Y193500D01*
X55000Y246000D02*
X55002Y246140D01*
X55008Y246280D01*
X55018Y246420D01*
X55031Y246560D01*
X55049Y246699D01*
X55071Y246838D01*
X55096Y246975D01*
X55125Y247113D01*
X55158Y247249D01*
X55195Y247384D01*
X55236Y247518D01*
X55281Y247651D01*
X55329Y247783D01*
X55381Y247913D01*
X55436Y248042D01*
X55495Y248169D01*
X55558Y248295D01*
X55624Y248419D01*
X55693Y248540D01*
X55766Y248660D01*
X55843Y248778D01*
X55922Y248893D01*
X56005Y249007D01*
X56091Y249117D01*
X56180Y249226D01*
X56272Y249332D01*
X56367Y249435D01*
X56464Y249536D01*
X56565Y249633D01*
X56668Y249728D01*
X56774Y249820D01*
X56883Y249909D01*
X56993Y249995D01*
X57107Y250078D01*
X57222Y250157D01*
X57340Y250234D01*
X57460Y250307D01*
X57581Y250376D01*
X57705Y250442D01*
X57831Y250505D01*
X57958Y250564D01*
X58087Y250619D01*
X58217Y250671D01*
X58349Y250719D01*
X58482Y250764D01*
X58616Y250805D01*
X58751Y250842D01*
X58887Y250875D01*
X59025Y250904D01*
X59162Y250929D01*
X59301Y250951D01*
X59440Y250969D01*
X59580Y250982D01*
X59720Y250992D01*
X59860Y250998D01*
X60000Y251000D01*
X119722Y251000D01*
X128000Y197500D02*
X127767Y197273D01*
X127530Y197051D01*
X127286Y196836D01*
X127038Y196626D01*
X126785Y196422D01*
X126527Y196224D01*
X126265Y196032D01*
X125998Y195847D01*
X125727Y195668D01*
X125451Y195496D01*
X125172Y195330D01*
X124888Y195171D01*
X124601Y195018D01*
X124310Y194873D01*
X124016Y194734D01*
X123719Y194603D01*
X123419Y194478D01*
X123116Y194361D01*
X122810Y194251D01*
X122501Y194148D01*
X122191Y194053D01*
X121878Y193965D01*
X121563Y193885D01*
X121246Y193812D01*
X120928Y193747D01*
X120608Y193689D01*
X120287Y193639D01*
X119964Y193597D01*
X119641Y193562D01*
X119317Y193535D01*
X118993Y193515D01*
X118668Y193504D01*
X118343Y193500D01*
X70021Y193500D01*
X128000Y197500D02*
X137757Y207257D01*
X137757Y207258D02*
X137998Y207504D01*
X138233Y207757D01*
X138462Y208014D01*
X138685Y208278D01*
X138901Y208546D01*
X139111Y208819D01*
X139314Y209098D01*
X139511Y209381D01*
X139701Y209669D01*
X139883Y209961D01*
X140059Y210257D01*
X140228Y210558D01*
X140390Y210863D01*
X140544Y211171D01*
X140691Y211483D01*
X140830Y211798D01*
X140962Y212116D01*
X141087Y212438D01*
X141203Y212762D01*
X141312Y213090D01*
X141413Y213419D01*
X141506Y213751D01*
X141592Y214085D01*
X141669Y214421D01*
X141738Y214759D01*
X141799Y215098D01*
X141853Y215439D01*
X141898Y215780D01*
X141934Y216123D01*
X141963Y216467D01*
X141984Y216811D01*
X141996Y217155D01*
X142000Y217500D01*
X142000Y228722D01*
X141993Y229260D01*
X141974Y229798D01*
X141941Y230336D01*
X141896Y230872D01*
X141838Y231407D01*
X141766Y231941D01*
X141682Y232473D01*
X141585Y233002D01*
X141475Y233529D01*
X141353Y234053D01*
X141217Y234575D01*
X141070Y235092D01*
X140910Y235606D01*
X140737Y236116D01*
X140552Y236622D01*
X140355Y237123D01*
X140146Y237619D01*
X139925Y238110D01*
X139693Y238595D01*
X139448Y239075D01*
X139192Y239549D01*
X138925Y240016D01*
X138646Y240477D01*
X138357Y240931D01*
X138056Y241377D01*
X137745Y241817D01*
X137424Y242248D01*
X137092Y242672D01*
X136749Y243088D01*
X136397Y243495D01*
X136035Y243894D01*
X135664Y244283D01*
X135283Y244664D01*
X134894Y245035D01*
X134495Y245397D01*
X134088Y245749D01*
X133672Y246092D01*
X133248Y246424D01*
X132817Y246745D01*
X132377Y247056D01*
X131931Y247357D01*
X131477Y247646D01*
X131016Y247925D01*
X130549Y248192D01*
X130075Y248448D01*
X129595Y248693D01*
X129110Y248925D01*
X128619Y249146D01*
X128123Y249355D01*
X127622Y249552D01*
X127116Y249737D01*
X126606Y249910D01*
X126092Y250070D01*
X125575Y250217D01*
X125053Y250353D01*
X124529Y250475D01*
X124002Y250585D01*
X123473Y250682D01*
X122941Y250766D01*
X122407Y250838D01*
X121872Y250896D01*
X121336Y250941D01*
X120798Y250974D01*
X120260Y250993D01*
X119722Y251000D01*
D12*
X125000Y150000D03*
X105000Y180000D03*
X-30000Y330000D03*
X92500Y137500D03*
D14*
X114086Y159086D01*
X114183Y159180D01*
X114283Y159272D01*
X114385Y159361D01*
X114490Y159447D01*
X114597Y159530D01*
X114706Y159610D01*
X114818Y159686D01*
X114931Y159760D01*
X115047Y159830D01*
X115165Y159898D01*
X115284Y159961D01*
X115405Y160022D01*
X115528Y160079D01*
X115652Y160132D01*
X115778Y160183D01*
X115905Y160229D01*
X116034Y160272D01*
X116163Y160311D01*
X116294Y160347D01*
X116426Y160379D01*
X116558Y160407D01*
X116691Y160432D01*
X116825Y160453D01*
X116959Y160470D01*
X117094Y160483D01*
X117229Y160492D01*
X117365Y160498D01*
X117500Y160500D01*
X117618Y160502D01*
X117737Y160508D01*
X117855Y160517D01*
X117973Y160531D01*
X118090Y160548D01*
X118206Y160570D01*
X118322Y160595D01*
X118437Y160623D01*
X118551Y160656D01*
X118664Y160692D01*
X118775Y160732D01*
X118886Y160776D01*
X118994Y160823D01*
X119102Y160873D01*
X119207Y160928D01*
X119310Y160985D01*
X119412Y161046D01*
X119512Y161110D01*
X119609Y161178D01*
X119704Y161248D01*
X119797Y161322D01*
X119887Y161399D01*
X119975Y161478D01*
X120060Y161561D01*
X155561Y197060D02*
X155983Y197493D01*
X156395Y197935D01*
X156796Y198388D01*
X157186Y198849D01*
X157566Y199320D01*
X157934Y199799D01*
X158290Y200288D01*
X158635Y200784D01*
X158968Y201289D01*
X159289Y201801D01*
X159597Y202321D01*
X159893Y202848D01*
X160176Y203382D01*
X160447Y203923D01*
X160705Y204469D01*
X160949Y205022D01*
X161181Y205581D01*
X161399Y206145D01*
X161603Y206713D01*
X161794Y207287D01*
X161971Y207865D01*
X162135Y208447D01*
X162284Y209033D01*
X162420Y209622D01*
X162541Y210214D01*
X162648Y210809D01*
X162741Y211406D01*
X162820Y212006D01*
X162885Y212607D01*
X162935Y213209D01*
X162971Y213812D01*
X162993Y214417D01*
X163000Y215021D01*
X163000Y268979D02*
X162993Y269583D01*
X162971Y270188D01*
X162935Y270791D01*
X162885Y271393D01*
X162820Y271994D01*
X162741Y272594D01*
X162648Y273191D01*
X162541Y273786D01*
X162420Y274378D01*
X162284Y274967D01*
X162135Y275553D01*
X161971Y276135D01*
X161794Y276713D01*
X161603Y277287D01*
X161399Y277855D01*
X161181Y278419D01*
X160949Y278978D01*
X160705Y279531D01*
X160447Y280077D01*
X160176Y280618D01*
X159893Y281152D01*
X159597Y281679D01*
X159289Y282199D01*
X158968Y282711D01*
X158635Y283216D01*
X158290Y283712D01*
X157934Y284201D01*
X157566Y284680D01*
X157186Y285151D01*
X156796Y285612D01*
X156395Y286065D01*
X155983Y286507D01*
X155561Y286940D01*
X155561Y197061D02*
X120061Y161561D01*
X163000Y215021D02*
X163000Y268979D01*
X119940Y322561D02*
X119493Y322996D01*
X119037Y323420D01*
X118570Y323833D01*
X118093Y324234D01*
X117606Y324624D01*
X117110Y325001D01*
X116605Y325367D01*
X116090Y325719D01*
X115568Y326059D01*
X115037Y326386D01*
X114499Y326700D01*
X113952Y327001D01*
X113399Y327288D01*
X112839Y327561D01*
X112272Y327821D01*
X111699Y328067D01*
X111120Y328298D01*
X110536Y328515D01*
X109947Y328718D01*
X109352Y328906D01*
X108754Y329080D01*
X108151Y329239D01*
X107544Y329383D01*
X106934Y329512D01*
X106321Y329626D01*
X105706Y329725D01*
X105088Y329809D01*
X104469Y329878D01*
X103848Y329931D01*
X103225Y329969D01*
X102602Y329992D01*
X101979Y330000D01*
X119940Y322561D02*
X155561Y286940D01*
X101979Y330000D02*
X-30000Y330000D01*
D12*
X120000Y170000D03*
X-50000Y330000D03*
D14*
X120000Y170000D02*
X150561Y200561D01*
X150561Y200560D02*
X150983Y200993D01*
X151395Y201435D01*
X151796Y201888D01*
X152186Y202349D01*
X152566Y202820D01*
X152934Y203299D01*
X153290Y203788D01*
X153635Y204284D01*
X153968Y204789D01*
X154289Y205301D01*
X154597Y205821D01*
X154893Y206348D01*
X155176Y206882D01*
X155447Y207423D01*
X155705Y207969D01*
X155949Y208522D01*
X156181Y209081D01*
X156399Y209645D01*
X156603Y210213D01*
X156794Y210787D01*
X156971Y211365D01*
X157135Y211947D01*
X157284Y212533D01*
X157420Y213122D01*
X157541Y213714D01*
X157648Y214309D01*
X157741Y214906D01*
X157820Y215506D01*
X157885Y216107D01*
X157935Y216709D01*
X157971Y217312D01*
X157993Y217917D01*
X158000Y218521D01*
X158000Y267979D02*
X157993Y268583D01*
X157971Y269188D01*
X157935Y269791D01*
X157885Y270393D01*
X157820Y270994D01*
X157741Y271594D01*
X157648Y272191D01*
X157541Y272786D01*
X157420Y273378D01*
X157284Y273967D01*
X157135Y274553D01*
X156971Y275135D01*
X156794Y275713D01*
X156603Y276287D01*
X156399Y276855D01*
X156181Y277419D01*
X155949Y277978D01*
X155705Y278531D01*
X155447Y279077D01*
X155176Y279618D01*
X154893Y280152D01*
X154597Y280679D01*
X154289Y281199D01*
X153968Y281711D01*
X153635Y282216D01*
X153290Y282712D01*
X152934Y283201D01*
X152566Y283680D01*
X152186Y284151D01*
X151796Y284612D01*
X151395Y285065D01*
X150983Y285507D01*
X150561Y285940D01*
X158000Y267979D02*
X158000Y218521D01*
X150561Y285940D02*
X143940Y292561D01*
X143493Y292996D01*
X143037Y293420D01*
X142570Y293833D01*
X142093Y294234D01*
X141606Y294624D01*
X141110Y295001D01*
X140605Y295367D01*
X140090Y295719D01*
X139568Y296059D01*
X139037Y296386D01*
X138499Y296700D01*
X137952Y297001D01*
X137399Y297288D01*
X136839Y297561D01*
X136272Y297821D01*
X135699Y298067D01*
X135120Y298298D01*
X134536Y298515D01*
X133947Y298718D01*
X133352Y298906D01*
X132754Y299080D01*
X132151Y299239D01*
X131544Y299383D01*
X130934Y299512D01*
X130321Y299626D01*
X129706Y299725D01*
X129088Y299809D01*
X128469Y299878D01*
X127848Y299931D01*
X127225Y299969D01*
X126602Y299992D01*
X125979Y300000D01*
X102500Y311036D02*
X102500Y313964D01*
X102497Y314231D01*
X102487Y314497D01*
X102471Y314763D01*
X102448Y315029D01*
X102420Y315294D01*
X102384Y315559D01*
X102342Y315822D01*
X102294Y316084D01*
X102240Y316345D01*
X102179Y316605D01*
X102112Y316863D01*
X102039Y317120D01*
X101960Y317374D01*
X101874Y317627D01*
X101783Y317877D01*
X101685Y318126D01*
X101582Y318371D01*
X101472Y318615D01*
X101357Y318855D01*
X101236Y319093D01*
X101109Y319327D01*
X100977Y319559D01*
X100839Y319787D01*
X100695Y320012D01*
X100546Y320233D01*
X100392Y320451D01*
X100233Y320665D01*
X100068Y320875D01*
X99899Y321080D01*
X99725Y321282D01*
X99545Y321480D01*
X99361Y321673D01*
X99173Y321861D01*
X98980Y322045D01*
X98782Y322225D01*
X98580Y322399D01*
X98375Y322568D01*
X98165Y322733D01*
X97951Y322892D01*
X97733Y323046D01*
X97512Y323195D01*
X97287Y323339D01*
X97059Y323477D01*
X96827Y323609D01*
X96593Y323736D01*
X96355Y323857D01*
X96115Y323972D01*
X95871Y324082D01*
X95626Y324185D01*
X95377Y324283D01*
X95127Y324374D01*
X94874Y324460D01*
X94620Y324539D01*
X94363Y324612D01*
X94105Y324679D01*
X93845Y324740D01*
X93584Y324794D01*
X93322Y324842D01*
X93059Y324884D01*
X92794Y324920D01*
X92529Y324948D01*
X92263Y324971D01*
X91997Y324987D01*
X91731Y324997D01*
X91464Y325000D01*
X102500Y311036D02*
X102503Y310769D01*
X102513Y310503D01*
X102529Y310237D01*
X102552Y309971D01*
X102580Y309706D01*
X102616Y309441D01*
X102658Y309178D01*
X102706Y308916D01*
X102760Y308655D01*
X102821Y308395D01*
X102888Y308137D01*
X102961Y307880D01*
X103040Y307626D01*
X103126Y307373D01*
X103217Y307123D01*
X103315Y306874D01*
X103418Y306629D01*
X103528Y306385D01*
X103643Y306145D01*
X103764Y305907D01*
X103891Y305673D01*
X104023Y305441D01*
X104161Y305213D01*
X104305Y304988D01*
X104454Y304767D01*
X104608Y304549D01*
X104767Y304335D01*
X104932Y304125D01*
X105101Y303920D01*
X105275Y303718D01*
X105455Y303520D01*
X105639Y303327D01*
X105827Y303139D01*
X106020Y302955D01*
X106218Y302775D01*
X106420Y302601D01*
X106625Y302432D01*
X106835Y302267D01*
X107049Y302108D01*
X107267Y301954D01*
X107488Y301805D01*
X107713Y301661D01*
X107941Y301523D01*
X108173Y301391D01*
X108407Y301264D01*
X108645Y301143D01*
X108885Y301028D01*
X109129Y300918D01*
X109374Y300815D01*
X109623Y300717D01*
X109873Y300626D01*
X110126Y300540D01*
X110380Y300461D01*
X110637Y300388D01*
X110895Y300321D01*
X111155Y300260D01*
X111416Y300206D01*
X111678Y300158D01*
X111941Y300116D01*
X112206Y300080D01*
X112471Y300052D01*
X112737Y300029D01*
X113003Y300013D01*
X113269Y300003D01*
X113536Y300000D01*
X125979Y300000D01*
X91464Y325000D02*
X-37929Y325000D01*
X-38348Y325005D01*
X-38767Y325021D01*
X-39185Y325046D01*
X-39602Y325082D01*
X-40019Y325128D01*
X-40434Y325185D01*
X-40847Y325251D01*
X-41259Y325328D01*
X-41669Y325415D01*
X-42077Y325512D01*
X-42482Y325618D01*
X-42884Y325735D01*
X-43284Y325862D01*
X-43680Y325998D01*
X-44073Y326144D01*
X-44462Y326299D01*
X-44847Y326465D01*
X-45228Y326639D01*
X-45604Y326823D01*
X-45976Y327016D01*
X-46343Y327218D01*
X-46705Y327429D01*
X-47062Y327649D01*
X-47413Y327877D01*
X-47759Y328114D01*
X-48098Y328359D01*
X-48432Y328613D01*
X-48759Y328875D01*
X-49079Y329145D01*
X-49393Y329422D01*
X-49700Y329707D01*
X-50000Y330000D01*
D12*
X45000Y116500D03*
X43500Y106492D03*
X120000Y145000D03*
X30000Y335000D03*
D14*
X120000Y145000D02*
X126500Y145000D01*
X160061Y182560D02*
X160483Y182993D01*
X160895Y183435D01*
X161296Y183888D01*
X161686Y184349D01*
X162066Y184820D01*
X162434Y185299D01*
X162790Y185788D01*
X163135Y186284D01*
X163468Y186789D01*
X163789Y187301D01*
X164097Y187821D01*
X164393Y188348D01*
X164676Y188882D01*
X164947Y189423D01*
X165205Y189969D01*
X165449Y190522D01*
X165681Y191081D01*
X165899Y191645D01*
X166103Y192213D01*
X166294Y192787D01*
X166471Y193365D01*
X166635Y193947D01*
X166784Y194533D01*
X166920Y195122D01*
X167041Y195714D01*
X167148Y196309D01*
X167241Y196906D01*
X167320Y197506D01*
X167385Y198107D01*
X167435Y198709D01*
X167471Y199312D01*
X167493Y199917D01*
X167500Y200521D01*
X143475Y165975D02*
X143334Y165831D01*
X143197Y165684D01*
X143064Y165534D01*
X142934Y165380D01*
X142808Y165223D01*
X142685Y165064D01*
X142567Y164901D01*
X142452Y164736D01*
X142341Y164568D01*
X142235Y164398D01*
X142132Y164225D01*
X142034Y164050D01*
X141939Y163872D01*
X141849Y163692D01*
X141764Y163510D01*
X141682Y163326D01*
X141605Y163141D01*
X141533Y162953D01*
X141465Y162764D01*
X141401Y162573D01*
X141342Y162381D01*
X141288Y162187D01*
X141238Y161992D01*
X141193Y161796D01*
X141153Y161599D01*
X141117Y161401D01*
X141086Y161203D01*
X141060Y161003D01*
X141038Y160803D01*
X141022Y160603D01*
X141010Y160402D01*
X141002Y160201D01*
X141000Y160000D01*
X141000Y159500D01*
X140996Y159150D01*
X140983Y158799D01*
X140962Y158450D01*
X140932Y158101D01*
X140894Y157752D01*
X140848Y157405D01*
X140793Y157059D01*
X140730Y156714D01*
X140658Y156371D01*
X140579Y156030D01*
X140491Y155691D01*
X140395Y155354D01*
X140290Y155019D01*
X140178Y154687D01*
X140058Y154358D01*
X139930Y154032D01*
X139793Y153709D01*
X139650Y153390D01*
X139498Y153074D01*
X139339Y152762D01*
X139173Y152453D01*
X138999Y152149D01*
X138817Y151849D01*
X138629Y151554D01*
X138433Y151263D01*
X138231Y150977D01*
X138021Y150696D01*
X137805Y150420D01*
X137583Y150150D01*
X137353Y149885D01*
X137118Y149625D01*
X136876Y149372D01*
X136628Y149124D01*
X136375Y148882D01*
X136115Y148647D01*
X135850Y148417D01*
X135580Y148195D01*
X135304Y147979D01*
X135023Y147769D01*
X134737Y147567D01*
X134446Y147371D01*
X134151Y147183D01*
X133851Y147001D01*
X133547Y146827D01*
X133238Y146661D01*
X132926Y146502D01*
X132610Y146350D01*
X132291Y146207D01*
X131968Y146070D01*
X131642Y145942D01*
X131313Y145822D01*
X130981Y145710D01*
X130646Y145605D01*
X130309Y145509D01*
X129970Y145421D01*
X129629Y145342D01*
X129286Y145270D01*
X128941Y145207D01*
X128595Y145152D01*
X128248Y145106D01*
X127899Y145068D01*
X127550Y145038D01*
X127201Y145017D01*
X126850Y145004D01*
X126500Y145000D01*
X143475Y165975D02*
X160061Y182561D01*
X167500Y200521D02*
X167500Y270979D01*
X167493Y271583D01*
X167471Y272188D01*
X167435Y272791D01*
X167385Y273393D01*
X167320Y273994D01*
X167241Y274594D01*
X167148Y275191D01*
X167041Y275786D01*
X166920Y276378D01*
X166784Y276967D01*
X166635Y277553D01*
X166471Y278135D01*
X166294Y278713D01*
X166103Y279287D01*
X165899Y279855D01*
X165681Y280419D01*
X165449Y280978D01*
X165205Y281531D01*
X164947Y282077D01*
X164676Y282618D01*
X164393Y283152D01*
X164097Y283679D01*
X163789Y284199D01*
X163468Y284711D01*
X163135Y285216D01*
X162790Y285712D01*
X162434Y286201D01*
X162066Y286680D01*
X161686Y287151D01*
X161296Y287612D01*
X160895Y288065D01*
X160483Y288507D01*
X160061Y288940D01*
X121440Y327561D02*
X120993Y327996D01*
X120537Y328420D01*
X120070Y328833D01*
X119593Y329234D01*
X119106Y329624D01*
X118610Y330001D01*
X118105Y330367D01*
X117590Y330719D01*
X117068Y331059D01*
X116537Y331386D01*
X115999Y331700D01*
X115452Y332001D01*
X114899Y332288D01*
X114339Y332561D01*
X113772Y332821D01*
X113199Y333067D01*
X112620Y333298D01*
X112036Y333515D01*
X111447Y333718D01*
X110852Y333906D01*
X110254Y334080D01*
X109651Y334239D01*
X109044Y334383D01*
X108434Y334512D01*
X107821Y334626D01*
X107206Y334725D01*
X106588Y334809D01*
X105969Y334878D01*
X105348Y334931D01*
X104725Y334969D01*
X104102Y334992D01*
X103479Y335000D01*
X30000Y335000D01*
X121440Y327561D02*
X160061Y288940D01*
D12*
X-30000Y355500D03*
X-41000Y362500D03*
X30000Y355000D03*
X-50500Y104750D03*
X67500Y166500D03*
X72500Y147500D03*
X12500Y150000D03*
X73000Y142500D03*
X17500Y154000D03*
X-20000Y117500D03*
D14*
X-20000Y168479D01*
X-20008Y169102D01*
X-20031Y169725D01*
X-20069Y170348D01*
X-20122Y170969D01*
X-20191Y171588D01*
X-20275Y172206D01*
X-20374Y172821D01*
X-20488Y173434D01*
X-20617Y174044D01*
X-20761Y174651D01*
X-20920Y175254D01*
X-21094Y175852D01*
X-21282Y176447D01*
X-21485Y177036D01*
X-21702Y177620D01*
X-21933Y178199D01*
X-22179Y178772D01*
X-22439Y179339D01*
X-22712Y179899D01*
X-22999Y180452D01*
X-23300Y180999D01*
X-23614Y181537D01*
X-23941Y182068D01*
X-24281Y182590D01*
X-24633Y183105D01*
X-24999Y183610D01*
X-25376Y184106D01*
X-25766Y184593D01*
X-26167Y185070D01*
X-26580Y185537D01*
X-27004Y185993D01*
X-27439Y186440D01*
X-27440Y186440D02*
X-56561Y215561D01*
X-56560Y215561D02*
X-57007Y215996D01*
X-57463Y216420D01*
X-57930Y216833D01*
X-58407Y217234D01*
X-58894Y217624D01*
X-59390Y218001D01*
X-59895Y218367D01*
X-60410Y218719D01*
X-60932Y219059D01*
X-61463Y219386D01*
X-62001Y219700D01*
X-62548Y220001D01*
X-63101Y220288D01*
X-63661Y220561D01*
X-64228Y220821D01*
X-64801Y221067D01*
X-65380Y221298D01*
X-65964Y221515D01*
X-66553Y221718D01*
X-67148Y221906D01*
X-67746Y222080D01*
X-68349Y222239D01*
X-68956Y222383D01*
X-69566Y222512D01*
X-70179Y222626D01*
X-70794Y222725D01*
X-71412Y222809D01*
X-72031Y222878D01*
X-72652Y222931D01*
X-73275Y222969D01*
X-73898Y222992D01*
X-74521Y223000D01*
D12*
X-99500Y213000D03*
D14*
X-99500Y219000D01*
X-99498Y219126D01*
X-99492Y219251D01*
X-99482Y219376D01*
X-99468Y219501D01*
X-99451Y219626D01*
X-99429Y219750D01*
X-99404Y219873D01*
X-99374Y219995D01*
X-99341Y220116D01*
X-99304Y220236D01*
X-99264Y220355D01*
X-99219Y220472D01*
X-99171Y220589D01*
X-99119Y220703D01*
X-99064Y220816D01*
X-99005Y220927D01*
X-98943Y221036D01*
X-98877Y221143D01*
X-98808Y221248D01*
X-98736Y221351D01*
X-98661Y221452D01*
X-98582Y221550D01*
X-98500Y221645D01*
X-98416Y221738D01*
X-98328Y221828D01*
X-98238Y221916D01*
X-98145Y222000D01*
X-98050Y222082D01*
X-97952Y222161D01*
X-97851Y222236D01*
X-97748Y222308D01*
X-97643Y222377D01*
X-97536Y222443D01*
X-97427Y222505D01*
X-97316Y222564D01*
X-97203Y222619D01*
X-97089Y222671D01*
X-96972Y222719D01*
X-96855Y222764D01*
X-96736Y222804D01*
X-96616Y222841D01*
X-96495Y222874D01*
X-96373Y222904D01*
X-96250Y222929D01*
X-96126Y222951D01*
X-96001Y222968D01*
X-95876Y222982D01*
X-95751Y222992D01*
X-95626Y222998D01*
X-95500Y223000D01*
X-74521Y223000D01*
D12*
X7500Y90000D03*
D14*
X7500Y95879D01*
X7498Y96018D01*
X7492Y96156D01*
X7483Y96295D01*
X7470Y96433D01*
X7453Y96570D01*
X7433Y96707D01*
X7408Y96844D01*
X7380Y96980D01*
X7349Y97115D01*
X7313Y97249D01*
X7274Y97382D01*
X7232Y97514D01*
X7186Y97645D01*
X7136Y97774D01*
X7083Y97903D01*
X7027Y98029D01*
X6967Y98154D01*
X6903Y98278D01*
X6837Y98399D01*
X6767Y98519D01*
X6694Y98637D01*
X6618Y98753D01*
X6538Y98867D01*
X6456Y98978D01*
X6370Y99087D01*
X6282Y99194D01*
X6191Y99299D01*
X6097Y99401D01*
X6000Y99500D01*
X5922Y99580D01*
X5847Y99663D01*
X5775Y99748D01*
X5705Y99836D01*
X5639Y99925D01*
X5575Y100017D01*
X5515Y100111D01*
X5457Y100207D01*
X5403Y100305D01*
X5352Y100404D01*
X5304Y100505D01*
X5260Y100608D01*
X5219Y100711D01*
X5181Y100817D01*
X5147Y100923D01*
X5116Y101030D01*
X5089Y101139D01*
X5066Y101248D01*
X5046Y101358D01*
X5029Y101468D01*
X5016Y101579D01*
X5007Y101691D01*
X5002Y101802D01*
X5000Y101914D01*
X5000Y187979D01*
D12*
X-20000Y241000D03*
D15*
X-2440Y223440D01*
X-2439Y223440D02*
X-2004Y222993D01*
X-1580Y222537D01*
X-1167Y222070D01*
X-766Y221593D01*
X-376Y221106D01*
X1Y220610D01*
X367Y220105D01*
X719Y219590D01*
X1059Y219068D01*
X1386Y218537D01*
X1700Y217999D01*
X2001Y217452D01*
X2288Y216899D01*
X2561Y216339D01*
X2821Y215772D01*
X3067Y215199D01*
X3298Y214620D01*
X3515Y214036D01*
X3718Y213447D01*
X3906Y212852D01*
X4080Y212254D01*
X4239Y211651D01*
X4383Y211044D01*
X4512Y210434D01*
X4626Y209821D01*
X4725Y209206D01*
X4809Y208588D01*
X4878Y207969D01*
X4931Y207348D01*
X4969Y206725D01*
X4992Y206102D01*
X5000Y205479D01*
X5000Y187979D01*
D12*
X12500Y85000D03*
D14*
X12500Y97086D01*
X12502Y97198D01*
X12507Y97309D01*
X12516Y97421D01*
X12529Y97532D01*
X12546Y97642D01*
X12566Y97752D01*
X12589Y97861D01*
X12616Y97970D01*
X12647Y98077D01*
X12681Y98183D01*
X12719Y98289D01*
X12760Y98392D01*
X12804Y98495D01*
X12852Y98596D01*
X12903Y98695D01*
X12957Y98793D01*
X13015Y98889D01*
X13075Y98983D01*
X13139Y99075D01*
X13205Y99164D01*
X13275Y99252D01*
X13347Y99337D01*
X13422Y99420D01*
X13500Y99500D01*
X13597Y99599D01*
X13691Y99701D01*
X13782Y99806D01*
X13870Y99913D01*
X13956Y100022D01*
X14038Y100133D01*
X14118Y100247D01*
X14194Y100363D01*
X14267Y100481D01*
X14337Y100601D01*
X14403Y100722D01*
X14467Y100846D01*
X14527Y100971D01*
X14583Y101097D01*
X14636Y101226D01*
X14686Y101355D01*
X14732Y101486D01*
X14774Y101618D01*
X14813Y101751D01*
X14849Y101885D01*
X14880Y102020D01*
X14908Y102156D01*
X14933Y102293D01*
X14953Y102430D01*
X14970Y102567D01*
X14983Y102705D01*
X14992Y102844D01*
X14998Y102982D01*
X15000Y103121D01*
X23000Y168479D02*
X23007Y169083D01*
X23029Y169688D01*
X23065Y170291D01*
X23115Y170893D01*
X23180Y171494D01*
X23259Y172094D01*
X23352Y172691D01*
X23459Y173286D01*
X23580Y173878D01*
X23716Y174467D01*
X23865Y175053D01*
X24029Y175635D01*
X24206Y176213D01*
X24397Y176787D01*
X24601Y177355D01*
X24819Y177919D01*
X25051Y178478D01*
X25295Y179031D01*
X25553Y179577D01*
X25824Y180118D01*
X26107Y180652D01*
X26403Y181179D01*
X26711Y181699D01*
X27032Y182211D01*
X27365Y182716D01*
X27710Y183212D01*
X28066Y183701D01*
X28434Y184180D01*
X28814Y184651D01*
X29204Y185112D01*
X29605Y185565D01*
X30017Y186007D01*
X30439Y186440D01*
X19000Y147500D02*
X18773Y147267D01*
X18551Y147030D01*
X18336Y146786D01*
X18126Y146538D01*
X17922Y146285D01*
X17724Y146027D01*
X17532Y145765D01*
X17347Y145498D01*
X17168Y145227D01*
X16996Y144951D01*
X16830Y144672D01*
X16671Y144388D01*
X16518Y144101D01*
X16373Y143810D01*
X16234Y143516D01*
X16103Y143219D01*
X15978Y142919D01*
X15861Y142616D01*
X15751Y142310D01*
X15648Y142001D01*
X15553Y141691D01*
X15465Y141378D01*
X15385Y141063D01*
X15312Y140746D01*
X15247Y140428D01*
X15189Y140108D01*
X15139Y139787D01*
X15097Y139464D01*
X15062Y139141D01*
X15035Y138817D01*
X15015Y138493D01*
X15004Y138168D01*
X15000Y137843D01*
X19000Y147500D02*
X19234Y147740D01*
X19462Y147986D01*
X19684Y148237D01*
X19900Y148493D01*
X20109Y148755D01*
X20312Y149022D01*
X20509Y149293D01*
X20698Y149570D01*
X20881Y149851D01*
X21057Y150136D01*
X21226Y150425D01*
X21387Y150719D01*
X21542Y151017D01*
X21689Y151318D01*
X21828Y151623D01*
X21960Y151931D01*
X22085Y152242D01*
X22202Y152556D01*
X22311Y152873D01*
X22412Y153193D01*
X22505Y153514D01*
X22591Y153839D01*
X22668Y154165D01*
X22738Y154493D01*
X22799Y154822D01*
X22852Y155153D01*
X22897Y155485D01*
X22934Y155818D01*
X22963Y156152D01*
X22984Y156487D01*
X22996Y156822D01*
X23000Y157157D01*
X23000Y168479D01*
X15000Y137843D02*
X15000Y103121D01*
X30440Y186440D02*
X49050Y205050D01*
X49050Y205051D02*
X49338Y205332D01*
X49632Y205606D01*
X49933Y205873D01*
X50240Y206133D01*
X50553Y206385D01*
X50872Y206630D01*
X51197Y206867D01*
X51527Y207097D01*
X51863Y207318D01*
X52204Y207532D01*
X52550Y207737D01*
X52901Y207934D01*
X53256Y208122D01*
X53616Y208302D01*
X53979Y208474D01*
X54347Y208636D01*
X54719Y208790D01*
X55094Y208935D01*
X55473Y209072D01*
X55854Y209199D01*
X56239Y209316D01*
X56626Y209425D01*
X57016Y209525D01*
X57408Y209615D01*
X57802Y209696D01*
X58197Y209767D01*
X58595Y209829D01*
X58994Y209881D01*
X59394Y209924D01*
X59794Y209958D01*
X60196Y209982D01*
X60598Y209996D01*
X61000Y210001D01*
D15*
X61000Y210000D02*
X65429Y210000D01*
D12*
X76500Y236500D03*
D15*
X76500Y221071D01*
X76497Y220803D01*
X76487Y220536D01*
X76471Y220269D01*
X76448Y220002D01*
X76419Y219737D01*
X76384Y219471D01*
X76342Y219207D01*
X76294Y218944D01*
X76239Y218682D01*
X76178Y218422D01*
X76111Y218163D01*
X76038Y217905D01*
X75958Y217650D01*
X75872Y217396D01*
X75781Y217145D01*
X75683Y216896D01*
X75579Y216650D01*
X75469Y216406D01*
X75353Y216164D01*
X75232Y215926D01*
X75105Y215691D01*
X74972Y215458D01*
X74833Y215229D01*
X74690Y215004D01*
X74540Y214782D01*
X74386Y214564D01*
X74226Y214349D01*
X74061Y214139D01*
X73891Y213932D01*
X73716Y213730D01*
X73536Y213531D01*
X73351Y213338D01*
X73162Y213149D01*
X72969Y212964D01*
X72770Y212784D01*
X72568Y212609D01*
X72361Y212439D01*
X72151Y212274D01*
X71936Y212114D01*
X71718Y211960D01*
X71496Y211810D01*
X71271Y211667D01*
X71042Y211528D01*
X70809Y211395D01*
X70574Y211268D01*
X70336Y211147D01*
X70094Y211031D01*
X69850Y210921D01*
X69604Y210817D01*
X69355Y210719D01*
X69104Y210628D01*
X68850Y210542D01*
X68595Y210462D01*
X68337Y210389D01*
X68078Y210322D01*
X67818Y210261D01*
X67556Y210206D01*
X67293Y210158D01*
X67029Y210116D01*
X66763Y210081D01*
X66498Y210052D01*
X66231Y210029D01*
X65964Y210013D01*
X65697Y210003D01*
X65429Y210000D01*
D12*
X-20000Y107500D03*
D14*
X-17828Y109672D01*
X-17828Y109671D02*
X-17668Y109836D01*
X-17511Y110004D01*
X-17359Y110176D01*
X-17210Y110351D01*
X-17066Y110530D01*
X-16926Y110713D01*
X-16791Y110898D01*
X-16660Y111087D01*
X-16533Y111279D01*
X-16411Y111474D01*
X-16294Y111671D01*
X-16181Y111872D01*
X-16074Y112075D01*
X-15971Y112280D01*
X-15873Y112488D01*
X-15780Y112699D01*
X-15692Y112911D01*
X-15609Y113125D01*
X-15531Y113341D01*
X-15459Y113560D01*
X-15391Y113779D01*
X-15329Y114001D01*
X-15272Y114223D01*
X-15221Y114447D01*
X-15175Y114672D01*
X-15134Y114899D01*
X-15098Y115126D01*
X-15068Y115354D01*
X-15044Y115582D01*
X-15025Y115811D01*
X-15011Y116040D01*
X-15003Y116270D01*
X-15000Y116500D01*
X-15000Y169479D01*
X-15008Y170170D01*
X-15033Y170860D01*
X-15074Y171549D01*
X-15131Y172238D01*
X-15205Y172924D01*
X-15295Y173609D01*
X-15402Y174292D01*
X-15524Y174971D01*
X-15663Y175648D01*
X-15818Y176321D01*
X-15989Y176990D01*
X-16176Y177655D01*
X-16378Y178316D01*
X-16596Y178971D01*
X-16830Y179621D01*
X-17079Y180265D01*
X-17343Y180903D01*
X-17623Y181535D01*
X-17917Y182160D01*
X-18226Y182777D01*
X-18550Y183387D01*
X-18888Y183990D01*
X-19241Y184583D01*
X-19607Y185169D01*
X-19987Y185745D01*
X-20381Y186313D01*
X-20788Y186871D01*
X-21209Y187419D01*
X-21642Y187956D01*
X-22088Y188484D01*
X-22547Y189000D01*
X-23018Y189506D01*
X-23500Y190000D01*
D12*
X-75000Y250000D03*
D14*
X-68990Y235490D02*
X-23500Y190000D01*
X-68990Y235489D02*
X-69331Y235839D01*
X-69664Y236196D01*
X-69988Y236562D01*
X-70303Y236934D01*
X-70610Y237315D01*
X-70907Y237702D01*
X-71195Y238097D01*
X-71473Y238498D01*
X-71742Y238906D01*
X-72001Y239319D01*
X-72251Y239740D01*
X-72490Y240165D01*
X-72719Y240597D01*
X-72937Y241033D01*
X-73146Y241475D01*
X-73343Y241922D01*
X-73530Y242373D01*
X-73706Y242829D01*
X-73871Y243288D01*
X-74026Y243752D01*
X-74169Y244219D01*
X-74301Y244689D01*
X-74422Y245162D01*
X-74531Y245638D01*
X-74629Y246116D01*
X-74716Y246597D01*
X-74791Y247080D01*
X-74855Y247564D01*
X-74907Y248049D01*
X-74948Y248536D01*
X-74977Y249024D01*
X-74994Y249512D01*
X-75000Y250000D01*
D12*
X-2500Y90000D03*
D14*
X-2561Y90061D01*
X-2561Y90060D02*
X-2983Y90493D01*
X-3395Y90935D01*
X-3796Y91388D01*
X-4186Y91849D01*
X-4566Y92320D01*
X-4934Y92799D01*
X-5290Y93288D01*
X-5635Y93784D01*
X-5968Y94289D01*
X-6289Y94801D01*
X-6597Y95321D01*
X-6893Y95848D01*
X-7176Y96382D01*
X-7447Y96923D01*
X-7705Y97469D01*
X-7949Y98022D01*
X-8181Y98581D01*
X-8399Y99145D01*
X-8603Y99713D01*
X-8794Y100287D01*
X-8971Y100865D01*
X-9135Y101447D01*
X-9284Y102033D01*
X-9420Y102622D01*
X-9541Y103214D01*
X-9648Y103809D01*
X-9741Y104406D01*
X-9820Y105006D01*
X-9885Y105607D01*
X-9935Y106209D01*
X-9971Y106812D01*
X-9993Y107417D01*
X-10000Y108021D01*
D12*
X-35016Y246000D03*
D15*
X-10000Y172979D02*
X-10000Y108021D01*
X-10000Y172979D02*
X-10008Y173602D01*
X-10031Y174225D01*
X-10069Y174848D01*
X-10122Y175469D01*
X-10191Y176088D01*
X-10275Y176706D01*
X-10374Y177321D01*
X-10488Y177934D01*
X-10617Y178544D01*
X-10761Y179151D01*
X-10920Y179754D01*
X-11094Y180352D01*
X-11282Y180947D01*
X-11485Y181536D01*
X-11702Y182120D01*
X-11933Y182699D01*
X-12179Y183272D01*
X-12439Y183839D01*
X-12712Y184399D01*
X-12999Y184952D01*
X-13300Y185499D01*
X-13614Y186037D01*
X-13941Y186568D01*
X-14281Y187090D01*
X-14633Y187605D01*
X-14999Y188110D01*
X-15376Y188606D01*
X-15766Y189093D01*
X-16167Y189570D01*
X-16580Y190037D01*
X-17004Y190493D01*
X-17439Y190940D01*
X-17440Y190940D02*
X-22000Y195500D01*
X-22255Y195762D01*
X-22505Y196029D01*
X-22747Y196303D01*
X-22983Y196582D01*
X-23213Y196867D01*
X-23436Y197157D01*
X-23651Y197452D01*
X-23860Y197752D01*
X-24061Y198058D01*
X-24255Y198368D01*
X-24442Y198682D01*
X-24621Y199001D01*
X-24792Y199324D01*
X-24956Y199651D01*
X-25112Y199982D01*
X-25260Y200316D01*
X-25399Y200654D01*
X-25531Y200995D01*
X-25655Y201339D01*
X-25770Y201686D01*
X-25878Y202035D01*
X-25976Y202388D01*
X-26067Y202742D01*
X-26149Y203098D01*
X-26222Y203456D01*
X-26287Y203816D01*
X-26344Y204177D01*
X-26391Y204540D01*
X-26430Y204904D01*
X-26461Y205268D01*
X-26483Y205633D01*
X-26496Y205998D01*
X-26500Y206364D01*
X-26500Y207500D01*
D14*
X-26500Y229963D01*
X-26505Y230395D01*
X-26521Y230827D01*
X-26546Y231258D01*
X-26582Y231689D01*
X-26628Y232119D01*
X-26685Y232547D01*
X-26751Y232974D01*
X-26828Y233399D01*
X-26915Y233823D01*
X-27012Y234244D01*
X-27119Y234662D01*
X-27235Y235078D01*
X-27362Y235492D01*
X-27499Y235902D01*
X-27645Y236308D01*
X-27801Y236711D01*
X-27966Y237111D01*
X-28141Y237506D01*
X-28325Y237897D01*
X-28518Y238283D01*
X-28721Y238665D01*
X-28933Y239042D01*
X-29153Y239413D01*
X-29382Y239779D01*
X-29620Y240140D01*
X-29867Y240495D01*
X-30122Y240844D01*
X-30385Y241187D01*
X-30656Y241523D01*
X-30935Y241853D01*
X-31222Y242177D01*
X-31516Y242493D01*
X-31818Y242802D01*
X-35016Y246000D01*
D12*
X22500Y85000D03*
D14*
X22500Y84999D02*
X22897Y85406D01*
X23285Y85822D01*
X23662Y86248D01*
X24030Y86682D01*
X24387Y87125D01*
X24733Y87576D01*
X25068Y88036D01*
X25393Y88503D01*
X25706Y88978D01*
X26008Y89460D01*
X26298Y89949D01*
X26577Y90445D01*
X26843Y90947D01*
X27098Y91456D01*
X27340Y91971D01*
X27570Y92491D01*
X27788Y93016D01*
X27993Y93547D01*
X28186Y94082D01*
X28365Y94622D01*
X28532Y95166D01*
X28686Y95713D01*
X28826Y96264D01*
X28954Y96819D01*
X29068Y97376D01*
X29169Y97936D01*
X29257Y98498D01*
X29331Y99062D01*
X29392Y99627D01*
X29439Y100194D01*
X29473Y100762D01*
X29493Y101330D01*
X29500Y101899D01*
X32500Y164479D02*
X32507Y165083D01*
X32529Y165688D01*
X32565Y166291D01*
X32615Y166893D01*
X32680Y167494D01*
X32759Y168094D01*
X32852Y168691D01*
X32959Y169286D01*
X33080Y169878D01*
X33216Y170467D01*
X33365Y171053D01*
X33529Y171635D01*
X33706Y172213D01*
X33897Y172787D01*
X34101Y173355D01*
X34319Y173919D01*
X34551Y174478D01*
X34795Y175031D01*
X35053Y175577D01*
X35324Y176118D01*
X35607Y176652D01*
X35903Y177179D01*
X36211Y177699D01*
X36532Y178211D01*
X36865Y178716D01*
X37210Y179212D01*
X37566Y179701D01*
X37934Y180180D01*
X38314Y180651D01*
X38704Y181112D01*
X39105Y181565D01*
X39517Y182007D01*
X39939Y182440D01*
X30500Y148500D02*
X30422Y148420D01*
X30347Y148337D01*
X30275Y148252D01*
X30205Y148164D01*
X30139Y148075D01*
X30075Y147983D01*
X30015Y147889D01*
X29957Y147793D01*
X29903Y147695D01*
X29852Y147596D01*
X29804Y147495D01*
X29760Y147392D01*
X29719Y147289D01*
X29681Y147183D01*
X29647Y147077D01*
X29616Y146970D01*
X29589Y146861D01*
X29566Y146752D01*
X29546Y146642D01*
X29529Y146532D01*
X29516Y146421D01*
X29507Y146309D01*
X29502Y146198D01*
X29500Y146086D01*
X30500Y148500D02*
X30617Y148620D01*
X30731Y148743D01*
X30842Y148868D01*
X30950Y148996D01*
X31055Y149127D01*
X31156Y149261D01*
X31254Y149396D01*
X31349Y149535D01*
X31441Y149675D01*
X31529Y149818D01*
X31613Y149962D01*
X31694Y150109D01*
X31771Y150258D01*
X31844Y150409D01*
X31914Y150561D01*
X31980Y150715D01*
X32042Y150871D01*
X32101Y151028D01*
X32155Y151186D01*
X32206Y151346D01*
X32253Y151507D01*
X32295Y151669D01*
X32334Y151832D01*
X32369Y151996D01*
X32399Y152161D01*
X32426Y152326D01*
X32449Y152492D01*
X32467Y152659D01*
X32481Y152826D01*
X32492Y152993D01*
X32498Y153160D01*
X32500Y153328D01*
X32500Y164479D01*
X29500Y146086D02*
X29500Y101900D01*
X54318Y196818D02*
X54503Y196999D01*
X54692Y197175D01*
X54886Y197346D01*
X55083Y197513D01*
X55284Y197676D01*
X55489Y197833D01*
X55698Y197986D01*
X55911Y198133D01*
X56126Y198275D01*
X56346Y198413D01*
X56568Y198545D01*
X56793Y198671D01*
X57022Y198792D01*
X57253Y198908D01*
X57487Y199018D01*
X57723Y199123D01*
X57962Y199222D01*
X58203Y199315D01*
X58447Y199402D01*
X58692Y199484D01*
X58939Y199560D01*
X59188Y199630D01*
X59439Y199694D01*
X59691Y199752D01*
X59944Y199804D01*
X60198Y199850D01*
X60454Y199889D01*
X60710Y199923D01*
X60967Y199951D01*
X61225Y199972D01*
X61483Y199988D01*
X61741Y199997D01*
X62000Y200000D01*
X54318Y196818D02*
X39940Y182440D01*
X62000Y200000D02*
X70000Y200000D01*
D12*
X101000Y207000D03*
D15*
X101001Y207000D02*
X100594Y206603D01*
X100178Y206215D01*
X99752Y205838D01*
X99318Y205470D01*
X98875Y205113D01*
X98424Y204767D01*
X97964Y204432D01*
X97497Y204107D01*
X97022Y203794D01*
X96540Y203492D01*
X96051Y203202D01*
X95555Y202923D01*
X95053Y202657D01*
X94544Y202402D01*
X94029Y202160D01*
X93509Y201930D01*
X92984Y201712D01*
X92453Y201507D01*
X91918Y201314D01*
X91378Y201135D01*
X90834Y200968D01*
X90287Y200814D01*
X89736Y200674D01*
X89181Y200546D01*
X88624Y200432D01*
X88064Y200331D01*
X87502Y200243D01*
X86938Y200169D01*
X86373Y200108D01*
X85806Y200061D01*
X85238Y200027D01*
X84670Y200007D01*
X84101Y200000D01*
X70000Y200000D01*
D12*
X-6000Y208500D03*
X2500Y85000D03*
D14*
X2500Y91379D01*
X2498Y91518D01*
X2492Y91656D01*
X2483Y91795D01*
X2470Y91933D01*
X2453Y92070D01*
X2433Y92207D01*
X2408Y92344D01*
X2380Y92480D01*
X2349Y92615D01*
X2313Y92749D01*
X2274Y92882D01*
X2232Y93014D01*
X2186Y93145D01*
X2136Y93274D01*
X2083Y93403D01*
X2027Y93529D01*
X1967Y93654D01*
X1903Y93778D01*
X1837Y93899D01*
X1767Y94019D01*
X1694Y94137D01*
X1618Y94253D01*
X1538Y94367D01*
X1456Y94478D01*
X1370Y94587D01*
X1282Y94694D01*
X1191Y94799D01*
X1097Y94901D01*
X1000Y95000D01*
X659Y95349D01*
X327Y95706D01*
X3Y96070D01*
X-311Y96442D01*
X-617Y96822D01*
X-914Y97209D01*
X-1202Y97603D01*
X-1480Y98003D01*
X-1748Y98410D01*
X-2007Y98823D01*
X-2256Y99242D01*
X-2494Y99668D01*
X-2723Y100098D01*
X-2941Y100534D01*
X-3149Y100975D01*
X-3346Y101421D01*
X-3533Y101871D01*
X-3708Y102326D01*
X-3873Y102785D01*
X-4027Y103248D01*
X-4170Y103714D01*
X-4302Y104183D01*
X-4423Y104655D01*
X-4532Y105131D01*
X-4630Y105608D01*
X-4716Y106088D01*
X-4791Y106570D01*
X-4855Y107053D01*
X-4907Y107538D01*
X-4948Y108024D01*
X-4977Y108510D01*
X-4994Y108998D01*
X-5000Y109485D01*
X-5000Y206086D02*
X-5002Y206198D01*
X-5007Y206309D01*
X-5016Y206421D01*
X-5029Y206532D01*
X-5046Y206642D01*
X-5066Y206752D01*
X-5089Y206861D01*
X-5116Y206970D01*
X-5147Y207077D01*
X-5181Y207183D01*
X-5219Y207289D01*
X-5260Y207392D01*
X-5304Y207495D01*
X-5352Y207596D01*
X-5403Y207695D01*
X-5457Y207793D01*
X-5515Y207889D01*
X-5575Y207983D01*
X-5639Y208075D01*
X-5705Y208164D01*
X-5775Y208252D01*
X-5847Y208337D01*
X-5922Y208420D01*
X-6000Y208500D01*
X-5000Y206086D02*
X-5000Y109485D01*
D12*
X115000Y180000D03*
X85000Y180000D03*
X95000Y180000D03*
X100000Y175000D03*
X105500Y241500D03*
X17500Y90000D03*
D14*
X17561Y90061D01*
X17561Y90060D02*
X17983Y90493D01*
X18395Y90935D01*
X18796Y91388D01*
X19186Y91849D01*
X19566Y92320D01*
X19934Y92799D01*
X20290Y93288D01*
X20635Y93784D01*
X20968Y94289D01*
X21289Y94801D01*
X21597Y95321D01*
X21893Y95848D01*
X22176Y96382D01*
X22447Y96923D01*
X22705Y97469D01*
X22949Y98022D01*
X23181Y98581D01*
X23399Y99145D01*
X23603Y99713D01*
X23794Y100287D01*
X23971Y100865D01*
X24135Y101447D01*
X24284Y102033D01*
X24420Y102622D01*
X24541Y103214D01*
X24648Y103809D01*
X24741Y104406D01*
X24820Y105006D01*
X24885Y105607D01*
X24935Y106209D01*
X24971Y106812D01*
X24993Y107417D01*
X25000Y108021D01*
X27500Y166479D02*
X27507Y167083D01*
X27529Y167688D01*
X27565Y168291D01*
X27615Y168893D01*
X27680Y169494D01*
X27759Y170094D01*
X27852Y170691D01*
X27959Y171286D01*
X28080Y171878D01*
X28216Y172467D01*
X28365Y173053D01*
X28529Y173635D01*
X28706Y174213D01*
X28897Y174787D01*
X29101Y175355D01*
X29319Y175919D01*
X29551Y176478D01*
X29795Y177031D01*
X30053Y177577D01*
X30324Y178118D01*
X30607Y178652D01*
X30903Y179179D01*
X31211Y179699D01*
X31532Y180211D01*
X31865Y180716D01*
X32210Y181212D01*
X32566Y181701D01*
X32934Y182180D01*
X33314Y182651D01*
X33704Y183112D01*
X34105Y183565D01*
X34517Y184007D01*
X34939Y184440D01*
X26000Y150000D02*
X25922Y149920D01*
X25847Y149837D01*
X25775Y149752D01*
X25705Y149664D01*
X25639Y149575D01*
X25575Y149483D01*
X25515Y149389D01*
X25457Y149293D01*
X25403Y149195D01*
X25352Y149096D01*
X25304Y148995D01*
X25260Y148892D01*
X25219Y148789D01*
X25181Y148683D01*
X25147Y148577D01*
X25116Y148470D01*
X25089Y148361D01*
X25066Y148252D01*
X25046Y148142D01*
X25029Y148032D01*
X25016Y147921D01*
X25007Y147809D01*
X25002Y147698D01*
X25000Y147586D01*
X26000Y150000D02*
X26097Y150099D01*
X26191Y150201D01*
X26282Y150306D01*
X26370Y150413D01*
X26456Y150522D01*
X26538Y150633D01*
X26618Y150747D01*
X26694Y150863D01*
X26767Y150981D01*
X26837Y151101D01*
X26903Y151222D01*
X26967Y151346D01*
X27027Y151471D01*
X27083Y151597D01*
X27136Y151726D01*
X27186Y151855D01*
X27232Y151986D01*
X27274Y152118D01*
X27313Y152251D01*
X27349Y152385D01*
X27380Y152520D01*
X27408Y152656D01*
X27433Y152793D01*
X27453Y152930D01*
X27470Y153067D01*
X27483Y153205D01*
X27492Y153344D01*
X27498Y153482D01*
X27500Y153621D01*
X27500Y166479D01*
X25000Y147586D02*
X25000Y108021D01*
X50904Y200404D02*
X51171Y200665D01*
X51445Y200919D01*
X51724Y201167D01*
X52009Y201408D01*
X52300Y201643D01*
X52596Y201870D01*
X52898Y202090D01*
X53205Y202303D01*
X53516Y202509D01*
X53833Y202707D01*
X54154Y202898D01*
X54480Y203081D01*
X54810Y203256D01*
X55143Y203423D01*
X55481Y203582D01*
X55823Y203733D01*
X56168Y203876D01*
X56516Y204011D01*
X56868Y204137D01*
X57222Y204255D01*
X57579Y204364D01*
X57939Y204465D01*
X58300Y204558D01*
X58664Y204641D01*
X59030Y204716D01*
X59398Y204783D01*
X59767Y204840D01*
X60137Y204889D01*
X60508Y204929D01*
X60881Y204960D01*
X61253Y204982D01*
X61627Y204996D01*
X62000Y205000D01*
X50904Y200404D02*
X34940Y184440D01*
D15*
X100904Y230404D02*
X101165Y230671D01*
X101419Y230945D01*
X101667Y231224D01*
X101908Y231509D01*
X102143Y231800D01*
X102370Y232096D01*
X102590Y232398D01*
X102803Y232705D01*
X103009Y233016D01*
X103207Y233333D01*
X103398Y233654D01*
X103581Y233980D01*
X103756Y234310D01*
X103923Y234643D01*
X104082Y234981D01*
X104233Y235323D01*
X104376Y235668D01*
X104511Y236016D01*
X104637Y236368D01*
X104755Y236722D01*
X104864Y237079D01*
X104965Y237439D01*
X105058Y237800D01*
X105141Y238164D01*
X105216Y238530D01*
X105283Y238898D01*
X105340Y239267D01*
X105389Y239637D01*
X105429Y240008D01*
X105460Y240381D01*
X105482Y240753D01*
X105496Y241127D01*
X105500Y241500D01*
X71257Y205000D02*
X62000Y205000D01*
X71257Y205000D02*
X71501Y205003D01*
X71744Y205012D01*
X71988Y205026D01*
X72231Y205046D01*
X72473Y205072D01*
X72715Y205104D01*
X72956Y205142D01*
X73195Y205185D01*
X73434Y205234D01*
X73672Y205289D01*
X73908Y205349D01*
X74143Y205415D01*
X74376Y205486D01*
X74607Y205563D01*
X74837Y205646D01*
X75064Y205734D01*
X75289Y205827D01*
X75512Y205926D01*
X75733Y206030D01*
X75951Y206139D01*
X76166Y206253D01*
X76378Y206372D01*
X76588Y206497D01*
X76795Y206626D01*
X76998Y206760D01*
X77199Y206899D01*
X77395Y207043D01*
X77589Y207191D01*
X77779Y207344D01*
X77965Y207502D01*
X78147Y207664D01*
X78325Y207830D01*
X78500Y208000D01*
X100904Y230404D01*
D12*
X50000Y220000D03*
X-155000Y220000D03*
X-145000Y220000D03*
X-155000Y230000D03*
X-145000Y230000D03*
X-150000Y225000D03*
X55000Y225000D03*
X60000Y220000D03*
X60000Y230000D03*
X50000Y230000D03*
X-140000Y225000D03*
X-135000Y220000D03*
X-135000Y230000D03*
X45000Y225000D03*
X40000Y220000D03*
X40000Y230000D03*
X-116500Y249500D03*
X-83500Y249500D03*
X83500Y240000D03*
X116500Y240000D03*
X16500Y210000D03*
X-16500Y210000D03*
M02*
