M48
;GenerationSoftware,Autodesk,EAGLE,9.6.2*%
;CreationDate,2023-07-04T11:00:15Z*%
FMAT,2
ICI,OFF
METRIC,TZ,000.000
T2C0.200
T1C1.100
%
G90
M71
T1
X11430Y28730
X7620Y-1270
X-12700Y1270
X-12700Y-1270
X-10160Y1270
X-10160Y-1270
X-7620Y1270
X-7620Y-1270
X-5080Y1270
X-5080Y-1270
X-2540Y1270
X-2540Y-1270
X0Y1270
X0Y-1270
X2540Y1270
X2540Y-1270
X5080Y1270
X5080Y-1270
X7620Y1270
X10160Y1270
X10160Y-1270
X12700Y1270
X12700Y-1270
X-11430Y31270
X-11430Y28730
X-8890Y31270
X-8890Y28730
X-6350Y31270
X-6350Y28730
X-3810Y31270
X-3810Y28730
X-1270Y31270
X-1270Y28730
X1270Y31270
X1270Y28730
X3810Y31270
X3810Y28730
X6350Y31270
X6350Y28730
X8890Y31270
X8890Y28730
X11430Y31270
T2
X13000Y22500
X12000Y20500
X12500Y21000
X13000Y21500
X13500Y22000
X12500Y22000
X-5500Y17000
X-8500Y19000
X-3500Y21000
X1000Y12500
X1000Y13500
X1000Y11500
X1000Y10500
X0Y10500
X0Y11500
X0Y12500
X0Y13500
X2000Y13500
X2000Y12500
X2000Y11500
X2000Y10500
X-9500Y19000
X1000Y33500
X12900Y10900
X15450Y17000
X11900Y9000
X6750Y13750
X9750Y12250
X11550Y16600
X8250Y14250
X10250Y13750
X1500Y5950
X5500Y6850
X-7500Y12000
X-7500Y12500
X-7500Y13000
X-16500Y7500
X-16000Y7500
X-15500Y7500
X5750Y14750
X-4550Y8550
X-4550Y9250
X5750Y16600
X-7200Y9850
X6250Y17000
X-9500Y21850
X-2500Y11250
X4500Y24550
X3400Y14200
X4000Y24500
X3700Y14899
X5500Y24600
X4150Y15350
X12500Y15000
X10500Y18000
X-3000Y33000
X9250Y13750
X5500Y4000
X-5000Y33000
X4500Y11650
X4350Y10649
X12000Y14500
X3000Y33500
X-3000Y35550
X-4100Y36250
X3000Y35500
X-5050Y10475
X6750Y16650
X7250Y14750
X1250Y15000
X7300Y14250
X1750Y15400
X-2000Y11750
X-9950Y21300
X750Y9000
X-2000Y24100
X1250Y8500
X7650Y23650
X-2000Y10750
X-7500Y25000
X-250Y9000
X-3502Y24600
X2250Y8500
X10100Y20700
X-600Y20850
X250Y8500
X11500Y18000
X8500Y18000
X9500Y18000
X10000Y17500
X10550Y24150
X1750Y9000
X5000Y22000
X-15500Y22000
X-14500Y22000
X-15500Y23000
X-14500Y23000
X-15000Y22500
X5500Y22500
X6000Y22000
X6000Y23000
X5000Y23000
X-14000Y22500
X-13500Y22000
X-13500Y23000
X4500Y22500
X4000Y22000
X12000Y15500
X-11650Y24950
X-8350Y24950
X8350Y24000
X11650Y24000
X1650Y21000
X-1650Y21000
X6800Y13250
X13550Y17000
X-5000Y27004
X-2000Y26550
X5000Y26550
X15550Y30800
X9750Y12800
X11750Y11750
X9500Y7450
X12500Y7450
X16100Y13100
X-9500Y18000
X-8500Y18000
X-8500Y17000
X-7500Y17000
X-7500Y18000
X-6500Y18000
X12000Y17000
X-6500Y17000
X-5500Y18000
X-9500Y17000
X-7500Y19000
X-6500Y19000
X-5500Y19000
X8500Y4000
X0Y0
X1300Y16500
X-2650Y4200
X6150Y24550
X-15000Y26000
X14500Y17500
X7500Y7500
X2000Y13000
X0Y13000
X1000Y13000
X0Y12000
X1000Y12000
X2000Y12000
X2000Y11000
X1000Y11000
X0Y11000
X4000Y23000
M30