G04 EAGLE Gerber RS-274X export*
G75*
%MOMM*%
%FSLAX34Y34*%
%LPD*%
%INBottom Copper*%
%IPPOS*%
%AMOC8*
5,1,8,0,0,1.08239X$1,22.5*%
G01*
%ADD10C,1.524000*%
%ADD11C,0.838200*%
%ADD12C,0.500000*%
%ADD13C,0.254000*%
%ADD14P,0.541195X8X22.500000*%
%ADD15C,0.609600*%
%ADD16C,0.550000*%

G36*
X267258Y-162996D02*
X267258Y-162996D01*
X267277Y-162998D01*
X267379Y-162976D01*
X267481Y-162960D01*
X267498Y-162950D01*
X267518Y-162946D01*
X267607Y-162893D01*
X267698Y-162844D01*
X267712Y-162830D01*
X267729Y-162820D01*
X267796Y-162741D01*
X267868Y-162666D01*
X267876Y-162648D01*
X267889Y-162633D01*
X267928Y-162537D01*
X267971Y-162443D01*
X267973Y-162423D01*
X267981Y-162405D01*
X267999Y-162238D01*
X267999Y659738D01*
X267996Y659758D01*
X267998Y659777D01*
X267976Y659879D01*
X267960Y659981D01*
X267950Y659998D01*
X267946Y660018D01*
X267893Y660107D01*
X267844Y660198D01*
X267830Y660212D01*
X267820Y660229D01*
X267741Y660296D01*
X267666Y660368D01*
X267648Y660376D01*
X267633Y660389D01*
X267537Y660428D01*
X267443Y660471D01*
X267423Y660473D01*
X267405Y660481D01*
X267238Y660499D01*
X-267238Y660499D01*
X-267258Y660496D01*
X-267277Y660498D01*
X-267379Y660476D01*
X-267481Y660460D01*
X-267498Y660450D01*
X-267518Y660446D01*
X-267607Y660393D01*
X-267698Y660344D01*
X-267712Y660330D01*
X-267729Y660320D01*
X-267796Y660241D01*
X-267868Y660166D01*
X-267876Y660148D01*
X-267889Y660133D01*
X-267928Y660037D01*
X-267971Y659943D01*
X-267973Y659923D01*
X-267981Y659905D01*
X-267999Y659738D01*
X-267999Y-162238D01*
X-267996Y-162258D01*
X-267998Y-162277D01*
X-267976Y-162379D01*
X-267960Y-162481D01*
X-267950Y-162498D01*
X-267946Y-162518D01*
X-267893Y-162607D01*
X-267844Y-162698D01*
X-267830Y-162712D01*
X-267820Y-162729D01*
X-267741Y-162796D01*
X-267666Y-162868D01*
X-267648Y-162876D01*
X-267633Y-162889D01*
X-267537Y-162928D01*
X-267443Y-162971D01*
X-267423Y-162973D01*
X-267405Y-162981D01*
X-267238Y-162999D01*
X267238Y-162999D01*
X267258Y-162996D01*
G37*
%LPC*%
G36*
X-36494Y-131573D02*
X-36494Y-131573D01*
X-39396Y-128671D01*
X-69676Y-98391D01*
X-69734Y-98349D01*
X-69786Y-98300D01*
X-69833Y-98278D01*
X-69875Y-98248D01*
X-69944Y-98226D01*
X-70009Y-98196D01*
X-70061Y-98190D01*
X-70111Y-98175D01*
X-70182Y-98177D01*
X-70253Y-98169D01*
X-70304Y-98180D01*
X-70356Y-98182D01*
X-70424Y-98206D01*
X-70494Y-98221D01*
X-70539Y-98248D01*
X-70587Y-98266D01*
X-70643Y-98311D01*
X-70705Y-98348D01*
X-70739Y-98387D01*
X-70779Y-98420D01*
X-70818Y-98480D01*
X-70865Y-98534D01*
X-70884Y-98583D01*
X-70912Y-98627D01*
X-70930Y-98696D01*
X-70957Y-98763D01*
X-70965Y-98834D01*
X-70973Y-98865D01*
X-70971Y-98888D01*
X-70975Y-98929D01*
X-70975Y-101667D01*
X-73333Y-104025D01*
X-76667Y-104025D01*
X-79025Y-101667D01*
X-79025Y-98333D01*
X-76667Y-95975D01*
X-73929Y-95975D01*
X-73859Y-95964D01*
X-73787Y-95962D01*
X-73738Y-95944D01*
X-73687Y-95936D01*
X-73623Y-95902D01*
X-73556Y-95877D01*
X-73515Y-95845D01*
X-73469Y-95820D01*
X-73420Y-95769D01*
X-73364Y-95724D01*
X-73336Y-95680D01*
X-73300Y-95642D01*
X-73270Y-95577D01*
X-73231Y-95517D01*
X-73218Y-95466D01*
X-73196Y-95419D01*
X-73188Y-95348D01*
X-73171Y-95278D01*
X-73175Y-95226D01*
X-73169Y-95175D01*
X-73184Y-95104D01*
X-73190Y-95033D01*
X-73210Y-94985D01*
X-73221Y-94934D01*
X-73258Y-94873D01*
X-73286Y-94807D01*
X-73331Y-94751D01*
X-73348Y-94723D01*
X-73365Y-94708D01*
X-73391Y-94676D01*
X-86114Y-81953D01*
X-86209Y-81885D01*
X-86303Y-81815D01*
X-86309Y-81813D01*
X-86314Y-81809D01*
X-86425Y-81775D01*
X-86537Y-81739D01*
X-86543Y-81739D01*
X-86549Y-81737D01*
X-86666Y-81740D01*
X-86782Y-81741D01*
X-86790Y-81743D01*
X-86795Y-81743D01*
X-86812Y-81750D01*
X-86944Y-81788D01*
X-87081Y-81845D01*
X-90719Y-81845D01*
X-94080Y-80453D01*
X-96653Y-77880D01*
X-98045Y-74519D01*
X-98045Y-70881D01*
X-96653Y-67520D01*
X-94080Y-64947D01*
X-90719Y-63555D01*
X-87081Y-63555D01*
X-83720Y-64947D01*
X-81147Y-67520D01*
X-79755Y-70881D01*
X-79755Y-74519D01*
X-79812Y-74656D01*
X-79839Y-74769D01*
X-79867Y-74884D01*
X-79867Y-74890D01*
X-79868Y-74896D01*
X-79857Y-75012D01*
X-79848Y-75129D01*
X-79846Y-75134D01*
X-79845Y-75141D01*
X-79797Y-75249D01*
X-79752Y-75355D01*
X-79747Y-75361D01*
X-79745Y-75365D01*
X-79732Y-75380D01*
X-79647Y-75486D01*
X-60324Y-94809D01*
X-60266Y-94851D01*
X-60214Y-94900D01*
X-60167Y-94922D01*
X-60125Y-94952D01*
X-60056Y-94974D01*
X-59991Y-95004D01*
X-59939Y-95010D01*
X-59889Y-95025D01*
X-59818Y-95023D01*
X-59747Y-95031D01*
X-59696Y-95020D01*
X-59644Y-95018D01*
X-59576Y-94994D01*
X-59506Y-94979D01*
X-59462Y-94952D01*
X-59413Y-94934D01*
X-59357Y-94889D01*
X-59295Y-94852D01*
X-59261Y-94813D01*
X-59221Y-94780D01*
X-59182Y-94720D01*
X-59135Y-94666D01*
X-59116Y-94617D01*
X-59088Y-94573D01*
X-59070Y-94504D01*
X-59043Y-94437D01*
X-59035Y-94366D01*
X-59027Y-94335D01*
X-59029Y-94312D01*
X-59025Y-94271D01*
X-59025Y-93333D01*
X-56667Y-90975D01*
X-53333Y-90975D01*
X-50975Y-93333D01*
X-50975Y-96667D01*
X-53333Y-99025D01*
X-54271Y-99025D01*
X-54341Y-99036D01*
X-54413Y-99038D01*
X-54462Y-99056D01*
X-54513Y-99064D01*
X-54577Y-99098D01*
X-54644Y-99123D01*
X-54685Y-99155D01*
X-54731Y-99180D01*
X-54780Y-99231D01*
X-54836Y-99276D01*
X-54864Y-99320D01*
X-54900Y-99358D01*
X-54930Y-99423D01*
X-54969Y-99483D01*
X-54982Y-99534D01*
X-55004Y-99581D01*
X-55012Y-99652D01*
X-55029Y-99722D01*
X-55025Y-99774D01*
X-55031Y-99825D01*
X-55016Y-99896D01*
X-55010Y-99967D01*
X-54990Y-100015D01*
X-54979Y-100066D01*
X-54942Y-100127D01*
X-54914Y-100193D01*
X-54869Y-100249D01*
X-54852Y-100277D01*
X-54835Y-100292D01*
X-54809Y-100324D01*
X-45324Y-109809D01*
X-45266Y-109851D01*
X-45214Y-109900D01*
X-45167Y-109922D01*
X-45125Y-109952D01*
X-45056Y-109974D01*
X-44991Y-110004D01*
X-44939Y-110010D01*
X-44889Y-110025D01*
X-44818Y-110023D01*
X-44747Y-110031D01*
X-44696Y-110020D01*
X-44644Y-110018D01*
X-44576Y-109994D01*
X-44506Y-109979D01*
X-44462Y-109952D01*
X-44413Y-109934D01*
X-44357Y-109889D01*
X-44295Y-109852D01*
X-44261Y-109813D01*
X-44221Y-109780D01*
X-44182Y-109720D01*
X-44135Y-109666D01*
X-44116Y-109617D01*
X-44088Y-109573D01*
X-44070Y-109504D01*
X-44043Y-109437D01*
X-44035Y-109366D01*
X-44027Y-109335D01*
X-44029Y-109312D01*
X-44025Y-109271D01*
X-44025Y-108333D01*
X-41667Y-105975D01*
X-38333Y-105975D01*
X-35975Y-108333D01*
X-35975Y-111667D01*
X-38333Y-114025D01*
X-39271Y-114025D01*
X-39341Y-114036D01*
X-39413Y-114038D01*
X-39462Y-114056D01*
X-39513Y-114064D01*
X-39577Y-114098D01*
X-39644Y-114123D01*
X-39685Y-114155D01*
X-39731Y-114180D01*
X-39780Y-114232D01*
X-39836Y-114276D01*
X-39864Y-114320D01*
X-39900Y-114358D01*
X-39930Y-114423D01*
X-39969Y-114483D01*
X-39982Y-114534D01*
X-40004Y-114581D01*
X-40012Y-114652D01*
X-40029Y-114722D01*
X-40025Y-114774D01*
X-40031Y-114825D01*
X-40016Y-114896D01*
X-40010Y-114967D01*
X-39990Y-115015D01*
X-39979Y-115066D01*
X-39942Y-115127D01*
X-39914Y-115193D01*
X-39869Y-115249D01*
X-39852Y-115277D01*
X-39835Y-115292D01*
X-39809Y-115324D01*
X-32929Y-122204D01*
X-32855Y-122257D01*
X-32785Y-122317D01*
X-32755Y-122329D01*
X-32729Y-122348D01*
X-32642Y-122375D01*
X-32557Y-122409D01*
X-32516Y-122413D01*
X-32494Y-122420D01*
X-32462Y-122419D01*
X-32391Y-122427D01*
X-18877Y-122427D01*
X-18807Y-122416D01*
X-18735Y-122414D01*
X-18686Y-122396D01*
X-18635Y-122388D01*
X-18571Y-122354D01*
X-18504Y-122329D01*
X-18463Y-122297D01*
X-18417Y-122272D01*
X-18368Y-122220D01*
X-18312Y-122176D01*
X-18284Y-122132D01*
X-18248Y-122094D01*
X-18218Y-122029D01*
X-18179Y-121969D01*
X-18166Y-121918D01*
X-18144Y-121871D01*
X-18136Y-121800D01*
X-18119Y-121730D01*
X-18123Y-121678D01*
X-18117Y-121627D01*
X-18132Y-121556D01*
X-18138Y-121485D01*
X-18158Y-121437D01*
X-18169Y-121386D01*
X-18206Y-121325D01*
X-18234Y-121259D01*
X-18279Y-121203D01*
X-18296Y-121175D01*
X-18313Y-121160D01*
X-18339Y-121128D01*
X-18796Y-120671D01*
X-31969Y-107498D01*
X-32043Y-107445D01*
X-32113Y-107385D01*
X-32143Y-107373D01*
X-32169Y-107354D01*
X-32256Y-107327D01*
X-32341Y-107293D01*
X-32382Y-107289D01*
X-32404Y-107282D01*
X-32436Y-107283D01*
X-32507Y-107275D01*
X-33271Y-107275D01*
X-35775Y-104771D01*
X-35775Y-104007D01*
X-35789Y-103917D01*
X-35797Y-103826D01*
X-35809Y-103797D01*
X-35814Y-103765D01*
X-35857Y-103684D01*
X-35893Y-103600D01*
X-35919Y-103568D01*
X-35930Y-103547D01*
X-35953Y-103525D01*
X-35998Y-103469D01*
X-55341Y-84126D01*
X-55341Y-79311D01*
X-55352Y-79240D01*
X-55354Y-79169D01*
X-55372Y-79120D01*
X-55380Y-79068D01*
X-55414Y-79005D01*
X-55439Y-78938D01*
X-55471Y-78897D01*
X-55496Y-78851D01*
X-55548Y-78802D01*
X-55592Y-78746D01*
X-55636Y-78717D01*
X-55674Y-78682D01*
X-55739Y-78651D01*
X-55799Y-78613D01*
X-55850Y-78600D01*
X-55897Y-78578D01*
X-55968Y-78570D01*
X-56038Y-78553D01*
X-56090Y-78557D01*
X-56141Y-78551D01*
X-56212Y-78566D01*
X-56283Y-78572D01*
X-56331Y-78592D01*
X-56382Y-78603D01*
X-56443Y-78640D01*
X-56509Y-78668D01*
X-56565Y-78713D01*
X-56593Y-78729D01*
X-56608Y-78747D01*
X-56640Y-78773D01*
X-58320Y-80453D01*
X-61681Y-81845D01*
X-65319Y-81845D01*
X-68680Y-80453D01*
X-71253Y-77880D01*
X-72645Y-74519D01*
X-72645Y-70881D01*
X-71253Y-67520D01*
X-68680Y-64947D01*
X-65319Y-63555D01*
X-61681Y-63555D01*
X-58320Y-64947D01*
X-56640Y-66627D01*
X-56582Y-66669D01*
X-56530Y-66718D01*
X-56483Y-66740D01*
X-56441Y-66771D01*
X-56372Y-66792D01*
X-56307Y-66822D01*
X-56255Y-66828D01*
X-56205Y-66843D01*
X-56134Y-66841D01*
X-56063Y-66849D01*
X-56012Y-66838D01*
X-55960Y-66837D01*
X-55892Y-66812D01*
X-55822Y-66797D01*
X-55777Y-66770D01*
X-55729Y-66752D01*
X-55673Y-66707D01*
X-55611Y-66671D01*
X-55577Y-66631D01*
X-55537Y-66599D01*
X-55498Y-66538D01*
X-55451Y-66484D01*
X-55432Y-66435D01*
X-55404Y-66392D01*
X-55386Y-66322D01*
X-55359Y-66256D01*
X-55351Y-66184D01*
X-55343Y-66153D01*
X-55345Y-66130D01*
X-55341Y-66089D01*
X-55341Y-62241D01*
X-55355Y-62151D01*
X-55363Y-62060D01*
X-55375Y-62031D01*
X-55380Y-61999D01*
X-55423Y-61918D01*
X-55459Y-61834D01*
X-55485Y-61802D01*
X-55496Y-61781D01*
X-55519Y-61759D01*
X-55564Y-61703D01*
X-60714Y-56553D01*
X-60809Y-56484D01*
X-60903Y-56415D01*
X-60909Y-56413D01*
X-60914Y-56409D01*
X-61025Y-56375D01*
X-61137Y-56339D01*
X-61143Y-56339D01*
X-61149Y-56337D01*
X-61266Y-56340D01*
X-61382Y-56341D01*
X-61390Y-56343D01*
X-61395Y-56343D01*
X-61412Y-56350D01*
X-61544Y-56388D01*
X-61681Y-56445D01*
X-65319Y-56445D01*
X-68680Y-55053D01*
X-71253Y-52480D01*
X-72645Y-49119D01*
X-72645Y-45481D01*
X-71253Y-42120D01*
X-68680Y-39547D01*
X-65319Y-38155D01*
X-61681Y-38155D01*
X-58320Y-39547D01*
X-55747Y-42120D01*
X-54355Y-45481D01*
X-54355Y-49119D01*
X-54412Y-49256D01*
X-54439Y-49369D01*
X-54467Y-49484D01*
X-54467Y-49490D01*
X-54468Y-49496D01*
X-54457Y-49613D01*
X-54448Y-49729D01*
X-54446Y-49734D01*
X-54445Y-49741D01*
X-54397Y-49849D01*
X-54352Y-49955D01*
X-54347Y-49961D01*
X-54345Y-49965D01*
X-54332Y-49980D01*
X-54267Y-50061D01*
X-54265Y-50064D01*
X-54264Y-50065D01*
X-54247Y-50086D01*
X-49097Y-55236D01*
X-46195Y-58138D01*
X-46195Y-66025D01*
X-46184Y-66096D01*
X-46182Y-66167D01*
X-46164Y-66216D01*
X-46156Y-66268D01*
X-46122Y-66331D01*
X-46097Y-66398D01*
X-46065Y-66439D01*
X-46040Y-66485D01*
X-45988Y-66534D01*
X-45944Y-66590D01*
X-45900Y-66619D01*
X-45862Y-66654D01*
X-45797Y-66685D01*
X-45737Y-66723D01*
X-45686Y-66736D01*
X-45639Y-66758D01*
X-45568Y-66766D01*
X-45498Y-66783D01*
X-45446Y-66779D01*
X-45395Y-66785D01*
X-45324Y-66770D01*
X-45253Y-66764D01*
X-45205Y-66744D01*
X-45154Y-66733D01*
X-45093Y-66696D01*
X-45027Y-66668D01*
X-44971Y-66623D01*
X-44943Y-66607D01*
X-44928Y-66589D01*
X-44896Y-66563D01*
X-43280Y-64947D01*
X-39919Y-63555D01*
X-36281Y-63555D01*
X-32920Y-64947D01*
X-30347Y-67520D01*
X-28955Y-70881D01*
X-28955Y-74519D01*
X-29895Y-76788D01*
X-29922Y-76902D01*
X-29950Y-77015D01*
X-29950Y-77021D01*
X-29951Y-77027D01*
X-29940Y-77144D01*
X-29931Y-77260D01*
X-29929Y-77266D01*
X-29928Y-77272D01*
X-29880Y-77380D01*
X-29835Y-77487D01*
X-29830Y-77492D01*
X-29828Y-77497D01*
X-29815Y-77511D01*
X-29730Y-77618D01*
X-16794Y-90553D01*
X-16736Y-90595D01*
X-16684Y-90645D01*
X-16637Y-90667D01*
X-16595Y-90697D01*
X-16526Y-90718D01*
X-16461Y-90748D01*
X-16409Y-90754D01*
X-16359Y-90769D01*
X-16288Y-90767D01*
X-16217Y-90775D01*
X-16166Y-90764D01*
X-16114Y-90763D01*
X-16046Y-90738D01*
X-15976Y-90723D01*
X-15932Y-90696D01*
X-15883Y-90678D01*
X-15827Y-90634D01*
X-15765Y-90597D01*
X-15731Y-90557D01*
X-15691Y-90525D01*
X-15652Y-90464D01*
X-15605Y-90410D01*
X-15586Y-90362D01*
X-15558Y-90318D01*
X-15540Y-90248D01*
X-15513Y-90182D01*
X-15505Y-90110D01*
X-15497Y-90079D01*
X-15499Y-90056D01*
X-15495Y-90015D01*
X-15495Y-81949D01*
X-15514Y-81834D01*
X-15531Y-81718D01*
X-15533Y-81713D01*
X-15534Y-81706D01*
X-15589Y-81604D01*
X-15642Y-81499D01*
X-15647Y-81495D01*
X-15650Y-81489D01*
X-15734Y-81409D01*
X-15818Y-81327D01*
X-15824Y-81323D01*
X-15828Y-81320D01*
X-15845Y-81312D01*
X-15965Y-81246D01*
X-17880Y-80453D01*
X-20453Y-77880D01*
X-21845Y-74519D01*
X-21845Y-70881D01*
X-20453Y-67520D01*
X-17880Y-64947D01*
X-14519Y-63555D01*
X-10881Y-63555D01*
X-7520Y-64947D01*
X-4947Y-67520D01*
X-3555Y-70881D01*
X-3555Y-74519D01*
X-4947Y-77880D01*
X-7520Y-80453D01*
X-9435Y-81246D01*
X-9535Y-81307D01*
X-9635Y-81367D01*
X-9639Y-81372D01*
X-9644Y-81376D01*
X-9719Y-81465D01*
X-9795Y-81554D01*
X-9797Y-81560D01*
X-9801Y-81565D01*
X-9843Y-81673D01*
X-9887Y-81783D01*
X-9888Y-81790D01*
X-9889Y-81795D01*
X-9890Y-81813D01*
X-9905Y-81949D01*
X-9905Y-88787D01*
X-9891Y-88877D01*
X-9883Y-88968D01*
X-9871Y-88998D01*
X-9866Y-89030D01*
X-9823Y-89110D01*
X-9787Y-89194D01*
X-9761Y-89226D01*
X-9750Y-89247D01*
X-9727Y-89269D01*
X-9682Y-89325D01*
X-2065Y-96942D01*
X-1991Y-96995D01*
X-1922Y-97055D01*
X-1892Y-97067D01*
X-1866Y-97086D01*
X-1779Y-97113D01*
X-1694Y-97147D01*
X-1653Y-97151D01*
X-1631Y-97158D01*
X-1598Y-97157D01*
X-1527Y-97165D01*
X5875Y-97165D01*
X5946Y-97154D01*
X6018Y-97152D01*
X6067Y-97134D01*
X6118Y-97126D01*
X6181Y-97092D01*
X6249Y-97067D01*
X6289Y-97035D01*
X6335Y-97010D01*
X6385Y-96958D01*
X6441Y-96914D01*
X6469Y-96870D01*
X6505Y-96832D01*
X6535Y-96767D01*
X6574Y-96707D01*
X6586Y-96656D01*
X6608Y-96609D01*
X6616Y-96538D01*
X6634Y-96468D01*
X6630Y-96416D01*
X6635Y-96365D01*
X6620Y-96294D01*
X6615Y-96223D01*
X6594Y-96175D01*
X6583Y-96124D01*
X6546Y-96063D01*
X6518Y-95997D01*
X6473Y-95941D01*
X6457Y-95913D01*
X6439Y-95898D01*
X6413Y-95866D01*
X1065Y-90518D01*
X-795Y-88658D01*
X-795Y-82242D01*
X1065Y-80382D01*
X4184Y-77264D01*
X4251Y-77170D01*
X4322Y-77075D01*
X4324Y-77069D01*
X4327Y-77064D01*
X4361Y-76953D01*
X4398Y-76841D01*
X4398Y-76835D01*
X4400Y-76829D01*
X4397Y-76712D01*
X4395Y-76596D01*
X4393Y-76588D01*
X4393Y-76583D01*
X4387Y-76566D01*
X4349Y-76434D01*
X3555Y-74519D01*
X3555Y-70881D01*
X4947Y-67520D01*
X7520Y-64947D01*
X10881Y-63555D01*
X14519Y-63555D01*
X17880Y-64947D01*
X20453Y-67520D01*
X21845Y-70881D01*
X21845Y-74519D01*
X20453Y-77880D01*
X17880Y-80453D01*
X14519Y-81845D01*
X10881Y-81845D01*
X8966Y-81051D01*
X8852Y-81025D01*
X8738Y-80996D01*
X8732Y-80997D01*
X8726Y-80995D01*
X8610Y-81006D01*
X8493Y-81015D01*
X8488Y-81018D01*
X8481Y-81018D01*
X8374Y-81066D01*
X8267Y-81112D01*
X8261Y-81116D01*
X8257Y-81118D01*
X8243Y-81131D01*
X8136Y-81216D01*
X5018Y-84335D01*
X4964Y-84409D01*
X4905Y-84478D01*
X4893Y-84508D01*
X4874Y-84534D01*
X4847Y-84622D01*
X4813Y-84706D01*
X4809Y-84747D01*
X4802Y-84769D01*
X4803Y-84802D01*
X4795Y-84873D01*
X4795Y-86027D01*
X4809Y-86117D01*
X4817Y-86208D01*
X4829Y-86238D01*
X4834Y-86270D01*
X4877Y-86350D01*
X4913Y-86434D01*
X4939Y-86466D01*
X4950Y-86487D01*
X4973Y-86509D01*
X5018Y-86565D01*
X10435Y-91982D01*
X10509Y-92035D01*
X10578Y-92095D01*
X10608Y-92107D01*
X10634Y-92126D01*
X10721Y-92153D01*
X10806Y-92187D01*
X10847Y-92191D01*
X10869Y-92198D01*
X10902Y-92197D01*
X10973Y-92205D01*
X13027Y-92205D01*
X13117Y-92191D01*
X13208Y-92183D01*
X13238Y-92171D01*
X13270Y-92166D01*
X13350Y-92123D01*
X13434Y-92087D01*
X13466Y-92061D01*
X13487Y-92050D01*
X13489Y-92048D01*
X13510Y-92027D01*
X13565Y-91982D01*
X18342Y-87205D01*
X25658Y-87205D01*
X30435Y-91982D01*
X30509Y-92035D01*
X30578Y-92095D01*
X30608Y-92107D01*
X30634Y-92126D01*
X30721Y-92153D01*
X30806Y-92187D01*
X30847Y-92191D01*
X30869Y-92198D01*
X30902Y-92197D01*
X30973Y-92205D01*
X33027Y-92205D01*
X33117Y-92191D01*
X33208Y-92183D01*
X33238Y-92171D01*
X33270Y-92166D01*
X33350Y-92123D01*
X33434Y-92087D01*
X33466Y-92061D01*
X33487Y-92050D01*
X33489Y-92048D01*
X33510Y-92027D01*
X33565Y-91982D01*
X38342Y-87205D01*
X45658Y-87205D01*
X50435Y-91982D01*
X50509Y-92035D01*
X50578Y-92095D01*
X50608Y-92107D01*
X50634Y-92126D01*
X50721Y-92153D01*
X50806Y-92187D01*
X50847Y-92191D01*
X50869Y-92198D01*
X50902Y-92197D01*
X50973Y-92205D01*
X53027Y-92205D01*
X53117Y-92191D01*
X53208Y-92183D01*
X53238Y-92171D01*
X53270Y-92166D01*
X53350Y-92123D01*
X53434Y-92087D01*
X53467Y-92061D01*
X53487Y-92050D01*
X53489Y-92048D01*
X53510Y-92027D01*
X53565Y-91982D01*
X56482Y-89065D01*
X58342Y-87205D01*
X65658Y-87205D01*
X70435Y-91982D01*
X70509Y-92035D01*
X70578Y-92095D01*
X70608Y-92107D01*
X70634Y-92126D01*
X70721Y-92153D01*
X70806Y-92187D01*
X70847Y-92191D01*
X70869Y-92198D01*
X70902Y-92197D01*
X70973Y-92205D01*
X73027Y-92205D01*
X73117Y-92191D01*
X73208Y-92183D01*
X73238Y-92171D01*
X73270Y-92166D01*
X73350Y-92123D01*
X73434Y-92087D01*
X73466Y-92061D01*
X73487Y-92050D01*
X73489Y-92048D01*
X73510Y-92027D01*
X73565Y-91982D01*
X78342Y-87205D01*
X85658Y-87205D01*
X90355Y-91902D01*
X90429Y-91955D01*
X90498Y-92015D01*
X90528Y-92027D01*
X90554Y-92046D01*
X90641Y-92073D01*
X90726Y-92107D01*
X90767Y-92111D01*
X90789Y-92118D01*
X90822Y-92117D01*
X90893Y-92125D01*
X96266Y-92125D01*
X96356Y-92111D01*
X96447Y-92103D01*
X96477Y-92091D01*
X96509Y-92086D01*
X96589Y-92043D01*
X96673Y-92007D01*
X96705Y-91981D01*
X96726Y-91970D01*
X96748Y-91947D01*
X96804Y-91902D01*
X110442Y-78264D01*
X110486Y-78203D01*
X110520Y-78167D01*
X110526Y-78154D01*
X110555Y-78121D01*
X110567Y-78091D01*
X110586Y-78064D01*
X110613Y-77978D01*
X110647Y-77893D01*
X110651Y-77852D01*
X110658Y-77829D01*
X110657Y-77797D01*
X110665Y-77726D01*
X110665Y-33652D01*
X110651Y-33562D01*
X110643Y-33471D01*
X110631Y-33442D01*
X110626Y-33410D01*
X110583Y-33329D01*
X110547Y-33245D01*
X110521Y-33213D01*
X110510Y-33192D01*
X110487Y-33170D01*
X110442Y-33114D01*
X109495Y-32167D01*
X109495Y-28833D01*
X111853Y-26475D01*
X112606Y-26475D01*
X112676Y-26464D01*
X112748Y-26462D01*
X112797Y-26444D01*
X112848Y-26436D01*
X112912Y-26402D01*
X112979Y-26377D01*
X113020Y-26345D01*
X113066Y-26320D01*
X113115Y-26269D01*
X113171Y-26224D01*
X113199Y-26180D01*
X113235Y-26142D01*
X113265Y-26077D01*
X113304Y-26017D01*
X113317Y-25966D01*
X113339Y-25919D01*
X113347Y-25848D01*
X113364Y-25778D01*
X113360Y-25726D01*
X113366Y-25675D01*
X113351Y-25604D01*
X113345Y-25533D01*
X113325Y-25485D01*
X113314Y-25434D01*
X113277Y-25373D01*
X113249Y-25307D01*
X113204Y-25251D01*
X113187Y-25223D01*
X113170Y-25208D01*
X113144Y-25176D01*
X112486Y-24518D01*
X112412Y-24464D01*
X112342Y-24405D01*
X112312Y-24393D01*
X112286Y-24374D01*
X112199Y-24347D01*
X112114Y-24313D01*
X112073Y-24309D01*
X112051Y-24302D01*
X112019Y-24303D01*
X111948Y-24295D01*
X111732Y-24295D01*
X111642Y-24309D01*
X111551Y-24317D01*
X111522Y-24329D01*
X111490Y-24334D01*
X111409Y-24377D01*
X111325Y-24413D01*
X111293Y-24439D01*
X111272Y-24450D01*
X111250Y-24473D01*
X111194Y-24518D01*
X110187Y-25525D01*
X106853Y-25525D01*
X104495Y-23167D01*
X104495Y-19833D01*
X106853Y-17475D01*
X110205Y-17475D01*
X110276Y-17464D01*
X110348Y-17462D01*
X110397Y-17444D01*
X110448Y-17436D01*
X110511Y-17402D01*
X110579Y-17377D01*
X110619Y-17345D01*
X110665Y-17320D01*
X110715Y-17268D01*
X110771Y-17224D01*
X110799Y-17180D01*
X110835Y-17142D01*
X110865Y-17077D01*
X110904Y-17017D01*
X110916Y-16966D01*
X110938Y-16919D01*
X110946Y-16848D01*
X110964Y-16778D01*
X110960Y-16726D01*
X110965Y-16675D01*
X110950Y-16604D01*
X110945Y-16533D01*
X110924Y-16485D01*
X110913Y-16434D01*
X110876Y-16373D01*
X110848Y-16307D01*
X110803Y-16251D01*
X110787Y-16223D01*
X110769Y-16208D01*
X110743Y-16176D01*
X108085Y-13518D01*
X108011Y-13465D01*
X107942Y-13405D01*
X107912Y-13393D01*
X107886Y-13374D01*
X107798Y-13347D01*
X107714Y-13313D01*
X107673Y-13309D01*
X107651Y-13302D01*
X107618Y-13303D01*
X107547Y-13295D01*
X101212Y-13295D01*
X101122Y-13309D01*
X101031Y-13317D01*
X101002Y-13329D01*
X100970Y-13334D01*
X100889Y-13377D01*
X100805Y-13413D01*
X100773Y-13439D01*
X100752Y-13450D01*
X100730Y-13473D01*
X100674Y-13518D01*
X99667Y-14525D01*
X96333Y-14525D01*
X93975Y-12167D01*
X93975Y-8833D01*
X96333Y-6475D01*
X99667Y-6475D01*
X100674Y-7482D01*
X100748Y-7535D01*
X100818Y-7595D01*
X100848Y-7607D01*
X100874Y-7626D01*
X100961Y-7653D01*
X101046Y-7687D01*
X101087Y-7691D01*
X101109Y-7698D01*
X101141Y-7697D01*
X101212Y-7705D01*
X110178Y-7705D01*
X126795Y-24322D01*
X126795Y-87658D01*
X124935Y-89518D01*
X108018Y-106435D01*
X106158Y-108295D01*
X-6958Y-108295D01*
X-8818Y-106435D01*
X-33890Y-81363D01*
X-33984Y-81295D01*
X-34078Y-81225D01*
X-34084Y-81223D01*
X-34089Y-81219D01*
X-34200Y-81185D01*
X-34312Y-81149D01*
X-34318Y-81149D01*
X-34324Y-81147D01*
X-34441Y-81150D01*
X-34558Y-81151D01*
X-34565Y-81153D01*
X-34570Y-81153D01*
X-34588Y-81160D01*
X-34719Y-81198D01*
X-36281Y-81845D01*
X-39919Y-81845D01*
X-43280Y-80453D01*
X-44896Y-78837D01*
X-44954Y-78795D01*
X-45006Y-78746D01*
X-45053Y-78724D01*
X-45095Y-78693D01*
X-45164Y-78672D01*
X-45229Y-78642D01*
X-45281Y-78636D01*
X-45331Y-78621D01*
X-45402Y-78623D01*
X-45473Y-78615D01*
X-45524Y-78626D01*
X-45576Y-78627D01*
X-45644Y-78652D01*
X-45714Y-78667D01*
X-45759Y-78694D01*
X-45807Y-78712D01*
X-45863Y-78757D01*
X-45925Y-78793D01*
X-45959Y-78833D01*
X-45999Y-78865D01*
X-46038Y-78926D01*
X-46085Y-78980D01*
X-46104Y-79029D01*
X-46132Y-79072D01*
X-46150Y-79142D01*
X-46177Y-79208D01*
X-46185Y-79280D01*
X-46193Y-79311D01*
X-46191Y-79334D01*
X-46195Y-79375D01*
X-46195Y-80023D01*
X-46192Y-80044D01*
X-46194Y-80062D01*
X-46179Y-80130D01*
X-46173Y-80204D01*
X-46161Y-80233D01*
X-46156Y-80265D01*
X-46146Y-80284D01*
X-46142Y-80303D01*
X-46106Y-80363D01*
X-46077Y-80430D01*
X-46051Y-80462D01*
X-46040Y-80483D01*
X-46026Y-80497D01*
X-46015Y-80514D01*
X-45998Y-80529D01*
X-45972Y-80561D01*
X-12329Y-114204D01*
X-12255Y-114257D01*
X-12185Y-114317D01*
X-12155Y-114329D01*
X-12129Y-114348D01*
X-12042Y-114375D01*
X-11957Y-114409D01*
X-11916Y-114413D01*
X-11894Y-114420D01*
X-11862Y-114419D01*
X-11791Y-114427D01*
X118791Y-114427D01*
X118881Y-114413D01*
X118972Y-114405D01*
X119001Y-114393D01*
X119033Y-114388D01*
X119114Y-114345D01*
X119198Y-114309D01*
X119230Y-114283D01*
X119251Y-114272D01*
X119273Y-114249D01*
X119329Y-114204D01*
X174606Y-58927D01*
X182275Y-58927D01*
X182345Y-58916D01*
X182417Y-58914D01*
X182466Y-58896D01*
X182517Y-58888D01*
X182581Y-58854D01*
X182648Y-58829D01*
X182689Y-58797D01*
X182735Y-58772D01*
X182784Y-58720D01*
X182840Y-58676D01*
X182868Y-58632D01*
X182904Y-58594D01*
X182934Y-58529D01*
X182973Y-58469D01*
X182986Y-58418D01*
X183008Y-58371D01*
X183016Y-58300D01*
X183033Y-58230D01*
X183029Y-58178D01*
X183035Y-58127D01*
X183020Y-58056D01*
X183014Y-57985D01*
X182994Y-57937D01*
X182983Y-57886D01*
X182946Y-57825D01*
X182918Y-57759D01*
X182873Y-57703D01*
X182857Y-57675D01*
X182839Y-57660D01*
X182813Y-57628D01*
X180517Y-55332D01*
X179299Y-52391D01*
X179299Y-49209D01*
X180517Y-46268D01*
X182768Y-44017D01*
X185709Y-42799D01*
X188891Y-42799D01*
X191832Y-44017D01*
X194083Y-46268D01*
X195301Y-49209D01*
X195301Y-52391D01*
X194083Y-55332D01*
X191787Y-57628D01*
X191745Y-57686D01*
X191696Y-57738D01*
X191674Y-57785D01*
X191643Y-57827D01*
X191622Y-57896D01*
X191592Y-57961D01*
X191586Y-58013D01*
X191571Y-58063D01*
X191573Y-58134D01*
X191565Y-58205D01*
X191576Y-58256D01*
X191577Y-58308D01*
X191602Y-58376D01*
X191617Y-58446D01*
X191644Y-58491D01*
X191662Y-58539D01*
X191707Y-58595D01*
X191743Y-58657D01*
X191783Y-58691D01*
X191816Y-58731D01*
X191876Y-58770D01*
X191930Y-58817D01*
X191979Y-58836D01*
X192023Y-58864D01*
X192092Y-58882D01*
X192159Y-58909D01*
X192230Y-58917D01*
X192261Y-58925D01*
X192284Y-58923D01*
X192325Y-58927D01*
X207675Y-58927D01*
X207745Y-58916D01*
X207817Y-58914D01*
X207866Y-58896D01*
X207917Y-58888D01*
X207981Y-58854D01*
X208048Y-58829D01*
X208089Y-58797D01*
X208135Y-58772D01*
X208184Y-58720D01*
X208240Y-58676D01*
X208268Y-58632D01*
X208304Y-58594D01*
X208334Y-58529D01*
X208373Y-58469D01*
X208386Y-58418D01*
X208408Y-58371D01*
X208416Y-58300D01*
X208433Y-58230D01*
X208429Y-58178D01*
X208435Y-58127D01*
X208420Y-58056D01*
X208414Y-57985D01*
X208394Y-57937D01*
X208383Y-57886D01*
X208346Y-57825D01*
X208318Y-57759D01*
X208273Y-57703D01*
X208257Y-57675D01*
X208239Y-57660D01*
X208213Y-57628D01*
X205917Y-55332D01*
X204699Y-52391D01*
X204699Y-49209D01*
X205917Y-46268D01*
X208168Y-44017D01*
X211109Y-42799D01*
X214291Y-42799D01*
X217232Y-44017D01*
X219483Y-46268D01*
X220701Y-49209D01*
X220701Y-52391D01*
X219483Y-55332D01*
X217187Y-57628D01*
X217145Y-57686D01*
X217096Y-57738D01*
X217074Y-57785D01*
X217043Y-57827D01*
X217022Y-57896D01*
X216992Y-57961D01*
X216986Y-58013D01*
X216971Y-58063D01*
X216973Y-58134D01*
X216965Y-58205D01*
X216976Y-58256D01*
X216977Y-58308D01*
X217002Y-58376D01*
X217017Y-58446D01*
X217044Y-58491D01*
X217062Y-58539D01*
X217107Y-58595D01*
X217143Y-58657D01*
X217183Y-58691D01*
X217216Y-58731D01*
X217276Y-58770D01*
X217330Y-58817D01*
X217379Y-58836D01*
X217423Y-58864D01*
X217492Y-58882D01*
X217559Y-58909D01*
X217630Y-58917D01*
X217661Y-58925D01*
X217684Y-58923D01*
X217725Y-58927D01*
X226894Y-58927D01*
X233073Y-65106D01*
X233073Y-68894D01*
X230394Y-71573D01*
X226606Y-71573D01*
X223329Y-68296D01*
X223255Y-68243D01*
X223185Y-68183D01*
X223155Y-68171D01*
X223129Y-68152D01*
X223042Y-68125D01*
X222957Y-68091D01*
X222916Y-68087D01*
X222894Y-68080D01*
X222862Y-68081D01*
X222791Y-68073D01*
X217725Y-68073D01*
X217655Y-68084D01*
X217583Y-68086D01*
X217534Y-68104D01*
X217483Y-68112D01*
X217419Y-68146D01*
X217352Y-68171D01*
X217311Y-68203D01*
X217265Y-68228D01*
X217216Y-68280D01*
X217160Y-68324D01*
X217132Y-68368D01*
X217096Y-68406D01*
X217066Y-68471D01*
X217027Y-68531D01*
X217014Y-68582D01*
X216992Y-68629D01*
X216984Y-68700D01*
X216967Y-68770D01*
X216971Y-68822D01*
X216965Y-68873D01*
X216980Y-68944D01*
X216986Y-69015D01*
X217006Y-69063D01*
X217017Y-69114D01*
X217054Y-69175D01*
X217082Y-69241D01*
X217127Y-69297D01*
X217143Y-69325D01*
X217161Y-69340D01*
X217187Y-69372D01*
X219483Y-71668D01*
X220701Y-74609D01*
X220701Y-77791D01*
X219483Y-80732D01*
X217206Y-83009D01*
X217197Y-83014D01*
X217111Y-83060D01*
X217094Y-83078D01*
X217071Y-83092D01*
X217009Y-83167D01*
X216942Y-83238D01*
X216931Y-83262D01*
X216914Y-83282D01*
X216880Y-83373D01*
X216838Y-83461D01*
X216836Y-83487D01*
X216826Y-83511D01*
X216822Y-83609D01*
X216811Y-83705D01*
X216817Y-83731D01*
X216816Y-83757D01*
X216843Y-83850D01*
X216864Y-83946D01*
X216877Y-83968D01*
X216884Y-83993D01*
X216940Y-84073D01*
X216990Y-84157D01*
X217010Y-84174D01*
X217024Y-84195D01*
X217103Y-84253D01*
X217177Y-84317D01*
X217201Y-84327D01*
X217222Y-84342D01*
X217314Y-84372D01*
X217405Y-84409D01*
X217437Y-84412D01*
X217456Y-84418D01*
X217489Y-84418D01*
X217572Y-84427D01*
X239291Y-84427D01*
X239381Y-84413D01*
X239472Y-84405D01*
X239501Y-84393D01*
X239533Y-84388D01*
X239614Y-84345D01*
X239698Y-84309D01*
X239730Y-84283D01*
X239751Y-84272D01*
X239773Y-84249D01*
X239829Y-84204D01*
X245204Y-78829D01*
X245257Y-78755D01*
X245317Y-78685D01*
X245329Y-78655D01*
X245348Y-78629D01*
X245375Y-78542D01*
X245409Y-78457D01*
X245413Y-78416D01*
X245420Y-78394D01*
X245419Y-78362D01*
X245427Y-78291D01*
X245427Y-61209D01*
X245413Y-61119D01*
X245405Y-61028D01*
X245393Y-60999D01*
X245388Y-60967D01*
X245345Y-60886D01*
X245309Y-60802D01*
X245283Y-60770D01*
X245272Y-60749D01*
X245249Y-60727D01*
X245204Y-60671D01*
X240427Y-55894D01*
X240427Y-52106D01*
X243106Y-49427D01*
X246894Y-49427D01*
X251671Y-54204D01*
X254128Y-56661D01*
X254186Y-56703D01*
X254238Y-56752D01*
X254285Y-56774D01*
X254327Y-56804D01*
X254396Y-56826D01*
X254461Y-56856D01*
X254513Y-56861D01*
X254563Y-56877D01*
X254634Y-56875D01*
X254705Y-56883D01*
X254756Y-56872D01*
X254808Y-56870D01*
X254876Y-56846D01*
X254946Y-56831D01*
X254991Y-56804D01*
X255039Y-56786D01*
X255095Y-56741D01*
X255157Y-56704D01*
X255191Y-56665D01*
X255231Y-56632D01*
X255270Y-56572D01*
X255317Y-56518D01*
X255336Y-56469D01*
X255364Y-56425D01*
X255382Y-56356D01*
X255409Y-56289D01*
X255417Y-56218D01*
X255425Y-56187D01*
X255423Y-56164D01*
X255427Y-56123D01*
X255427Y197791D01*
X255413Y197881D01*
X255405Y197972D01*
X255393Y198001D01*
X255388Y198033D01*
X255345Y198114D01*
X255309Y198198D01*
X255283Y198230D01*
X255272Y198251D01*
X255249Y198273D01*
X255204Y198329D01*
X239427Y214106D01*
X239427Y384791D01*
X239413Y384881D01*
X239405Y384972D01*
X239393Y385001D01*
X239388Y385033D01*
X239345Y385114D01*
X239309Y385198D01*
X239283Y385230D01*
X239272Y385251D01*
X239249Y385273D01*
X239204Y385329D01*
X210427Y414106D01*
X210427Y515291D01*
X210425Y515304D01*
X210426Y515314D01*
X210415Y515366D01*
X210413Y515381D01*
X210405Y515472D01*
X210393Y515501D01*
X210388Y515533D01*
X210345Y515614D01*
X210309Y515698D01*
X210283Y515730D01*
X210272Y515751D01*
X210249Y515773D01*
X210204Y515829D01*
X209927Y516106D01*
X209927Y519894D01*
X212606Y522573D01*
X216394Y522573D01*
X219573Y519394D01*
X219573Y418209D01*
X219587Y418119D01*
X219595Y418028D01*
X219607Y417999D01*
X219612Y417967D01*
X219655Y417886D01*
X219691Y417802D01*
X219717Y417770D01*
X219728Y417749D01*
X219751Y417727D01*
X219796Y417671D01*
X248573Y388894D01*
X248573Y240102D01*
X248584Y240032D01*
X248586Y239960D01*
X248604Y239911D01*
X248612Y239860D01*
X248646Y239796D01*
X248671Y239729D01*
X248703Y239688D01*
X248728Y239642D01*
X248780Y239593D01*
X248824Y239537D01*
X248868Y239509D01*
X248906Y239473D01*
X248971Y239443D01*
X249031Y239404D01*
X249082Y239391D01*
X249129Y239369D01*
X249200Y239361D01*
X249270Y239344D01*
X249322Y239348D01*
X249373Y239342D01*
X249444Y239357D01*
X249515Y239363D01*
X249563Y239383D01*
X249614Y239394D01*
X249675Y239431D01*
X249741Y239459D01*
X249797Y239504D01*
X249825Y239521D01*
X249840Y239538D01*
X249872Y239564D01*
X252333Y242025D01*
X255667Y242025D01*
X258025Y239667D01*
X258025Y236333D01*
X255667Y233975D01*
X252333Y233975D01*
X249872Y236436D01*
X249814Y236478D01*
X249762Y236527D01*
X249743Y236536D01*
X249731Y236547D01*
X249702Y236558D01*
X249673Y236579D01*
X249604Y236601D01*
X249539Y236631D01*
X249515Y236633D01*
X249503Y236639D01*
X249468Y236642D01*
X249437Y236652D01*
X249393Y236651D01*
X249336Y236657D01*
X249334Y236657D01*
X249321Y236655D01*
X249295Y236658D01*
X249244Y236647D01*
X249192Y236645D01*
X249133Y236624D01*
X249091Y236617D01*
X249080Y236611D01*
X249054Y236606D01*
X249009Y236579D01*
X248961Y236561D01*
X248913Y236523D01*
X248874Y236502D01*
X248864Y236492D01*
X248843Y236479D01*
X248809Y236440D01*
X248769Y236407D01*
X248737Y236358D01*
X248704Y236324D01*
X248698Y236310D01*
X248683Y236293D01*
X248664Y236244D01*
X248636Y236200D01*
X248622Y236146D01*
X248601Y236101D01*
X248599Y236084D01*
X248591Y236064D01*
X248583Y235993D01*
X248575Y235962D01*
X248577Y235939D01*
X248573Y235898D01*
X248573Y218209D01*
X248587Y218119D01*
X248595Y218028D01*
X248607Y217999D01*
X248612Y217967D01*
X248655Y217886D01*
X248691Y217802D01*
X248717Y217770D01*
X248728Y217749D01*
X248751Y217727D01*
X248796Y217671D01*
X264573Y201894D01*
X264573Y-114894D01*
X261894Y-117573D01*
X258106Y-117573D01*
X255427Y-114894D01*
X255427Y-83377D01*
X255416Y-83307D01*
X255414Y-83235D01*
X255396Y-83186D01*
X255388Y-83135D01*
X255354Y-83071D01*
X255329Y-83004D01*
X255297Y-82963D01*
X255272Y-82917D01*
X255220Y-82868D01*
X255176Y-82812D01*
X255132Y-82784D01*
X255094Y-82748D01*
X255029Y-82718D01*
X254969Y-82679D01*
X254918Y-82666D01*
X254871Y-82644D01*
X254800Y-82636D01*
X254730Y-82619D01*
X254678Y-82623D01*
X254627Y-82617D01*
X254556Y-82632D01*
X254485Y-82638D01*
X254437Y-82658D01*
X254386Y-82669D01*
X254325Y-82706D01*
X254259Y-82734D01*
X254203Y-82779D01*
X254175Y-82796D01*
X254160Y-82813D01*
X254128Y-82839D01*
X243394Y-93573D01*
X217825Y-93573D01*
X217755Y-93584D01*
X217683Y-93586D01*
X217634Y-93604D01*
X217583Y-93612D01*
X217519Y-93646D01*
X217452Y-93671D01*
X217411Y-93703D01*
X217365Y-93728D01*
X217316Y-93780D01*
X217260Y-93824D01*
X217232Y-93868D01*
X217196Y-93906D01*
X217166Y-93971D01*
X217127Y-94031D01*
X217114Y-94082D01*
X217092Y-94129D01*
X217084Y-94200D01*
X217067Y-94270D01*
X217071Y-94322D01*
X217065Y-94373D01*
X217080Y-94444D01*
X217086Y-94515D01*
X217106Y-94563D01*
X217117Y-94614D01*
X217154Y-94675D01*
X217182Y-94741D01*
X217227Y-94797D01*
X217243Y-94825D01*
X217261Y-94840D01*
X217287Y-94872D01*
X219483Y-97068D01*
X220701Y-100009D01*
X220701Y-103191D01*
X219483Y-106132D01*
X217232Y-108383D01*
X214291Y-109601D01*
X211109Y-109601D01*
X208168Y-108383D01*
X205917Y-106132D01*
X204699Y-103191D01*
X204699Y-100009D01*
X205917Y-97068D01*
X208113Y-94872D01*
X208155Y-94814D01*
X208204Y-94762D01*
X208226Y-94715D01*
X208257Y-94673D01*
X208278Y-94604D01*
X208308Y-94539D01*
X208314Y-94487D01*
X208329Y-94437D01*
X208327Y-94366D01*
X208335Y-94295D01*
X208324Y-94244D01*
X208323Y-94192D01*
X208298Y-94124D01*
X208283Y-94054D01*
X208256Y-94009D01*
X208238Y-93961D01*
X208193Y-93905D01*
X208157Y-93843D01*
X208117Y-93809D01*
X208084Y-93769D01*
X208024Y-93730D01*
X207970Y-93683D01*
X207921Y-93664D01*
X207877Y-93636D01*
X207808Y-93618D01*
X207741Y-93591D01*
X207670Y-93583D01*
X207639Y-93575D01*
X207616Y-93577D01*
X207575Y-93573D01*
X192425Y-93573D01*
X192355Y-93584D01*
X192283Y-93586D01*
X192234Y-93604D01*
X192183Y-93612D01*
X192119Y-93646D01*
X192052Y-93671D01*
X192011Y-93703D01*
X191965Y-93728D01*
X191916Y-93780D01*
X191860Y-93824D01*
X191832Y-93868D01*
X191796Y-93906D01*
X191766Y-93971D01*
X191727Y-94031D01*
X191714Y-94082D01*
X191692Y-94129D01*
X191684Y-94200D01*
X191667Y-94270D01*
X191671Y-94322D01*
X191665Y-94373D01*
X191680Y-94444D01*
X191686Y-94515D01*
X191706Y-94563D01*
X191717Y-94614D01*
X191754Y-94675D01*
X191782Y-94741D01*
X191827Y-94797D01*
X191843Y-94825D01*
X191861Y-94840D01*
X191887Y-94872D01*
X194083Y-97068D01*
X195301Y-100009D01*
X195301Y-103191D01*
X194083Y-106132D01*
X191832Y-108383D01*
X188891Y-109601D01*
X185709Y-109601D01*
X182768Y-108383D01*
X180517Y-106132D01*
X179299Y-103191D01*
X179299Y-100009D01*
X180517Y-97068D01*
X182713Y-94872D01*
X182755Y-94814D01*
X182804Y-94762D01*
X182826Y-94715D01*
X182857Y-94673D01*
X182878Y-94604D01*
X182908Y-94539D01*
X182914Y-94487D01*
X182929Y-94437D01*
X182927Y-94366D01*
X182935Y-94295D01*
X182924Y-94244D01*
X182923Y-94192D01*
X182898Y-94124D01*
X182883Y-94054D01*
X182856Y-94009D01*
X182838Y-93961D01*
X182793Y-93905D01*
X182757Y-93843D01*
X182717Y-93809D01*
X182684Y-93769D01*
X182624Y-93730D01*
X182570Y-93683D01*
X182521Y-93664D01*
X182477Y-93636D01*
X182408Y-93618D01*
X182341Y-93591D01*
X182270Y-93583D01*
X182239Y-93575D01*
X182216Y-93577D01*
X182175Y-93573D01*
X165709Y-93573D01*
X165619Y-93587D01*
X165528Y-93595D01*
X165499Y-93607D01*
X165467Y-93612D01*
X165386Y-93655D01*
X165302Y-93691D01*
X165270Y-93717D01*
X165249Y-93728D01*
X165227Y-93751D01*
X165171Y-93796D01*
X127394Y-131573D01*
X-36494Y-131573D01*
G37*
%LPD*%
%LPC*%
G36*
X-170667Y111975D02*
X-170667Y111975D01*
X-173025Y114333D01*
X-173025Y117667D01*
X-173018Y117674D01*
X-172965Y117748D01*
X-172905Y117818D01*
X-172893Y117848D01*
X-172874Y117874D01*
X-172847Y117961D01*
X-172813Y118046D01*
X-172809Y118087D01*
X-172802Y118109D01*
X-172803Y118141D01*
X-172795Y118212D01*
X-172795Y244158D01*
X-135248Y281705D01*
X-135195Y281779D01*
X-135135Y281848D01*
X-135123Y281878D01*
X-135104Y281904D01*
X-135077Y281991D01*
X-135043Y282076D01*
X-135039Y282117D01*
X-135032Y282139D01*
X-135033Y282172D01*
X-135025Y282243D01*
X-135025Y283667D01*
X-134786Y283906D01*
X-134744Y283964D01*
X-134695Y284016D01*
X-134673Y284063D01*
X-134643Y284105D01*
X-134621Y284174D01*
X-134591Y284239D01*
X-134586Y284291D01*
X-134570Y284341D01*
X-134572Y284412D01*
X-134564Y284483D01*
X-134575Y284534D01*
X-134577Y284586D01*
X-134601Y284654D01*
X-134616Y284724D01*
X-134643Y284769D01*
X-134661Y284817D01*
X-134706Y284873D01*
X-134743Y284935D01*
X-134782Y284969D01*
X-134815Y285009D01*
X-134875Y285048D01*
X-134929Y285095D01*
X-134978Y285114D01*
X-135022Y285142D01*
X-135091Y285160D01*
X-135158Y285187D01*
X-135229Y285195D01*
X-135260Y285203D01*
X-135283Y285201D01*
X-135324Y285205D01*
X-164527Y285205D01*
X-164617Y285191D01*
X-164708Y285183D01*
X-164738Y285171D01*
X-164770Y285166D01*
X-164850Y285123D01*
X-164934Y285087D01*
X-164967Y285061D01*
X-164987Y285050D01*
X-165009Y285027D01*
X-165065Y284982D01*
X-167752Y282295D01*
X-167805Y282221D01*
X-167865Y282152D01*
X-167877Y282122D01*
X-167896Y282096D01*
X-167923Y282008D01*
X-167957Y281924D01*
X-167961Y281883D01*
X-167968Y281861D01*
X-167967Y281828D01*
X-167975Y281757D01*
X-167975Y280333D01*
X-170333Y277975D01*
X-173667Y277975D01*
X-176025Y280333D01*
X-176025Y283667D01*
X-173730Y285962D01*
X-173718Y285978D01*
X-173703Y285990D01*
X-173647Y286078D01*
X-173587Y286161D01*
X-173581Y286180D01*
X-173570Y286197D01*
X-173545Y286298D01*
X-173514Y286397D01*
X-173515Y286416D01*
X-173510Y286436D01*
X-173518Y286539D01*
X-173521Y286642D01*
X-173527Y286661D01*
X-173529Y286681D01*
X-173569Y286776D01*
X-173605Y286873D01*
X-173618Y286889D01*
X-173625Y286907D01*
X-173730Y287038D01*
X-176025Y289333D01*
X-176025Y292667D01*
X-173667Y295025D01*
X-170815Y295025D01*
X-170744Y295036D01*
X-170672Y295038D01*
X-170623Y295056D01*
X-170572Y295064D01*
X-170509Y295098D01*
X-170441Y295123D01*
X-170401Y295155D01*
X-170355Y295180D01*
X-170305Y295231D01*
X-170249Y295276D01*
X-170221Y295320D01*
X-170185Y295358D01*
X-170155Y295423D01*
X-170116Y295483D01*
X-170104Y295534D01*
X-170082Y295581D01*
X-170074Y295652D01*
X-170056Y295722D01*
X-170060Y295774D01*
X-170055Y295825D01*
X-170070Y295896D01*
X-170075Y295967D01*
X-170096Y296015D01*
X-170107Y296066D01*
X-170144Y296127D01*
X-170172Y296193D01*
X-170217Y296249D01*
X-170233Y296277D01*
X-170251Y296292D01*
X-170277Y296324D01*
X-170705Y296752D01*
X-170779Y296806D01*
X-170848Y296865D01*
X-170878Y296877D01*
X-170904Y296896D01*
X-170992Y296923D01*
X-171076Y296957D01*
X-171117Y296961D01*
X-171140Y296968D01*
X-171172Y296967D01*
X-171243Y296975D01*
X-173667Y296975D01*
X-176025Y299333D01*
X-176025Y302667D01*
X-173667Y305025D01*
X-171815Y305025D01*
X-171744Y305036D01*
X-171672Y305038D01*
X-171623Y305056D01*
X-171572Y305064D01*
X-171509Y305098D01*
X-171441Y305123D01*
X-171401Y305155D01*
X-171355Y305180D01*
X-171305Y305231D01*
X-171249Y305276D01*
X-171221Y305320D01*
X-171185Y305358D01*
X-171155Y305423D01*
X-171116Y305483D01*
X-171104Y305534D01*
X-171082Y305581D01*
X-171074Y305652D01*
X-171056Y305722D01*
X-171060Y305774D01*
X-171055Y305825D01*
X-171070Y305896D01*
X-171075Y305967D01*
X-171096Y306015D01*
X-171107Y306066D01*
X-171144Y306127D01*
X-171172Y306193D01*
X-171217Y306249D01*
X-171233Y306277D01*
X-171251Y306292D01*
X-171277Y306324D01*
X-171705Y306752D01*
X-171779Y306806D01*
X-171848Y306865D01*
X-171878Y306877D01*
X-171904Y306896D01*
X-171992Y306923D01*
X-172076Y306957D01*
X-172117Y306961D01*
X-172140Y306968D01*
X-172172Y306967D01*
X-172243Y306975D01*
X-173667Y306975D01*
X-176025Y309333D01*
X-176025Y312667D01*
X-173667Y315025D01*
X-170333Y315025D01*
X-167975Y312667D01*
X-167975Y311243D01*
X-167973Y311230D01*
X-167974Y311220D01*
X-167963Y311169D01*
X-167961Y311153D01*
X-167953Y311062D01*
X-167941Y311032D01*
X-167936Y311000D01*
X-167893Y310920D01*
X-167857Y310836D01*
X-167831Y310804D01*
X-167820Y310783D01*
X-167797Y310761D01*
X-167752Y310705D01*
X-160257Y303210D01*
X-160183Y303157D01*
X-160114Y303097D01*
X-160084Y303085D01*
X-160058Y303066D01*
X-159971Y303039D01*
X-159886Y303005D01*
X-159845Y303001D01*
X-159823Y302994D01*
X-159790Y302995D01*
X-159719Y302987D01*
X-74034Y302987D01*
X-49065Y278018D01*
X-48991Y277965D01*
X-48922Y277905D01*
X-48892Y277893D01*
X-48866Y277874D01*
X-48779Y277847D01*
X-48694Y277813D01*
X-48653Y277809D01*
X-48631Y277802D01*
X-48598Y277803D01*
X-48527Y277795D01*
X-18473Y277795D01*
X-18383Y277809D01*
X-18292Y277817D01*
X-18262Y277829D01*
X-18230Y277834D01*
X-18150Y277877D01*
X-18066Y277913D01*
X-18034Y277939D01*
X-18013Y277950D01*
X-17991Y277973D01*
X-17935Y278018D01*
X-9018Y286935D01*
X-8965Y287009D01*
X-8905Y287078D01*
X-8893Y287108D01*
X-8874Y287134D01*
X-8847Y287221D01*
X-8813Y287306D01*
X-8809Y287347D01*
X-8802Y287369D01*
X-8803Y287402D01*
X-8795Y287473D01*
X-8795Y359467D01*
X-8809Y359557D01*
X-8817Y359648D01*
X-8829Y359678D01*
X-8834Y359710D01*
X-8877Y359790D01*
X-8913Y359874D01*
X-8939Y359906D01*
X-8950Y359927D01*
X-8973Y359949D01*
X-9018Y360005D01*
X-9196Y360183D01*
X-9196Y363517D01*
X-6838Y365875D01*
X-3504Y365875D01*
X-1146Y363517D01*
X-1146Y360183D01*
X-2982Y358347D01*
X-3035Y358273D01*
X-3095Y358203D01*
X-3107Y358173D01*
X-3126Y358147D01*
X-3153Y358060D01*
X-3187Y357975D01*
X-3191Y357934D01*
X-3198Y357912D01*
X-3197Y357880D01*
X-3205Y357808D01*
X-3205Y354585D01*
X-3194Y354514D01*
X-3192Y354442D01*
X-3174Y354394D01*
X-3166Y354342D01*
X-3132Y354279D01*
X-3107Y354211D01*
X-3075Y354171D01*
X-3050Y354125D01*
X-2998Y354075D01*
X-2954Y354019D01*
X-2910Y353991D01*
X-2872Y353955D01*
X-2807Y353925D01*
X-2747Y353886D01*
X-2696Y353874D01*
X-2649Y353852D01*
X-2578Y353844D01*
X-2508Y353826D01*
X-2456Y353830D01*
X-2405Y353825D01*
X-2334Y353840D01*
X-2263Y353846D01*
X-2215Y353866D01*
X-2164Y353877D01*
X-2103Y353914D01*
X-2037Y353942D01*
X-1981Y353987D01*
X-1953Y354003D01*
X-1938Y354021D01*
X-1906Y354047D01*
X-1136Y354816D01*
X-1083Y354890D01*
X-1024Y354960D01*
X-1011Y354990D01*
X-993Y355016D01*
X-966Y355103D01*
X-932Y355188D01*
X-927Y355229D01*
X-920Y355251D01*
X-921Y355283D01*
X-913Y355355D01*
X-913Y356779D01*
X1444Y359136D01*
X5094Y359136D01*
X5095Y359137D01*
X5139Y359132D01*
X5189Y359143D01*
X5240Y359144D01*
X5308Y359168D01*
X5379Y359184D01*
X5423Y359210D01*
X5471Y359227D01*
X5528Y359273D01*
X5591Y359310D01*
X5624Y359349D01*
X5664Y359381D01*
X5703Y359442D01*
X5750Y359497D01*
X5770Y359544D01*
X5797Y359587D01*
X5815Y359658D01*
X5842Y359725D01*
X5850Y359795D01*
X5858Y359826D01*
X5856Y359849D01*
X5861Y359892D01*
X5861Y367171D01*
X5846Y367262D01*
X5839Y367352D01*
X5826Y367382D01*
X5821Y367414D01*
X5778Y367495D01*
X5743Y367579D01*
X5717Y367611D01*
X5706Y367632D01*
X5683Y367654D01*
X5638Y367710D01*
X4564Y368784D01*
X4470Y368851D01*
X4375Y368922D01*
X4369Y368924D01*
X4364Y368927D01*
X4253Y368961D01*
X4141Y368998D01*
X4135Y368998D01*
X4129Y369000D01*
X4012Y368997D01*
X3895Y368995D01*
X3888Y368993D01*
X3883Y368993D01*
X3866Y368987D01*
X3734Y368949D01*
X1819Y368155D01*
X-1819Y368155D01*
X-5180Y369547D01*
X-7753Y372120D01*
X-9145Y375481D01*
X-9145Y379119D01*
X-7753Y382480D01*
X-5180Y385053D01*
X-1819Y386445D01*
X1819Y386445D01*
X5180Y385053D01*
X7753Y382480D01*
X9145Y379119D01*
X9145Y375481D01*
X8351Y373566D01*
X8325Y373452D01*
X8296Y373339D01*
X8297Y373332D01*
X8295Y373326D01*
X8306Y373210D01*
X8315Y373093D01*
X8318Y373088D01*
X8318Y373081D01*
X8366Y372975D01*
X8412Y372867D01*
X8416Y372861D01*
X8418Y372857D01*
X8431Y372843D01*
X8516Y372736D01*
X10892Y370361D01*
X10950Y370319D01*
X11002Y370269D01*
X11049Y370247D01*
X11091Y370217D01*
X11160Y370196D01*
X11225Y370166D01*
X11277Y370160D01*
X11327Y370145D01*
X11398Y370147D01*
X11469Y370139D01*
X11520Y370150D01*
X11572Y370151D01*
X11640Y370176D01*
X11710Y370191D01*
X11755Y370218D01*
X11803Y370236D01*
X11859Y370280D01*
X11921Y370317D01*
X11955Y370357D01*
X11995Y370389D01*
X12034Y370450D01*
X12081Y370504D01*
X12100Y370552D01*
X12128Y370596D01*
X12146Y370666D01*
X12173Y370732D01*
X12181Y370804D01*
X12189Y370835D01*
X12187Y370858D01*
X12191Y370899D01*
X12191Y428541D01*
X12177Y428631D01*
X12169Y428722D01*
X12157Y428752D01*
X12152Y428784D01*
X12109Y428864D01*
X12073Y428948D01*
X12047Y428980D01*
X12036Y429001D01*
X12013Y429023D01*
X11968Y429079D01*
X-40795Y481842D01*
X-40795Y529288D01*
X-40809Y529378D01*
X-40817Y529469D01*
X-40829Y529498D01*
X-40834Y529530D01*
X-40877Y529611D01*
X-40913Y529695D01*
X-40939Y529727D01*
X-40950Y529748D01*
X-40973Y529770D01*
X-41018Y529826D01*
X-42025Y530833D01*
X-42025Y534167D01*
X-39667Y536525D01*
X-36333Y536525D01*
X-33975Y534167D01*
X-33975Y530833D01*
X-34982Y529826D01*
X-35035Y529752D01*
X-35095Y529682D01*
X-35107Y529652D01*
X-35126Y529626D01*
X-35153Y529539D01*
X-35187Y529454D01*
X-35191Y529413D01*
X-35198Y529391D01*
X-35197Y529359D01*
X-35205Y529288D01*
X-35205Y484473D01*
X-35191Y484383D01*
X-35183Y484292D01*
X-35171Y484262D01*
X-35166Y484230D01*
X-35123Y484150D01*
X-35087Y484066D01*
X-35061Y484034D01*
X-35050Y484013D01*
X-35027Y483991D01*
X-34982Y483935D01*
X17781Y431172D01*
X17781Y384451D01*
X17792Y384380D01*
X17794Y384309D01*
X17812Y384260D01*
X17820Y384208D01*
X17854Y384145D01*
X17879Y384078D01*
X17911Y384037D01*
X17936Y383991D01*
X17988Y383942D01*
X18032Y383886D01*
X18076Y383857D01*
X18114Y383822D01*
X18179Y383791D01*
X18239Y383753D01*
X18290Y383740D01*
X18337Y383718D01*
X18408Y383710D01*
X18478Y383693D01*
X18530Y383697D01*
X18581Y383691D01*
X18652Y383706D01*
X18723Y383712D01*
X18771Y383732D01*
X18822Y383743D01*
X18883Y383780D01*
X18949Y383808D01*
X19005Y383853D01*
X19033Y383869D01*
X19048Y383887D01*
X19080Y383913D01*
X20220Y385053D01*
X23581Y386445D01*
X27219Y386445D01*
X30580Y385053D01*
X33153Y382480D01*
X34545Y379119D01*
X34545Y375481D01*
X33751Y373566D01*
X33725Y373452D01*
X33696Y373338D01*
X33697Y373332D01*
X33695Y373326D01*
X33706Y373210D01*
X33715Y373093D01*
X33718Y373088D01*
X33718Y373081D01*
X33766Y372974D01*
X33812Y372867D01*
X33816Y372861D01*
X33818Y372857D01*
X33831Y372843D01*
X33916Y372736D01*
X51335Y355318D01*
X53195Y353458D01*
X53195Y331073D01*
X53209Y330983D01*
X53217Y330892D01*
X53229Y330862D01*
X53234Y330830D01*
X53277Y330750D01*
X53313Y330666D01*
X53339Y330634D01*
X53350Y330613D01*
X53373Y330591D01*
X53391Y330568D01*
X53395Y330561D01*
X53400Y330557D01*
X53418Y330535D01*
X56935Y327018D01*
X57009Y326965D01*
X57078Y326905D01*
X57108Y326893D01*
X57134Y326874D01*
X57221Y326847D01*
X57306Y326813D01*
X57347Y326809D01*
X57369Y326802D01*
X57402Y326803D01*
X57473Y326795D01*
X60676Y326795D01*
X60746Y326806D01*
X60818Y326808D01*
X60867Y326826D01*
X60918Y326834D01*
X60982Y326868D01*
X61049Y326893D01*
X61090Y326925D01*
X61136Y326950D01*
X61185Y327002D01*
X61241Y327046D01*
X61269Y327090D01*
X61305Y327128D01*
X61335Y327193D01*
X61374Y327253D01*
X61387Y327304D01*
X61409Y327351D01*
X61417Y327422D01*
X61434Y327492D01*
X61430Y327544D01*
X61436Y327595D01*
X61421Y327666D01*
X61415Y327737D01*
X61395Y327785D01*
X61384Y327836D01*
X61347Y327897D01*
X61319Y327963D01*
X61274Y328019D01*
X61257Y328047D01*
X61240Y328062D01*
X61214Y328094D01*
X60975Y328333D01*
X60975Y331667D01*
X61982Y332674D01*
X62035Y332748D01*
X62095Y332818D01*
X62107Y332848D01*
X62126Y332874D01*
X62153Y332961D01*
X62187Y333046D01*
X62191Y333087D01*
X62198Y333109D01*
X62197Y333141D01*
X62205Y333212D01*
X62205Y346788D01*
X62191Y346878D01*
X62183Y346969D01*
X62171Y346998D01*
X62166Y347030D01*
X62123Y347111D01*
X62087Y347195D01*
X62061Y347227D01*
X62050Y347248D01*
X62027Y347270D01*
X61982Y347326D01*
X60975Y348333D01*
X60975Y351667D01*
X63333Y354025D01*
X66667Y354025D01*
X67406Y353286D01*
X67464Y353244D01*
X67516Y353195D01*
X67563Y353173D01*
X67605Y353143D01*
X67674Y353121D01*
X67739Y353091D01*
X67791Y353086D01*
X67841Y353070D01*
X67912Y353072D01*
X67983Y353064D01*
X68034Y353075D01*
X68086Y353077D01*
X68154Y353101D01*
X68224Y353116D01*
X68269Y353143D01*
X68317Y353161D01*
X68373Y353206D01*
X68435Y353243D01*
X68469Y353282D01*
X68509Y353315D01*
X68548Y353375D01*
X68595Y353429D01*
X68614Y353478D01*
X68642Y353522D01*
X68660Y353591D01*
X68687Y353658D01*
X68695Y353729D01*
X68703Y353760D01*
X68701Y353783D01*
X68705Y353824D01*
X68705Y362658D01*
X77752Y371705D01*
X77805Y371779D01*
X77865Y371848D01*
X77877Y371878D01*
X77896Y371904D01*
X77923Y371991D01*
X77957Y372076D01*
X77961Y372117D01*
X77968Y372139D01*
X77967Y372172D01*
X77975Y372243D01*
X77975Y373744D01*
X77972Y373764D01*
X77974Y373783D01*
X77952Y373885D01*
X77936Y373987D01*
X77926Y374004D01*
X77922Y374024D01*
X77869Y374113D01*
X77820Y374204D01*
X77806Y374218D01*
X77796Y374235D01*
X77717Y374302D01*
X77642Y374374D01*
X77624Y374382D01*
X77609Y374395D01*
X77513Y374434D01*
X77419Y374477D01*
X77399Y374479D01*
X77381Y374487D01*
X77214Y374505D01*
X60049Y374505D01*
X59934Y374486D01*
X59818Y374469D01*
X59813Y374467D01*
X59806Y374466D01*
X59704Y374411D01*
X59599Y374358D01*
X59595Y374353D01*
X59589Y374350D01*
X59509Y374266D01*
X59427Y374182D01*
X59423Y374176D01*
X59420Y374172D01*
X59412Y374155D01*
X59346Y374035D01*
X58553Y372120D01*
X55980Y369547D01*
X52619Y368155D01*
X48981Y368155D01*
X45620Y369547D01*
X43047Y372120D01*
X41655Y375481D01*
X41655Y379119D01*
X43047Y382480D01*
X45620Y385053D01*
X48981Y386445D01*
X52619Y386445D01*
X55980Y385053D01*
X58553Y382480D01*
X59346Y380565D01*
X59408Y380465D01*
X59467Y380365D01*
X59472Y380361D01*
X59475Y380356D01*
X59566Y380281D01*
X59654Y380205D01*
X59660Y380203D01*
X59665Y380199D01*
X59773Y380157D01*
X59882Y380113D01*
X59890Y380112D01*
X59895Y380111D01*
X59913Y380110D01*
X60049Y380095D01*
X88345Y380095D01*
X103251Y365189D01*
X103251Y276798D01*
X99248Y272795D01*
X99195Y272721D01*
X99135Y272652D01*
X99123Y272622D01*
X99104Y272596D01*
X99077Y272509D01*
X99043Y272424D01*
X99039Y272383D01*
X99032Y272361D01*
X99033Y272328D01*
X99025Y272257D01*
X99025Y270833D01*
X96667Y268475D01*
X93333Y268475D01*
X90975Y270833D01*
X90975Y274167D01*
X93333Y276525D01*
X94757Y276525D01*
X94847Y276539D01*
X94938Y276547D01*
X94968Y276559D01*
X95000Y276564D01*
X95080Y276607D01*
X95164Y276643D01*
X95196Y276669D01*
X95217Y276680D01*
X95239Y276703D01*
X95295Y276748D01*
X97438Y278891D01*
X97491Y278965D01*
X97551Y279034D01*
X97563Y279064D01*
X97582Y279090D01*
X97609Y279177D01*
X97643Y279262D01*
X97647Y279303D01*
X97654Y279325D01*
X97653Y279358D01*
X97661Y279429D01*
X97661Y285612D01*
X97650Y285682D01*
X97648Y285754D01*
X97630Y285803D01*
X97622Y285854D01*
X97588Y285918D01*
X97563Y285985D01*
X97531Y286026D01*
X97506Y286072D01*
X97454Y286121D01*
X97410Y286177D01*
X97366Y286205D01*
X97328Y286241D01*
X97263Y286271D01*
X97203Y286310D01*
X97152Y286323D01*
X97105Y286345D01*
X97034Y286353D01*
X96964Y286370D01*
X96912Y286366D01*
X96861Y286372D01*
X96790Y286357D01*
X96719Y286351D01*
X96671Y286331D01*
X96620Y286320D01*
X96559Y286283D01*
X96493Y286255D01*
X96437Y286210D01*
X96409Y286193D01*
X96394Y286176D01*
X96362Y286150D01*
X95687Y285475D01*
X92353Y285475D01*
X89995Y287833D01*
X89995Y291167D01*
X92353Y293525D01*
X95687Y293525D01*
X96362Y292850D01*
X96420Y292808D01*
X96472Y292759D01*
X96519Y292737D01*
X96561Y292707D01*
X96630Y292685D01*
X96695Y292655D01*
X96747Y292650D01*
X96797Y292634D01*
X96868Y292636D01*
X96939Y292628D01*
X96990Y292639D01*
X97042Y292641D01*
X97110Y292665D01*
X97180Y292680D01*
X97225Y292707D01*
X97273Y292725D01*
X97329Y292770D01*
X97391Y292807D01*
X97425Y292846D01*
X97465Y292879D01*
X97504Y292939D01*
X97551Y292993D01*
X97570Y293042D01*
X97598Y293086D01*
X97616Y293155D01*
X97643Y293222D01*
X97651Y293293D01*
X97659Y293324D01*
X97657Y293347D01*
X97661Y293388D01*
X97661Y362558D01*
X97647Y362648D01*
X97639Y362739D01*
X97627Y362769D01*
X97622Y362801D01*
X97579Y362881D01*
X97543Y362965D01*
X97517Y362997D01*
X97506Y363018D01*
X97483Y363040D01*
X97438Y363096D01*
X87324Y373210D01*
X87266Y373252D01*
X87214Y373301D01*
X87167Y373323D01*
X87125Y373354D01*
X87056Y373375D01*
X86991Y373405D01*
X86939Y373411D01*
X86889Y373426D01*
X86818Y373424D01*
X86747Y373432D01*
X86696Y373421D01*
X86644Y373420D01*
X86576Y373395D01*
X86506Y373380D01*
X86461Y373353D01*
X86413Y373335D01*
X86357Y373290D01*
X86295Y373254D01*
X86261Y373214D01*
X86221Y373182D01*
X86182Y373121D01*
X86135Y373067D01*
X86116Y373019D01*
X86088Y372975D01*
X86070Y372905D01*
X86043Y372839D01*
X86035Y372767D01*
X86027Y372736D01*
X86029Y372713D01*
X86025Y372672D01*
X86025Y370333D01*
X83667Y367975D01*
X82243Y367975D01*
X82153Y367961D01*
X82062Y367953D01*
X82032Y367941D01*
X82000Y367936D01*
X81920Y367893D01*
X81836Y367857D01*
X81803Y367831D01*
X81783Y367820D01*
X81761Y367797D01*
X81705Y367752D01*
X81277Y367324D01*
X81235Y367266D01*
X81185Y367214D01*
X81163Y367167D01*
X81133Y367125D01*
X81112Y367056D01*
X81082Y366991D01*
X81076Y366939D01*
X81061Y366889D01*
X81063Y366818D01*
X81055Y366747D01*
X81066Y366696D01*
X81067Y366644D01*
X81092Y366576D01*
X81107Y366506D01*
X81134Y366461D01*
X81152Y366413D01*
X81196Y366357D01*
X81233Y366295D01*
X81273Y366261D01*
X81305Y366221D01*
X81365Y366182D01*
X81420Y366135D01*
X81468Y366116D01*
X81512Y366088D01*
X81582Y366070D01*
X81648Y366043D01*
X81649Y366043D01*
X84025Y363667D01*
X84025Y360333D01*
X83018Y359326D01*
X82965Y359252D01*
X82905Y359182D01*
X82893Y359152D01*
X82874Y359126D01*
X82847Y359039D01*
X82813Y358954D01*
X82809Y358913D01*
X82802Y358891D01*
X82803Y358859D01*
X82795Y358788D01*
X82795Y338212D01*
X82809Y338122D01*
X82817Y338031D01*
X82829Y338002D01*
X82834Y337970D01*
X82877Y337889D01*
X82913Y337805D01*
X82939Y337773D01*
X82950Y337752D01*
X82973Y337730D01*
X83018Y337674D01*
X84025Y336667D01*
X84025Y333333D01*
X81667Y330975D01*
X78333Y330975D01*
X75928Y333380D01*
X75912Y333392D01*
X75899Y333407D01*
X75812Y333463D01*
X75728Y333524D01*
X75709Y333530D01*
X75692Y333540D01*
X75592Y333566D01*
X75493Y333596D01*
X75473Y333596D01*
X75454Y333600D01*
X75351Y333592D01*
X75247Y333590D01*
X75228Y333583D01*
X75209Y333581D01*
X75114Y333541D01*
X75016Y333505D01*
X75001Y333493D01*
X74982Y333485D01*
X74851Y333380D01*
X73167Y331696D01*
X69786Y331696D01*
X69766Y331693D01*
X69747Y331695D01*
X69645Y331673D01*
X69543Y331656D01*
X69526Y331647D01*
X69506Y331643D01*
X69417Y331589D01*
X69326Y331541D01*
X69312Y331527D01*
X69295Y331516D01*
X69228Y331438D01*
X69156Y331363D01*
X69148Y331345D01*
X69135Y331330D01*
X69096Y331233D01*
X69053Y331140D01*
X69051Y331120D01*
X69043Y331101D01*
X69025Y330935D01*
X69025Y328333D01*
X68786Y328094D01*
X68744Y328036D01*
X68695Y327984D01*
X68673Y327937D01*
X68643Y327895D01*
X68621Y327826D01*
X68591Y327761D01*
X68586Y327709D01*
X68570Y327659D01*
X68572Y327588D01*
X68564Y327517D01*
X68575Y327466D01*
X68577Y327414D01*
X68601Y327346D01*
X68616Y327276D01*
X68643Y327231D01*
X68661Y327183D01*
X68706Y327127D01*
X68743Y327065D01*
X68782Y327031D01*
X68815Y326991D01*
X68875Y326952D01*
X68929Y326905D01*
X68978Y326886D01*
X69022Y326858D01*
X69091Y326840D01*
X69158Y326813D01*
X69229Y326805D01*
X69260Y326797D01*
X69283Y326799D01*
X69324Y326795D01*
X81038Y326795D01*
X81128Y326809D01*
X81219Y326817D01*
X81248Y326829D01*
X81280Y326834D01*
X81361Y326877D01*
X81445Y326913D01*
X81477Y326939D01*
X81498Y326950D01*
X81520Y326973D01*
X81576Y327018D01*
X82583Y328025D01*
X85917Y328025D01*
X88275Y325667D01*
X88275Y322333D01*
X85917Y319975D01*
X82583Y319975D01*
X81576Y320982D01*
X81502Y321035D01*
X81432Y321095D01*
X81402Y321107D01*
X81376Y321126D01*
X81289Y321153D01*
X81204Y321187D01*
X81163Y321191D01*
X81141Y321198D01*
X81109Y321197D01*
X81038Y321205D01*
X54842Y321205D01*
X47605Y328442D01*
X47605Y350827D01*
X47591Y350917D01*
X47583Y351008D01*
X47571Y351038D01*
X47566Y351070D01*
X47523Y351150D01*
X47487Y351234D01*
X47461Y351266D01*
X47450Y351287D01*
X47427Y351309D01*
X47415Y351325D01*
X47408Y351335D01*
X47402Y351341D01*
X47382Y351365D01*
X29964Y368784D01*
X29870Y368851D01*
X29775Y368922D01*
X29769Y368924D01*
X29764Y368927D01*
X29653Y368961D01*
X29541Y368998D01*
X29535Y368998D01*
X29529Y369000D01*
X29412Y368997D01*
X29296Y368995D01*
X29288Y368993D01*
X29283Y368993D01*
X29266Y368987D01*
X29134Y368949D01*
X27219Y368155D01*
X23581Y368155D01*
X20220Y369547D01*
X19080Y370687D01*
X19022Y370729D01*
X18970Y370778D01*
X18923Y370800D01*
X18881Y370831D01*
X18812Y370852D01*
X18747Y370882D01*
X18695Y370888D01*
X18645Y370903D01*
X18574Y370901D01*
X18503Y370909D01*
X18452Y370898D01*
X18400Y370897D01*
X18332Y370872D01*
X18262Y370857D01*
X18217Y370830D01*
X18169Y370812D01*
X18113Y370767D01*
X18051Y370731D01*
X18017Y370691D01*
X17977Y370659D01*
X17938Y370598D01*
X17891Y370544D01*
X17872Y370495D01*
X17844Y370452D01*
X17826Y370382D01*
X17799Y370316D01*
X17791Y370244D01*
X17783Y370213D01*
X17785Y370190D01*
X17781Y370149D01*
X17781Y294786D01*
X17784Y294766D01*
X17782Y294747D01*
X17804Y294645D01*
X17820Y294543D01*
X17830Y294526D01*
X17834Y294506D01*
X17887Y294417D01*
X17936Y294326D01*
X17950Y294312D01*
X17960Y294295D01*
X18039Y294228D01*
X18114Y294156D01*
X18132Y294148D01*
X18147Y294135D01*
X18243Y294096D01*
X18337Y294053D01*
X18357Y294051D01*
X18375Y294043D01*
X18542Y294025D01*
X18989Y294025D01*
X20176Y292838D01*
X20234Y292796D01*
X20286Y292747D01*
X20333Y292725D01*
X20375Y292695D01*
X20444Y292673D01*
X20509Y292643D01*
X20561Y292638D01*
X20611Y292622D01*
X20682Y292624D01*
X20753Y292616D01*
X20804Y292627D01*
X20856Y292629D01*
X20924Y292653D01*
X20994Y292668D01*
X21039Y292695D01*
X21087Y292713D01*
X21143Y292758D01*
X21205Y292795D01*
X21239Y292834D01*
X21279Y292867D01*
X21318Y292927D01*
X21365Y292981D01*
X21384Y293030D01*
X21412Y293074D01*
X21430Y293143D01*
X21457Y293210D01*
X21465Y293281D01*
X21473Y293312D01*
X21471Y293335D01*
X21475Y293376D01*
X21475Y294667D01*
X23833Y297025D01*
X27167Y297025D01*
X29525Y294667D01*
X29525Y291333D01*
X27167Y288975D01*
X23833Y288975D01*
X22646Y290162D01*
X22588Y290204D01*
X22536Y290253D01*
X22489Y290275D01*
X22447Y290305D01*
X22378Y290327D01*
X22313Y290357D01*
X22261Y290362D01*
X22211Y290378D01*
X22140Y290376D01*
X22069Y290384D01*
X22018Y290373D01*
X21966Y290371D01*
X21898Y290347D01*
X21828Y290332D01*
X21783Y290305D01*
X21735Y290287D01*
X21679Y290242D01*
X21617Y290205D01*
X21583Y290166D01*
X21543Y290133D01*
X21504Y290073D01*
X21457Y290019D01*
X21438Y289970D01*
X21410Y289926D01*
X21392Y289857D01*
X21365Y289790D01*
X21357Y289719D01*
X21349Y289688D01*
X21351Y289665D01*
X21347Y289624D01*
X21347Y288333D01*
X18989Y285975D01*
X15655Y285975D01*
X13297Y288333D01*
X13297Y289757D01*
X13283Y289847D01*
X13275Y289938D01*
X13263Y289968D01*
X13258Y290000D01*
X13215Y290080D01*
X13179Y290164D01*
X13153Y290196D01*
X13142Y290217D01*
X13119Y290239D01*
X13074Y290295D01*
X12191Y291178D01*
X12191Y341648D01*
X12180Y341718D01*
X12178Y341790D01*
X12160Y341839D01*
X12152Y341890D01*
X12118Y341954D01*
X12093Y342021D01*
X12061Y342062D01*
X12036Y342108D01*
X11984Y342157D01*
X11940Y342213D01*
X11896Y342241D01*
X11858Y342277D01*
X11793Y342307D01*
X11733Y342346D01*
X11682Y342359D01*
X11635Y342381D01*
X11564Y342389D01*
X11494Y342406D01*
X11442Y342402D01*
X11391Y342408D01*
X11320Y342393D01*
X11249Y342387D01*
X11201Y342367D01*
X11150Y342356D01*
X11089Y342319D01*
X11023Y342291D01*
X10967Y342246D01*
X10939Y342229D01*
X10924Y342212D01*
X10892Y342186D01*
X9590Y340885D01*
X9590Y340884D01*
X7176Y338470D01*
X7123Y338396D01*
X7063Y338327D01*
X7051Y338296D01*
X7032Y338270D01*
X7005Y338183D01*
X6971Y338098D01*
X6967Y338057D01*
X6960Y338035D01*
X6961Y338003D01*
X6953Y337932D01*
X6953Y281842D01*
X5093Y279982D01*
X-9888Y265001D01*
X-11748Y263141D01*
X-28612Y263141D01*
X-28682Y263130D01*
X-28754Y263128D01*
X-28803Y263110D01*
X-28854Y263102D01*
X-28918Y263068D01*
X-28985Y263043D01*
X-29026Y263011D01*
X-29072Y262986D01*
X-29121Y262935D01*
X-29177Y262890D01*
X-29205Y262846D01*
X-29241Y262808D01*
X-29271Y262743D01*
X-29310Y262683D01*
X-29323Y262632D01*
X-29345Y262585D01*
X-29353Y262514D01*
X-29370Y262444D01*
X-29366Y262392D01*
X-29372Y262341D01*
X-29357Y262270D01*
X-29351Y262199D01*
X-29331Y262151D01*
X-29320Y262100D01*
X-29283Y262039D01*
X-29255Y261973D01*
X-29210Y261917D01*
X-29193Y261889D01*
X-29176Y261874D01*
X-29150Y261842D01*
X-28975Y261667D01*
X-28975Y258333D01*
X-31333Y255975D01*
X-34667Y255975D01*
X-35674Y256982D01*
X-35748Y257035D01*
X-35818Y257095D01*
X-35848Y257107D01*
X-35874Y257126D01*
X-35961Y257153D01*
X-36046Y257187D01*
X-36087Y257191D01*
X-36109Y257198D01*
X-36141Y257197D01*
X-36212Y257205D01*
X-54158Y257205D01*
X-58676Y261723D01*
X-58734Y261765D01*
X-58786Y261815D01*
X-58833Y261837D01*
X-58875Y261867D01*
X-58944Y261888D01*
X-59009Y261918D01*
X-59061Y261924D01*
X-59111Y261939D01*
X-59182Y261937D01*
X-59253Y261945D01*
X-59304Y261934D01*
X-59356Y261933D01*
X-59424Y261908D01*
X-59494Y261893D01*
X-59539Y261866D01*
X-59587Y261848D01*
X-59643Y261804D01*
X-59705Y261767D01*
X-59739Y261727D01*
X-59779Y261695D01*
X-59818Y261634D01*
X-59865Y261580D01*
X-59884Y261532D01*
X-59912Y261488D01*
X-59930Y261418D01*
X-59957Y261352D01*
X-59965Y261280D01*
X-59973Y261249D01*
X-59971Y261226D01*
X-59975Y261185D01*
X-59975Y258333D01*
X-62333Y255975D01*
X-65667Y255975D01*
X-66674Y256982D01*
X-66748Y257035D01*
X-66818Y257095D01*
X-66848Y257107D01*
X-66874Y257126D01*
X-66961Y257153D01*
X-67046Y257187D01*
X-67087Y257191D01*
X-67109Y257198D01*
X-67141Y257197D01*
X-67212Y257205D01*
X-81527Y257205D01*
X-81617Y257191D01*
X-81708Y257183D01*
X-81738Y257171D01*
X-81770Y257166D01*
X-81850Y257123D01*
X-81934Y257087D01*
X-81966Y257061D01*
X-81987Y257050D01*
X-82009Y257027D01*
X-82065Y256982D01*
X-141982Y197065D01*
X-142035Y196991D01*
X-142095Y196922D01*
X-142107Y196892D01*
X-142126Y196866D01*
X-142153Y196779D01*
X-142187Y196694D01*
X-142191Y196653D01*
X-142198Y196631D01*
X-142197Y196598D01*
X-142205Y196527D01*
X-142205Y178212D01*
X-142191Y178122D01*
X-142183Y178031D01*
X-142171Y178002D01*
X-142166Y177970D01*
X-142123Y177889D01*
X-142087Y177805D01*
X-142061Y177773D01*
X-142050Y177752D01*
X-142027Y177730D01*
X-141982Y177674D01*
X-140975Y176667D01*
X-140975Y173333D01*
X-143333Y170975D01*
X-146667Y170975D01*
X-149025Y173333D01*
X-149025Y176667D01*
X-148018Y177674D01*
X-147965Y177748D01*
X-147905Y177818D01*
X-147893Y177848D01*
X-147874Y177874D01*
X-147847Y177961D01*
X-147813Y178046D01*
X-147809Y178087D01*
X-147802Y178109D01*
X-147803Y178141D01*
X-147795Y178212D01*
X-147795Y199158D01*
X-145935Y201018D01*
X-92277Y254676D01*
X-92235Y254734D01*
X-92185Y254786D01*
X-92163Y254833D01*
X-92133Y254875D01*
X-92112Y254944D01*
X-92082Y255009D01*
X-92076Y255061D01*
X-92061Y255111D01*
X-92063Y255182D01*
X-92055Y255253D01*
X-92066Y255304D01*
X-92067Y255356D01*
X-92092Y255424D01*
X-92107Y255494D01*
X-92134Y255539D01*
X-92152Y255587D01*
X-92196Y255643D01*
X-92233Y255705D01*
X-92273Y255739D01*
X-92305Y255779D01*
X-92366Y255818D01*
X-92420Y255865D01*
X-92468Y255884D01*
X-92512Y255912D01*
X-92582Y255930D01*
X-92648Y255957D01*
X-92720Y255965D01*
X-92751Y255973D01*
X-92774Y255971D01*
X-92815Y255975D01*
X-95667Y255975D01*
X-98025Y258333D01*
X-98025Y261667D01*
X-95667Y264025D01*
X-92333Y264025D01*
X-89975Y261667D01*
X-89975Y258815D01*
X-89964Y258744D01*
X-89962Y258672D01*
X-89944Y258623D01*
X-89936Y258572D01*
X-89902Y258509D01*
X-89877Y258441D01*
X-89845Y258401D01*
X-89820Y258355D01*
X-89768Y258305D01*
X-89724Y258249D01*
X-89680Y258221D01*
X-89642Y258185D01*
X-89577Y258155D01*
X-89517Y258116D01*
X-89466Y258104D01*
X-89419Y258082D01*
X-89348Y258074D01*
X-89278Y258056D01*
X-89226Y258060D01*
X-89175Y258055D01*
X-89104Y258070D01*
X-89033Y258075D01*
X-88985Y258096D01*
X-88934Y258107D01*
X-88873Y258144D01*
X-88807Y258172D01*
X-88751Y258217D01*
X-88723Y258233D01*
X-88708Y258251D01*
X-88676Y258277D01*
X-86018Y260935D01*
X-84158Y262795D01*
X-67212Y262795D01*
X-67122Y262809D01*
X-67031Y262817D01*
X-67002Y262829D01*
X-66970Y262834D01*
X-66889Y262877D01*
X-66805Y262913D01*
X-66773Y262939D01*
X-66752Y262950D01*
X-66730Y262973D01*
X-66674Y263018D01*
X-65667Y264025D01*
X-62815Y264025D01*
X-62744Y264036D01*
X-62672Y264038D01*
X-62623Y264056D01*
X-62572Y264064D01*
X-62509Y264098D01*
X-62441Y264123D01*
X-62401Y264155D01*
X-62355Y264180D01*
X-62305Y264232D01*
X-62249Y264276D01*
X-62221Y264320D01*
X-62185Y264358D01*
X-62155Y264423D01*
X-62116Y264483D01*
X-62104Y264534D01*
X-62082Y264581D01*
X-62074Y264652D01*
X-62056Y264722D01*
X-62060Y264774D01*
X-62055Y264825D01*
X-62070Y264896D01*
X-62075Y264967D01*
X-62096Y265015D01*
X-62107Y265066D01*
X-62144Y265127D01*
X-62172Y265193D01*
X-62217Y265249D01*
X-62233Y265277D01*
X-62251Y265292D01*
X-62277Y265324D01*
X-81935Y284982D01*
X-82009Y285035D01*
X-82078Y285095D01*
X-82108Y285107D01*
X-82134Y285126D01*
X-82221Y285153D01*
X-82306Y285187D01*
X-82347Y285191D01*
X-82369Y285198D01*
X-82402Y285197D01*
X-82473Y285205D01*
X-126676Y285205D01*
X-126746Y285194D01*
X-126818Y285192D01*
X-126867Y285174D01*
X-126918Y285166D01*
X-126982Y285132D01*
X-127049Y285107D01*
X-127090Y285075D01*
X-127136Y285050D01*
X-127185Y284998D01*
X-127241Y284954D01*
X-127269Y284910D01*
X-127305Y284872D01*
X-127335Y284807D01*
X-127374Y284747D01*
X-127387Y284696D01*
X-127409Y284649D01*
X-127417Y284578D01*
X-127434Y284508D01*
X-127430Y284456D01*
X-127436Y284405D01*
X-127421Y284334D01*
X-127415Y284263D01*
X-127395Y284215D01*
X-127384Y284164D01*
X-127347Y284103D01*
X-127319Y284037D01*
X-127274Y283981D01*
X-127257Y283953D01*
X-127240Y283938D01*
X-127214Y283906D01*
X-126975Y283667D01*
X-126975Y280333D01*
X-129333Y277975D01*
X-130757Y277975D01*
X-130847Y277961D01*
X-130938Y277953D01*
X-130968Y277941D01*
X-131000Y277936D01*
X-131080Y277893D01*
X-131164Y277857D01*
X-131196Y277831D01*
X-131217Y277820D01*
X-131239Y277797D01*
X-131295Y277752D01*
X-166982Y242065D01*
X-167035Y241991D01*
X-167095Y241922D01*
X-167107Y241892D01*
X-167126Y241866D01*
X-167153Y241779D01*
X-167187Y241694D01*
X-167191Y241653D01*
X-167198Y241631D01*
X-167197Y241598D01*
X-167205Y241527D01*
X-167205Y120212D01*
X-167191Y120122D01*
X-167183Y120031D01*
X-167171Y120002D01*
X-167166Y119970D01*
X-167123Y119889D01*
X-167087Y119805D01*
X-167061Y119773D01*
X-167050Y119752D01*
X-167027Y119730D01*
X-167000Y119696D01*
X-166999Y119695D01*
X-166998Y119694D01*
X-166982Y119674D01*
X-164975Y117667D01*
X-164975Y114333D01*
X-167333Y111975D01*
X-170667Y111975D01*
G37*
%LPD*%
%LPC*%
G36*
X-214291Y-84201D02*
X-214291Y-84201D01*
X-217232Y-82983D01*
X-219483Y-80732D01*
X-220701Y-77791D01*
X-220701Y-74609D01*
X-219483Y-71668D01*
X-217232Y-69417D01*
X-216378Y-69063D01*
X-216338Y-69039D01*
X-216295Y-69023D01*
X-216235Y-68975D01*
X-216168Y-68934D01*
X-216139Y-68898D01*
X-216103Y-68870D01*
X-216061Y-68804D01*
X-216012Y-68744D01*
X-215995Y-68701D01*
X-215970Y-68663D01*
X-215951Y-68587D01*
X-215923Y-68515D01*
X-215922Y-68469D01*
X-215910Y-68424D01*
X-215916Y-68347D01*
X-215913Y-68269D01*
X-215926Y-68225D01*
X-215929Y-68179D01*
X-215960Y-68108D01*
X-215982Y-68033D01*
X-216008Y-67995D01*
X-216026Y-67953D01*
X-216111Y-67846D01*
X-216122Y-67831D01*
X-216126Y-67828D01*
X-216131Y-67822D01*
X-218018Y-65935D01*
X-224765Y-59188D01*
X-224765Y106597D01*
X-219338Y112024D01*
X-219285Y112098D01*
X-219226Y112167D01*
X-219214Y112197D01*
X-219195Y112224D01*
X-219168Y112311D01*
X-219153Y112347D01*
X-219143Y112368D01*
X-219143Y112373D01*
X-219134Y112395D01*
X-219129Y112436D01*
X-219122Y112459D01*
X-219123Y112491D01*
X-219115Y112562D01*
X-219115Y134788D01*
X-219130Y134878D01*
X-219137Y134969D01*
X-219150Y134998D01*
X-219155Y135030D01*
X-219198Y135111D01*
X-219234Y135195D01*
X-219259Y135227D01*
X-219270Y135248D01*
X-219294Y135270D01*
X-219338Y135326D01*
X-220345Y136333D01*
X-220345Y139667D01*
X-219107Y140906D01*
X-219065Y140964D01*
X-219015Y141016D01*
X-218994Y141063D01*
X-218963Y141105D01*
X-218942Y141174D01*
X-218912Y141239D01*
X-218906Y141291D01*
X-218891Y141341D01*
X-218893Y141412D01*
X-218885Y141483D01*
X-218896Y141534D01*
X-218897Y141586D01*
X-218922Y141654D01*
X-218937Y141724D01*
X-218964Y141769D01*
X-218982Y141817D01*
X-219026Y141873D01*
X-219063Y141935D01*
X-219103Y141969D01*
X-219135Y142009D01*
X-219196Y142048D01*
X-219250Y142095D01*
X-219298Y142114D01*
X-219342Y142142D01*
X-219412Y142160D01*
X-219478Y142187D01*
X-219550Y142195D01*
X-219581Y142203D01*
X-219604Y142201D01*
X-219645Y142205D01*
X-221608Y142205D01*
X-221698Y142191D01*
X-221789Y142183D01*
X-221819Y142171D01*
X-221851Y142166D01*
X-221932Y142123D01*
X-222016Y142087D01*
X-222048Y142061D01*
X-222068Y142050D01*
X-222091Y142027D01*
X-222146Y141982D01*
X-223154Y140975D01*
X-226488Y140975D01*
X-228845Y143333D01*
X-228845Y146667D01*
X-226488Y149025D01*
X-223154Y149025D01*
X-222146Y148018D01*
X-222073Y147965D01*
X-222003Y147905D01*
X-221973Y147893D01*
X-221947Y147874D01*
X-221860Y147847D01*
X-221775Y147813D01*
X-221734Y147809D01*
X-221712Y147802D01*
X-221679Y147803D01*
X-221608Y147795D01*
X-203842Y147795D01*
X-194205Y138158D01*
X-194205Y107847D01*
X-194194Y107777D01*
X-194192Y107705D01*
X-194174Y107656D01*
X-194166Y107605D01*
X-194132Y107541D01*
X-194107Y107474D01*
X-194075Y107433D01*
X-194050Y107387D01*
X-193998Y107338D01*
X-193954Y107282D01*
X-193910Y107254D01*
X-193872Y107218D01*
X-193807Y107188D01*
X-193747Y107149D01*
X-193696Y107136D01*
X-193649Y107114D01*
X-193578Y107106D01*
X-193508Y107089D01*
X-193456Y107093D01*
X-193405Y107087D01*
X-193334Y107102D01*
X-193263Y107108D01*
X-193215Y107128D01*
X-193164Y107139D01*
X-193103Y107176D01*
X-193037Y107204D01*
X-192981Y107249D01*
X-192953Y107265D01*
X-192938Y107283D01*
X-192906Y107309D01*
X-191832Y108383D01*
X-188891Y109601D01*
X-185709Y109601D01*
X-182768Y108383D01*
X-180517Y106132D01*
X-179299Y103191D01*
X-179299Y100009D01*
X-180517Y97068D01*
X-182768Y94817D01*
X-185709Y93599D01*
X-188891Y93599D01*
X-191832Y94817D01*
X-192906Y95891D01*
X-192964Y95933D01*
X-193016Y95982D01*
X-193063Y96004D01*
X-193105Y96035D01*
X-193174Y96056D01*
X-193239Y96086D01*
X-193291Y96092D01*
X-193341Y96107D01*
X-193412Y96105D01*
X-193483Y96113D01*
X-193534Y96102D01*
X-193586Y96101D01*
X-193654Y96076D01*
X-193724Y96061D01*
X-193769Y96034D01*
X-193817Y96016D01*
X-193873Y95971D01*
X-193935Y95935D01*
X-193969Y95895D01*
X-194009Y95862D01*
X-194048Y95802D01*
X-194095Y95748D01*
X-194114Y95699D01*
X-194142Y95655D01*
X-194160Y95586D01*
X-194187Y95519D01*
X-194195Y95448D01*
X-194203Y95417D01*
X-194201Y95394D01*
X-194205Y95353D01*
X-194205Y82447D01*
X-194194Y82377D01*
X-194192Y82305D01*
X-194174Y82256D01*
X-194166Y82205D01*
X-194132Y82141D01*
X-194107Y82074D01*
X-194075Y82033D01*
X-194050Y81987D01*
X-193998Y81938D01*
X-193954Y81882D01*
X-193910Y81854D01*
X-193872Y81818D01*
X-193807Y81788D01*
X-193747Y81749D01*
X-193696Y81736D01*
X-193649Y81714D01*
X-193578Y81706D01*
X-193508Y81689D01*
X-193456Y81693D01*
X-193405Y81687D01*
X-193334Y81702D01*
X-193263Y81708D01*
X-193215Y81728D01*
X-193164Y81739D01*
X-193103Y81776D01*
X-193037Y81804D01*
X-192981Y81849D01*
X-192953Y81865D01*
X-192938Y81883D01*
X-192906Y81909D01*
X-191832Y82983D01*
X-188891Y84201D01*
X-185709Y84201D01*
X-182768Y82983D01*
X-180517Y80732D01*
X-179299Y77791D01*
X-179299Y74609D01*
X-180517Y71668D01*
X-182768Y69417D01*
X-185709Y68199D01*
X-188891Y68199D01*
X-191832Y69417D01*
X-192906Y70491D01*
X-192964Y70533D01*
X-193016Y70582D01*
X-193038Y70592D01*
X-193040Y70594D01*
X-193053Y70600D01*
X-193063Y70604D01*
X-193105Y70635D01*
X-193174Y70656D01*
X-193239Y70686D01*
X-193291Y70692D01*
X-193341Y70707D01*
X-193412Y70705D01*
X-193483Y70713D01*
X-193534Y70702D01*
X-193586Y70701D01*
X-193654Y70676D01*
X-193724Y70661D01*
X-193769Y70634D01*
X-193817Y70616D01*
X-193873Y70571D01*
X-193935Y70535D01*
X-193969Y70495D01*
X-194009Y70462D01*
X-194048Y70402D01*
X-194095Y70348D01*
X-194114Y70299D01*
X-194142Y70255D01*
X-194160Y70186D01*
X-194162Y70180D01*
X-194177Y70148D01*
X-194178Y70142D01*
X-194187Y70119D01*
X-194195Y70048D01*
X-194203Y70017D01*
X-194201Y69994D01*
X-194205Y69953D01*
X-194205Y57047D01*
X-194194Y56977D01*
X-194192Y56905D01*
X-194174Y56856D01*
X-194166Y56805D01*
X-194132Y56741D01*
X-194107Y56674D01*
X-194075Y56633D01*
X-194050Y56587D01*
X-193998Y56538D01*
X-193954Y56482D01*
X-193910Y56454D01*
X-193872Y56418D01*
X-193807Y56388D01*
X-193747Y56349D01*
X-193696Y56336D01*
X-193649Y56314D01*
X-193578Y56306D01*
X-193508Y56289D01*
X-193456Y56293D01*
X-193405Y56287D01*
X-193334Y56302D01*
X-193263Y56308D01*
X-193215Y56328D01*
X-193164Y56339D01*
X-193103Y56376D01*
X-193037Y56404D01*
X-192981Y56449D01*
X-192953Y56465D01*
X-192938Y56483D01*
X-192906Y56509D01*
X-191832Y57583D01*
X-188891Y58801D01*
X-185709Y58801D01*
X-182768Y57583D01*
X-180517Y55332D01*
X-179299Y52391D01*
X-179299Y49209D01*
X-180517Y46268D01*
X-182768Y44017D01*
X-185709Y42799D01*
X-188891Y42799D01*
X-191832Y44017D01*
X-192906Y45091D01*
X-192964Y45133D01*
X-193016Y45182D01*
X-193063Y45204D01*
X-193105Y45235D01*
X-193174Y45256D01*
X-193239Y45286D01*
X-193291Y45292D01*
X-193341Y45307D01*
X-193412Y45305D01*
X-193483Y45313D01*
X-193534Y45302D01*
X-193586Y45301D01*
X-193654Y45276D01*
X-193724Y45261D01*
X-193769Y45234D01*
X-193817Y45216D01*
X-193873Y45171D01*
X-193935Y45135D01*
X-193969Y45095D01*
X-194009Y45062D01*
X-194048Y45002D01*
X-194095Y44948D01*
X-194114Y44899D01*
X-194142Y44855D01*
X-194160Y44786D01*
X-194187Y44719D01*
X-194195Y44648D01*
X-194203Y44617D01*
X-194201Y44594D01*
X-194205Y44553D01*
X-194205Y31647D01*
X-194194Y31577D01*
X-194192Y31505D01*
X-194174Y31456D01*
X-194166Y31405D01*
X-194132Y31341D01*
X-194107Y31274D01*
X-194075Y31233D01*
X-194050Y31187D01*
X-193998Y31138D01*
X-193954Y31082D01*
X-193910Y31054D01*
X-193872Y31018D01*
X-193807Y30988D01*
X-193747Y30949D01*
X-193696Y30936D01*
X-193649Y30914D01*
X-193578Y30906D01*
X-193508Y30889D01*
X-193456Y30893D01*
X-193405Y30887D01*
X-193334Y30902D01*
X-193263Y30908D01*
X-193215Y30928D01*
X-193164Y30939D01*
X-193103Y30976D01*
X-193037Y31004D01*
X-192981Y31049D01*
X-192953Y31065D01*
X-192938Y31083D01*
X-192906Y31109D01*
X-191832Y32183D01*
X-188891Y33401D01*
X-185709Y33401D01*
X-182768Y32183D01*
X-180517Y29932D01*
X-179299Y26991D01*
X-179299Y23809D01*
X-180517Y20868D01*
X-182768Y18617D01*
X-185709Y17399D01*
X-188891Y17399D01*
X-191832Y18617D01*
X-192906Y19691D01*
X-192964Y19733D01*
X-193016Y19782D01*
X-193063Y19804D01*
X-193105Y19835D01*
X-193174Y19856D01*
X-193239Y19886D01*
X-193291Y19892D01*
X-193341Y19907D01*
X-193412Y19905D01*
X-193483Y19913D01*
X-193534Y19902D01*
X-193586Y19901D01*
X-193654Y19876D01*
X-193724Y19861D01*
X-193769Y19834D01*
X-193817Y19816D01*
X-193873Y19771D01*
X-193935Y19735D01*
X-193969Y19695D01*
X-194009Y19662D01*
X-194048Y19602D01*
X-194095Y19548D01*
X-194114Y19499D01*
X-194142Y19455D01*
X-194160Y19386D01*
X-194187Y19319D01*
X-194195Y19248D01*
X-194203Y19217D01*
X-194201Y19194D01*
X-194205Y19153D01*
X-194205Y18473D01*
X-194191Y18383D01*
X-194183Y18292D01*
X-194171Y18262D01*
X-194166Y18230D01*
X-194123Y18150D01*
X-194087Y18066D01*
X-194061Y18034D01*
X-194050Y18013D01*
X-194027Y17991D01*
X-193982Y17935D01*
X-191065Y15018D01*
X-190991Y14965D01*
X-190922Y14905D01*
X-190892Y14893D01*
X-190866Y14874D01*
X-190779Y14847D01*
X-190694Y14813D01*
X-190653Y14809D01*
X-190631Y14802D01*
X-190598Y14803D01*
X-190527Y14795D01*
X-175842Y14795D01*
X-175295Y14248D01*
X-175221Y14195D01*
X-175152Y14135D01*
X-175122Y14123D01*
X-175096Y14104D01*
X-175009Y14077D01*
X-174924Y14043D01*
X-174883Y14039D01*
X-174861Y14032D01*
X-174828Y14033D01*
X-174757Y14025D01*
X-173333Y14025D01*
X-170975Y11667D01*
X-170975Y8333D01*
X-173333Y5975D01*
X-176667Y5975D01*
X-179025Y8333D01*
X-179025Y8444D01*
X-179028Y8464D01*
X-179026Y8483D01*
X-179048Y8585D01*
X-179064Y8687D01*
X-179074Y8704D01*
X-179078Y8724D01*
X-179131Y8813D01*
X-179180Y8904D01*
X-179194Y8918D01*
X-179204Y8935D01*
X-179283Y9002D01*
X-179358Y9074D01*
X-179376Y9082D01*
X-179391Y9095D01*
X-179487Y9134D01*
X-179581Y9177D01*
X-179601Y9179D01*
X-179619Y9187D01*
X-179786Y9205D01*
X-184790Y9205D01*
X-184886Y9190D01*
X-184983Y9180D01*
X-185007Y9170D01*
X-185032Y9166D01*
X-185118Y9120D01*
X-185207Y9080D01*
X-185227Y9063D01*
X-185250Y9050D01*
X-185317Y8980D01*
X-185388Y8914D01*
X-185401Y8891D01*
X-185419Y8872D01*
X-185460Y8784D01*
X-185507Y8698D01*
X-185512Y8673D01*
X-185523Y8649D01*
X-185533Y8552D01*
X-185551Y8456D01*
X-185547Y8430D01*
X-185550Y8405D01*
X-185529Y8309D01*
X-185515Y8213D01*
X-185503Y8190D01*
X-185498Y8164D01*
X-185448Y8081D01*
X-185403Y7994D01*
X-185385Y7975D01*
X-185371Y7953D01*
X-185297Y7890D01*
X-185228Y7822D01*
X-185199Y7806D01*
X-185184Y7793D01*
X-185154Y7781D01*
X-185081Y7741D01*
X-182768Y6783D01*
X-180517Y4532D01*
X-179299Y1591D01*
X-179299Y-1591D01*
X-180517Y-4532D01*
X-182768Y-6783D01*
X-185709Y-8001D01*
X-188891Y-8001D01*
X-191832Y-6783D01*
X-194083Y-4532D01*
X-195301Y-1591D01*
X-195301Y1591D01*
X-194083Y4532D01*
X-191832Y6783D01*
X-189519Y7741D01*
X-189436Y7792D01*
X-189350Y7838D01*
X-189332Y7857D01*
X-189310Y7870D01*
X-189248Y7945D01*
X-189181Y8016D01*
X-189170Y8040D01*
X-189153Y8060D01*
X-189118Y8151D01*
X-189077Y8239D01*
X-189074Y8265D01*
X-189065Y8289D01*
X-189061Y8387D01*
X-189050Y8483D01*
X-189056Y8509D01*
X-189055Y8535D01*
X-189082Y8629D01*
X-189102Y8724D01*
X-189116Y8746D01*
X-189123Y8771D01*
X-189179Y8851D01*
X-189229Y8935D01*
X-189249Y8952D01*
X-189263Y8973D01*
X-189342Y9032D01*
X-189416Y9095D01*
X-189440Y9105D01*
X-189461Y9120D01*
X-189553Y9150D01*
X-189644Y9187D01*
X-189676Y9190D01*
X-189695Y9196D01*
X-189728Y9196D01*
X-189810Y9205D01*
X-193158Y9205D01*
X-199795Y15842D01*
X-199795Y135527D01*
X-199809Y135617D01*
X-199817Y135708D01*
X-199829Y135738D01*
X-199834Y135770D01*
X-199877Y135850D01*
X-199913Y135934D01*
X-199939Y135966D01*
X-199950Y135987D01*
X-199973Y136009D01*
X-200018Y136065D01*
X-205935Y141982D01*
X-206009Y142035D01*
X-206078Y142095D01*
X-206108Y142107D01*
X-206134Y142126D01*
X-206221Y142153D01*
X-206306Y142187D01*
X-206347Y142191D01*
X-206369Y142198D01*
X-206402Y142197D01*
X-206473Y142205D01*
X-212996Y142205D01*
X-213067Y142194D01*
X-213139Y142192D01*
X-213188Y142174D01*
X-213239Y142166D01*
X-213302Y142132D01*
X-213370Y142107D01*
X-213410Y142075D01*
X-213456Y142050D01*
X-213506Y141998D01*
X-213562Y141954D01*
X-213590Y141910D01*
X-213626Y141872D01*
X-213656Y141807D01*
X-213695Y141747D01*
X-213707Y141696D01*
X-213729Y141649D01*
X-213737Y141578D01*
X-213755Y141508D01*
X-213751Y141456D01*
X-213756Y141405D01*
X-213741Y141334D01*
X-213736Y141263D01*
X-213715Y141215D01*
X-213704Y141164D01*
X-213667Y141103D01*
X-213639Y141037D01*
X-213595Y140981D01*
X-213578Y140953D01*
X-213560Y140938D01*
X-213535Y140906D01*
X-212296Y139667D01*
X-212296Y136333D01*
X-213303Y135326D01*
X-213356Y135252D01*
X-213415Y135182D01*
X-213428Y135152D01*
X-213446Y135126D01*
X-213473Y135039D01*
X-213507Y134954D01*
X-213512Y134913D01*
X-213519Y134891D01*
X-213518Y134859D01*
X-213526Y134788D01*
X-213526Y110362D01*
X-213523Y110342D01*
X-213525Y110323D01*
X-213503Y110221D01*
X-213486Y110119D01*
X-213477Y110102D01*
X-213473Y110082D01*
X-213419Y109993D01*
X-213371Y109902D01*
X-213357Y109888D01*
X-213346Y109871D01*
X-213268Y109804D01*
X-213193Y109732D01*
X-213175Y109724D01*
X-213160Y109711D01*
X-213063Y109672D01*
X-212970Y109629D01*
X-212950Y109627D01*
X-212931Y109619D01*
X-212765Y109601D01*
X-211109Y109601D01*
X-208168Y108383D01*
X-205917Y106132D01*
X-204699Y103191D01*
X-204699Y100009D01*
X-205917Y97068D01*
X-208168Y94817D01*
X-211109Y93599D01*
X-214291Y93599D01*
X-217232Y94817D01*
X-217876Y95461D01*
X-217934Y95503D01*
X-217986Y95552D01*
X-218033Y95574D01*
X-218075Y95605D01*
X-218144Y95626D01*
X-218209Y95656D01*
X-218261Y95662D01*
X-218311Y95677D01*
X-218382Y95675D01*
X-218453Y95683D01*
X-218504Y95672D01*
X-218556Y95671D01*
X-218624Y95646D01*
X-218694Y95631D01*
X-218739Y95604D01*
X-218787Y95586D01*
X-218843Y95541D01*
X-218905Y95505D01*
X-218939Y95465D01*
X-218979Y95432D01*
X-219018Y95372D01*
X-219065Y95318D01*
X-219084Y95269D01*
X-219112Y95225D01*
X-219130Y95156D01*
X-219157Y95089D01*
X-219165Y95018D01*
X-219173Y94987D01*
X-219171Y94964D01*
X-219175Y94923D01*
X-219175Y82877D01*
X-219173Y82861D01*
X-219174Y82845D01*
X-219163Y82795D01*
X-219162Y82735D01*
X-219144Y82686D01*
X-219136Y82635D01*
X-219124Y82612D01*
X-219122Y82605D01*
X-219102Y82572D01*
X-219102Y82571D01*
X-219077Y82504D01*
X-219045Y82463D01*
X-219020Y82417D01*
X-218996Y82394D01*
X-218994Y82392D01*
X-218968Y82368D01*
X-218924Y82312D01*
X-218880Y82284D01*
X-218842Y82248D01*
X-218777Y82218D01*
X-218717Y82179D01*
X-218666Y82166D01*
X-218619Y82144D01*
X-218548Y82136D01*
X-218478Y82119D01*
X-218426Y82123D01*
X-218375Y82117D01*
X-218304Y82132D01*
X-218233Y82138D01*
X-218185Y82158D01*
X-218134Y82169D01*
X-218073Y82206D01*
X-218007Y82234D01*
X-217962Y82270D01*
X-217947Y82278D01*
X-217939Y82286D01*
X-217923Y82295D01*
X-217908Y82313D01*
X-217876Y82339D01*
X-217232Y82983D01*
X-214291Y84201D01*
X-211109Y84201D01*
X-208168Y82983D01*
X-205917Y80732D01*
X-204699Y77791D01*
X-204699Y74609D01*
X-205917Y71668D01*
X-208168Y69417D01*
X-211109Y68199D01*
X-214291Y68199D01*
X-217232Y69417D01*
X-217876Y70061D01*
X-217934Y70103D01*
X-217986Y70152D01*
X-218033Y70174D01*
X-218075Y70205D01*
X-218144Y70226D01*
X-218209Y70256D01*
X-218261Y70262D01*
X-218311Y70277D01*
X-218382Y70275D01*
X-218453Y70283D01*
X-218504Y70272D01*
X-218556Y70271D01*
X-218624Y70246D01*
X-218694Y70231D01*
X-218739Y70204D01*
X-218787Y70186D01*
X-218843Y70141D01*
X-218905Y70105D01*
X-218939Y70065D01*
X-218979Y70032D01*
X-219018Y69972D01*
X-219065Y69918D01*
X-219084Y69869D01*
X-219112Y69825D01*
X-219130Y69756D01*
X-219157Y69689D01*
X-219165Y69618D01*
X-219173Y69587D01*
X-219171Y69564D01*
X-219175Y69523D01*
X-219175Y57477D01*
X-219164Y57407D01*
X-219162Y57335D01*
X-219144Y57286D01*
X-219136Y57235D01*
X-219102Y57171D01*
X-219077Y57104D01*
X-219045Y57063D01*
X-219020Y57017D01*
X-218968Y56968D01*
X-218924Y56912D01*
X-218880Y56884D01*
X-218842Y56848D01*
X-218777Y56818D01*
X-218717Y56779D01*
X-218666Y56766D01*
X-218619Y56744D01*
X-218548Y56736D01*
X-218478Y56719D01*
X-218426Y56723D01*
X-218375Y56717D01*
X-218304Y56732D01*
X-218233Y56738D01*
X-218185Y56758D01*
X-218134Y56769D01*
X-218073Y56806D01*
X-218007Y56834D01*
X-217951Y56879D01*
X-217923Y56895D01*
X-217908Y56913D01*
X-217876Y56939D01*
X-217232Y57583D01*
X-214291Y58801D01*
X-211109Y58801D01*
X-208168Y57583D01*
X-205917Y55332D01*
X-204699Y52391D01*
X-204699Y49209D01*
X-205917Y46268D01*
X-208168Y44017D01*
X-211109Y42799D01*
X-214291Y42799D01*
X-217232Y44017D01*
X-217876Y44661D01*
X-217934Y44703D01*
X-217986Y44752D01*
X-218033Y44774D01*
X-218075Y44805D01*
X-218144Y44826D01*
X-218209Y44856D01*
X-218261Y44862D01*
X-218311Y44877D01*
X-218382Y44875D01*
X-218453Y44883D01*
X-218504Y44872D01*
X-218556Y44871D01*
X-218624Y44846D01*
X-218694Y44831D01*
X-218739Y44804D01*
X-218787Y44786D01*
X-218843Y44741D01*
X-218905Y44705D01*
X-218939Y44665D01*
X-218979Y44632D01*
X-219018Y44572D01*
X-219065Y44518D01*
X-219084Y44469D01*
X-219112Y44425D01*
X-219130Y44356D01*
X-219157Y44289D01*
X-219165Y44218D01*
X-219173Y44187D01*
X-219171Y44164D01*
X-219175Y44123D01*
X-219175Y32077D01*
X-219164Y32007D01*
X-219162Y31935D01*
X-219144Y31886D01*
X-219136Y31835D01*
X-219102Y31771D01*
X-219077Y31704D01*
X-219045Y31663D01*
X-219020Y31617D01*
X-218968Y31568D01*
X-218924Y31512D01*
X-218880Y31484D01*
X-218842Y31448D01*
X-218777Y31418D01*
X-218717Y31379D01*
X-218666Y31366D01*
X-218619Y31344D01*
X-218548Y31336D01*
X-218478Y31319D01*
X-218426Y31323D01*
X-218375Y31317D01*
X-218304Y31332D01*
X-218233Y31338D01*
X-218185Y31358D01*
X-218134Y31369D01*
X-218073Y31406D01*
X-218007Y31434D01*
X-217951Y31479D01*
X-217923Y31495D01*
X-217908Y31513D01*
X-217876Y31539D01*
X-217232Y32183D01*
X-214291Y33401D01*
X-211109Y33401D01*
X-208168Y32183D01*
X-205917Y29932D01*
X-204699Y26991D01*
X-204699Y23809D01*
X-205917Y20868D01*
X-208168Y18617D01*
X-211109Y17399D01*
X-214291Y17399D01*
X-217232Y18617D01*
X-217876Y19261D01*
X-217934Y19303D01*
X-217986Y19352D01*
X-218033Y19374D01*
X-218075Y19405D01*
X-218144Y19426D01*
X-218209Y19456D01*
X-218261Y19462D01*
X-218311Y19477D01*
X-218382Y19475D01*
X-218453Y19483D01*
X-218504Y19472D01*
X-218556Y19471D01*
X-218624Y19446D01*
X-218694Y19431D01*
X-218739Y19404D01*
X-218787Y19386D01*
X-218843Y19341D01*
X-218905Y19305D01*
X-218939Y19265D01*
X-218979Y19232D01*
X-219018Y19172D01*
X-219065Y19118D01*
X-219084Y19069D01*
X-219112Y19025D01*
X-219130Y18956D01*
X-219157Y18889D01*
X-219165Y18818D01*
X-219173Y18787D01*
X-219171Y18764D01*
X-219175Y18723D01*
X-219175Y6677D01*
X-219164Y6607D01*
X-219162Y6535D01*
X-219144Y6486D01*
X-219136Y6435D01*
X-219102Y6371D01*
X-219077Y6304D01*
X-219045Y6263D01*
X-219020Y6217D01*
X-218968Y6168D01*
X-218924Y6112D01*
X-218880Y6084D01*
X-218842Y6048D01*
X-218777Y6018D01*
X-218717Y5979D01*
X-218666Y5966D01*
X-218619Y5944D01*
X-218548Y5936D01*
X-218478Y5919D01*
X-218426Y5923D01*
X-218375Y5917D01*
X-218304Y5932D01*
X-218233Y5938D01*
X-218185Y5958D01*
X-218134Y5969D01*
X-218073Y6006D01*
X-218007Y6034D01*
X-217951Y6079D01*
X-217923Y6095D01*
X-217908Y6113D01*
X-217876Y6139D01*
X-217232Y6783D01*
X-214291Y8001D01*
X-211109Y8001D01*
X-208168Y6783D01*
X-205917Y4532D01*
X-204699Y1591D01*
X-204699Y-1591D01*
X-205917Y-4532D01*
X-208168Y-6783D01*
X-211109Y-8001D01*
X-214291Y-8001D01*
X-217232Y-6783D01*
X-217876Y-6139D01*
X-217934Y-6097D01*
X-217986Y-6048D01*
X-218033Y-6026D01*
X-218075Y-5995D01*
X-218144Y-5974D01*
X-218209Y-5944D01*
X-218261Y-5938D01*
X-218311Y-5923D01*
X-218382Y-5925D01*
X-218453Y-5917D01*
X-218504Y-5928D01*
X-218556Y-5929D01*
X-218624Y-5954D01*
X-218694Y-5969D01*
X-218739Y-5996D01*
X-218787Y-6014D01*
X-218843Y-6059D01*
X-218905Y-6095D01*
X-218939Y-6135D01*
X-218979Y-6168D01*
X-219018Y-6228D01*
X-219065Y-6282D01*
X-219084Y-6331D01*
X-219112Y-6375D01*
X-219130Y-6444D01*
X-219157Y-6511D01*
X-219165Y-6582D01*
X-219173Y-6613D01*
X-219171Y-6636D01*
X-219175Y-6677D01*
X-219175Y-18723D01*
X-219164Y-18793D01*
X-219162Y-18865D01*
X-219144Y-18914D01*
X-219136Y-18965D01*
X-219102Y-19029D01*
X-219077Y-19096D01*
X-219045Y-19137D01*
X-219020Y-19183D01*
X-218968Y-19232D01*
X-218924Y-19288D01*
X-218880Y-19316D01*
X-218842Y-19352D01*
X-218777Y-19382D01*
X-218717Y-19421D01*
X-218666Y-19434D01*
X-218619Y-19456D01*
X-218548Y-19464D01*
X-218478Y-19481D01*
X-218426Y-19477D01*
X-218375Y-19483D01*
X-218304Y-19468D01*
X-218233Y-19462D01*
X-218185Y-19442D01*
X-218134Y-19431D01*
X-218073Y-19394D01*
X-218007Y-19366D01*
X-217951Y-19321D01*
X-217923Y-19305D01*
X-217908Y-19287D01*
X-217876Y-19261D01*
X-217232Y-18617D01*
X-214291Y-17399D01*
X-211109Y-17399D01*
X-208168Y-18617D01*
X-205917Y-20868D01*
X-204699Y-23809D01*
X-204699Y-26991D01*
X-205917Y-29932D01*
X-208168Y-32183D01*
X-211109Y-33401D01*
X-214291Y-33401D01*
X-217232Y-32183D01*
X-217876Y-31539D01*
X-217934Y-31497D01*
X-217986Y-31448D01*
X-218033Y-31426D01*
X-218075Y-31395D01*
X-218144Y-31374D01*
X-218209Y-31344D01*
X-218261Y-31338D01*
X-218311Y-31323D01*
X-218382Y-31325D01*
X-218453Y-31317D01*
X-218504Y-31328D01*
X-218556Y-31329D01*
X-218624Y-31354D01*
X-218694Y-31369D01*
X-218739Y-31396D01*
X-218787Y-31414D01*
X-218843Y-31459D01*
X-218905Y-31495D01*
X-218939Y-31535D01*
X-218979Y-31568D01*
X-219018Y-31628D01*
X-219065Y-31682D01*
X-219084Y-31731D01*
X-219112Y-31775D01*
X-219130Y-31844D01*
X-219157Y-31911D01*
X-219165Y-31982D01*
X-219173Y-32013D01*
X-219171Y-32036D01*
X-219175Y-32077D01*
X-219175Y-44123D01*
X-219164Y-44193D01*
X-219162Y-44265D01*
X-219144Y-44314D01*
X-219136Y-44365D01*
X-219102Y-44429D01*
X-219077Y-44496D01*
X-219045Y-44537D01*
X-219020Y-44583D01*
X-218968Y-44632D01*
X-218924Y-44688D01*
X-218880Y-44716D01*
X-218842Y-44752D01*
X-218777Y-44782D01*
X-218717Y-44821D01*
X-218666Y-44834D01*
X-218619Y-44856D01*
X-218548Y-44864D01*
X-218478Y-44881D01*
X-218426Y-44877D01*
X-218375Y-44883D01*
X-218304Y-44868D01*
X-218233Y-44862D01*
X-218185Y-44842D01*
X-218134Y-44831D01*
X-218073Y-44794D01*
X-218007Y-44766D01*
X-217951Y-44721D01*
X-217923Y-44705D01*
X-217908Y-44687D01*
X-217876Y-44661D01*
X-217232Y-44017D01*
X-214291Y-42799D01*
X-211109Y-42799D01*
X-208168Y-44017D01*
X-205917Y-46268D01*
X-204699Y-49209D01*
X-204699Y-52391D01*
X-205917Y-55332D01*
X-208168Y-57583D01*
X-211109Y-58801D01*
X-214291Y-58801D01*
X-215801Y-58175D01*
X-215896Y-58153D01*
X-215989Y-58125D01*
X-216015Y-58125D01*
X-216040Y-58119D01*
X-216137Y-58128D01*
X-216235Y-58131D01*
X-216259Y-58140D01*
X-216285Y-58142D01*
X-216374Y-58182D01*
X-216466Y-58215D01*
X-216486Y-58232D01*
X-216510Y-58242D01*
X-216582Y-58308D01*
X-216658Y-58369D01*
X-216672Y-58391D01*
X-216691Y-58409D01*
X-216738Y-58494D01*
X-216791Y-58576D01*
X-216797Y-58601D01*
X-216810Y-58624D01*
X-216827Y-58720D01*
X-216851Y-58815D01*
X-216849Y-58841D01*
X-216853Y-58866D01*
X-216839Y-58963D01*
X-216832Y-59060D01*
X-216822Y-59084D01*
X-216818Y-59110D01*
X-216773Y-59197D01*
X-216735Y-59286D01*
X-216715Y-59311D01*
X-216706Y-59329D01*
X-216683Y-59352D01*
X-216631Y-59417D01*
X-214065Y-61982D01*
X-213991Y-62035D01*
X-213922Y-62095D01*
X-213892Y-62107D01*
X-213866Y-62126D01*
X-213779Y-62153D01*
X-213694Y-62187D01*
X-213653Y-62191D01*
X-213631Y-62198D01*
X-213598Y-62197D01*
X-213527Y-62205D01*
X-178212Y-62205D01*
X-178122Y-62191D01*
X-178031Y-62183D01*
X-178002Y-62171D01*
X-177970Y-62166D01*
X-177889Y-62123D01*
X-177805Y-62087D01*
X-177773Y-62061D01*
X-177752Y-62050D01*
X-177730Y-62027D01*
X-177674Y-61982D01*
X-176667Y-60975D01*
X-173333Y-60975D01*
X-170975Y-63333D01*
X-170975Y-66667D01*
X-173333Y-69025D01*
X-176667Y-69025D01*
X-177674Y-68018D01*
X-177748Y-67965D01*
X-177818Y-67905D01*
X-177848Y-67893D01*
X-177874Y-67874D01*
X-177961Y-67847D01*
X-178046Y-67813D01*
X-178087Y-67809D01*
X-178109Y-67802D01*
X-178141Y-67803D01*
X-178212Y-67795D01*
X-182858Y-67795D01*
X-182954Y-67810D01*
X-183051Y-67820D01*
X-183075Y-67830D01*
X-183101Y-67834D01*
X-183187Y-67880D01*
X-183276Y-67920D01*
X-183295Y-67937D01*
X-183318Y-67950D01*
X-183385Y-68020D01*
X-183457Y-68086D01*
X-183470Y-68109D01*
X-183488Y-68128D01*
X-183529Y-68216D01*
X-183576Y-68302D01*
X-183580Y-68327D01*
X-183591Y-68351D01*
X-183602Y-68448D01*
X-183619Y-68544D01*
X-183616Y-68570D01*
X-183618Y-68595D01*
X-183598Y-68690D01*
X-183584Y-68787D01*
X-183572Y-68810D01*
X-183566Y-68836D01*
X-183516Y-68920D01*
X-183472Y-69006D01*
X-183453Y-69024D01*
X-183440Y-69047D01*
X-183366Y-69110D01*
X-183296Y-69178D01*
X-183268Y-69194D01*
X-183253Y-69207D01*
X-183222Y-69219D01*
X-183149Y-69259D01*
X-182768Y-69417D01*
X-180517Y-71668D01*
X-179299Y-74609D01*
X-179299Y-77791D01*
X-180517Y-80732D01*
X-182768Y-82983D01*
X-185709Y-84201D01*
X-188891Y-84201D01*
X-191832Y-82983D01*
X-194083Y-80732D01*
X-195301Y-77791D01*
X-195301Y-74609D01*
X-194083Y-71668D01*
X-191832Y-69417D01*
X-191451Y-69259D01*
X-191368Y-69208D01*
X-191282Y-69162D01*
X-191264Y-69143D01*
X-191241Y-69130D01*
X-191179Y-69055D01*
X-191112Y-68984D01*
X-191101Y-68960D01*
X-191085Y-68940D01*
X-191050Y-68849D01*
X-191009Y-68761D01*
X-191006Y-68735D01*
X-190996Y-68711D01*
X-190992Y-68613D01*
X-190982Y-68517D01*
X-190987Y-68491D01*
X-190986Y-68465D01*
X-191013Y-68371D01*
X-191034Y-68276D01*
X-191047Y-68254D01*
X-191055Y-68229D01*
X-191110Y-68149D01*
X-191160Y-68065D01*
X-191180Y-68048D01*
X-191195Y-68027D01*
X-191273Y-67968D01*
X-191347Y-67905D01*
X-191371Y-67895D01*
X-191392Y-67880D01*
X-191485Y-67850D01*
X-191575Y-67813D01*
X-191608Y-67810D01*
X-191626Y-67804D01*
X-191659Y-67804D01*
X-191742Y-67795D01*
X-208258Y-67795D01*
X-208354Y-67810D01*
X-208451Y-67820D01*
X-208475Y-67830D01*
X-208501Y-67834D01*
X-208587Y-67880D01*
X-208676Y-67920D01*
X-208695Y-67937D01*
X-208718Y-67950D01*
X-208785Y-68020D01*
X-208857Y-68086D01*
X-208870Y-68109D01*
X-208888Y-68128D01*
X-208929Y-68216D01*
X-208976Y-68302D01*
X-208980Y-68327D01*
X-208991Y-68351D01*
X-209002Y-68448D01*
X-209019Y-68544D01*
X-209016Y-68570D01*
X-209018Y-68595D01*
X-208998Y-68690D01*
X-208984Y-68787D01*
X-208972Y-68810D01*
X-208966Y-68836D01*
X-208916Y-68920D01*
X-208872Y-69006D01*
X-208853Y-69024D01*
X-208840Y-69047D01*
X-208766Y-69110D01*
X-208696Y-69178D01*
X-208668Y-69194D01*
X-208653Y-69207D01*
X-208622Y-69219D01*
X-208549Y-69259D01*
X-208168Y-69417D01*
X-205917Y-71668D01*
X-204699Y-74609D01*
X-204699Y-77791D01*
X-205917Y-80732D01*
X-208168Y-82983D01*
X-211109Y-84201D01*
X-214291Y-84201D01*
G37*
%LPD*%
%LPC*%
G36*
X-45687Y105975D02*
X-45687Y105975D01*
X-48045Y108333D01*
X-48045Y111667D01*
X-45687Y114025D01*
X-42353Y114025D01*
X-41346Y113018D01*
X-41272Y112965D01*
X-41202Y112905D01*
X-41172Y112893D01*
X-41146Y112874D01*
X-41059Y112847D01*
X-40974Y112813D01*
X-40933Y112809D01*
X-40911Y112802D01*
X-40879Y112803D01*
X-40808Y112795D01*
X-36473Y112795D01*
X-36383Y112809D01*
X-36292Y112817D01*
X-36262Y112829D01*
X-36230Y112834D01*
X-36150Y112877D01*
X-36066Y112913D01*
X-36033Y112939D01*
X-36013Y112950D01*
X-35991Y112973D01*
X-35935Y113018D01*
X-34277Y114676D01*
X-34235Y114734D01*
X-34185Y114786D01*
X-34163Y114833D01*
X-34133Y114875D01*
X-34112Y114944D01*
X-34082Y115009D01*
X-34076Y115061D01*
X-34061Y115111D01*
X-34063Y115182D01*
X-34055Y115253D01*
X-34066Y115304D01*
X-34067Y115356D01*
X-34092Y115424D01*
X-34107Y115494D01*
X-34134Y115539D01*
X-34152Y115587D01*
X-34196Y115643D01*
X-34233Y115705D01*
X-34273Y115739D01*
X-34305Y115779D01*
X-34366Y115818D01*
X-34420Y115865D01*
X-34468Y115884D01*
X-34512Y115912D01*
X-34582Y115930D01*
X-34648Y115957D01*
X-34720Y115965D01*
X-34751Y115973D01*
X-34774Y115971D01*
X-34815Y115975D01*
X-36667Y115975D01*
X-39025Y118333D01*
X-39025Y121667D01*
X-36667Y124025D01*
X-35243Y124025D01*
X-35153Y124039D01*
X-35062Y124047D01*
X-35032Y124059D01*
X-35000Y124064D01*
X-34920Y124107D01*
X-34836Y124143D01*
X-34804Y124169D01*
X-34783Y124180D01*
X-34761Y124203D01*
X-34705Y124248D01*
X-6158Y152795D01*
X148527Y152795D01*
X148617Y152809D01*
X148708Y152817D01*
X148738Y152829D01*
X148770Y152834D01*
X148850Y152877D01*
X148934Y152913D01*
X148966Y152939D01*
X148987Y152950D01*
X149009Y152973D01*
X149065Y153018D01*
X221982Y225935D01*
X222035Y226009D01*
X222095Y226078D01*
X222107Y226108D01*
X222126Y226134D01*
X222153Y226221D01*
X222187Y226306D01*
X222191Y226347D01*
X222198Y226369D01*
X222197Y226402D01*
X222205Y226473D01*
X222205Y245456D01*
X227454Y250705D01*
X227507Y250779D01*
X227567Y250848D01*
X227579Y250878D01*
X227598Y250904D01*
X227625Y250991D01*
X227659Y251076D01*
X227663Y251117D01*
X227670Y251139D01*
X227669Y251172D01*
X227677Y251243D01*
X227677Y252667D01*
X230035Y255025D01*
X233369Y255025D01*
X235727Y252667D01*
X235727Y249333D01*
X233369Y246975D01*
X231945Y246975D01*
X231855Y246961D01*
X231764Y246953D01*
X231734Y246941D01*
X231702Y246936D01*
X231622Y246893D01*
X231538Y246857D01*
X231505Y246831D01*
X231485Y246820D01*
X231463Y246797D01*
X231407Y246752D01*
X230979Y246324D01*
X230937Y246266D01*
X230887Y246214D01*
X230865Y246167D01*
X230835Y246125D01*
X230814Y246056D01*
X230784Y245991D01*
X230778Y245939D01*
X230763Y245889D01*
X230765Y245818D01*
X230757Y245747D01*
X230768Y245696D01*
X230769Y245644D01*
X230794Y245576D01*
X230809Y245506D01*
X230836Y245461D01*
X230854Y245413D01*
X230898Y245357D01*
X230935Y245295D01*
X230975Y245261D01*
X231007Y245221D01*
X231067Y245182D01*
X231122Y245135D01*
X231170Y245116D01*
X231214Y245088D01*
X231284Y245070D01*
X231350Y245043D01*
X231421Y245035D01*
X231453Y245027D01*
X231476Y245029D01*
X231517Y245025D01*
X233369Y245025D01*
X235727Y242667D01*
X235727Y239333D01*
X234720Y238326D01*
X234667Y238252D01*
X234607Y238182D01*
X234595Y238152D01*
X234576Y238126D01*
X234549Y238039D01*
X234515Y237954D01*
X234511Y237913D01*
X234504Y237891D01*
X234505Y237859D01*
X234497Y237788D01*
X234497Y220544D01*
X156158Y142205D01*
X1473Y142205D01*
X1383Y142191D01*
X1292Y142183D01*
X1262Y142171D01*
X1230Y142166D01*
X1150Y142123D01*
X1066Y142087D01*
X1034Y142061D01*
X1013Y142050D01*
X991Y142027D01*
X935Y141982D01*
X-33842Y107205D01*
X-40808Y107205D01*
X-40898Y107191D01*
X-40989Y107183D01*
X-41018Y107171D01*
X-41050Y107166D01*
X-41131Y107123D01*
X-41215Y107087D01*
X-41247Y107061D01*
X-41268Y107050D01*
X-41290Y107027D01*
X-41346Y106982D01*
X-42353Y105975D01*
X-45687Y105975D01*
G37*
%LPD*%
%LPC*%
G36*
X36281Y-81845D02*
X36281Y-81845D01*
X32920Y-80453D01*
X30347Y-77880D01*
X28955Y-74519D01*
X28955Y-70881D01*
X29749Y-68966D01*
X29775Y-68852D01*
X29804Y-68738D01*
X29803Y-68732D01*
X29805Y-68726D01*
X29794Y-68610D01*
X29785Y-68493D01*
X29782Y-68488D01*
X29782Y-68481D01*
X29734Y-68374D01*
X29688Y-68267D01*
X29684Y-68261D01*
X29682Y-68257D01*
X29669Y-68243D01*
X29584Y-68136D01*
X24065Y-62618D01*
X22205Y-60758D01*
X22205Y-52076D01*
X22190Y-51980D01*
X22180Y-51883D01*
X22170Y-51859D01*
X22166Y-51833D01*
X22120Y-51747D01*
X22080Y-51658D01*
X22063Y-51639D01*
X22050Y-51615D01*
X21980Y-51549D01*
X21914Y-51477D01*
X21891Y-51464D01*
X21872Y-51446D01*
X21784Y-51405D01*
X21698Y-51358D01*
X21673Y-51353D01*
X21649Y-51342D01*
X21552Y-51332D01*
X21456Y-51314D01*
X21430Y-51318D01*
X21405Y-51315D01*
X21310Y-51336D01*
X21213Y-51350D01*
X21190Y-51362D01*
X21164Y-51368D01*
X21080Y-51418D01*
X20994Y-51462D01*
X20976Y-51480D01*
X20953Y-51494D01*
X20890Y-51568D01*
X20822Y-51637D01*
X20806Y-51666D01*
X20793Y-51681D01*
X20781Y-51711D01*
X20741Y-51784D01*
X20453Y-52480D01*
X17880Y-55053D01*
X14519Y-56445D01*
X10881Y-56445D01*
X7520Y-55053D01*
X4947Y-52480D01*
X3555Y-49119D01*
X3555Y-45481D01*
X4947Y-42120D01*
X7520Y-39547D01*
X10881Y-38155D01*
X14519Y-38155D01*
X17880Y-39547D01*
X20453Y-42120D01*
X20741Y-42816D01*
X20792Y-42899D01*
X20838Y-42985D01*
X20857Y-43002D01*
X20870Y-43025D01*
X20945Y-43087D01*
X21016Y-43154D01*
X21040Y-43165D01*
X21060Y-43182D01*
X21151Y-43217D01*
X21239Y-43258D01*
X21265Y-43260D01*
X21289Y-43270D01*
X21387Y-43274D01*
X21483Y-43285D01*
X21509Y-43279D01*
X21535Y-43280D01*
X21629Y-43253D01*
X21724Y-43232D01*
X21746Y-43219D01*
X21771Y-43212D01*
X21851Y-43156D01*
X21935Y-43106D01*
X21952Y-43086D01*
X21973Y-43071D01*
X22032Y-42993D01*
X22095Y-42919D01*
X22105Y-42895D01*
X22120Y-42874D01*
X22150Y-42782D01*
X22187Y-42691D01*
X22190Y-42659D01*
X22196Y-42640D01*
X22196Y-42607D01*
X22205Y-42524D01*
X22205Y-38842D01*
X25752Y-35295D01*
X25805Y-35221D01*
X25865Y-35152D01*
X25877Y-35122D01*
X25896Y-35096D01*
X25923Y-35009D01*
X25957Y-34924D01*
X25961Y-34883D01*
X25968Y-34861D01*
X25967Y-34828D01*
X25975Y-34757D01*
X25975Y-33333D01*
X28333Y-30975D01*
X31667Y-30975D01*
X34025Y-33333D01*
X34025Y-36667D01*
X32595Y-38097D01*
X32538Y-38176D01*
X32476Y-38251D01*
X32467Y-38275D01*
X32451Y-38297D01*
X32423Y-38390D01*
X32388Y-38481D01*
X32387Y-38507D01*
X32379Y-38532D01*
X32382Y-38629D01*
X32377Y-38726D01*
X32385Y-38751D01*
X32385Y-38778D01*
X32419Y-38869D01*
X32446Y-38963D01*
X32461Y-38984D01*
X32470Y-39009D01*
X32531Y-39085D01*
X32586Y-39165D01*
X32607Y-39180D01*
X32624Y-39201D01*
X32705Y-39253D01*
X32784Y-39311D01*
X32808Y-39319D01*
X32830Y-39334D01*
X32925Y-39357D01*
X33017Y-39388D01*
X33044Y-39387D01*
X33069Y-39394D01*
X33166Y-39386D01*
X33263Y-39385D01*
X33295Y-39376D01*
X33314Y-39375D01*
X33345Y-39362D01*
X33425Y-39338D01*
X36281Y-38155D01*
X39919Y-38155D01*
X43280Y-39547D01*
X45855Y-42122D01*
X45902Y-42198D01*
X45948Y-42284D01*
X45966Y-42302D01*
X45980Y-42325D01*
X46055Y-42387D01*
X46126Y-42454D01*
X46150Y-42465D01*
X46170Y-42481D01*
X46261Y-42516D01*
X46349Y-42557D01*
X46375Y-42560D01*
X46399Y-42570D01*
X46497Y-42574D01*
X46593Y-42584D01*
X46619Y-42579D01*
X46645Y-42580D01*
X46739Y-42553D01*
X46834Y-42532D01*
X46856Y-42519D01*
X46881Y-42512D01*
X46961Y-42456D01*
X47045Y-42406D01*
X47062Y-42386D01*
X47083Y-42371D01*
X47141Y-42293D01*
X47205Y-42219D01*
X47215Y-42195D01*
X47230Y-42174D01*
X47260Y-42082D01*
X47297Y-41991D01*
X47300Y-41959D01*
X47306Y-41940D01*
X47306Y-41907D01*
X47315Y-41824D01*
X47315Y-26842D01*
X64482Y-9675D01*
X64535Y-9601D01*
X64595Y-9532D01*
X64607Y-9502D01*
X64626Y-9476D01*
X64653Y-9389D01*
X64687Y-9304D01*
X64691Y-9263D01*
X64698Y-9241D01*
X64697Y-9208D01*
X64705Y-9137D01*
X64705Y-4712D01*
X64691Y-4622D01*
X64683Y-4531D01*
X64671Y-4502D01*
X64666Y-4470D01*
X64623Y-4389D01*
X64587Y-4305D01*
X64561Y-4273D01*
X64550Y-4252D01*
X64527Y-4230D01*
X64482Y-4174D01*
X63475Y-3167D01*
X63475Y167D01*
X65833Y2525D01*
X69167Y2525D01*
X71525Y167D01*
X71525Y-3167D01*
X70518Y-4174D01*
X70465Y-4248D01*
X70405Y-4318D01*
X70393Y-4348D01*
X70374Y-4374D01*
X70347Y-4461D01*
X70313Y-4546D01*
X70309Y-4587D01*
X70302Y-4609D01*
X70303Y-4641D01*
X70295Y-4712D01*
X70295Y-11768D01*
X53128Y-28935D01*
X53075Y-29009D01*
X53015Y-29078D01*
X53003Y-29108D01*
X52984Y-29134D01*
X52957Y-29221D01*
X52923Y-29306D01*
X52919Y-29347D01*
X52912Y-29369D01*
X52913Y-29402D01*
X52905Y-29473D01*
X52905Y-45156D01*
X52920Y-45252D01*
X52930Y-45349D01*
X52940Y-45373D01*
X52944Y-45399D01*
X52990Y-45485D01*
X53030Y-45574D01*
X53047Y-45593D01*
X53060Y-45616D01*
X53130Y-45683D01*
X53196Y-45755D01*
X53219Y-45767D01*
X53238Y-45785D01*
X53326Y-45826D01*
X53412Y-45873D01*
X53437Y-45878D01*
X53461Y-45889D01*
X53558Y-45900D01*
X53654Y-45917D01*
X53680Y-45913D01*
X53705Y-45916D01*
X53801Y-45895D01*
X53897Y-45881D01*
X53920Y-45869D01*
X53946Y-45864D01*
X54029Y-45814D01*
X54116Y-45770D01*
X54135Y-45751D01*
X54157Y-45738D01*
X54220Y-45664D01*
X54288Y-45594D01*
X54304Y-45566D01*
X54317Y-45551D01*
X54329Y-45520D01*
X54369Y-45447D01*
X55747Y-42120D01*
X58320Y-39547D01*
X61681Y-38155D01*
X65319Y-38155D01*
X68680Y-39547D01*
X71253Y-42120D01*
X71741Y-43299D01*
X71792Y-43382D01*
X71838Y-43467D01*
X71856Y-43485D01*
X71870Y-43508D01*
X71946Y-43570D01*
X72016Y-43637D01*
X72040Y-43648D01*
X72060Y-43664D01*
X72151Y-43699D01*
X72239Y-43740D01*
X72265Y-43743D01*
X72289Y-43753D01*
X72387Y-43757D01*
X72483Y-43767D01*
X72509Y-43762D01*
X72535Y-43763D01*
X72629Y-43736D01*
X72724Y-43715D01*
X72746Y-43702D01*
X72771Y-43694D01*
X72851Y-43639D01*
X72935Y-43589D01*
X72952Y-43569D01*
X72973Y-43554D01*
X73032Y-43476D01*
X73095Y-43402D01*
X73105Y-43378D01*
X73120Y-43357D01*
X73150Y-43264D01*
X73187Y-43174D01*
X73190Y-43141D01*
X73196Y-43123D01*
X73196Y-43090D01*
X73205Y-43007D01*
X73205Y-13212D01*
X73191Y-13122D01*
X73183Y-13031D01*
X73171Y-13002D01*
X73166Y-12970D01*
X73123Y-12889D01*
X73087Y-12805D01*
X73061Y-12773D01*
X73050Y-12752D01*
X73027Y-12730D01*
X72982Y-12674D01*
X71975Y-11667D01*
X71975Y-8333D01*
X74333Y-5975D01*
X77667Y-5975D01*
X80025Y-8333D01*
X80025Y-11667D01*
X79018Y-12674D01*
X78965Y-12748D01*
X78905Y-12818D01*
X78893Y-12848D01*
X78874Y-12874D01*
X78847Y-12961D01*
X78813Y-13046D01*
X78809Y-13087D01*
X78802Y-13109D01*
X78803Y-13141D01*
X78795Y-13212D01*
X78795Y-43973D01*
X78810Y-44069D01*
X78820Y-44166D01*
X78830Y-44190D01*
X78834Y-44216D01*
X78880Y-44302D01*
X78920Y-44391D01*
X78937Y-44410D01*
X78950Y-44433D01*
X79020Y-44500D01*
X79086Y-44572D01*
X79109Y-44584D01*
X79128Y-44602D01*
X79216Y-44643D01*
X79302Y-44690D01*
X79327Y-44695D01*
X79351Y-44706D01*
X79448Y-44717D01*
X79544Y-44734D01*
X79570Y-44730D01*
X79595Y-44733D01*
X79691Y-44712D01*
X79787Y-44698D01*
X79810Y-44686D01*
X79836Y-44681D01*
X79919Y-44631D01*
X80006Y-44587D01*
X80025Y-44568D01*
X80047Y-44555D01*
X80110Y-44481D01*
X80178Y-44411D01*
X80194Y-44383D01*
X80207Y-44368D01*
X80219Y-44337D01*
X80259Y-44264D01*
X81147Y-42120D01*
X83720Y-39547D01*
X87081Y-38155D01*
X90719Y-38155D01*
X94080Y-39547D01*
X96653Y-42120D01*
X98045Y-45481D01*
X98045Y-49119D01*
X96653Y-52480D01*
X94080Y-55053D01*
X90719Y-56445D01*
X87081Y-56445D01*
X83720Y-55053D01*
X81147Y-52480D01*
X80259Y-50336D01*
X80208Y-50253D01*
X80162Y-50167D01*
X80144Y-50149D01*
X80130Y-50127D01*
X80054Y-50064D01*
X79984Y-49998D01*
X79960Y-49987D01*
X79940Y-49970D01*
X79849Y-49935D01*
X79761Y-49894D01*
X79735Y-49891D01*
X79711Y-49882D01*
X79613Y-49878D01*
X79517Y-49867D01*
X79491Y-49872D01*
X79465Y-49871D01*
X79371Y-49898D01*
X79276Y-49919D01*
X79254Y-49933D01*
X79229Y-49940D01*
X79149Y-49995D01*
X79065Y-50045D01*
X79048Y-50065D01*
X79027Y-50080D01*
X78968Y-50158D01*
X78905Y-50232D01*
X78895Y-50256D01*
X78880Y-50277D01*
X78850Y-50370D01*
X78813Y-50460D01*
X78810Y-50493D01*
X78804Y-50511D01*
X78804Y-50544D01*
X78795Y-50627D01*
X78795Y-58327D01*
X78809Y-58417D01*
X78817Y-58508D01*
X78829Y-58538D01*
X78834Y-58570D01*
X78877Y-58650D01*
X78913Y-58734D01*
X78939Y-58766D01*
X78950Y-58787D01*
X78973Y-58809D01*
X79018Y-58865D01*
X84336Y-64184D01*
X84430Y-64251D01*
X84525Y-64322D01*
X84531Y-64324D01*
X84536Y-64327D01*
X84647Y-64361D01*
X84759Y-64398D01*
X84765Y-64398D01*
X84771Y-64400D01*
X84888Y-64397D01*
X85004Y-64395D01*
X85012Y-64393D01*
X85017Y-64393D01*
X85034Y-64387D01*
X85166Y-64349D01*
X87081Y-63555D01*
X90719Y-63555D01*
X94080Y-64947D01*
X96653Y-67520D01*
X98045Y-70881D01*
X98045Y-74519D01*
X96653Y-77880D01*
X94080Y-80453D01*
X90719Y-81845D01*
X87081Y-81845D01*
X83720Y-80453D01*
X81147Y-77880D01*
X79755Y-74519D01*
X79755Y-70881D01*
X80549Y-68966D01*
X80575Y-68852D01*
X80604Y-68738D01*
X80603Y-68732D01*
X80605Y-68726D01*
X80594Y-68610D01*
X80585Y-68493D01*
X80582Y-68488D01*
X80582Y-68481D01*
X80534Y-68374D01*
X80488Y-68267D01*
X80484Y-68261D01*
X80482Y-68257D01*
X80469Y-68243D01*
X80384Y-68136D01*
X73205Y-60958D01*
X73205Y-51593D01*
X73190Y-51497D01*
X73180Y-51400D01*
X73170Y-51376D01*
X73166Y-51350D01*
X73120Y-51264D01*
X73080Y-51175D01*
X73063Y-51156D01*
X73050Y-51133D01*
X72980Y-51066D01*
X72914Y-50994D01*
X72891Y-50981D01*
X72872Y-50963D01*
X72784Y-50922D01*
X72698Y-50875D01*
X72673Y-50871D01*
X72649Y-50860D01*
X72552Y-50849D01*
X72456Y-50832D01*
X72430Y-50835D01*
X72405Y-50833D01*
X72309Y-50853D01*
X72213Y-50867D01*
X72190Y-50879D01*
X72164Y-50885D01*
X72081Y-50935D01*
X71994Y-50979D01*
X71975Y-50998D01*
X71953Y-51011D01*
X71890Y-51085D01*
X71822Y-51154D01*
X71806Y-51183D01*
X71793Y-51198D01*
X71781Y-51229D01*
X71741Y-51301D01*
X71253Y-52480D01*
X68680Y-55053D01*
X65319Y-56445D01*
X61681Y-56445D01*
X58320Y-55053D01*
X55747Y-52480D01*
X54369Y-49153D01*
X54318Y-49070D01*
X54272Y-48984D01*
X54254Y-48966D01*
X54240Y-48944D01*
X54164Y-48881D01*
X54094Y-48815D01*
X54070Y-48804D01*
X54050Y-48787D01*
X53959Y-48752D01*
X53871Y-48711D01*
X53845Y-48708D01*
X53821Y-48699D01*
X53723Y-48695D01*
X53627Y-48684D01*
X53601Y-48689D01*
X53575Y-48688D01*
X53481Y-48715D01*
X53386Y-48736D01*
X53364Y-48750D01*
X53339Y-48757D01*
X53259Y-48812D01*
X53175Y-48862D01*
X53158Y-48882D01*
X53137Y-48897D01*
X53078Y-48975D01*
X53015Y-49049D01*
X53005Y-49074D01*
X52990Y-49094D01*
X52960Y-49187D01*
X52923Y-49277D01*
X52920Y-49310D01*
X52914Y-49328D01*
X52914Y-49361D01*
X52905Y-49444D01*
X52905Y-57837D01*
X52919Y-57927D01*
X52927Y-58018D01*
X52939Y-58048D01*
X52944Y-58080D01*
X52987Y-58160D01*
X53023Y-58244D01*
X53049Y-58276D01*
X53060Y-58297D01*
X53083Y-58319D01*
X53128Y-58375D01*
X58936Y-64184D01*
X59030Y-64251D01*
X59125Y-64322D01*
X59131Y-64324D01*
X59136Y-64327D01*
X59247Y-64361D01*
X59359Y-64398D01*
X59365Y-64398D01*
X59371Y-64400D01*
X59488Y-64397D01*
X59604Y-64395D01*
X59612Y-64393D01*
X59617Y-64393D01*
X59634Y-64387D01*
X59766Y-64349D01*
X61681Y-63555D01*
X65319Y-63555D01*
X68680Y-64947D01*
X71253Y-67520D01*
X72645Y-70881D01*
X72645Y-74519D01*
X71253Y-77880D01*
X68680Y-80453D01*
X65319Y-81845D01*
X61681Y-81845D01*
X58320Y-80453D01*
X55747Y-77880D01*
X54355Y-74519D01*
X54355Y-70881D01*
X55149Y-68966D01*
X55175Y-68852D01*
X55204Y-68738D01*
X55203Y-68732D01*
X55205Y-68726D01*
X55194Y-68610D01*
X55185Y-68493D01*
X55182Y-68488D01*
X55182Y-68481D01*
X55134Y-68374D01*
X55088Y-68267D01*
X55084Y-68261D01*
X55082Y-68257D01*
X55069Y-68243D01*
X54984Y-68136D01*
X49175Y-62328D01*
X47315Y-60468D01*
X47315Y-52776D01*
X47300Y-52680D01*
X47290Y-52583D01*
X47280Y-52559D01*
X47276Y-52533D01*
X47230Y-52447D01*
X47190Y-52358D01*
X47173Y-52339D01*
X47160Y-52316D01*
X47090Y-52249D01*
X47024Y-52177D01*
X47001Y-52164D01*
X46982Y-52146D01*
X46894Y-52105D01*
X46808Y-52058D01*
X46783Y-52054D01*
X46759Y-52043D01*
X46662Y-52032D01*
X46566Y-52015D01*
X46540Y-52018D01*
X46515Y-52016D01*
X46419Y-52036D01*
X46323Y-52050D01*
X46300Y-52062D01*
X46274Y-52068D01*
X46190Y-52118D01*
X46104Y-52162D01*
X46085Y-52181D01*
X46063Y-52194D01*
X46000Y-52268D01*
X45932Y-52338D01*
X45916Y-52366D01*
X45903Y-52381D01*
X45891Y-52412D01*
X45854Y-52479D01*
X43280Y-55053D01*
X39919Y-56445D01*
X36281Y-56445D01*
X32920Y-55053D01*
X30347Y-52480D01*
X29259Y-49853D01*
X29208Y-49770D01*
X29162Y-49684D01*
X29144Y-49666D01*
X29130Y-49644D01*
X29054Y-49582D01*
X28984Y-49515D01*
X28960Y-49504D01*
X28940Y-49487D01*
X28849Y-49452D01*
X28761Y-49411D01*
X28735Y-49408D01*
X28711Y-49399D01*
X28613Y-49395D01*
X28517Y-49384D01*
X28491Y-49390D01*
X28465Y-49388D01*
X28371Y-49416D01*
X28276Y-49436D01*
X28254Y-49450D01*
X28229Y-49457D01*
X28149Y-49512D01*
X28065Y-49562D01*
X28048Y-49582D01*
X28027Y-49597D01*
X27968Y-49675D01*
X27905Y-49749D01*
X27895Y-49774D01*
X27880Y-49795D01*
X27850Y-49887D01*
X27813Y-49978D01*
X27810Y-50010D01*
X27804Y-50028D01*
X27804Y-50062D01*
X27795Y-50144D01*
X27795Y-58127D01*
X27809Y-58217D01*
X27817Y-58308D01*
X27829Y-58338D01*
X27834Y-58370D01*
X27877Y-58450D01*
X27913Y-58534D01*
X27939Y-58566D01*
X27950Y-58587D01*
X27973Y-58609D01*
X28018Y-58665D01*
X33536Y-64184D01*
X33630Y-64251D01*
X33725Y-64322D01*
X33731Y-64324D01*
X33736Y-64327D01*
X33847Y-64361D01*
X33959Y-64398D01*
X33965Y-64398D01*
X33971Y-64400D01*
X34088Y-64397D01*
X34204Y-64395D01*
X34212Y-64393D01*
X34217Y-64393D01*
X34234Y-64387D01*
X34366Y-64349D01*
X36281Y-63555D01*
X39919Y-63555D01*
X43280Y-64947D01*
X45853Y-67520D01*
X47245Y-70881D01*
X47245Y-74519D01*
X45853Y-77880D01*
X43280Y-80453D01*
X39919Y-81845D01*
X36281Y-81845D01*
G37*
%LPD*%
%LPC*%
G36*
X-150355Y-160271D02*
X-150355Y-160271D01*
X-152271Y-158355D01*
X-152271Y-90645D01*
X-150355Y-88729D01*
X-122645Y-88729D01*
X-120729Y-90645D01*
X-120729Y-158355D01*
X-122645Y-160271D01*
X-150355Y-160271D01*
G37*
%LPD*%
%LPC*%
G36*
X-226355Y431729D02*
X-226355Y431729D01*
X-228271Y433645D01*
X-228271Y501355D01*
X-226355Y503271D01*
X-198645Y503271D01*
X-196729Y501355D01*
X-196729Y433645D01*
X-198645Y431729D01*
X-226355Y431729D01*
G37*
%LPD*%
%LPC*%
G36*
X-46667Y-12525D02*
X-46667Y-12525D01*
X-49025Y-10167D01*
X-49025Y-6833D01*
X-48018Y-5826D01*
X-47965Y-5752D01*
X-47905Y-5682D01*
X-47893Y-5652D01*
X-47874Y-5626D01*
X-47847Y-5539D01*
X-47813Y-5454D01*
X-47809Y-5413D01*
X-47802Y-5391D01*
X-47803Y-5359D01*
X-47795Y-5288D01*
X-47795Y5027D01*
X-47809Y5117D01*
X-47817Y5208D01*
X-47829Y5238D01*
X-47834Y5270D01*
X-47877Y5350D01*
X-47913Y5434D01*
X-47939Y5466D01*
X-47950Y5487D01*
X-47973Y5509D01*
X-48018Y5565D01*
X-95795Y53342D01*
X-95795Y116788D01*
X-95809Y116878D01*
X-95817Y116969D01*
X-95829Y116998D01*
X-95834Y117030D01*
X-95877Y117111D01*
X-95913Y117195D01*
X-95939Y117227D01*
X-95950Y117248D01*
X-95973Y117270D01*
X-96018Y117326D01*
X-97025Y118333D01*
X-97025Y121667D01*
X-94667Y124025D01*
X-91333Y124025D01*
X-88975Y121667D01*
X-88975Y118333D01*
X-89982Y117326D01*
X-90035Y117252D01*
X-90095Y117182D01*
X-90107Y117152D01*
X-90126Y117126D01*
X-90153Y117039D01*
X-90187Y116954D01*
X-90191Y116913D01*
X-90198Y116891D01*
X-90197Y116859D01*
X-90205Y116788D01*
X-90205Y55973D01*
X-90191Y55883D01*
X-90183Y55792D01*
X-90171Y55762D01*
X-90166Y55730D01*
X-90123Y55650D01*
X-90087Y55566D01*
X-90061Y55534D01*
X-90050Y55513D01*
X-90027Y55491D01*
X-89982Y55435D01*
X-66324Y31777D01*
X-66266Y31735D01*
X-66214Y31685D01*
X-66167Y31663D01*
X-66125Y31633D01*
X-66056Y31612D01*
X-65991Y31582D01*
X-65939Y31576D01*
X-65889Y31561D01*
X-65818Y31563D01*
X-65747Y31555D01*
X-65696Y31566D01*
X-65644Y31567D01*
X-65576Y31592D01*
X-65506Y31607D01*
X-65461Y31634D01*
X-65413Y31652D01*
X-65357Y31696D01*
X-65295Y31733D01*
X-65261Y31773D01*
X-65221Y31805D01*
X-65182Y31866D01*
X-65135Y31920D01*
X-65116Y31968D01*
X-65088Y32012D01*
X-65070Y32082D01*
X-65043Y32148D01*
X-65035Y32220D01*
X-65027Y32251D01*
X-65029Y32274D01*
X-65025Y32315D01*
X-65025Y35167D01*
X-62667Y37525D01*
X-59333Y37525D01*
X-58326Y36518D01*
X-58252Y36465D01*
X-58182Y36405D01*
X-58152Y36393D01*
X-58126Y36374D01*
X-58039Y36347D01*
X-57954Y36313D01*
X-57913Y36309D01*
X-57891Y36302D01*
X-57859Y36303D01*
X-57788Y36295D01*
X-3212Y36295D01*
X-3122Y36309D01*
X-3031Y36317D01*
X-3002Y36329D01*
X-2970Y36334D01*
X-2889Y36377D01*
X-2805Y36413D01*
X-2773Y36439D01*
X-2752Y36450D01*
X-2730Y36473D01*
X-2674Y36518D01*
X-2480Y36712D01*
X-2468Y36728D01*
X-2453Y36740D01*
X-2397Y36827D01*
X-2337Y36911D01*
X-2331Y36930D01*
X-2320Y36947D01*
X-2295Y37047D01*
X-2264Y37146D01*
X-2265Y37166D01*
X-2260Y37186D01*
X-2268Y37289D01*
X-2271Y37392D01*
X-2277Y37411D01*
X-2279Y37431D01*
X-2319Y37526D01*
X-2355Y37623D01*
X-2367Y37639D01*
X-2375Y37657D01*
X-2480Y37788D01*
X-4525Y39833D01*
X-4525Y43167D01*
X-2167Y45525D01*
X1167Y45525D01*
X1906Y44786D01*
X1964Y44744D01*
X2016Y44695D01*
X2063Y44673D01*
X2105Y44643D01*
X2174Y44621D01*
X2239Y44591D01*
X2291Y44586D01*
X2341Y44570D01*
X2412Y44572D01*
X2483Y44564D01*
X2534Y44575D01*
X2586Y44577D01*
X2654Y44601D01*
X2724Y44616D01*
X2769Y44643D01*
X2817Y44661D01*
X2873Y44706D01*
X2935Y44743D01*
X2969Y44782D01*
X3009Y44815D01*
X3048Y44875D01*
X3095Y44929D01*
X3114Y44978D01*
X3142Y45022D01*
X3160Y45091D01*
X3187Y45158D01*
X3195Y45229D01*
X3203Y45260D01*
X3201Y45283D01*
X3205Y45324D01*
X3205Y51027D01*
X3191Y51117D01*
X3183Y51208D01*
X3171Y51238D01*
X3166Y51270D01*
X3123Y51350D01*
X3087Y51434D01*
X3061Y51466D01*
X3050Y51487D01*
X3027Y51509D01*
X2982Y51565D01*
X-5435Y59982D01*
X-5509Y60035D01*
X-5578Y60095D01*
X-5608Y60107D01*
X-5634Y60126D01*
X-5721Y60153D01*
X-5806Y60187D01*
X-5847Y60191D01*
X-5869Y60198D01*
X-5902Y60197D01*
X-5973Y60205D01*
X-34788Y60205D01*
X-34878Y60191D01*
X-34969Y60183D01*
X-34998Y60171D01*
X-35030Y60166D01*
X-35111Y60123D01*
X-35195Y60087D01*
X-35227Y60061D01*
X-35248Y60050D01*
X-35270Y60027D01*
X-35326Y59982D01*
X-36333Y58975D01*
X-39667Y58975D01*
X-42025Y61333D01*
X-42025Y64667D01*
X-39667Y67025D01*
X-36333Y67025D01*
X-35326Y66018D01*
X-35252Y65965D01*
X-35182Y65905D01*
X-35152Y65893D01*
X-35126Y65874D01*
X-35039Y65847D01*
X-34954Y65813D01*
X-34913Y65809D01*
X-34891Y65802D01*
X-34859Y65803D01*
X-34788Y65795D01*
X-3342Y65795D01*
X6935Y55518D01*
X8795Y53658D01*
X8795Y34324D01*
X8806Y34254D01*
X8808Y34182D01*
X8826Y34133D01*
X8834Y34082D01*
X8868Y34018D01*
X8893Y33951D01*
X8925Y33910D01*
X8950Y33864D01*
X9002Y33815D01*
X9046Y33759D01*
X9090Y33731D01*
X9128Y33695D01*
X9193Y33665D01*
X9253Y33626D01*
X9304Y33613D01*
X9351Y33591D01*
X9422Y33583D01*
X9492Y33566D01*
X9544Y33570D01*
X9595Y33564D01*
X9666Y33579D01*
X9737Y33585D01*
X9785Y33605D01*
X9836Y33616D01*
X9897Y33653D01*
X9963Y33681D01*
X10019Y33726D01*
X10047Y33743D01*
X10062Y33760D01*
X10094Y33786D01*
X10333Y34025D01*
X13667Y34025D01*
X16025Y31667D01*
X16025Y28333D01*
X13667Y25975D01*
X10333Y25975D01*
X9397Y26912D01*
X9380Y26923D01*
X9368Y26939D01*
X9281Y26995D01*
X9197Y27055D01*
X9178Y27061D01*
X9161Y27072D01*
X9061Y27097D01*
X8962Y27128D01*
X8942Y27127D01*
X8922Y27132D01*
X8820Y27124D01*
X8716Y27121D01*
X8697Y27114D01*
X8677Y27113D01*
X8582Y27072D01*
X8485Y27037D01*
X8469Y27024D01*
X8451Y27016D01*
X8320Y26912D01*
X6935Y25526D01*
X-1386Y17205D01*
X-16788Y17205D01*
X-16878Y17191D01*
X-16969Y17183D01*
X-16998Y17171D01*
X-17030Y17166D01*
X-17111Y17123D01*
X-17195Y17087D01*
X-17227Y17061D01*
X-17248Y17050D01*
X-17270Y17027D01*
X-17326Y16982D01*
X-18333Y15975D01*
X-21667Y15975D01*
X-24025Y18333D01*
X-24025Y21667D01*
X-21667Y24025D01*
X-18333Y24025D01*
X-17326Y23018D01*
X-17252Y22965D01*
X-17182Y22905D01*
X-17152Y22893D01*
X-17126Y22874D01*
X-17039Y22847D01*
X-16954Y22813D01*
X-16913Y22809D01*
X-16891Y22802D01*
X-16859Y22803D01*
X-16788Y22795D01*
X-4017Y22795D01*
X-3927Y22809D01*
X-3836Y22817D01*
X-3806Y22829D01*
X-3774Y22834D01*
X-3694Y22877D01*
X-3610Y22913D01*
X-3578Y22939D01*
X-3557Y22950D01*
X-3535Y22973D01*
X-3479Y23018D01*
X1679Y28176D01*
X1721Y28234D01*
X1771Y28286D01*
X1793Y28333D01*
X1823Y28375D01*
X1844Y28444D01*
X1874Y28509D01*
X1880Y28561D01*
X1895Y28611D01*
X1893Y28682D01*
X1901Y28753D01*
X1890Y28804D01*
X1889Y28856D01*
X1864Y28924D01*
X1849Y28994D01*
X1822Y29038D01*
X1804Y29087D01*
X1760Y29143D01*
X1723Y29205D01*
X1683Y29239D01*
X1651Y29279D01*
X1590Y29318D01*
X1536Y29365D01*
X1488Y29384D01*
X1444Y29412D01*
X1374Y29430D01*
X1308Y29457D01*
X1236Y29465D01*
X1205Y29473D01*
X1182Y29471D01*
X1141Y29475D01*
X-1667Y29475D01*
X-2674Y30482D01*
X-2748Y30535D01*
X-2818Y30595D01*
X-2848Y30607D01*
X-2874Y30626D01*
X-2961Y30653D01*
X-3046Y30687D01*
X-3087Y30691D01*
X-3109Y30698D01*
X-3141Y30697D01*
X-3212Y30705D01*
X-57788Y30705D01*
X-57878Y30691D01*
X-57969Y30683D01*
X-57998Y30671D01*
X-58030Y30666D01*
X-58111Y30623D01*
X-58195Y30587D01*
X-58227Y30561D01*
X-58248Y30550D01*
X-58270Y30527D01*
X-58326Y30482D01*
X-59333Y29475D01*
X-62185Y29475D01*
X-62256Y29464D01*
X-62328Y29462D01*
X-62377Y29444D01*
X-62428Y29436D01*
X-62491Y29402D01*
X-62559Y29377D01*
X-62599Y29345D01*
X-62645Y29320D01*
X-62695Y29268D01*
X-62751Y29224D01*
X-62779Y29180D01*
X-62815Y29142D01*
X-62845Y29077D01*
X-62884Y29017D01*
X-62896Y28966D01*
X-62918Y28919D01*
X-62926Y28848D01*
X-62944Y28778D01*
X-62940Y28726D01*
X-62945Y28675D01*
X-62930Y28604D01*
X-62925Y28533D01*
X-62904Y28485D01*
X-62893Y28434D01*
X-62856Y28373D01*
X-62828Y28307D01*
X-62783Y28251D01*
X-62767Y28223D01*
X-62749Y28208D01*
X-62723Y28176D01*
X-42205Y7658D01*
X-42205Y-5288D01*
X-42191Y-5378D01*
X-42183Y-5469D01*
X-42171Y-5498D01*
X-42166Y-5530D01*
X-42123Y-5611D01*
X-42087Y-5695D01*
X-42061Y-5727D01*
X-42050Y-5748D01*
X-42027Y-5770D01*
X-41982Y-5826D01*
X-40975Y-6833D01*
X-40975Y-10167D01*
X-43333Y-12525D01*
X-46667Y-12525D01*
G37*
%LPD*%
%LPC*%
G36*
X144645Y338729D02*
X144645Y338729D01*
X142729Y340645D01*
X142729Y408355D01*
X144645Y410271D01*
X167355Y410271D01*
X169271Y408355D01*
X169271Y340645D01*
X167355Y338729D01*
X144645Y338729D01*
G37*
%LPD*%
%LPC*%
G36*
X89479Y29121D02*
X89479Y29121D01*
X87121Y31479D01*
X87121Y32903D01*
X87107Y32993D01*
X87100Y33084D01*
X87087Y33114D01*
X87082Y33146D01*
X87039Y33227D01*
X87003Y33311D01*
X86978Y33343D01*
X86967Y33363D01*
X86943Y33386D01*
X86899Y33442D01*
X59609Y60731D01*
X58094Y62246D01*
X58036Y62288D01*
X57984Y62337D01*
X57937Y62359D01*
X57895Y62389D01*
X57826Y62410D01*
X57761Y62441D01*
X57709Y62446D01*
X57659Y62462D01*
X57588Y62460D01*
X57517Y62468D01*
X57466Y62457D01*
X57414Y62455D01*
X57346Y62431D01*
X57276Y62416D01*
X57231Y62389D01*
X57183Y62371D01*
X57127Y62326D01*
X57065Y62289D01*
X57031Y62250D01*
X56991Y62217D01*
X56952Y62157D01*
X56905Y62102D01*
X56886Y62054D01*
X56858Y62010D01*
X56840Y61941D01*
X56813Y61874D01*
X56805Y61803D01*
X56797Y61772D01*
X56799Y61748D01*
X56795Y61708D01*
X56795Y61212D01*
X56809Y61122D01*
X56817Y61031D01*
X56829Y61002D01*
X56834Y60970D01*
X56877Y60889D01*
X56913Y60805D01*
X56939Y60773D01*
X56950Y60752D01*
X56973Y60730D01*
X57018Y60674D01*
X58025Y59667D01*
X58025Y56333D01*
X55667Y53975D01*
X53554Y53975D01*
X53484Y53964D01*
X53412Y53962D01*
X53363Y53944D01*
X53312Y53936D01*
X53248Y53902D01*
X53181Y53877D01*
X53140Y53845D01*
X53094Y53820D01*
X53045Y53768D01*
X52989Y53724D01*
X52961Y53680D01*
X52925Y53642D01*
X52895Y53577D01*
X52856Y53517D01*
X52843Y53466D01*
X52821Y53419D01*
X52813Y53348D01*
X52796Y53278D01*
X52800Y53226D01*
X52794Y53175D01*
X52809Y53104D01*
X52815Y53033D01*
X52835Y52985D01*
X52846Y52934D01*
X52883Y52873D01*
X52911Y52807D01*
X52956Y52751D01*
X52973Y52723D01*
X52988Y52710D01*
X52991Y52705D01*
X52997Y52700D01*
X53016Y52676D01*
X54025Y51667D01*
X54025Y48333D01*
X51667Y45975D01*
X48333Y45975D01*
X46538Y47770D01*
X46522Y47782D01*
X46510Y47797D01*
X46422Y47853D01*
X46339Y47913D01*
X46320Y47919D01*
X46303Y47930D01*
X46202Y47955D01*
X46103Y47986D01*
X46084Y47985D01*
X46064Y47990D01*
X45961Y47982D01*
X45858Y47979D01*
X45839Y47973D01*
X45819Y47971D01*
X45724Y47931D01*
X45627Y47895D01*
X45611Y47882D01*
X45593Y47875D01*
X45462Y47770D01*
X43667Y45975D01*
X40333Y45975D01*
X37975Y48333D01*
X37975Y51667D01*
X40333Y54025D01*
X41988Y54025D01*
X42008Y54028D01*
X42027Y54026D01*
X42129Y54048D01*
X42231Y54064D01*
X42248Y54074D01*
X42268Y54078D01*
X42357Y54131D01*
X42448Y54180D01*
X42462Y54194D01*
X42479Y54204D01*
X42546Y54283D01*
X42618Y54358D01*
X42626Y54376D01*
X42639Y54391D01*
X42678Y54487D01*
X42721Y54581D01*
X42723Y54601D01*
X42731Y54619D01*
X42749Y54786D01*
X42749Y86321D01*
X42735Y86411D01*
X42727Y86502D01*
X42715Y86532D01*
X42710Y86564D01*
X42667Y86644D01*
X42631Y86728D01*
X42605Y86760D01*
X42594Y86781D01*
X42571Y86803D01*
X42526Y86859D01*
X20633Y108752D01*
X20559Y108805D01*
X20490Y108865D01*
X20460Y108877D01*
X20434Y108896D01*
X20347Y108923D01*
X20262Y108957D01*
X20221Y108961D01*
X20199Y108968D01*
X20166Y108967D01*
X20095Y108975D01*
X18671Y108975D01*
X16313Y111333D01*
X16313Y114667D01*
X18671Y117025D01*
X22005Y117025D01*
X24363Y114667D01*
X24363Y113243D01*
X24377Y113153D01*
X24385Y113062D01*
X24397Y113032D01*
X24402Y113000D01*
X24445Y112920D01*
X24481Y112836D01*
X24507Y112804D01*
X24518Y112783D01*
X24541Y112761D01*
X24586Y112705D01*
X48339Y88952D01*
X48339Y55929D01*
X48353Y55839D01*
X48361Y55748D01*
X48373Y55718D01*
X48378Y55686D01*
X48421Y55606D01*
X48457Y55522D01*
X48483Y55490D01*
X48494Y55469D01*
X48517Y55447D01*
X48562Y55391D01*
X49705Y54248D01*
X49779Y54195D01*
X49848Y54135D01*
X49878Y54123D01*
X49904Y54104D01*
X49991Y54077D01*
X50076Y54043D01*
X50117Y54039D01*
X50139Y54032D01*
X50172Y54033D01*
X50243Y54025D01*
X50446Y54025D01*
X50516Y54036D01*
X50588Y54038D01*
X50637Y54056D01*
X50688Y54064D01*
X50752Y54098D01*
X50819Y54123D01*
X50860Y54155D01*
X50906Y54180D01*
X50955Y54232D01*
X51011Y54276D01*
X51039Y54320D01*
X51075Y54358D01*
X51105Y54423D01*
X51144Y54483D01*
X51157Y54534D01*
X51179Y54581D01*
X51187Y54652D01*
X51204Y54722D01*
X51200Y54774D01*
X51206Y54825D01*
X51191Y54896D01*
X51185Y54967D01*
X51165Y55015D01*
X51154Y55066D01*
X51117Y55127D01*
X51089Y55193D01*
X51044Y55249D01*
X51027Y55277D01*
X51010Y55292D01*
X50984Y55324D01*
X49975Y56333D01*
X49975Y59667D01*
X50982Y60674D01*
X51035Y60748D01*
X51095Y60818D01*
X51107Y60848D01*
X51126Y60874D01*
X51153Y60961D01*
X51187Y61046D01*
X51191Y61087D01*
X51198Y61109D01*
X51197Y61141D01*
X51205Y61212D01*
X51205Y91527D01*
X51191Y91617D01*
X51183Y91708D01*
X51171Y91738D01*
X51166Y91770D01*
X51123Y91850D01*
X51087Y91934D01*
X51061Y91966D01*
X51050Y91987D01*
X51027Y92009D01*
X50982Y92065D01*
X39205Y103842D01*
X39205Y107788D01*
X39191Y107878D01*
X39183Y107969D01*
X39171Y107998D01*
X39166Y108030D01*
X39123Y108111D01*
X39087Y108195D01*
X39061Y108227D01*
X39050Y108248D01*
X39027Y108270D01*
X38982Y108326D01*
X37975Y109333D01*
X37975Y112667D01*
X40333Y115025D01*
X43667Y115025D01*
X45962Y112730D01*
X45978Y112718D01*
X45990Y112703D01*
X46078Y112647D01*
X46161Y112587D01*
X46180Y112581D01*
X46197Y112570D01*
X46298Y112545D01*
X46397Y112514D01*
X46416Y112515D01*
X46436Y112510D01*
X46539Y112518D01*
X46642Y112521D01*
X46661Y112527D01*
X46681Y112529D01*
X46776Y112569D01*
X46873Y112605D01*
X46889Y112618D01*
X46907Y112625D01*
X47038Y112730D01*
X48333Y114025D01*
X51667Y114025D01*
X54025Y111667D01*
X54025Y110243D01*
X54039Y110153D01*
X54047Y110062D01*
X54059Y110032D01*
X54064Y110000D01*
X54107Y109920D01*
X54143Y109836D01*
X54169Y109804D01*
X54180Y109783D01*
X54203Y109761D01*
X54248Y109705D01*
X63339Y100614D01*
X63339Y65221D01*
X63353Y65131D01*
X63361Y65040D01*
X63373Y65011D01*
X63378Y64979D01*
X63421Y64898D01*
X63457Y64814D01*
X63483Y64782D01*
X63494Y64761D01*
X63517Y64739D01*
X63562Y64683D01*
X90851Y37394D01*
X90925Y37341D01*
X90994Y37281D01*
X91024Y37269D01*
X91051Y37250D01*
X91138Y37224D01*
X91222Y37189D01*
X91263Y37185D01*
X91286Y37178D01*
X91318Y37179D01*
X91389Y37171D01*
X92813Y37171D01*
X95171Y34813D01*
X95171Y31479D01*
X92813Y29121D01*
X89479Y29121D01*
G37*
%LPD*%
%LPC*%
G36*
X-163667Y-95025D02*
X-163667Y-95025D01*
X-166025Y-92667D01*
X-166025Y-89333D01*
X-163667Y-86975D01*
X-162243Y-86975D01*
X-162153Y-86961D01*
X-162062Y-86953D01*
X-162032Y-86941D01*
X-162000Y-86936D01*
X-161920Y-86893D01*
X-161836Y-86857D01*
X-161804Y-86831D01*
X-161783Y-86820D01*
X-161761Y-86797D01*
X-161705Y-86752D01*
X-139018Y-64065D01*
X-138965Y-63991D01*
X-138905Y-63922D01*
X-138893Y-63892D01*
X-138874Y-63866D01*
X-138847Y-63779D01*
X-138813Y-63694D01*
X-138809Y-63653D01*
X-138802Y-63631D01*
X-138803Y-63598D01*
X-138795Y-63527D01*
X-138795Y138788D01*
X-138809Y138878D01*
X-138817Y138969D01*
X-138829Y138998D01*
X-138834Y139030D01*
X-138877Y139111D01*
X-138913Y139195D01*
X-138939Y139227D01*
X-138950Y139248D01*
X-138973Y139270D01*
X-139018Y139326D01*
X-140025Y140333D01*
X-140025Y143667D01*
X-137667Y146025D01*
X-134333Y146025D01*
X-131975Y143667D01*
X-131975Y140333D01*
X-132982Y139326D01*
X-133035Y139252D01*
X-133095Y139182D01*
X-133107Y139152D01*
X-133126Y139126D01*
X-133153Y139039D01*
X-133187Y138954D01*
X-133191Y138913D01*
X-133198Y138891D01*
X-133197Y138859D01*
X-133205Y138788D01*
X-133205Y-66158D01*
X-157752Y-90705D01*
X-157805Y-90779D01*
X-157865Y-90848D01*
X-157877Y-90878D01*
X-157896Y-90904D01*
X-157923Y-90991D01*
X-157957Y-91076D01*
X-157961Y-91117D01*
X-157968Y-91139D01*
X-157967Y-91172D01*
X-157975Y-91243D01*
X-157975Y-92667D01*
X-160333Y-95025D01*
X-163667Y-95025D01*
G37*
%LPD*%
%LPC*%
G36*
X172333Y267155D02*
X172333Y267155D01*
X169975Y269512D01*
X169975Y270936D01*
X169974Y270947D01*
X169974Y270953D01*
X169968Y270983D01*
X169961Y271027D01*
X169953Y271117D01*
X169941Y271147D01*
X169936Y271179D01*
X169893Y271260D01*
X169857Y271344D01*
X169831Y271376D01*
X169820Y271397D01*
X169797Y271419D01*
X169752Y271475D01*
X167016Y274211D01*
X166942Y274264D01*
X166872Y274324D01*
X166842Y274336D01*
X166816Y274355D01*
X166729Y274381D01*
X166644Y274416D01*
X166603Y274420D01*
X166581Y274427D01*
X166549Y274426D01*
X166478Y274434D01*
X128662Y274434D01*
X128572Y274419D01*
X128481Y274412D01*
X128451Y274400D01*
X128419Y274394D01*
X128339Y274352D01*
X128255Y274316D01*
X128223Y274290D01*
X128202Y274279D01*
X128180Y274256D01*
X128124Y274211D01*
X127117Y273204D01*
X123782Y273204D01*
X121425Y275562D01*
X121425Y278896D01*
X123782Y281254D01*
X127117Y281254D01*
X128124Y280247D01*
X128198Y280193D01*
X128267Y280134D01*
X128297Y280122D01*
X128323Y280103D01*
X128410Y280076D01*
X128495Y280042D01*
X128536Y280038D01*
X128559Y280031D01*
X128591Y280032D01*
X128662Y280024D01*
X167866Y280024D01*
X167936Y280035D01*
X168008Y280037D01*
X168057Y280055D01*
X168108Y280063D01*
X168172Y280097D01*
X168239Y280122D01*
X168280Y280154D01*
X168326Y280178D01*
X168375Y280230D01*
X168431Y280275D01*
X168459Y280319D01*
X168495Y280357D01*
X168525Y280422D01*
X168564Y280482D01*
X168577Y280533D01*
X168599Y280580D01*
X168607Y280651D01*
X168624Y280721D01*
X168620Y280773D01*
X168626Y280824D01*
X168611Y280894D01*
X168605Y280966D01*
X168585Y281014D01*
X168574Y281065D01*
X168537Y281126D01*
X168509Y281192D01*
X168464Y281248D01*
X168447Y281276D01*
X168430Y281291D01*
X168425Y281297D01*
X168423Y281300D01*
X168421Y281302D01*
X168404Y281323D01*
X166574Y283153D01*
X166500Y283206D01*
X166431Y283265D01*
X166401Y283277D01*
X166375Y283296D01*
X166288Y283323D01*
X166203Y283357D01*
X166162Y283362D01*
X166140Y283368D01*
X166107Y283368D01*
X166036Y283376D01*
X135162Y283376D01*
X135072Y283361D01*
X134981Y283354D01*
X134951Y283341D01*
X134919Y283336D01*
X134839Y283293D01*
X134755Y283257D01*
X134723Y283232D01*
X134702Y283221D01*
X134680Y283197D01*
X134624Y283153D01*
X133617Y282146D01*
X130282Y282146D01*
X127925Y284503D01*
X127925Y287837D01*
X130282Y290195D01*
X133174Y290195D01*
X133194Y290198D01*
X133213Y290196D01*
X133315Y290218D01*
X133417Y290235D01*
X133434Y290244D01*
X133454Y290248D01*
X133543Y290301D01*
X133634Y290350D01*
X133648Y290364D01*
X133665Y290374D01*
X133732Y290453D01*
X133804Y290528D01*
X133812Y290546D01*
X133825Y290561D01*
X133864Y290658D01*
X133907Y290751D01*
X133909Y290771D01*
X133917Y290790D01*
X133935Y290956D01*
X133935Y293848D01*
X136293Y296205D01*
X139446Y296205D01*
X139516Y296217D01*
X139588Y296219D01*
X139637Y296237D01*
X139688Y296245D01*
X139752Y296279D01*
X139819Y296303D01*
X139860Y296336D01*
X139906Y296360D01*
X139955Y296412D01*
X140011Y296457D01*
X140039Y296501D01*
X140075Y296539D01*
X140105Y296604D01*
X140144Y296664D01*
X140157Y296714D01*
X140179Y296762D01*
X140187Y296833D01*
X140204Y296902D01*
X140200Y296954D01*
X140206Y297006D01*
X140191Y297076D01*
X140185Y297148D01*
X140165Y297196D01*
X140154Y297246D01*
X140117Y297308D01*
X140089Y297374D01*
X140044Y297430D01*
X140027Y297458D01*
X140010Y297473D01*
X139984Y297505D01*
X139455Y298034D01*
X139455Y301368D01*
X141813Y303725D01*
X145147Y303725D01*
X146154Y302718D01*
X146228Y302665D01*
X146298Y302606D01*
X146328Y302594D01*
X146354Y302575D01*
X146441Y302548D01*
X146526Y302514D01*
X146567Y302509D01*
X146589Y302502D01*
X146621Y302503D01*
X146692Y302495D01*
X162809Y302495D01*
X162899Y302510D01*
X162990Y302517D01*
X163020Y302530D01*
X163052Y302535D01*
X163132Y302578D01*
X163216Y302614D01*
X163248Y302639D01*
X163269Y302650D01*
X163291Y302674D01*
X163347Y302718D01*
X164333Y303704D01*
X167667Y303704D01*
X170025Y301346D01*
X170025Y298012D01*
X168287Y296275D01*
X168246Y296217D01*
X168196Y296165D01*
X168174Y296117D01*
X168144Y296075D01*
X168123Y296007D01*
X168093Y295942D01*
X168087Y295890D01*
X168071Y295840D01*
X168073Y295768D01*
X168065Y295697D01*
X168077Y295646D01*
X168078Y295594D01*
X168102Y295527D01*
X168118Y295457D01*
X168144Y295412D01*
X168162Y295363D01*
X168207Y295307D01*
X168244Y295246D01*
X168283Y295212D01*
X168316Y295171D01*
X168376Y295132D01*
X168431Y295086D01*
X168479Y295066D01*
X168523Y295038D01*
X168592Y295021D01*
X168659Y294994D01*
X168730Y294986D01*
X168761Y294978D01*
X168785Y294980D01*
X168826Y294975D01*
X170789Y294975D01*
X170879Y294990D01*
X170970Y294997D01*
X171000Y295010D01*
X171032Y295015D01*
X171112Y295058D01*
X171196Y295094D01*
X171228Y295119D01*
X171249Y295130D01*
X171271Y295154D01*
X171327Y295198D01*
X172333Y296204D01*
X175667Y296204D01*
X178025Y293846D01*
X178025Y290512D01*
X175667Y288155D01*
X172333Y288155D01*
X171325Y289163D01*
X171251Y289216D01*
X171181Y289276D01*
X171151Y289288D01*
X171125Y289307D01*
X171038Y289333D01*
X170953Y289367D01*
X170912Y289372D01*
X170890Y289379D01*
X170858Y289378D01*
X170786Y289386D01*
X170084Y289386D01*
X170013Y289374D01*
X169941Y289373D01*
X169892Y289355D01*
X169841Y289346D01*
X169777Y289313D01*
X169710Y289288D01*
X169669Y289256D01*
X169623Y289231D01*
X169574Y289179D01*
X169518Y289134D01*
X169490Y289091D01*
X169454Y289053D01*
X169424Y288988D01*
X169385Y288927D01*
X169372Y288877D01*
X169350Y288830D01*
X169343Y288758D01*
X169325Y288689D01*
X169329Y288637D01*
X169323Y288585D01*
X169339Y288515D01*
X169344Y288444D01*
X169365Y288396D01*
X169376Y288345D01*
X169412Y288283D01*
X169440Y288217D01*
X169485Y288161D01*
X169502Y288134D01*
X169520Y288119D01*
X169545Y288086D01*
X173705Y283927D01*
X173779Y283874D01*
X173848Y283815D01*
X173878Y283802D01*
X173904Y283784D01*
X173992Y283757D01*
X174076Y283723D01*
X174117Y283718D01*
X174139Y283711D01*
X174172Y283712D01*
X174243Y283704D01*
X175667Y283704D01*
X178025Y281346D01*
X178025Y278012D01*
X175980Y275968D01*
X175968Y275951D01*
X175953Y275939D01*
X175897Y275852D01*
X175837Y275768D01*
X175831Y275749D01*
X175820Y275732D01*
X175795Y275632D01*
X175764Y275533D01*
X175765Y275513D01*
X175760Y275494D01*
X175768Y275391D01*
X175771Y275287D01*
X175777Y275268D01*
X175779Y275248D01*
X175819Y275154D01*
X175855Y275056D01*
X175868Y275040D01*
X175875Y275022D01*
X175980Y274891D01*
X178025Y272846D01*
X178025Y269512D01*
X175667Y267155D01*
X172333Y267155D01*
G37*
%LPD*%
%LPC*%
G36*
X-174123Y388519D02*
X-174123Y388519D01*
X-176481Y390877D01*
X-176481Y394211D01*
X-175474Y395218D01*
X-175426Y395284D01*
X-175382Y395330D01*
X-175376Y395344D01*
X-175361Y395362D01*
X-175349Y395392D01*
X-175330Y395418D01*
X-175307Y395492D01*
X-175279Y395553D01*
X-175277Y395570D01*
X-175269Y395590D01*
X-175265Y395631D01*
X-175258Y395653D01*
X-175259Y395685D01*
X-175251Y395756D01*
X-175251Y440983D01*
X-175265Y441073D01*
X-175273Y441164D01*
X-175285Y441194D01*
X-175290Y441226D01*
X-175333Y441307D01*
X-175369Y441390D01*
X-175395Y441423D01*
X-175406Y441443D01*
X-175429Y441465D01*
X-175474Y441521D01*
X-183935Y449982D01*
X-185795Y451842D01*
X-185795Y566788D01*
X-185809Y566878D01*
X-185817Y566969D01*
X-185829Y566998D01*
X-185834Y567030D01*
X-185877Y567111D01*
X-185913Y567195D01*
X-185939Y567227D01*
X-185950Y567248D01*
X-185973Y567270D01*
X-186018Y567326D01*
X-187025Y568333D01*
X-187025Y571667D01*
X-184667Y574025D01*
X-181333Y574025D01*
X-178975Y571667D01*
X-178975Y568333D01*
X-179982Y567326D01*
X-180035Y567252D01*
X-180095Y567182D01*
X-180107Y567152D01*
X-180126Y567126D01*
X-180153Y567039D01*
X-180187Y566954D01*
X-180191Y566913D01*
X-180198Y566891D01*
X-180197Y566859D01*
X-180205Y566788D01*
X-180205Y454473D01*
X-180191Y454383D01*
X-180183Y454292D01*
X-180171Y454262D01*
X-180166Y454230D01*
X-180123Y454149D01*
X-180087Y454066D01*
X-180061Y454033D01*
X-180050Y454013D01*
X-180027Y453991D01*
X-179982Y453935D01*
X-171521Y445474D01*
X-169661Y443614D01*
X-169661Y395756D01*
X-169658Y395737D01*
X-169660Y395719D01*
X-169645Y395650D01*
X-169639Y395575D01*
X-169627Y395546D01*
X-169622Y395514D01*
X-169612Y395495D01*
X-169608Y395478D01*
X-169574Y395421D01*
X-169543Y395349D01*
X-169517Y395317D01*
X-169506Y395296D01*
X-169489Y395280D01*
X-169482Y395267D01*
X-169469Y395256D01*
X-169438Y395218D01*
X-168431Y394211D01*
X-168431Y390877D01*
X-170789Y388519D01*
X-174123Y388519D01*
G37*
%LPD*%
%LPC*%
G36*
X223333Y60975D02*
X223333Y60975D01*
X222326Y61982D01*
X222252Y62035D01*
X222182Y62095D01*
X222152Y62107D01*
X222126Y62126D01*
X222039Y62153D01*
X221954Y62187D01*
X221913Y62191D01*
X221891Y62198D01*
X221859Y62197D01*
X221788Y62205D01*
X148842Y62205D01*
X128295Y82752D01*
X128221Y82805D01*
X128152Y82865D01*
X128122Y82877D01*
X128096Y82896D01*
X128009Y82923D01*
X127924Y82957D01*
X127883Y82961D01*
X127861Y82968D01*
X127828Y82967D01*
X127757Y82975D01*
X126333Y82975D01*
X123975Y85333D01*
X123975Y88667D01*
X126333Y91025D01*
X129667Y91025D01*
X132025Y88667D01*
X132025Y87243D01*
X132039Y87153D01*
X132047Y87062D01*
X132059Y87032D01*
X132064Y87000D01*
X132107Y86920D01*
X132143Y86836D01*
X132169Y86804D01*
X132180Y86783D01*
X132203Y86761D01*
X132248Y86705D01*
X150935Y68018D01*
X151009Y67965D01*
X151078Y67905D01*
X151108Y67893D01*
X151134Y67874D01*
X151221Y67847D01*
X151306Y67813D01*
X151347Y67809D01*
X151369Y67802D01*
X151402Y67803D01*
X151473Y67795D01*
X182858Y67795D01*
X182954Y67810D01*
X183051Y67820D01*
X183075Y67830D01*
X183101Y67834D01*
X183187Y67880D01*
X183276Y67920D01*
X183295Y67937D01*
X183318Y67950D01*
X183385Y68020D01*
X183457Y68086D01*
X183470Y68109D01*
X183488Y68128D01*
X183529Y68216D01*
X183576Y68302D01*
X183580Y68327D01*
X183591Y68351D01*
X183602Y68448D01*
X183619Y68544D01*
X183616Y68570D01*
X183618Y68595D01*
X183598Y68690D01*
X183584Y68787D01*
X183572Y68810D01*
X183566Y68836D01*
X183516Y68920D01*
X183472Y69006D01*
X183453Y69024D01*
X183440Y69047D01*
X183366Y69110D01*
X183296Y69178D01*
X183268Y69194D01*
X183253Y69207D01*
X183222Y69219D01*
X183149Y69259D01*
X182768Y69417D01*
X180517Y71668D01*
X179299Y74609D01*
X179299Y77791D01*
X180517Y80732D01*
X182768Y82983D01*
X185709Y84201D01*
X188891Y84201D01*
X191832Y82983D01*
X194083Y80732D01*
X195301Y77791D01*
X195301Y74609D01*
X194083Y71668D01*
X191832Y69417D01*
X191451Y69259D01*
X191368Y69208D01*
X191282Y69162D01*
X191264Y69143D01*
X191241Y69130D01*
X191179Y69055D01*
X191112Y68984D01*
X191101Y68960D01*
X191085Y68940D01*
X191050Y68849D01*
X191009Y68761D01*
X191006Y68735D01*
X190996Y68711D01*
X190992Y68613D01*
X190982Y68517D01*
X190987Y68491D01*
X190986Y68465D01*
X191013Y68371D01*
X191034Y68276D01*
X191047Y68254D01*
X191055Y68229D01*
X191110Y68149D01*
X191160Y68065D01*
X191180Y68048D01*
X191195Y68027D01*
X191273Y67968D01*
X191347Y67905D01*
X191371Y67895D01*
X191392Y67880D01*
X191485Y67850D01*
X191575Y67813D01*
X191608Y67810D01*
X191626Y67804D01*
X191659Y67804D01*
X191742Y67795D01*
X208258Y67795D01*
X208354Y67810D01*
X208451Y67820D01*
X208475Y67830D01*
X208501Y67834D01*
X208587Y67880D01*
X208676Y67920D01*
X208695Y67937D01*
X208718Y67950D01*
X208785Y68020D01*
X208857Y68086D01*
X208870Y68109D01*
X208888Y68128D01*
X208929Y68216D01*
X208976Y68302D01*
X208980Y68327D01*
X208991Y68351D01*
X209002Y68448D01*
X209019Y68544D01*
X209016Y68570D01*
X209018Y68595D01*
X208998Y68690D01*
X208984Y68787D01*
X208972Y68810D01*
X208966Y68836D01*
X208916Y68920D01*
X208872Y69006D01*
X208853Y69024D01*
X208840Y69047D01*
X208766Y69110D01*
X208696Y69178D01*
X208668Y69194D01*
X208653Y69207D01*
X208622Y69219D01*
X208549Y69259D01*
X208168Y69417D01*
X205917Y71668D01*
X204699Y74609D01*
X204699Y77791D01*
X205917Y80732D01*
X208168Y82983D01*
X211109Y84201D01*
X214291Y84201D01*
X217232Y82983D01*
X219483Y80732D01*
X220701Y77791D01*
X220701Y74609D01*
X219483Y71668D01*
X217232Y69417D01*
X216851Y69259D01*
X216768Y69208D01*
X216682Y69162D01*
X216664Y69143D01*
X216641Y69130D01*
X216579Y69055D01*
X216512Y68984D01*
X216501Y68960D01*
X216485Y68940D01*
X216450Y68849D01*
X216409Y68761D01*
X216406Y68735D01*
X216396Y68711D01*
X216392Y68613D01*
X216382Y68517D01*
X216387Y68491D01*
X216386Y68465D01*
X216413Y68371D01*
X216434Y68276D01*
X216447Y68254D01*
X216455Y68229D01*
X216510Y68149D01*
X216560Y68065D01*
X216580Y68048D01*
X216595Y68027D01*
X216673Y67968D01*
X216747Y67905D01*
X216771Y67895D01*
X216792Y67880D01*
X216885Y67850D01*
X216975Y67813D01*
X217008Y67810D01*
X217026Y67804D01*
X217059Y67804D01*
X217142Y67795D01*
X221788Y67795D01*
X221878Y67809D01*
X221969Y67817D01*
X221998Y67829D01*
X222030Y67834D01*
X222111Y67877D01*
X222195Y67913D01*
X222227Y67939D01*
X222248Y67950D01*
X222270Y67973D01*
X222326Y68018D01*
X223333Y69025D01*
X226667Y69025D01*
X229025Y66667D01*
X229025Y63333D01*
X226667Y60975D01*
X223333Y60975D01*
G37*
%LPD*%
%LPC*%
G36*
X18333Y560975D02*
X18333Y560975D01*
X15975Y563333D01*
X15975Y564757D01*
X15972Y564776D01*
X15974Y564795D01*
X15959Y564865D01*
X15953Y564938D01*
X15941Y564968D01*
X15936Y565000D01*
X15926Y565018D01*
X15922Y565036D01*
X15887Y565094D01*
X15857Y565164D01*
X15831Y565196D01*
X15820Y565217D01*
X15804Y565233D01*
X15796Y565247D01*
X15781Y565259D01*
X15752Y565295D01*
X-3935Y584982D01*
X-4009Y585035D01*
X-4078Y585095D01*
X-4108Y585107D01*
X-4134Y585126D01*
X-4221Y585153D01*
X-4306Y585187D01*
X-4347Y585191D01*
X-4369Y585198D01*
X-4402Y585197D01*
X-4473Y585205D01*
X-143788Y585205D01*
X-143878Y585191D01*
X-143969Y585183D01*
X-143998Y585171D01*
X-144030Y585166D01*
X-144111Y585123D01*
X-144195Y585087D01*
X-144227Y585061D01*
X-144248Y585050D01*
X-144270Y585027D01*
X-144326Y584982D01*
X-145333Y583975D01*
X-148667Y583975D01*
X-151025Y586333D01*
X-151025Y589667D01*
X-148667Y592025D01*
X-145333Y592025D01*
X-144326Y591018D01*
X-144252Y590965D01*
X-144182Y590905D01*
X-144152Y590893D01*
X-144126Y590874D01*
X-144039Y590847D01*
X-143954Y590813D01*
X-143913Y590809D01*
X-143891Y590802D01*
X-143859Y590803D01*
X-143788Y590795D01*
X-1842Y590795D01*
X19705Y569248D01*
X19779Y569195D01*
X19848Y569135D01*
X19878Y569123D01*
X19904Y569104D01*
X19991Y569077D01*
X20076Y569043D01*
X20117Y569039D01*
X20139Y569032D01*
X20172Y569033D01*
X20243Y569025D01*
X21667Y569025D01*
X24025Y566667D01*
X24025Y563333D01*
X21667Y560975D01*
X18333Y560975D01*
G37*
%LPD*%
%LPC*%
G36*
X-26667Y280975D02*
X-26667Y280975D01*
X-29025Y283333D01*
X-29025Y284757D01*
X-29039Y284847D01*
X-29047Y284938D01*
X-29059Y284968D01*
X-29064Y285000D01*
X-29107Y285081D01*
X-29143Y285164D01*
X-29169Y285197D01*
X-29180Y285217D01*
X-29203Y285239D01*
X-29248Y285295D01*
X-35935Y291982D01*
X-37795Y293842D01*
X-37795Y331158D01*
X-28418Y340535D01*
X-28365Y340609D01*
X-28305Y340678D01*
X-28293Y340708D01*
X-28274Y340734D01*
X-28247Y340821D01*
X-28213Y340906D01*
X-28209Y340947D01*
X-28202Y340969D01*
X-28203Y341002D01*
X-28195Y341073D01*
X-28195Y368051D01*
X-28214Y368166D01*
X-28231Y368282D01*
X-28233Y368287D01*
X-28234Y368294D01*
X-28289Y368396D01*
X-28342Y368501D01*
X-28347Y368505D01*
X-28350Y368511D01*
X-28434Y368591D01*
X-28518Y368673D01*
X-28524Y368677D01*
X-28528Y368680D01*
X-28545Y368688D01*
X-28665Y368754D01*
X-30580Y369547D01*
X-33153Y372120D01*
X-34545Y375481D01*
X-34545Y379119D01*
X-33153Y382480D01*
X-30580Y385053D01*
X-27219Y386445D01*
X-23581Y386445D01*
X-20220Y385053D01*
X-17647Y382480D01*
X-16255Y379119D01*
X-16255Y375481D01*
X-17647Y372120D01*
X-20220Y369547D01*
X-22135Y368754D01*
X-22235Y368692D01*
X-22335Y368633D01*
X-22339Y368628D01*
X-22344Y368625D01*
X-22419Y368534D01*
X-22495Y368446D01*
X-22497Y368440D01*
X-22501Y368435D01*
X-22543Y368327D01*
X-22587Y368218D01*
X-22588Y368210D01*
X-22589Y368205D01*
X-22590Y368187D01*
X-22605Y368051D01*
X-22605Y338442D01*
X-31982Y329065D01*
X-32035Y328991D01*
X-32095Y328922D01*
X-32107Y328892D01*
X-32126Y328866D01*
X-32153Y328779D01*
X-32187Y328694D01*
X-32191Y328653D01*
X-32198Y328631D01*
X-32197Y328598D01*
X-32205Y328527D01*
X-32205Y296473D01*
X-32191Y296383D01*
X-32183Y296292D01*
X-32171Y296262D01*
X-32166Y296230D01*
X-32123Y296149D01*
X-32087Y296066D01*
X-32061Y296033D01*
X-32050Y296013D01*
X-32027Y295991D01*
X-31982Y295935D01*
X-29824Y293777D01*
X-29766Y293735D01*
X-29714Y293685D01*
X-29667Y293663D01*
X-29625Y293633D01*
X-29556Y293612D01*
X-29491Y293582D01*
X-29439Y293576D01*
X-29389Y293561D01*
X-29318Y293563D01*
X-29247Y293555D01*
X-29196Y293566D01*
X-29144Y293567D01*
X-29076Y293592D01*
X-29006Y293607D01*
X-28962Y293634D01*
X-28913Y293652D01*
X-28857Y293696D01*
X-28795Y293733D01*
X-28761Y293773D01*
X-28721Y293805D01*
X-28682Y293866D01*
X-28635Y293920D01*
X-28616Y293968D01*
X-28588Y294012D01*
X-28570Y294082D01*
X-28543Y294148D01*
X-28535Y294220D01*
X-28527Y294251D01*
X-28529Y294274D01*
X-28525Y294315D01*
X-28525Y294667D01*
X-26167Y297025D01*
X-22833Y297025D01*
X-20475Y294667D01*
X-20475Y291333D01*
X-22520Y289288D01*
X-22532Y289272D01*
X-22547Y289260D01*
X-22603Y289172D01*
X-22663Y289089D01*
X-22669Y289070D01*
X-22680Y289053D01*
X-22705Y288952D01*
X-22736Y288853D01*
X-22735Y288834D01*
X-22740Y288814D01*
X-22732Y288711D01*
X-22729Y288608D01*
X-22723Y288589D01*
X-22721Y288569D01*
X-22681Y288474D01*
X-22645Y288377D01*
X-22632Y288361D01*
X-22625Y288343D01*
X-22520Y288212D01*
X-20975Y286667D01*
X-20975Y283333D01*
X-23333Y280975D01*
X-26667Y280975D01*
G37*
%LPD*%
%LPC*%
G36*
X-127667Y332975D02*
X-127667Y332975D01*
X-130025Y335333D01*
X-130025Y338667D01*
X-127667Y341025D01*
X-126243Y341025D01*
X-126153Y341039D01*
X-126062Y341047D01*
X-126032Y341059D01*
X-126000Y341064D01*
X-125920Y341107D01*
X-125836Y341143D01*
X-125804Y341169D01*
X-125783Y341180D01*
X-125761Y341203D01*
X-125705Y341248D01*
X-61458Y405495D01*
X-60049Y405495D01*
X-59934Y405514D01*
X-59818Y405531D01*
X-59813Y405533D01*
X-59806Y405534D01*
X-59704Y405589D01*
X-59599Y405642D01*
X-59595Y405647D01*
X-59589Y405650D01*
X-59509Y405734D01*
X-59427Y405818D01*
X-59423Y405824D01*
X-59420Y405828D01*
X-59412Y405845D01*
X-59346Y405965D01*
X-58553Y407880D01*
X-55980Y410453D01*
X-52619Y411845D01*
X-48981Y411845D01*
X-45620Y410453D01*
X-43047Y407880D01*
X-41655Y404519D01*
X-41655Y400881D01*
X-43047Y397520D01*
X-45620Y394947D01*
X-48981Y393555D01*
X-52619Y393555D01*
X-55980Y394947D01*
X-58553Y397520D01*
X-58988Y398571D01*
X-59012Y398610D01*
X-59028Y398653D01*
X-59077Y398714D01*
X-59118Y398780D01*
X-59153Y398809D01*
X-59182Y398845D01*
X-59247Y398887D01*
X-59307Y398937D01*
X-59350Y398953D01*
X-59389Y398978D01*
X-59464Y398997D01*
X-59537Y399025D01*
X-59583Y399027D01*
X-59627Y399038D01*
X-59705Y399032D01*
X-59782Y399036D01*
X-59827Y399023D01*
X-59872Y399019D01*
X-59944Y398989D01*
X-60019Y398967D01*
X-60056Y398941D01*
X-60099Y398923D01*
X-60205Y398838D01*
X-60221Y398827D01*
X-60224Y398823D01*
X-60230Y398818D01*
X-121752Y337295D01*
X-121805Y337221D01*
X-121865Y337152D01*
X-121877Y337122D01*
X-121896Y337096D01*
X-121923Y337009D01*
X-121957Y336924D01*
X-121961Y336883D01*
X-121968Y336861D01*
X-121967Y336828D01*
X-121975Y336757D01*
X-121975Y335333D01*
X-124333Y332975D01*
X-127667Y332975D01*
G37*
%LPD*%
%LPC*%
G36*
X-56667Y290519D02*
X-56667Y290519D01*
X-59025Y292877D01*
X-59025Y296211D01*
X-58018Y297218D01*
X-57965Y297292D01*
X-57905Y297362D01*
X-57893Y297392D01*
X-57874Y297418D01*
X-57847Y297505D01*
X-57813Y297590D01*
X-57809Y297631D01*
X-57802Y297653D01*
X-57803Y297685D01*
X-57795Y297756D01*
X-57795Y371047D01*
X-57809Y371137D01*
X-57817Y371228D01*
X-57829Y371258D01*
X-57834Y371290D01*
X-57877Y371370D01*
X-57913Y371454D01*
X-57939Y371486D01*
X-57950Y371507D01*
X-57973Y371529D01*
X-58018Y371585D01*
X-58553Y372120D01*
X-59945Y375481D01*
X-59945Y379119D01*
X-58553Y382480D01*
X-55980Y385053D01*
X-52619Y386445D01*
X-48981Y386445D01*
X-45620Y385053D01*
X-43047Y382480D01*
X-41655Y379119D01*
X-41655Y375481D01*
X-43047Y372120D01*
X-45620Y369547D01*
X-48981Y368155D01*
X-51444Y368155D01*
X-51464Y368152D01*
X-51483Y368154D01*
X-51585Y368132D01*
X-51687Y368116D01*
X-51704Y368106D01*
X-51724Y368102D01*
X-51813Y368049D01*
X-51904Y368000D01*
X-51918Y367986D01*
X-51935Y367976D01*
X-52002Y367897D01*
X-52074Y367822D01*
X-52082Y367804D01*
X-52095Y367789D01*
X-52134Y367693D01*
X-52177Y367599D01*
X-52179Y367579D01*
X-52187Y367561D01*
X-52205Y367394D01*
X-52205Y297756D01*
X-52191Y297666D01*
X-52183Y297575D01*
X-52171Y297546D01*
X-52166Y297514D01*
X-52123Y297433D01*
X-52087Y297349D01*
X-52061Y297317D01*
X-52050Y297296D01*
X-52027Y297274D01*
X-51982Y297218D01*
X-50975Y296211D01*
X-50975Y292877D01*
X-53333Y290519D01*
X-56667Y290519D01*
G37*
%LPD*%
%LPC*%
G36*
X-179667Y345975D02*
X-179667Y345975D01*
X-182025Y348333D01*
X-182025Y349757D01*
X-182039Y349847D01*
X-182047Y349938D01*
X-182059Y349968D01*
X-182064Y350000D01*
X-182107Y350080D01*
X-182143Y350164D01*
X-182169Y350196D01*
X-182180Y350217D01*
X-182203Y350239D01*
X-182248Y350295D01*
X-202795Y370842D01*
X-202795Y411788D01*
X-202809Y411878D01*
X-202817Y411969D01*
X-202829Y411998D01*
X-202834Y412030D01*
X-202877Y412111D01*
X-202913Y412195D01*
X-202939Y412227D01*
X-202950Y412248D01*
X-202973Y412270D01*
X-203018Y412326D01*
X-204025Y413333D01*
X-204025Y416667D01*
X-201667Y419025D01*
X-198333Y419025D01*
X-195975Y416667D01*
X-195975Y413333D01*
X-196982Y412326D01*
X-197035Y412252D01*
X-197095Y412182D01*
X-197107Y412152D01*
X-197126Y412126D01*
X-197153Y412039D01*
X-197187Y411954D01*
X-197191Y411913D01*
X-197198Y411891D01*
X-197197Y411859D01*
X-197205Y411788D01*
X-197205Y373473D01*
X-197191Y373383D01*
X-197183Y373292D01*
X-197171Y373262D01*
X-197166Y373230D01*
X-197123Y373150D01*
X-197087Y373066D01*
X-197061Y373034D01*
X-197050Y373013D01*
X-197027Y372991D01*
X-196982Y372935D01*
X-178295Y354248D01*
X-178221Y354195D01*
X-178152Y354135D01*
X-178122Y354123D01*
X-178096Y354104D01*
X-178009Y354077D01*
X-177924Y354043D01*
X-177883Y354039D01*
X-177861Y354032D01*
X-177828Y354033D01*
X-177757Y354025D01*
X-176333Y354025D01*
X-173975Y351667D01*
X-173975Y348333D01*
X-176333Y345975D01*
X-179667Y345975D01*
G37*
%LPD*%
%LPC*%
G36*
X206271Y606784D02*
X206271Y606784D01*
X204170Y607654D01*
X202562Y609262D01*
X201692Y611363D01*
X201692Y613637D01*
X202562Y615738D01*
X204170Y617346D01*
X206271Y618216D01*
X208545Y618216D01*
X210646Y617346D01*
X212254Y615738D01*
X213055Y613804D01*
X213093Y613743D01*
X213122Y613677D01*
X213157Y613639D01*
X213184Y613595D01*
X213240Y613549D01*
X213288Y613496D01*
X213334Y613471D01*
X213374Y613438D01*
X213441Y613412D01*
X213504Y613377D01*
X213555Y613368D01*
X213603Y613350D01*
X213675Y613346D01*
X213746Y613334D01*
X213797Y613341D01*
X213849Y613339D01*
X213918Y613359D01*
X213989Y613370D01*
X214035Y613393D01*
X214085Y613408D01*
X214144Y613448D01*
X214208Y613481D01*
X214245Y613518D01*
X214287Y613548D01*
X214330Y613605D01*
X214380Y613657D01*
X214415Y613719D01*
X214434Y613745D01*
X214441Y613768D01*
X214461Y613804D01*
X215262Y615738D01*
X216870Y617346D01*
X218971Y618216D01*
X221245Y618216D01*
X223346Y617346D01*
X224954Y615738D01*
X225628Y614110D01*
X225666Y614049D01*
X225695Y613984D01*
X225730Y613945D01*
X225757Y613901D01*
X225813Y613855D01*
X225861Y613803D01*
X225907Y613777D01*
X225947Y613744D01*
X226014Y613719D01*
X226077Y613684D01*
X226128Y613675D01*
X226176Y613656D01*
X226248Y613653D01*
X226319Y613640D01*
X226370Y613648D01*
X226422Y613646D01*
X226491Y613666D01*
X226562Y613676D01*
X226608Y613700D01*
X226658Y613714D01*
X226717Y613755D01*
X226781Y613788D01*
X226818Y613825D01*
X226860Y613854D01*
X226903Y613912D01*
X226953Y613963D01*
X226988Y614026D01*
X227007Y614052D01*
X227014Y614074D01*
X227034Y614110D01*
X227708Y615738D01*
X229316Y617346D01*
X231417Y618216D01*
X233691Y618216D01*
X235792Y617346D01*
X237400Y615738D01*
X238074Y614110D01*
X238112Y614049D01*
X238141Y613984D01*
X238176Y613945D01*
X238203Y613901D01*
X238259Y613855D01*
X238307Y613803D01*
X238353Y613777D01*
X238393Y613744D01*
X238460Y613719D01*
X238523Y613684D01*
X238574Y613675D01*
X238622Y613656D01*
X238694Y613653D01*
X238765Y613640D01*
X238816Y613648D01*
X238868Y613646D01*
X238937Y613666D01*
X239008Y613676D01*
X239054Y613700D01*
X239104Y613714D01*
X239163Y613755D01*
X239227Y613788D01*
X239264Y613825D01*
X239306Y613854D01*
X239349Y613912D01*
X239399Y613963D01*
X239434Y614026D01*
X239453Y614052D01*
X239460Y614074D01*
X239480Y614110D01*
X240154Y615738D01*
X241762Y617346D01*
X243863Y618216D01*
X246137Y618216D01*
X248238Y617346D01*
X249846Y615738D01*
X250716Y613637D01*
X250716Y611363D01*
X249846Y609262D01*
X248238Y607654D01*
X246137Y606784D01*
X243863Y606784D01*
X241762Y607654D01*
X240154Y609262D01*
X239480Y610890D01*
X239442Y610951D01*
X239413Y611016D01*
X239378Y611055D01*
X239351Y611099D01*
X239295Y611145D01*
X239247Y611197D01*
X239201Y611222D01*
X239161Y611256D01*
X239094Y611281D01*
X239031Y611316D01*
X238980Y611325D01*
X238932Y611344D01*
X238860Y611347D01*
X238789Y611360D01*
X238738Y611352D01*
X238686Y611354D01*
X238617Y611334D01*
X238546Y611324D01*
X238500Y611300D01*
X238450Y611286D01*
X238391Y611245D01*
X238327Y611212D01*
X238290Y611175D01*
X238248Y611146D01*
X238205Y611088D01*
X238155Y611037D01*
X238120Y610974D01*
X238101Y610948D01*
X238094Y610926D01*
X238074Y610890D01*
X237400Y609262D01*
X235792Y607654D01*
X233691Y606784D01*
X231417Y606784D01*
X229316Y607654D01*
X227708Y609262D01*
X227034Y610890D01*
X226996Y610951D01*
X226967Y611016D01*
X226932Y611055D01*
X226905Y611099D01*
X226849Y611145D01*
X226801Y611197D01*
X226755Y611222D01*
X226715Y611256D01*
X226648Y611281D01*
X226585Y611316D01*
X226534Y611325D01*
X226486Y611344D01*
X226414Y611347D01*
X226343Y611360D01*
X226292Y611352D01*
X226240Y611354D01*
X226171Y611334D01*
X226100Y611324D01*
X226054Y611300D01*
X226004Y611286D01*
X225945Y611245D01*
X225881Y611212D01*
X225844Y611175D01*
X225802Y611146D01*
X225759Y611088D01*
X225709Y611037D01*
X225674Y610974D01*
X225655Y610948D01*
X225648Y610926D01*
X225628Y610890D01*
X224954Y609262D01*
X223346Y607654D01*
X221245Y606784D01*
X218971Y606784D01*
X216870Y607654D01*
X215262Y609262D01*
X214461Y611196D01*
X214423Y611257D01*
X214394Y611323D01*
X214359Y611361D01*
X214332Y611405D01*
X214276Y611451D01*
X214228Y611504D01*
X214182Y611529D01*
X214142Y611562D01*
X214075Y611588D01*
X214012Y611623D01*
X213961Y611632D01*
X213913Y611650D01*
X213841Y611654D01*
X213770Y611666D01*
X213719Y611659D01*
X213667Y611661D01*
X213598Y611641D01*
X213527Y611630D01*
X213481Y611607D01*
X213431Y611592D01*
X213372Y611552D01*
X213308Y611519D01*
X213271Y611482D01*
X213229Y611452D01*
X213186Y611395D01*
X213136Y611343D01*
X213101Y611281D01*
X213082Y611255D01*
X213075Y611232D01*
X213055Y611196D01*
X212254Y609262D01*
X210646Y607654D01*
X208545Y606784D01*
X206271Y606784D01*
G37*
%LPD*%
%LPC*%
G36*
X-181667Y315975D02*
X-181667Y315975D01*
X-184025Y318333D01*
X-184025Y321667D01*
X-181667Y324025D01*
X-180243Y324025D01*
X-180153Y324039D01*
X-180062Y324047D01*
X-180032Y324059D01*
X-180000Y324064D01*
X-179920Y324107D01*
X-179836Y324143D01*
X-179804Y324169D01*
X-179783Y324180D01*
X-179761Y324203D01*
X-179705Y324248D01*
X-156158Y347795D01*
X-153212Y347795D01*
X-153122Y347809D01*
X-153031Y347817D01*
X-153002Y347829D01*
X-152970Y347834D01*
X-152889Y347877D01*
X-152805Y347913D01*
X-152773Y347939D01*
X-152752Y347950D01*
X-152748Y347954D01*
X-152747Y347954D01*
X-152729Y347974D01*
X-152674Y348018D01*
X-151667Y349025D01*
X-148333Y349025D01*
X-145975Y346667D01*
X-145975Y343333D01*
X-148333Y340975D01*
X-151667Y340975D01*
X-152674Y341982D01*
X-152748Y342035D01*
X-152818Y342095D01*
X-152848Y342107D01*
X-152874Y342126D01*
X-152961Y342153D01*
X-153046Y342187D01*
X-153087Y342191D01*
X-153109Y342198D01*
X-153141Y342197D01*
X-153212Y342205D01*
X-153527Y342205D01*
X-153617Y342191D01*
X-153708Y342183D01*
X-153738Y342171D01*
X-153770Y342166D01*
X-153850Y342123D01*
X-153934Y342087D01*
X-153966Y342061D01*
X-153987Y342050D01*
X-154009Y342027D01*
X-154065Y341982D01*
X-175752Y320295D01*
X-175805Y320221D01*
X-175865Y320152D01*
X-175877Y320122D01*
X-175896Y320096D01*
X-175923Y320009D01*
X-175957Y319924D01*
X-175961Y319883D01*
X-175968Y319861D01*
X-175967Y319828D01*
X-175975Y319757D01*
X-175975Y318333D01*
X-178333Y315975D01*
X-181667Y315975D01*
G37*
%LPD*%
%LPC*%
G36*
X48981Y393555D02*
X48981Y393555D01*
X45620Y394947D01*
X43047Y397520D01*
X41655Y400881D01*
X41655Y404519D01*
X43047Y407880D01*
X45620Y410453D01*
X48981Y411845D01*
X52619Y411845D01*
X55980Y410453D01*
X58553Y407880D01*
X59945Y404519D01*
X59945Y400881D01*
X58553Y397520D01*
X55980Y394947D01*
X52619Y393555D01*
X48981Y393555D01*
G37*
%LPD*%
%LPC*%
G36*
X-39919Y-56445D02*
X-39919Y-56445D01*
X-43280Y-55053D01*
X-45853Y-52480D01*
X-47245Y-49119D01*
X-47245Y-45481D01*
X-45853Y-42120D01*
X-43280Y-39547D01*
X-39919Y-38155D01*
X-36281Y-38155D01*
X-32920Y-39547D01*
X-30347Y-42120D01*
X-28955Y-45481D01*
X-28955Y-49119D01*
X-30347Y-52480D01*
X-32920Y-55053D01*
X-36281Y-56445D01*
X-39919Y-56445D01*
G37*
%LPD*%
%LPC*%
G36*
X-14519Y-56445D02*
X-14519Y-56445D01*
X-17880Y-55053D01*
X-20453Y-52480D01*
X-21845Y-49119D01*
X-21845Y-45481D01*
X-20453Y-42120D01*
X-17880Y-39547D01*
X-14519Y-38155D01*
X-10881Y-38155D01*
X-7520Y-39547D01*
X-4947Y-42120D01*
X-3555Y-45481D01*
X-3555Y-49119D01*
X-4947Y-52480D01*
X-7520Y-55053D01*
X-10881Y-56445D01*
X-14519Y-56445D01*
G37*
%LPD*%
%LPC*%
G36*
X127333Y-5525D02*
X127333Y-5525D01*
X124975Y-3167D01*
X124975Y167D01*
X127333Y2525D01*
X130667Y2525D01*
X131674Y1518D01*
X131748Y1465D01*
X131818Y1405D01*
X131848Y1393D01*
X131874Y1374D01*
X131961Y1347D01*
X132046Y1313D01*
X132087Y1309D01*
X132109Y1302D01*
X132141Y1303D01*
X132212Y1295D01*
X152288Y1295D01*
X152378Y1309D01*
X152469Y1317D01*
X152498Y1329D01*
X152530Y1334D01*
X152611Y1377D01*
X152695Y1413D01*
X152727Y1439D01*
X152748Y1450D01*
X152770Y1473D01*
X152826Y1518D01*
X155333Y4025D01*
X158667Y4025D01*
X161025Y1667D01*
X161025Y-1667D01*
X158667Y-4025D01*
X157243Y-4025D01*
X157153Y-4039D01*
X157062Y-4047D01*
X157032Y-4059D01*
X157000Y-4064D01*
X156920Y-4107D01*
X156836Y-4143D01*
X156804Y-4169D01*
X156783Y-4180D01*
X156761Y-4203D01*
X156705Y-4248D01*
X156658Y-4295D01*
X132212Y-4295D01*
X132122Y-4309D01*
X132031Y-4317D01*
X132002Y-4329D01*
X131970Y-4334D01*
X131889Y-4377D01*
X131805Y-4413D01*
X131773Y-4439D01*
X131752Y-4450D01*
X131730Y-4473D01*
X131674Y-4518D01*
X130667Y-5525D01*
X127333Y-5525D01*
G37*
%LPD*%
%LPC*%
G36*
X185709Y93599D02*
X185709Y93599D01*
X182768Y94817D01*
X180517Y97068D01*
X179299Y100009D01*
X179299Y103191D01*
X180517Y106132D01*
X182768Y108383D01*
X185709Y109601D01*
X188891Y109601D01*
X191832Y108383D01*
X194083Y106132D01*
X195301Y103191D01*
X195301Y100009D01*
X194083Y97068D01*
X191832Y94817D01*
X188891Y93599D01*
X185709Y93599D01*
G37*
%LPD*%
%LPC*%
G36*
X211109Y93599D02*
X211109Y93599D01*
X208168Y94817D01*
X205917Y97068D01*
X204699Y100009D01*
X204699Y103191D01*
X205917Y106132D01*
X208168Y108383D01*
X211109Y109601D01*
X214291Y109601D01*
X217232Y108383D01*
X219483Y106132D01*
X220701Y103191D01*
X220701Y100009D01*
X219483Y97068D01*
X217232Y94817D01*
X214291Y93599D01*
X211109Y93599D01*
G37*
%LPD*%
%LPC*%
G36*
X185709Y42799D02*
X185709Y42799D01*
X182768Y44017D01*
X180517Y46268D01*
X179299Y49209D01*
X179299Y52391D01*
X180517Y55332D01*
X182768Y57583D01*
X185709Y58801D01*
X188891Y58801D01*
X191832Y57583D01*
X194083Y55332D01*
X195301Y52391D01*
X195301Y49209D01*
X194083Y46268D01*
X191832Y44017D01*
X188891Y42799D01*
X185709Y42799D01*
G37*
%LPD*%
%LPC*%
G36*
X211109Y42799D02*
X211109Y42799D01*
X208168Y44017D01*
X205917Y46268D01*
X204699Y49209D01*
X204699Y52391D01*
X205917Y55332D01*
X208168Y57583D01*
X211109Y58801D01*
X214291Y58801D01*
X217232Y57583D01*
X219483Y55332D01*
X220701Y52391D01*
X220701Y49209D01*
X219483Y46268D01*
X217232Y44017D01*
X214291Y42799D01*
X211109Y42799D01*
G37*
%LPD*%
%LPC*%
G36*
X211109Y17399D02*
X211109Y17399D01*
X208168Y18617D01*
X205917Y20868D01*
X204699Y23809D01*
X204699Y26991D01*
X205917Y29932D01*
X208168Y32183D01*
X211109Y33401D01*
X214291Y33401D01*
X217232Y32183D01*
X219483Y29932D01*
X220701Y26991D01*
X220701Y23809D01*
X219483Y20868D01*
X217232Y18617D01*
X214291Y17399D01*
X211109Y17399D01*
G37*
%LPD*%
%LPC*%
G36*
X185709Y17399D02*
X185709Y17399D01*
X182768Y18617D01*
X180517Y20868D01*
X179299Y23809D01*
X179299Y26991D01*
X180517Y29932D01*
X182768Y32183D01*
X185709Y33401D01*
X188891Y33401D01*
X191832Y32183D01*
X194083Y29932D01*
X195301Y26991D01*
X195301Y23809D01*
X194083Y20868D01*
X191832Y18617D01*
X188891Y17399D01*
X185709Y17399D01*
G37*
%LPD*%
%LPC*%
G36*
X-188891Y-33401D02*
X-188891Y-33401D01*
X-191832Y-32183D01*
X-194083Y-29932D01*
X-195301Y-26991D01*
X-195301Y-23809D01*
X-194083Y-20868D01*
X-191832Y-18617D01*
X-188891Y-17399D01*
X-185709Y-17399D01*
X-182768Y-18617D01*
X-180517Y-20868D01*
X-179299Y-23809D01*
X-179299Y-26991D01*
X-180517Y-29932D01*
X-182768Y-32183D01*
X-185709Y-33401D01*
X-188891Y-33401D01*
G37*
%LPD*%
%LPC*%
G36*
X185709Y-33401D02*
X185709Y-33401D01*
X182768Y-32183D01*
X180517Y-29932D01*
X179299Y-26991D01*
X179299Y-23809D01*
X180517Y-20868D01*
X182768Y-18617D01*
X185709Y-17399D01*
X188891Y-17399D01*
X191832Y-18617D01*
X194083Y-20868D01*
X195301Y-23809D01*
X195301Y-26991D01*
X194083Y-29932D01*
X191832Y-32183D01*
X188891Y-33401D01*
X185709Y-33401D01*
G37*
%LPD*%
%LPC*%
G36*
X211109Y-33401D02*
X211109Y-33401D01*
X208168Y-32183D01*
X205917Y-29932D01*
X204699Y-26991D01*
X204699Y-23809D01*
X205917Y-20868D01*
X208168Y-18617D01*
X211109Y-17399D01*
X214291Y-17399D01*
X217232Y-18617D01*
X219483Y-20868D01*
X220701Y-23809D01*
X220701Y-26991D01*
X219483Y-29932D01*
X217232Y-32183D01*
X214291Y-33401D01*
X211109Y-33401D01*
G37*
%LPD*%
%LPC*%
G36*
X-188891Y-58801D02*
X-188891Y-58801D01*
X-191832Y-57583D01*
X-194083Y-55332D01*
X-195301Y-52391D01*
X-195301Y-49209D01*
X-194083Y-46268D01*
X-191832Y-44017D01*
X-188891Y-42799D01*
X-185709Y-42799D01*
X-182768Y-44017D01*
X-180517Y-46268D01*
X-179299Y-49209D01*
X-179299Y-52391D01*
X-180517Y-55332D01*
X-182768Y-57583D01*
X-185709Y-58801D01*
X-188891Y-58801D01*
G37*
%LPD*%
%LPC*%
G36*
X-188891Y-109601D02*
X-188891Y-109601D01*
X-191832Y-108383D01*
X-194083Y-106132D01*
X-195301Y-103191D01*
X-195301Y-100009D01*
X-194083Y-97068D01*
X-191832Y-94817D01*
X-188891Y-93599D01*
X-185709Y-93599D01*
X-182768Y-94817D01*
X-180517Y-97068D01*
X-179299Y-100009D01*
X-179299Y-103191D01*
X-180517Y-106132D01*
X-182768Y-108383D01*
X-185709Y-109601D01*
X-188891Y-109601D01*
G37*
%LPD*%
%LPC*%
G36*
X-214291Y-109601D02*
X-214291Y-109601D01*
X-217232Y-108383D01*
X-219483Y-106132D01*
X-220701Y-103191D01*
X-220701Y-100009D01*
X-219483Y-97068D01*
X-217232Y-94817D01*
X-214291Y-93599D01*
X-211109Y-93599D01*
X-208168Y-94817D01*
X-205917Y-97068D01*
X-204699Y-100009D01*
X-204699Y-103191D01*
X-205917Y-106132D01*
X-208168Y-108383D01*
X-211109Y-109601D01*
X-214291Y-109601D01*
G37*
%LPD*%
%LPC*%
G36*
X211109Y-8001D02*
X211109Y-8001D01*
X208168Y-6783D01*
X205917Y-4532D01*
X204699Y-1591D01*
X204699Y1591D01*
X205917Y4532D01*
X208168Y6783D01*
X211109Y8001D01*
X214291Y8001D01*
X217232Y6783D01*
X219483Y4532D01*
X220701Y1591D01*
X220701Y-1591D01*
X219483Y-4532D01*
X217232Y-6783D01*
X214291Y-8001D01*
X211109Y-8001D01*
G37*
%LPD*%
%LPC*%
G36*
X185709Y-8001D02*
X185709Y-8001D01*
X182768Y-6783D01*
X180517Y-4532D01*
X179299Y-1591D01*
X179299Y1591D01*
X180517Y4532D01*
X182768Y6783D01*
X185709Y8001D01*
X188891Y8001D01*
X191832Y6783D01*
X194083Y4532D01*
X195301Y1591D01*
X195301Y-1591D01*
X194083Y-4532D01*
X191832Y-6783D01*
X188891Y-8001D01*
X185709Y-8001D01*
G37*
%LPD*%
%LPC*%
G36*
X63333Y275975D02*
X63333Y275975D01*
X60975Y278333D01*
X60975Y281667D01*
X63333Y284025D01*
X66667Y284025D01*
X66971Y283721D01*
X66987Y283709D01*
X67000Y283694D01*
X67087Y283638D01*
X67171Y283577D01*
X67190Y283571D01*
X67207Y283561D01*
X67307Y283535D01*
X67406Y283505D01*
X67426Y283505D01*
X67445Y283500D01*
X67548Y283508D01*
X67652Y283511D01*
X67671Y283518D01*
X67690Y283520D01*
X67785Y283560D01*
X67883Y283596D01*
X67898Y283608D01*
X67917Y283616D01*
X68048Y283721D01*
X75552Y291225D01*
X75605Y291299D01*
X75664Y291368D01*
X75676Y291398D01*
X75695Y291424D01*
X75722Y291511D01*
X75756Y291596D01*
X75761Y291637D01*
X75768Y291659D01*
X75767Y291692D01*
X75775Y291763D01*
X75775Y293187D01*
X78132Y295545D01*
X81466Y295545D01*
X83824Y293187D01*
X83824Y289853D01*
X81466Y287495D01*
X80042Y287495D01*
X79952Y287481D01*
X79861Y287473D01*
X79831Y287461D01*
X79799Y287456D01*
X79719Y287413D01*
X79635Y287377D01*
X79603Y287351D01*
X79582Y287340D01*
X79560Y287317D01*
X79504Y287272D01*
X69437Y277205D01*
X68212Y277205D01*
X68122Y277191D01*
X68031Y277183D01*
X68002Y277171D01*
X67970Y277166D01*
X67889Y277123D01*
X67805Y277087D01*
X67773Y277061D01*
X67752Y277050D01*
X67730Y277027D01*
X67674Y276982D01*
X66667Y275975D01*
X63333Y275975D01*
G37*
%LPD*%
%LPC*%
G36*
X-94667Y223475D02*
X-94667Y223475D01*
X-97025Y225833D01*
X-97025Y229167D01*
X-94667Y231525D01*
X-91333Y231525D01*
X-88975Y229167D01*
X-88975Y225833D01*
X-91333Y223475D01*
X-94667Y223475D01*
G37*
%LPD*%
%LPC*%
G36*
X18333Y215975D02*
X18333Y215975D01*
X15975Y218333D01*
X15975Y221667D01*
X18333Y224025D01*
X21667Y224025D01*
X24025Y221667D01*
X24025Y218333D01*
X21667Y215975D01*
X18333Y215975D01*
G37*
%LPD*%
%LPC*%
G36*
X-244897Y46975D02*
X-244897Y46975D01*
X-247255Y49333D01*
X-247255Y52667D01*
X-244897Y55025D01*
X-241563Y55025D01*
X-239205Y52667D01*
X-239205Y49333D01*
X-241563Y46975D01*
X-244897Y46975D01*
G37*
%LPD*%
%LPC*%
G36*
X-109667Y26975D02*
X-109667Y26975D01*
X-112025Y29333D01*
X-112025Y32667D01*
X-109667Y35025D01*
X-106333Y35025D01*
X-103975Y32667D01*
X-103975Y29333D01*
X-106333Y26975D01*
X-109667Y26975D01*
G37*
%LPD*%
%LPC*%
G36*
X-188667Y201975D02*
X-188667Y201975D01*
X-191025Y204333D01*
X-191025Y207667D01*
X-188667Y210025D01*
X-185333Y210025D01*
X-182975Y207667D01*
X-182975Y204333D01*
X-185333Y201975D01*
X-188667Y201975D01*
G37*
%LPD*%
%LPC*%
G36*
X-61667Y165975D02*
X-61667Y165975D01*
X-64025Y168333D01*
X-64025Y171667D01*
X-61667Y174025D01*
X-58333Y174025D01*
X-55975Y171667D01*
X-55975Y168333D01*
X-58333Y165975D01*
X-61667Y165975D01*
G37*
%LPD*%
%LPC*%
G36*
X92333Y165475D02*
X92333Y165475D01*
X89975Y167833D01*
X89975Y171167D01*
X92333Y173525D01*
X95667Y173525D01*
X98025Y171167D01*
X98025Y167833D01*
X95667Y165475D01*
X92333Y165475D01*
G37*
%LPD*%
%LPC*%
G36*
X-76667Y13975D02*
X-76667Y13975D01*
X-79025Y16333D01*
X-79025Y19667D01*
X-76667Y22025D01*
X-73333Y22025D01*
X-70975Y19667D01*
X-70975Y16333D01*
X-73333Y13975D01*
X-76667Y13975D01*
G37*
%LPD*%
%LPC*%
G36*
X-138667Y163975D02*
X-138667Y163975D01*
X-141025Y166333D01*
X-141025Y169667D01*
X-138667Y172025D01*
X-135333Y172025D01*
X-132975Y169667D01*
X-132975Y166333D01*
X-135333Y163975D01*
X-138667Y163975D01*
G37*
%LPD*%
%LPC*%
G36*
X-241667Y158975D02*
X-241667Y158975D01*
X-244025Y161333D01*
X-244025Y164667D01*
X-241667Y167025D01*
X-238333Y167025D01*
X-235975Y164667D01*
X-235975Y161333D01*
X-238333Y158975D01*
X-241667Y158975D01*
G37*
%LPD*%
%LPC*%
G36*
X-91946Y138475D02*
X-91946Y138475D01*
X-94304Y140833D01*
X-94304Y144167D01*
X-91946Y146525D01*
X-88612Y146525D01*
X-86255Y144167D01*
X-86255Y140833D01*
X-88612Y138475D01*
X-91946Y138475D01*
G37*
%LPD*%
%LPC*%
G36*
X-187667Y135975D02*
X-187667Y135975D01*
X-190025Y138333D01*
X-190025Y141667D01*
X-187667Y144025D01*
X-184333Y144025D01*
X-181975Y141667D01*
X-181975Y138333D01*
X-184333Y135975D01*
X-187667Y135975D01*
G37*
%LPD*%
%LPC*%
G36*
X18333Y130975D02*
X18333Y130975D01*
X15975Y133333D01*
X15975Y136667D01*
X18333Y139025D01*
X21667Y139025D01*
X24025Y136667D01*
X24025Y133333D01*
X21667Y130975D01*
X18333Y130975D01*
G37*
%LPD*%
%LPC*%
G36*
X91333Y508475D02*
X91333Y508475D01*
X88975Y510833D01*
X88975Y514167D01*
X91333Y516525D01*
X94667Y516525D01*
X97025Y514167D01*
X97025Y510833D01*
X94667Y508475D01*
X91333Y508475D01*
G37*
%LPD*%
%LPC*%
G36*
X29833Y14475D02*
X29833Y14475D01*
X27475Y16833D01*
X27475Y20167D01*
X29833Y22525D01*
X33167Y22525D01*
X35525Y20167D01*
X35525Y16833D01*
X33167Y14475D01*
X29833Y14475D01*
G37*
%LPD*%
%LPC*%
G36*
X-77167Y102975D02*
X-77167Y102975D01*
X-79525Y105333D01*
X-79525Y108667D01*
X-77167Y111025D01*
X-73833Y111025D01*
X-71475Y108667D01*
X-71475Y105333D01*
X-73833Y102975D01*
X-77167Y102975D01*
G37*
%LPD*%
%LPC*%
G36*
X-95667Y304975D02*
X-95667Y304975D01*
X-98025Y307333D01*
X-98025Y310667D01*
X-95667Y313025D01*
X-92333Y313025D01*
X-89975Y310667D01*
X-89975Y307333D01*
X-92333Y304975D01*
X-95667Y304975D01*
G37*
%LPD*%
%LPC*%
G36*
X163333Y235975D02*
X163333Y235975D01*
X160975Y238333D01*
X160975Y241667D01*
X163333Y244025D01*
X166667Y244025D01*
X169025Y241667D01*
X169025Y238333D01*
X166667Y235975D01*
X163333Y235975D01*
G37*
%LPD*%
%LPC*%
G36*
X131853Y-80025D02*
X131853Y-80025D01*
X129495Y-77667D01*
X129495Y-74333D01*
X131853Y-71975D01*
X135187Y-71975D01*
X137545Y-74333D01*
X137545Y-77667D01*
X135187Y-80025D01*
X131853Y-80025D01*
G37*
%LPD*%
%LPC*%
G36*
X175333Y229975D02*
X175333Y229975D01*
X172975Y232333D01*
X172975Y235667D01*
X175333Y238025D01*
X178667Y238025D01*
X181025Y235667D01*
X181025Y232333D01*
X178667Y229975D01*
X175333Y229975D01*
G37*
%LPD*%
%LPC*%
G36*
X92983Y79975D02*
X92983Y79975D01*
X90625Y82333D01*
X90625Y85667D01*
X92983Y88025D01*
X96317Y88025D01*
X98675Y85667D01*
X98675Y82333D01*
X96317Y79975D01*
X92983Y79975D01*
G37*
%LPD*%
%LPC*%
G36*
X-244897Y71975D02*
X-244897Y71975D01*
X-247255Y74333D01*
X-247255Y77667D01*
X-244897Y80025D01*
X-241563Y80025D01*
X-239205Y77667D01*
X-239205Y74333D01*
X-241563Y71975D01*
X-244897Y71975D01*
G37*
%LPD*%
%LPC*%
G36*
X120833Y-104025D02*
X120833Y-104025D01*
X118475Y-101667D01*
X118475Y-98333D01*
X120833Y-95975D01*
X124167Y-95975D01*
X126525Y-98333D01*
X126525Y-101667D01*
X124167Y-104025D01*
X120833Y-104025D01*
G37*
%LPD*%
%LPC*%
G36*
X833Y643975D02*
X833Y643975D01*
X-1525Y646333D01*
X-1525Y649667D01*
X833Y652025D01*
X4167Y652025D01*
X6525Y649667D01*
X6525Y646333D01*
X4167Y643975D01*
X833Y643975D01*
G37*
%LPD*%
D10*
X50800Y377300D03*
X50800Y402700D03*
X25400Y377300D03*
X25400Y402700D03*
X0Y377300D03*
X0Y402700D03*
X-25400Y377300D03*
X-25400Y402700D03*
X-50800Y377300D03*
X-50800Y402700D03*
X88900Y-72700D03*
X88900Y-47300D03*
X63500Y-72700D03*
X63500Y-47300D03*
X38100Y-72700D03*
X38100Y-47300D03*
X12700Y-72700D03*
X12700Y-47300D03*
X-12700Y-72700D03*
X-12700Y-47300D03*
X-38100Y-72700D03*
X-38100Y-47300D03*
X-63500Y-72700D03*
X-63500Y-47300D03*
X-88900Y-72700D03*
X-88900Y-47300D03*
D11*
X245000Y612500D03*
X232554Y612500D03*
X220108Y612500D03*
X207408Y612500D03*
D12*
X222000Y256000D03*
X94000Y216000D03*
X94000Y161000D03*
X-84000Y107000D03*
X-93000Y217500D03*
X-16000Y293000D03*
X34000Y293000D03*
X94000Y281000D03*
X232000Y89000D03*
X195000Y155000D03*
X-26000Y328000D03*
X-93000Y135000D03*
X194000Y271000D03*
X260000Y336000D03*
X-245000Y113000D03*
X-46500Y-128500D03*
X112000Y103000D03*
X14000Y-136000D03*
X216000Y568000D03*
X148000Y527500D03*
X113000Y512500D03*
X43000Y512500D03*
X13000Y542500D03*
X108000Y347000D03*
X-159000Y123000D03*
X94000Y134000D03*
X-94000Y319000D03*
X-187000Y184000D03*
X184000Y121000D03*
X141270Y85000D03*
X-160000Y14500D03*
X135000Y4000D03*
X-230000Y285000D03*
X-208500Y238000D03*
X216100Y-114000D03*
X185000Y-115000D03*
X-26810Y50190D03*
X174000Y591500D03*
X172500Y545500D03*
X23000Y636000D03*
X13000Y502500D03*
X-260000Y390000D03*
X-150000Y405000D03*
X-250000Y545000D03*
X-150000Y545000D03*
X-250000Y635000D03*
X23338Y55000D03*
X105000Y4000D03*
X75000Y4000D03*
X48500Y20000D03*
X-75000Y-18000D03*
X48500Y0D03*
X102820Y37520D03*
X132000Y46000D03*
X61662Y44000D03*
X-233000Y-89000D03*
X-190000Y340000D03*
X-260000Y350000D03*
X-235000Y350000D03*
X-140000Y480000D03*
X-260000Y480000D03*
X-50000Y450000D03*
X40000Y450000D03*
X100000Y450000D03*
X100000Y390000D03*
X155000Y425000D03*
X210000Y380000D03*
X250000Y450000D03*
X40000Y180000D03*
X-60000Y200000D03*
X10000Y260000D03*
X-30000Y150000D03*
X230000Y140000D03*
X150000Y-150000D03*
X250000Y-150000D03*
X-170000Y-150000D03*
X-250000Y-140000D03*
X-250000Y-60000D03*
X-120000Y-25000D03*
X-130000Y-75000D03*
X-260000Y235000D03*
X-93000Y227500D03*
X-90279Y142500D03*
X-137000Y168000D03*
X254000Y238000D03*
X94020Y289500D03*
X-40000Y-110000D03*
X-75500Y107000D03*
X94650Y84000D03*
X94000Y169500D03*
X25500Y293000D03*
X-24500Y293000D03*
X-94000Y309000D03*
X-94000Y260000D03*
X93000Y512500D03*
X-186000Y140000D03*
X-240000Y163000D03*
X-187000Y206000D03*
X2500Y648000D03*
X-500Y41500D03*
X-108000Y31000D03*
X42000Y50000D03*
X31500Y18500D03*
X12000Y30000D03*
X-75000Y18000D03*
X-75000Y-100000D03*
X-55000Y-95000D03*
X20000Y220000D03*
X20000Y135000D03*
X-60000Y170000D03*
X122500Y-100000D03*
X-136000Y142000D03*
X-162000Y-91000D03*
D13*
X-136000Y-65000D02*
X-136000Y142000D01*
X-136000Y-65000D02*
X-162000Y-91000D01*
D12*
X95000Y272500D03*
X-172000Y301000D03*
X3112Y355112D03*
D13*
X-171000Y301000D02*
X-172000Y301000D01*
X-171000Y301000D02*
X-166128Y296128D01*
X-1000Y351000D02*
X3112Y355112D01*
X-1000Y285000D02*
X-16000Y270000D01*
X-50747Y270000D01*
X-1000Y285000D02*
X-1000Y351000D01*
X-76875Y296128D02*
X-166128Y296128D01*
X-76875Y296128D02*
X-50747Y270000D01*
X50800Y377300D02*
X87187Y377300D01*
X100456Y364031D02*
X100456Y277956D01*
X95000Y272500D01*
X100456Y364031D02*
X87187Y377300D01*
D12*
X84250Y324000D03*
X-172000Y311000D03*
X-5171Y361850D03*
D13*
X-161192Y300192D02*
X-172000Y311000D01*
X-161192Y300192D02*
X-75192Y300192D01*
X-50000Y275000D02*
X-17000Y275000D01*
X-6000Y286000D01*
X-6000Y361021D02*
X-5171Y361850D01*
X-6000Y361021D02*
X-6000Y286000D01*
X-50000Y275000D02*
X-75192Y300192D01*
X56000Y324000D02*
X84250Y324000D01*
X50400Y352300D02*
X25400Y377300D01*
X50400Y352300D02*
X50400Y329600D01*
X56000Y324000D01*
D12*
X79799Y291520D03*
D13*
X-25400Y339600D02*
X-25400Y377300D01*
X-25400Y339600D02*
X-35000Y330000D01*
X-35000Y295000D01*
X-25000Y285000D01*
D14*
X-25000Y285000D03*
X65000Y280000D03*
D13*
X68279Y280000D01*
X79799Y291520D01*
D12*
X231702Y251000D03*
X-35000Y120000D03*
D13*
X225000Y244298D02*
X231702Y251000D01*
X225000Y244298D02*
X225000Y225000D01*
X150000Y150000D01*
X-5000Y150000D02*
X-35000Y120000D01*
X-5000Y150000D02*
X150000Y150000D01*
D12*
X125450Y277229D03*
X174000Y271179D03*
D13*
X167951Y277229D01*
X125450Y277229D01*
D12*
X131950Y286170D03*
X174000Y279679D03*
D13*
X167509Y286170D02*
X131950Y286170D01*
X167509Y286170D02*
X174000Y279679D01*
D12*
X80000Y362000D03*
X80000Y335000D03*
D13*
X80000Y362000D01*
D12*
X71500Y335721D03*
X82000Y372000D03*
D13*
X71500Y361500D02*
X71500Y335721D01*
X71500Y361500D02*
X82000Y372000D01*
D12*
X-172000Y291000D03*
D13*
X-168747Y291000D01*
X-167683Y292064D01*
X-79064Y292064D01*
X-52936Y265936D01*
X-12906Y265936D01*
X4158Y283000D02*
X4158Y339405D01*
X8656Y343902D02*
X8656Y368644D01*
X0Y377300D01*
X4158Y283000D02*
X-12906Y265936D01*
X4158Y339405D02*
X8656Y343902D01*
D12*
X231702Y241000D03*
X-44020Y110000D03*
D13*
X-35000Y110000D01*
X231702Y221702D02*
X231702Y241000D01*
X0Y145000D02*
X-35000Y110000D01*
X0Y145000D02*
X155000Y145000D01*
X231702Y221702D01*
D12*
X-131000Y282000D03*
X-169000Y116000D03*
D13*
X-170000Y243000D02*
X-131000Y282000D01*
X-170000Y243000D02*
X-170000Y117000D01*
X-169000Y116000D01*
D12*
X-145000Y175000D03*
D13*
X-145000Y198000D02*
X-83000Y260000D01*
X-145000Y198000D02*
X-145000Y175000D01*
X-83000Y260000D02*
X-64000Y260000D01*
X-55000Y373100D02*
X-50800Y377300D01*
X-55000Y373100D02*
X-55000Y294544D01*
D12*
X-55000Y294544D03*
X-64000Y260000D03*
X-38000Y63000D03*
D13*
X-4500Y63000D01*
D12*
X-20000Y20000D03*
D13*
X-2544Y20000D01*
X6000Y28544D01*
X6000Y52500D02*
X-4500Y63000D01*
X6000Y52500D02*
X6000Y28544D01*
D12*
X65000Y350000D03*
X65000Y330000D03*
D13*
X65000Y350000D01*
D12*
X-172456Y392544D03*
D13*
X-172456Y442456D01*
X-183000Y453000D02*
X-183000Y570000D01*
D12*
X-183000Y570000D03*
D13*
X-183000Y453000D02*
X-172456Y442456D01*
D12*
X-150000Y345000D03*
X-180000Y320000D03*
D13*
X-155000Y345000D01*
X-150000Y345000D01*
D12*
X-178000Y350000D03*
D13*
X-200000Y372000D01*
X-200000Y415000D01*
D12*
X-200000Y415000D03*
D15*
X244000Y216000D02*
X260000Y200000D01*
X260000Y-113000D01*
X244000Y216000D02*
X244000Y387000D01*
X215000Y517500D02*
X214500Y518000D01*
D12*
X214500Y518000D03*
D15*
X215000Y416000D02*
X244000Y387000D01*
X215000Y416000D02*
X215000Y517500D01*
D12*
X260000Y-113000D03*
X177000Y234000D03*
X165000Y240000D03*
X-38000Y532500D03*
X17322Y290000D03*
D13*
X-38000Y483000D02*
X-38000Y532500D01*
X14986Y430014D02*
X14986Y292336D01*
X17322Y290000D01*
X14986Y430014D02*
X-38000Y483000D01*
D12*
X-216321Y138000D03*
X-175000Y-65000D03*
D13*
X-216321Y111089D02*
X-216321Y138000D01*
X-221970Y105440D02*
X-221970Y-58030D01*
X-221970Y105440D02*
X-216321Y111089D01*
X-221970Y-58030D02*
X-215000Y-65000D01*
X-175000Y-65000D01*
D12*
X-224821Y145000D03*
D13*
X-205000Y145000D02*
X-197000Y137000D01*
X-205000Y145000D02*
X-224821Y145000D01*
X-177000Y12000D02*
X-175000Y10000D01*
X-177000Y12000D02*
X-192000Y12000D01*
D12*
X-175000Y10000D03*
D13*
X-197000Y17000D02*
X-197000Y137000D01*
X-197000Y17000D02*
X-192000Y12000D01*
D12*
X133520Y-76000D03*
D13*
X124000Y-86500D02*
X105000Y-105500D01*
X124000Y-86500D02*
X124000Y-25480D01*
D12*
X98000Y-10500D03*
D13*
X109020Y-10500D01*
X124000Y-25480D01*
X-38100Y-72700D02*
X-38100Y-73200D01*
X-5800Y-105500D01*
X105000Y-105500D01*
X-12700Y-90260D02*
X-12700Y-72700D01*
X-12700Y-90260D02*
X-3000Y-99960D01*
X119500Y-82579D02*
X119500Y-27579D01*
D12*
X108520Y-21500D03*
D13*
X113421Y-21500D01*
X119500Y-27579D01*
D12*
X87500Y-99956D03*
D13*
X87496Y-99960D01*
X-3000Y-99960D01*
X87500Y-99956D02*
X102123Y-99956D01*
X119500Y-82579D01*
X113460Y-79199D02*
X97739Y-94920D01*
D12*
X113520Y-30500D03*
D13*
X113460Y-30560D01*
X113460Y-79199D01*
X14500Y-95000D02*
X9500Y-95000D01*
X14500Y-95000D02*
X19500Y-90000D01*
X24500Y-90000D01*
X29500Y-95000D01*
X34500Y-95000D01*
X39500Y-90000D01*
X44500Y-90000D01*
X49500Y-95000D01*
X54500Y-95000D01*
X59500Y-90000D01*
X64500Y-90000D01*
X69500Y-95000D01*
X74500Y-95000D01*
X79500Y-90000D01*
X84500Y-90000D01*
X89420Y-94920D02*
X97739Y-94920D01*
X89420Y-94920D02*
X84500Y-90000D01*
X9500Y-95000D02*
X2000Y-87500D01*
X2000Y-83400D02*
X12700Y-72700D01*
X2000Y-83400D02*
X2000Y-87500D01*
D12*
X30000Y-35000D03*
D13*
X25000Y-59600D02*
X38100Y-72700D01*
X25000Y-40000D02*
X30000Y-35000D01*
X25000Y-40000D02*
X25000Y-59600D01*
X50110Y-59310D02*
X63500Y-72700D01*
X50110Y-59310D02*
X50110Y-28000D01*
D12*
X67500Y-1500D03*
D13*
X67500Y-10610D02*
X50110Y-28000D01*
X67500Y-10610D02*
X67500Y-1500D01*
X76000Y-10000D02*
X76000Y-59800D01*
X88900Y-72700D01*
D12*
X76000Y-10000D03*
X20338Y113000D03*
D13*
X45544Y87794D01*
X45544Y54456D02*
X50000Y50000D01*
D12*
X50000Y50000D03*
D13*
X45544Y54456D02*
X45544Y87794D01*
D12*
X42000Y111000D03*
D13*
X42000Y105000D02*
X54000Y93000D01*
X42000Y105000D02*
X42000Y111000D01*
X54000Y93000D02*
X54000Y58000D01*
D12*
X54000Y58000D03*
X50000Y110000D03*
D13*
X60544Y99456D01*
X60544Y63748D02*
X91146Y33146D01*
D12*
X91146Y33146D03*
D13*
X60544Y63748D02*
X60544Y99456D01*
D12*
X0Y33500D03*
D13*
X-61000Y33500D01*
D12*
X-61000Y33500D03*
X143480Y299701D03*
X166000Y299679D03*
D13*
X165979Y299701D02*
X143480Y299701D01*
X165979Y299701D02*
X166000Y299679D01*
D12*
X137960Y292181D03*
X174000Y292179D03*
D13*
X173999Y292181D01*
X137960Y292181D01*
D12*
X245000Y-54000D03*
X-243230Y51000D03*
D15*
X-88900Y-72700D02*
X-34600Y-127000D01*
X245000Y-54000D02*
X250000Y-59000D01*
X125500Y-127000D02*
X-34600Y-127000D01*
X125500Y-127000D02*
X163500Y-89000D01*
X250000Y-80500D02*
X250000Y-59000D01*
X241500Y-89000D02*
X163500Y-89000D01*
X241500Y-89000D02*
X250000Y-80500D01*
X-50768Y-60032D02*
X-63500Y-47300D01*
D12*
X-243230Y76000D03*
X228500Y-67000D03*
D15*
X-50768Y-60032D02*
X-50768Y-82232D01*
X-14000Y-119000D01*
X121000Y-119000D01*
X176500Y-63500D01*
X225000Y-63500D02*
X228500Y-67000D01*
X225000Y-63500D02*
X176500Y-63500D01*
D16*
X-31500Y-103000D03*
D12*
X-126000Y337000D03*
D13*
X-60300Y402700D02*
X-50800Y402700D01*
X-60300Y402700D02*
X-126000Y337000D01*
D12*
X-172000Y282000D03*
D13*
X-166000Y288000D01*
X-81000Y288000D01*
X-53000Y260000D02*
X-33000Y260000D01*
D12*
X-33000Y260000D03*
D13*
X-53000Y260000D02*
X-81000Y288000D01*
D12*
X-93000Y120000D03*
D13*
X-93000Y54500D01*
D12*
X-45000Y-8500D03*
D13*
X-45000Y6500D01*
X-93000Y54500D01*
D12*
X129000Y-1500D03*
D13*
X155500Y-1500D02*
X157000Y0D01*
X155500Y-1500D02*
X129000Y-1500D01*
D12*
X157000Y0D03*
X128000Y87000D03*
X225000Y65000D03*
D13*
X150000Y65000D01*
X128000Y87000D01*
D12*
X-147000Y588000D03*
D13*
X-3000Y588000D01*
X20000Y565000D01*
D12*
X20000Y565000D03*
M02*
