G04 EAGLE Gerber RS-274X export*
G75*
%MOMM*%
%FSLAX34Y34*%
%LPD*%
%INCopper Layer 15*%
%IPPOS*%
%AMOC8*
5,1,8,0,0,1.08239X$1,22.5*%
G01*
%ADD10C,1.524000*%
%ADD11C,0.838200*%
%ADD12C,0.500000*%
%ADD13C,0.812800*%
%ADD14C,0.609600*%
%ADD15C,0.550000*%

G36*
X267258Y-162996D02*
X267258Y-162996D01*
X267277Y-162998D01*
X267379Y-162976D01*
X267481Y-162960D01*
X267498Y-162950D01*
X267518Y-162946D01*
X267607Y-162893D01*
X267698Y-162844D01*
X267712Y-162830D01*
X267729Y-162820D01*
X267796Y-162741D01*
X267868Y-162666D01*
X267876Y-162648D01*
X267889Y-162633D01*
X267928Y-162537D01*
X267971Y-162443D01*
X267973Y-162423D01*
X267981Y-162405D01*
X267999Y-162238D01*
X267999Y659738D01*
X267996Y659758D01*
X267998Y659777D01*
X267976Y659879D01*
X267960Y659981D01*
X267950Y659998D01*
X267946Y660018D01*
X267893Y660107D01*
X267844Y660198D01*
X267830Y660212D01*
X267820Y660229D01*
X267741Y660296D01*
X267666Y660368D01*
X267648Y660376D01*
X267633Y660389D01*
X267537Y660428D01*
X267443Y660471D01*
X267423Y660473D01*
X267405Y660481D01*
X267238Y660499D01*
X-267238Y660499D01*
X-267258Y660496D01*
X-267277Y660498D01*
X-267379Y660476D01*
X-267481Y660460D01*
X-267498Y660450D01*
X-267518Y660446D01*
X-267607Y660393D01*
X-267698Y660344D01*
X-267712Y660330D01*
X-267729Y660320D01*
X-267796Y660241D01*
X-267868Y660166D01*
X-267876Y660148D01*
X-267889Y660133D01*
X-267928Y660037D01*
X-267971Y659943D01*
X-267973Y659923D01*
X-267981Y659905D01*
X-267999Y659738D01*
X-267999Y-162238D01*
X-267996Y-162258D01*
X-267998Y-162277D01*
X-267976Y-162379D01*
X-267960Y-162481D01*
X-267950Y-162498D01*
X-267946Y-162518D01*
X-267893Y-162607D01*
X-267844Y-162698D01*
X-267830Y-162712D01*
X-267820Y-162729D01*
X-267741Y-162796D01*
X-267666Y-162868D01*
X-267648Y-162876D01*
X-267633Y-162889D01*
X-267537Y-162928D01*
X-267443Y-162971D01*
X-267423Y-162973D01*
X-267405Y-162981D01*
X-267238Y-162999D01*
X267238Y-162999D01*
X267258Y-162996D01*
G37*
%LPC*%
G36*
X-90719Y-81845D02*
X-90719Y-81845D01*
X-94080Y-80453D01*
X-96653Y-77880D01*
X-98045Y-74519D01*
X-98045Y-71774D01*
X-98059Y-71684D01*
X-98067Y-71593D01*
X-98079Y-71563D01*
X-98084Y-71532D01*
X-98127Y-71451D01*
X-98163Y-71367D01*
X-98189Y-71335D01*
X-98200Y-71314D01*
X-98223Y-71292D01*
X-98268Y-71236D01*
X-108059Y-61445D01*
X-109738Y-59766D01*
X-110589Y-57712D01*
X-110589Y-23130D01*
X-110603Y-23040D01*
X-110611Y-22949D01*
X-110623Y-22919D01*
X-110628Y-22888D01*
X-110671Y-22807D01*
X-110707Y-22723D01*
X-110733Y-22691D01*
X-110744Y-22670D01*
X-110767Y-22648D01*
X-110812Y-22592D01*
X-142559Y9155D01*
X-144238Y10834D01*
X-145089Y12888D01*
X-145089Y118612D01*
X-144238Y120666D01*
X-131312Y133592D01*
X-131259Y133666D01*
X-131199Y133735D01*
X-131187Y133766D01*
X-131168Y133792D01*
X-131141Y133879D01*
X-131107Y133964D01*
X-131103Y134004D01*
X-131096Y134027D01*
X-131097Y134059D01*
X-131089Y134130D01*
X-131089Y139382D01*
X-131100Y139452D01*
X-131102Y139524D01*
X-131120Y139573D01*
X-131128Y139624D01*
X-131162Y139688D01*
X-131187Y139755D01*
X-131219Y139796D01*
X-131244Y139842D01*
X-131296Y139891D01*
X-131340Y139947D01*
X-131384Y139975D01*
X-131422Y140011D01*
X-131487Y140041D01*
X-131547Y140080D01*
X-131598Y140093D01*
X-131645Y140115D01*
X-131716Y140123D01*
X-131786Y140140D01*
X-131838Y140136D01*
X-131889Y140142D01*
X-131960Y140127D01*
X-132031Y140121D01*
X-132079Y140101D01*
X-132130Y140090D01*
X-132191Y140053D01*
X-132257Y140025D01*
X-132313Y139980D01*
X-132341Y139963D01*
X-132356Y139946D01*
X-132388Y139920D01*
X-134333Y137975D01*
X-137667Y137975D01*
X-140025Y140333D01*
X-140025Y143667D01*
X-137667Y146025D01*
X-134333Y146025D01*
X-132388Y144080D01*
X-132330Y144038D01*
X-132278Y143989D01*
X-132231Y143967D01*
X-132189Y143937D01*
X-132120Y143915D01*
X-132055Y143885D01*
X-132003Y143880D01*
X-131953Y143864D01*
X-131882Y143866D01*
X-131811Y143858D01*
X-131760Y143869D01*
X-131708Y143871D01*
X-131640Y143895D01*
X-131570Y143910D01*
X-131525Y143937D01*
X-131477Y143955D01*
X-131421Y144000D01*
X-131359Y144037D01*
X-131325Y144076D01*
X-131285Y144109D01*
X-131246Y144169D01*
X-131199Y144223D01*
X-131180Y144272D01*
X-131152Y144316D01*
X-131134Y144385D01*
X-131107Y144452D01*
X-131099Y144523D01*
X-131091Y144554D01*
X-131093Y144577D01*
X-131089Y144618D01*
X-131089Y270612D01*
X-130238Y272666D01*
X-110812Y292092D01*
X-110759Y292166D01*
X-110699Y292235D01*
X-110687Y292266D01*
X-110668Y292292D01*
X-110641Y292379D01*
X-110607Y292464D01*
X-110603Y292504D01*
X-110596Y292527D01*
X-110597Y292559D01*
X-110589Y292630D01*
X-110589Y401112D01*
X-109738Y403166D01*
X-108059Y404845D01*
X-89845Y423059D01*
X-88166Y424738D01*
X-86112Y425589D01*
X34612Y425589D01*
X36666Y424738D01*
X49336Y412068D01*
X49410Y412015D01*
X49479Y411955D01*
X49510Y411943D01*
X49536Y411924D01*
X49623Y411897D01*
X49708Y411863D01*
X49748Y411859D01*
X49771Y411852D01*
X49803Y411853D01*
X49874Y411845D01*
X52619Y411845D01*
X55980Y410453D01*
X58553Y407880D01*
X59945Y404519D01*
X59945Y400881D01*
X58553Y397520D01*
X55980Y394947D01*
X52619Y393555D01*
X48981Y393555D01*
X45620Y394947D01*
X43047Y397520D01*
X41655Y400881D01*
X41655Y403626D01*
X41641Y403716D01*
X41633Y403807D01*
X41621Y403837D01*
X41616Y403869D01*
X41573Y403949D01*
X41537Y404033D01*
X41511Y404065D01*
X41500Y404086D01*
X41477Y404108D01*
X41432Y404164D01*
X31408Y414188D01*
X31334Y414241D01*
X31265Y414301D01*
X31234Y414313D01*
X31208Y414332D01*
X31121Y414359D01*
X31036Y414393D01*
X30996Y414397D01*
X30973Y414404D01*
X30941Y414403D01*
X30870Y414411D01*
X-82370Y414411D01*
X-82460Y414397D01*
X-82551Y414389D01*
X-82581Y414377D01*
X-82612Y414372D01*
X-82693Y414329D01*
X-82777Y414293D01*
X-82809Y414267D01*
X-82830Y414256D01*
X-82852Y414233D01*
X-82908Y414188D01*
X-99188Y397908D01*
X-99241Y397834D01*
X-99301Y397765D01*
X-99313Y397734D01*
X-99332Y397708D01*
X-99359Y397621D01*
X-99393Y397536D01*
X-99397Y397496D01*
X-99404Y397473D01*
X-99403Y397441D01*
X-99411Y397370D01*
X-99411Y321118D01*
X-99400Y321048D01*
X-99398Y320976D01*
X-99380Y320927D01*
X-99372Y320876D01*
X-99338Y320812D01*
X-99313Y320745D01*
X-99281Y320704D01*
X-99256Y320658D01*
X-99204Y320609D01*
X-99160Y320553D01*
X-99116Y320525D01*
X-99078Y320489D01*
X-99013Y320459D01*
X-98953Y320420D01*
X-98902Y320407D01*
X-98855Y320385D01*
X-98784Y320377D01*
X-98714Y320360D01*
X-98662Y320364D01*
X-98611Y320358D01*
X-98540Y320373D01*
X-98469Y320379D01*
X-98421Y320399D01*
X-98370Y320410D01*
X-98309Y320447D01*
X-98243Y320475D01*
X-98187Y320520D01*
X-98159Y320537D01*
X-98144Y320554D01*
X-98112Y320580D01*
X-95667Y323025D01*
X-92333Y323025D01*
X-89975Y320667D01*
X-89975Y317333D01*
X-92333Y314975D01*
X-95667Y314975D01*
X-98112Y317420D01*
X-98170Y317462D01*
X-98222Y317511D01*
X-98269Y317533D01*
X-98311Y317563D01*
X-98380Y317585D01*
X-98445Y317615D01*
X-98497Y317620D01*
X-98547Y317636D01*
X-98618Y317634D01*
X-98689Y317642D01*
X-98740Y317631D01*
X-98792Y317629D01*
X-98860Y317605D01*
X-98930Y317590D01*
X-98975Y317563D01*
X-99023Y317545D01*
X-99079Y317500D01*
X-99141Y317463D01*
X-99175Y317424D01*
X-99215Y317391D01*
X-99254Y317331D01*
X-99301Y317277D01*
X-99320Y317228D01*
X-99348Y317184D01*
X-99366Y317115D01*
X-99393Y317048D01*
X-99401Y316977D01*
X-99409Y316946D01*
X-99407Y316923D01*
X-99411Y316882D01*
X-99411Y288888D01*
X-100262Y286834D01*
X-119688Y267408D01*
X-119741Y267334D01*
X-119801Y267265D01*
X-119813Y267234D01*
X-119832Y267208D01*
X-119859Y267121D01*
X-119893Y267036D01*
X-119897Y266996D01*
X-119904Y266973D01*
X-119903Y266941D01*
X-119911Y266870D01*
X-119911Y183830D01*
X-119900Y183759D01*
X-119898Y183688D01*
X-119880Y183639D01*
X-119872Y183587D01*
X-119838Y183524D01*
X-119813Y183457D01*
X-119781Y183416D01*
X-119756Y183370D01*
X-119704Y183321D01*
X-119660Y183265D01*
X-119616Y183237D01*
X-119578Y183201D01*
X-119513Y183171D01*
X-119453Y183132D01*
X-119402Y183119D01*
X-119355Y183097D01*
X-119284Y183089D01*
X-119214Y183072D01*
X-119162Y183076D01*
X-119111Y183070D01*
X-119040Y183085D01*
X-118969Y183091D01*
X-118921Y183111D01*
X-118870Y183122D01*
X-118809Y183159D01*
X-118743Y183187D01*
X-118687Y183232D01*
X-118659Y183248D01*
X-118644Y183266D01*
X-118612Y183292D01*
X-46666Y255238D01*
X-44612Y256089D01*
X-36618Y256089D01*
X-36548Y256100D01*
X-36476Y256102D01*
X-36427Y256120D01*
X-36376Y256128D01*
X-36312Y256162D01*
X-36245Y256187D01*
X-36204Y256219D01*
X-36158Y256244D01*
X-36109Y256296D01*
X-36053Y256340D01*
X-36025Y256384D01*
X-35989Y256422D01*
X-35959Y256487D01*
X-35920Y256547D01*
X-35907Y256598D01*
X-35885Y256645D01*
X-35877Y256716D01*
X-35860Y256786D01*
X-35864Y256838D01*
X-35858Y256889D01*
X-35873Y256960D01*
X-35879Y257031D01*
X-35899Y257079D01*
X-35910Y257130D01*
X-35947Y257191D01*
X-35975Y257257D01*
X-36020Y257313D01*
X-36037Y257341D01*
X-36054Y257356D01*
X-36080Y257388D01*
X-37025Y258333D01*
X-37025Y261667D01*
X-34667Y264025D01*
X-31333Y264025D01*
X-28975Y261667D01*
X-28975Y258333D01*
X-29920Y257388D01*
X-29962Y257330D01*
X-30011Y257278D01*
X-30033Y257231D01*
X-30063Y257189D01*
X-30085Y257120D01*
X-30115Y257055D01*
X-30120Y257003D01*
X-30136Y256953D01*
X-30134Y256882D01*
X-30142Y256811D01*
X-30131Y256760D01*
X-30129Y256708D01*
X-30105Y256640D01*
X-30090Y256570D01*
X-30063Y256525D01*
X-30045Y256477D01*
X-30000Y256421D01*
X-29963Y256359D01*
X-29924Y256325D01*
X-29891Y256285D01*
X-29831Y256246D01*
X-29777Y256199D01*
X-29728Y256180D01*
X-29684Y256152D01*
X-29615Y256134D01*
X-29548Y256107D01*
X-29477Y256099D01*
X-29446Y256091D01*
X-29423Y256093D01*
X-29382Y256089D01*
X6382Y256089D01*
X6452Y256100D01*
X6524Y256102D01*
X6573Y256120D01*
X6624Y256128D01*
X6688Y256162D01*
X6755Y256187D01*
X6796Y256219D01*
X6842Y256244D01*
X6891Y256296D01*
X6947Y256340D01*
X6975Y256384D01*
X7011Y256422D01*
X7041Y256487D01*
X7080Y256547D01*
X7093Y256598D01*
X7115Y256645D01*
X7123Y256716D01*
X7140Y256786D01*
X7136Y256838D01*
X7142Y256889D01*
X7127Y256960D01*
X7121Y257031D01*
X7101Y257079D01*
X7090Y257130D01*
X7053Y257191D01*
X7025Y257257D01*
X6980Y257313D01*
X6963Y257341D01*
X6946Y257356D01*
X6920Y257388D01*
X5975Y258333D01*
X5975Y261667D01*
X8333Y264025D01*
X11667Y264025D01*
X14025Y261667D01*
X14025Y258333D01*
X13080Y257388D01*
X13038Y257330D01*
X12989Y257278D01*
X12967Y257231D01*
X12937Y257189D01*
X12915Y257120D01*
X12885Y257055D01*
X12880Y257003D01*
X12864Y256953D01*
X12866Y256882D01*
X12858Y256811D01*
X12869Y256760D01*
X12871Y256708D01*
X12895Y256640D01*
X12910Y256570D01*
X12937Y256525D01*
X12955Y256477D01*
X13000Y256421D01*
X13037Y256359D01*
X13076Y256325D01*
X13109Y256285D01*
X13169Y256246D01*
X13223Y256199D01*
X13272Y256180D01*
X13316Y256152D01*
X13385Y256134D01*
X13452Y256107D01*
X13523Y256099D01*
X13554Y256091D01*
X13577Y256093D01*
X13618Y256089D01*
X171612Y256089D01*
X173666Y255238D01*
X181738Y247166D01*
X182589Y245112D01*
X182589Y232888D01*
X181738Y230834D01*
X180166Y229262D01*
X178112Y228411D01*
X175888Y228411D01*
X173834Y229262D01*
X172262Y230834D01*
X171411Y232888D01*
X171411Y237047D01*
X171396Y237143D01*
X171386Y237240D01*
X171376Y237264D01*
X171372Y237290D01*
X171326Y237376D01*
X171286Y237465D01*
X171269Y237484D01*
X171256Y237507D01*
X171186Y237574D01*
X171120Y237646D01*
X171097Y237659D01*
X171078Y237677D01*
X170990Y237718D01*
X170904Y237765D01*
X170879Y237769D01*
X170855Y237780D01*
X170758Y237791D01*
X170662Y237808D01*
X170636Y237804D01*
X170611Y237807D01*
X170516Y237787D01*
X170419Y237772D01*
X170396Y237761D01*
X170370Y237755D01*
X170287Y237705D01*
X170200Y237661D01*
X170181Y237642D01*
X170159Y237629D01*
X170096Y237555D01*
X170028Y237485D01*
X170012Y237457D01*
X169999Y237442D01*
X169987Y237411D01*
X169947Y237338D01*
X169738Y236834D01*
X168166Y235262D01*
X166112Y234411D01*
X-36370Y234411D01*
X-36460Y234397D01*
X-36551Y234389D01*
X-36581Y234377D01*
X-36613Y234372D01*
X-36693Y234329D01*
X-36777Y234293D01*
X-36809Y234267D01*
X-36830Y234256D01*
X-36852Y234233D01*
X-36908Y234188D01*
X-97188Y173908D01*
X-97241Y173834D01*
X-97301Y173765D01*
X-97313Y173734D01*
X-97332Y173708D01*
X-97359Y173621D01*
X-97393Y173536D01*
X-97397Y173496D01*
X-97404Y173473D01*
X-97403Y173441D01*
X-97411Y173370D01*
X-97411Y138118D01*
X-97400Y138048D01*
X-97398Y137976D01*
X-97380Y137927D01*
X-97372Y137876D01*
X-97338Y137812D01*
X-97313Y137745D01*
X-97281Y137704D01*
X-97256Y137658D01*
X-97204Y137609D01*
X-97160Y137553D01*
X-97116Y137525D01*
X-97078Y137489D01*
X-97013Y137459D01*
X-96953Y137420D01*
X-96902Y137407D01*
X-96855Y137385D01*
X-96784Y137377D01*
X-96714Y137360D01*
X-96662Y137364D01*
X-96611Y137358D01*
X-96540Y137373D01*
X-96469Y137379D01*
X-96421Y137399D01*
X-96370Y137410D01*
X-96309Y137447D01*
X-96243Y137475D01*
X-96187Y137520D01*
X-96159Y137537D01*
X-96144Y137554D01*
X-96112Y137580D01*
X-94667Y139025D01*
X-91333Y139025D01*
X-88975Y136667D01*
X-88975Y133333D01*
X-91333Y130975D01*
X-94667Y130975D01*
X-96112Y132420D01*
X-96170Y132462D01*
X-96222Y132511D01*
X-96269Y132533D01*
X-96311Y132563D01*
X-96380Y132585D01*
X-96445Y132615D01*
X-96497Y132620D01*
X-96547Y132636D01*
X-96618Y132634D01*
X-96689Y132642D01*
X-96740Y132631D01*
X-96792Y132629D01*
X-96860Y132605D01*
X-96930Y132590D01*
X-96975Y132563D01*
X-97023Y132545D01*
X-97079Y132500D01*
X-97141Y132463D01*
X-97175Y132424D01*
X-97215Y132391D01*
X-97254Y132331D01*
X-97301Y132277D01*
X-97320Y132228D01*
X-97348Y132184D01*
X-97366Y132115D01*
X-97393Y132048D01*
X-97401Y131977D01*
X-97409Y131946D01*
X-97407Y131923D01*
X-97411Y131882D01*
X-97411Y123118D01*
X-97400Y123048D01*
X-97398Y122976D01*
X-97380Y122927D01*
X-97372Y122876D01*
X-97338Y122812D01*
X-97313Y122745D01*
X-97281Y122704D01*
X-97256Y122658D01*
X-97204Y122609D01*
X-97160Y122553D01*
X-97116Y122525D01*
X-97078Y122489D01*
X-97013Y122459D01*
X-96953Y122420D01*
X-96902Y122407D01*
X-96855Y122385D01*
X-96784Y122377D01*
X-96714Y122360D01*
X-96662Y122364D01*
X-96611Y122358D01*
X-96540Y122373D01*
X-96469Y122379D01*
X-96421Y122399D01*
X-96370Y122410D01*
X-96309Y122447D01*
X-96243Y122475D01*
X-96187Y122520D01*
X-96159Y122537D01*
X-96144Y122554D01*
X-96112Y122580D01*
X-94667Y124025D01*
X-91333Y124025D01*
X-88975Y121667D01*
X-88975Y118333D01*
X-91333Y115975D01*
X-94667Y115975D01*
X-97025Y118333D01*
X-97025Y118734D01*
X-97036Y118805D01*
X-97038Y118876D01*
X-97056Y118925D01*
X-97064Y118977D01*
X-97098Y119040D01*
X-97123Y119107D01*
X-97155Y119148D01*
X-97180Y119194D01*
X-97232Y119243D01*
X-97276Y119299D01*
X-97320Y119327D01*
X-97358Y119363D01*
X-97423Y119393D01*
X-97483Y119432D01*
X-97534Y119445D01*
X-97581Y119467D01*
X-97652Y119475D01*
X-97722Y119492D01*
X-97774Y119488D01*
X-97825Y119494D01*
X-97896Y119479D01*
X-97967Y119473D01*
X-98015Y119453D01*
X-98066Y119442D01*
X-98127Y119405D01*
X-98193Y119377D01*
X-98249Y119332D01*
X-98277Y119316D01*
X-98292Y119298D01*
X-98324Y119272D01*
X-111188Y106408D01*
X-111241Y106334D01*
X-111301Y106265D01*
X-111313Y106234D01*
X-111332Y106208D01*
X-111359Y106121D01*
X-111393Y106036D01*
X-111397Y105996D01*
X-111404Y105973D01*
X-111403Y105941D01*
X-111411Y105870D01*
X-111411Y25280D01*
X-111397Y25190D01*
X-111389Y25099D01*
X-111377Y25069D01*
X-111372Y25037D01*
X-111329Y24957D01*
X-111293Y24873D01*
X-111267Y24841D01*
X-111256Y24820D01*
X-111233Y24798D01*
X-111188Y24742D01*
X-85258Y-1188D01*
X-85184Y-1241D01*
X-85115Y-1301D01*
X-85084Y-1313D01*
X-85058Y-1332D01*
X-84971Y-1359D01*
X-84886Y-1393D01*
X-84846Y-1397D01*
X-84823Y-1404D01*
X-84791Y-1403D01*
X-84720Y-1411D01*
X-68388Y-1411D01*
X-66334Y-2262D01*
X-64655Y-3941D01*
X-54908Y-13688D01*
X-54834Y-13741D01*
X-54765Y-13801D01*
X-54734Y-13813D01*
X-54708Y-13832D01*
X-54621Y-13859D01*
X-54536Y-13893D01*
X-54496Y-13897D01*
X-54473Y-13904D01*
X-54441Y-13903D01*
X-54370Y-13911D01*
X-47118Y-13911D01*
X-47048Y-13900D01*
X-46976Y-13898D01*
X-46927Y-13880D01*
X-46876Y-13872D01*
X-46812Y-13838D01*
X-46745Y-13813D01*
X-46704Y-13781D01*
X-46658Y-13756D01*
X-46609Y-13704D01*
X-46553Y-13660D01*
X-46525Y-13616D01*
X-46489Y-13578D01*
X-46459Y-13513D01*
X-46420Y-13453D01*
X-46407Y-13402D01*
X-46385Y-13355D01*
X-46377Y-13284D01*
X-46360Y-13214D01*
X-46364Y-13162D01*
X-46358Y-13111D01*
X-46373Y-13040D01*
X-46379Y-12969D01*
X-46399Y-12921D01*
X-46410Y-12870D01*
X-46447Y-12809D01*
X-46475Y-12743D01*
X-46520Y-12687D01*
X-46537Y-12659D01*
X-46554Y-12644D01*
X-46580Y-12612D01*
X-49025Y-10167D01*
X-49025Y-6833D01*
X-46667Y-4475D01*
X-43333Y-4475D01*
X-40975Y-6833D01*
X-40975Y-10167D01*
X-43420Y-12612D01*
X-43462Y-12670D01*
X-43511Y-12722D01*
X-43533Y-12769D01*
X-43563Y-12811D01*
X-43585Y-12880D01*
X-43615Y-12945D01*
X-43620Y-12997D01*
X-43636Y-13047D01*
X-43634Y-13118D01*
X-43642Y-13189D01*
X-43631Y-13240D01*
X-43629Y-13292D01*
X-43605Y-13360D01*
X-43590Y-13430D01*
X-43563Y-13475D01*
X-43545Y-13523D01*
X-43500Y-13579D01*
X-43463Y-13641D01*
X-43424Y-13675D01*
X-43391Y-13715D01*
X-43331Y-13754D01*
X-43277Y-13801D01*
X-43228Y-13820D01*
X-43184Y-13848D01*
X-43115Y-13866D01*
X-43048Y-13893D01*
X-42977Y-13901D01*
X-42946Y-13909D01*
X-42923Y-13907D01*
X-42882Y-13911D01*
X-39388Y-13911D01*
X-37334Y-14762D01*
X-14164Y-37932D01*
X-14090Y-37985D01*
X-14021Y-38045D01*
X-13990Y-38057D01*
X-13964Y-38076D01*
X-13877Y-38103D01*
X-13792Y-38137D01*
X-13752Y-38141D01*
X-13729Y-38148D01*
X-13697Y-38147D01*
X-13626Y-38155D01*
X-10881Y-38155D01*
X-7520Y-39547D01*
X-4947Y-42120D01*
X-3555Y-45481D01*
X-3555Y-49119D01*
X-4947Y-52480D01*
X-7520Y-55053D01*
X-10881Y-56445D01*
X-14519Y-56445D01*
X-17880Y-55053D01*
X-20453Y-52480D01*
X-21845Y-49119D01*
X-21845Y-46374D01*
X-21859Y-46284D01*
X-21867Y-46193D01*
X-21879Y-46163D01*
X-21884Y-46132D01*
X-21927Y-46051D01*
X-21963Y-45967D01*
X-21989Y-45935D01*
X-22000Y-45914D01*
X-22023Y-45892D01*
X-22068Y-45836D01*
X-42592Y-25312D01*
X-42666Y-25259D01*
X-42735Y-25199D01*
X-42766Y-25187D01*
X-42792Y-25168D01*
X-42879Y-25141D01*
X-42964Y-25107D01*
X-43004Y-25103D01*
X-43027Y-25096D01*
X-43059Y-25097D01*
X-43130Y-25089D01*
X-50570Y-25089D01*
X-50641Y-25100D01*
X-50712Y-25102D01*
X-50761Y-25120D01*
X-50813Y-25128D01*
X-50876Y-25162D01*
X-50943Y-25187D01*
X-50984Y-25219D01*
X-51030Y-25244D01*
X-51079Y-25296D01*
X-51135Y-25340D01*
X-51163Y-25384D01*
X-51199Y-25422D01*
X-51230Y-25487D01*
X-51268Y-25547D01*
X-51281Y-25598D01*
X-51303Y-25645D01*
X-51311Y-25716D01*
X-51328Y-25786D01*
X-51324Y-25838D01*
X-51330Y-25889D01*
X-51315Y-25960D01*
X-51309Y-26031D01*
X-51289Y-26079D01*
X-51278Y-26130D01*
X-51241Y-26191D01*
X-51213Y-26257D01*
X-51168Y-26313D01*
X-51152Y-26341D01*
X-51134Y-26356D01*
X-51108Y-26388D01*
X-50555Y-26941D01*
X-39564Y-37932D01*
X-39490Y-37985D01*
X-39421Y-38045D01*
X-39390Y-38057D01*
X-39364Y-38076D01*
X-39277Y-38103D01*
X-39192Y-38137D01*
X-39152Y-38141D01*
X-39129Y-38148D01*
X-39097Y-38147D01*
X-39026Y-38155D01*
X-36281Y-38155D01*
X-32920Y-39547D01*
X-30347Y-42120D01*
X-28955Y-45481D01*
X-28955Y-49119D01*
X-30347Y-52480D01*
X-32920Y-55053D01*
X-36281Y-56445D01*
X-39919Y-56445D01*
X-43280Y-55053D01*
X-45853Y-52480D01*
X-47245Y-49119D01*
X-47245Y-46374D01*
X-47259Y-46284D01*
X-47267Y-46193D01*
X-47279Y-46163D01*
X-47284Y-46132D01*
X-47327Y-46051D01*
X-47363Y-45967D01*
X-47389Y-45935D01*
X-47400Y-45914D01*
X-47423Y-45892D01*
X-47468Y-45836D01*
X-57492Y-35812D01*
X-57566Y-35759D01*
X-57635Y-35699D01*
X-57666Y-35687D01*
X-57692Y-35668D01*
X-57779Y-35641D01*
X-57864Y-35607D01*
X-57904Y-35603D01*
X-57927Y-35596D01*
X-57959Y-35597D01*
X-58030Y-35589D01*
X-81112Y-35589D01*
X-83166Y-34738D01*
X-98112Y-19792D01*
X-98170Y-19750D01*
X-98222Y-19701D01*
X-98269Y-19679D01*
X-98311Y-19648D01*
X-98380Y-19627D01*
X-98445Y-19597D01*
X-98497Y-19591D01*
X-98547Y-19576D01*
X-98618Y-19578D01*
X-98689Y-19570D01*
X-98740Y-19581D01*
X-98792Y-19582D01*
X-98860Y-19607D01*
X-98930Y-19622D01*
X-98975Y-19649D01*
X-99023Y-19667D01*
X-99079Y-19712D01*
X-99141Y-19748D01*
X-99175Y-19788D01*
X-99215Y-19821D01*
X-99254Y-19881D01*
X-99301Y-19935D01*
X-99320Y-19984D01*
X-99348Y-20027D01*
X-99366Y-20097D01*
X-99393Y-20163D01*
X-99401Y-20235D01*
X-99409Y-20266D01*
X-99407Y-20289D01*
X-99411Y-20330D01*
X-99411Y-44953D01*
X-99396Y-45049D01*
X-99386Y-45146D01*
X-99376Y-45170D01*
X-99372Y-45196D01*
X-99326Y-45282D01*
X-99286Y-45371D01*
X-99269Y-45390D01*
X-99256Y-45413D01*
X-99186Y-45480D01*
X-99120Y-45552D01*
X-99097Y-45565D01*
X-99078Y-45583D01*
X-98990Y-45624D01*
X-98904Y-45671D01*
X-98879Y-45675D01*
X-98855Y-45686D01*
X-98758Y-45697D01*
X-98662Y-45714D01*
X-98636Y-45710D01*
X-98611Y-45713D01*
X-98515Y-45693D01*
X-98419Y-45678D01*
X-98396Y-45667D01*
X-98370Y-45661D01*
X-98287Y-45611D01*
X-98200Y-45567D01*
X-98181Y-45548D01*
X-98159Y-45535D01*
X-98096Y-45461D01*
X-98028Y-45391D01*
X-98012Y-45363D01*
X-97999Y-45348D01*
X-97987Y-45317D01*
X-97947Y-45244D01*
X-96653Y-42120D01*
X-94080Y-39547D01*
X-90719Y-38155D01*
X-87081Y-38155D01*
X-83720Y-39547D01*
X-81147Y-42120D01*
X-79755Y-45481D01*
X-79755Y-49119D01*
X-81147Y-52480D01*
X-83720Y-55053D01*
X-87081Y-56445D01*
X-90719Y-56445D01*
X-94080Y-55053D01*
X-96653Y-52480D01*
X-97947Y-49356D01*
X-97998Y-49273D01*
X-98044Y-49187D01*
X-98062Y-49169D01*
X-98076Y-49147D01*
X-98152Y-49084D01*
X-98222Y-49017D01*
X-98246Y-49006D01*
X-98266Y-48990D01*
X-98357Y-48955D01*
X-98445Y-48914D01*
X-98471Y-48911D01*
X-98495Y-48902D01*
X-98593Y-48897D01*
X-98689Y-48887D01*
X-98715Y-48892D01*
X-98741Y-48891D01*
X-98835Y-48918D01*
X-98930Y-48939D01*
X-98952Y-48952D01*
X-98977Y-48960D01*
X-99057Y-49015D01*
X-99141Y-49065D01*
X-99158Y-49085D01*
X-99179Y-49100D01*
X-99238Y-49178D01*
X-99301Y-49252D01*
X-99311Y-49276D01*
X-99326Y-49297D01*
X-99356Y-49390D01*
X-99393Y-49480D01*
X-99396Y-49513D01*
X-99402Y-49531D01*
X-99402Y-49564D01*
X-99411Y-49647D01*
X-99411Y-53970D01*
X-99397Y-54060D01*
X-99389Y-54151D01*
X-99377Y-54181D01*
X-99372Y-54213D01*
X-99329Y-54293D01*
X-99293Y-54377D01*
X-99267Y-54409D01*
X-99256Y-54430D01*
X-99233Y-54452D01*
X-99188Y-54508D01*
X-90364Y-63332D01*
X-90290Y-63385D01*
X-90221Y-63445D01*
X-90190Y-63457D01*
X-90164Y-63476D01*
X-90077Y-63503D01*
X-89992Y-63537D01*
X-89952Y-63541D01*
X-89929Y-63548D01*
X-89897Y-63547D01*
X-89826Y-63555D01*
X-87081Y-63555D01*
X-83720Y-64947D01*
X-81147Y-67520D01*
X-79755Y-70881D01*
X-79755Y-74519D01*
X-81147Y-77880D01*
X-83720Y-80453D01*
X-87081Y-81845D01*
X-90719Y-81845D01*
G37*
%LPD*%
%LPC*%
G36*
X-226355Y431729D02*
X-226355Y431729D01*
X-228271Y433645D01*
X-228271Y501355D01*
X-226355Y503271D01*
X-198645Y503271D01*
X-196729Y501355D01*
X-196729Y433645D01*
X-198645Y431729D01*
X-226355Y431729D01*
G37*
%LPD*%
%LPC*%
G36*
X-150355Y-160271D02*
X-150355Y-160271D01*
X-152271Y-158355D01*
X-152271Y-90645D01*
X-150355Y-88729D01*
X-122645Y-88729D01*
X-120729Y-90645D01*
X-120729Y-158355D01*
X-122645Y-160271D01*
X-150355Y-160271D01*
G37*
%LPD*%
%LPC*%
G36*
X33591Y-92573D02*
X33591Y-92573D01*
X20859Y-79841D01*
X20859Y-79311D01*
X20848Y-79240D01*
X20846Y-79169D01*
X20828Y-79120D01*
X20820Y-79068D01*
X20786Y-79005D01*
X20761Y-78938D01*
X20729Y-78897D01*
X20704Y-78851D01*
X20652Y-78802D01*
X20608Y-78746D01*
X20564Y-78717D01*
X20526Y-78682D01*
X20461Y-78651D01*
X20401Y-78613D01*
X20350Y-78600D01*
X20303Y-78578D01*
X20232Y-78570D01*
X20162Y-78553D01*
X20110Y-78557D01*
X20059Y-78551D01*
X19988Y-78566D01*
X19917Y-78572D01*
X19869Y-78592D01*
X19818Y-78603D01*
X19757Y-78640D01*
X19691Y-78668D01*
X19635Y-78713D01*
X19607Y-78729D01*
X19592Y-78747D01*
X19560Y-78773D01*
X17880Y-80453D01*
X14519Y-81845D01*
X10881Y-81845D01*
X7520Y-80453D01*
X4947Y-77880D01*
X3555Y-74519D01*
X3555Y-70881D01*
X4947Y-67520D01*
X7520Y-64947D01*
X10881Y-63555D01*
X14519Y-63555D01*
X17880Y-64947D01*
X19560Y-66627D01*
X19618Y-66669D01*
X19670Y-66718D01*
X19717Y-66740D01*
X19759Y-66771D01*
X19828Y-66792D01*
X19893Y-66822D01*
X19945Y-66828D01*
X19995Y-66843D01*
X20066Y-66841D01*
X20137Y-66849D01*
X20188Y-66838D01*
X20240Y-66837D01*
X20308Y-66812D01*
X20378Y-66797D01*
X20423Y-66770D01*
X20471Y-66752D01*
X20527Y-66707D01*
X20589Y-66671D01*
X20623Y-66631D01*
X20663Y-66599D01*
X20702Y-66538D01*
X20749Y-66484D01*
X20768Y-66435D01*
X20796Y-66392D01*
X20814Y-66322D01*
X20841Y-66256D01*
X20849Y-66184D01*
X20857Y-66153D01*
X20855Y-66130D01*
X20859Y-66089D01*
X20859Y-62241D01*
X20845Y-62151D01*
X20837Y-62060D01*
X20825Y-62031D01*
X20820Y-61999D01*
X20777Y-61918D01*
X20741Y-61834D01*
X20715Y-61802D01*
X20704Y-61781D01*
X20681Y-61759D01*
X20636Y-61703D01*
X15486Y-56553D01*
X15391Y-56484D01*
X15297Y-56415D01*
X15291Y-56413D01*
X15286Y-56409D01*
X15175Y-56375D01*
X15063Y-56339D01*
X15057Y-56339D01*
X15051Y-56337D01*
X14934Y-56340D01*
X14818Y-56341D01*
X14810Y-56343D01*
X14805Y-56343D01*
X14788Y-56350D01*
X14656Y-56388D01*
X14519Y-56445D01*
X10881Y-56445D01*
X7520Y-55053D01*
X4947Y-52480D01*
X3555Y-49119D01*
X3555Y-45481D01*
X4947Y-42120D01*
X7520Y-39547D01*
X10881Y-38155D01*
X14519Y-38155D01*
X17880Y-39547D01*
X20453Y-42120D01*
X21845Y-45481D01*
X21845Y-49119D01*
X21788Y-49256D01*
X21761Y-49369D01*
X21733Y-49484D01*
X21733Y-49490D01*
X21732Y-49496D01*
X21743Y-49613D01*
X21752Y-49729D01*
X21754Y-49734D01*
X21755Y-49741D01*
X21803Y-49849D01*
X21848Y-49955D01*
X21853Y-49961D01*
X21855Y-49965D01*
X21868Y-49980D01*
X21933Y-50061D01*
X21935Y-50064D01*
X21936Y-50065D01*
X21953Y-50086D01*
X27103Y-55236D01*
X30005Y-58138D01*
X30005Y-66025D01*
X30016Y-66096D01*
X30018Y-66167D01*
X30036Y-66216D01*
X30044Y-66268D01*
X30078Y-66331D01*
X30103Y-66398D01*
X30135Y-66439D01*
X30160Y-66485D01*
X30212Y-66534D01*
X30256Y-66590D01*
X30300Y-66619D01*
X30338Y-66654D01*
X30403Y-66685D01*
X30463Y-66723D01*
X30514Y-66736D01*
X30561Y-66758D01*
X30632Y-66766D01*
X30702Y-66783D01*
X30754Y-66779D01*
X30805Y-66785D01*
X30876Y-66770D01*
X30947Y-66764D01*
X30995Y-66744D01*
X31046Y-66733D01*
X31107Y-66696D01*
X31173Y-66668D01*
X31229Y-66623D01*
X31257Y-66607D01*
X31272Y-66589D01*
X31304Y-66563D01*
X32920Y-64947D01*
X36281Y-63555D01*
X39919Y-63555D01*
X43280Y-64947D01*
X45853Y-67520D01*
X47245Y-70881D01*
X47245Y-74519D01*
X45853Y-77880D01*
X43280Y-80453D01*
X39919Y-81845D01*
X37634Y-81845D01*
X37563Y-81856D01*
X37491Y-81858D01*
X37443Y-81876D01*
X37391Y-81884D01*
X37328Y-81918D01*
X37260Y-81943D01*
X37220Y-81975D01*
X37174Y-82000D01*
X37124Y-82052D01*
X37068Y-82096D01*
X37040Y-82140D01*
X37005Y-82178D01*
X36974Y-82243D01*
X36936Y-82303D01*
X36923Y-82354D01*
X36901Y-82401D01*
X36893Y-82472D01*
X36875Y-82542D01*
X36880Y-82594D01*
X36874Y-82645D01*
X36889Y-82716D01*
X36895Y-82787D01*
X36915Y-82835D01*
X36926Y-82886D01*
X36963Y-82947D01*
X36991Y-83013D01*
X37036Y-83069D01*
X37052Y-83097D01*
X37070Y-83112D01*
X37096Y-83144D01*
X37156Y-83204D01*
X37230Y-83258D01*
X37299Y-83317D01*
X37329Y-83329D01*
X37356Y-83348D01*
X37443Y-83375D01*
X37527Y-83409D01*
X37568Y-83413D01*
X37591Y-83420D01*
X37623Y-83419D01*
X37694Y-83427D01*
X119311Y-83427D01*
X119401Y-83413D01*
X119492Y-83405D01*
X119521Y-83393D01*
X119553Y-83388D01*
X119634Y-83345D01*
X119718Y-83309D01*
X119750Y-83283D01*
X119771Y-83272D01*
X119793Y-83249D01*
X119849Y-83204D01*
X131626Y-71427D01*
X135414Y-71427D01*
X138093Y-74106D01*
X138093Y-77894D01*
X123414Y-92573D01*
X33591Y-92573D01*
G37*
%LPD*%
%LPC*%
G36*
X144645Y338729D02*
X144645Y338729D01*
X142729Y340645D01*
X142729Y408355D01*
X144645Y410271D01*
X167355Y410271D01*
X169271Y408355D01*
X169271Y340645D01*
X167355Y338729D01*
X144645Y338729D01*
G37*
%LPD*%
%LPC*%
G36*
X-33394Y-107573D02*
X-33394Y-107573D01*
X-55573Y-85394D01*
X-55573Y-79543D01*
X-55584Y-79472D01*
X-55586Y-79401D01*
X-55604Y-79352D01*
X-55612Y-79300D01*
X-55646Y-79237D01*
X-55671Y-79170D01*
X-55703Y-79129D01*
X-55728Y-79083D01*
X-55780Y-79034D01*
X-55824Y-78978D01*
X-55868Y-78949D01*
X-55906Y-78914D01*
X-55971Y-78883D01*
X-56031Y-78845D01*
X-56082Y-78832D01*
X-56129Y-78810D01*
X-56200Y-78802D01*
X-56270Y-78785D01*
X-56322Y-78789D01*
X-56373Y-78783D01*
X-56444Y-78798D01*
X-56515Y-78804D01*
X-56563Y-78824D01*
X-56614Y-78835D01*
X-56675Y-78872D01*
X-56741Y-78900D01*
X-56797Y-78945D01*
X-56825Y-78961D01*
X-56840Y-78979D01*
X-56872Y-79005D01*
X-58320Y-80453D01*
X-61681Y-81845D01*
X-65319Y-81845D01*
X-68680Y-80453D01*
X-71253Y-77880D01*
X-72645Y-74519D01*
X-72645Y-70881D01*
X-71253Y-67520D01*
X-68680Y-64947D01*
X-65319Y-63555D01*
X-61681Y-63555D01*
X-58320Y-64947D01*
X-56872Y-66395D01*
X-56814Y-66437D01*
X-56762Y-66486D01*
X-56715Y-66508D01*
X-56673Y-66539D01*
X-56604Y-66560D01*
X-56539Y-66590D01*
X-56487Y-66596D01*
X-56437Y-66611D01*
X-56366Y-66609D01*
X-56295Y-66617D01*
X-56244Y-66606D01*
X-56192Y-66605D01*
X-56124Y-66580D01*
X-56054Y-66565D01*
X-56009Y-66538D01*
X-55961Y-66520D01*
X-55905Y-66475D01*
X-55843Y-66439D01*
X-55809Y-66399D01*
X-55769Y-66367D01*
X-55730Y-66306D01*
X-55683Y-66252D01*
X-55664Y-66203D01*
X-55636Y-66160D01*
X-55618Y-66090D01*
X-55591Y-66024D01*
X-55583Y-65952D01*
X-55575Y-65921D01*
X-55577Y-65898D01*
X-55573Y-65857D01*
X-55573Y-62009D01*
X-55587Y-61919D01*
X-55595Y-61828D01*
X-55607Y-61799D01*
X-55612Y-61767D01*
X-55655Y-61686D01*
X-55691Y-61602D01*
X-55717Y-61570D01*
X-55728Y-61549D01*
X-55751Y-61527D01*
X-55796Y-61471D01*
X-60714Y-56553D01*
X-60809Y-56484D01*
X-60903Y-56415D01*
X-60909Y-56413D01*
X-60914Y-56409D01*
X-61025Y-56375D01*
X-61137Y-56339D01*
X-61143Y-56339D01*
X-61149Y-56337D01*
X-61266Y-56340D01*
X-61382Y-56341D01*
X-61390Y-56343D01*
X-61395Y-56343D01*
X-61412Y-56350D01*
X-61544Y-56388D01*
X-61681Y-56445D01*
X-65319Y-56445D01*
X-68680Y-55053D01*
X-71253Y-52480D01*
X-72645Y-49119D01*
X-72645Y-45481D01*
X-71253Y-42120D01*
X-68680Y-39547D01*
X-65319Y-38155D01*
X-61681Y-38155D01*
X-58320Y-39547D01*
X-55747Y-42120D01*
X-54355Y-45481D01*
X-54355Y-49119D01*
X-54412Y-49256D01*
X-54439Y-49369D01*
X-54467Y-49484D01*
X-54467Y-49490D01*
X-54468Y-49496D01*
X-54457Y-49613D01*
X-54448Y-49729D01*
X-54446Y-49734D01*
X-54445Y-49741D01*
X-54397Y-49849D01*
X-54352Y-49955D01*
X-54347Y-49961D01*
X-54345Y-49965D01*
X-54332Y-49980D01*
X-54267Y-50061D01*
X-54265Y-50064D01*
X-54264Y-50065D01*
X-54247Y-50086D01*
X-49329Y-55004D01*
X-46427Y-57906D01*
X-46427Y-66257D01*
X-46416Y-66328D01*
X-46414Y-66399D01*
X-46396Y-66448D01*
X-46388Y-66500D01*
X-46354Y-66563D01*
X-46329Y-66630D01*
X-46297Y-66671D01*
X-46272Y-66717D01*
X-46220Y-66766D01*
X-46176Y-66822D01*
X-46132Y-66851D01*
X-46094Y-66886D01*
X-46029Y-66917D01*
X-45969Y-66955D01*
X-45918Y-66968D01*
X-45871Y-66990D01*
X-45800Y-66998D01*
X-45730Y-67015D01*
X-45678Y-67011D01*
X-45627Y-67017D01*
X-45556Y-67002D01*
X-45485Y-66996D01*
X-45437Y-66976D01*
X-45386Y-66965D01*
X-45325Y-66928D01*
X-45259Y-66900D01*
X-45203Y-66855D01*
X-45175Y-66839D01*
X-45160Y-66821D01*
X-45128Y-66795D01*
X-43280Y-64947D01*
X-39919Y-63555D01*
X-36281Y-63555D01*
X-32920Y-64947D01*
X-30347Y-67520D01*
X-28955Y-70881D01*
X-28955Y-74519D01*
X-30347Y-77880D01*
X-32920Y-80453D01*
X-36281Y-81845D01*
X-39919Y-81845D01*
X-43280Y-80453D01*
X-45128Y-78605D01*
X-45186Y-78563D01*
X-45238Y-78514D01*
X-45285Y-78492D01*
X-45327Y-78461D01*
X-45396Y-78440D01*
X-45461Y-78410D01*
X-45513Y-78404D01*
X-45563Y-78389D01*
X-45634Y-78391D01*
X-45705Y-78383D01*
X-45756Y-78394D01*
X-45808Y-78395D01*
X-45876Y-78420D01*
X-45946Y-78435D01*
X-45991Y-78462D01*
X-46039Y-78480D01*
X-46095Y-78525D01*
X-46157Y-78561D01*
X-46191Y-78601D01*
X-46231Y-78633D01*
X-46270Y-78694D01*
X-46317Y-78748D01*
X-46336Y-78797D01*
X-46364Y-78840D01*
X-46382Y-78910D01*
X-46409Y-78976D01*
X-46417Y-79048D01*
X-46425Y-79079D01*
X-46423Y-79102D01*
X-46427Y-79143D01*
X-46427Y-81291D01*
X-46413Y-81381D01*
X-46405Y-81472D01*
X-46393Y-81501D01*
X-46388Y-81533D01*
X-46345Y-81614D01*
X-46309Y-81698D01*
X-46283Y-81730D01*
X-46272Y-81751D01*
X-46249Y-81773D01*
X-46204Y-81829D01*
X-26927Y-101106D01*
X-26927Y-104894D01*
X-29606Y-107573D01*
X-33394Y-107573D01*
G37*
%LPD*%
%LPC*%
G36*
X206271Y606784D02*
X206271Y606784D01*
X204170Y607654D01*
X202562Y609262D01*
X201692Y611363D01*
X201692Y613637D01*
X202562Y615738D01*
X204170Y617346D01*
X206271Y618216D01*
X208545Y618216D01*
X210646Y617346D01*
X212254Y615738D01*
X213055Y613804D01*
X213093Y613743D01*
X213122Y613677D01*
X213157Y613639D01*
X213184Y613595D01*
X213240Y613549D01*
X213288Y613496D01*
X213334Y613471D01*
X213374Y613438D01*
X213441Y613412D01*
X213504Y613377D01*
X213555Y613368D01*
X213603Y613350D01*
X213675Y613346D01*
X213746Y613334D01*
X213797Y613341D01*
X213849Y613339D01*
X213918Y613359D01*
X213989Y613370D01*
X214035Y613393D01*
X214085Y613408D01*
X214144Y613448D01*
X214208Y613481D01*
X214245Y613518D01*
X214287Y613548D01*
X214330Y613605D01*
X214380Y613657D01*
X214415Y613719D01*
X214434Y613745D01*
X214441Y613768D01*
X214461Y613804D01*
X215262Y615738D01*
X216870Y617346D01*
X218971Y618216D01*
X221245Y618216D01*
X223346Y617346D01*
X224954Y615738D01*
X225628Y614110D01*
X225666Y614049D01*
X225695Y613984D01*
X225730Y613945D01*
X225757Y613901D01*
X225813Y613855D01*
X225861Y613803D01*
X225907Y613777D01*
X225947Y613744D01*
X226014Y613719D01*
X226077Y613684D01*
X226128Y613675D01*
X226176Y613656D01*
X226248Y613653D01*
X226319Y613640D01*
X226370Y613648D01*
X226422Y613646D01*
X226491Y613666D01*
X226562Y613676D01*
X226608Y613700D01*
X226658Y613714D01*
X226717Y613755D01*
X226781Y613788D01*
X226818Y613825D01*
X226860Y613854D01*
X226903Y613912D01*
X226953Y613963D01*
X226988Y614026D01*
X227007Y614052D01*
X227014Y614074D01*
X227034Y614110D01*
X227708Y615738D01*
X229316Y617346D01*
X231417Y618216D01*
X233691Y618216D01*
X235792Y617346D01*
X237400Y615738D01*
X238074Y614110D01*
X238112Y614049D01*
X238141Y613984D01*
X238176Y613945D01*
X238203Y613901D01*
X238259Y613855D01*
X238307Y613803D01*
X238353Y613777D01*
X238393Y613744D01*
X238460Y613719D01*
X238523Y613684D01*
X238574Y613675D01*
X238622Y613656D01*
X238694Y613653D01*
X238765Y613640D01*
X238816Y613648D01*
X238868Y613646D01*
X238937Y613666D01*
X239008Y613676D01*
X239054Y613700D01*
X239104Y613714D01*
X239163Y613755D01*
X239227Y613788D01*
X239264Y613825D01*
X239306Y613854D01*
X239349Y613912D01*
X239399Y613963D01*
X239434Y614026D01*
X239453Y614052D01*
X239460Y614074D01*
X239480Y614110D01*
X240154Y615738D01*
X241762Y617346D01*
X243863Y618216D01*
X246137Y618216D01*
X248238Y617346D01*
X249846Y615738D01*
X250716Y613637D01*
X250716Y611363D01*
X249846Y609262D01*
X248238Y607654D01*
X246137Y606784D01*
X243863Y606784D01*
X241762Y607654D01*
X240154Y609262D01*
X239480Y610890D01*
X239442Y610951D01*
X239413Y611016D01*
X239378Y611055D01*
X239351Y611099D01*
X239295Y611145D01*
X239247Y611197D01*
X239201Y611222D01*
X239161Y611256D01*
X239094Y611281D01*
X239031Y611316D01*
X238980Y611325D01*
X238932Y611344D01*
X238860Y611347D01*
X238789Y611360D01*
X238738Y611352D01*
X238686Y611354D01*
X238617Y611334D01*
X238546Y611324D01*
X238500Y611300D01*
X238450Y611286D01*
X238391Y611245D01*
X238327Y611212D01*
X238290Y611175D01*
X238248Y611146D01*
X238205Y611088D01*
X238155Y611037D01*
X238120Y610974D01*
X238101Y610948D01*
X238094Y610926D01*
X238074Y610890D01*
X237400Y609262D01*
X235792Y607654D01*
X233691Y606784D01*
X231417Y606784D01*
X229316Y607654D01*
X227708Y609262D01*
X227034Y610890D01*
X226996Y610951D01*
X226967Y611016D01*
X226932Y611055D01*
X226905Y611099D01*
X226849Y611145D01*
X226801Y611197D01*
X226755Y611222D01*
X226715Y611256D01*
X226648Y611281D01*
X226585Y611316D01*
X226534Y611325D01*
X226486Y611344D01*
X226414Y611347D01*
X226343Y611360D01*
X226292Y611352D01*
X226240Y611354D01*
X226171Y611334D01*
X226100Y611324D01*
X226054Y611300D01*
X226004Y611286D01*
X225945Y611245D01*
X225881Y611212D01*
X225844Y611175D01*
X225802Y611146D01*
X225759Y611088D01*
X225709Y611037D01*
X225674Y610974D01*
X225655Y610948D01*
X225648Y610926D01*
X225628Y610890D01*
X224954Y609262D01*
X223346Y607654D01*
X221245Y606784D01*
X218971Y606784D01*
X216870Y607654D01*
X215262Y609262D01*
X214461Y611196D01*
X214423Y611257D01*
X214394Y611323D01*
X214359Y611361D01*
X214332Y611405D01*
X214276Y611451D01*
X214228Y611504D01*
X214182Y611529D01*
X214142Y611562D01*
X214075Y611588D01*
X214012Y611623D01*
X213961Y611632D01*
X213913Y611650D01*
X213841Y611654D01*
X213770Y611666D01*
X213719Y611659D01*
X213667Y611661D01*
X213598Y611641D01*
X213527Y611630D01*
X213481Y611607D01*
X213431Y611592D01*
X213372Y611552D01*
X213308Y611519D01*
X213271Y611482D01*
X213229Y611452D01*
X213186Y611395D01*
X213136Y611343D01*
X213101Y611281D01*
X213082Y611255D01*
X213075Y611232D01*
X213055Y611196D01*
X212254Y609262D01*
X210646Y607654D01*
X208545Y606784D01*
X206271Y606784D01*
G37*
%LPD*%
%LPC*%
G36*
X36281Y-56445D02*
X36281Y-56445D01*
X32920Y-55053D01*
X30347Y-52480D01*
X28955Y-49119D01*
X28955Y-45481D01*
X30347Y-42120D01*
X32143Y-40324D01*
X32185Y-40266D01*
X32234Y-40214D01*
X32256Y-40167D01*
X32287Y-40125D01*
X32308Y-40056D01*
X32338Y-39991D01*
X32344Y-39939D01*
X32359Y-39889D01*
X32357Y-39818D01*
X32365Y-39747D01*
X32354Y-39696D01*
X32353Y-39644D01*
X32328Y-39576D01*
X32313Y-39506D01*
X32286Y-39461D01*
X32268Y-39413D01*
X32223Y-39357D01*
X32187Y-39295D01*
X32147Y-39261D01*
X32115Y-39221D01*
X32054Y-39182D01*
X32000Y-39135D01*
X31951Y-39116D01*
X31908Y-39088D01*
X31838Y-39070D01*
X31772Y-39043D01*
X31700Y-39035D01*
X31669Y-39027D01*
X31646Y-39029D01*
X31605Y-39025D01*
X28333Y-39025D01*
X25975Y-36667D01*
X25975Y-33333D01*
X28333Y-30975D01*
X31667Y-30975D01*
X34025Y-33333D01*
X34025Y-36667D01*
X32595Y-38097D01*
X32538Y-38176D01*
X32476Y-38251D01*
X32467Y-38275D01*
X32451Y-38297D01*
X32423Y-38390D01*
X32388Y-38481D01*
X32387Y-38507D01*
X32379Y-38532D01*
X32382Y-38629D01*
X32377Y-38726D01*
X32385Y-38751D01*
X32385Y-38778D01*
X32419Y-38869D01*
X32446Y-38963D01*
X32461Y-38984D01*
X32470Y-39009D01*
X32531Y-39085D01*
X32586Y-39165D01*
X32607Y-39180D01*
X32624Y-39201D01*
X32705Y-39253D01*
X32784Y-39311D01*
X32808Y-39319D01*
X32830Y-39334D01*
X32925Y-39357D01*
X33017Y-39388D01*
X33044Y-39387D01*
X33069Y-39394D01*
X33166Y-39386D01*
X33263Y-39385D01*
X33295Y-39376D01*
X33314Y-39375D01*
X33345Y-39362D01*
X33425Y-39338D01*
X36281Y-38155D01*
X39919Y-38155D01*
X43280Y-39547D01*
X45853Y-42120D01*
X47245Y-45481D01*
X47245Y-49119D01*
X45853Y-52480D01*
X43280Y-55053D01*
X39919Y-56445D01*
X36281Y-56445D01*
G37*
%LPD*%
%LPC*%
G36*
X23581Y368155D02*
X23581Y368155D01*
X20220Y369547D01*
X17647Y372120D01*
X16255Y375481D01*
X16255Y379119D01*
X17647Y382480D01*
X20220Y385053D01*
X23581Y386445D01*
X27219Y386445D01*
X30580Y385053D01*
X33153Y382480D01*
X34545Y379119D01*
X34545Y375481D01*
X33153Y372120D01*
X30580Y369547D01*
X27219Y368155D01*
X23581Y368155D01*
G37*
%LPD*%
%LPC*%
G36*
X48981Y368155D02*
X48981Y368155D01*
X45620Y369547D01*
X43047Y372120D01*
X41655Y375481D01*
X41655Y379119D01*
X43047Y382480D01*
X45620Y385053D01*
X48981Y386445D01*
X52619Y386445D01*
X55980Y385053D01*
X58553Y382480D01*
X59945Y379119D01*
X59945Y375481D01*
X58553Y372120D01*
X55980Y369547D01*
X52619Y368155D01*
X48981Y368155D01*
G37*
%LPD*%
%LPC*%
G36*
X87081Y-81845D02*
X87081Y-81845D01*
X83720Y-80453D01*
X81147Y-77880D01*
X79755Y-74519D01*
X79755Y-70881D01*
X81147Y-67520D01*
X83720Y-64947D01*
X87081Y-63555D01*
X90719Y-63555D01*
X94080Y-64947D01*
X96653Y-67520D01*
X98045Y-70881D01*
X98045Y-74519D01*
X96653Y-77880D01*
X94080Y-80453D01*
X90719Y-81845D01*
X87081Y-81845D01*
G37*
%LPD*%
%LPC*%
G36*
X-52619Y368155D02*
X-52619Y368155D01*
X-55980Y369547D01*
X-58553Y372120D01*
X-59945Y375481D01*
X-59945Y379119D01*
X-58553Y382480D01*
X-55980Y385053D01*
X-52619Y386445D01*
X-48981Y386445D01*
X-45620Y385053D01*
X-43047Y382480D01*
X-41655Y379119D01*
X-41655Y375481D01*
X-43047Y372120D01*
X-45620Y369547D01*
X-48981Y368155D01*
X-52619Y368155D01*
G37*
%LPD*%
%LPC*%
G36*
X-14519Y-81845D02*
X-14519Y-81845D01*
X-17880Y-80453D01*
X-20453Y-77880D01*
X-21845Y-74519D01*
X-21845Y-70881D01*
X-20453Y-67520D01*
X-17880Y-64947D01*
X-14519Y-63555D01*
X-10881Y-63555D01*
X-7520Y-64947D01*
X-4947Y-67520D01*
X-3555Y-70881D01*
X-3555Y-74519D01*
X-4947Y-77880D01*
X-7520Y-80453D01*
X-10881Y-81845D01*
X-14519Y-81845D01*
G37*
%LPD*%
%LPC*%
G36*
X87081Y-56445D02*
X87081Y-56445D01*
X83720Y-55053D01*
X81147Y-52480D01*
X79755Y-49119D01*
X79755Y-45481D01*
X81147Y-42120D01*
X83720Y-39547D01*
X87081Y-38155D01*
X90719Y-38155D01*
X94080Y-39547D01*
X96653Y-42120D01*
X98045Y-45481D01*
X98045Y-49119D01*
X96653Y-52480D01*
X94080Y-55053D01*
X90719Y-56445D01*
X87081Y-56445D01*
G37*
%LPD*%
%LPC*%
G36*
X-52619Y393555D02*
X-52619Y393555D01*
X-55980Y394947D01*
X-58553Y397520D01*
X-59945Y400881D01*
X-59945Y404519D01*
X-58553Y407880D01*
X-55980Y410453D01*
X-52619Y411845D01*
X-48981Y411845D01*
X-45620Y410453D01*
X-43047Y407880D01*
X-41655Y404519D01*
X-41655Y400881D01*
X-43047Y397520D01*
X-45620Y394947D01*
X-48981Y393555D01*
X-52619Y393555D01*
G37*
%LPD*%
%LPC*%
G36*
X-27219Y393555D02*
X-27219Y393555D01*
X-30580Y394947D01*
X-33153Y397520D01*
X-34545Y400881D01*
X-34545Y404519D01*
X-33153Y407880D01*
X-30580Y410453D01*
X-27219Y411845D01*
X-23581Y411845D01*
X-20220Y410453D01*
X-17647Y407880D01*
X-16255Y404519D01*
X-16255Y400881D01*
X-17647Y397520D01*
X-20220Y394947D01*
X-23581Y393555D01*
X-27219Y393555D01*
G37*
%LPD*%
%LPC*%
G36*
X23581Y393555D02*
X23581Y393555D01*
X20220Y394947D01*
X17647Y397520D01*
X16255Y400881D01*
X16255Y404519D01*
X17647Y407880D01*
X20220Y410453D01*
X23581Y411845D01*
X27219Y411845D01*
X30580Y410453D01*
X33153Y407880D01*
X34545Y404519D01*
X34545Y400881D01*
X33153Y397520D01*
X30580Y394947D01*
X27219Y393555D01*
X23581Y393555D01*
G37*
%LPD*%
%LPC*%
G36*
X61681Y-56445D02*
X61681Y-56445D01*
X58320Y-55053D01*
X55747Y-52480D01*
X54355Y-49119D01*
X54355Y-45481D01*
X55747Y-42120D01*
X58320Y-39547D01*
X61681Y-38155D01*
X65319Y-38155D01*
X68680Y-39547D01*
X71253Y-42120D01*
X72645Y-45481D01*
X72645Y-49119D01*
X71253Y-52480D01*
X68680Y-55053D01*
X65319Y-56445D01*
X61681Y-56445D01*
G37*
%LPD*%
%LPC*%
G36*
X-27219Y368155D02*
X-27219Y368155D01*
X-30580Y369547D01*
X-33153Y372120D01*
X-34545Y375481D01*
X-34545Y379119D01*
X-33153Y382480D01*
X-30580Y385053D01*
X-27219Y386445D01*
X-23581Y386445D01*
X-20220Y385053D01*
X-17647Y382480D01*
X-16255Y379119D01*
X-16255Y375481D01*
X-17647Y372120D01*
X-20220Y369547D01*
X-23581Y368155D01*
X-27219Y368155D01*
G37*
%LPD*%
%LPC*%
G36*
X61681Y-81845D02*
X61681Y-81845D01*
X58320Y-80453D01*
X55747Y-77880D01*
X54355Y-74519D01*
X54355Y-70881D01*
X55747Y-67520D01*
X58320Y-64947D01*
X61681Y-63555D01*
X65319Y-63555D01*
X68680Y-64947D01*
X71253Y-67520D01*
X72645Y-70881D01*
X72645Y-74519D01*
X71253Y-77880D01*
X68680Y-80453D01*
X65319Y-81845D01*
X61681Y-81845D01*
G37*
%LPD*%
%LPC*%
G36*
X-1819Y368155D02*
X-1819Y368155D01*
X-5180Y369547D01*
X-7753Y372120D01*
X-9145Y375481D01*
X-9145Y379119D01*
X-7753Y382480D01*
X-5180Y385053D01*
X-1819Y386445D01*
X1819Y386445D01*
X5180Y385053D01*
X7753Y382480D01*
X9145Y379119D01*
X9145Y375481D01*
X7753Y372120D01*
X5180Y369547D01*
X1819Y368155D01*
X-1819Y368155D01*
G37*
%LPD*%
%LPC*%
G36*
X-1819Y393555D02*
X-1819Y393555D01*
X-5180Y394947D01*
X-7753Y397520D01*
X-9145Y400881D01*
X-9145Y404519D01*
X-7753Y407880D01*
X-5180Y410453D01*
X-1819Y411845D01*
X1819Y411845D01*
X5180Y410453D01*
X7753Y407880D01*
X9145Y404519D01*
X9145Y400881D01*
X7753Y397520D01*
X5180Y394947D01*
X1819Y393555D01*
X-1819Y393555D01*
G37*
%LPD*%
%LPC*%
G36*
X214433Y-118025D02*
X214433Y-118025D01*
X212075Y-115667D01*
X212075Y-112333D01*
X213508Y-110900D01*
X213550Y-110842D01*
X213599Y-110790D01*
X213621Y-110743D01*
X213651Y-110701D01*
X213673Y-110632D01*
X213703Y-110567D01*
X213708Y-110515D01*
X213724Y-110465D01*
X213722Y-110394D01*
X213730Y-110323D01*
X213719Y-110272D01*
X213717Y-110220D01*
X213693Y-110152D01*
X213678Y-110082D01*
X213651Y-110037D01*
X213633Y-109989D01*
X213588Y-109933D01*
X213551Y-109871D01*
X213512Y-109837D01*
X213479Y-109797D01*
X213419Y-109758D01*
X213365Y-109711D01*
X213316Y-109692D01*
X213272Y-109664D01*
X213203Y-109646D01*
X213136Y-109619D01*
X213065Y-109611D01*
X213034Y-109603D01*
X213011Y-109605D01*
X212970Y-109601D01*
X211109Y-109601D01*
X208168Y-108383D01*
X205917Y-106132D01*
X204699Y-103191D01*
X204699Y-100009D01*
X205917Y-97068D01*
X208168Y-94817D01*
X211109Y-93599D01*
X214291Y-93599D01*
X217232Y-94817D01*
X219483Y-97068D01*
X220701Y-100009D01*
X220701Y-103191D01*
X219483Y-106132D01*
X217232Y-108383D01*
X216923Y-108511D01*
X216840Y-108562D01*
X216754Y-108608D01*
X216736Y-108627D01*
X216714Y-108640D01*
X216652Y-108715D01*
X216585Y-108786D01*
X216574Y-108810D01*
X216557Y-108830D01*
X216522Y-108921D01*
X216481Y-109009D01*
X216478Y-109035D01*
X216469Y-109059D01*
X216465Y-109157D01*
X216454Y-109253D01*
X216460Y-109279D01*
X216458Y-109305D01*
X216486Y-109399D01*
X216506Y-109494D01*
X216520Y-109516D01*
X216527Y-109541D01*
X216582Y-109621D01*
X216632Y-109705D01*
X216652Y-109722D01*
X216667Y-109743D01*
X216745Y-109801D01*
X216819Y-109865D01*
X216844Y-109875D01*
X216865Y-109890D01*
X216957Y-109920D01*
X217048Y-109957D01*
X217080Y-109960D01*
X217098Y-109966D01*
X217132Y-109966D01*
X217214Y-109975D01*
X217767Y-109975D01*
X220125Y-112333D01*
X220125Y-115667D01*
X217767Y-118025D01*
X214433Y-118025D01*
G37*
%LPD*%
%LPC*%
G36*
X183333Y-119025D02*
X183333Y-119025D01*
X180975Y-116667D01*
X180975Y-113333D01*
X183333Y-110975D01*
X185200Y-110975D01*
X185296Y-110960D01*
X185393Y-110950D01*
X185417Y-110940D01*
X185443Y-110936D01*
X185529Y-110890D01*
X185618Y-110850D01*
X185637Y-110833D01*
X185660Y-110820D01*
X185727Y-110750D01*
X185799Y-110684D01*
X185811Y-110661D01*
X185829Y-110642D01*
X185870Y-110554D01*
X185917Y-110468D01*
X185922Y-110443D01*
X185933Y-110419D01*
X185944Y-110323D01*
X185961Y-110226D01*
X185957Y-110200D01*
X185960Y-110175D01*
X185939Y-110079D01*
X185925Y-109983D01*
X185913Y-109960D01*
X185908Y-109934D01*
X185858Y-109851D01*
X185814Y-109764D01*
X185795Y-109745D01*
X185782Y-109723D01*
X185708Y-109660D01*
X185638Y-109592D01*
X185610Y-109576D01*
X185595Y-109563D01*
X185564Y-109551D01*
X185491Y-109511D01*
X182768Y-108383D01*
X180517Y-106132D01*
X179299Y-103191D01*
X179299Y-100009D01*
X180517Y-97068D01*
X182768Y-94817D01*
X185709Y-93599D01*
X188891Y-93599D01*
X191832Y-94817D01*
X194083Y-97068D01*
X195301Y-100009D01*
X195301Y-103191D01*
X194083Y-106132D01*
X191832Y-108383D01*
X188891Y-109601D01*
X187130Y-109601D01*
X187060Y-109612D01*
X186988Y-109614D01*
X186939Y-109632D01*
X186888Y-109640D01*
X186824Y-109674D01*
X186757Y-109699D01*
X186716Y-109731D01*
X186670Y-109756D01*
X186621Y-109808D01*
X186565Y-109852D01*
X186537Y-109896D01*
X186501Y-109934D01*
X186471Y-109999D01*
X186432Y-110059D01*
X186419Y-110110D01*
X186397Y-110157D01*
X186389Y-110228D01*
X186372Y-110298D01*
X186376Y-110350D01*
X186370Y-110401D01*
X186385Y-110472D01*
X186391Y-110543D01*
X186411Y-110591D01*
X186422Y-110642D01*
X186459Y-110703D01*
X186487Y-110769D01*
X186532Y-110825D01*
X186549Y-110853D01*
X186566Y-110868D01*
X186592Y-110900D01*
X189025Y-113333D01*
X189025Y-116667D01*
X186667Y-119025D01*
X183333Y-119025D01*
G37*
%LPD*%
%LPC*%
G36*
X211109Y68199D02*
X211109Y68199D01*
X208168Y69417D01*
X205917Y71668D01*
X204699Y74609D01*
X204699Y77791D01*
X205917Y80732D01*
X208168Y82983D01*
X211109Y84201D01*
X214291Y84201D01*
X217232Y82983D01*
X219483Y80732D01*
X220701Y77791D01*
X220701Y74609D01*
X219483Y71668D01*
X217232Y69417D01*
X214291Y68199D01*
X211109Y68199D01*
G37*
%LPD*%
%LPC*%
G36*
X185709Y68199D02*
X185709Y68199D01*
X182768Y69417D01*
X180517Y71668D01*
X179299Y74609D01*
X179299Y77791D01*
X180517Y80732D01*
X182768Y82983D01*
X185709Y84201D01*
X188891Y84201D01*
X191832Y82983D01*
X194083Y80732D01*
X195301Y77791D01*
X195301Y74609D01*
X194083Y71668D01*
X191832Y69417D01*
X188891Y68199D01*
X185709Y68199D01*
G37*
%LPD*%
%LPC*%
G36*
X-188891Y68199D02*
X-188891Y68199D01*
X-191832Y69417D01*
X-194083Y71668D01*
X-195301Y74609D01*
X-195301Y77791D01*
X-194083Y80732D01*
X-191832Y82983D01*
X-188891Y84201D01*
X-185709Y84201D01*
X-182768Y82983D01*
X-180517Y80732D01*
X-179299Y77791D01*
X-179299Y74609D01*
X-180517Y71668D01*
X-182768Y69417D01*
X-185709Y68199D01*
X-188891Y68199D01*
G37*
%LPD*%
%LPC*%
G36*
X-214291Y68199D02*
X-214291Y68199D01*
X-217232Y69417D01*
X-219483Y71668D01*
X-220701Y74609D01*
X-220701Y77791D01*
X-219483Y80732D01*
X-217232Y82983D01*
X-214291Y84201D01*
X-211109Y84201D01*
X-208168Y82983D01*
X-205917Y80732D01*
X-204699Y77791D01*
X-204699Y74609D01*
X-205917Y71668D01*
X-208168Y69417D01*
X-211109Y68199D01*
X-214291Y68199D01*
G37*
%LPD*%
%LPC*%
G36*
X-214291Y42799D02*
X-214291Y42799D01*
X-217232Y44017D01*
X-219483Y46268D01*
X-220701Y49209D01*
X-220701Y52391D01*
X-219483Y55332D01*
X-217232Y57583D01*
X-214291Y58801D01*
X-211109Y58801D01*
X-208168Y57583D01*
X-205917Y55332D01*
X-204699Y52391D01*
X-204699Y49209D01*
X-205917Y46268D01*
X-208168Y44017D01*
X-211109Y42799D01*
X-214291Y42799D01*
G37*
%LPD*%
%LPC*%
G36*
X-188891Y42799D02*
X-188891Y42799D01*
X-191832Y44017D01*
X-194083Y46268D01*
X-195301Y49209D01*
X-195301Y52391D01*
X-194083Y55332D01*
X-191832Y57583D01*
X-188891Y58801D01*
X-185709Y58801D01*
X-182768Y57583D01*
X-180517Y55332D01*
X-179299Y52391D01*
X-179299Y49209D01*
X-180517Y46268D01*
X-182768Y44017D01*
X-185709Y42799D01*
X-188891Y42799D01*
G37*
%LPD*%
%LPC*%
G36*
X185709Y42799D02*
X185709Y42799D01*
X182768Y44017D01*
X180517Y46268D01*
X179299Y49209D01*
X179299Y52391D01*
X180517Y55332D01*
X182768Y57583D01*
X185709Y58801D01*
X188891Y58801D01*
X191832Y57583D01*
X194083Y55332D01*
X195301Y52391D01*
X195301Y49209D01*
X194083Y46268D01*
X191832Y44017D01*
X188891Y42799D01*
X185709Y42799D01*
G37*
%LPD*%
%LPC*%
G36*
X211109Y42799D02*
X211109Y42799D01*
X208168Y44017D01*
X205917Y46268D01*
X204699Y49209D01*
X204699Y52391D01*
X205917Y55332D01*
X208168Y57583D01*
X211109Y58801D01*
X214291Y58801D01*
X217232Y57583D01*
X219483Y55332D01*
X220701Y52391D01*
X220701Y49209D01*
X219483Y46268D01*
X217232Y44017D01*
X214291Y42799D01*
X211109Y42799D01*
G37*
%LPD*%
%LPC*%
G36*
X-214291Y17399D02*
X-214291Y17399D01*
X-217232Y18617D01*
X-219483Y20868D01*
X-220701Y23809D01*
X-220701Y26991D01*
X-219483Y29932D01*
X-217232Y32183D01*
X-214291Y33401D01*
X-211109Y33401D01*
X-208168Y32183D01*
X-205917Y29932D01*
X-204699Y26991D01*
X-204699Y23809D01*
X-205917Y20868D01*
X-208168Y18617D01*
X-211109Y17399D01*
X-214291Y17399D01*
G37*
%LPD*%
%LPC*%
G36*
X211109Y17399D02*
X211109Y17399D01*
X208168Y18617D01*
X205917Y20868D01*
X204699Y23809D01*
X204699Y26991D01*
X205917Y29932D01*
X208168Y32183D01*
X211109Y33401D01*
X214291Y33401D01*
X217232Y32183D01*
X219483Y29932D01*
X220701Y26991D01*
X220701Y23809D01*
X219483Y20868D01*
X217232Y18617D01*
X214291Y17399D01*
X211109Y17399D01*
G37*
%LPD*%
%LPC*%
G36*
X185709Y17399D02*
X185709Y17399D01*
X182768Y18617D01*
X180517Y20868D01*
X179299Y23809D01*
X179299Y26991D01*
X180517Y29932D01*
X182768Y32183D01*
X185709Y33401D01*
X188891Y33401D01*
X191832Y32183D01*
X194083Y29932D01*
X195301Y26991D01*
X195301Y23809D01*
X194083Y20868D01*
X191832Y18617D01*
X188891Y17399D01*
X185709Y17399D01*
G37*
%LPD*%
%LPC*%
G36*
X-188891Y17399D02*
X-188891Y17399D01*
X-191832Y18617D01*
X-194083Y20868D01*
X-195301Y23809D01*
X-195301Y26991D01*
X-194083Y29932D01*
X-191832Y32183D01*
X-188891Y33401D01*
X-185709Y33401D01*
X-182768Y32183D01*
X-180517Y29932D01*
X-179299Y26991D01*
X-179299Y23809D01*
X-180517Y20868D01*
X-182768Y18617D01*
X-185709Y17399D01*
X-188891Y17399D01*
G37*
%LPD*%
%LPC*%
G36*
X211109Y-33401D02*
X211109Y-33401D01*
X208168Y-32183D01*
X205917Y-29932D01*
X204699Y-26991D01*
X204699Y-23809D01*
X205917Y-20868D01*
X208168Y-18617D01*
X211109Y-17399D01*
X214291Y-17399D01*
X217232Y-18617D01*
X219483Y-20868D01*
X220701Y-23809D01*
X220701Y-26991D01*
X219483Y-29932D01*
X217232Y-32183D01*
X214291Y-33401D01*
X211109Y-33401D01*
G37*
%LPD*%
%LPC*%
G36*
X185709Y-33401D02*
X185709Y-33401D01*
X182768Y-32183D01*
X180517Y-29932D01*
X179299Y-26991D01*
X179299Y-23809D01*
X180517Y-20868D01*
X182768Y-18617D01*
X185709Y-17399D01*
X188891Y-17399D01*
X191832Y-18617D01*
X194083Y-20868D01*
X195301Y-23809D01*
X195301Y-26991D01*
X194083Y-29932D01*
X191832Y-32183D01*
X188891Y-33401D01*
X185709Y-33401D01*
G37*
%LPD*%
%LPC*%
G36*
X-188891Y-33401D02*
X-188891Y-33401D01*
X-191832Y-32183D01*
X-194083Y-29932D01*
X-195301Y-26991D01*
X-195301Y-23809D01*
X-194083Y-20868D01*
X-191832Y-18617D01*
X-188891Y-17399D01*
X-185709Y-17399D01*
X-182768Y-18617D01*
X-180517Y-20868D01*
X-179299Y-23809D01*
X-179299Y-26991D01*
X-180517Y-29932D01*
X-182768Y-32183D01*
X-185709Y-33401D01*
X-188891Y-33401D01*
G37*
%LPD*%
%LPC*%
G36*
X-214291Y-33401D02*
X-214291Y-33401D01*
X-217232Y-32183D01*
X-219483Y-29932D01*
X-220701Y-26991D01*
X-220701Y-23809D01*
X-219483Y-20868D01*
X-217232Y-18617D01*
X-214291Y-17399D01*
X-211109Y-17399D01*
X-208168Y-18617D01*
X-205917Y-20868D01*
X-204699Y-23809D01*
X-204699Y-26991D01*
X-205917Y-29932D01*
X-208168Y-32183D01*
X-211109Y-33401D01*
X-214291Y-33401D01*
G37*
%LPD*%
%LPC*%
G36*
X-214291Y-58801D02*
X-214291Y-58801D01*
X-217232Y-57583D01*
X-219483Y-55332D01*
X-220701Y-52391D01*
X-220701Y-49209D01*
X-219483Y-46268D01*
X-217232Y-44017D01*
X-214291Y-42799D01*
X-211109Y-42799D01*
X-208168Y-44017D01*
X-205917Y-46268D01*
X-204699Y-49209D01*
X-204699Y-52391D01*
X-205917Y-55332D01*
X-208168Y-57583D01*
X-211109Y-58801D01*
X-214291Y-58801D01*
G37*
%LPD*%
%LPC*%
G36*
X-188891Y-58801D02*
X-188891Y-58801D01*
X-191832Y-57583D01*
X-194083Y-55332D01*
X-195301Y-52391D01*
X-195301Y-49209D01*
X-194083Y-46268D01*
X-191832Y-44017D01*
X-188891Y-42799D01*
X-185709Y-42799D01*
X-182768Y-44017D01*
X-180517Y-46268D01*
X-179299Y-49209D01*
X-179299Y-52391D01*
X-180517Y-55332D01*
X-182768Y-57583D01*
X-185709Y-58801D01*
X-188891Y-58801D01*
G37*
%LPD*%
%LPC*%
G36*
X185709Y-58801D02*
X185709Y-58801D01*
X182768Y-57583D01*
X180517Y-55332D01*
X179299Y-52391D01*
X179299Y-49209D01*
X180517Y-46268D01*
X182768Y-44017D01*
X185709Y-42799D01*
X188891Y-42799D01*
X191832Y-44017D01*
X194083Y-46268D01*
X195301Y-49209D01*
X195301Y-52391D01*
X194083Y-55332D01*
X191832Y-57583D01*
X188891Y-58801D01*
X185709Y-58801D01*
G37*
%LPD*%
%LPC*%
G36*
X211109Y-58801D02*
X211109Y-58801D01*
X208168Y-57583D01*
X205917Y-55332D01*
X204699Y-52391D01*
X204699Y-49209D01*
X205917Y-46268D01*
X208168Y-44017D01*
X211109Y-42799D01*
X214291Y-42799D01*
X217232Y-44017D01*
X219483Y-46268D01*
X220701Y-49209D01*
X220701Y-52391D01*
X219483Y-55332D01*
X217232Y-57583D01*
X214291Y-58801D01*
X211109Y-58801D01*
G37*
%LPD*%
%LPC*%
G36*
X-214291Y93599D02*
X-214291Y93599D01*
X-217232Y94817D01*
X-219483Y97068D01*
X-220701Y100009D01*
X-220701Y103191D01*
X-219483Y106132D01*
X-217232Y108383D01*
X-214291Y109601D01*
X-211109Y109601D01*
X-208168Y108383D01*
X-205917Y106132D01*
X-204699Y103191D01*
X-204699Y100009D01*
X-205917Y97068D01*
X-208168Y94817D01*
X-211109Y93599D01*
X-214291Y93599D01*
G37*
%LPD*%
%LPC*%
G36*
X-214291Y-84201D02*
X-214291Y-84201D01*
X-217232Y-82983D01*
X-219483Y-80732D01*
X-220701Y-77791D01*
X-220701Y-74609D01*
X-219483Y-71668D01*
X-217232Y-69417D01*
X-214291Y-68199D01*
X-211109Y-68199D01*
X-208168Y-69417D01*
X-205917Y-71668D01*
X-204699Y-74609D01*
X-204699Y-77791D01*
X-205917Y-80732D01*
X-208168Y-82983D01*
X-211109Y-84201D01*
X-214291Y-84201D01*
G37*
%LPD*%
%LPC*%
G36*
X211109Y-84201D02*
X211109Y-84201D01*
X208168Y-82983D01*
X205917Y-80732D01*
X204699Y-77791D01*
X204699Y-74609D01*
X205917Y-71668D01*
X208168Y-69417D01*
X211109Y-68199D01*
X214291Y-68199D01*
X217232Y-69417D01*
X219483Y-71668D01*
X220701Y-74609D01*
X220701Y-77791D01*
X219483Y-80732D01*
X217232Y-82983D01*
X214291Y-84201D01*
X211109Y-84201D01*
G37*
%LPD*%
%LPC*%
G36*
X185709Y-84201D02*
X185709Y-84201D01*
X182768Y-82983D01*
X180517Y-80732D01*
X179299Y-77791D01*
X179299Y-74609D01*
X180517Y-71668D01*
X182768Y-69417D01*
X185709Y-68199D01*
X188891Y-68199D01*
X191832Y-69417D01*
X194083Y-71668D01*
X195301Y-74609D01*
X195301Y-77791D01*
X194083Y-80732D01*
X191832Y-82983D01*
X188891Y-84201D01*
X185709Y-84201D01*
G37*
%LPD*%
%LPC*%
G36*
X-188891Y-84201D02*
X-188891Y-84201D01*
X-191832Y-82983D01*
X-194083Y-80732D01*
X-195301Y-77791D01*
X-195301Y-74609D01*
X-194083Y-71668D01*
X-191832Y-69417D01*
X-188891Y-68199D01*
X-185709Y-68199D01*
X-182768Y-69417D01*
X-180517Y-71668D01*
X-179299Y-74609D01*
X-179299Y-77791D01*
X-180517Y-80732D01*
X-182768Y-82983D01*
X-185709Y-84201D01*
X-188891Y-84201D01*
G37*
%LPD*%
%LPC*%
G36*
X211109Y93599D02*
X211109Y93599D01*
X208168Y94817D01*
X205917Y97068D01*
X204699Y100009D01*
X204699Y103191D01*
X205917Y106132D01*
X208168Y108383D01*
X211109Y109601D01*
X214291Y109601D01*
X217232Y108383D01*
X219483Y106132D01*
X220701Y103191D01*
X220701Y100009D01*
X219483Y97068D01*
X217232Y94817D01*
X214291Y93599D01*
X211109Y93599D01*
G37*
%LPD*%
%LPC*%
G36*
X185709Y93599D02*
X185709Y93599D01*
X182768Y94817D01*
X180517Y97068D01*
X179299Y100009D01*
X179299Y103191D01*
X180517Y106132D01*
X182768Y108383D01*
X185709Y109601D01*
X188891Y109601D01*
X191832Y108383D01*
X194083Y106132D01*
X195301Y103191D01*
X195301Y100009D01*
X194083Y97068D01*
X191832Y94817D01*
X188891Y93599D01*
X185709Y93599D01*
G37*
%LPD*%
%LPC*%
G36*
X-188891Y93599D02*
X-188891Y93599D01*
X-191832Y94817D01*
X-194083Y97068D01*
X-195301Y100009D01*
X-195301Y103191D01*
X-194083Y106132D01*
X-191832Y108383D01*
X-188891Y109601D01*
X-185709Y109601D01*
X-182768Y108383D01*
X-180517Y106132D01*
X-179299Y103191D01*
X-179299Y100009D01*
X-180517Y97068D01*
X-182768Y94817D01*
X-185709Y93599D01*
X-188891Y93599D01*
G37*
%LPD*%
%LPC*%
G36*
X-188891Y-109601D02*
X-188891Y-109601D01*
X-191832Y-108383D01*
X-194083Y-106132D01*
X-195301Y-103191D01*
X-195301Y-100009D01*
X-194083Y-97068D01*
X-191832Y-94817D01*
X-188891Y-93599D01*
X-185709Y-93599D01*
X-182768Y-94817D01*
X-180517Y-97068D01*
X-179299Y-100009D01*
X-179299Y-103191D01*
X-180517Y-106132D01*
X-182768Y-108383D01*
X-185709Y-109601D01*
X-188891Y-109601D01*
G37*
%LPD*%
%LPC*%
G36*
X-214291Y-109601D02*
X-214291Y-109601D01*
X-217232Y-108383D01*
X-219483Y-106132D01*
X-220701Y-103191D01*
X-220701Y-100009D01*
X-219483Y-97068D01*
X-217232Y-94817D01*
X-214291Y-93599D01*
X-211109Y-93599D01*
X-208168Y-94817D01*
X-205917Y-97068D01*
X-204699Y-100009D01*
X-204699Y-103191D01*
X-205917Y-106132D01*
X-208168Y-108383D01*
X-211109Y-109601D01*
X-214291Y-109601D01*
G37*
%LPD*%
%LPC*%
G36*
X211109Y-8001D02*
X211109Y-8001D01*
X208168Y-6783D01*
X205917Y-4532D01*
X204699Y-1591D01*
X204699Y1591D01*
X205917Y4532D01*
X208168Y6783D01*
X211109Y8001D01*
X214291Y8001D01*
X217232Y6783D01*
X219483Y4532D01*
X220701Y1591D01*
X220701Y-1591D01*
X219483Y-4532D01*
X217232Y-6783D01*
X214291Y-8001D01*
X211109Y-8001D01*
G37*
%LPD*%
%LPC*%
G36*
X-188891Y-8001D02*
X-188891Y-8001D01*
X-191832Y-6783D01*
X-194083Y-4532D01*
X-195301Y-1591D01*
X-195301Y1591D01*
X-194083Y4532D01*
X-191832Y6783D01*
X-188891Y8001D01*
X-185709Y8001D01*
X-182768Y6783D01*
X-180517Y4532D01*
X-179299Y1591D01*
X-179299Y-1591D01*
X-180517Y-4532D01*
X-182768Y-6783D01*
X-185709Y-8001D01*
X-188891Y-8001D01*
G37*
%LPD*%
%LPC*%
G36*
X185709Y-8001D02*
X185709Y-8001D01*
X182768Y-6783D01*
X180517Y-4532D01*
X179299Y-1591D01*
X179299Y1591D01*
X180517Y4532D01*
X182768Y6783D01*
X185709Y8001D01*
X188891Y8001D01*
X191832Y6783D01*
X194083Y4532D01*
X195301Y1591D01*
X195301Y-1591D01*
X194083Y-4532D01*
X191832Y-6783D01*
X188891Y-8001D01*
X185709Y-8001D01*
G37*
%LPD*%
%LPC*%
G36*
X-214291Y-8001D02*
X-214291Y-8001D01*
X-217232Y-6783D01*
X-219483Y-4532D01*
X-220701Y-1591D01*
X-220701Y1591D01*
X-219483Y4532D01*
X-217232Y6783D01*
X-214291Y8001D01*
X-211109Y8001D01*
X-208168Y6783D01*
X-205917Y4532D01*
X-204699Y1591D01*
X-204699Y-1591D01*
X-205917Y-4532D01*
X-208168Y-6783D01*
X-211109Y-8001D01*
X-214291Y-8001D01*
G37*
%LPD*%
%LPC*%
G36*
X63333Y325975D02*
X63333Y325975D01*
X60975Y328333D01*
X60975Y331667D01*
X63333Y334025D01*
X66714Y334025D01*
X66734Y334028D01*
X66753Y334026D01*
X66855Y334048D01*
X66957Y334064D01*
X66974Y334074D01*
X66994Y334078D01*
X67083Y334131D01*
X67174Y334180D01*
X67188Y334194D01*
X67205Y334204D01*
X67272Y334283D01*
X67344Y334358D01*
X67352Y334376D01*
X67365Y334391D01*
X67404Y334487D01*
X67447Y334581D01*
X67449Y334601D01*
X67457Y334619D01*
X67475Y334786D01*
X67475Y337388D01*
X69833Y339745D01*
X73167Y339745D01*
X75572Y337340D01*
X75588Y337329D01*
X75601Y337313D01*
X75678Y337264D01*
X75691Y337252D01*
X75699Y337249D01*
X75772Y337197D01*
X75791Y337191D01*
X75808Y337180D01*
X75908Y337155D01*
X76007Y337125D01*
X76027Y337125D01*
X76046Y337120D01*
X76149Y337128D01*
X76253Y337131D01*
X76272Y337138D01*
X76291Y337139D01*
X76386Y337180D01*
X76484Y337215D01*
X76499Y337228D01*
X76518Y337236D01*
X76592Y337295D01*
X76595Y337297D01*
X76598Y337300D01*
X76649Y337340D01*
X78333Y339025D01*
X81667Y339025D01*
X84025Y336667D01*
X84025Y333333D01*
X81667Y330975D01*
X78333Y330975D01*
X75928Y333380D01*
X75912Y333392D01*
X75899Y333407D01*
X75812Y333463D01*
X75728Y333524D01*
X75709Y333530D01*
X75692Y333540D01*
X75592Y333566D01*
X75493Y333596D01*
X75473Y333596D01*
X75454Y333600D01*
X75351Y333592D01*
X75247Y333590D01*
X75228Y333583D01*
X75209Y333581D01*
X75114Y333541D01*
X75016Y333505D01*
X75001Y333493D01*
X74982Y333485D01*
X74851Y333380D01*
X73167Y331696D01*
X69786Y331696D01*
X69766Y331693D01*
X69747Y331695D01*
X69645Y331673D01*
X69543Y331656D01*
X69526Y331647D01*
X69506Y331643D01*
X69417Y331589D01*
X69326Y331541D01*
X69312Y331527D01*
X69295Y331516D01*
X69228Y331438D01*
X69156Y331363D01*
X69148Y331345D01*
X69135Y331330D01*
X69096Y331233D01*
X69053Y331140D01*
X69051Y331120D01*
X69043Y331101D01*
X69025Y330935D01*
X69025Y328333D01*
X66667Y325975D01*
X63333Y325975D01*
G37*
%LPD*%
%LPC*%
G36*
X130282Y282146D02*
X130282Y282146D01*
X127925Y284503D01*
X127925Y287837D01*
X130282Y290195D01*
X133174Y290195D01*
X133194Y290198D01*
X133213Y290196D01*
X133315Y290218D01*
X133417Y290235D01*
X133434Y290244D01*
X133454Y290248D01*
X133543Y290301D01*
X133634Y290350D01*
X133648Y290364D01*
X133665Y290374D01*
X133732Y290453D01*
X133804Y290528D01*
X133812Y290546D01*
X133825Y290561D01*
X133864Y290658D01*
X133907Y290751D01*
X133909Y290771D01*
X133917Y290790D01*
X133935Y290956D01*
X133935Y293848D01*
X136293Y296205D01*
X139446Y296205D01*
X139516Y296217D01*
X139588Y296219D01*
X139637Y296237D01*
X139688Y296245D01*
X139752Y296279D01*
X139819Y296303D01*
X139860Y296336D01*
X139906Y296360D01*
X139955Y296412D01*
X140011Y296457D01*
X140039Y296501D01*
X140075Y296539D01*
X140105Y296604D01*
X140144Y296664D01*
X140157Y296714D01*
X140179Y296762D01*
X140187Y296833D01*
X140204Y296902D01*
X140200Y296954D01*
X140206Y297006D01*
X140191Y297076D01*
X140185Y297148D01*
X140165Y297196D01*
X140154Y297246D01*
X140117Y297308D01*
X140089Y297374D01*
X140044Y297430D01*
X140027Y297458D01*
X140010Y297473D01*
X139984Y297505D01*
X139455Y298034D01*
X139455Y301368D01*
X141813Y303725D01*
X145147Y303725D01*
X147505Y301368D01*
X147505Y298034D01*
X145147Y295676D01*
X141994Y295676D01*
X141924Y295664D01*
X141852Y295663D01*
X141803Y295645D01*
X141752Y295636D01*
X141688Y295603D01*
X141621Y295578D01*
X141580Y295546D01*
X141534Y295521D01*
X141485Y295469D01*
X141429Y295424D01*
X141401Y295381D01*
X141365Y295343D01*
X141335Y295278D01*
X141296Y295217D01*
X141283Y295167D01*
X141261Y295120D01*
X141253Y295048D01*
X141236Y294979D01*
X141240Y294927D01*
X141234Y294875D01*
X141249Y294805D01*
X141255Y294734D01*
X141275Y294686D01*
X141286Y294635D01*
X141323Y294573D01*
X141351Y294507D01*
X141396Y294451D01*
X141413Y294424D01*
X141430Y294409D01*
X141456Y294376D01*
X141985Y293848D01*
X141985Y290514D01*
X139627Y288156D01*
X136736Y288156D01*
X136716Y288153D01*
X136696Y288155D01*
X136595Y288133D01*
X136493Y288116D01*
X136475Y288107D01*
X136456Y288103D01*
X136367Y288049D01*
X136275Y288001D01*
X136262Y287987D01*
X136245Y287976D01*
X136177Y287898D01*
X136106Y287823D01*
X136098Y287805D01*
X136085Y287790D01*
X136046Y287693D01*
X136002Y287600D01*
X136000Y287580D01*
X135993Y287561D01*
X135974Y287395D01*
X135974Y284503D01*
X133617Y282146D01*
X130282Y282146D01*
G37*
%LPD*%
%LPC*%
G36*
X-173667Y277975D02*
X-173667Y277975D01*
X-176025Y280333D01*
X-176025Y283667D01*
X-173730Y285962D01*
X-173718Y285978D01*
X-173703Y285990D01*
X-173647Y286078D01*
X-173587Y286161D01*
X-173581Y286180D01*
X-173570Y286197D01*
X-173545Y286298D01*
X-173514Y286397D01*
X-173515Y286416D01*
X-173510Y286436D01*
X-173518Y286539D01*
X-173521Y286642D01*
X-173527Y286661D01*
X-173529Y286681D01*
X-173569Y286776D01*
X-173605Y286873D01*
X-173618Y286889D01*
X-173625Y286907D01*
X-173730Y287038D01*
X-176025Y289333D01*
X-176025Y292667D01*
X-173667Y295025D01*
X-170333Y295025D01*
X-167975Y292667D01*
X-167975Y289333D01*
X-170270Y287038D01*
X-170282Y287022D01*
X-170297Y287010D01*
X-170353Y286922D01*
X-170413Y286839D01*
X-170419Y286820D01*
X-170430Y286803D01*
X-170455Y286702D01*
X-170486Y286603D01*
X-170485Y286584D01*
X-170490Y286564D01*
X-170482Y286461D01*
X-170479Y286358D01*
X-170473Y286339D01*
X-170471Y286319D01*
X-170431Y286224D01*
X-170395Y286127D01*
X-170382Y286111D01*
X-170375Y286093D01*
X-170270Y285962D01*
X-167975Y283667D01*
X-167975Y280333D01*
X-170333Y277975D01*
X-173667Y277975D01*
G37*
%LPD*%
%LPC*%
G36*
X65833Y-5525D02*
X65833Y-5525D01*
X63475Y-3167D01*
X63475Y167D01*
X65833Y2525D01*
X69167Y2525D01*
X69676Y2016D01*
X69734Y1974D01*
X69786Y1925D01*
X69833Y1903D01*
X69875Y1873D01*
X69944Y1851D01*
X70009Y1821D01*
X70061Y1816D01*
X70111Y1800D01*
X70182Y1802D01*
X70253Y1794D01*
X70304Y1805D01*
X70356Y1807D01*
X70424Y1831D01*
X70494Y1846D01*
X70539Y1873D01*
X70587Y1891D01*
X70643Y1936D01*
X70705Y1973D01*
X70739Y2012D01*
X70779Y2045D01*
X70818Y2105D01*
X70865Y2159D01*
X70884Y2208D01*
X70912Y2252D01*
X70930Y2321D01*
X70957Y2388D01*
X70965Y2459D01*
X70973Y2490D01*
X70971Y2513D01*
X70975Y2554D01*
X70975Y5667D01*
X73333Y8025D01*
X76667Y8025D01*
X79025Y5667D01*
X79025Y2333D01*
X76667Y-25D01*
X73333Y-25D01*
X72824Y484D01*
X72766Y526D01*
X72714Y575D01*
X72667Y597D01*
X72625Y627D01*
X72556Y649D01*
X72491Y679D01*
X72439Y685D01*
X72389Y700D01*
X72318Y698D01*
X72247Y706D01*
X72196Y695D01*
X72144Y693D01*
X72076Y669D01*
X72006Y654D01*
X71961Y627D01*
X71913Y609D01*
X71857Y564D01*
X71795Y527D01*
X71761Y488D01*
X71721Y455D01*
X71682Y395D01*
X71635Y341D01*
X71616Y292D01*
X71588Y248D01*
X71570Y179D01*
X71543Y112D01*
X71535Y41D01*
X71527Y10D01*
X71529Y-13D01*
X71525Y-54D01*
X71525Y-3167D01*
X69167Y-5525D01*
X65833Y-5525D01*
G37*
%LPD*%
%LPC*%
G36*
X93333Y268475D02*
X93333Y268475D01*
X90975Y270833D01*
X90975Y274167D01*
X92520Y275712D01*
X92532Y275728D01*
X92547Y275740D01*
X92576Y275786D01*
X92603Y275814D01*
X92621Y275852D01*
X92663Y275911D01*
X92669Y275930D01*
X92680Y275947D01*
X92698Y276018D01*
X92707Y276037D01*
X92709Y276061D01*
X92736Y276147D01*
X92735Y276166D01*
X92740Y276186D01*
X92733Y276275D01*
X92734Y276281D01*
X92732Y276289D01*
X92729Y276392D01*
X92723Y276411D01*
X92721Y276431D01*
X92681Y276526D01*
X92645Y276623D01*
X92632Y276639D01*
X92625Y276657D01*
X92520Y276788D01*
X89975Y279333D01*
X89975Y282667D01*
X92333Y285025D01*
X95667Y285025D01*
X98025Y282667D01*
X98025Y279333D01*
X96480Y277788D01*
X96468Y277772D01*
X96453Y277760D01*
X96397Y277672D01*
X96337Y277589D01*
X96331Y277570D01*
X96320Y277553D01*
X96295Y277452D01*
X96264Y277353D01*
X96265Y277334D01*
X96260Y277314D01*
X96268Y277211D01*
X96271Y277108D01*
X96277Y277089D01*
X96279Y277069D01*
X96319Y276974D01*
X96355Y276877D01*
X96368Y276861D01*
X96375Y276843D01*
X96480Y276712D01*
X99025Y274167D01*
X99025Y270833D01*
X96667Y268475D01*
X93333Y268475D01*
G37*
%LPD*%
%LPC*%
G36*
X172333Y267155D02*
X172333Y267155D01*
X169975Y269512D01*
X169975Y272846D01*
X172020Y274891D01*
X172032Y274907D01*
X172047Y274920D01*
X172103Y275007D01*
X172163Y275091D01*
X172169Y275110D01*
X172180Y275127D01*
X172205Y275227D01*
X172236Y275326D01*
X172235Y275346D01*
X172240Y275365D01*
X172232Y275468D01*
X172229Y275572D01*
X172223Y275591D01*
X172221Y275610D01*
X172181Y275705D01*
X172145Y275803D01*
X172132Y275818D01*
X172125Y275837D01*
X172020Y275968D01*
X169975Y278012D01*
X169975Y281346D01*
X172333Y283704D01*
X175667Y283704D01*
X178025Y281346D01*
X178025Y278012D01*
X175980Y275968D01*
X175968Y275951D01*
X175953Y275939D01*
X175897Y275852D01*
X175837Y275768D01*
X175831Y275749D01*
X175820Y275732D01*
X175795Y275632D01*
X175764Y275533D01*
X175765Y275513D01*
X175760Y275494D01*
X175768Y275391D01*
X175771Y275287D01*
X175777Y275268D01*
X175779Y275248D01*
X175819Y275154D01*
X175855Y275056D01*
X175868Y275040D01*
X175875Y275022D01*
X175980Y274891D01*
X178025Y272846D01*
X178025Y269512D01*
X175667Y267155D01*
X172333Y267155D01*
G37*
%LPD*%
%LPC*%
G36*
X48333Y45975D02*
X48333Y45975D01*
X45975Y48333D01*
X45975Y51667D01*
X48333Y54025D01*
X50446Y54025D01*
X50516Y54036D01*
X50588Y54038D01*
X50637Y54056D01*
X50688Y54064D01*
X50752Y54098D01*
X50819Y54123D01*
X50860Y54155D01*
X50906Y54180D01*
X50955Y54232D01*
X51011Y54276D01*
X51039Y54320D01*
X51075Y54358D01*
X51105Y54423D01*
X51144Y54483D01*
X51157Y54534D01*
X51179Y54581D01*
X51187Y54652D01*
X51204Y54722D01*
X51200Y54774D01*
X51206Y54825D01*
X51191Y54896D01*
X51185Y54967D01*
X51165Y55015D01*
X51154Y55066D01*
X51117Y55127D01*
X51089Y55193D01*
X51044Y55249D01*
X51027Y55277D01*
X51010Y55292D01*
X50984Y55324D01*
X49975Y56333D01*
X49975Y59667D01*
X52333Y62025D01*
X55667Y62025D01*
X58025Y59667D01*
X58025Y56333D01*
X55667Y53975D01*
X53554Y53975D01*
X53484Y53964D01*
X53412Y53962D01*
X53363Y53944D01*
X53312Y53936D01*
X53248Y53902D01*
X53181Y53877D01*
X53140Y53845D01*
X53094Y53820D01*
X53045Y53768D01*
X52989Y53724D01*
X52961Y53680D01*
X52925Y53642D01*
X52895Y53577D01*
X52856Y53517D01*
X52843Y53466D01*
X52821Y53419D01*
X52813Y53348D01*
X52796Y53278D01*
X52800Y53226D01*
X52794Y53175D01*
X52809Y53104D01*
X52815Y53033D01*
X52835Y52985D01*
X52846Y52934D01*
X52883Y52873D01*
X52911Y52807D01*
X52956Y52751D01*
X52973Y52723D01*
X52988Y52710D01*
X52991Y52705D01*
X52997Y52700D01*
X53016Y52676D01*
X54025Y51667D01*
X54025Y48333D01*
X51667Y45975D01*
X48333Y45975D01*
G37*
%LPD*%
%LPC*%
G36*
X48333Y105975D02*
X48333Y105975D01*
X46038Y108270D01*
X46022Y108282D01*
X46010Y108297D01*
X45922Y108353D01*
X45839Y108413D01*
X45820Y108419D01*
X45803Y108430D01*
X45702Y108455D01*
X45603Y108486D01*
X45584Y108485D01*
X45564Y108490D01*
X45461Y108482D01*
X45358Y108479D01*
X45339Y108473D01*
X45319Y108471D01*
X45224Y108431D01*
X45127Y108395D01*
X45111Y108382D01*
X45093Y108375D01*
X44962Y108270D01*
X43667Y106975D01*
X40333Y106975D01*
X37975Y109333D01*
X37975Y112667D01*
X40333Y115025D01*
X43667Y115025D01*
X45962Y112730D01*
X45978Y112718D01*
X45990Y112703D01*
X46078Y112647D01*
X46161Y112587D01*
X46180Y112581D01*
X46197Y112570D01*
X46298Y112545D01*
X46397Y112514D01*
X46416Y112515D01*
X46436Y112510D01*
X46539Y112518D01*
X46642Y112521D01*
X46661Y112527D01*
X46681Y112529D01*
X46776Y112569D01*
X46873Y112605D01*
X46889Y112618D01*
X46907Y112625D01*
X47038Y112730D01*
X48333Y114025D01*
X51667Y114025D01*
X54025Y111667D01*
X54025Y108333D01*
X51667Y105975D01*
X48333Y105975D01*
G37*
%LPD*%
%LPC*%
G36*
X127333Y-5525D02*
X127333Y-5525D01*
X124975Y-3167D01*
X124975Y167D01*
X127333Y2525D01*
X130214Y2525D01*
X130234Y2528D01*
X130253Y2526D01*
X130355Y2548D01*
X130457Y2564D01*
X130474Y2574D01*
X130494Y2578D01*
X130583Y2631D01*
X130674Y2680D01*
X130688Y2694D01*
X130705Y2704D01*
X130772Y2783D01*
X130844Y2858D01*
X130852Y2876D01*
X130865Y2891D01*
X130904Y2987D01*
X130947Y3081D01*
X130949Y3101D01*
X130957Y3119D01*
X130975Y3286D01*
X130975Y5667D01*
X133333Y8025D01*
X136667Y8025D01*
X139025Y5667D01*
X139025Y2333D01*
X136667Y-25D01*
X133786Y-25D01*
X133766Y-28D01*
X133747Y-26D01*
X133645Y-48D01*
X133543Y-64D01*
X133526Y-74D01*
X133506Y-78D01*
X133417Y-131D01*
X133326Y-180D01*
X133312Y-194D01*
X133295Y-204D01*
X133228Y-283D01*
X133156Y-358D01*
X133148Y-376D01*
X133135Y-391D01*
X133096Y-487D01*
X133053Y-581D01*
X133051Y-601D01*
X133043Y-619D01*
X133025Y-786D01*
X133025Y-3167D01*
X130667Y-5525D01*
X127333Y-5525D01*
G37*
%LPD*%
%LPC*%
G36*
X-56667Y290519D02*
X-56667Y290519D01*
X-59025Y292877D01*
X-59025Y296211D01*
X-56667Y298569D01*
X-53333Y298569D01*
X-50975Y296211D01*
X-50975Y292877D01*
X-53333Y290519D01*
X-56667Y290519D01*
G37*
%LPD*%
%LPC*%
G36*
X32333Y288975D02*
X32333Y288975D01*
X29975Y291333D01*
X29975Y294667D01*
X32333Y297025D01*
X35667Y297025D01*
X38025Y294667D01*
X38025Y291333D01*
X35667Y288975D01*
X32333Y288975D01*
G37*
%LPD*%
%LPC*%
G36*
X-17667Y288975D02*
X-17667Y288975D01*
X-20025Y291333D01*
X-20025Y294667D01*
X-17667Y297025D01*
X-14333Y297025D01*
X-11975Y294667D01*
X-11975Y291333D01*
X-14333Y288975D01*
X-17667Y288975D01*
G37*
%LPD*%
%LPC*%
G36*
X172333Y288155D02*
X172333Y288155D01*
X169975Y290512D01*
X169975Y293846D01*
X172333Y296204D01*
X175667Y296204D01*
X178025Y293846D01*
X178025Y290512D01*
X175667Y288155D01*
X172333Y288155D01*
G37*
%LPD*%
%LPC*%
G36*
X78132Y287495D02*
X78132Y287495D01*
X75775Y289853D01*
X75775Y293187D01*
X78132Y295545D01*
X81466Y295545D01*
X83824Y293187D01*
X83824Y289853D01*
X81466Y287495D01*
X78132Y287495D01*
G37*
%LPD*%
%LPC*%
G36*
X15655Y285975D02*
X15655Y285975D01*
X13297Y288333D01*
X13297Y291667D01*
X15655Y294025D01*
X18989Y294025D01*
X21347Y291667D01*
X21347Y288333D01*
X18989Y285975D01*
X15655Y285975D01*
G37*
%LPD*%
%LPC*%
G36*
X-231667Y280975D02*
X-231667Y280975D01*
X-234025Y283333D01*
X-234025Y286667D01*
X-231667Y289025D01*
X-228333Y289025D01*
X-225975Y286667D01*
X-225975Y283333D01*
X-228333Y280975D01*
X-231667Y280975D01*
G37*
%LPD*%
%LPC*%
G36*
X-26667Y280975D02*
X-26667Y280975D01*
X-29025Y283333D01*
X-29025Y286667D01*
X-26667Y289025D01*
X-23333Y289025D01*
X-20975Y286667D01*
X-20975Y283333D01*
X-23333Y280975D01*
X-26667Y280975D01*
G37*
%LPD*%
%LPC*%
G36*
X-132667Y277975D02*
X-132667Y277975D01*
X-135025Y280333D01*
X-135025Y283667D01*
X-132667Y286025D01*
X-129333Y286025D01*
X-126975Y283667D01*
X-126975Y280333D01*
X-129333Y277975D01*
X-132667Y277975D01*
G37*
%LPD*%
%LPC*%
G36*
X63333Y275975D02*
X63333Y275975D01*
X60975Y278333D01*
X60975Y281667D01*
X63333Y284025D01*
X66667Y284025D01*
X69025Y281667D01*
X69025Y278333D01*
X66667Y275975D01*
X63333Y275975D01*
G37*
%LPD*%
%LPC*%
G36*
X123782Y273204D02*
X123782Y273204D01*
X121425Y275562D01*
X121425Y278896D01*
X123782Y281254D01*
X127117Y281254D01*
X129474Y278896D01*
X129474Y275562D01*
X127117Y273204D01*
X123782Y273204D01*
G37*
%LPD*%
%LPC*%
G36*
X192333Y266975D02*
X192333Y266975D01*
X189975Y269333D01*
X189975Y272667D01*
X192333Y275025D01*
X195667Y275025D01*
X198025Y272667D01*
X198025Y269333D01*
X195667Y266975D01*
X192333Y266975D01*
G37*
%LPD*%
%LPC*%
G36*
X-65667Y255975D02*
X-65667Y255975D01*
X-68025Y258333D01*
X-68025Y261667D01*
X-65667Y264025D01*
X-62333Y264025D01*
X-59975Y261667D01*
X-59975Y258333D01*
X-62333Y255975D01*
X-65667Y255975D01*
G37*
%LPD*%
%LPC*%
G36*
X220333Y251975D02*
X220333Y251975D01*
X217975Y254333D01*
X217975Y257667D01*
X220333Y260025D01*
X223667Y260025D01*
X226025Y257667D01*
X226025Y254333D01*
X223667Y251975D01*
X220333Y251975D01*
G37*
%LPD*%
%LPC*%
G36*
X230035Y246975D02*
X230035Y246975D01*
X227677Y249333D01*
X227677Y252667D01*
X230035Y255025D01*
X233369Y255025D01*
X235727Y252667D01*
X235727Y249333D01*
X233369Y246975D01*
X230035Y246975D01*
G37*
%LPD*%
%LPC*%
G36*
X230035Y236975D02*
X230035Y236975D01*
X227677Y239333D01*
X227677Y242667D01*
X230035Y245025D01*
X233369Y245025D01*
X235727Y242667D01*
X235727Y239333D01*
X233369Y236975D01*
X230035Y236975D01*
G37*
%LPD*%
%LPC*%
G36*
X-210167Y233975D02*
X-210167Y233975D01*
X-212525Y236333D01*
X-212525Y239667D01*
X-210167Y242025D01*
X-206833Y242025D01*
X-204475Y239667D01*
X-204475Y236333D01*
X-206833Y233975D01*
X-210167Y233975D01*
G37*
%LPD*%
%LPC*%
G36*
X-261667Y230975D02*
X-261667Y230975D01*
X-264025Y233333D01*
X-264025Y236667D01*
X-261667Y239025D01*
X-258333Y239025D01*
X-255975Y236667D01*
X-255975Y233333D01*
X-258333Y230975D01*
X-261667Y230975D01*
G37*
%LPD*%
%LPC*%
G36*
X-94667Y213475D02*
X-94667Y213475D01*
X-97025Y215833D01*
X-97025Y219167D01*
X-94667Y221525D01*
X-91333Y221525D01*
X-88975Y219167D01*
X-88975Y215833D01*
X-91333Y213475D01*
X-94667Y213475D01*
G37*
%LPD*%
%LPC*%
G36*
X92333Y211975D02*
X92333Y211975D01*
X89975Y214333D01*
X89975Y217667D01*
X92333Y220025D01*
X95667Y220025D01*
X98025Y217667D01*
X98025Y214333D01*
X95667Y211975D01*
X92333Y211975D01*
G37*
%LPD*%
%LPC*%
G36*
X-61667Y195975D02*
X-61667Y195975D01*
X-64025Y198333D01*
X-64025Y201667D01*
X-61667Y204025D01*
X-58333Y204025D01*
X-55975Y201667D01*
X-55975Y198333D01*
X-58333Y195975D01*
X-61667Y195975D01*
G37*
%LPD*%
%LPC*%
G36*
X-188667Y179975D02*
X-188667Y179975D01*
X-191025Y182333D01*
X-191025Y185667D01*
X-188667Y188025D01*
X-185333Y188025D01*
X-182975Y185667D01*
X-182975Y182333D01*
X-185333Y179975D01*
X-188667Y179975D01*
G37*
%LPD*%
%LPC*%
G36*
X38333Y175975D02*
X38333Y175975D01*
X35975Y178333D01*
X35975Y181667D01*
X38333Y184025D01*
X41667Y184025D01*
X44025Y181667D01*
X44025Y178333D01*
X41667Y175975D01*
X38333Y175975D01*
G37*
%LPD*%
%LPC*%
G36*
X-146667Y170975D02*
X-146667Y170975D01*
X-149025Y173333D01*
X-149025Y176667D01*
X-146667Y179025D01*
X-143333Y179025D01*
X-140975Y176667D01*
X-140975Y173333D01*
X-143333Y170975D01*
X-146667Y170975D01*
G37*
%LPD*%
%LPC*%
G36*
X92333Y156975D02*
X92333Y156975D01*
X89975Y159333D01*
X89975Y162667D01*
X92333Y165025D01*
X95667Y165025D01*
X98025Y162667D01*
X98025Y159333D01*
X95667Y156975D01*
X92333Y156975D01*
G37*
%LPD*%
%LPC*%
G36*
X193333Y150975D02*
X193333Y150975D01*
X190975Y153333D01*
X190975Y156667D01*
X193333Y159025D01*
X196667Y159025D01*
X199025Y156667D01*
X199025Y153333D01*
X196667Y150975D01*
X193333Y150975D01*
G37*
%LPD*%
%LPC*%
G36*
X-31667Y145975D02*
X-31667Y145975D01*
X-34025Y148333D01*
X-34025Y151667D01*
X-31667Y154025D01*
X-28333Y154025D01*
X-25975Y151667D01*
X-25975Y148333D01*
X-28333Y145975D01*
X-31667Y145975D01*
G37*
%LPD*%
%LPC*%
G36*
X-226488Y140975D02*
X-226488Y140975D01*
X-228845Y143333D01*
X-228845Y146667D01*
X-226488Y149025D01*
X-223154Y149025D01*
X-220796Y146667D01*
X-220796Y143333D01*
X-223154Y140975D01*
X-226488Y140975D01*
G37*
%LPD*%
%LPC*%
G36*
X228333Y135975D02*
X228333Y135975D01*
X225975Y138333D01*
X225975Y141667D01*
X228333Y144025D01*
X231667Y144025D01*
X234025Y141667D01*
X234025Y138333D01*
X231667Y135975D01*
X228333Y135975D01*
G37*
%LPD*%
%LPC*%
G36*
X-217988Y133975D02*
X-217988Y133975D01*
X-220345Y136333D01*
X-220345Y139667D01*
X-217988Y142025D01*
X-214654Y142025D01*
X-212296Y139667D01*
X-212296Y136333D01*
X-214654Y133975D01*
X-217988Y133975D01*
G37*
%LPD*%
%LPC*%
G36*
X92333Y129975D02*
X92333Y129975D01*
X89975Y132333D01*
X89975Y135667D01*
X92333Y138025D01*
X95667Y138025D01*
X98025Y135667D01*
X98025Y132333D01*
X95667Y129975D01*
X92333Y129975D01*
G37*
%LPD*%
%LPC*%
G36*
X38333Y445975D02*
X38333Y445975D01*
X35975Y448333D01*
X35975Y451667D01*
X38333Y454025D01*
X41667Y454025D01*
X44025Y451667D01*
X44025Y448333D01*
X41667Y445975D01*
X38333Y445975D01*
G37*
%LPD*%
%LPC*%
G36*
X182333Y116975D02*
X182333Y116975D01*
X179975Y119333D01*
X179975Y122667D01*
X182333Y125025D01*
X185667Y125025D01*
X188025Y122667D01*
X188025Y119333D01*
X185667Y116975D01*
X182333Y116975D01*
G37*
%LPD*%
%LPC*%
G36*
X-36667Y115975D02*
X-36667Y115975D01*
X-39025Y118333D01*
X-39025Y121667D01*
X-36667Y124025D01*
X-33333Y124025D01*
X-30975Y121667D01*
X-30975Y118333D01*
X-33333Y115975D01*
X-36667Y115975D01*
G37*
%LPD*%
%LPC*%
G36*
X-170667Y111975D02*
X-170667Y111975D01*
X-173025Y114333D01*
X-173025Y117667D01*
X-170667Y120025D01*
X-167333Y120025D01*
X-164975Y117667D01*
X-164975Y114333D01*
X-167333Y111975D01*
X-170667Y111975D01*
G37*
%LPD*%
%LPC*%
G36*
X-246667Y108975D02*
X-246667Y108975D01*
X-249025Y111333D01*
X-249025Y114667D01*
X-246667Y117025D01*
X-243333Y117025D01*
X-240975Y114667D01*
X-240975Y111333D01*
X-243333Y108975D01*
X-246667Y108975D01*
G37*
%LPD*%
%LPC*%
G36*
X18671Y108975D02*
X18671Y108975D01*
X16313Y111333D01*
X16313Y114667D01*
X18671Y117025D01*
X22005Y117025D01*
X24363Y114667D01*
X24363Y111333D01*
X22005Y108975D01*
X18671Y108975D01*
G37*
%LPD*%
%LPC*%
G36*
X-45687Y105975D02*
X-45687Y105975D01*
X-48045Y108333D01*
X-48045Y111667D01*
X-45687Y114025D01*
X-42353Y114025D01*
X-39995Y111667D01*
X-39995Y108333D01*
X-42353Y105975D01*
X-45687Y105975D01*
G37*
%LPD*%
%LPC*%
G36*
X-85667Y102975D02*
X-85667Y102975D01*
X-88025Y105333D01*
X-88025Y108667D01*
X-85667Y111025D01*
X-82333Y111025D01*
X-79975Y108667D01*
X-79975Y105333D01*
X-82333Y102975D01*
X-85667Y102975D01*
G37*
%LPD*%
%LPC*%
G36*
X21333Y631975D02*
X21333Y631975D01*
X18975Y634333D01*
X18975Y637667D01*
X21333Y640025D01*
X24667Y640025D01*
X27025Y637667D01*
X27025Y634333D01*
X24667Y631975D01*
X21333Y631975D01*
G37*
%LPD*%
%LPC*%
G36*
X-251667Y630975D02*
X-251667Y630975D01*
X-254025Y633333D01*
X-254025Y636667D01*
X-251667Y639025D01*
X-248333Y639025D01*
X-245975Y636667D01*
X-245975Y633333D01*
X-248333Y630975D01*
X-251667Y630975D01*
G37*
%LPD*%
%LPC*%
G36*
X172333Y587475D02*
X172333Y587475D01*
X169975Y589833D01*
X169975Y593167D01*
X172333Y595525D01*
X175667Y595525D01*
X178025Y593167D01*
X178025Y589833D01*
X175667Y587475D01*
X172333Y587475D01*
G37*
%LPD*%
%LPC*%
G36*
X-148667Y583975D02*
X-148667Y583975D01*
X-151025Y586333D01*
X-151025Y589667D01*
X-148667Y592025D01*
X-145333Y592025D01*
X-142975Y589667D01*
X-142975Y586333D01*
X-145333Y583975D01*
X-148667Y583975D01*
G37*
%LPD*%
%LPC*%
G36*
X110333Y98975D02*
X110333Y98975D01*
X107975Y101333D01*
X107975Y104667D01*
X110333Y107025D01*
X113667Y107025D01*
X116025Y104667D01*
X116025Y101333D01*
X113667Y98975D01*
X110333Y98975D01*
G37*
%LPD*%
%LPC*%
G36*
X230333Y84975D02*
X230333Y84975D01*
X227975Y87333D01*
X227975Y90667D01*
X230333Y93025D01*
X233667Y93025D01*
X236025Y90667D01*
X236025Y87333D01*
X233667Y84975D01*
X230333Y84975D01*
G37*
%LPD*%
%LPC*%
G36*
X126333Y82975D02*
X126333Y82975D01*
X123975Y85333D01*
X123975Y88667D01*
X126333Y91025D01*
X129667Y91025D01*
X132025Y88667D01*
X132025Y85333D01*
X129667Y82975D01*
X126333Y82975D01*
G37*
%LPD*%
%LPC*%
G36*
X139603Y80975D02*
X139603Y80975D01*
X137245Y83333D01*
X137245Y86667D01*
X139603Y89025D01*
X142937Y89025D01*
X145295Y86667D01*
X145295Y83333D01*
X142937Y80975D01*
X139603Y80975D01*
G37*
%LPD*%
%LPC*%
G36*
X-184667Y565975D02*
X-184667Y565975D01*
X-187025Y568333D01*
X-187025Y571667D01*
X-184667Y574025D01*
X-181333Y574025D01*
X-178975Y571667D01*
X-178975Y568333D01*
X-181333Y565975D01*
X-184667Y565975D01*
G37*
%LPD*%
%LPC*%
G36*
X214333Y563975D02*
X214333Y563975D01*
X211975Y566333D01*
X211975Y569667D01*
X214333Y572025D01*
X217667Y572025D01*
X220025Y569667D01*
X220025Y566333D01*
X217667Y563975D01*
X214333Y563975D01*
G37*
%LPD*%
%LPC*%
G36*
X18333Y560975D02*
X18333Y560975D01*
X15975Y563333D01*
X15975Y566667D01*
X18333Y569025D01*
X21667Y569025D01*
X24025Y566667D01*
X24025Y563333D01*
X21667Y560975D01*
X18333Y560975D01*
G37*
%LPD*%
%LPC*%
G36*
X170833Y541475D02*
X170833Y541475D01*
X168475Y543833D01*
X168475Y547167D01*
X170833Y549525D01*
X174167Y549525D01*
X176525Y547167D01*
X176525Y543833D01*
X174167Y541475D01*
X170833Y541475D01*
G37*
%LPD*%
%LPC*%
G36*
X-244897Y71975D02*
X-244897Y71975D01*
X-247255Y74333D01*
X-247255Y77667D01*
X-244897Y80025D01*
X-241563Y80025D01*
X-239205Y77667D01*
X-239205Y74333D01*
X-241563Y71975D01*
X-244897Y71975D01*
G37*
%LPD*%
%LPC*%
G36*
X223333Y60975D02*
X223333Y60975D01*
X220975Y63333D01*
X220975Y66667D01*
X223333Y69025D01*
X226667Y69025D01*
X229025Y66667D01*
X229025Y63333D01*
X226667Y60975D01*
X223333Y60975D01*
G37*
%LPD*%
%LPC*%
G36*
X-39667Y58975D02*
X-39667Y58975D01*
X-42025Y61333D01*
X-42025Y64667D01*
X-39667Y67025D01*
X-36333Y67025D01*
X-33975Y64667D01*
X-33975Y61333D01*
X-36333Y58975D01*
X-39667Y58975D01*
G37*
%LPD*%
%LPC*%
G36*
X-160667Y118975D02*
X-160667Y118975D01*
X-163025Y121333D01*
X-163025Y124667D01*
X-160667Y127025D01*
X-157333Y127025D01*
X-154975Y124667D01*
X-154975Y121333D01*
X-157333Y118975D01*
X-160667Y118975D01*
G37*
%LPD*%
%LPC*%
G36*
X21671Y50975D02*
X21671Y50975D01*
X19313Y53333D01*
X19313Y56667D01*
X21671Y59025D01*
X25005Y59025D01*
X27363Y56667D01*
X27363Y53333D01*
X25005Y50975D01*
X21671Y50975D01*
G37*
%LPD*%
%LPC*%
G36*
X-151667Y540975D02*
X-151667Y540975D01*
X-154025Y543333D01*
X-154025Y546667D01*
X-151667Y549025D01*
X-148333Y549025D01*
X-145975Y546667D01*
X-145975Y543333D01*
X-148333Y540975D01*
X-151667Y540975D01*
G37*
%LPD*%
%LPC*%
G36*
X-251667Y540975D02*
X-251667Y540975D01*
X-254025Y543333D01*
X-254025Y546667D01*
X-251667Y549025D01*
X-248333Y549025D01*
X-245975Y546667D01*
X-245975Y543333D01*
X-248333Y540975D01*
X-251667Y540975D01*
G37*
%LPD*%
%LPC*%
G36*
X11333Y538475D02*
X11333Y538475D01*
X8975Y540833D01*
X8975Y544167D01*
X11333Y546525D01*
X14667Y546525D01*
X17025Y544167D01*
X17025Y540833D01*
X14667Y538475D01*
X11333Y538475D01*
G37*
%LPD*%
%LPC*%
G36*
X-39667Y528475D02*
X-39667Y528475D01*
X-42025Y530833D01*
X-42025Y534167D01*
X-39667Y536525D01*
X-36333Y536525D01*
X-33975Y534167D01*
X-33975Y530833D01*
X-36333Y528475D01*
X-39667Y528475D01*
G37*
%LPD*%
%LPC*%
G36*
X-244897Y46975D02*
X-244897Y46975D01*
X-247255Y49333D01*
X-247255Y52667D01*
X-244897Y55025D01*
X-241563Y55025D01*
X-239205Y52667D01*
X-239205Y49333D01*
X-241563Y46975D01*
X-244897Y46975D01*
G37*
%LPD*%
%LPC*%
G36*
X-28477Y46165D02*
X-28477Y46165D01*
X-30835Y48523D01*
X-30835Y51857D01*
X-28477Y54215D01*
X-25143Y54215D01*
X-22785Y51857D01*
X-22785Y48523D01*
X-25143Y46165D01*
X-28477Y46165D01*
G37*
%LPD*%
%LPC*%
G36*
X130333Y41975D02*
X130333Y41975D01*
X127975Y44333D01*
X127975Y47667D01*
X130333Y50025D01*
X133667Y50025D01*
X136025Y47667D01*
X136025Y44333D01*
X133667Y41975D01*
X130333Y41975D01*
G37*
%LPD*%
%LPC*%
G36*
X59995Y39975D02*
X59995Y39975D01*
X57637Y42333D01*
X57637Y45667D01*
X59995Y48025D01*
X63329Y48025D01*
X65687Y45667D01*
X65687Y42333D01*
X63329Y39975D01*
X59995Y39975D01*
G37*
%LPD*%
%LPC*%
G36*
X101153Y33495D02*
X101153Y33495D01*
X98796Y35853D01*
X98796Y39187D01*
X101153Y41545D01*
X104488Y41545D01*
X106845Y39187D01*
X106845Y35853D01*
X104488Y33495D01*
X101153Y33495D01*
G37*
%LPD*%
%LPC*%
G36*
X-62667Y29475D02*
X-62667Y29475D01*
X-65025Y31833D01*
X-65025Y35167D01*
X-62667Y37525D01*
X-59333Y37525D01*
X-56975Y35167D01*
X-56975Y31833D01*
X-59333Y29475D01*
X-62667Y29475D01*
G37*
%LPD*%
%LPC*%
G36*
X89479Y29121D02*
X89479Y29121D01*
X87121Y31479D01*
X87121Y34813D01*
X89479Y37171D01*
X92813Y37171D01*
X95171Y34813D01*
X95171Y31479D01*
X92813Y29121D01*
X89479Y29121D01*
G37*
%LPD*%
%LPC*%
G36*
X146333Y523475D02*
X146333Y523475D01*
X143975Y525833D01*
X143975Y529167D01*
X146333Y531525D01*
X149667Y531525D01*
X152025Y529167D01*
X152025Y525833D01*
X149667Y523475D01*
X146333Y523475D01*
G37*
%LPD*%
%LPC*%
G36*
X212833Y513975D02*
X212833Y513975D01*
X210475Y516333D01*
X210475Y519667D01*
X212833Y522025D01*
X216167Y522025D01*
X218525Y519667D01*
X218525Y516333D01*
X216167Y513975D01*
X212833Y513975D01*
G37*
%LPD*%
%LPC*%
G36*
X41333Y508475D02*
X41333Y508475D01*
X38975Y510833D01*
X38975Y514167D01*
X41333Y516525D01*
X44667Y516525D01*
X47025Y514167D01*
X47025Y510833D01*
X44667Y508475D01*
X41333Y508475D01*
G37*
%LPD*%
%LPC*%
G36*
X111333Y508475D02*
X111333Y508475D01*
X108975Y510833D01*
X108975Y514167D01*
X111333Y516525D01*
X114667Y516525D01*
X117025Y514167D01*
X117025Y510833D01*
X114667Y508475D01*
X111333Y508475D01*
G37*
%LPD*%
%LPC*%
G36*
X46833Y15975D02*
X46833Y15975D01*
X44475Y18333D01*
X44475Y21667D01*
X46833Y24025D01*
X50167Y24025D01*
X52525Y21667D01*
X52525Y18333D01*
X50167Y15975D01*
X46833Y15975D01*
G37*
%LPD*%
%LPC*%
G36*
X-21667Y15975D02*
X-21667Y15975D01*
X-24025Y18333D01*
X-24025Y21667D01*
X-21667Y24025D01*
X-18333Y24025D01*
X-15975Y21667D01*
X-15975Y18333D01*
X-18333Y15975D01*
X-21667Y15975D01*
G37*
%LPD*%
%LPC*%
G36*
X-161667Y10475D02*
X-161667Y10475D01*
X-164025Y12833D01*
X-164025Y16167D01*
X-161667Y18525D01*
X-158333Y18525D01*
X-155975Y16167D01*
X-155975Y12833D01*
X-158333Y10475D01*
X-161667Y10475D01*
G37*
%LPD*%
%LPC*%
G36*
X-176667Y5975D02*
X-176667Y5975D01*
X-179025Y8333D01*
X-179025Y11667D01*
X-176667Y14025D01*
X-173333Y14025D01*
X-170975Y11667D01*
X-170975Y8333D01*
X-173333Y5975D01*
X-176667Y5975D01*
G37*
%LPD*%
%LPC*%
G36*
X11333Y498475D02*
X11333Y498475D01*
X8975Y500833D01*
X8975Y504167D01*
X11333Y506525D01*
X14667Y506525D01*
X17025Y504167D01*
X17025Y500833D01*
X14667Y498475D01*
X11333Y498475D01*
G37*
%LPD*%
%LPC*%
G36*
X-261667Y475975D02*
X-261667Y475975D01*
X-264025Y478333D01*
X-264025Y481667D01*
X-261667Y484025D01*
X-258333Y484025D01*
X-255975Y481667D01*
X-255975Y478333D01*
X-258333Y475975D01*
X-261667Y475975D01*
G37*
%LPD*%
%LPC*%
G36*
X-141667Y475975D02*
X-141667Y475975D01*
X-144025Y478333D01*
X-144025Y481667D01*
X-141667Y484025D01*
X-138333Y484025D01*
X-135975Y481667D01*
X-135975Y478333D01*
X-138333Y475975D01*
X-141667Y475975D01*
G37*
%LPD*%
%LPC*%
G36*
X248333Y445975D02*
X248333Y445975D01*
X245975Y448333D01*
X245975Y451667D01*
X248333Y454025D01*
X251667Y454025D01*
X254025Y451667D01*
X254025Y448333D01*
X251667Y445975D01*
X248333Y445975D01*
G37*
%LPD*%
%LPC*%
G36*
X98333Y445975D02*
X98333Y445975D01*
X95975Y448333D01*
X95975Y451667D01*
X98333Y454025D01*
X101667Y454025D01*
X104025Y451667D01*
X104025Y448333D01*
X101667Y445975D01*
X98333Y445975D01*
G37*
%LPD*%
%LPC*%
G36*
X-51667Y445975D02*
X-51667Y445975D01*
X-54025Y448333D01*
X-54025Y451667D01*
X-51667Y454025D01*
X-48333Y454025D01*
X-45975Y451667D01*
X-45975Y448333D01*
X-48333Y445975D01*
X-51667Y445975D01*
G37*
%LPD*%
%LPC*%
G36*
X74333Y-14025D02*
X74333Y-14025D01*
X71975Y-11667D01*
X71975Y-8333D01*
X74333Y-5975D01*
X77667Y-5975D01*
X80025Y-8333D01*
X80025Y-11667D01*
X77667Y-14025D01*
X74333Y-14025D01*
G37*
%LPD*%
%LPC*%
G36*
X96333Y-14525D02*
X96333Y-14525D01*
X93975Y-12167D01*
X93975Y-8833D01*
X96333Y-6475D01*
X99667Y-6475D01*
X102025Y-8833D01*
X102025Y-12167D01*
X99667Y-14525D01*
X96333Y-14525D01*
G37*
%LPD*%
%LPC*%
G36*
X153333Y420975D02*
X153333Y420975D01*
X150975Y423333D01*
X150975Y426667D01*
X153333Y429025D01*
X156667Y429025D01*
X159025Y426667D01*
X159025Y423333D01*
X156667Y420975D01*
X153333Y420975D01*
G37*
%LPD*%
%LPC*%
G36*
X-201667Y410975D02*
X-201667Y410975D01*
X-204025Y413333D01*
X-204025Y416667D01*
X-201667Y419025D01*
X-198333Y419025D01*
X-195975Y416667D01*
X-195975Y413333D01*
X-198333Y410975D01*
X-201667Y410975D01*
G37*
%LPD*%
%LPC*%
G36*
X-151667Y400975D02*
X-151667Y400975D01*
X-154025Y403333D01*
X-154025Y406667D01*
X-151667Y409025D01*
X-148333Y409025D01*
X-145975Y406667D01*
X-145975Y403333D01*
X-148333Y400975D01*
X-151667Y400975D01*
G37*
%LPD*%
%LPC*%
G36*
X-174123Y388519D02*
X-174123Y388519D01*
X-176481Y390877D01*
X-176481Y394211D01*
X-174123Y396569D01*
X-170789Y396569D01*
X-168431Y394211D01*
X-168431Y390877D01*
X-170789Y388519D01*
X-174123Y388519D01*
G37*
%LPD*%
%LPC*%
G36*
X106853Y-25525D02*
X106853Y-25525D01*
X104495Y-23167D01*
X104495Y-19833D01*
X106853Y-17475D01*
X110187Y-17475D01*
X112545Y-19833D01*
X112545Y-23167D01*
X110187Y-25525D01*
X106853Y-25525D01*
G37*
%LPD*%
%LPC*%
G36*
X-121667Y-29025D02*
X-121667Y-29025D01*
X-124025Y-26667D01*
X-124025Y-23333D01*
X-121667Y-20975D01*
X-118333Y-20975D01*
X-115975Y-23333D01*
X-115975Y-26667D01*
X-118333Y-29025D01*
X-121667Y-29025D01*
G37*
%LPD*%
%LPC*%
G36*
X111853Y-34525D02*
X111853Y-34525D01*
X109495Y-32167D01*
X109495Y-28833D01*
X111853Y-26475D01*
X115187Y-26475D01*
X117545Y-28833D01*
X117545Y-32167D01*
X115187Y-34525D01*
X111853Y-34525D01*
G37*
%LPD*%
%LPC*%
G36*
X-261667Y385975D02*
X-261667Y385975D01*
X-264025Y388333D01*
X-264025Y391667D01*
X-261667Y394025D01*
X-258333Y394025D01*
X-255975Y391667D01*
X-255975Y388333D01*
X-258333Y385975D01*
X-261667Y385975D01*
G37*
%LPD*%
%LPC*%
G36*
X98333Y385975D02*
X98333Y385975D01*
X95975Y388333D01*
X95975Y391667D01*
X98333Y394025D01*
X101667Y394025D01*
X104025Y391667D01*
X104025Y388333D01*
X101667Y385975D01*
X98333Y385975D01*
G37*
%LPD*%
%LPC*%
G36*
X208333Y375975D02*
X208333Y375975D01*
X205975Y378333D01*
X205975Y381667D01*
X208333Y384025D01*
X211667Y384025D01*
X214025Y381667D01*
X214025Y378333D01*
X211667Y375975D01*
X208333Y375975D01*
G37*
%LPD*%
%LPC*%
G36*
X80333Y367975D02*
X80333Y367975D01*
X77975Y370333D01*
X77975Y373667D01*
X80333Y376025D01*
X83667Y376025D01*
X86025Y373667D01*
X86025Y370333D01*
X83667Y367975D01*
X80333Y367975D01*
G37*
%LPD*%
%LPC*%
G36*
X78333Y357975D02*
X78333Y357975D01*
X75975Y360333D01*
X75975Y363667D01*
X78333Y366025D01*
X81667Y366025D01*
X84025Y363667D01*
X84025Y360333D01*
X81667Y357975D01*
X78333Y357975D01*
G37*
%LPD*%
%LPC*%
G36*
X-6838Y357825D02*
X-6838Y357825D01*
X-9196Y360183D01*
X-9196Y363517D01*
X-6838Y365875D01*
X-3504Y365875D01*
X-1146Y363517D01*
X-1146Y360183D01*
X-3504Y357825D01*
X-6838Y357825D01*
G37*
%LPD*%
%LPC*%
G36*
X-261667Y345975D02*
X-261667Y345975D01*
X-264025Y348333D01*
X-264025Y351667D01*
X-261667Y354025D01*
X-258333Y354025D01*
X-255975Y351667D01*
X-255975Y348333D01*
X-258333Y345975D01*
X-261667Y345975D01*
G37*
%LPD*%
%LPC*%
G36*
X-236667Y345975D02*
X-236667Y345975D01*
X-239025Y348333D01*
X-239025Y351667D01*
X-236667Y354025D01*
X-233333Y354025D01*
X-230975Y351667D01*
X-230975Y348333D01*
X-233333Y345975D01*
X-236667Y345975D01*
G37*
%LPD*%
%LPC*%
G36*
X-179667Y345975D02*
X-179667Y345975D01*
X-182025Y348333D01*
X-182025Y351667D01*
X-179667Y354025D01*
X-176333Y354025D01*
X-173975Y351667D01*
X-173975Y348333D01*
X-176333Y345975D01*
X-179667Y345975D01*
G37*
%LPD*%
%LPC*%
G36*
X243333Y-58025D02*
X243333Y-58025D01*
X240975Y-55667D01*
X240975Y-52333D01*
X243333Y-49975D01*
X246667Y-49975D01*
X249025Y-52333D01*
X249025Y-55667D01*
X246667Y-58025D01*
X243333Y-58025D01*
G37*
%LPD*%
%LPC*%
G36*
X-251667Y-64025D02*
X-251667Y-64025D01*
X-254025Y-61667D01*
X-254025Y-58333D01*
X-251667Y-55975D01*
X-248333Y-55975D01*
X-245975Y-58333D01*
X-245975Y-61667D01*
X-248333Y-64025D01*
X-251667Y-64025D01*
G37*
%LPD*%
%LPC*%
G36*
X-176667Y-69025D02*
X-176667Y-69025D01*
X-179025Y-66667D01*
X-179025Y-63333D01*
X-176667Y-60975D01*
X-173333Y-60975D01*
X-170975Y-63333D01*
X-170975Y-66667D01*
X-173333Y-69025D01*
X-176667Y-69025D01*
G37*
%LPD*%
%LPC*%
G36*
X226833Y-71025D02*
X226833Y-71025D01*
X224475Y-68667D01*
X224475Y-65333D01*
X226833Y-62975D01*
X230167Y-62975D01*
X232525Y-65333D01*
X232525Y-68667D01*
X230167Y-71025D01*
X226833Y-71025D01*
G37*
%LPD*%
%LPC*%
G36*
X63333Y345975D02*
X63333Y345975D01*
X60975Y348333D01*
X60975Y351667D01*
X63333Y354025D01*
X66667Y354025D01*
X69025Y351667D01*
X69025Y348333D01*
X66667Y345975D01*
X63333Y345975D01*
G37*
%LPD*%
%LPC*%
G36*
X106333Y342975D02*
X106333Y342975D01*
X103975Y345333D01*
X103975Y348667D01*
X106333Y351025D01*
X109667Y351025D01*
X112025Y348667D01*
X112025Y345333D01*
X109667Y342975D01*
X106333Y342975D01*
G37*
%LPD*%
%LPC*%
G36*
X-151667Y340975D02*
X-151667Y340975D01*
X-154025Y343333D01*
X-154025Y346667D01*
X-151667Y349025D01*
X-148333Y349025D01*
X-145975Y346667D01*
X-145975Y343333D01*
X-148333Y340975D01*
X-151667Y340975D01*
G37*
%LPD*%
%LPC*%
G36*
X-191667Y335975D02*
X-191667Y335975D01*
X-194025Y338333D01*
X-194025Y341667D01*
X-191667Y344025D01*
X-188333Y344025D01*
X-185975Y341667D01*
X-185975Y338333D01*
X-188333Y335975D01*
X-191667Y335975D01*
G37*
%LPD*%
%LPC*%
G36*
X-127667Y332975D02*
X-127667Y332975D01*
X-130025Y335333D01*
X-130025Y338667D01*
X-127667Y341025D01*
X-124333Y341025D01*
X-121975Y338667D01*
X-121975Y335333D01*
X-124333Y332975D01*
X-127667Y332975D01*
G37*
%LPD*%
%LPC*%
G36*
X258333Y331975D02*
X258333Y331975D01*
X255975Y334333D01*
X255975Y337667D01*
X258333Y340025D01*
X261667Y340025D01*
X264025Y337667D01*
X264025Y334333D01*
X261667Y331975D01*
X258333Y331975D01*
G37*
%LPD*%
%LPC*%
G36*
X-27667Y323975D02*
X-27667Y323975D01*
X-30025Y326333D01*
X-30025Y329667D01*
X-27667Y332025D01*
X-24333Y332025D01*
X-21975Y329667D01*
X-21975Y326333D01*
X-24333Y323975D01*
X-27667Y323975D01*
G37*
%LPD*%
%LPC*%
G36*
X-131667Y-79025D02*
X-131667Y-79025D01*
X-134025Y-76667D01*
X-134025Y-73333D01*
X-131667Y-70975D01*
X-128333Y-70975D01*
X-125975Y-73333D01*
X-125975Y-76667D01*
X-128333Y-79025D01*
X-131667Y-79025D01*
G37*
%LPD*%
%LPC*%
G36*
X-234667Y-93025D02*
X-234667Y-93025D01*
X-237025Y-90667D01*
X-237025Y-87333D01*
X-234667Y-84975D01*
X-231333Y-84975D01*
X-228975Y-87333D01*
X-228975Y-90667D01*
X-231333Y-93025D01*
X-234667Y-93025D01*
G37*
%LPD*%
%LPC*%
G36*
X-163667Y-95025D02*
X-163667Y-95025D01*
X-166025Y-92667D01*
X-166025Y-89333D01*
X-163667Y-86975D01*
X-160333Y-86975D01*
X-157975Y-89333D01*
X-157975Y-92667D01*
X-160333Y-95025D01*
X-163667Y-95025D01*
G37*
%LPD*%
%LPC*%
G36*
X82583Y319975D02*
X82583Y319975D01*
X80225Y322333D01*
X80225Y325667D01*
X82583Y328025D01*
X85917Y328025D01*
X88275Y325667D01*
X88275Y322333D01*
X85917Y319975D01*
X82583Y319975D01*
G37*
%LPD*%
%LPC*%
G36*
X-181667Y315975D02*
X-181667Y315975D01*
X-184025Y318333D01*
X-184025Y321667D01*
X-181667Y324025D01*
X-178333Y324025D01*
X-175975Y321667D01*
X-175975Y318333D01*
X-178333Y315975D01*
X-181667Y315975D01*
G37*
%LPD*%
%LPC*%
G36*
X-173667Y306975D02*
X-173667Y306975D01*
X-176025Y309333D01*
X-176025Y312667D01*
X-173667Y315025D01*
X-170333Y315025D01*
X-167975Y312667D01*
X-167975Y309333D01*
X-170333Y306975D01*
X-173667Y306975D01*
G37*
%LPD*%
%LPC*%
G36*
X-173667Y296975D02*
X-173667Y296975D01*
X-176025Y299333D01*
X-176025Y302667D01*
X-173667Y305025D01*
X-170333Y305025D01*
X-167975Y302667D01*
X-167975Y299333D01*
X-170333Y296975D01*
X-173667Y296975D01*
G37*
%LPD*%
%LPC*%
G36*
X164333Y295655D02*
X164333Y295655D01*
X161975Y298012D01*
X161975Y301346D01*
X164333Y303704D01*
X167667Y303704D01*
X170025Y301346D01*
X170025Y298012D01*
X167667Y295655D01*
X164333Y295655D01*
G37*
%LPD*%
%LPC*%
G36*
X85833Y-103981D02*
X85833Y-103981D01*
X83475Y-101623D01*
X83475Y-98289D01*
X85833Y-95931D01*
X89167Y-95931D01*
X91525Y-98289D01*
X91525Y-101623D01*
X89167Y-103981D01*
X85833Y-103981D01*
G37*
%LPD*%
%LPC*%
G36*
X258333Y-117025D02*
X258333Y-117025D01*
X255975Y-114667D01*
X255975Y-111333D01*
X258333Y-108975D01*
X261667Y-108975D01*
X264025Y-111333D01*
X264025Y-114667D01*
X261667Y-117025D01*
X258333Y-117025D01*
G37*
%LPD*%
%LPC*%
G36*
X-48167Y-132525D02*
X-48167Y-132525D01*
X-50525Y-130167D01*
X-50525Y-126833D01*
X-48167Y-124475D01*
X-44833Y-124475D01*
X-42475Y-126833D01*
X-42475Y-130167D01*
X-44833Y-132525D01*
X-48167Y-132525D01*
G37*
%LPD*%
%LPC*%
G36*
X12333Y-140025D02*
X12333Y-140025D01*
X9975Y-137667D01*
X9975Y-134333D01*
X12333Y-131975D01*
X15667Y-131975D01*
X18025Y-134333D01*
X18025Y-137667D01*
X15667Y-140025D01*
X12333Y-140025D01*
G37*
%LPD*%
%LPC*%
G36*
X-251667Y-144025D02*
X-251667Y-144025D01*
X-254025Y-141667D01*
X-254025Y-138333D01*
X-251667Y-135975D01*
X-248333Y-135975D01*
X-245975Y-138333D01*
X-245975Y-141667D01*
X-248333Y-144025D01*
X-251667Y-144025D01*
G37*
%LPD*%
%LPC*%
G36*
X248333Y-154025D02*
X248333Y-154025D01*
X245975Y-151667D01*
X245975Y-148333D01*
X248333Y-145975D01*
X251667Y-145975D01*
X254025Y-148333D01*
X254025Y-151667D01*
X251667Y-154025D01*
X248333Y-154025D01*
G37*
%LPD*%
%LPC*%
G36*
X148333Y-154025D02*
X148333Y-154025D01*
X145975Y-151667D01*
X145975Y-148333D01*
X148333Y-145975D01*
X151667Y-145975D01*
X154025Y-148333D01*
X154025Y-151667D01*
X151667Y-154025D01*
X148333Y-154025D01*
G37*
%LPD*%
%LPC*%
G36*
X-171667Y-154025D02*
X-171667Y-154025D01*
X-174025Y-151667D01*
X-174025Y-148333D01*
X-171667Y-145975D01*
X-168333Y-145975D01*
X-165975Y-148333D01*
X-165975Y-151667D01*
X-168333Y-154025D01*
X-171667Y-154025D01*
G37*
%LPD*%
%LPC*%
G36*
X103333Y-25D02*
X103333Y-25D01*
X100975Y2333D01*
X100975Y5667D01*
X103333Y8025D01*
X106667Y8025D01*
X109025Y5667D01*
X109025Y2333D01*
X106667Y-25D01*
X103333Y-25D01*
G37*
%LPD*%
%LPC*%
G36*
X1444Y351087D02*
X1444Y351087D01*
X-913Y353444D01*
X-913Y356779D01*
X1444Y359136D01*
X4779Y359136D01*
X7136Y356779D01*
X7136Y353444D01*
X4779Y351087D01*
X1444Y351087D01*
G37*
%LPD*%
%LPC*%
G36*
X-1667Y29475D02*
X-1667Y29475D01*
X-4025Y31833D01*
X-4025Y35167D01*
X-1667Y37525D01*
X1667Y37525D01*
X4025Y35167D01*
X4025Y31833D01*
X1667Y29475D01*
X-1667Y29475D01*
G37*
%LPD*%
%LPC*%
G36*
X46833Y-4025D02*
X46833Y-4025D01*
X44475Y-1667D01*
X44475Y1667D01*
X46833Y4025D01*
X50167Y4025D01*
X52525Y1667D01*
X52525Y-1667D01*
X50167Y-4025D01*
X46833Y-4025D01*
G37*
%LPD*%
%LPC*%
G36*
X155333Y-4025D02*
X155333Y-4025D01*
X152975Y-1667D01*
X152975Y1667D01*
X155333Y4025D01*
X158667Y4025D01*
X161025Y1667D01*
X161025Y-1667D01*
X158667Y-4025D01*
X155333Y-4025D01*
G37*
%LPD*%
D10*
X50800Y377300D03*
X50800Y402700D03*
X25400Y377300D03*
X25400Y402700D03*
X0Y377300D03*
X0Y402700D03*
X-25400Y377300D03*
X-25400Y402700D03*
X-50800Y377300D03*
X-50800Y402700D03*
X88900Y-72700D03*
X88900Y-47300D03*
X63500Y-72700D03*
X63500Y-47300D03*
X38100Y-72700D03*
X38100Y-47300D03*
X12700Y-72700D03*
X12700Y-47300D03*
X-12700Y-72700D03*
X-12700Y-47300D03*
X-38100Y-72700D03*
X-38100Y-47300D03*
X-63500Y-72700D03*
X-63500Y-47300D03*
X-88900Y-72700D03*
X-88900Y-47300D03*
D11*
X245000Y612500D03*
X232554Y612500D03*
X220108Y612500D03*
X207408Y612500D03*
D12*
X222000Y256000D03*
X94000Y216000D03*
X94000Y161000D03*
X-84000Y107000D03*
X-93000Y217500D03*
X-16000Y293000D03*
X34000Y293000D03*
X94000Y281000D03*
X232000Y89000D03*
X195000Y155000D03*
X-26000Y328000D03*
X-93000Y135000D03*
X194000Y271000D03*
X260000Y336000D03*
X-245000Y113000D03*
X-46500Y-128500D03*
X112000Y103000D03*
X14000Y-136000D03*
X216000Y568000D03*
X148000Y527500D03*
X113000Y512500D03*
X43000Y512500D03*
X13000Y542500D03*
X108000Y347000D03*
X-159000Y123000D03*
X94000Y134000D03*
X-94000Y319000D03*
X-187000Y184000D03*
X184000Y121000D03*
X141270Y85000D03*
X-160000Y14500D03*
X135000Y4000D03*
X-230000Y285000D03*
X-208500Y238000D03*
X216100Y-114000D03*
X185000Y-115000D03*
X-26810Y50190D03*
X174000Y591500D03*
X172500Y545500D03*
X23000Y636000D03*
X13000Y502500D03*
X-260000Y390000D03*
X-150000Y405000D03*
X-250000Y545000D03*
X-150000Y545000D03*
X-250000Y635000D03*
X23338Y55000D03*
X105000Y4000D03*
X75000Y4000D03*
X48500Y20000D03*
X-75000Y-18000D03*
X48500Y0D03*
X102820Y37520D03*
X132000Y46000D03*
X61662Y44000D03*
X-233000Y-89000D03*
X-190000Y340000D03*
X-260000Y350000D03*
X-235000Y350000D03*
X-140000Y480000D03*
X-260000Y480000D03*
X-50000Y450000D03*
X40000Y450000D03*
X100000Y450000D03*
X100000Y390000D03*
X155000Y425000D03*
X210000Y380000D03*
X250000Y450000D03*
X40000Y180000D03*
X-60000Y200000D03*
X10000Y260000D03*
X-30000Y150000D03*
X230000Y140000D03*
X150000Y-150000D03*
X250000Y-150000D03*
X-170000Y-150000D03*
X-250000Y-140000D03*
X-250000Y-60000D03*
X-120000Y-25000D03*
X-130000Y-75000D03*
X-260000Y235000D03*
X-93000Y227500D03*
X-90279Y142500D03*
X-137000Y168000D03*
X254000Y238000D03*
X94020Y289500D03*
X-40000Y-110000D03*
X-75500Y107000D03*
X94650Y84000D03*
X94000Y169500D03*
X25500Y293000D03*
X-24500Y293000D03*
X-94000Y309000D03*
X-94000Y260000D03*
X93000Y512500D03*
X-186000Y140000D03*
X-240000Y163000D03*
X-187000Y206000D03*
X2500Y648000D03*
X-500Y41500D03*
X-108000Y31000D03*
X42000Y50000D03*
X31500Y18500D03*
X12000Y30000D03*
X-75000Y18000D03*
X-75000Y-100000D03*
X-55000Y-95000D03*
X20000Y220000D03*
X20000Y135000D03*
X-60000Y170000D03*
X122500Y-100000D03*
X-136000Y142000D03*
X-162000Y-91000D03*
X95000Y272500D03*
X-172000Y301000D03*
X3112Y355112D03*
X84250Y324000D03*
X-172000Y311000D03*
X-5171Y361850D03*
X79799Y291520D03*
X-25000Y285000D03*
X65000Y280000D03*
X231702Y251000D03*
X-35000Y120000D03*
X125450Y277229D03*
X174000Y271179D03*
X131950Y286170D03*
X174000Y279679D03*
X80000Y362000D03*
X80000Y335000D03*
X71500Y335721D03*
X82000Y372000D03*
X-172000Y291000D03*
X231702Y241000D03*
X-44020Y110000D03*
X-131000Y282000D03*
X-169000Y116000D03*
X-145000Y175000D03*
X-55000Y294544D03*
X-64000Y260000D03*
X-38000Y63000D03*
X-20000Y20000D03*
X65000Y350000D03*
X65000Y330000D03*
X-172456Y392544D03*
X-183000Y570000D03*
X-150000Y345000D03*
X-180000Y320000D03*
X-178000Y350000D03*
X-200000Y415000D03*
X214500Y518000D03*
X260000Y-113000D03*
D13*
X177000Y234000D02*
X177000Y244000D01*
X170500Y250500D02*
X-43500Y250500D01*
X170500Y250500D02*
X177000Y244000D01*
D12*
X177000Y234000D03*
D13*
X-55400Y-30000D02*
X-38100Y-47300D01*
X-55400Y-30000D02*
X-80000Y-30000D01*
X-128000Y18000D01*
X-128000Y113500D01*
X-114500Y127000D01*
X-114500Y179500D01*
X-43500Y250500D01*
D12*
X165000Y240000D03*
D13*
X-40500Y-19500D02*
X-12700Y-47300D01*
X-40500Y-19500D02*
X-57000Y-19500D01*
X-69500Y-7000D01*
X-87350Y-7000D01*
X-117000Y22650D01*
X-103000Y122500D02*
X-103000Y176000D01*
X-39000Y240000D01*
X-117000Y108500D02*
X-117000Y22650D01*
X-117000Y108500D02*
X-103000Y122500D01*
X-39000Y240000D02*
X165000Y240000D01*
D12*
X-38000Y532500D03*
X17322Y290000D03*
X-216321Y138000D03*
X-175000Y-65000D03*
X-224821Y145000D03*
X-175000Y10000D03*
X133520Y-76000D03*
D14*
X121520Y-88000D01*
X25432Y-60032D02*
X12700Y-47300D01*
X25432Y-60032D02*
X25432Y-77947D01*
X35485Y-88000D01*
X121520Y-88000D01*
D12*
X98000Y-10500D03*
X108520Y-21500D03*
X87500Y-99956D03*
X113520Y-30500D03*
X30000Y-35000D03*
X67500Y-1500D03*
X76000Y-10000D03*
X20338Y113000D03*
X50000Y50000D03*
X42000Y111000D03*
X54000Y58000D03*
X50000Y110000D03*
X91146Y33146D03*
X0Y33500D03*
X-61000Y33500D03*
X143480Y299701D03*
X166000Y299679D03*
X137960Y292181D03*
X174000Y292179D03*
X245000Y-54000D03*
X-243230Y51000D03*
D13*
X-105000Y-56600D02*
X-88900Y-72700D01*
X-105000Y400000D02*
X-85000Y420000D01*
X33500Y420000D01*
X50800Y402700D01*
X-105000Y-20500D02*
X-105000Y-56600D01*
X-105000Y-20500D02*
X-139500Y14000D01*
X-139500Y117500D01*
X-125500Y131500D01*
X-105000Y290000D02*
X-105000Y400000D01*
X-125500Y269500D02*
X-125500Y131500D01*
X-125500Y269500D02*
X-105000Y290000D01*
D12*
X-243230Y76000D03*
X228500Y-67000D03*
D14*
X-51000Y-59800D02*
X-63500Y-47300D01*
X-51000Y-83500D02*
X-31500Y-103000D01*
D15*
X-31500Y-103000D03*
D14*
X-51000Y-83500D02*
X-51000Y-59800D01*
D12*
X-126000Y337000D03*
X-172000Y282000D03*
X-33000Y260000D03*
X-93000Y120000D03*
X-45000Y-8500D03*
X129000Y-1500D03*
X157000Y0D03*
X128000Y87000D03*
X225000Y65000D03*
X-147000Y588000D03*
X20000Y565000D03*
M02*
