M48
;GenerationSoftware,Autodesk,EAGLE,9.6.2*%
;CreationDate,2023-07-04T13:47:57Z*%
FMAT,2
ICI,OFF
METRIC,TZ,000.000
T5C0.300
T4C0.350
T3C0.508
T2C1.016
T1C1.200
%
G90
M71
T1
X18730Y-7620
X21270Y-10160
X-21270Y10160
X-21270Y7620
X-18730Y7620
X-18730Y10160
X-21270Y5080
X-18730Y5080
X-18730Y2540
X-21270Y2540
X-21270Y0
X-18730Y0
X-21270Y-2540
X-18730Y-2540
X-18730Y-5080
X-21270Y-5080
X-18730Y-7620
X-21270Y-7620
X-21270Y-10160
X-18730Y-10160
X18730Y10160
X18730Y7620
X21270Y7620
X21270Y10160
X18730Y5080
X21270Y5080
X21270Y2540
X18730Y2540
X18730Y0
X21270Y0
X18730Y-2540
X21270Y-2540
X21270Y-5080
X18730Y-5080
X21270Y-7620
X18730Y-10160
T2
X5080Y37730
X5080Y40270
X2540Y37730
X2540Y40270
X0Y37730
X0Y40270
X-2540Y37730
X-2540Y40270
X-5080Y37730
X-5080Y40270
X8890Y-7270
X8890Y-4730
X6350Y-7270
X6350Y-4730
X3810Y-7270
X3810Y-4730
X1270Y-7270
X1270Y-4730
X-1270Y-7270
X-1270Y-4730
X-3810Y-7270
X-3810Y-4730
X-6350Y-7270
X-6350Y-4730
X-8890Y-7270
X-8890Y-4730
T3
X24500Y61250
X23255Y61250
X22011Y61250
X20741Y61250
T4
X-3150Y-10300
T5
X25000Y45000
X4000Y18000
X-6000Y20000
X1000Y26000
X-3000Y15000
X23000Y14000
X15000Y-15000
X25000Y-15000
X-17000Y-15000
X-25000Y-14000
X-25000Y-6000
X-12000Y-2500
X-13000Y-7500
X-26000Y23500
X-9300Y22750
X-9028Y14250
X-13700Y16800
X25400Y23800
X9402Y28950
X-4000Y-11000
X-7550Y10700
X9465Y8400
X9400Y16950
X2550Y29300
X-2450Y29300
X-9400Y30900
X-9400Y26000
X9300Y51250
X-18600Y14000
X-24000Y16300
X-18700Y20600
X250Y64800
X-50Y4150
X-10800Y3100
X4200Y5000
X3150Y1850
X1200Y3000
X-7500Y1800
X-7500Y-10000
X-5500Y-9500
X2000Y22000
X2000Y13500
X-6000Y17000
X12250Y-10000
X-13600Y14200
X-16200Y-9100
X9500Y27250
X-17200Y30100
X311Y35511
X8425Y32400
X-17200Y31100
X-517Y36185
X7980Y29152
X-2500Y28500
X6500Y28000
X23170Y25100
X-3500Y12000
X12545Y27723
X17400Y27118
X13195Y28617
X17400Y27968
X8000Y36200
X8000Y33500
X7150Y33572
X-23000Y28500
X-17200Y29100
X23170Y24100
X-4402Y11000
X-13100Y28200
X-16900Y11600
X-14500Y17500
X-5500Y29454
X-6400Y26000
X-3800Y6300
X-2000Y2000
X6500Y35000
X6500Y33000
X-17246Y39254
X-18300Y57000
X-15000Y34500
X-18000Y32000
X-17800Y35000
X-20000Y41500
X21450Y51800
X26000Y-11300
X17700Y23400
X16500Y24000
X-3800Y53250
X1732Y29000
X-21632Y13800
X-17500Y-6500
X-22482Y14500
X-17500Y1000
X13352Y-7600
X9800Y-1050
X10852Y-2150
X8750Y-9996
X11352Y-3050
X3000Y-3500
X6750Y-150
X7600Y-1000
X2034Y11300
X5000Y5000
X4200Y11100
X5400Y5800
X5000Y11000
X9115Y3315
X0Y3350
X-6100Y3350
X14348Y29970
X16600Y29968
X13796Y29218
X17400Y29218
X24500Y-5400
X-24323Y5100
X-24323Y7600
X22850Y-6700
X22200Y25600
X-12600Y33700
X-17200Y28200
X-3300Y26000
X-9300Y12000
X-4500Y-850
X12900Y-150
X15700Y0
X12800Y8700
X22500Y6500
X-14700Y58800
X2000Y56500
X9400Y21600
X9400Y16100
X-8400Y10700
X-9300Y21750
X-1600Y29300
X3400Y29300
X9400Y28100
X23200Y8900
X19500Y15500
X-2600Y32800
X-9300Y13500
X19400Y27100
X26000Y33600
X-24500Y11300
X-4650Y-12850
X11200Y10300
X1400Y-13600
X21600Y56800
X14800Y52750
X11300Y51250
X4300Y51250
X1300Y54250
X10800Y34700
X-15900Y12300
X9400Y13400
X-9400Y31900
X-18700Y18400
X18400Y12100
X14127Y8500
X-16000Y1450
X13500Y400
X-20850Y23800
X21610Y-11400
X8200Y37200
X18500Y-11500
X-2681Y5019
X17400Y59150
X17250Y54550
X2300Y63600
X1300Y50250
X-26000Y39000
X-15000Y40500
X-25000Y54500
X-15000Y54500
X-25000Y63500
X2334Y5500
X10500Y400
X7500Y400
X4850Y2000
X-7500Y-1800
X4850Y0
X10282Y3752
X13200Y4600
X6166Y4400
X-23300Y-8900
X-19000Y34000
X-26000Y35000
X-23500Y35000
X-14000Y48000
X-26000Y48000
X-5000Y45000
X4000Y45000
X10000Y45000
X10000Y39000
X15500Y42500
X21000Y38000
M30