G04 EAGLE Gerber RS-274X export*
G75*
%MOMM*%
%FSLAX34Y34*%
%LPD*%
%IN*%
%IPPOS*%
%AMOC8*
5,1,8,0,0,1.08239X$1,22.5*%
G01*
%ADD10C,0.254000*%


D10*
X-270000Y-165000D02*
X270000Y-165000D01*
X270000Y662500D01*
X-270000Y662500D01*
X-270000Y-165000D01*
X-213037Y95600D02*
X-213707Y95675D01*
X-214364Y95825D01*
X-215000Y96048D01*
X-215607Y96340D01*
X-216178Y96699D01*
X-216704Y97119D01*
X-217181Y97596D01*
X-217601Y98123D01*
X-217960Y98693D01*
X-218252Y99300D01*
X-218475Y99936D01*
X-218625Y100593D01*
X-218700Y101263D01*
X-218700Y101937D01*
X-218625Y102607D01*
X-218475Y103264D01*
X-218252Y103900D01*
X-217960Y104507D01*
X-217601Y105078D01*
X-217181Y105604D01*
X-216704Y106081D01*
X-216178Y106501D01*
X-215607Y106860D01*
X-215000Y107152D01*
X-214364Y107375D01*
X-213707Y107525D01*
X-213037Y107600D01*
X-212363Y107600D01*
X-211693Y107525D01*
X-211036Y107375D01*
X-210400Y107152D01*
X-209793Y106860D01*
X-209223Y106501D01*
X-208696Y106081D01*
X-208219Y105604D01*
X-207799Y105078D01*
X-207440Y104507D01*
X-207148Y103900D01*
X-206925Y103264D01*
X-206775Y102607D01*
X-206700Y101937D01*
X-206700Y101263D01*
X-206775Y100593D01*
X-206925Y99936D01*
X-207148Y99300D01*
X-207440Y98693D01*
X-207799Y98123D01*
X-208219Y97596D01*
X-208696Y97119D01*
X-209223Y96699D01*
X-209793Y96340D01*
X-210400Y96048D01*
X-211036Y95825D01*
X-211693Y95675D01*
X-212363Y95600D01*
X-213037Y95600D01*
X-213037Y70200D02*
X-213707Y70275D01*
X-214364Y70425D01*
X-215000Y70648D01*
X-215607Y70940D01*
X-216178Y71299D01*
X-216704Y71719D01*
X-217181Y72196D01*
X-217601Y72723D01*
X-217960Y73293D01*
X-218252Y73900D01*
X-218475Y74536D01*
X-218625Y75193D01*
X-218700Y75863D01*
X-218700Y76537D01*
X-218625Y77207D01*
X-218475Y77864D01*
X-218252Y78500D01*
X-217960Y79107D01*
X-217601Y79678D01*
X-217181Y80204D01*
X-216704Y80681D01*
X-216178Y81101D01*
X-215607Y81460D01*
X-215000Y81752D01*
X-214364Y81975D01*
X-213707Y82125D01*
X-213037Y82200D01*
X-212363Y82200D01*
X-211693Y82125D01*
X-211036Y81975D01*
X-210400Y81752D01*
X-209793Y81460D01*
X-209223Y81101D01*
X-208696Y80681D01*
X-208219Y80204D01*
X-207799Y79678D01*
X-207440Y79107D01*
X-207148Y78500D01*
X-206925Y77864D01*
X-206775Y77207D01*
X-206700Y76537D01*
X-206700Y75863D01*
X-206775Y75193D01*
X-206925Y74536D01*
X-207148Y73900D01*
X-207440Y73293D01*
X-207799Y72723D01*
X-208219Y72196D01*
X-208696Y71719D01*
X-209223Y71299D01*
X-209793Y70940D01*
X-210400Y70648D01*
X-211036Y70425D01*
X-211693Y70275D01*
X-212363Y70200D01*
X-213037Y70200D01*
X-187637Y70200D02*
X-188307Y70275D01*
X-188964Y70425D01*
X-189600Y70648D01*
X-190207Y70940D01*
X-190778Y71299D01*
X-191304Y71719D01*
X-191781Y72196D01*
X-192201Y72723D01*
X-192560Y73293D01*
X-192852Y73900D01*
X-193075Y74536D01*
X-193225Y75193D01*
X-193300Y75863D01*
X-193300Y76537D01*
X-193225Y77207D01*
X-193075Y77864D01*
X-192852Y78500D01*
X-192560Y79107D01*
X-192201Y79678D01*
X-191781Y80204D01*
X-191304Y80681D01*
X-190778Y81101D01*
X-190207Y81460D01*
X-189600Y81752D01*
X-188964Y81975D01*
X-188307Y82125D01*
X-187637Y82200D01*
X-186963Y82200D01*
X-186293Y82125D01*
X-185636Y81975D01*
X-185000Y81752D01*
X-184393Y81460D01*
X-183823Y81101D01*
X-183296Y80681D01*
X-182819Y80204D01*
X-182399Y79678D01*
X-182040Y79107D01*
X-181748Y78500D01*
X-181525Y77864D01*
X-181375Y77207D01*
X-181300Y76537D01*
X-181300Y75863D01*
X-181375Y75193D01*
X-181525Y74536D01*
X-181748Y73900D01*
X-182040Y73293D01*
X-182399Y72723D01*
X-182819Y72196D01*
X-183296Y71719D01*
X-183823Y71299D01*
X-184393Y70940D01*
X-185000Y70648D01*
X-185636Y70425D01*
X-186293Y70275D01*
X-186963Y70200D01*
X-187637Y70200D01*
X-187637Y95600D02*
X-188307Y95675D01*
X-188964Y95825D01*
X-189600Y96048D01*
X-190207Y96340D01*
X-190778Y96699D01*
X-191304Y97119D01*
X-191781Y97596D01*
X-192201Y98123D01*
X-192560Y98693D01*
X-192852Y99300D01*
X-193075Y99936D01*
X-193225Y100593D01*
X-193300Y101263D01*
X-193300Y101937D01*
X-193225Y102607D01*
X-193075Y103264D01*
X-192852Y103900D01*
X-192560Y104507D01*
X-192201Y105078D01*
X-191781Y105604D01*
X-191304Y106081D01*
X-190778Y106501D01*
X-190207Y106860D01*
X-189600Y107152D01*
X-188964Y107375D01*
X-188307Y107525D01*
X-187637Y107600D01*
X-186963Y107600D01*
X-186293Y107525D01*
X-185636Y107375D01*
X-185000Y107152D01*
X-184393Y106860D01*
X-183823Y106501D01*
X-183296Y106081D01*
X-182819Y105604D01*
X-182399Y105078D01*
X-182040Y104507D01*
X-181748Y103900D01*
X-181525Y103264D01*
X-181375Y102607D01*
X-181300Y101937D01*
X-181300Y101263D01*
X-181375Y100593D01*
X-181525Y99936D01*
X-181748Y99300D01*
X-182040Y98693D01*
X-182399Y98123D01*
X-182819Y97596D01*
X-183296Y97119D01*
X-183823Y96699D01*
X-184393Y96340D01*
X-185000Y96048D01*
X-185636Y95825D01*
X-186293Y95675D01*
X-186963Y95600D01*
X-187637Y95600D01*
X-213037Y44800D02*
X-213707Y44875D01*
X-214364Y45025D01*
X-215000Y45248D01*
X-215607Y45540D01*
X-216178Y45899D01*
X-216704Y46319D01*
X-217181Y46796D01*
X-217601Y47323D01*
X-217960Y47893D01*
X-218252Y48500D01*
X-218475Y49136D01*
X-218625Y49793D01*
X-218700Y50463D01*
X-218700Y51137D01*
X-218625Y51807D01*
X-218475Y52464D01*
X-218252Y53100D01*
X-217960Y53707D01*
X-217601Y54278D01*
X-217181Y54804D01*
X-216704Y55281D01*
X-216178Y55701D01*
X-215607Y56060D01*
X-215000Y56352D01*
X-214364Y56575D01*
X-213707Y56725D01*
X-213037Y56800D01*
X-212363Y56800D01*
X-211693Y56725D01*
X-211036Y56575D01*
X-210400Y56352D01*
X-209793Y56060D01*
X-209223Y55701D01*
X-208696Y55281D01*
X-208219Y54804D01*
X-207799Y54278D01*
X-207440Y53707D01*
X-207148Y53100D01*
X-206925Y52464D01*
X-206775Y51807D01*
X-206700Y51137D01*
X-206700Y50463D01*
X-206775Y49793D01*
X-206925Y49136D01*
X-207148Y48500D01*
X-207440Y47893D01*
X-207799Y47323D01*
X-208219Y46796D01*
X-208696Y46319D01*
X-209223Y45899D01*
X-209793Y45540D01*
X-210400Y45248D01*
X-211036Y45025D01*
X-211693Y44875D01*
X-212363Y44800D01*
X-213037Y44800D01*
X-187637Y44800D02*
X-188307Y44875D01*
X-188964Y45025D01*
X-189600Y45248D01*
X-190207Y45540D01*
X-190778Y45899D01*
X-191304Y46319D01*
X-191781Y46796D01*
X-192201Y47323D01*
X-192560Y47893D01*
X-192852Y48500D01*
X-193075Y49136D01*
X-193225Y49793D01*
X-193300Y50463D01*
X-193300Y51137D01*
X-193225Y51807D01*
X-193075Y52464D01*
X-192852Y53100D01*
X-192560Y53707D01*
X-192201Y54278D01*
X-191781Y54804D01*
X-191304Y55281D01*
X-190778Y55701D01*
X-190207Y56060D01*
X-189600Y56352D01*
X-188964Y56575D01*
X-188307Y56725D01*
X-187637Y56800D01*
X-186963Y56800D01*
X-186293Y56725D01*
X-185636Y56575D01*
X-185000Y56352D01*
X-184393Y56060D01*
X-183823Y55701D01*
X-183296Y55281D01*
X-182819Y54804D01*
X-182399Y54278D01*
X-182040Y53707D01*
X-181748Y53100D01*
X-181525Y52464D01*
X-181375Y51807D01*
X-181300Y51137D01*
X-181300Y50463D01*
X-181375Y49793D01*
X-181525Y49136D01*
X-181748Y48500D01*
X-182040Y47893D01*
X-182399Y47323D01*
X-182819Y46796D01*
X-183296Y46319D01*
X-183823Y45899D01*
X-184393Y45540D01*
X-185000Y45248D01*
X-185636Y45025D01*
X-186293Y44875D01*
X-186963Y44800D01*
X-187637Y44800D01*
X-187637Y19400D02*
X-188307Y19475D01*
X-188964Y19625D01*
X-189600Y19848D01*
X-190207Y20140D01*
X-190778Y20499D01*
X-191304Y20919D01*
X-191781Y21396D01*
X-192201Y21923D01*
X-192560Y22493D01*
X-192852Y23100D01*
X-193075Y23736D01*
X-193225Y24393D01*
X-193300Y25063D01*
X-193300Y25737D01*
X-193225Y26407D01*
X-193075Y27064D01*
X-192852Y27700D01*
X-192560Y28307D01*
X-192201Y28878D01*
X-191781Y29404D01*
X-191304Y29881D01*
X-190778Y30301D01*
X-190207Y30660D01*
X-189600Y30952D01*
X-188964Y31175D01*
X-188307Y31325D01*
X-187637Y31400D01*
X-186963Y31400D01*
X-186293Y31325D01*
X-185636Y31175D01*
X-185000Y30952D01*
X-184393Y30660D01*
X-183823Y30301D01*
X-183296Y29881D01*
X-182819Y29404D01*
X-182399Y28878D01*
X-182040Y28307D01*
X-181748Y27700D01*
X-181525Y27064D01*
X-181375Y26407D01*
X-181300Y25737D01*
X-181300Y25063D01*
X-181375Y24393D01*
X-181525Y23736D01*
X-181748Y23100D01*
X-182040Y22493D01*
X-182399Y21923D01*
X-182819Y21396D01*
X-183296Y20919D01*
X-183823Y20499D01*
X-184393Y20140D01*
X-185000Y19848D01*
X-185636Y19625D01*
X-186293Y19475D01*
X-186963Y19400D01*
X-187637Y19400D01*
X-213037Y19400D02*
X-213707Y19475D01*
X-214364Y19625D01*
X-215000Y19848D01*
X-215607Y20140D01*
X-216178Y20499D01*
X-216704Y20919D01*
X-217181Y21396D01*
X-217601Y21923D01*
X-217960Y22493D01*
X-218252Y23100D01*
X-218475Y23736D01*
X-218625Y24393D01*
X-218700Y25063D01*
X-218700Y25737D01*
X-218625Y26407D01*
X-218475Y27064D01*
X-218252Y27700D01*
X-217960Y28307D01*
X-217601Y28878D01*
X-217181Y29404D01*
X-216704Y29881D01*
X-216178Y30301D01*
X-215607Y30660D01*
X-215000Y30952D01*
X-214364Y31175D01*
X-213707Y31325D01*
X-213037Y31400D01*
X-212363Y31400D01*
X-211693Y31325D01*
X-211036Y31175D01*
X-210400Y30952D01*
X-209793Y30660D01*
X-209223Y30301D01*
X-208696Y29881D01*
X-208219Y29404D01*
X-207799Y28878D01*
X-207440Y28307D01*
X-207148Y27700D01*
X-206925Y27064D01*
X-206775Y26407D01*
X-206700Y25737D01*
X-206700Y25063D01*
X-206775Y24393D01*
X-206925Y23736D01*
X-207148Y23100D01*
X-207440Y22493D01*
X-207799Y21923D01*
X-208219Y21396D01*
X-208696Y20919D01*
X-209223Y20499D01*
X-209793Y20140D01*
X-210400Y19848D01*
X-211036Y19625D01*
X-211693Y19475D01*
X-212363Y19400D01*
X-213037Y19400D01*
X-213037Y-6000D02*
X-213707Y-5925D01*
X-214364Y-5775D01*
X-215000Y-5552D01*
X-215607Y-5260D01*
X-216178Y-4901D01*
X-216704Y-4481D01*
X-217181Y-4004D01*
X-217601Y-3478D01*
X-217960Y-2907D01*
X-218252Y-2300D01*
X-218475Y-1664D01*
X-218625Y-1007D01*
X-218700Y-337D01*
X-218700Y337D01*
X-218625Y1007D01*
X-218475Y1664D01*
X-218252Y2300D01*
X-217960Y2907D01*
X-217601Y3478D01*
X-217181Y4004D01*
X-216704Y4481D01*
X-216178Y4901D01*
X-215607Y5260D01*
X-215000Y5552D01*
X-214364Y5775D01*
X-213707Y5925D01*
X-213037Y6000D01*
X-212363Y6000D01*
X-211693Y5925D01*
X-211036Y5775D01*
X-210400Y5552D01*
X-209793Y5260D01*
X-209223Y4901D01*
X-208696Y4481D01*
X-208219Y4004D01*
X-207799Y3478D01*
X-207440Y2907D01*
X-207148Y2300D01*
X-206925Y1664D01*
X-206775Y1007D01*
X-206700Y337D01*
X-206700Y-337D01*
X-206775Y-1007D01*
X-206925Y-1664D01*
X-207148Y-2300D01*
X-207440Y-2907D01*
X-207799Y-3478D01*
X-208219Y-4004D01*
X-208696Y-4481D01*
X-209223Y-4901D01*
X-209793Y-5260D01*
X-210400Y-5552D01*
X-211036Y-5775D01*
X-211693Y-5925D01*
X-212363Y-6000D01*
X-213037Y-6000D01*
X-187637Y-6000D02*
X-188307Y-5925D01*
X-188964Y-5775D01*
X-189600Y-5552D01*
X-190207Y-5260D01*
X-190778Y-4901D01*
X-191304Y-4481D01*
X-191781Y-4004D01*
X-192201Y-3478D01*
X-192560Y-2907D01*
X-192852Y-2300D01*
X-193075Y-1664D01*
X-193225Y-1007D01*
X-193300Y-337D01*
X-193300Y337D01*
X-193225Y1007D01*
X-193075Y1664D01*
X-192852Y2300D01*
X-192560Y2907D01*
X-192201Y3478D01*
X-191781Y4004D01*
X-191304Y4481D01*
X-190778Y4901D01*
X-190207Y5260D01*
X-189600Y5552D01*
X-188964Y5775D01*
X-188307Y5925D01*
X-187637Y6000D01*
X-186963Y6000D01*
X-186293Y5925D01*
X-185636Y5775D01*
X-185000Y5552D01*
X-184393Y5260D01*
X-183823Y4901D01*
X-183296Y4481D01*
X-182819Y4004D01*
X-182399Y3478D01*
X-182040Y2907D01*
X-181748Y2300D01*
X-181525Y1664D01*
X-181375Y1007D01*
X-181300Y337D01*
X-181300Y-337D01*
X-181375Y-1007D01*
X-181525Y-1664D01*
X-181748Y-2300D01*
X-182040Y-2907D01*
X-182399Y-3478D01*
X-182819Y-4004D01*
X-183296Y-4481D01*
X-183823Y-4901D01*
X-184393Y-5260D01*
X-185000Y-5552D01*
X-185636Y-5775D01*
X-186293Y-5925D01*
X-186963Y-6000D01*
X-187637Y-6000D01*
X-213037Y-31400D02*
X-213707Y-31325D01*
X-214364Y-31175D01*
X-215000Y-30952D01*
X-215607Y-30660D01*
X-216178Y-30301D01*
X-216704Y-29881D01*
X-217181Y-29404D01*
X-217601Y-28878D01*
X-217960Y-28307D01*
X-218252Y-27700D01*
X-218475Y-27064D01*
X-218625Y-26407D01*
X-218700Y-25737D01*
X-218700Y-25063D01*
X-218625Y-24393D01*
X-218475Y-23736D01*
X-218252Y-23100D01*
X-217960Y-22493D01*
X-217601Y-21923D01*
X-217181Y-21396D01*
X-216704Y-20919D01*
X-216178Y-20499D01*
X-215607Y-20140D01*
X-215000Y-19848D01*
X-214364Y-19625D01*
X-213707Y-19475D01*
X-213037Y-19400D01*
X-212363Y-19400D01*
X-211693Y-19475D01*
X-211036Y-19625D01*
X-210400Y-19848D01*
X-209793Y-20140D01*
X-209223Y-20499D01*
X-208696Y-20919D01*
X-208219Y-21396D01*
X-207799Y-21923D01*
X-207440Y-22493D01*
X-207148Y-23100D01*
X-206925Y-23736D01*
X-206775Y-24393D01*
X-206700Y-25063D01*
X-206700Y-25737D01*
X-206775Y-26407D01*
X-206925Y-27064D01*
X-207148Y-27700D01*
X-207440Y-28307D01*
X-207799Y-28878D01*
X-208219Y-29404D01*
X-208696Y-29881D01*
X-209223Y-30301D01*
X-209793Y-30660D01*
X-210400Y-30952D01*
X-211036Y-31175D01*
X-211693Y-31325D01*
X-212363Y-31400D01*
X-213037Y-31400D01*
X-187637Y-31400D02*
X-188307Y-31325D01*
X-188964Y-31175D01*
X-189600Y-30952D01*
X-190207Y-30660D01*
X-190778Y-30301D01*
X-191304Y-29881D01*
X-191781Y-29404D01*
X-192201Y-28878D01*
X-192560Y-28307D01*
X-192852Y-27700D01*
X-193075Y-27064D01*
X-193225Y-26407D01*
X-193300Y-25737D01*
X-193300Y-25063D01*
X-193225Y-24393D01*
X-193075Y-23736D01*
X-192852Y-23100D01*
X-192560Y-22493D01*
X-192201Y-21923D01*
X-191781Y-21396D01*
X-191304Y-20919D01*
X-190778Y-20499D01*
X-190207Y-20140D01*
X-189600Y-19848D01*
X-188964Y-19625D01*
X-188307Y-19475D01*
X-187637Y-19400D01*
X-186963Y-19400D01*
X-186293Y-19475D01*
X-185636Y-19625D01*
X-185000Y-19848D01*
X-184393Y-20140D01*
X-183823Y-20499D01*
X-183296Y-20919D01*
X-182819Y-21396D01*
X-182399Y-21923D01*
X-182040Y-22493D01*
X-181748Y-23100D01*
X-181525Y-23736D01*
X-181375Y-24393D01*
X-181300Y-25063D01*
X-181300Y-25737D01*
X-181375Y-26407D01*
X-181525Y-27064D01*
X-181748Y-27700D01*
X-182040Y-28307D01*
X-182399Y-28878D01*
X-182819Y-29404D01*
X-183296Y-29881D01*
X-183823Y-30301D01*
X-184393Y-30660D01*
X-185000Y-30952D01*
X-185636Y-31175D01*
X-186293Y-31325D01*
X-186963Y-31400D01*
X-187637Y-31400D01*
X-187637Y-56800D02*
X-188307Y-56725D01*
X-188964Y-56575D01*
X-189600Y-56352D01*
X-190207Y-56060D01*
X-190778Y-55701D01*
X-191304Y-55281D01*
X-191781Y-54804D01*
X-192201Y-54278D01*
X-192560Y-53707D01*
X-192852Y-53100D01*
X-193075Y-52464D01*
X-193225Y-51807D01*
X-193300Y-51137D01*
X-193300Y-50463D01*
X-193225Y-49793D01*
X-193075Y-49136D01*
X-192852Y-48500D01*
X-192560Y-47893D01*
X-192201Y-47323D01*
X-191781Y-46796D01*
X-191304Y-46319D01*
X-190778Y-45899D01*
X-190207Y-45540D01*
X-189600Y-45248D01*
X-188964Y-45025D01*
X-188307Y-44875D01*
X-187637Y-44800D01*
X-186963Y-44800D01*
X-186293Y-44875D01*
X-185636Y-45025D01*
X-185000Y-45248D01*
X-184393Y-45540D01*
X-183823Y-45899D01*
X-183296Y-46319D01*
X-182819Y-46796D01*
X-182399Y-47323D01*
X-182040Y-47893D01*
X-181748Y-48500D01*
X-181525Y-49136D01*
X-181375Y-49793D01*
X-181300Y-50463D01*
X-181300Y-51137D01*
X-181375Y-51807D01*
X-181525Y-52464D01*
X-181748Y-53100D01*
X-182040Y-53707D01*
X-182399Y-54278D01*
X-182819Y-54804D01*
X-183296Y-55281D01*
X-183823Y-55701D01*
X-184393Y-56060D01*
X-185000Y-56352D01*
X-185636Y-56575D01*
X-186293Y-56725D01*
X-186963Y-56800D01*
X-187637Y-56800D01*
X-213037Y-56800D02*
X-213707Y-56725D01*
X-214364Y-56575D01*
X-215000Y-56352D01*
X-215607Y-56060D01*
X-216178Y-55701D01*
X-216704Y-55281D01*
X-217181Y-54804D01*
X-217601Y-54278D01*
X-217960Y-53707D01*
X-218252Y-53100D01*
X-218475Y-52464D01*
X-218625Y-51807D01*
X-218700Y-51137D01*
X-218700Y-50463D01*
X-218625Y-49793D01*
X-218475Y-49136D01*
X-218252Y-48500D01*
X-217960Y-47893D01*
X-217601Y-47323D01*
X-217181Y-46796D01*
X-216704Y-46319D01*
X-216178Y-45899D01*
X-215607Y-45540D01*
X-215000Y-45248D01*
X-214364Y-45025D01*
X-213707Y-44875D01*
X-213037Y-44800D01*
X-212363Y-44800D01*
X-211693Y-44875D01*
X-211036Y-45025D01*
X-210400Y-45248D01*
X-209793Y-45540D01*
X-209223Y-45899D01*
X-208696Y-46319D01*
X-208219Y-46796D01*
X-207799Y-47323D01*
X-207440Y-47893D01*
X-207148Y-48500D01*
X-206925Y-49136D01*
X-206775Y-49793D01*
X-206700Y-50463D01*
X-206700Y-51137D01*
X-206775Y-51807D01*
X-206925Y-52464D01*
X-207148Y-53100D01*
X-207440Y-53707D01*
X-207799Y-54278D01*
X-208219Y-54804D01*
X-208696Y-55281D01*
X-209223Y-55701D01*
X-209793Y-56060D01*
X-210400Y-56352D01*
X-211036Y-56575D01*
X-211693Y-56725D01*
X-212363Y-56800D01*
X-213037Y-56800D01*
X-187637Y-82200D02*
X-188307Y-82125D01*
X-188964Y-81975D01*
X-189600Y-81752D01*
X-190207Y-81460D01*
X-190778Y-81101D01*
X-191304Y-80681D01*
X-191781Y-80204D01*
X-192201Y-79678D01*
X-192560Y-79107D01*
X-192852Y-78500D01*
X-193075Y-77864D01*
X-193225Y-77207D01*
X-193300Y-76537D01*
X-193300Y-75863D01*
X-193225Y-75193D01*
X-193075Y-74536D01*
X-192852Y-73900D01*
X-192560Y-73293D01*
X-192201Y-72723D01*
X-191781Y-72196D01*
X-191304Y-71719D01*
X-190778Y-71299D01*
X-190207Y-70940D01*
X-189600Y-70648D01*
X-188964Y-70425D01*
X-188307Y-70275D01*
X-187637Y-70200D01*
X-186963Y-70200D01*
X-186293Y-70275D01*
X-185636Y-70425D01*
X-185000Y-70648D01*
X-184393Y-70940D01*
X-183823Y-71299D01*
X-183296Y-71719D01*
X-182819Y-72196D01*
X-182399Y-72723D01*
X-182040Y-73293D01*
X-181748Y-73900D01*
X-181525Y-74536D01*
X-181375Y-75193D01*
X-181300Y-75863D01*
X-181300Y-76537D01*
X-181375Y-77207D01*
X-181525Y-77864D01*
X-181748Y-78500D01*
X-182040Y-79107D01*
X-182399Y-79678D01*
X-182819Y-80204D01*
X-183296Y-80681D01*
X-183823Y-81101D01*
X-184393Y-81460D01*
X-185000Y-81752D01*
X-185636Y-81975D01*
X-186293Y-82125D01*
X-186963Y-82200D01*
X-187637Y-82200D01*
X-213037Y-82200D02*
X-213707Y-82125D01*
X-214364Y-81975D01*
X-215000Y-81752D01*
X-215607Y-81460D01*
X-216178Y-81101D01*
X-216704Y-80681D01*
X-217181Y-80204D01*
X-217601Y-79678D01*
X-217960Y-79107D01*
X-218252Y-78500D01*
X-218475Y-77864D01*
X-218625Y-77207D01*
X-218700Y-76537D01*
X-218700Y-75863D01*
X-218625Y-75193D01*
X-218475Y-74536D01*
X-218252Y-73900D01*
X-217960Y-73293D01*
X-217601Y-72723D01*
X-217181Y-72196D01*
X-216704Y-71719D01*
X-216178Y-71299D01*
X-215607Y-70940D01*
X-215000Y-70648D01*
X-214364Y-70425D01*
X-213707Y-70275D01*
X-213037Y-70200D01*
X-212363Y-70200D01*
X-211693Y-70275D01*
X-211036Y-70425D01*
X-210400Y-70648D01*
X-209793Y-70940D01*
X-209223Y-71299D01*
X-208696Y-71719D01*
X-208219Y-72196D01*
X-207799Y-72723D01*
X-207440Y-73293D01*
X-207148Y-73900D01*
X-206925Y-74536D01*
X-206775Y-75193D01*
X-206700Y-75863D01*
X-206700Y-76537D01*
X-206775Y-77207D01*
X-206925Y-77864D01*
X-207148Y-78500D01*
X-207440Y-79107D01*
X-207799Y-79678D01*
X-208219Y-80204D01*
X-208696Y-80681D01*
X-209223Y-81101D01*
X-209793Y-81460D01*
X-210400Y-81752D01*
X-211036Y-81975D01*
X-211693Y-82125D01*
X-212363Y-82200D01*
X-213037Y-82200D01*
X-213037Y-107600D02*
X-213707Y-107525D01*
X-214364Y-107375D01*
X-215000Y-107152D01*
X-215607Y-106860D01*
X-216178Y-106501D01*
X-216704Y-106081D01*
X-217181Y-105604D01*
X-217601Y-105078D01*
X-217960Y-104507D01*
X-218252Y-103900D01*
X-218475Y-103264D01*
X-218625Y-102607D01*
X-218700Y-101937D01*
X-218700Y-101263D01*
X-218625Y-100593D01*
X-218475Y-99936D01*
X-218252Y-99300D01*
X-217960Y-98693D01*
X-217601Y-98123D01*
X-217181Y-97596D01*
X-216704Y-97119D01*
X-216178Y-96699D01*
X-215607Y-96340D01*
X-215000Y-96048D01*
X-214364Y-95825D01*
X-213707Y-95675D01*
X-213037Y-95600D01*
X-212363Y-95600D01*
X-211693Y-95675D01*
X-211036Y-95825D01*
X-210400Y-96048D01*
X-209793Y-96340D01*
X-209223Y-96699D01*
X-208696Y-97119D01*
X-208219Y-97596D01*
X-207799Y-98123D01*
X-207440Y-98693D01*
X-207148Y-99300D01*
X-206925Y-99936D01*
X-206775Y-100593D01*
X-206700Y-101263D01*
X-206700Y-101937D01*
X-206775Y-102607D01*
X-206925Y-103264D01*
X-207148Y-103900D01*
X-207440Y-104507D01*
X-207799Y-105078D01*
X-208219Y-105604D01*
X-208696Y-106081D01*
X-209223Y-106501D01*
X-209793Y-106860D01*
X-210400Y-107152D01*
X-211036Y-107375D01*
X-211693Y-107525D01*
X-212363Y-107600D01*
X-213037Y-107600D01*
X-187637Y-107600D02*
X-188307Y-107525D01*
X-188964Y-107375D01*
X-189600Y-107152D01*
X-190207Y-106860D01*
X-190778Y-106501D01*
X-191304Y-106081D01*
X-191781Y-105604D01*
X-192201Y-105078D01*
X-192560Y-104507D01*
X-192852Y-103900D01*
X-193075Y-103264D01*
X-193225Y-102607D01*
X-193300Y-101937D01*
X-193300Y-101263D01*
X-193225Y-100593D01*
X-193075Y-99936D01*
X-192852Y-99300D01*
X-192560Y-98693D01*
X-192201Y-98123D01*
X-191781Y-97596D01*
X-191304Y-97119D01*
X-190778Y-96699D01*
X-190207Y-96340D01*
X-189600Y-96048D01*
X-188964Y-95825D01*
X-188307Y-95675D01*
X-187637Y-95600D01*
X-186963Y-95600D01*
X-186293Y-95675D01*
X-185636Y-95825D01*
X-185000Y-96048D01*
X-184393Y-96340D01*
X-183823Y-96699D01*
X-183296Y-97119D01*
X-182819Y-97596D01*
X-182399Y-98123D01*
X-182040Y-98693D01*
X-181748Y-99300D01*
X-181525Y-99936D01*
X-181375Y-100593D01*
X-181300Y-101263D01*
X-181300Y-101937D01*
X-181375Y-102607D01*
X-181525Y-103264D01*
X-181748Y-103900D01*
X-182040Y-104507D01*
X-182399Y-105078D01*
X-182819Y-105604D01*
X-183296Y-106081D01*
X-183823Y-106501D01*
X-184393Y-106860D01*
X-185000Y-107152D01*
X-185636Y-107375D01*
X-186293Y-107525D01*
X-186963Y-107600D01*
X-187637Y-107600D01*
X186963Y95600D02*
X186293Y95675D01*
X185636Y95825D01*
X185000Y96048D01*
X184393Y96340D01*
X183823Y96699D01*
X183296Y97119D01*
X182819Y97596D01*
X182399Y98123D01*
X182040Y98693D01*
X181748Y99300D01*
X181525Y99936D01*
X181375Y100593D01*
X181300Y101263D01*
X181300Y101937D01*
X181375Y102607D01*
X181525Y103264D01*
X181748Y103900D01*
X182040Y104507D01*
X182399Y105078D01*
X182819Y105604D01*
X183296Y106081D01*
X183823Y106501D01*
X184393Y106860D01*
X185000Y107152D01*
X185636Y107375D01*
X186293Y107525D01*
X186963Y107600D01*
X187637Y107600D01*
X188307Y107525D01*
X188964Y107375D01*
X189600Y107152D01*
X190207Y106860D01*
X190778Y106501D01*
X191304Y106081D01*
X191781Y105604D01*
X192201Y105078D01*
X192560Y104507D01*
X192852Y103900D01*
X193075Y103264D01*
X193225Y102607D01*
X193300Y101937D01*
X193300Y101263D01*
X193225Y100593D01*
X193075Y99936D01*
X192852Y99300D01*
X192560Y98693D01*
X192201Y98123D01*
X191781Y97596D01*
X191304Y97119D01*
X190778Y96699D01*
X190207Y96340D01*
X189600Y96048D01*
X188964Y95825D01*
X188307Y95675D01*
X187637Y95600D01*
X186963Y95600D01*
X186963Y70200D02*
X186293Y70275D01*
X185636Y70425D01*
X185000Y70648D01*
X184393Y70940D01*
X183823Y71299D01*
X183296Y71719D01*
X182819Y72196D01*
X182399Y72723D01*
X182040Y73293D01*
X181748Y73900D01*
X181525Y74536D01*
X181375Y75193D01*
X181300Y75863D01*
X181300Y76537D01*
X181375Y77207D01*
X181525Y77864D01*
X181748Y78500D01*
X182040Y79107D01*
X182399Y79678D01*
X182819Y80204D01*
X183296Y80681D01*
X183823Y81101D01*
X184393Y81460D01*
X185000Y81752D01*
X185636Y81975D01*
X186293Y82125D01*
X186963Y82200D01*
X187637Y82200D01*
X188307Y82125D01*
X188964Y81975D01*
X189600Y81752D01*
X190207Y81460D01*
X190778Y81101D01*
X191304Y80681D01*
X191781Y80204D01*
X192201Y79678D01*
X192560Y79107D01*
X192852Y78500D01*
X193075Y77864D01*
X193225Y77207D01*
X193300Y76537D01*
X193300Y75863D01*
X193225Y75193D01*
X193075Y74536D01*
X192852Y73900D01*
X192560Y73293D01*
X192201Y72723D01*
X191781Y72196D01*
X191304Y71719D01*
X190778Y71299D01*
X190207Y70940D01*
X189600Y70648D01*
X188964Y70425D01*
X188307Y70275D01*
X187637Y70200D01*
X186963Y70200D01*
X212363Y70200D02*
X211693Y70275D01*
X211036Y70425D01*
X210400Y70648D01*
X209793Y70940D01*
X209223Y71299D01*
X208696Y71719D01*
X208219Y72196D01*
X207799Y72723D01*
X207440Y73293D01*
X207148Y73900D01*
X206925Y74536D01*
X206775Y75193D01*
X206700Y75863D01*
X206700Y76537D01*
X206775Y77207D01*
X206925Y77864D01*
X207148Y78500D01*
X207440Y79107D01*
X207799Y79678D01*
X208219Y80204D01*
X208696Y80681D01*
X209223Y81101D01*
X209793Y81460D01*
X210400Y81752D01*
X211036Y81975D01*
X211693Y82125D01*
X212363Y82200D01*
X213037Y82200D01*
X213707Y82125D01*
X214364Y81975D01*
X215000Y81752D01*
X215607Y81460D01*
X216178Y81101D01*
X216704Y80681D01*
X217181Y80204D01*
X217601Y79678D01*
X217960Y79107D01*
X218252Y78500D01*
X218475Y77864D01*
X218625Y77207D01*
X218700Y76537D01*
X218700Y75863D01*
X218625Y75193D01*
X218475Y74536D01*
X218252Y73900D01*
X217960Y73293D01*
X217601Y72723D01*
X217181Y72196D01*
X216704Y71719D01*
X216178Y71299D01*
X215607Y70940D01*
X215000Y70648D01*
X214364Y70425D01*
X213707Y70275D01*
X213037Y70200D01*
X212363Y70200D01*
X212363Y95600D02*
X211693Y95675D01*
X211036Y95825D01*
X210400Y96048D01*
X209793Y96340D01*
X209223Y96699D01*
X208696Y97119D01*
X208219Y97596D01*
X207799Y98123D01*
X207440Y98693D01*
X207148Y99300D01*
X206925Y99936D01*
X206775Y100593D01*
X206700Y101263D01*
X206700Y101937D01*
X206775Y102607D01*
X206925Y103264D01*
X207148Y103900D01*
X207440Y104507D01*
X207799Y105078D01*
X208219Y105604D01*
X208696Y106081D01*
X209223Y106501D01*
X209793Y106860D01*
X210400Y107152D01*
X211036Y107375D01*
X211693Y107525D01*
X212363Y107600D01*
X213037Y107600D01*
X213707Y107525D01*
X214364Y107375D01*
X215000Y107152D01*
X215607Y106860D01*
X216178Y106501D01*
X216704Y106081D01*
X217181Y105604D01*
X217601Y105078D01*
X217960Y104507D01*
X218252Y103900D01*
X218475Y103264D01*
X218625Y102607D01*
X218700Y101937D01*
X218700Y101263D01*
X218625Y100593D01*
X218475Y99936D01*
X218252Y99300D01*
X217960Y98693D01*
X217601Y98123D01*
X217181Y97596D01*
X216704Y97119D01*
X216178Y96699D01*
X215607Y96340D01*
X215000Y96048D01*
X214364Y95825D01*
X213707Y95675D01*
X213037Y95600D01*
X212363Y95600D01*
X186963Y44800D02*
X186293Y44875D01*
X185636Y45025D01*
X185000Y45248D01*
X184393Y45540D01*
X183823Y45899D01*
X183296Y46319D01*
X182819Y46796D01*
X182399Y47323D01*
X182040Y47893D01*
X181748Y48500D01*
X181525Y49136D01*
X181375Y49793D01*
X181300Y50463D01*
X181300Y51137D01*
X181375Y51807D01*
X181525Y52464D01*
X181748Y53100D01*
X182040Y53707D01*
X182399Y54278D01*
X182819Y54804D01*
X183296Y55281D01*
X183823Y55701D01*
X184393Y56060D01*
X185000Y56352D01*
X185636Y56575D01*
X186293Y56725D01*
X186963Y56800D01*
X187637Y56800D01*
X188307Y56725D01*
X188964Y56575D01*
X189600Y56352D01*
X190207Y56060D01*
X190778Y55701D01*
X191304Y55281D01*
X191781Y54804D01*
X192201Y54278D01*
X192560Y53707D01*
X192852Y53100D01*
X193075Y52464D01*
X193225Y51807D01*
X193300Y51137D01*
X193300Y50463D01*
X193225Y49793D01*
X193075Y49136D01*
X192852Y48500D01*
X192560Y47893D01*
X192201Y47323D01*
X191781Y46796D01*
X191304Y46319D01*
X190778Y45899D01*
X190207Y45540D01*
X189600Y45248D01*
X188964Y45025D01*
X188307Y44875D01*
X187637Y44800D01*
X186963Y44800D01*
X212363Y44800D02*
X211693Y44875D01*
X211036Y45025D01*
X210400Y45248D01*
X209793Y45540D01*
X209223Y45899D01*
X208696Y46319D01*
X208219Y46796D01*
X207799Y47323D01*
X207440Y47893D01*
X207148Y48500D01*
X206925Y49136D01*
X206775Y49793D01*
X206700Y50463D01*
X206700Y51137D01*
X206775Y51807D01*
X206925Y52464D01*
X207148Y53100D01*
X207440Y53707D01*
X207799Y54278D01*
X208219Y54804D01*
X208696Y55281D01*
X209223Y55701D01*
X209793Y56060D01*
X210400Y56352D01*
X211036Y56575D01*
X211693Y56725D01*
X212363Y56800D01*
X213037Y56800D01*
X213707Y56725D01*
X214364Y56575D01*
X215000Y56352D01*
X215607Y56060D01*
X216178Y55701D01*
X216704Y55281D01*
X217181Y54804D01*
X217601Y54278D01*
X217960Y53707D01*
X218252Y53100D01*
X218475Y52464D01*
X218625Y51807D01*
X218700Y51137D01*
X218700Y50463D01*
X218625Y49793D01*
X218475Y49136D01*
X218252Y48500D01*
X217960Y47893D01*
X217601Y47323D01*
X217181Y46796D01*
X216704Y46319D01*
X216178Y45899D01*
X215607Y45540D01*
X215000Y45248D01*
X214364Y45025D01*
X213707Y44875D01*
X213037Y44800D01*
X212363Y44800D01*
X212363Y19400D02*
X211693Y19475D01*
X211036Y19625D01*
X210400Y19848D01*
X209793Y20140D01*
X209223Y20499D01*
X208696Y20919D01*
X208219Y21396D01*
X207799Y21923D01*
X207440Y22493D01*
X207148Y23100D01*
X206925Y23736D01*
X206775Y24393D01*
X206700Y25063D01*
X206700Y25737D01*
X206775Y26407D01*
X206925Y27064D01*
X207148Y27700D01*
X207440Y28307D01*
X207799Y28878D01*
X208219Y29404D01*
X208696Y29881D01*
X209223Y30301D01*
X209793Y30660D01*
X210400Y30952D01*
X211036Y31175D01*
X211693Y31325D01*
X212363Y31400D01*
X213037Y31400D01*
X213707Y31325D01*
X214364Y31175D01*
X215000Y30952D01*
X215607Y30660D01*
X216178Y30301D01*
X216704Y29881D01*
X217181Y29404D01*
X217601Y28878D01*
X217960Y28307D01*
X218252Y27700D01*
X218475Y27064D01*
X218625Y26407D01*
X218700Y25737D01*
X218700Y25063D01*
X218625Y24393D01*
X218475Y23736D01*
X218252Y23100D01*
X217960Y22493D01*
X217601Y21923D01*
X217181Y21396D01*
X216704Y20919D01*
X216178Y20499D01*
X215607Y20140D01*
X215000Y19848D01*
X214364Y19625D01*
X213707Y19475D01*
X213037Y19400D01*
X212363Y19400D01*
X186963Y19400D02*
X186293Y19475D01*
X185636Y19625D01*
X185000Y19848D01*
X184393Y20140D01*
X183823Y20499D01*
X183296Y20919D01*
X182819Y21396D01*
X182399Y21923D01*
X182040Y22493D01*
X181748Y23100D01*
X181525Y23736D01*
X181375Y24393D01*
X181300Y25063D01*
X181300Y25737D01*
X181375Y26407D01*
X181525Y27064D01*
X181748Y27700D01*
X182040Y28307D01*
X182399Y28878D01*
X182819Y29404D01*
X183296Y29881D01*
X183823Y30301D01*
X184393Y30660D01*
X185000Y30952D01*
X185636Y31175D01*
X186293Y31325D01*
X186963Y31400D01*
X187637Y31400D01*
X188307Y31325D01*
X188964Y31175D01*
X189600Y30952D01*
X190207Y30660D01*
X190778Y30301D01*
X191304Y29881D01*
X191781Y29404D01*
X192201Y28878D01*
X192560Y28307D01*
X192852Y27700D01*
X193075Y27064D01*
X193225Y26407D01*
X193300Y25737D01*
X193300Y25063D01*
X193225Y24393D01*
X193075Y23736D01*
X192852Y23100D01*
X192560Y22493D01*
X192201Y21923D01*
X191781Y21396D01*
X191304Y20919D01*
X190778Y20499D01*
X190207Y20140D01*
X189600Y19848D01*
X188964Y19625D01*
X188307Y19475D01*
X187637Y19400D01*
X186963Y19400D01*
X186963Y-6000D02*
X186293Y-5925D01*
X185636Y-5775D01*
X185000Y-5552D01*
X184393Y-5260D01*
X183823Y-4901D01*
X183296Y-4481D01*
X182819Y-4004D01*
X182399Y-3478D01*
X182040Y-2907D01*
X181748Y-2300D01*
X181525Y-1664D01*
X181375Y-1007D01*
X181300Y-337D01*
X181300Y337D01*
X181375Y1007D01*
X181525Y1664D01*
X181748Y2300D01*
X182040Y2907D01*
X182399Y3478D01*
X182819Y4004D01*
X183296Y4481D01*
X183823Y4901D01*
X184393Y5260D01*
X185000Y5552D01*
X185636Y5775D01*
X186293Y5925D01*
X186963Y6000D01*
X187637Y6000D01*
X188307Y5925D01*
X188964Y5775D01*
X189600Y5552D01*
X190207Y5260D01*
X190778Y4901D01*
X191304Y4481D01*
X191781Y4004D01*
X192201Y3478D01*
X192560Y2907D01*
X192852Y2300D01*
X193075Y1664D01*
X193225Y1007D01*
X193300Y337D01*
X193300Y-337D01*
X193225Y-1007D01*
X193075Y-1664D01*
X192852Y-2300D01*
X192560Y-2907D01*
X192201Y-3478D01*
X191781Y-4004D01*
X191304Y-4481D01*
X190778Y-4901D01*
X190207Y-5260D01*
X189600Y-5552D01*
X188964Y-5775D01*
X188307Y-5925D01*
X187637Y-6000D01*
X186963Y-6000D01*
X212363Y-6000D02*
X211693Y-5925D01*
X211036Y-5775D01*
X210400Y-5552D01*
X209793Y-5260D01*
X209223Y-4901D01*
X208696Y-4481D01*
X208219Y-4004D01*
X207799Y-3478D01*
X207440Y-2907D01*
X207148Y-2300D01*
X206925Y-1664D01*
X206775Y-1007D01*
X206700Y-337D01*
X206700Y337D01*
X206775Y1007D01*
X206925Y1664D01*
X207148Y2300D01*
X207440Y2907D01*
X207799Y3478D01*
X208219Y4004D01*
X208696Y4481D01*
X209223Y4901D01*
X209793Y5260D01*
X210400Y5552D01*
X211036Y5775D01*
X211693Y5925D01*
X212363Y6000D01*
X213037Y6000D01*
X213707Y5925D01*
X214364Y5775D01*
X215000Y5552D01*
X215607Y5260D01*
X216178Y4901D01*
X216704Y4481D01*
X217181Y4004D01*
X217601Y3478D01*
X217960Y2907D01*
X218252Y2300D01*
X218475Y1664D01*
X218625Y1007D01*
X218700Y337D01*
X218700Y-337D01*
X218625Y-1007D01*
X218475Y-1664D01*
X218252Y-2300D01*
X217960Y-2907D01*
X217601Y-3478D01*
X217181Y-4004D01*
X216704Y-4481D01*
X216178Y-4901D01*
X215607Y-5260D01*
X215000Y-5552D01*
X214364Y-5775D01*
X213707Y-5925D01*
X213037Y-6000D01*
X212363Y-6000D01*
X186963Y-31400D02*
X186293Y-31325D01*
X185636Y-31175D01*
X185000Y-30952D01*
X184393Y-30660D01*
X183823Y-30301D01*
X183296Y-29881D01*
X182819Y-29404D01*
X182399Y-28878D01*
X182040Y-28307D01*
X181748Y-27700D01*
X181525Y-27064D01*
X181375Y-26407D01*
X181300Y-25737D01*
X181300Y-25063D01*
X181375Y-24393D01*
X181525Y-23736D01*
X181748Y-23100D01*
X182040Y-22493D01*
X182399Y-21923D01*
X182819Y-21396D01*
X183296Y-20919D01*
X183823Y-20499D01*
X184393Y-20140D01*
X185000Y-19848D01*
X185636Y-19625D01*
X186293Y-19475D01*
X186963Y-19400D01*
X187637Y-19400D01*
X188307Y-19475D01*
X188964Y-19625D01*
X189600Y-19848D01*
X190207Y-20140D01*
X190778Y-20499D01*
X191304Y-20919D01*
X191781Y-21396D01*
X192201Y-21923D01*
X192560Y-22493D01*
X192852Y-23100D01*
X193075Y-23736D01*
X193225Y-24393D01*
X193300Y-25063D01*
X193300Y-25737D01*
X193225Y-26407D01*
X193075Y-27064D01*
X192852Y-27700D01*
X192560Y-28307D01*
X192201Y-28878D01*
X191781Y-29404D01*
X191304Y-29881D01*
X190778Y-30301D01*
X190207Y-30660D01*
X189600Y-30952D01*
X188964Y-31175D01*
X188307Y-31325D01*
X187637Y-31400D01*
X186963Y-31400D01*
X212363Y-31400D02*
X211693Y-31325D01*
X211036Y-31175D01*
X210400Y-30952D01*
X209793Y-30660D01*
X209223Y-30301D01*
X208696Y-29881D01*
X208219Y-29404D01*
X207799Y-28878D01*
X207440Y-28307D01*
X207148Y-27700D01*
X206925Y-27064D01*
X206775Y-26407D01*
X206700Y-25737D01*
X206700Y-25063D01*
X206775Y-24393D01*
X206925Y-23736D01*
X207148Y-23100D01*
X207440Y-22493D01*
X207799Y-21923D01*
X208219Y-21396D01*
X208696Y-20919D01*
X209223Y-20499D01*
X209793Y-20140D01*
X210400Y-19848D01*
X211036Y-19625D01*
X211693Y-19475D01*
X212363Y-19400D01*
X213037Y-19400D01*
X213707Y-19475D01*
X214364Y-19625D01*
X215000Y-19848D01*
X215607Y-20140D01*
X216178Y-20499D01*
X216704Y-20919D01*
X217181Y-21396D01*
X217601Y-21923D01*
X217960Y-22493D01*
X218252Y-23100D01*
X218475Y-23736D01*
X218625Y-24393D01*
X218700Y-25063D01*
X218700Y-25737D01*
X218625Y-26407D01*
X218475Y-27064D01*
X218252Y-27700D01*
X217960Y-28307D01*
X217601Y-28878D01*
X217181Y-29404D01*
X216704Y-29881D01*
X216178Y-30301D01*
X215607Y-30660D01*
X215000Y-30952D01*
X214364Y-31175D01*
X213707Y-31325D01*
X213037Y-31400D01*
X212363Y-31400D01*
X212363Y-56800D02*
X211693Y-56725D01*
X211036Y-56575D01*
X210400Y-56352D01*
X209793Y-56060D01*
X209223Y-55701D01*
X208696Y-55281D01*
X208219Y-54804D01*
X207799Y-54278D01*
X207440Y-53707D01*
X207148Y-53100D01*
X206925Y-52464D01*
X206775Y-51807D01*
X206700Y-51137D01*
X206700Y-50463D01*
X206775Y-49793D01*
X206925Y-49136D01*
X207148Y-48500D01*
X207440Y-47893D01*
X207799Y-47323D01*
X208219Y-46796D01*
X208696Y-46319D01*
X209223Y-45899D01*
X209793Y-45540D01*
X210400Y-45248D01*
X211036Y-45025D01*
X211693Y-44875D01*
X212363Y-44800D01*
X213037Y-44800D01*
X213707Y-44875D01*
X214364Y-45025D01*
X215000Y-45248D01*
X215607Y-45540D01*
X216178Y-45899D01*
X216704Y-46319D01*
X217181Y-46796D01*
X217601Y-47323D01*
X217960Y-47893D01*
X218252Y-48500D01*
X218475Y-49136D01*
X218625Y-49793D01*
X218700Y-50463D01*
X218700Y-51137D01*
X218625Y-51807D01*
X218475Y-52464D01*
X218252Y-53100D01*
X217960Y-53707D01*
X217601Y-54278D01*
X217181Y-54804D01*
X216704Y-55281D01*
X216178Y-55701D01*
X215607Y-56060D01*
X215000Y-56352D01*
X214364Y-56575D01*
X213707Y-56725D01*
X213037Y-56800D01*
X212363Y-56800D01*
X186963Y-56800D02*
X186293Y-56725D01*
X185636Y-56575D01*
X185000Y-56352D01*
X184393Y-56060D01*
X183823Y-55701D01*
X183296Y-55281D01*
X182819Y-54804D01*
X182399Y-54278D01*
X182040Y-53707D01*
X181748Y-53100D01*
X181525Y-52464D01*
X181375Y-51807D01*
X181300Y-51137D01*
X181300Y-50463D01*
X181375Y-49793D01*
X181525Y-49136D01*
X181748Y-48500D01*
X182040Y-47893D01*
X182399Y-47323D01*
X182819Y-46796D01*
X183296Y-46319D01*
X183823Y-45899D01*
X184393Y-45540D01*
X185000Y-45248D01*
X185636Y-45025D01*
X186293Y-44875D01*
X186963Y-44800D01*
X187637Y-44800D01*
X188307Y-44875D01*
X188964Y-45025D01*
X189600Y-45248D01*
X190207Y-45540D01*
X190778Y-45899D01*
X191304Y-46319D01*
X191781Y-46796D01*
X192201Y-47323D01*
X192560Y-47893D01*
X192852Y-48500D01*
X193075Y-49136D01*
X193225Y-49793D01*
X193300Y-50463D01*
X193300Y-51137D01*
X193225Y-51807D01*
X193075Y-52464D01*
X192852Y-53100D01*
X192560Y-53707D01*
X192201Y-54278D01*
X191781Y-54804D01*
X191304Y-55281D01*
X190778Y-55701D01*
X190207Y-56060D01*
X189600Y-56352D01*
X188964Y-56575D01*
X188307Y-56725D01*
X187637Y-56800D01*
X186963Y-56800D01*
X212363Y-82200D02*
X211693Y-82125D01*
X211036Y-81975D01*
X210400Y-81752D01*
X209793Y-81460D01*
X209223Y-81101D01*
X208696Y-80681D01*
X208219Y-80204D01*
X207799Y-79678D01*
X207440Y-79107D01*
X207148Y-78500D01*
X206925Y-77864D01*
X206775Y-77207D01*
X206700Y-76537D01*
X206700Y-75863D01*
X206775Y-75193D01*
X206925Y-74536D01*
X207148Y-73900D01*
X207440Y-73293D01*
X207799Y-72723D01*
X208219Y-72196D01*
X208696Y-71719D01*
X209223Y-71299D01*
X209793Y-70940D01*
X210400Y-70648D01*
X211036Y-70425D01*
X211693Y-70275D01*
X212363Y-70200D01*
X213037Y-70200D01*
X213707Y-70275D01*
X214364Y-70425D01*
X215000Y-70648D01*
X215607Y-70940D01*
X216178Y-71299D01*
X216704Y-71719D01*
X217181Y-72196D01*
X217601Y-72723D01*
X217960Y-73293D01*
X218252Y-73900D01*
X218475Y-74536D01*
X218625Y-75193D01*
X218700Y-75863D01*
X218700Y-76537D01*
X218625Y-77207D01*
X218475Y-77864D01*
X218252Y-78500D01*
X217960Y-79107D01*
X217601Y-79678D01*
X217181Y-80204D01*
X216704Y-80681D01*
X216178Y-81101D01*
X215607Y-81460D01*
X215000Y-81752D01*
X214364Y-81975D01*
X213707Y-82125D01*
X213037Y-82200D01*
X212363Y-82200D01*
X186963Y-82200D02*
X186293Y-82125D01*
X185636Y-81975D01*
X185000Y-81752D01*
X184393Y-81460D01*
X183823Y-81101D01*
X183296Y-80681D01*
X182819Y-80204D01*
X182399Y-79678D01*
X182040Y-79107D01*
X181748Y-78500D01*
X181525Y-77864D01*
X181375Y-77207D01*
X181300Y-76537D01*
X181300Y-75863D01*
X181375Y-75193D01*
X181525Y-74536D01*
X181748Y-73900D01*
X182040Y-73293D01*
X182399Y-72723D01*
X182819Y-72196D01*
X183296Y-71719D01*
X183823Y-71299D01*
X184393Y-70940D01*
X185000Y-70648D01*
X185636Y-70425D01*
X186293Y-70275D01*
X186963Y-70200D01*
X187637Y-70200D01*
X188307Y-70275D01*
X188964Y-70425D01*
X189600Y-70648D01*
X190207Y-70940D01*
X190778Y-71299D01*
X191304Y-71719D01*
X191781Y-72196D01*
X192201Y-72723D01*
X192560Y-73293D01*
X192852Y-73900D01*
X193075Y-74536D01*
X193225Y-75193D01*
X193300Y-75863D01*
X193300Y-76537D01*
X193225Y-77207D01*
X193075Y-77864D01*
X192852Y-78500D01*
X192560Y-79107D01*
X192201Y-79678D01*
X191781Y-80204D01*
X191304Y-80681D01*
X190778Y-81101D01*
X190207Y-81460D01*
X189600Y-81752D01*
X188964Y-81975D01*
X188307Y-82125D01*
X187637Y-82200D01*
X186963Y-82200D01*
X186963Y-107600D02*
X186293Y-107525D01*
X185636Y-107375D01*
X185000Y-107152D01*
X184393Y-106860D01*
X183823Y-106501D01*
X183296Y-106081D01*
X182819Y-105604D01*
X182399Y-105078D01*
X182040Y-104507D01*
X181748Y-103900D01*
X181525Y-103264D01*
X181375Y-102607D01*
X181300Y-101937D01*
X181300Y-101263D01*
X181375Y-100593D01*
X181525Y-99936D01*
X181748Y-99300D01*
X182040Y-98693D01*
X182399Y-98123D01*
X182819Y-97596D01*
X183296Y-97119D01*
X183823Y-96699D01*
X184393Y-96340D01*
X185000Y-96048D01*
X185636Y-95825D01*
X186293Y-95675D01*
X186963Y-95600D01*
X187637Y-95600D01*
X188307Y-95675D01*
X188964Y-95825D01*
X189600Y-96048D01*
X190207Y-96340D01*
X190778Y-96699D01*
X191304Y-97119D01*
X191781Y-97596D01*
X192201Y-98123D01*
X192560Y-98693D01*
X192852Y-99300D01*
X193075Y-99936D01*
X193225Y-100593D01*
X193300Y-101263D01*
X193300Y-101937D01*
X193225Y-102607D01*
X193075Y-103264D01*
X192852Y-103900D01*
X192560Y-104507D01*
X192201Y-105078D01*
X191781Y-105604D01*
X191304Y-106081D01*
X190778Y-106501D01*
X190207Y-106860D01*
X189600Y-107152D01*
X188964Y-107375D01*
X188307Y-107525D01*
X187637Y-107600D01*
X186963Y-107600D01*
X212363Y-107600D02*
X211693Y-107525D01*
X211036Y-107375D01*
X210400Y-107152D01*
X209793Y-106860D01*
X209223Y-106501D01*
X208696Y-106081D01*
X208219Y-105604D01*
X207799Y-105078D01*
X207440Y-104507D01*
X207148Y-103900D01*
X206925Y-103264D01*
X206775Y-102607D01*
X206700Y-101937D01*
X206700Y-101263D01*
X206775Y-100593D01*
X206925Y-99936D01*
X207148Y-99300D01*
X207440Y-98693D01*
X207799Y-98123D01*
X208219Y-97596D01*
X208696Y-97119D01*
X209223Y-96699D01*
X209793Y-96340D01*
X210400Y-96048D01*
X211036Y-95825D01*
X211693Y-95675D01*
X212363Y-95600D01*
X213037Y-95600D01*
X213707Y-95675D01*
X214364Y-95825D01*
X215000Y-96048D01*
X215607Y-96340D01*
X216178Y-96699D01*
X216704Y-97119D01*
X217181Y-97596D01*
X217601Y-98123D01*
X217960Y-98693D01*
X218252Y-99300D01*
X218475Y-99936D01*
X218625Y-100593D01*
X218700Y-101263D01*
X218700Y-101937D01*
X218625Y-102607D01*
X218475Y-103264D01*
X218252Y-103900D01*
X217960Y-104507D01*
X217601Y-105078D01*
X217181Y-105604D01*
X216704Y-106081D01*
X216178Y-106501D01*
X215607Y-106860D01*
X215000Y-107152D01*
X214364Y-107375D01*
X213707Y-107525D01*
X213037Y-107600D01*
X212363Y-107600D01*
M02*
