G04 EAGLE Gerber RS-274X export*
G75*
%MOMM*%
%FSLAX34Y34*%
%LPD*%
%INSilkscreen Bottom*%
%IPPOS*%
%AMOC8*
5,1,8,0,0,1.08239X$1,22.5*%
G01*
%ADD10C,0.050800*%
%ADD11C,0.100000*%

G36*
X53054Y356512D02*
X53054Y356512D01*
X53109Y356513D01*
X53150Y356531D01*
X53195Y356540D01*
X53240Y356572D01*
X53291Y356594D01*
X53321Y356627D01*
X53359Y356653D01*
X53388Y356699D01*
X53426Y356740D01*
X53441Y356782D01*
X53466Y356820D01*
X53475Y356875D01*
X53494Y356927D01*
X53491Y356972D01*
X53499Y357017D01*
X53486Y357070D01*
X53483Y357125D01*
X53462Y357174D01*
X53453Y357210D01*
X53434Y357236D01*
X53415Y357277D01*
X51415Y360277D01*
X51411Y360282D01*
X51408Y360288D01*
X51367Y360327D01*
X51338Y360366D01*
X51309Y360383D01*
X51274Y360417D01*
X51268Y360420D01*
X51263Y360424D01*
X51199Y360448D01*
X51167Y360467D01*
X51137Y360472D01*
X51090Y360491D01*
X51083Y360491D01*
X51077Y360493D01*
X51025Y360491D01*
X51003Y360495D01*
X50997Y360495D01*
X50967Y360489D01*
X50891Y360487D01*
X50885Y360484D01*
X50878Y360484D01*
X50829Y360461D01*
X50802Y360455D01*
X50770Y360433D01*
X50709Y360406D01*
X50705Y360401D01*
X50699Y360398D01*
X50662Y360359D01*
X50638Y360343D01*
X50621Y360315D01*
X50585Y360277D01*
X48585Y357277D01*
X48564Y357226D01*
X48534Y357180D01*
X48527Y357135D01*
X48509Y357093D01*
X48510Y357038D01*
X48501Y356983D01*
X48512Y356939D01*
X48512Y356894D01*
X48534Y356844D01*
X48547Y356790D01*
X48574Y356754D01*
X48592Y356712D01*
X48632Y356674D01*
X48665Y356630D01*
X48704Y356607D01*
X48737Y356576D01*
X48789Y356557D01*
X48836Y356528D01*
X48888Y356520D01*
X48923Y356507D01*
X48956Y356508D01*
X49000Y356501D01*
X53000Y356501D01*
X53054Y356512D01*
G37*
G36*
X92054Y-93488D02*
X92054Y-93488D01*
X92109Y-93487D01*
X92150Y-93469D01*
X92195Y-93460D01*
X92240Y-93428D01*
X92291Y-93406D01*
X92321Y-93373D01*
X92359Y-93347D01*
X92388Y-93301D01*
X92426Y-93260D01*
X92441Y-93218D01*
X92466Y-93180D01*
X92475Y-93125D01*
X92494Y-93074D01*
X92491Y-93028D01*
X92499Y-92983D01*
X92486Y-92930D01*
X92483Y-92875D01*
X92462Y-92826D01*
X92453Y-92790D01*
X92434Y-92764D01*
X92415Y-92723D01*
X90415Y-89723D01*
X90411Y-89718D01*
X90408Y-89712D01*
X90367Y-89673D01*
X90338Y-89634D01*
X90309Y-89617D01*
X90274Y-89583D01*
X90268Y-89580D01*
X90263Y-89576D01*
X90199Y-89552D01*
X90167Y-89533D01*
X90137Y-89528D01*
X90090Y-89509D01*
X90083Y-89509D01*
X90077Y-89507D01*
X90025Y-89509D01*
X90003Y-89505D01*
X89997Y-89505D01*
X89967Y-89511D01*
X89891Y-89513D01*
X89885Y-89516D01*
X89878Y-89516D01*
X89829Y-89539D01*
X89802Y-89545D01*
X89770Y-89567D01*
X89709Y-89594D01*
X89705Y-89599D01*
X89699Y-89602D01*
X89662Y-89641D01*
X89638Y-89657D01*
X89621Y-89685D01*
X89585Y-89723D01*
X87585Y-92723D01*
X87564Y-92774D01*
X87534Y-92820D01*
X87527Y-92865D01*
X87509Y-92907D01*
X87510Y-92962D01*
X87501Y-93017D01*
X87512Y-93061D01*
X87512Y-93106D01*
X87534Y-93157D01*
X87547Y-93210D01*
X87574Y-93246D01*
X87592Y-93288D01*
X87632Y-93326D01*
X87665Y-93370D01*
X87704Y-93393D01*
X87737Y-93424D01*
X87789Y-93443D01*
X87836Y-93472D01*
X87888Y-93480D01*
X87923Y-93493D01*
X87956Y-93492D01*
X88000Y-93499D01*
X92000Y-93499D01*
X92054Y-93488D01*
G37*
D10*
X3112Y352064D02*
X6186Y348990D01*
X6236Y348942D01*
X6290Y348897D01*
X6345Y348855D01*
X6403Y348816D01*
X6463Y348781D01*
X6525Y348749D01*
X6589Y348721D01*
X6654Y348696D01*
X6720Y348675D01*
X6788Y348657D01*
X6856Y348644D01*
X6925Y348634D01*
X6994Y348628D01*
X7064Y348626D01*
X7134Y348628D01*
X7203Y348634D01*
X7272Y348644D01*
X7340Y348657D01*
X7408Y348675D01*
X7474Y348696D01*
X7539Y348721D01*
X7603Y348749D01*
X7665Y348781D01*
X7725Y348816D01*
X7783Y348855D01*
X7838Y348897D01*
X7892Y348942D01*
X7942Y348990D01*
X8381Y349429D01*
X4427Y345476D02*
X476Y349427D01*
X1573Y350525D02*
X-622Y348329D01*
X-2177Y346774D02*
X1775Y342823D01*
X-2177Y346774D02*
X-3274Y345677D01*
X-3274Y345676D02*
X-3329Y345619D01*
X-3380Y345560D01*
X-3428Y345498D01*
X-3473Y345433D01*
X-3514Y345366D01*
X-3553Y345298D01*
X-3587Y345227D01*
X-3618Y345155D01*
X-3646Y345081D01*
X-3669Y345006D01*
X-3689Y344930D01*
X-3705Y344853D01*
X-3717Y344775D01*
X-3725Y344697D01*
X-3729Y344618D01*
X-3729Y344540D01*
X-3725Y344461D01*
X-3717Y344383D01*
X-3705Y344305D01*
X-3689Y344228D01*
X-3669Y344152D01*
X-3646Y344077D01*
X-3618Y344003D01*
X-3587Y343931D01*
X-3553Y343860D01*
X-3514Y343792D01*
X-3473Y343725D01*
X-3428Y343660D01*
X-3380Y343598D01*
X-3329Y343539D01*
X-3274Y343482D01*
X-1518Y341726D01*
X-1463Y341673D01*
X-1406Y341623D01*
X-1346Y341576D01*
X-1283Y341533D01*
X-1219Y341492D01*
X-1153Y341454D01*
X-1085Y341420D01*
X-1015Y341389D01*
X-944Y341362D01*
X-872Y341338D01*
X-798Y341318D01*
X-724Y341301D01*
X-649Y341288D01*
X-573Y341278D01*
X-497Y341273D01*
X-421Y341271D01*
X-345Y341273D01*
X-269Y341278D01*
X-193Y341288D01*
X-118Y341301D01*
X-44Y341318D01*
X30Y341338D01*
X102Y341362D01*
X173Y341389D01*
X243Y341420D01*
X311Y341454D01*
X377Y341492D01*
X441Y341533D01*
X504Y341576D01*
X564Y341623D01*
X621Y341673D01*
X676Y341726D01*
X677Y341726D02*
X1775Y342823D01*
X-3332Y339912D02*
X-5088Y341668D01*
X-5088Y341667D02*
X-5145Y341722D01*
X-5204Y341773D01*
X-5266Y341821D01*
X-5331Y341866D01*
X-5398Y341907D01*
X-5466Y341946D01*
X-5537Y341980D01*
X-5609Y342011D01*
X-5683Y342039D01*
X-5758Y342062D01*
X-5834Y342082D01*
X-5911Y342098D01*
X-5989Y342110D01*
X-6067Y342118D01*
X-6146Y342122D01*
X-6224Y342122D01*
X-6303Y342118D01*
X-6381Y342110D01*
X-6459Y342098D01*
X-6536Y342082D01*
X-6612Y342062D01*
X-6687Y342039D01*
X-6761Y342011D01*
X-6833Y341980D01*
X-6904Y341946D01*
X-6972Y341907D01*
X-7039Y341866D01*
X-7104Y341821D01*
X-7166Y341773D01*
X-7225Y341722D01*
X-7282Y341667D01*
X-7337Y341610D01*
X-7388Y341551D01*
X-7436Y341489D01*
X-7481Y341424D01*
X-7522Y341357D01*
X-7561Y341289D01*
X-7595Y341218D01*
X-7626Y341146D01*
X-7654Y341072D01*
X-7677Y340997D01*
X-7697Y340921D01*
X-7713Y340844D01*
X-7725Y340766D01*
X-7733Y340688D01*
X-7737Y340609D01*
X-7737Y340531D01*
X-7733Y340452D01*
X-7725Y340374D01*
X-7713Y340296D01*
X-7697Y340219D01*
X-7677Y340143D01*
X-7654Y340068D01*
X-7626Y339994D01*
X-7595Y339922D01*
X-7561Y339851D01*
X-7522Y339783D01*
X-7481Y339716D01*
X-7436Y339651D01*
X-7388Y339589D01*
X-7337Y339530D01*
X-7282Y339473D01*
X-7283Y339473D02*
X-5527Y337717D01*
X-5526Y337717D02*
X-5469Y337662D01*
X-5410Y337611D01*
X-5348Y337563D01*
X-5283Y337518D01*
X-5216Y337477D01*
X-5148Y337438D01*
X-5077Y337404D01*
X-5005Y337373D01*
X-4931Y337345D01*
X-4856Y337322D01*
X-4780Y337302D01*
X-4703Y337286D01*
X-4625Y337274D01*
X-4547Y337266D01*
X-4468Y337262D01*
X-4390Y337262D01*
X-4311Y337266D01*
X-4233Y337274D01*
X-4155Y337286D01*
X-4078Y337302D01*
X-4002Y337322D01*
X-3927Y337345D01*
X-3853Y337373D01*
X-3781Y337404D01*
X-3710Y337438D01*
X-3642Y337477D01*
X-3575Y337518D01*
X-3510Y337563D01*
X-3448Y337611D01*
X-3389Y337662D01*
X-3332Y337717D01*
X-3277Y337774D01*
X-3226Y337833D01*
X-3178Y337895D01*
X-3133Y337960D01*
X-3092Y338027D01*
X-3053Y338095D01*
X-3019Y338166D01*
X-2988Y338238D01*
X-2960Y338312D01*
X-2937Y338387D01*
X-2917Y338463D01*
X-2901Y338540D01*
X-2889Y338618D01*
X-2881Y338696D01*
X-2877Y338775D01*
X-2877Y338853D01*
X-2881Y338932D01*
X-2889Y339010D01*
X-2901Y339088D01*
X-2917Y339165D01*
X-2937Y339241D01*
X-2960Y339316D01*
X-2988Y339390D01*
X-3019Y339462D01*
X-3053Y339533D01*
X-3092Y339601D01*
X-3133Y339668D01*
X-3178Y339733D01*
X-3226Y339795D01*
X-3277Y339854D01*
X-3332Y339911D01*
X28154Y351705D02*
X31227Y348632D01*
X31277Y348584D01*
X31331Y348539D01*
X31386Y348497D01*
X31444Y348458D01*
X31504Y348423D01*
X31566Y348391D01*
X31630Y348363D01*
X31695Y348338D01*
X31761Y348317D01*
X31829Y348299D01*
X31897Y348286D01*
X31966Y348276D01*
X32035Y348270D01*
X32105Y348268D01*
X32175Y348270D01*
X32244Y348276D01*
X32313Y348286D01*
X32381Y348299D01*
X32449Y348317D01*
X32515Y348338D01*
X32580Y348363D01*
X32644Y348391D01*
X32706Y348423D01*
X32766Y348458D01*
X32824Y348497D01*
X32879Y348539D01*
X32933Y348584D01*
X32983Y348632D01*
X33422Y349071D01*
X29469Y345117D02*
X25517Y349068D01*
X24420Y347971D02*
X26615Y350166D01*
X26079Y341727D02*
X25201Y340849D01*
X26079Y341727D02*
X26127Y341777D01*
X26172Y341831D01*
X26214Y341886D01*
X26253Y341944D01*
X26288Y342004D01*
X26320Y342066D01*
X26348Y342130D01*
X26373Y342195D01*
X26394Y342261D01*
X26412Y342329D01*
X26425Y342397D01*
X26435Y342466D01*
X26441Y342535D01*
X26443Y342605D01*
X26441Y342675D01*
X26435Y342744D01*
X26425Y342813D01*
X26412Y342881D01*
X26394Y342949D01*
X26373Y343015D01*
X26348Y343080D01*
X26320Y343144D01*
X26288Y343206D01*
X26253Y343266D01*
X26214Y343324D01*
X26172Y343379D01*
X26127Y343433D01*
X26079Y343483D01*
X23884Y345679D01*
X23884Y345678D02*
X23834Y345726D01*
X23780Y345771D01*
X23725Y345813D01*
X23667Y345852D01*
X23607Y345887D01*
X23545Y345919D01*
X23481Y345947D01*
X23416Y345972D01*
X23350Y345993D01*
X23282Y346011D01*
X23214Y346024D01*
X23145Y346034D01*
X23076Y346040D01*
X23006Y346042D01*
X22936Y346040D01*
X22867Y346034D01*
X22798Y346024D01*
X22730Y346011D01*
X22662Y345993D01*
X22596Y345972D01*
X22531Y345947D01*
X22467Y345919D01*
X22405Y345887D01*
X22345Y345852D01*
X22287Y345813D01*
X22232Y345771D01*
X22178Y345726D01*
X22128Y345678D01*
X22128Y345679D02*
X21250Y344801D01*
X19573Y343124D02*
X23525Y339173D01*
X21988Y340710D02*
X17378Y340929D01*
X20232Y340710D02*
X21329Y336978D01*
X54106Y352257D02*
X57180Y349184D01*
X57230Y349136D01*
X57284Y349091D01*
X57339Y349049D01*
X57397Y349010D01*
X57457Y348975D01*
X57519Y348943D01*
X57583Y348915D01*
X57648Y348890D01*
X57714Y348869D01*
X57782Y348851D01*
X57850Y348838D01*
X57919Y348828D01*
X57988Y348822D01*
X58058Y348820D01*
X58128Y348822D01*
X58197Y348828D01*
X58266Y348838D01*
X58334Y348851D01*
X58402Y348869D01*
X58468Y348890D01*
X58533Y348915D01*
X58597Y348943D01*
X58659Y348975D01*
X58719Y349010D01*
X58777Y349049D01*
X58832Y349091D01*
X58886Y349136D01*
X58936Y349184D01*
X59375Y349623D01*
X55421Y345670D02*
X51470Y349621D01*
X52567Y350719D02*
X50372Y348523D01*
X48778Y346929D02*
X52730Y342978D01*
X49656Y343417D02*
X48778Y346929D01*
X49656Y343417D02*
X46144Y344295D01*
X50095Y340344D01*
X47055Y337303D02*
X47005Y337255D01*
X46951Y337210D01*
X46896Y337168D01*
X46838Y337129D01*
X46778Y337094D01*
X46716Y337062D01*
X46652Y337034D01*
X46587Y337009D01*
X46521Y336988D01*
X46453Y336970D01*
X46385Y336957D01*
X46316Y336947D01*
X46247Y336941D01*
X46177Y336939D01*
X46107Y336941D01*
X46038Y336947D01*
X45969Y336957D01*
X45901Y336970D01*
X45833Y336988D01*
X45767Y337009D01*
X45702Y337034D01*
X45638Y337062D01*
X45576Y337094D01*
X45516Y337129D01*
X45458Y337168D01*
X45403Y337210D01*
X45349Y337255D01*
X45299Y337303D01*
X47055Y337303D02*
X47123Y337374D01*
X47189Y337448D01*
X47252Y337524D01*
X47312Y337602D01*
X47369Y337682D01*
X47423Y337765D01*
X47473Y337850D01*
X47521Y337936D01*
X47565Y338024D01*
X47606Y338114D01*
X47644Y338205D01*
X47678Y338298D01*
X47708Y338391D01*
X47736Y338486D01*
X47759Y338582D01*
X47779Y338679D01*
X47795Y338776D01*
X47808Y338874D01*
X47816Y338972D01*
X47822Y339070D01*
X47823Y339169D01*
X45189Y341584D02*
X45139Y341632D01*
X45085Y341677D01*
X45030Y341719D01*
X44972Y341758D01*
X44912Y341793D01*
X44850Y341825D01*
X44786Y341853D01*
X44721Y341878D01*
X44655Y341899D01*
X44587Y341917D01*
X44519Y341930D01*
X44450Y341940D01*
X44381Y341946D01*
X44311Y341948D01*
X44241Y341946D01*
X44172Y341940D01*
X44103Y341930D01*
X44035Y341917D01*
X43967Y341899D01*
X43901Y341878D01*
X43836Y341853D01*
X43772Y341825D01*
X43710Y341793D01*
X43650Y341758D01*
X43592Y341719D01*
X43537Y341677D01*
X43483Y341632D01*
X43433Y341584D01*
X43368Y341517D01*
X43306Y341447D01*
X43247Y341374D01*
X43190Y341299D01*
X43137Y341222D01*
X43087Y341143D01*
X43040Y341062D01*
X42997Y340979D01*
X42957Y340895D01*
X42920Y340808D01*
X42887Y340721D01*
X42857Y340632D01*
X42831Y340542D01*
X42808Y340451D01*
X42789Y340360D01*
X42774Y340267D01*
X45518Y340376D02*
X45533Y340444D01*
X45545Y340511D01*
X45553Y340580D01*
X45557Y340649D01*
X45558Y340718D01*
X45554Y340786D01*
X45547Y340855D01*
X45537Y340923D01*
X45522Y340990D01*
X45504Y341057D01*
X45482Y341122D01*
X45457Y341186D01*
X45428Y341249D01*
X45396Y341310D01*
X45361Y341369D01*
X45322Y341426D01*
X45281Y341481D01*
X45236Y341534D01*
X45189Y341584D01*
X44970Y338510D02*
X44955Y338443D01*
X44943Y338375D01*
X44935Y338307D01*
X44931Y338238D01*
X44930Y338169D01*
X44934Y338101D01*
X44941Y338032D01*
X44951Y337964D01*
X44966Y337897D01*
X44984Y337830D01*
X45006Y337765D01*
X45031Y337701D01*
X45060Y337638D01*
X45092Y337577D01*
X45127Y337518D01*
X45166Y337461D01*
X45207Y337406D01*
X45252Y337353D01*
X45299Y337303D01*
X44970Y338511D02*
X45518Y340376D01*
X-19932Y348273D02*
X-23005Y351346D01*
X-19932Y348273D02*
X-19882Y348225D01*
X-19828Y348180D01*
X-19773Y348138D01*
X-19715Y348099D01*
X-19655Y348064D01*
X-19593Y348032D01*
X-19529Y348004D01*
X-19464Y347979D01*
X-19398Y347958D01*
X-19330Y347940D01*
X-19262Y347927D01*
X-19193Y347917D01*
X-19124Y347911D01*
X-19054Y347909D01*
X-18984Y347911D01*
X-18915Y347917D01*
X-18846Y347927D01*
X-18778Y347940D01*
X-18710Y347958D01*
X-18644Y347979D01*
X-18579Y348004D01*
X-18515Y348032D01*
X-18453Y348064D01*
X-18393Y348099D01*
X-18335Y348138D01*
X-18280Y348180D01*
X-18226Y348225D01*
X-18176Y348273D01*
X-17737Y348712D01*
X-21690Y344758D02*
X-25642Y348710D01*
X-24544Y349807D02*
X-26739Y347612D01*
X-28294Y346057D02*
X-24343Y342106D01*
X-28294Y346057D02*
X-29392Y344960D01*
X-29391Y344959D02*
X-29446Y344902D01*
X-29497Y344843D01*
X-29545Y344781D01*
X-29590Y344716D01*
X-29631Y344649D01*
X-29670Y344581D01*
X-29704Y344510D01*
X-29735Y344438D01*
X-29763Y344364D01*
X-29786Y344289D01*
X-29806Y344213D01*
X-29822Y344136D01*
X-29834Y344058D01*
X-29842Y343980D01*
X-29846Y343901D01*
X-29846Y343823D01*
X-29842Y343744D01*
X-29834Y343666D01*
X-29822Y343588D01*
X-29806Y343511D01*
X-29786Y343435D01*
X-29763Y343360D01*
X-29735Y343286D01*
X-29704Y343214D01*
X-29670Y343143D01*
X-29631Y343075D01*
X-29590Y343008D01*
X-29545Y342943D01*
X-29497Y342881D01*
X-29446Y342822D01*
X-29391Y342765D01*
X-29392Y342764D02*
X-27636Y341008D01*
X-27635Y341009D02*
X-27580Y340956D01*
X-27523Y340906D01*
X-27463Y340859D01*
X-27400Y340816D01*
X-27336Y340775D01*
X-27270Y340737D01*
X-27202Y340703D01*
X-27132Y340672D01*
X-27061Y340645D01*
X-26989Y340621D01*
X-26915Y340601D01*
X-26841Y340584D01*
X-26766Y340571D01*
X-26690Y340561D01*
X-26614Y340556D01*
X-26538Y340554D01*
X-26462Y340556D01*
X-26386Y340561D01*
X-26310Y340571D01*
X-26235Y340584D01*
X-26161Y340601D01*
X-26087Y340621D01*
X-26015Y340645D01*
X-25944Y340672D01*
X-25874Y340703D01*
X-25806Y340737D01*
X-25740Y340775D01*
X-25676Y340816D01*
X-25613Y340859D01*
X-25553Y340906D01*
X-25496Y340956D01*
X-25441Y341009D01*
X-25440Y341008D02*
X-24343Y342106D01*
X-28673Y337775D02*
X-32625Y341727D01*
X-28234Y338214D02*
X-29112Y337336D01*
X-33064Y341288D02*
X-32186Y342166D01*
X-42037Y349812D02*
X-45988Y353763D01*
X-44232Y347617D01*
X-48183Y351568D01*
X-50152Y349599D02*
X-46201Y345648D01*
X-50152Y349599D02*
X-51250Y348502D01*
X-51249Y348501D02*
X-51304Y348444D01*
X-51355Y348385D01*
X-51403Y348323D01*
X-51448Y348258D01*
X-51489Y348191D01*
X-51528Y348123D01*
X-51562Y348052D01*
X-51593Y347980D01*
X-51621Y347906D01*
X-51644Y347831D01*
X-51664Y347755D01*
X-51680Y347678D01*
X-51692Y347600D01*
X-51700Y347522D01*
X-51704Y347443D01*
X-51704Y347365D01*
X-51700Y347286D01*
X-51692Y347208D01*
X-51680Y347130D01*
X-51664Y347053D01*
X-51644Y346977D01*
X-51621Y346902D01*
X-51593Y346828D01*
X-51562Y346756D01*
X-51528Y346685D01*
X-51489Y346617D01*
X-51448Y346550D01*
X-51403Y346485D01*
X-51355Y346423D01*
X-51304Y346364D01*
X-51249Y346307D01*
X-51192Y346252D01*
X-51133Y346201D01*
X-51071Y346153D01*
X-51006Y346108D01*
X-50939Y346067D01*
X-50871Y346028D01*
X-50800Y345994D01*
X-50728Y345963D01*
X-50654Y345935D01*
X-50579Y345912D01*
X-50503Y345892D01*
X-50426Y345876D01*
X-50348Y345864D01*
X-50270Y345856D01*
X-50191Y345852D01*
X-50113Y345852D01*
X-50034Y345856D01*
X-49956Y345864D01*
X-49878Y345876D01*
X-49801Y345892D01*
X-49725Y345912D01*
X-49650Y345935D01*
X-49576Y345963D01*
X-49504Y345994D01*
X-49433Y346028D01*
X-49365Y346067D01*
X-49298Y346108D01*
X-49233Y346153D01*
X-49171Y346201D01*
X-49112Y346252D01*
X-49055Y346307D01*
X-49054Y346307D02*
X-47957Y347404D01*
X-49274Y346087D02*
X-48396Y343453D01*
X-51242Y340607D02*
X-51292Y340559D01*
X-51346Y340514D01*
X-51401Y340472D01*
X-51459Y340433D01*
X-51519Y340398D01*
X-51581Y340366D01*
X-51645Y340338D01*
X-51710Y340313D01*
X-51776Y340292D01*
X-51844Y340274D01*
X-51912Y340261D01*
X-51981Y340251D01*
X-52050Y340245D01*
X-52120Y340243D01*
X-52190Y340245D01*
X-52259Y340251D01*
X-52328Y340261D01*
X-52396Y340274D01*
X-52464Y340292D01*
X-52530Y340313D01*
X-52595Y340338D01*
X-52659Y340366D01*
X-52721Y340398D01*
X-52781Y340433D01*
X-52839Y340472D01*
X-52894Y340514D01*
X-52948Y340559D01*
X-52998Y340607D01*
X-51242Y340606D02*
X-51174Y340677D01*
X-51108Y340751D01*
X-51045Y340827D01*
X-50985Y340905D01*
X-50928Y340985D01*
X-50874Y341068D01*
X-50824Y341153D01*
X-50776Y341239D01*
X-50732Y341327D01*
X-50691Y341417D01*
X-50653Y341508D01*
X-50619Y341601D01*
X-50589Y341694D01*
X-50561Y341789D01*
X-50538Y341885D01*
X-50518Y341982D01*
X-50502Y342079D01*
X-50489Y342177D01*
X-50481Y342275D01*
X-50475Y342373D01*
X-50474Y342472D01*
X-53108Y344887D02*
X-53158Y344935D01*
X-53212Y344980D01*
X-53267Y345022D01*
X-53325Y345061D01*
X-53385Y345096D01*
X-53447Y345128D01*
X-53511Y345156D01*
X-53576Y345181D01*
X-53642Y345202D01*
X-53710Y345220D01*
X-53778Y345233D01*
X-53847Y345243D01*
X-53916Y345249D01*
X-53986Y345251D01*
X-54056Y345249D01*
X-54125Y345243D01*
X-54194Y345233D01*
X-54262Y345220D01*
X-54330Y345202D01*
X-54396Y345181D01*
X-54461Y345156D01*
X-54525Y345128D01*
X-54587Y345096D01*
X-54647Y345061D01*
X-54705Y345022D01*
X-54760Y344980D01*
X-54814Y344935D01*
X-54864Y344887D01*
X-54929Y344820D01*
X-54991Y344750D01*
X-55050Y344677D01*
X-55107Y344602D01*
X-55160Y344525D01*
X-55210Y344446D01*
X-55257Y344365D01*
X-55300Y344282D01*
X-55340Y344198D01*
X-55377Y344111D01*
X-55410Y344024D01*
X-55440Y343935D01*
X-55466Y343845D01*
X-55489Y343754D01*
X-55508Y343663D01*
X-55523Y343570D01*
X-52779Y343679D02*
X-52764Y343747D01*
X-52752Y343815D01*
X-52744Y343883D01*
X-52740Y343952D01*
X-52739Y344021D01*
X-52743Y344089D01*
X-52750Y344158D01*
X-52760Y344226D01*
X-52775Y344293D01*
X-52793Y344360D01*
X-52815Y344425D01*
X-52840Y344489D01*
X-52869Y344552D01*
X-52901Y344613D01*
X-52936Y344672D01*
X-52975Y344729D01*
X-53016Y344784D01*
X-53061Y344837D01*
X-53108Y344887D01*
X-53328Y341813D02*
X-53343Y341746D01*
X-53355Y341678D01*
X-53363Y341610D01*
X-53367Y341541D01*
X-53368Y341472D01*
X-53364Y341404D01*
X-53357Y341335D01*
X-53347Y341267D01*
X-53332Y341200D01*
X-53314Y341133D01*
X-53292Y341068D01*
X-53267Y341004D01*
X-53238Y340941D01*
X-53206Y340880D01*
X-53171Y340821D01*
X-53132Y340764D01*
X-53091Y340709D01*
X-53046Y340656D01*
X-52999Y340606D01*
X-53328Y341814D02*
X-52779Y343680D01*
X-58466Y341286D02*
X-54514Y337334D01*
X-57368Y342383D02*
X-59563Y340188D01*
X-39776Y442073D02*
X-38019Y443829D01*
X-41971Y447781D01*
X-43727Y446025D01*
X-41532Y444707D02*
X-40215Y446024D01*
X-45325Y444426D02*
X-41374Y440475D01*
X-43569Y438280D02*
X-45325Y444426D01*
X-47520Y442231D02*
X-43569Y438280D01*
X-44775Y436196D02*
X-46531Y434439D01*
X-48674Y433175D02*
X-52625Y437126D01*
X-53723Y436028D01*
X-53722Y436028D02*
X-53777Y435971D01*
X-53828Y435912D01*
X-53876Y435850D01*
X-53921Y435785D01*
X-53962Y435718D01*
X-54001Y435650D01*
X-54035Y435579D01*
X-54066Y435507D01*
X-54094Y435433D01*
X-54117Y435358D01*
X-54137Y435282D01*
X-54153Y435205D01*
X-54165Y435127D01*
X-54173Y435049D01*
X-54177Y434970D01*
X-54177Y434892D01*
X-54173Y434813D01*
X-54165Y434735D01*
X-54153Y434657D01*
X-54137Y434580D01*
X-54117Y434504D01*
X-54094Y434429D01*
X-54066Y434355D01*
X-54035Y434283D01*
X-54001Y434212D01*
X-53962Y434144D01*
X-53921Y434077D01*
X-53876Y434012D01*
X-53828Y433950D01*
X-53777Y433891D01*
X-53722Y433834D01*
X-53665Y433779D01*
X-53606Y433728D01*
X-53544Y433680D01*
X-53479Y433635D01*
X-53412Y433594D01*
X-53344Y433555D01*
X-53273Y433521D01*
X-53201Y433490D01*
X-53127Y433462D01*
X-53052Y433439D01*
X-52976Y433419D01*
X-52899Y433403D01*
X-52821Y433391D01*
X-52743Y433383D01*
X-52664Y433379D01*
X-52586Y433379D01*
X-52507Y433383D01*
X-52429Y433391D01*
X-52351Y433403D01*
X-52274Y433419D01*
X-52198Y433439D01*
X-52123Y433462D01*
X-52049Y433490D01*
X-51977Y433521D01*
X-51906Y433555D01*
X-51838Y433594D01*
X-51771Y433635D01*
X-51706Y433680D01*
X-51644Y433728D01*
X-51585Y433779D01*
X-51528Y433834D01*
X-51528Y433833D02*
X-50430Y434931D01*
X-56176Y433576D02*
X-53102Y428746D01*
X-56615Y430503D01*
X-54858Y426990D01*
X-59688Y430063D01*
X-61386Y428366D02*
X-57434Y424414D01*
X-61386Y428366D02*
X-62483Y427268D01*
X-62483Y427267D02*
X-62538Y427210D01*
X-62589Y427151D01*
X-62637Y427089D01*
X-62682Y427024D01*
X-62723Y426957D01*
X-62762Y426889D01*
X-62796Y426818D01*
X-62827Y426746D01*
X-62855Y426672D01*
X-62878Y426597D01*
X-62898Y426521D01*
X-62914Y426444D01*
X-62926Y426366D01*
X-62934Y426288D01*
X-62938Y426209D01*
X-62938Y426131D01*
X-62934Y426052D01*
X-62926Y425974D01*
X-62914Y425896D01*
X-62898Y425819D01*
X-62878Y425743D01*
X-62855Y425668D01*
X-62827Y425594D01*
X-62796Y425522D01*
X-62762Y425451D01*
X-62723Y425383D01*
X-62682Y425316D01*
X-62637Y425251D01*
X-62589Y425189D01*
X-62538Y425130D01*
X-62483Y425073D01*
X-62426Y425018D01*
X-62367Y424967D01*
X-62305Y424919D01*
X-62240Y424874D01*
X-62173Y424833D01*
X-62105Y424794D01*
X-62034Y424760D01*
X-61962Y424729D01*
X-61888Y424701D01*
X-61813Y424678D01*
X-61737Y424658D01*
X-61660Y424642D01*
X-61582Y424630D01*
X-61504Y424622D01*
X-61425Y424618D01*
X-61347Y424618D01*
X-61268Y424622D01*
X-61190Y424630D01*
X-61112Y424642D01*
X-61035Y424658D01*
X-60959Y424678D01*
X-60884Y424701D01*
X-60810Y424729D01*
X-60738Y424760D01*
X-60667Y424794D01*
X-60599Y424833D01*
X-60532Y424874D01*
X-60467Y424919D01*
X-60405Y424967D01*
X-60346Y425018D01*
X-60289Y425073D01*
X-60288Y425073D02*
X-59191Y426170D01*
X-60508Y424853D02*
X-59630Y422219D01*
X-22579Y438260D02*
X-21921Y438918D01*
X-22579Y438260D02*
X-20384Y436065D01*
X-19067Y437382D01*
X-19019Y437432D01*
X-18974Y437486D01*
X-18932Y437541D01*
X-18893Y437599D01*
X-18858Y437659D01*
X-18826Y437721D01*
X-18798Y437785D01*
X-18773Y437850D01*
X-18752Y437916D01*
X-18734Y437984D01*
X-18721Y438052D01*
X-18711Y438121D01*
X-18705Y438190D01*
X-18703Y438260D01*
X-18705Y438330D01*
X-18711Y438399D01*
X-18721Y438468D01*
X-18734Y438536D01*
X-18752Y438604D01*
X-18773Y438670D01*
X-18798Y438735D01*
X-18826Y438799D01*
X-18858Y438861D01*
X-18893Y438921D01*
X-18932Y438979D01*
X-18974Y439034D01*
X-19019Y439088D01*
X-19067Y439138D01*
X-21262Y441333D01*
X-21312Y441381D01*
X-21366Y441426D01*
X-21421Y441468D01*
X-21479Y441507D01*
X-21539Y441542D01*
X-21601Y441574D01*
X-21665Y441602D01*
X-21730Y441627D01*
X-21796Y441648D01*
X-21864Y441666D01*
X-21932Y441679D01*
X-22001Y441689D01*
X-22070Y441695D01*
X-22140Y441697D01*
X-22210Y441695D01*
X-22279Y441689D01*
X-22348Y441679D01*
X-22416Y441666D01*
X-22484Y441648D01*
X-22550Y441627D01*
X-22615Y441602D01*
X-22679Y441574D01*
X-22741Y441542D01*
X-22801Y441507D01*
X-22859Y441468D01*
X-22914Y441426D01*
X-22968Y441381D01*
X-23018Y441333D01*
X-24335Y440016D01*
X-26278Y438073D02*
X-22327Y434122D01*
X-24522Y431927D02*
X-26278Y438073D01*
X-28473Y435878D02*
X-24522Y431927D01*
X-26465Y429984D02*
X-30416Y433935D01*
X-31514Y432837D01*
X-31513Y432837D02*
X-31568Y432780D01*
X-31619Y432721D01*
X-31667Y432659D01*
X-31712Y432594D01*
X-31753Y432527D01*
X-31792Y432459D01*
X-31826Y432388D01*
X-31857Y432316D01*
X-31885Y432242D01*
X-31908Y432167D01*
X-31928Y432091D01*
X-31944Y432014D01*
X-31956Y431936D01*
X-31964Y431858D01*
X-31968Y431779D01*
X-31968Y431701D01*
X-31964Y431622D01*
X-31956Y431544D01*
X-31944Y431466D01*
X-31928Y431389D01*
X-31908Y431313D01*
X-31885Y431238D01*
X-31857Y431164D01*
X-31826Y431092D01*
X-31792Y431021D01*
X-31753Y430953D01*
X-31712Y430886D01*
X-31667Y430821D01*
X-31619Y430759D01*
X-31568Y430700D01*
X-31513Y430643D01*
X-31514Y430642D02*
X-29758Y428886D01*
X-29757Y428887D02*
X-29702Y428834D01*
X-29645Y428784D01*
X-29585Y428737D01*
X-29522Y428694D01*
X-29458Y428653D01*
X-29392Y428615D01*
X-29324Y428581D01*
X-29254Y428550D01*
X-29183Y428523D01*
X-29111Y428499D01*
X-29037Y428479D01*
X-28963Y428462D01*
X-28888Y428449D01*
X-28812Y428439D01*
X-28736Y428434D01*
X-28660Y428432D01*
X-28584Y428434D01*
X-28508Y428439D01*
X-28432Y428449D01*
X-28357Y428462D01*
X-28283Y428479D01*
X-28209Y428499D01*
X-28137Y428523D01*
X-28066Y428550D01*
X-27996Y428581D01*
X-27928Y428615D01*
X-27862Y428653D01*
X-27798Y428694D01*
X-27735Y428737D01*
X-27675Y428784D01*
X-27618Y428834D01*
X-27563Y428887D01*
X-27563Y428886D02*
X-26465Y429984D01*
X2821Y438260D02*
X3480Y438918D01*
X2821Y438260D02*
X5016Y436065D01*
X6333Y437382D01*
X6381Y437432D01*
X6426Y437486D01*
X6468Y437541D01*
X6507Y437599D01*
X6542Y437659D01*
X6574Y437721D01*
X6602Y437785D01*
X6627Y437850D01*
X6648Y437916D01*
X6666Y437984D01*
X6679Y438052D01*
X6689Y438121D01*
X6695Y438190D01*
X6697Y438260D01*
X6695Y438330D01*
X6689Y438399D01*
X6679Y438468D01*
X6666Y438536D01*
X6648Y438604D01*
X6627Y438670D01*
X6602Y438735D01*
X6574Y438799D01*
X6542Y438861D01*
X6507Y438921D01*
X6468Y438979D01*
X6426Y439034D01*
X6381Y439088D01*
X6333Y439138D01*
X4138Y441333D01*
X4088Y441381D01*
X4034Y441426D01*
X3979Y441468D01*
X3921Y441507D01*
X3861Y441542D01*
X3799Y441574D01*
X3735Y441602D01*
X3670Y441627D01*
X3604Y441648D01*
X3536Y441666D01*
X3468Y441679D01*
X3399Y441689D01*
X3330Y441695D01*
X3260Y441697D01*
X3190Y441695D01*
X3121Y441689D01*
X3052Y441679D01*
X2984Y441666D01*
X2916Y441648D01*
X2850Y441627D01*
X2785Y441602D01*
X2721Y441574D01*
X2659Y441542D01*
X2599Y441507D01*
X2541Y441468D01*
X2486Y441426D01*
X2432Y441381D01*
X2382Y441333D01*
X1065Y440016D01*
X-878Y438073D02*
X3073Y434122D01*
X878Y431927D02*
X-878Y438073D01*
X-3073Y435878D02*
X878Y431927D01*
X-1065Y429984D02*
X-5016Y433935D01*
X-6114Y432837D01*
X-6113Y432837D02*
X-6168Y432780D01*
X-6219Y432721D01*
X-6267Y432659D01*
X-6312Y432594D01*
X-6353Y432527D01*
X-6392Y432459D01*
X-6426Y432388D01*
X-6457Y432316D01*
X-6485Y432242D01*
X-6508Y432167D01*
X-6528Y432091D01*
X-6544Y432014D01*
X-6556Y431936D01*
X-6564Y431858D01*
X-6568Y431779D01*
X-6568Y431701D01*
X-6564Y431622D01*
X-6556Y431544D01*
X-6544Y431466D01*
X-6528Y431389D01*
X-6508Y431313D01*
X-6485Y431238D01*
X-6457Y431164D01*
X-6426Y431092D01*
X-6392Y431021D01*
X-6353Y430953D01*
X-6312Y430886D01*
X-6267Y430821D01*
X-6219Y430759D01*
X-6168Y430700D01*
X-6113Y430643D01*
X-6114Y430642D02*
X-4357Y428886D01*
X-4357Y428887D02*
X-4302Y428834D01*
X-4245Y428784D01*
X-4185Y428737D01*
X-4122Y428694D01*
X-4058Y428653D01*
X-3992Y428615D01*
X-3924Y428581D01*
X-3854Y428550D01*
X-3783Y428523D01*
X-3711Y428499D01*
X-3637Y428479D01*
X-3563Y428462D01*
X-3488Y428449D01*
X-3412Y428439D01*
X-3336Y428434D01*
X-3260Y428432D01*
X-3184Y428434D01*
X-3108Y428439D01*
X-3032Y428449D01*
X-2957Y428462D01*
X-2883Y428479D01*
X-2809Y428499D01*
X-2737Y428523D01*
X-2666Y428550D01*
X-2596Y428581D01*
X-2528Y428615D01*
X-2462Y428653D01*
X-2398Y428694D01*
X-2335Y428737D01*
X-2275Y428784D01*
X-2218Y428834D01*
X-2163Y428887D01*
X-2162Y428886D02*
X-1065Y429984D01*
X28221Y438260D02*
X28880Y438918D01*
X28221Y438260D02*
X30416Y436065D01*
X31733Y437382D01*
X31781Y437432D01*
X31826Y437486D01*
X31868Y437541D01*
X31907Y437599D01*
X31942Y437659D01*
X31974Y437721D01*
X32002Y437785D01*
X32027Y437850D01*
X32048Y437916D01*
X32066Y437984D01*
X32079Y438052D01*
X32089Y438121D01*
X32095Y438190D01*
X32097Y438260D01*
X32095Y438330D01*
X32089Y438399D01*
X32079Y438468D01*
X32066Y438536D01*
X32048Y438604D01*
X32027Y438670D01*
X32002Y438735D01*
X31974Y438799D01*
X31942Y438861D01*
X31907Y438921D01*
X31868Y438979D01*
X31826Y439034D01*
X31781Y439088D01*
X31733Y439138D01*
X29538Y441333D01*
X29488Y441381D01*
X29434Y441426D01*
X29379Y441468D01*
X29321Y441507D01*
X29261Y441542D01*
X29199Y441574D01*
X29135Y441602D01*
X29070Y441627D01*
X29004Y441648D01*
X28936Y441666D01*
X28868Y441679D01*
X28799Y441689D01*
X28730Y441695D01*
X28660Y441697D01*
X28590Y441695D01*
X28521Y441689D01*
X28452Y441679D01*
X28384Y441666D01*
X28316Y441648D01*
X28250Y441627D01*
X28185Y441602D01*
X28121Y441574D01*
X28059Y441542D01*
X27999Y441507D01*
X27941Y441468D01*
X27886Y441426D01*
X27832Y441381D01*
X27782Y441333D01*
X26465Y440016D01*
X24522Y438073D02*
X28473Y434122D01*
X26278Y431927D02*
X24522Y438073D01*
X22327Y435878D02*
X26278Y431927D01*
X24335Y429984D02*
X20384Y433935D01*
X19286Y432837D01*
X19287Y432837D02*
X19232Y432780D01*
X19181Y432721D01*
X19133Y432659D01*
X19088Y432594D01*
X19047Y432527D01*
X19008Y432459D01*
X18974Y432388D01*
X18943Y432316D01*
X18915Y432242D01*
X18892Y432167D01*
X18872Y432091D01*
X18856Y432014D01*
X18844Y431936D01*
X18836Y431858D01*
X18832Y431779D01*
X18832Y431701D01*
X18836Y431622D01*
X18844Y431544D01*
X18856Y431466D01*
X18872Y431389D01*
X18892Y431313D01*
X18915Y431238D01*
X18943Y431164D01*
X18974Y431092D01*
X19008Y431021D01*
X19047Y430953D01*
X19088Y430886D01*
X19133Y430821D01*
X19181Y430759D01*
X19232Y430700D01*
X19287Y430643D01*
X19286Y430642D02*
X21043Y428886D01*
X21043Y428887D02*
X21098Y428834D01*
X21155Y428784D01*
X21215Y428737D01*
X21278Y428694D01*
X21342Y428653D01*
X21408Y428615D01*
X21476Y428581D01*
X21546Y428550D01*
X21617Y428523D01*
X21689Y428499D01*
X21763Y428479D01*
X21837Y428462D01*
X21912Y428449D01*
X21988Y428439D01*
X22064Y428434D01*
X22140Y428432D01*
X22216Y428434D01*
X22292Y428439D01*
X22368Y428449D01*
X22443Y428462D01*
X22517Y428479D01*
X22591Y428499D01*
X22663Y428523D01*
X22734Y428550D01*
X22804Y428581D01*
X22872Y428615D01*
X22938Y428653D01*
X23002Y428694D01*
X23065Y428737D01*
X23125Y428784D01*
X23182Y428834D01*
X23237Y428887D01*
X23238Y428886D02*
X24335Y429984D01*
X55761Y439083D02*
X58395Y441717D01*
X58395Y439083D02*
X55761Y441717D01*
X55574Y435823D02*
X54476Y434725D01*
X54420Y434671D01*
X54362Y434621D01*
X54301Y434573D01*
X54237Y434529D01*
X54172Y434488D01*
X54104Y434450D01*
X54035Y434415D01*
X53964Y434384D01*
X53892Y434357D01*
X53818Y434333D01*
X53743Y434313D01*
X53668Y434297D01*
X53591Y434285D01*
X53514Y434276D01*
X53437Y434271D01*
X53360Y434270D01*
X53282Y434273D01*
X53205Y434280D01*
X53129Y434290D01*
X53053Y434305D01*
X52977Y434323D01*
X52903Y434345D01*
X52830Y434370D01*
X52758Y434399D01*
X52688Y434432D01*
X52620Y434468D01*
X52553Y434508D01*
X52489Y434551D01*
X52427Y434597D01*
X52367Y434646D01*
X52309Y434698D01*
X52255Y434752D01*
X52203Y434810D01*
X52154Y434870D01*
X52108Y434932D01*
X52065Y434996D01*
X52025Y435063D01*
X51989Y435131D01*
X51956Y435201D01*
X51927Y435273D01*
X51902Y435346D01*
X51880Y435420D01*
X51862Y435496D01*
X51847Y435572D01*
X51837Y435648D01*
X51830Y435725D01*
X51827Y435803D01*
X51828Y435880D01*
X51833Y435957D01*
X51842Y436034D01*
X51854Y436111D01*
X51870Y436186D01*
X51890Y436261D01*
X51914Y436335D01*
X51941Y436407D01*
X51972Y436478D01*
X52007Y436547D01*
X52045Y436615D01*
X52086Y436680D01*
X52130Y436744D01*
X52178Y436805D01*
X52228Y436863D01*
X52282Y436919D01*
X50306Y438457D02*
X51623Y439774D01*
X50306Y438457D02*
X50258Y438407D01*
X50213Y438353D01*
X50171Y438298D01*
X50132Y438240D01*
X50097Y438180D01*
X50065Y438118D01*
X50037Y438054D01*
X50012Y437989D01*
X49991Y437923D01*
X49973Y437855D01*
X49960Y437787D01*
X49950Y437718D01*
X49944Y437649D01*
X49942Y437579D01*
X49944Y437509D01*
X49950Y437440D01*
X49960Y437371D01*
X49973Y437303D01*
X49991Y437235D01*
X50012Y437169D01*
X50037Y437104D01*
X50065Y437040D01*
X50097Y436978D01*
X50132Y436918D01*
X50171Y436860D01*
X50213Y436805D01*
X50258Y436751D01*
X50306Y436701D01*
X50356Y436653D01*
X50410Y436608D01*
X50465Y436566D01*
X50523Y436527D01*
X50583Y436492D01*
X50645Y436460D01*
X50709Y436432D01*
X50774Y436407D01*
X50840Y436386D01*
X50908Y436368D01*
X50976Y436355D01*
X51045Y436345D01*
X51114Y436339D01*
X51184Y436337D01*
X51254Y436339D01*
X51323Y436345D01*
X51392Y436355D01*
X51460Y436368D01*
X51528Y436386D01*
X51594Y436407D01*
X51659Y436432D01*
X51723Y436460D01*
X51785Y436492D01*
X51845Y436527D01*
X51903Y436566D01*
X51958Y436608D01*
X52012Y436653D01*
X52062Y436701D01*
X52940Y437579D01*
X47963Y436114D02*
X50597Y430845D01*
X45329Y433480D01*
X47815Y428064D02*
X46718Y426966D01*
X46717Y426967D02*
X46661Y426913D01*
X46603Y426863D01*
X46542Y426815D01*
X46478Y426771D01*
X46413Y426730D01*
X46345Y426692D01*
X46276Y426657D01*
X46205Y426626D01*
X46133Y426599D01*
X46059Y426575D01*
X45984Y426555D01*
X45909Y426539D01*
X45832Y426527D01*
X45755Y426518D01*
X45678Y426513D01*
X45601Y426512D01*
X45523Y426515D01*
X45446Y426522D01*
X45370Y426532D01*
X45294Y426547D01*
X45218Y426565D01*
X45144Y426587D01*
X45071Y426612D01*
X44999Y426641D01*
X44929Y426674D01*
X44861Y426710D01*
X44794Y426750D01*
X44730Y426793D01*
X44668Y426839D01*
X44608Y426888D01*
X44550Y426940D01*
X44496Y426994D01*
X44444Y427052D01*
X44395Y427112D01*
X44349Y427174D01*
X44306Y427238D01*
X44266Y427305D01*
X44230Y427373D01*
X44197Y427443D01*
X44168Y427515D01*
X44143Y427588D01*
X44121Y427662D01*
X44103Y427738D01*
X44088Y427814D01*
X44078Y427890D01*
X44071Y427967D01*
X44068Y428045D01*
X44069Y428122D01*
X44074Y428199D01*
X44083Y428276D01*
X44095Y428353D01*
X44111Y428428D01*
X44131Y428503D01*
X44155Y428577D01*
X44182Y428649D01*
X44213Y428720D01*
X44248Y428789D01*
X44286Y428857D01*
X44327Y428922D01*
X44371Y428986D01*
X44419Y429047D01*
X44469Y429105D01*
X44523Y429161D01*
X42547Y430698D02*
X43864Y432015D01*
X42547Y430698D02*
X42499Y430648D01*
X42454Y430594D01*
X42412Y430539D01*
X42373Y430481D01*
X42338Y430421D01*
X42306Y430359D01*
X42278Y430295D01*
X42253Y430230D01*
X42232Y430164D01*
X42214Y430096D01*
X42201Y430028D01*
X42191Y429959D01*
X42185Y429890D01*
X42183Y429820D01*
X42185Y429750D01*
X42191Y429681D01*
X42201Y429612D01*
X42214Y429544D01*
X42232Y429476D01*
X42253Y429410D01*
X42278Y429345D01*
X42306Y429281D01*
X42338Y429219D01*
X42373Y429159D01*
X42412Y429101D01*
X42454Y429046D01*
X42499Y428992D01*
X42547Y428942D01*
X42597Y428894D01*
X42651Y428849D01*
X42706Y428807D01*
X42764Y428768D01*
X42824Y428733D01*
X42886Y428701D01*
X42950Y428673D01*
X43015Y428648D01*
X43081Y428627D01*
X43149Y428609D01*
X43217Y428596D01*
X43286Y428586D01*
X43355Y428580D01*
X43425Y428578D01*
X43495Y428580D01*
X43564Y428586D01*
X43633Y428596D01*
X43701Y428609D01*
X43769Y428627D01*
X43835Y428648D01*
X43900Y428673D01*
X43964Y428701D01*
X44026Y428733D01*
X44086Y428768D01*
X44144Y428807D01*
X44199Y428849D01*
X44253Y428894D01*
X44303Y428942D01*
X45181Y429820D01*
X-5839Y-4187D02*
X-3205Y-9456D01*
X-8473Y-6822D01*
X-11145Y-9493D02*
X-11195Y-9546D01*
X-11243Y-9602D01*
X-11287Y-9660D01*
X-11329Y-9720D01*
X-11367Y-9783D01*
X-11402Y-9847D01*
X-11433Y-9913D01*
X-11461Y-9980D01*
X-11486Y-10049D01*
X-11506Y-10119D01*
X-11523Y-10191D01*
X-11537Y-10262D01*
X-11546Y-10335D01*
X-11552Y-10408D01*
X-11554Y-10481D01*
X-11552Y-10554D01*
X-11546Y-10627D01*
X-11537Y-10700D01*
X-11523Y-10771D01*
X-11506Y-10843D01*
X-11486Y-10913D01*
X-11461Y-10982D01*
X-11433Y-11049D01*
X-11402Y-11115D01*
X-11367Y-11179D01*
X-11329Y-11242D01*
X-11287Y-11302D01*
X-11243Y-11360D01*
X-11195Y-11416D01*
X-11145Y-11469D01*
X-11145Y-9493D02*
X-11085Y-9435D01*
X-11022Y-9380D01*
X-10956Y-9328D01*
X-10888Y-9280D01*
X-10818Y-9234D01*
X-10746Y-9192D01*
X-10672Y-9153D01*
X-10596Y-9118D01*
X-10519Y-9086D01*
X-10440Y-9058D01*
X-10360Y-9033D01*
X-10279Y-9013D01*
X-10197Y-8996D01*
X-10115Y-8983D01*
X-10031Y-8974D01*
X-9948Y-8968D01*
X-9864Y-8967D01*
X-9781Y-8970D01*
X-9697Y-8976D01*
X-9615Y-8986D01*
X-9532Y-9000D01*
X-9450Y-9018D01*
X-9370Y-9040D01*
X-9290Y-9065D01*
X-9212Y-9094D01*
X-9135Y-9127D01*
X-9059Y-9163D01*
X-10048Y-11909D02*
X-10123Y-11908D01*
X-10199Y-11905D01*
X-10275Y-11897D01*
X-10350Y-11885D01*
X-10424Y-11870D01*
X-10498Y-11851D01*
X-10570Y-11828D01*
X-10641Y-11802D01*
X-10711Y-11772D01*
X-10779Y-11738D01*
X-10846Y-11701D01*
X-10910Y-11661D01*
X-10973Y-11618D01*
X-11033Y-11571D01*
X-11090Y-11522D01*
X-11145Y-11469D01*
X-10048Y-11908D02*
X-5986Y-12238D01*
X-8182Y-14433D01*
X-12249Y-14110D02*
X-13347Y-15207D01*
X-13346Y-15208D02*
X-13400Y-15264D01*
X-13450Y-15322D01*
X-13498Y-15383D01*
X-13542Y-15447D01*
X-13583Y-15512D01*
X-13621Y-15580D01*
X-13656Y-15649D01*
X-13687Y-15720D01*
X-13714Y-15792D01*
X-13738Y-15866D01*
X-13758Y-15941D01*
X-13774Y-16016D01*
X-13786Y-16093D01*
X-13795Y-16170D01*
X-13800Y-16247D01*
X-13801Y-16324D01*
X-13798Y-16402D01*
X-13791Y-16479D01*
X-13781Y-16555D01*
X-13766Y-16631D01*
X-13748Y-16707D01*
X-13726Y-16781D01*
X-13701Y-16854D01*
X-13672Y-16926D01*
X-13639Y-16996D01*
X-13603Y-17064D01*
X-13563Y-17131D01*
X-13520Y-17195D01*
X-13474Y-17257D01*
X-13425Y-17317D01*
X-13373Y-17375D01*
X-13319Y-17429D01*
X-13261Y-17481D01*
X-13201Y-17530D01*
X-13139Y-17576D01*
X-13075Y-17619D01*
X-13008Y-17659D01*
X-12940Y-17695D01*
X-12870Y-17728D01*
X-12798Y-17757D01*
X-12725Y-17782D01*
X-12651Y-17804D01*
X-12575Y-17822D01*
X-12499Y-17837D01*
X-12423Y-17847D01*
X-12346Y-17854D01*
X-12268Y-17857D01*
X-12191Y-17856D01*
X-12114Y-17851D01*
X-12037Y-17842D01*
X-11960Y-17830D01*
X-11885Y-17814D01*
X-11810Y-17794D01*
X-11736Y-17770D01*
X-11664Y-17743D01*
X-11593Y-17712D01*
X-11524Y-17677D01*
X-11456Y-17639D01*
X-11391Y-17598D01*
X-11327Y-17554D01*
X-11266Y-17506D01*
X-11208Y-17456D01*
X-11152Y-17402D01*
X-11151Y-17403D02*
X-10054Y-16305D01*
X-14005Y-12354D01*
X-15103Y-13451D01*
X-15151Y-13501D01*
X-15196Y-13555D01*
X-15238Y-13610D01*
X-15277Y-13668D01*
X-15312Y-13728D01*
X-15344Y-13790D01*
X-15372Y-13854D01*
X-15397Y-13919D01*
X-15418Y-13985D01*
X-15436Y-14053D01*
X-15449Y-14121D01*
X-15459Y-14190D01*
X-15465Y-14259D01*
X-15467Y-14329D01*
X-15465Y-14399D01*
X-15459Y-14468D01*
X-15449Y-14537D01*
X-15436Y-14605D01*
X-15418Y-14673D01*
X-15397Y-14739D01*
X-15372Y-14804D01*
X-15344Y-14868D01*
X-15312Y-14930D01*
X-15277Y-14990D01*
X-15238Y-15048D01*
X-15196Y-15103D01*
X-15151Y-15157D01*
X-15103Y-15207D01*
X-15053Y-15255D01*
X-14999Y-15300D01*
X-14944Y-15342D01*
X-14886Y-15381D01*
X-14826Y-15416D01*
X-14764Y-15448D01*
X-14700Y-15476D01*
X-14635Y-15501D01*
X-14569Y-15522D01*
X-14501Y-15540D01*
X-14433Y-15553D01*
X-14364Y-15563D01*
X-14295Y-15569D01*
X-14225Y-15571D01*
X-14155Y-15569D01*
X-14086Y-15563D01*
X-14017Y-15553D01*
X-13949Y-15540D01*
X-13881Y-15522D01*
X-13815Y-15501D01*
X-13750Y-15476D01*
X-13686Y-15448D01*
X-13624Y-15416D01*
X-13564Y-15381D01*
X-13506Y-15342D01*
X-13451Y-15300D01*
X-13397Y-15255D01*
X-13347Y-15207D01*
X-13526Y-19777D02*
X-18794Y-17143D01*
X-16160Y-22411D01*
X-16819Y-21094D02*
X-14843Y-19118D01*
X-18464Y-24715D02*
X-22415Y-20763D01*
X-21318Y-19666D02*
X-23513Y-21861D01*
X-31544Y-11395D02*
X-34179Y-6127D01*
X-36813Y-8761D02*
X-31544Y-11395D01*
X-36709Y-12170D02*
X-37807Y-13268D01*
X-37806Y-13268D02*
X-37860Y-13324D01*
X-37910Y-13382D01*
X-37958Y-13443D01*
X-38002Y-13507D01*
X-38043Y-13572D01*
X-38081Y-13640D01*
X-38116Y-13709D01*
X-38147Y-13780D01*
X-38174Y-13852D01*
X-38198Y-13926D01*
X-38218Y-14001D01*
X-38234Y-14076D01*
X-38246Y-14153D01*
X-38255Y-14230D01*
X-38260Y-14307D01*
X-38261Y-14384D01*
X-38258Y-14462D01*
X-38251Y-14539D01*
X-38241Y-14615D01*
X-38226Y-14691D01*
X-38208Y-14767D01*
X-38186Y-14841D01*
X-38161Y-14914D01*
X-38132Y-14986D01*
X-38099Y-15056D01*
X-38063Y-15124D01*
X-38023Y-15191D01*
X-37980Y-15255D01*
X-37934Y-15317D01*
X-37885Y-15377D01*
X-37833Y-15435D01*
X-37779Y-15489D01*
X-37721Y-15541D01*
X-37661Y-15590D01*
X-37599Y-15636D01*
X-37535Y-15679D01*
X-37468Y-15719D01*
X-37400Y-15755D01*
X-37330Y-15788D01*
X-37258Y-15817D01*
X-37185Y-15842D01*
X-37111Y-15864D01*
X-37035Y-15882D01*
X-36959Y-15897D01*
X-36883Y-15907D01*
X-36806Y-15914D01*
X-36728Y-15917D01*
X-36651Y-15916D01*
X-36574Y-15911D01*
X-36497Y-15902D01*
X-36420Y-15890D01*
X-36345Y-15874D01*
X-36270Y-15854D01*
X-36196Y-15830D01*
X-36124Y-15803D01*
X-36053Y-15772D01*
X-35984Y-15737D01*
X-35916Y-15699D01*
X-35851Y-15658D01*
X-35787Y-15614D01*
X-35726Y-15566D01*
X-35668Y-15516D01*
X-35612Y-15462D01*
X-35612Y-15463D02*
X-34514Y-14365D01*
X-38466Y-10414D01*
X-39563Y-11512D01*
X-39611Y-11562D01*
X-39656Y-11616D01*
X-39698Y-11671D01*
X-39737Y-11729D01*
X-39772Y-11789D01*
X-39804Y-11851D01*
X-39832Y-11915D01*
X-39857Y-11980D01*
X-39878Y-12046D01*
X-39896Y-12114D01*
X-39909Y-12182D01*
X-39919Y-12251D01*
X-39925Y-12320D01*
X-39927Y-12390D01*
X-39925Y-12460D01*
X-39919Y-12529D01*
X-39909Y-12598D01*
X-39896Y-12666D01*
X-39878Y-12734D01*
X-39857Y-12800D01*
X-39832Y-12865D01*
X-39804Y-12929D01*
X-39772Y-12991D01*
X-39737Y-13051D01*
X-39698Y-13109D01*
X-39656Y-13164D01*
X-39611Y-13218D01*
X-39563Y-13268D01*
X-39513Y-13316D01*
X-39459Y-13361D01*
X-39404Y-13403D01*
X-39346Y-13442D01*
X-39286Y-13477D01*
X-39224Y-13509D01*
X-39160Y-13537D01*
X-39095Y-13562D01*
X-39029Y-13583D01*
X-38961Y-13601D01*
X-38893Y-13614D01*
X-38824Y-13624D01*
X-38755Y-13630D01*
X-38685Y-13632D01*
X-38615Y-13630D01*
X-38546Y-13624D01*
X-38477Y-13614D01*
X-38409Y-13601D01*
X-38341Y-13583D01*
X-38275Y-13562D01*
X-38210Y-13537D01*
X-38146Y-13509D01*
X-38084Y-13477D01*
X-38024Y-13442D01*
X-37966Y-13403D01*
X-37911Y-13361D01*
X-37857Y-13316D01*
X-37807Y-13268D01*
X-37986Y-17837D02*
X-43255Y-15203D01*
X-40620Y-20471D01*
X-41279Y-19154D02*
X-39303Y-17179D01*
X-42924Y-22775D02*
X-46875Y-18824D01*
X-45778Y-17726D02*
X-47973Y-19921D01*
X-58735Y-10113D02*
X-61369Y-12747D01*
X-58735Y-12747D02*
X-61369Y-10113D01*
X-61556Y-16007D02*
X-62873Y-17324D01*
X-62923Y-17372D01*
X-62977Y-17417D01*
X-63032Y-17459D01*
X-63090Y-17498D01*
X-63150Y-17533D01*
X-63212Y-17565D01*
X-63276Y-17593D01*
X-63341Y-17618D01*
X-63407Y-17639D01*
X-63475Y-17657D01*
X-63543Y-17670D01*
X-63612Y-17680D01*
X-63681Y-17686D01*
X-63751Y-17688D01*
X-63821Y-17686D01*
X-63890Y-17680D01*
X-63959Y-17670D01*
X-64027Y-17657D01*
X-64095Y-17639D01*
X-64161Y-17618D01*
X-64226Y-17593D01*
X-64290Y-17565D01*
X-64352Y-17533D01*
X-64412Y-17498D01*
X-64470Y-17459D01*
X-64525Y-17417D01*
X-64579Y-17372D01*
X-64629Y-17324D01*
X-65068Y-16885D01*
X-65116Y-16835D01*
X-65161Y-16781D01*
X-65203Y-16726D01*
X-65242Y-16668D01*
X-65277Y-16608D01*
X-65309Y-16546D01*
X-65337Y-16482D01*
X-65362Y-16417D01*
X-65383Y-16351D01*
X-65401Y-16283D01*
X-65414Y-16215D01*
X-65424Y-16146D01*
X-65430Y-16077D01*
X-65432Y-16007D01*
X-65430Y-15937D01*
X-65424Y-15868D01*
X-65414Y-15799D01*
X-65401Y-15731D01*
X-65383Y-15663D01*
X-65362Y-15597D01*
X-65337Y-15532D01*
X-65309Y-15468D01*
X-65277Y-15406D01*
X-65242Y-15346D01*
X-65203Y-15288D01*
X-65161Y-15233D01*
X-65116Y-15179D01*
X-65068Y-15129D01*
X-63751Y-13812D01*
X-65508Y-12056D01*
X-67703Y-14251D01*
X-69168Y-15716D02*
X-66533Y-20984D01*
X-71802Y-18350D01*
X-85421Y-11081D02*
X-86079Y-11740D01*
X-83884Y-13935D01*
X-82567Y-12618D01*
X-82519Y-12568D01*
X-82474Y-12514D01*
X-82432Y-12459D01*
X-82393Y-12401D01*
X-82358Y-12341D01*
X-82326Y-12279D01*
X-82298Y-12215D01*
X-82273Y-12150D01*
X-82252Y-12084D01*
X-82234Y-12016D01*
X-82221Y-11948D01*
X-82211Y-11879D01*
X-82205Y-11810D01*
X-82203Y-11740D01*
X-82205Y-11670D01*
X-82211Y-11601D01*
X-82221Y-11532D01*
X-82234Y-11464D01*
X-82252Y-11396D01*
X-82273Y-11330D01*
X-82298Y-11265D01*
X-82326Y-11201D01*
X-82358Y-11139D01*
X-82393Y-11079D01*
X-82432Y-11021D01*
X-82474Y-10966D01*
X-82519Y-10912D01*
X-82567Y-10862D01*
X-84762Y-8667D01*
X-84812Y-8619D01*
X-84866Y-8574D01*
X-84921Y-8532D01*
X-84979Y-8493D01*
X-85039Y-8458D01*
X-85101Y-8426D01*
X-85165Y-8398D01*
X-85230Y-8373D01*
X-85296Y-8352D01*
X-85364Y-8334D01*
X-85432Y-8321D01*
X-85501Y-8311D01*
X-85570Y-8305D01*
X-85640Y-8303D01*
X-85710Y-8305D01*
X-85779Y-8311D01*
X-85848Y-8321D01*
X-85916Y-8334D01*
X-85984Y-8352D01*
X-86050Y-8373D01*
X-86115Y-8398D01*
X-86179Y-8426D01*
X-86241Y-8458D01*
X-86301Y-8493D01*
X-86359Y-8532D01*
X-86414Y-8574D01*
X-86468Y-8619D01*
X-86518Y-8667D01*
X-87835Y-9984D01*
X-89778Y-11927D02*
X-85827Y-15878D01*
X-88022Y-18073D02*
X-89778Y-11927D01*
X-91973Y-14122D02*
X-88022Y-18073D01*
X-89965Y-20016D02*
X-93916Y-16065D01*
X-95014Y-17162D01*
X-95013Y-17163D02*
X-95068Y-17220D01*
X-95119Y-17279D01*
X-95167Y-17341D01*
X-95212Y-17406D01*
X-95253Y-17473D01*
X-95292Y-17541D01*
X-95326Y-17612D01*
X-95357Y-17684D01*
X-95385Y-17758D01*
X-95408Y-17833D01*
X-95428Y-17909D01*
X-95444Y-17986D01*
X-95456Y-18064D01*
X-95464Y-18142D01*
X-95468Y-18221D01*
X-95468Y-18299D01*
X-95464Y-18378D01*
X-95456Y-18456D01*
X-95444Y-18534D01*
X-95428Y-18611D01*
X-95408Y-18687D01*
X-95385Y-18762D01*
X-95357Y-18836D01*
X-95326Y-18908D01*
X-95292Y-18979D01*
X-95253Y-19047D01*
X-95212Y-19114D01*
X-95167Y-19179D01*
X-95119Y-19241D01*
X-95068Y-19300D01*
X-95013Y-19357D01*
X-95014Y-19357D02*
X-93258Y-21114D01*
X-93257Y-21113D02*
X-93202Y-21166D01*
X-93145Y-21216D01*
X-93085Y-21263D01*
X-93022Y-21306D01*
X-92958Y-21347D01*
X-92892Y-21385D01*
X-92824Y-21419D01*
X-92754Y-21450D01*
X-92683Y-21477D01*
X-92611Y-21501D01*
X-92537Y-21521D01*
X-92463Y-21538D01*
X-92388Y-21551D01*
X-92312Y-21561D01*
X-92236Y-21566D01*
X-92160Y-21568D01*
X-92084Y-21566D01*
X-92008Y-21561D01*
X-91932Y-21551D01*
X-91857Y-21538D01*
X-91783Y-21521D01*
X-91709Y-21501D01*
X-91637Y-21477D01*
X-91566Y-21450D01*
X-91496Y-21419D01*
X-91428Y-21385D01*
X-91362Y-21347D01*
X-91298Y-21306D01*
X-91235Y-21263D01*
X-91175Y-21216D01*
X-91118Y-21166D01*
X-91063Y-21113D01*
X-91063Y-21114D02*
X-89965Y-20016D01*
X15263Y-8486D02*
X17897Y-13754D01*
X12628Y-11120D01*
X14248Y-17403D02*
X13370Y-18281D01*
X14248Y-17403D02*
X14296Y-17353D01*
X14341Y-17299D01*
X14383Y-17244D01*
X14422Y-17186D01*
X14457Y-17126D01*
X14489Y-17064D01*
X14517Y-17000D01*
X14542Y-16935D01*
X14563Y-16869D01*
X14581Y-16801D01*
X14594Y-16733D01*
X14604Y-16664D01*
X14610Y-16595D01*
X14612Y-16525D01*
X14610Y-16455D01*
X14604Y-16386D01*
X14594Y-16317D01*
X14581Y-16249D01*
X14563Y-16181D01*
X14542Y-16115D01*
X14517Y-16050D01*
X14489Y-15986D01*
X14457Y-15924D01*
X14422Y-15864D01*
X14383Y-15806D01*
X14341Y-15751D01*
X14296Y-15697D01*
X14248Y-15647D01*
X12053Y-13452D01*
X12003Y-13404D01*
X11949Y-13359D01*
X11894Y-13317D01*
X11836Y-13278D01*
X11776Y-13243D01*
X11714Y-13211D01*
X11650Y-13183D01*
X11585Y-13158D01*
X11519Y-13137D01*
X11451Y-13119D01*
X11383Y-13106D01*
X11314Y-13096D01*
X11245Y-13090D01*
X11175Y-13088D01*
X11105Y-13090D01*
X11036Y-13096D01*
X10967Y-13106D01*
X10899Y-13119D01*
X10831Y-13137D01*
X10765Y-13158D01*
X10700Y-13183D01*
X10636Y-13211D01*
X10574Y-13243D01*
X10514Y-13278D01*
X10456Y-13317D01*
X10401Y-13359D01*
X10347Y-13404D01*
X10297Y-13452D01*
X9419Y-14330D01*
X11016Y-20636D02*
X10138Y-21514D01*
X11016Y-20636D02*
X11064Y-20586D01*
X11109Y-20532D01*
X11151Y-20477D01*
X11190Y-20419D01*
X11225Y-20359D01*
X11257Y-20297D01*
X11285Y-20233D01*
X11310Y-20168D01*
X11331Y-20102D01*
X11349Y-20034D01*
X11362Y-19966D01*
X11372Y-19897D01*
X11378Y-19828D01*
X11380Y-19758D01*
X11378Y-19688D01*
X11372Y-19619D01*
X11362Y-19550D01*
X11349Y-19482D01*
X11331Y-19414D01*
X11310Y-19348D01*
X11285Y-19283D01*
X11257Y-19219D01*
X11225Y-19157D01*
X11190Y-19097D01*
X11151Y-19039D01*
X11109Y-18984D01*
X11064Y-18930D01*
X11016Y-18880D01*
X8820Y-16684D01*
X8770Y-16636D01*
X8716Y-16591D01*
X8661Y-16549D01*
X8603Y-16510D01*
X8543Y-16475D01*
X8481Y-16443D01*
X8417Y-16415D01*
X8352Y-16390D01*
X8286Y-16369D01*
X8218Y-16351D01*
X8150Y-16338D01*
X8081Y-16328D01*
X8012Y-16322D01*
X7942Y-16320D01*
X7872Y-16322D01*
X7803Y-16328D01*
X7734Y-16338D01*
X7666Y-16351D01*
X7598Y-16369D01*
X7532Y-16390D01*
X7467Y-16415D01*
X7403Y-16443D01*
X7341Y-16475D01*
X7281Y-16510D01*
X7223Y-16549D01*
X7168Y-16591D01*
X7114Y-16636D01*
X7064Y-16684D01*
X6186Y-17562D01*
X42653Y-6495D02*
X46605Y-10447D01*
X44409Y-12642D02*
X42653Y-6495D01*
X40458Y-8691D02*
X44409Y-12642D01*
X41729Y-15322D02*
X40851Y-16200D01*
X41729Y-15322D02*
X41777Y-15272D01*
X41822Y-15218D01*
X41864Y-15163D01*
X41903Y-15105D01*
X41938Y-15045D01*
X41970Y-14983D01*
X41998Y-14919D01*
X42023Y-14854D01*
X42044Y-14788D01*
X42062Y-14720D01*
X42075Y-14652D01*
X42085Y-14583D01*
X42091Y-14514D01*
X42093Y-14444D01*
X42091Y-14374D01*
X42085Y-14305D01*
X42075Y-14236D01*
X42062Y-14168D01*
X42044Y-14100D01*
X42023Y-14034D01*
X41998Y-13969D01*
X41970Y-13905D01*
X41938Y-13843D01*
X41903Y-13783D01*
X41864Y-13725D01*
X41822Y-13670D01*
X41777Y-13616D01*
X41729Y-13566D01*
X39534Y-11371D01*
X39484Y-11323D01*
X39430Y-11278D01*
X39375Y-11236D01*
X39317Y-11197D01*
X39257Y-11162D01*
X39195Y-11130D01*
X39131Y-11102D01*
X39066Y-11077D01*
X39000Y-11056D01*
X38932Y-11038D01*
X38864Y-11025D01*
X38795Y-11015D01*
X38726Y-11009D01*
X38656Y-11007D01*
X38586Y-11009D01*
X38517Y-11015D01*
X38448Y-11025D01*
X38380Y-11038D01*
X38312Y-11056D01*
X38246Y-11077D01*
X38181Y-11102D01*
X38117Y-11130D01*
X38055Y-11162D01*
X37995Y-11197D01*
X37937Y-11236D01*
X37882Y-11278D01*
X37828Y-11323D01*
X37778Y-11371D01*
X36900Y-12249D01*
X36419Y-18876D02*
X36469Y-18924D01*
X36523Y-18969D01*
X36578Y-19011D01*
X36636Y-19050D01*
X36696Y-19085D01*
X36758Y-19117D01*
X36822Y-19145D01*
X36887Y-19170D01*
X36953Y-19191D01*
X37021Y-19209D01*
X37089Y-19222D01*
X37158Y-19232D01*
X37227Y-19238D01*
X37297Y-19240D01*
X37367Y-19238D01*
X37436Y-19232D01*
X37505Y-19222D01*
X37573Y-19209D01*
X37641Y-19191D01*
X37707Y-19170D01*
X37772Y-19145D01*
X37836Y-19117D01*
X37898Y-19085D01*
X37958Y-19050D01*
X38016Y-19011D01*
X38071Y-18969D01*
X38125Y-18924D01*
X38175Y-18876D01*
X38176Y-18876D02*
X38244Y-18805D01*
X38310Y-18731D01*
X38373Y-18655D01*
X38433Y-18577D01*
X38490Y-18497D01*
X38544Y-18414D01*
X38594Y-18329D01*
X38642Y-18243D01*
X38686Y-18155D01*
X38727Y-18065D01*
X38765Y-17974D01*
X38799Y-17881D01*
X38829Y-17788D01*
X38857Y-17693D01*
X38880Y-17597D01*
X38900Y-17500D01*
X38916Y-17403D01*
X38929Y-17305D01*
X38937Y-17207D01*
X38943Y-17109D01*
X38944Y-17010D01*
X36309Y-14596D02*
X36259Y-14548D01*
X36205Y-14503D01*
X36150Y-14461D01*
X36092Y-14422D01*
X36032Y-14387D01*
X35970Y-14355D01*
X35906Y-14327D01*
X35841Y-14302D01*
X35775Y-14281D01*
X35707Y-14263D01*
X35639Y-14250D01*
X35570Y-14240D01*
X35501Y-14234D01*
X35431Y-14232D01*
X35361Y-14234D01*
X35292Y-14240D01*
X35223Y-14250D01*
X35155Y-14263D01*
X35087Y-14281D01*
X35021Y-14302D01*
X34956Y-14327D01*
X34892Y-14355D01*
X34830Y-14387D01*
X34770Y-14422D01*
X34712Y-14461D01*
X34657Y-14503D01*
X34603Y-14548D01*
X34553Y-14596D01*
X34488Y-14663D01*
X34426Y-14733D01*
X34367Y-14806D01*
X34310Y-14881D01*
X34257Y-14958D01*
X34207Y-15037D01*
X34160Y-15118D01*
X34117Y-15201D01*
X34077Y-15285D01*
X34040Y-15372D01*
X34007Y-15459D01*
X33977Y-15548D01*
X33951Y-15638D01*
X33928Y-15729D01*
X33909Y-15820D01*
X33894Y-15913D01*
X36639Y-15803D02*
X36654Y-15735D01*
X36666Y-15668D01*
X36674Y-15599D01*
X36678Y-15530D01*
X36679Y-15461D01*
X36675Y-15393D01*
X36668Y-15324D01*
X36658Y-15256D01*
X36643Y-15189D01*
X36625Y-15122D01*
X36603Y-15057D01*
X36578Y-14993D01*
X36549Y-14930D01*
X36517Y-14869D01*
X36482Y-14810D01*
X36443Y-14753D01*
X36402Y-14698D01*
X36357Y-14645D01*
X36310Y-14595D01*
X36090Y-17669D02*
X36075Y-17736D01*
X36063Y-17804D01*
X36055Y-17872D01*
X36051Y-17941D01*
X36050Y-18010D01*
X36054Y-18079D01*
X36061Y-18147D01*
X36071Y-18215D01*
X36086Y-18282D01*
X36104Y-18349D01*
X36126Y-18414D01*
X36151Y-18478D01*
X36180Y-18541D01*
X36212Y-18602D01*
X36247Y-18661D01*
X36286Y-18718D01*
X36327Y-18773D01*
X36372Y-18826D01*
X36419Y-18876D01*
X36090Y-17669D02*
X36639Y-15803D01*
X34864Y-20431D02*
X30913Y-18236D01*
X34864Y-20431D02*
X32669Y-22626D01*
X32450Y-21090D02*
X34206Y-22846D01*
X68053Y-6495D02*
X72005Y-10447D01*
X69809Y-12642D02*
X68053Y-6495D01*
X65858Y-8691D02*
X69809Y-12642D01*
X67129Y-15322D02*
X66251Y-16200D01*
X67129Y-15322D02*
X67177Y-15272D01*
X67222Y-15218D01*
X67264Y-15163D01*
X67303Y-15105D01*
X67338Y-15045D01*
X67370Y-14983D01*
X67398Y-14919D01*
X67423Y-14854D01*
X67444Y-14788D01*
X67462Y-14720D01*
X67475Y-14652D01*
X67485Y-14583D01*
X67491Y-14514D01*
X67493Y-14444D01*
X67491Y-14374D01*
X67485Y-14305D01*
X67475Y-14236D01*
X67462Y-14168D01*
X67444Y-14100D01*
X67423Y-14034D01*
X67398Y-13969D01*
X67370Y-13905D01*
X67338Y-13843D01*
X67303Y-13783D01*
X67264Y-13725D01*
X67222Y-13670D01*
X67177Y-13616D01*
X67129Y-13566D01*
X64934Y-11371D01*
X64884Y-11323D01*
X64830Y-11278D01*
X64775Y-11236D01*
X64717Y-11197D01*
X64657Y-11162D01*
X64595Y-11130D01*
X64531Y-11102D01*
X64466Y-11077D01*
X64400Y-11056D01*
X64332Y-11038D01*
X64264Y-11025D01*
X64195Y-11015D01*
X64126Y-11009D01*
X64056Y-11007D01*
X63986Y-11009D01*
X63917Y-11015D01*
X63848Y-11025D01*
X63780Y-11038D01*
X63712Y-11056D01*
X63646Y-11077D01*
X63581Y-11102D01*
X63517Y-11130D01*
X63455Y-11162D01*
X63395Y-11197D01*
X63337Y-11236D01*
X63282Y-11278D01*
X63228Y-11323D01*
X63178Y-11371D01*
X62300Y-12249D01*
X61819Y-18876D02*
X61869Y-18924D01*
X61923Y-18969D01*
X61978Y-19011D01*
X62036Y-19050D01*
X62096Y-19085D01*
X62158Y-19117D01*
X62222Y-19145D01*
X62287Y-19170D01*
X62353Y-19191D01*
X62421Y-19209D01*
X62489Y-19222D01*
X62558Y-19232D01*
X62627Y-19238D01*
X62697Y-19240D01*
X62767Y-19238D01*
X62836Y-19232D01*
X62905Y-19222D01*
X62973Y-19209D01*
X63041Y-19191D01*
X63107Y-19170D01*
X63172Y-19145D01*
X63236Y-19117D01*
X63298Y-19085D01*
X63358Y-19050D01*
X63416Y-19011D01*
X63471Y-18969D01*
X63525Y-18924D01*
X63575Y-18876D01*
X63576Y-18876D02*
X63644Y-18805D01*
X63710Y-18731D01*
X63773Y-18655D01*
X63833Y-18577D01*
X63890Y-18497D01*
X63944Y-18414D01*
X63994Y-18329D01*
X64042Y-18243D01*
X64086Y-18155D01*
X64127Y-18065D01*
X64165Y-17974D01*
X64199Y-17881D01*
X64229Y-17788D01*
X64257Y-17693D01*
X64280Y-17597D01*
X64300Y-17500D01*
X64316Y-17403D01*
X64329Y-17305D01*
X64337Y-17207D01*
X64343Y-17109D01*
X64344Y-17010D01*
X61709Y-14596D02*
X61659Y-14548D01*
X61605Y-14503D01*
X61550Y-14461D01*
X61492Y-14422D01*
X61432Y-14387D01*
X61370Y-14355D01*
X61306Y-14327D01*
X61241Y-14302D01*
X61175Y-14281D01*
X61107Y-14263D01*
X61039Y-14250D01*
X60970Y-14240D01*
X60901Y-14234D01*
X60831Y-14232D01*
X60761Y-14234D01*
X60692Y-14240D01*
X60623Y-14250D01*
X60555Y-14263D01*
X60487Y-14281D01*
X60421Y-14302D01*
X60356Y-14327D01*
X60292Y-14355D01*
X60230Y-14387D01*
X60170Y-14422D01*
X60112Y-14461D01*
X60057Y-14503D01*
X60003Y-14548D01*
X59953Y-14596D01*
X59888Y-14663D01*
X59826Y-14733D01*
X59767Y-14806D01*
X59710Y-14881D01*
X59657Y-14958D01*
X59607Y-15037D01*
X59560Y-15118D01*
X59517Y-15201D01*
X59477Y-15285D01*
X59440Y-15372D01*
X59407Y-15459D01*
X59377Y-15548D01*
X59351Y-15638D01*
X59328Y-15729D01*
X59309Y-15820D01*
X59294Y-15913D01*
X62039Y-15803D02*
X62054Y-15735D01*
X62066Y-15668D01*
X62074Y-15599D01*
X62078Y-15530D01*
X62079Y-15461D01*
X62075Y-15393D01*
X62068Y-15324D01*
X62058Y-15256D01*
X62043Y-15189D01*
X62025Y-15122D01*
X62003Y-15057D01*
X61978Y-14993D01*
X61949Y-14930D01*
X61917Y-14869D01*
X61882Y-14810D01*
X61843Y-14753D01*
X61802Y-14698D01*
X61757Y-14645D01*
X61710Y-14595D01*
X61490Y-17669D02*
X61475Y-17736D01*
X61463Y-17804D01*
X61455Y-17872D01*
X61451Y-17941D01*
X61450Y-18010D01*
X61454Y-18079D01*
X61461Y-18147D01*
X61471Y-18215D01*
X61486Y-18282D01*
X61504Y-18349D01*
X61526Y-18414D01*
X61551Y-18478D01*
X61580Y-18541D01*
X61612Y-18602D01*
X61647Y-18661D01*
X61686Y-18718D01*
X61727Y-18773D01*
X61772Y-18826D01*
X61819Y-18876D01*
X61490Y-17669D02*
X62039Y-15803D01*
X61142Y-21309D02*
X59825Y-22626D01*
X59775Y-22674D01*
X59721Y-22719D01*
X59666Y-22761D01*
X59608Y-22800D01*
X59548Y-22835D01*
X59486Y-22867D01*
X59422Y-22895D01*
X59357Y-22920D01*
X59291Y-22941D01*
X59223Y-22959D01*
X59155Y-22972D01*
X59086Y-22982D01*
X59017Y-22988D01*
X58947Y-22990D01*
X58877Y-22988D01*
X58808Y-22982D01*
X58739Y-22972D01*
X58671Y-22959D01*
X58603Y-22941D01*
X58537Y-22920D01*
X58472Y-22895D01*
X58408Y-22867D01*
X58346Y-22835D01*
X58286Y-22800D01*
X58228Y-22761D01*
X58173Y-22719D01*
X58119Y-22674D01*
X58069Y-22626D01*
X57630Y-22187D01*
X57582Y-22137D01*
X57537Y-22083D01*
X57495Y-22028D01*
X57456Y-21970D01*
X57421Y-21910D01*
X57389Y-21848D01*
X57361Y-21784D01*
X57336Y-21719D01*
X57315Y-21653D01*
X57297Y-21585D01*
X57284Y-21517D01*
X57274Y-21448D01*
X57268Y-21379D01*
X57266Y-21309D01*
X57268Y-21239D01*
X57274Y-21170D01*
X57284Y-21101D01*
X57297Y-21033D01*
X57315Y-20965D01*
X57336Y-20899D01*
X57361Y-20834D01*
X57389Y-20770D01*
X57421Y-20708D01*
X57456Y-20648D01*
X57495Y-20590D01*
X57537Y-20535D01*
X57582Y-20481D01*
X57630Y-20431D01*
X58947Y-19114D01*
X57191Y-17358D01*
X54996Y-19553D01*
X96953Y-6495D02*
X100905Y-10447D01*
X98709Y-12642D02*
X96953Y-6495D01*
X94758Y-8691D02*
X98709Y-12642D01*
X96029Y-15322D02*
X95151Y-16200D01*
X96029Y-15322D02*
X96077Y-15272D01*
X96122Y-15218D01*
X96164Y-15163D01*
X96203Y-15105D01*
X96238Y-15045D01*
X96270Y-14983D01*
X96298Y-14919D01*
X96323Y-14854D01*
X96344Y-14788D01*
X96362Y-14720D01*
X96375Y-14652D01*
X96385Y-14583D01*
X96391Y-14514D01*
X96393Y-14444D01*
X96391Y-14374D01*
X96385Y-14305D01*
X96375Y-14236D01*
X96362Y-14168D01*
X96344Y-14100D01*
X96323Y-14034D01*
X96298Y-13969D01*
X96270Y-13905D01*
X96238Y-13843D01*
X96203Y-13783D01*
X96164Y-13725D01*
X96122Y-13670D01*
X96077Y-13616D01*
X96029Y-13566D01*
X93834Y-11371D01*
X93784Y-11323D01*
X93730Y-11278D01*
X93675Y-11236D01*
X93617Y-11197D01*
X93557Y-11162D01*
X93495Y-11130D01*
X93431Y-11102D01*
X93366Y-11077D01*
X93300Y-11056D01*
X93232Y-11038D01*
X93164Y-11025D01*
X93095Y-11015D01*
X93026Y-11009D01*
X92956Y-11007D01*
X92886Y-11009D01*
X92817Y-11015D01*
X92748Y-11025D01*
X92680Y-11038D01*
X92612Y-11056D01*
X92546Y-11077D01*
X92481Y-11102D01*
X92417Y-11130D01*
X92355Y-11162D01*
X92295Y-11197D01*
X92237Y-11236D01*
X92182Y-11278D01*
X92128Y-11323D01*
X92078Y-11371D01*
X91200Y-12249D01*
X90719Y-18876D02*
X90769Y-18924D01*
X90823Y-18969D01*
X90878Y-19011D01*
X90936Y-19050D01*
X90996Y-19085D01*
X91058Y-19117D01*
X91122Y-19145D01*
X91187Y-19170D01*
X91253Y-19191D01*
X91321Y-19209D01*
X91389Y-19222D01*
X91458Y-19232D01*
X91527Y-19238D01*
X91597Y-19240D01*
X91667Y-19238D01*
X91736Y-19232D01*
X91805Y-19222D01*
X91873Y-19209D01*
X91941Y-19191D01*
X92007Y-19170D01*
X92072Y-19145D01*
X92136Y-19117D01*
X92198Y-19085D01*
X92258Y-19050D01*
X92316Y-19011D01*
X92371Y-18969D01*
X92425Y-18924D01*
X92475Y-18876D01*
X92476Y-18876D02*
X92544Y-18805D01*
X92610Y-18731D01*
X92673Y-18655D01*
X92733Y-18577D01*
X92790Y-18497D01*
X92844Y-18414D01*
X92894Y-18329D01*
X92942Y-18243D01*
X92986Y-18155D01*
X93027Y-18065D01*
X93065Y-17974D01*
X93099Y-17881D01*
X93129Y-17788D01*
X93157Y-17693D01*
X93180Y-17597D01*
X93200Y-17500D01*
X93216Y-17403D01*
X93229Y-17305D01*
X93237Y-17207D01*
X93243Y-17109D01*
X93244Y-17010D01*
X90609Y-14596D02*
X90559Y-14548D01*
X90505Y-14503D01*
X90450Y-14461D01*
X90392Y-14422D01*
X90332Y-14387D01*
X90270Y-14355D01*
X90206Y-14327D01*
X90141Y-14302D01*
X90075Y-14281D01*
X90007Y-14263D01*
X89939Y-14250D01*
X89870Y-14240D01*
X89801Y-14234D01*
X89731Y-14232D01*
X89661Y-14234D01*
X89592Y-14240D01*
X89523Y-14250D01*
X89455Y-14263D01*
X89387Y-14281D01*
X89321Y-14302D01*
X89256Y-14327D01*
X89192Y-14355D01*
X89130Y-14387D01*
X89070Y-14422D01*
X89012Y-14461D01*
X88957Y-14503D01*
X88903Y-14548D01*
X88853Y-14596D01*
X88788Y-14663D01*
X88726Y-14733D01*
X88667Y-14806D01*
X88610Y-14881D01*
X88557Y-14958D01*
X88507Y-15037D01*
X88460Y-15118D01*
X88417Y-15201D01*
X88377Y-15285D01*
X88340Y-15372D01*
X88307Y-15459D01*
X88277Y-15548D01*
X88251Y-15638D01*
X88228Y-15729D01*
X88209Y-15820D01*
X88194Y-15913D01*
X90939Y-15803D02*
X90954Y-15735D01*
X90966Y-15668D01*
X90974Y-15599D01*
X90978Y-15530D01*
X90979Y-15461D01*
X90975Y-15393D01*
X90968Y-15324D01*
X90958Y-15256D01*
X90943Y-15189D01*
X90925Y-15122D01*
X90903Y-15057D01*
X90878Y-14993D01*
X90849Y-14930D01*
X90817Y-14869D01*
X90782Y-14810D01*
X90743Y-14753D01*
X90702Y-14698D01*
X90657Y-14645D01*
X90610Y-14595D01*
X90390Y-17669D02*
X90375Y-17736D01*
X90363Y-17804D01*
X90355Y-17872D01*
X90351Y-17941D01*
X90350Y-18010D01*
X90354Y-18079D01*
X90361Y-18147D01*
X90371Y-18215D01*
X90386Y-18282D01*
X90404Y-18349D01*
X90426Y-18414D01*
X90451Y-18478D01*
X90480Y-18541D01*
X90512Y-18602D01*
X90547Y-18661D01*
X90586Y-18718D01*
X90627Y-18773D01*
X90672Y-18826D01*
X90719Y-18876D01*
X90390Y-17669D02*
X90939Y-15803D01*
X87847Y-19114D02*
X86530Y-20431D01*
X86482Y-20481D01*
X86437Y-20535D01*
X86395Y-20590D01*
X86356Y-20648D01*
X86321Y-20708D01*
X86289Y-20770D01*
X86261Y-20834D01*
X86236Y-20899D01*
X86215Y-20965D01*
X86197Y-21033D01*
X86184Y-21101D01*
X86174Y-21170D01*
X86168Y-21239D01*
X86166Y-21309D01*
X86168Y-21379D01*
X86174Y-21448D01*
X86184Y-21517D01*
X86197Y-21585D01*
X86215Y-21653D01*
X86236Y-21719D01*
X86261Y-21784D01*
X86289Y-21848D01*
X86321Y-21910D01*
X86356Y-21970D01*
X86395Y-22028D01*
X86437Y-22083D01*
X86482Y-22137D01*
X86530Y-22187D01*
X86749Y-22407D01*
X86750Y-22406D02*
X86807Y-22461D01*
X86866Y-22512D01*
X86928Y-22560D01*
X86993Y-22605D01*
X87060Y-22646D01*
X87128Y-22685D01*
X87199Y-22719D01*
X87271Y-22750D01*
X87345Y-22778D01*
X87420Y-22801D01*
X87496Y-22821D01*
X87573Y-22837D01*
X87651Y-22849D01*
X87729Y-22857D01*
X87808Y-22861D01*
X87886Y-22861D01*
X87965Y-22857D01*
X88043Y-22849D01*
X88121Y-22837D01*
X88198Y-22821D01*
X88274Y-22801D01*
X88349Y-22778D01*
X88423Y-22750D01*
X88495Y-22719D01*
X88566Y-22685D01*
X88634Y-22646D01*
X88701Y-22605D01*
X88766Y-22560D01*
X88828Y-22512D01*
X88887Y-22461D01*
X88944Y-22406D01*
X88999Y-22349D01*
X89050Y-22290D01*
X89098Y-22228D01*
X89143Y-22163D01*
X89184Y-22096D01*
X89223Y-22028D01*
X89257Y-21957D01*
X89288Y-21885D01*
X89316Y-21811D01*
X89339Y-21736D01*
X89359Y-21660D01*
X89375Y-21583D01*
X89387Y-21505D01*
X89395Y-21427D01*
X89399Y-21348D01*
X89399Y-21270D01*
X89395Y-21191D01*
X89387Y-21113D01*
X89375Y-21035D01*
X89359Y-20958D01*
X89339Y-20882D01*
X89316Y-20807D01*
X89288Y-20733D01*
X89257Y-20661D01*
X89223Y-20590D01*
X89184Y-20522D01*
X89143Y-20455D01*
X89098Y-20390D01*
X89050Y-20328D01*
X88999Y-20269D01*
X88944Y-20212D01*
X88945Y-20212D02*
X87847Y-19114D01*
X87777Y-19046D01*
X87704Y-18981D01*
X87629Y-18919D01*
X87551Y-18860D01*
X87471Y-18805D01*
X87389Y-18752D01*
X87305Y-18703D01*
X87219Y-18657D01*
X87131Y-18614D01*
X87042Y-18575D01*
X86951Y-18540D01*
X86859Y-18508D01*
X86765Y-18479D01*
X86671Y-18455D01*
X86576Y-18434D01*
X86480Y-18417D01*
X86383Y-18403D01*
X86286Y-18394D01*
X86189Y-18388D01*
X86091Y-18386D01*
X85994Y-18388D01*
X85896Y-18394D01*
X85799Y-18403D01*
X85702Y-18417D01*
X85606Y-18434D01*
X85511Y-18455D01*
X85417Y-18479D01*
X85323Y-18508D01*
X85231Y-18540D01*
X85140Y-18575D01*
X85051Y-18614D01*
X84963Y-18657D01*
X84877Y-18703D01*
X84793Y-18752D01*
X84711Y-18805D01*
X84631Y-18860D01*
X84553Y-18919D01*
X84478Y-18981D01*
X84405Y-19046D01*
X84335Y-19113D01*
X87953Y-91495D02*
X91905Y-95447D01*
X89709Y-97642D02*
X87953Y-91495D01*
X85758Y-93691D02*
X89709Y-97642D01*
X87029Y-100322D02*
X86151Y-101200D01*
X87029Y-100322D02*
X87077Y-100272D01*
X87122Y-100218D01*
X87164Y-100163D01*
X87203Y-100105D01*
X87238Y-100045D01*
X87270Y-99983D01*
X87298Y-99919D01*
X87323Y-99854D01*
X87344Y-99788D01*
X87362Y-99720D01*
X87375Y-99652D01*
X87385Y-99583D01*
X87391Y-99514D01*
X87393Y-99444D01*
X87391Y-99374D01*
X87385Y-99305D01*
X87375Y-99236D01*
X87362Y-99168D01*
X87344Y-99100D01*
X87323Y-99034D01*
X87298Y-98969D01*
X87270Y-98905D01*
X87238Y-98843D01*
X87203Y-98783D01*
X87164Y-98725D01*
X87122Y-98670D01*
X87077Y-98616D01*
X87029Y-98566D01*
X84834Y-96371D01*
X84784Y-96323D01*
X84730Y-96278D01*
X84675Y-96236D01*
X84617Y-96197D01*
X84557Y-96162D01*
X84495Y-96130D01*
X84431Y-96102D01*
X84366Y-96077D01*
X84300Y-96056D01*
X84232Y-96038D01*
X84164Y-96025D01*
X84095Y-96015D01*
X84026Y-96009D01*
X83956Y-96007D01*
X83886Y-96009D01*
X83817Y-96015D01*
X83748Y-96025D01*
X83680Y-96038D01*
X83612Y-96056D01*
X83546Y-96077D01*
X83481Y-96102D01*
X83417Y-96130D01*
X83355Y-96162D01*
X83295Y-96197D01*
X83237Y-96236D01*
X83182Y-96278D01*
X83128Y-96323D01*
X83078Y-96371D01*
X82200Y-97249D01*
X81719Y-103876D02*
X81769Y-103924D01*
X81823Y-103969D01*
X81878Y-104011D01*
X81936Y-104050D01*
X81996Y-104085D01*
X82058Y-104117D01*
X82122Y-104145D01*
X82187Y-104170D01*
X82253Y-104191D01*
X82321Y-104209D01*
X82389Y-104222D01*
X82458Y-104232D01*
X82527Y-104238D01*
X82597Y-104240D01*
X82667Y-104238D01*
X82736Y-104232D01*
X82805Y-104222D01*
X82873Y-104209D01*
X82941Y-104191D01*
X83007Y-104170D01*
X83072Y-104145D01*
X83136Y-104117D01*
X83198Y-104085D01*
X83258Y-104050D01*
X83316Y-104011D01*
X83371Y-103969D01*
X83425Y-103924D01*
X83475Y-103876D01*
X83476Y-103876D02*
X83544Y-103805D01*
X83610Y-103731D01*
X83673Y-103655D01*
X83733Y-103577D01*
X83790Y-103497D01*
X83844Y-103414D01*
X83894Y-103329D01*
X83942Y-103243D01*
X83986Y-103155D01*
X84027Y-103065D01*
X84065Y-102974D01*
X84099Y-102881D01*
X84129Y-102788D01*
X84157Y-102693D01*
X84180Y-102597D01*
X84200Y-102500D01*
X84216Y-102403D01*
X84229Y-102305D01*
X84237Y-102207D01*
X84243Y-102109D01*
X84244Y-102010D01*
X81609Y-99596D02*
X81559Y-99548D01*
X81505Y-99503D01*
X81450Y-99461D01*
X81392Y-99422D01*
X81332Y-99387D01*
X81270Y-99355D01*
X81206Y-99327D01*
X81141Y-99302D01*
X81075Y-99281D01*
X81007Y-99263D01*
X80939Y-99250D01*
X80870Y-99240D01*
X80801Y-99234D01*
X80731Y-99232D01*
X80661Y-99234D01*
X80592Y-99240D01*
X80523Y-99250D01*
X80455Y-99263D01*
X80387Y-99281D01*
X80321Y-99302D01*
X80256Y-99327D01*
X80192Y-99355D01*
X80130Y-99387D01*
X80070Y-99422D01*
X80012Y-99461D01*
X79957Y-99503D01*
X79903Y-99548D01*
X79853Y-99596D01*
X79788Y-99663D01*
X79726Y-99733D01*
X79667Y-99806D01*
X79610Y-99881D01*
X79557Y-99958D01*
X79507Y-100037D01*
X79460Y-100118D01*
X79417Y-100201D01*
X79377Y-100285D01*
X79340Y-100372D01*
X79307Y-100459D01*
X79277Y-100548D01*
X79251Y-100638D01*
X79228Y-100729D01*
X79209Y-100820D01*
X79194Y-100913D01*
X81939Y-100803D02*
X81954Y-100735D01*
X81966Y-100668D01*
X81974Y-100599D01*
X81978Y-100530D01*
X81979Y-100461D01*
X81975Y-100393D01*
X81968Y-100324D01*
X81958Y-100256D01*
X81943Y-100189D01*
X81925Y-100122D01*
X81903Y-100057D01*
X81878Y-99993D01*
X81849Y-99930D01*
X81817Y-99869D01*
X81782Y-99810D01*
X81743Y-99753D01*
X81702Y-99698D01*
X81657Y-99645D01*
X81610Y-99595D01*
X81390Y-102669D02*
X81375Y-102736D01*
X81363Y-102804D01*
X81355Y-102872D01*
X81351Y-102941D01*
X81350Y-103010D01*
X81354Y-103079D01*
X81361Y-103147D01*
X81371Y-103215D01*
X81386Y-103282D01*
X81404Y-103349D01*
X81426Y-103414D01*
X81451Y-103478D01*
X81480Y-103541D01*
X81512Y-103602D01*
X81547Y-103661D01*
X81586Y-103718D01*
X81627Y-103773D01*
X81672Y-103826D01*
X81719Y-103876D01*
X81390Y-102669D02*
X81939Y-100803D01*
X81042Y-106309D02*
X79945Y-107407D01*
X79944Y-107406D02*
X79887Y-107461D01*
X79828Y-107512D01*
X79766Y-107560D01*
X79701Y-107605D01*
X79634Y-107646D01*
X79566Y-107685D01*
X79495Y-107719D01*
X79423Y-107750D01*
X79349Y-107778D01*
X79274Y-107801D01*
X79198Y-107821D01*
X79121Y-107837D01*
X79043Y-107849D01*
X78965Y-107857D01*
X78886Y-107861D01*
X78808Y-107861D01*
X78729Y-107857D01*
X78651Y-107849D01*
X78573Y-107837D01*
X78496Y-107821D01*
X78420Y-107801D01*
X78345Y-107778D01*
X78271Y-107750D01*
X78199Y-107719D01*
X78128Y-107685D01*
X78060Y-107646D01*
X77993Y-107605D01*
X77928Y-107560D01*
X77866Y-107512D01*
X77807Y-107461D01*
X77750Y-107406D01*
X77695Y-107349D01*
X77644Y-107290D01*
X77596Y-107228D01*
X77551Y-107163D01*
X77510Y-107096D01*
X77471Y-107028D01*
X77437Y-106957D01*
X77406Y-106885D01*
X77378Y-106811D01*
X77355Y-106736D01*
X77335Y-106660D01*
X77319Y-106583D01*
X77307Y-106505D01*
X77299Y-106427D01*
X77295Y-106348D01*
X77295Y-106270D01*
X77299Y-106191D01*
X77307Y-106113D01*
X77319Y-106035D01*
X77335Y-105958D01*
X77355Y-105882D01*
X77378Y-105807D01*
X77406Y-105733D01*
X77437Y-105661D01*
X77471Y-105590D01*
X77510Y-105522D01*
X77551Y-105455D01*
X77596Y-105390D01*
X77644Y-105328D01*
X77695Y-105269D01*
X77750Y-105212D01*
X75774Y-103675D02*
X77091Y-102358D01*
X75774Y-103675D02*
X75726Y-103725D01*
X75681Y-103779D01*
X75639Y-103834D01*
X75600Y-103892D01*
X75565Y-103952D01*
X75533Y-104014D01*
X75505Y-104078D01*
X75480Y-104143D01*
X75459Y-104209D01*
X75441Y-104277D01*
X75428Y-104345D01*
X75418Y-104414D01*
X75412Y-104483D01*
X75410Y-104553D01*
X75412Y-104623D01*
X75418Y-104692D01*
X75428Y-104761D01*
X75441Y-104829D01*
X75459Y-104897D01*
X75480Y-104963D01*
X75505Y-105028D01*
X75533Y-105092D01*
X75565Y-105154D01*
X75600Y-105214D01*
X75639Y-105272D01*
X75681Y-105327D01*
X75726Y-105381D01*
X75774Y-105431D01*
X75824Y-105479D01*
X75878Y-105524D01*
X75933Y-105566D01*
X75991Y-105605D01*
X76051Y-105640D01*
X76113Y-105672D01*
X76177Y-105700D01*
X76242Y-105725D01*
X76308Y-105746D01*
X76376Y-105764D01*
X76444Y-105777D01*
X76513Y-105787D01*
X76582Y-105793D01*
X76652Y-105795D01*
X76722Y-105793D01*
X76791Y-105787D01*
X76860Y-105777D01*
X76928Y-105764D01*
X76996Y-105746D01*
X77062Y-105725D01*
X77127Y-105700D01*
X77191Y-105672D01*
X77253Y-105640D01*
X77313Y-105605D01*
X77371Y-105566D01*
X77426Y-105524D01*
X77480Y-105479D01*
X77530Y-105431D01*
X78408Y-104553D01*
X66505Y-95447D02*
X62553Y-91495D01*
X64309Y-97642D01*
X60358Y-93691D01*
X61629Y-100322D02*
X60751Y-101200D01*
X61629Y-100322D02*
X61677Y-100272D01*
X61722Y-100218D01*
X61764Y-100163D01*
X61803Y-100105D01*
X61838Y-100045D01*
X61870Y-99983D01*
X61898Y-99919D01*
X61923Y-99854D01*
X61944Y-99788D01*
X61962Y-99720D01*
X61975Y-99652D01*
X61985Y-99583D01*
X61991Y-99514D01*
X61993Y-99444D01*
X61991Y-99374D01*
X61985Y-99305D01*
X61975Y-99236D01*
X61962Y-99168D01*
X61944Y-99100D01*
X61923Y-99034D01*
X61898Y-98969D01*
X61870Y-98905D01*
X61838Y-98843D01*
X61803Y-98783D01*
X61764Y-98725D01*
X61722Y-98670D01*
X61677Y-98616D01*
X61629Y-98566D01*
X59434Y-96371D01*
X59384Y-96323D01*
X59330Y-96278D01*
X59275Y-96236D01*
X59217Y-96197D01*
X59157Y-96162D01*
X59095Y-96130D01*
X59031Y-96102D01*
X58966Y-96077D01*
X58900Y-96056D01*
X58832Y-96038D01*
X58764Y-96025D01*
X58695Y-96015D01*
X58626Y-96009D01*
X58556Y-96007D01*
X58486Y-96009D01*
X58417Y-96015D01*
X58348Y-96025D01*
X58280Y-96038D01*
X58212Y-96056D01*
X58146Y-96077D01*
X58081Y-96102D01*
X58017Y-96130D01*
X57955Y-96162D01*
X57895Y-96197D01*
X57837Y-96236D01*
X57782Y-96278D01*
X57728Y-96323D01*
X57678Y-96371D01*
X56800Y-97249D01*
X56319Y-103876D02*
X56369Y-103924D01*
X56423Y-103969D01*
X56478Y-104011D01*
X56536Y-104050D01*
X56596Y-104085D01*
X56658Y-104117D01*
X56722Y-104145D01*
X56787Y-104170D01*
X56853Y-104191D01*
X56921Y-104209D01*
X56989Y-104222D01*
X57058Y-104232D01*
X57127Y-104238D01*
X57197Y-104240D01*
X57267Y-104238D01*
X57336Y-104232D01*
X57405Y-104222D01*
X57473Y-104209D01*
X57541Y-104191D01*
X57607Y-104170D01*
X57672Y-104145D01*
X57736Y-104117D01*
X57798Y-104085D01*
X57858Y-104050D01*
X57916Y-104011D01*
X57971Y-103969D01*
X58025Y-103924D01*
X58075Y-103876D01*
X58076Y-103876D02*
X58144Y-103805D01*
X58210Y-103731D01*
X58273Y-103655D01*
X58333Y-103577D01*
X58390Y-103497D01*
X58444Y-103414D01*
X58494Y-103329D01*
X58542Y-103243D01*
X58586Y-103155D01*
X58627Y-103065D01*
X58665Y-102974D01*
X58699Y-102881D01*
X58729Y-102788D01*
X58757Y-102693D01*
X58780Y-102597D01*
X58800Y-102500D01*
X58816Y-102403D01*
X58829Y-102305D01*
X58837Y-102207D01*
X58843Y-102109D01*
X58844Y-102010D01*
X56209Y-99596D02*
X56159Y-99548D01*
X56105Y-99503D01*
X56050Y-99461D01*
X55992Y-99422D01*
X55932Y-99387D01*
X55870Y-99355D01*
X55806Y-99327D01*
X55741Y-99302D01*
X55675Y-99281D01*
X55607Y-99263D01*
X55539Y-99250D01*
X55470Y-99240D01*
X55401Y-99234D01*
X55331Y-99232D01*
X55261Y-99234D01*
X55192Y-99240D01*
X55123Y-99250D01*
X55055Y-99263D01*
X54987Y-99281D01*
X54921Y-99302D01*
X54856Y-99327D01*
X54792Y-99355D01*
X54730Y-99387D01*
X54670Y-99422D01*
X54612Y-99461D01*
X54557Y-99503D01*
X54503Y-99548D01*
X54453Y-99596D01*
X54388Y-99663D01*
X54326Y-99733D01*
X54267Y-99806D01*
X54210Y-99881D01*
X54157Y-99958D01*
X54107Y-100037D01*
X54060Y-100118D01*
X54017Y-100201D01*
X53977Y-100285D01*
X53940Y-100372D01*
X53907Y-100459D01*
X53877Y-100548D01*
X53851Y-100638D01*
X53828Y-100729D01*
X53809Y-100820D01*
X53794Y-100913D01*
X56539Y-100803D02*
X56554Y-100735D01*
X56566Y-100668D01*
X56574Y-100599D01*
X56578Y-100530D01*
X56579Y-100461D01*
X56575Y-100393D01*
X56568Y-100324D01*
X56558Y-100256D01*
X56543Y-100189D01*
X56525Y-100122D01*
X56503Y-100057D01*
X56478Y-99993D01*
X56449Y-99930D01*
X56417Y-99869D01*
X56382Y-99810D01*
X56343Y-99753D01*
X56302Y-99698D01*
X56257Y-99645D01*
X56210Y-99595D01*
X55990Y-102669D02*
X55975Y-102736D01*
X55963Y-102804D01*
X55955Y-102872D01*
X55951Y-102941D01*
X55950Y-103010D01*
X55954Y-103079D01*
X55961Y-103147D01*
X55971Y-103215D01*
X55986Y-103282D01*
X56004Y-103349D01*
X56026Y-103414D01*
X56051Y-103478D01*
X56080Y-103541D01*
X56112Y-103602D01*
X56147Y-103661D01*
X56186Y-103718D01*
X56227Y-103773D01*
X56272Y-103826D01*
X56319Y-103876D01*
X55990Y-102669D02*
X56539Y-100803D01*
X50484Y-103565D02*
X50434Y-103618D01*
X50386Y-103674D01*
X50342Y-103732D01*
X50300Y-103792D01*
X50262Y-103855D01*
X50227Y-103919D01*
X50196Y-103985D01*
X50168Y-104052D01*
X50143Y-104121D01*
X50123Y-104191D01*
X50106Y-104263D01*
X50092Y-104334D01*
X50083Y-104407D01*
X50077Y-104480D01*
X50075Y-104553D01*
X50077Y-104626D01*
X50083Y-104699D01*
X50092Y-104772D01*
X50106Y-104843D01*
X50123Y-104915D01*
X50143Y-104985D01*
X50168Y-105054D01*
X50196Y-105121D01*
X50227Y-105187D01*
X50262Y-105251D01*
X50300Y-105314D01*
X50342Y-105374D01*
X50386Y-105432D01*
X50434Y-105488D01*
X50484Y-105541D01*
X50484Y-103565D02*
X50544Y-103507D01*
X50607Y-103452D01*
X50673Y-103400D01*
X50741Y-103352D01*
X50811Y-103306D01*
X50883Y-103264D01*
X50957Y-103225D01*
X51033Y-103190D01*
X51110Y-103158D01*
X51189Y-103130D01*
X51269Y-103105D01*
X51350Y-103085D01*
X51432Y-103068D01*
X51514Y-103055D01*
X51598Y-103046D01*
X51681Y-103040D01*
X51765Y-103039D01*
X51848Y-103042D01*
X51932Y-103048D01*
X52015Y-103058D01*
X52097Y-103072D01*
X52179Y-103090D01*
X52259Y-103112D01*
X52339Y-103137D01*
X52417Y-103166D01*
X52494Y-103199D01*
X52570Y-103236D01*
X51582Y-105981D02*
X51506Y-105980D01*
X51430Y-105977D01*
X51354Y-105969D01*
X51279Y-105957D01*
X51205Y-105942D01*
X51131Y-105923D01*
X51059Y-105900D01*
X50988Y-105874D01*
X50918Y-105844D01*
X50850Y-105810D01*
X50783Y-105773D01*
X50719Y-105733D01*
X50656Y-105690D01*
X50596Y-105643D01*
X50539Y-105594D01*
X50484Y-105541D01*
X51581Y-105980D02*
X55642Y-106309D01*
X53447Y-108504D01*
X15550Y-95602D02*
X11598Y-91650D01*
X12476Y-95163D01*
X8964Y-94285D01*
X12915Y-98236D01*
X9965Y-98991D02*
X8209Y-97235D01*
X8208Y-97235D02*
X8151Y-97180D01*
X8092Y-97129D01*
X8030Y-97081D01*
X7965Y-97036D01*
X7898Y-96995D01*
X7830Y-96956D01*
X7759Y-96922D01*
X7687Y-96891D01*
X7613Y-96863D01*
X7538Y-96840D01*
X7462Y-96820D01*
X7385Y-96804D01*
X7307Y-96792D01*
X7229Y-96784D01*
X7150Y-96780D01*
X7072Y-96780D01*
X6993Y-96784D01*
X6915Y-96792D01*
X6837Y-96804D01*
X6760Y-96820D01*
X6684Y-96840D01*
X6609Y-96863D01*
X6535Y-96891D01*
X6463Y-96922D01*
X6392Y-96956D01*
X6324Y-96995D01*
X6257Y-97036D01*
X6192Y-97081D01*
X6130Y-97129D01*
X6071Y-97180D01*
X6014Y-97235D01*
X5959Y-97292D01*
X5908Y-97351D01*
X5860Y-97413D01*
X5815Y-97478D01*
X5774Y-97545D01*
X5735Y-97613D01*
X5701Y-97684D01*
X5670Y-97756D01*
X5642Y-97830D01*
X5619Y-97905D01*
X5599Y-97981D01*
X5583Y-98058D01*
X5571Y-98136D01*
X5563Y-98214D01*
X5559Y-98293D01*
X5559Y-98371D01*
X5563Y-98450D01*
X5571Y-98528D01*
X5583Y-98606D01*
X5599Y-98683D01*
X5619Y-98759D01*
X5642Y-98834D01*
X5670Y-98908D01*
X5701Y-98980D01*
X5735Y-99051D01*
X5774Y-99119D01*
X5815Y-99186D01*
X5860Y-99251D01*
X5908Y-99313D01*
X5959Y-99372D01*
X6014Y-99429D01*
X6014Y-99430D02*
X7770Y-101186D01*
X7771Y-101186D02*
X7828Y-101241D01*
X7887Y-101292D01*
X7949Y-101340D01*
X8014Y-101385D01*
X8081Y-101426D01*
X8149Y-101465D01*
X8220Y-101499D01*
X8292Y-101530D01*
X8366Y-101558D01*
X8441Y-101581D01*
X8517Y-101601D01*
X8594Y-101617D01*
X8672Y-101629D01*
X8750Y-101637D01*
X8829Y-101641D01*
X8907Y-101641D01*
X8986Y-101637D01*
X9064Y-101629D01*
X9142Y-101617D01*
X9219Y-101601D01*
X9295Y-101581D01*
X9370Y-101558D01*
X9444Y-101530D01*
X9516Y-101499D01*
X9587Y-101465D01*
X9655Y-101426D01*
X9722Y-101385D01*
X9787Y-101340D01*
X9849Y-101292D01*
X9908Y-101241D01*
X9965Y-101186D01*
X10020Y-101129D01*
X10071Y-101070D01*
X10119Y-101008D01*
X10164Y-100943D01*
X10205Y-100876D01*
X10244Y-100808D01*
X10278Y-100737D01*
X10309Y-100665D01*
X10337Y-100591D01*
X10360Y-100516D01*
X10380Y-100440D01*
X10396Y-100363D01*
X10408Y-100285D01*
X10416Y-100207D01*
X10420Y-100128D01*
X10420Y-100050D01*
X10416Y-99971D01*
X10408Y-99893D01*
X10396Y-99815D01*
X10380Y-99738D01*
X10360Y-99662D01*
X10337Y-99587D01*
X10309Y-99513D01*
X10278Y-99441D01*
X10244Y-99370D01*
X10205Y-99302D01*
X10164Y-99235D01*
X10119Y-99170D01*
X10071Y-99108D01*
X10020Y-99049D01*
X9965Y-98992D01*
X5995Y-105156D02*
X5945Y-105204D01*
X5891Y-105249D01*
X5836Y-105291D01*
X5778Y-105330D01*
X5718Y-105365D01*
X5656Y-105397D01*
X5592Y-105425D01*
X5527Y-105450D01*
X5461Y-105471D01*
X5393Y-105489D01*
X5325Y-105502D01*
X5256Y-105512D01*
X5187Y-105518D01*
X5117Y-105520D01*
X5047Y-105518D01*
X4978Y-105512D01*
X4909Y-105502D01*
X4841Y-105489D01*
X4773Y-105471D01*
X4707Y-105450D01*
X4642Y-105425D01*
X4578Y-105397D01*
X4516Y-105365D01*
X4456Y-105330D01*
X4398Y-105291D01*
X4343Y-105249D01*
X4289Y-105204D01*
X4239Y-105156D01*
X5996Y-105156D02*
X6064Y-105085D01*
X6130Y-105011D01*
X6193Y-104935D01*
X6253Y-104857D01*
X6310Y-104777D01*
X6364Y-104694D01*
X6414Y-104609D01*
X6462Y-104523D01*
X6506Y-104435D01*
X6547Y-104345D01*
X6585Y-104254D01*
X6619Y-104161D01*
X6649Y-104068D01*
X6677Y-103973D01*
X6700Y-103877D01*
X6720Y-103780D01*
X6736Y-103683D01*
X6749Y-103585D01*
X6757Y-103487D01*
X6763Y-103389D01*
X6764Y-103290D01*
X4130Y-100875D02*
X4080Y-100827D01*
X4026Y-100782D01*
X3971Y-100740D01*
X3913Y-100701D01*
X3853Y-100666D01*
X3791Y-100634D01*
X3727Y-100606D01*
X3662Y-100581D01*
X3596Y-100560D01*
X3528Y-100542D01*
X3460Y-100529D01*
X3391Y-100519D01*
X3322Y-100513D01*
X3252Y-100511D01*
X3182Y-100513D01*
X3113Y-100519D01*
X3044Y-100529D01*
X2976Y-100542D01*
X2908Y-100560D01*
X2842Y-100581D01*
X2777Y-100606D01*
X2713Y-100634D01*
X2651Y-100666D01*
X2591Y-100701D01*
X2533Y-100740D01*
X2478Y-100782D01*
X2424Y-100827D01*
X2374Y-100875D01*
X2309Y-100942D01*
X2247Y-101012D01*
X2188Y-101085D01*
X2131Y-101160D01*
X2078Y-101237D01*
X2028Y-101316D01*
X1981Y-101397D01*
X1938Y-101480D01*
X1898Y-101564D01*
X1861Y-101651D01*
X1828Y-101738D01*
X1798Y-101827D01*
X1772Y-101917D01*
X1749Y-102008D01*
X1730Y-102099D01*
X1715Y-102192D01*
X4459Y-102083D02*
X4474Y-102015D01*
X4486Y-101948D01*
X4494Y-101879D01*
X4498Y-101810D01*
X4499Y-101741D01*
X4495Y-101673D01*
X4488Y-101604D01*
X4478Y-101536D01*
X4463Y-101469D01*
X4445Y-101402D01*
X4423Y-101337D01*
X4398Y-101273D01*
X4369Y-101210D01*
X4337Y-101149D01*
X4302Y-101090D01*
X4263Y-101033D01*
X4222Y-100978D01*
X4177Y-100925D01*
X4130Y-100875D01*
X3910Y-103949D02*
X3895Y-104016D01*
X3883Y-104084D01*
X3875Y-104152D01*
X3871Y-104221D01*
X3870Y-104290D01*
X3874Y-104359D01*
X3881Y-104427D01*
X3891Y-104495D01*
X3906Y-104562D01*
X3924Y-104629D01*
X3946Y-104694D01*
X3971Y-104758D01*
X4000Y-104821D01*
X4032Y-104882D01*
X4067Y-104941D01*
X4106Y-104998D01*
X4147Y-105053D01*
X4192Y-105106D01*
X4239Y-105156D01*
X3910Y-103948D02*
X4459Y-102082D01*
X-710Y-103959D02*
X3241Y-107910D01*
X3680Y-107471D02*
X2802Y-108349D01*
X-1149Y-104398D02*
X-271Y-103520D01*
X37153Y-91495D02*
X41105Y-95447D01*
X38909Y-97642D02*
X37153Y-91495D01*
X34958Y-93691D02*
X38909Y-97642D01*
X36229Y-100322D02*
X35351Y-101200D01*
X36229Y-100322D02*
X36277Y-100272D01*
X36322Y-100218D01*
X36364Y-100163D01*
X36403Y-100105D01*
X36438Y-100045D01*
X36470Y-99983D01*
X36498Y-99919D01*
X36523Y-99854D01*
X36544Y-99788D01*
X36562Y-99720D01*
X36575Y-99652D01*
X36585Y-99583D01*
X36591Y-99514D01*
X36593Y-99444D01*
X36591Y-99374D01*
X36585Y-99305D01*
X36575Y-99236D01*
X36562Y-99168D01*
X36544Y-99100D01*
X36523Y-99034D01*
X36498Y-98969D01*
X36470Y-98905D01*
X36438Y-98843D01*
X36403Y-98783D01*
X36364Y-98725D01*
X36322Y-98670D01*
X36277Y-98616D01*
X36229Y-98566D01*
X34034Y-96371D01*
X33984Y-96323D01*
X33930Y-96278D01*
X33875Y-96236D01*
X33817Y-96197D01*
X33757Y-96162D01*
X33695Y-96130D01*
X33631Y-96102D01*
X33566Y-96077D01*
X33500Y-96056D01*
X33432Y-96038D01*
X33364Y-96025D01*
X33295Y-96015D01*
X33226Y-96009D01*
X33156Y-96007D01*
X33086Y-96009D01*
X33017Y-96015D01*
X32948Y-96025D01*
X32880Y-96038D01*
X32812Y-96056D01*
X32746Y-96077D01*
X32681Y-96102D01*
X32617Y-96130D01*
X32555Y-96162D01*
X32495Y-96197D01*
X32437Y-96236D01*
X32382Y-96278D01*
X32328Y-96323D01*
X32278Y-96371D01*
X31400Y-97249D01*
X30919Y-103876D02*
X30969Y-103924D01*
X31023Y-103969D01*
X31078Y-104011D01*
X31136Y-104050D01*
X31196Y-104085D01*
X31258Y-104117D01*
X31322Y-104145D01*
X31387Y-104170D01*
X31453Y-104191D01*
X31521Y-104209D01*
X31589Y-104222D01*
X31658Y-104232D01*
X31727Y-104238D01*
X31797Y-104240D01*
X31867Y-104238D01*
X31936Y-104232D01*
X32005Y-104222D01*
X32073Y-104209D01*
X32141Y-104191D01*
X32207Y-104170D01*
X32272Y-104145D01*
X32336Y-104117D01*
X32398Y-104085D01*
X32458Y-104050D01*
X32516Y-104011D01*
X32571Y-103969D01*
X32625Y-103924D01*
X32675Y-103876D01*
X32676Y-103876D02*
X32744Y-103805D01*
X32810Y-103731D01*
X32873Y-103655D01*
X32933Y-103577D01*
X32990Y-103497D01*
X33044Y-103414D01*
X33094Y-103329D01*
X33142Y-103243D01*
X33186Y-103155D01*
X33227Y-103065D01*
X33265Y-102974D01*
X33299Y-102881D01*
X33329Y-102788D01*
X33357Y-102693D01*
X33380Y-102597D01*
X33400Y-102500D01*
X33416Y-102403D01*
X33429Y-102305D01*
X33437Y-102207D01*
X33443Y-102109D01*
X33444Y-102010D01*
X30809Y-99596D02*
X30759Y-99548D01*
X30705Y-99503D01*
X30650Y-99461D01*
X30592Y-99422D01*
X30532Y-99387D01*
X30470Y-99355D01*
X30406Y-99327D01*
X30341Y-99302D01*
X30275Y-99281D01*
X30207Y-99263D01*
X30139Y-99250D01*
X30070Y-99240D01*
X30001Y-99234D01*
X29931Y-99232D01*
X29861Y-99234D01*
X29792Y-99240D01*
X29723Y-99250D01*
X29655Y-99263D01*
X29587Y-99281D01*
X29521Y-99302D01*
X29456Y-99327D01*
X29392Y-99355D01*
X29330Y-99387D01*
X29270Y-99422D01*
X29212Y-99461D01*
X29157Y-99503D01*
X29103Y-99548D01*
X29053Y-99596D01*
X28988Y-99663D01*
X28926Y-99733D01*
X28867Y-99806D01*
X28810Y-99881D01*
X28757Y-99958D01*
X28707Y-100037D01*
X28660Y-100118D01*
X28617Y-100201D01*
X28577Y-100285D01*
X28540Y-100372D01*
X28507Y-100459D01*
X28477Y-100548D01*
X28451Y-100638D01*
X28428Y-100729D01*
X28409Y-100820D01*
X28394Y-100913D01*
X31139Y-100803D02*
X31154Y-100735D01*
X31166Y-100668D01*
X31174Y-100599D01*
X31178Y-100530D01*
X31179Y-100461D01*
X31175Y-100393D01*
X31168Y-100324D01*
X31158Y-100256D01*
X31143Y-100189D01*
X31125Y-100122D01*
X31103Y-100057D01*
X31078Y-99993D01*
X31049Y-99930D01*
X31017Y-99869D01*
X30982Y-99810D01*
X30943Y-99753D01*
X30902Y-99698D01*
X30857Y-99645D01*
X30810Y-99595D01*
X30590Y-102669D02*
X30575Y-102736D01*
X30563Y-102804D01*
X30555Y-102872D01*
X30551Y-102941D01*
X30550Y-103010D01*
X30554Y-103079D01*
X30561Y-103147D01*
X30571Y-103215D01*
X30586Y-103282D01*
X30604Y-103349D01*
X30626Y-103414D01*
X30651Y-103478D01*
X30680Y-103541D01*
X30712Y-103602D01*
X30747Y-103661D01*
X30786Y-103718D01*
X30827Y-103773D01*
X30872Y-103826D01*
X30919Y-103876D01*
X30590Y-102669D02*
X31139Y-100803D01*
X27169Y-103236D02*
X25193Y-103455D01*
X29145Y-107407D01*
X30242Y-106309D02*
X28047Y-108504D01*
X-9909Y-95660D02*
X-13860Y-91709D01*
X-12982Y-95221D01*
X-16495Y-94343D01*
X-12543Y-98294D01*
X-14718Y-100469D02*
X-18669Y-96518D01*
X-14279Y-100030D02*
X-15157Y-100908D01*
X-19108Y-96957D02*
X-18230Y-96079D01*
X-17912Y-103662D02*
X-17962Y-103710D01*
X-18016Y-103755D01*
X-18071Y-103797D01*
X-18129Y-103836D01*
X-18189Y-103871D01*
X-18251Y-103903D01*
X-18315Y-103931D01*
X-18380Y-103956D01*
X-18446Y-103977D01*
X-18514Y-103995D01*
X-18582Y-104008D01*
X-18651Y-104018D01*
X-18720Y-104024D01*
X-18790Y-104026D01*
X-18860Y-104024D01*
X-18929Y-104018D01*
X-18998Y-104008D01*
X-19066Y-103995D01*
X-19134Y-103977D01*
X-19200Y-103956D01*
X-19265Y-103931D01*
X-19329Y-103903D01*
X-19391Y-103871D01*
X-19451Y-103836D01*
X-19509Y-103797D01*
X-19564Y-103755D01*
X-19618Y-103710D01*
X-19668Y-103662D01*
X-17911Y-103663D02*
X-17843Y-103592D01*
X-17777Y-103518D01*
X-17714Y-103442D01*
X-17654Y-103364D01*
X-17597Y-103284D01*
X-17543Y-103201D01*
X-17493Y-103116D01*
X-17445Y-103030D01*
X-17401Y-102942D01*
X-17360Y-102852D01*
X-17322Y-102761D01*
X-17288Y-102668D01*
X-17258Y-102575D01*
X-17230Y-102480D01*
X-17207Y-102384D01*
X-17187Y-102287D01*
X-17171Y-102190D01*
X-17158Y-102092D01*
X-17150Y-101994D01*
X-17144Y-101896D01*
X-17143Y-101797D01*
X-19778Y-99382D02*
X-19828Y-99334D01*
X-19882Y-99289D01*
X-19937Y-99247D01*
X-19995Y-99208D01*
X-20055Y-99173D01*
X-20117Y-99141D01*
X-20181Y-99113D01*
X-20246Y-99088D01*
X-20312Y-99067D01*
X-20380Y-99049D01*
X-20448Y-99036D01*
X-20517Y-99026D01*
X-20586Y-99020D01*
X-20656Y-99018D01*
X-20726Y-99020D01*
X-20795Y-99026D01*
X-20864Y-99036D01*
X-20932Y-99049D01*
X-21000Y-99067D01*
X-21066Y-99088D01*
X-21131Y-99113D01*
X-21195Y-99141D01*
X-21257Y-99173D01*
X-21317Y-99208D01*
X-21375Y-99247D01*
X-21430Y-99289D01*
X-21484Y-99334D01*
X-21534Y-99382D01*
X-21533Y-99382D02*
X-21598Y-99449D01*
X-21660Y-99519D01*
X-21719Y-99592D01*
X-21776Y-99667D01*
X-21829Y-99744D01*
X-21879Y-99823D01*
X-21926Y-99904D01*
X-21969Y-99987D01*
X-22009Y-100071D01*
X-22046Y-100158D01*
X-22079Y-100245D01*
X-22109Y-100334D01*
X-22135Y-100424D01*
X-22158Y-100515D01*
X-22177Y-100606D01*
X-22192Y-100699D01*
X-19448Y-100590D02*
X-19433Y-100522D01*
X-19421Y-100455D01*
X-19413Y-100386D01*
X-19409Y-100317D01*
X-19408Y-100248D01*
X-19412Y-100180D01*
X-19419Y-100111D01*
X-19429Y-100043D01*
X-19444Y-99976D01*
X-19462Y-99909D01*
X-19484Y-99844D01*
X-19509Y-99780D01*
X-19538Y-99717D01*
X-19570Y-99656D01*
X-19605Y-99597D01*
X-19644Y-99540D01*
X-19685Y-99485D01*
X-19730Y-99432D01*
X-19777Y-99382D01*
X-19997Y-102456D02*
X-20012Y-102523D01*
X-20024Y-102591D01*
X-20032Y-102659D01*
X-20036Y-102728D01*
X-20037Y-102797D01*
X-20033Y-102866D01*
X-20026Y-102934D01*
X-20016Y-103002D01*
X-20001Y-103069D01*
X-19983Y-103136D01*
X-19961Y-103201D01*
X-19936Y-103265D01*
X-19907Y-103328D01*
X-19875Y-103389D01*
X-19840Y-103448D01*
X-19801Y-103505D01*
X-19760Y-103560D01*
X-19715Y-103613D01*
X-19668Y-103663D01*
X-19997Y-102455D02*
X-19448Y-100589D01*
X-23198Y-103242D02*
X-21442Y-104998D01*
X-23199Y-103242D02*
X-23256Y-103187D01*
X-23315Y-103136D01*
X-23377Y-103088D01*
X-23442Y-103043D01*
X-23509Y-103002D01*
X-23577Y-102963D01*
X-23648Y-102929D01*
X-23720Y-102898D01*
X-23794Y-102870D01*
X-23869Y-102847D01*
X-23945Y-102827D01*
X-24022Y-102811D01*
X-24100Y-102799D01*
X-24178Y-102791D01*
X-24257Y-102787D01*
X-24335Y-102787D01*
X-24414Y-102791D01*
X-24492Y-102799D01*
X-24570Y-102811D01*
X-24647Y-102827D01*
X-24723Y-102847D01*
X-24798Y-102870D01*
X-24872Y-102898D01*
X-24944Y-102929D01*
X-25015Y-102963D01*
X-25083Y-103002D01*
X-25150Y-103043D01*
X-25215Y-103088D01*
X-25277Y-103136D01*
X-25336Y-103187D01*
X-25393Y-103242D01*
X-25448Y-103299D01*
X-25499Y-103358D01*
X-25547Y-103420D01*
X-25592Y-103485D01*
X-25633Y-103552D01*
X-25672Y-103620D01*
X-25706Y-103691D01*
X-25737Y-103763D01*
X-25765Y-103837D01*
X-25788Y-103912D01*
X-25808Y-103988D01*
X-25824Y-104065D01*
X-25836Y-104143D01*
X-25844Y-104221D01*
X-25848Y-104300D01*
X-25848Y-104378D01*
X-25844Y-104457D01*
X-25836Y-104535D01*
X-25824Y-104613D01*
X-25808Y-104690D01*
X-25788Y-104766D01*
X-25765Y-104841D01*
X-25737Y-104915D01*
X-25706Y-104987D01*
X-25672Y-105058D01*
X-25633Y-105126D01*
X-25592Y-105193D01*
X-25547Y-105258D01*
X-25499Y-105320D01*
X-25448Y-105379D01*
X-25393Y-105436D01*
X-25394Y-105437D02*
X-23637Y-107193D01*
X-23580Y-107248D01*
X-23521Y-107299D01*
X-23459Y-107347D01*
X-23394Y-107392D01*
X-23327Y-107433D01*
X-23259Y-107472D01*
X-23188Y-107506D01*
X-23116Y-107537D01*
X-23042Y-107565D01*
X-22967Y-107588D01*
X-22891Y-107608D01*
X-22814Y-107624D01*
X-22736Y-107636D01*
X-22658Y-107644D01*
X-22579Y-107648D01*
X-22501Y-107648D01*
X-22422Y-107644D01*
X-22344Y-107636D01*
X-22266Y-107624D01*
X-22189Y-107608D01*
X-22113Y-107588D01*
X-22038Y-107565D01*
X-21964Y-107537D01*
X-21892Y-107506D01*
X-21821Y-107472D01*
X-21753Y-107433D01*
X-21686Y-107392D01*
X-21621Y-107347D01*
X-21559Y-107299D01*
X-21500Y-107248D01*
X-21443Y-107193D01*
X-21388Y-107136D01*
X-21337Y-107077D01*
X-21289Y-107015D01*
X-21244Y-106950D01*
X-21203Y-106883D01*
X-21164Y-106815D01*
X-21130Y-106744D01*
X-21099Y-106672D01*
X-21071Y-106598D01*
X-21048Y-106523D01*
X-21028Y-106447D01*
X-21012Y-106370D01*
X-21000Y-106292D01*
X-20992Y-106214D01*
X-20988Y-106135D01*
X-20988Y-106057D01*
X-20992Y-105978D01*
X-21000Y-105900D01*
X-21012Y-105822D01*
X-21028Y-105745D01*
X-21048Y-105669D01*
X-21071Y-105594D01*
X-21099Y-105520D01*
X-21130Y-105448D01*
X-21164Y-105377D01*
X-21203Y-105309D01*
X-21244Y-105242D01*
X-21289Y-105177D01*
X-21337Y-105115D01*
X-21388Y-105056D01*
X-21443Y-104999D01*
X-32759Y-103609D02*
X-32809Y-103657D01*
X-32863Y-103702D01*
X-32918Y-103744D01*
X-32976Y-103783D01*
X-33036Y-103818D01*
X-33098Y-103850D01*
X-33162Y-103878D01*
X-33227Y-103903D01*
X-33293Y-103924D01*
X-33361Y-103942D01*
X-33429Y-103955D01*
X-33498Y-103965D01*
X-33567Y-103971D01*
X-33637Y-103973D01*
X-33707Y-103971D01*
X-33776Y-103965D01*
X-33845Y-103955D01*
X-33913Y-103942D01*
X-33981Y-103924D01*
X-34047Y-103903D01*
X-34112Y-103878D01*
X-34176Y-103850D01*
X-34238Y-103818D01*
X-34298Y-103783D01*
X-34356Y-103744D01*
X-34411Y-103702D01*
X-34465Y-103657D01*
X-34515Y-103609D01*
X-32758Y-103610D02*
X-32690Y-103539D01*
X-32624Y-103465D01*
X-32561Y-103389D01*
X-32501Y-103311D01*
X-32444Y-103231D01*
X-32390Y-103148D01*
X-32340Y-103063D01*
X-32292Y-102977D01*
X-32248Y-102889D01*
X-32207Y-102799D01*
X-32169Y-102708D01*
X-32135Y-102615D01*
X-32105Y-102522D01*
X-32077Y-102427D01*
X-32054Y-102331D01*
X-32034Y-102234D01*
X-32018Y-102137D01*
X-32005Y-102039D01*
X-31997Y-101941D01*
X-31991Y-101843D01*
X-31990Y-101744D01*
X-34624Y-99329D02*
X-34674Y-99281D01*
X-34728Y-99236D01*
X-34783Y-99194D01*
X-34841Y-99155D01*
X-34901Y-99120D01*
X-34963Y-99088D01*
X-35027Y-99060D01*
X-35092Y-99035D01*
X-35158Y-99014D01*
X-35226Y-98996D01*
X-35294Y-98983D01*
X-35363Y-98973D01*
X-35432Y-98967D01*
X-35502Y-98965D01*
X-35572Y-98967D01*
X-35641Y-98973D01*
X-35710Y-98983D01*
X-35778Y-98996D01*
X-35846Y-99014D01*
X-35912Y-99035D01*
X-35977Y-99060D01*
X-36041Y-99088D01*
X-36103Y-99120D01*
X-36163Y-99155D01*
X-36221Y-99194D01*
X-36276Y-99236D01*
X-36330Y-99281D01*
X-36380Y-99329D01*
X-36445Y-99396D01*
X-36507Y-99466D01*
X-36566Y-99539D01*
X-36623Y-99614D01*
X-36676Y-99691D01*
X-36726Y-99770D01*
X-36773Y-99851D01*
X-36816Y-99934D01*
X-36856Y-100018D01*
X-36893Y-100105D01*
X-36926Y-100192D01*
X-36956Y-100281D01*
X-36982Y-100371D01*
X-37005Y-100462D01*
X-37024Y-100553D01*
X-37039Y-100646D01*
X-34295Y-100537D02*
X-34280Y-100469D01*
X-34268Y-100402D01*
X-34260Y-100333D01*
X-34256Y-100264D01*
X-34255Y-100195D01*
X-34259Y-100127D01*
X-34266Y-100058D01*
X-34276Y-99990D01*
X-34291Y-99923D01*
X-34309Y-99856D01*
X-34331Y-99791D01*
X-34356Y-99727D01*
X-34385Y-99664D01*
X-34417Y-99603D01*
X-34452Y-99544D01*
X-34491Y-99487D01*
X-34532Y-99432D01*
X-34577Y-99379D01*
X-34624Y-99329D01*
X-34844Y-102403D02*
X-34859Y-102470D01*
X-34871Y-102538D01*
X-34879Y-102606D01*
X-34883Y-102675D01*
X-34884Y-102744D01*
X-34880Y-102813D01*
X-34873Y-102881D01*
X-34863Y-102949D01*
X-34848Y-103016D01*
X-34830Y-103083D01*
X-34808Y-103148D01*
X-34783Y-103212D01*
X-34754Y-103275D01*
X-34722Y-103336D01*
X-34687Y-103395D01*
X-34648Y-103452D01*
X-34607Y-103507D01*
X-34562Y-103560D01*
X-34515Y-103610D01*
X-34844Y-102402D02*
X-34295Y-100536D01*
X-36058Y-106909D02*
X-36936Y-107787D01*
X-36058Y-106909D02*
X-36010Y-106859D01*
X-35965Y-106805D01*
X-35923Y-106750D01*
X-35884Y-106692D01*
X-35849Y-106632D01*
X-35817Y-106570D01*
X-35789Y-106506D01*
X-35764Y-106441D01*
X-35743Y-106375D01*
X-35725Y-106307D01*
X-35712Y-106239D01*
X-35702Y-106170D01*
X-35696Y-106101D01*
X-35694Y-106031D01*
X-35696Y-105961D01*
X-35702Y-105892D01*
X-35712Y-105823D01*
X-35725Y-105755D01*
X-35743Y-105687D01*
X-35764Y-105621D01*
X-35789Y-105556D01*
X-35817Y-105492D01*
X-35849Y-105430D01*
X-35884Y-105370D01*
X-35923Y-105312D01*
X-35965Y-105257D01*
X-36010Y-105203D01*
X-36058Y-105153D01*
X-38253Y-102958D01*
X-38303Y-102910D01*
X-38357Y-102865D01*
X-38412Y-102823D01*
X-38470Y-102784D01*
X-38530Y-102749D01*
X-38592Y-102717D01*
X-38656Y-102689D01*
X-38721Y-102664D01*
X-38787Y-102643D01*
X-38855Y-102625D01*
X-38923Y-102612D01*
X-38992Y-102602D01*
X-39061Y-102596D01*
X-39131Y-102594D01*
X-39201Y-102596D01*
X-39270Y-102602D01*
X-39339Y-102612D01*
X-39407Y-102625D01*
X-39475Y-102643D01*
X-39541Y-102664D01*
X-39606Y-102689D01*
X-39670Y-102717D01*
X-39732Y-102749D01*
X-39792Y-102784D01*
X-39850Y-102823D01*
X-39905Y-102865D01*
X-39959Y-102910D01*
X-40009Y-102958D01*
X-40887Y-103836D01*
X-42564Y-105512D02*
X-38612Y-109463D01*
X-40149Y-107927D02*
X-44759Y-107707D01*
X-41905Y-107927D02*
X-40808Y-111659D01*
X-55795Y-98173D02*
X-58430Y-100808D01*
X-55795Y-100808D02*
X-58430Y-98173D01*
X-61690Y-100994D02*
X-63665Y-101214D01*
X-59714Y-105165D01*
X-58616Y-104068D02*
X-60812Y-106263D01*
X-62496Y-107947D02*
X-63813Y-109264D01*
X-63863Y-109312D01*
X-63917Y-109357D01*
X-63972Y-109399D01*
X-64030Y-109438D01*
X-64090Y-109473D01*
X-64152Y-109505D01*
X-64216Y-109533D01*
X-64281Y-109558D01*
X-64347Y-109579D01*
X-64415Y-109597D01*
X-64483Y-109610D01*
X-64552Y-109620D01*
X-64621Y-109626D01*
X-64691Y-109628D01*
X-64761Y-109626D01*
X-64830Y-109620D01*
X-64899Y-109610D01*
X-64967Y-109597D01*
X-65035Y-109579D01*
X-65101Y-109558D01*
X-65166Y-109533D01*
X-65230Y-109505D01*
X-65292Y-109473D01*
X-65352Y-109438D01*
X-65410Y-109399D01*
X-65465Y-109357D01*
X-65519Y-109312D01*
X-65569Y-109264D01*
X-66008Y-108825D01*
X-66056Y-108775D01*
X-66101Y-108721D01*
X-66143Y-108666D01*
X-66182Y-108608D01*
X-66217Y-108548D01*
X-66249Y-108486D01*
X-66277Y-108422D01*
X-66302Y-108357D01*
X-66323Y-108291D01*
X-66341Y-108223D01*
X-66354Y-108155D01*
X-66364Y-108086D01*
X-66370Y-108017D01*
X-66372Y-107947D01*
X-66370Y-107877D01*
X-66364Y-107808D01*
X-66354Y-107739D01*
X-66341Y-107671D01*
X-66323Y-107603D01*
X-66302Y-107537D01*
X-66277Y-107472D01*
X-66249Y-107408D01*
X-66217Y-107346D01*
X-66182Y-107286D01*
X-66143Y-107228D01*
X-66101Y-107173D01*
X-66056Y-107119D01*
X-66008Y-107069D01*
X-64691Y-105752D01*
X-66447Y-103996D01*
X-68642Y-106191D01*
X-70107Y-107656D02*
X-67473Y-112924D01*
X-72741Y-110290D01*
X-83939Y-100917D02*
X-81305Y-98283D01*
X-81305Y-100917D02*
X-83939Y-98283D01*
X-84126Y-104177D02*
X-85224Y-105275D01*
X-85224Y-105274D02*
X-85281Y-105329D01*
X-85340Y-105380D01*
X-85402Y-105428D01*
X-85467Y-105473D01*
X-85534Y-105514D01*
X-85602Y-105553D01*
X-85673Y-105587D01*
X-85745Y-105618D01*
X-85819Y-105646D01*
X-85894Y-105669D01*
X-85970Y-105689D01*
X-86047Y-105705D01*
X-86125Y-105717D01*
X-86203Y-105725D01*
X-86282Y-105729D01*
X-86360Y-105729D01*
X-86439Y-105725D01*
X-86517Y-105717D01*
X-86595Y-105705D01*
X-86672Y-105689D01*
X-86748Y-105669D01*
X-86823Y-105646D01*
X-86897Y-105618D01*
X-86969Y-105587D01*
X-87040Y-105553D01*
X-87108Y-105514D01*
X-87175Y-105473D01*
X-87240Y-105428D01*
X-87302Y-105380D01*
X-87361Y-105329D01*
X-87418Y-105274D01*
X-87473Y-105217D01*
X-87524Y-105158D01*
X-87572Y-105096D01*
X-87617Y-105031D01*
X-87658Y-104964D01*
X-87697Y-104896D01*
X-87731Y-104825D01*
X-87762Y-104753D01*
X-87790Y-104679D01*
X-87813Y-104604D01*
X-87833Y-104528D01*
X-87849Y-104451D01*
X-87861Y-104373D01*
X-87869Y-104295D01*
X-87873Y-104216D01*
X-87873Y-104138D01*
X-87869Y-104059D01*
X-87861Y-103981D01*
X-87849Y-103903D01*
X-87833Y-103826D01*
X-87813Y-103750D01*
X-87790Y-103675D01*
X-87762Y-103601D01*
X-87731Y-103529D01*
X-87697Y-103458D01*
X-87658Y-103390D01*
X-87617Y-103323D01*
X-87572Y-103258D01*
X-87524Y-103196D01*
X-87473Y-103137D01*
X-87418Y-103080D01*
X-89395Y-101543D02*
X-88078Y-100226D01*
X-89395Y-101543D02*
X-89443Y-101593D01*
X-89488Y-101647D01*
X-89530Y-101702D01*
X-89569Y-101760D01*
X-89604Y-101820D01*
X-89636Y-101882D01*
X-89664Y-101946D01*
X-89689Y-102011D01*
X-89710Y-102077D01*
X-89728Y-102145D01*
X-89741Y-102213D01*
X-89751Y-102282D01*
X-89757Y-102351D01*
X-89759Y-102421D01*
X-89757Y-102491D01*
X-89751Y-102560D01*
X-89741Y-102629D01*
X-89728Y-102697D01*
X-89710Y-102765D01*
X-89689Y-102831D01*
X-89664Y-102896D01*
X-89636Y-102960D01*
X-89604Y-103022D01*
X-89569Y-103082D01*
X-89530Y-103140D01*
X-89488Y-103195D01*
X-89443Y-103249D01*
X-89395Y-103299D01*
X-89345Y-103347D01*
X-89291Y-103392D01*
X-89236Y-103434D01*
X-89178Y-103473D01*
X-89118Y-103508D01*
X-89056Y-103540D01*
X-88992Y-103568D01*
X-88927Y-103593D01*
X-88861Y-103614D01*
X-88793Y-103632D01*
X-88725Y-103645D01*
X-88656Y-103655D01*
X-88587Y-103661D01*
X-88517Y-103663D01*
X-88447Y-103661D01*
X-88378Y-103655D01*
X-88309Y-103645D01*
X-88241Y-103632D01*
X-88173Y-103614D01*
X-88107Y-103593D01*
X-88042Y-103568D01*
X-87978Y-103540D01*
X-87916Y-103508D01*
X-87856Y-103473D01*
X-87798Y-103434D01*
X-87743Y-103392D01*
X-87689Y-103347D01*
X-87639Y-103299D01*
X-86760Y-102421D01*
X-91738Y-103886D02*
X-89103Y-109154D01*
X-94372Y-106520D01*
X-91885Y-111936D02*
X-92983Y-113034D01*
X-92983Y-113033D02*
X-93040Y-113088D01*
X-93099Y-113139D01*
X-93161Y-113187D01*
X-93226Y-113232D01*
X-93293Y-113273D01*
X-93361Y-113312D01*
X-93432Y-113346D01*
X-93504Y-113377D01*
X-93578Y-113405D01*
X-93653Y-113428D01*
X-93729Y-113448D01*
X-93806Y-113464D01*
X-93884Y-113476D01*
X-93962Y-113484D01*
X-94041Y-113488D01*
X-94119Y-113488D01*
X-94198Y-113484D01*
X-94276Y-113476D01*
X-94354Y-113464D01*
X-94431Y-113448D01*
X-94507Y-113428D01*
X-94582Y-113405D01*
X-94656Y-113377D01*
X-94728Y-113346D01*
X-94799Y-113312D01*
X-94867Y-113273D01*
X-94934Y-113232D01*
X-94999Y-113187D01*
X-95061Y-113139D01*
X-95120Y-113088D01*
X-95177Y-113033D01*
X-95232Y-112976D01*
X-95283Y-112917D01*
X-95331Y-112855D01*
X-95376Y-112790D01*
X-95417Y-112723D01*
X-95456Y-112655D01*
X-95490Y-112584D01*
X-95521Y-112512D01*
X-95549Y-112438D01*
X-95572Y-112363D01*
X-95592Y-112287D01*
X-95608Y-112210D01*
X-95620Y-112132D01*
X-95628Y-112054D01*
X-95632Y-111975D01*
X-95632Y-111897D01*
X-95628Y-111818D01*
X-95620Y-111740D01*
X-95608Y-111662D01*
X-95592Y-111585D01*
X-95572Y-111509D01*
X-95549Y-111434D01*
X-95521Y-111360D01*
X-95490Y-111288D01*
X-95456Y-111217D01*
X-95417Y-111149D01*
X-95376Y-111082D01*
X-95331Y-111017D01*
X-95283Y-110955D01*
X-95232Y-110896D01*
X-95177Y-110839D01*
X-97154Y-109302D02*
X-95837Y-107985D01*
X-97154Y-109302D02*
X-97202Y-109352D01*
X-97247Y-109406D01*
X-97289Y-109461D01*
X-97328Y-109519D01*
X-97363Y-109579D01*
X-97395Y-109641D01*
X-97423Y-109705D01*
X-97448Y-109770D01*
X-97469Y-109836D01*
X-97487Y-109904D01*
X-97500Y-109972D01*
X-97510Y-110041D01*
X-97516Y-110110D01*
X-97518Y-110180D01*
X-97516Y-110250D01*
X-97510Y-110319D01*
X-97500Y-110388D01*
X-97487Y-110456D01*
X-97469Y-110524D01*
X-97448Y-110590D01*
X-97423Y-110655D01*
X-97395Y-110719D01*
X-97363Y-110781D01*
X-97328Y-110841D01*
X-97289Y-110899D01*
X-97247Y-110954D01*
X-97202Y-111008D01*
X-97154Y-111058D01*
X-97104Y-111106D01*
X-97050Y-111151D01*
X-96995Y-111193D01*
X-96937Y-111232D01*
X-96877Y-111267D01*
X-96815Y-111299D01*
X-96751Y-111327D01*
X-96686Y-111352D01*
X-96620Y-111373D01*
X-96552Y-111391D01*
X-96484Y-111404D01*
X-96415Y-111414D01*
X-96346Y-111420D01*
X-96276Y-111422D01*
X-96206Y-111420D01*
X-96137Y-111414D01*
X-96068Y-111404D01*
X-96000Y-111391D01*
X-95932Y-111373D01*
X-95866Y-111352D01*
X-95801Y-111327D01*
X-95737Y-111299D01*
X-95675Y-111267D01*
X-95615Y-111232D01*
X-95557Y-111193D01*
X-95502Y-111151D01*
X-95448Y-111106D01*
X-95398Y-111058D01*
X-95397Y-111058D02*
X-94519Y-110180D01*
D11*
X-66000Y362000D02*
X66000Y362000D01*
X-66000Y362000D02*
X-66000Y418000D01*
X66000Y418000D01*
X66000Y362000D01*
D10*
X68254Y376240D02*
X68254Y377482D01*
X68254Y376240D02*
X68256Y376170D01*
X68262Y376101D01*
X68272Y376032D01*
X68285Y375964D01*
X68303Y375896D01*
X68324Y375830D01*
X68349Y375765D01*
X68377Y375701D01*
X68409Y375639D01*
X68444Y375579D01*
X68483Y375521D01*
X68525Y375466D01*
X68570Y375412D01*
X68618Y375362D01*
X68668Y375314D01*
X68722Y375269D01*
X68777Y375227D01*
X68835Y375188D01*
X68895Y375153D01*
X68957Y375121D01*
X69021Y375093D01*
X69086Y375068D01*
X69152Y375047D01*
X69220Y375029D01*
X69288Y375016D01*
X69357Y375006D01*
X69426Y375000D01*
X69496Y374998D01*
X72600Y374998D01*
X72670Y375000D01*
X72739Y375006D01*
X72808Y375016D01*
X72876Y375029D01*
X72944Y375047D01*
X73010Y375068D01*
X73075Y375093D01*
X73139Y375121D01*
X73201Y375153D01*
X73261Y375188D01*
X73319Y375227D01*
X73374Y375269D01*
X73428Y375314D01*
X73478Y375362D01*
X73526Y375412D01*
X73571Y375466D01*
X73613Y375521D01*
X73652Y375579D01*
X73687Y375639D01*
X73719Y375701D01*
X73747Y375765D01*
X73772Y375830D01*
X73793Y375896D01*
X73811Y375964D01*
X73824Y376032D01*
X73834Y376101D01*
X73840Y376170D01*
X73842Y376240D01*
X73842Y377482D01*
X72290Y379586D02*
X69806Y379586D01*
X72290Y379587D02*
X72367Y379589D01*
X72445Y379595D01*
X72521Y379604D01*
X72598Y379618D01*
X72673Y379635D01*
X72747Y379656D01*
X72821Y379681D01*
X72893Y379709D01*
X72963Y379741D01*
X73032Y379776D01*
X73099Y379815D01*
X73164Y379857D01*
X73227Y379902D01*
X73288Y379950D01*
X73346Y380001D01*
X73401Y380055D01*
X73454Y380112D01*
X73503Y380171D01*
X73550Y380233D01*
X73594Y380297D01*
X73634Y380363D01*
X73671Y380431D01*
X73705Y380501D01*
X73735Y380572D01*
X73761Y380645D01*
X73784Y380719D01*
X73803Y380794D01*
X73818Y380869D01*
X73830Y380946D01*
X73838Y381023D01*
X73842Y381100D01*
X73842Y381178D01*
X73838Y381255D01*
X73830Y381332D01*
X73818Y381409D01*
X73803Y381484D01*
X73784Y381559D01*
X73761Y381633D01*
X73735Y381706D01*
X73705Y381777D01*
X73671Y381847D01*
X73634Y381915D01*
X73594Y381981D01*
X73550Y382045D01*
X73503Y382107D01*
X73454Y382166D01*
X73401Y382223D01*
X73346Y382277D01*
X73288Y382328D01*
X73227Y382376D01*
X73164Y382421D01*
X73099Y382463D01*
X73032Y382502D01*
X72963Y382537D01*
X72893Y382569D01*
X72821Y382597D01*
X72747Y382622D01*
X72673Y382643D01*
X72598Y382660D01*
X72521Y382674D01*
X72445Y382683D01*
X72367Y382689D01*
X72290Y382691D01*
X69806Y382691D01*
X69729Y382689D01*
X69651Y382683D01*
X69575Y382674D01*
X69498Y382660D01*
X69423Y382643D01*
X69349Y382622D01*
X69275Y382597D01*
X69203Y382569D01*
X69133Y382537D01*
X69064Y382502D01*
X68997Y382463D01*
X68932Y382421D01*
X68869Y382376D01*
X68808Y382328D01*
X68750Y382277D01*
X68695Y382223D01*
X68642Y382166D01*
X68593Y382107D01*
X68546Y382045D01*
X68502Y381981D01*
X68462Y381915D01*
X68425Y381847D01*
X68391Y381777D01*
X68361Y381706D01*
X68335Y381633D01*
X68312Y381559D01*
X68293Y381484D01*
X68278Y381409D01*
X68266Y381332D01*
X68258Y381255D01*
X68254Y381178D01*
X68254Y381100D01*
X68258Y381023D01*
X68266Y380946D01*
X68278Y380869D01*
X68293Y380794D01*
X68312Y380719D01*
X68335Y380645D01*
X68361Y380572D01*
X68391Y380501D01*
X68425Y380431D01*
X68462Y380363D01*
X68502Y380297D01*
X68546Y380233D01*
X68593Y380171D01*
X68642Y380112D01*
X68695Y380055D01*
X68750Y380001D01*
X68808Y379950D01*
X68869Y379902D01*
X68932Y379857D01*
X68997Y379815D01*
X69064Y379776D01*
X69133Y379741D01*
X69203Y379709D01*
X69275Y379681D01*
X69349Y379656D01*
X69423Y379635D01*
X69498Y379618D01*
X69575Y379604D01*
X69651Y379595D01*
X69729Y379589D01*
X69806Y379587D01*
X68254Y385256D02*
X73842Y385256D01*
X68254Y388360D01*
X73842Y388360D01*
X68254Y390925D02*
X68254Y392477D01*
X68256Y392554D01*
X68262Y392632D01*
X68271Y392708D01*
X68285Y392785D01*
X68302Y392860D01*
X68323Y392934D01*
X68348Y393008D01*
X68376Y393080D01*
X68408Y393150D01*
X68443Y393219D01*
X68482Y393286D01*
X68524Y393351D01*
X68569Y393414D01*
X68617Y393475D01*
X68668Y393533D01*
X68722Y393588D01*
X68779Y393641D01*
X68838Y393690D01*
X68900Y393737D01*
X68964Y393781D01*
X69030Y393821D01*
X69098Y393858D01*
X69168Y393892D01*
X69239Y393922D01*
X69312Y393948D01*
X69386Y393971D01*
X69461Y393990D01*
X69536Y394005D01*
X69613Y394017D01*
X69690Y394025D01*
X69767Y394029D01*
X69845Y394029D01*
X69922Y394025D01*
X69999Y394017D01*
X70076Y394005D01*
X70151Y393990D01*
X70226Y393971D01*
X70300Y393948D01*
X70373Y393922D01*
X70444Y393892D01*
X70514Y393858D01*
X70582Y393821D01*
X70648Y393781D01*
X70712Y393737D01*
X70774Y393690D01*
X70833Y393641D01*
X70890Y393588D01*
X70944Y393533D01*
X70995Y393475D01*
X71043Y393414D01*
X71088Y393351D01*
X71130Y393286D01*
X71169Y393219D01*
X71204Y393150D01*
X71236Y393080D01*
X71264Y393008D01*
X71289Y392934D01*
X71310Y392860D01*
X71327Y392785D01*
X71341Y392708D01*
X71350Y392632D01*
X71356Y392554D01*
X71358Y392477D01*
X73842Y392787D02*
X73842Y390925D01*
X73842Y392787D02*
X73840Y392857D01*
X73834Y392926D01*
X73824Y392995D01*
X73811Y393063D01*
X73793Y393131D01*
X73772Y393197D01*
X73747Y393262D01*
X73719Y393326D01*
X73687Y393388D01*
X73652Y393448D01*
X73613Y393506D01*
X73571Y393561D01*
X73526Y393615D01*
X73478Y393665D01*
X73428Y393713D01*
X73374Y393758D01*
X73319Y393800D01*
X73261Y393839D01*
X73201Y393874D01*
X73139Y393906D01*
X73075Y393934D01*
X73010Y393959D01*
X72944Y393980D01*
X72876Y393998D01*
X72808Y394011D01*
X72739Y394021D01*
X72670Y394027D01*
X72600Y394029D01*
X72530Y394027D01*
X72461Y394021D01*
X72392Y394011D01*
X72324Y393998D01*
X72256Y393980D01*
X72190Y393959D01*
X72125Y393934D01*
X72061Y393906D01*
X71999Y393874D01*
X71939Y393839D01*
X71881Y393800D01*
X71826Y393758D01*
X71772Y393713D01*
X71722Y393665D01*
X71674Y393615D01*
X71629Y393561D01*
X71587Y393506D01*
X71548Y393448D01*
X71513Y393388D01*
X71481Y393326D01*
X71453Y393262D01*
X71428Y393197D01*
X71407Y393131D01*
X71389Y393063D01*
X71376Y392995D01*
X71366Y392926D01*
X71360Y392857D01*
X71358Y392787D01*
X71358Y391546D01*
X71048Y396411D02*
X71179Y396413D01*
X71309Y396418D01*
X71439Y396428D01*
X71569Y396441D01*
X71699Y396457D01*
X71828Y396477D01*
X71956Y396501D01*
X72083Y396529D01*
X72210Y396560D01*
X72336Y396595D01*
X72461Y396633D01*
X72585Y396675D01*
X72707Y396720D01*
X72828Y396769D01*
X72948Y396821D01*
X73066Y396877D01*
X73066Y396876D02*
X73126Y396899D01*
X73186Y396925D01*
X73243Y396954D01*
X73299Y396987D01*
X73353Y397023D01*
X73405Y397061D01*
X73455Y397103D01*
X73502Y397147D01*
X73547Y397194D01*
X73589Y397244D01*
X73628Y397295D01*
X73664Y397349D01*
X73697Y397405D01*
X73727Y397462D01*
X73754Y397521D01*
X73777Y397582D01*
X73797Y397643D01*
X73813Y397706D01*
X73826Y397770D01*
X73835Y397834D01*
X73840Y397898D01*
X73842Y397963D01*
X73840Y398028D01*
X73835Y398092D01*
X73826Y398156D01*
X73813Y398220D01*
X73797Y398283D01*
X73777Y398344D01*
X73754Y398405D01*
X73727Y398464D01*
X73697Y398521D01*
X73664Y398577D01*
X73628Y398631D01*
X73589Y398682D01*
X73547Y398732D01*
X73502Y398779D01*
X73455Y398823D01*
X73405Y398865D01*
X73353Y398903D01*
X73299Y398939D01*
X73243Y398972D01*
X73186Y399001D01*
X73126Y399027D01*
X73066Y399050D01*
X72948Y399106D01*
X72828Y399158D01*
X72707Y399207D01*
X72585Y399252D01*
X72461Y399294D01*
X72336Y399332D01*
X72210Y399367D01*
X72084Y399398D01*
X71956Y399426D01*
X71828Y399450D01*
X71699Y399470D01*
X71569Y399486D01*
X71439Y399499D01*
X71309Y399509D01*
X71179Y399514D01*
X71048Y399516D01*
X71048Y396411D02*
X70917Y396413D01*
X70787Y396418D01*
X70657Y396428D01*
X70527Y396441D01*
X70397Y396457D01*
X70268Y396477D01*
X70140Y396501D01*
X70013Y396529D01*
X69886Y396560D01*
X69760Y396595D01*
X69635Y396633D01*
X69511Y396675D01*
X69389Y396720D01*
X69268Y396769D01*
X69148Y396821D01*
X69030Y396877D01*
X69030Y396876D02*
X68970Y396899D01*
X68910Y396925D01*
X68853Y396954D01*
X68797Y396987D01*
X68743Y397023D01*
X68691Y397061D01*
X68641Y397103D01*
X68594Y397147D01*
X68549Y397194D01*
X68507Y397244D01*
X68468Y397295D01*
X68432Y397349D01*
X68399Y397405D01*
X68369Y397462D01*
X68342Y397521D01*
X68319Y397582D01*
X68299Y397643D01*
X68283Y397706D01*
X68270Y397770D01*
X68261Y397834D01*
X68256Y397898D01*
X68254Y397963D01*
X69030Y399050D02*
X69148Y399106D01*
X69268Y399158D01*
X69389Y399207D01*
X69511Y399252D01*
X69635Y399294D01*
X69760Y399332D01*
X69886Y399367D01*
X70012Y399398D01*
X70140Y399426D01*
X70268Y399450D01*
X70397Y399470D01*
X70527Y399486D01*
X70657Y399499D01*
X70787Y399509D01*
X70917Y399514D01*
X71048Y399516D01*
X69030Y399050D02*
X68970Y399027D01*
X68910Y399001D01*
X68853Y398972D01*
X68797Y398939D01*
X68743Y398903D01*
X68691Y398865D01*
X68641Y398823D01*
X68594Y398779D01*
X68549Y398732D01*
X68507Y398682D01*
X68468Y398631D01*
X68432Y398577D01*
X68399Y398521D01*
X68369Y398464D01*
X68342Y398405D01*
X68319Y398344D01*
X68299Y398283D01*
X68283Y398220D01*
X68270Y398156D01*
X68261Y398092D01*
X68256Y398028D01*
X68254Y397963D01*
X69496Y396722D02*
X72600Y399205D01*
X72600Y401898D02*
X73842Y403450D01*
X68254Y403450D01*
X68254Y401898D02*
X68254Y405002D01*
D11*
X104000Y-88000D02*
X-104000Y-88000D01*
X-104000Y-32000D01*
X104000Y-32000D01*
X104000Y-88000D01*
D10*
X106254Y-70571D02*
X106256Y-70501D01*
X106262Y-70432D01*
X106272Y-70363D01*
X106285Y-70295D01*
X106303Y-70227D01*
X106324Y-70161D01*
X106349Y-70096D01*
X106377Y-70032D01*
X106409Y-69970D01*
X106444Y-69910D01*
X106483Y-69852D01*
X106525Y-69797D01*
X106570Y-69743D01*
X106618Y-69693D01*
X106668Y-69645D01*
X106722Y-69600D01*
X106777Y-69558D01*
X106835Y-69519D01*
X106895Y-69484D01*
X106957Y-69452D01*
X107021Y-69424D01*
X107086Y-69399D01*
X107152Y-69378D01*
X107220Y-69360D01*
X107288Y-69347D01*
X107357Y-69337D01*
X107426Y-69331D01*
X107496Y-69329D01*
X106254Y-70571D02*
X106256Y-70670D01*
X106261Y-70768D01*
X106271Y-70866D01*
X106284Y-70964D01*
X106300Y-71061D01*
X106320Y-71158D01*
X106344Y-71253D01*
X106372Y-71348D01*
X106403Y-71442D01*
X106437Y-71534D01*
X106475Y-71625D01*
X106516Y-71715D01*
X106561Y-71803D01*
X106609Y-71889D01*
X106660Y-71973D01*
X106714Y-72055D01*
X106772Y-72136D01*
X106832Y-72214D01*
X106895Y-72289D01*
X106961Y-72363D01*
X107030Y-72433D01*
X110600Y-72279D02*
X110670Y-72277D01*
X110739Y-72271D01*
X110808Y-72261D01*
X110876Y-72248D01*
X110944Y-72230D01*
X111010Y-72209D01*
X111075Y-72184D01*
X111139Y-72156D01*
X111201Y-72124D01*
X111261Y-72089D01*
X111319Y-72050D01*
X111374Y-72008D01*
X111428Y-71963D01*
X111478Y-71915D01*
X111526Y-71865D01*
X111571Y-71811D01*
X111613Y-71756D01*
X111652Y-71698D01*
X111687Y-71638D01*
X111719Y-71576D01*
X111747Y-71512D01*
X111772Y-71447D01*
X111793Y-71381D01*
X111811Y-71313D01*
X111824Y-71245D01*
X111834Y-71176D01*
X111840Y-71107D01*
X111842Y-71037D01*
X111840Y-70943D01*
X111834Y-70850D01*
X111825Y-70757D01*
X111812Y-70664D01*
X111795Y-70572D01*
X111775Y-70481D01*
X111750Y-70390D01*
X111723Y-70301D01*
X111691Y-70213D01*
X111656Y-70126D01*
X111618Y-70040D01*
X111576Y-69957D01*
X111531Y-69874D01*
X111483Y-69794D01*
X111431Y-69716D01*
X111376Y-69640D01*
X109514Y-71657D02*
X109550Y-71716D01*
X109590Y-71772D01*
X109633Y-71826D01*
X109678Y-71878D01*
X109727Y-71927D01*
X109778Y-71973D01*
X109831Y-72016D01*
X109887Y-72057D01*
X109945Y-72094D01*
X110005Y-72129D01*
X110066Y-72159D01*
X110129Y-72187D01*
X110194Y-72211D01*
X110260Y-72231D01*
X110327Y-72248D01*
X110394Y-72261D01*
X110462Y-72270D01*
X110531Y-72276D01*
X110600Y-72278D01*
X108582Y-69950D02*
X108546Y-69891D01*
X108506Y-69835D01*
X108463Y-69781D01*
X108418Y-69729D01*
X108369Y-69680D01*
X108318Y-69634D01*
X108265Y-69591D01*
X108209Y-69550D01*
X108151Y-69513D01*
X108092Y-69478D01*
X108030Y-69448D01*
X107967Y-69420D01*
X107902Y-69396D01*
X107836Y-69376D01*
X107769Y-69359D01*
X107702Y-69346D01*
X107634Y-69337D01*
X107565Y-69331D01*
X107496Y-69329D01*
X108582Y-69950D02*
X109514Y-71657D01*
X111842Y-67440D02*
X106254Y-65578D01*
X111842Y-63715D01*
X106254Y-61644D02*
X106254Y-60091D01*
X106256Y-60014D01*
X106262Y-59936D01*
X106271Y-59860D01*
X106285Y-59783D01*
X106302Y-59708D01*
X106323Y-59634D01*
X106348Y-59560D01*
X106376Y-59488D01*
X106408Y-59418D01*
X106443Y-59349D01*
X106482Y-59282D01*
X106524Y-59217D01*
X106569Y-59154D01*
X106617Y-59093D01*
X106668Y-59035D01*
X106722Y-58980D01*
X106779Y-58927D01*
X106838Y-58878D01*
X106900Y-58831D01*
X106964Y-58787D01*
X107030Y-58747D01*
X107098Y-58710D01*
X107168Y-58676D01*
X107239Y-58646D01*
X107312Y-58620D01*
X107386Y-58597D01*
X107461Y-58578D01*
X107536Y-58563D01*
X107613Y-58551D01*
X107690Y-58543D01*
X107767Y-58539D01*
X107845Y-58539D01*
X107922Y-58543D01*
X107999Y-58551D01*
X108076Y-58563D01*
X108151Y-58578D01*
X108226Y-58597D01*
X108300Y-58620D01*
X108373Y-58646D01*
X108444Y-58676D01*
X108514Y-58710D01*
X108582Y-58747D01*
X108648Y-58787D01*
X108712Y-58831D01*
X108774Y-58878D01*
X108833Y-58927D01*
X108890Y-58980D01*
X108944Y-59035D01*
X108995Y-59093D01*
X109043Y-59154D01*
X109088Y-59217D01*
X109130Y-59282D01*
X109169Y-59349D01*
X109204Y-59418D01*
X109236Y-59488D01*
X109264Y-59560D01*
X109289Y-59634D01*
X109310Y-59708D01*
X109327Y-59783D01*
X109341Y-59860D01*
X109350Y-59936D01*
X109356Y-60014D01*
X109358Y-60091D01*
X111842Y-59781D02*
X111842Y-61644D01*
X111842Y-59781D02*
X111840Y-59711D01*
X111834Y-59642D01*
X111824Y-59573D01*
X111811Y-59505D01*
X111793Y-59437D01*
X111772Y-59371D01*
X111747Y-59306D01*
X111719Y-59242D01*
X111687Y-59180D01*
X111652Y-59120D01*
X111613Y-59062D01*
X111571Y-59007D01*
X111526Y-58953D01*
X111478Y-58903D01*
X111428Y-58855D01*
X111374Y-58810D01*
X111319Y-58768D01*
X111261Y-58729D01*
X111201Y-58694D01*
X111139Y-58662D01*
X111075Y-58634D01*
X111010Y-58609D01*
X110944Y-58588D01*
X110876Y-58570D01*
X110808Y-58557D01*
X110739Y-58547D01*
X110670Y-58541D01*
X110600Y-58539D01*
X110530Y-58541D01*
X110461Y-58547D01*
X110392Y-58557D01*
X110324Y-58570D01*
X110256Y-58588D01*
X110190Y-58609D01*
X110125Y-58634D01*
X110061Y-58662D01*
X109999Y-58694D01*
X109939Y-58729D01*
X109881Y-58768D01*
X109826Y-58810D01*
X109772Y-58855D01*
X109722Y-58903D01*
X109674Y-58953D01*
X109629Y-59007D01*
X109587Y-59062D01*
X109548Y-59120D01*
X109513Y-59180D01*
X109481Y-59242D01*
X109453Y-59306D01*
X109428Y-59371D01*
X109407Y-59437D01*
X109389Y-59505D01*
X109376Y-59573D01*
X109366Y-59642D01*
X109360Y-59711D01*
X109358Y-59781D01*
X109358Y-61023D01*
X109048Y-56157D02*
X109179Y-56155D01*
X109309Y-56150D01*
X109439Y-56140D01*
X109569Y-56127D01*
X109699Y-56111D01*
X109828Y-56091D01*
X109956Y-56067D01*
X110083Y-56039D01*
X110210Y-56008D01*
X110336Y-55973D01*
X110461Y-55935D01*
X110585Y-55893D01*
X110707Y-55848D01*
X110828Y-55799D01*
X110948Y-55747D01*
X111066Y-55691D01*
X111066Y-55692D02*
X111126Y-55669D01*
X111186Y-55643D01*
X111243Y-55614D01*
X111299Y-55581D01*
X111353Y-55545D01*
X111405Y-55507D01*
X111455Y-55465D01*
X111502Y-55421D01*
X111547Y-55374D01*
X111589Y-55324D01*
X111628Y-55273D01*
X111664Y-55219D01*
X111697Y-55163D01*
X111727Y-55106D01*
X111754Y-55047D01*
X111777Y-54986D01*
X111797Y-54925D01*
X111813Y-54862D01*
X111826Y-54798D01*
X111835Y-54734D01*
X111840Y-54670D01*
X111842Y-54605D01*
X111840Y-54540D01*
X111835Y-54476D01*
X111826Y-54412D01*
X111813Y-54348D01*
X111797Y-54285D01*
X111777Y-54224D01*
X111754Y-54163D01*
X111727Y-54104D01*
X111697Y-54047D01*
X111664Y-53991D01*
X111628Y-53937D01*
X111589Y-53886D01*
X111547Y-53836D01*
X111502Y-53789D01*
X111455Y-53745D01*
X111405Y-53703D01*
X111353Y-53665D01*
X111299Y-53629D01*
X111243Y-53596D01*
X111186Y-53567D01*
X111126Y-53541D01*
X111066Y-53518D01*
X111066Y-53519D02*
X110948Y-53463D01*
X110828Y-53411D01*
X110707Y-53362D01*
X110585Y-53317D01*
X110461Y-53275D01*
X110336Y-53237D01*
X110210Y-53202D01*
X110084Y-53171D01*
X109956Y-53143D01*
X109828Y-53119D01*
X109699Y-53099D01*
X109569Y-53083D01*
X109439Y-53070D01*
X109309Y-53060D01*
X109179Y-53055D01*
X109048Y-53053D01*
X109048Y-56157D02*
X108917Y-56155D01*
X108787Y-56150D01*
X108657Y-56140D01*
X108527Y-56127D01*
X108397Y-56111D01*
X108269Y-56091D01*
X108140Y-56067D01*
X108013Y-56039D01*
X107886Y-56008D01*
X107760Y-55973D01*
X107635Y-55935D01*
X107512Y-55893D01*
X107389Y-55848D01*
X107268Y-55799D01*
X107148Y-55747D01*
X107030Y-55691D01*
X107030Y-55692D02*
X106970Y-55669D01*
X106910Y-55643D01*
X106853Y-55614D01*
X106797Y-55581D01*
X106743Y-55545D01*
X106691Y-55507D01*
X106641Y-55465D01*
X106594Y-55421D01*
X106549Y-55374D01*
X106507Y-55324D01*
X106468Y-55273D01*
X106432Y-55219D01*
X106399Y-55163D01*
X106369Y-55106D01*
X106342Y-55047D01*
X106319Y-54986D01*
X106299Y-54925D01*
X106283Y-54862D01*
X106270Y-54798D01*
X106261Y-54734D01*
X106256Y-54670D01*
X106254Y-54605D01*
X107030Y-53519D02*
X107148Y-53463D01*
X107268Y-53411D01*
X107389Y-53362D01*
X107511Y-53317D01*
X107635Y-53275D01*
X107760Y-53237D01*
X107886Y-53202D01*
X108012Y-53171D01*
X108140Y-53143D01*
X108268Y-53119D01*
X108397Y-53099D01*
X108527Y-53083D01*
X108657Y-53070D01*
X108787Y-53060D01*
X108917Y-53055D01*
X109048Y-53053D01*
X107030Y-53518D02*
X106970Y-53541D01*
X106910Y-53567D01*
X106853Y-53596D01*
X106797Y-53629D01*
X106743Y-53665D01*
X106691Y-53703D01*
X106641Y-53745D01*
X106594Y-53789D01*
X106549Y-53836D01*
X106507Y-53886D01*
X106468Y-53937D01*
X106432Y-53991D01*
X106399Y-54047D01*
X106369Y-54104D01*
X106342Y-54163D01*
X106319Y-54224D01*
X106299Y-54285D01*
X106283Y-54348D01*
X106270Y-54412D01*
X106261Y-54476D01*
X106256Y-54540D01*
X106254Y-54605D01*
X107496Y-55847D02*
X110600Y-53363D01*
X110600Y-50671D02*
X111842Y-49119D01*
X106254Y-49119D01*
X106254Y-50671D02*
X106254Y-47566D01*
M02*
