G04 EAGLE Gerber RS-274X export*
G75*
%MOMM*%
%FSLAX34Y34*%
%LPD*%
%INSoldermask Bottom*%
%IPPOS*%
%AMOC8*
5,1,8,0,0,1.08239X$1,22.5*%
G01*
%ADD10C,1.300000*%
%ADD11C,1.624000*%
%ADD12C,0.938200*%


D10*
X-212700Y101600D03*
X-212700Y76200D03*
X-187300Y76200D03*
X-187300Y101600D03*
X-212700Y50800D03*
X-187300Y50800D03*
X-187300Y25400D03*
X-212700Y25400D03*
X-212700Y0D03*
X-187300Y0D03*
X-212700Y-25400D03*
X-187300Y-25400D03*
X-187300Y-50800D03*
X-212700Y-50800D03*
X-187300Y-76200D03*
X-212700Y-76200D03*
X-212700Y-101600D03*
X-187300Y-101600D03*
X187300Y101600D03*
X187300Y76200D03*
X212700Y76200D03*
X212700Y101600D03*
X187300Y50800D03*
X212700Y50800D03*
X212700Y25400D03*
X187300Y25400D03*
X187300Y0D03*
X212700Y0D03*
X187300Y-25400D03*
X212700Y-25400D03*
X212700Y-50800D03*
X187300Y-50800D03*
X212700Y-76200D03*
X187300Y-76200D03*
X187300Y-101600D03*
X212700Y-101600D03*
D11*
X50800Y377300D03*
X50800Y402700D03*
X25400Y377300D03*
X25400Y402700D03*
X0Y377300D03*
X0Y402700D03*
X-25400Y377300D03*
X-25400Y402700D03*
X-50800Y377300D03*
X-50800Y402700D03*
X88900Y-72700D03*
X88900Y-47300D03*
X63500Y-72700D03*
X63500Y-47300D03*
X38100Y-72700D03*
X38100Y-47300D03*
X12700Y-72700D03*
X12700Y-47300D03*
X-12700Y-72700D03*
X-12700Y-47300D03*
X-38100Y-72700D03*
X-38100Y-47300D03*
X-63500Y-72700D03*
X-63500Y-47300D03*
X-88900Y-72700D03*
X-88900Y-47300D03*
D12*
X245000Y612500D03*
X232554Y612500D03*
X220108Y612500D03*
X207408Y612500D03*
M02*
