G04 EAGLE Gerber RS-274X export*
G75*
%MOMM*%
%FSLAX34Y34*%
%LPD*%
%INCopper Layer 15*%
%IPPOS*%
%AMOC8*
5,1,8,0,0,1.08239X$1,22.5*%
G01*
%ADD10C,1.650000*%
%ADD11C,0.500000*%
%ADD12C,0.550000*%


D10*
X187300Y-101600D03*
X212700Y-101600D03*
X187300Y-76200D03*
X212700Y-76200D03*
X187300Y-50800D03*
X212700Y-50800D03*
X187300Y-25400D03*
X212700Y-25400D03*
X187300Y0D03*
X212700Y0D03*
X187300Y25400D03*
X212700Y25400D03*
X187300Y50800D03*
X212700Y50800D03*
X187300Y76200D03*
X212700Y76200D03*
X187300Y101600D03*
X212700Y101600D03*
X-212700Y-101600D03*
X-187300Y-101600D03*
X-212700Y-76200D03*
X-187300Y-76200D03*
X-212700Y-50800D03*
X-187300Y-50800D03*
X-212700Y-25400D03*
X-187300Y-25400D03*
X-212700Y0D03*
X-187300Y0D03*
X-212700Y25400D03*
X-187300Y25400D03*
X-212700Y50800D03*
X-187300Y50800D03*
X-212700Y76200D03*
X-187300Y76200D03*
X-212700Y101600D03*
X-187300Y101600D03*
D11*
X125000Y-10000D03*
X135000Y465000D03*
X-502500Y465000D03*
X480000Y465000D03*
X480000Y322700D03*
X480000Y12700D03*
X480000Y-297300D03*
X-502500Y297300D03*
X-502500Y-12700D03*
X-502500Y-322700D03*
X-12700Y145000D03*
X-25000Y-10000D03*
X155000Y-40000D03*
X165000Y435000D03*
X-472500Y435000D03*
X510000Y435000D03*
X510000Y246500D03*
X510000Y-63500D03*
X510000Y-373500D03*
X-472500Y373500D03*
X-472500Y63500D03*
X-472500Y-246500D03*
X76000Y132000D03*
X76000Y-40000D03*
X117500Y-2500D03*
X127500Y472500D03*
X-510000Y472500D03*
X472500Y472500D03*
X472500Y259500D03*
X472500Y-50500D03*
X472500Y-360000D03*
X-510000Y361000D03*
X-510000Y51000D03*
X-510000Y-258500D03*
X63500Y56000D03*
X63500Y-2500D03*
X-270000Y150000D03*
X-270000Y246500D03*
X-270000Y-63500D03*
X-270000Y-373500D03*
X270000Y373500D03*
X270000Y150000D03*
X270000Y63500D03*
X270000Y-246500D03*
X270000Y-50800D03*
X-120000Y50000D03*
X-120000Y175000D03*
X270000Y-382000D03*
X90000Y-382000D03*
X-270000Y51000D03*
X-237000Y306500D03*
X-237000Y-3500D03*
X-237000Y-313500D03*
X237000Y-306500D03*
X245000Y12000D03*
X278000Y314500D03*
X278000Y4500D03*
X278000Y-305500D03*
X-278000Y-314500D03*
X-278000Y-4500D03*
X-275500Y305500D03*
X90000Y-108500D03*
X-400000Y195000D03*
X-400000Y221100D03*
X-400000Y-88900D03*
X-400000Y-398900D03*
X400000Y398900D03*
X400000Y195000D03*
X400000Y88900D03*
X400000Y-221100D03*
X-170000Y220000D03*
X400000Y-140000D03*
X-88900Y145000D03*
X-89000Y220000D03*
X-415000Y180000D03*
X-415000Y246500D03*
X-415000Y-63500D03*
X-415000Y-373500D03*
X415000Y373500D03*
X415000Y180000D03*
X415000Y63500D03*
X415000Y-246500D03*
X-155000Y205000D03*
X415000Y-155000D03*
X-63500Y145000D03*
X-63500Y205000D03*
X237000Y296500D03*
X245000Y288000D03*
X245000Y-22000D03*
X237000Y-13500D03*
X245000Y-332000D03*
X237000Y-323500D03*
X-245000Y-288000D03*
X-237000Y-296500D03*
X-245000Y22000D03*
X-237000Y13500D03*
X-245000Y332000D03*
X-237000Y324000D03*
X284500Y-14500D03*
X284500Y295500D03*
X284500Y-324500D03*
X-284500Y-295500D03*
X-284500Y14500D03*
X-284500Y324500D03*
X-280000Y380000D03*
X-200000Y310000D03*
X-240000Y250000D03*
X-130000Y260000D03*
X-30000Y260000D03*
X70000Y260000D03*
X-30000Y380000D03*
X40000Y380000D03*
X200000Y260000D03*
X200000Y140000D03*
X250000Y80000D03*
X250000Y260000D03*
X280000Y400000D03*
X370000Y540000D03*
X560000Y340000D03*
X560000Y0D03*
X690000Y340000D03*
X690000Y0D03*
X560000Y-310000D03*
X690000Y-310000D03*
X560000Y-490000D03*
X380000Y-490000D03*
X420000Y-270000D03*
X350000Y-120000D03*
X350000Y-180000D03*
X230000Y-490000D03*
X190000Y-430000D03*
X190000Y-330000D03*
X290000Y-390000D03*
X410000Y-430000D03*
X100000Y-310000D03*
X65000Y-90000D03*
X-150000Y-350000D03*
X-150000Y-150000D03*
X-70000Y30000D03*
X-360000Y-155000D03*
X-560000Y-310000D03*
X-550000Y-10000D03*
X-550000Y310000D03*
X-400000Y560000D03*
X160000Y-670000D03*
X80000Y-640000D03*
X90000Y-550000D03*
X105000Y-535000D03*
X-315000Y-50000D03*
X-385000Y-50000D03*
X-385000Y260000D03*
X-315000Y260000D03*
X-315000Y-360000D03*
X-385000Y-360000D03*
X315000Y-260000D03*
X385000Y-260000D03*
X315000Y50000D03*
X385000Y50000D03*
X315000Y360000D03*
X385000Y360000D03*
X-50000Y135000D03*
X-50000Y65000D03*
X210000Y120000D03*
X200000Y115000D03*
X190000Y-120000D03*
X200000Y-120000D03*
X210000Y-120000D03*
X220000Y-120000D03*
X-215000Y-130000D03*
X-235000Y-110000D03*
X-235000Y-95000D03*
X-235000Y-80000D03*
X-235000Y-65000D03*
X-170000Y20000D03*
X-170000Y45000D03*
X-225000Y-120000D03*
X-20000Y-350000D03*
X-10000Y-90000D03*
D12*
X-210000Y130000D03*
D11*
X140000Y-25000D03*
X150000Y450000D03*
X-487500Y450000D03*
X495000Y450000D03*
X495000Y297300D03*
X495000Y-12700D03*
X495000Y-322700D03*
X-487500Y322700D03*
X-487500Y12700D03*
X-487500Y-297300D03*
X25500Y132000D03*
X25500Y-25000D03*
X147500Y-32500D03*
X157500Y442500D03*
X-480000Y442500D03*
X502500Y442500D03*
X502500Y271900D03*
X502500Y-38100D03*
X502500Y-348100D03*
X-480000Y348000D03*
X-480000Y38100D03*
X-480000Y-271900D03*
X51000Y132000D03*
X51000Y-32500D03*
X132500Y-17500D03*
X142500Y457500D03*
X-495000Y457500D03*
X487500Y457500D03*
X487500Y233500D03*
X487500Y-386000D03*
X487500Y-75500D03*
X-495000Y386000D03*
X-495000Y76500D03*
X-495000Y-233500D03*
X89400Y56000D03*
X88900Y-17500D03*
X-300000Y165000D03*
X-300000Y221100D03*
X-300000Y-88900D03*
X-300000Y-398900D03*
X300000Y398900D03*
X300000Y165000D03*
X300000Y88900D03*
X300000Y-221100D03*
X-230000Y190000D03*
X300000Y-76200D03*
X-110000Y68000D03*
X-110000Y190000D03*
X260000Y-420000D03*
X200000Y-200000D03*
X240000Y235000D03*
X260000Y-90000D03*
X450000Y-335500D03*
X450000Y-470000D03*
X450000Y-310000D03*
X-450000Y-284000D03*
X-450000Y-470000D03*
X-450000Y-310000D03*
X-450000Y26000D03*
X-450000Y0D03*
X-450000Y335500D03*
X-450000Y480000D03*
X-450000Y310000D03*
X38000Y12500D03*
X38000Y55500D03*
X38000Y-100000D03*
X0Y68000D03*
X0Y480000D03*
X19500Y-90500D03*
X450000Y310000D03*
X450000Y480000D03*
X450000Y-25500D03*
X450000Y0D03*
X110000Y5000D03*
X120000Y480000D03*
X780000Y240000D03*
X780000Y200000D03*
X780000Y120000D03*
X780000Y160000D03*
X780000Y60000D03*
X780000Y20000D03*
X780000Y-20000D03*
X780000Y-60000D03*
X780000Y-160000D03*
X780000Y-120000D03*
X780000Y-200000D03*
X780000Y-240000D03*
X-780000Y-240000D03*
X-780000Y-200000D03*
X-780000Y-120000D03*
X-780000Y-160000D03*
X-780000Y-60000D03*
X-780000Y-20000D03*
X-780000Y20000D03*
X-780000Y60000D03*
X-780000Y160000D03*
X-780000Y120000D03*
X-780000Y200000D03*
X-780000Y240000D03*
X-235000Y410000D03*
X-255000Y410000D03*
X255000Y410000D03*
X235000Y410000D03*
X132500Y-70000D03*
X-66500Y-70000D03*
X147500Y-55000D03*
X-51480Y-55000D03*
X140000Y-62500D03*
X-89000Y-62500D03*
X155000Y-47500D03*
X-81500Y-47500D03*
X-15500Y-109500D03*
X-13000Y55500D03*
X200000Y420020D03*
X450000Y284500D03*
M02*
