M48
;GenerationSoftware,Autodesk,EAGLE,9.6.2*%
;CreationDate,2023-07-04T13:54:21Z*%
FMAT,2
ICI,OFF
METRIC,TZ,000.000
T5C0.300
T4C0.350
T3C1.100
T2C3.200
T1C5.000
%
G90
M71
T1
X-52023Y-59721
X53500Y60000
X-53500Y60000
X52023Y-59721
T2
X20000Y-25000
X-20000Y-25000
X40000Y65000
X-57680Y-54064
X59157Y54343
X-59157Y54343
X57680Y-54064
X-40000Y65000
T3
X-3810Y11270
X-58730Y-18000
X-18730Y10160
X58730Y44000
X61270Y44000
X58730Y41460
X61270Y41460
X61270Y18000
X58730Y18000
X61270Y20540
X58730Y20540
X58730Y13000
X61270Y13000
X58730Y10460
X61270Y10460
X61270Y-13000
X58730Y-13000
X61270Y-10460
X58730Y-10460
X58730Y-18000
X61270Y-18000
X58730Y-20540
X61270Y-20540
X61270Y-44000
X58730Y-44000
X61270Y-41460
X58730Y-41460
X-58730Y-44000
X-61270Y-44000
X-58730Y-41460
X-61270Y-41460
X-61270Y-18000
X-61270Y-20540
X-58730Y-20540
X-58730Y-13000
X-61270Y-13000
X-58730Y-10460
X-61270Y-10460
X-61270Y13000
X-58730Y13000
X-61270Y10460
X-58730Y10460
X-58730Y18000
X-61270Y18000
X-58730Y20540
X-61270Y20540
X-61270Y44000
X-58730Y44000
X-61270Y41460
X-58730Y41460
X-13000Y33730
X-13000Y36270
X-10460Y33730
X-10460Y36270
X13000Y36270
X13000Y33730
X10460Y36270
X10460Y33730
X33730Y-22110
X33730Y-24650
X36270Y-24650
X36270Y-22110
X33730Y-27190
X36270Y-27190
X33730Y-29730
X36270Y-29730
X36270Y-32270
X33730Y-32270
X33730Y-34810
X36270Y-34810
X36270Y-37350
X33730Y-37350
X33730Y-39890
X36270Y-39890
X-33730Y-39890
X-33730Y-37350
X-36270Y-37350
X-36270Y-39890
X-33730Y-34810
X-36270Y-34810
X-33730Y-32270
X-36270Y-32270
X-36270Y-29730
X-33730Y-29730
X-33730Y-27190
X-36270Y-27190
X-36270Y-24650
X-33730Y-24650
X-33730Y-22110
X-36270Y-22110
X-33730Y-8890
X-33730Y-6350
X-36270Y-6350
X-36270Y-8890
X-33730Y-3810
X-36270Y-3810
X-33730Y-1270
X-36270Y-1270
X-36270Y1270
X-33730Y1270
X-33730Y3810
X-36270Y3810
X-36270Y6350
X-33730Y6350
X-33730Y8890
X-36270Y8890
X-33730Y22110
X-33730Y24650
X-36270Y24650
X-36270Y22110
X-33730Y27190
X-36270Y27190
X-33730Y29730
X-36270Y29730
X-36270Y32270
X-33730Y32270
X-33730Y34810
X-36270Y34810
X-36270Y37350
X-33730Y37350
X-33730Y39890
X-36270Y39890
X33730Y39890
X33730Y37350
X36270Y37350
X36270Y39890
X33730Y34810
X36270Y34810
X33730Y32270
X36270Y32270
X36270Y29730
X33730Y29730
X33730Y27190
X36270Y27190
X36270Y24650
X33730Y24650
X33730Y22110
X36270Y22110
X33730Y8890
X33730Y6350
X36270Y6350
X36270Y8890
X33730Y3810
X36270Y3810
X33730Y1270
X36270Y1270
X36270Y-1270
X33730Y-1270
X33730Y-3810
X36270Y-3810
X36270Y-6350
X33730Y-6350
X33730Y-8890
X36270Y-8890
X-8890Y8730
X-6350Y8730
X-6350Y11270
X-8890Y11270
X-3810Y8730
X-1270Y8730
X-1270Y11270
X1270Y11270
X1270Y8730
X3810Y8730
X3810Y11270
X6350Y11270
X6350Y8730
X8890Y8730
X8890Y11270
X8890Y-51270
X6350Y-51270
X6350Y-48730
X8890Y-48730
X3810Y-51270
X3810Y-48730
X1270Y-51270
X1270Y-48730
X-1270Y-48730
X-1270Y-51270
X-3810Y-51270
X-3810Y-48730
X-6350Y-48730
X-6350Y-51270
X-8890Y-51270
X-8890Y-48730
X2540Y-71730
X0Y-71730
X2540Y-74270
X0Y-74270
X18730Y-10160
X21270Y-10160
X18730Y-7620
X21270Y-7620
X18730Y-5080
X21270Y-5080
X18730Y-2540
X21270Y-2540
X18730Y0
X21270Y0
X18730Y2540
X21270Y2540
X18730Y5080
X21270Y5080
X18730Y7620
X21270Y7620
X18730Y10160
X21270Y10160
X-21270Y-10160
X-18730Y-10160
X-21270Y-7620
X-18730Y-7620
X-21270Y-5080
X-18730Y-5080
X-21270Y-2540
X-18730Y-2540
X-21270Y0
X-18730Y0
X-21270Y2540
X-18730Y2540
X-21270Y5080
X-18730Y5080
X-21270Y7620
X-18730Y7620
X-21270Y10160
T4
X-21000Y13000
T5
X-45000Y2600
X-45000Y0
X-45000Y33550
X-45000Y48000
X-45000Y31000
X3800Y1250
X3800Y5550
X3800Y-10000
X0Y6800
X0Y48000
X1950Y-9050
X45000Y31000
X45000Y48000
X45000Y-2550
X45000Y0
X11000Y500
X12000Y48000
X78000Y24000
X78000Y20000
X78000Y12000
X78000Y16000
X78000Y6000
X78000Y2000
X78000Y-2000
X78000Y-6000
X78000Y-16000
X78000Y-12000
X78000Y-20000
X40000Y39890
X-78000Y-24000
X-78000Y-20000
X-78000Y-12000
X-78000Y-16000
X-78000Y-6000
X-78000Y-2000
X-78000Y2000
X-78000Y6000
X-78000Y16000
X-78000Y12000
X-78000Y20000
X-78000Y24000
X-23500Y41000
X-25500Y41000
X25500Y41000
X23500Y41000
X13250Y-7000
X-6650Y-7000
X14750Y-5500
X-5148Y-5500
X14000Y-6250
X-8900Y-6250
X15500Y-4750
X-8150Y-4750
X-1550Y-10950
X-1300Y5550
X20000Y42002
X45000Y28450
X12500Y-1000
X13500Y46500
X-50250Y46500
X48000Y46500
X48000Y32270
X48000Y1270
X48000Y-29730
X-50250Y29730
X-50250Y-1270
X-50250Y-32270
X-1270Y14500
X-2500Y-1000
X15500Y-4000
X16500Y43500
X-47250Y43500
X51000Y43500
X51000Y24650
X51000Y-6350
X51000Y-37350
X-47250Y37350
X-47250Y6350
X-47250Y-24650
X7600Y13200
X7600Y-4000
X11750Y-250
X12750Y47250
X-51000Y47250
X47250Y47250
X47250Y25950
X47250Y-5050
X47250Y-36000
X-51000Y36100
X-51000Y5100
X-51000Y-25850
X6350Y5600
X6350Y-250
X-27000Y15000
X78000Y-24000
X-27000Y24650
X-27000Y-6350
X-27000Y-37350
X27000Y37350
X27000Y15000
X27000Y6350
X27000Y-24650
X27000Y-5080
X-12000Y5000
X-12000Y17500
X27000Y-38200
X9000Y-38200
X-27000Y5100
X-23700Y30650
X-23700Y-350
X-23700Y-31350
X23700Y-30650
X24500Y1200
X27800Y31450
X27800Y450
X27800Y-30550
X-27800Y-31450
X-27800Y-450
X-27550Y30550
X9000Y-10850
X-40000Y19500
X-40000Y22110
X-40000Y-8890
X-40000Y-39890
X40000Y19500
X40000Y8890
X40000Y-22110
X-17000Y22000
X40000Y-14000
X-8890Y14500
X-8900Y22000
X-41500Y18000
X-41500Y24650
X-41500Y-6350
X-41500Y-37350
X41500Y37350
X41500Y18000
X41500Y6350
X41500Y-24650
X-15500Y20500
X41500Y-15500
X-6350Y14500
X-6350Y20500
X23700Y29650
X24500Y28800
X24500Y-2200
X23700Y-1350
X24500Y-33200
X23700Y-32350
X-24500Y-28800
X-23700Y-29650
X-24500Y2200
X-23700Y1350
X-24500Y33200
X-23700Y32400
X28450Y-1450
X28450Y29550
X28450Y-32450
X-28450Y-29550
X-28450Y1450
X-28450Y32450
X-28000Y38000
X-20000Y31000
X-24000Y25000
X-13000Y26000
X-3000Y26000
X7000Y26000
X-3000Y38000
X4000Y38000
X20000Y26000
X20000Y14000
X25000Y8000
X25000Y26000
X28000Y40000
X37000Y54000
X56000Y34000
X56000Y0
X69000Y34000
X69000Y0
X56000Y-31000
X69000Y-31000
X56000Y-49000
X38000Y-49000
X42000Y-27000
X35000Y-12000
X35000Y-18000
X23000Y-49000
X19000Y-43000
X19000Y-33000
X29000Y-39000
X41000Y-43000
X10000Y-31000
X6500Y-9000
X-15000Y-35000
X-15000Y-15000
X-7000Y3000
X-36000Y-15500
X-56000Y-31000
X-55000Y-1000
X-55000Y31000
X-40000Y56000
X16000Y-67000
X8000Y-64000
X9000Y-55000
X10500Y-53500
X-31500Y-5000
X-38500Y-5000
X-38500Y26000
X-31500Y26000
X-31500Y-36000
X-38500Y-36000
X31500Y-26000
X38500Y-26000
X31500Y5000
X38500Y5000
X31500Y36000
X38500Y36000
X-5000Y13500
X-5000Y6500
X21000Y12000
X20000Y11500
X19000Y-12000
X20000Y-12000
X21000Y-12000
X22000Y-12000
X-21500Y-13000
X-48000Y3810
X-23500Y-11000
X-23500Y-9500
X-23500Y-8000
X-23500Y-6500
X-17000Y2000
X-17000Y4500
X-22500Y-12000
X-2000Y-35000
X-1000Y-9000
X14000Y-2500
X15000Y45000
X-48750Y45000
X49500Y45000
X49500Y29730
X49500Y-1270
X49500Y-32270
X-48750Y32270
X-48750Y1270
X-48750Y-29730
X2550Y13200
X2550Y-2500
X14750Y-3250
X15750Y44250
X-48000Y44250
X50250Y44250
X50250Y27190
X50250Y-3810
X50250Y-34810
X-48000Y34800
X-48000Y-27190
X5100Y13200
X5100Y-3250
X13250Y-1750
X14250Y45750
X-49500Y45750
X48750Y45750
X48750Y23350
X48750Y-38600
X48750Y-7550
X-49500Y38600
X-49500Y7650
X-49500Y-23350
X8940Y5600
X8890Y-1750
X-30000Y16500
X-30000Y22110
X-30000Y-8890
X-30000Y-39890
X30000Y39890
X30000Y16500
X30000Y8890
X30000Y-22110
X-23000Y19000
X30000Y-7620
X-11000Y6800
X-11000Y19000
X26000Y-42000
X20000Y-20000
X24000Y23500
X26000Y-9000
X45000Y-33550
X45000Y-47000
X45000Y-31000
X-45000Y-28400
X-45000Y-47000
X-45000Y-31000
M30