G04 EAGLE Gerber RS-274X export*
G75*
%MOMM*%
%FSLAX34Y34*%
%LPD*%
%INSilkscreen Top*%
%IPPOS*%
%AMOC8*
5,1,8,0,0,1.08239X$1,22.5*%
G01*
%ADD10C,0.127000*%
%ADD11C,0.100000*%
%ADD12C,0.101600*%
%ADD13C,0.200000*%

G36*
X89016Y-453989D02*
X89016Y-453989D01*
X89095Y-453990D01*
X89115Y-453982D01*
X89136Y-453980D01*
X89206Y-453944D01*
X89279Y-453914D01*
X89296Y-453898D01*
X89313Y-453889D01*
X89341Y-453855D01*
X89399Y-453800D01*
X92399Y-449800D01*
X92429Y-449737D01*
X92466Y-449680D01*
X92471Y-449648D01*
X92485Y-449620D01*
X92488Y-449551D01*
X92499Y-449483D01*
X92492Y-449453D01*
X92493Y-449421D01*
X92469Y-449357D01*
X92453Y-449290D01*
X92434Y-449265D01*
X92423Y-449235D01*
X92376Y-449185D01*
X92335Y-449130D01*
X92308Y-449114D01*
X92286Y-449091D01*
X92223Y-449063D01*
X92164Y-449028D01*
X92129Y-449023D01*
X92104Y-449012D01*
X92062Y-449011D01*
X92000Y-449001D01*
X86000Y-449001D01*
X85933Y-449014D01*
X85864Y-449020D01*
X85836Y-449034D01*
X85805Y-449040D01*
X85748Y-449079D01*
X85687Y-449111D01*
X85667Y-449135D01*
X85641Y-449153D01*
X85604Y-449211D01*
X85560Y-449264D01*
X85551Y-449294D01*
X85534Y-449320D01*
X85523Y-449388D01*
X85503Y-449454D01*
X85506Y-449485D01*
X85501Y-449517D01*
X85517Y-449583D01*
X85524Y-449652D01*
X85541Y-449684D01*
X85547Y-449710D01*
X85572Y-449743D01*
X85601Y-449800D01*
X88601Y-453800D01*
X88660Y-453852D01*
X88714Y-453909D01*
X88733Y-453918D01*
X88749Y-453932D01*
X88824Y-453957D01*
X88896Y-453988D01*
X88917Y-453989D01*
X88938Y-453995D01*
X89016Y-453989D01*
G37*
D10*
X114935Y505715D02*
X114935Y494285D01*
X111125Y500635D01*
X107315Y494285D01*
X107315Y505715D01*
X101854Y503175D02*
X101854Y500635D01*
X101852Y500535D01*
X101846Y500436D01*
X101836Y500336D01*
X101823Y500238D01*
X101805Y500139D01*
X101784Y500042D01*
X101759Y499946D01*
X101730Y499850D01*
X101697Y499756D01*
X101661Y499663D01*
X101621Y499572D01*
X101577Y499482D01*
X101530Y499394D01*
X101480Y499308D01*
X101426Y499224D01*
X101369Y499142D01*
X101309Y499063D01*
X101245Y498985D01*
X101179Y498911D01*
X101110Y498839D01*
X101038Y498770D01*
X100964Y498704D01*
X100886Y498640D01*
X100807Y498580D01*
X100725Y498523D01*
X100641Y498469D01*
X100555Y498419D01*
X100467Y498372D01*
X100377Y498328D01*
X100286Y498288D01*
X100193Y498252D01*
X100099Y498219D01*
X100003Y498190D01*
X99907Y498165D01*
X99810Y498144D01*
X99711Y498126D01*
X99613Y498113D01*
X99513Y498103D01*
X99414Y498097D01*
X99314Y498095D01*
X99214Y498097D01*
X99115Y498103D01*
X99015Y498113D01*
X98917Y498126D01*
X98818Y498144D01*
X98721Y498165D01*
X98625Y498190D01*
X98529Y498219D01*
X98435Y498252D01*
X98342Y498288D01*
X98251Y498328D01*
X98161Y498372D01*
X98073Y498419D01*
X97987Y498469D01*
X97903Y498523D01*
X97821Y498580D01*
X97742Y498640D01*
X97664Y498704D01*
X97590Y498770D01*
X97518Y498839D01*
X97449Y498911D01*
X97383Y498985D01*
X97319Y499063D01*
X97259Y499142D01*
X97202Y499224D01*
X97148Y499308D01*
X97098Y499394D01*
X97051Y499482D01*
X97007Y499572D01*
X96967Y499663D01*
X96931Y499756D01*
X96898Y499850D01*
X96869Y499946D01*
X96844Y500042D01*
X96823Y500139D01*
X96805Y500238D01*
X96792Y500336D01*
X96782Y500436D01*
X96776Y500535D01*
X96774Y500635D01*
X96774Y503175D01*
X96776Y503275D01*
X96782Y503374D01*
X96792Y503474D01*
X96805Y503572D01*
X96823Y503671D01*
X96844Y503768D01*
X96869Y503864D01*
X96898Y503960D01*
X96931Y504054D01*
X96967Y504147D01*
X97007Y504238D01*
X97051Y504328D01*
X97098Y504416D01*
X97148Y504502D01*
X97202Y504586D01*
X97259Y504668D01*
X97319Y504747D01*
X97383Y504825D01*
X97449Y504899D01*
X97518Y504971D01*
X97590Y505040D01*
X97664Y505106D01*
X97742Y505170D01*
X97821Y505230D01*
X97903Y505287D01*
X97987Y505341D01*
X98073Y505391D01*
X98161Y505438D01*
X98251Y505482D01*
X98342Y505522D01*
X98435Y505558D01*
X98529Y505591D01*
X98625Y505620D01*
X98721Y505645D01*
X98818Y505666D01*
X98917Y505684D01*
X99015Y505697D01*
X99115Y505707D01*
X99214Y505713D01*
X99314Y505715D01*
X99414Y505713D01*
X99513Y505707D01*
X99613Y505697D01*
X99711Y505684D01*
X99810Y505666D01*
X99907Y505645D01*
X100003Y505620D01*
X100099Y505591D01*
X100193Y505558D01*
X100286Y505522D01*
X100377Y505482D01*
X100467Y505438D01*
X100555Y505391D01*
X100641Y505341D01*
X100725Y505287D01*
X100807Y505230D01*
X100886Y505170D01*
X100964Y505106D01*
X101038Y505040D01*
X101110Y504971D01*
X101179Y504899D01*
X101245Y504825D01*
X101309Y504747D01*
X101369Y504668D01*
X101426Y504586D01*
X101480Y504502D01*
X101530Y504416D01*
X101577Y504328D01*
X101621Y504238D01*
X101661Y504147D01*
X101697Y504054D01*
X101730Y503960D01*
X101759Y503864D01*
X101784Y503768D01*
X101805Y503671D01*
X101823Y503572D01*
X101836Y503474D01*
X101846Y503374D01*
X101852Y503275D01*
X101854Y503175D01*
X86934Y505715D02*
X86934Y494285D01*
X86934Y505715D02*
X90109Y505715D01*
X90194Y505713D01*
X90280Y505707D01*
X90365Y505698D01*
X90449Y505684D01*
X90533Y505667D01*
X90616Y505646D01*
X90698Y505622D01*
X90778Y505594D01*
X90858Y505562D01*
X90936Y505526D01*
X91012Y505488D01*
X91086Y505445D01*
X91158Y505400D01*
X91229Y505351D01*
X91297Y505299D01*
X91362Y505245D01*
X91425Y505187D01*
X91486Y505126D01*
X91544Y505063D01*
X91598Y504998D01*
X91650Y504930D01*
X91699Y504859D01*
X91744Y504787D01*
X91787Y504713D01*
X91825Y504637D01*
X91861Y504559D01*
X91893Y504479D01*
X91921Y504399D01*
X91945Y504317D01*
X91966Y504234D01*
X91983Y504150D01*
X91997Y504066D01*
X92006Y503981D01*
X92012Y503895D01*
X92014Y503810D01*
X92014Y500000D01*
X92012Y499915D01*
X92006Y499829D01*
X91997Y499744D01*
X91983Y499660D01*
X91966Y499576D01*
X91945Y499493D01*
X91921Y499411D01*
X91893Y499331D01*
X91861Y499251D01*
X91825Y499173D01*
X91787Y499097D01*
X91744Y499023D01*
X91699Y498951D01*
X91650Y498880D01*
X91598Y498812D01*
X91544Y498747D01*
X91486Y498684D01*
X91425Y498623D01*
X91362Y498565D01*
X91297Y498511D01*
X91229Y498459D01*
X91158Y498410D01*
X91086Y498365D01*
X91012Y498322D01*
X90936Y498284D01*
X90858Y498248D01*
X90778Y498216D01*
X90698Y498188D01*
X90616Y498164D01*
X90533Y498143D01*
X90449Y498126D01*
X90365Y498112D01*
X90280Y498103D01*
X90194Y498097D01*
X90109Y498095D01*
X86934Y498095D01*
X81280Y498095D02*
X81280Y503810D01*
X81278Y503895D01*
X81272Y503981D01*
X81263Y504066D01*
X81249Y504150D01*
X81232Y504234D01*
X81211Y504317D01*
X81187Y504399D01*
X81159Y504479D01*
X81127Y504559D01*
X81091Y504637D01*
X81053Y504713D01*
X81010Y504787D01*
X80965Y504859D01*
X80916Y504930D01*
X80864Y504998D01*
X80810Y505063D01*
X80752Y505126D01*
X80691Y505187D01*
X80628Y505245D01*
X80563Y505299D01*
X80495Y505351D01*
X80424Y505400D01*
X80352Y505445D01*
X80278Y505488D01*
X80202Y505526D01*
X80124Y505562D01*
X80044Y505594D01*
X79964Y505622D01*
X79882Y505646D01*
X79799Y505667D01*
X79715Y505684D01*
X79631Y505698D01*
X79546Y505707D01*
X79460Y505713D01*
X79375Y505715D01*
X76200Y505715D01*
X76200Y498095D01*
X70872Y494285D02*
X70872Y503810D01*
X70870Y503895D01*
X70864Y503981D01*
X70855Y504066D01*
X70841Y504150D01*
X70824Y504234D01*
X70803Y504317D01*
X70779Y504399D01*
X70751Y504479D01*
X70719Y504559D01*
X70683Y504637D01*
X70645Y504713D01*
X70602Y504787D01*
X70557Y504859D01*
X70508Y504930D01*
X70456Y504998D01*
X70402Y505063D01*
X70344Y505126D01*
X70283Y505187D01*
X70220Y505245D01*
X70155Y505299D01*
X70087Y505351D01*
X70016Y505400D01*
X69944Y505445D01*
X69870Y505488D01*
X69794Y505526D01*
X69716Y505562D01*
X69636Y505594D01*
X69556Y505622D01*
X69474Y505646D01*
X69391Y505667D01*
X69307Y505684D01*
X69223Y505698D01*
X69138Y505707D01*
X69052Y505713D01*
X68967Y505715D01*
X62992Y505715D02*
X59817Y505715D01*
X62992Y505715D02*
X63077Y505713D01*
X63163Y505707D01*
X63248Y505698D01*
X63332Y505684D01*
X63416Y505667D01*
X63499Y505646D01*
X63581Y505622D01*
X63661Y505594D01*
X63741Y505562D01*
X63819Y505526D01*
X63895Y505488D01*
X63969Y505445D01*
X64041Y505400D01*
X64112Y505351D01*
X64180Y505299D01*
X64245Y505245D01*
X64308Y505187D01*
X64369Y505126D01*
X64427Y505063D01*
X64481Y504998D01*
X64533Y504930D01*
X64582Y504859D01*
X64627Y504787D01*
X64670Y504713D01*
X64708Y504637D01*
X64744Y504559D01*
X64776Y504479D01*
X64804Y504399D01*
X64828Y504317D01*
X64849Y504234D01*
X64866Y504150D01*
X64880Y504066D01*
X64889Y503981D01*
X64895Y503895D01*
X64897Y503810D01*
X64897Y500635D01*
X64895Y500535D01*
X64889Y500436D01*
X64879Y500336D01*
X64866Y500238D01*
X64848Y500139D01*
X64827Y500042D01*
X64802Y499946D01*
X64773Y499850D01*
X64740Y499756D01*
X64704Y499663D01*
X64664Y499572D01*
X64620Y499482D01*
X64573Y499394D01*
X64523Y499308D01*
X64469Y499224D01*
X64412Y499142D01*
X64352Y499063D01*
X64288Y498985D01*
X64222Y498911D01*
X64153Y498839D01*
X64081Y498770D01*
X64007Y498704D01*
X63929Y498640D01*
X63850Y498580D01*
X63768Y498523D01*
X63684Y498469D01*
X63598Y498419D01*
X63510Y498372D01*
X63420Y498328D01*
X63329Y498288D01*
X63236Y498252D01*
X63142Y498219D01*
X63046Y498190D01*
X62950Y498165D01*
X62853Y498144D01*
X62754Y498126D01*
X62656Y498113D01*
X62556Y498103D01*
X62457Y498097D01*
X62357Y498095D01*
X62257Y498097D01*
X62158Y498103D01*
X62058Y498113D01*
X61960Y498126D01*
X61861Y498144D01*
X61764Y498165D01*
X61668Y498190D01*
X61572Y498219D01*
X61478Y498252D01*
X61385Y498288D01*
X61294Y498328D01*
X61204Y498372D01*
X61116Y498419D01*
X61030Y498469D01*
X60946Y498523D01*
X60864Y498580D01*
X60785Y498640D01*
X60707Y498704D01*
X60633Y498770D01*
X60561Y498839D01*
X60492Y498911D01*
X60426Y498985D01*
X60362Y499063D01*
X60302Y499142D01*
X60245Y499224D01*
X60191Y499308D01*
X60141Y499394D01*
X60094Y499482D01*
X60050Y499572D01*
X60010Y499663D01*
X59974Y499756D01*
X59941Y499850D01*
X59912Y499946D01*
X59887Y500042D01*
X59866Y500139D01*
X59848Y500238D01*
X59835Y500336D01*
X59825Y500436D01*
X59819Y500535D01*
X59817Y500635D01*
X59817Y501905D01*
X64897Y501905D01*
X46265Y505715D02*
X43725Y505715D01*
X46265Y505715D02*
X46365Y505713D01*
X46464Y505707D01*
X46564Y505697D01*
X46662Y505684D01*
X46761Y505666D01*
X46858Y505645D01*
X46954Y505620D01*
X47050Y505591D01*
X47144Y505558D01*
X47237Y505522D01*
X47328Y505482D01*
X47418Y505438D01*
X47506Y505391D01*
X47592Y505341D01*
X47676Y505287D01*
X47758Y505230D01*
X47837Y505170D01*
X47915Y505106D01*
X47989Y505040D01*
X48061Y504971D01*
X48130Y504899D01*
X48196Y504825D01*
X48260Y504747D01*
X48320Y504668D01*
X48377Y504586D01*
X48431Y504502D01*
X48481Y504416D01*
X48528Y504328D01*
X48572Y504238D01*
X48612Y504147D01*
X48648Y504054D01*
X48681Y503960D01*
X48710Y503864D01*
X48735Y503768D01*
X48756Y503671D01*
X48774Y503572D01*
X48787Y503474D01*
X48797Y503374D01*
X48803Y503275D01*
X48805Y503175D01*
X48805Y496825D01*
X48803Y496725D01*
X48797Y496626D01*
X48787Y496526D01*
X48774Y496428D01*
X48756Y496329D01*
X48735Y496232D01*
X48710Y496136D01*
X48681Y496040D01*
X48648Y495946D01*
X48612Y495853D01*
X48572Y495762D01*
X48528Y495672D01*
X48481Y495584D01*
X48431Y495498D01*
X48377Y495414D01*
X48320Y495332D01*
X48260Y495253D01*
X48196Y495175D01*
X48130Y495101D01*
X48061Y495029D01*
X47989Y494960D01*
X47915Y494894D01*
X47837Y494830D01*
X47758Y494770D01*
X47676Y494713D01*
X47592Y494659D01*
X47506Y494609D01*
X47418Y494562D01*
X47328Y494518D01*
X47237Y494478D01*
X47144Y494442D01*
X47050Y494409D01*
X46954Y494380D01*
X46858Y494355D01*
X46761Y494334D01*
X46662Y494316D01*
X46564Y494303D01*
X46464Y494293D01*
X46365Y494287D01*
X46265Y494285D01*
X43725Y494285D01*
X39370Y500635D02*
X39370Y503175D01*
X39370Y500635D02*
X39368Y500535D01*
X39362Y500436D01*
X39352Y500336D01*
X39339Y500238D01*
X39321Y500139D01*
X39300Y500042D01*
X39275Y499946D01*
X39246Y499850D01*
X39213Y499756D01*
X39177Y499663D01*
X39137Y499572D01*
X39093Y499482D01*
X39046Y499394D01*
X38996Y499308D01*
X38942Y499224D01*
X38885Y499142D01*
X38825Y499063D01*
X38761Y498985D01*
X38695Y498911D01*
X38626Y498839D01*
X38554Y498770D01*
X38480Y498704D01*
X38402Y498640D01*
X38323Y498580D01*
X38241Y498523D01*
X38157Y498469D01*
X38071Y498419D01*
X37983Y498372D01*
X37893Y498328D01*
X37802Y498288D01*
X37709Y498252D01*
X37615Y498219D01*
X37519Y498190D01*
X37423Y498165D01*
X37326Y498144D01*
X37227Y498126D01*
X37129Y498113D01*
X37029Y498103D01*
X36930Y498097D01*
X36830Y498095D01*
X36730Y498097D01*
X36631Y498103D01*
X36531Y498113D01*
X36433Y498126D01*
X36334Y498144D01*
X36237Y498165D01*
X36141Y498190D01*
X36045Y498219D01*
X35951Y498252D01*
X35858Y498288D01*
X35767Y498328D01*
X35677Y498372D01*
X35589Y498419D01*
X35503Y498469D01*
X35419Y498523D01*
X35337Y498580D01*
X35258Y498640D01*
X35180Y498704D01*
X35106Y498770D01*
X35034Y498839D01*
X34965Y498911D01*
X34899Y498985D01*
X34835Y499063D01*
X34775Y499142D01*
X34718Y499224D01*
X34664Y499308D01*
X34614Y499394D01*
X34567Y499482D01*
X34523Y499572D01*
X34483Y499663D01*
X34447Y499756D01*
X34414Y499850D01*
X34385Y499946D01*
X34360Y500042D01*
X34339Y500139D01*
X34321Y500238D01*
X34308Y500336D01*
X34298Y500436D01*
X34292Y500535D01*
X34290Y500635D01*
X34290Y503175D01*
X34292Y503275D01*
X34298Y503374D01*
X34308Y503474D01*
X34321Y503572D01*
X34339Y503671D01*
X34360Y503768D01*
X34385Y503864D01*
X34414Y503960D01*
X34447Y504054D01*
X34483Y504147D01*
X34523Y504238D01*
X34567Y504328D01*
X34614Y504416D01*
X34664Y504502D01*
X34718Y504586D01*
X34775Y504668D01*
X34835Y504747D01*
X34899Y504825D01*
X34965Y504899D01*
X35034Y504971D01*
X35106Y505040D01*
X35180Y505106D01*
X35258Y505170D01*
X35337Y505230D01*
X35419Y505287D01*
X35503Y505341D01*
X35589Y505391D01*
X35677Y505438D01*
X35767Y505482D01*
X35858Y505522D01*
X35951Y505558D01*
X36045Y505591D01*
X36141Y505620D01*
X36237Y505645D01*
X36334Y505666D01*
X36433Y505684D01*
X36531Y505697D01*
X36631Y505707D01*
X36730Y505713D01*
X36830Y505715D01*
X36930Y505713D01*
X37029Y505707D01*
X37129Y505697D01*
X37227Y505684D01*
X37326Y505666D01*
X37423Y505645D01*
X37519Y505620D01*
X37615Y505591D01*
X37709Y505558D01*
X37802Y505522D01*
X37893Y505482D01*
X37983Y505438D01*
X38071Y505391D01*
X38157Y505341D01*
X38241Y505287D01*
X38323Y505230D01*
X38402Y505170D01*
X38480Y505106D01*
X38554Y505040D01*
X38626Y504971D01*
X38695Y504899D01*
X38761Y504825D01*
X38825Y504747D01*
X38885Y504668D01*
X38942Y504586D01*
X38996Y504502D01*
X39046Y504416D01*
X39093Y504328D01*
X39137Y504238D01*
X39177Y504147D01*
X39213Y504054D01*
X39246Y503960D01*
X39275Y503864D01*
X39300Y503768D01*
X39321Y503671D01*
X39339Y503572D01*
X39352Y503474D01*
X39362Y503374D01*
X39368Y503275D01*
X39370Y503175D01*
X29083Y505715D02*
X29083Y498095D01*
X25908Y498095D01*
X25823Y498097D01*
X25737Y498103D01*
X25652Y498112D01*
X25568Y498126D01*
X25484Y498143D01*
X25401Y498164D01*
X25319Y498188D01*
X25239Y498216D01*
X25159Y498248D01*
X25081Y498284D01*
X25005Y498322D01*
X24931Y498365D01*
X24859Y498410D01*
X24788Y498459D01*
X24720Y498511D01*
X24655Y498565D01*
X24592Y498623D01*
X24531Y498684D01*
X24473Y498747D01*
X24419Y498812D01*
X24367Y498880D01*
X24318Y498951D01*
X24273Y499023D01*
X24230Y499097D01*
X24192Y499173D01*
X24156Y499251D01*
X24124Y499331D01*
X24096Y499411D01*
X24072Y499493D01*
X24051Y499576D01*
X24034Y499660D01*
X24020Y499744D01*
X24011Y499829D01*
X24005Y499915D01*
X24003Y500000D01*
X24003Y505715D01*
X18415Y505715D02*
X18415Y498095D01*
X15240Y498095D01*
X15155Y498097D01*
X15069Y498103D01*
X14984Y498112D01*
X14900Y498126D01*
X14816Y498143D01*
X14733Y498164D01*
X14651Y498188D01*
X14571Y498216D01*
X14491Y498248D01*
X14413Y498284D01*
X14337Y498322D01*
X14263Y498365D01*
X14191Y498410D01*
X14120Y498459D01*
X14052Y498511D01*
X13987Y498565D01*
X13924Y498623D01*
X13863Y498684D01*
X13805Y498747D01*
X13751Y498812D01*
X13699Y498880D01*
X13650Y498951D01*
X13605Y499023D01*
X13562Y499097D01*
X13524Y499173D01*
X13488Y499251D01*
X13456Y499331D01*
X13428Y499411D01*
X13404Y499493D01*
X13383Y499576D01*
X13366Y499660D01*
X13352Y499744D01*
X13343Y499829D01*
X13337Y499915D01*
X13335Y500000D01*
X13335Y505715D01*
X6223Y505715D02*
X3048Y505715D01*
X6223Y505715D02*
X6308Y505713D01*
X6394Y505707D01*
X6479Y505698D01*
X6563Y505684D01*
X6647Y505667D01*
X6730Y505646D01*
X6812Y505622D01*
X6892Y505594D01*
X6972Y505562D01*
X7050Y505526D01*
X7126Y505488D01*
X7200Y505445D01*
X7272Y505400D01*
X7343Y505351D01*
X7411Y505299D01*
X7476Y505245D01*
X7539Y505187D01*
X7600Y505126D01*
X7658Y505063D01*
X7712Y504998D01*
X7764Y504930D01*
X7813Y504859D01*
X7858Y504787D01*
X7901Y504713D01*
X7939Y504637D01*
X7975Y504559D01*
X8007Y504479D01*
X8035Y504399D01*
X8059Y504317D01*
X8080Y504234D01*
X8097Y504150D01*
X8111Y504066D01*
X8120Y503981D01*
X8126Y503895D01*
X8128Y503810D01*
X8128Y500635D01*
X8126Y500535D01*
X8120Y500436D01*
X8110Y500336D01*
X8097Y500238D01*
X8079Y500139D01*
X8058Y500042D01*
X8033Y499946D01*
X8004Y499850D01*
X7971Y499756D01*
X7935Y499663D01*
X7895Y499572D01*
X7851Y499482D01*
X7804Y499394D01*
X7754Y499308D01*
X7700Y499224D01*
X7643Y499142D01*
X7583Y499063D01*
X7519Y498985D01*
X7453Y498911D01*
X7384Y498839D01*
X7312Y498770D01*
X7238Y498704D01*
X7160Y498640D01*
X7081Y498580D01*
X6999Y498523D01*
X6915Y498469D01*
X6829Y498419D01*
X6741Y498372D01*
X6651Y498328D01*
X6560Y498288D01*
X6467Y498252D01*
X6373Y498219D01*
X6277Y498190D01*
X6181Y498165D01*
X6084Y498144D01*
X5985Y498126D01*
X5887Y498113D01*
X5787Y498103D01*
X5688Y498097D01*
X5588Y498095D01*
X5488Y498097D01*
X5389Y498103D01*
X5289Y498113D01*
X5191Y498126D01*
X5092Y498144D01*
X4995Y498165D01*
X4899Y498190D01*
X4803Y498219D01*
X4709Y498252D01*
X4616Y498288D01*
X4525Y498328D01*
X4435Y498372D01*
X4347Y498419D01*
X4261Y498469D01*
X4177Y498523D01*
X4095Y498580D01*
X4016Y498640D01*
X3938Y498704D01*
X3864Y498770D01*
X3792Y498839D01*
X3723Y498911D01*
X3657Y498985D01*
X3593Y499063D01*
X3533Y499142D01*
X3476Y499224D01*
X3422Y499308D01*
X3372Y499394D01*
X3325Y499482D01*
X3281Y499572D01*
X3241Y499663D01*
X3205Y499756D01*
X3172Y499850D01*
X3143Y499946D01*
X3118Y500042D01*
X3097Y500139D01*
X3079Y500238D01*
X3066Y500336D01*
X3056Y500436D01*
X3050Y500535D01*
X3048Y500635D01*
X3048Y501905D01*
X8128Y501905D01*
X-3698Y505715D02*
X-6238Y505715D01*
X-3698Y505715D02*
X-3613Y505713D01*
X-3527Y505707D01*
X-3442Y505698D01*
X-3358Y505684D01*
X-3274Y505667D01*
X-3191Y505646D01*
X-3109Y505622D01*
X-3029Y505594D01*
X-2949Y505562D01*
X-2871Y505526D01*
X-2795Y505488D01*
X-2721Y505445D01*
X-2649Y505400D01*
X-2578Y505351D01*
X-2510Y505299D01*
X-2445Y505245D01*
X-2382Y505187D01*
X-2321Y505126D01*
X-2263Y505063D01*
X-2209Y504998D01*
X-2157Y504930D01*
X-2108Y504859D01*
X-2063Y504787D01*
X-2020Y504713D01*
X-1982Y504637D01*
X-1946Y504559D01*
X-1914Y504479D01*
X-1886Y504399D01*
X-1862Y504317D01*
X-1841Y504234D01*
X-1824Y504150D01*
X-1810Y504066D01*
X-1801Y503981D01*
X-1795Y503895D01*
X-1793Y503810D01*
X-1793Y500000D01*
X-1795Y499915D01*
X-1801Y499829D01*
X-1810Y499744D01*
X-1824Y499660D01*
X-1841Y499576D01*
X-1862Y499493D01*
X-1886Y499411D01*
X-1914Y499331D01*
X-1946Y499251D01*
X-1982Y499173D01*
X-2020Y499097D01*
X-2063Y499023D01*
X-2108Y498951D01*
X-2157Y498880D01*
X-2209Y498812D01*
X-2263Y498747D01*
X-2321Y498684D01*
X-2382Y498623D01*
X-2445Y498565D01*
X-2510Y498511D01*
X-2578Y498459D01*
X-2649Y498410D01*
X-2721Y498365D01*
X-2795Y498322D01*
X-2871Y498284D01*
X-2949Y498248D01*
X-3029Y498216D01*
X-3109Y498188D01*
X-3191Y498164D01*
X-3274Y498143D01*
X-3358Y498126D01*
X-3442Y498112D01*
X-3527Y498103D01*
X-3613Y498097D01*
X-3698Y498095D01*
X-6238Y498095D01*
X-9548Y498095D02*
X-13358Y498095D01*
X-10818Y494285D02*
X-10818Y503810D01*
X-10820Y503895D01*
X-10826Y503981D01*
X-10835Y504066D01*
X-10849Y504150D01*
X-10866Y504234D01*
X-10887Y504317D01*
X-10911Y504399D01*
X-10939Y504479D01*
X-10971Y504559D01*
X-11007Y504637D01*
X-11045Y504713D01*
X-11088Y504787D01*
X-11133Y504859D01*
X-11182Y504930D01*
X-11234Y504998D01*
X-11288Y505063D01*
X-11346Y505126D01*
X-11407Y505187D01*
X-11470Y505245D01*
X-11535Y505299D01*
X-11603Y505351D01*
X-11674Y505400D01*
X-11746Y505445D01*
X-11820Y505488D01*
X-11896Y505526D01*
X-11974Y505562D01*
X-12054Y505594D01*
X-12134Y505622D01*
X-12216Y505646D01*
X-12299Y505667D01*
X-12383Y505684D01*
X-12467Y505698D01*
X-12552Y505707D01*
X-12638Y505713D01*
X-12723Y505715D01*
X-13358Y505715D01*
X-17780Y503175D02*
X-17780Y500635D01*
X-17782Y500535D01*
X-17788Y500436D01*
X-17798Y500336D01*
X-17811Y500238D01*
X-17829Y500139D01*
X-17850Y500042D01*
X-17875Y499946D01*
X-17904Y499850D01*
X-17937Y499756D01*
X-17973Y499663D01*
X-18013Y499572D01*
X-18057Y499482D01*
X-18104Y499394D01*
X-18154Y499308D01*
X-18208Y499224D01*
X-18265Y499142D01*
X-18325Y499063D01*
X-18389Y498985D01*
X-18455Y498911D01*
X-18524Y498839D01*
X-18596Y498770D01*
X-18670Y498704D01*
X-18748Y498640D01*
X-18827Y498580D01*
X-18909Y498523D01*
X-18993Y498469D01*
X-19079Y498419D01*
X-19167Y498372D01*
X-19257Y498328D01*
X-19348Y498288D01*
X-19441Y498252D01*
X-19535Y498219D01*
X-19631Y498190D01*
X-19727Y498165D01*
X-19824Y498144D01*
X-19923Y498126D01*
X-20021Y498113D01*
X-20121Y498103D01*
X-20220Y498097D01*
X-20320Y498095D01*
X-20420Y498097D01*
X-20519Y498103D01*
X-20619Y498113D01*
X-20717Y498126D01*
X-20816Y498144D01*
X-20913Y498165D01*
X-21009Y498190D01*
X-21105Y498219D01*
X-21199Y498252D01*
X-21292Y498288D01*
X-21383Y498328D01*
X-21473Y498372D01*
X-21561Y498419D01*
X-21647Y498469D01*
X-21731Y498523D01*
X-21813Y498580D01*
X-21892Y498640D01*
X-21970Y498704D01*
X-22044Y498770D01*
X-22116Y498839D01*
X-22185Y498911D01*
X-22251Y498985D01*
X-22315Y499063D01*
X-22375Y499142D01*
X-22432Y499224D01*
X-22486Y499308D01*
X-22536Y499394D01*
X-22583Y499482D01*
X-22627Y499572D01*
X-22667Y499663D01*
X-22703Y499756D01*
X-22736Y499850D01*
X-22765Y499946D01*
X-22790Y500042D01*
X-22811Y500139D01*
X-22829Y500238D01*
X-22842Y500336D01*
X-22852Y500436D01*
X-22858Y500535D01*
X-22860Y500635D01*
X-22860Y503175D01*
X-22858Y503275D01*
X-22852Y503374D01*
X-22842Y503474D01*
X-22829Y503572D01*
X-22811Y503671D01*
X-22790Y503768D01*
X-22765Y503864D01*
X-22736Y503960D01*
X-22703Y504054D01*
X-22667Y504147D01*
X-22627Y504238D01*
X-22583Y504328D01*
X-22536Y504416D01*
X-22486Y504502D01*
X-22432Y504586D01*
X-22375Y504668D01*
X-22315Y504747D01*
X-22251Y504825D01*
X-22185Y504899D01*
X-22116Y504971D01*
X-22044Y505040D01*
X-21970Y505106D01*
X-21892Y505170D01*
X-21813Y505230D01*
X-21731Y505287D01*
X-21647Y505341D01*
X-21561Y505391D01*
X-21473Y505438D01*
X-21383Y505482D01*
X-21292Y505522D01*
X-21199Y505558D01*
X-21105Y505591D01*
X-21009Y505620D01*
X-20913Y505645D01*
X-20816Y505666D01*
X-20717Y505684D01*
X-20619Y505697D01*
X-20519Y505707D01*
X-20420Y505713D01*
X-20320Y505715D01*
X-20220Y505713D01*
X-20121Y505707D01*
X-20021Y505697D01*
X-19923Y505684D01*
X-19824Y505666D01*
X-19727Y505645D01*
X-19631Y505620D01*
X-19535Y505591D01*
X-19441Y505558D01*
X-19348Y505522D01*
X-19257Y505482D01*
X-19167Y505438D01*
X-19079Y505391D01*
X-18993Y505341D01*
X-18909Y505287D01*
X-18827Y505230D01*
X-18748Y505170D01*
X-18670Y505106D01*
X-18596Y505040D01*
X-18524Y504971D01*
X-18455Y504899D01*
X-18389Y504825D01*
X-18325Y504747D01*
X-18265Y504668D01*
X-18208Y504586D01*
X-18154Y504502D01*
X-18104Y504416D01*
X-18057Y504328D01*
X-18013Y504238D01*
X-17973Y504147D01*
X-17937Y504054D01*
X-17904Y503960D01*
X-17875Y503864D01*
X-17850Y503768D01*
X-17829Y503671D01*
X-17811Y503572D01*
X-17798Y503474D01*
X-17788Y503374D01*
X-17782Y503275D01*
X-17780Y503175D01*
X-28142Y505715D02*
X-28142Y498095D01*
X-31952Y498095D01*
X-31952Y499365D01*
X-42481Y494285D02*
X-42481Y505715D01*
X-42481Y494285D02*
X-45656Y494285D01*
X-45767Y494287D01*
X-45877Y494293D01*
X-45988Y494302D01*
X-46098Y494316D01*
X-46207Y494333D01*
X-46316Y494354D01*
X-46424Y494379D01*
X-46531Y494408D01*
X-46637Y494440D01*
X-46742Y494476D01*
X-46845Y494516D01*
X-46947Y494559D01*
X-47048Y494606D01*
X-47147Y494657D01*
X-47244Y494710D01*
X-47338Y494767D01*
X-47431Y494828D01*
X-47522Y494891D01*
X-47611Y494958D01*
X-47697Y495028D01*
X-47780Y495101D01*
X-47862Y495176D01*
X-47940Y495254D01*
X-48015Y495336D01*
X-48088Y495419D01*
X-48158Y495505D01*
X-48225Y495594D01*
X-48288Y495685D01*
X-48349Y495778D01*
X-48406Y495873D01*
X-48459Y495969D01*
X-48510Y496068D01*
X-48557Y496169D01*
X-48600Y496271D01*
X-48640Y496374D01*
X-48676Y496479D01*
X-48708Y496585D01*
X-48737Y496692D01*
X-48762Y496800D01*
X-48783Y496909D01*
X-48800Y497018D01*
X-48814Y497128D01*
X-48823Y497239D01*
X-48829Y497349D01*
X-48831Y497460D01*
X-48829Y497571D01*
X-48823Y497681D01*
X-48814Y497792D01*
X-48800Y497902D01*
X-48783Y498011D01*
X-48762Y498120D01*
X-48737Y498228D01*
X-48708Y498335D01*
X-48676Y498441D01*
X-48640Y498546D01*
X-48600Y498649D01*
X-48557Y498751D01*
X-48510Y498852D01*
X-48459Y498951D01*
X-48406Y499048D01*
X-48349Y499142D01*
X-48288Y499235D01*
X-48225Y499326D01*
X-48158Y499415D01*
X-48088Y499501D01*
X-48015Y499584D01*
X-47940Y499666D01*
X-47862Y499744D01*
X-47780Y499819D01*
X-47697Y499892D01*
X-47611Y499962D01*
X-47522Y500029D01*
X-47431Y500092D01*
X-47338Y500153D01*
X-47244Y500210D01*
X-47147Y500263D01*
X-47048Y500314D01*
X-46947Y500361D01*
X-46845Y500404D01*
X-46742Y500444D01*
X-46637Y500480D01*
X-46531Y500512D01*
X-46424Y500541D01*
X-46316Y500566D01*
X-46207Y500587D01*
X-46098Y500604D01*
X-45988Y500618D01*
X-45877Y500627D01*
X-45767Y500633D01*
X-45656Y500635D01*
X-42481Y500635D01*
X-55369Y501270D02*
X-58227Y501270D01*
X-55369Y501270D02*
X-55276Y501272D01*
X-55183Y501278D01*
X-55090Y501288D01*
X-54998Y501301D01*
X-54907Y501319D01*
X-54816Y501340D01*
X-54726Y501365D01*
X-54638Y501394D01*
X-54551Y501426D01*
X-54465Y501462D01*
X-54381Y501502D01*
X-54298Y501545D01*
X-54217Y501592D01*
X-54139Y501641D01*
X-54062Y501695D01*
X-53988Y501751D01*
X-53916Y501810D01*
X-53847Y501873D01*
X-53781Y501938D01*
X-53717Y502006D01*
X-53656Y502076D01*
X-53598Y502149D01*
X-53544Y502224D01*
X-53492Y502302D01*
X-53444Y502382D01*
X-53399Y502463D01*
X-53358Y502546D01*
X-53320Y502632D01*
X-53285Y502718D01*
X-53255Y502806D01*
X-53228Y502895D01*
X-53205Y502985D01*
X-53185Y503076D01*
X-53170Y503168D01*
X-53158Y503261D01*
X-53150Y503353D01*
X-53146Y503446D01*
X-53146Y503540D01*
X-53150Y503633D01*
X-53158Y503725D01*
X-53170Y503818D01*
X-53185Y503910D01*
X-53205Y504001D01*
X-53228Y504091D01*
X-53255Y504180D01*
X-53285Y504268D01*
X-53320Y504354D01*
X-53358Y504440D01*
X-53399Y504523D01*
X-53444Y504605D01*
X-53492Y504684D01*
X-53544Y504762D01*
X-53598Y504837D01*
X-53656Y504910D01*
X-53717Y504980D01*
X-53781Y505048D01*
X-53847Y505113D01*
X-53916Y505176D01*
X-53988Y505235D01*
X-54062Y505291D01*
X-54139Y505345D01*
X-54217Y505394D01*
X-54298Y505441D01*
X-54381Y505484D01*
X-54465Y505524D01*
X-54551Y505560D01*
X-54638Y505592D01*
X-54726Y505621D01*
X-54816Y505646D01*
X-54907Y505667D01*
X-54998Y505685D01*
X-55090Y505698D01*
X-55183Y505708D01*
X-55276Y505714D01*
X-55369Y505716D01*
X-55369Y505715D02*
X-58227Y505715D01*
X-58227Y500000D01*
X-58225Y499915D01*
X-58219Y499829D01*
X-58210Y499744D01*
X-58196Y499660D01*
X-58179Y499576D01*
X-58158Y499493D01*
X-58134Y499411D01*
X-58106Y499331D01*
X-58074Y499251D01*
X-58038Y499173D01*
X-58000Y499097D01*
X-57957Y499023D01*
X-57912Y498951D01*
X-57863Y498880D01*
X-57811Y498812D01*
X-57757Y498747D01*
X-57699Y498684D01*
X-57638Y498623D01*
X-57575Y498565D01*
X-57510Y498511D01*
X-57442Y498459D01*
X-57371Y498410D01*
X-57299Y498365D01*
X-57225Y498322D01*
X-57149Y498284D01*
X-57071Y498248D01*
X-56991Y498216D01*
X-56911Y498188D01*
X-56829Y498164D01*
X-56746Y498143D01*
X-56662Y498126D01*
X-56578Y498112D01*
X-56493Y498103D01*
X-56407Y498097D01*
X-56322Y498095D01*
X-53782Y498095D01*
X-64452Y501270D02*
X-67627Y502540D01*
X-64453Y501269D02*
X-64379Y501238D01*
X-64307Y501203D01*
X-64237Y501164D01*
X-64168Y501122D01*
X-64102Y501077D01*
X-64038Y501028D01*
X-63977Y500977D01*
X-63918Y500923D01*
X-63862Y500865D01*
X-63809Y500806D01*
X-63758Y500743D01*
X-63711Y500679D01*
X-63667Y500612D01*
X-63626Y500543D01*
X-63589Y500472D01*
X-63555Y500399D01*
X-63525Y500325D01*
X-63498Y500249D01*
X-63476Y500172D01*
X-63456Y500095D01*
X-63441Y500016D01*
X-63430Y499937D01*
X-63422Y499857D01*
X-63418Y499777D01*
X-63419Y499697D01*
X-63423Y499617D01*
X-63431Y499537D01*
X-63443Y499458D01*
X-63458Y499379D01*
X-63478Y499301D01*
X-63501Y499225D01*
X-63528Y499149D01*
X-63559Y499075D01*
X-63593Y499003D01*
X-63631Y498932D01*
X-63672Y498863D01*
X-63716Y498796D01*
X-63764Y498732D01*
X-63814Y498670D01*
X-63868Y498610D01*
X-63924Y498553D01*
X-63984Y498499D01*
X-64045Y498448D01*
X-64109Y498400D01*
X-64176Y498355D01*
X-64244Y498314D01*
X-64315Y498275D01*
X-64387Y498241D01*
X-64461Y498210D01*
X-64536Y498182D01*
X-64613Y498158D01*
X-64690Y498138D01*
X-64769Y498122D01*
X-64848Y498109D01*
X-64927Y498101D01*
X-65007Y498096D01*
X-65088Y498095D01*
X-65087Y498096D02*
X-65260Y498100D01*
X-65434Y498109D01*
X-65606Y498122D01*
X-65779Y498139D01*
X-65951Y498160D01*
X-66123Y498185D01*
X-66293Y498215D01*
X-66464Y498248D01*
X-66633Y498286D01*
X-66801Y498328D01*
X-66968Y498373D01*
X-67134Y498423D01*
X-67299Y498477D01*
X-67463Y498534D01*
X-67625Y498596D01*
X-67785Y498661D01*
X-67944Y498731D01*
X-67627Y502541D02*
X-67701Y502572D01*
X-67773Y502607D01*
X-67843Y502646D01*
X-67912Y502688D01*
X-67978Y502733D01*
X-68042Y502782D01*
X-68103Y502833D01*
X-68162Y502887D01*
X-68218Y502945D01*
X-68271Y503004D01*
X-68322Y503067D01*
X-68369Y503131D01*
X-68413Y503198D01*
X-68454Y503267D01*
X-68491Y503338D01*
X-68525Y503411D01*
X-68555Y503485D01*
X-68582Y503561D01*
X-68604Y503638D01*
X-68624Y503715D01*
X-68639Y503794D01*
X-68650Y503873D01*
X-68658Y503953D01*
X-68662Y504033D01*
X-68661Y504113D01*
X-68657Y504193D01*
X-68649Y504273D01*
X-68637Y504352D01*
X-68622Y504431D01*
X-68602Y504509D01*
X-68579Y504585D01*
X-68552Y504661D01*
X-68521Y504735D01*
X-68487Y504807D01*
X-68449Y504878D01*
X-68408Y504947D01*
X-68364Y505014D01*
X-68316Y505078D01*
X-68266Y505140D01*
X-68212Y505200D01*
X-68156Y505257D01*
X-68096Y505311D01*
X-68035Y505362D01*
X-67971Y505410D01*
X-67904Y505455D01*
X-67836Y505496D01*
X-67765Y505535D01*
X-67693Y505569D01*
X-67619Y505600D01*
X-67544Y505628D01*
X-67467Y505652D01*
X-67390Y505672D01*
X-67311Y505688D01*
X-67232Y505701D01*
X-67153Y505709D01*
X-67073Y505714D01*
X-66992Y505715D01*
X-66992Y505716D02*
X-66737Y505709D01*
X-66483Y505697D01*
X-66229Y505678D01*
X-65975Y505653D01*
X-65723Y505623D01*
X-65471Y505586D01*
X-65219Y505543D01*
X-64969Y505495D01*
X-64721Y505440D01*
X-64473Y505380D01*
X-64227Y505314D01*
X-63983Y505242D01*
X-63740Y505164D01*
X-63499Y505081D01*
X-72413Y498095D02*
X-76223Y498095D01*
X-73683Y494285D02*
X-73683Y503810D01*
X-73685Y503895D01*
X-73691Y503981D01*
X-73700Y504066D01*
X-73714Y504150D01*
X-73731Y504234D01*
X-73752Y504317D01*
X-73776Y504399D01*
X-73804Y504479D01*
X-73836Y504559D01*
X-73872Y504637D01*
X-73910Y504713D01*
X-73953Y504787D01*
X-73998Y504859D01*
X-74047Y504930D01*
X-74099Y504998D01*
X-74153Y505063D01*
X-74211Y505126D01*
X-74272Y505187D01*
X-74335Y505245D01*
X-74400Y505299D01*
X-74468Y505351D01*
X-74539Y505400D01*
X-74611Y505445D01*
X-74685Y505488D01*
X-74761Y505526D01*
X-74839Y505562D01*
X-74919Y505594D01*
X-74999Y505622D01*
X-75081Y505646D01*
X-75164Y505667D01*
X-75248Y505684D01*
X-75332Y505698D01*
X-75417Y505707D01*
X-75503Y505713D01*
X-75588Y505715D01*
X-76223Y505715D01*
X-82801Y501270D02*
X-85659Y501270D01*
X-82801Y501270D02*
X-82708Y501272D01*
X-82615Y501278D01*
X-82522Y501288D01*
X-82430Y501301D01*
X-82339Y501319D01*
X-82248Y501340D01*
X-82158Y501365D01*
X-82070Y501394D01*
X-81983Y501426D01*
X-81897Y501462D01*
X-81813Y501502D01*
X-81730Y501545D01*
X-81649Y501592D01*
X-81571Y501641D01*
X-81494Y501695D01*
X-81420Y501751D01*
X-81348Y501810D01*
X-81279Y501873D01*
X-81213Y501938D01*
X-81149Y502006D01*
X-81088Y502076D01*
X-81030Y502149D01*
X-80976Y502224D01*
X-80924Y502302D01*
X-80876Y502382D01*
X-80831Y502463D01*
X-80790Y502546D01*
X-80752Y502632D01*
X-80717Y502718D01*
X-80687Y502806D01*
X-80660Y502895D01*
X-80637Y502985D01*
X-80617Y503076D01*
X-80602Y503168D01*
X-80590Y503261D01*
X-80582Y503353D01*
X-80578Y503446D01*
X-80578Y503540D01*
X-80582Y503633D01*
X-80590Y503725D01*
X-80602Y503818D01*
X-80617Y503910D01*
X-80637Y504001D01*
X-80660Y504091D01*
X-80687Y504180D01*
X-80717Y504268D01*
X-80752Y504354D01*
X-80790Y504440D01*
X-80831Y504523D01*
X-80876Y504605D01*
X-80924Y504684D01*
X-80976Y504762D01*
X-81030Y504837D01*
X-81088Y504910D01*
X-81149Y504980D01*
X-81213Y505048D01*
X-81279Y505113D01*
X-81348Y505176D01*
X-81420Y505235D01*
X-81494Y505291D01*
X-81571Y505345D01*
X-81649Y505394D01*
X-81730Y505441D01*
X-81813Y505484D01*
X-81897Y505524D01*
X-81983Y505560D01*
X-82070Y505592D01*
X-82158Y505621D01*
X-82248Y505646D01*
X-82339Y505667D01*
X-82430Y505685D01*
X-82522Y505698D01*
X-82615Y505708D01*
X-82708Y505714D01*
X-82801Y505716D01*
X-82801Y505715D02*
X-85659Y505715D01*
X-85659Y500000D01*
X-85657Y499915D01*
X-85651Y499829D01*
X-85642Y499744D01*
X-85628Y499660D01*
X-85611Y499576D01*
X-85590Y499493D01*
X-85566Y499411D01*
X-85538Y499331D01*
X-85506Y499251D01*
X-85470Y499173D01*
X-85432Y499097D01*
X-85389Y499023D01*
X-85344Y498951D01*
X-85295Y498880D01*
X-85243Y498812D01*
X-85189Y498747D01*
X-85131Y498684D01*
X-85070Y498623D01*
X-85007Y498565D01*
X-84942Y498511D01*
X-84874Y498459D01*
X-84803Y498410D01*
X-84731Y498365D01*
X-84657Y498322D01*
X-84581Y498284D01*
X-84503Y498248D01*
X-84423Y498216D01*
X-84343Y498188D01*
X-84261Y498164D01*
X-84178Y498143D01*
X-84094Y498126D01*
X-84010Y498112D01*
X-83925Y498103D01*
X-83839Y498097D01*
X-83754Y498095D01*
X-81214Y498095D01*
X-97155Y500000D02*
X-97158Y499775D01*
X-97166Y499550D01*
X-97179Y499326D01*
X-97198Y499102D01*
X-97222Y498878D01*
X-97251Y498655D01*
X-97286Y498433D01*
X-97326Y498212D01*
X-97372Y497992D01*
X-97422Y497773D01*
X-97478Y497555D01*
X-97539Y497338D01*
X-97605Y497123D01*
X-97676Y496910D01*
X-97753Y496699D01*
X-97834Y496489D01*
X-97920Y496281D01*
X-98011Y496076D01*
X-98107Y495873D01*
X-98139Y495785D01*
X-98175Y495698D01*
X-98214Y495612D01*
X-98257Y495528D01*
X-98303Y495446D01*
X-98352Y495366D01*
X-98404Y495288D01*
X-98460Y495212D01*
X-98518Y495138D01*
X-98580Y495067D01*
X-98644Y494998D01*
X-98711Y494932D01*
X-98780Y494869D01*
X-98852Y494808D01*
X-98926Y494750D01*
X-99003Y494696D01*
X-99081Y494644D01*
X-99162Y494596D01*
X-99244Y494551D01*
X-99329Y494509D01*
X-99415Y494471D01*
X-99502Y494436D01*
X-99590Y494404D01*
X-99680Y494377D01*
X-99771Y494352D01*
X-99863Y494332D01*
X-99955Y494315D01*
X-100049Y494302D01*
X-100142Y494293D01*
X-100236Y494287D01*
X-100330Y494285D01*
X-100424Y494287D01*
X-100518Y494293D01*
X-100611Y494302D01*
X-100705Y494315D01*
X-100797Y494332D01*
X-100889Y494352D01*
X-100980Y494377D01*
X-101070Y494404D01*
X-101158Y494436D01*
X-101245Y494471D01*
X-101331Y494509D01*
X-101416Y494551D01*
X-101498Y494596D01*
X-101579Y494644D01*
X-101657Y494696D01*
X-101734Y494750D01*
X-101808Y494808D01*
X-101880Y494869D01*
X-101949Y494932D01*
X-102016Y494998D01*
X-102080Y495067D01*
X-102142Y495138D01*
X-102200Y495212D01*
X-102256Y495288D01*
X-102308Y495366D01*
X-102357Y495446D01*
X-102403Y495528D01*
X-102446Y495612D01*
X-102485Y495698D01*
X-102521Y495785D01*
X-102553Y495873D01*
X-102649Y496076D01*
X-102740Y496281D01*
X-102826Y496489D01*
X-102907Y496699D01*
X-102984Y496910D01*
X-103055Y497123D01*
X-103121Y497338D01*
X-103182Y497555D01*
X-103238Y497773D01*
X-103288Y497992D01*
X-103334Y498212D01*
X-103374Y498433D01*
X-103409Y498655D01*
X-103438Y498878D01*
X-103462Y499102D01*
X-103481Y499326D01*
X-103494Y499550D01*
X-103502Y499775D01*
X-103505Y500000D01*
X-97155Y500000D02*
X-97158Y500225D01*
X-97166Y500450D01*
X-97179Y500674D01*
X-97198Y500898D01*
X-97222Y501122D01*
X-97251Y501345D01*
X-97286Y501567D01*
X-97326Y501788D01*
X-97372Y502008D01*
X-97422Y502227D01*
X-97478Y502445D01*
X-97539Y502662D01*
X-97605Y502877D01*
X-97676Y503090D01*
X-97753Y503301D01*
X-97834Y503511D01*
X-97920Y503719D01*
X-98011Y503924D01*
X-98107Y504127D01*
X-98107Y504128D02*
X-98139Y504216D01*
X-98175Y504303D01*
X-98214Y504389D01*
X-98257Y504473D01*
X-98303Y504555D01*
X-98352Y504635D01*
X-98404Y504713D01*
X-98460Y504789D01*
X-98518Y504863D01*
X-98580Y504934D01*
X-98644Y505003D01*
X-98711Y505069D01*
X-98780Y505132D01*
X-98852Y505193D01*
X-98926Y505251D01*
X-99003Y505305D01*
X-99081Y505357D01*
X-99162Y505405D01*
X-99244Y505450D01*
X-99329Y505492D01*
X-99415Y505530D01*
X-99502Y505565D01*
X-99590Y505597D01*
X-99680Y505624D01*
X-99771Y505649D01*
X-99863Y505669D01*
X-99955Y505686D01*
X-100049Y505699D01*
X-100142Y505708D01*
X-100236Y505714D01*
X-100330Y505716D01*
X-102553Y504127D02*
X-102649Y503924D01*
X-102740Y503719D01*
X-102826Y503511D01*
X-102907Y503301D01*
X-102984Y503090D01*
X-103055Y502877D01*
X-103121Y502662D01*
X-103182Y502445D01*
X-103238Y502227D01*
X-103288Y502008D01*
X-103334Y501788D01*
X-103374Y501567D01*
X-103409Y501345D01*
X-103438Y501122D01*
X-103462Y500898D01*
X-103481Y500674D01*
X-103494Y500450D01*
X-103502Y500225D01*
X-103505Y500000D01*
X-102553Y504128D02*
X-102521Y504216D01*
X-102485Y504303D01*
X-102446Y504389D01*
X-102403Y504473D01*
X-102357Y504555D01*
X-102308Y504635D01*
X-102256Y504713D01*
X-102200Y504789D01*
X-102142Y504863D01*
X-102080Y504934D01*
X-102016Y505003D01*
X-101949Y505069D01*
X-101880Y505132D01*
X-101808Y505193D01*
X-101734Y505251D01*
X-101657Y505305D01*
X-101579Y505357D01*
X-101498Y505405D01*
X-101416Y505450D01*
X-101331Y505492D01*
X-101245Y505530D01*
X-101158Y505565D01*
X-101070Y505597D01*
X-100980Y505624D01*
X-100889Y505649D01*
X-100797Y505669D01*
X-100705Y505686D01*
X-100611Y505699D01*
X-100518Y505708D01*
X-100424Y505714D01*
X-100330Y505716D01*
X-97790Y503175D02*
X-102870Y496825D01*
X-108585Y503175D02*
X-111125Y494285D01*
X-108585Y503175D02*
X-114935Y503175D01*
X-113030Y500635D02*
X-113030Y505715D01*
D11*
X-104000Y-543500D02*
X104000Y-543500D01*
X-104000Y-543500D02*
X-104000Y-456500D01*
X104000Y-456500D01*
X104000Y-543500D01*
D12*
X-12323Y-546508D02*
X-12323Y-553620D01*
X-12325Y-553709D01*
X-12331Y-553797D01*
X-12340Y-553885D01*
X-12354Y-553973D01*
X-12371Y-554060D01*
X-12392Y-554146D01*
X-12417Y-554231D01*
X-12446Y-554315D01*
X-12478Y-554398D01*
X-12513Y-554479D01*
X-12553Y-554558D01*
X-12595Y-554636D01*
X-12641Y-554712D01*
X-12690Y-554786D01*
X-12743Y-554857D01*
X-12798Y-554926D01*
X-12857Y-554993D01*
X-12918Y-555057D01*
X-12982Y-555118D01*
X-13049Y-555177D01*
X-13118Y-555232D01*
X-13189Y-555285D01*
X-13263Y-555334D01*
X-13339Y-555380D01*
X-13417Y-555422D01*
X-13496Y-555462D01*
X-13577Y-555497D01*
X-13660Y-555529D01*
X-13744Y-555558D01*
X-13829Y-555583D01*
X-13915Y-555604D01*
X-14002Y-555621D01*
X-14090Y-555635D01*
X-14178Y-555644D01*
X-14266Y-555650D01*
X-14355Y-555652D01*
X-15371Y-555652D01*
X-7997Y-548540D02*
X-5457Y-546508D01*
X-5457Y-555652D01*
X-7997Y-555652D02*
X-2917Y-555652D01*
X1148Y-551080D02*
X1150Y-550900D01*
X1157Y-550720D01*
X1167Y-550541D01*
X1182Y-550362D01*
X1202Y-550183D01*
X1225Y-550004D01*
X1253Y-549827D01*
X1285Y-549650D01*
X1321Y-549473D01*
X1362Y-549298D01*
X1406Y-549124D01*
X1455Y-548951D01*
X1508Y-548779D01*
X1565Y-548608D01*
X1626Y-548439D01*
X1691Y-548271D01*
X1760Y-548105D01*
X1833Y-547941D01*
X1910Y-547778D01*
X1909Y-547778D02*
X1937Y-547700D01*
X1970Y-547623D01*
X2005Y-547548D01*
X2044Y-547474D01*
X2086Y-547402D01*
X2131Y-547333D01*
X2180Y-547265D01*
X2231Y-547199D01*
X2285Y-547136D01*
X2342Y-547075D01*
X2401Y-547016D01*
X2463Y-546961D01*
X2528Y-546908D01*
X2594Y-546858D01*
X2663Y-546811D01*
X2734Y-546767D01*
X2807Y-546727D01*
X2881Y-546690D01*
X2957Y-546655D01*
X3035Y-546625D01*
X3113Y-546598D01*
X3193Y-546574D01*
X3274Y-546554D01*
X3356Y-546537D01*
X3438Y-546525D01*
X3521Y-546515D01*
X3604Y-546510D01*
X3687Y-546508D01*
X3770Y-546510D01*
X3853Y-546515D01*
X3936Y-546525D01*
X4018Y-546537D01*
X4100Y-546554D01*
X4181Y-546574D01*
X4261Y-546598D01*
X4339Y-546625D01*
X4417Y-546655D01*
X4493Y-546690D01*
X4567Y-546727D01*
X4640Y-546767D01*
X4711Y-546811D01*
X4780Y-546858D01*
X4846Y-546908D01*
X4911Y-546961D01*
X4973Y-547016D01*
X5032Y-547075D01*
X5089Y-547136D01*
X5143Y-547199D01*
X5194Y-547265D01*
X5243Y-547333D01*
X5288Y-547402D01*
X5330Y-547474D01*
X5369Y-547548D01*
X5404Y-547623D01*
X5437Y-547700D01*
X5465Y-547778D01*
X5542Y-547941D01*
X5615Y-548105D01*
X5684Y-548271D01*
X5749Y-548439D01*
X5810Y-548608D01*
X5867Y-548779D01*
X5920Y-548951D01*
X5969Y-549124D01*
X6013Y-549298D01*
X6054Y-549473D01*
X6090Y-549650D01*
X6122Y-549827D01*
X6150Y-550004D01*
X6173Y-550183D01*
X6193Y-550362D01*
X6208Y-550541D01*
X6218Y-550720D01*
X6225Y-550900D01*
X6227Y-551080D01*
X1148Y-551080D02*
X1150Y-551260D01*
X1157Y-551440D01*
X1167Y-551619D01*
X1182Y-551798D01*
X1202Y-551977D01*
X1225Y-552156D01*
X1253Y-552333D01*
X1285Y-552510D01*
X1321Y-552687D01*
X1362Y-552862D01*
X1406Y-553036D01*
X1455Y-553209D01*
X1508Y-553381D01*
X1565Y-553552D01*
X1626Y-553721D01*
X1691Y-553889D01*
X1760Y-554055D01*
X1833Y-554219D01*
X1910Y-554382D01*
X1909Y-554382D02*
X1937Y-554460D01*
X1970Y-554537D01*
X2005Y-554612D01*
X2044Y-554686D01*
X2086Y-554758D01*
X2131Y-554827D01*
X2180Y-554895D01*
X2231Y-554961D01*
X2285Y-555024D01*
X2342Y-555085D01*
X2401Y-555144D01*
X2463Y-555199D01*
X2528Y-555252D01*
X2594Y-555302D01*
X2663Y-555349D01*
X2734Y-555393D01*
X2807Y-555433D01*
X2881Y-555470D01*
X2957Y-555505D01*
X3035Y-555535D01*
X3113Y-555562D01*
X3193Y-555586D01*
X3274Y-555606D01*
X3356Y-555623D01*
X3438Y-555635D01*
X3521Y-555645D01*
X3604Y-555650D01*
X3687Y-555652D01*
X5465Y-554382D02*
X5542Y-554219D01*
X5615Y-554055D01*
X5684Y-553889D01*
X5749Y-553721D01*
X5810Y-553552D01*
X5867Y-553381D01*
X5920Y-553209D01*
X5969Y-553036D01*
X6013Y-552862D01*
X6054Y-552687D01*
X6090Y-552510D01*
X6122Y-552333D01*
X6150Y-552156D01*
X6173Y-551977D01*
X6193Y-551798D01*
X6208Y-551619D01*
X6218Y-551440D01*
X6225Y-551260D01*
X6227Y-551080D01*
X5465Y-554382D02*
X5437Y-554460D01*
X5404Y-554537D01*
X5369Y-554612D01*
X5330Y-554686D01*
X5288Y-554758D01*
X5243Y-554827D01*
X5194Y-554895D01*
X5143Y-554961D01*
X5089Y-555024D01*
X5032Y-555085D01*
X4973Y-555144D01*
X4911Y-555199D01*
X4846Y-555252D01*
X4780Y-555302D01*
X4711Y-555349D01*
X4640Y-555393D01*
X4567Y-555433D01*
X4493Y-555470D01*
X4417Y-555505D01*
X4339Y-555535D01*
X4261Y-555562D01*
X4181Y-555586D01*
X4100Y-555606D01*
X4018Y-555623D01*
X3936Y-555635D01*
X3853Y-555645D01*
X3770Y-555650D01*
X3687Y-555652D01*
X1655Y-553620D02*
X5719Y-548540D01*
X12323Y-551588D02*
X15371Y-551588D01*
X12323Y-551588D02*
X12234Y-551586D01*
X12146Y-551580D01*
X12058Y-551571D01*
X11970Y-551557D01*
X11883Y-551540D01*
X11797Y-551519D01*
X11712Y-551494D01*
X11628Y-551465D01*
X11545Y-551433D01*
X11464Y-551398D01*
X11385Y-551358D01*
X11307Y-551316D01*
X11231Y-551270D01*
X11157Y-551221D01*
X11086Y-551168D01*
X11017Y-551113D01*
X10950Y-551054D01*
X10886Y-550993D01*
X10825Y-550929D01*
X10766Y-550862D01*
X10711Y-550793D01*
X10658Y-550722D01*
X10609Y-550648D01*
X10563Y-550572D01*
X10521Y-550494D01*
X10481Y-550415D01*
X10446Y-550334D01*
X10414Y-550251D01*
X10385Y-550167D01*
X10360Y-550082D01*
X10339Y-549996D01*
X10322Y-549909D01*
X10308Y-549821D01*
X10299Y-549733D01*
X10293Y-549645D01*
X10291Y-549556D01*
X10291Y-549048D01*
X10293Y-548948D01*
X10299Y-548849D01*
X10309Y-548749D01*
X10322Y-548651D01*
X10340Y-548552D01*
X10361Y-548455D01*
X10386Y-548359D01*
X10415Y-548263D01*
X10448Y-548169D01*
X10484Y-548076D01*
X10524Y-547985D01*
X10568Y-547895D01*
X10615Y-547807D01*
X10665Y-547721D01*
X10719Y-547637D01*
X10776Y-547555D01*
X10836Y-547476D01*
X10900Y-547398D01*
X10966Y-547324D01*
X11035Y-547252D01*
X11107Y-547183D01*
X11181Y-547117D01*
X11259Y-547053D01*
X11338Y-546993D01*
X11420Y-546936D01*
X11504Y-546882D01*
X11590Y-546832D01*
X11678Y-546785D01*
X11768Y-546741D01*
X11859Y-546701D01*
X11952Y-546665D01*
X12046Y-546632D01*
X12142Y-546603D01*
X12238Y-546578D01*
X12335Y-546557D01*
X12434Y-546539D01*
X12532Y-546526D01*
X12632Y-546516D01*
X12731Y-546510D01*
X12831Y-546508D01*
X12931Y-546510D01*
X13030Y-546516D01*
X13130Y-546526D01*
X13228Y-546539D01*
X13327Y-546557D01*
X13424Y-546578D01*
X13520Y-546603D01*
X13616Y-546632D01*
X13710Y-546665D01*
X13803Y-546701D01*
X13894Y-546741D01*
X13984Y-546785D01*
X14072Y-546832D01*
X14158Y-546882D01*
X14242Y-546936D01*
X14324Y-546993D01*
X14403Y-547053D01*
X14481Y-547117D01*
X14555Y-547183D01*
X14627Y-547252D01*
X14696Y-547324D01*
X14762Y-547398D01*
X14826Y-547476D01*
X14886Y-547555D01*
X14943Y-547637D01*
X14997Y-547721D01*
X15047Y-547807D01*
X15094Y-547895D01*
X15138Y-547985D01*
X15178Y-548076D01*
X15214Y-548169D01*
X15247Y-548263D01*
X15276Y-548359D01*
X15301Y-548455D01*
X15322Y-548552D01*
X15340Y-548651D01*
X15353Y-548749D01*
X15363Y-548849D01*
X15369Y-548948D01*
X15371Y-549048D01*
X15371Y-551588D01*
X15369Y-551713D01*
X15363Y-551838D01*
X15354Y-551963D01*
X15340Y-552087D01*
X15323Y-552211D01*
X15302Y-552335D01*
X15277Y-552457D01*
X15248Y-552579D01*
X15216Y-552700D01*
X15180Y-552820D01*
X15140Y-552939D01*
X15097Y-553056D01*
X15050Y-553172D01*
X14999Y-553287D01*
X14945Y-553399D01*
X14887Y-553511D01*
X14827Y-553620D01*
X14762Y-553727D01*
X14695Y-553833D01*
X14624Y-553936D01*
X14550Y-554037D01*
X14473Y-554136D01*
X14393Y-554232D01*
X14310Y-554326D01*
X14225Y-554417D01*
X14136Y-554506D01*
X14045Y-554591D01*
X13951Y-554674D01*
X13855Y-554754D01*
X13756Y-554831D01*
X13655Y-554905D01*
X13552Y-554976D01*
X13446Y-555043D01*
X13339Y-555108D01*
X13230Y-555168D01*
X13118Y-555226D01*
X13006Y-555280D01*
X12891Y-555331D01*
X12775Y-555378D01*
X12658Y-555421D01*
X12539Y-555461D01*
X12419Y-555497D01*
X12298Y-555529D01*
X12176Y-555558D01*
X12054Y-555583D01*
X11930Y-555604D01*
X11806Y-555621D01*
X11682Y-555635D01*
X11557Y-555644D01*
X11432Y-555650D01*
X11307Y-555652D01*
D13*
X-18900Y-707100D02*
X-18898Y-707037D01*
X-18892Y-706975D01*
X-18882Y-706913D01*
X-18869Y-706851D01*
X-18851Y-706791D01*
X-18830Y-706732D01*
X-18805Y-706674D01*
X-18776Y-706618D01*
X-18744Y-706564D01*
X-18709Y-706512D01*
X-18671Y-706463D01*
X-18629Y-706415D01*
X-18585Y-706371D01*
X-18537Y-706329D01*
X-18488Y-706291D01*
X-18436Y-706256D01*
X-18382Y-706224D01*
X-18326Y-706195D01*
X-18268Y-706170D01*
X-18209Y-706149D01*
X-18149Y-706131D01*
X-18087Y-706118D01*
X-18025Y-706108D01*
X-17963Y-706102D01*
X-17900Y-706100D01*
X-17837Y-706102D01*
X-17775Y-706108D01*
X-17713Y-706118D01*
X-17651Y-706131D01*
X-17591Y-706149D01*
X-17532Y-706170D01*
X-17474Y-706195D01*
X-17418Y-706224D01*
X-17364Y-706256D01*
X-17312Y-706291D01*
X-17263Y-706329D01*
X-17215Y-706371D01*
X-17171Y-706415D01*
X-17129Y-706463D01*
X-17091Y-706512D01*
X-17056Y-706564D01*
X-17024Y-706618D01*
X-16995Y-706674D01*
X-16970Y-706732D01*
X-16949Y-706791D01*
X-16931Y-706851D01*
X-16918Y-706913D01*
X-16908Y-706975D01*
X-16902Y-707037D01*
X-16900Y-707100D01*
X-16902Y-707163D01*
X-16908Y-707225D01*
X-16918Y-707287D01*
X-16931Y-707349D01*
X-16949Y-707409D01*
X-16970Y-707468D01*
X-16995Y-707526D01*
X-17024Y-707582D01*
X-17056Y-707636D01*
X-17091Y-707688D01*
X-17129Y-707737D01*
X-17171Y-707785D01*
X-17215Y-707829D01*
X-17263Y-707871D01*
X-17312Y-707909D01*
X-17364Y-707944D01*
X-17418Y-707976D01*
X-17474Y-708005D01*
X-17532Y-708030D01*
X-17591Y-708051D01*
X-17651Y-708069D01*
X-17713Y-708082D01*
X-17775Y-708092D01*
X-17837Y-708098D01*
X-17900Y-708100D01*
X-17963Y-708098D01*
X-18025Y-708092D01*
X-18087Y-708082D01*
X-18149Y-708069D01*
X-18209Y-708051D01*
X-18268Y-708030D01*
X-18326Y-708005D01*
X-18382Y-707976D01*
X-18436Y-707944D01*
X-18488Y-707909D01*
X-18537Y-707871D01*
X-18585Y-707829D01*
X-18629Y-707785D01*
X-18671Y-707737D01*
X-18709Y-707688D01*
X-18744Y-707636D01*
X-18776Y-707582D01*
X-18805Y-707526D01*
X-18830Y-707468D01*
X-18851Y-707409D01*
X-18869Y-707349D01*
X-18882Y-707287D01*
X-18892Y-707225D01*
X-18898Y-707163D01*
X-18900Y-707100D01*
X38700Y-709500D02*
X38700Y-703600D01*
X-13300Y-703600D01*
X-13300Y-709500D01*
X38700Y-750500D02*
X38700Y-756400D01*
X-13300Y-756400D01*
X-13300Y-750500D01*
X-13300Y-735000D02*
X-13300Y-725000D01*
X38700Y-725000D02*
X38700Y-735000D01*
D12*
X477Y-697960D02*
X477Y-690848D01*
X477Y-697960D02*
X475Y-698049D01*
X469Y-698137D01*
X460Y-698225D01*
X446Y-698313D01*
X429Y-698400D01*
X408Y-698486D01*
X383Y-698571D01*
X354Y-698655D01*
X322Y-698738D01*
X287Y-698819D01*
X247Y-698898D01*
X205Y-698976D01*
X159Y-699052D01*
X110Y-699126D01*
X57Y-699197D01*
X2Y-699266D01*
X-57Y-699333D01*
X-118Y-699397D01*
X-182Y-699458D01*
X-249Y-699517D01*
X-318Y-699572D01*
X-389Y-699625D01*
X-463Y-699674D01*
X-539Y-699720D01*
X-617Y-699762D01*
X-696Y-699802D01*
X-777Y-699837D01*
X-860Y-699869D01*
X-944Y-699898D01*
X-1029Y-699923D01*
X-1115Y-699944D01*
X-1202Y-699961D01*
X-1290Y-699975D01*
X-1378Y-699984D01*
X-1466Y-699990D01*
X-1555Y-699992D01*
X-2571Y-699992D01*
X4803Y-692880D02*
X7343Y-690848D01*
X7343Y-699992D01*
X4803Y-699992D02*
X9883Y-699992D01*
X13948Y-695420D02*
X13950Y-695240D01*
X13957Y-695060D01*
X13967Y-694881D01*
X13982Y-694702D01*
X14002Y-694523D01*
X14025Y-694344D01*
X14053Y-694167D01*
X14085Y-693990D01*
X14121Y-693813D01*
X14162Y-693638D01*
X14206Y-693464D01*
X14255Y-693291D01*
X14308Y-693119D01*
X14365Y-692948D01*
X14426Y-692779D01*
X14491Y-692611D01*
X14560Y-692445D01*
X14633Y-692281D01*
X14710Y-692118D01*
X14709Y-692118D02*
X14737Y-692040D01*
X14770Y-691963D01*
X14805Y-691888D01*
X14844Y-691814D01*
X14886Y-691742D01*
X14931Y-691673D01*
X14980Y-691605D01*
X15031Y-691539D01*
X15085Y-691476D01*
X15142Y-691415D01*
X15201Y-691356D01*
X15263Y-691301D01*
X15328Y-691248D01*
X15394Y-691198D01*
X15463Y-691151D01*
X15534Y-691107D01*
X15607Y-691067D01*
X15681Y-691030D01*
X15757Y-690995D01*
X15835Y-690965D01*
X15913Y-690938D01*
X15993Y-690914D01*
X16074Y-690894D01*
X16156Y-690877D01*
X16238Y-690865D01*
X16321Y-690855D01*
X16404Y-690850D01*
X16487Y-690848D01*
X16570Y-690850D01*
X16653Y-690855D01*
X16736Y-690865D01*
X16818Y-690877D01*
X16900Y-690894D01*
X16981Y-690914D01*
X17061Y-690938D01*
X17139Y-690965D01*
X17217Y-690995D01*
X17293Y-691030D01*
X17367Y-691067D01*
X17440Y-691107D01*
X17511Y-691151D01*
X17580Y-691198D01*
X17646Y-691248D01*
X17711Y-691301D01*
X17773Y-691356D01*
X17832Y-691415D01*
X17889Y-691476D01*
X17943Y-691539D01*
X17994Y-691605D01*
X18043Y-691673D01*
X18088Y-691742D01*
X18130Y-691814D01*
X18169Y-691888D01*
X18204Y-691963D01*
X18237Y-692040D01*
X18265Y-692118D01*
X18342Y-692281D01*
X18415Y-692445D01*
X18484Y-692611D01*
X18549Y-692779D01*
X18610Y-692948D01*
X18667Y-693119D01*
X18720Y-693291D01*
X18769Y-693464D01*
X18813Y-693638D01*
X18854Y-693813D01*
X18890Y-693990D01*
X18922Y-694167D01*
X18950Y-694344D01*
X18973Y-694523D01*
X18993Y-694702D01*
X19008Y-694881D01*
X19018Y-695060D01*
X19025Y-695240D01*
X19027Y-695420D01*
X13948Y-695420D02*
X13950Y-695600D01*
X13957Y-695780D01*
X13967Y-695959D01*
X13982Y-696138D01*
X14002Y-696317D01*
X14025Y-696496D01*
X14053Y-696673D01*
X14085Y-696850D01*
X14121Y-697027D01*
X14162Y-697202D01*
X14206Y-697376D01*
X14255Y-697549D01*
X14308Y-697721D01*
X14365Y-697892D01*
X14426Y-698061D01*
X14491Y-698229D01*
X14560Y-698395D01*
X14633Y-698559D01*
X14710Y-698722D01*
X14709Y-698722D02*
X14737Y-698800D01*
X14770Y-698877D01*
X14805Y-698952D01*
X14844Y-699026D01*
X14886Y-699098D01*
X14931Y-699167D01*
X14980Y-699235D01*
X15031Y-699301D01*
X15085Y-699364D01*
X15142Y-699425D01*
X15201Y-699484D01*
X15263Y-699539D01*
X15328Y-699592D01*
X15394Y-699642D01*
X15463Y-699689D01*
X15534Y-699733D01*
X15607Y-699773D01*
X15681Y-699810D01*
X15757Y-699845D01*
X15835Y-699875D01*
X15913Y-699902D01*
X15993Y-699926D01*
X16074Y-699946D01*
X16156Y-699963D01*
X16238Y-699975D01*
X16321Y-699985D01*
X16404Y-699990D01*
X16487Y-699992D01*
X18265Y-698722D02*
X18342Y-698559D01*
X18415Y-698395D01*
X18484Y-698229D01*
X18549Y-698061D01*
X18610Y-697892D01*
X18667Y-697721D01*
X18720Y-697549D01*
X18769Y-697376D01*
X18813Y-697202D01*
X18854Y-697027D01*
X18890Y-696850D01*
X18922Y-696673D01*
X18950Y-696496D01*
X18973Y-696317D01*
X18993Y-696138D01*
X19008Y-695959D01*
X19018Y-695780D01*
X19025Y-695600D01*
X19027Y-695420D01*
X18265Y-698722D02*
X18237Y-698800D01*
X18204Y-698877D01*
X18169Y-698952D01*
X18130Y-699026D01*
X18088Y-699098D01*
X18043Y-699167D01*
X17994Y-699235D01*
X17943Y-699301D01*
X17889Y-699364D01*
X17832Y-699425D01*
X17773Y-699484D01*
X17711Y-699539D01*
X17646Y-699592D01*
X17580Y-699642D01*
X17511Y-699689D01*
X17440Y-699733D01*
X17367Y-699773D01*
X17293Y-699810D01*
X17217Y-699845D01*
X17139Y-699875D01*
X17061Y-699902D01*
X16981Y-699926D01*
X16900Y-699946D01*
X16818Y-699963D01*
X16736Y-699975D01*
X16653Y-699985D01*
X16570Y-699990D01*
X16487Y-699992D01*
X14455Y-697960D02*
X18519Y-692880D01*
X23091Y-697452D02*
X23093Y-697352D01*
X23099Y-697253D01*
X23109Y-697153D01*
X23122Y-697055D01*
X23140Y-696956D01*
X23161Y-696859D01*
X23186Y-696763D01*
X23215Y-696667D01*
X23248Y-696573D01*
X23284Y-696480D01*
X23324Y-696389D01*
X23368Y-696299D01*
X23415Y-696211D01*
X23465Y-696125D01*
X23519Y-696041D01*
X23576Y-695959D01*
X23636Y-695880D01*
X23700Y-695802D01*
X23766Y-695728D01*
X23835Y-695656D01*
X23907Y-695587D01*
X23981Y-695521D01*
X24059Y-695457D01*
X24138Y-695397D01*
X24220Y-695340D01*
X24304Y-695286D01*
X24390Y-695236D01*
X24478Y-695189D01*
X24568Y-695145D01*
X24659Y-695105D01*
X24752Y-695069D01*
X24846Y-695036D01*
X24942Y-695007D01*
X25038Y-694982D01*
X25135Y-694961D01*
X25234Y-694943D01*
X25332Y-694930D01*
X25432Y-694920D01*
X25531Y-694914D01*
X25631Y-694912D01*
X25731Y-694914D01*
X25830Y-694920D01*
X25930Y-694930D01*
X26028Y-694943D01*
X26127Y-694961D01*
X26224Y-694982D01*
X26320Y-695007D01*
X26416Y-695036D01*
X26510Y-695069D01*
X26603Y-695105D01*
X26694Y-695145D01*
X26784Y-695189D01*
X26872Y-695236D01*
X26958Y-695286D01*
X27042Y-695340D01*
X27124Y-695397D01*
X27203Y-695457D01*
X27281Y-695521D01*
X27355Y-695587D01*
X27427Y-695656D01*
X27496Y-695728D01*
X27562Y-695802D01*
X27626Y-695880D01*
X27686Y-695959D01*
X27743Y-696041D01*
X27797Y-696125D01*
X27847Y-696211D01*
X27894Y-696299D01*
X27938Y-696389D01*
X27978Y-696480D01*
X28014Y-696573D01*
X28047Y-696667D01*
X28076Y-696763D01*
X28101Y-696859D01*
X28122Y-696956D01*
X28140Y-697055D01*
X28153Y-697153D01*
X28163Y-697253D01*
X28169Y-697352D01*
X28171Y-697452D01*
X28169Y-697552D01*
X28163Y-697651D01*
X28153Y-697751D01*
X28140Y-697849D01*
X28122Y-697948D01*
X28101Y-698045D01*
X28076Y-698141D01*
X28047Y-698237D01*
X28014Y-698331D01*
X27978Y-698424D01*
X27938Y-698515D01*
X27894Y-698605D01*
X27847Y-698693D01*
X27797Y-698779D01*
X27743Y-698863D01*
X27686Y-698945D01*
X27626Y-699024D01*
X27562Y-699102D01*
X27496Y-699176D01*
X27427Y-699248D01*
X27355Y-699317D01*
X27281Y-699383D01*
X27203Y-699447D01*
X27124Y-699507D01*
X27042Y-699564D01*
X26958Y-699618D01*
X26872Y-699668D01*
X26784Y-699715D01*
X26694Y-699759D01*
X26603Y-699799D01*
X26510Y-699835D01*
X26416Y-699868D01*
X26320Y-699897D01*
X26224Y-699922D01*
X26127Y-699943D01*
X26028Y-699961D01*
X25930Y-699974D01*
X25830Y-699984D01*
X25731Y-699990D01*
X25631Y-699992D01*
X25531Y-699990D01*
X25432Y-699984D01*
X25332Y-699974D01*
X25234Y-699961D01*
X25135Y-699943D01*
X25038Y-699922D01*
X24942Y-699897D01*
X24846Y-699868D01*
X24752Y-699835D01*
X24659Y-699799D01*
X24568Y-699759D01*
X24478Y-699715D01*
X24390Y-699668D01*
X24304Y-699618D01*
X24220Y-699564D01*
X24138Y-699507D01*
X24059Y-699447D01*
X23981Y-699383D01*
X23907Y-699317D01*
X23835Y-699248D01*
X23766Y-699176D01*
X23700Y-699102D01*
X23636Y-699024D01*
X23576Y-698945D01*
X23519Y-698863D01*
X23465Y-698779D01*
X23415Y-698693D01*
X23368Y-698605D01*
X23324Y-698515D01*
X23284Y-698424D01*
X23248Y-698331D01*
X23215Y-698237D01*
X23186Y-698141D01*
X23161Y-698045D01*
X23140Y-697948D01*
X23122Y-697849D01*
X23109Y-697751D01*
X23099Y-697651D01*
X23093Y-697552D01*
X23091Y-697452D01*
X23599Y-692880D02*
X23601Y-692791D01*
X23607Y-692703D01*
X23616Y-692615D01*
X23630Y-692527D01*
X23647Y-692440D01*
X23668Y-692354D01*
X23693Y-692269D01*
X23722Y-692185D01*
X23754Y-692102D01*
X23789Y-692021D01*
X23829Y-691942D01*
X23871Y-691864D01*
X23917Y-691788D01*
X23966Y-691714D01*
X24019Y-691643D01*
X24074Y-691574D01*
X24133Y-691507D01*
X24194Y-691443D01*
X24258Y-691382D01*
X24325Y-691323D01*
X24394Y-691268D01*
X24465Y-691215D01*
X24539Y-691166D01*
X24615Y-691120D01*
X24693Y-691078D01*
X24772Y-691038D01*
X24853Y-691003D01*
X24936Y-690971D01*
X25020Y-690942D01*
X25105Y-690917D01*
X25191Y-690896D01*
X25278Y-690879D01*
X25366Y-690865D01*
X25454Y-690856D01*
X25542Y-690850D01*
X25631Y-690848D01*
X25720Y-690850D01*
X25808Y-690856D01*
X25896Y-690865D01*
X25984Y-690879D01*
X26071Y-690896D01*
X26157Y-690917D01*
X26242Y-690942D01*
X26326Y-690971D01*
X26409Y-691003D01*
X26490Y-691038D01*
X26569Y-691078D01*
X26647Y-691120D01*
X26723Y-691166D01*
X26797Y-691215D01*
X26868Y-691268D01*
X26937Y-691323D01*
X27004Y-691382D01*
X27068Y-691443D01*
X27129Y-691507D01*
X27188Y-691574D01*
X27243Y-691643D01*
X27296Y-691714D01*
X27345Y-691788D01*
X27391Y-691864D01*
X27433Y-691942D01*
X27473Y-692021D01*
X27508Y-692102D01*
X27540Y-692185D01*
X27569Y-692269D01*
X27594Y-692354D01*
X27615Y-692440D01*
X27632Y-692527D01*
X27646Y-692615D01*
X27655Y-692703D01*
X27661Y-692791D01*
X27663Y-692880D01*
X27661Y-692969D01*
X27655Y-693057D01*
X27646Y-693145D01*
X27632Y-693233D01*
X27615Y-693320D01*
X27594Y-693406D01*
X27569Y-693491D01*
X27540Y-693575D01*
X27508Y-693658D01*
X27473Y-693739D01*
X27433Y-693818D01*
X27391Y-693896D01*
X27345Y-693972D01*
X27296Y-694046D01*
X27243Y-694117D01*
X27188Y-694186D01*
X27129Y-694253D01*
X27068Y-694317D01*
X27004Y-694378D01*
X26937Y-694437D01*
X26868Y-694492D01*
X26797Y-694545D01*
X26723Y-694594D01*
X26647Y-694640D01*
X26569Y-694682D01*
X26490Y-694722D01*
X26409Y-694757D01*
X26326Y-694789D01*
X26242Y-694818D01*
X26157Y-694843D01*
X26071Y-694864D01*
X25984Y-694881D01*
X25896Y-694895D01*
X25808Y-694904D01*
X25720Y-694910D01*
X25631Y-694912D01*
X25542Y-694910D01*
X25454Y-694904D01*
X25366Y-694895D01*
X25278Y-694881D01*
X25191Y-694864D01*
X25105Y-694843D01*
X25020Y-694818D01*
X24936Y-694789D01*
X24853Y-694757D01*
X24772Y-694722D01*
X24693Y-694682D01*
X24615Y-694640D01*
X24539Y-694594D01*
X24465Y-694545D01*
X24394Y-694492D01*
X24325Y-694437D01*
X24258Y-694378D01*
X24194Y-694317D01*
X24133Y-694253D01*
X24074Y-694186D01*
X24019Y-694117D01*
X23966Y-694046D01*
X23917Y-693972D01*
X23871Y-693896D01*
X23829Y-693818D01*
X23789Y-693739D01*
X23754Y-693658D01*
X23722Y-693575D01*
X23693Y-693491D01*
X23668Y-693406D01*
X23647Y-693320D01*
X23630Y-693233D01*
X23616Y-693145D01*
X23607Y-693057D01*
X23601Y-692969D01*
X23599Y-692880D01*
D11*
X128500Y-455500D02*
X151500Y-455500D01*
X151500Y-504500D01*
X128500Y-504500D01*
X128500Y-455500D01*
D12*
X163652Y-491445D02*
X163652Y-493477D01*
X163650Y-493566D01*
X163644Y-493654D01*
X163635Y-493742D01*
X163621Y-493830D01*
X163604Y-493917D01*
X163583Y-494003D01*
X163558Y-494088D01*
X163529Y-494172D01*
X163497Y-494255D01*
X163462Y-494336D01*
X163422Y-494415D01*
X163380Y-494493D01*
X163334Y-494569D01*
X163285Y-494643D01*
X163232Y-494714D01*
X163177Y-494783D01*
X163118Y-494850D01*
X163057Y-494914D01*
X162993Y-494975D01*
X162926Y-495034D01*
X162857Y-495089D01*
X162786Y-495142D01*
X162712Y-495191D01*
X162636Y-495237D01*
X162558Y-495279D01*
X162479Y-495319D01*
X162398Y-495354D01*
X162315Y-495386D01*
X162231Y-495415D01*
X162146Y-495440D01*
X162060Y-495461D01*
X161973Y-495478D01*
X161885Y-495492D01*
X161797Y-495501D01*
X161709Y-495507D01*
X161620Y-495509D01*
X156540Y-495509D01*
X156451Y-495507D01*
X156363Y-495501D01*
X156275Y-495492D01*
X156187Y-495478D01*
X156100Y-495461D01*
X156014Y-495440D01*
X155929Y-495415D01*
X155845Y-495386D01*
X155762Y-495354D01*
X155681Y-495319D01*
X155602Y-495279D01*
X155524Y-495237D01*
X155448Y-495191D01*
X155374Y-495142D01*
X155303Y-495089D01*
X155234Y-495034D01*
X155167Y-494975D01*
X155103Y-494914D01*
X155042Y-494850D01*
X154983Y-494783D01*
X154928Y-494714D01*
X154875Y-494643D01*
X154826Y-494569D01*
X154780Y-494493D01*
X154738Y-494415D01*
X154698Y-494336D01*
X154663Y-494255D01*
X154631Y-494172D01*
X154602Y-494088D01*
X154577Y-494003D01*
X154556Y-493917D01*
X154539Y-493830D01*
X154525Y-493742D01*
X154516Y-493654D01*
X154510Y-493566D01*
X154508Y-493477D01*
X154508Y-491445D01*
X156540Y-487859D02*
X154508Y-485319D01*
X163652Y-485319D01*
X163652Y-487859D02*
X163652Y-482779D01*
X159080Y-478715D02*
X158900Y-478713D01*
X158720Y-478706D01*
X158541Y-478696D01*
X158362Y-478681D01*
X158183Y-478661D01*
X158004Y-478638D01*
X157827Y-478610D01*
X157650Y-478578D01*
X157473Y-478542D01*
X157298Y-478501D01*
X157124Y-478457D01*
X156951Y-478408D01*
X156779Y-478355D01*
X156608Y-478298D01*
X156439Y-478237D01*
X156271Y-478172D01*
X156105Y-478103D01*
X155941Y-478030D01*
X155778Y-477953D01*
X155700Y-477925D01*
X155623Y-477892D01*
X155548Y-477857D01*
X155474Y-477818D01*
X155402Y-477776D01*
X155333Y-477731D01*
X155265Y-477682D01*
X155199Y-477631D01*
X155136Y-477577D01*
X155075Y-477520D01*
X155016Y-477461D01*
X154961Y-477399D01*
X154908Y-477334D01*
X154858Y-477268D01*
X154811Y-477199D01*
X154767Y-477128D01*
X154727Y-477055D01*
X154690Y-476981D01*
X154655Y-476905D01*
X154625Y-476827D01*
X154598Y-476749D01*
X154574Y-476669D01*
X154554Y-476588D01*
X154537Y-476506D01*
X154525Y-476424D01*
X154515Y-476341D01*
X154510Y-476258D01*
X154508Y-476175D01*
X154510Y-476092D01*
X154515Y-476009D01*
X154525Y-475926D01*
X154537Y-475844D01*
X154554Y-475762D01*
X154574Y-475681D01*
X154598Y-475601D01*
X154625Y-475523D01*
X154655Y-475445D01*
X154690Y-475369D01*
X154727Y-475295D01*
X154767Y-475222D01*
X154811Y-475151D01*
X154858Y-475082D01*
X154908Y-475016D01*
X154961Y-474951D01*
X155016Y-474889D01*
X155075Y-474830D01*
X155136Y-474773D01*
X155199Y-474719D01*
X155265Y-474668D01*
X155333Y-474619D01*
X155402Y-474574D01*
X155474Y-474532D01*
X155548Y-474493D01*
X155623Y-474458D01*
X155700Y-474425D01*
X155778Y-474397D01*
X155941Y-474320D01*
X156105Y-474247D01*
X156271Y-474178D01*
X156439Y-474113D01*
X156608Y-474052D01*
X156779Y-473995D01*
X156951Y-473942D01*
X157124Y-473893D01*
X157298Y-473849D01*
X157473Y-473808D01*
X157650Y-473772D01*
X157827Y-473740D01*
X158004Y-473712D01*
X158183Y-473689D01*
X158362Y-473669D01*
X158541Y-473654D01*
X158720Y-473644D01*
X158900Y-473637D01*
X159080Y-473635D01*
X159080Y-478715D02*
X159260Y-478713D01*
X159440Y-478706D01*
X159619Y-478696D01*
X159798Y-478681D01*
X159977Y-478661D01*
X160156Y-478638D01*
X160333Y-478610D01*
X160510Y-478578D01*
X160687Y-478542D01*
X160862Y-478501D01*
X161036Y-478457D01*
X161209Y-478408D01*
X161381Y-478355D01*
X161552Y-478298D01*
X161721Y-478237D01*
X161889Y-478172D01*
X162055Y-478103D01*
X162219Y-478030D01*
X162382Y-477953D01*
X162460Y-477925D01*
X162537Y-477892D01*
X162612Y-477857D01*
X162686Y-477818D01*
X162758Y-477776D01*
X162827Y-477731D01*
X162895Y-477682D01*
X162961Y-477631D01*
X163024Y-477577D01*
X163085Y-477520D01*
X163144Y-477461D01*
X163199Y-477399D01*
X163252Y-477334D01*
X163302Y-477268D01*
X163349Y-477199D01*
X163393Y-477128D01*
X163433Y-477055D01*
X163470Y-476981D01*
X163505Y-476905D01*
X163535Y-476827D01*
X163562Y-476749D01*
X163586Y-476669D01*
X163606Y-476588D01*
X163623Y-476506D01*
X163635Y-476424D01*
X163645Y-476341D01*
X163650Y-476258D01*
X163652Y-476175D01*
X162382Y-474397D02*
X162219Y-474320D01*
X162055Y-474247D01*
X161889Y-474178D01*
X161721Y-474113D01*
X161552Y-474052D01*
X161381Y-473995D01*
X161209Y-473942D01*
X161036Y-473893D01*
X160862Y-473849D01*
X160687Y-473808D01*
X160510Y-473772D01*
X160333Y-473740D01*
X160156Y-473712D01*
X159977Y-473689D01*
X159798Y-473669D01*
X159619Y-473654D01*
X159440Y-473644D01*
X159260Y-473637D01*
X159080Y-473635D01*
X162382Y-474397D02*
X162460Y-474425D01*
X162537Y-474458D01*
X162612Y-474493D01*
X162686Y-474532D01*
X162758Y-474574D01*
X162827Y-474619D01*
X162895Y-474668D01*
X162961Y-474719D01*
X163024Y-474773D01*
X163085Y-474830D01*
X163144Y-474889D01*
X163199Y-474951D01*
X163252Y-475016D01*
X163302Y-475082D01*
X163349Y-475151D01*
X163393Y-475222D01*
X163433Y-475295D01*
X163470Y-475369D01*
X163505Y-475445D01*
X163535Y-475523D01*
X163562Y-475601D01*
X163586Y-475681D01*
X163606Y-475762D01*
X163623Y-475844D01*
X163635Y-475926D01*
X163645Y-476009D01*
X163650Y-476092D01*
X163652Y-476175D01*
X161620Y-478207D02*
X156540Y-474143D01*
X161112Y-469571D02*
X161012Y-469569D01*
X160913Y-469563D01*
X160813Y-469553D01*
X160715Y-469540D01*
X160616Y-469522D01*
X160519Y-469501D01*
X160423Y-469476D01*
X160327Y-469447D01*
X160233Y-469414D01*
X160140Y-469378D01*
X160049Y-469338D01*
X159959Y-469294D01*
X159871Y-469247D01*
X159785Y-469197D01*
X159701Y-469143D01*
X159619Y-469086D01*
X159540Y-469026D01*
X159462Y-468962D01*
X159388Y-468896D01*
X159316Y-468827D01*
X159247Y-468755D01*
X159181Y-468681D01*
X159117Y-468603D01*
X159057Y-468524D01*
X159000Y-468442D01*
X158946Y-468358D01*
X158896Y-468272D01*
X158849Y-468184D01*
X158805Y-468094D01*
X158765Y-468003D01*
X158729Y-467910D01*
X158696Y-467816D01*
X158667Y-467720D01*
X158642Y-467624D01*
X158621Y-467527D01*
X158603Y-467428D01*
X158590Y-467330D01*
X158580Y-467230D01*
X158574Y-467131D01*
X158572Y-467031D01*
X158574Y-466931D01*
X158580Y-466832D01*
X158590Y-466732D01*
X158603Y-466634D01*
X158621Y-466535D01*
X158642Y-466438D01*
X158667Y-466342D01*
X158696Y-466246D01*
X158729Y-466152D01*
X158765Y-466059D01*
X158805Y-465968D01*
X158849Y-465878D01*
X158896Y-465790D01*
X158946Y-465704D01*
X159000Y-465620D01*
X159057Y-465538D01*
X159117Y-465459D01*
X159181Y-465381D01*
X159247Y-465307D01*
X159316Y-465235D01*
X159388Y-465166D01*
X159462Y-465100D01*
X159540Y-465036D01*
X159619Y-464976D01*
X159701Y-464919D01*
X159785Y-464865D01*
X159871Y-464815D01*
X159959Y-464768D01*
X160049Y-464724D01*
X160140Y-464684D01*
X160233Y-464648D01*
X160327Y-464615D01*
X160423Y-464586D01*
X160519Y-464561D01*
X160616Y-464540D01*
X160715Y-464522D01*
X160813Y-464509D01*
X160913Y-464499D01*
X161012Y-464493D01*
X161112Y-464491D01*
X161212Y-464493D01*
X161311Y-464499D01*
X161411Y-464509D01*
X161509Y-464522D01*
X161608Y-464540D01*
X161705Y-464561D01*
X161801Y-464586D01*
X161897Y-464615D01*
X161991Y-464648D01*
X162084Y-464684D01*
X162175Y-464724D01*
X162265Y-464768D01*
X162353Y-464815D01*
X162439Y-464865D01*
X162523Y-464919D01*
X162605Y-464976D01*
X162684Y-465036D01*
X162762Y-465100D01*
X162836Y-465166D01*
X162908Y-465235D01*
X162977Y-465307D01*
X163043Y-465381D01*
X163107Y-465459D01*
X163167Y-465538D01*
X163224Y-465620D01*
X163278Y-465704D01*
X163328Y-465790D01*
X163375Y-465878D01*
X163419Y-465968D01*
X163459Y-466059D01*
X163495Y-466152D01*
X163528Y-466246D01*
X163557Y-466342D01*
X163582Y-466438D01*
X163603Y-466535D01*
X163621Y-466634D01*
X163634Y-466732D01*
X163644Y-466832D01*
X163650Y-466931D01*
X163652Y-467031D01*
X163650Y-467131D01*
X163644Y-467230D01*
X163634Y-467330D01*
X163621Y-467428D01*
X163603Y-467527D01*
X163582Y-467624D01*
X163557Y-467720D01*
X163528Y-467816D01*
X163495Y-467910D01*
X163459Y-468003D01*
X163419Y-468094D01*
X163375Y-468184D01*
X163328Y-468272D01*
X163278Y-468358D01*
X163224Y-468442D01*
X163167Y-468524D01*
X163107Y-468603D01*
X163043Y-468681D01*
X162977Y-468755D01*
X162908Y-468827D01*
X162836Y-468896D01*
X162762Y-468962D01*
X162684Y-469026D01*
X162605Y-469086D01*
X162523Y-469143D01*
X162439Y-469197D01*
X162353Y-469247D01*
X162265Y-469294D01*
X162175Y-469338D01*
X162084Y-469378D01*
X161991Y-469414D01*
X161897Y-469447D01*
X161801Y-469476D01*
X161705Y-469501D01*
X161608Y-469522D01*
X161509Y-469540D01*
X161411Y-469553D01*
X161311Y-469563D01*
X161212Y-469569D01*
X161112Y-469571D01*
X156540Y-469063D02*
X156451Y-469061D01*
X156363Y-469055D01*
X156275Y-469046D01*
X156187Y-469032D01*
X156100Y-469015D01*
X156014Y-468994D01*
X155929Y-468969D01*
X155845Y-468940D01*
X155762Y-468908D01*
X155681Y-468873D01*
X155602Y-468833D01*
X155524Y-468791D01*
X155448Y-468745D01*
X155374Y-468696D01*
X155303Y-468643D01*
X155234Y-468588D01*
X155167Y-468529D01*
X155103Y-468468D01*
X155042Y-468404D01*
X154983Y-468337D01*
X154928Y-468268D01*
X154875Y-468197D01*
X154826Y-468123D01*
X154780Y-468047D01*
X154738Y-467969D01*
X154698Y-467890D01*
X154663Y-467809D01*
X154631Y-467726D01*
X154602Y-467642D01*
X154577Y-467557D01*
X154556Y-467471D01*
X154539Y-467384D01*
X154525Y-467296D01*
X154516Y-467208D01*
X154510Y-467120D01*
X154508Y-467031D01*
X154510Y-466942D01*
X154516Y-466854D01*
X154525Y-466766D01*
X154539Y-466678D01*
X154556Y-466591D01*
X154577Y-466505D01*
X154602Y-466420D01*
X154631Y-466336D01*
X154663Y-466253D01*
X154698Y-466172D01*
X154738Y-466093D01*
X154780Y-466015D01*
X154826Y-465939D01*
X154875Y-465865D01*
X154928Y-465794D01*
X154983Y-465725D01*
X155042Y-465658D01*
X155103Y-465594D01*
X155167Y-465533D01*
X155234Y-465474D01*
X155303Y-465419D01*
X155374Y-465366D01*
X155448Y-465317D01*
X155524Y-465271D01*
X155602Y-465229D01*
X155681Y-465189D01*
X155762Y-465154D01*
X155845Y-465122D01*
X155929Y-465093D01*
X156014Y-465068D01*
X156100Y-465047D01*
X156187Y-465030D01*
X156275Y-465016D01*
X156363Y-465007D01*
X156451Y-465001D01*
X156540Y-464999D01*
X156629Y-465001D01*
X156717Y-465007D01*
X156805Y-465016D01*
X156893Y-465030D01*
X156980Y-465047D01*
X157066Y-465068D01*
X157151Y-465093D01*
X157235Y-465122D01*
X157318Y-465154D01*
X157399Y-465189D01*
X157478Y-465229D01*
X157556Y-465271D01*
X157632Y-465317D01*
X157706Y-465366D01*
X157777Y-465419D01*
X157846Y-465474D01*
X157913Y-465533D01*
X157977Y-465594D01*
X158038Y-465658D01*
X158097Y-465725D01*
X158152Y-465794D01*
X158205Y-465865D01*
X158254Y-465939D01*
X158300Y-466015D01*
X158342Y-466093D01*
X158382Y-466172D01*
X158417Y-466253D01*
X158449Y-466336D01*
X158478Y-466420D01*
X158503Y-466505D01*
X158524Y-466591D01*
X158541Y-466678D01*
X158555Y-466766D01*
X158564Y-466854D01*
X158570Y-466942D01*
X158572Y-467031D01*
X158570Y-467120D01*
X158564Y-467208D01*
X158555Y-467296D01*
X158541Y-467384D01*
X158524Y-467471D01*
X158503Y-467557D01*
X158478Y-467642D01*
X158449Y-467726D01*
X158417Y-467809D01*
X158382Y-467890D01*
X158342Y-467969D01*
X158300Y-468047D01*
X158254Y-468123D01*
X158205Y-468197D01*
X158152Y-468268D01*
X158097Y-468337D01*
X158038Y-468404D01*
X157977Y-468468D01*
X157913Y-468529D01*
X157846Y-468588D01*
X157777Y-468643D01*
X157706Y-468696D01*
X157632Y-468745D01*
X157556Y-468791D01*
X157478Y-468833D01*
X157399Y-468873D01*
X157318Y-468908D01*
X157235Y-468940D01*
X157151Y-468969D01*
X157066Y-468994D01*
X156980Y-469015D01*
X156893Y-469032D01*
X156805Y-469046D01*
X156717Y-469055D01*
X156629Y-469061D01*
X156540Y-469063D01*
D11*
X223500Y-40500D02*
X246500Y-40500D01*
X246500Y-89500D01*
X223500Y-89500D01*
X223500Y-40500D01*
D12*
X258652Y-76445D02*
X258652Y-78477D01*
X258650Y-78566D01*
X258644Y-78654D01*
X258635Y-78742D01*
X258621Y-78830D01*
X258604Y-78917D01*
X258583Y-79003D01*
X258558Y-79088D01*
X258529Y-79172D01*
X258497Y-79255D01*
X258462Y-79336D01*
X258422Y-79415D01*
X258380Y-79493D01*
X258334Y-79569D01*
X258285Y-79643D01*
X258232Y-79714D01*
X258177Y-79783D01*
X258118Y-79850D01*
X258057Y-79914D01*
X257993Y-79975D01*
X257926Y-80034D01*
X257857Y-80089D01*
X257786Y-80142D01*
X257712Y-80191D01*
X257636Y-80237D01*
X257558Y-80279D01*
X257479Y-80319D01*
X257398Y-80354D01*
X257315Y-80386D01*
X257231Y-80415D01*
X257146Y-80440D01*
X257060Y-80461D01*
X256973Y-80478D01*
X256885Y-80492D01*
X256797Y-80501D01*
X256709Y-80507D01*
X256620Y-80509D01*
X251540Y-80509D01*
X251451Y-80507D01*
X251363Y-80501D01*
X251275Y-80492D01*
X251187Y-80478D01*
X251100Y-80461D01*
X251014Y-80440D01*
X250929Y-80415D01*
X250845Y-80386D01*
X250762Y-80354D01*
X250681Y-80319D01*
X250602Y-80279D01*
X250524Y-80237D01*
X250448Y-80191D01*
X250374Y-80142D01*
X250303Y-80089D01*
X250234Y-80034D01*
X250167Y-79975D01*
X250103Y-79914D01*
X250042Y-79850D01*
X249983Y-79783D01*
X249928Y-79714D01*
X249875Y-79643D01*
X249826Y-79569D01*
X249780Y-79493D01*
X249738Y-79415D01*
X249698Y-79336D01*
X249663Y-79255D01*
X249631Y-79172D01*
X249602Y-79088D01*
X249577Y-79003D01*
X249556Y-78917D01*
X249539Y-78830D01*
X249525Y-78742D01*
X249516Y-78654D01*
X249510Y-78566D01*
X249508Y-78477D01*
X249508Y-76445D01*
X251540Y-72859D02*
X249508Y-70319D01*
X258652Y-70319D01*
X258652Y-72859D02*
X258652Y-67779D01*
X254080Y-63715D02*
X253900Y-63713D01*
X253720Y-63706D01*
X253541Y-63696D01*
X253362Y-63681D01*
X253183Y-63661D01*
X253004Y-63638D01*
X252827Y-63610D01*
X252650Y-63578D01*
X252473Y-63542D01*
X252298Y-63501D01*
X252124Y-63457D01*
X251951Y-63408D01*
X251779Y-63355D01*
X251608Y-63298D01*
X251439Y-63237D01*
X251271Y-63172D01*
X251105Y-63103D01*
X250941Y-63030D01*
X250778Y-62953D01*
X250700Y-62925D01*
X250623Y-62892D01*
X250548Y-62857D01*
X250474Y-62818D01*
X250402Y-62776D01*
X250333Y-62731D01*
X250265Y-62682D01*
X250199Y-62631D01*
X250136Y-62577D01*
X250075Y-62520D01*
X250016Y-62461D01*
X249961Y-62399D01*
X249908Y-62334D01*
X249858Y-62268D01*
X249811Y-62199D01*
X249767Y-62128D01*
X249727Y-62055D01*
X249690Y-61981D01*
X249655Y-61905D01*
X249625Y-61827D01*
X249598Y-61749D01*
X249574Y-61669D01*
X249554Y-61588D01*
X249537Y-61506D01*
X249525Y-61424D01*
X249515Y-61341D01*
X249510Y-61258D01*
X249508Y-61175D01*
X249510Y-61092D01*
X249515Y-61009D01*
X249525Y-60926D01*
X249537Y-60844D01*
X249554Y-60762D01*
X249574Y-60681D01*
X249598Y-60601D01*
X249625Y-60523D01*
X249655Y-60445D01*
X249690Y-60369D01*
X249727Y-60295D01*
X249767Y-60222D01*
X249811Y-60151D01*
X249858Y-60082D01*
X249908Y-60016D01*
X249961Y-59951D01*
X250016Y-59889D01*
X250075Y-59830D01*
X250136Y-59773D01*
X250199Y-59719D01*
X250265Y-59668D01*
X250333Y-59619D01*
X250402Y-59574D01*
X250474Y-59532D01*
X250548Y-59493D01*
X250623Y-59458D01*
X250700Y-59425D01*
X250778Y-59397D01*
X250941Y-59320D01*
X251105Y-59247D01*
X251271Y-59178D01*
X251439Y-59113D01*
X251608Y-59052D01*
X251779Y-58995D01*
X251951Y-58942D01*
X252124Y-58893D01*
X252298Y-58849D01*
X252473Y-58808D01*
X252650Y-58772D01*
X252827Y-58740D01*
X253004Y-58712D01*
X253183Y-58689D01*
X253362Y-58669D01*
X253541Y-58654D01*
X253720Y-58644D01*
X253900Y-58637D01*
X254080Y-58635D01*
X254080Y-63715D02*
X254260Y-63713D01*
X254440Y-63706D01*
X254619Y-63696D01*
X254798Y-63681D01*
X254977Y-63661D01*
X255156Y-63638D01*
X255333Y-63610D01*
X255510Y-63578D01*
X255687Y-63542D01*
X255862Y-63501D01*
X256036Y-63457D01*
X256209Y-63408D01*
X256381Y-63355D01*
X256552Y-63298D01*
X256721Y-63237D01*
X256889Y-63172D01*
X257055Y-63103D01*
X257219Y-63030D01*
X257382Y-62953D01*
X257460Y-62925D01*
X257537Y-62892D01*
X257612Y-62857D01*
X257686Y-62818D01*
X257758Y-62776D01*
X257827Y-62731D01*
X257895Y-62682D01*
X257961Y-62631D01*
X258024Y-62577D01*
X258085Y-62520D01*
X258144Y-62461D01*
X258199Y-62399D01*
X258252Y-62334D01*
X258302Y-62268D01*
X258349Y-62199D01*
X258393Y-62128D01*
X258433Y-62055D01*
X258470Y-61981D01*
X258505Y-61905D01*
X258535Y-61827D01*
X258562Y-61749D01*
X258586Y-61669D01*
X258606Y-61588D01*
X258623Y-61506D01*
X258635Y-61424D01*
X258645Y-61341D01*
X258650Y-61258D01*
X258652Y-61175D01*
X257382Y-59397D02*
X257219Y-59320D01*
X257055Y-59247D01*
X256889Y-59178D01*
X256721Y-59113D01*
X256552Y-59052D01*
X256381Y-58995D01*
X256209Y-58942D01*
X256036Y-58893D01*
X255862Y-58849D01*
X255687Y-58808D01*
X255510Y-58772D01*
X255333Y-58740D01*
X255156Y-58712D01*
X254977Y-58689D01*
X254798Y-58669D01*
X254619Y-58654D01*
X254440Y-58644D01*
X254260Y-58637D01*
X254080Y-58635D01*
X257382Y-59397D02*
X257460Y-59425D01*
X257537Y-59458D01*
X257612Y-59493D01*
X257686Y-59532D01*
X257758Y-59574D01*
X257827Y-59619D01*
X257895Y-59668D01*
X257961Y-59719D01*
X258024Y-59773D01*
X258085Y-59830D01*
X258144Y-59889D01*
X258199Y-59951D01*
X258252Y-60016D01*
X258302Y-60082D01*
X258349Y-60151D01*
X258393Y-60222D01*
X258433Y-60295D01*
X258470Y-60369D01*
X258505Y-60445D01*
X258535Y-60523D01*
X258562Y-60601D01*
X258586Y-60681D01*
X258606Y-60762D01*
X258623Y-60844D01*
X258635Y-60926D01*
X258645Y-61009D01*
X258650Y-61092D01*
X258652Y-61175D01*
X256620Y-63207D02*
X251540Y-59143D01*
X254588Y-52539D02*
X254588Y-49491D01*
X254588Y-52539D02*
X254586Y-52628D01*
X254580Y-52716D01*
X254571Y-52804D01*
X254557Y-52892D01*
X254540Y-52979D01*
X254519Y-53065D01*
X254494Y-53150D01*
X254465Y-53234D01*
X254433Y-53317D01*
X254398Y-53398D01*
X254358Y-53477D01*
X254316Y-53555D01*
X254270Y-53631D01*
X254221Y-53705D01*
X254168Y-53776D01*
X254113Y-53845D01*
X254054Y-53912D01*
X253993Y-53976D01*
X253929Y-54037D01*
X253862Y-54096D01*
X253793Y-54151D01*
X253722Y-54204D01*
X253648Y-54253D01*
X253572Y-54299D01*
X253494Y-54341D01*
X253415Y-54381D01*
X253334Y-54416D01*
X253251Y-54448D01*
X253167Y-54477D01*
X253082Y-54502D01*
X252996Y-54523D01*
X252909Y-54540D01*
X252821Y-54554D01*
X252733Y-54563D01*
X252645Y-54569D01*
X252556Y-54571D01*
X252048Y-54571D01*
X251948Y-54569D01*
X251849Y-54563D01*
X251749Y-54553D01*
X251651Y-54540D01*
X251552Y-54522D01*
X251455Y-54501D01*
X251359Y-54476D01*
X251263Y-54447D01*
X251169Y-54414D01*
X251076Y-54378D01*
X250985Y-54338D01*
X250895Y-54294D01*
X250807Y-54247D01*
X250721Y-54197D01*
X250637Y-54143D01*
X250555Y-54086D01*
X250476Y-54026D01*
X250398Y-53962D01*
X250324Y-53896D01*
X250252Y-53827D01*
X250183Y-53755D01*
X250117Y-53681D01*
X250053Y-53603D01*
X249993Y-53524D01*
X249936Y-53442D01*
X249882Y-53358D01*
X249832Y-53272D01*
X249785Y-53184D01*
X249741Y-53094D01*
X249701Y-53003D01*
X249665Y-52910D01*
X249632Y-52816D01*
X249603Y-52720D01*
X249578Y-52624D01*
X249557Y-52527D01*
X249539Y-52428D01*
X249526Y-52330D01*
X249516Y-52230D01*
X249510Y-52131D01*
X249508Y-52031D01*
X249510Y-51931D01*
X249516Y-51832D01*
X249526Y-51732D01*
X249539Y-51634D01*
X249557Y-51535D01*
X249578Y-51438D01*
X249603Y-51342D01*
X249632Y-51246D01*
X249665Y-51152D01*
X249701Y-51059D01*
X249741Y-50968D01*
X249785Y-50878D01*
X249832Y-50790D01*
X249882Y-50704D01*
X249936Y-50620D01*
X249993Y-50538D01*
X250053Y-50459D01*
X250117Y-50381D01*
X250183Y-50307D01*
X250252Y-50235D01*
X250324Y-50166D01*
X250398Y-50100D01*
X250476Y-50036D01*
X250555Y-49976D01*
X250637Y-49919D01*
X250721Y-49865D01*
X250807Y-49815D01*
X250895Y-49768D01*
X250985Y-49724D01*
X251076Y-49684D01*
X251169Y-49648D01*
X251263Y-49615D01*
X251359Y-49586D01*
X251455Y-49561D01*
X251552Y-49540D01*
X251651Y-49522D01*
X251749Y-49509D01*
X251849Y-49499D01*
X251948Y-49493D01*
X252048Y-49491D01*
X254588Y-49491D01*
X254713Y-49493D01*
X254838Y-49499D01*
X254963Y-49508D01*
X255087Y-49522D01*
X255211Y-49539D01*
X255335Y-49560D01*
X255457Y-49585D01*
X255579Y-49614D01*
X255700Y-49646D01*
X255820Y-49682D01*
X255939Y-49722D01*
X256056Y-49765D01*
X256172Y-49812D01*
X256287Y-49863D01*
X256399Y-49917D01*
X256511Y-49975D01*
X256620Y-50035D01*
X256727Y-50100D01*
X256833Y-50167D01*
X256936Y-50238D01*
X257037Y-50312D01*
X257136Y-50389D01*
X257232Y-50469D01*
X257326Y-50552D01*
X257417Y-50637D01*
X257506Y-50726D01*
X257591Y-50817D01*
X257674Y-50911D01*
X257754Y-51007D01*
X257831Y-51106D01*
X257905Y-51207D01*
X257976Y-51310D01*
X258043Y-51416D01*
X258108Y-51523D01*
X258168Y-51632D01*
X258226Y-51744D01*
X258280Y-51856D01*
X258331Y-51971D01*
X258378Y-52087D01*
X258421Y-52204D01*
X258461Y-52323D01*
X258497Y-52443D01*
X258529Y-52564D01*
X258558Y-52686D01*
X258583Y-52808D01*
X258604Y-52932D01*
X258621Y-53056D01*
X258635Y-53180D01*
X258644Y-53305D01*
X258650Y-53430D01*
X258652Y-53555D01*
D11*
X-223500Y79500D02*
X-246500Y79500D01*
X-223500Y79500D02*
X-223500Y30500D01*
X-246500Y30500D01*
X-246500Y79500D01*
D12*
X-249508Y43555D02*
X-249508Y41523D01*
X-249510Y41434D01*
X-249516Y41346D01*
X-249525Y41258D01*
X-249539Y41170D01*
X-249556Y41083D01*
X-249577Y40997D01*
X-249602Y40912D01*
X-249631Y40828D01*
X-249663Y40745D01*
X-249698Y40664D01*
X-249738Y40585D01*
X-249780Y40507D01*
X-249826Y40431D01*
X-249875Y40357D01*
X-249928Y40286D01*
X-249983Y40217D01*
X-250042Y40150D01*
X-250103Y40086D01*
X-250167Y40025D01*
X-250234Y39966D01*
X-250303Y39911D01*
X-250374Y39858D01*
X-250448Y39809D01*
X-250524Y39763D01*
X-250602Y39721D01*
X-250681Y39681D01*
X-250762Y39646D01*
X-250845Y39614D01*
X-250929Y39585D01*
X-251014Y39560D01*
X-251100Y39539D01*
X-251187Y39522D01*
X-251275Y39508D01*
X-251363Y39499D01*
X-251451Y39493D01*
X-251540Y39491D01*
X-256620Y39491D01*
X-256709Y39493D01*
X-256797Y39499D01*
X-256885Y39508D01*
X-256973Y39522D01*
X-257060Y39539D01*
X-257146Y39560D01*
X-257231Y39585D01*
X-257315Y39614D01*
X-257398Y39646D01*
X-257479Y39681D01*
X-257558Y39721D01*
X-257636Y39763D01*
X-257712Y39809D01*
X-257786Y39858D01*
X-257857Y39911D01*
X-257926Y39966D01*
X-257993Y40025D01*
X-258057Y40086D01*
X-258118Y40150D01*
X-258177Y40217D01*
X-258232Y40286D01*
X-258285Y40357D01*
X-258334Y40431D01*
X-258380Y40507D01*
X-258422Y40585D01*
X-258462Y40664D01*
X-258497Y40745D01*
X-258529Y40828D01*
X-258558Y40912D01*
X-258583Y40997D01*
X-258604Y41083D01*
X-258621Y41170D01*
X-258635Y41258D01*
X-258644Y41346D01*
X-258650Y41434D01*
X-258652Y41523D01*
X-258652Y43555D01*
X-256620Y47141D02*
X-258652Y49681D01*
X-249508Y49681D01*
X-249508Y47141D02*
X-249508Y52221D01*
X-256620Y56285D02*
X-258652Y58825D01*
X-249508Y58825D01*
X-249508Y56285D02*
X-249508Y61365D01*
X-254080Y65429D02*
X-254260Y65431D01*
X-254440Y65438D01*
X-254619Y65448D01*
X-254798Y65463D01*
X-254977Y65483D01*
X-255156Y65506D01*
X-255333Y65534D01*
X-255510Y65566D01*
X-255687Y65602D01*
X-255862Y65643D01*
X-256036Y65687D01*
X-256209Y65736D01*
X-256381Y65789D01*
X-256552Y65846D01*
X-256721Y65907D01*
X-256889Y65972D01*
X-257055Y66041D01*
X-257219Y66114D01*
X-257382Y66191D01*
X-257460Y66219D01*
X-257537Y66252D01*
X-257612Y66287D01*
X-257686Y66326D01*
X-257758Y66368D01*
X-257827Y66413D01*
X-257895Y66462D01*
X-257961Y66513D01*
X-258024Y66567D01*
X-258085Y66624D01*
X-258144Y66683D01*
X-258199Y66745D01*
X-258252Y66810D01*
X-258302Y66876D01*
X-258349Y66945D01*
X-258393Y67016D01*
X-258433Y67089D01*
X-258470Y67163D01*
X-258505Y67239D01*
X-258535Y67317D01*
X-258562Y67395D01*
X-258586Y67475D01*
X-258606Y67556D01*
X-258623Y67638D01*
X-258635Y67720D01*
X-258645Y67803D01*
X-258650Y67886D01*
X-258652Y67969D01*
X-258650Y68052D01*
X-258645Y68135D01*
X-258635Y68218D01*
X-258623Y68300D01*
X-258606Y68382D01*
X-258586Y68463D01*
X-258562Y68543D01*
X-258535Y68621D01*
X-258505Y68699D01*
X-258470Y68775D01*
X-258433Y68849D01*
X-258393Y68922D01*
X-258349Y68993D01*
X-258302Y69062D01*
X-258252Y69128D01*
X-258199Y69193D01*
X-258144Y69255D01*
X-258085Y69314D01*
X-258024Y69371D01*
X-257961Y69425D01*
X-257895Y69476D01*
X-257827Y69525D01*
X-257758Y69570D01*
X-257686Y69612D01*
X-257612Y69651D01*
X-257537Y69686D01*
X-257460Y69719D01*
X-257382Y69747D01*
X-257219Y69824D01*
X-257055Y69897D01*
X-256889Y69966D01*
X-256721Y70031D01*
X-256552Y70092D01*
X-256381Y70149D01*
X-256209Y70202D01*
X-256036Y70251D01*
X-255862Y70295D01*
X-255687Y70336D01*
X-255510Y70372D01*
X-255333Y70404D01*
X-255156Y70432D01*
X-254977Y70455D01*
X-254798Y70475D01*
X-254619Y70490D01*
X-254440Y70500D01*
X-254260Y70507D01*
X-254080Y70509D01*
X-254080Y65429D02*
X-253900Y65431D01*
X-253720Y65438D01*
X-253541Y65448D01*
X-253362Y65463D01*
X-253183Y65483D01*
X-253004Y65506D01*
X-252827Y65534D01*
X-252650Y65566D01*
X-252473Y65602D01*
X-252298Y65643D01*
X-252124Y65687D01*
X-251951Y65736D01*
X-251779Y65789D01*
X-251608Y65846D01*
X-251439Y65907D01*
X-251271Y65972D01*
X-251105Y66041D01*
X-250941Y66114D01*
X-250778Y66191D01*
X-250700Y66219D01*
X-250623Y66252D01*
X-250548Y66287D01*
X-250474Y66326D01*
X-250402Y66368D01*
X-250333Y66413D01*
X-250265Y66462D01*
X-250199Y66513D01*
X-250136Y66567D01*
X-250075Y66624D01*
X-250016Y66683D01*
X-249961Y66745D01*
X-249908Y66810D01*
X-249858Y66876D01*
X-249811Y66945D01*
X-249767Y67016D01*
X-249727Y67089D01*
X-249690Y67163D01*
X-249655Y67239D01*
X-249625Y67317D01*
X-249598Y67395D01*
X-249574Y67475D01*
X-249554Y67556D01*
X-249537Y67638D01*
X-249525Y67720D01*
X-249515Y67803D01*
X-249510Y67886D01*
X-249508Y67969D01*
X-250778Y69747D02*
X-250941Y69824D01*
X-251105Y69897D01*
X-251271Y69966D01*
X-251439Y70031D01*
X-251608Y70092D01*
X-251779Y70149D01*
X-251951Y70202D01*
X-252124Y70251D01*
X-252298Y70295D01*
X-252473Y70336D01*
X-252650Y70372D01*
X-252827Y70404D01*
X-253004Y70432D01*
X-253183Y70455D01*
X-253362Y70475D01*
X-253541Y70490D01*
X-253720Y70500D01*
X-253900Y70507D01*
X-254080Y70509D01*
X-250778Y69747D02*
X-250700Y69719D01*
X-250623Y69686D01*
X-250548Y69651D01*
X-250474Y69612D01*
X-250402Y69570D01*
X-250333Y69525D01*
X-250265Y69476D01*
X-250199Y69425D01*
X-250136Y69371D01*
X-250075Y69314D01*
X-250016Y69255D01*
X-249961Y69193D01*
X-249908Y69128D01*
X-249858Y69062D01*
X-249811Y68993D01*
X-249767Y68922D01*
X-249727Y68849D01*
X-249690Y68775D01*
X-249655Y68699D01*
X-249625Y68621D01*
X-249598Y68543D01*
X-249574Y68463D01*
X-249554Y68382D01*
X-249537Y68300D01*
X-249525Y68218D01*
X-249515Y68135D01*
X-249510Y68052D01*
X-249508Y67969D01*
X-251540Y65937D02*
X-256620Y70001D01*
M02*
