G04 EAGLE Gerber RS-274X export*
G75*
%MOMM*%
%FSLAX34Y34*%
%LPD*%
%INSoldermask Bottom*%
%IPPOS*%
%AMOC8*
5,1,8,0,0,1.08239X$1,22.5*%
G01*
%ADD10C,5.100000*%
%ADD11C,3.300000*%
%ADD12C,0.300000*%
%ADD13C,1.200000*%
%ADD14C,1.750000*%
%ADD15C,0.301000*%
%ADD16C,0.605000*%


D10*
X-520230Y-597210D03*
D11*
X-576799Y-540641D03*
D10*
X535000Y600000D03*
D11*
X591569Y543431D03*
D10*
X-535000Y600000D03*
D11*
X-591569Y543431D03*
D10*
X520230Y-597210D03*
D11*
X576799Y-540641D03*
D12*
X624000Y443500D02*
X640000Y443500D01*
X640000Y436500D01*
X624000Y436500D01*
X624000Y443500D01*
X624000Y439350D02*
X640000Y439350D01*
X640000Y442200D02*
X624000Y442200D01*
X576000Y443500D02*
X560000Y443500D01*
X576000Y443500D02*
X576000Y436500D01*
X560000Y436500D01*
X560000Y443500D01*
X560000Y439350D02*
X576000Y439350D01*
X576000Y442200D02*
X560000Y442200D01*
X624000Y418100D02*
X640000Y418100D01*
X640000Y411100D01*
X624000Y411100D01*
X624000Y418100D01*
X624000Y413950D02*
X640000Y413950D01*
X640000Y416800D02*
X624000Y416800D01*
X576000Y418100D02*
X560000Y418100D01*
X576000Y418100D02*
X576000Y411100D01*
X560000Y411100D01*
X560000Y418100D01*
X560000Y413950D02*
X576000Y413950D01*
X576000Y416800D02*
X560000Y416800D01*
D13*
X587300Y440000D03*
X612700Y440000D03*
X587300Y414600D03*
X612700Y414600D03*
D12*
X576000Y176500D02*
X560000Y176500D01*
X560000Y183500D01*
X576000Y183500D01*
X576000Y176500D01*
X576000Y179350D02*
X560000Y179350D01*
X560000Y182200D02*
X576000Y182200D01*
X624000Y176500D02*
X640000Y176500D01*
X624000Y176500D02*
X624000Y183500D01*
X640000Y183500D01*
X640000Y176500D01*
X640000Y179350D02*
X624000Y179350D01*
X624000Y182200D02*
X640000Y182200D01*
X576000Y201900D02*
X560000Y201900D01*
X560000Y208900D01*
X576000Y208900D01*
X576000Y201900D01*
X576000Y204750D02*
X560000Y204750D01*
X560000Y207600D02*
X576000Y207600D01*
X624000Y201900D02*
X640000Y201900D01*
X624000Y201900D02*
X624000Y208900D01*
X640000Y208900D01*
X640000Y201900D01*
X640000Y204750D02*
X624000Y204750D01*
X624000Y207600D02*
X640000Y207600D01*
D13*
X612700Y180000D03*
X587300Y180000D03*
X612700Y205400D03*
X587300Y205400D03*
D12*
X624000Y133500D02*
X640000Y133500D01*
X640000Y126500D01*
X624000Y126500D01*
X624000Y133500D01*
X624000Y129350D02*
X640000Y129350D01*
X640000Y132200D02*
X624000Y132200D01*
X576000Y133500D02*
X560000Y133500D01*
X576000Y133500D02*
X576000Y126500D01*
X560000Y126500D01*
X560000Y133500D01*
X560000Y129350D02*
X576000Y129350D01*
X576000Y132200D02*
X560000Y132200D01*
X624000Y108100D02*
X640000Y108100D01*
X640000Y101100D01*
X624000Y101100D01*
X624000Y108100D01*
X624000Y103950D02*
X640000Y103950D01*
X640000Y106800D02*
X624000Y106800D01*
X576000Y108100D02*
X560000Y108100D01*
X576000Y108100D02*
X576000Y101100D01*
X560000Y101100D01*
X560000Y108100D01*
X560000Y103950D02*
X576000Y103950D01*
X576000Y106800D02*
X560000Y106800D01*
D13*
X587300Y130000D03*
X612700Y130000D03*
X587300Y104600D03*
X612700Y104600D03*
D12*
X576000Y-133500D02*
X560000Y-133500D01*
X560000Y-126500D01*
X576000Y-126500D01*
X576000Y-133500D01*
X576000Y-130650D02*
X560000Y-130650D01*
X560000Y-127800D02*
X576000Y-127800D01*
X624000Y-133500D02*
X640000Y-133500D01*
X624000Y-133500D02*
X624000Y-126500D01*
X640000Y-126500D01*
X640000Y-133500D01*
X640000Y-130650D02*
X624000Y-130650D01*
X624000Y-127800D02*
X640000Y-127800D01*
X576000Y-108100D02*
X560000Y-108100D01*
X560000Y-101100D01*
X576000Y-101100D01*
X576000Y-108100D01*
X576000Y-105250D02*
X560000Y-105250D01*
X560000Y-102400D02*
X576000Y-102400D01*
X624000Y-108100D02*
X640000Y-108100D01*
X624000Y-108100D02*
X624000Y-101100D01*
X640000Y-101100D01*
X640000Y-108100D01*
X640000Y-105250D02*
X624000Y-105250D01*
X624000Y-102400D02*
X640000Y-102400D01*
D13*
X612700Y-130000D03*
X587300Y-130000D03*
X612700Y-104600D03*
X587300Y-104600D03*
D12*
X624000Y-176500D02*
X640000Y-176500D01*
X640000Y-183500D01*
X624000Y-183500D01*
X624000Y-176500D01*
X624000Y-180650D02*
X640000Y-180650D01*
X640000Y-177800D02*
X624000Y-177800D01*
X576000Y-176500D02*
X560000Y-176500D01*
X576000Y-176500D02*
X576000Y-183500D01*
X560000Y-183500D01*
X560000Y-176500D01*
X560000Y-180650D02*
X576000Y-180650D01*
X576000Y-177800D02*
X560000Y-177800D01*
X624000Y-201900D02*
X640000Y-201900D01*
X640000Y-208900D01*
X624000Y-208900D01*
X624000Y-201900D01*
X624000Y-206050D02*
X640000Y-206050D01*
X640000Y-203200D02*
X624000Y-203200D01*
X576000Y-201900D02*
X560000Y-201900D01*
X576000Y-201900D02*
X576000Y-208900D01*
X560000Y-208900D01*
X560000Y-201900D01*
X560000Y-206050D02*
X576000Y-206050D01*
X576000Y-203200D02*
X560000Y-203200D01*
D13*
X587300Y-180000D03*
X612700Y-180000D03*
X587300Y-205400D03*
X612700Y-205400D03*
D12*
X576000Y-443500D02*
X560000Y-443500D01*
X560000Y-436500D01*
X576000Y-436500D01*
X576000Y-443500D01*
X576000Y-440650D02*
X560000Y-440650D01*
X560000Y-437800D02*
X576000Y-437800D01*
X624000Y-443500D02*
X640000Y-443500D01*
X624000Y-443500D02*
X624000Y-436500D01*
X640000Y-436500D01*
X640000Y-443500D01*
X640000Y-440650D02*
X624000Y-440650D01*
X624000Y-437800D02*
X640000Y-437800D01*
X576000Y-418100D02*
X560000Y-418100D01*
X560000Y-411100D01*
X576000Y-411100D01*
X576000Y-418100D01*
X576000Y-415250D02*
X560000Y-415250D01*
X560000Y-412400D02*
X576000Y-412400D01*
X624000Y-418100D02*
X640000Y-418100D01*
X624000Y-418100D02*
X624000Y-411100D01*
X640000Y-411100D01*
X640000Y-418100D01*
X640000Y-415250D02*
X624000Y-415250D01*
X624000Y-412400D02*
X640000Y-412400D01*
D13*
X612700Y-440000D03*
X587300Y-440000D03*
X612700Y-414600D03*
X587300Y-414600D03*
D12*
X-624000Y-443500D02*
X-640000Y-443500D01*
X-640000Y-436500D01*
X-624000Y-436500D01*
X-624000Y-443500D01*
X-624000Y-440650D02*
X-640000Y-440650D01*
X-640000Y-437800D02*
X-624000Y-437800D01*
X-576000Y-443500D02*
X-560000Y-443500D01*
X-576000Y-443500D02*
X-576000Y-436500D01*
X-560000Y-436500D01*
X-560000Y-443500D01*
X-560000Y-440650D02*
X-576000Y-440650D01*
X-576000Y-437800D02*
X-560000Y-437800D01*
X-624000Y-418100D02*
X-640000Y-418100D01*
X-640000Y-411100D01*
X-624000Y-411100D01*
X-624000Y-418100D01*
X-624000Y-415250D02*
X-640000Y-415250D01*
X-640000Y-412400D02*
X-624000Y-412400D01*
X-576000Y-418100D02*
X-560000Y-418100D01*
X-576000Y-418100D02*
X-576000Y-411100D01*
X-560000Y-411100D01*
X-560000Y-418100D01*
X-560000Y-415250D02*
X-576000Y-415250D01*
X-576000Y-412400D02*
X-560000Y-412400D01*
D13*
X-587300Y-440000D03*
X-612700Y-440000D03*
X-587300Y-414600D03*
X-612700Y-414600D03*
D12*
X-576000Y-176500D02*
X-560000Y-176500D01*
X-560000Y-183500D01*
X-576000Y-183500D01*
X-576000Y-176500D01*
X-576000Y-180650D02*
X-560000Y-180650D01*
X-560000Y-177800D02*
X-576000Y-177800D01*
X-624000Y-176500D02*
X-640000Y-176500D01*
X-624000Y-176500D02*
X-624000Y-183500D01*
X-640000Y-183500D01*
X-640000Y-176500D01*
X-640000Y-180650D02*
X-624000Y-180650D01*
X-624000Y-177800D02*
X-640000Y-177800D01*
X-576000Y-201900D02*
X-560000Y-201900D01*
X-560000Y-208900D01*
X-576000Y-208900D01*
X-576000Y-201900D01*
X-576000Y-206050D02*
X-560000Y-206050D01*
X-560000Y-203200D02*
X-576000Y-203200D01*
X-624000Y-201900D02*
X-640000Y-201900D01*
X-624000Y-201900D02*
X-624000Y-208900D01*
X-640000Y-208900D01*
X-640000Y-201900D01*
X-640000Y-206050D02*
X-624000Y-206050D01*
X-624000Y-203200D02*
X-640000Y-203200D01*
D13*
X-612700Y-180000D03*
X-587300Y-180000D03*
X-612700Y-205400D03*
X-587300Y-205400D03*
D12*
X-624000Y-133500D02*
X-640000Y-133500D01*
X-640000Y-126500D01*
X-624000Y-126500D01*
X-624000Y-133500D01*
X-624000Y-130650D02*
X-640000Y-130650D01*
X-640000Y-127800D02*
X-624000Y-127800D01*
X-576000Y-133500D02*
X-560000Y-133500D01*
X-576000Y-133500D02*
X-576000Y-126500D01*
X-560000Y-126500D01*
X-560000Y-133500D01*
X-560000Y-130650D02*
X-576000Y-130650D01*
X-576000Y-127800D02*
X-560000Y-127800D01*
X-624000Y-108100D02*
X-640000Y-108100D01*
X-640000Y-101100D01*
X-624000Y-101100D01*
X-624000Y-108100D01*
X-624000Y-105250D02*
X-640000Y-105250D01*
X-640000Y-102400D02*
X-624000Y-102400D01*
X-576000Y-108100D02*
X-560000Y-108100D01*
X-576000Y-108100D02*
X-576000Y-101100D01*
X-560000Y-101100D01*
X-560000Y-108100D01*
X-560000Y-105250D02*
X-576000Y-105250D01*
X-576000Y-102400D02*
X-560000Y-102400D01*
D13*
X-587300Y-130000D03*
X-612700Y-130000D03*
X-587300Y-104600D03*
X-612700Y-104600D03*
D12*
X-576000Y133500D02*
X-560000Y133500D01*
X-560000Y126500D01*
X-576000Y126500D01*
X-576000Y133500D01*
X-576000Y129350D02*
X-560000Y129350D01*
X-560000Y132200D02*
X-576000Y132200D01*
X-624000Y133500D02*
X-640000Y133500D01*
X-624000Y133500D02*
X-624000Y126500D01*
X-640000Y126500D01*
X-640000Y133500D01*
X-640000Y129350D02*
X-624000Y129350D01*
X-624000Y132200D02*
X-640000Y132200D01*
X-576000Y108100D02*
X-560000Y108100D01*
X-560000Y101100D01*
X-576000Y101100D01*
X-576000Y108100D01*
X-576000Y103950D02*
X-560000Y103950D01*
X-560000Y106800D02*
X-576000Y106800D01*
X-624000Y108100D02*
X-640000Y108100D01*
X-624000Y108100D02*
X-624000Y101100D01*
X-640000Y101100D01*
X-640000Y108100D01*
X-640000Y103950D02*
X-624000Y103950D01*
X-624000Y106800D02*
X-640000Y106800D01*
D13*
X-612700Y130000D03*
X-587300Y130000D03*
X-612700Y104600D03*
X-587300Y104600D03*
D12*
X-624000Y176500D02*
X-640000Y176500D01*
X-640000Y183500D01*
X-624000Y183500D01*
X-624000Y176500D01*
X-624000Y179350D02*
X-640000Y179350D01*
X-640000Y182200D02*
X-624000Y182200D01*
X-576000Y176500D02*
X-560000Y176500D01*
X-576000Y176500D02*
X-576000Y183500D01*
X-560000Y183500D01*
X-560000Y176500D01*
X-560000Y179350D02*
X-576000Y179350D01*
X-576000Y182200D02*
X-560000Y182200D01*
X-624000Y201900D02*
X-640000Y201900D01*
X-640000Y208900D01*
X-624000Y208900D01*
X-624000Y201900D01*
X-624000Y204750D02*
X-640000Y204750D01*
X-640000Y207600D02*
X-624000Y207600D01*
X-576000Y201900D02*
X-560000Y201900D01*
X-576000Y201900D02*
X-576000Y208900D01*
X-560000Y208900D01*
X-560000Y201900D01*
X-560000Y204750D02*
X-576000Y204750D01*
X-576000Y207600D02*
X-560000Y207600D01*
D13*
X-587300Y180000D03*
X-612700Y180000D03*
X-587300Y205400D03*
X-612700Y205400D03*
D12*
X-576000Y443500D02*
X-560000Y443500D01*
X-560000Y436500D01*
X-576000Y436500D01*
X-576000Y443500D01*
X-576000Y439350D02*
X-560000Y439350D01*
X-560000Y442200D02*
X-576000Y442200D01*
X-624000Y443500D02*
X-640000Y443500D01*
X-624000Y443500D02*
X-624000Y436500D01*
X-640000Y436500D01*
X-640000Y443500D01*
X-640000Y439350D02*
X-624000Y439350D01*
X-624000Y442200D02*
X-640000Y442200D01*
X-576000Y418100D02*
X-560000Y418100D01*
X-560000Y411100D01*
X-576000Y411100D01*
X-576000Y418100D01*
X-576000Y413950D02*
X-560000Y413950D01*
X-560000Y416800D02*
X-576000Y416800D01*
X-624000Y418100D02*
X-640000Y418100D01*
X-624000Y418100D02*
X-624000Y411100D01*
X-640000Y411100D01*
X-640000Y418100D01*
X-640000Y413950D02*
X-624000Y413950D01*
X-624000Y416800D02*
X-640000Y416800D01*
D13*
X-612700Y440000D03*
X-587300Y440000D03*
X-612700Y414600D03*
X-587300Y414600D03*
D12*
X-133500Y390000D02*
X-133500Y374000D01*
X-133500Y390000D02*
X-126500Y390000D01*
X-126500Y374000D01*
X-133500Y374000D01*
X-133500Y376850D02*
X-126500Y376850D01*
X-126500Y379700D02*
X-133500Y379700D01*
X-133500Y382550D02*
X-126500Y382550D01*
X-126500Y385400D02*
X-133500Y385400D01*
X-133500Y388250D02*
X-126500Y388250D01*
X-133500Y326000D02*
X-133500Y310000D01*
X-133500Y326000D02*
X-126500Y326000D01*
X-126500Y310000D01*
X-133500Y310000D01*
X-133500Y312850D02*
X-126500Y312850D01*
X-126500Y315700D02*
X-133500Y315700D01*
X-133500Y318550D02*
X-126500Y318550D01*
X-126500Y321400D02*
X-133500Y321400D01*
X-133500Y324250D02*
X-126500Y324250D01*
X-108100Y374000D02*
X-108100Y390000D01*
X-101100Y390000D01*
X-101100Y374000D01*
X-108100Y374000D01*
X-108100Y376850D02*
X-101100Y376850D01*
X-101100Y379700D02*
X-108100Y379700D01*
X-108100Y382550D02*
X-101100Y382550D01*
X-101100Y385400D02*
X-108100Y385400D01*
X-108100Y388250D02*
X-101100Y388250D01*
X-108100Y326000D02*
X-108100Y310000D01*
X-108100Y326000D02*
X-101100Y326000D01*
X-101100Y310000D01*
X-108100Y310000D01*
X-108100Y312850D02*
X-101100Y312850D01*
X-101100Y315700D02*
X-108100Y315700D01*
X-108100Y318550D02*
X-101100Y318550D01*
X-101100Y321400D02*
X-108100Y321400D01*
X-108100Y324250D02*
X-101100Y324250D01*
D13*
X-130000Y337300D03*
X-130000Y362700D03*
X-104600Y337300D03*
X-104600Y362700D03*
D12*
X133500Y326000D02*
X133500Y310000D01*
X126500Y310000D01*
X126500Y326000D01*
X133500Y326000D01*
X133500Y312850D02*
X126500Y312850D01*
X126500Y315700D02*
X133500Y315700D01*
X133500Y318550D02*
X126500Y318550D01*
X126500Y321400D02*
X133500Y321400D01*
X133500Y324250D02*
X126500Y324250D01*
X133500Y374000D02*
X133500Y390000D01*
X133500Y374000D02*
X126500Y374000D01*
X126500Y390000D01*
X133500Y390000D01*
X133500Y376850D02*
X126500Y376850D01*
X126500Y379700D02*
X133500Y379700D01*
X133500Y382550D02*
X126500Y382550D01*
X126500Y385400D02*
X133500Y385400D01*
X133500Y388250D02*
X126500Y388250D01*
X108100Y326000D02*
X108100Y310000D01*
X101100Y310000D01*
X101100Y326000D01*
X108100Y326000D01*
X108100Y312850D02*
X101100Y312850D01*
X101100Y315700D02*
X108100Y315700D01*
X108100Y318550D02*
X101100Y318550D01*
X101100Y321400D02*
X108100Y321400D01*
X108100Y324250D02*
X101100Y324250D01*
X108100Y374000D02*
X108100Y390000D01*
X108100Y374000D02*
X101100Y374000D01*
X101100Y390000D01*
X108100Y390000D01*
X108100Y376850D02*
X101100Y376850D01*
X101100Y379700D02*
X108100Y379700D01*
X108100Y382550D02*
X101100Y382550D01*
X101100Y385400D02*
X108100Y385400D01*
X108100Y388250D02*
X101100Y388250D01*
D13*
X130000Y362700D03*
X130000Y337300D03*
X104600Y362700D03*
X104600Y337300D03*
D11*
X400000Y650000D03*
X-400000Y650000D03*
X200000Y-250000D03*
X-200000Y-250000D03*
D12*
X374000Y-217600D02*
X390000Y-217600D01*
X390000Y-224600D01*
X374000Y-224600D01*
X374000Y-217600D01*
X374000Y-221750D02*
X390000Y-221750D01*
X390000Y-218900D02*
X374000Y-218900D01*
X326000Y-217600D02*
X310000Y-217600D01*
X326000Y-217600D02*
X326000Y-224600D01*
X310000Y-224600D01*
X310000Y-217600D01*
X310000Y-221750D02*
X326000Y-221750D01*
X326000Y-218900D02*
X310000Y-218900D01*
X374000Y-243000D02*
X390000Y-243000D01*
X390000Y-250000D01*
X374000Y-250000D01*
X374000Y-243000D01*
X374000Y-247150D02*
X390000Y-247150D01*
X390000Y-244300D02*
X374000Y-244300D01*
X326000Y-243000D02*
X310000Y-243000D01*
X326000Y-243000D02*
X326000Y-250000D01*
X310000Y-250000D01*
X310000Y-243000D01*
X310000Y-247150D02*
X326000Y-247150D01*
X326000Y-244300D02*
X310000Y-244300D01*
X374000Y-268400D02*
X390000Y-268400D01*
X390000Y-275400D01*
X374000Y-275400D01*
X374000Y-268400D01*
X374000Y-272550D02*
X390000Y-272550D01*
X390000Y-269700D02*
X374000Y-269700D01*
X326000Y-268400D02*
X310000Y-268400D01*
X326000Y-268400D02*
X326000Y-275400D01*
X310000Y-275400D01*
X310000Y-268400D01*
X310000Y-272550D02*
X326000Y-272550D01*
X326000Y-269700D02*
X310000Y-269700D01*
X374000Y-293800D02*
X390000Y-293800D01*
X390000Y-300800D01*
X374000Y-300800D01*
X374000Y-293800D01*
X374000Y-297950D02*
X390000Y-297950D01*
X390000Y-295100D02*
X374000Y-295100D01*
X326000Y-293800D02*
X310000Y-293800D01*
X326000Y-293800D02*
X326000Y-300800D01*
X310000Y-300800D01*
X310000Y-293800D01*
X310000Y-297950D02*
X326000Y-297950D01*
X326000Y-295100D02*
X310000Y-295100D01*
X374000Y-319200D02*
X390000Y-319200D01*
X390000Y-326200D01*
X374000Y-326200D01*
X374000Y-319200D01*
X374000Y-323350D02*
X390000Y-323350D01*
X390000Y-320500D02*
X374000Y-320500D01*
X326000Y-319200D02*
X310000Y-319200D01*
X326000Y-319200D02*
X326000Y-326200D01*
X310000Y-326200D01*
X310000Y-319200D01*
X310000Y-323350D02*
X326000Y-323350D01*
X326000Y-320500D02*
X310000Y-320500D01*
X374000Y-344600D02*
X390000Y-344600D01*
X390000Y-351600D01*
X374000Y-351600D01*
X374000Y-344600D01*
X374000Y-348750D02*
X390000Y-348750D01*
X390000Y-345900D02*
X374000Y-345900D01*
X326000Y-344600D02*
X310000Y-344600D01*
X326000Y-344600D02*
X326000Y-351600D01*
X310000Y-351600D01*
X310000Y-344600D01*
X310000Y-348750D02*
X326000Y-348750D01*
X326000Y-345900D02*
X310000Y-345900D01*
X374000Y-370000D02*
X390000Y-370000D01*
X390000Y-377000D01*
X374000Y-377000D01*
X374000Y-370000D01*
X374000Y-374150D02*
X390000Y-374150D01*
X390000Y-371300D02*
X374000Y-371300D01*
X326000Y-370000D02*
X310000Y-370000D01*
X326000Y-370000D02*
X326000Y-377000D01*
X310000Y-377000D01*
X310000Y-370000D01*
X310000Y-374150D02*
X326000Y-374150D01*
X326000Y-371300D02*
X310000Y-371300D01*
X374000Y-395400D02*
X390000Y-395400D01*
X390000Y-402400D01*
X374000Y-402400D01*
X374000Y-395400D01*
X374000Y-399550D02*
X390000Y-399550D01*
X390000Y-396700D02*
X374000Y-396700D01*
X326000Y-395400D02*
X310000Y-395400D01*
X326000Y-395400D02*
X326000Y-402400D01*
X310000Y-402400D01*
X310000Y-395400D01*
X310000Y-399550D02*
X326000Y-399550D01*
X326000Y-396700D02*
X310000Y-396700D01*
D13*
X337300Y-221100D03*
X337300Y-246500D03*
X362700Y-246500D03*
X362700Y-221100D03*
X337300Y-271900D03*
X362700Y-271900D03*
X337300Y-297300D03*
X362700Y-297300D03*
X362700Y-322700D03*
X337300Y-322700D03*
X337300Y-348100D03*
X362700Y-348100D03*
X362700Y-373500D03*
X337300Y-373500D03*
X337300Y-398900D03*
X362700Y-398900D03*
D12*
X-374000Y-402400D02*
X-390000Y-402400D01*
X-390000Y-395400D01*
X-374000Y-395400D01*
X-374000Y-402400D01*
X-374000Y-399550D02*
X-390000Y-399550D01*
X-390000Y-396700D02*
X-374000Y-396700D01*
X-326000Y-402400D02*
X-310000Y-402400D01*
X-326000Y-402400D02*
X-326000Y-395400D01*
X-310000Y-395400D01*
X-310000Y-402400D01*
X-310000Y-399550D02*
X-326000Y-399550D01*
X-326000Y-396700D02*
X-310000Y-396700D01*
X-374000Y-377000D02*
X-390000Y-377000D01*
X-390000Y-370000D01*
X-374000Y-370000D01*
X-374000Y-377000D01*
X-374000Y-374150D02*
X-390000Y-374150D01*
X-390000Y-371300D02*
X-374000Y-371300D01*
X-326000Y-377000D02*
X-310000Y-377000D01*
X-326000Y-377000D02*
X-326000Y-370000D01*
X-310000Y-370000D01*
X-310000Y-377000D01*
X-310000Y-374150D02*
X-326000Y-374150D01*
X-326000Y-371300D02*
X-310000Y-371300D01*
X-374000Y-351600D02*
X-390000Y-351600D01*
X-390000Y-344600D01*
X-374000Y-344600D01*
X-374000Y-351600D01*
X-374000Y-348750D02*
X-390000Y-348750D01*
X-390000Y-345900D02*
X-374000Y-345900D01*
X-326000Y-351600D02*
X-310000Y-351600D01*
X-326000Y-351600D02*
X-326000Y-344600D01*
X-310000Y-344600D01*
X-310000Y-351600D01*
X-310000Y-348750D02*
X-326000Y-348750D01*
X-326000Y-345900D02*
X-310000Y-345900D01*
X-374000Y-326200D02*
X-390000Y-326200D01*
X-390000Y-319200D01*
X-374000Y-319200D01*
X-374000Y-326200D01*
X-374000Y-323350D02*
X-390000Y-323350D01*
X-390000Y-320500D02*
X-374000Y-320500D01*
X-326000Y-326200D02*
X-310000Y-326200D01*
X-326000Y-326200D02*
X-326000Y-319200D01*
X-310000Y-319200D01*
X-310000Y-326200D01*
X-310000Y-323350D02*
X-326000Y-323350D01*
X-326000Y-320500D02*
X-310000Y-320500D01*
X-374000Y-300800D02*
X-390000Y-300800D01*
X-390000Y-293800D01*
X-374000Y-293800D01*
X-374000Y-300800D01*
X-374000Y-297950D02*
X-390000Y-297950D01*
X-390000Y-295100D02*
X-374000Y-295100D01*
X-326000Y-300800D02*
X-310000Y-300800D01*
X-326000Y-300800D02*
X-326000Y-293800D01*
X-310000Y-293800D01*
X-310000Y-300800D01*
X-310000Y-297950D02*
X-326000Y-297950D01*
X-326000Y-295100D02*
X-310000Y-295100D01*
X-374000Y-275400D02*
X-390000Y-275400D01*
X-390000Y-268400D01*
X-374000Y-268400D01*
X-374000Y-275400D01*
X-374000Y-272550D02*
X-390000Y-272550D01*
X-390000Y-269700D02*
X-374000Y-269700D01*
X-326000Y-275400D02*
X-310000Y-275400D01*
X-326000Y-275400D02*
X-326000Y-268400D01*
X-310000Y-268400D01*
X-310000Y-275400D01*
X-310000Y-272550D02*
X-326000Y-272550D01*
X-326000Y-269700D02*
X-310000Y-269700D01*
X-374000Y-250000D02*
X-390000Y-250000D01*
X-390000Y-243000D01*
X-374000Y-243000D01*
X-374000Y-250000D01*
X-374000Y-247150D02*
X-390000Y-247150D01*
X-390000Y-244300D02*
X-374000Y-244300D01*
X-326000Y-250000D02*
X-310000Y-250000D01*
X-326000Y-250000D02*
X-326000Y-243000D01*
X-310000Y-243000D01*
X-310000Y-250000D01*
X-310000Y-247150D02*
X-326000Y-247150D01*
X-326000Y-244300D02*
X-310000Y-244300D01*
X-374000Y-224600D02*
X-390000Y-224600D01*
X-390000Y-217600D01*
X-374000Y-217600D01*
X-374000Y-224600D01*
X-374000Y-221750D02*
X-390000Y-221750D01*
X-390000Y-218900D02*
X-374000Y-218900D01*
X-326000Y-224600D02*
X-310000Y-224600D01*
X-326000Y-224600D02*
X-326000Y-217600D01*
X-310000Y-217600D01*
X-310000Y-224600D01*
X-310000Y-221750D02*
X-326000Y-221750D01*
X-326000Y-218900D02*
X-310000Y-218900D01*
D13*
X-337300Y-398900D03*
X-337300Y-373500D03*
X-362700Y-373500D03*
X-362700Y-398900D03*
X-337300Y-348100D03*
X-362700Y-348100D03*
X-337300Y-322700D03*
X-362700Y-322700D03*
X-362700Y-297300D03*
X-337300Y-297300D03*
X-337300Y-271900D03*
X-362700Y-271900D03*
X-362700Y-246500D03*
X-337300Y-246500D03*
X-337300Y-221100D03*
X-362700Y-221100D03*
D12*
X-374000Y-92400D02*
X-390000Y-92400D01*
X-390000Y-85400D01*
X-374000Y-85400D01*
X-374000Y-92400D01*
X-374000Y-89550D02*
X-390000Y-89550D01*
X-390000Y-86700D02*
X-374000Y-86700D01*
X-326000Y-92400D02*
X-310000Y-92400D01*
X-326000Y-92400D02*
X-326000Y-85400D01*
X-310000Y-85400D01*
X-310000Y-92400D01*
X-310000Y-89550D02*
X-326000Y-89550D01*
X-326000Y-86700D02*
X-310000Y-86700D01*
X-374000Y-67000D02*
X-390000Y-67000D01*
X-390000Y-60000D01*
X-374000Y-60000D01*
X-374000Y-67000D01*
X-374000Y-64150D02*
X-390000Y-64150D01*
X-390000Y-61300D02*
X-374000Y-61300D01*
X-326000Y-67000D02*
X-310000Y-67000D01*
X-326000Y-67000D02*
X-326000Y-60000D01*
X-310000Y-60000D01*
X-310000Y-67000D01*
X-310000Y-64150D02*
X-326000Y-64150D01*
X-326000Y-61300D02*
X-310000Y-61300D01*
X-374000Y-41600D02*
X-390000Y-41600D01*
X-390000Y-34600D01*
X-374000Y-34600D01*
X-374000Y-41600D01*
X-374000Y-38750D02*
X-390000Y-38750D01*
X-390000Y-35900D02*
X-374000Y-35900D01*
X-326000Y-41600D02*
X-310000Y-41600D01*
X-326000Y-41600D02*
X-326000Y-34600D01*
X-310000Y-34600D01*
X-310000Y-41600D01*
X-310000Y-38750D02*
X-326000Y-38750D01*
X-326000Y-35900D02*
X-310000Y-35900D01*
X-374000Y-16200D02*
X-390000Y-16200D01*
X-390000Y-9200D01*
X-374000Y-9200D01*
X-374000Y-16200D01*
X-374000Y-13350D02*
X-390000Y-13350D01*
X-390000Y-10500D02*
X-374000Y-10500D01*
X-326000Y-16200D02*
X-310000Y-16200D01*
X-326000Y-16200D02*
X-326000Y-9200D01*
X-310000Y-9200D01*
X-310000Y-16200D01*
X-310000Y-13350D02*
X-326000Y-13350D01*
X-326000Y-10500D02*
X-310000Y-10500D01*
X-374000Y9200D02*
X-390000Y9200D01*
X-390000Y16200D01*
X-374000Y16200D01*
X-374000Y9200D01*
X-374000Y12050D02*
X-390000Y12050D01*
X-390000Y14900D02*
X-374000Y14900D01*
X-326000Y9200D02*
X-310000Y9200D01*
X-326000Y9200D02*
X-326000Y16200D01*
X-310000Y16200D01*
X-310000Y9200D01*
X-310000Y12050D02*
X-326000Y12050D01*
X-326000Y14900D02*
X-310000Y14900D01*
X-374000Y34600D02*
X-390000Y34600D01*
X-390000Y41600D01*
X-374000Y41600D01*
X-374000Y34600D01*
X-374000Y37450D02*
X-390000Y37450D01*
X-390000Y40300D02*
X-374000Y40300D01*
X-326000Y34600D02*
X-310000Y34600D01*
X-326000Y34600D02*
X-326000Y41600D01*
X-310000Y41600D01*
X-310000Y34600D01*
X-310000Y37450D02*
X-326000Y37450D01*
X-326000Y40300D02*
X-310000Y40300D01*
X-374000Y60000D02*
X-390000Y60000D01*
X-390000Y67000D01*
X-374000Y67000D01*
X-374000Y60000D01*
X-374000Y62850D02*
X-390000Y62850D01*
X-390000Y65700D02*
X-374000Y65700D01*
X-326000Y60000D02*
X-310000Y60000D01*
X-326000Y60000D02*
X-326000Y67000D01*
X-310000Y67000D01*
X-310000Y60000D01*
X-310000Y62850D02*
X-326000Y62850D01*
X-326000Y65700D02*
X-310000Y65700D01*
X-374000Y85400D02*
X-390000Y85400D01*
X-390000Y92400D01*
X-374000Y92400D01*
X-374000Y85400D01*
X-374000Y88250D02*
X-390000Y88250D01*
X-390000Y91100D02*
X-374000Y91100D01*
X-326000Y85400D02*
X-310000Y85400D01*
X-326000Y85400D02*
X-326000Y92400D01*
X-310000Y92400D01*
X-310000Y85400D01*
X-310000Y88250D02*
X-326000Y88250D01*
X-326000Y91100D02*
X-310000Y91100D01*
D13*
X-337300Y-88900D03*
X-337300Y-63500D03*
X-362700Y-63500D03*
X-362700Y-88900D03*
X-337300Y-38100D03*
X-362700Y-38100D03*
X-337300Y-12700D03*
X-362700Y-12700D03*
X-362700Y12700D03*
X-337300Y12700D03*
X-337300Y38100D03*
X-362700Y38100D03*
X-362700Y63500D03*
X-337300Y63500D03*
X-337300Y88900D03*
X-362700Y88900D03*
D12*
X-374000Y217600D02*
X-390000Y217600D01*
X-390000Y224600D01*
X-374000Y224600D01*
X-374000Y217600D01*
X-374000Y220450D02*
X-390000Y220450D01*
X-390000Y223300D02*
X-374000Y223300D01*
X-326000Y217600D02*
X-310000Y217600D01*
X-326000Y217600D02*
X-326000Y224600D01*
X-310000Y224600D01*
X-310000Y217600D01*
X-310000Y220450D02*
X-326000Y220450D01*
X-326000Y223300D02*
X-310000Y223300D01*
X-374000Y243000D02*
X-390000Y243000D01*
X-390000Y250000D01*
X-374000Y250000D01*
X-374000Y243000D01*
X-374000Y245850D02*
X-390000Y245850D01*
X-390000Y248700D02*
X-374000Y248700D01*
X-326000Y243000D02*
X-310000Y243000D01*
X-326000Y243000D02*
X-326000Y250000D01*
X-310000Y250000D01*
X-310000Y243000D01*
X-310000Y245850D02*
X-326000Y245850D01*
X-326000Y248700D02*
X-310000Y248700D01*
X-374000Y268400D02*
X-390000Y268400D01*
X-390000Y275400D01*
X-374000Y275400D01*
X-374000Y268400D01*
X-374000Y271250D02*
X-390000Y271250D01*
X-390000Y274100D02*
X-374000Y274100D01*
X-326000Y268400D02*
X-310000Y268400D01*
X-326000Y268400D02*
X-326000Y275400D01*
X-310000Y275400D01*
X-310000Y268400D01*
X-310000Y271250D02*
X-326000Y271250D01*
X-326000Y274100D02*
X-310000Y274100D01*
X-374000Y293800D02*
X-390000Y293800D01*
X-390000Y300800D01*
X-374000Y300800D01*
X-374000Y293800D01*
X-374000Y296650D02*
X-390000Y296650D01*
X-390000Y299500D02*
X-374000Y299500D01*
X-326000Y293800D02*
X-310000Y293800D01*
X-326000Y293800D02*
X-326000Y300800D01*
X-310000Y300800D01*
X-310000Y293800D01*
X-310000Y296650D02*
X-326000Y296650D01*
X-326000Y299500D02*
X-310000Y299500D01*
X-374000Y319200D02*
X-390000Y319200D01*
X-390000Y326200D01*
X-374000Y326200D01*
X-374000Y319200D01*
X-374000Y322050D02*
X-390000Y322050D01*
X-390000Y324900D02*
X-374000Y324900D01*
X-326000Y319200D02*
X-310000Y319200D01*
X-326000Y319200D02*
X-326000Y326200D01*
X-310000Y326200D01*
X-310000Y319200D01*
X-310000Y322050D02*
X-326000Y322050D01*
X-326000Y324900D02*
X-310000Y324900D01*
X-374000Y344600D02*
X-390000Y344600D01*
X-390000Y351600D01*
X-374000Y351600D01*
X-374000Y344600D01*
X-374000Y347450D02*
X-390000Y347450D01*
X-390000Y350300D02*
X-374000Y350300D01*
X-326000Y344600D02*
X-310000Y344600D01*
X-326000Y344600D02*
X-326000Y351600D01*
X-310000Y351600D01*
X-310000Y344600D01*
X-310000Y347450D02*
X-326000Y347450D01*
X-326000Y350300D02*
X-310000Y350300D01*
X-374000Y370000D02*
X-390000Y370000D01*
X-390000Y377000D01*
X-374000Y377000D01*
X-374000Y370000D01*
X-374000Y372850D02*
X-390000Y372850D01*
X-390000Y375700D02*
X-374000Y375700D01*
X-326000Y370000D02*
X-310000Y370000D01*
X-326000Y370000D02*
X-326000Y377000D01*
X-310000Y377000D01*
X-310000Y370000D01*
X-310000Y372850D02*
X-326000Y372850D01*
X-326000Y375700D02*
X-310000Y375700D01*
X-374000Y395400D02*
X-390000Y395400D01*
X-390000Y402400D01*
X-374000Y402400D01*
X-374000Y395400D01*
X-374000Y398250D02*
X-390000Y398250D01*
X-390000Y401100D02*
X-374000Y401100D01*
X-326000Y395400D02*
X-310000Y395400D01*
X-326000Y395400D02*
X-326000Y402400D01*
X-310000Y402400D01*
X-310000Y395400D01*
X-310000Y398250D02*
X-326000Y398250D01*
X-326000Y401100D02*
X-310000Y401100D01*
D13*
X-337300Y221100D03*
X-337300Y246500D03*
X-362700Y246500D03*
X-362700Y221100D03*
X-337300Y271900D03*
X-362700Y271900D03*
X-337300Y297300D03*
X-362700Y297300D03*
X-362700Y322700D03*
X-337300Y322700D03*
X-337300Y348100D03*
X-362700Y348100D03*
X-362700Y373500D03*
X-337300Y373500D03*
X-337300Y398900D03*
X-362700Y398900D03*
D12*
X374000Y402400D02*
X390000Y402400D01*
X390000Y395400D01*
X374000Y395400D01*
X374000Y402400D01*
X374000Y398250D02*
X390000Y398250D01*
X390000Y401100D02*
X374000Y401100D01*
X326000Y402400D02*
X310000Y402400D01*
X326000Y402400D02*
X326000Y395400D01*
X310000Y395400D01*
X310000Y402400D01*
X310000Y398250D02*
X326000Y398250D01*
X326000Y401100D02*
X310000Y401100D01*
X374000Y377000D02*
X390000Y377000D01*
X390000Y370000D01*
X374000Y370000D01*
X374000Y377000D01*
X374000Y372850D02*
X390000Y372850D01*
X390000Y375700D02*
X374000Y375700D01*
X326000Y377000D02*
X310000Y377000D01*
X326000Y377000D02*
X326000Y370000D01*
X310000Y370000D01*
X310000Y377000D01*
X310000Y372850D02*
X326000Y372850D01*
X326000Y375700D02*
X310000Y375700D01*
X374000Y351600D02*
X390000Y351600D01*
X390000Y344600D01*
X374000Y344600D01*
X374000Y351600D01*
X374000Y347450D02*
X390000Y347450D01*
X390000Y350300D02*
X374000Y350300D01*
X326000Y351600D02*
X310000Y351600D01*
X326000Y351600D02*
X326000Y344600D01*
X310000Y344600D01*
X310000Y351600D01*
X310000Y347450D02*
X326000Y347450D01*
X326000Y350300D02*
X310000Y350300D01*
X374000Y326200D02*
X390000Y326200D01*
X390000Y319200D01*
X374000Y319200D01*
X374000Y326200D01*
X374000Y322050D02*
X390000Y322050D01*
X390000Y324900D02*
X374000Y324900D01*
X326000Y326200D02*
X310000Y326200D01*
X326000Y326200D02*
X326000Y319200D01*
X310000Y319200D01*
X310000Y326200D01*
X310000Y322050D02*
X326000Y322050D01*
X326000Y324900D02*
X310000Y324900D01*
X374000Y300800D02*
X390000Y300800D01*
X390000Y293800D01*
X374000Y293800D01*
X374000Y300800D01*
X374000Y296650D02*
X390000Y296650D01*
X390000Y299500D02*
X374000Y299500D01*
X326000Y300800D02*
X310000Y300800D01*
X326000Y300800D02*
X326000Y293800D01*
X310000Y293800D01*
X310000Y300800D01*
X310000Y296650D02*
X326000Y296650D01*
X326000Y299500D02*
X310000Y299500D01*
X374000Y275400D02*
X390000Y275400D01*
X390000Y268400D01*
X374000Y268400D01*
X374000Y275400D01*
X374000Y271250D02*
X390000Y271250D01*
X390000Y274100D02*
X374000Y274100D01*
X326000Y275400D02*
X310000Y275400D01*
X326000Y275400D02*
X326000Y268400D01*
X310000Y268400D01*
X310000Y275400D01*
X310000Y271250D02*
X326000Y271250D01*
X326000Y274100D02*
X310000Y274100D01*
X374000Y250000D02*
X390000Y250000D01*
X390000Y243000D01*
X374000Y243000D01*
X374000Y250000D01*
X374000Y245850D02*
X390000Y245850D01*
X390000Y248700D02*
X374000Y248700D01*
X326000Y250000D02*
X310000Y250000D01*
X326000Y250000D02*
X326000Y243000D01*
X310000Y243000D01*
X310000Y250000D01*
X310000Y245850D02*
X326000Y245850D01*
X326000Y248700D02*
X310000Y248700D01*
X374000Y224600D02*
X390000Y224600D01*
X390000Y217600D01*
X374000Y217600D01*
X374000Y224600D01*
X374000Y220450D02*
X390000Y220450D01*
X390000Y223300D02*
X374000Y223300D01*
X326000Y224600D02*
X310000Y224600D01*
X326000Y224600D02*
X326000Y217600D01*
X310000Y217600D01*
X310000Y224600D01*
X310000Y220450D02*
X326000Y220450D01*
X326000Y223300D02*
X310000Y223300D01*
D13*
X337300Y398900D03*
X337300Y373500D03*
X362700Y373500D03*
X362700Y398900D03*
X337300Y348100D03*
X362700Y348100D03*
X337300Y322700D03*
X362700Y322700D03*
X362700Y297300D03*
X337300Y297300D03*
X337300Y271900D03*
X362700Y271900D03*
X362700Y246500D03*
X337300Y246500D03*
X337300Y221100D03*
X362700Y221100D03*
D12*
X374000Y92400D02*
X390000Y92400D01*
X390000Y85400D01*
X374000Y85400D01*
X374000Y92400D01*
X374000Y88250D02*
X390000Y88250D01*
X390000Y91100D02*
X374000Y91100D01*
X326000Y92400D02*
X310000Y92400D01*
X326000Y92400D02*
X326000Y85400D01*
X310000Y85400D01*
X310000Y92400D01*
X310000Y88250D02*
X326000Y88250D01*
X326000Y91100D02*
X310000Y91100D01*
X374000Y67000D02*
X390000Y67000D01*
X390000Y60000D01*
X374000Y60000D01*
X374000Y67000D01*
X374000Y62850D02*
X390000Y62850D01*
X390000Y65700D02*
X374000Y65700D01*
X326000Y67000D02*
X310000Y67000D01*
X326000Y67000D02*
X326000Y60000D01*
X310000Y60000D01*
X310000Y67000D01*
X310000Y62850D02*
X326000Y62850D01*
X326000Y65700D02*
X310000Y65700D01*
X374000Y41600D02*
X390000Y41600D01*
X390000Y34600D01*
X374000Y34600D01*
X374000Y41600D01*
X374000Y37450D02*
X390000Y37450D01*
X390000Y40300D02*
X374000Y40300D01*
X326000Y41600D02*
X310000Y41600D01*
X326000Y41600D02*
X326000Y34600D01*
X310000Y34600D01*
X310000Y41600D01*
X310000Y37450D02*
X326000Y37450D01*
X326000Y40300D02*
X310000Y40300D01*
X374000Y16200D02*
X390000Y16200D01*
X390000Y9200D01*
X374000Y9200D01*
X374000Y16200D01*
X374000Y12050D02*
X390000Y12050D01*
X390000Y14900D02*
X374000Y14900D01*
X326000Y16200D02*
X310000Y16200D01*
X326000Y16200D02*
X326000Y9200D01*
X310000Y9200D01*
X310000Y16200D01*
X310000Y12050D02*
X326000Y12050D01*
X326000Y14900D02*
X310000Y14900D01*
X374000Y-9200D02*
X390000Y-9200D01*
X390000Y-16200D01*
X374000Y-16200D01*
X374000Y-9200D01*
X374000Y-13350D02*
X390000Y-13350D01*
X390000Y-10500D02*
X374000Y-10500D01*
X326000Y-9200D02*
X310000Y-9200D01*
X326000Y-9200D02*
X326000Y-16200D01*
X310000Y-16200D01*
X310000Y-9200D01*
X310000Y-13350D02*
X326000Y-13350D01*
X326000Y-10500D02*
X310000Y-10500D01*
X374000Y-34600D02*
X390000Y-34600D01*
X390000Y-41600D01*
X374000Y-41600D01*
X374000Y-34600D01*
X374000Y-38750D02*
X390000Y-38750D01*
X390000Y-35900D02*
X374000Y-35900D01*
X326000Y-34600D02*
X310000Y-34600D01*
X326000Y-34600D02*
X326000Y-41600D01*
X310000Y-41600D01*
X310000Y-34600D01*
X310000Y-38750D02*
X326000Y-38750D01*
X326000Y-35900D02*
X310000Y-35900D01*
X374000Y-60000D02*
X390000Y-60000D01*
X390000Y-67000D01*
X374000Y-67000D01*
X374000Y-60000D01*
X374000Y-64150D02*
X390000Y-64150D01*
X390000Y-61300D02*
X374000Y-61300D01*
X326000Y-60000D02*
X310000Y-60000D01*
X326000Y-60000D02*
X326000Y-67000D01*
X310000Y-67000D01*
X310000Y-60000D01*
X310000Y-64150D02*
X326000Y-64150D01*
X326000Y-61300D02*
X310000Y-61300D01*
X374000Y-85400D02*
X390000Y-85400D01*
X390000Y-92400D01*
X374000Y-92400D01*
X374000Y-85400D01*
X374000Y-89550D02*
X390000Y-89550D01*
X390000Y-86700D02*
X374000Y-86700D01*
X326000Y-85400D02*
X310000Y-85400D01*
X326000Y-85400D02*
X326000Y-92400D01*
X310000Y-92400D01*
X310000Y-85400D01*
X310000Y-89550D02*
X326000Y-89550D01*
X326000Y-86700D02*
X310000Y-86700D01*
D13*
X337300Y88900D03*
X337300Y63500D03*
X362700Y63500D03*
X362700Y88900D03*
X337300Y38100D03*
X362700Y38100D03*
X337300Y12700D03*
X362700Y12700D03*
X362700Y-12700D03*
X337300Y-12700D03*
X337300Y-38100D03*
X362700Y-38100D03*
X362700Y-63500D03*
X337300Y-63500D03*
X337300Y-88900D03*
X362700Y-88900D03*
D12*
X-92400Y124000D02*
X-92400Y140000D01*
X-85400Y140000D01*
X-85400Y124000D01*
X-92400Y124000D01*
X-92400Y126850D02*
X-85400Y126850D01*
X-85400Y129700D02*
X-92400Y129700D01*
X-92400Y132550D02*
X-85400Y132550D01*
X-85400Y135400D02*
X-92400Y135400D01*
X-92400Y138250D02*
X-85400Y138250D01*
X-92400Y76000D02*
X-92400Y60000D01*
X-92400Y76000D02*
X-85400Y76000D01*
X-85400Y60000D01*
X-92400Y60000D01*
X-92400Y62850D02*
X-85400Y62850D01*
X-85400Y65700D02*
X-92400Y65700D01*
X-92400Y68550D02*
X-85400Y68550D01*
X-85400Y71400D02*
X-92400Y71400D01*
X-92400Y74250D02*
X-85400Y74250D01*
X-67000Y124000D02*
X-67000Y140000D01*
X-60000Y140000D01*
X-60000Y124000D01*
X-67000Y124000D01*
X-67000Y126850D02*
X-60000Y126850D01*
X-60000Y129700D02*
X-67000Y129700D01*
X-67000Y132550D02*
X-60000Y132550D01*
X-60000Y135400D02*
X-67000Y135400D01*
X-67000Y138250D02*
X-60000Y138250D01*
X-67000Y76000D02*
X-67000Y60000D01*
X-67000Y76000D02*
X-60000Y76000D01*
X-60000Y60000D01*
X-67000Y60000D01*
X-67000Y62850D02*
X-60000Y62850D01*
X-60000Y65700D02*
X-67000Y65700D01*
X-67000Y68550D02*
X-60000Y68550D01*
X-60000Y71400D02*
X-67000Y71400D01*
X-67000Y74250D02*
X-60000Y74250D01*
X-41600Y124000D02*
X-41600Y140000D01*
X-34600Y140000D01*
X-34600Y124000D01*
X-41600Y124000D01*
X-41600Y126850D02*
X-34600Y126850D01*
X-34600Y129700D02*
X-41600Y129700D01*
X-41600Y132550D02*
X-34600Y132550D01*
X-34600Y135400D02*
X-41600Y135400D01*
X-41600Y138250D02*
X-34600Y138250D01*
X-41600Y76000D02*
X-41600Y60000D01*
X-41600Y76000D02*
X-34600Y76000D01*
X-34600Y60000D01*
X-41600Y60000D01*
X-41600Y62850D02*
X-34600Y62850D01*
X-34600Y65700D02*
X-41600Y65700D01*
X-41600Y68550D02*
X-34600Y68550D01*
X-34600Y71400D02*
X-41600Y71400D01*
X-41600Y74250D02*
X-34600Y74250D01*
X-16200Y124000D02*
X-16200Y140000D01*
X-9200Y140000D01*
X-9200Y124000D01*
X-16200Y124000D01*
X-16200Y126850D02*
X-9200Y126850D01*
X-9200Y129700D02*
X-16200Y129700D01*
X-16200Y132550D02*
X-9200Y132550D01*
X-9200Y135400D02*
X-16200Y135400D01*
X-16200Y138250D02*
X-9200Y138250D01*
X-16200Y76000D02*
X-16200Y60000D01*
X-16200Y76000D02*
X-9200Y76000D01*
X-9200Y60000D01*
X-16200Y60000D01*
X-16200Y62850D02*
X-9200Y62850D01*
X-9200Y65700D02*
X-16200Y65700D01*
X-16200Y68550D02*
X-9200Y68550D01*
X-9200Y71400D02*
X-16200Y71400D01*
X-16200Y74250D02*
X-9200Y74250D01*
X9200Y124000D02*
X9200Y140000D01*
X16200Y140000D01*
X16200Y124000D01*
X9200Y124000D01*
X9200Y126850D02*
X16200Y126850D01*
X16200Y129700D02*
X9200Y129700D01*
X9200Y132550D02*
X16200Y132550D01*
X16200Y135400D02*
X9200Y135400D01*
X9200Y138250D02*
X16200Y138250D01*
X9200Y76000D02*
X9200Y60000D01*
X9200Y76000D02*
X16200Y76000D01*
X16200Y60000D01*
X9200Y60000D01*
X9200Y62850D02*
X16200Y62850D01*
X16200Y65700D02*
X9200Y65700D01*
X9200Y68550D02*
X16200Y68550D01*
X16200Y71400D02*
X9200Y71400D01*
X9200Y74250D02*
X16200Y74250D01*
X34600Y124000D02*
X34600Y140000D01*
X41600Y140000D01*
X41600Y124000D01*
X34600Y124000D01*
X34600Y126850D02*
X41600Y126850D01*
X41600Y129700D02*
X34600Y129700D01*
X34600Y132550D02*
X41600Y132550D01*
X41600Y135400D02*
X34600Y135400D01*
X34600Y138250D02*
X41600Y138250D01*
X34600Y76000D02*
X34600Y60000D01*
X34600Y76000D02*
X41600Y76000D01*
X41600Y60000D01*
X34600Y60000D01*
X34600Y62850D02*
X41600Y62850D01*
X41600Y65700D02*
X34600Y65700D01*
X34600Y68550D02*
X41600Y68550D01*
X41600Y71400D02*
X34600Y71400D01*
X34600Y74250D02*
X41600Y74250D01*
X60000Y124000D02*
X60000Y140000D01*
X67000Y140000D01*
X67000Y124000D01*
X60000Y124000D01*
X60000Y126850D02*
X67000Y126850D01*
X67000Y129700D02*
X60000Y129700D01*
X60000Y132550D02*
X67000Y132550D01*
X67000Y135400D02*
X60000Y135400D01*
X60000Y138250D02*
X67000Y138250D01*
X60000Y76000D02*
X60000Y60000D01*
X60000Y76000D02*
X67000Y76000D01*
X67000Y60000D01*
X60000Y60000D01*
X60000Y62850D02*
X67000Y62850D01*
X67000Y65700D02*
X60000Y65700D01*
X60000Y68550D02*
X67000Y68550D01*
X67000Y71400D02*
X60000Y71400D01*
X60000Y74250D02*
X67000Y74250D01*
X85400Y124000D02*
X85400Y140000D01*
X92400Y140000D01*
X92400Y124000D01*
X85400Y124000D01*
X85400Y126850D02*
X92400Y126850D01*
X92400Y129700D02*
X85400Y129700D01*
X85400Y132550D02*
X92400Y132550D01*
X92400Y135400D02*
X85400Y135400D01*
X85400Y138250D02*
X92400Y138250D01*
X85400Y76000D02*
X85400Y60000D01*
X85400Y76000D02*
X92400Y76000D01*
X92400Y60000D01*
X85400Y60000D01*
X85400Y62850D02*
X92400Y62850D01*
X92400Y65700D02*
X85400Y65700D01*
X85400Y68550D02*
X92400Y68550D01*
X92400Y71400D02*
X85400Y71400D01*
X85400Y74250D02*
X92400Y74250D01*
D13*
X-88900Y87300D03*
X-63500Y87300D03*
X-63500Y112700D03*
X-88900Y112700D03*
X-38100Y87300D03*
X-38100Y112700D03*
X-12700Y87300D03*
X-12700Y112700D03*
X12700Y112700D03*
X12700Y87300D03*
X38100Y87300D03*
X38100Y112700D03*
X63500Y112700D03*
X63500Y87300D03*
X88900Y87300D03*
X88900Y112700D03*
D14*
X187300Y-101600D03*
X212700Y-101600D03*
X187300Y-76200D03*
X212700Y-76200D03*
X187300Y-50800D03*
X212700Y-50800D03*
X187300Y-25400D03*
X212700Y-25400D03*
X187300Y0D03*
X212700Y0D03*
X187300Y25400D03*
X212700Y25400D03*
X187300Y50800D03*
X212700Y50800D03*
X187300Y76200D03*
X212700Y76200D03*
X187300Y101600D03*
X212700Y101600D03*
X-212700Y-101600D03*
X-187300Y-101600D03*
X-212700Y-76200D03*
X-187300Y-76200D03*
X-212700Y-50800D03*
X-187300Y-50800D03*
X-212700Y-25400D03*
X-187300Y-25400D03*
X-212700Y0D03*
X-187300Y0D03*
X-212700Y25400D03*
X-187300Y25400D03*
X-212700Y50800D03*
X-187300Y50800D03*
X-212700Y76200D03*
X-187300Y76200D03*
X-212700Y101600D03*
X-187300Y101600D03*
D13*
X88900Y-512700D03*
X63500Y-512700D03*
X63500Y-487300D03*
X88900Y-487300D03*
X38100Y-512700D03*
X38100Y-487300D03*
X12700Y-512700D03*
X12700Y-487300D03*
X-12700Y-487300D03*
X-12700Y-512700D03*
X-38100Y-512700D03*
X-38100Y-487300D03*
X-63500Y-487300D03*
X-63500Y-512700D03*
X-88900Y-512700D03*
X-88900Y-487300D03*
X25400Y-717300D03*
X0Y-717300D03*
X25400Y-742700D03*
X0Y-742700D03*
D15*
X-2495Y-111495D02*
X6495Y-111495D01*
X-2495Y-111495D02*
X-2495Y-107505D01*
X6495Y-107505D01*
X6495Y-111495D01*
X6495Y-108636D02*
X-2495Y-108636D01*
X-2495Y-101995D02*
X6495Y-101995D01*
X-2495Y-101995D02*
X-2495Y-98005D01*
X6495Y-98005D01*
X6495Y-101995D01*
X6495Y-99136D02*
X-2495Y-99136D01*
X-2495Y-92495D02*
X6495Y-92495D01*
X-2495Y-92495D02*
X-2495Y-88505D01*
X6495Y-88505D01*
X6495Y-92495D01*
X6495Y-89636D02*
X-2495Y-89636D01*
X23505Y-92495D02*
X32495Y-92495D01*
X23505Y-92495D02*
X23505Y-88505D01*
X32495Y-88505D01*
X32495Y-92495D01*
X32495Y-89636D02*
X23505Y-89636D01*
X23505Y-111495D02*
X32495Y-111495D01*
X23505Y-111495D02*
X23505Y-107505D01*
X32495Y-107505D01*
X32495Y-111495D01*
X32495Y-108636D02*
X23505Y-108636D01*
X-288505Y303505D02*
X-297495Y303505D01*
X-297495Y307495D01*
X-288505Y307495D01*
X-288505Y303505D01*
X-288505Y306364D02*
X-297495Y306364D01*
X-297495Y313005D02*
X-288505Y313005D01*
X-297495Y313005D02*
X-297495Y316995D01*
X-288505Y316995D01*
X-288505Y313005D01*
X-288505Y315864D02*
X-297495Y315864D01*
X-297495Y322505D02*
X-288505Y322505D01*
X-297495Y322505D02*
X-297495Y326495D01*
X-288505Y326495D01*
X-288505Y322505D01*
X-288505Y325364D02*
X-297495Y325364D01*
X-271495Y322505D02*
X-262505Y322505D01*
X-271495Y322505D02*
X-271495Y326495D01*
X-262505Y326495D01*
X-262505Y322505D01*
X-262505Y325364D02*
X-271495Y325364D01*
X-271495Y303505D02*
X-262505Y303505D01*
X-271495Y303505D02*
X-271495Y307495D01*
X-262505Y307495D01*
X-262505Y303505D01*
X-262505Y306364D02*
X-271495Y306364D01*
X-288505Y-6495D02*
X-297495Y-6495D01*
X-297495Y-2505D01*
X-288505Y-2505D01*
X-288505Y-6495D01*
X-288505Y-3636D02*
X-297495Y-3636D01*
X-297495Y3005D02*
X-288505Y3005D01*
X-297495Y3005D02*
X-297495Y6995D01*
X-288505Y6995D01*
X-288505Y3005D01*
X-288505Y5864D02*
X-297495Y5864D01*
X-297495Y12505D02*
X-288505Y12505D01*
X-297495Y12505D02*
X-297495Y16495D01*
X-288505Y16495D01*
X-288505Y12505D01*
X-288505Y15364D02*
X-297495Y15364D01*
X-271495Y12505D02*
X-262505Y12505D01*
X-271495Y12505D02*
X-271495Y16495D01*
X-262505Y16495D01*
X-262505Y12505D01*
X-262505Y15364D02*
X-271495Y15364D01*
X-271495Y-6495D02*
X-262505Y-6495D01*
X-271495Y-6495D02*
X-271495Y-2505D01*
X-262505Y-2505D01*
X-262505Y-6495D01*
X-262505Y-3636D02*
X-271495Y-3636D01*
X-288505Y-316495D02*
X-297495Y-316495D01*
X-297495Y-312505D01*
X-288505Y-312505D01*
X-288505Y-316495D01*
X-288505Y-313636D02*
X-297495Y-313636D01*
X-297495Y-306995D02*
X-288505Y-306995D01*
X-297495Y-306995D02*
X-297495Y-303005D01*
X-288505Y-303005D01*
X-288505Y-306995D01*
X-288505Y-304136D02*
X-297495Y-304136D01*
X-297495Y-297495D02*
X-288505Y-297495D01*
X-297495Y-297495D02*
X-297495Y-293505D01*
X-288505Y-293505D01*
X-288505Y-297495D01*
X-288505Y-294636D02*
X-297495Y-294636D01*
X-271495Y-297495D02*
X-262505Y-297495D01*
X-271495Y-297495D02*
X-271495Y-293505D01*
X-262505Y-293505D01*
X-262505Y-297495D01*
X-262505Y-294636D02*
X-271495Y-294636D01*
X-271495Y-316495D02*
X-262505Y-316495D01*
X-271495Y-316495D02*
X-271495Y-312505D01*
X-262505Y-312505D01*
X-262505Y-316495D01*
X-262505Y-313636D02*
X-271495Y-313636D01*
X288505Y-303505D02*
X297495Y-303505D01*
X297495Y-307495D01*
X288505Y-307495D01*
X288505Y-303505D01*
X288505Y-304636D02*
X297495Y-304636D01*
X297495Y-313005D02*
X288505Y-313005D01*
X297495Y-313005D02*
X297495Y-316995D01*
X288505Y-316995D01*
X288505Y-313005D01*
X288505Y-314136D02*
X297495Y-314136D01*
X297495Y-322505D02*
X288505Y-322505D01*
X297495Y-322505D02*
X297495Y-326495D01*
X288505Y-326495D01*
X288505Y-322505D01*
X288505Y-323636D02*
X297495Y-323636D01*
X271495Y-322505D02*
X262505Y-322505D01*
X271495Y-322505D02*
X271495Y-326495D01*
X262505Y-326495D01*
X262505Y-322505D01*
X262505Y-323636D02*
X271495Y-323636D01*
X271495Y-303505D02*
X262505Y-303505D01*
X271495Y-303505D02*
X271495Y-307495D01*
X262505Y-307495D01*
X262505Y-303505D01*
X262505Y-304636D02*
X271495Y-304636D01*
X288505Y6495D02*
X297495Y6495D01*
X297495Y2505D01*
X288505Y2505D01*
X288505Y6495D01*
X288505Y5364D02*
X297495Y5364D01*
X297495Y-3005D02*
X288505Y-3005D01*
X297495Y-3005D02*
X297495Y-6995D01*
X288505Y-6995D01*
X288505Y-3005D01*
X288505Y-4136D02*
X297495Y-4136D01*
X297495Y-12505D02*
X288505Y-12505D01*
X297495Y-12505D02*
X297495Y-16495D01*
X288505Y-16495D01*
X288505Y-12505D01*
X288505Y-13636D02*
X297495Y-13636D01*
X271495Y-12505D02*
X262505Y-12505D01*
X271495Y-12505D02*
X271495Y-16495D01*
X262505Y-16495D01*
X262505Y-12505D01*
X262505Y-13636D02*
X271495Y-13636D01*
X271495Y6495D02*
X262505Y6495D01*
X271495Y6495D02*
X271495Y2505D01*
X262505Y2505D01*
X262505Y6495D01*
X262505Y5364D02*
X271495Y5364D01*
X288505Y316495D02*
X297495Y316495D01*
X297495Y312505D01*
X288505Y312505D01*
X288505Y316495D01*
X288505Y315364D02*
X297495Y315364D01*
X297495Y306995D02*
X288505Y306995D01*
X297495Y306995D02*
X297495Y303005D01*
X288505Y303005D01*
X288505Y306995D01*
X288505Y305864D02*
X297495Y305864D01*
X297495Y297495D02*
X288505Y297495D01*
X297495Y297495D02*
X297495Y293505D01*
X288505Y293505D01*
X288505Y297495D01*
X288505Y296364D02*
X297495Y296364D01*
X271495Y297495D02*
X262505Y297495D01*
X271495Y297495D02*
X271495Y293505D01*
X262505Y293505D01*
X262505Y297495D01*
X262505Y296364D02*
X271495Y296364D01*
X271495Y316495D02*
X262505Y316495D01*
X271495Y316495D02*
X271495Y312505D01*
X262505Y312505D01*
X262505Y316495D01*
X262505Y315364D02*
X271495Y315364D01*
D16*
X285525Y-282525D02*
X291475Y-282525D01*
X291475Y-287475D01*
X285525Y-287475D01*
X285525Y-282525D01*
X274475Y-282525D02*
X268525Y-282525D01*
X274475Y-282525D02*
X274475Y-287475D01*
X268525Y-287475D01*
X268525Y-282525D01*
X285525Y27475D02*
X291475Y27475D01*
X291475Y22525D01*
X285525Y22525D01*
X285525Y27475D01*
X274475Y27475D02*
X268525Y27475D01*
X274475Y27475D02*
X274475Y22525D01*
X268525Y22525D01*
X268525Y27475D01*
X285525Y337475D02*
X291475Y337475D01*
X291475Y332525D01*
X285525Y332525D01*
X285525Y337475D01*
X274475Y337475D02*
X268525Y337475D01*
X274475Y337475D02*
X274475Y332525D01*
X268525Y332525D01*
X268525Y337475D01*
X9475Y-132475D02*
X3525Y-132475D01*
X3525Y-127525D01*
X9475Y-127525D01*
X9475Y-132475D01*
X20525Y-132475D02*
X26475Y-132475D01*
X20525Y-132475D02*
X20525Y-127525D01*
X26475Y-127525D01*
X26475Y-132475D01*
X-285525Y282525D02*
X-291475Y282525D01*
X-291475Y287475D01*
X-285525Y287475D01*
X-285525Y282525D01*
X-274475Y282525D02*
X-268525Y282525D01*
X-274475Y282525D02*
X-274475Y287475D01*
X-268525Y287475D01*
X-268525Y282525D01*
X-285525Y-27475D02*
X-291475Y-27475D01*
X-291475Y-22525D01*
X-285525Y-22525D01*
X-285525Y-27475D01*
X-274475Y-27475D02*
X-268525Y-27475D01*
X-274475Y-27475D02*
X-274475Y-22525D01*
X-268525Y-22525D01*
X-268525Y-27475D01*
X-285525Y-337475D02*
X-291475Y-337475D01*
X-291475Y-332525D01*
X-285525Y-332525D01*
X-285525Y-337475D01*
X-274475Y-337475D02*
X-268525Y-337475D01*
X-274475Y-337475D02*
X-274475Y-332525D01*
X-268525Y-332525D01*
X-268525Y-337475D01*
X-242525Y303525D02*
X-242525Y309475D01*
X-242525Y303525D02*
X-247475Y303525D01*
X-247475Y309475D01*
X-242525Y309475D01*
X-242525Y309272D02*
X-247475Y309272D01*
X-242525Y320525D02*
X-242525Y326475D01*
X-242525Y320525D02*
X-247475Y320525D01*
X-247475Y326475D01*
X-242525Y326475D01*
X-242525Y326272D02*
X-247475Y326272D01*
X-242525Y-525D02*
X-242525Y-6475D01*
X-247475Y-6475D01*
X-247475Y-525D01*
X-242525Y-525D01*
X-242525Y-728D02*
X-247475Y-728D01*
X-242525Y10525D02*
X-242525Y16475D01*
X-242525Y10525D02*
X-247475Y10525D01*
X-247475Y16475D01*
X-242525Y16475D01*
X-242525Y16272D02*
X-247475Y16272D01*
X242525Y310525D02*
X242525Y316475D01*
X247475Y316475D01*
X247475Y310525D01*
X242525Y310525D01*
X242525Y316272D02*
X247475Y316272D01*
X242525Y299475D02*
X242525Y293525D01*
X242525Y299475D02*
X247475Y299475D01*
X247475Y293525D01*
X242525Y293525D01*
X242525Y299272D02*
X247475Y299272D01*
X-242525Y-310525D02*
X-242525Y-316475D01*
X-247475Y-316475D01*
X-247475Y-310525D01*
X-242525Y-310525D01*
X-242525Y-310728D02*
X-247475Y-310728D01*
X-242525Y-299475D02*
X-242525Y-293525D01*
X-242525Y-299475D02*
X-247475Y-299475D01*
X-247475Y-293525D01*
X-242525Y-293525D01*
X-242525Y-293728D02*
X-247475Y-293728D01*
X242525Y-303525D02*
X242525Y-309475D01*
X242525Y-303525D02*
X247475Y-303525D01*
X247475Y-309475D01*
X242525Y-309475D01*
X242525Y-303728D02*
X247475Y-303728D01*
X242525Y-320525D02*
X242525Y-326475D01*
X242525Y-320525D02*
X247475Y-320525D01*
X247475Y-326475D01*
X242525Y-326475D01*
X242525Y-320728D02*
X247475Y-320728D01*
X242525Y525D02*
X242525Y6475D01*
X247475Y6475D01*
X247475Y525D01*
X242525Y525D01*
X242525Y6272D02*
X247475Y6272D01*
X242525Y-10525D02*
X242525Y-16475D01*
X242525Y-10525D02*
X247475Y-10525D01*
X247475Y-16475D01*
X242525Y-16475D01*
X242525Y-10728D02*
X247475Y-10728D01*
X52475Y-105525D02*
X52475Y-111475D01*
X47525Y-111475D01*
X47525Y-105525D01*
X52475Y-105525D01*
X52475Y-105728D02*
X47525Y-105728D01*
X52475Y-94475D02*
X52475Y-88525D01*
X52475Y-94475D02*
X47525Y-94475D01*
X47525Y-88525D01*
X52475Y-88525D01*
X52475Y-88728D02*
X47525Y-88728D01*
M02*
