G04 EAGLE Gerber RS-274X export*
G75*
%MOMM*%
%FSLAX34Y34*%
%LPD*%
%INSolderpaste Top*%
%IPPOS*%
%AMOC8*
5,1,8,0,0,1.08239X$1,22.5*%
G01*
%ADD10C,0.198000*%
%ADD11C,0.800000*%


D10*
X85390Y-476010D02*
X85390Y-459990D01*
X92410Y-459990D01*
X92410Y-476010D01*
X85390Y-476010D01*
X85390Y-474129D02*
X92410Y-474129D01*
X92410Y-472248D02*
X85390Y-472248D01*
X85390Y-470367D02*
X92410Y-470367D01*
X92410Y-468486D02*
X85390Y-468486D01*
X85390Y-466605D02*
X92410Y-466605D01*
X92410Y-464724D02*
X85390Y-464724D01*
X85390Y-462843D02*
X92410Y-462843D01*
X92410Y-460962D02*
X85390Y-460962D01*
X85390Y-523990D02*
X85390Y-540010D01*
X85390Y-523990D02*
X92410Y-523990D01*
X92410Y-540010D01*
X85390Y-540010D01*
X85390Y-538129D02*
X92410Y-538129D01*
X92410Y-536248D02*
X85390Y-536248D01*
X85390Y-534367D02*
X92410Y-534367D01*
X92410Y-532486D02*
X85390Y-532486D01*
X85390Y-530605D02*
X92410Y-530605D01*
X92410Y-528724D02*
X85390Y-528724D01*
X85390Y-526843D02*
X92410Y-526843D01*
X92410Y-524962D02*
X85390Y-524962D01*
X59990Y-476010D02*
X59990Y-459990D01*
X67010Y-459990D01*
X67010Y-476010D01*
X59990Y-476010D01*
X59990Y-474129D02*
X67010Y-474129D01*
X67010Y-472248D02*
X59990Y-472248D01*
X59990Y-470367D02*
X67010Y-470367D01*
X67010Y-468486D02*
X59990Y-468486D01*
X59990Y-466605D02*
X67010Y-466605D01*
X67010Y-464724D02*
X59990Y-464724D01*
X59990Y-462843D02*
X67010Y-462843D01*
X67010Y-460962D02*
X59990Y-460962D01*
X59990Y-523990D02*
X59990Y-540010D01*
X59990Y-523990D02*
X67010Y-523990D01*
X67010Y-540010D01*
X59990Y-540010D01*
X59990Y-538129D02*
X67010Y-538129D01*
X67010Y-536248D02*
X59990Y-536248D01*
X59990Y-534367D02*
X67010Y-534367D01*
X67010Y-532486D02*
X59990Y-532486D01*
X59990Y-530605D02*
X67010Y-530605D01*
X67010Y-528724D02*
X59990Y-528724D01*
X59990Y-526843D02*
X67010Y-526843D01*
X67010Y-524962D02*
X59990Y-524962D01*
X34590Y-476010D02*
X34590Y-459990D01*
X41610Y-459990D01*
X41610Y-476010D01*
X34590Y-476010D01*
X34590Y-474129D02*
X41610Y-474129D01*
X41610Y-472248D02*
X34590Y-472248D01*
X34590Y-470367D02*
X41610Y-470367D01*
X41610Y-468486D02*
X34590Y-468486D01*
X34590Y-466605D02*
X41610Y-466605D01*
X41610Y-464724D02*
X34590Y-464724D01*
X34590Y-462843D02*
X41610Y-462843D01*
X41610Y-460962D02*
X34590Y-460962D01*
X34590Y-523990D02*
X34590Y-540010D01*
X34590Y-523990D02*
X41610Y-523990D01*
X41610Y-540010D01*
X34590Y-540010D01*
X34590Y-538129D02*
X41610Y-538129D01*
X41610Y-536248D02*
X34590Y-536248D01*
X34590Y-534367D02*
X41610Y-534367D01*
X41610Y-532486D02*
X34590Y-532486D01*
X34590Y-530605D02*
X41610Y-530605D01*
X41610Y-528724D02*
X34590Y-528724D01*
X34590Y-526843D02*
X41610Y-526843D01*
X41610Y-524962D02*
X34590Y-524962D01*
X9190Y-476010D02*
X9190Y-459990D01*
X16210Y-459990D01*
X16210Y-476010D01*
X9190Y-476010D01*
X9190Y-474129D02*
X16210Y-474129D01*
X16210Y-472248D02*
X9190Y-472248D01*
X9190Y-470367D02*
X16210Y-470367D01*
X16210Y-468486D02*
X9190Y-468486D01*
X9190Y-466605D02*
X16210Y-466605D01*
X16210Y-464724D02*
X9190Y-464724D01*
X9190Y-462843D02*
X16210Y-462843D01*
X16210Y-460962D02*
X9190Y-460962D01*
X9190Y-523990D02*
X9190Y-540010D01*
X9190Y-523990D02*
X16210Y-523990D01*
X16210Y-540010D01*
X9190Y-540010D01*
X9190Y-538129D02*
X16210Y-538129D01*
X16210Y-536248D02*
X9190Y-536248D01*
X9190Y-534367D02*
X16210Y-534367D01*
X16210Y-532486D02*
X9190Y-532486D01*
X9190Y-530605D02*
X16210Y-530605D01*
X16210Y-528724D02*
X9190Y-528724D01*
X9190Y-526843D02*
X16210Y-526843D01*
X16210Y-524962D02*
X9190Y-524962D01*
X-16210Y-476010D02*
X-16210Y-459990D01*
X-9190Y-459990D01*
X-9190Y-476010D01*
X-16210Y-476010D01*
X-16210Y-474129D02*
X-9190Y-474129D01*
X-9190Y-472248D02*
X-16210Y-472248D01*
X-16210Y-470367D02*
X-9190Y-470367D01*
X-9190Y-468486D02*
X-16210Y-468486D01*
X-16210Y-466605D02*
X-9190Y-466605D01*
X-9190Y-464724D02*
X-16210Y-464724D01*
X-16210Y-462843D02*
X-9190Y-462843D01*
X-9190Y-460962D02*
X-16210Y-460962D01*
X-16210Y-523990D02*
X-16210Y-540010D01*
X-16210Y-523990D02*
X-9190Y-523990D01*
X-9190Y-540010D01*
X-16210Y-540010D01*
X-16210Y-538129D02*
X-9190Y-538129D01*
X-9190Y-536248D02*
X-16210Y-536248D01*
X-16210Y-534367D02*
X-9190Y-534367D01*
X-9190Y-532486D02*
X-16210Y-532486D01*
X-16210Y-530605D02*
X-9190Y-530605D01*
X-9190Y-528724D02*
X-16210Y-528724D01*
X-16210Y-526843D02*
X-9190Y-526843D01*
X-9190Y-524962D02*
X-16210Y-524962D01*
X-41610Y-476010D02*
X-41610Y-459990D01*
X-34590Y-459990D01*
X-34590Y-476010D01*
X-41610Y-476010D01*
X-41610Y-474129D02*
X-34590Y-474129D01*
X-34590Y-472248D02*
X-41610Y-472248D01*
X-41610Y-470367D02*
X-34590Y-470367D01*
X-34590Y-468486D02*
X-41610Y-468486D01*
X-41610Y-466605D02*
X-34590Y-466605D01*
X-34590Y-464724D02*
X-41610Y-464724D01*
X-41610Y-462843D02*
X-34590Y-462843D01*
X-34590Y-460962D02*
X-41610Y-460962D01*
X-41610Y-523990D02*
X-41610Y-540010D01*
X-41610Y-523990D02*
X-34590Y-523990D01*
X-34590Y-540010D01*
X-41610Y-540010D01*
X-41610Y-538129D02*
X-34590Y-538129D01*
X-34590Y-536248D02*
X-41610Y-536248D01*
X-41610Y-534367D02*
X-34590Y-534367D01*
X-34590Y-532486D02*
X-41610Y-532486D01*
X-41610Y-530605D02*
X-34590Y-530605D01*
X-34590Y-528724D02*
X-41610Y-528724D01*
X-41610Y-526843D02*
X-34590Y-526843D01*
X-34590Y-524962D02*
X-41610Y-524962D01*
X-67010Y-476010D02*
X-67010Y-459990D01*
X-59990Y-459990D01*
X-59990Y-476010D01*
X-67010Y-476010D01*
X-67010Y-474129D02*
X-59990Y-474129D01*
X-59990Y-472248D02*
X-67010Y-472248D01*
X-67010Y-470367D02*
X-59990Y-470367D01*
X-59990Y-468486D02*
X-67010Y-468486D01*
X-67010Y-466605D02*
X-59990Y-466605D01*
X-59990Y-464724D02*
X-67010Y-464724D01*
X-67010Y-462843D02*
X-59990Y-462843D01*
X-59990Y-460962D02*
X-67010Y-460962D01*
X-67010Y-523990D02*
X-67010Y-540010D01*
X-67010Y-523990D02*
X-59990Y-523990D01*
X-59990Y-540010D01*
X-67010Y-540010D01*
X-67010Y-538129D02*
X-59990Y-538129D01*
X-59990Y-536248D02*
X-67010Y-536248D01*
X-67010Y-534367D02*
X-59990Y-534367D01*
X-59990Y-532486D02*
X-67010Y-532486D01*
X-67010Y-530605D02*
X-59990Y-530605D01*
X-59990Y-528724D02*
X-67010Y-528724D01*
X-67010Y-526843D02*
X-59990Y-526843D01*
X-59990Y-524962D02*
X-67010Y-524962D01*
X-92410Y-476010D02*
X-92410Y-459990D01*
X-85390Y-459990D01*
X-85390Y-476010D01*
X-92410Y-476010D01*
X-92410Y-474129D02*
X-85390Y-474129D01*
X-85390Y-472248D02*
X-92410Y-472248D01*
X-92410Y-470367D02*
X-85390Y-470367D01*
X-85390Y-468486D02*
X-92410Y-468486D01*
X-92410Y-466605D02*
X-85390Y-466605D01*
X-85390Y-464724D02*
X-92410Y-464724D01*
X-92410Y-462843D02*
X-85390Y-462843D01*
X-85390Y-460962D02*
X-92410Y-460962D01*
X-92410Y-523990D02*
X-92410Y-540010D01*
X-92410Y-523990D02*
X-85390Y-523990D01*
X-85390Y-540010D01*
X-92410Y-540010D01*
X-92410Y-538129D02*
X-85390Y-538129D01*
X-85390Y-536248D02*
X-92410Y-536248D01*
X-92410Y-534367D02*
X-85390Y-534367D01*
X-85390Y-532486D02*
X-92410Y-532486D01*
X-92410Y-530605D02*
X-85390Y-530605D01*
X-85390Y-528724D02*
X-92410Y-528724D01*
X-92410Y-526843D02*
X-85390Y-526843D01*
X-85390Y-524962D02*
X-92410Y-524962D01*
X-27310Y-720810D02*
X-11290Y-720810D01*
X-27310Y-720810D02*
X-27310Y-713790D01*
X-11290Y-713790D01*
X-11290Y-720810D01*
X-11290Y-718929D02*
X-27310Y-718929D01*
X-27310Y-717048D02*
X-11290Y-717048D01*
X-11290Y-715167D02*
X-27310Y-715167D01*
X36690Y-720810D02*
X52710Y-720810D01*
X36690Y-720810D02*
X36690Y-713790D01*
X52710Y-713790D01*
X52710Y-720810D01*
X52710Y-718929D02*
X36690Y-718929D01*
X36690Y-717048D02*
X52710Y-717048D01*
X52710Y-715167D02*
X36690Y-715167D01*
X-11290Y-746210D02*
X-27310Y-746210D01*
X-27310Y-739190D01*
X-11290Y-739190D01*
X-11290Y-746210D01*
X-11290Y-744329D02*
X-27310Y-744329D01*
X-27310Y-742448D02*
X-11290Y-742448D01*
X-11290Y-740567D02*
X-27310Y-740567D01*
X36690Y-746210D02*
X52710Y-746210D01*
X36690Y-746210D02*
X36690Y-739190D01*
X52710Y-739190D01*
X52710Y-746210D01*
X52710Y-744329D02*
X36690Y-744329D01*
X36690Y-742448D02*
X52710Y-742448D01*
X52710Y-740567D02*
X36690Y-740567D01*
D11*
X135000Y-470000D02*
X135000Y-462000D01*
X145000Y-462000D01*
X145000Y-470000D01*
X135000Y-470000D01*
X135000Y-462400D02*
X145000Y-462400D01*
X135000Y-490000D02*
X135000Y-498000D01*
X135000Y-490000D02*
X145000Y-490000D01*
X145000Y-498000D01*
X135000Y-498000D01*
X135000Y-490400D02*
X145000Y-490400D01*
X230000Y-55000D02*
X230000Y-47000D01*
X240000Y-47000D01*
X240000Y-55000D01*
X230000Y-55000D01*
X230000Y-47400D02*
X240000Y-47400D01*
X230000Y-75000D02*
X230000Y-83000D01*
X230000Y-75000D02*
X240000Y-75000D01*
X240000Y-83000D01*
X230000Y-83000D01*
X230000Y-75400D02*
X240000Y-75400D01*
X-240000Y65000D02*
X-240000Y73000D01*
X-230000Y73000D01*
X-230000Y65000D01*
X-240000Y65000D01*
X-240000Y72600D02*
X-230000Y72600D01*
X-240000Y45000D02*
X-240000Y37000D01*
X-240000Y45000D02*
X-230000Y45000D01*
X-230000Y37000D01*
X-240000Y37000D01*
X-240000Y44600D02*
X-230000Y44600D01*
M02*
