G04 EAGLE Gerber RS-274X export*
G75*
%MOMM*%
%FSLAX34Y34*%
%LPD*%
%INSoldermask Top*%
%IPPOS*%
%AMOC8*
5,1,8,0,0,1.08239X$1,22.5*%
G01*
%ADD10C,5.100000*%
%ADD11C,3.300000*%
%ADD12C,1.000000*%
%ADD13C,1.200000*%
%ADD14C,1.750000*%
%ADD15C,0.300000*%
%ADD16C,0.901000*%

G36*
X670505Y-221751D02*
X670505Y-221751D01*
X670505Y-221750D01*
X670505Y-201750D01*
X670501Y-201745D01*
X670500Y-201745D01*
X660005Y-201745D01*
X660005Y-189750D01*
X660014Y-189636D01*
X660015Y-189636D01*
X660014Y-189636D01*
X660016Y-189616D01*
X660026Y-189501D01*
X660027Y-189481D01*
X660029Y-189461D01*
X660039Y-189346D01*
X660040Y-189326D01*
X660050Y-189211D01*
X660051Y-189191D01*
X660053Y-189171D01*
X660063Y-189056D01*
X660064Y-189036D01*
X660074Y-188921D01*
X660075Y-188901D01*
X660077Y-188881D01*
X660087Y-188766D01*
X660088Y-188746D01*
X660099Y-188611D01*
X660101Y-188591D01*
X660111Y-188476D01*
X660112Y-188456D01*
X660123Y-188321D01*
X660125Y-188301D01*
X660135Y-188186D01*
X660136Y-188166D01*
X660138Y-188146D01*
X660147Y-188031D01*
X660148Y-188031D01*
X660147Y-188031D01*
X660149Y-188011D01*
X660159Y-187896D01*
X660160Y-187876D01*
X660162Y-187856D01*
X660172Y-187741D01*
X660173Y-187721D01*
X660184Y-187586D01*
X660186Y-187566D01*
X660196Y-187451D01*
X660197Y-187431D01*
X660208Y-187296D01*
X660210Y-187276D01*
X660220Y-187161D01*
X660221Y-187141D01*
X660223Y-187121D01*
X660232Y-187006D01*
X660234Y-186986D01*
X660244Y-186871D01*
X660953Y-184069D01*
X662114Y-181423D01*
X663694Y-179004D01*
X665651Y-176879D01*
X667931Y-175104D01*
X670472Y-173729D01*
X673205Y-172790D01*
X676055Y-172315D01*
X678945Y-172315D01*
X681795Y-172790D01*
X684528Y-173729D01*
X687069Y-175104D01*
X689349Y-176879D01*
X691306Y-179004D01*
X692886Y-181423D01*
X694047Y-184069D01*
X694756Y-186871D01*
X694995Y-189750D01*
X694995Y-201745D01*
X684500Y-201745D01*
X684495Y-201749D01*
X684495Y-201750D01*
X684495Y-221750D01*
X684499Y-221755D01*
X684500Y-221755D01*
X770000Y-221755D01*
X770005Y-221751D01*
X770005Y-221750D01*
X770005Y-201750D01*
X770001Y-201745D01*
X770000Y-201745D01*
X717005Y-201745D01*
X717005Y-189753D01*
X770003Y-159155D01*
X770003Y-159152D01*
X770005Y-159151D01*
X770005Y-159150D01*
X770005Y-136056D01*
X770004Y-136056D01*
X770005Y-136054D01*
X770003Y-136054D01*
X770001Y-136051D01*
X769999Y-136053D01*
X769998Y-136052D01*
X709852Y-170777D01*
X706951Y-166528D01*
X706950Y-166528D01*
X706950Y-166527D01*
X703492Y-162712D01*
X703491Y-162712D01*
X703491Y-162711D01*
X699542Y-159406D01*
X699542Y-159405D01*
X695177Y-156672D01*
X695176Y-156672D01*
X695176Y-156671D01*
X690478Y-154562D01*
X685535Y-153115D01*
X685535Y-153116D01*
X685534Y-153115D01*
X680440Y-152360D01*
X680439Y-152360D01*
X675290Y-152310D01*
X675289Y-152310D01*
X670181Y-152966D01*
X670180Y-152966D01*
X665210Y-154315D01*
X665210Y-154316D01*
X665210Y-154315D01*
X660472Y-156333D01*
X660471Y-156334D01*
X660471Y-156333D01*
X656054Y-158981D01*
X656054Y-158982D01*
X656053Y-158982D01*
X652041Y-162210D01*
X652040Y-162210D01*
X648507Y-165957D01*
X648507Y-165958D01*
X645521Y-170154D01*
X645521Y-170155D01*
X643138Y-174720D01*
X643138Y-174721D01*
X641403Y-179570D01*
X640349Y-184611D01*
X640349Y-184612D01*
X640348Y-184614D01*
X640348Y-184619D01*
X640348Y-184624D01*
X640347Y-184629D01*
X640347Y-184634D01*
X640347Y-184639D01*
X640346Y-184644D01*
X640314Y-185109D01*
X640314Y-185114D01*
X640314Y-185119D01*
X640313Y-185124D01*
X640313Y-185129D01*
X640313Y-185134D01*
X640312Y-185139D01*
X640312Y-185144D01*
X640312Y-185149D01*
X640311Y-185154D01*
X640311Y-185159D01*
X640311Y-185164D01*
X640279Y-185629D01*
X640278Y-185634D01*
X640278Y-185639D01*
X640278Y-185644D01*
X640277Y-185649D01*
X640277Y-185654D01*
X640277Y-185659D01*
X640276Y-185659D01*
X640277Y-185659D01*
X640276Y-185664D01*
X640276Y-185669D01*
X640275Y-185674D01*
X640275Y-185679D01*
X640275Y-185684D01*
X640243Y-186149D01*
X640242Y-186154D01*
X640242Y-186159D01*
X640242Y-186164D01*
X640241Y-186169D01*
X640241Y-186174D01*
X640241Y-186179D01*
X640240Y-186184D01*
X640240Y-186189D01*
X640240Y-186194D01*
X640239Y-186199D01*
X640239Y-186204D01*
X640207Y-186669D01*
X640207Y-186674D01*
X640206Y-186679D01*
X640206Y-186684D01*
X640206Y-186689D01*
X640205Y-186694D01*
X640205Y-186699D01*
X640205Y-186704D01*
X640204Y-186709D01*
X640204Y-186714D01*
X640204Y-186719D01*
X640203Y-186724D01*
X640171Y-187189D01*
X640171Y-187194D01*
X640171Y-187199D01*
X640170Y-187204D01*
X640170Y-187209D01*
X640170Y-187214D01*
X640169Y-187214D01*
X640170Y-187214D01*
X640169Y-187219D01*
X640169Y-187224D01*
X640168Y-187229D01*
X640168Y-187234D01*
X640168Y-187239D01*
X640167Y-187244D01*
X640135Y-187709D01*
X640135Y-187714D01*
X640135Y-187719D01*
X640134Y-187724D01*
X640134Y-187729D01*
X640134Y-187734D01*
X640133Y-187739D01*
X640133Y-187744D01*
X640133Y-187749D01*
X640132Y-187754D01*
X640132Y-187759D01*
X640132Y-187764D01*
X640100Y-188229D01*
X640099Y-188234D01*
X640099Y-188239D01*
X640099Y-188244D01*
X640098Y-188249D01*
X640098Y-188254D01*
X640098Y-188259D01*
X640097Y-188264D01*
X640097Y-188269D01*
X640097Y-188274D01*
X640096Y-188279D01*
X640096Y-188284D01*
X640064Y-188749D01*
X640064Y-188754D01*
X640063Y-188759D01*
X640063Y-188764D01*
X640063Y-188769D01*
X640062Y-188769D01*
X640063Y-188769D01*
X640062Y-188774D01*
X640062Y-188779D01*
X640061Y-188784D01*
X640061Y-188789D01*
X640061Y-188794D01*
X640060Y-188799D01*
X640060Y-188804D01*
X640028Y-189269D01*
X640028Y-189274D01*
X640027Y-189279D01*
X640027Y-189284D01*
X640027Y-189289D01*
X640026Y-189294D01*
X640026Y-189299D01*
X640026Y-189304D01*
X640025Y-189309D01*
X640025Y-189314D01*
X640025Y-189319D01*
X640024Y-189324D01*
X639995Y-189750D01*
X639995Y-221750D01*
X639999Y-221755D01*
X640000Y-221755D01*
X670500Y-221755D01*
X670505Y-221751D01*
G37*
G36*
X-769999Y136053D02*
X-769999Y136053D01*
X-769998Y136052D01*
X-709852Y170777D01*
X-706951Y166528D01*
X-706950Y166528D01*
X-706950Y166527D01*
X-703492Y162712D01*
X-703491Y162712D01*
X-703491Y162711D01*
X-699542Y159406D01*
X-699542Y159405D01*
X-695177Y156672D01*
X-695176Y156672D01*
X-695176Y156671D01*
X-690478Y154562D01*
X-685535Y153115D01*
X-685535Y153116D01*
X-685534Y153115D01*
X-680440Y152360D01*
X-680439Y152360D01*
X-675290Y152310D01*
X-675289Y152310D01*
X-670181Y152966D01*
X-670180Y152966D01*
X-665210Y154315D01*
X-665210Y154316D01*
X-665210Y154315D01*
X-660472Y156333D01*
X-660471Y156334D01*
X-660471Y156333D01*
X-656054Y158981D01*
X-656054Y158982D01*
X-656053Y158982D01*
X-652041Y162210D01*
X-652040Y162210D01*
X-648507Y165957D01*
X-648507Y165958D01*
X-645521Y170154D01*
X-645521Y170155D01*
X-643138Y174720D01*
X-643138Y174721D01*
X-641403Y179570D01*
X-640349Y184611D01*
X-640349Y184612D01*
X-640347Y184630D01*
X-640347Y184635D01*
X-640342Y184715D01*
X-640341Y184715D01*
X-640342Y184715D01*
X-640341Y184720D01*
X-640336Y184799D01*
X-640335Y184804D01*
X-640330Y184884D01*
X-640330Y184889D01*
X-640324Y184963D01*
X-640324Y184968D01*
X-640319Y185048D01*
X-640318Y185053D01*
X-640313Y185132D01*
X-640312Y185137D01*
X-640307Y185217D01*
X-640307Y185222D01*
X-640301Y185301D01*
X-640301Y185306D01*
X-640295Y185385D01*
X-640295Y185386D01*
X-640295Y185390D01*
X-640295Y185391D01*
X-640290Y185470D01*
X-640289Y185475D01*
X-640284Y185554D01*
X-640283Y185559D01*
X-640278Y185639D01*
X-640278Y185644D01*
X-640272Y185718D01*
X-640272Y185723D01*
X-640267Y185803D01*
X-640266Y185808D01*
X-640261Y185887D01*
X-640260Y185892D01*
X-640255Y185972D01*
X-640255Y185977D01*
X-640249Y186056D01*
X-640249Y186061D01*
X-640243Y186141D01*
X-640243Y186146D01*
X-640238Y186225D01*
X-640237Y186230D01*
X-640232Y186310D01*
X-640231Y186315D01*
X-640226Y186394D01*
X-640226Y186399D01*
X-640220Y186474D01*
X-640220Y186479D01*
X-640220Y186484D01*
X-640215Y186558D01*
X-640214Y186563D01*
X-640209Y186643D01*
X-640209Y186648D01*
X-640208Y186648D01*
X-640209Y186648D01*
X-640203Y186727D01*
X-640203Y186732D01*
X-640197Y186812D01*
X-640197Y186816D01*
X-640197Y186817D01*
X-640191Y186896D01*
X-640191Y186901D01*
X-640186Y186980D01*
X-640186Y186981D01*
X-640185Y186985D01*
X-640180Y187065D01*
X-640179Y187070D01*
X-640174Y187149D01*
X-640174Y187154D01*
X-640168Y187234D01*
X-640168Y187239D01*
X-640163Y187313D01*
X-640162Y187318D01*
X-640157Y187398D01*
X-640157Y187403D01*
X-640151Y187482D01*
X-640151Y187487D01*
X-640145Y187567D01*
X-640145Y187572D01*
X-640139Y187651D01*
X-640139Y187656D01*
X-640134Y187736D01*
X-640133Y187741D01*
X-640128Y187820D01*
X-640127Y187825D01*
X-640122Y187905D01*
X-640122Y187910D01*
X-640116Y187989D01*
X-640116Y187994D01*
X-640111Y188069D01*
X-640110Y188074D01*
X-640105Y188153D01*
X-640105Y188158D01*
X-640099Y188238D01*
X-640099Y188243D01*
X-640093Y188322D01*
X-640093Y188327D01*
X-640087Y188407D01*
X-640087Y188411D01*
X-640087Y188412D01*
X-640082Y188491D01*
X-640081Y188496D01*
X-640076Y188575D01*
X-640076Y188580D01*
X-640075Y188580D01*
X-640076Y188580D01*
X-640070Y188660D01*
X-640070Y188665D01*
X-640064Y188744D01*
X-640064Y188749D01*
X-640058Y188829D01*
X-640058Y188834D01*
X-640053Y188908D01*
X-640053Y188913D01*
X-640047Y188993D01*
X-640047Y188998D01*
X-640041Y189077D01*
X-640041Y189082D01*
X-640036Y189162D01*
X-640035Y189162D01*
X-640035Y189167D01*
X-640030Y189246D01*
X-640029Y189251D01*
X-640024Y189331D01*
X-640024Y189336D01*
X-640018Y189415D01*
X-640018Y189420D01*
X-640012Y189500D01*
X-640012Y189505D01*
X-640006Y189584D01*
X-640006Y189589D01*
X-640001Y189664D01*
X-640001Y189669D01*
X-639995Y189748D01*
X-639995Y189750D01*
X-639995Y221750D01*
X-639999Y221755D01*
X-640000Y221755D01*
X-670500Y221755D01*
X-670505Y221751D01*
X-670505Y221750D01*
X-670505Y201750D01*
X-670501Y201745D01*
X-670500Y201745D01*
X-660005Y201745D01*
X-660005Y189750D01*
X-660006Y189734D01*
X-660009Y189705D01*
X-660016Y189620D01*
X-660023Y189536D01*
X-660030Y189451D01*
X-660032Y189421D01*
X-660037Y189367D01*
X-660039Y189337D01*
X-660046Y189252D01*
X-660053Y189168D01*
X-660060Y189084D01*
X-660060Y189083D01*
X-660063Y189054D01*
X-660067Y188999D01*
X-660070Y188969D01*
X-660077Y188885D01*
X-660084Y188800D01*
X-660091Y188716D01*
X-660093Y188686D01*
X-660098Y188631D01*
X-660100Y188602D01*
X-660107Y188517D01*
X-660114Y188433D01*
X-660121Y188348D01*
X-660124Y188318D01*
X-660128Y188264D01*
X-660131Y188234D01*
X-660138Y188149D01*
X-660145Y188065D01*
X-660152Y187980D01*
X-660154Y187951D01*
X-660159Y187896D01*
X-660161Y187866D01*
X-660168Y187782D01*
X-660175Y187697D01*
X-660182Y187613D01*
X-660185Y187583D01*
X-660189Y187528D01*
X-660192Y187498D01*
X-660199Y187414D01*
X-660206Y187330D01*
X-660213Y187245D01*
X-660215Y187215D01*
X-660220Y187161D01*
X-660222Y187131D01*
X-660229Y187046D01*
X-660236Y186962D01*
X-660243Y186877D01*
X-660244Y186870D01*
X-660953Y184069D01*
X-662114Y181423D01*
X-663694Y179004D01*
X-665651Y176879D01*
X-667931Y175104D01*
X-670472Y173729D01*
X-673205Y172790D01*
X-676055Y172315D01*
X-678945Y172315D01*
X-681795Y172790D01*
X-684528Y173729D01*
X-687069Y175104D01*
X-689349Y176879D01*
X-691306Y179004D01*
X-692886Y181423D01*
X-694047Y184069D01*
X-694756Y186870D01*
X-694995Y189750D01*
X-694995Y201745D01*
X-684500Y201745D01*
X-684495Y201749D01*
X-684495Y201750D01*
X-684495Y221750D01*
X-684499Y221755D01*
X-684500Y221755D01*
X-770000Y221755D01*
X-770005Y221751D01*
X-770005Y221750D01*
X-770005Y201750D01*
X-770001Y201745D01*
X-770000Y201745D01*
X-717005Y201745D01*
X-717005Y189753D01*
X-770003Y159155D01*
X-770003Y159152D01*
X-770004Y159152D01*
X-770005Y159150D01*
X-770005Y136056D01*
X-770004Y136056D01*
X-770005Y136054D01*
X-770003Y136054D01*
X-770001Y136051D01*
X-769999Y136053D01*
G37*
G36*
X-749995Y233749D02*
X-749995Y233749D01*
X-749995Y233750D01*
X-749995Y274995D01*
X-715005Y274995D01*
X-715005Y238750D01*
X-715001Y238745D01*
X-715000Y238745D01*
X-695000Y238745D01*
X-694995Y238749D01*
X-694995Y238750D01*
X-694995Y274995D01*
X-660005Y274995D01*
X-660005Y238750D01*
X-660001Y238745D01*
X-660000Y238745D01*
X-640000Y238745D01*
X-639995Y238749D01*
X-639995Y238750D01*
X-639995Y295000D01*
X-639999Y295005D01*
X-640000Y295005D01*
X-770000Y295005D01*
X-770005Y295001D01*
X-770005Y295000D01*
X-770005Y233750D01*
X-770001Y233745D01*
X-770000Y233745D01*
X-750000Y233745D01*
X-749995Y233749D01*
G37*
G36*
X770005Y-295001D02*
X770005Y-295001D01*
X770005Y-295000D01*
X770005Y-233750D01*
X770001Y-233745D01*
X770000Y-233745D01*
X750000Y-233745D01*
X749995Y-233749D01*
X749995Y-233750D01*
X749995Y-274995D01*
X715005Y-274995D01*
X715005Y-238750D01*
X715001Y-238745D01*
X715000Y-238745D01*
X695000Y-238745D01*
X694995Y-238749D01*
X694995Y-238750D01*
X694995Y-274995D01*
X660005Y-274995D01*
X660005Y-238750D01*
X660001Y-238745D01*
X660000Y-238745D01*
X640000Y-238745D01*
X639995Y-238749D01*
X639995Y-238750D01*
X639995Y-295000D01*
X639999Y-295005D01*
X640000Y-295005D01*
X770000Y-295005D01*
X770005Y-295001D01*
G37*
G36*
X727274Y204434D02*
X727274Y204434D01*
X733222Y205134D01*
X733223Y205134D01*
X739025Y206618D01*
X739026Y206618D01*
X744580Y208859D01*
X744580Y208860D01*
X744581Y208860D01*
X749788Y211818D01*
X749788Y211819D01*
X749789Y211819D01*
X754557Y215443D01*
X754557Y215444D01*
X758802Y219669D01*
X758803Y219669D01*
X762449Y224421D01*
X762449Y224422D01*
X765432Y229615D01*
X765432Y229616D01*
X767699Y235160D01*
X767698Y235160D01*
X767699Y235161D01*
X769209Y240956D01*
X769209Y240957D01*
X769936Y246902D01*
X769936Y246903D01*
X769868Y252891D01*
X769867Y252892D01*
X769868Y252892D01*
X769004Y258819D01*
X769004Y258820D01*
X767361Y264579D01*
X767361Y264580D01*
X764968Y270070D01*
X764967Y270070D01*
X764967Y270071D01*
X761866Y275195D01*
X761860Y275197D01*
X761860Y275196D01*
X761859Y275196D01*
X747114Y264872D01*
X747113Y264865D01*
X749181Y261382D01*
X750704Y257629D01*
X751649Y253690D01*
X751993Y249654D01*
X751730Y245612D01*
X750866Y241655D01*
X749418Y237872D01*
X747421Y234348D01*
X744920Y231162D01*
X741970Y228387D01*
X738637Y226084D01*
X735005Y224309D01*
X735005Y293256D01*
X735001Y293260D01*
X735001Y293261D01*
X728935Y294214D01*
X728934Y294213D01*
X728934Y294214D01*
X728900Y294214D01*
X728898Y294214D01*
X728642Y294219D01*
X728640Y294219D01*
X728384Y294224D01*
X728382Y294224D01*
X728126Y294229D01*
X728124Y294229D01*
X727868Y294234D01*
X727866Y294234D01*
X727610Y294239D01*
X727608Y294239D01*
X727352Y294244D01*
X727350Y294244D01*
X727094Y294249D01*
X727092Y294249D01*
X726836Y294254D01*
X726834Y294254D01*
X726578Y294259D01*
X726576Y294259D01*
X726320Y294264D01*
X726318Y294264D01*
X726062Y294269D01*
X726060Y294269D01*
X725804Y294274D01*
X725802Y294274D01*
X725546Y294279D01*
X725544Y294279D01*
X725288Y294284D01*
X725286Y294284D01*
X725030Y294289D01*
X725028Y294289D01*
X724772Y294294D01*
X724771Y294294D01*
X724770Y294294D01*
X724513Y294299D01*
X724512Y294299D01*
X724255Y294304D01*
X724254Y294304D01*
X723997Y294309D01*
X723996Y294309D01*
X723739Y294314D01*
X723738Y294314D01*
X723481Y294319D01*
X723480Y294319D01*
X723223Y294324D01*
X723222Y294324D01*
X722965Y294329D01*
X722964Y294329D01*
X722795Y294332D01*
X722794Y294332D01*
X716696Y293613D01*
X716695Y293613D01*
X710752Y292071D01*
X710751Y292071D01*
X705073Y289734D01*
X705072Y289734D01*
X699765Y286646D01*
X699765Y286645D01*
X694927Y282863D01*
X690649Y278458D01*
X690649Y278457D01*
X687010Y273511D01*
X687010Y273510D01*
X684079Y268114D01*
X681910Y262369D01*
X680543Y256382D01*
X680544Y256381D01*
X680546Y256376D01*
X680547Y256377D01*
X680548Y256376D01*
X698923Y256376D01*
X698926Y256379D01*
X698928Y256380D01*
X700084Y259769D01*
X701677Y262975D01*
X703681Y265942D01*
X706061Y268618D01*
X708773Y270955D01*
X711771Y272913D01*
X714995Y274453D01*
X714995Y224309D01*
X711771Y225849D01*
X708773Y227807D01*
X706061Y230144D01*
X703681Y232820D01*
X701677Y235787D01*
X700083Y238993D01*
X698928Y242383D01*
X698924Y242385D01*
X698923Y242386D01*
X680548Y242386D01*
X680547Y242386D01*
X680547Y242385D01*
X680543Y242382D01*
X680543Y242381D01*
X680543Y242380D01*
X681866Y236539D01*
X681867Y236538D01*
X683954Y230924D01*
X686769Y225637D01*
X686769Y225636D01*
X690261Y220770D01*
X694368Y216410D01*
X699018Y212634D01*
X704128Y209509D01*
X704129Y209509D01*
X709608Y207090D01*
X709608Y207091D01*
X709609Y207090D01*
X715361Y205421D01*
X721284Y204530D01*
X721284Y204531D01*
X721285Y204530D01*
X727273Y204434D01*
X727274Y204434D01*
G37*
G36*
X-722794Y-294332D02*
X-722794Y-294332D01*
X-716696Y-293613D01*
X-716695Y-293613D01*
X-710752Y-292071D01*
X-710751Y-292071D01*
X-705073Y-289734D01*
X-705072Y-289734D01*
X-699765Y-286646D01*
X-699765Y-286645D01*
X-694927Y-282863D01*
X-690649Y-278458D01*
X-690649Y-278457D01*
X-687010Y-273511D01*
X-687010Y-273510D01*
X-684079Y-268114D01*
X-681910Y-262369D01*
X-680543Y-256382D01*
X-680544Y-256381D01*
X-680546Y-256376D01*
X-680547Y-256377D01*
X-680548Y-256376D01*
X-698923Y-256376D01*
X-698926Y-256379D01*
X-698928Y-256380D01*
X-700084Y-259769D01*
X-701677Y-262975D01*
X-703681Y-265942D01*
X-706061Y-268618D01*
X-708773Y-270955D01*
X-711771Y-272913D01*
X-714995Y-274453D01*
X-714995Y-224309D01*
X-711771Y-225849D01*
X-708773Y-227807D01*
X-706061Y-230144D01*
X-703681Y-232820D01*
X-701677Y-235787D01*
X-700083Y-238993D01*
X-698928Y-242383D01*
X-698924Y-242385D01*
X-698923Y-242386D01*
X-680548Y-242386D01*
X-680547Y-242386D01*
X-680547Y-242385D01*
X-680543Y-242382D01*
X-680544Y-242381D01*
X-680543Y-242380D01*
X-681866Y-236539D01*
X-681867Y-236538D01*
X-683954Y-230924D01*
X-686769Y-225637D01*
X-686769Y-225636D01*
X-690261Y-220770D01*
X-694368Y-216410D01*
X-699018Y-212634D01*
X-704128Y-209509D01*
X-704129Y-209509D01*
X-709608Y-207090D01*
X-709608Y-207091D01*
X-709609Y-207090D01*
X-715361Y-205421D01*
X-721284Y-204530D01*
X-721284Y-204531D01*
X-721285Y-204530D01*
X-727273Y-204434D01*
X-727274Y-204434D01*
X-733222Y-205134D01*
X-733223Y-205134D01*
X-739025Y-206618D01*
X-739026Y-206618D01*
X-744580Y-208859D01*
X-744580Y-208860D01*
X-744581Y-208860D01*
X-749788Y-211818D01*
X-749788Y-211819D01*
X-749789Y-211819D01*
X-754557Y-215443D01*
X-754557Y-215444D01*
X-758802Y-219669D01*
X-758803Y-219669D01*
X-762449Y-224421D01*
X-762449Y-224422D01*
X-765432Y-229615D01*
X-765432Y-229616D01*
X-767699Y-235160D01*
X-767698Y-235160D01*
X-767699Y-235161D01*
X-769209Y-240956D01*
X-769209Y-240957D01*
X-769936Y-246902D01*
X-769936Y-246903D01*
X-769868Y-252891D01*
X-769867Y-252892D01*
X-769868Y-252892D01*
X-769004Y-258819D01*
X-769004Y-258820D01*
X-767361Y-264579D01*
X-767361Y-264580D01*
X-764968Y-270070D01*
X-764967Y-270070D01*
X-764967Y-270071D01*
X-761866Y-275195D01*
X-761863Y-275196D01*
X-761862Y-275197D01*
X-761861Y-275196D01*
X-761860Y-275197D01*
X-761860Y-275196D01*
X-761859Y-275196D01*
X-747114Y-264872D01*
X-747113Y-264868D01*
X-747113Y-264867D01*
X-747113Y-264865D01*
X-749181Y-261382D01*
X-750704Y-257629D01*
X-751649Y-253690D01*
X-751993Y-249654D01*
X-751730Y-245612D01*
X-750866Y-241655D01*
X-749418Y-237872D01*
X-747421Y-234348D01*
X-744920Y-231162D01*
X-741970Y-228387D01*
X-738637Y-226084D01*
X-735005Y-224309D01*
X-735005Y-293256D01*
X-735001Y-293260D01*
X-735001Y-293261D01*
X-728935Y-294214D01*
X-728934Y-294213D01*
X-728934Y-294214D01*
X-728769Y-294217D01*
X-728767Y-294217D01*
X-728509Y-294222D01*
X-728507Y-294222D01*
X-728249Y-294227D01*
X-728248Y-294227D01*
X-727990Y-294232D01*
X-727988Y-294232D01*
X-727730Y-294237D01*
X-727728Y-294237D01*
X-727470Y-294242D01*
X-727469Y-294242D01*
X-727211Y-294247D01*
X-727209Y-294247D01*
X-726951Y-294252D01*
X-726949Y-294252D01*
X-726691Y-294257D01*
X-726690Y-294257D01*
X-726432Y-294262D01*
X-726430Y-294262D01*
X-726172Y-294267D01*
X-726170Y-294267D01*
X-725912Y-294272D01*
X-725911Y-294272D01*
X-725653Y-294277D01*
X-725651Y-294277D01*
X-725393Y-294282D01*
X-725391Y-294282D01*
X-725133Y-294287D01*
X-725132Y-294287D01*
X-724874Y-294292D01*
X-724872Y-294292D01*
X-724614Y-294297D01*
X-724613Y-294297D01*
X-724354Y-294302D01*
X-724353Y-294302D01*
X-724095Y-294307D01*
X-724093Y-294307D01*
X-723835Y-294312D01*
X-723834Y-294312D01*
X-723575Y-294317D01*
X-723574Y-294317D01*
X-723316Y-294322D01*
X-723314Y-294322D01*
X-723056Y-294327D01*
X-723055Y-294327D01*
X-722797Y-294332D01*
X-722796Y-294332D01*
X-722795Y-294332D01*
X-722794Y-294332D01*
G37*
G36*
X770005Y-79057D02*
X770005Y-79057D01*
X770005Y-79056D01*
X770005Y-59056D01*
X770001Y-59051D01*
X770000Y-59052D01*
X770000Y-59051D01*
X715005Y-59051D01*
X715005Y-27806D01*
X715001Y-27801D01*
X715000Y-27802D01*
X715000Y-27801D01*
X695000Y-27801D01*
X694995Y-27806D01*
X694995Y-59051D01*
X660005Y-59051D01*
X660005Y-22806D01*
X660001Y-22801D01*
X660000Y-22802D01*
X660000Y-22801D01*
X640000Y-22801D01*
X639995Y-22806D01*
X639995Y-79056D01*
X639999Y-79061D01*
X640000Y-79061D01*
X770000Y-79061D01*
X770005Y-79057D01*
G37*
G36*
X-639995Y22806D02*
X-639995Y22806D01*
X-639995Y79056D01*
X-639999Y79061D01*
X-640000Y79061D01*
X-770000Y79061D01*
X-770005Y79057D01*
X-770005Y79056D01*
X-770005Y59056D01*
X-770001Y59051D01*
X-770000Y59052D01*
X-770000Y59051D01*
X-715005Y59051D01*
X-715005Y27806D01*
X-715001Y27801D01*
X-715000Y27802D01*
X-715000Y27801D01*
X-695000Y27801D01*
X-694995Y27806D01*
X-694995Y59051D01*
X-660005Y59051D01*
X-660005Y22806D01*
X-660001Y22801D01*
X-660000Y22802D01*
X-660000Y22801D01*
X-640000Y22801D01*
X-639995Y22806D01*
G37*
G36*
X-745124Y-198385D02*
X-745124Y-198385D01*
X-745122Y-198385D01*
X-745122Y-198384D01*
X-745120Y-198382D01*
X-745121Y-198380D01*
X-745121Y-198378D01*
X-747561Y-195205D01*
X-749505Y-191705D01*
X-750910Y-187957D01*
X-751745Y-184042D01*
X-751993Y-180047D01*
X-751647Y-176059D01*
X-750715Y-172166D01*
X-749217Y-168454D01*
X-747187Y-165004D01*
X-744669Y-161892D01*
X-741719Y-159187D01*
X-738401Y-156948D01*
X-734788Y-155224D01*
X-730960Y-154053D01*
X-727001Y-153461D01*
X-722999Y-153461D01*
X-719040Y-154053D01*
X-715212Y-155224D01*
X-711599Y-156948D01*
X-708281Y-159187D01*
X-705331Y-161892D01*
X-702813Y-165004D01*
X-700783Y-168454D01*
X-699286Y-172166D01*
X-698353Y-176059D01*
X-698007Y-180047D01*
X-698255Y-184042D01*
X-699090Y-187957D01*
X-700495Y-191705D01*
X-702439Y-195205D01*
X-704879Y-198378D01*
X-704879Y-198380D01*
X-704880Y-198380D01*
X-704879Y-198382D01*
X-704879Y-198385D01*
X-704877Y-198385D01*
X-704875Y-198386D01*
X-683757Y-198386D01*
X-683754Y-198383D01*
X-683752Y-198383D01*
X-681740Y-192791D01*
X-681739Y-192791D01*
X-680481Y-186982D01*
X-680482Y-186982D01*
X-680481Y-186982D01*
X-680000Y-181059D01*
X-680000Y-181058D01*
X-680302Y-175123D01*
X-680303Y-175122D01*
X-681385Y-169279D01*
X-681385Y-169278D01*
X-683228Y-163628D01*
X-685800Y-158270D01*
X-685800Y-158269D01*
X-689055Y-153297D01*
X-692937Y-148797D01*
X-692937Y-148796D01*
X-697378Y-144847D01*
X-697379Y-144847D01*
X-702301Y-141517D01*
X-702302Y-141517D01*
X-707620Y-138865D01*
X-707621Y-138865D01*
X-713242Y-136937D01*
X-713243Y-136937D01*
X-719069Y-135766D01*
X-719070Y-135767D01*
X-719070Y-135766D01*
X-725000Y-135374D01*
X-730930Y-135766D01*
X-730931Y-135767D01*
X-730931Y-135766D01*
X-736757Y-136937D01*
X-736758Y-136937D01*
X-742379Y-138865D01*
X-742380Y-138865D01*
X-747698Y-141517D01*
X-747699Y-141517D01*
X-752621Y-144847D01*
X-752622Y-144847D01*
X-757063Y-148796D01*
X-757063Y-148797D01*
X-760945Y-153297D01*
X-764200Y-158269D01*
X-764200Y-158270D01*
X-766772Y-163628D01*
X-768615Y-169278D01*
X-768615Y-169279D01*
X-769698Y-175122D01*
X-769697Y-175123D01*
X-769698Y-175123D01*
X-770001Y-181058D01*
X-770000Y-181058D01*
X-770001Y-181059D01*
X-769519Y-186982D01*
X-769518Y-186982D01*
X-769519Y-186982D01*
X-768261Y-192791D01*
X-768260Y-192791D01*
X-766248Y-198383D01*
X-766244Y-198385D01*
X-766243Y-198386D01*
X-745125Y-198386D01*
X-745124Y-198385D01*
G37*
G36*
X730930Y135766D02*
X730930Y135766D01*
X730931Y135767D01*
X730931Y135766D01*
X736757Y136937D01*
X736758Y136937D01*
X742379Y138865D01*
X742380Y138865D01*
X747698Y141517D01*
X747699Y141517D01*
X752621Y144847D01*
X752622Y144847D01*
X757063Y148796D01*
X757063Y148797D01*
X760945Y153297D01*
X764200Y158269D01*
X764200Y158270D01*
X766772Y163628D01*
X768615Y169278D01*
X768615Y169279D01*
X769698Y175122D01*
X769697Y175123D01*
X769698Y175123D01*
X770001Y181058D01*
X770000Y181058D01*
X770001Y181059D01*
X769519Y186982D01*
X769518Y186982D01*
X769519Y186982D01*
X768261Y192791D01*
X768260Y192791D01*
X766248Y198383D01*
X766244Y198385D01*
X766243Y198386D01*
X745125Y198386D01*
X745124Y198385D01*
X745122Y198385D01*
X745122Y198384D01*
X745120Y198382D01*
X745121Y198380D01*
X745121Y198378D01*
X747561Y195205D01*
X749505Y191705D01*
X750910Y187957D01*
X751745Y184042D01*
X751993Y180047D01*
X751647Y176059D01*
X750715Y172166D01*
X749217Y168454D01*
X747187Y165004D01*
X744669Y161892D01*
X741719Y159187D01*
X738401Y156948D01*
X734788Y155224D01*
X730960Y154053D01*
X727001Y153461D01*
X722999Y153461D01*
X719040Y154053D01*
X715212Y155224D01*
X711599Y156948D01*
X708281Y159187D01*
X705331Y161892D01*
X702813Y165004D01*
X700783Y168454D01*
X699286Y172166D01*
X698353Y176059D01*
X698007Y180047D01*
X698255Y184042D01*
X699090Y187957D01*
X700495Y191705D01*
X702439Y195205D01*
X704879Y198378D01*
X704879Y198380D01*
X704880Y198380D01*
X704879Y198382D01*
X704879Y198385D01*
X704877Y198385D01*
X704875Y198386D01*
X683757Y198386D01*
X683754Y198383D01*
X683752Y198383D01*
X681740Y192791D01*
X681739Y192791D01*
X680481Y186982D01*
X680482Y186982D01*
X680481Y186982D01*
X680000Y181059D01*
X680000Y181058D01*
X680302Y175123D01*
X680303Y175122D01*
X681385Y169279D01*
X681385Y169278D01*
X683228Y163628D01*
X685800Y158270D01*
X685800Y158269D01*
X689055Y153297D01*
X692937Y148797D01*
X692937Y148796D01*
X697378Y144847D01*
X697379Y144847D01*
X702301Y141517D01*
X702302Y141517D01*
X707620Y138865D01*
X707621Y138865D01*
X713242Y136937D01*
X713243Y136937D01*
X719069Y135766D01*
X719070Y135767D01*
X719070Y135766D01*
X725000Y135374D01*
X730930Y135766D01*
G37*
G36*
X770005Y86193D02*
X770005Y86193D01*
X770005Y86194D01*
X770005Y106194D01*
X770001Y106199D01*
X770000Y106198D01*
X770000Y106199D01*
X708003Y106199D01*
X705199Y110102D01*
X702960Y114357D01*
X701329Y118880D01*
X700338Y123585D01*
X700005Y128381D01*
X700000Y128386D01*
X680000Y128386D01*
X679995Y128382D01*
X679996Y128381D01*
X679995Y128381D01*
X680290Y124215D01*
X680290Y124214D01*
X681167Y120131D01*
X681168Y120131D01*
X681168Y120130D01*
X682611Y116211D01*
X682611Y116210D01*
X684592Y112533D01*
X687070Y109171D01*
X687070Y109170D01*
X689988Y106199D01*
X680000Y106199D01*
X679995Y106194D01*
X679995Y86194D01*
X679999Y86189D01*
X680000Y86189D01*
X770000Y86189D01*
X770005Y86193D01*
G37*
G36*
X-679995Y-128382D02*
X-679995Y-128382D01*
X-679996Y-128381D01*
X-679995Y-128381D01*
X-680290Y-124215D01*
X-680290Y-124214D01*
X-681167Y-120131D01*
X-681168Y-120131D01*
X-681168Y-120130D01*
X-682611Y-116211D01*
X-682611Y-116210D01*
X-684592Y-112533D01*
X-687070Y-109171D01*
X-687070Y-109170D01*
X-689988Y-106199D01*
X-680000Y-106199D01*
X-679995Y-106194D01*
X-679995Y-86194D01*
X-679999Y-86189D01*
X-680000Y-86189D01*
X-770000Y-86189D01*
X-770005Y-86193D01*
X-770005Y-86194D01*
X-770005Y-106194D01*
X-770001Y-106199D01*
X-770000Y-106198D01*
X-770000Y-106199D01*
X-708003Y-106199D01*
X-705199Y-110102D01*
X-702960Y-114357D01*
X-701329Y-118880D01*
X-700338Y-123585D01*
X-700005Y-128381D01*
X-700000Y-128386D01*
X-680000Y-128386D01*
X-679995Y-128382D01*
G37*
G36*
X698926Y36191D02*
X698926Y36191D01*
X698928Y36192D01*
X700217Y39896D01*
X702029Y43374D01*
X704326Y46552D01*
X707059Y49364D01*
X710171Y51751D01*
X713595Y53661D01*
X717260Y55056D01*
X721089Y55904D01*
X725000Y56189D01*
X728911Y55904D01*
X732740Y55056D01*
X736405Y53661D01*
X739830Y51751D01*
X742941Y49364D01*
X745674Y46552D01*
X747971Y43374D01*
X749783Y39896D01*
X751072Y36192D01*
X751076Y36190D01*
X751077Y36189D01*
X770000Y36189D01*
X770001Y36189D01*
X770001Y36190D01*
X770005Y36193D01*
X770004Y36194D01*
X770005Y36195D01*
X768654Y42138D01*
X768653Y42139D01*
X766516Y47847D01*
X766515Y47847D01*
X766516Y47848D01*
X763631Y53217D01*
X763630Y53217D01*
X763630Y53218D01*
X760051Y58151D01*
X760050Y58151D01*
X760050Y58152D01*
X755840Y62559D01*
X755840Y62560D01*
X751076Y66362D01*
X751075Y66362D01*
X745844Y69490D01*
X745843Y69490D01*
X745843Y69491D01*
X740239Y71888D01*
X740238Y71888D01*
X734363Y73511D01*
X734362Y73510D01*
X734362Y73511D01*
X728322Y74329D01*
X722226Y74329D01*
X716186Y73511D01*
X716185Y73510D01*
X716185Y73511D01*
X710310Y71888D01*
X710309Y71888D01*
X704705Y69491D01*
X704705Y69490D01*
X704704Y69490D01*
X699473Y66362D01*
X699472Y66362D01*
X694708Y62560D01*
X694708Y62559D01*
X690498Y58152D01*
X690498Y58151D01*
X690497Y58151D01*
X686917Y53218D01*
X686918Y53217D01*
X686917Y53217D01*
X684032Y47848D01*
X684032Y47847D01*
X681895Y42139D01*
X681894Y42138D01*
X680543Y36195D01*
X680543Y36194D01*
X680544Y36193D01*
X680546Y36189D01*
X680547Y36189D01*
X680548Y36189D01*
X698923Y36189D01*
X698926Y36191D01*
G37*
G36*
X-722226Y-74329D02*
X-722226Y-74329D01*
X-716186Y-73511D01*
X-716185Y-73510D01*
X-716185Y-73511D01*
X-710310Y-71888D01*
X-710309Y-71888D01*
X-704705Y-69491D01*
X-704705Y-69490D01*
X-704704Y-69490D01*
X-699473Y-66362D01*
X-699472Y-66362D01*
X-694708Y-62560D01*
X-694708Y-62559D01*
X-690498Y-58152D01*
X-690498Y-58151D01*
X-690497Y-58151D01*
X-686917Y-53218D01*
X-686918Y-53217D01*
X-686917Y-53217D01*
X-684032Y-47848D01*
X-684032Y-47847D01*
X-681895Y-42139D01*
X-681894Y-42138D01*
X-680543Y-36195D01*
X-680543Y-36194D01*
X-680544Y-36193D01*
X-680546Y-36189D01*
X-680547Y-36189D01*
X-680548Y-36189D01*
X-698923Y-36189D01*
X-698926Y-36191D01*
X-698928Y-36192D01*
X-700217Y-39896D01*
X-702029Y-43374D01*
X-704326Y-46552D01*
X-707059Y-49364D01*
X-710171Y-51751D01*
X-713595Y-53661D01*
X-717260Y-55056D01*
X-721089Y-55904D01*
X-725000Y-56189D01*
X-728911Y-55904D01*
X-732740Y-55056D01*
X-736405Y-53661D01*
X-739830Y-51751D01*
X-742941Y-49364D01*
X-745674Y-46552D01*
X-747971Y-43374D01*
X-749783Y-39896D01*
X-751072Y-36192D01*
X-751076Y-36190D01*
X-751077Y-36189D01*
X-770000Y-36189D01*
X-770001Y-36189D01*
X-770001Y-36190D01*
X-770005Y-36193D01*
X-770004Y-36194D01*
X-770005Y-36194D01*
X-770004Y-36194D01*
X-770005Y-36195D01*
X-768654Y-42138D01*
X-768653Y-42139D01*
X-766516Y-47847D01*
X-766515Y-47847D01*
X-766516Y-47848D01*
X-763631Y-53217D01*
X-763630Y-53217D01*
X-763630Y-53218D01*
X-760051Y-58151D01*
X-760050Y-58151D01*
X-760050Y-58152D01*
X-755840Y-62559D01*
X-755840Y-62560D01*
X-751076Y-66362D01*
X-751075Y-66362D01*
X-745844Y-69490D01*
X-745843Y-69490D01*
X-745843Y-69491D01*
X-740239Y-71888D01*
X-740238Y-71888D01*
X-734363Y-73511D01*
X-734362Y-73510D01*
X-734362Y-73511D01*
X-728322Y-74329D01*
X-722226Y-74329D01*
X-722226Y-74329D01*
G37*
G36*
X728029Y-15709D02*
X728029Y-15709D01*
X728029Y-15708D01*
X728030Y-15709D01*
X734033Y-14895D01*
X739873Y-13282D01*
X745443Y-10900D01*
X745444Y-10899D01*
X750643Y-7791D01*
X750643Y-7790D01*
X750644Y-7790D01*
X755379Y-4011D01*
X759563Y370D01*
X759563Y371D01*
X759564Y371D01*
X763122Y5274D01*
X765989Y10611D01*
X768114Y16285D01*
X769457Y22193D01*
X769456Y22194D01*
X769454Y22198D01*
X769453Y22198D01*
X769452Y22199D01*
X751077Y22199D01*
X751074Y22196D01*
X751072Y22195D01*
X749783Y18491D01*
X747971Y15014D01*
X745674Y11835D01*
X742941Y9023D01*
X739830Y6636D01*
X736405Y4726D01*
X732740Y3332D01*
X728911Y2483D01*
X728880Y2481D01*
X728812Y2476D01*
X728811Y2476D01*
X728743Y2471D01*
X728675Y2466D01*
X728607Y2461D01*
X728539Y2456D01*
X728470Y2451D01*
X728402Y2446D01*
X728334Y2441D01*
X728266Y2436D01*
X728198Y2431D01*
X728197Y2431D01*
X728129Y2426D01*
X728061Y2421D01*
X727993Y2416D01*
X727925Y2411D01*
X727856Y2406D01*
X727788Y2401D01*
X727720Y2396D01*
X727652Y2391D01*
X727584Y2386D01*
X727583Y2386D01*
X727515Y2381D01*
X727447Y2376D01*
X727379Y2371D01*
X727311Y2366D01*
X727242Y2362D01*
X727174Y2357D01*
X727106Y2352D01*
X727038Y2347D01*
X726970Y2342D01*
X726969Y2342D01*
X726901Y2337D01*
X726833Y2332D01*
X726765Y2327D01*
X726697Y2322D01*
X726628Y2317D01*
X726560Y2312D01*
X726492Y2307D01*
X726424Y2302D01*
X726356Y2297D01*
X726355Y2297D01*
X726287Y2292D01*
X726219Y2287D01*
X726151Y2282D01*
X726083Y2277D01*
X726014Y2272D01*
X725946Y2267D01*
X725878Y2262D01*
X725810Y2257D01*
X725742Y2252D01*
X725741Y2252D01*
X725673Y2247D01*
X725605Y2242D01*
X725537Y2237D01*
X725469Y2232D01*
X725400Y2227D01*
X725332Y2222D01*
X725264Y2217D01*
X725196Y2212D01*
X725128Y2207D01*
X725127Y2207D01*
X725059Y2203D01*
X725000Y2198D01*
X724941Y2203D01*
X724873Y2207D01*
X724804Y2212D01*
X724736Y2217D01*
X724668Y2222D01*
X724600Y2227D01*
X724531Y2232D01*
X724463Y2237D01*
X724395Y2242D01*
X724327Y2247D01*
X724259Y2252D01*
X724190Y2257D01*
X724122Y2262D01*
X724054Y2267D01*
X723986Y2272D01*
X723917Y2277D01*
X723849Y2282D01*
X723781Y2287D01*
X723713Y2292D01*
X723645Y2297D01*
X723576Y2302D01*
X723508Y2307D01*
X723440Y2312D01*
X723372Y2317D01*
X723303Y2322D01*
X723235Y2327D01*
X723167Y2332D01*
X723099Y2337D01*
X723031Y2342D01*
X722962Y2347D01*
X722894Y2352D01*
X722826Y2357D01*
X722758Y2362D01*
X722689Y2366D01*
X722621Y2371D01*
X722553Y2376D01*
X722485Y2381D01*
X722417Y2386D01*
X722348Y2391D01*
X722280Y2396D01*
X722212Y2401D01*
X722144Y2406D01*
X722075Y2411D01*
X722007Y2416D01*
X721939Y2421D01*
X721871Y2426D01*
X721803Y2431D01*
X721734Y2436D01*
X721666Y2441D01*
X721598Y2446D01*
X721530Y2451D01*
X721461Y2456D01*
X721393Y2461D01*
X721325Y2466D01*
X721257Y2471D01*
X721189Y2476D01*
X721120Y2481D01*
X721089Y2483D01*
X717260Y3332D01*
X713595Y4726D01*
X710171Y6636D01*
X707059Y9023D01*
X704326Y11835D01*
X702029Y15014D01*
X700217Y18491D01*
X698928Y22195D01*
X698924Y22197D01*
X698923Y22199D01*
X680548Y22199D01*
X680548Y22198D01*
X680547Y22199D01*
X680547Y22197D01*
X680543Y22194D01*
X680544Y22193D01*
X680543Y22193D01*
X681886Y16285D01*
X684011Y10611D01*
X686878Y5274D01*
X686879Y5274D01*
X686878Y5274D01*
X690436Y371D01*
X690437Y371D01*
X690437Y370D01*
X694621Y-4011D01*
X694622Y-4011D01*
X699356Y-7790D01*
X699357Y-7790D01*
X699357Y-7791D01*
X704556Y-10899D01*
X704557Y-10899D01*
X704557Y-10900D01*
X710127Y-13282D01*
X715967Y-14895D01*
X721970Y-15709D01*
X721971Y-15708D01*
X721971Y-15709D01*
X728029Y-15709D01*
X728029Y-15709D01*
G37*
G36*
X-751076Y-22198D02*
X-751076Y-22198D01*
X-751074Y-22196D01*
X-751072Y-22195D01*
X-749783Y-18491D01*
X-747971Y-15014D01*
X-745674Y-11835D01*
X-742941Y-9023D01*
X-739830Y-6636D01*
X-736405Y-4726D01*
X-732740Y-3332D01*
X-728911Y-2483D01*
X-728850Y-2479D01*
X-728781Y-2474D01*
X-728712Y-2469D01*
X-728644Y-2464D01*
X-728575Y-2459D01*
X-728506Y-2454D01*
X-728438Y-2449D01*
X-728369Y-2444D01*
X-728300Y-2439D01*
X-728232Y-2434D01*
X-728163Y-2429D01*
X-728095Y-2424D01*
X-728094Y-2424D01*
X-728026Y-2419D01*
X-727957Y-2414D01*
X-727889Y-2409D01*
X-727820Y-2404D01*
X-727751Y-2399D01*
X-727683Y-2394D01*
X-727614Y-2389D01*
X-727545Y-2384D01*
X-727477Y-2379D01*
X-727408Y-2374D01*
X-727339Y-2369D01*
X-727271Y-2364D01*
X-727202Y-2359D01*
X-727133Y-2354D01*
X-727065Y-2349D01*
X-726996Y-2344D01*
X-726927Y-2339D01*
X-726859Y-2334D01*
X-726790Y-2329D01*
X-726722Y-2324D01*
X-726721Y-2324D01*
X-726653Y-2319D01*
X-726584Y-2314D01*
X-726516Y-2309D01*
X-726515Y-2309D01*
X-726447Y-2304D01*
X-726378Y-2299D01*
X-726310Y-2294D01*
X-726241Y-2289D01*
X-726172Y-2284D01*
X-726104Y-2279D01*
X-726035Y-2274D01*
X-725966Y-2269D01*
X-725898Y-2264D01*
X-725829Y-2259D01*
X-725760Y-2254D01*
X-725692Y-2249D01*
X-725623Y-2244D01*
X-725554Y-2239D01*
X-725486Y-2234D01*
X-725417Y-2229D01*
X-725348Y-2224D01*
X-725280Y-2219D01*
X-725211Y-2214D01*
X-725143Y-2209D01*
X-725142Y-2209D01*
X-725074Y-2204D01*
X-725005Y-2199D01*
X-725000Y-2198D01*
X-724995Y-2199D01*
X-724926Y-2204D01*
X-724858Y-2209D01*
X-724789Y-2214D01*
X-724720Y-2219D01*
X-724652Y-2224D01*
X-724583Y-2229D01*
X-724514Y-2234D01*
X-724446Y-2239D01*
X-724377Y-2244D01*
X-724308Y-2249D01*
X-724240Y-2254D01*
X-724171Y-2259D01*
X-724102Y-2264D01*
X-724034Y-2269D01*
X-723965Y-2274D01*
X-723896Y-2279D01*
X-723828Y-2284D01*
X-723759Y-2289D01*
X-723690Y-2294D01*
X-723622Y-2299D01*
X-723553Y-2304D01*
X-723485Y-2309D01*
X-723484Y-2309D01*
X-723416Y-2314D01*
X-723347Y-2319D01*
X-723279Y-2324D01*
X-723210Y-2329D01*
X-723141Y-2334D01*
X-723073Y-2339D01*
X-723004Y-2344D01*
X-722935Y-2349D01*
X-722867Y-2354D01*
X-722798Y-2359D01*
X-722729Y-2364D01*
X-722661Y-2369D01*
X-722592Y-2374D01*
X-722523Y-2379D01*
X-722455Y-2384D01*
X-722386Y-2389D01*
X-722317Y-2394D01*
X-722249Y-2399D01*
X-722180Y-2404D01*
X-722112Y-2409D01*
X-722111Y-2409D01*
X-722043Y-2414D01*
X-721974Y-2419D01*
X-721906Y-2424D01*
X-721837Y-2429D01*
X-721768Y-2434D01*
X-721700Y-2439D01*
X-721631Y-2444D01*
X-721562Y-2449D01*
X-721494Y-2454D01*
X-721425Y-2459D01*
X-721356Y-2464D01*
X-721288Y-2469D01*
X-721219Y-2474D01*
X-721150Y-2479D01*
X-721089Y-2483D01*
X-717260Y-3332D01*
X-713595Y-4726D01*
X-710171Y-6636D01*
X-707059Y-9023D01*
X-704326Y-11835D01*
X-702029Y-15014D01*
X-700217Y-18491D01*
X-698928Y-22195D01*
X-698924Y-22197D01*
X-698923Y-22199D01*
X-680548Y-22199D01*
X-680548Y-22198D01*
X-680547Y-22199D01*
X-680547Y-22197D01*
X-680543Y-22194D01*
X-680544Y-22193D01*
X-680543Y-22193D01*
X-681886Y-16285D01*
X-684011Y-10611D01*
X-686878Y-5274D01*
X-686879Y-5274D01*
X-686878Y-5274D01*
X-690436Y-371D01*
X-690437Y-371D01*
X-690437Y-370D01*
X-694621Y4011D01*
X-694622Y4011D01*
X-699356Y7790D01*
X-699357Y7790D01*
X-699357Y7791D01*
X-704556Y10899D01*
X-704557Y10899D01*
X-704557Y10900D01*
X-710127Y13282D01*
X-715967Y14895D01*
X-721970Y15709D01*
X-721971Y15708D01*
X-721971Y15709D01*
X-728029Y15709D01*
X-728029Y15708D01*
X-728030Y15709D01*
X-734033Y14895D01*
X-739873Y13282D01*
X-745443Y10900D01*
X-745444Y10899D01*
X-750643Y7791D01*
X-750643Y7790D01*
X-750644Y7790D01*
X-755379Y4011D01*
X-759563Y-370D01*
X-759563Y-371D01*
X-759564Y-371D01*
X-763122Y-5274D01*
X-765989Y-10611D01*
X-768114Y-16285D01*
X-769457Y-22193D01*
X-769456Y-22194D01*
X-769454Y-22198D01*
X-769453Y-22198D01*
X-769452Y-22199D01*
X-751077Y-22199D01*
X-751076Y-22198D01*
G37*
G36*
X715005Y-136057D02*
X715005Y-136057D01*
X715005Y-136056D01*
X715005Y-91056D01*
X715001Y-91051D01*
X715000Y-91052D01*
X715000Y-91051D01*
X695000Y-91051D01*
X694995Y-91056D01*
X694995Y-136056D01*
X694999Y-136061D01*
X695000Y-136061D01*
X715000Y-136061D01*
X715005Y-136057D01*
G37*
G36*
X-694995Y91056D02*
X-694995Y91056D01*
X-694995Y136056D01*
X-694999Y136061D01*
X-695000Y136061D01*
X-715000Y136061D01*
X-715005Y136057D01*
X-715005Y136056D01*
X-715005Y91056D01*
X-715001Y91051D01*
X-715000Y91052D01*
X-715000Y91051D01*
X-695000Y91051D01*
X-694995Y91056D01*
G37*
D10*
X-520230Y-597210D03*
D11*
X-576799Y-540641D03*
D10*
X535000Y600000D03*
D11*
X591569Y543431D03*
D10*
X-535000Y600000D03*
D11*
X-591569Y543431D03*
D10*
X520230Y-597210D03*
D11*
X576799Y-540641D03*
D12*
X795000Y240000D02*
X795002Y240141D01*
X795008Y240282D01*
X795018Y240422D01*
X795032Y240562D01*
X795050Y240702D01*
X795071Y240841D01*
X795097Y240980D01*
X795126Y241118D01*
X795160Y241254D01*
X795197Y241390D01*
X795238Y241525D01*
X795283Y241659D01*
X795332Y241791D01*
X795384Y241922D01*
X795440Y242051D01*
X795500Y242178D01*
X795563Y242304D01*
X795629Y242428D01*
X795700Y242551D01*
X795773Y242671D01*
X795850Y242789D01*
X795930Y242905D01*
X796014Y243018D01*
X796100Y243129D01*
X796190Y243238D01*
X796283Y243344D01*
X796378Y243447D01*
X796477Y243548D01*
X796578Y243646D01*
X796682Y243741D01*
X796789Y243833D01*
X796898Y243922D01*
X797010Y244007D01*
X797124Y244090D01*
X797240Y244170D01*
X797359Y244246D01*
X797480Y244318D01*
X797602Y244388D01*
X797727Y244453D01*
X797853Y244516D01*
X797981Y244574D01*
X798111Y244629D01*
X798242Y244681D01*
X798375Y244728D01*
X798509Y244772D01*
X798644Y244813D01*
X798780Y244849D01*
X798917Y244881D01*
X799055Y244910D01*
X799193Y244935D01*
X799333Y244955D01*
X799473Y244972D01*
X799613Y244985D01*
X799754Y244994D01*
X799894Y244999D01*
X800035Y245000D01*
X800176Y244997D01*
X800317Y244990D01*
X800457Y244979D01*
X800597Y244964D01*
X800737Y244945D01*
X800876Y244923D01*
X801014Y244896D01*
X801152Y244866D01*
X801288Y244831D01*
X801424Y244793D01*
X801558Y244751D01*
X801692Y244705D01*
X801824Y244656D01*
X801954Y244602D01*
X802083Y244545D01*
X802210Y244485D01*
X802336Y244421D01*
X802459Y244353D01*
X802581Y244282D01*
X802701Y244208D01*
X802818Y244130D01*
X802933Y244049D01*
X803046Y243965D01*
X803157Y243878D01*
X803265Y243787D01*
X803370Y243694D01*
X803473Y243597D01*
X803573Y243498D01*
X803670Y243396D01*
X803764Y243291D01*
X803855Y243184D01*
X803943Y243074D01*
X804028Y242962D01*
X804110Y242847D01*
X804189Y242730D01*
X804264Y242611D01*
X804336Y242490D01*
X804404Y242367D01*
X804469Y242242D01*
X804531Y242115D01*
X804588Y241986D01*
X804643Y241856D01*
X804693Y241725D01*
X804740Y241592D01*
X804783Y241458D01*
X804822Y241322D01*
X804857Y241186D01*
X804889Y241049D01*
X804916Y240911D01*
X804940Y240772D01*
X804960Y240632D01*
X804976Y240492D01*
X804988Y240352D01*
X804996Y240211D01*
X805000Y240070D01*
X805000Y239930D01*
X804996Y239789D01*
X804988Y239648D01*
X804976Y239508D01*
X804960Y239368D01*
X804940Y239228D01*
X804916Y239089D01*
X804889Y238951D01*
X804857Y238814D01*
X804822Y238678D01*
X804783Y238542D01*
X804740Y238408D01*
X804693Y238275D01*
X804643Y238144D01*
X804588Y238014D01*
X804531Y237885D01*
X804469Y237758D01*
X804404Y237633D01*
X804336Y237510D01*
X804264Y237389D01*
X804189Y237270D01*
X804110Y237153D01*
X804028Y237038D01*
X803943Y236926D01*
X803855Y236816D01*
X803764Y236709D01*
X803670Y236604D01*
X803573Y236502D01*
X803473Y236403D01*
X803370Y236306D01*
X803265Y236213D01*
X803157Y236122D01*
X803046Y236035D01*
X802933Y235951D01*
X802818Y235870D01*
X802701Y235792D01*
X802581Y235718D01*
X802459Y235647D01*
X802336Y235579D01*
X802210Y235515D01*
X802083Y235455D01*
X801954Y235398D01*
X801824Y235344D01*
X801692Y235295D01*
X801558Y235249D01*
X801424Y235207D01*
X801288Y235169D01*
X801152Y235134D01*
X801014Y235104D01*
X800876Y235077D01*
X800737Y235055D01*
X800597Y235036D01*
X800457Y235021D01*
X800317Y235010D01*
X800176Y235003D01*
X800035Y235000D01*
X799894Y235001D01*
X799754Y235006D01*
X799613Y235015D01*
X799473Y235028D01*
X799333Y235045D01*
X799193Y235065D01*
X799055Y235090D01*
X798917Y235119D01*
X798780Y235151D01*
X798644Y235187D01*
X798509Y235228D01*
X798375Y235272D01*
X798242Y235319D01*
X798111Y235371D01*
X797981Y235426D01*
X797853Y235484D01*
X797727Y235547D01*
X797602Y235612D01*
X797480Y235682D01*
X797359Y235754D01*
X797240Y235830D01*
X797124Y235910D01*
X797010Y235993D01*
X796898Y236078D01*
X796789Y236167D01*
X796682Y236259D01*
X796578Y236354D01*
X796477Y236452D01*
X796378Y236553D01*
X796283Y236656D01*
X796190Y236762D01*
X796100Y236871D01*
X796014Y236982D01*
X795930Y237095D01*
X795850Y237211D01*
X795773Y237329D01*
X795700Y237449D01*
X795629Y237572D01*
X795563Y237696D01*
X795500Y237822D01*
X795440Y237949D01*
X795384Y238078D01*
X795332Y238209D01*
X795283Y238341D01*
X795238Y238475D01*
X795197Y238610D01*
X795160Y238746D01*
X795126Y238882D01*
X795097Y239020D01*
X795071Y239159D01*
X795050Y239298D01*
X795032Y239438D01*
X795018Y239578D01*
X795008Y239718D01*
X795002Y239859D01*
X795000Y240000D01*
X795000Y200000D02*
X795002Y200141D01*
X795008Y200282D01*
X795018Y200422D01*
X795032Y200562D01*
X795050Y200702D01*
X795071Y200841D01*
X795097Y200980D01*
X795126Y201118D01*
X795160Y201254D01*
X795197Y201390D01*
X795238Y201525D01*
X795283Y201659D01*
X795332Y201791D01*
X795384Y201922D01*
X795440Y202051D01*
X795500Y202178D01*
X795563Y202304D01*
X795629Y202428D01*
X795700Y202551D01*
X795773Y202671D01*
X795850Y202789D01*
X795930Y202905D01*
X796014Y203018D01*
X796100Y203129D01*
X796190Y203238D01*
X796283Y203344D01*
X796378Y203447D01*
X796477Y203548D01*
X796578Y203646D01*
X796682Y203741D01*
X796789Y203833D01*
X796898Y203922D01*
X797010Y204007D01*
X797124Y204090D01*
X797240Y204170D01*
X797359Y204246D01*
X797480Y204318D01*
X797602Y204388D01*
X797727Y204453D01*
X797853Y204516D01*
X797981Y204574D01*
X798111Y204629D01*
X798242Y204681D01*
X798375Y204728D01*
X798509Y204772D01*
X798644Y204813D01*
X798780Y204849D01*
X798917Y204881D01*
X799055Y204910D01*
X799193Y204935D01*
X799333Y204955D01*
X799473Y204972D01*
X799613Y204985D01*
X799754Y204994D01*
X799894Y204999D01*
X800035Y205000D01*
X800176Y204997D01*
X800317Y204990D01*
X800457Y204979D01*
X800597Y204964D01*
X800737Y204945D01*
X800876Y204923D01*
X801014Y204896D01*
X801152Y204866D01*
X801288Y204831D01*
X801424Y204793D01*
X801558Y204751D01*
X801692Y204705D01*
X801824Y204656D01*
X801954Y204602D01*
X802083Y204545D01*
X802210Y204485D01*
X802336Y204421D01*
X802459Y204353D01*
X802581Y204282D01*
X802701Y204208D01*
X802818Y204130D01*
X802933Y204049D01*
X803046Y203965D01*
X803157Y203878D01*
X803265Y203787D01*
X803370Y203694D01*
X803473Y203597D01*
X803573Y203498D01*
X803670Y203396D01*
X803764Y203291D01*
X803855Y203184D01*
X803943Y203074D01*
X804028Y202962D01*
X804110Y202847D01*
X804189Y202730D01*
X804264Y202611D01*
X804336Y202490D01*
X804404Y202367D01*
X804469Y202242D01*
X804531Y202115D01*
X804588Y201986D01*
X804643Y201856D01*
X804693Y201725D01*
X804740Y201592D01*
X804783Y201458D01*
X804822Y201322D01*
X804857Y201186D01*
X804889Y201049D01*
X804916Y200911D01*
X804940Y200772D01*
X804960Y200632D01*
X804976Y200492D01*
X804988Y200352D01*
X804996Y200211D01*
X805000Y200070D01*
X805000Y199930D01*
X804996Y199789D01*
X804988Y199648D01*
X804976Y199508D01*
X804960Y199368D01*
X804940Y199228D01*
X804916Y199089D01*
X804889Y198951D01*
X804857Y198814D01*
X804822Y198678D01*
X804783Y198542D01*
X804740Y198408D01*
X804693Y198275D01*
X804643Y198144D01*
X804588Y198014D01*
X804531Y197885D01*
X804469Y197758D01*
X804404Y197633D01*
X804336Y197510D01*
X804264Y197389D01*
X804189Y197270D01*
X804110Y197153D01*
X804028Y197038D01*
X803943Y196926D01*
X803855Y196816D01*
X803764Y196709D01*
X803670Y196604D01*
X803573Y196502D01*
X803473Y196403D01*
X803370Y196306D01*
X803265Y196213D01*
X803157Y196122D01*
X803046Y196035D01*
X802933Y195951D01*
X802818Y195870D01*
X802701Y195792D01*
X802581Y195718D01*
X802459Y195647D01*
X802336Y195579D01*
X802210Y195515D01*
X802083Y195455D01*
X801954Y195398D01*
X801824Y195344D01*
X801692Y195295D01*
X801558Y195249D01*
X801424Y195207D01*
X801288Y195169D01*
X801152Y195134D01*
X801014Y195104D01*
X800876Y195077D01*
X800737Y195055D01*
X800597Y195036D01*
X800457Y195021D01*
X800317Y195010D01*
X800176Y195003D01*
X800035Y195000D01*
X799894Y195001D01*
X799754Y195006D01*
X799613Y195015D01*
X799473Y195028D01*
X799333Y195045D01*
X799193Y195065D01*
X799055Y195090D01*
X798917Y195119D01*
X798780Y195151D01*
X798644Y195187D01*
X798509Y195228D01*
X798375Y195272D01*
X798242Y195319D01*
X798111Y195371D01*
X797981Y195426D01*
X797853Y195484D01*
X797727Y195547D01*
X797602Y195612D01*
X797480Y195682D01*
X797359Y195754D01*
X797240Y195830D01*
X797124Y195910D01*
X797010Y195993D01*
X796898Y196078D01*
X796789Y196167D01*
X796682Y196259D01*
X796578Y196354D01*
X796477Y196452D01*
X796378Y196553D01*
X796283Y196656D01*
X796190Y196762D01*
X796100Y196871D01*
X796014Y196982D01*
X795930Y197095D01*
X795850Y197211D01*
X795773Y197329D01*
X795700Y197449D01*
X795629Y197572D01*
X795563Y197696D01*
X795500Y197822D01*
X795440Y197949D01*
X795384Y198078D01*
X795332Y198209D01*
X795283Y198341D01*
X795238Y198475D01*
X795197Y198610D01*
X795160Y198746D01*
X795126Y198882D01*
X795097Y199020D01*
X795071Y199159D01*
X795050Y199298D01*
X795032Y199438D01*
X795018Y199578D01*
X795008Y199718D01*
X795002Y199859D01*
X795000Y200000D01*
X795000Y120000D02*
X795002Y120141D01*
X795008Y120282D01*
X795018Y120422D01*
X795032Y120562D01*
X795050Y120702D01*
X795071Y120841D01*
X795097Y120980D01*
X795126Y121118D01*
X795160Y121254D01*
X795197Y121390D01*
X795238Y121525D01*
X795283Y121659D01*
X795332Y121791D01*
X795384Y121922D01*
X795440Y122051D01*
X795500Y122178D01*
X795563Y122304D01*
X795629Y122428D01*
X795700Y122551D01*
X795773Y122671D01*
X795850Y122789D01*
X795930Y122905D01*
X796014Y123018D01*
X796100Y123129D01*
X796190Y123238D01*
X796283Y123344D01*
X796378Y123447D01*
X796477Y123548D01*
X796578Y123646D01*
X796682Y123741D01*
X796789Y123833D01*
X796898Y123922D01*
X797010Y124007D01*
X797124Y124090D01*
X797240Y124170D01*
X797359Y124246D01*
X797480Y124318D01*
X797602Y124388D01*
X797727Y124453D01*
X797853Y124516D01*
X797981Y124574D01*
X798111Y124629D01*
X798242Y124681D01*
X798375Y124728D01*
X798509Y124772D01*
X798644Y124813D01*
X798780Y124849D01*
X798917Y124881D01*
X799055Y124910D01*
X799193Y124935D01*
X799333Y124955D01*
X799473Y124972D01*
X799613Y124985D01*
X799754Y124994D01*
X799894Y124999D01*
X800035Y125000D01*
X800176Y124997D01*
X800317Y124990D01*
X800457Y124979D01*
X800597Y124964D01*
X800737Y124945D01*
X800876Y124923D01*
X801014Y124896D01*
X801152Y124866D01*
X801288Y124831D01*
X801424Y124793D01*
X801558Y124751D01*
X801692Y124705D01*
X801824Y124656D01*
X801954Y124602D01*
X802083Y124545D01*
X802210Y124485D01*
X802336Y124421D01*
X802459Y124353D01*
X802581Y124282D01*
X802701Y124208D01*
X802818Y124130D01*
X802933Y124049D01*
X803046Y123965D01*
X803157Y123878D01*
X803265Y123787D01*
X803370Y123694D01*
X803473Y123597D01*
X803573Y123498D01*
X803670Y123396D01*
X803764Y123291D01*
X803855Y123184D01*
X803943Y123074D01*
X804028Y122962D01*
X804110Y122847D01*
X804189Y122730D01*
X804264Y122611D01*
X804336Y122490D01*
X804404Y122367D01*
X804469Y122242D01*
X804531Y122115D01*
X804588Y121986D01*
X804643Y121856D01*
X804693Y121725D01*
X804740Y121592D01*
X804783Y121458D01*
X804822Y121322D01*
X804857Y121186D01*
X804889Y121049D01*
X804916Y120911D01*
X804940Y120772D01*
X804960Y120632D01*
X804976Y120492D01*
X804988Y120352D01*
X804996Y120211D01*
X805000Y120070D01*
X805000Y119930D01*
X804996Y119789D01*
X804988Y119648D01*
X804976Y119508D01*
X804960Y119368D01*
X804940Y119228D01*
X804916Y119089D01*
X804889Y118951D01*
X804857Y118814D01*
X804822Y118678D01*
X804783Y118542D01*
X804740Y118408D01*
X804693Y118275D01*
X804643Y118144D01*
X804588Y118014D01*
X804531Y117885D01*
X804469Y117758D01*
X804404Y117633D01*
X804336Y117510D01*
X804264Y117389D01*
X804189Y117270D01*
X804110Y117153D01*
X804028Y117038D01*
X803943Y116926D01*
X803855Y116816D01*
X803764Y116709D01*
X803670Y116604D01*
X803573Y116502D01*
X803473Y116403D01*
X803370Y116306D01*
X803265Y116213D01*
X803157Y116122D01*
X803046Y116035D01*
X802933Y115951D01*
X802818Y115870D01*
X802701Y115792D01*
X802581Y115718D01*
X802459Y115647D01*
X802336Y115579D01*
X802210Y115515D01*
X802083Y115455D01*
X801954Y115398D01*
X801824Y115344D01*
X801692Y115295D01*
X801558Y115249D01*
X801424Y115207D01*
X801288Y115169D01*
X801152Y115134D01*
X801014Y115104D01*
X800876Y115077D01*
X800737Y115055D01*
X800597Y115036D01*
X800457Y115021D01*
X800317Y115010D01*
X800176Y115003D01*
X800035Y115000D01*
X799894Y115001D01*
X799754Y115006D01*
X799613Y115015D01*
X799473Y115028D01*
X799333Y115045D01*
X799193Y115065D01*
X799055Y115090D01*
X798917Y115119D01*
X798780Y115151D01*
X798644Y115187D01*
X798509Y115228D01*
X798375Y115272D01*
X798242Y115319D01*
X798111Y115371D01*
X797981Y115426D01*
X797853Y115484D01*
X797727Y115547D01*
X797602Y115612D01*
X797480Y115682D01*
X797359Y115754D01*
X797240Y115830D01*
X797124Y115910D01*
X797010Y115993D01*
X796898Y116078D01*
X796789Y116167D01*
X796682Y116259D01*
X796578Y116354D01*
X796477Y116452D01*
X796378Y116553D01*
X796283Y116656D01*
X796190Y116762D01*
X796100Y116871D01*
X796014Y116982D01*
X795930Y117095D01*
X795850Y117211D01*
X795773Y117329D01*
X795700Y117449D01*
X795629Y117572D01*
X795563Y117696D01*
X795500Y117822D01*
X795440Y117949D01*
X795384Y118078D01*
X795332Y118209D01*
X795283Y118341D01*
X795238Y118475D01*
X795197Y118610D01*
X795160Y118746D01*
X795126Y118882D01*
X795097Y119020D01*
X795071Y119159D01*
X795050Y119298D01*
X795032Y119438D01*
X795018Y119578D01*
X795008Y119718D01*
X795002Y119859D01*
X795000Y120000D01*
X795000Y160000D02*
X795002Y160141D01*
X795008Y160282D01*
X795018Y160422D01*
X795032Y160562D01*
X795050Y160702D01*
X795071Y160841D01*
X795097Y160980D01*
X795126Y161118D01*
X795160Y161254D01*
X795197Y161390D01*
X795238Y161525D01*
X795283Y161659D01*
X795332Y161791D01*
X795384Y161922D01*
X795440Y162051D01*
X795500Y162178D01*
X795563Y162304D01*
X795629Y162428D01*
X795700Y162551D01*
X795773Y162671D01*
X795850Y162789D01*
X795930Y162905D01*
X796014Y163018D01*
X796100Y163129D01*
X796190Y163238D01*
X796283Y163344D01*
X796378Y163447D01*
X796477Y163548D01*
X796578Y163646D01*
X796682Y163741D01*
X796789Y163833D01*
X796898Y163922D01*
X797010Y164007D01*
X797124Y164090D01*
X797240Y164170D01*
X797359Y164246D01*
X797480Y164318D01*
X797602Y164388D01*
X797727Y164453D01*
X797853Y164516D01*
X797981Y164574D01*
X798111Y164629D01*
X798242Y164681D01*
X798375Y164728D01*
X798509Y164772D01*
X798644Y164813D01*
X798780Y164849D01*
X798917Y164881D01*
X799055Y164910D01*
X799193Y164935D01*
X799333Y164955D01*
X799473Y164972D01*
X799613Y164985D01*
X799754Y164994D01*
X799894Y164999D01*
X800035Y165000D01*
X800176Y164997D01*
X800317Y164990D01*
X800457Y164979D01*
X800597Y164964D01*
X800737Y164945D01*
X800876Y164923D01*
X801014Y164896D01*
X801152Y164866D01*
X801288Y164831D01*
X801424Y164793D01*
X801558Y164751D01*
X801692Y164705D01*
X801824Y164656D01*
X801954Y164602D01*
X802083Y164545D01*
X802210Y164485D01*
X802336Y164421D01*
X802459Y164353D01*
X802581Y164282D01*
X802701Y164208D01*
X802818Y164130D01*
X802933Y164049D01*
X803046Y163965D01*
X803157Y163878D01*
X803265Y163787D01*
X803370Y163694D01*
X803473Y163597D01*
X803573Y163498D01*
X803670Y163396D01*
X803764Y163291D01*
X803855Y163184D01*
X803943Y163074D01*
X804028Y162962D01*
X804110Y162847D01*
X804189Y162730D01*
X804264Y162611D01*
X804336Y162490D01*
X804404Y162367D01*
X804469Y162242D01*
X804531Y162115D01*
X804588Y161986D01*
X804643Y161856D01*
X804693Y161725D01*
X804740Y161592D01*
X804783Y161458D01*
X804822Y161322D01*
X804857Y161186D01*
X804889Y161049D01*
X804916Y160911D01*
X804940Y160772D01*
X804960Y160632D01*
X804976Y160492D01*
X804988Y160352D01*
X804996Y160211D01*
X805000Y160070D01*
X805000Y159930D01*
X804996Y159789D01*
X804988Y159648D01*
X804976Y159508D01*
X804960Y159368D01*
X804940Y159228D01*
X804916Y159089D01*
X804889Y158951D01*
X804857Y158814D01*
X804822Y158678D01*
X804783Y158542D01*
X804740Y158408D01*
X804693Y158275D01*
X804643Y158144D01*
X804588Y158014D01*
X804531Y157885D01*
X804469Y157758D01*
X804404Y157633D01*
X804336Y157510D01*
X804264Y157389D01*
X804189Y157270D01*
X804110Y157153D01*
X804028Y157038D01*
X803943Y156926D01*
X803855Y156816D01*
X803764Y156709D01*
X803670Y156604D01*
X803573Y156502D01*
X803473Y156403D01*
X803370Y156306D01*
X803265Y156213D01*
X803157Y156122D01*
X803046Y156035D01*
X802933Y155951D01*
X802818Y155870D01*
X802701Y155792D01*
X802581Y155718D01*
X802459Y155647D01*
X802336Y155579D01*
X802210Y155515D01*
X802083Y155455D01*
X801954Y155398D01*
X801824Y155344D01*
X801692Y155295D01*
X801558Y155249D01*
X801424Y155207D01*
X801288Y155169D01*
X801152Y155134D01*
X801014Y155104D01*
X800876Y155077D01*
X800737Y155055D01*
X800597Y155036D01*
X800457Y155021D01*
X800317Y155010D01*
X800176Y155003D01*
X800035Y155000D01*
X799894Y155001D01*
X799754Y155006D01*
X799613Y155015D01*
X799473Y155028D01*
X799333Y155045D01*
X799193Y155065D01*
X799055Y155090D01*
X798917Y155119D01*
X798780Y155151D01*
X798644Y155187D01*
X798509Y155228D01*
X798375Y155272D01*
X798242Y155319D01*
X798111Y155371D01*
X797981Y155426D01*
X797853Y155484D01*
X797727Y155547D01*
X797602Y155612D01*
X797480Y155682D01*
X797359Y155754D01*
X797240Y155830D01*
X797124Y155910D01*
X797010Y155993D01*
X796898Y156078D01*
X796789Y156167D01*
X796682Y156259D01*
X796578Y156354D01*
X796477Y156452D01*
X796378Y156553D01*
X796283Y156656D01*
X796190Y156762D01*
X796100Y156871D01*
X796014Y156982D01*
X795930Y157095D01*
X795850Y157211D01*
X795773Y157329D01*
X795700Y157449D01*
X795629Y157572D01*
X795563Y157696D01*
X795500Y157822D01*
X795440Y157949D01*
X795384Y158078D01*
X795332Y158209D01*
X795283Y158341D01*
X795238Y158475D01*
X795197Y158610D01*
X795160Y158746D01*
X795126Y158882D01*
X795097Y159020D01*
X795071Y159159D01*
X795050Y159298D01*
X795032Y159438D01*
X795018Y159578D01*
X795008Y159718D01*
X795002Y159859D01*
X795000Y160000D01*
X795000Y60000D02*
X795002Y60141D01*
X795008Y60282D01*
X795018Y60422D01*
X795032Y60562D01*
X795050Y60702D01*
X795071Y60841D01*
X795097Y60980D01*
X795126Y61118D01*
X795160Y61254D01*
X795197Y61390D01*
X795238Y61525D01*
X795283Y61659D01*
X795332Y61791D01*
X795384Y61922D01*
X795440Y62051D01*
X795500Y62178D01*
X795563Y62304D01*
X795629Y62428D01*
X795700Y62551D01*
X795773Y62671D01*
X795850Y62789D01*
X795930Y62905D01*
X796014Y63018D01*
X796100Y63129D01*
X796190Y63238D01*
X796283Y63344D01*
X796378Y63447D01*
X796477Y63548D01*
X796578Y63646D01*
X796682Y63741D01*
X796789Y63833D01*
X796898Y63922D01*
X797010Y64007D01*
X797124Y64090D01*
X797240Y64170D01*
X797359Y64246D01*
X797480Y64318D01*
X797602Y64388D01*
X797727Y64453D01*
X797853Y64516D01*
X797981Y64574D01*
X798111Y64629D01*
X798242Y64681D01*
X798375Y64728D01*
X798509Y64772D01*
X798644Y64813D01*
X798780Y64849D01*
X798917Y64881D01*
X799055Y64910D01*
X799193Y64935D01*
X799333Y64955D01*
X799473Y64972D01*
X799613Y64985D01*
X799754Y64994D01*
X799894Y64999D01*
X800035Y65000D01*
X800176Y64997D01*
X800317Y64990D01*
X800457Y64979D01*
X800597Y64964D01*
X800737Y64945D01*
X800876Y64923D01*
X801014Y64896D01*
X801152Y64866D01*
X801288Y64831D01*
X801424Y64793D01*
X801558Y64751D01*
X801692Y64705D01*
X801824Y64656D01*
X801954Y64602D01*
X802083Y64545D01*
X802210Y64485D01*
X802336Y64421D01*
X802459Y64353D01*
X802581Y64282D01*
X802701Y64208D01*
X802818Y64130D01*
X802933Y64049D01*
X803046Y63965D01*
X803157Y63878D01*
X803265Y63787D01*
X803370Y63694D01*
X803473Y63597D01*
X803573Y63498D01*
X803670Y63396D01*
X803764Y63291D01*
X803855Y63184D01*
X803943Y63074D01*
X804028Y62962D01*
X804110Y62847D01*
X804189Y62730D01*
X804264Y62611D01*
X804336Y62490D01*
X804404Y62367D01*
X804469Y62242D01*
X804531Y62115D01*
X804588Y61986D01*
X804643Y61856D01*
X804693Y61725D01*
X804740Y61592D01*
X804783Y61458D01*
X804822Y61322D01*
X804857Y61186D01*
X804889Y61049D01*
X804916Y60911D01*
X804940Y60772D01*
X804960Y60632D01*
X804976Y60492D01*
X804988Y60352D01*
X804996Y60211D01*
X805000Y60070D01*
X805000Y59930D01*
X804996Y59789D01*
X804988Y59648D01*
X804976Y59508D01*
X804960Y59368D01*
X804940Y59228D01*
X804916Y59089D01*
X804889Y58951D01*
X804857Y58814D01*
X804822Y58678D01*
X804783Y58542D01*
X804740Y58408D01*
X804693Y58275D01*
X804643Y58144D01*
X804588Y58014D01*
X804531Y57885D01*
X804469Y57758D01*
X804404Y57633D01*
X804336Y57510D01*
X804264Y57389D01*
X804189Y57270D01*
X804110Y57153D01*
X804028Y57038D01*
X803943Y56926D01*
X803855Y56816D01*
X803764Y56709D01*
X803670Y56604D01*
X803573Y56502D01*
X803473Y56403D01*
X803370Y56306D01*
X803265Y56213D01*
X803157Y56122D01*
X803046Y56035D01*
X802933Y55951D01*
X802818Y55870D01*
X802701Y55792D01*
X802581Y55718D01*
X802459Y55647D01*
X802336Y55579D01*
X802210Y55515D01*
X802083Y55455D01*
X801954Y55398D01*
X801824Y55344D01*
X801692Y55295D01*
X801558Y55249D01*
X801424Y55207D01*
X801288Y55169D01*
X801152Y55134D01*
X801014Y55104D01*
X800876Y55077D01*
X800737Y55055D01*
X800597Y55036D01*
X800457Y55021D01*
X800317Y55010D01*
X800176Y55003D01*
X800035Y55000D01*
X799894Y55001D01*
X799754Y55006D01*
X799613Y55015D01*
X799473Y55028D01*
X799333Y55045D01*
X799193Y55065D01*
X799055Y55090D01*
X798917Y55119D01*
X798780Y55151D01*
X798644Y55187D01*
X798509Y55228D01*
X798375Y55272D01*
X798242Y55319D01*
X798111Y55371D01*
X797981Y55426D01*
X797853Y55484D01*
X797727Y55547D01*
X797602Y55612D01*
X797480Y55682D01*
X797359Y55754D01*
X797240Y55830D01*
X797124Y55910D01*
X797010Y55993D01*
X796898Y56078D01*
X796789Y56167D01*
X796682Y56259D01*
X796578Y56354D01*
X796477Y56452D01*
X796378Y56553D01*
X796283Y56656D01*
X796190Y56762D01*
X796100Y56871D01*
X796014Y56982D01*
X795930Y57095D01*
X795850Y57211D01*
X795773Y57329D01*
X795700Y57449D01*
X795629Y57572D01*
X795563Y57696D01*
X795500Y57822D01*
X795440Y57949D01*
X795384Y58078D01*
X795332Y58209D01*
X795283Y58341D01*
X795238Y58475D01*
X795197Y58610D01*
X795160Y58746D01*
X795126Y58882D01*
X795097Y59020D01*
X795071Y59159D01*
X795050Y59298D01*
X795032Y59438D01*
X795018Y59578D01*
X795008Y59718D01*
X795002Y59859D01*
X795000Y60000D01*
X795000Y20000D02*
X795002Y20141D01*
X795008Y20282D01*
X795018Y20422D01*
X795032Y20562D01*
X795050Y20702D01*
X795071Y20841D01*
X795097Y20980D01*
X795126Y21118D01*
X795160Y21254D01*
X795197Y21390D01*
X795238Y21525D01*
X795283Y21659D01*
X795332Y21791D01*
X795384Y21922D01*
X795440Y22051D01*
X795500Y22178D01*
X795563Y22304D01*
X795629Y22428D01*
X795700Y22551D01*
X795773Y22671D01*
X795850Y22789D01*
X795930Y22905D01*
X796014Y23018D01*
X796100Y23129D01*
X796190Y23238D01*
X796283Y23344D01*
X796378Y23447D01*
X796477Y23548D01*
X796578Y23646D01*
X796682Y23741D01*
X796789Y23833D01*
X796898Y23922D01*
X797010Y24007D01*
X797124Y24090D01*
X797240Y24170D01*
X797359Y24246D01*
X797480Y24318D01*
X797602Y24388D01*
X797727Y24453D01*
X797853Y24516D01*
X797981Y24574D01*
X798111Y24629D01*
X798242Y24681D01*
X798375Y24728D01*
X798509Y24772D01*
X798644Y24813D01*
X798780Y24849D01*
X798917Y24881D01*
X799055Y24910D01*
X799193Y24935D01*
X799333Y24955D01*
X799473Y24972D01*
X799613Y24985D01*
X799754Y24994D01*
X799894Y24999D01*
X800035Y25000D01*
X800176Y24997D01*
X800317Y24990D01*
X800457Y24979D01*
X800597Y24964D01*
X800737Y24945D01*
X800876Y24923D01*
X801014Y24896D01*
X801152Y24866D01*
X801288Y24831D01*
X801424Y24793D01*
X801558Y24751D01*
X801692Y24705D01*
X801824Y24656D01*
X801954Y24602D01*
X802083Y24545D01*
X802210Y24485D01*
X802336Y24421D01*
X802459Y24353D01*
X802581Y24282D01*
X802701Y24208D01*
X802818Y24130D01*
X802933Y24049D01*
X803046Y23965D01*
X803157Y23878D01*
X803265Y23787D01*
X803370Y23694D01*
X803473Y23597D01*
X803573Y23498D01*
X803670Y23396D01*
X803764Y23291D01*
X803855Y23184D01*
X803943Y23074D01*
X804028Y22962D01*
X804110Y22847D01*
X804189Y22730D01*
X804264Y22611D01*
X804336Y22490D01*
X804404Y22367D01*
X804469Y22242D01*
X804531Y22115D01*
X804588Y21986D01*
X804643Y21856D01*
X804693Y21725D01*
X804740Y21592D01*
X804783Y21458D01*
X804822Y21322D01*
X804857Y21186D01*
X804889Y21049D01*
X804916Y20911D01*
X804940Y20772D01*
X804960Y20632D01*
X804976Y20492D01*
X804988Y20352D01*
X804996Y20211D01*
X805000Y20070D01*
X805000Y19930D01*
X804996Y19789D01*
X804988Y19648D01*
X804976Y19508D01*
X804960Y19368D01*
X804940Y19228D01*
X804916Y19089D01*
X804889Y18951D01*
X804857Y18814D01*
X804822Y18678D01*
X804783Y18542D01*
X804740Y18408D01*
X804693Y18275D01*
X804643Y18144D01*
X804588Y18014D01*
X804531Y17885D01*
X804469Y17758D01*
X804404Y17633D01*
X804336Y17510D01*
X804264Y17389D01*
X804189Y17270D01*
X804110Y17153D01*
X804028Y17038D01*
X803943Y16926D01*
X803855Y16816D01*
X803764Y16709D01*
X803670Y16604D01*
X803573Y16502D01*
X803473Y16403D01*
X803370Y16306D01*
X803265Y16213D01*
X803157Y16122D01*
X803046Y16035D01*
X802933Y15951D01*
X802818Y15870D01*
X802701Y15792D01*
X802581Y15718D01*
X802459Y15647D01*
X802336Y15579D01*
X802210Y15515D01*
X802083Y15455D01*
X801954Y15398D01*
X801824Y15344D01*
X801692Y15295D01*
X801558Y15249D01*
X801424Y15207D01*
X801288Y15169D01*
X801152Y15134D01*
X801014Y15104D01*
X800876Y15077D01*
X800737Y15055D01*
X800597Y15036D01*
X800457Y15021D01*
X800317Y15010D01*
X800176Y15003D01*
X800035Y15000D01*
X799894Y15001D01*
X799754Y15006D01*
X799613Y15015D01*
X799473Y15028D01*
X799333Y15045D01*
X799193Y15065D01*
X799055Y15090D01*
X798917Y15119D01*
X798780Y15151D01*
X798644Y15187D01*
X798509Y15228D01*
X798375Y15272D01*
X798242Y15319D01*
X798111Y15371D01*
X797981Y15426D01*
X797853Y15484D01*
X797727Y15547D01*
X797602Y15612D01*
X797480Y15682D01*
X797359Y15754D01*
X797240Y15830D01*
X797124Y15910D01*
X797010Y15993D01*
X796898Y16078D01*
X796789Y16167D01*
X796682Y16259D01*
X796578Y16354D01*
X796477Y16452D01*
X796378Y16553D01*
X796283Y16656D01*
X796190Y16762D01*
X796100Y16871D01*
X796014Y16982D01*
X795930Y17095D01*
X795850Y17211D01*
X795773Y17329D01*
X795700Y17449D01*
X795629Y17572D01*
X795563Y17696D01*
X795500Y17822D01*
X795440Y17949D01*
X795384Y18078D01*
X795332Y18209D01*
X795283Y18341D01*
X795238Y18475D01*
X795197Y18610D01*
X795160Y18746D01*
X795126Y18882D01*
X795097Y19020D01*
X795071Y19159D01*
X795050Y19298D01*
X795032Y19438D01*
X795018Y19578D01*
X795008Y19718D01*
X795002Y19859D01*
X795000Y20000D01*
X795000Y-20000D02*
X795002Y-19859D01*
X795008Y-19718D01*
X795018Y-19578D01*
X795032Y-19438D01*
X795050Y-19298D01*
X795071Y-19159D01*
X795097Y-19020D01*
X795126Y-18882D01*
X795160Y-18746D01*
X795197Y-18610D01*
X795238Y-18475D01*
X795283Y-18341D01*
X795332Y-18209D01*
X795384Y-18078D01*
X795440Y-17949D01*
X795500Y-17822D01*
X795563Y-17696D01*
X795629Y-17572D01*
X795700Y-17449D01*
X795773Y-17329D01*
X795850Y-17211D01*
X795930Y-17095D01*
X796014Y-16982D01*
X796100Y-16871D01*
X796190Y-16762D01*
X796283Y-16656D01*
X796378Y-16553D01*
X796477Y-16452D01*
X796578Y-16354D01*
X796682Y-16259D01*
X796789Y-16167D01*
X796898Y-16078D01*
X797010Y-15993D01*
X797124Y-15910D01*
X797240Y-15830D01*
X797359Y-15754D01*
X797480Y-15682D01*
X797602Y-15612D01*
X797727Y-15547D01*
X797853Y-15484D01*
X797981Y-15426D01*
X798111Y-15371D01*
X798242Y-15319D01*
X798375Y-15272D01*
X798509Y-15228D01*
X798644Y-15187D01*
X798780Y-15151D01*
X798917Y-15119D01*
X799055Y-15090D01*
X799193Y-15065D01*
X799333Y-15045D01*
X799473Y-15028D01*
X799613Y-15015D01*
X799754Y-15006D01*
X799894Y-15001D01*
X800035Y-15000D01*
X800176Y-15003D01*
X800317Y-15010D01*
X800457Y-15021D01*
X800597Y-15036D01*
X800737Y-15055D01*
X800876Y-15077D01*
X801014Y-15104D01*
X801152Y-15134D01*
X801288Y-15169D01*
X801424Y-15207D01*
X801558Y-15249D01*
X801692Y-15295D01*
X801824Y-15344D01*
X801954Y-15398D01*
X802083Y-15455D01*
X802210Y-15515D01*
X802336Y-15579D01*
X802459Y-15647D01*
X802581Y-15718D01*
X802701Y-15792D01*
X802818Y-15870D01*
X802933Y-15951D01*
X803046Y-16035D01*
X803157Y-16122D01*
X803265Y-16213D01*
X803370Y-16306D01*
X803473Y-16403D01*
X803573Y-16502D01*
X803670Y-16604D01*
X803764Y-16709D01*
X803855Y-16816D01*
X803943Y-16926D01*
X804028Y-17038D01*
X804110Y-17153D01*
X804189Y-17270D01*
X804264Y-17389D01*
X804336Y-17510D01*
X804404Y-17633D01*
X804469Y-17758D01*
X804531Y-17885D01*
X804588Y-18014D01*
X804643Y-18144D01*
X804693Y-18275D01*
X804740Y-18408D01*
X804783Y-18542D01*
X804822Y-18678D01*
X804857Y-18814D01*
X804889Y-18951D01*
X804916Y-19089D01*
X804940Y-19228D01*
X804960Y-19368D01*
X804976Y-19508D01*
X804988Y-19648D01*
X804996Y-19789D01*
X805000Y-19930D01*
X805000Y-20070D01*
X804996Y-20211D01*
X804988Y-20352D01*
X804976Y-20492D01*
X804960Y-20632D01*
X804940Y-20772D01*
X804916Y-20911D01*
X804889Y-21049D01*
X804857Y-21186D01*
X804822Y-21322D01*
X804783Y-21458D01*
X804740Y-21592D01*
X804693Y-21725D01*
X804643Y-21856D01*
X804588Y-21986D01*
X804531Y-22115D01*
X804469Y-22242D01*
X804404Y-22367D01*
X804336Y-22490D01*
X804264Y-22611D01*
X804189Y-22730D01*
X804110Y-22847D01*
X804028Y-22962D01*
X803943Y-23074D01*
X803855Y-23184D01*
X803764Y-23291D01*
X803670Y-23396D01*
X803573Y-23498D01*
X803473Y-23597D01*
X803370Y-23694D01*
X803265Y-23787D01*
X803157Y-23878D01*
X803046Y-23965D01*
X802933Y-24049D01*
X802818Y-24130D01*
X802701Y-24208D01*
X802581Y-24282D01*
X802459Y-24353D01*
X802336Y-24421D01*
X802210Y-24485D01*
X802083Y-24545D01*
X801954Y-24602D01*
X801824Y-24656D01*
X801692Y-24705D01*
X801558Y-24751D01*
X801424Y-24793D01*
X801288Y-24831D01*
X801152Y-24866D01*
X801014Y-24896D01*
X800876Y-24923D01*
X800737Y-24945D01*
X800597Y-24964D01*
X800457Y-24979D01*
X800317Y-24990D01*
X800176Y-24997D01*
X800035Y-25000D01*
X799894Y-24999D01*
X799754Y-24994D01*
X799613Y-24985D01*
X799473Y-24972D01*
X799333Y-24955D01*
X799193Y-24935D01*
X799055Y-24910D01*
X798917Y-24881D01*
X798780Y-24849D01*
X798644Y-24813D01*
X798509Y-24772D01*
X798375Y-24728D01*
X798242Y-24681D01*
X798111Y-24629D01*
X797981Y-24574D01*
X797853Y-24516D01*
X797727Y-24453D01*
X797602Y-24388D01*
X797480Y-24318D01*
X797359Y-24246D01*
X797240Y-24170D01*
X797124Y-24090D01*
X797010Y-24007D01*
X796898Y-23922D01*
X796789Y-23833D01*
X796682Y-23741D01*
X796578Y-23646D01*
X796477Y-23548D01*
X796378Y-23447D01*
X796283Y-23344D01*
X796190Y-23238D01*
X796100Y-23129D01*
X796014Y-23018D01*
X795930Y-22905D01*
X795850Y-22789D01*
X795773Y-22671D01*
X795700Y-22551D01*
X795629Y-22428D01*
X795563Y-22304D01*
X795500Y-22178D01*
X795440Y-22051D01*
X795384Y-21922D01*
X795332Y-21791D01*
X795283Y-21659D01*
X795238Y-21525D01*
X795197Y-21390D01*
X795160Y-21254D01*
X795126Y-21118D01*
X795097Y-20980D01*
X795071Y-20841D01*
X795050Y-20702D01*
X795032Y-20562D01*
X795018Y-20422D01*
X795008Y-20282D01*
X795002Y-20141D01*
X795000Y-20000D01*
X795000Y-60000D02*
X795002Y-59859D01*
X795008Y-59718D01*
X795018Y-59578D01*
X795032Y-59438D01*
X795050Y-59298D01*
X795071Y-59159D01*
X795097Y-59020D01*
X795126Y-58882D01*
X795160Y-58746D01*
X795197Y-58610D01*
X795238Y-58475D01*
X795283Y-58341D01*
X795332Y-58209D01*
X795384Y-58078D01*
X795440Y-57949D01*
X795500Y-57822D01*
X795563Y-57696D01*
X795629Y-57572D01*
X795700Y-57449D01*
X795773Y-57329D01*
X795850Y-57211D01*
X795930Y-57095D01*
X796014Y-56982D01*
X796100Y-56871D01*
X796190Y-56762D01*
X796283Y-56656D01*
X796378Y-56553D01*
X796477Y-56452D01*
X796578Y-56354D01*
X796682Y-56259D01*
X796789Y-56167D01*
X796898Y-56078D01*
X797010Y-55993D01*
X797124Y-55910D01*
X797240Y-55830D01*
X797359Y-55754D01*
X797480Y-55682D01*
X797602Y-55612D01*
X797727Y-55547D01*
X797853Y-55484D01*
X797981Y-55426D01*
X798111Y-55371D01*
X798242Y-55319D01*
X798375Y-55272D01*
X798509Y-55228D01*
X798644Y-55187D01*
X798780Y-55151D01*
X798917Y-55119D01*
X799055Y-55090D01*
X799193Y-55065D01*
X799333Y-55045D01*
X799473Y-55028D01*
X799613Y-55015D01*
X799754Y-55006D01*
X799894Y-55001D01*
X800035Y-55000D01*
X800176Y-55003D01*
X800317Y-55010D01*
X800457Y-55021D01*
X800597Y-55036D01*
X800737Y-55055D01*
X800876Y-55077D01*
X801014Y-55104D01*
X801152Y-55134D01*
X801288Y-55169D01*
X801424Y-55207D01*
X801558Y-55249D01*
X801692Y-55295D01*
X801824Y-55344D01*
X801954Y-55398D01*
X802083Y-55455D01*
X802210Y-55515D01*
X802336Y-55579D01*
X802459Y-55647D01*
X802581Y-55718D01*
X802701Y-55792D01*
X802818Y-55870D01*
X802933Y-55951D01*
X803046Y-56035D01*
X803157Y-56122D01*
X803265Y-56213D01*
X803370Y-56306D01*
X803473Y-56403D01*
X803573Y-56502D01*
X803670Y-56604D01*
X803764Y-56709D01*
X803855Y-56816D01*
X803943Y-56926D01*
X804028Y-57038D01*
X804110Y-57153D01*
X804189Y-57270D01*
X804264Y-57389D01*
X804336Y-57510D01*
X804404Y-57633D01*
X804469Y-57758D01*
X804531Y-57885D01*
X804588Y-58014D01*
X804643Y-58144D01*
X804693Y-58275D01*
X804740Y-58408D01*
X804783Y-58542D01*
X804822Y-58678D01*
X804857Y-58814D01*
X804889Y-58951D01*
X804916Y-59089D01*
X804940Y-59228D01*
X804960Y-59368D01*
X804976Y-59508D01*
X804988Y-59648D01*
X804996Y-59789D01*
X805000Y-59930D01*
X805000Y-60070D01*
X804996Y-60211D01*
X804988Y-60352D01*
X804976Y-60492D01*
X804960Y-60632D01*
X804940Y-60772D01*
X804916Y-60911D01*
X804889Y-61049D01*
X804857Y-61186D01*
X804822Y-61322D01*
X804783Y-61458D01*
X804740Y-61592D01*
X804693Y-61725D01*
X804643Y-61856D01*
X804588Y-61986D01*
X804531Y-62115D01*
X804469Y-62242D01*
X804404Y-62367D01*
X804336Y-62490D01*
X804264Y-62611D01*
X804189Y-62730D01*
X804110Y-62847D01*
X804028Y-62962D01*
X803943Y-63074D01*
X803855Y-63184D01*
X803764Y-63291D01*
X803670Y-63396D01*
X803573Y-63498D01*
X803473Y-63597D01*
X803370Y-63694D01*
X803265Y-63787D01*
X803157Y-63878D01*
X803046Y-63965D01*
X802933Y-64049D01*
X802818Y-64130D01*
X802701Y-64208D01*
X802581Y-64282D01*
X802459Y-64353D01*
X802336Y-64421D01*
X802210Y-64485D01*
X802083Y-64545D01*
X801954Y-64602D01*
X801824Y-64656D01*
X801692Y-64705D01*
X801558Y-64751D01*
X801424Y-64793D01*
X801288Y-64831D01*
X801152Y-64866D01*
X801014Y-64896D01*
X800876Y-64923D01*
X800737Y-64945D01*
X800597Y-64964D01*
X800457Y-64979D01*
X800317Y-64990D01*
X800176Y-64997D01*
X800035Y-65000D01*
X799894Y-64999D01*
X799754Y-64994D01*
X799613Y-64985D01*
X799473Y-64972D01*
X799333Y-64955D01*
X799193Y-64935D01*
X799055Y-64910D01*
X798917Y-64881D01*
X798780Y-64849D01*
X798644Y-64813D01*
X798509Y-64772D01*
X798375Y-64728D01*
X798242Y-64681D01*
X798111Y-64629D01*
X797981Y-64574D01*
X797853Y-64516D01*
X797727Y-64453D01*
X797602Y-64388D01*
X797480Y-64318D01*
X797359Y-64246D01*
X797240Y-64170D01*
X797124Y-64090D01*
X797010Y-64007D01*
X796898Y-63922D01*
X796789Y-63833D01*
X796682Y-63741D01*
X796578Y-63646D01*
X796477Y-63548D01*
X796378Y-63447D01*
X796283Y-63344D01*
X796190Y-63238D01*
X796100Y-63129D01*
X796014Y-63018D01*
X795930Y-62905D01*
X795850Y-62789D01*
X795773Y-62671D01*
X795700Y-62551D01*
X795629Y-62428D01*
X795563Y-62304D01*
X795500Y-62178D01*
X795440Y-62051D01*
X795384Y-61922D01*
X795332Y-61791D01*
X795283Y-61659D01*
X795238Y-61525D01*
X795197Y-61390D01*
X795160Y-61254D01*
X795126Y-61118D01*
X795097Y-60980D01*
X795071Y-60841D01*
X795050Y-60702D01*
X795032Y-60562D01*
X795018Y-60422D01*
X795008Y-60282D01*
X795002Y-60141D01*
X795000Y-60000D01*
X795000Y-160000D02*
X795002Y-159859D01*
X795008Y-159718D01*
X795018Y-159578D01*
X795032Y-159438D01*
X795050Y-159298D01*
X795071Y-159159D01*
X795097Y-159020D01*
X795126Y-158882D01*
X795160Y-158746D01*
X795197Y-158610D01*
X795238Y-158475D01*
X795283Y-158341D01*
X795332Y-158209D01*
X795384Y-158078D01*
X795440Y-157949D01*
X795500Y-157822D01*
X795563Y-157696D01*
X795629Y-157572D01*
X795700Y-157449D01*
X795773Y-157329D01*
X795850Y-157211D01*
X795930Y-157095D01*
X796014Y-156982D01*
X796100Y-156871D01*
X796190Y-156762D01*
X796283Y-156656D01*
X796378Y-156553D01*
X796477Y-156452D01*
X796578Y-156354D01*
X796682Y-156259D01*
X796789Y-156167D01*
X796898Y-156078D01*
X797010Y-155993D01*
X797124Y-155910D01*
X797240Y-155830D01*
X797359Y-155754D01*
X797480Y-155682D01*
X797602Y-155612D01*
X797727Y-155547D01*
X797853Y-155484D01*
X797981Y-155426D01*
X798111Y-155371D01*
X798242Y-155319D01*
X798375Y-155272D01*
X798509Y-155228D01*
X798644Y-155187D01*
X798780Y-155151D01*
X798917Y-155119D01*
X799055Y-155090D01*
X799193Y-155065D01*
X799333Y-155045D01*
X799473Y-155028D01*
X799613Y-155015D01*
X799754Y-155006D01*
X799894Y-155001D01*
X800035Y-155000D01*
X800176Y-155003D01*
X800317Y-155010D01*
X800457Y-155021D01*
X800597Y-155036D01*
X800737Y-155055D01*
X800876Y-155077D01*
X801014Y-155104D01*
X801152Y-155134D01*
X801288Y-155169D01*
X801424Y-155207D01*
X801558Y-155249D01*
X801692Y-155295D01*
X801824Y-155344D01*
X801954Y-155398D01*
X802083Y-155455D01*
X802210Y-155515D01*
X802336Y-155579D01*
X802459Y-155647D01*
X802581Y-155718D01*
X802701Y-155792D01*
X802818Y-155870D01*
X802933Y-155951D01*
X803046Y-156035D01*
X803157Y-156122D01*
X803265Y-156213D01*
X803370Y-156306D01*
X803473Y-156403D01*
X803573Y-156502D01*
X803670Y-156604D01*
X803764Y-156709D01*
X803855Y-156816D01*
X803943Y-156926D01*
X804028Y-157038D01*
X804110Y-157153D01*
X804189Y-157270D01*
X804264Y-157389D01*
X804336Y-157510D01*
X804404Y-157633D01*
X804469Y-157758D01*
X804531Y-157885D01*
X804588Y-158014D01*
X804643Y-158144D01*
X804693Y-158275D01*
X804740Y-158408D01*
X804783Y-158542D01*
X804822Y-158678D01*
X804857Y-158814D01*
X804889Y-158951D01*
X804916Y-159089D01*
X804940Y-159228D01*
X804960Y-159368D01*
X804976Y-159508D01*
X804988Y-159648D01*
X804996Y-159789D01*
X805000Y-159930D01*
X805000Y-160070D01*
X804996Y-160211D01*
X804988Y-160352D01*
X804976Y-160492D01*
X804960Y-160632D01*
X804940Y-160772D01*
X804916Y-160911D01*
X804889Y-161049D01*
X804857Y-161186D01*
X804822Y-161322D01*
X804783Y-161458D01*
X804740Y-161592D01*
X804693Y-161725D01*
X804643Y-161856D01*
X804588Y-161986D01*
X804531Y-162115D01*
X804469Y-162242D01*
X804404Y-162367D01*
X804336Y-162490D01*
X804264Y-162611D01*
X804189Y-162730D01*
X804110Y-162847D01*
X804028Y-162962D01*
X803943Y-163074D01*
X803855Y-163184D01*
X803764Y-163291D01*
X803670Y-163396D01*
X803573Y-163498D01*
X803473Y-163597D01*
X803370Y-163694D01*
X803265Y-163787D01*
X803157Y-163878D01*
X803046Y-163965D01*
X802933Y-164049D01*
X802818Y-164130D01*
X802701Y-164208D01*
X802581Y-164282D01*
X802459Y-164353D01*
X802336Y-164421D01*
X802210Y-164485D01*
X802083Y-164545D01*
X801954Y-164602D01*
X801824Y-164656D01*
X801692Y-164705D01*
X801558Y-164751D01*
X801424Y-164793D01*
X801288Y-164831D01*
X801152Y-164866D01*
X801014Y-164896D01*
X800876Y-164923D01*
X800737Y-164945D01*
X800597Y-164964D01*
X800457Y-164979D01*
X800317Y-164990D01*
X800176Y-164997D01*
X800035Y-165000D01*
X799894Y-164999D01*
X799754Y-164994D01*
X799613Y-164985D01*
X799473Y-164972D01*
X799333Y-164955D01*
X799193Y-164935D01*
X799055Y-164910D01*
X798917Y-164881D01*
X798780Y-164849D01*
X798644Y-164813D01*
X798509Y-164772D01*
X798375Y-164728D01*
X798242Y-164681D01*
X798111Y-164629D01*
X797981Y-164574D01*
X797853Y-164516D01*
X797727Y-164453D01*
X797602Y-164388D01*
X797480Y-164318D01*
X797359Y-164246D01*
X797240Y-164170D01*
X797124Y-164090D01*
X797010Y-164007D01*
X796898Y-163922D01*
X796789Y-163833D01*
X796682Y-163741D01*
X796578Y-163646D01*
X796477Y-163548D01*
X796378Y-163447D01*
X796283Y-163344D01*
X796190Y-163238D01*
X796100Y-163129D01*
X796014Y-163018D01*
X795930Y-162905D01*
X795850Y-162789D01*
X795773Y-162671D01*
X795700Y-162551D01*
X795629Y-162428D01*
X795563Y-162304D01*
X795500Y-162178D01*
X795440Y-162051D01*
X795384Y-161922D01*
X795332Y-161791D01*
X795283Y-161659D01*
X795238Y-161525D01*
X795197Y-161390D01*
X795160Y-161254D01*
X795126Y-161118D01*
X795097Y-160980D01*
X795071Y-160841D01*
X795050Y-160702D01*
X795032Y-160562D01*
X795018Y-160422D01*
X795008Y-160282D01*
X795002Y-160141D01*
X795000Y-160000D01*
X795000Y-120000D02*
X795002Y-119859D01*
X795008Y-119718D01*
X795018Y-119578D01*
X795032Y-119438D01*
X795050Y-119298D01*
X795071Y-119159D01*
X795097Y-119020D01*
X795126Y-118882D01*
X795160Y-118746D01*
X795197Y-118610D01*
X795238Y-118475D01*
X795283Y-118341D01*
X795332Y-118209D01*
X795384Y-118078D01*
X795440Y-117949D01*
X795500Y-117822D01*
X795563Y-117696D01*
X795629Y-117572D01*
X795700Y-117449D01*
X795773Y-117329D01*
X795850Y-117211D01*
X795930Y-117095D01*
X796014Y-116982D01*
X796100Y-116871D01*
X796190Y-116762D01*
X796283Y-116656D01*
X796378Y-116553D01*
X796477Y-116452D01*
X796578Y-116354D01*
X796682Y-116259D01*
X796789Y-116167D01*
X796898Y-116078D01*
X797010Y-115993D01*
X797124Y-115910D01*
X797240Y-115830D01*
X797359Y-115754D01*
X797480Y-115682D01*
X797602Y-115612D01*
X797727Y-115547D01*
X797853Y-115484D01*
X797981Y-115426D01*
X798111Y-115371D01*
X798242Y-115319D01*
X798375Y-115272D01*
X798509Y-115228D01*
X798644Y-115187D01*
X798780Y-115151D01*
X798917Y-115119D01*
X799055Y-115090D01*
X799193Y-115065D01*
X799333Y-115045D01*
X799473Y-115028D01*
X799613Y-115015D01*
X799754Y-115006D01*
X799894Y-115001D01*
X800035Y-115000D01*
X800176Y-115003D01*
X800317Y-115010D01*
X800457Y-115021D01*
X800597Y-115036D01*
X800737Y-115055D01*
X800876Y-115077D01*
X801014Y-115104D01*
X801152Y-115134D01*
X801288Y-115169D01*
X801424Y-115207D01*
X801558Y-115249D01*
X801692Y-115295D01*
X801824Y-115344D01*
X801954Y-115398D01*
X802083Y-115455D01*
X802210Y-115515D01*
X802336Y-115579D01*
X802459Y-115647D01*
X802581Y-115718D01*
X802701Y-115792D01*
X802818Y-115870D01*
X802933Y-115951D01*
X803046Y-116035D01*
X803157Y-116122D01*
X803265Y-116213D01*
X803370Y-116306D01*
X803473Y-116403D01*
X803573Y-116502D01*
X803670Y-116604D01*
X803764Y-116709D01*
X803855Y-116816D01*
X803943Y-116926D01*
X804028Y-117038D01*
X804110Y-117153D01*
X804189Y-117270D01*
X804264Y-117389D01*
X804336Y-117510D01*
X804404Y-117633D01*
X804469Y-117758D01*
X804531Y-117885D01*
X804588Y-118014D01*
X804643Y-118144D01*
X804693Y-118275D01*
X804740Y-118408D01*
X804783Y-118542D01*
X804822Y-118678D01*
X804857Y-118814D01*
X804889Y-118951D01*
X804916Y-119089D01*
X804940Y-119228D01*
X804960Y-119368D01*
X804976Y-119508D01*
X804988Y-119648D01*
X804996Y-119789D01*
X805000Y-119930D01*
X805000Y-120070D01*
X804996Y-120211D01*
X804988Y-120352D01*
X804976Y-120492D01*
X804960Y-120632D01*
X804940Y-120772D01*
X804916Y-120911D01*
X804889Y-121049D01*
X804857Y-121186D01*
X804822Y-121322D01*
X804783Y-121458D01*
X804740Y-121592D01*
X804693Y-121725D01*
X804643Y-121856D01*
X804588Y-121986D01*
X804531Y-122115D01*
X804469Y-122242D01*
X804404Y-122367D01*
X804336Y-122490D01*
X804264Y-122611D01*
X804189Y-122730D01*
X804110Y-122847D01*
X804028Y-122962D01*
X803943Y-123074D01*
X803855Y-123184D01*
X803764Y-123291D01*
X803670Y-123396D01*
X803573Y-123498D01*
X803473Y-123597D01*
X803370Y-123694D01*
X803265Y-123787D01*
X803157Y-123878D01*
X803046Y-123965D01*
X802933Y-124049D01*
X802818Y-124130D01*
X802701Y-124208D01*
X802581Y-124282D01*
X802459Y-124353D01*
X802336Y-124421D01*
X802210Y-124485D01*
X802083Y-124545D01*
X801954Y-124602D01*
X801824Y-124656D01*
X801692Y-124705D01*
X801558Y-124751D01*
X801424Y-124793D01*
X801288Y-124831D01*
X801152Y-124866D01*
X801014Y-124896D01*
X800876Y-124923D01*
X800737Y-124945D01*
X800597Y-124964D01*
X800457Y-124979D01*
X800317Y-124990D01*
X800176Y-124997D01*
X800035Y-125000D01*
X799894Y-124999D01*
X799754Y-124994D01*
X799613Y-124985D01*
X799473Y-124972D01*
X799333Y-124955D01*
X799193Y-124935D01*
X799055Y-124910D01*
X798917Y-124881D01*
X798780Y-124849D01*
X798644Y-124813D01*
X798509Y-124772D01*
X798375Y-124728D01*
X798242Y-124681D01*
X798111Y-124629D01*
X797981Y-124574D01*
X797853Y-124516D01*
X797727Y-124453D01*
X797602Y-124388D01*
X797480Y-124318D01*
X797359Y-124246D01*
X797240Y-124170D01*
X797124Y-124090D01*
X797010Y-124007D01*
X796898Y-123922D01*
X796789Y-123833D01*
X796682Y-123741D01*
X796578Y-123646D01*
X796477Y-123548D01*
X796378Y-123447D01*
X796283Y-123344D01*
X796190Y-123238D01*
X796100Y-123129D01*
X796014Y-123018D01*
X795930Y-122905D01*
X795850Y-122789D01*
X795773Y-122671D01*
X795700Y-122551D01*
X795629Y-122428D01*
X795563Y-122304D01*
X795500Y-122178D01*
X795440Y-122051D01*
X795384Y-121922D01*
X795332Y-121791D01*
X795283Y-121659D01*
X795238Y-121525D01*
X795197Y-121390D01*
X795160Y-121254D01*
X795126Y-121118D01*
X795097Y-120980D01*
X795071Y-120841D01*
X795050Y-120702D01*
X795032Y-120562D01*
X795018Y-120422D01*
X795008Y-120282D01*
X795002Y-120141D01*
X795000Y-120000D01*
X795000Y-200000D02*
X795002Y-199859D01*
X795008Y-199718D01*
X795018Y-199578D01*
X795032Y-199438D01*
X795050Y-199298D01*
X795071Y-199159D01*
X795097Y-199020D01*
X795126Y-198882D01*
X795160Y-198746D01*
X795197Y-198610D01*
X795238Y-198475D01*
X795283Y-198341D01*
X795332Y-198209D01*
X795384Y-198078D01*
X795440Y-197949D01*
X795500Y-197822D01*
X795563Y-197696D01*
X795629Y-197572D01*
X795700Y-197449D01*
X795773Y-197329D01*
X795850Y-197211D01*
X795930Y-197095D01*
X796014Y-196982D01*
X796100Y-196871D01*
X796190Y-196762D01*
X796283Y-196656D01*
X796378Y-196553D01*
X796477Y-196452D01*
X796578Y-196354D01*
X796682Y-196259D01*
X796789Y-196167D01*
X796898Y-196078D01*
X797010Y-195993D01*
X797124Y-195910D01*
X797240Y-195830D01*
X797359Y-195754D01*
X797480Y-195682D01*
X797602Y-195612D01*
X797727Y-195547D01*
X797853Y-195484D01*
X797981Y-195426D01*
X798111Y-195371D01*
X798242Y-195319D01*
X798375Y-195272D01*
X798509Y-195228D01*
X798644Y-195187D01*
X798780Y-195151D01*
X798917Y-195119D01*
X799055Y-195090D01*
X799193Y-195065D01*
X799333Y-195045D01*
X799473Y-195028D01*
X799613Y-195015D01*
X799754Y-195006D01*
X799894Y-195001D01*
X800035Y-195000D01*
X800176Y-195003D01*
X800317Y-195010D01*
X800457Y-195021D01*
X800597Y-195036D01*
X800737Y-195055D01*
X800876Y-195077D01*
X801014Y-195104D01*
X801152Y-195134D01*
X801288Y-195169D01*
X801424Y-195207D01*
X801558Y-195249D01*
X801692Y-195295D01*
X801824Y-195344D01*
X801954Y-195398D01*
X802083Y-195455D01*
X802210Y-195515D01*
X802336Y-195579D01*
X802459Y-195647D01*
X802581Y-195718D01*
X802701Y-195792D01*
X802818Y-195870D01*
X802933Y-195951D01*
X803046Y-196035D01*
X803157Y-196122D01*
X803265Y-196213D01*
X803370Y-196306D01*
X803473Y-196403D01*
X803573Y-196502D01*
X803670Y-196604D01*
X803764Y-196709D01*
X803855Y-196816D01*
X803943Y-196926D01*
X804028Y-197038D01*
X804110Y-197153D01*
X804189Y-197270D01*
X804264Y-197389D01*
X804336Y-197510D01*
X804404Y-197633D01*
X804469Y-197758D01*
X804531Y-197885D01*
X804588Y-198014D01*
X804643Y-198144D01*
X804693Y-198275D01*
X804740Y-198408D01*
X804783Y-198542D01*
X804822Y-198678D01*
X804857Y-198814D01*
X804889Y-198951D01*
X804916Y-199089D01*
X804940Y-199228D01*
X804960Y-199368D01*
X804976Y-199508D01*
X804988Y-199648D01*
X804996Y-199789D01*
X805000Y-199930D01*
X805000Y-200070D01*
X804996Y-200211D01*
X804988Y-200352D01*
X804976Y-200492D01*
X804960Y-200632D01*
X804940Y-200772D01*
X804916Y-200911D01*
X804889Y-201049D01*
X804857Y-201186D01*
X804822Y-201322D01*
X804783Y-201458D01*
X804740Y-201592D01*
X804693Y-201725D01*
X804643Y-201856D01*
X804588Y-201986D01*
X804531Y-202115D01*
X804469Y-202242D01*
X804404Y-202367D01*
X804336Y-202490D01*
X804264Y-202611D01*
X804189Y-202730D01*
X804110Y-202847D01*
X804028Y-202962D01*
X803943Y-203074D01*
X803855Y-203184D01*
X803764Y-203291D01*
X803670Y-203396D01*
X803573Y-203498D01*
X803473Y-203597D01*
X803370Y-203694D01*
X803265Y-203787D01*
X803157Y-203878D01*
X803046Y-203965D01*
X802933Y-204049D01*
X802818Y-204130D01*
X802701Y-204208D01*
X802581Y-204282D01*
X802459Y-204353D01*
X802336Y-204421D01*
X802210Y-204485D01*
X802083Y-204545D01*
X801954Y-204602D01*
X801824Y-204656D01*
X801692Y-204705D01*
X801558Y-204751D01*
X801424Y-204793D01*
X801288Y-204831D01*
X801152Y-204866D01*
X801014Y-204896D01*
X800876Y-204923D01*
X800737Y-204945D01*
X800597Y-204964D01*
X800457Y-204979D01*
X800317Y-204990D01*
X800176Y-204997D01*
X800035Y-205000D01*
X799894Y-204999D01*
X799754Y-204994D01*
X799613Y-204985D01*
X799473Y-204972D01*
X799333Y-204955D01*
X799193Y-204935D01*
X799055Y-204910D01*
X798917Y-204881D01*
X798780Y-204849D01*
X798644Y-204813D01*
X798509Y-204772D01*
X798375Y-204728D01*
X798242Y-204681D01*
X798111Y-204629D01*
X797981Y-204574D01*
X797853Y-204516D01*
X797727Y-204453D01*
X797602Y-204388D01*
X797480Y-204318D01*
X797359Y-204246D01*
X797240Y-204170D01*
X797124Y-204090D01*
X797010Y-204007D01*
X796898Y-203922D01*
X796789Y-203833D01*
X796682Y-203741D01*
X796578Y-203646D01*
X796477Y-203548D01*
X796378Y-203447D01*
X796283Y-203344D01*
X796190Y-203238D01*
X796100Y-203129D01*
X796014Y-203018D01*
X795930Y-202905D01*
X795850Y-202789D01*
X795773Y-202671D01*
X795700Y-202551D01*
X795629Y-202428D01*
X795563Y-202304D01*
X795500Y-202178D01*
X795440Y-202051D01*
X795384Y-201922D01*
X795332Y-201791D01*
X795283Y-201659D01*
X795238Y-201525D01*
X795197Y-201390D01*
X795160Y-201254D01*
X795126Y-201118D01*
X795097Y-200980D01*
X795071Y-200841D01*
X795050Y-200702D01*
X795032Y-200562D01*
X795018Y-200422D01*
X795008Y-200282D01*
X795002Y-200141D01*
X795000Y-200000D01*
X795000Y-240000D02*
X795002Y-239859D01*
X795008Y-239718D01*
X795018Y-239578D01*
X795032Y-239438D01*
X795050Y-239298D01*
X795071Y-239159D01*
X795097Y-239020D01*
X795126Y-238882D01*
X795160Y-238746D01*
X795197Y-238610D01*
X795238Y-238475D01*
X795283Y-238341D01*
X795332Y-238209D01*
X795384Y-238078D01*
X795440Y-237949D01*
X795500Y-237822D01*
X795563Y-237696D01*
X795629Y-237572D01*
X795700Y-237449D01*
X795773Y-237329D01*
X795850Y-237211D01*
X795930Y-237095D01*
X796014Y-236982D01*
X796100Y-236871D01*
X796190Y-236762D01*
X796283Y-236656D01*
X796378Y-236553D01*
X796477Y-236452D01*
X796578Y-236354D01*
X796682Y-236259D01*
X796789Y-236167D01*
X796898Y-236078D01*
X797010Y-235993D01*
X797124Y-235910D01*
X797240Y-235830D01*
X797359Y-235754D01*
X797480Y-235682D01*
X797602Y-235612D01*
X797727Y-235547D01*
X797853Y-235484D01*
X797981Y-235426D01*
X798111Y-235371D01*
X798242Y-235319D01*
X798375Y-235272D01*
X798509Y-235228D01*
X798644Y-235187D01*
X798780Y-235151D01*
X798917Y-235119D01*
X799055Y-235090D01*
X799193Y-235065D01*
X799333Y-235045D01*
X799473Y-235028D01*
X799613Y-235015D01*
X799754Y-235006D01*
X799894Y-235001D01*
X800035Y-235000D01*
X800176Y-235003D01*
X800317Y-235010D01*
X800457Y-235021D01*
X800597Y-235036D01*
X800737Y-235055D01*
X800876Y-235077D01*
X801014Y-235104D01*
X801152Y-235134D01*
X801288Y-235169D01*
X801424Y-235207D01*
X801558Y-235249D01*
X801692Y-235295D01*
X801824Y-235344D01*
X801954Y-235398D01*
X802083Y-235455D01*
X802210Y-235515D01*
X802336Y-235579D01*
X802459Y-235647D01*
X802581Y-235718D01*
X802701Y-235792D01*
X802818Y-235870D01*
X802933Y-235951D01*
X803046Y-236035D01*
X803157Y-236122D01*
X803265Y-236213D01*
X803370Y-236306D01*
X803473Y-236403D01*
X803573Y-236502D01*
X803670Y-236604D01*
X803764Y-236709D01*
X803855Y-236816D01*
X803943Y-236926D01*
X804028Y-237038D01*
X804110Y-237153D01*
X804189Y-237270D01*
X804264Y-237389D01*
X804336Y-237510D01*
X804404Y-237633D01*
X804469Y-237758D01*
X804531Y-237885D01*
X804588Y-238014D01*
X804643Y-238144D01*
X804693Y-238275D01*
X804740Y-238408D01*
X804783Y-238542D01*
X804822Y-238678D01*
X804857Y-238814D01*
X804889Y-238951D01*
X804916Y-239089D01*
X804940Y-239228D01*
X804960Y-239368D01*
X804976Y-239508D01*
X804988Y-239648D01*
X804996Y-239789D01*
X805000Y-239930D01*
X805000Y-240070D01*
X804996Y-240211D01*
X804988Y-240352D01*
X804976Y-240492D01*
X804960Y-240632D01*
X804940Y-240772D01*
X804916Y-240911D01*
X804889Y-241049D01*
X804857Y-241186D01*
X804822Y-241322D01*
X804783Y-241458D01*
X804740Y-241592D01*
X804693Y-241725D01*
X804643Y-241856D01*
X804588Y-241986D01*
X804531Y-242115D01*
X804469Y-242242D01*
X804404Y-242367D01*
X804336Y-242490D01*
X804264Y-242611D01*
X804189Y-242730D01*
X804110Y-242847D01*
X804028Y-242962D01*
X803943Y-243074D01*
X803855Y-243184D01*
X803764Y-243291D01*
X803670Y-243396D01*
X803573Y-243498D01*
X803473Y-243597D01*
X803370Y-243694D01*
X803265Y-243787D01*
X803157Y-243878D01*
X803046Y-243965D01*
X802933Y-244049D01*
X802818Y-244130D01*
X802701Y-244208D01*
X802581Y-244282D01*
X802459Y-244353D01*
X802336Y-244421D01*
X802210Y-244485D01*
X802083Y-244545D01*
X801954Y-244602D01*
X801824Y-244656D01*
X801692Y-244705D01*
X801558Y-244751D01*
X801424Y-244793D01*
X801288Y-244831D01*
X801152Y-244866D01*
X801014Y-244896D01*
X800876Y-244923D01*
X800737Y-244945D01*
X800597Y-244964D01*
X800457Y-244979D01*
X800317Y-244990D01*
X800176Y-244997D01*
X800035Y-245000D01*
X799894Y-244999D01*
X799754Y-244994D01*
X799613Y-244985D01*
X799473Y-244972D01*
X799333Y-244955D01*
X799193Y-244935D01*
X799055Y-244910D01*
X798917Y-244881D01*
X798780Y-244849D01*
X798644Y-244813D01*
X798509Y-244772D01*
X798375Y-244728D01*
X798242Y-244681D01*
X798111Y-244629D01*
X797981Y-244574D01*
X797853Y-244516D01*
X797727Y-244453D01*
X797602Y-244388D01*
X797480Y-244318D01*
X797359Y-244246D01*
X797240Y-244170D01*
X797124Y-244090D01*
X797010Y-244007D01*
X796898Y-243922D01*
X796789Y-243833D01*
X796682Y-243741D01*
X796578Y-243646D01*
X796477Y-243548D01*
X796378Y-243447D01*
X796283Y-243344D01*
X796190Y-243238D01*
X796100Y-243129D01*
X796014Y-243018D01*
X795930Y-242905D01*
X795850Y-242789D01*
X795773Y-242671D01*
X795700Y-242551D01*
X795629Y-242428D01*
X795563Y-242304D01*
X795500Y-242178D01*
X795440Y-242051D01*
X795384Y-241922D01*
X795332Y-241791D01*
X795283Y-241659D01*
X795238Y-241525D01*
X795197Y-241390D01*
X795160Y-241254D01*
X795126Y-241118D01*
X795097Y-240980D01*
X795071Y-240841D01*
X795050Y-240702D01*
X795032Y-240562D01*
X795018Y-240422D01*
X795008Y-240282D01*
X795002Y-240141D01*
X795000Y-240000D01*
X-805000Y-240000D02*
X-804998Y-239859D01*
X-804992Y-239718D01*
X-804982Y-239578D01*
X-804968Y-239438D01*
X-804950Y-239298D01*
X-804929Y-239159D01*
X-804903Y-239020D01*
X-804874Y-238882D01*
X-804840Y-238746D01*
X-804803Y-238610D01*
X-804762Y-238475D01*
X-804717Y-238341D01*
X-804668Y-238209D01*
X-804616Y-238078D01*
X-804560Y-237949D01*
X-804500Y-237822D01*
X-804437Y-237696D01*
X-804371Y-237572D01*
X-804300Y-237449D01*
X-804227Y-237329D01*
X-804150Y-237211D01*
X-804070Y-237095D01*
X-803986Y-236982D01*
X-803900Y-236871D01*
X-803810Y-236762D01*
X-803717Y-236656D01*
X-803622Y-236553D01*
X-803523Y-236452D01*
X-803422Y-236354D01*
X-803318Y-236259D01*
X-803211Y-236167D01*
X-803102Y-236078D01*
X-802990Y-235993D01*
X-802876Y-235910D01*
X-802760Y-235830D01*
X-802641Y-235754D01*
X-802520Y-235682D01*
X-802398Y-235612D01*
X-802273Y-235547D01*
X-802147Y-235484D01*
X-802019Y-235426D01*
X-801889Y-235371D01*
X-801758Y-235319D01*
X-801625Y-235272D01*
X-801491Y-235228D01*
X-801356Y-235187D01*
X-801220Y-235151D01*
X-801083Y-235119D01*
X-800945Y-235090D01*
X-800807Y-235065D01*
X-800667Y-235045D01*
X-800527Y-235028D01*
X-800387Y-235015D01*
X-800246Y-235006D01*
X-800106Y-235001D01*
X-799965Y-235000D01*
X-799824Y-235003D01*
X-799683Y-235010D01*
X-799543Y-235021D01*
X-799403Y-235036D01*
X-799263Y-235055D01*
X-799124Y-235077D01*
X-798986Y-235104D01*
X-798848Y-235134D01*
X-798712Y-235169D01*
X-798576Y-235207D01*
X-798442Y-235249D01*
X-798308Y-235295D01*
X-798176Y-235344D01*
X-798046Y-235398D01*
X-797917Y-235455D01*
X-797790Y-235515D01*
X-797664Y-235579D01*
X-797541Y-235647D01*
X-797419Y-235718D01*
X-797299Y-235792D01*
X-797182Y-235870D01*
X-797067Y-235951D01*
X-796954Y-236035D01*
X-796843Y-236122D01*
X-796735Y-236213D01*
X-796630Y-236306D01*
X-796527Y-236403D01*
X-796427Y-236502D01*
X-796330Y-236604D01*
X-796236Y-236709D01*
X-796145Y-236816D01*
X-796057Y-236926D01*
X-795972Y-237038D01*
X-795890Y-237153D01*
X-795811Y-237270D01*
X-795736Y-237389D01*
X-795664Y-237510D01*
X-795596Y-237633D01*
X-795531Y-237758D01*
X-795469Y-237885D01*
X-795412Y-238014D01*
X-795357Y-238144D01*
X-795307Y-238275D01*
X-795260Y-238408D01*
X-795217Y-238542D01*
X-795178Y-238678D01*
X-795143Y-238814D01*
X-795111Y-238951D01*
X-795084Y-239089D01*
X-795060Y-239228D01*
X-795040Y-239368D01*
X-795024Y-239508D01*
X-795012Y-239648D01*
X-795004Y-239789D01*
X-795000Y-239930D01*
X-795000Y-240070D01*
X-795004Y-240211D01*
X-795012Y-240352D01*
X-795024Y-240492D01*
X-795040Y-240632D01*
X-795060Y-240772D01*
X-795084Y-240911D01*
X-795111Y-241049D01*
X-795143Y-241186D01*
X-795178Y-241322D01*
X-795217Y-241458D01*
X-795260Y-241592D01*
X-795307Y-241725D01*
X-795357Y-241856D01*
X-795412Y-241986D01*
X-795469Y-242115D01*
X-795531Y-242242D01*
X-795596Y-242367D01*
X-795664Y-242490D01*
X-795736Y-242611D01*
X-795811Y-242730D01*
X-795890Y-242847D01*
X-795972Y-242962D01*
X-796057Y-243074D01*
X-796145Y-243184D01*
X-796236Y-243291D01*
X-796330Y-243396D01*
X-796427Y-243498D01*
X-796527Y-243597D01*
X-796630Y-243694D01*
X-796735Y-243787D01*
X-796843Y-243878D01*
X-796954Y-243965D01*
X-797067Y-244049D01*
X-797182Y-244130D01*
X-797299Y-244208D01*
X-797419Y-244282D01*
X-797541Y-244353D01*
X-797664Y-244421D01*
X-797790Y-244485D01*
X-797917Y-244545D01*
X-798046Y-244602D01*
X-798176Y-244656D01*
X-798308Y-244705D01*
X-798442Y-244751D01*
X-798576Y-244793D01*
X-798712Y-244831D01*
X-798848Y-244866D01*
X-798986Y-244896D01*
X-799124Y-244923D01*
X-799263Y-244945D01*
X-799403Y-244964D01*
X-799543Y-244979D01*
X-799683Y-244990D01*
X-799824Y-244997D01*
X-799965Y-245000D01*
X-800106Y-244999D01*
X-800246Y-244994D01*
X-800387Y-244985D01*
X-800527Y-244972D01*
X-800667Y-244955D01*
X-800807Y-244935D01*
X-800945Y-244910D01*
X-801083Y-244881D01*
X-801220Y-244849D01*
X-801356Y-244813D01*
X-801491Y-244772D01*
X-801625Y-244728D01*
X-801758Y-244681D01*
X-801889Y-244629D01*
X-802019Y-244574D01*
X-802147Y-244516D01*
X-802273Y-244453D01*
X-802398Y-244388D01*
X-802520Y-244318D01*
X-802641Y-244246D01*
X-802760Y-244170D01*
X-802876Y-244090D01*
X-802990Y-244007D01*
X-803102Y-243922D01*
X-803211Y-243833D01*
X-803318Y-243741D01*
X-803422Y-243646D01*
X-803523Y-243548D01*
X-803622Y-243447D01*
X-803717Y-243344D01*
X-803810Y-243238D01*
X-803900Y-243129D01*
X-803986Y-243018D01*
X-804070Y-242905D01*
X-804150Y-242789D01*
X-804227Y-242671D01*
X-804300Y-242551D01*
X-804371Y-242428D01*
X-804437Y-242304D01*
X-804500Y-242178D01*
X-804560Y-242051D01*
X-804616Y-241922D01*
X-804668Y-241791D01*
X-804717Y-241659D01*
X-804762Y-241525D01*
X-804803Y-241390D01*
X-804840Y-241254D01*
X-804874Y-241118D01*
X-804903Y-240980D01*
X-804929Y-240841D01*
X-804950Y-240702D01*
X-804968Y-240562D01*
X-804982Y-240422D01*
X-804992Y-240282D01*
X-804998Y-240141D01*
X-805000Y-240000D01*
X-805000Y-200000D02*
X-804998Y-199859D01*
X-804992Y-199718D01*
X-804982Y-199578D01*
X-804968Y-199438D01*
X-804950Y-199298D01*
X-804929Y-199159D01*
X-804903Y-199020D01*
X-804874Y-198882D01*
X-804840Y-198746D01*
X-804803Y-198610D01*
X-804762Y-198475D01*
X-804717Y-198341D01*
X-804668Y-198209D01*
X-804616Y-198078D01*
X-804560Y-197949D01*
X-804500Y-197822D01*
X-804437Y-197696D01*
X-804371Y-197572D01*
X-804300Y-197449D01*
X-804227Y-197329D01*
X-804150Y-197211D01*
X-804070Y-197095D01*
X-803986Y-196982D01*
X-803900Y-196871D01*
X-803810Y-196762D01*
X-803717Y-196656D01*
X-803622Y-196553D01*
X-803523Y-196452D01*
X-803422Y-196354D01*
X-803318Y-196259D01*
X-803211Y-196167D01*
X-803102Y-196078D01*
X-802990Y-195993D01*
X-802876Y-195910D01*
X-802760Y-195830D01*
X-802641Y-195754D01*
X-802520Y-195682D01*
X-802398Y-195612D01*
X-802273Y-195547D01*
X-802147Y-195484D01*
X-802019Y-195426D01*
X-801889Y-195371D01*
X-801758Y-195319D01*
X-801625Y-195272D01*
X-801491Y-195228D01*
X-801356Y-195187D01*
X-801220Y-195151D01*
X-801083Y-195119D01*
X-800945Y-195090D01*
X-800807Y-195065D01*
X-800667Y-195045D01*
X-800527Y-195028D01*
X-800387Y-195015D01*
X-800246Y-195006D01*
X-800106Y-195001D01*
X-799965Y-195000D01*
X-799824Y-195003D01*
X-799683Y-195010D01*
X-799543Y-195021D01*
X-799403Y-195036D01*
X-799263Y-195055D01*
X-799124Y-195077D01*
X-798986Y-195104D01*
X-798848Y-195134D01*
X-798712Y-195169D01*
X-798576Y-195207D01*
X-798442Y-195249D01*
X-798308Y-195295D01*
X-798176Y-195344D01*
X-798046Y-195398D01*
X-797917Y-195455D01*
X-797790Y-195515D01*
X-797664Y-195579D01*
X-797541Y-195647D01*
X-797419Y-195718D01*
X-797299Y-195792D01*
X-797182Y-195870D01*
X-797067Y-195951D01*
X-796954Y-196035D01*
X-796843Y-196122D01*
X-796735Y-196213D01*
X-796630Y-196306D01*
X-796527Y-196403D01*
X-796427Y-196502D01*
X-796330Y-196604D01*
X-796236Y-196709D01*
X-796145Y-196816D01*
X-796057Y-196926D01*
X-795972Y-197038D01*
X-795890Y-197153D01*
X-795811Y-197270D01*
X-795736Y-197389D01*
X-795664Y-197510D01*
X-795596Y-197633D01*
X-795531Y-197758D01*
X-795469Y-197885D01*
X-795412Y-198014D01*
X-795357Y-198144D01*
X-795307Y-198275D01*
X-795260Y-198408D01*
X-795217Y-198542D01*
X-795178Y-198678D01*
X-795143Y-198814D01*
X-795111Y-198951D01*
X-795084Y-199089D01*
X-795060Y-199228D01*
X-795040Y-199368D01*
X-795024Y-199508D01*
X-795012Y-199648D01*
X-795004Y-199789D01*
X-795000Y-199930D01*
X-795000Y-200070D01*
X-795004Y-200211D01*
X-795012Y-200352D01*
X-795024Y-200492D01*
X-795040Y-200632D01*
X-795060Y-200772D01*
X-795084Y-200911D01*
X-795111Y-201049D01*
X-795143Y-201186D01*
X-795178Y-201322D01*
X-795217Y-201458D01*
X-795260Y-201592D01*
X-795307Y-201725D01*
X-795357Y-201856D01*
X-795412Y-201986D01*
X-795469Y-202115D01*
X-795531Y-202242D01*
X-795596Y-202367D01*
X-795664Y-202490D01*
X-795736Y-202611D01*
X-795811Y-202730D01*
X-795890Y-202847D01*
X-795972Y-202962D01*
X-796057Y-203074D01*
X-796145Y-203184D01*
X-796236Y-203291D01*
X-796330Y-203396D01*
X-796427Y-203498D01*
X-796527Y-203597D01*
X-796630Y-203694D01*
X-796735Y-203787D01*
X-796843Y-203878D01*
X-796954Y-203965D01*
X-797067Y-204049D01*
X-797182Y-204130D01*
X-797299Y-204208D01*
X-797419Y-204282D01*
X-797541Y-204353D01*
X-797664Y-204421D01*
X-797790Y-204485D01*
X-797917Y-204545D01*
X-798046Y-204602D01*
X-798176Y-204656D01*
X-798308Y-204705D01*
X-798442Y-204751D01*
X-798576Y-204793D01*
X-798712Y-204831D01*
X-798848Y-204866D01*
X-798986Y-204896D01*
X-799124Y-204923D01*
X-799263Y-204945D01*
X-799403Y-204964D01*
X-799543Y-204979D01*
X-799683Y-204990D01*
X-799824Y-204997D01*
X-799965Y-205000D01*
X-800106Y-204999D01*
X-800246Y-204994D01*
X-800387Y-204985D01*
X-800527Y-204972D01*
X-800667Y-204955D01*
X-800807Y-204935D01*
X-800945Y-204910D01*
X-801083Y-204881D01*
X-801220Y-204849D01*
X-801356Y-204813D01*
X-801491Y-204772D01*
X-801625Y-204728D01*
X-801758Y-204681D01*
X-801889Y-204629D01*
X-802019Y-204574D01*
X-802147Y-204516D01*
X-802273Y-204453D01*
X-802398Y-204388D01*
X-802520Y-204318D01*
X-802641Y-204246D01*
X-802760Y-204170D01*
X-802876Y-204090D01*
X-802990Y-204007D01*
X-803102Y-203922D01*
X-803211Y-203833D01*
X-803318Y-203741D01*
X-803422Y-203646D01*
X-803523Y-203548D01*
X-803622Y-203447D01*
X-803717Y-203344D01*
X-803810Y-203238D01*
X-803900Y-203129D01*
X-803986Y-203018D01*
X-804070Y-202905D01*
X-804150Y-202789D01*
X-804227Y-202671D01*
X-804300Y-202551D01*
X-804371Y-202428D01*
X-804437Y-202304D01*
X-804500Y-202178D01*
X-804560Y-202051D01*
X-804616Y-201922D01*
X-804668Y-201791D01*
X-804717Y-201659D01*
X-804762Y-201525D01*
X-804803Y-201390D01*
X-804840Y-201254D01*
X-804874Y-201118D01*
X-804903Y-200980D01*
X-804929Y-200841D01*
X-804950Y-200702D01*
X-804968Y-200562D01*
X-804982Y-200422D01*
X-804992Y-200282D01*
X-804998Y-200141D01*
X-805000Y-200000D01*
X-805000Y-120000D02*
X-804998Y-119859D01*
X-804992Y-119718D01*
X-804982Y-119578D01*
X-804968Y-119438D01*
X-804950Y-119298D01*
X-804929Y-119159D01*
X-804903Y-119020D01*
X-804874Y-118882D01*
X-804840Y-118746D01*
X-804803Y-118610D01*
X-804762Y-118475D01*
X-804717Y-118341D01*
X-804668Y-118209D01*
X-804616Y-118078D01*
X-804560Y-117949D01*
X-804500Y-117822D01*
X-804437Y-117696D01*
X-804371Y-117572D01*
X-804300Y-117449D01*
X-804227Y-117329D01*
X-804150Y-117211D01*
X-804070Y-117095D01*
X-803986Y-116982D01*
X-803900Y-116871D01*
X-803810Y-116762D01*
X-803717Y-116656D01*
X-803622Y-116553D01*
X-803523Y-116452D01*
X-803422Y-116354D01*
X-803318Y-116259D01*
X-803211Y-116167D01*
X-803102Y-116078D01*
X-802990Y-115993D01*
X-802876Y-115910D01*
X-802760Y-115830D01*
X-802641Y-115754D01*
X-802520Y-115682D01*
X-802398Y-115612D01*
X-802273Y-115547D01*
X-802147Y-115484D01*
X-802019Y-115426D01*
X-801889Y-115371D01*
X-801758Y-115319D01*
X-801625Y-115272D01*
X-801491Y-115228D01*
X-801356Y-115187D01*
X-801220Y-115151D01*
X-801083Y-115119D01*
X-800945Y-115090D01*
X-800807Y-115065D01*
X-800667Y-115045D01*
X-800527Y-115028D01*
X-800387Y-115015D01*
X-800246Y-115006D01*
X-800106Y-115001D01*
X-799965Y-115000D01*
X-799824Y-115003D01*
X-799683Y-115010D01*
X-799543Y-115021D01*
X-799403Y-115036D01*
X-799263Y-115055D01*
X-799124Y-115077D01*
X-798986Y-115104D01*
X-798848Y-115134D01*
X-798712Y-115169D01*
X-798576Y-115207D01*
X-798442Y-115249D01*
X-798308Y-115295D01*
X-798176Y-115344D01*
X-798046Y-115398D01*
X-797917Y-115455D01*
X-797790Y-115515D01*
X-797664Y-115579D01*
X-797541Y-115647D01*
X-797419Y-115718D01*
X-797299Y-115792D01*
X-797182Y-115870D01*
X-797067Y-115951D01*
X-796954Y-116035D01*
X-796843Y-116122D01*
X-796735Y-116213D01*
X-796630Y-116306D01*
X-796527Y-116403D01*
X-796427Y-116502D01*
X-796330Y-116604D01*
X-796236Y-116709D01*
X-796145Y-116816D01*
X-796057Y-116926D01*
X-795972Y-117038D01*
X-795890Y-117153D01*
X-795811Y-117270D01*
X-795736Y-117389D01*
X-795664Y-117510D01*
X-795596Y-117633D01*
X-795531Y-117758D01*
X-795469Y-117885D01*
X-795412Y-118014D01*
X-795357Y-118144D01*
X-795307Y-118275D01*
X-795260Y-118408D01*
X-795217Y-118542D01*
X-795178Y-118678D01*
X-795143Y-118814D01*
X-795111Y-118951D01*
X-795084Y-119089D01*
X-795060Y-119228D01*
X-795040Y-119368D01*
X-795024Y-119508D01*
X-795012Y-119648D01*
X-795004Y-119789D01*
X-795000Y-119930D01*
X-795000Y-120070D01*
X-795004Y-120211D01*
X-795012Y-120352D01*
X-795024Y-120492D01*
X-795040Y-120632D01*
X-795060Y-120772D01*
X-795084Y-120911D01*
X-795111Y-121049D01*
X-795143Y-121186D01*
X-795178Y-121322D01*
X-795217Y-121458D01*
X-795260Y-121592D01*
X-795307Y-121725D01*
X-795357Y-121856D01*
X-795412Y-121986D01*
X-795469Y-122115D01*
X-795531Y-122242D01*
X-795596Y-122367D01*
X-795664Y-122490D01*
X-795736Y-122611D01*
X-795811Y-122730D01*
X-795890Y-122847D01*
X-795972Y-122962D01*
X-796057Y-123074D01*
X-796145Y-123184D01*
X-796236Y-123291D01*
X-796330Y-123396D01*
X-796427Y-123498D01*
X-796527Y-123597D01*
X-796630Y-123694D01*
X-796735Y-123787D01*
X-796843Y-123878D01*
X-796954Y-123965D01*
X-797067Y-124049D01*
X-797182Y-124130D01*
X-797299Y-124208D01*
X-797419Y-124282D01*
X-797541Y-124353D01*
X-797664Y-124421D01*
X-797790Y-124485D01*
X-797917Y-124545D01*
X-798046Y-124602D01*
X-798176Y-124656D01*
X-798308Y-124705D01*
X-798442Y-124751D01*
X-798576Y-124793D01*
X-798712Y-124831D01*
X-798848Y-124866D01*
X-798986Y-124896D01*
X-799124Y-124923D01*
X-799263Y-124945D01*
X-799403Y-124964D01*
X-799543Y-124979D01*
X-799683Y-124990D01*
X-799824Y-124997D01*
X-799965Y-125000D01*
X-800106Y-124999D01*
X-800246Y-124994D01*
X-800387Y-124985D01*
X-800527Y-124972D01*
X-800667Y-124955D01*
X-800807Y-124935D01*
X-800945Y-124910D01*
X-801083Y-124881D01*
X-801220Y-124849D01*
X-801356Y-124813D01*
X-801491Y-124772D01*
X-801625Y-124728D01*
X-801758Y-124681D01*
X-801889Y-124629D01*
X-802019Y-124574D01*
X-802147Y-124516D01*
X-802273Y-124453D01*
X-802398Y-124388D01*
X-802520Y-124318D01*
X-802641Y-124246D01*
X-802760Y-124170D01*
X-802876Y-124090D01*
X-802990Y-124007D01*
X-803102Y-123922D01*
X-803211Y-123833D01*
X-803318Y-123741D01*
X-803422Y-123646D01*
X-803523Y-123548D01*
X-803622Y-123447D01*
X-803717Y-123344D01*
X-803810Y-123238D01*
X-803900Y-123129D01*
X-803986Y-123018D01*
X-804070Y-122905D01*
X-804150Y-122789D01*
X-804227Y-122671D01*
X-804300Y-122551D01*
X-804371Y-122428D01*
X-804437Y-122304D01*
X-804500Y-122178D01*
X-804560Y-122051D01*
X-804616Y-121922D01*
X-804668Y-121791D01*
X-804717Y-121659D01*
X-804762Y-121525D01*
X-804803Y-121390D01*
X-804840Y-121254D01*
X-804874Y-121118D01*
X-804903Y-120980D01*
X-804929Y-120841D01*
X-804950Y-120702D01*
X-804968Y-120562D01*
X-804982Y-120422D01*
X-804992Y-120282D01*
X-804998Y-120141D01*
X-805000Y-120000D01*
X-805000Y-160000D02*
X-804998Y-159859D01*
X-804992Y-159718D01*
X-804982Y-159578D01*
X-804968Y-159438D01*
X-804950Y-159298D01*
X-804929Y-159159D01*
X-804903Y-159020D01*
X-804874Y-158882D01*
X-804840Y-158746D01*
X-804803Y-158610D01*
X-804762Y-158475D01*
X-804717Y-158341D01*
X-804668Y-158209D01*
X-804616Y-158078D01*
X-804560Y-157949D01*
X-804500Y-157822D01*
X-804437Y-157696D01*
X-804371Y-157572D01*
X-804300Y-157449D01*
X-804227Y-157329D01*
X-804150Y-157211D01*
X-804070Y-157095D01*
X-803986Y-156982D01*
X-803900Y-156871D01*
X-803810Y-156762D01*
X-803717Y-156656D01*
X-803622Y-156553D01*
X-803523Y-156452D01*
X-803422Y-156354D01*
X-803318Y-156259D01*
X-803211Y-156167D01*
X-803102Y-156078D01*
X-802990Y-155993D01*
X-802876Y-155910D01*
X-802760Y-155830D01*
X-802641Y-155754D01*
X-802520Y-155682D01*
X-802398Y-155612D01*
X-802273Y-155547D01*
X-802147Y-155484D01*
X-802019Y-155426D01*
X-801889Y-155371D01*
X-801758Y-155319D01*
X-801625Y-155272D01*
X-801491Y-155228D01*
X-801356Y-155187D01*
X-801220Y-155151D01*
X-801083Y-155119D01*
X-800945Y-155090D01*
X-800807Y-155065D01*
X-800667Y-155045D01*
X-800527Y-155028D01*
X-800387Y-155015D01*
X-800246Y-155006D01*
X-800106Y-155001D01*
X-799965Y-155000D01*
X-799824Y-155003D01*
X-799683Y-155010D01*
X-799543Y-155021D01*
X-799403Y-155036D01*
X-799263Y-155055D01*
X-799124Y-155077D01*
X-798986Y-155104D01*
X-798848Y-155134D01*
X-798712Y-155169D01*
X-798576Y-155207D01*
X-798442Y-155249D01*
X-798308Y-155295D01*
X-798176Y-155344D01*
X-798046Y-155398D01*
X-797917Y-155455D01*
X-797790Y-155515D01*
X-797664Y-155579D01*
X-797541Y-155647D01*
X-797419Y-155718D01*
X-797299Y-155792D01*
X-797182Y-155870D01*
X-797067Y-155951D01*
X-796954Y-156035D01*
X-796843Y-156122D01*
X-796735Y-156213D01*
X-796630Y-156306D01*
X-796527Y-156403D01*
X-796427Y-156502D01*
X-796330Y-156604D01*
X-796236Y-156709D01*
X-796145Y-156816D01*
X-796057Y-156926D01*
X-795972Y-157038D01*
X-795890Y-157153D01*
X-795811Y-157270D01*
X-795736Y-157389D01*
X-795664Y-157510D01*
X-795596Y-157633D01*
X-795531Y-157758D01*
X-795469Y-157885D01*
X-795412Y-158014D01*
X-795357Y-158144D01*
X-795307Y-158275D01*
X-795260Y-158408D01*
X-795217Y-158542D01*
X-795178Y-158678D01*
X-795143Y-158814D01*
X-795111Y-158951D01*
X-795084Y-159089D01*
X-795060Y-159228D01*
X-795040Y-159368D01*
X-795024Y-159508D01*
X-795012Y-159648D01*
X-795004Y-159789D01*
X-795000Y-159930D01*
X-795000Y-160070D01*
X-795004Y-160211D01*
X-795012Y-160352D01*
X-795024Y-160492D01*
X-795040Y-160632D01*
X-795060Y-160772D01*
X-795084Y-160911D01*
X-795111Y-161049D01*
X-795143Y-161186D01*
X-795178Y-161322D01*
X-795217Y-161458D01*
X-795260Y-161592D01*
X-795307Y-161725D01*
X-795357Y-161856D01*
X-795412Y-161986D01*
X-795469Y-162115D01*
X-795531Y-162242D01*
X-795596Y-162367D01*
X-795664Y-162490D01*
X-795736Y-162611D01*
X-795811Y-162730D01*
X-795890Y-162847D01*
X-795972Y-162962D01*
X-796057Y-163074D01*
X-796145Y-163184D01*
X-796236Y-163291D01*
X-796330Y-163396D01*
X-796427Y-163498D01*
X-796527Y-163597D01*
X-796630Y-163694D01*
X-796735Y-163787D01*
X-796843Y-163878D01*
X-796954Y-163965D01*
X-797067Y-164049D01*
X-797182Y-164130D01*
X-797299Y-164208D01*
X-797419Y-164282D01*
X-797541Y-164353D01*
X-797664Y-164421D01*
X-797790Y-164485D01*
X-797917Y-164545D01*
X-798046Y-164602D01*
X-798176Y-164656D01*
X-798308Y-164705D01*
X-798442Y-164751D01*
X-798576Y-164793D01*
X-798712Y-164831D01*
X-798848Y-164866D01*
X-798986Y-164896D01*
X-799124Y-164923D01*
X-799263Y-164945D01*
X-799403Y-164964D01*
X-799543Y-164979D01*
X-799683Y-164990D01*
X-799824Y-164997D01*
X-799965Y-165000D01*
X-800106Y-164999D01*
X-800246Y-164994D01*
X-800387Y-164985D01*
X-800527Y-164972D01*
X-800667Y-164955D01*
X-800807Y-164935D01*
X-800945Y-164910D01*
X-801083Y-164881D01*
X-801220Y-164849D01*
X-801356Y-164813D01*
X-801491Y-164772D01*
X-801625Y-164728D01*
X-801758Y-164681D01*
X-801889Y-164629D01*
X-802019Y-164574D01*
X-802147Y-164516D01*
X-802273Y-164453D01*
X-802398Y-164388D01*
X-802520Y-164318D01*
X-802641Y-164246D01*
X-802760Y-164170D01*
X-802876Y-164090D01*
X-802990Y-164007D01*
X-803102Y-163922D01*
X-803211Y-163833D01*
X-803318Y-163741D01*
X-803422Y-163646D01*
X-803523Y-163548D01*
X-803622Y-163447D01*
X-803717Y-163344D01*
X-803810Y-163238D01*
X-803900Y-163129D01*
X-803986Y-163018D01*
X-804070Y-162905D01*
X-804150Y-162789D01*
X-804227Y-162671D01*
X-804300Y-162551D01*
X-804371Y-162428D01*
X-804437Y-162304D01*
X-804500Y-162178D01*
X-804560Y-162051D01*
X-804616Y-161922D01*
X-804668Y-161791D01*
X-804717Y-161659D01*
X-804762Y-161525D01*
X-804803Y-161390D01*
X-804840Y-161254D01*
X-804874Y-161118D01*
X-804903Y-160980D01*
X-804929Y-160841D01*
X-804950Y-160702D01*
X-804968Y-160562D01*
X-804982Y-160422D01*
X-804992Y-160282D01*
X-804998Y-160141D01*
X-805000Y-160000D01*
X-805000Y-60000D02*
X-804998Y-59859D01*
X-804992Y-59718D01*
X-804982Y-59578D01*
X-804968Y-59438D01*
X-804950Y-59298D01*
X-804929Y-59159D01*
X-804903Y-59020D01*
X-804874Y-58882D01*
X-804840Y-58746D01*
X-804803Y-58610D01*
X-804762Y-58475D01*
X-804717Y-58341D01*
X-804668Y-58209D01*
X-804616Y-58078D01*
X-804560Y-57949D01*
X-804500Y-57822D01*
X-804437Y-57696D01*
X-804371Y-57572D01*
X-804300Y-57449D01*
X-804227Y-57329D01*
X-804150Y-57211D01*
X-804070Y-57095D01*
X-803986Y-56982D01*
X-803900Y-56871D01*
X-803810Y-56762D01*
X-803717Y-56656D01*
X-803622Y-56553D01*
X-803523Y-56452D01*
X-803422Y-56354D01*
X-803318Y-56259D01*
X-803211Y-56167D01*
X-803102Y-56078D01*
X-802990Y-55993D01*
X-802876Y-55910D01*
X-802760Y-55830D01*
X-802641Y-55754D01*
X-802520Y-55682D01*
X-802398Y-55612D01*
X-802273Y-55547D01*
X-802147Y-55484D01*
X-802019Y-55426D01*
X-801889Y-55371D01*
X-801758Y-55319D01*
X-801625Y-55272D01*
X-801491Y-55228D01*
X-801356Y-55187D01*
X-801220Y-55151D01*
X-801083Y-55119D01*
X-800945Y-55090D01*
X-800807Y-55065D01*
X-800667Y-55045D01*
X-800527Y-55028D01*
X-800387Y-55015D01*
X-800246Y-55006D01*
X-800106Y-55001D01*
X-799965Y-55000D01*
X-799824Y-55003D01*
X-799683Y-55010D01*
X-799543Y-55021D01*
X-799403Y-55036D01*
X-799263Y-55055D01*
X-799124Y-55077D01*
X-798986Y-55104D01*
X-798848Y-55134D01*
X-798712Y-55169D01*
X-798576Y-55207D01*
X-798442Y-55249D01*
X-798308Y-55295D01*
X-798176Y-55344D01*
X-798046Y-55398D01*
X-797917Y-55455D01*
X-797790Y-55515D01*
X-797664Y-55579D01*
X-797541Y-55647D01*
X-797419Y-55718D01*
X-797299Y-55792D01*
X-797182Y-55870D01*
X-797067Y-55951D01*
X-796954Y-56035D01*
X-796843Y-56122D01*
X-796735Y-56213D01*
X-796630Y-56306D01*
X-796527Y-56403D01*
X-796427Y-56502D01*
X-796330Y-56604D01*
X-796236Y-56709D01*
X-796145Y-56816D01*
X-796057Y-56926D01*
X-795972Y-57038D01*
X-795890Y-57153D01*
X-795811Y-57270D01*
X-795736Y-57389D01*
X-795664Y-57510D01*
X-795596Y-57633D01*
X-795531Y-57758D01*
X-795469Y-57885D01*
X-795412Y-58014D01*
X-795357Y-58144D01*
X-795307Y-58275D01*
X-795260Y-58408D01*
X-795217Y-58542D01*
X-795178Y-58678D01*
X-795143Y-58814D01*
X-795111Y-58951D01*
X-795084Y-59089D01*
X-795060Y-59228D01*
X-795040Y-59368D01*
X-795024Y-59508D01*
X-795012Y-59648D01*
X-795004Y-59789D01*
X-795000Y-59930D01*
X-795000Y-60070D01*
X-795004Y-60211D01*
X-795012Y-60352D01*
X-795024Y-60492D01*
X-795040Y-60632D01*
X-795060Y-60772D01*
X-795084Y-60911D01*
X-795111Y-61049D01*
X-795143Y-61186D01*
X-795178Y-61322D01*
X-795217Y-61458D01*
X-795260Y-61592D01*
X-795307Y-61725D01*
X-795357Y-61856D01*
X-795412Y-61986D01*
X-795469Y-62115D01*
X-795531Y-62242D01*
X-795596Y-62367D01*
X-795664Y-62490D01*
X-795736Y-62611D01*
X-795811Y-62730D01*
X-795890Y-62847D01*
X-795972Y-62962D01*
X-796057Y-63074D01*
X-796145Y-63184D01*
X-796236Y-63291D01*
X-796330Y-63396D01*
X-796427Y-63498D01*
X-796527Y-63597D01*
X-796630Y-63694D01*
X-796735Y-63787D01*
X-796843Y-63878D01*
X-796954Y-63965D01*
X-797067Y-64049D01*
X-797182Y-64130D01*
X-797299Y-64208D01*
X-797419Y-64282D01*
X-797541Y-64353D01*
X-797664Y-64421D01*
X-797790Y-64485D01*
X-797917Y-64545D01*
X-798046Y-64602D01*
X-798176Y-64656D01*
X-798308Y-64705D01*
X-798442Y-64751D01*
X-798576Y-64793D01*
X-798712Y-64831D01*
X-798848Y-64866D01*
X-798986Y-64896D01*
X-799124Y-64923D01*
X-799263Y-64945D01*
X-799403Y-64964D01*
X-799543Y-64979D01*
X-799683Y-64990D01*
X-799824Y-64997D01*
X-799965Y-65000D01*
X-800106Y-64999D01*
X-800246Y-64994D01*
X-800387Y-64985D01*
X-800527Y-64972D01*
X-800667Y-64955D01*
X-800807Y-64935D01*
X-800945Y-64910D01*
X-801083Y-64881D01*
X-801220Y-64849D01*
X-801356Y-64813D01*
X-801491Y-64772D01*
X-801625Y-64728D01*
X-801758Y-64681D01*
X-801889Y-64629D01*
X-802019Y-64574D01*
X-802147Y-64516D01*
X-802273Y-64453D01*
X-802398Y-64388D01*
X-802520Y-64318D01*
X-802641Y-64246D01*
X-802760Y-64170D01*
X-802876Y-64090D01*
X-802990Y-64007D01*
X-803102Y-63922D01*
X-803211Y-63833D01*
X-803318Y-63741D01*
X-803422Y-63646D01*
X-803523Y-63548D01*
X-803622Y-63447D01*
X-803717Y-63344D01*
X-803810Y-63238D01*
X-803900Y-63129D01*
X-803986Y-63018D01*
X-804070Y-62905D01*
X-804150Y-62789D01*
X-804227Y-62671D01*
X-804300Y-62551D01*
X-804371Y-62428D01*
X-804437Y-62304D01*
X-804500Y-62178D01*
X-804560Y-62051D01*
X-804616Y-61922D01*
X-804668Y-61791D01*
X-804717Y-61659D01*
X-804762Y-61525D01*
X-804803Y-61390D01*
X-804840Y-61254D01*
X-804874Y-61118D01*
X-804903Y-60980D01*
X-804929Y-60841D01*
X-804950Y-60702D01*
X-804968Y-60562D01*
X-804982Y-60422D01*
X-804992Y-60282D01*
X-804998Y-60141D01*
X-805000Y-60000D01*
X-805000Y-20000D02*
X-804998Y-19859D01*
X-804992Y-19718D01*
X-804982Y-19578D01*
X-804968Y-19438D01*
X-804950Y-19298D01*
X-804929Y-19159D01*
X-804903Y-19020D01*
X-804874Y-18882D01*
X-804840Y-18746D01*
X-804803Y-18610D01*
X-804762Y-18475D01*
X-804717Y-18341D01*
X-804668Y-18209D01*
X-804616Y-18078D01*
X-804560Y-17949D01*
X-804500Y-17822D01*
X-804437Y-17696D01*
X-804371Y-17572D01*
X-804300Y-17449D01*
X-804227Y-17329D01*
X-804150Y-17211D01*
X-804070Y-17095D01*
X-803986Y-16982D01*
X-803900Y-16871D01*
X-803810Y-16762D01*
X-803717Y-16656D01*
X-803622Y-16553D01*
X-803523Y-16452D01*
X-803422Y-16354D01*
X-803318Y-16259D01*
X-803211Y-16167D01*
X-803102Y-16078D01*
X-802990Y-15993D01*
X-802876Y-15910D01*
X-802760Y-15830D01*
X-802641Y-15754D01*
X-802520Y-15682D01*
X-802398Y-15612D01*
X-802273Y-15547D01*
X-802147Y-15484D01*
X-802019Y-15426D01*
X-801889Y-15371D01*
X-801758Y-15319D01*
X-801625Y-15272D01*
X-801491Y-15228D01*
X-801356Y-15187D01*
X-801220Y-15151D01*
X-801083Y-15119D01*
X-800945Y-15090D01*
X-800807Y-15065D01*
X-800667Y-15045D01*
X-800527Y-15028D01*
X-800387Y-15015D01*
X-800246Y-15006D01*
X-800106Y-15001D01*
X-799965Y-15000D01*
X-799824Y-15003D01*
X-799683Y-15010D01*
X-799543Y-15021D01*
X-799403Y-15036D01*
X-799263Y-15055D01*
X-799124Y-15077D01*
X-798986Y-15104D01*
X-798848Y-15134D01*
X-798712Y-15169D01*
X-798576Y-15207D01*
X-798442Y-15249D01*
X-798308Y-15295D01*
X-798176Y-15344D01*
X-798046Y-15398D01*
X-797917Y-15455D01*
X-797790Y-15515D01*
X-797664Y-15579D01*
X-797541Y-15647D01*
X-797419Y-15718D01*
X-797299Y-15792D01*
X-797182Y-15870D01*
X-797067Y-15951D01*
X-796954Y-16035D01*
X-796843Y-16122D01*
X-796735Y-16213D01*
X-796630Y-16306D01*
X-796527Y-16403D01*
X-796427Y-16502D01*
X-796330Y-16604D01*
X-796236Y-16709D01*
X-796145Y-16816D01*
X-796057Y-16926D01*
X-795972Y-17038D01*
X-795890Y-17153D01*
X-795811Y-17270D01*
X-795736Y-17389D01*
X-795664Y-17510D01*
X-795596Y-17633D01*
X-795531Y-17758D01*
X-795469Y-17885D01*
X-795412Y-18014D01*
X-795357Y-18144D01*
X-795307Y-18275D01*
X-795260Y-18408D01*
X-795217Y-18542D01*
X-795178Y-18678D01*
X-795143Y-18814D01*
X-795111Y-18951D01*
X-795084Y-19089D01*
X-795060Y-19228D01*
X-795040Y-19368D01*
X-795024Y-19508D01*
X-795012Y-19648D01*
X-795004Y-19789D01*
X-795000Y-19930D01*
X-795000Y-20070D01*
X-795004Y-20211D01*
X-795012Y-20352D01*
X-795024Y-20492D01*
X-795040Y-20632D01*
X-795060Y-20772D01*
X-795084Y-20911D01*
X-795111Y-21049D01*
X-795143Y-21186D01*
X-795178Y-21322D01*
X-795217Y-21458D01*
X-795260Y-21592D01*
X-795307Y-21725D01*
X-795357Y-21856D01*
X-795412Y-21986D01*
X-795469Y-22115D01*
X-795531Y-22242D01*
X-795596Y-22367D01*
X-795664Y-22490D01*
X-795736Y-22611D01*
X-795811Y-22730D01*
X-795890Y-22847D01*
X-795972Y-22962D01*
X-796057Y-23074D01*
X-796145Y-23184D01*
X-796236Y-23291D01*
X-796330Y-23396D01*
X-796427Y-23498D01*
X-796527Y-23597D01*
X-796630Y-23694D01*
X-796735Y-23787D01*
X-796843Y-23878D01*
X-796954Y-23965D01*
X-797067Y-24049D01*
X-797182Y-24130D01*
X-797299Y-24208D01*
X-797419Y-24282D01*
X-797541Y-24353D01*
X-797664Y-24421D01*
X-797790Y-24485D01*
X-797917Y-24545D01*
X-798046Y-24602D01*
X-798176Y-24656D01*
X-798308Y-24705D01*
X-798442Y-24751D01*
X-798576Y-24793D01*
X-798712Y-24831D01*
X-798848Y-24866D01*
X-798986Y-24896D01*
X-799124Y-24923D01*
X-799263Y-24945D01*
X-799403Y-24964D01*
X-799543Y-24979D01*
X-799683Y-24990D01*
X-799824Y-24997D01*
X-799965Y-25000D01*
X-800106Y-24999D01*
X-800246Y-24994D01*
X-800387Y-24985D01*
X-800527Y-24972D01*
X-800667Y-24955D01*
X-800807Y-24935D01*
X-800945Y-24910D01*
X-801083Y-24881D01*
X-801220Y-24849D01*
X-801356Y-24813D01*
X-801491Y-24772D01*
X-801625Y-24728D01*
X-801758Y-24681D01*
X-801889Y-24629D01*
X-802019Y-24574D01*
X-802147Y-24516D01*
X-802273Y-24453D01*
X-802398Y-24388D01*
X-802520Y-24318D01*
X-802641Y-24246D01*
X-802760Y-24170D01*
X-802876Y-24090D01*
X-802990Y-24007D01*
X-803102Y-23922D01*
X-803211Y-23833D01*
X-803318Y-23741D01*
X-803422Y-23646D01*
X-803523Y-23548D01*
X-803622Y-23447D01*
X-803717Y-23344D01*
X-803810Y-23238D01*
X-803900Y-23129D01*
X-803986Y-23018D01*
X-804070Y-22905D01*
X-804150Y-22789D01*
X-804227Y-22671D01*
X-804300Y-22551D01*
X-804371Y-22428D01*
X-804437Y-22304D01*
X-804500Y-22178D01*
X-804560Y-22051D01*
X-804616Y-21922D01*
X-804668Y-21791D01*
X-804717Y-21659D01*
X-804762Y-21525D01*
X-804803Y-21390D01*
X-804840Y-21254D01*
X-804874Y-21118D01*
X-804903Y-20980D01*
X-804929Y-20841D01*
X-804950Y-20702D01*
X-804968Y-20562D01*
X-804982Y-20422D01*
X-804992Y-20282D01*
X-804998Y-20141D01*
X-805000Y-20000D01*
X-805000Y20000D02*
X-804998Y20141D01*
X-804992Y20282D01*
X-804982Y20422D01*
X-804968Y20562D01*
X-804950Y20702D01*
X-804929Y20841D01*
X-804903Y20980D01*
X-804874Y21118D01*
X-804840Y21254D01*
X-804803Y21390D01*
X-804762Y21525D01*
X-804717Y21659D01*
X-804668Y21791D01*
X-804616Y21922D01*
X-804560Y22051D01*
X-804500Y22178D01*
X-804437Y22304D01*
X-804371Y22428D01*
X-804300Y22551D01*
X-804227Y22671D01*
X-804150Y22789D01*
X-804070Y22905D01*
X-803986Y23018D01*
X-803900Y23129D01*
X-803810Y23238D01*
X-803717Y23344D01*
X-803622Y23447D01*
X-803523Y23548D01*
X-803422Y23646D01*
X-803318Y23741D01*
X-803211Y23833D01*
X-803102Y23922D01*
X-802990Y24007D01*
X-802876Y24090D01*
X-802760Y24170D01*
X-802641Y24246D01*
X-802520Y24318D01*
X-802398Y24388D01*
X-802273Y24453D01*
X-802147Y24516D01*
X-802019Y24574D01*
X-801889Y24629D01*
X-801758Y24681D01*
X-801625Y24728D01*
X-801491Y24772D01*
X-801356Y24813D01*
X-801220Y24849D01*
X-801083Y24881D01*
X-800945Y24910D01*
X-800807Y24935D01*
X-800667Y24955D01*
X-800527Y24972D01*
X-800387Y24985D01*
X-800246Y24994D01*
X-800106Y24999D01*
X-799965Y25000D01*
X-799824Y24997D01*
X-799683Y24990D01*
X-799543Y24979D01*
X-799403Y24964D01*
X-799263Y24945D01*
X-799124Y24923D01*
X-798986Y24896D01*
X-798848Y24866D01*
X-798712Y24831D01*
X-798576Y24793D01*
X-798442Y24751D01*
X-798308Y24705D01*
X-798176Y24656D01*
X-798046Y24602D01*
X-797917Y24545D01*
X-797790Y24485D01*
X-797664Y24421D01*
X-797541Y24353D01*
X-797419Y24282D01*
X-797299Y24208D01*
X-797182Y24130D01*
X-797067Y24049D01*
X-796954Y23965D01*
X-796843Y23878D01*
X-796735Y23787D01*
X-796630Y23694D01*
X-796527Y23597D01*
X-796427Y23498D01*
X-796330Y23396D01*
X-796236Y23291D01*
X-796145Y23184D01*
X-796057Y23074D01*
X-795972Y22962D01*
X-795890Y22847D01*
X-795811Y22730D01*
X-795736Y22611D01*
X-795664Y22490D01*
X-795596Y22367D01*
X-795531Y22242D01*
X-795469Y22115D01*
X-795412Y21986D01*
X-795357Y21856D01*
X-795307Y21725D01*
X-795260Y21592D01*
X-795217Y21458D01*
X-795178Y21322D01*
X-795143Y21186D01*
X-795111Y21049D01*
X-795084Y20911D01*
X-795060Y20772D01*
X-795040Y20632D01*
X-795024Y20492D01*
X-795012Y20352D01*
X-795004Y20211D01*
X-795000Y20070D01*
X-795000Y19930D01*
X-795004Y19789D01*
X-795012Y19648D01*
X-795024Y19508D01*
X-795040Y19368D01*
X-795060Y19228D01*
X-795084Y19089D01*
X-795111Y18951D01*
X-795143Y18814D01*
X-795178Y18678D01*
X-795217Y18542D01*
X-795260Y18408D01*
X-795307Y18275D01*
X-795357Y18144D01*
X-795412Y18014D01*
X-795469Y17885D01*
X-795531Y17758D01*
X-795596Y17633D01*
X-795664Y17510D01*
X-795736Y17389D01*
X-795811Y17270D01*
X-795890Y17153D01*
X-795972Y17038D01*
X-796057Y16926D01*
X-796145Y16816D01*
X-796236Y16709D01*
X-796330Y16604D01*
X-796427Y16502D01*
X-796527Y16403D01*
X-796630Y16306D01*
X-796735Y16213D01*
X-796843Y16122D01*
X-796954Y16035D01*
X-797067Y15951D01*
X-797182Y15870D01*
X-797299Y15792D01*
X-797419Y15718D01*
X-797541Y15647D01*
X-797664Y15579D01*
X-797790Y15515D01*
X-797917Y15455D01*
X-798046Y15398D01*
X-798176Y15344D01*
X-798308Y15295D01*
X-798442Y15249D01*
X-798576Y15207D01*
X-798712Y15169D01*
X-798848Y15134D01*
X-798986Y15104D01*
X-799124Y15077D01*
X-799263Y15055D01*
X-799403Y15036D01*
X-799543Y15021D01*
X-799683Y15010D01*
X-799824Y15003D01*
X-799965Y15000D01*
X-800106Y15001D01*
X-800246Y15006D01*
X-800387Y15015D01*
X-800527Y15028D01*
X-800667Y15045D01*
X-800807Y15065D01*
X-800945Y15090D01*
X-801083Y15119D01*
X-801220Y15151D01*
X-801356Y15187D01*
X-801491Y15228D01*
X-801625Y15272D01*
X-801758Y15319D01*
X-801889Y15371D01*
X-802019Y15426D01*
X-802147Y15484D01*
X-802273Y15547D01*
X-802398Y15612D01*
X-802520Y15682D01*
X-802641Y15754D01*
X-802760Y15830D01*
X-802876Y15910D01*
X-802990Y15993D01*
X-803102Y16078D01*
X-803211Y16167D01*
X-803318Y16259D01*
X-803422Y16354D01*
X-803523Y16452D01*
X-803622Y16553D01*
X-803717Y16656D01*
X-803810Y16762D01*
X-803900Y16871D01*
X-803986Y16982D01*
X-804070Y17095D01*
X-804150Y17211D01*
X-804227Y17329D01*
X-804300Y17449D01*
X-804371Y17572D01*
X-804437Y17696D01*
X-804500Y17822D01*
X-804560Y17949D01*
X-804616Y18078D01*
X-804668Y18209D01*
X-804717Y18341D01*
X-804762Y18475D01*
X-804803Y18610D01*
X-804840Y18746D01*
X-804874Y18882D01*
X-804903Y19020D01*
X-804929Y19159D01*
X-804950Y19298D01*
X-804968Y19438D01*
X-804982Y19578D01*
X-804992Y19718D01*
X-804998Y19859D01*
X-805000Y20000D01*
X-805000Y60000D02*
X-804998Y60141D01*
X-804992Y60282D01*
X-804982Y60422D01*
X-804968Y60562D01*
X-804950Y60702D01*
X-804929Y60841D01*
X-804903Y60980D01*
X-804874Y61118D01*
X-804840Y61254D01*
X-804803Y61390D01*
X-804762Y61525D01*
X-804717Y61659D01*
X-804668Y61791D01*
X-804616Y61922D01*
X-804560Y62051D01*
X-804500Y62178D01*
X-804437Y62304D01*
X-804371Y62428D01*
X-804300Y62551D01*
X-804227Y62671D01*
X-804150Y62789D01*
X-804070Y62905D01*
X-803986Y63018D01*
X-803900Y63129D01*
X-803810Y63238D01*
X-803717Y63344D01*
X-803622Y63447D01*
X-803523Y63548D01*
X-803422Y63646D01*
X-803318Y63741D01*
X-803211Y63833D01*
X-803102Y63922D01*
X-802990Y64007D01*
X-802876Y64090D01*
X-802760Y64170D01*
X-802641Y64246D01*
X-802520Y64318D01*
X-802398Y64388D01*
X-802273Y64453D01*
X-802147Y64516D01*
X-802019Y64574D01*
X-801889Y64629D01*
X-801758Y64681D01*
X-801625Y64728D01*
X-801491Y64772D01*
X-801356Y64813D01*
X-801220Y64849D01*
X-801083Y64881D01*
X-800945Y64910D01*
X-800807Y64935D01*
X-800667Y64955D01*
X-800527Y64972D01*
X-800387Y64985D01*
X-800246Y64994D01*
X-800106Y64999D01*
X-799965Y65000D01*
X-799824Y64997D01*
X-799683Y64990D01*
X-799543Y64979D01*
X-799403Y64964D01*
X-799263Y64945D01*
X-799124Y64923D01*
X-798986Y64896D01*
X-798848Y64866D01*
X-798712Y64831D01*
X-798576Y64793D01*
X-798442Y64751D01*
X-798308Y64705D01*
X-798176Y64656D01*
X-798046Y64602D01*
X-797917Y64545D01*
X-797790Y64485D01*
X-797664Y64421D01*
X-797541Y64353D01*
X-797419Y64282D01*
X-797299Y64208D01*
X-797182Y64130D01*
X-797067Y64049D01*
X-796954Y63965D01*
X-796843Y63878D01*
X-796735Y63787D01*
X-796630Y63694D01*
X-796527Y63597D01*
X-796427Y63498D01*
X-796330Y63396D01*
X-796236Y63291D01*
X-796145Y63184D01*
X-796057Y63074D01*
X-795972Y62962D01*
X-795890Y62847D01*
X-795811Y62730D01*
X-795736Y62611D01*
X-795664Y62490D01*
X-795596Y62367D01*
X-795531Y62242D01*
X-795469Y62115D01*
X-795412Y61986D01*
X-795357Y61856D01*
X-795307Y61725D01*
X-795260Y61592D01*
X-795217Y61458D01*
X-795178Y61322D01*
X-795143Y61186D01*
X-795111Y61049D01*
X-795084Y60911D01*
X-795060Y60772D01*
X-795040Y60632D01*
X-795024Y60492D01*
X-795012Y60352D01*
X-795004Y60211D01*
X-795000Y60070D01*
X-795000Y59930D01*
X-795004Y59789D01*
X-795012Y59648D01*
X-795024Y59508D01*
X-795040Y59368D01*
X-795060Y59228D01*
X-795084Y59089D01*
X-795111Y58951D01*
X-795143Y58814D01*
X-795178Y58678D01*
X-795217Y58542D01*
X-795260Y58408D01*
X-795307Y58275D01*
X-795357Y58144D01*
X-795412Y58014D01*
X-795469Y57885D01*
X-795531Y57758D01*
X-795596Y57633D01*
X-795664Y57510D01*
X-795736Y57389D01*
X-795811Y57270D01*
X-795890Y57153D01*
X-795972Y57038D01*
X-796057Y56926D01*
X-796145Y56816D01*
X-796236Y56709D01*
X-796330Y56604D01*
X-796427Y56502D01*
X-796527Y56403D01*
X-796630Y56306D01*
X-796735Y56213D01*
X-796843Y56122D01*
X-796954Y56035D01*
X-797067Y55951D01*
X-797182Y55870D01*
X-797299Y55792D01*
X-797419Y55718D01*
X-797541Y55647D01*
X-797664Y55579D01*
X-797790Y55515D01*
X-797917Y55455D01*
X-798046Y55398D01*
X-798176Y55344D01*
X-798308Y55295D01*
X-798442Y55249D01*
X-798576Y55207D01*
X-798712Y55169D01*
X-798848Y55134D01*
X-798986Y55104D01*
X-799124Y55077D01*
X-799263Y55055D01*
X-799403Y55036D01*
X-799543Y55021D01*
X-799683Y55010D01*
X-799824Y55003D01*
X-799965Y55000D01*
X-800106Y55001D01*
X-800246Y55006D01*
X-800387Y55015D01*
X-800527Y55028D01*
X-800667Y55045D01*
X-800807Y55065D01*
X-800945Y55090D01*
X-801083Y55119D01*
X-801220Y55151D01*
X-801356Y55187D01*
X-801491Y55228D01*
X-801625Y55272D01*
X-801758Y55319D01*
X-801889Y55371D01*
X-802019Y55426D01*
X-802147Y55484D01*
X-802273Y55547D01*
X-802398Y55612D01*
X-802520Y55682D01*
X-802641Y55754D01*
X-802760Y55830D01*
X-802876Y55910D01*
X-802990Y55993D01*
X-803102Y56078D01*
X-803211Y56167D01*
X-803318Y56259D01*
X-803422Y56354D01*
X-803523Y56452D01*
X-803622Y56553D01*
X-803717Y56656D01*
X-803810Y56762D01*
X-803900Y56871D01*
X-803986Y56982D01*
X-804070Y57095D01*
X-804150Y57211D01*
X-804227Y57329D01*
X-804300Y57449D01*
X-804371Y57572D01*
X-804437Y57696D01*
X-804500Y57822D01*
X-804560Y57949D01*
X-804616Y58078D01*
X-804668Y58209D01*
X-804717Y58341D01*
X-804762Y58475D01*
X-804803Y58610D01*
X-804840Y58746D01*
X-804874Y58882D01*
X-804903Y59020D01*
X-804929Y59159D01*
X-804950Y59298D01*
X-804968Y59438D01*
X-804982Y59578D01*
X-804992Y59718D01*
X-804998Y59859D01*
X-805000Y60000D01*
X-805000Y160000D02*
X-804998Y160141D01*
X-804992Y160282D01*
X-804982Y160422D01*
X-804968Y160562D01*
X-804950Y160702D01*
X-804929Y160841D01*
X-804903Y160980D01*
X-804874Y161118D01*
X-804840Y161254D01*
X-804803Y161390D01*
X-804762Y161525D01*
X-804717Y161659D01*
X-804668Y161791D01*
X-804616Y161922D01*
X-804560Y162051D01*
X-804500Y162178D01*
X-804437Y162304D01*
X-804371Y162428D01*
X-804300Y162551D01*
X-804227Y162671D01*
X-804150Y162789D01*
X-804070Y162905D01*
X-803986Y163018D01*
X-803900Y163129D01*
X-803810Y163238D01*
X-803717Y163344D01*
X-803622Y163447D01*
X-803523Y163548D01*
X-803422Y163646D01*
X-803318Y163741D01*
X-803211Y163833D01*
X-803102Y163922D01*
X-802990Y164007D01*
X-802876Y164090D01*
X-802760Y164170D01*
X-802641Y164246D01*
X-802520Y164318D01*
X-802398Y164388D01*
X-802273Y164453D01*
X-802147Y164516D01*
X-802019Y164574D01*
X-801889Y164629D01*
X-801758Y164681D01*
X-801625Y164728D01*
X-801491Y164772D01*
X-801356Y164813D01*
X-801220Y164849D01*
X-801083Y164881D01*
X-800945Y164910D01*
X-800807Y164935D01*
X-800667Y164955D01*
X-800527Y164972D01*
X-800387Y164985D01*
X-800246Y164994D01*
X-800106Y164999D01*
X-799965Y165000D01*
X-799824Y164997D01*
X-799683Y164990D01*
X-799543Y164979D01*
X-799403Y164964D01*
X-799263Y164945D01*
X-799124Y164923D01*
X-798986Y164896D01*
X-798848Y164866D01*
X-798712Y164831D01*
X-798576Y164793D01*
X-798442Y164751D01*
X-798308Y164705D01*
X-798176Y164656D01*
X-798046Y164602D01*
X-797917Y164545D01*
X-797790Y164485D01*
X-797664Y164421D01*
X-797541Y164353D01*
X-797419Y164282D01*
X-797299Y164208D01*
X-797182Y164130D01*
X-797067Y164049D01*
X-796954Y163965D01*
X-796843Y163878D01*
X-796735Y163787D01*
X-796630Y163694D01*
X-796527Y163597D01*
X-796427Y163498D01*
X-796330Y163396D01*
X-796236Y163291D01*
X-796145Y163184D01*
X-796057Y163074D01*
X-795972Y162962D01*
X-795890Y162847D01*
X-795811Y162730D01*
X-795736Y162611D01*
X-795664Y162490D01*
X-795596Y162367D01*
X-795531Y162242D01*
X-795469Y162115D01*
X-795412Y161986D01*
X-795357Y161856D01*
X-795307Y161725D01*
X-795260Y161592D01*
X-795217Y161458D01*
X-795178Y161322D01*
X-795143Y161186D01*
X-795111Y161049D01*
X-795084Y160911D01*
X-795060Y160772D01*
X-795040Y160632D01*
X-795024Y160492D01*
X-795012Y160352D01*
X-795004Y160211D01*
X-795000Y160070D01*
X-795000Y159930D01*
X-795004Y159789D01*
X-795012Y159648D01*
X-795024Y159508D01*
X-795040Y159368D01*
X-795060Y159228D01*
X-795084Y159089D01*
X-795111Y158951D01*
X-795143Y158814D01*
X-795178Y158678D01*
X-795217Y158542D01*
X-795260Y158408D01*
X-795307Y158275D01*
X-795357Y158144D01*
X-795412Y158014D01*
X-795469Y157885D01*
X-795531Y157758D01*
X-795596Y157633D01*
X-795664Y157510D01*
X-795736Y157389D01*
X-795811Y157270D01*
X-795890Y157153D01*
X-795972Y157038D01*
X-796057Y156926D01*
X-796145Y156816D01*
X-796236Y156709D01*
X-796330Y156604D01*
X-796427Y156502D01*
X-796527Y156403D01*
X-796630Y156306D01*
X-796735Y156213D01*
X-796843Y156122D01*
X-796954Y156035D01*
X-797067Y155951D01*
X-797182Y155870D01*
X-797299Y155792D01*
X-797419Y155718D01*
X-797541Y155647D01*
X-797664Y155579D01*
X-797790Y155515D01*
X-797917Y155455D01*
X-798046Y155398D01*
X-798176Y155344D01*
X-798308Y155295D01*
X-798442Y155249D01*
X-798576Y155207D01*
X-798712Y155169D01*
X-798848Y155134D01*
X-798986Y155104D01*
X-799124Y155077D01*
X-799263Y155055D01*
X-799403Y155036D01*
X-799543Y155021D01*
X-799683Y155010D01*
X-799824Y155003D01*
X-799965Y155000D01*
X-800106Y155001D01*
X-800246Y155006D01*
X-800387Y155015D01*
X-800527Y155028D01*
X-800667Y155045D01*
X-800807Y155065D01*
X-800945Y155090D01*
X-801083Y155119D01*
X-801220Y155151D01*
X-801356Y155187D01*
X-801491Y155228D01*
X-801625Y155272D01*
X-801758Y155319D01*
X-801889Y155371D01*
X-802019Y155426D01*
X-802147Y155484D01*
X-802273Y155547D01*
X-802398Y155612D01*
X-802520Y155682D01*
X-802641Y155754D01*
X-802760Y155830D01*
X-802876Y155910D01*
X-802990Y155993D01*
X-803102Y156078D01*
X-803211Y156167D01*
X-803318Y156259D01*
X-803422Y156354D01*
X-803523Y156452D01*
X-803622Y156553D01*
X-803717Y156656D01*
X-803810Y156762D01*
X-803900Y156871D01*
X-803986Y156982D01*
X-804070Y157095D01*
X-804150Y157211D01*
X-804227Y157329D01*
X-804300Y157449D01*
X-804371Y157572D01*
X-804437Y157696D01*
X-804500Y157822D01*
X-804560Y157949D01*
X-804616Y158078D01*
X-804668Y158209D01*
X-804717Y158341D01*
X-804762Y158475D01*
X-804803Y158610D01*
X-804840Y158746D01*
X-804874Y158882D01*
X-804903Y159020D01*
X-804929Y159159D01*
X-804950Y159298D01*
X-804968Y159438D01*
X-804982Y159578D01*
X-804992Y159718D01*
X-804998Y159859D01*
X-805000Y160000D01*
X-805000Y120000D02*
X-804998Y120141D01*
X-804992Y120282D01*
X-804982Y120422D01*
X-804968Y120562D01*
X-804950Y120702D01*
X-804929Y120841D01*
X-804903Y120980D01*
X-804874Y121118D01*
X-804840Y121254D01*
X-804803Y121390D01*
X-804762Y121525D01*
X-804717Y121659D01*
X-804668Y121791D01*
X-804616Y121922D01*
X-804560Y122051D01*
X-804500Y122178D01*
X-804437Y122304D01*
X-804371Y122428D01*
X-804300Y122551D01*
X-804227Y122671D01*
X-804150Y122789D01*
X-804070Y122905D01*
X-803986Y123018D01*
X-803900Y123129D01*
X-803810Y123238D01*
X-803717Y123344D01*
X-803622Y123447D01*
X-803523Y123548D01*
X-803422Y123646D01*
X-803318Y123741D01*
X-803211Y123833D01*
X-803102Y123922D01*
X-802990Y124007D01*
X-802876Y124090D01*
X-802760Y124170D01*
X-802641Y124246D01*
X-802520Y124318D01*
X-802398Y124388D01*
X-802273Y124453D01*
X-802147Y124516D01*
X-802019Y124574D01*
X-801889Y124629D01*
X-801758Y124681D01*
X-801625Y124728D01*
X-801491Y124772D01*
X-801356Y124813D01*
X-801220Y124849D01*
X-801083Y124881D01*
X-800945Y124910D01*
X-800807Y124935D01*
X-800667Y124955D01*
X-800527Y124972D01*
X-800387Y124985D01*
X-800246Y124994D01*
X-800106Y124999D01*
X-799965Y125000D01*
X-799824Y124997D01*
X-799683Y124990D01*
X-799543Y124979D01*
X-799403Y124964D01*
X-799263Y124945D01*
X-799124Y124923D01*
X-798986Y124896D01*
X-798848Y124866D01*
X-798712Y124831D01*
X-798576Y124793D01*
X-798442Y124751D01*
X-798308Y124705D01*
X-798176Y124656D01*
X-798046Y124602D01*
X-797917Y124545D01*
X-797790Y124485D01*
X-797664Y124421D01*
X-797541Y124353D01*
X-797419Y124282D01*
X-797299Y124208D01*
X-797182Y124130D01*
X-797067Y124049D01*
X-796954Y123965D01*
X-796843Y123878D01*
X-796735Y123787D01*
X-796630Y123694D01*
X-796527Y123597D01*
X-796427Y123498D01*
X-796330Y123396D01*
X-796236Y123291D01*
X-796145Y123184D01*
X-796057Y123074D01*
X-795972Y122962D01*
X-795890Y122847D01*
X-795811Y122730D01*
X-795736Y122611D01*
X-795664Y122490D01*
X-795596Y122367D01*
X-795531Y122242D01*
X-795469Y122115D01*
X-795412Y121986D01*
X-795357Y121856D01*
X-795307Y121725D01*
X-795260Y121592D01*
X-795217Y121458D01*
X-795178Y121322D01*
X-795143Y121186D01*
X-795111Y121049D01*
X-795084Y120911D01*
X-795060Y120772D01*
X-795040Y120632D01*
X-795024Y120492D01*
X-795012Y120352D01*
X-795004Y120211D01*
X-795000Y120070D01*
X-795000Y119930D01*
X-795004Y119789D01*
X-795012Y119648D01*
X-795024Y119508D01*
X-795040Y119368D01*
X-795060Y119228D01*
X-795084Y119089D01*
X-795111Y118951D01*
X-795143Y118814D01*
X-795178Y118678D01*
X-795217Y118542D01*
X-795260Y118408D01*
X-795307Y118275D01*
X-795357Y118144D01*
X-795412Y118014D01*
X-795469Y117885D01*
X-795531Y117758D01*
X-795596Y117633D01*
X-795664Y117510D01*
X-795736Y117389D01*
X-795811Y117270D01*
X-795890Y117153D01*
X-795972Y117038D01*
X-796057Y116926D01*
X-796145Y116816D01*
X-796236Y116709D01*
X-796330Y116604D01*
X-796427Y116502D01*
X-796527Y116403D01*
X-796630Y116306D01*
X-796735Y116213D01*
X-796843Y116122D01*
X-796954Y116035D01*
X-797067Y115951D01*
X-797182Y115870D01*
X-797299Y115792D01*
X-797419Y115718D01*
X-797541Y115647D01*
X-797664Y115579D01*
X-797790Y115515D01*
X-797917Y115455D01*
X-798046Y115398D01*
X-798176Y115344D01*
X-798308Y115295D01*
X-798442Y115249D01*
X-798576Y115207D01*
X-798712Y115169D01*
X-798848Y115134D01*
X-798986Y115104D01*
X-799124Y115077D01*
X-799263Y115055D01*
X-799403Y115036D01*
X-799543Y115021D01*
X-799683Y115010D01*
X-799824Y115003D01*
X-799965Y115000D01*
X-800106Y115001D01*
X-800246Y115006D01*
X-800387Y115015D01*
X-800527Y115028D01*
X-800667Y115045D01*
X-800807Y115065D01*
X-800945Y115090D01*
X-801083Y115119D01*
X-801220Y115151D01*
X-801356Y115187D01*
X-801491Y115228D01*
X-801625Y115272D01*
X-801758Y115319D01*
X-801889Y115371D01*
X-802019Y115426D01*
X-802147Y115484D01*
X-802273Y115547D01*
X-802398Y115612D01*
X-802520Y115682D01*
X-802641Y115754D01*
X-802760Y115830D01*
X-802876Y115910D01*
X-802990Y115993D01*
X-803102Y116078D01*
X-803211Y116167D01*
X-803318Y116259D01*
X-803422Y116354D01*
X-803523Y116452D01*
X-803622Y116553D01*
X-803717Y116656D01*
X-803810Y116762D01*
X-803900Y116871D01*
X-803986Y116982D01*
X-804070Y117095D01*
X-804150Y117211D01*
X-804227Y117329D01*
X-804300Y117449D01*
X-804371Y117572D01*
X-804437Y117696D01*
X-804500Y117822D01*
X-804560Y117949D01*
X-804616Y118078D01*
X-804668Y118209D01*
X-804717Y118341D01*
X-804762Y118475D01*
X-804803Y118610D01*
X-804840Y118746D01*
X-804874Y118882D01*
X-804903Y119020D01*
X-804929Y119159D01*
X-804950Y119298D01*
X-804968Y119438D01*
X-804982Y119578D01*
X-804992Y119718D01*
X-804998Y119859D01*
X-805000Y120000D01*
X-805000Y200000D02*
X-804998Y200141D01*
X-804992Y200282D01*
X-804982Y200422D01*
X-804968Y200562D01*
X-804950Y200702D01*
X-804929Y200841D01*
X-804903Y200980D01*
X-804874Y201118D01*
X-804840Y201254D01*
X-804803Y201390D01*
X-804762Y201525D01*
X-804717Y201659D01*
X-804668Y201791D01*
X-804616Y201922D01*
X-804560Y202051D01*
X-804500Y202178D01*
X-804437Y202304D01*
X-804371Y202428D01*
X-804300Y202551D01*
X-804227Y202671D01*
X-804150Y202789D01*
X-804070Y202905D01*
X-803986Y203018D01*
X-803900Y203129D01*
X-803810Y203238D01*
X-803717Y203344D01*
X-803622Y203447D01*
X-803523Y203548D01*
X-803422Y203646D01*
X-803318Y203741D01*
X-803211Y203833D01*
X-803102Y203922D01*
X-802990Y204007D01*
X-802876Y204090D01*
X-802760Y204170D01*
X-802641Y204246D01*
X-802520Y204318D01*
X-802398Y204388D01*
X-802273Y204453D01*
X-802147Y204516D01*
X-802019Y204574D01*
X-801889Y204629D01*
X-801758Y204681D01*
X-801625Y204728D01*
X-801491Y204772D01*
X-801356Y204813D01*
X-801220Y204849D01*
X-801083Y204881D01*
X-800945Y204910D01*
X-800807Y204935D01*
X-800667Y204955D01*
X-800527Y204972D01*
X-800387Y204985D01*
X-800246Y204994D01*
X-800106Y204999D01*
X-799965Y205000D01*
X-799824Y204997D01*
X-799683Y204990D01*
X-799543Y204979D01*
X-799403Y204964D01*
X-799263Y204945D01*
X-799124Y204923D01*
X-798986Y204896D01*
X-798848Y204866D01*
X-798712Y204831D01*
X-798576Y204793D01*
X-798442Y204751D01*
X-798308Y204705D01*
X-798176Y204656D01*
X-798046Y204602D01*
X-797917Y204545D01*
X-797790Y204485D01*
X-797664Y204421D01*
X-797541Y204353D01*
X-797419Y204282D01*
X-797299Y204208D01*
X-797182Y204130D01*
X-797067Y204049D01*
X-796954Y203965D01*
X-796843Y203878D01*
X-796735Y203787D01*
X-796630Y203694D01*
X-796527Y203597D01*
X-796427Y203498D01*
X-796330Y203396D01*
X-796236Y203291D01*
X-796145Y203184D01*
X-796057Y203074D01*
X-795972Y202962D01*
X-795890Y202847D01*
X-795811Y202730D01*
X-795736Y202611D01*
X-795664Y202490D01*
X-795596Y202367D01*
X-795531Y202242D01*
X-795469Y202115D01*
X-795412Y201986D01*
X-795357Y201856D01*
X-795307Y201725D01*
X-795260Y201592D01*
X-795217Y201458D01*
X-795178Y201322D01*
X-795143Y201186D01*
X-795111Y201049D01*
X-795084Y200911D01*
X-795060Y200772D01*
X-795040Y200632D01*
X-795024Y200492D01*
X-795012Y200352D01*
X-795004Y200211D01*
X-795000Y200070D01*
X-795000Y199930D01*
X-795004Y199789D01*
X-795012Y199648D01*
X-795024Y199508D01*
X-795040Y199368D01*
X-795060Y199228D01*
X-795084Y199089D01*
X-795111Y198951D01*
X-795143Y198814D01*
X-795178Y198678D01*
X-795217Y198542D01*
X-795260Y198408D01*
X-795307Y198275D01*
X-795357Y198144D01*
X-795412Y198014D01*
X-795469Y197885D01*
X-795531Y197758D01*
X-795596Y197633D01*
X-795664Y197510D01*
X-795736Y197389D01*
X-795811Y197270D01*
X-795890Y197153D01*
X-795972Y197038D01*
X-796057Y196926D01*
X-796145Y196816D01*
X-796236Y196709D01*
X-796330Y196604D01*
X-796427Y196502D01*
X-796527Y196403D01*
X-796630Y196306D01*
X-796735Y196213D01*
X-796843Y196122D01*
X-796954Y196035D01*
X-797067Y195951D01*
X-797182Y195870D01*
X-797299Y195792D01*
X-797419Y195718D01*
X-797541Y195647D01*
X-797664Y195579D01*
X-797790Y195515D01*
X-797917Y195455D01*
X-798046Y195398D01*
X-798176Y195344D01*
X-798308Y195295D01*
X-798442Y195249D01*
X-798576Y195207D01*
X-798712Y195169D01*
X-798848Y195134D01*
X-798986Y195104D01*
X-799124Y195077D01*
X-799263Y195055D01*
X-799403Y195036D01*
X-799543Y195021D01*
X-799683Y195010D01*
X-799824Y195003D01*
X-799965Y195000D01*
X-800106Y195001D01*
X-800246Y195006D01*
X-800387Y195015D01*
X-800527Y195028D01*
X-800667Y195045D01*
X-800807Y195065D01*
X-800945Y195090D01*
X-801083Y195119D01*
X-801220Y195151D01*
X-801356Y195187D01*
X-801491Y195228D01*
X-801625Y195272D01*
X-801758Y195319D01*
X-801889Y195371D01*
X-802019Y195426D01*
X-802147Y195484D01*
X-802273Y195547D01*
X-802398Y195612D01*
X-802520Y195682D01*
X-802641Y195754D01*
X-802760Y195830D01*
X-802876Y195910D01*
X-802990Y195993D01*
X-803102Y196078D01*
X-803211Y196167D01*
X-803318Y196259D01*
X-803422Y196354D01*
X-803523Y196452D01*
X-803622Y196553D01*
X-803717Y196656D01*
X-803810Y196762D01*
X-803900Y196871D01*
X-803986Y196982D01*
X-804070Y197095D01*
X-804150Y197211D01*
X-804227Y197329D01*
X-804300Y197449D01*
X-804371Y197572D01*
X-804437Y197696D01*
X-804500Y197822D01*
X-804560Y197949D01*
X-804616Y198078D01*
X-804668Y198209D01*
X-804717Y198341D01*
X-804762Y198475D01*
X-804803Y198610D01*
X-804840Y198746D01*
X-804874Y198882D01*
X-804903Y199020D01*
X-804929Y199159D01*
X-804950Y199298D01*
X-804968Y199438D01*
X-804982Y199578D01*
X-804992Y199718D01*
X-804998Y199859D01*
X-805000Y200000D01*
X-805000Y240000D02*
X-804998Y240141D01*
X-804992Y240282D01*
X-804982Y240422D01*
X-804968Y240562D01*
X-804950Y240702D01*
X-804929Y240841D01*
X-804903Y240980D01*
X-804874Y241118D01*
X-804840Y241254D01*
X-804803Y241390D01*
X-804762Y241525D01*
X-804717Y241659D01*
X-804668Y241791D01*
X-804616Y241922D01*
X-804560Y242051D01*
X-804500Y242178D01*
X-804437Y242304D01*
X-804371Y242428D01*
X-804300Y242551D01*
X-804227Y242671D01*
X-804150Y242789D01*
X-804070Y242905D01*
X-803986Y243018D01*
X-803900Y243129D01*
X-803810Y243238D01*
X-803717Y243344D01*
X-803622Y243447D01*
X-803523Y243548D01*
X-803422Y243646D01*
X-803318Y243741D01*
X-803211Y243833D01*
X-803102Y243922D01*
X-802990Y244007D01*
X-802876Y244090D01*
X-802760Y244170D01*
X-802641Y244246D01*
X-802520Y244318D01*
X-802398Y244388D01*
X-802273Y244453D01*
X-802147Y244516D01*
X-802019Y244574D01*
X-801889Y244629D01*
X-801758Y244681D01*
X-801625Y244728D01*
X-801491Y244772D01*
X-801356Y244813D01*
X-801220Y244849D01*
X-801083Y244881D01*
X-800945Y244910D01*
X-800807Y244935D01*
X-800667Y244955D01*
X-800527Y244972D01*
X-800387Y244985D01*
X-800246Y244994D01*
X-800106Y244999D01*
X-799965Y245000D01*
X-799824Y244997D01*
X-799683Y244990D01*
X-799543Y244979D01*
X-799403Y244964D01*
X-799263Y244945D01*
X-799124Y244923D01*
X-798986Y244896D01*
X-798848Y244866D01*
X-798712Y244831D01*
X-798576Y244793D01*
X-798442Y244751D01*
X-798308Y244705D01*
X-798176Y244656D01*
X-798046Y244602D01*
X-797917Y244545D01*
X-797790Y244485D01*
X-797664Y244421D01*
X-797541Y244353D01*
X-797419Y244282D01*
X-797299Y244208D01*
X-797182Y244130D01*
X-797067Y244049D01*
X-796954Y243965D01*
X-796843Y243878D01*
X-796735Y243787D01*
X-796630Y243694D01*
X-796527Y243597D01*
X-796427Y243498D01*
X-796330Y243396D01*
X-796236Y243291D01*
X-796145Y243184D01*
X-796057Y243074D01*
X-795972Y242962D01*
X-795890Y242847D01*
X-795811Y242730D01*
X-795736Y242611D01*
X-795664Y242490D01*
X-795596Y242367D01*
X-795531Y242242D01*
X-795469Y242115D01*
X-795412Y241986D01*
X-795357Y241856D01*
X-795307Y241725D01*
X-795260Y241592D01*
X-795217Y241458D01*
X-795178Y241322D01*
X-795143Y241186D01*
X-795111Y241049D01*
X-795084Y240911D01*
X-795060Y240772D01*
X-795040Y240632D01*
X-795024Y240492D01*
X-795012Y240352D01*
X-795004Y240211D01*
X-795000Y240070D01*
X-795000Y239930D01*
X-795004Y239789D01*
X-795012Y239648D01*
X-795024Y239508D01*
X-795040Y239368D01*
X-795060Y239228D01*
X-795084Y239089D01*
X-795111Y238951D01*
X-795143Y238814D01*
X-795178Y238678D01*
X-795217Y238542D01*
X-795260Y238408D01*
X-795307Y238275D01*
X-795357Y238144D01*
X-795412Y238014D01*
X-795469Y237885D01*
X-795531Y237758D01*
X-795596Y237633D01*
X-795664Y237510D01*
X-795736Y237389D01*
X-795811Y237270D01*
X-795890Y237153D01*
X-795972Y237038D01*
X-796057Y236926D01*
X-796145Y236816D01*
X-796236Y236709D01*
X-796330Y236604D01*
X-796427Y236502D01*
X-796527Y236403D01*
X-796630Y236306D01*
X-796735Y236213D01*
X-796843Y236122D01*
X-796954Y236035D01*
X-797067Y235951D01*
X-797182Y235870D01*
X-797299Y235792D01*
X-797419Y235718D01*
X-797541Y235647D01*
X-797664Y235579D01*
X-797790Y235515D01*
X-797917Y235455D01*
X-798046Y235398D01*
X-798176Y235344D01*
X-798308Y235295D01*
X-798442Y235249D01*
X-798576Y235207D01*
X-798712Y235169D01*
X-798848Y235134D01*
X-798986Y235104D01*
X-799124Y235077D01*
X-799263Y235055D01*
X-799403Y235036D01*
X-799543Y235021D01*
X-799683Y235010D01*
X-799824Y235003D01*
X-799965Y235000D01*
X-800106Y235001D01*
X-800246Y235006D01*
X-800387Y235015D01*
X-800527Y235028D01*
X-800667Y235045D01*
X-800807Y235065D01*
X-800945Y235090D01*
X-801083Y235119D01*
X-801220Y235151D01*
X-801356Y235187D01*
X-801491Y235228D01*
X-801625Y235272D01*
X-801758Y235319D01*
X-801889Y235371D01*
X-802019Y235426D01*
X-802147Y235484D01*
X-802273Y235547D01*
X-802398Y235612D01*
X-802520Y235682D01*
X-802641Y235754D01*
X-802760Y235830D01*
X-802876Y235910D01*
X-802990Y235993D01*
X-803102Y236078D01*
X-803211Y236167D01*
X-803318Y236259D01*
X-803422Y236354D01*
X-803523Y236452D01*
X-803622Y236553D01*
X-803717Y236656D01*
X-803810Y236762D01*
X-803900Y236871D01*
X-803986Y236982D01*
X-804070Y237095D01*
X-804150Y237211D01*
X-804227Y237329D01*
X-804300Y237449D01*
X-804371Y237572D01*
X-804437Y237696D01*
X-804500Y237822D01*
X-804560Y237949D01*
X-804616Y238078D01*
X-804668Y238209D01*
X-804717Y238341D01*
X-804762Y238475D01*
X-804803Y238610D01*
X-804840Y238746D01*
X-804874Y238882D01*
X-804903Y239020D01*
X-804929Y239159D01*
X-804950Y239298D01*
X-804968Y239438D01*
X-804982Y239578D01*
X-804992Y239718D01*
X-804998Y239859D01*
X-805000Y240000D01*
X-240000Y430000D02*
X-239998Y430141D01*
X-239992Y430282D01*
X-239982Y430422D01*
X-239968Y430562D01*
X-239950Y430702D01*
X-239929Y430841D01*
X-239903Y430980D01*
X-239874Y431118D01*
X-239840Y431254D01*
X-239803Y431390D01*
X-239762Y431525D01*
X-239717Y431659D01*
X-239668Y431791D01*
X-239616Y431922D01*
X-239560Y432051D01*
X-239500Y432178D01*
X-239437Y432304D01*
X-239371Y432428D01*
X-239300Y432551D01*
X-239227Y432671D01*
X-239150Y432789D01*
X-239070Y432905D01*
X-238986Y433018D01*
X-238900Y433129D01*
X-238810Y433238D01*
X-238717Y433344D01*
X-238622Y433447D01*
X-238523Y433548D01*
X-238422Y433646D01*
X-238318Y433741D01*
X-238211Y433833D01*
X-238102Y433922D01*
X-237990Y434007D01*
X-237876Y434090D01*
X-237760Y434170D01*
X-237641Y434246D01*
X-237520Y434318D01*
X-237398Y434388D01*
X-237273Y434453D01*
X-237147Y434516D01*
X-237019Y434574D01*
X-236889Y434629D01*
X-236758Y434681D01*
X-236625Y434728D01*
X-236491Y434772D01*
X-236356Y434813D01*
X-236220Y434849D01*
X-236083Y434881D01*
X-235945Y434910D01*
X-235807Y434935D01*
X-235667Y434955D01*
X-235527Y434972D01*
X-235387Y434985D01*
X-235246Y434994D01*
X-235106Y434999D01*
X-234965Y435000D01*
X-234824Y434997D01*
X-234683Y434990D01*
X-234543Y434979D01*
X-234403Y434964D01*
X-234263Y434945D01*
X-234124Y434923D01*
X-233986Y434896D01*
X-233848Y434866D01*
X-233712Y434831D01*
X-233576Y434793D01*
X-233442Y434751D01*
X-233308Y434705D01*
X-233176Y434656D01*
X-233046Y434602D01*
X-232917Y434545D01*
X-232790Y434485D01*
X-232664Y434421D01*
X-232541Y434353D01*
X-232419Y434282D01*
X-232299Y434208D01*
X-232182Y434130D01*
X-232067Y434049D01*
X-231954Y433965D01*
X-231843Y433878D01*
X-231735Y433787D01*
X-231630Y433694D01*
X-231527Y433597D01*
X-231427Y433498D01*
X-231330Y433396D01*
X-231236Y433291D01*
X-231145Y433184D01*
X-231057Y433074D01*
X-230972Y432962D01*
X-230890Y432847D01*
X-230811Y432730D01*
X-230736Y432611D01*
X-230664Y432490D01*
X-230596Y432367D01*
X-230531Y432242D01*
X-230469Y432115D01*
X-230412Y431986D01*
X-230357Y431856D01*
X-230307Y431725D01*
X-230260Y431592D01*
X-230217Y431458D01*
X-230178Y431322D01*
X-230143Y431186D01*
X-230111Y431049D01*
X-230084Y430911D01*
X-230060Y430772D01*
X-230040Y430632D01*
X-230024Y430492D01*
X-230012Y430352D01*
X-230004Y430211D01*
X-230000Y430070D01*
X-230000Y429930D01*
X-230004Y429789D01*
X-230012Y429648D01*
X-230024Y429508D01*
X-230040Y429368D01*
X-230060Y429228D01*
X-230084Y429089D01*
X-230111Y428951D01*
X-230143Y428814D01*
X-230178Y428678D01*
X-230217Y428542D01*
X-230260Y428408D01*
X-230307Y428275D01*
X-230357Y428144D01*
X-230412Y428014D01*
X-230469Y427885D01*
X-230531Y427758D01*
X-230596Y427633D01*
X-230664Y427510D01*
X-230736Y427389D01*
X-230811Y427270D01*
X-230890Y427153D01*
X-230972Y427038D01*
X-231057Y426926D01*
X-231145Y426816D01*
X-231236Y426709D01*
X-231330Y426604D01*
X-231427Y426502D01*
X-231527Y426403D01*
X-231630Y426306D01*
X-231735Y426213D01*
X-231843Y426122D01*
X-231954Y426035D01*
X-232067Y425951D01*
X-232182Y425870D01*
X-232299Y425792D01*
X-232419Y425718D01*
X-232541Y425647D01*
X-232664Y425579D01*
X-232790Y425515D01*
X-232917Y425455D01*
X-233046Y425398D01*
X-233176Y425344D01*
X-233308Y425295D01*
X-233442Y425249D01*
X-233576Y425207D01*
X-233712Y425169D01*
X-233848Y425134D01*
X-233986Y425104D01*
X-234124Y425077D01*
X-234263Y425055D01*
X-234403Y425036D01*
X-234543Y425021D01*
X-234683Y425010D01*
X-234824Y425003D01*
X-234965Y425000D01*
X-235106Y425001D01*
X-235246Y425006D01*
X-235387Y425015D01*
X-235527Y425028D01*
X-235667Y425045D01*
X-235807Y425065D01*
X-235945Y425090D01*
X-236083Y425119D01*
X-236220Y425151D01*
X-236356Y425187D01*
X-236491Y425228D01*
X-236625Y425272D01*
X-236758Y425319D01*
X-236889Y425371D01*
X-237019Y425426D01*
X-237147Y425484D01*
X-237273Y425547D01*
X-237398Y425612D01*
X-237520Y425682D01*
X-237641Y425754D01*
X-237760Y425830D01*
X-237876Y425910D01*
X-237990Y425993D01*
X-238102Y426078D01*
X-238211Y426167D01*
X-238318Y426259D01*
X-238422Y426354D01*
X-238523Y426452D01*
X-238622Y426553D01*
X-238717Y426656D01*
X-238810Y426762D01*
X-238900Y426871D01*
X-238986Y426982D01*
X-239070Y427095D01*
X-239150Y427211D01*
X-239227Y427329D01*
X-239300Y427449D01*
X-239371Y427572D01*
X-239437Y427696D01*
X-239500Y427822D01*
X-239560Y427949D01*
X-239616Y428078D01*
X-239668Y428209D01*
X-239717Y428341D01*
X-239762Y428475D01*
X-239803Y428610D01*
X-239840Y428746D01*
X-239874Y428882D01*
X-239903Y429020D01*
X-239929Y429159D01*
X-239950Y429298D01*
X-239968Y429438D01*
X-239982Y429578D01*
X-239992Y429718D01*
X-239998Y429859D01*
X-240000Y430000D01*
X-240000Y470000D02*
X-239998Y470141D01*
X-239992Y470282D01*
X-239982Y470422D01*
X-239968Y470562D01*
X-239950Y470702D01*
X-239929Y470841D01*
X-239903Y470980D01*
X-239874Y471118D01*
X-239840Y471254D01*
X-239803Y471390D01*
X-239762Y471525D01*
X-239717Y471659D01*
X-239668Y471791D01*
X-239616Y471922D01*
X-239560Y472051D01*
X-239500Y472178D01*
X-239437Y472304D01*
X-239371Y472428D01*
X-239300Y472551D01*
X-239227Y472671D01*
X-239150Y472789D01*
X-239070Y472905D01*
X-238986Y473018D01*
X-238900Y473129D01*
X-238810Y473238D01*
X-238717Y473344D01*
X-238622Y473447D01*
X-238523Y473548D01*
X-238422Y473646D01*
X-238318Y473741D01*
X-238211Y473833D01*
X-238102Y473922D01*
X-237990Y474007D01*
X-237876Y474090D01*
X-237760Y474170D01*
X-237641Y474246D01*
X-237520Y474318D01*
X-237398Y474388D01*
X-237273Y474453D01*
X-237147Y474516D01*
X-237019Y474574D01*
X-236889Y474629D01*
X-236758Y474681D01*
X-236625Y474728D01*
X-236491Y474772D01*
X-236356Y474813D01*
X-236220Y474849D01*
X-236083Y474881D01*
X-235945Y474910D01*
X-235807Y474935D01*
X-235667Y474955D01*
X-235527Y474972D01*
X-235387Y474985D01*
X-235246Y474994D01*
X-235106Y474999D01*
X-234965Y475000D01*
X-234824Y474997D01*
X-234683Y474990D01*
X-234543Y474979D01*
X-234403Y474964D01*
X-234263Y474945D01*
X-234124Y474923D01*
X-233986Y474896D01*
X-233848Y474866D01*
X-233712Y474831D01*
X-233576Y474793D01*
X-233442Y474751D01*
X-233308Y474705D01*
X-233176Y474656D01*
X-233046Y474602D01*
X-232917Y474545D01*
X-232790Y474485D01*
X-232664Y474421D01*
X-232541Y474353D01*
X-232419Y474282D01*
X-232299Y474208D01*
X-232182Y474130D01*
X-232067Y474049D01*
X-231954Y473965D01*
X-231843Y473878D01*
X-231735Y473787D01*
X-231630Y473694D01*
X-231527Y473597D01*
X-231427Y473498D01*
X-231330Y473396D01*
X-231236Y473291D01*
X-231145Y473184D01*
X-231057Y473074D01*
X-230972Y472962D01*
X-230890Y472847D01*
X-230811Y472730D01*
X-230736Y472611D01*
X-230664Y472490D01*
X-230596Y472367D01*
X-230531Y472242D01*
X-230469Y472115D01*
X-230412Y471986D01*
X-230357Y471856D01*
X-230307Y471725D01*
X-230260Y471592D01*
X-230217Y471458D01*
X-230178Y471322D01*
X-230143Y471186D01*
X-230111Y471049D01*
X-230084Y470911D01*
X-230060Y470772D01*
X-230040Y470632D01*
X-230024Y470492D01*
X-230012Y470352D01*
X-230004Y470211D01*
X-230000Y470070D01*
X-230000Y469930D01*
X-230004Y469789D01*
X-230012Y469648D01*
X-230024Y469508D01*
X-230040Y469368D01*
X-230060Y469228D01*
X-230084Y469089D01*
X-230111Y468951D01*
X-230143Y468814D01*
X-230178Y468678D01*
X-230217Y468542D01*
X-230260Y468408D01*
X-230307Y468275D01*
X-230357Y468144D01*
X-230412Y468014D01*
X-230469Y467885D01*
X-230531Y467758D01*
X-230596Y467633D01*
X-230664Y467510D01*
X-230736Y467389D01*
X-230811Y467270D01*
X-230890Y467153D01*
X-230972Y467038D01*
X-231057Y466926D01*
X-231145Y466816D01*
X-231236Y466709D01*
X-231330Y466604D01*
X-231427Y466502D01*
X-231527Y466403D01*
X-231630Y466306D01*
X-231735Y466213D01*
X-231843Y466122D01*
X-231954Y466035D01*
X-232067Y465951D01*
X-232182Y465870D01*
X-232299Y465792D01*
X-232419Y465718D01*
X-232541Y465647D01*
X-232664Y465579D01*
X-232790Y465515D01*
X-232917Y465455D01*
X-233046Y465398D01*
X-233176Y465344D01*
X-233308Y465295D01*
X-233442Y465249D01*
X-233576Y465207D01*
X-233712Y465169D01*
X-233848Y465134D01*
X-233986Y465104D01*
X-234124Y465077D01*
X-234263Y465055D01*
X-234403Y465036D01*
X-234543Y465021D01*
X-234683Y465010D01*
X-234824Y465003D01*
X-234965Y465000D01*
X-235106Y465001D01*
X-235246Y465006D01*
X-235387Y465015D01*
X-235527Y465028D01*
X-235667Y465045D01*
X-235807Y465065D01*
X-235945Y465090D01*
X-236083Y465119D01*
X-236220Y465151D01*
X-236356Y465187D01*
X-236491Y465228D01*
X-236625Y465272D01*
X-236758Y465319D01*
X-236889Y465371D01*
X-237019Y465426D01*
X-237147Y465484D01*
X-237273Y465547D01*
X-237398Y465612D01*
X-237520Y465682D01*
X-237641Y465754D01*
X-237760Y465830D01*
X-237876Y465910D01*
X-237990Y465993D01*
X-238102Y466078D01*
X-238211Y466167D01*
X-238318Y466259D01*
X-238422Y466354D01*
X-238523Y466452D01*
X-238622Y466553D01*
X-238717Y466656D01*
X-238810Y466762D01*
X-238900Y466871D01*
X-238986Y466982D01*
X-239070Y467095D01*
X-239150Y467211D01*
X-239227Y467329D01*
X-239300Y467449D01*
X-239371Y467572D01*
X-239437Y467696D01*
X-239500Y467822D01*
X-239560Y467949D01*
X-239616Y468078D01*
X-239668Y468209D01*
X-239717Y468341D01*
X-239762Y468475D01*
X-239803Y468610D01*
X-239840Y468746D01*
X-239874Y468882D01*
X-239903Y469020D01*
X-239929Y469159D01*
X-239950Y469298D01*
X-239968Y469438D01*
X-239982Y469578D01*
X-239992Y469718D01*
X-239998Y469859D01*
X-240000Y470000D01*
X230000Y470000D02*
X230002Y470141D01*
X230008Y470282D01*
X230018Y470422D01*
X230032Y470562D01*
X230050Y470702D01*
X230071Y470841D01*
X230097Y470980D01*
X230126Y471118D01*
X230160Y471254D01*
X230197Y471390D01*
X230238Y471525D01*
X230283Y471659D01*
X230332Y471791D01*
X230384Y471922D01*
X230440Y472051D01*
X230500Y472178D01*
X230563Y472304D01*
X230629Y472428D01*
X230700Y472551D01*
X230773Y472671D01*
X230850Y472789D01*
X230930Y472905D01*
X231014Y473018D01*
X231100Y473129D01*
X231190Y473238D01*
X231283Y473344D01*
X231378Y473447D01*
X231477Y473548D01*
X231578Y473646D01*
X231682Y473741D01*
X231789Y473833D01*
X231898Y473922D01*
X232010Y474007D01*
X232124Y474090D01*
X232240Y474170D01*
X232359Y474246D01*
X232480Y474318D01*
X232602Y474388D01*
X232727Y474453D01*
X232853Y474516D01*
X232981Y474574D01*
X233111Y474629D01*
X233242Y474681D01*
X233375Y474728D01*
X233509Y474772D01*
X233644Y474813D01*
X233780Y474849D01*
X233917Y474881D01*
X234055Y474910D01*
X234193Y474935D01*
X234333Y474955D01*
X234473Y474972D01*
X234613Y474985D01*
X234754Y474994D01*
X234894Y474999D01*
X235035Y475000D01*
X235176Y474997D01*
X235317Y474990D01*
X235457Y474979D01*
X235597Y474964D01*
X235737Y474945D01*
X235876Y474923D01*
X236014Y474896D01*
X236152Y474866D01*
X236288Y474831D01*
X236424Y474793D01*
X236558Y474751D01*
X236692Y474705D01*
X236824Y474656D01*
X236954Y474602D01*
X237083Y474545D01*
X237210Y474485D01*
X237336Y474421D01*
X237459Y474353D01*
X237581Y474282D01*
X237701Y474208D01*
X237818Y474130D01*
X237933Y474049D01*
X238046Y473965D01*
X238157Y473878D01*
X238265Y473787D01*
X238370Y473694D01*
X238473Y473597D01*
X238573Y473498D01*
X238670Y473396D01*
X238764Y473291D01*
X238855Y473184D01*
X238943Y473074D01*
X239028Y472962D01*
X239110Y472847D01*
X239189Y472730D01*
X239264Y472611D01*
X239336Y472490D01*
X239404Y472367D01*
X239469Y472242D01*
X239531Y472115D01*
X239588Y471986D01*
X239643Y471856D01*
X239693Y471725D01*
X239740Y471592D01*
X239783Y471458D01*
X239822Y471322D01*
X239857Y471186D01*
X239889Y471049D01*
X239916Y470911D01*
X239940Y470772D01*
X239960Y470632D01*
X239976Y470492D01*
X239988Y470352D01*
X239996Y470211D01*
X240000Y470070D01*
X240000Y469930D01*
X239996Y469789D01*
X239988Y469648D01*
X239976Y469508D01*
X239960Y469368D01*
X239940Y469228D01*
X239916Y469089D01*
X239889Y468951D01*
X239857Y468814D01*
X239822Y468678D01*
X239783Y468542D01*
X239740Y468408D01*
X239693Y468275D01*
X239643Y468144D01*
X239588Y468014D01*
X239531Y467885D01*
X239469Y467758D01*
X239404Y467633D01*
X239336Y467510D01*
X239264Y467389D01*
X239189Y467270D01*
X239110Y467153D01*
X239028Y467038D01*
X238943Y466926D01*
X238855Y466816D01*
X238764Y466709D01*
X238670Y466604D01*
X238573Y466502D01*
X238473Y466403D01*
X238370Y466306D01*
X238265Y466213D01*
X238157Y466122D01*
X238046Y466035D01*
X237933Y465951D01*
X237818Y465870D01*
X237701Y465792D01*
X237581Y465718D01*
X237459Y465647D01*
X237336Y465579D01*
X237210Y465515D01*
X237083Y465455D01*
X236954Y465398D01*
X236824Y465344D01*
X236692Y465295D01*
X236558Y465249D01*
X236424Y465207D01*
X236288Y465169D01*
X236152Y465134D01*
X236014Y465104D01*
X235876Y465077D01*
X235737Y465055D01*
X235597Y465036D01*
X235457Y465021D01*
X235317Y465010D01*
X235176Y465003D01*
X235035Y465000D01*
X234894Y465001D01*
X234754Y465006D01*
X234613Y465015D01*
X234473Y465028D01*
X234333Y465045D01*
X234193Y465065D01*
X234055Y465090D01*
X233917Y465119D01*
X233780Y465151D01*
X233644Y465187D01*
X233509Y465228D01*
X233375Y465272D01*
X233242Y465319D01*
X233111Y465371D01*
X232981Y465426D01*
X232853Y465484D01*
X232727Y465547D01*
X232602Y465612D01*
X232480Y465682D01*
X232359Y465754D01*
X232240Y465830D01*
X232124Y465910D01*
X232010Y465993D01*
X231898Y466078D01*
X231789Y466167D01*
X231682Y466259D01*
X231578Y466354D01*
X231477Y466452D01*
X231378Y466553D01*
X231283Y466656D01*
X231190Y466762D01*
X231100Y466871D01*
X231014Y466982D01*
X230930Y467095D01*
X230850Y467211D01*
X230773Y467329D01*
X230700Y467449D01*
X230629Y467572D01*
X230563Y467696D01*
X230500Y467822D01*
X230440Y467949D01*
X230384Y468078D01*
X230332Y468209D01*
X230283Y468341D01*
X230238Y468475D01*
X230197Y468610D01*
X230160Y468746D01*
X230126Y468882D01*
X230097Y469020D01*
X230071Y469159D01*
X230050Y469298D01*
X230032Y469438D01*
X230018Y469578D01*
X230008Y469718D01*
X230002Y469859D01*
X230000Y470000D01*
X230000Y430000D02*
X230002Y430141D01*
X230008Y430282D01*
X230018Y430422D01*
X230032Y430562D01*
X230050Y430702D01*
X230071Y430841D01*
X230097Y430980D01*
X230126Y431118D01*
X230160Y431254D01*
X230197Y431390D01*
X230238Y431525D01*
X230283Y431659D01*
X230332Y431791D01*
X230384Y431922D01*
X230440Y432051D01*
X230500Y432178D01*
X230563Y432304D01*
X230629Y432428D01*
X230700Y432551D01*
X230773Y432671D01*
X230850Y432789D01*
X230930Y432905D01*
X231014Y433018D01*
X231100Y433129D01*
X231190Y433238D01*
X231283Y433344D01*
X231378Y433447D01*
X231477Y433548D01*
X231578Y433646D01*
X231682Y433741D01*
X231789Y433833D01*
X231898Y433922D01*
X232010Y434007D01*
X232124Y434090D01*
X232240Y434170D01*
X232359Y434246D01*
X232480Y434318D01*
X232602Y434388D01*
X232727Y434453D01*
X232853Y434516D01*
X232981Y434574D01*
X233111Y434629D01*
X233242Y434681D01*
X233375Y434728D01*
X233509Y434772D01*
X233644Y434813D01*
X233780Y434849D01*
X233917Y434881D01*
X234055Y434910D01*
X234193Y434935D01*
X234333Y434955D01*
X234473Y434972D01*
X234613Y434985D01*
X234754Y434994D01*
X234894Y434999D01*
X235035Y435000D01*
X235176Y434997D01*
X235317Y434990D01*
X235457Y434979D01*
X235597Y434964D01*
X235737Y434945D01*
X235876Y434923D01*
X236014Y434896D01*
X236152Y434866D01*
X236288Y434831D01*
X236424Y434793D01*
X236558Y434751D01*
X236692Y434705D01*
X236824Y434656D01*
X236954Y434602D01*
X237083Y434545D01*
X237210Y434485D01*
X237336Y434421D01*
X237459Y434353D01*
X237581Y434282D01*
X237701Y434208D01*
X237818Y434130D01*
X237933Y434049D01*
X238046Y433965D01*
X238157Y433878D01*
X238265Y433787D01*
X238370Y433694D01*
X238473Y433597D01*
X238573Y433498D01*
X238670Y433396D01*
X238764Y433291D01*
X238855Y433184D01*
X238943Y433074D01*
X239028Y432962D01*
X239110Y432847D01*
X239189Y432730D01*
X239264Y432611D01*
X239336Y432490D01*
X239404Y432367D01*
X239469Y432242D01*
X239531Y432115D01*
X239588Y431986D01*
X239643Y431856D01*
X239693Y431725D01*
X239740Y431592D01*
X239783Y431458D01*
X239822Y431322D01*
X239857Y431186D01*
X239889Y431049D01*
X239916Y430911D01*
X239940Y430772D01*
X239960Y430632D01*
X239976Y430492D01*
X239988Y430352D01*
X239996Y430211D01*
X240000Y430070D01*
X240000Y429930D01*
X239996Y429789D01*
X239988Y429648D01*
X239976Y429508D01*
X239960Y429368D01*
X239940Y429228D01*
X239916Y429089D01*
X239889Y428951D01*
X239857Y428814D01*
X239822Y428678D01*
X239783Y428542D01*
X239740Y428408D01*
X239693Y428275D01*
X239643Y428144D01*
X239588Y428014D01*
X239531Y427885D01*
X239469Y427758D01*
X239404Y427633D01*
X239336Y427510D01*
X239264Y427389D01*
X239189Y427270D01*
X239110Y427153D01*
X239028Y427038D01*
X238943Y426926D01*
X238855Y426816D01*
X238764Y426709D01*
X238670Y426604D01*
X238573Y426502D01*
X238473Y426403D01*
X238370Y426306D01*
X238265Y426213D01*
X238157Y426122D01*
X238046Y426035D01*
X237933Y425951D01*
X237818Y425870D01*
X237701Y425792D01*
X237581Y425718D01*
X237459Y425647D01*
X237336Y425579D01*
X237210Y425515D01*
X237083Y425455D01*
X236954Y425398D01*
X236824Y425344D01*
X236692Y425295D01*
X236558Y425249D01*
X236424Y425207D01*
X236288Y425169D01*
X236152Y425134D01*
X236014Y425104D01*
X235876Y425077D01*
X235737Y425055D01*
X235597Y425036D01*
X235457Y425021D01*
X235317Y425010D01*
X235176Y425003D01*
X235035Y425000D01*
X234894Y425001D01*
X234754Y425006D01*
X234613Y425015D01*
X234473Y425028D01*
X234333Y425045D01*
X234193Y425065D01*
X234055Y425090D01*
X233917Y425119D01*
X233780Y425151D01*
X233644Y425187D01*
X233509Y425228D01*
X233375Y425272D01*
X233242Y425319D01*
X233111Y425371D01*
X232981Y425426D01*
X232853Y425484D01*
X232727Y425547D01*
X232602Y425612D01*
X232480Y425682D01*
X232359Y425754D01*
X232240Y425830D01*
X232124Y425910D01*
X232010Y425993D01*
X231898Y426078D01*
X231789Y426167D01*
X231682Y426259D01*
X231578Y426354D01*
X231477Y426452D01*
X231378Y426553D01*
X231283Y426656D01*
X231190Y426762D01*
X231100Y426871D01*
X231014Y426982D01*
X230930Y427095D01*
X230850Y427211D01*
X230773Y427329D01*
X230700Y427449D01*
X230629Y427572D01*
X230563Y427696D01*
X230500Y427822D01*
X230440Y427949D01*
X230384Y428078D01*
X230332Y428209D01*
X230283Y428341D01*
X230238Y428475D01*
X230197Y428610D01*
X230160Y428746D01*
X230126Y428882D01*
X230097Y429020D01*
X230071Y429159D01*
X230050Y429298D01*
X230032Y429438D01*
X230018Y429578D01*
X230008Y429718D01*
X230002Y429859D01*
X230000Y430000D01*
D13*
X587300Y440000D03*
X612700Y440000D03*
X587300Y414600D03*
X612700Y414600D03*
X612700Y180000D03*
X587300Y180000D03*
X612700Y205400D03*
X587300Y205400D03*
X587300Y130000D03*
X612700Y130000D03*
X587300Y104600D03*
X612700Y104600D03*
X612700Y-130000D03*
X587300Y-130000D03*
X612700Y-104600D03*
X587300Y-104600D03*
X587300Y-180000D03*
X612700Y-180000D03*
X587300Y-205400D03*
X612700Y-205400D03*
X612700Y-440000D03*
X587300Y-440000D03*
X612700Y-414600D03*
X587300Y-414600D03*
X-587300Y-440000D03*
X-612700Y-440000D03*
X-587300Y-414600D03*
X-612700Y-414600D03*
X-612700Y-180000D03*
X-587300Y-180000D03*
X-612700Y-205400D03*
X-587300Y-205400D03*
X-587300Y-130000D03*
X-612700Y-130000D03*
X-587300Y-104600D03*
X-612700Y-104600D03*
X-612700Y130000D03*
X-587300Y130000D03*
X-612700Y104600D03*
X-587300Y104600D03*
X-587300Y180000D03*
X-612700Y180000D03*
X-587300Y205400D03*
X-612700Y205400D03*
X-612700Y440000D03*
X-587300Y440000D03*
X-612700Y414600D03*
X-587300Y414600D03*
X-130000Y337300D03*
X-130000Y362700D03*
X-104600Y337300D03*
X-104600Y362700D03*
X130000Y362700D03*
X130000Y337300D03*
X104600Y362700D03*
X104600Y337300D03*
D11*
X400000Y650000D03*
X-400000Y650000D03*
X200000Y-250000D03*
X-200000Y-250000D03*
D13*
X337300Y-221100D03*
X337300Y-246500D03*
X362700Y-246500D03*
X362700Y-221100D03*
X337300Y-271900D03*
X362700Y-271900D03*
X337300Y-297300D03*
X362700Y-297300D03*
X362700Y-322700D03*
X337300Y-322700D03*
X337300Y-348100D03*
X362700Y-348100D03*
X362700Y-373500D03*
X337300Y-373500D03*
X337300Y-398900D03*
X362700Y-398900D03*
X-337300Y-398900D03*
X-337300Y-373500D03*
X-362700Y-373500D03*
X-362700Y-398900D03*
X-337300Y-348100D03*
X-362700Y-348100D03*
X-337300Y-322700D03*
X-362700Y-322700D03*
X-362700Y-297300D03*
X-337300Y-297300D03*
X-337300Y-271900D03*
X-362700Y-271900D03*
X-362700Y-246500D03*
X-337300Y-246500D03*
X-337300Y-221100D03*
X-362700Y-221100D03*
X-337300Y-88900D03*
X-337300Y-63500D03*
X-362700Y-63500D03*
X-362700Y-88900D03*
X-337300Y-38100D03*
X-362700Y-38100D03*
X-337300Y-12700D03*
X-362700Y-12700D03*
X-362700Y12700D03*
X-337300Y12700D03*
X-337300Y38100D03*
X-362700Y38100D03*
X-362700Y63500D03*
X-337300Y63500D03*
X-337300Y88900D03*
X-362700Y88900D03*
X-337300Y221100D03*
X-337300Y246500D03*
X-362700Y246500D03*
X-362700Y221100D03*
X-337300Y271900D03*
X-362700Y271900D03*
X-337300Y297300D03*
X-362700Y297300D03*
X-362700Y322700D03*
X-337300Y322700D03*
X-337300Y348100D03*
X-362700Y348100D03*
X-362700Y373500D03*
X-337300Y373500D03*
X-337300Y398900D03*
X-362700Y398900D03*
X337300Y398900D03*
X337300Y373500D03*
X362700Y373500D03*
X362700Y398900D03*
X337300Y348100D03*
X362700Y348100D03*
X337300Y322700D03*
X362700Y322700D03*
X362700Y297300D03*
X337300Y297300D03*
X337300Y271900D03*
X362700Y271900D03*
X362700Y246500D03*
X337300Y246500D03*
X337300Y221100D03*
X362700Y221100D03*
X337300Y88900D03*
X337300Y63500D03*
X362700Y63500D03*
X362700Y88900D03*
X337300Y38100D03*
X362700Y38100D03*
X337300Y12700D03*
X362700Y12700D03*
X362700Y-12700D03*
X337300Y-12700D03*
X337300Y-38100D03*
X362700Y-38100D03*
X362700Y-63500D03*
X337300Y-63500D03*
X337300Y-88900D03*
X362700Y-88900D03*
X-88900Y87300D03*
X-63500Y87300D03*
X-63500Y112700D03*
X-88900Y112700D03*
X-38100Y87300D03*
X-38100Y112700D03*
X-12700Y87300D03*
X-12700Y112700D03*
X12700Y112700D03*
X12700Y87300D03*
X38100Y87300D03*
X38100Y112700D03*
X63500Y112700D03*
X63500Y87300D03*
X88900Y87300D03*
X88900Y112700D03*
D14*
X187300Y-101600D03*
X212700Y-101600D03*
X187300Y-76200D03*
X212700Y-76200D03*
X187300Y-50800D03*
X212700Y-50800D03*
X187300Y-25400D03*
X212700Y-25400D03*
X187300Y0D03*
X212700Y0D03*
X187300Y25400D03*
X212700Y25400D03*
X187300Y50800D03*
X212700Y50800D03*
X187300Y76200D03*
X212700Y76200D03*
X187300Y101600D03*
X212700Y101600D03*
X-212700Y-101600D03*
X-187300Y-101600D03*
X-212700Y-76200D03*
X-187300Y-76200D03*
X-212700Y-50800D03*
X-187300Y-50800D03*
X-212700Y-25400D03*
X-187300Y-25400D03*
X-212700Y0D03*
X-187300Y0D03*
X-212700Y25400D03*
X-187300Y25400D03*
X-212700Y50800D03*
X-187300Y50800D03*
X-212700Y76200D03*
X-187300Y76200D03*
X-212700Y101600D03*
X-187300Y101600D03*
D15*
X85400Y-460000D02*
X85400Y-476000D01*
X85400Y-460000D02*
X92400Y-460000D01*
X92400Y-476000D01*
X85400Y-476000D01*
X85400Y-473150D02*
X92400Y-473150D01*
X92400Y-470300D02*
X85400Y-470300D01*
X85400Y-467450D02*
X92400Y-467450D01*
X92400Y-464600D02*
X85400Y-464600D01*
X85400Y-461750D02*
X92400Y-461750D01*
X85400Y-524000D02*
X85400Y-540000D01*
X85400Y-524000D02*
X92400Y-524000D01*
X92400Y-540000D01*
X85400Y-540000D01*
X85400Y-537150D02*
X92400Y-537150D01*
X92400Y-534300D02*
X85400Y-534300D01*
X85400Y-531450D02*
X92400Y-531450D01*
X92400Y-528600D02*
X85400Y-528600D01*
X85400Y-525750D02*
X92400Y-525750D01*
X60000Y-476000D02*
X60000Y-460000D01*
X67000Y-460000D01*
X67000Y-476000D01*
X60000Y-476000D01*
X60000Y-473150D02*
X67000Y-473150D01*
X67000Y-470300D02*
X60000Y-470300D01*
X60000Y-467450D02*
X67000Y-467450D01*
X67000Y-464600D02*
X60000Y-464600D01*
X60000Y-461750D02*
X67000Y-461750D01*
X60000Y-524000D02*
X60000Y-540000D01*
X60000Y-524000D02*
X67000Y-524000D01*
X67000Y-540000D01*
X60000Y-540000D01*
X60000Y-537150D02*
X67000Y-537150D01*
X67000Y-534300D02*
X60000Y-534300D01*
X60000Y-531450D02*
X67000Y-531450D01*
X67000Y-528600D02*
X60000Y-528600D01*
X60000Y-525750D02*
X67000Y-525750D01*
X34600Y-476000D02*
X34600Y-460000D01*
X41600Y-460000D01*
X41600Y-476000D01*
X34600Y-476000D01*
X34600Y-473150D02*
X41600Y-473150D01*
X41600Y-470300D02*
X34600Y-470300D01*
X34600Y-467450D02*
X41600Y-467450D01*
X41600Y-464600D02*
X34600Y-464600D01*
X34600Y-461750D02*
X41600Y-461750D01*
X34600Y-524000D02*
X34600Y-540000D01*
X34600Y-524000D02*
X41600Y-524000D01*
X41600Y-540000D01*
X34600Y-540000D01*
X34600Y-537150D02*
X41600Y-537150D01*
X41600Y-534300D02*
X34600Y-534300D01*
X34600Y-531450D02*
X41600Y-531450D01*
X41600Y-528600D02*
X34600Y-528600D01*
X34600Y-525750D02*
X41600Y-525750D01*
X9200Y-476000D02*
X9200Y-460000D01*
X16200Y-460000D01*
X16200Y-476000D01*
X9200Y-476000D01*
X9200Y-473150D02*
X16200Y-473150D01*
X16200Y-470300D02*
X9200Y-470300D01*
X9200Y-467450D02*
X16200Y-467450D01*
X16200Y-464600D02*
X9200Y-464600D01*
X9200Y-461750D02*
X16200Y-461750D01*
X9200Y-524000D02*
X9200Y-540000D01*
X9200Y-524000D02*
X16200Y-524000D01*
X16200Y-540000D01*
X9200Y-540000D01*
X9200Y-537150D02*
X16200Y-537150D01*
X16200Y-534300D02*
X9200Y-534300D01*
X9200Y-531450D02*
X16200Y-531450D01*
X16200Y-528600D02*
X9200Y-528600D01*
X9200Y-525750D02*
X16200Y-525750D01*
X-16200Y-476000D02*
X-16200Y-460000D01*
X-9200Y-460000D01*
X-9200Y-476000D01*
X-16200Y-476000D01*
X-16200Y-473150D02*
X-9200Y-473150D01*
X-9200Y-470300D02*
X-16200Y-470300D01*
X-16200Y-467450D02*
X-9200Y-467450D01*
X-9200Y-464600D02*
X-16200Y-464600D01*
X-16200Y-461750D02*
X-9200Y-461750D01*
X-16200Y-524000D02*
X-16200Y-540000D01*
X-16200Y-524000D02*
X-9200Y-524000D01*
X-9200Y-540000D01*
X-16200Y-540000D01*
X-16200Y-537150D02*
X-9200Y-537150D01*
X-9200Y-534300D02*
X-16200Y-534300D01*
X-16200Y-531450D02*
X-9200Y-531450D01*
X-9200Y-528600D02*
X-16200Y-528600D01*
X-16200Y-525750D02*
X-9200Y-525750D01*
X-41600Y-476000D02*
X-41600Y-460000D01*
X-34600Y-460000D01*
X-34600Y-476000D01*
X-41600Y-476000D01*
X-41600Y-473150D02*
X-34600Y-473150D01*
X-34600Y-470300D02*
X-41600Y-470300D01*
X-41600Y-467450D02*
X-34600Y-467450D01*
X-34600Y-464600D02*
X-41600Y-464600D01*
X-41600Y-461750D02*
X-34600Y-461750D01*
X-41600Y-524000D02*
X-41600Y-540000D01*
X-41600Y-524000D02*
X-34600Y-524000D01*
X-34600Y-540000D01*
X-41600Y-540000D01*
X-41600Y-537150D02*
X-34600Y-537150D01*
X-34600Y-534300D02*
X-41600Y-534300D01*
X-41600Y-531450D02*
X-34600Y-531450D01*
X-34600Y-528600D02*
X-41600Y-528600D01*
X-41600Y-525750D02*
X-34600Y-525750D01*
X-67000Y-476000D02*
X-67000Y-460000D01*
X-60000Y-460000D01*
X-60000Y-476000D01*
X-67000Y-476000D01*
X-67000Y-473150D02*
X-60000Y-473150D01*
X-60000Y-470300D02*
X-67000Y-470300D01*
X-67000Y-467450D02*
X-60000Y-467450D01*
X-60000Y-464600D02*
X-67000Y-464600D01*
X-67000Y-461750D02*
X-60000Y-461750D01*
X-67000Y-524000D02*
X-67000Y-540000D01*
X-67000Y-524000D02*
X-60000Y-524000D01*
X-60000Y-540000D01*
X-67000Y-540000D01*
X-67000Y-537150D02*
X-60000Y-537150D01*
X-60000Y-534300D02*
X-67000Y-534300D01*
X-67000Y-531450D02*
X-60000Y-531450D01*
X-60000Y-528600D02*
X-67000Y-528600D01*
X-67000Y-525750D02*
X-60000Y-525750D01*
X-92400Y-476000D02*
X-92400Y-460000D01*
X-85400Y-460000D01*
X-85400Y-476000D01*
X-92400Y-476000D01*
X-92400Y-473150D02*
X-85400Y-473150D01*
X-85400Y-470300D02*
X-92400Y-470300D01*
X-92400Y-467450D02*
X-85400Y-467450D01*
X-85400Y-464600D02*
X-92400Y-464600D01*
X-92400Y-461750D02*
X-85400Y-461750D01*
X-92400Y-524000D02*
X-92400Y-540000D01*
X-92400Y-524000D02*
X-85400Y-524000D01*
X-85400Y-540000D01*
X-92400Y-540000D01*
X-92400Y-537150D02*
X-85400Y-537150D01*
X-85400Y-534300D02*
X-92400Y-534300D01*
X-92400Y-531450D02*
X-85400Y-531450D01*
X-85400Y-528600D02*
X-92400Y-528600D01*
X-92400Y-525750D02*
X-85400Y-525750D01*
D13*
X88900Y-512700D03*
X63500Y-512700D03*
X63500Y-487300D03*
X88900Y-487300D03*
X38100Y-512700D03*
X38100Y-487300D03*
X12700Y-512700D03*
X12700Y-487300D03*
X-12700Y-487300D03*
X-12700Y-512700D03*
X-38100Y-512700D03*
X-38100Y-487300D03*
X-63500Y-487300D03*
X-63500Y-512700D03*
X-88900Y-512700D03*
X-88900Y-487300D03*
D15*
X-27300Y-720800D02*
X-11300Y-720800D01*
X-27300Y-720800D02*
X-27300Y-713800D01*
X-11300Y-713800D01*
X-11300Y-720800D01*
X-11300Y-717950D02*
X-27300Y-717950D01*
X-27300Y-715100D02*
X-11300Y-715100D01*
X36700Y-720800D02*
X52700Y-720800D01*
X36700Y-720800D02*
X36700Y-713800D01*
X52700Y-713800D01*
X52700Y-720800D01*
X52700Y-717950D02*
X36700Y-717950D01*
X36700Y-715100D02*
X52700Y-715100D01*
X-11300Y-746200D02*
X-27300Y-746200D01*
X-27300Y-739200D01*
X-11300Y-739200D01*
X-11300Y-746200D01*
X-11300Y-743350D02*
X-27300Y-743350D01*
X-27300Y-740500D02*
X-11300Y-740500D01*
X36700Y-746200D02*
X52700Y-746200D01*
X36700Y-746200D02*
X36700Y-739200D01*
X52700Y-739200D01*
X52700Y-746200D01*
X52700Y-743350D02*
X36700Y-743350D01*
X36700Y-740500D02*
X52700Y-740500D01*
D13*
X25400Y-717300D03*
X0Y-717300D03*
X25400Y-742700D03*
X0Y-742700D03*
D16*
X135005Y-469995D02*
X135005Y-462005D01*
X144995Y-462005D01*
X144995Y-469995D01*
X135005Y-469995D01*
X135005Y-490005D02*
X135005Y-497995D01*
X135005Y-490005D02*
X144995Y-490005D01*
X144995Y-497995D01*
X135005Y-497995D01*
X230005Y-54995D02*
X230005Y-47005D01*
X239995Y-47005D01*
X239995Y-54995D01*
X230005Y-54995D01*
X230005Y-75005D02*
X230005Y-82995D01*
X230005Y-75005D02*
X239995Y-75005D01*
X239995Y-82995D01*
X230005Y-82995D01*
X-239995Y65005D02*
X-239995Y72995D01*
X-230005Y72995D01*
X-230005Y65005D01*
X-239995Y65005D01*
X-239995Y44995D02*
X-239995Y37005D01*
X-239995Y44995D02*
X-230005Y44995D01*
X-230005Y37005D01*
X-239995Y37005D01*
M02*
