M48
;GenerationSoftware,Autodesk,EAGLE,9.6.2*%
;CreationDate,2023-07-04T13:23:13Z*%
FMAT,2
ICI,OFF
METRIC,TZ,000.000
T15C0.300
T14C0.350
T13C0.500
T12C0.700
T11C0.800
T10C0.850
T9C0.914
T8C1.000
T7C1.100
T6C1.200
T5C1.500
T4C2.200
T3C2.600
T2C2.700
T1C4.400
%
G90
M71
T1
X-43000Y-54000
X-47000Y43000
X43000Y-54000
X47000Y43000
T2
X-13804Y-48882
X-10204Y-55118
X10204Y-55118
X13804Y-48882
T3
X-100Y-70200
T4
X-20575Y-49154
X-13825Y-60846
X13825Y-60846
X20575Y-49154
T5
X11200Y-70200
X-11400Y-70200
T6
X44460Y50000
X47000Y50000
X49540Y50000
X-48270Y50000
X-45730Y50000
T7
X-64730Y39810
X-67270Y39810
X-67270Y37270
X-64730Y37270
X-64730Y34730
X-37270Y33460
X-34730Y36000
X-37270Y36000
X-34730Y38540
X-37270Y38540
X-34730Y41080
X-37270Y41080
X-34730Y43620
X-37270Y43620
X-34730Y48700
X-34730Y46160
X-37270Y46160
X-37270Y48700
X-34730Y-12700
X-37270Y-12700
X-34730Y-10160
X-37270Y-10160
X-34730Y-7620
X-3810Y-4730
X-37270Y-7620
X-34730Y-5080
X-37270Y-5080
X-34730Y-2540
X-3810Y-7270
X-8890Y-4730
X-6350Y-4730
X-6350Y-7270
X-37270Y-2540
X-34730Y0
X-8890Y-7270
X-5080Y40270
X-5080Y37730
X-37270Y0
X-34730Y2540
X-37270Y2540
X-34730Y5080
X-37270Y5080
X-34730Y7620
X-37270Y7620
X-34730Y12700
X-34730Y10160
X-37270Y10160
X-37270Y12700
X-34730Y-48700
X-37270Y-48700
X-34730Y-46160
X-37270Y-46160
X-34730Y-43620
X-2540Y37730
X-2540Y40270
X-37270Y-43620
X0Y37730
X0Y40270
X5080Y37730
X2540Y37730
X34730Y-30920
X-67270Y34730
X-67270Y32190
X-64730Y32190
X-67270Y29650
X-64730Y29650
X-67270Y24570
X-67270Y27110
X-64730Y27110
X-64730Y24570
X-67270Y11430
X2540Y40270
X-34730Y-41080
X-37270Y-41080
X5080Y40270
X-34730Y-38540
X-37270Y-38540
X-34730Y-36000
X-37270Y-36000
X-34730Y-33460
X-37270Y-33460
X-34730Y-30920
X-37270Y-30920
X-34730Y-28380
X-37270Y-28380
X-34730Y-23300
X-34730Y-25840
X-37270Y-25840
X-37270Y-23300
X34730Y-23300
X37270Y-23300
X34730Y-25840
X37270Y-25840
X34730Y-28380
X37270Y-28380
X37270Y-30920
X34730Y-33460
X37270Y-33460
X34730Y-36000
X37270Y-36000
X34730Y-38540
X37270Y-38540
X34730Y-41080
X37270Y-41080
X34730Y-43620
X37270Y-43620
X34730Y-48700
X34730Y-46160
X37270Y-46160
X37270Y-48700
X34730Y12700
X37270Y12700
X34730Y10160
X37270Y10160
X34730Y7620
X37270Y7620
X34730Y5080
X37270Y5080
X34730Y2540
X37270Y2540
X34730Y0
X37270Y0
X34730Y-2540
X37270Y-2540
X34730Y-5080
X37270Y-5080
X34730Y-7620
X37270Y-7620
X34730Y-12700
X34730Y-10160
X37270Y-10160
X37270Y-12700
X34730Y48700
X37270Y48700
X34730Y46160
X37270Y46160
X34730Y43620
X37270Y43620
X34730Y41080
X-64730Y11430
X-67270Y8890
X-64730Y8890
X-67270Y6350
X-64730Y6350
X-64730Y3810
X-67270Y3810
X-67270Y1270
X-64730Y1270
X-64730Y-1270
X-67270Y-1270
X-67270Y-3810
X-64730Y-3810
X-67270Y-6350
X-64730Y-6350
X-67270Y-11430
X-67270Y-8890
X-64730Y-8890
X-64730Y-11430
X-67270Y-24570
X-64730Y-24570
X-67270Y-27110
X-64730Y-27110
X-67270Y-29650
X-64730Y-29650
X-64730Y-32190
X-67270Y-32190
X-67270Y-34730
X-64730Y-34730
X-64730Y-37270
X-67270Y-37270
X-67270Y-39810
X-64730Y-39810
X-67270Y-42350
X-64730Y-42350
X-67270Y-47430
X-67270Y-44890
X-64730Y-44890
X-64730Y-47430
X67270Y-47430
X64730Y-47430
X67270Y-44890
X64730Y-44890
X67270Y-42350
X64730Y-42350
X64730Y-39810
X67270Y-39810
X67270Y-37270
X64730Y-37270
X64730Y-34730
X67270Y-34730
X67270Y-32190
X64730Y-32190
X67270Y-29650
X64730Y-29650
X67270Y-24570
X67270Y-27110
X64730Y-27110
X64730Y-24570
X1270Y-4730
X67270Y24570
X64730Y24570
X67270Y27110
X64730Y27110
X67270Y29650
X64730Y29650
X64730Y32190
X67270Y32190
X67270Y34730
X37270Y41080
X34730Y38540
X37270Y38540
X34730Y36000
X37270Y36000
X64730Y34730
X34730Y33460
X37270Y33460
X34730Y30920
X37270Y30920
X34730Y28380
X37270Y28380
X34730Y23300
X34730Y25840
X64730Y37270
X67270Y37270
X67270Y39810
X64730Y39810
X67270Y42350
X64730Y42350
X67270Y47430
X37270Y25840
X67270Y44890
X64730Y44890
X37270Y23300
X8890Y-4730
X8890Y-7270
X6350Y-7270
X6350Y-4730
X3810Y-4730
X3810Y-7270
X1270Y-7270
X-67270Y44890
X-64730Y47430
X-67270Y47430
X63770Y-10160
X63770Y-7620
X61230Y-7620
X61230Y-10160
X63770Y-5080
X61230Y-5080
X63770Y-2540
X61230Y-2540
X61230Y0
X63770Y0
X63770Y2540
X61230Y2540
X61230Y5080
X63770Y5080
X63770Y7620
X61230Y7620
X63770Y10160
X61230Y10160
X-1270Y-4730
X-1270Y-7270
X64730Y47430
X-34730Y23300
X-37270Y23300
X-34730Y25840
X-37270Y25840
X-34730Y28380
X-37270Y28380
X-34730Y30920
X-37270Y30920
X-34730Y33460
X-64730Y44890
X-67270Y42350
X-64730Y42350
T8
X-13150Y-40000
X-10610Y-40000
X-18500Y-2000
X-21750Y-4250
X-2540Y-40000
X-21700Y6300
X-28650Y56000
X-31190Y56000
X-33730Y56000
X-36270Y56000
X82000Y16850
X-38810Y56000
X-41350Y56000
X-43890Y56000
X10760Y-40000
X13300Y-40000
X15840Y-40000
X0Y-40000
X2540Y-40000
X82000Y19390
X-15690Y-40000
X82000Y14310
X82000Y11770
X82000Y9230
X82000Y6690
X82000Y4150
X82000Y1610
X82000Y-1610
X82000Y-4150
X82000Y-6690
X82000Y-9230
X82000Y-11770
X82000Y-14310
X82000Y-16850
X82000Y-19390
X-82000Y-19390
X-82000Y-16850
X-82000Y-14310
X-82000Y-11770
X-82000Y-9230
X-82000Y-6690
X-82000Y-4150
X-82000Y-1610
X-82000Y1610
X-82000Y4150
X-82000Y6690
X-82000Y9230
X-82000Y11770
X-82000Y14310
X-82000Y16850
X-82000Y19390
X-26110Y56000
T9
X7080Y57230
X7080Y59770
X4540Y57230
X4540Y59770
X2000Y59770
X-13370Y64900
X-10830Y64900
X2000Y57230
X-540Y57230
X-540Y59770
X-3080Y57230
X-3080Y59770
T10
X49230Y-10625
X51770Y8425
X49230Y7155
X51770Y5885
X49230Y4615
X51770Y3345
X49230Y2075
X51770Y805
X49230Y-465
X51770Y-1735
X49230Y-3005
X51770Y-4275
X49230Y-5545
X51770Y-6815
X49230Y-8085
X51770Y-9355
T11
X-76261Y-23695
X-78648Y24564
X-75827Y24889
X-77779Y26951
X-74958Y27276
X-76911Y29338
X-74089Y29662
X-76042Y31724
X-73221Y32049
X-75173Y34111
X-72352Y34436
X72786Y33243
X75607Y32918
X73655Y30856
X76476Y30531
X74524Y28469
X77345Y28144
X75393Y26082
X78214Y25757
X76261Y23695
X78648Y-24564
X75827Y-24889
X77779Y-26951
X74958Y-27276
X18460Y53300
X21000Y53300
X23540Y53300
X18460Y55840
X21000Y55840
X23540Y55840
X18460Y60920
X23540Y60920
X76911Y-29338
X74089Y-29662
X76042Y-31724
X73221Y-32049
X75173Y-34111
X72352Y-34436
X-74739Y-35305
X-72786Y-33243
X-75607Y-32918
X74739Y35305
X-76476Y-30531
X-74524Y-28469
X-77345Y-28144
X-75393Y-26082
X-78214Y-25757
X-73655Y-30856
T12
X23900Y-30900
X24800Y-36300
X24000Y-37400
X-42000Y37000
X-14500Y18000
X-41000Y0
X18000Y-34000
X22290Y-35910
X22290Y-12448
X-8000Y-12000
X4950Y-32200
X0Y-10767
X-5092Y-10767
X-41500Y-38500
X-21700Y40500
X28000Y38352
X-41300Y-2600
X29000Y3000
X41500Y-34700
X-51000Y21000
X-22923Y31258
X-41000Y-40500
X41000Y49000
X41000Y47500
X41000Y46000
X39500Y47500
X40000Y50000
X38000Y50000
X36000Y50000
X34000Y50000
X32000Y50000
X31000Y49000
X31000Y47500
X32500Y47500
X31000Y46000
X41000Y-23000
X41000Y-24500
X41000Y-26000
X39500Y-24500
X40000Y-22000
X38000Y-22000
X36000Y-22000
X34000Y-22000
X32000Y-22000
X31000Y-23000
X31000Y-24500
X32500Y-24500
X31000Y-26000
X-41000Y-49000
X-41000Y-47500
X-41000Y-46000
X-39500Y-47500
X-40000Y-50000
X-38000Y-50000
X-36000Y-50000
X-34000Y-50000
X-32000Y-50000
X-31000Y-49000
X-32500Y-47500
X-31000Y-46000
X-41000Y-13000
X-41000Y-11500
X-41000Y-10000
X-39500Y-11500
X-40000Y-14000
X-38000Y-14000
X-36000Y-14000
X-34000Y-14000
X-32000Y-14000
X-31000Y-13000
X-31000Y-11500
X-41000Y34000
X-32500Y-11500
X-31000Y-10000
X-41000Y23000
X-41000Y24500
X-41000Y26000
X-39500Y24500
X-40000Y22000
X-38000Y22000
X-36000Y22000
X-34000Y22000
X-32000Y22000
X-31000Y23000
X-31000Y24500
X-32500Y24500
X-31000Y26000
X9200Y26300
X9200Y24800
X9200Y23300
X7700Y23300
X7700Y24800
X7700Y26300
X0Y-2800
X41000Y43500
X41000Y42000
X41000Y40500
X39500Y42500
X38000Y42500
X34000Y42500
X32500Y42500
X31000Y43500
X31000Y42000
X31000Y40500
X41000Y-28500
X41000Y-30000
X41000Y-31500
X39500Y-29500
X38000Y-29500
X34000Y-29500
X32500Y-29500
X31000Y-28500
X31000Y-30000
X31000Y-31500
X-41000Y-43500
X-41000Y-42000
X-39500Y-42500
X-38000Y-42500
X-34000Y-42500
X-32500Y-42500
X-31000Y-42000
X-41000Y-7500
X-41000Y-6000
X-41000Y-4500
X-39500Y-6500
X-38000Y-6500
X-34000Y-6500
X-32500Y-6500
X-31000Y-7500
X-31000Y-6000
X-31000Y-4500
X-41000Y28500
X-41000Y30000
X-41000Y31500
X-39500Y29500
X-38000Y29500
X-34000Y29500
X-32500Y29500
X-31000Y28500
X-31000Y30000
X-31000Y31500
X14500Y46000
X16500Y46000
X18500Y46000
X18500Y44000
X16500Y44000
X14500Y44000
X18500Y20500
X16500Y20500
X14500Y20500
X14500Y22500
X16500Y22500
X18500Y22500
X18500Y24500
X16500Y24500
X14500Y24500
X14500Y26500
X16500Y26500
X18500Y26500
X9200Y21800
X9200Y20300
X7700Y21800
X7700Y20300
X-1400Y-28000
X-27500Y-35500
X31000Y-33485
X-19000Y-28500
X-17500Y43500
X-29878Y34622
X-28500Y-2000
X30000Y38515
X31000Y3000
X-19000Y30062
X-18400Y5400
X-15700Y36100
X-7800Y-28000
X-41500Y-35500
X41070Y35660
X5000Y-25400
X5000Y-26700
X6300Y-26300
X41500Y-36900
X24850Y-30100
T13
X22750Y38900
T14
X-26650Y10500
X2000Y-51000
X800Y-46400
X-1000Y-49000
X-1000Y-51000
X36500Y58100
X35600Y58100
X34600Y58100
X32800Y58900
X32800Y60400
X-73635Y18635
X-62500Y-18000
X-65500Y-18000
X-56500Y-19000
X-68000Y-17000
X73500Y-11000
X73000Y-12500
X70998Y26000
X72000Y22500
X73470Y9500
X75272Y13500
X-64800Y19750
X6350Y6500
X35600Y61300
X36500Y61300
X-24000Y11500
X8900Y7500
X-5500Y-62500
X-63202Y-41175
X700Y-57350
X-72500Y20000
X-60500Y-17152
X1500Y35000
X-71500Y-14152
X69400Y-13400
X73200Y-50
X72000Y-25500
X76000Y13000
X75500Y7500
X16000Y-2500
X47000Y57000
X47000Y62000
X-4000Y27000
X-8000Y27000
X-9000Y26000
X-3000Y26000
X-1500Y-63300
X2600Y-63000
X6400Y-63800
X-4500Y-57500
X-2000Y-65000
X5000Y-65000
X21000Y27000
X5000Y26000
X-5000Y-17000
X-2500Y44500
X0Y44500
X2500Y44500
X54650Y-6650
X53700Y-11000
X27100Y-22750
X8950Y-20750
X26652Y-13450
X6350Y-13450
X-69000Y49000
X-61850Y41500
X-78500Y1500
X-71500Y2000
X-70500Y11350
X-74500Y-22000
X-71750Y-22750
X-79000Y-28500
X61000Y-39500
X67385Y6185
X62250Y30600
X66950Y-2550
X-69000Y40500
X-62300Y40700
X-63000Y41375
X-78402Y-22000
X-69000Y-5500
X-72500Y-3000
X-71152Y19000
X-73265Y17235
X-63000Y-5500
X-73000Y-4500
X-69000Y-41000
X-70500Y-43000
X-64500Y-17000
X-67000Y-17000
X-61500Y-42500
X69000Y-31000
X68500Y-11000
X75000Y-6000
X65500Y-30498
X63500Y-30500
X62500Y-31000
X66000Y-17500
X73550Y-14150
X65100Y14150
X68500Y43500
X74000Y13000
X65600Y12400
X70800Y39350
X70000Y8500
X65100Y13252
X60000Y41500
X74800Y11600
X73500Y22500
X-78500Y-500
X-79250Y2300
X-78500Y500
X-79600Y-27300
X73500Y-38500
X71000Y-41500
X63000Y-41000
X69000Y10500
X70000Y31000
X68800Y8200
X68500Y31000
X69485Y6485
X63026Y31026
X23329Y25300
X26950Y25300
X-26250Y-27700
X-26900Y8600
X26800Y-9100
X25000Y26900
X26950Y26900
X-26400Y-19000
X-26650Y9500
X26800Y-9900
X24000Y26100
X26502Y26100
X15500Y13000
X15500Y4500
X-4000Y35500
X0Y-20750
X-10500Y-19500
X6000Y44500
X34600Y61300
X-17400Y-20500
X-16600Y-20600
T15
X66950Y-7600
X-14500Y29200
X53600Y-5200
X-15300Y300
X-13700Y300
X-17300Y-25200
X-15600Y-25200
X-16500Y-26800
X-16500Y-25200
X-16500Y-26000
X-17300Y-26000
X-15600Y-26000
X6400Y29300
X-16030Y59130
X-24500Y-49500
X-24500Y-19900
X-11100Y-18800
X-8000Y13000
X3150Y-23750
X60500Y12500
X47500Y12500
X11000Y-24000
X-12800Y-23800
X-18500Y59500
X-41135Y4364
X-14500Y28300
X40900Y32400
X9800Y44400
X12000Y3000
X-41000Y-31000
X-41000Y42000
X12300Y-23300
X12000Y-5000
X58050Y-7600
X40450Y-5050
X12000Y35500
X-29300Y-29246
X-31100Y1600
X31252Y-35748
X11000Y26000
X11000Y-1000
X-31500Y-36000
X-31200Y36000
X11000Y-21900
X31500Y-1000
X11000Y36500
X30300Y36000
X53500Y-4000
X41000Y-40000
X33500Y69700
X34500Y69700
X35500Y69700
X35500Y70700
X35500Y71700
X33500Y70700
X33500Y71700
X34500Y70700
X34500Y71700
X-16500Y-37500
X-16500Y-36500
X-15500Y-37500
X-15500Y-36500
X31350Y5100
X31350Y6350
X31350Y7600
X32500Y6350
X39500Y6350
X40650Y5100
X-1200Y10500
X-3600Y13000
X40650Y6350
X40650Y7650
X23500Y-14100
X4000Y-14000
X-22700Y68100
X-23900Y-25100
X-5000Y-16000
X28000Y-19000
X-1600Y-16000
X-23900Y-16100
X-63000Y18000
X12750Y68450
X2500Y10500
X31350Y10150
X-25100Y-16100
X-5500Y-15000
X25000Y-9100
X25000Y-19000
X-3100Y-15000
X32500Y11500
X-25700Y43900
X-24000Y8600
X-23400Y-14700
X31350Y11500
X31350Y12700
X39500Y11500
X40700Y10200
X-25750Y-14000
X24000Y-9900
X24200Y-20000
X-4600Y-14000
X-23000Y-14000
X-23000Y9000
X16600Y47600
X23148Y47552
X9500Y51200
X-20750Y-31250
X-19200Y-31300
X-22700Y17500
X-19200Y17500
X40700Y12700
X40700Y11500
X-20600Y59100
X57750Y-2550
X-43000Y39800
X-30400Y-29246
X44000Y-38000
X-31000Y5000
X31000Y-41000
X-31200Y-30500
X13000Y4000
X-31000Y41000
X13000Y-24000
X13000Y-6000
X31000Y-5000
X12600Y34300
X31000Y31000
X13000Y44000
X58050Y-10150
X66950Y-1200
X66950Y-9350
X57700Y-850
X1000Y13000
X66950Y-3900
X41000Y0
X-14500Y300
X-15300Y29200
X-13700Y28300
X-13700Y29200
X-14500Y30000
M30