G04 EAGLE Gerber RS-274X export*
G75*
%MOMM*%
%FSLAX34Y34*%
%LPD*%
%INSilkscreen Bottom*%
%IPPOS*%
%AMOC8*
5,1,8,0,0,1.08239X$1,22.5*%
G01*
%ADD10C,0.101600*%
%ADD11C,0.177800*%
%ADD12C,0.152400*%
%ADD13C,0.100000*%
%ADD14C,0.076200*%
%ADD15C,0.050000*%
%ADD16C,0.250000*%
%ADD17C,0.200000*%

G36*
X-257933Y542514D02*
X-257933Y542514D01*
X-257864Y542520D01*
X-257836Y542534D01*
X-257805Y542540D01*
X-257748Y542579D01*
X-257687Y542611D01*
X-257667Y542635D01*
X-257641Y542653D01*
X-257604Y542711D01*
X-257560Y542764D01*
X-257551Y542794D01*
X-257534Y542820D01*
X-257523Y542888D01*
X-257503Y542954D01*
X-257506Y542985D01*
X-257501Y543017D01*
X-257517Y543083D01*
X-257524Y543152D01*
X-257541Y543184D01*
X-257547Y543210D01*
X-257572Y543243D01*
X-257601Y543300D01*
X-260601Y547300D01*
X-260636Y547331D01*
X-260660Y547364D01*
X-260685Y547379D01*
X-260714Y547409D01*
X-260733Y547418D01*
X-260749Y547432D01*
X-260808Y547452D01*
X-260831Y547466D01*
X-260851Y547469D01*
X-260896Y547488D01*
X-260917Y547489D01*
X-260938Y547495D01*
X-260986Y547492D01*
X-260996Y547493D01*
X-261005Y547493D01*
X-261023Y547489D01*
X-261095Y547490D01*
X-261115Y547482D01*
X-261136Y547480D01*
X-261180Y547458D01*
X-261199Y547454D01*
X-261224Y547437D01*
X-261279Y547414D01*
X-261296Y547398D01*
X-261313Y547389D01*
X-261338Y547358D01*
X-261363Y547341D01*
X-261375Y547323D01*
X-261399Y547300D01*
X-264399Y543300D01*
X-264429Y543237D01*
X-264466Y543180D01*
X-264471Y543148D01*
X-264485Y543120D01*
X-264488Y543051D01*
X-264499Y542983D01*
X-264492Y542953D01*
X-264493Y542921D01*
X-264469Y542857D01*
X-264453Y542790D01*
X-264434Y542765D01*
X-264423Y542735D01*
X-264376Y542685D01*
X-264335Y542630D01*
X-264308Y542614D01*
X-264286Y542591D01*
X-264223Y542563D01*
X-264164Y542528D01*
X-264129Y542523D01*
X-264104Y542512D01*
X-264062Y542511D01*
X-264000Y542501D01*
X-258000Y542501D01*
X-257933Y542514D01*
G37*
G36*
X54067Y339014D02*
X54067Y339014D01*
X54136Y339020D01*
X54164Y339034D01*
X54195Y339040D01*
X54252Y339079D01*
X54313Y339111D01*
X54333Y339135D01*
X54359Y339153D01*
X54396Y339211D01*
X54440Y339264D01*
X54449Y339294D01*
X54466Y339320D01*
X54477Y339388D01*
X54497Y339454D01*
X54494Y339485D01*
X54499Y339517D01*
X54483Y339583D01*
X54476Y339652D01*
X54459Y339684D01*
X54453Y339710D01*
X54428Y339743D01*
X54399Y339800D01*
X51399Y343800D01*
X51364Y343831D01*
X51340Y343864D01*
X51315Y343879D01*
X51286Y343909D01*
X51267Y343918D01*
X51251Y343932D01*
X51192Y343952D01*
X51169Y343966D01*
X51149Y343969D01*
X51104Y343988D01*
X51083Y343989D01*
X51062Y343995D01*
X51014Y343992D01*
X51005Y343993D01*
X50996Y343993D01*
X50977Y343989D01*
X50905Y343990D01*
X50885Y343982D01*
X50864Y343980D01*
X50820Y343958D01*
X50801Y343954D01*
X50776Y343937D01*
X50721Y343914D01*
X50704Y343898D01*
X50687Y343889D01*
X50662Y343858D01*
X50637Y343841D01*
X50625Y343823D01*
X50601Y343800D01*
X47601Y339800D01*
X47571Y339737D01*
X47534Y339680D01*
X47529Y339648D01*
X47515Y339620D01*
X47512Y339551D01*
X47501Y339483D01*
X47508Y339453D01*
X47507Y339421D01*
X47531Y339357D01*
X47547Y339290D01*
X47566Y339265D01*
X47577Y339235D01*
X47624Y339185D01*
X47665Y339130D01*
X47692Y339114D01*
X47714Y339091D01*
X47777Y339063D01*
X47836Y339028D01*
X47871Y339023D01*
X47896Y339012D01*
X47938Y339011D01*
X48000Y339001D01*
X54000Y339001D01*
X54067Y339014D01*
G37*
G36*
X-410417Y-236483D02*
X-410417Y-236483D01*
X-410348Y-236476D01*
X-410316Y-236459D01*
X-410290Y-236453D01*
X-410257Y-236428D01*
X-410200Y-236399D01*
X-406200Y-233399D01*
X-406175Y-233371D01*
X-406147Y-233352D01*
X-406128Y-233321D01*
X-406091Y-233286D01*
X-406082Y-233267D01*
X-406068Y-233251D01*
X-406052Y-233203D01*
X-406040Y-233184D01*
X-406036Y-233160D01*
X-406012Y-233104D01*
X-406011Y-233083D01*
X-406005Y-233062D01*
X-406009Y-233001D01*
X-406007Y-232988D01*
X-406011Y-232973D01*
X-406010Y-232905D01*
X-406018Y-232885D01*
X-406020Y-232864D01*
X-406051Y-232803D01*
X-406053Y-232795D01*
X-406059Y-232787D01*
X-406086Y-232721D01*
X-406102Y-232704D01*
X-406111Y-232687D01*
X-406145Y-232659D01*
X-406200Y-232601D01*
X-410200Y-229601D01*
X-410263Y-229571D01*
X-410320Y-229534D01*
X-410352Y-229529D01*
X-410380Y-229515D01*
X-410449Y-229512D01*
X-410517Y-229501D01*
X-410547Y-229508D01*
X-410579Y-229507D01*
X-410643Y-229531D01*
X-410710Y-229547D01*
X-410735Y-229566D01*
X-410765Y-229577D01*
X-410815Y-229624D01*
X-410870Y-229665D01*
X-410886Y-229692D01*
X-410909Y-229714D01*
X-410937Y-229777D01*
X-410972Y-229836D01*
X-410977Y-229871D01*
X-410988Y-229896D01*
X-410989Y-229938D01*
X-410999Y-230000D01*
X-410999Y-236000D01*
X-410986Y-236067D01*
X-410980Y-236136D01*
X-410966Y-236164D01*
X-410960Y-236195D01*
X-410921Y-236252D01*
X-410889Y-236313D01*
X-410865Y-236333D01*
X-410847Y-236359D01*
X-410789Y-236396D01*
X-410736Y-236440D01*
X-410706Y-236449D01*
X-410680Y-236466D01*
X-410612Y-236477D01*
X-410546Y-236497D01*
X-410515Y-236494D01*
X-410483Y-236499D01*
X-410417Y-236483D01*
G37*
G36*
X-410417Y483517D02*
X-410417Y483517D01*
X-410348Y483524D01*
X-410316Y483541D01*
X-410290Y483547D01*
X-410257Y483572D01*
X-410200Y483601D01*
X-406200Y486601D01*
X-406175Y486629D01*
X-406147Y486648D01*
X-406128Y486679D01*
X-406091Y486714D01*
X-406082Y486733D01*
X-406068Y486749D01*
X-406052Y486797D01*
X-406040Y486816D01*
X-406036Y486840D01*
X-406012Y486896D01*
X-406011Y486917D01*
X-406005Y486938D01*
X-406009Y486999D01*
X-406007Y487012D01*
X-406011Y487027D01*
X-406010Y487095D01*
X-406018Y487115D01*
X-406020Y487136D01*
X-406051Y487197D01*
X-406053Y487205D01*
X-406059Y487213D01*
X-406086Y487279D01*
X-406102Y487296D01*
X-406111Y487313D01*
X-406145Y487341D01*
X-406200Y487399D01*
X-410200Y490399D01*
X-410263Y490429D01*
X-410320Y490466D01*
X-410352Y490471D01*
X-410380Y490485D01*
X-410449Y490488D01*
X-410517Y490499D01*
X-410547Y490492D01*
X-410579Y490493D01*
X-410643Y490469D01*
X-410710Y490453D01*
X-410735Y490434D01*
X-410765Y490423D01*
X-410815Y490376D01*
X-410870Y490335D01*
X-410886Y490308D01*
X-410909Y490286D01*
X-410937Y490223D01*
X-410972Y490164D01*
X-410977Y490129D01*
X-410988Y490104D01*
X-410989Y490062D01*
X-410999Y490000D01*
X-410999Y484000D01*
X-410986Y483933D01*
X-410980Y483864D01*
X-410966Y483836D01*
X-410960Y483805D01*
X-410921Y483748D01*
X-410889Y483687D01*
X-410865Y483667D01*
X-410847Y483641D01*
X-410789Y483604D01*
X-410736Y483560D01*
X-410706Y483551D01*
X-410680Y483534D01*
X-410612Y483523D01*
X-410546Y483503D01*
X-410515Y483506D01*
X-410483Y483501D01*
X-410417Y483517D01*
G37*
G36*
X-854417Y-197483D02*
X-854417Y-197483D01*
X-854348Y-197476D01*
X-854316Y-197459D01*
X-854290Y-197453D01*
X-854257Y-197428D01*
X-854200Y-197399D01*
X-850200Y-194399D01*
X-850175Y-194371D01*
X-850147Y-194352D01*
X-850128Y-194321D01*
X-850091Y-194286D01*
X-850082Y-194267D01*
X-850068Y-194251D01*
X-850052Y-194203D01*
X-850040Y-194184D01*
X-850036Y-194160D01*
X-850012Y-194104D01*
X-850011Y-194083D01*
X-850005Y-194062D01*
X-850009Y-194001D01*
X-850007Y-193988D01*
X-850011Y-193973D01*
X-850010Y-193905D01*
X-850018Y-193885D01*
X-850020Y-193864D01*
X-850051Y-193803D01*
X-850053Y-193795D01*
X-850059Y-193787D01*
X-850086Y-193721D01*
X-850102Y-193704D01*
X-850111Y-193687D01*
X-850145Y-193659D01*
X-850200Y-193601D01*
X-854200Y-190601D01*
X-854263Y-190571D01*
X-854320Y-190534D01*
X-854352Y-190529D01*
X-854380Y-190515D01*
X-854449Y-190512D01*
X-854517Y-190501D01*
X-854547Y-190508D01*
X-854579Y-190507D01*
X-854643Y-190531D01*
X-854710Y-190547D01*
X-854735Y-190566D01*
X-854765Y-190577D01*
X-854815Y-190624D01*
X-854870Y-190665D01*
X-854886Y-190692D01*
X-854909Y-190714D01*
X-854937Y-190777D01*
X-854972Y-190836D01*
X-854977Y-190871D01*
X-854988Y-190896D01*
X-854989Y-190938D01*
X-854999Y-191000D01*
X-854999Y-197000D01*
X-854986Y-197067D01*
X-854980Y-197136D01*
X-854966Y-197164D01*
X-854960Y-197195D01*
X-854921Y-197252D01*
X-854889Y-197313D01*
X-854865Y-197333D01*
X-854847Y-197359D01*
X-854789Y-197396D01*
X-854736Y-197440D01*
X-854706Y-197449D01*
X-854680Y-197466D01*
X-854612Y-197477D01*
X-854546Y-197497D01*
X-854515Y-197494D01*
X-854483Y-197499D01*
X-854417Y-197483D01*
G37*
G36*
X-854417Y12517D02*
X-854417Y12517D01*
X-854348Y12524D01*
X-854316Y12541D01*
X-854290Y12547D01*
X-854257Y12572D01*
X-854200Y12601D01*
X-850200Y15601D01*
X-850175Y15629D01*
X-850147Y15648D01*
X-850128Y15679D01*
X-850091Y15714D01*
X-850082Y15733D01*
X-850068Y15749D01*
X-850052Y15797D01*
X-850040Y15816D01*
X-850036Y15840D01*
X-850012Y15896D01*
X-850011Y15917D01*
X-850005Y15938D01*
X-850009Y15999D01*
X-850007Y16012D01*
X-850011Y16027D01*
X-850010Y16095D01*
X-850018Y16115D01*
X-850020Y16136D01*
X-850051Y16197D01*
X-850053Y16205D01*
X-850059Y16213D01*
X-850086Y16279D01*
X-850102Y16296D01*
X-850111Y16313D01*
X-850145Y16341D01*
X-850200Y16399D01*
X-854200Y19399D01*
X-854263Y19429D01*
X-854320Y19466D01*
X-854352Y19471D01*
X-854380Y19485D01*
X-854449Y19488D01*
X-854517Y19499D01*
X-854547Y19492D01*
X-854579Y19493D01*
X-854643Y19469D01*
X-854710Y19453D01*
X-854735Y19434D01*
X-854765Y19423D01*
X-854815Y19376D01*
X-854870Y19335D01*
X-854886Y19308D01*
X-854909Y19286D01*
X-854937Y19223D01*
X-854972Y19164D01*
X-854977Y19129D01*
X-854988Y19104D01*
X-854989Y19062D01*
X-854999Y19000D01*
X-854999Y13000D01*
X-854986Y12933D01*
X-854980Y12864D01*
X-854966Y12836D01*
X-854960Y12805D01*
X-854921Y12748D01*
X-854889Y12687D01*
X-854865Y12667D01*
X-854847Y12641D01*
X-854789Y12604D01*
X-854736Y12560D01*
X-854706Y12551D01*
X-854680Y12534D01*
X-854612Y12523D01*
X-854546Y12503D01*
X-854515Y12506D01*
X-854483Y12501D01*
X-854417Y12517D01*
G37*
G36*
X574583Y-104983D02*
X574583Y-104983D01*
X574652Y-104976D01*
X574684Y-104959D01*
X574710Y-104953D01*
X574743Y-104928D01*
X574800Y-104899D01*
X578800Y-101899D01*
X578825Y-101871D01*
X578853Y-101852D01*
X578872Y-101821D01*
X578909Y-101786D01*
X578918Y-101767D01*
X578932Y-101751D01*
X578948Y-101703D01*
X578960Y-101684D01*
X578964Y-101660D01*
X578988Y-101604D01*
X578989Y-101583D01*
X578995Y-101562D01*
X578991Y-101501D01*
X578993Y-101488D01*
X578990Y-101473D01*
X578990Y-101405D01*
X578982Y-101385D01*
X578980Y-101364D01*
X578949Y-101303D01*
X578947Y-101295D01*
X578941Y-101287D01*
X578914Y-101221D01*
X578898Y-101204D01*
X578889Y-101187D01*
X578855Y-101159D01*
X578800Y-101101D01*
X574800Y-98101D01*
X574737Y-98071D01*
X574680Y-98034D01*
X574648Y-98029D01*
X574620Y-98015D01*
X574551Y-98012D01*
X574483Y-98001D01*
X574453Y-98008D01*
X574421Y-98007D01*
X574357Y-98031D01*
X574290Y-98047D01*
X574265Y-98066D01*
X574235Y-98077D01*
X574185Y-98124D01*
X574130Y-98165D01*
X574114Y-98192D01*
X574091Y-98214D01*
X574063Y-98277D01*
X574028Y-98336D01*
X574023Y-98371D01*
X574012Y-98396D01*
X574011Y-98438D01*
X574001Y-98500D01*
X574001Y-104500D01*
X574014Y-104567D01*
X574020Y-104636D01*
X574034Y-104664D01*
X574040Y-104695D01*
X574079Y-104752D01*
X574111Y-104813D01*
X574135Y-104833D01*
X574153Y-104859D01*
X574211Y-104896D01*
X574264Y-104940D01*
X574294Y-104949D01*
X574320Y-104966D01*
X574388Y-104977D01*
X574454Y-104997D01*
X574485Y-104994D01*
X574517Y-104999D01*
X574583Y-104983D01*
G37*
G36*
X-410417Y123517D02*
X-410417Y123517D01*
X-410348Y123524D01*
X-410316Y123541D01*
X-410290Y123547D01*
X-410257Y123572D01*
X-410200Y123601D01*
X-406200Y126601D01*
X-406175Y126629D01*
X-406147Y126648D01*
X-406128Y126679D01*
X-406091Y126714D01*
X-406082Y126733D01*
X-406068Y126749D01*
X-406052Y126797D01*
X-406040Y126816D01*
X-406036Y126840D01*
X-406012Y126896D01*
X-406011Y126917D01*
X-406005Y126938D01*
X-406009Y126999D01*
X-406007Y127012D01*
X-406011Y127027D01*
X-406010Y127095D01*
X-406018Y127115D01*
X-406020Y127136D01*
X-406051Y127197D01*
X-406053Y127205D01*
X-406059Y127213D01*
X-406086Y127279D01*
X-406102Y127296D01*
X-406111Y127313D01*
X-406145Y127341D01*
X-406200Y127399D01*
X-410200Y130399D01*
X-410263Y130429D01*
X-410320Y130466D01*
X-410352Y130471D01*
X-410380Y130485D01*
X-410449Y130488D01*
X-410517Y130499D01*
X-410547Y130492D01*
X-410579Y130493D01*
X-410643Y130469D01*
X-410710Y130453D01*
X-410735Y130434D01*
X-410765Y130423D01*
X-410815Y130376D01*
X-410870Y130335D01*
X-410886Y130308D01*
X-410909Y130286D01*
X-410937Y130223D01*
X-410972Y130164D01*
X-410977Y130129D01*
X-410988Y130104D01*
X-410989Y130062D01*
X-410999Y130000D01*
X-410999Y124000D01*
X-410986Y123933D01*
X-410980Y123864D01*
X-410966Y123836D01*
X-410960Y123805D01*
X-410921Y123748D01*
X-410889Y123687D01*
X-410865Y123667D01*
X-410847Y123641D01*
X-410789Y123604D01*
X-410736Y123560D01*
X-410706Y123551D01*
X-410680Y123534D01*
X-410612Y123523D01*
X-410546Y123503D01*
X-410515Y123506D01*
X-410483Y123501D01*
X-410417Y123517D01*
G37*
G36*
X410547Y229508D02*
X410547Y229508D01*
X410579Y229507D01*
X410643Y229531D01*
X410710Y229547D01*
X410735Y229566D01*
X410765Y229577D01*
X410815Y229624D01*
X410870Y229665D01*
X410886Y229692D01*
X410909Y229714D01*
X410937Y229777D01*
X410972Y229836D01*
X410977Y229871D01*
X410988Y229896D01*
X410989Y229938D01*
X410999Y230000D01*
X410999Y236000D01*
X410998Y236004D01*
X410999Y236008D01*
X410990Y236043D01*
X410986Y236067D01*
X410980Y236136D01*
X410966Y236164D01*
X410960Y236195D01*
X410921Y236252D01*
X410889Y236313D01*
X410865Y236333D01*
X410847Y236359D01*
X410789Y236396D01*
X410736Y236440D01*
X410706Y236449D01*
X410680Y236466D01*
X410612Y236477D01*
X410546Y236497D01*
X410515Y236494D01*
X410483Y236499D01*
X410417Y236483D01*
X410348Y236476D01*
X410316Y236459D01*
X410290Y236453D01*
X410257Y236428D01*
X410200Y236399D01*
X406200Y233399D01*
X406154Y233348D01*
X406147Y233343D01*
X406142Y233335D01*
X406091Y233286D01*
X406082Y233267D01*
X406068Y233251D01*
X406046Y233184D01*
X406040Y233175D01*
X406039Y233166D01*
X406012Y233104D01*
X406011Y233083D01*
X406005Y233062D01*
X406010Y232995D01*
X406007Y232979D01*
X406010Y232965D01*
X406010Y232905D01*
X406018Y232885D01*
X406020Y232864D01*
X406047Y232811D01*
X406053Y232786D01*
X406067Y232766D01*
X406086Y232721D01*
X406102Y232704D01*
X406111Y232687D01*
X406145Y232659D01*
X406151Y232653D01*
X406171Y232625D01*
X406185Y232617D01*
X406200Y232601D01*
X410200Y229601D01*
X410263Y229571D01*
X410320Y229534D01*
X410352Y229529D01*
X410380Y229515D01*
X410449Y229512D01*
X410517Y229501D01*
X410547Y229508D01*
G37*
G36*
X854547Y190508D02*
X854547Y190508D01*
X854579Y190507D01*
X854643Y190531D01*
X854710Y190547D01*
X854735Y190566D01*
X854765Y190577D01*
X854815Y190624D01*
X854870Y190665D01*
X854886Y190692D01*
X854909Y190714D01*
X854937Y190777D01*
X854972Y190836D01*
X854977Y190871D01*
X854988Y190896D01*
X854989Y190938D01*
X854999Y191000D01*
X854999Y197000D01*
X854998Y197004D01*
X854999Y197008D01*
X854990Y197043D01*
X854986Y197067D01*
X854980Y197136D01*
X854966Y197164D01*
X854960Y197195D01*
X854921Y197252D01*
X854889Y197313D01*
X854865Y197333D01*
X854847Y197359D01*
X854789Y197396D01*
X854736Y197440D01*
X854706Y197449D01*
X854680Y197466D01*
X854612Y197477D01*
X854546Y197497D01*
X854515Y197494D01*
X854483Y197499D01*
X854417Y197483D01*
X854348Y197476D01*
X854316Y197459D01*
X854290Y197453D01*
X854257Y197428D01*
X854200Y197399D01*
X850200Y194399D01*
X850154Y194348D01*
X850147Y194343D01*
X850142Y194335D01*
X850091Y194286D01*
X850082Y194267D01*
X850068Y194251D01*
X850046Y194184D01*
X850040Y194175D01*
X850039Y194166D01*
X850012Y194104D01*
X850011Y194083D01*
X850005Y194062D01*
X850010Y193995D01*
X850007Y193979D01*
X850010Y193965D01*
X850010Y193905D01*
X850018Y193885D01*
X850020Y193864D01*
X850047Y193811D01*
X850053Y193786D01*
X850067Y193766D01*
X850086Y193721D01*
X850102Y193704D01*
X850111Y193687D01*
X850145Y193659D01*
X850151Y193653D01*
X850171Y193625D01*
X850185Y193617D01*
X850200Y193601D01*
X854200Y190601D01*
X854263Y190571D01*
X854320Y190534D01*
X854352Y190529D01*
X854380Y190515D01*
X854449Y190512D01*
X854517Y190501D01*
X854547Y190508D01*
G37*
G36*
X539547Y80508D02*
X539547Y80508D01*
X539579Y80507D01*
X539643Y80531D01*
X539710Y80547D01*
X539735Y80566D01*
X539765Y80577D01*
X539815Y80624D01*
X539870Y80665D01*
X539886Y80692D01*
X539909Y80714D01*
X539937Y80777D01*
X539972Y80836D01*
X539977Y80871D01*
X539988Y80896D01*
X539989Y80938D01*
X539999Y81000D01*
X539999Y87000D01*
X539998Y87004D01*
X539999Y87008D01*
X539990Y87043D01*
X539986Y87067D01*
X539980Y87136D01*
X539966Y87164D01*
X539960Y87195D01*
X539921Y87252D01*
X539889Y87313D01*
X539865Y87333D01*
X539847Y87359D01*
X539789Y87396D01*
X539736Y87440D01*
X539706Y87449D01*
X539680Y87466D01*
X539612Y87477D01*
X539546Y87497D01*
X539515Y87494D01*
X539483Y87499D01*
X539417Y87483D01*
X539348Y87476D01*
X539316Y87459D01*
X539290Y87453D01*
X539257Y87428D01*
X539200Y87399D01*
X535200Y84399D01*
X535154Y84348D01*
X535147Y84343D01*
X535142Y84335D01*
X535091Y84286D01*
X535082Y84267D01*
X535068Y84251D01*
X535046Y84184D01*
X535040Y84175D01*
X535039Y84166D01*
X535012Y84104D01*
X535011Y84083D01*
X535005Y84062D01*
X535010Y83995D01*
X535007Y83979D01*
X535010Y83965D01*
X535010Y83905D01*
X535018Y83885D01*
X535020Y83864D01*
X535047Y83811D01*
X535053Y83786D01*
X535067Y83766D01*
X535086Y83721D01*
X535102Y83704D01*
X535111Y83687D01*
X535145Y83659D01*
X535151Y83653D01*
X535171Y83625D01*
X535185Y83617D01*
X535200Y83601D01*
X539200Y80601D01*
X539263Y80571D01*
X539320Y80534D01*
X539352Y80529D01*
X539380Y80515D01*
X539449Y80512D01*
X539517Y80501D01*
X539547Y80508D01*
G37*
G36*
X410547Y-490492D02*
X410547Y-490492D01*
X410579Y-490493D01*
X410643Y-490469D01*
X410710Y-490453D01*
X410735Y-490434D01*
X410765Y-490423D01*
X410815Y-490376D01*
X410870Y-490335D01*
X410886Y-490308D01*
X410909Y-490286D01*
X410937Y-490223D01*
X410972Y-490164D01*
X410977Y-490129D01*
X410988Y-490104D01*
X410989Y-490062D01*
X410999Y-490000D01*
X410999Y-484000D01*
X410998Y-483996D01*
X410999Y-483992D01*
X410990Y-483957D01*
X410986Y-483933D01*
X410980Y-483864D01*
X410966Y-483836D01*
X410960Y-483805D01*
X410921Y-483748D01*
X410889Y-483687D01*
X410865Y-483667D01*
X410847Y-483641D01*
X410789Y-483604D01*
X410736Y-483560D01*
X410706Y-483551D01*
X410680Y-483534D01*
X410612Y-483523D01*
X410546Y-483503D01*
X410515Y-483506D01*
X410483Y-483501D01*
X410417Y-483517D01*
X410348Y-483524D01*
X410316Y-483541D01*
X410290Y-483547D01*
X410257Y-483572D01*
X410200Y-483601D01*
X406200Y-486601D01*
X406154Y-486653D01*
X406147Y-486657D01*
X406142Y-486665D01*
X406091Y-486714D01*
X406082Y-486733D01*
X406068Y-486749D01*
X406046Y-486816D01*
X406040Y-486825D01*
X406039Y-486834D01*
X406012Y-486896D01*
X406011Y-486917D01*
X406005Y-486938D01*
X406010Y-487005D01*
X406007Y-487021D01*
X406010Y-487035D01*
X406010Y-487095D01*
X406018Y-487115D01*
X406020Y-487136D01*
X406047Y-487189D01*
X406053Y-487214D01*
X406067Y-487234D01*
X406086Y-487279D01*
X406102Y-487296D01*
X406111Y-487313D01*
X406145Y-487341D01*
X406151Y-487347D01*
X406171Y-487375D01*
X406185Y-487383D01*
X406200Y-487399D01*
X410200Y-490399D01*
X410263Y-490429D01*
X410320Y-490466D01*
X410352Y-490471D01*
X410380Y-490485D01*
X410449Y-490488D01*
X410517Y-490499D01*
X410547Y-490492D01*
G37*
G36*
X854547Y-19492D02*
X854547Y-19492D01*
X854579Y-19493D01*
X854643Y-19469D01*
X854710Y-19453D01*
X854735Y-19434D01*
X854765Y-19423D01*
X854815Y-19376D01*
X854870Y-19335D01*
X854886Y-19308D01*
X854909Y-19286D01*
X854937Y-19223D01*
X854972Y-19164D01*
X854977Y-19129D01*
X854988Y-19104D01*
X854989Y-19062D01*
X854999Y-19000D01*
X854999Y-13000D01*
X854998Y-12996D01*
X854999Y-12992D01*
X854990Y-12957D01*
X854986Y-12933D01*
X854980Y-12864D01*
X854966Y-12836D01*
X854960Y-12805D01*
X854921Y-12748D01*
X854889Y-12687D01*
X854865Y-12667D01*
X854847Y-12641D01*
X854789Y-12604D01*
X854736Y-12560D01*
X854706Y-12551D01*
X854680Y-12534D01*
X854612Y-12523D01*
X854546Y-12503D01*
X854515Y-12506D01*
X854483Y-12501D01*
X854417Y-12517D01*
X854348Y-12524D01*
X854316Y-12541D01*
X854290Y-12547D01*
X854257Y-12572D01*
X854200Y-12601D01*
X850200Y-15601D01*
X850154Y-15653D01*
X850147Y-15657D01*
X850142Y-15665D01*
X850091Y-15714D01*
X850082Y-15733D01*
X850068Y-15749D01*
X850046Y-15816D01*
X850040Y-15825D01*
X850039Y-15834D01*
X850012Y-15896D01*
X850011Y-15917D01*
X850005Y-15938D01*
X850010Y-16005D01*
X850007Y-16021D01*
X850010Y-16035D01*
X850010Y-16095D01*
X850018Y-16115D01*
X850020Y-16136D01*
X850047Y-16189D01*
X850053Y-16214D01*
X850067Y-16234D01*
X850086Y-16279D01*
X850102Y-16296D01*
X850111Y-16313D01*
X850145Y-16341D01*
X850151Y-16347D01*
X850171Y-16375D01*
X850185Y-16383D01*
X850200Y-16399D01*
X854200Y-19399D01*
X854263Y-19429D01*
X854320Y-19466D01*
X854352Y-19471D01*
X854380Y-19485D01*
X854449Y-19488D01*
X854517Y-19499D01*
X854547Y-19492D01*
G37*
G36*
X410547Y-130492D02*
X410547Y-130492D01*
X410579Y-130493D01*
X410643Y-130469D01*
X410710Y-130453D01*
X410735Y-130434D01*
X410765Y-130423D01*
X410815Y-130376D01*
X410870Y-130335D01*
X410886Y-130308D01*
X410909Y-130286D01*
X410937Y-130223D01*
X410972Y-130164D01*
X410977Y-130129D01*
X410988Y-130104D01*
X410989Y-130062D01*
X410999Y-130000D01*
X410999Y-124000D01*
X410998Y-123996D01*
X410999Y-123992D01*
X410990Y-123957D01*
X410986Y-123933D01*
X410980Y-123864D01*
X410966Y-123836D01*
X410960Y-123805D01*
X410921Y-123748D01*
X410889Y-123687D01*
X410865Y-123667D01*
X410847Y-123641D01*
X410789Y-123604D01*
X410736Y-123560D01*
X410706Y-123551D01*
X410680Y-123534D01*
X410612Y-123523D01*
X410546Y-123503D01*
X410515Y-123506D01*
X410483Y-123501D01*
X410417Y-123517D01*
X410348Y-123524D01*
X410316Y-123541D01*
X410290Y-123547D01*
X410257Y-123572D01*
X410200Y-123601D01*
X406200Y-126601D01*
X406154Y-126653D01*
X406147Y-126657D01*
X406142Y-126665D01*
X406091Y-126714D01*
X406082Y-126733D01*
X406068Y-126749D01*
X406046Y-126816D01*
X406040Y-126825D01*
X406039Y-126834D01*
X406012Y-126896D01*
X406011Y-126917D01*
X406005Y-126938D01*
X406010Y-127005D01*
X406007Y-127021D01*
X406010Y-127035D01*
X406010Y-127095D01*
X406018Y-127115D01*
X406020Y-127136D01*
X406047Y-127189D01*
X406053Y-127214D01*
X406067Y-127234D01*
X406086Y-127279D01*
X406102Y-127296D01*
X406111Y-127313D01*
X406145Y-127341D01*
X406151Y-127347D01*
X406171Y-127375D01*
X406185Y-127383D01*
X406200Y-127399D01*
X410200Y-130399D01*
X410263Y-130429D01*
X410320Y-130466D01*
X410352Y-130471D01*
X410380Y-130485D01*
X410449Y-130488D01*
X410517Y-130499D01*
X410547Y-130492D01*
G37*
G36*
X-88984Y-13989D02*
X-88984Y-13989D01*
X-88905Y-13990D01*
X-88885Y-13982D01*
X-88864Y-13980D01*
X-88794Y-13944D01*
X-88721Y-13914D01*
X-88704Y-13898D01*
X-88687Y-13889D01*
X-88659Y-13855D01*
X-88601Y-13800D01*
X-85601Y-9800D01*
X-85571Y-9737D01*
X-85534Y-9680D01*
X-85529Y-9648D01*
X-85515Y-9620D01*
X-85512Y-9551D01*
X-85501Y-9483D01*
X-85508Y-9453D01*
X-85507Y-9421D01*
X-85531Y-9357D01*
X-85547Y-9290D01*
X-85566Y-9265D01*
X-85577Y-9235D01*
X-85624Y-9185D01*
X-85665Y-9130D01*
X-85692Y-9114D01*
X-85714Y-9091D01*
X-85777Y-9063D01*
X-85836Y-9028D01*
X-85871Y-9023D01*
X-85896Y-9012D01*
X-85938Y-9011D01*
X-86000Y-9001D01*
X-92000Y-9001D01*
X-92067Y-9014D01*
X-92136Y-9020D01*
X-92164Y-9034D01*
X-92195Y-9040D01*
X-92252Y-9079D01*
X-92313Y-9111D01*
X-92333Y-9135D01*
X-92359Y-9153D01*
X-92396Y-9211D01*
X-92440Y-9264D01*
X-92449Y-9294D01*
X-92466Y-9320D01*
X-92477Y-9388D01*
X-92497Y-9454D01*
X-92494Y-9485D01*
X-92499Y-9517D01*
X-92483Y-9583D01*
X-92476Y-9652D01*
X-92459Y-9684D01*
X-92453Y-9710D01*
X-92428Y-9743D01*
X-92399Y-9800D01*
X-89399Y-13800D01*
X-89340Y-13852D01*
X-89286Y-13909D01*
X-89267Y-13918D01*
X-89251Y-13932D01*
X-89176Y-13957D01*
X-89104Y-13988D01*
X-89083Y-13989D01*
X-89062Y-13995D01*
X-88984Y-13989D01*
G37*
G36*
X-807925Y249924D02*
X-807925Y249924D01*
X-807898Y249921D01*
X-807859Y249932D01*
X-807796Y249940D01*
X-803011Y251391D01*
X-802942Y251429D01*
X-802869Y251460D01*
X-802855Y251476D01*
X-802836Y251486D01*
X-802787Y251547D01*
X-802732Y251605D01*
X-802725Y251624D01*
X-802712Y251641D01*
X-802690Y251717D01*
X-802663Y251791D01*
X-802664Y251812D01*
X-802658Y251833D01*
X-802668Y251911D01*
X-802671Y251989D01*
X-802681Y252011D01*
X-802683Y252030D01*
X-802706Y252068D01*
X-802738Y252142D01*
X-805470Y256329D01*
X-805519Y256378D01*
X-805560Y256433D01*
X-805588Y256448D01*
X-805610Y256471D01*
X-805674Y256497D01*
X-805733Y256531D01*
X-805765Y256534D01*
X-805794Y256547D01*
X-805863Y256546D01*
X-805931Y256554D01*
X-805961Y256545D01*
X-805993Y256545D01*
X-806056Y256517D01*
X-806122Y256498D01*
X-806146Y256478D01*
X-806175Y256465D01*
X-806222Y256415D01*
X-806276Y256372D01*
X-806293Y256341D01*
X-806312Y256321D01*
X-806326Y256282D01*
X-806358Y256227D01*
X-808410Y250589D01*
X-808420Y250521D01*
X-808439Y250455D01*
X-808435Y250423D01*
X-808439Y250392D01*
X-808422Y250326D01*
X-808413Y250258D01*
X-808397Y250230D01*
X-808390Y250200D01*
X-808348Y250145D01*
X-808313Y250086D01*
X-808288Y250067D01*
X-808269Y250042D01*
X-808209Y250008D01*
X-808154Y249967D01*
X-808123Y249959D01*
X-808096Y249944D01*
X-808028Y249936D01*
X-807961Y249919D01*
X-807925Y249924D01*
G37*
G36*
X805961Y-256545D02*
X805961Y-256545D01*
X805993Y-256545D01*
X806056Y-256517D01*
X806122Y-256498D01*
X806146Y-256478D01*
X806175Y-256465D01*
X806222Y-256415D01*
X806276Y-256372D01*
X806293Y-256341D01*
X806312Y-256321D01*
X806326Y-256282D01*
X806358Y-256227D01*
X808410Y-250589D01*
X808420Y-250521D01*
X808439Y-250455D01*
X808435Y-250423D01*
X808439Y-250392D01*
X808422Y-250326D01*
X808413Y-250258D01*
X808397Y-250230D01*
X808390Y-250200D01*
X808348Y-250145D01*
X808313Y-250086D01*
X808288Y-250067D01*
X808269Y-250042D01*
X808209Y-250008D01*
X808154Y-249967D01*
X808123Y-249959D01*
X808096Y-249944D01*
X808028Y-249936D01*
X807961Y-249919D01*
X807925Y-249924D01*
X807898Y-249921D01*
X807859Y-249932D01*
X807796Y-249940D01*
X803011Y-251391D01*
X802942Y-251429D01*
X802869Y-251460D01*
X802855Y-251476D01*
X802836Y-251486D01*
X802787Y-251547D01*
X802732Y-251605D01*
X802725Y-251624D01*
X802712Y-251641D01*
X802690Y-251717D01*
X802663Y-251791D01*
X802664Y-251812D01*
X802658Y-251833D01*
X802668Y-251911D01*
X802671Y-251989D01*
X802681Y-252011D01*
X802683Y-252030D01*
X802706Y-252068D01*
X802738Y-252142D01*
X805470Y-256329D01*
X805519Y-256378D01*
X805560Y-256433D01*
X805588Y-256448D01*
X805610Y-256471D01*
X805674Y-256497D01*
X805733Y-256531D01*
X805765Y-256534D01*
X805794Y-256547D01*
X805863Y-256546D01*
X805931Y-256554D01*
X805961Y-256545D01*
G37*
G36*
X768972Y357050D02*
X768972Y357050D01*
X769003Y357047D01*
X769069Y357067D01*
X769137Y357080D01*
X769163Y357097D01*
X769193Y357107D01*
X769245Y357151D01*
X769303Y357189D01*
X769320Y357216D01*
X769344Y357236D01*
X769375Y357298D01*
X769413Y357355D01*
X769419Y357386D01*
X769433Y357414D01*
X769437Y357483D01*
X769450Y357550D01*
X769443Y357585D01*
X769445Y357613D01*
X769431Y357652D01*
X769419Y357714D01*
X767367Y363352D01*
X767331Y363411D01*
X767303Y363473D01*
X767280Y363495D01*
X767263Y363522D01*
X767208Y363562D01*
X767157Y363608D01*
X767127Y363619D01*
X767102Y363637D01*
X767035Y363652D01*
X766970Y363675D01*
X766938Y363674D01*
X766908Y363680D01*
X766840Y363668D01*
X766771Y363664D01*
X766743Y363650D01*
X766712Y363645D01*
X766655Y363607D01*
X766593Y363576D01*
X766569Y363550D01*
X766546Y363535D01*
X766523Y363501D01*
X766480Y363454D01*
X763747Y359267D01*
X763718Y359193D01*
X763683Y359123D01*
X763682Y359102D01*
X763674Y359082D01*
X763676Y359003D01*
X763671Y358925D01*
X763678Y358905D01*
X763679Y358883D01*
X763711Y358812D01*
X763737Y358737D01*
X763752Y358721D01*
X763761Y358702D01*
X763818Y358649D01*
X763872Y358590D01*
X763893Y358580D01*
X763907Y358567D01*
X763949Y358552D01*
X764021Y358516D01*
X768805Y357065D01*
X768874Y357059D01*
X768941Y357044D01*
X768972Y357050D01*
G37*
G36*
X-766840Y-363668D02*
X-766840Y-363668D01*
X-766771Y-363664D01*
X-766743Y-363650D01*
X-766712Y-363645D01*
X-766655Y-363607D01*
X-766593Y-363576D01*
X-766569Y-363550D01*
X-766546Y-363535D01*
X-766523Y-363501D01*
X-766480Y-363454D01*
X-763747Y-359267D01*
X-763718Y-359193D01*
X-763683Y-359123D01*
X-763682Y-359102D01*
X-763674Y-359082D01*
X-763676Y-359003D01*
X-763671Y-358925D01*
X-763678Y-358905D01*
X-763679Y-358883D01*
X-763711Y-358812D01*
X-763737Y-358737D01*
X-763752Y-358721D01*
X-763761Y-358702D01*
X-763818Y-358649D01*
X-763872Y-358590D01*
X-763893Y-358580D01*
X-763907Y-358567D01*
X-763949Y-358552D01*
X-764021Y-358516D01*
X-768805Y-357065D01*
X-768874Y-357059D01*
X-768941Y-357044D01*
X-768972Y-357050D01*
X-769003Y-357047D01*
X-769069Y-357067D01*
X-769137Y-357080D01*
X-769163Y-357097D01*
X-769193Y-357107D01*
X-769245Y-357151D01*
X-769303Y-357189D01*
X-769320Y-357216D01*
X-769344Y-357236D01*
X-769375Y-357298D01*
X-769413Y-357355D01*
X-769419Y-357386D01*
X-769433Y-357414D01*
X-769437Y-357483D01*
X-769450Y-357550D01*
X-769443Y-357585D01*
X-769445Y-357613D01*
X-769431Y-357652D01*
X-769419Y-357714D01*
X-767367Y-363352D01*
X-767331Y-363411D01*
X-767303Y-363473D01*
X-767280Y-363495D01*
X-767263Y-363522D01*
X-767208Y-363562D01*
X-767157Y-363608D01*
X-767127Y-363619D01*
X-767102Y-363637D01*
X-767035Y-363652D01*
X-766970Y-363675D01*
X-766938Y-363674D01*
X-766908Y-363680D01*
X-766840Y-363668D01*
G37*
G36*
X-449946Y367512D02*
X-449946Y367512D01*
X-449891Y367513D01*
X-449850Y367531D01*
X-449805Y367540D01*
X-449760Y367572D01*
X-449709Y367594D01*
X-449679Y367627D01*
X-449641Y367653D01*
X-449612Y367699D01*
X-449574Y367740D01*
X-449559Y367782D01*
X-449534Y367820D01*
X-449525Y367875D01*
X-449506Y367927D01*
X-449509Y367972D01*
X-449501Y368017D01*
X-449514Y368070D01*
X-449517Y368125D01*
X-449538Y368174D01*
X-449547Y368210D01*
X-449566Y368236D01*
X-449585Y368277D01*
X-451585Y371277D01*
X-451589Y371282D01*
X-451592Y371288D01*
X-451633Y371327D01*
X-451662Y371366D01*
X-451691Y371383D01*
X-451726Y371417D01*
X-451732Y371420D01*
X-451737Y371424D01*
X-451801Y371448D01*
X-451833Y371467D01*
X-451863Y371472D01*
X-451910Y371491D01*
X-451917Y371491D01*
X-451923Y371493D01*
X-451975Y371491D01*
X-451997Y371495D01*
X-452003Y371495D01*
X-452033Y371489D01*
X-452109Y371487D01*
X-452115Y371484D01*
X-452122Y371484D01*
X-452171Y371461D01*
X-452198Y371455D01*
X-452230Y371433D01*
X-452291Y371406D01*
X-452295Y371401D01*
X-452301Y371398D01*
X-452338Y371359D01*
X-452362Y371343D01*
X-452379Y371315D01*
X-452415Y371277D01*
X-454415Y368277D01*
X-454436Y368226D01*
X-454466Y368180D01*
X-454473Y368135D01*
X-454491Y368093D01*
X-454490Y368038D01*
X-454499Y367983D01*
X-454488Y367939D01*
X-454488Y367894D01*
X-454466Y367844D01*
X-454453Y367790D01*
X-454426Y367754D01*
X-454408Y367712D01*
X-454368Y367674D01*
X-454335Y367630D01*
X-454296Y367607D01*
X-454263Y367576D01*
X-454211Y367557D01*
X-454164Y367528D01*
X-454112Y367520D01*
X-454077Y367507D01*
X-454044Y367508D01*
X-454000Y367501D01*
X-450000Y367501D01*
X-449946Y367512D01*
G37*
G36*
X422054Y-42488D02*
X422054Y-42488D01*
X422109Y-42487D01*
X422150Y-42469D01*
X422195Y-42460D01*
X422240Y-42428D01*
X422291Y-42406D01*
X422321Y-42373D01*
X422359Y-42347D01*
X422388Y-42301D01*
X422426Y-42260D01*
X422441Y-42218D01*
X422466Y-42180D01*
X422475Y-42125D01*
X422494Y-42074D01*
X422491Y-42028D01*
X422499Y-41983D01*
X422486Y-41930D01*
X422483Y-41875D01*
X422462Y-41826D01*
X422453Y-41790D01*
X422434Y-41764D01*
X422415Y-41723D01*
X420415Y-38723D01*
X420411Y-38718D01*
X420408Y-38712D01*
X420367Y-38673D01*
X420338Y-38634D01*
X420309Y-38617D01*
X420274Y-38583D01*
X420268Y-38580D01*
X420263Y-38576D01*
X420199Y-38552D01*
X420167Y-38533D01*
X420137Y-38528D01*
X420090Y-38509D01*
X420083Y-38509D01*
X420077Y-38507D01*
X420025Y-38509D01*
X420003Y-38505D01*
X419997Y-38505D01*
X419967Y-38511D01*
X419891Y-38513D01*
X419885Y-38516D01*
X419878Y-38516D01*
X419829Y-38539D01*
X419802Y-38545D01*
X419770Y-38567D01*
X419709Y-38594D01*
X419705Y-38599D01*
X419699Y-38602D01*
X419662Y-38641D01*
X419638Y-38657D01*
X419621Y-38685D01*
X419585Y-38723D01*
X417585Y-41723D01*
X417564Y-41774D01*
X417534Y-41820D01*
X417527Y-41865D01*
X417509Y-41907D01*
X417510Y-41962D01*
X417501Y-42017D01*
X417512Y-42061D01*
X417512Y-42106D01*
X417534Y-42157D01*
X417547Y-42210D01*
X417574Y-42246D01*
X417592Y-42288D01*
X417632Y-42326D01*
X417665Y-42370D01*
X417704Y-42393D01*
X417737Y-42424D01*
X417789Y-42443D01*
X417836Y-42472D01*
X417888Y-42480D01*
X417923Y-42493D01*
X417956Y-42492D01*
X418000Y-42499D01*
X422000Y-42499D01*
X422054Y-42488D01*
G37*
G36*
X-222946Y-362488D02*
X-222946Y-362488D01*
X-222891Y-362487D01*
X-222850Y-362469D01*
X-222805Y-362460D01*
X-222760Y-362428D01*
X-222709Y-362406D01*
X-222679Y-362373D01*
X-222641Y-362347D01*
X-222612Y-362301D01*
X-222574Y-362260D01*
X-222559Y-362218D01*
X-222534Y-362180D01*
X-222525Y-362125D01*
X-222506Y-362074D01*
X-222509Y-362028D01*
X-222501Y-361983D01*
X-222514Y-361930D01*
X-222517Y-361875D01*
X-222538Y-361826D01*
X-222547Y-361790D01*
X-222566Y-361764D01*
X-222585Y-361723D01*
X-224585Y-358723D01*
X-224589Y-358718D01*
X-224592Y-358712D01*
X-224633Y-358673D01*
X-224662Y-358634D01*
X-224691Y-358617D01*
X-224726Y-358583D01*
X-224732Y-358580D01*
X-224737Y-358576D01*
X-224801Y-358552D01*
X-224833Y-358533D01*
X-224863Y-358528D01*
X-224910Y-358509D01*
X-224917Y-358509D01*
X-224923Y-358507D01*
X-224975Y-358509D01*
X-224997Y-358505D01*
X-225003Y-358505D01*
X-225033Y-358511D01*
X-225109Y-358513D01*
X-225115Y-358516D01*
X-225122Y-358516D01*
X-225171Y-358539D01*
X-225198Y-358545D01*
X-225230Y-358567D01*
X-225291Y-358594D01*
X-225295Y-358599D01*
X-225301Y-358602D01*
X-225338Y-358641D01*
X-225362Y-358657D01*
X-225379Y-358685D01*
X-225415Y-358723D01*
X-227415Y-361723D01*
X-227436Y-361774D01*
X-227466Y-361820D01*
X-227473Y-361865D01*
X-227491Y-361907D01*
X-227490Y-361962D01*
X-227499Y-362017D01*
X-227488Y-362061D01*
X-227488Y-362106D01*
X-227466Y-362157D01*
X-227453Y-362210D01*
X-227426Y-362246D01*
X-227408Y-362288D01*
X-227368Y-362326D01*
X-227335Y-362370D01*
X-227296Y-362393D01*
X-227263Y-362424D01*
X-227211Y-362443D01*
X-227164Y-362472D01*
X-227112Y-362480D01*
X-227077Y-362493D01*
X-227044Y-362492D01*
X-227000Y-362499D01*
X-223000Y-362499D01*
X-222946Y-362488D01*
G37*
G36*
X437054Y-413488D02*
X437054Y-413488D01*
X437109Y-413487D01*
X437150Y-413469D01*
X437195Y-413460D01*
X437240Y-413428D01*
X437291Y-413406D01*
X437321Y-413373D01*
X437359Y-413347D01*
X437388Y-413301D01*
X437426Y-413260D01*
X437441Y-413218D01*
X437466Y-413180D01*
X437475Y-413125D01*
X437494Y-413074D01*
X437491Y-413028D01*
X437499Y-412983D01*
X437486Y-412930D01*
X437483Y-412875D01*
X437462Y-412826D01*
X437453Y-412790D01*
X437434Y-412764D01*
X437415Y-412723D01*
X435415Y-409723D01*
X435411Y-409718D01*
X435408Y-409712D01*
X435367Y-409673D01*
X435338Y-409634D01*
X435309Y-409617D01*
X435274Y-409583D01*
X435268Y-409580D01*
X435263Y-409576D01*
X435199Y-409552D01*
X435167Y-409533D01*
X435137Y-409528D01*
X435090Y-409509D01*
X435083Y-409509D01*
X435077Y-409507D01*
X435025Y-409509D01*
X435003Y-409505D01*
X434997Y-409505D01*
X434967Y-409511D01*
X434891Y-409513D01*
X434885Y-409516D01*
X434878Y-409516D01*
X434829Y-409539D01*
X434802Y-409545D01*
X434770Y-409567D01*
X434709Y-409594D01*
X434705Y-409599D01*
X434699Y-409602D01*
X434662Y-409641D01*
X434638Y-409657D01*
X434621Y-409685D01*
X434585Y-409723D01*
X432585Y-412723D01*
X432564Y-412774D01*
X432534Y-412820D01*
X432527Y-412865D01*
X432509Y-412907D01*
X432510Y-412962D01*
X432501Y-413017D01*
X432512Y-413061D01*
X432512Y-413106D01*
X432534Y-413157D01*
X432547Y-413210D01*
X432574Y-413246D01*
X432592Y-413288D01*
X432632Y-413326D01*
X432665Y-413370D01*
X432704Y-413393D01*
X432737Y-413424D01*
X432789Y-413443D01*
X432836Y-413472D01*
X432888Y-413480D01*
X432923Y-413493D01*
X432956Y-413492D01*
X433000Y-413499D01*
X437000Y-413499D01*
X437054Y-413488D01*
G37*
G36*
X-930Y459514D02*
X-930Y459514D01*
X-875Y459517D01*
X-826Y459538D01*
X-790Y459547D01*
X-764Y459566D01*
X-723Y459585D01*
X2277Y461585D01*
X2282Y461589D01*
X2288Y461592D01*
X2320Y461627D01*
X2354Y461650D01*
X2377Y461685D01*
X2417Y461726D01*
X2420Y461732D01*
X2424Y461737D01*
X2444Y461791D01*
X2461Y461817D01*
X2467Y461850D01*
X2491Y461910D01*
X2491Y461917D01*
X2493Y461923D01*
X2490Y461989D01*
X2494Y462014D01*
X2489Y462038D01*
X2487Y462109D01*
X2484Y462115D01*
X2484Y462122D01*
X2453Y462186D01*
X2448Y462207D01*
X2436Y462224D01*
X2406Y462291D01*
X2401Y462295D01*
X2398Y462301D01*
X2336Y462360D01*
X2331Y462367D01*
X2324Y462371D01*
X2277Y462415D01*
X-723Y464415D01*
X-774Y464436D01*
X-820Y464466D01*
X-865Y464473D01*
X-907Y464491D01*
X-962Y464490D01*
X-1017Y464499D01*
X-1061Y464488D01*
X-1106Y464488D01*
X-1157Y464466D01*
X-1210Y464453D01*
X-1246Y464426D01*
X-1288Y464408D01*
X-1326Y464368D01*
X-1370Y464335D01*
X-1393Y464296D01*
X-1424Y464263D01*
X-1443Y464211D01*
X-1472Y464164D01*
X-1480Y464112D01*
X-1493Y464077D01*
X-1492Y464044D01*
X-1499Y464000D01*
X-1499Y460000D01*
X-1488Y459946D01*
X-1487Y459891D01*
X-1469Y459850D01*
X-1460Y459805D01*
X-1428Y459760D01*
X-1406Y459709D01*
X-1373Y459679D01*
X-1347Y459641D01*
X-1301Y459612D01*
X-1260Y459574D01*
X-1218Y459559D01*
X-1180Y459534D01*
X-1125Y459525D01*
X-1074Y459506D01*
X-1028Y459509D01*
X-983Y459501D01*
X-930Y459514D01*
G37*
G36*
X110570Y-351986D02*
X110570Y-351986D01*
X110625Y-351983D01*
X110674Y-351962D01*
X110710Y-351953D01*
X110736Y-351934D01*
X110777Y-351915D01*
X113777Y-349915D01*
X113782Y-349911D01*
X113788Y-349908D01*
X113820Y-349873D01*
X113854Y-349850D01*
X113877Y-349815D01*
X113917Y-349774D01*
X113920Y-349768D01*
X113924Y-349763D01*
X113944Y-349709D01*
X113961Y-349683D01*
X113967Y-349651D01*
X113991Y-349590D01*
X113991Y-349583D01*
X113993Y-349577D01*
X113990Y-349511D01*
X113994Y-349486D01*
X113989Y-349462D01*
X113987Y-349391D01*
X113984Y-349385D01*
X113984Y-349378D01*
X113953Y-349314D01*
X113948Y-349293D01*
X113936Y-349276D01*
X113906Y-349209D01*
X113901Y-349205D01*
X113898Y-349199D01*
X113836Y-349140D01*
X113831Y-349133D01*
X113824Y-349129D01*
X113777Y-349085D01*
X110777Y-347085D01*
X110726Y-347064D01*
X110680Y-347034D01*
X110635Y-347027D01*
X110593Y-347009D01*
X110538Y-347010D01*
X110483Y-347001D01*
X110439Y-347012D01*
X110394Y-347012D01*
X110344Y-347034D01*
X110290Y-347047D01*
X110254Y-347074D01*
X110212Y-347092D01*
X110174Y-347132D01*
X110130Y-347165D01*
X110107Y-347204D01*
X110076Y-347237D01*
X110057Y-347289D01*
X110028Y-347336D01*
X110020Y-347388D01*
X110007Y-347423D01*
X110008Y-347456D01*
X110001Y-347500D01*
X110001Y-351500D01*
X110012Y-351554D01*
X110013Y-351609D01*
X110031Y-351650D01*
X110040Y-351695D01*
X110072Y-351740D01*
X110094Y-351791D01*
X110127Y-351821D01*
X110153Y-351859D01*
X110199Y-351888D01*
X110240Y-351926D01*
X110282Y-351941D01*
X110320Y-351966D01*
X110375Y-351975D01*
X110427Y-351994D01*
X110472Y-351991D01*
X110517Y-351999D01*
X110570Y-351986D01*
G37*
G36*
X-21930Y-377486D02*
X-21930Y-377486D01*
X-21875Y-377483D01*
X-21826Y-377462D01*
X-21790Y-377453D01*
X-21764Y-377434D01*
X-21723Y-377415D01*
X-18723Y-375415D01*
X-18718Y-375411D01*
X-18712Y-375408D01*
X-18680Y-375373D01*
X-18646Y-375350D01*
X-18623Y-375315D01*
X-18583Y-375274D01*
X-18580Y-375268D01*
X-18576Y-375263D01*
X-18556Y-375209D01*
X-18539Y-375183D01*
X-18533Y-375151D01*
X-18509Y-375090D01*
X-18509Y-375083D01*
X-18507Y-375077D01*
X-18510Y-375011D01*
X-18506Y-374986D01*
X-18511Y-374962D01*
X-18513Y-374891D01*
X-18516Y-374885D01*
X-18516Y-374878D01*
X-18547Y-374814D01*
X-18552Y-374793D01*
X-18564Y-374776D01*
X-18594Y-374709D01*
X-18599Y-374705D01*
X-18602Y-374699D01*
X-18664Y-374640D01*
X-18669Y-374633D01*
X-18676Y-374629D01*
X-18723Y-374585D01*
X-21723Y-372585D01*
X-21774Y-372564D01*
X-21820Y-372534D01*
X-21865Y-372527D01*
X-21907Y-372509D01*
X-21962Y-372510D01*
X-22017Y-372501D01*
X-22061Y-372512D01*
X-22106Y-372512D01*
X-22157Y-372534D01*
X-22210Y-372547D01*
X-22246Y-372574D01*
X-22288Y-372592D01*
X-22326Y-372632D01*
X-22370Y-372665D01*
X-22393Y-372704D01*
X-22424Y-372737D01*
X-22443Y-372789D01*
X-22472Y-372836D01*
X-22480Y-372888D01*
X-22493Y-372923D01*
X-22492Y-372956D01*
X-22499Y-373000D01*
X-22499Y-377000D01*
X-22488Y-377054D01*
X-22487Y-377109D01*
X-22469Y-377150D01*
X-22460Y-377195D01*
X-22428Y-377240D01*
X-22406Y-377291D01*
X-22373Y-377321D01*
X-22347Y-377359D01*
X-22301Y-377388D01*
X-22260Y-377426D01*
X-22218Y-377441D01*
X-22180Y-377466D01*
X-22125Y-377475D01*
X-22074Y-377494D01*
X-22028Y-377491D01*
X-21983Y-377499D01*
X-21930Y-377486D01*
G37*
G36*
X100061Y462512D02*
X100061Y462512D01*
X100106Y462512D01*
X100157Y462534D01*
X100210Y462547D01*
X100246Y462574D01*
X100288Y462592D01*
X100326Y462632D01*
X100370Y462665D01*
X100393Y462704D01*
X100424Y462737D01*
X100443Y462789D01*
X100472Y462836D01*
X100480Y462888D01*
X100493Y462923D01*
X100492Y462956D01*
X100499Y463000D01*
X100499Y467000D01*
X100498Y467006D01*
X100499Y467011D01*
X100488Y467056D01*
X100487Y467109D01*
X100469Y467150D01*
X100460Y467195D01*
X100428Y467240D01*
X100406Y467291D01*
X100373Y467321D01*
X100347Y467359D01*
X100301Y467388D01*
X100260Y467426D01*
X100218Y467441D01*
X100180Y467466D01*
X100125Y467475D01*
X100074Y467494D01*
X100028Y467491D01*
X99983Y467499D01*
X99930Y467486D01*
X99875Y467483D01*
X99826Y467462D01*
X99790Y467453D01*
X99764Y467434D01*
X99723Y467415D01*
X96723Y465415D01*
X96718Y465411D01*
X96712Y465408D01*
X96664Y465356D01*
X96646Y465344D01*
X96634Y465326D01*
X96583Y465274D01*
X96580Y465268D01*
X96576Y465263D01*
X96551Y465195D01*
X96539Y465177D01*
X96535Y465155D01*
X96509Y465090D01*
X96509Y465083D01*
X96507Y465077D01*
X96510Y465006D01*
X96506Y464980D01*
X96512Y464955D01*
X96513Y464891D01*
X96516Y464885D01*
X96516Y464878D01*
X96544Y464820D01*
X96552Y464787D01*
X96571Y464760D01*
X96594Y464709D01*
X96599Y464705D01*
X96602Y464699D01*
X96650Y464654D01*
X96669Y464627D01*
X96693Y464613D01*
X96723Y464585D01*
X99723Y462585D01*
X99774Y462564D01*
X99820Y462534D01*
X99865Y462527D01*
X99907Y462509D01*
X99962Y462510D01*
X100017Y462501D01*
X100061Y462512D01*
G37*
G36*
X-97939Y-322488D02*
X-97939Y-322488D01*
X-97894Y-322488D01*
X-97844Y-322466D01*
X-97790Y-322453D01*
X-97754Y-322426D01*
X-97712Y-322408D01*
X-97674Y-322368D01*
X-97630Y-322335D01*
X-97607Y-322296D01*
X-97576Y-322263D01*
X-97557Y-322211D01*
X-97528Y-322164D01*
X-97520Y-322112D01*
X-97507Y-322077D01*
X-97508Y-322044D01*
X-97501Y-322000D01*
X-97501Y-318000D01*
X-97502Y-317994D01*
X-97501Y-317989D01*
X-97512Y-317944D01*
X-97513Y-317891D01*
X-97531Y-317850D01*
X-97540Y-317805D01*
X-97572Y-317760D01*
X-97594Y-317709D01*
X-97627Y-317679D01*
X-97653Y-317641D01*
X-97699Y-317612D01*
X-97740Y-317574D01*
X-97782Y-317559D01*
X-97820Y-317534D01*
X-97875Y-317525D01*
X-97927Y-317506D01*
X-97972Y-317509D01*
X-98017Y-317501D01*
X-98070Y-317514D01*
X-98125Y-317517D01*
X-98174Y-317538D01*
X-98210Y-317547D01*
X-98236Y-317566D01*
X-98277Y-317585D01*
X-101277Y-319585D01*
X-101282Y-319589D01*
X-101288Y-319592D01*
X-101336Y-319644D01*
X-101354Y-319656D01*
X-101366Y-319674D01*
X-101417Y-319726D01*
X-101420Y-319732D01*
X-101424Y-319737D01*
X-101449Y-319805D01*
X-101461Y-319823D01*
X-101465Y-319845D01*
X-101491Y-319910D01*
X-101491Y-319917D01*
X-101493Y-319923D01*
X-101490Y-319994D01*
X-101494Y-320020D01*
X-101488Y-320045D01*
X-101487Y-320109D01*
X-101484Y-320115D01*
X-101484Y-320122D01*
X-101456Y-320180D01*
X-101448Y-320213D01*
X-101429Y-320240D01*
X-101406Y-320291D01*
X-101401Y-320295D01*
X-101398Y-320301D01*
X-101350Y-320346D01*
X-101331Y-320373D01*
X-101307Y-320387D01*
X-101277Y-320415D01*
X-98277Y-322415D01*
X-98226Y-322436D01*
X-98180Y-322466D01*
X-98135Y-322473D01*
X-98093Y-322491D01*
X-98038Y-322490D01*
X-97983Y-322499D01*
X-97939Y-322488D01*
G37*
G36*
X116016Y521511D02*
X116016Y521511D01*
X116109Y521513D01*
X116115Y521516D01*
X116122Y521516D01*
X116206Y521556D01*
X116291Y521594D01*
X116295Y521599D01*
X116301Y521602D01*
X116415Y521723D01*
X118415Y524723D01*
X118436Y524774D01*
X118466Y524820D01*
X118473Y524865D01*
X118491Y524907D01*
X118490Y524962D01*
X118499Y525017D01*
X118488Y525061D01*
X118488Y525106D01*
X118466Y525157D01*
X118453Y525210D01*
X118426Y525246D01*
X118408Y525288D01*
X118368Y525326D01*
X118335Y525370D01*
X118296Y525393D01*
X118263Y525424D01*
X118211Y525443D01*
X118164Y525472D01*
X118112Y525480D01*
X118077Y525493D01*
X118044Y525492D01*
X118000Y525499D01*
X114000Y525499D01*
X113946Y525488D01*
X113891Y525487D01*
X113850Y525469D01*
X113805Y525460D01*
X113760Y525428D01*
X113709Y525406D01*
X113679Y525373D01*
X113641Y525347D01*
X113612Y525301D01*
X113574Y525260D01*
X113559Y525218D01*
X113534Y525180D01*
X113525Y525125D01*
X113506Y525074D01*
X113509Y525028D01*
X113501Y524983D01*
X113514Y524930D01*
X113517Y524875D01*
X113538Y524826D01*
X113547Y524790D01*
X113550Y524786D01*
X113567Y524763D01*
X113585Y524723D01*
X115585Y521723D01*
X115589Y521718D01*
X115592Y521712D01*
X115660Y521648D01*
X115726Y521583D01*
X115732Y521580D01*
X115737Y521576D01*
X115824Y521543D01*
X115910Y521509D01*
X115917Y521509D01*
X115923Y521507D01*
X116016Y521511D01*
G37*
G36*
X108016Y412511D02*
X108016Y412511D01*
X108109Y412513D01*
X108115Y412516D01*
X108122Y412516D01*
X108206Y412556D01*
X108291Y412594D01*
X108295Y412599D01*
X108301Y412602D01*
X108415Y412723D01*
X110415Y415723D01*
X110436Y415774D01*
X110466Y415820D01*
X110473Y415865D01*
X110491Y415907D01*
X110490Y415962D01*
X110499Y416017D01*
X110488Y416061D01*
X110488Y416106D01*
X110466Y416157D01*
X110453Y416210D01*
X110426Y416246D01*
X110408Y416288D01*
X110368Y416326D01*
X110335Y416370D01*
X110296Y416393D01*
X110263Y416424D01*
X110211Y416443D01*
X110164Y416472D01*
X110112Y416480D01*
X110077Y416493D01*
X110044Y416492D01*
X110000Y416499D01*
X106000Y416499D01*
X105946Y416488D01*
X105891Y416487D01*
X105850Y416469D01*
X105805Y416460D01*
X105760Y416428D01*
X105709Y416406D01*
X105679Y416373D01*
X105641Y416347D01*
X105612Y416301D01*
X105574Y416260D01*
X105559Y416218D01*
X105534Y416180D01*
X105525Y416125D01*
X105506Y416074D01*
X105509Y416028D01*
X105501Y415983D01*
X105514Y415930D01*
X105517Y415875D01*
X105538Y415826D01*
X105547Y415790D01*
X105550Y415786D01*
X105567Y415763D01*
X105585Y415723D01*
X107585Y412723D01*
X107589Y412718D01*
X107592Y412712D01*
X107660Y412648D01*
X107726Y412583D01*
X107732Y412580D01*
X107737Y412576D01*
X107824Y412543D01*
X107910Y412509D01*
X107917Y412509D01*
X107923Y412507D01*
X108016Y412511D01*
G37*
G36*
X-441984Y35511D02*
X-441984Y35511D01*
X-441891Y35513D01*
X-441885Y35516D01*
X-441878Y35516D01*
X-441794Y35556D01*
X-441709Y35594D01*
X-441705Y35599D01*
X-441699Y35602D01*
X-441585Y35723D01*
X-439585Y38723D01*
X-439564Y38774D01*
X-439534Y38820D01*
X-439527Y38865D01*
X-439509Y38907D01*
X-439510Y38962D01*
X-439501Y39017D01*
X-439512Y39061D01*
X-439512Y39106D01*
X-439534Y39157D01*
X-439547Y39210D01*
X-439574Y39246D01*
X-439592Y39288D01*
X-439632Y39326D01*
X-439665Y39370D01*
X-439704Y39393D01*
X-439737Y39424D01*
X-439789Y39443D01*
X-439836Y39472D01*
X-439888Y39480D01*
X-439923Y39493D01*
X-439956Y39492D01*
X-440000Y39499D01*
X-444000Y39499D01*
X-444054Y39488D01*
X-444109Y39487D01*
X-444150Y39469D01*
X-444195Y39460D01*
X-444240Y39428D01*
X-444291Y39406D01*
X-444321Y39373D01*
X-444359Y39347D01*
X-444388Y39301D01*
X-444426Y39260D01*
X-444441Y39218D01*
X-444466Y39180D01*
X-444475Y39125D01*
X-444494Y39074D01*
X-444491Y39028D01*
X-444499Y38983D01*
X-444486Y38930D01*
X-444483Y38875D01*
X-444462Y38826D01*
X-444453Y38790D01*
X-444450Y38786D01*
X-444433Y38763D01*
X-444415Y38723D01*
X-442415Y35723D01*
X-442411Y35718D01*
X-442408Y35712D01*
X-442340Y35648D01*
X-442274Y35583D01*
X-442268Y35580D01*
X-442263Y35576D01*
X-442176Y35543D01*
X-442090Y35509D01*
X-442083Y35509D01*
X-442077Y35507D01*
X-441984Y35511D01*
G37*
G36*
X66016Y-219489D02*
X66016Y-219489D01*
X66109Y-219487D01*
X66115Y-219484D01*
X66122Y-219484D01*
X66206Y-219444D01*
X66291Y-219406D01*
X66295Y-219401D01*
X66301Y-219398D01*
X66415Y-219277D01*
X68415Y-216277D01*
X68436Y-216226D01*
X68466Y-216180D01*
X68473Y-216135D01*
X68491Y-216093D01*
X68490Y-216038D01*
X68499Y-215983D01*
X68488Y-215939D01*
X68488Y-215894D01*
X68466Y-215844D01*
X68453Y-215790D01*
X68426Y-215754D01*
X68408Y-215712D01*
X68368Y-215674D01*
X68335Y-215630D01*
X68296Y-215607D01*
X68263Y-215576D01*
X68211Y-215557D01*
X68164Y-215528D01*
X68112Y-215520D01*
X68077Y-215507D01*
X68044Y-215508D01*
X68000Y-215501D01*
X64000Y-215501D01*
X63946Y-215512D01*
X63891Y-215513D01*
X63850Y-215531D01*
X63805Y-215540D01*
X63760Y-215572D01*
X63709Y-215594D01*
X63679Y-215627D01*
X63641Y-215653D01*
X63612Y-215699D01*
X63574Y-215740D01*
X63559Y-215782D01*
X63534Y-215820D01*
X63525Y-215875D01*
X63506Y-215927D01*
X63509Y-215972D01*
X63501Y-216017D01*
X63514Y-216070D01*
X63517Y-216125D01*
X63538Y-216174D01*
X63547Y-216210D01*
X63550Y-216214D01*
X63567Y-216237D01*
X63585Y-216277D01*
X65585Y-219277D01*
X65589Y-219282D01*
X65592Y-219288D01*
X65660Y-219352D01*
X65726Y-219417D01*
X65732Y-219420D01*
X65737Y-219424D01*
X65824Y-219457D01*
X65910Y-219491D01*
X65917Y-219491D01*
X65923Y-219493D01*
X66016Y-219489D01*
G37*
G36*
X443016Y342511D02*
X443016Y342511D01*
X443109Y342513D01*
X443115Y342516D01*
X443122Y342516D01*
X443206Y342556D01*
X443291Y342594D01*
X443295Y342599D01*
X443301Y342602D01*
X443415Y342723D01*
X445415Y345723D01*
X445436Y345774D01*
X445466Y345820D01*
X445473Y345865D01*
X445491Y345907D01*
X445490Y345962D01*
X445499Y346017D01*
X445488Y346061D01*
X445488Y346106D01*
X445466Y346157D01*
X445453Y346210D01*
X445426Y346246D01*
X445408Y346288D01*
X445368Y346326D01*
X445335Y346370D01*
X445296Y346393D01*
X445263Y346424D01*
X445211Y346443D01*
X445164Y346472D01*
X445112Y346480D01*
X445077Y346493D01*
X445044Y346492D01*
X445000Y346499D01*
X441000Y346499D01*
X440946Y346488D01*
X440891Y346487D01*
X440850Y346469D01*
X440805Y346460D01*
X440760Y346428D01*
X440709Y346406D01*
X440679Y346373D01*
X440641Y346347D01*
X440612Y346301D01*
X440574Y346260D01*
X440559Y346218D01*
X440534Y346180D01*
X440525Y346125D01*
X440506Y346074D01*
X440509Y346028D01*
X440501Y345983D01*
X440514Y345930D01*
X440517Y345875D01*
X440538Y345826D01*
X440547Y345790D01*
X440550Y345786D01*
X440567Y345763D01*
X440585Y345723D01*
X442585Y342723D01*
X442589Y342718D01*
X442592Y342712D01*
X442660Y342648D01*
X442726Y342583D01*
X442732Y342580D01*
X442737Y342576D01*
X442824Y342543D01*
X442910Y342509D01*
X442917Y342509D01*
X442923Y342507D01*
X443016Y342511D01*
G37*
G36*
X-54984Y-256489D02*
X-54984Y-256489D01*
X-54891Y-256487D01*
X-54885Y-256484D01*
X-54878Y-256484D01*
X-54794Y-256444D01*
X-54709Y-256406D01*
X-54705Y-256401D01*
X-54699Y-256398D01*
X-54585Y-256277D01*
X-52585Y-253277D01*
X-52564Y-253226D01*
X-52534Y-253180D01*
X-52527Y-253135D01*
X-52509Y-253093D01*
X-52510Y-253038D01*
X-52501Y-252983D01*
X-52512Y-252939D01*
X-52512Y-252894D01*
X-52534Y-252844D01*
X-52547Y-252790D01*
X-52574Y-252754D01*
X-52592Y-252712D01*
X-52632Y-252674D01*
X-52665Y-252630D01*
X-52704Y-252607D01*
X-52737Y-252576D01*
X-52789Y-252557D01*
X-52836Y-252528D01*
X-52888Y-252520D01*
X-52923Y-252507D01*
X-52956Y-252508D01*
X-53000Y-252501D01*
X-57000Y-252501D01*
X-57054Y-252512D01*
X-57109Y-252513D01*
X-57150Y-252531D01*
X-57195Y-252540D01*
X-57240Y-252572D01*
X-57291Y-252594D01*
X-57321Y-252627D01*
X-57359Y-252653D01*
X-57388Y-252699D01*
X-57426Y-252740D01*
X-57441Y-252782D01*
X-57466Y-252820D01*
X-57475Y-252875D01*
X-57494Y-252927D01*
X-57491Y-252972D01*
X-57499Y-253017D01*
X-57486Y-253070D01*
X-57483Y-253125D01*
X-57462Y-253174D01*
X-57453Y-253210D01*
X-57450Y-253214D01*
X-57433Y-253237D01*
X-57415Y-253277D01*
X-55415Y-256277D01*
X-55411Y-256282D01*
X-55408Y-256288D01*
X-55340Y-256352D01*
X-55274Y-256417D01*
X-55268Y-256420D01*
X-55263Y-256424D01*
X-55176Y-256457D01*
X-55090Y-256491D01*
X-55083Y-256491D01*
X-55077Y-256493D01*
X-54984Y-256489D01*
G37*
G36*
X-441984Y-325489D02*
X-441984Y-325489D01*
X-441891Y-325487D01*
X-441885Y-325484D01*
X-441878Y-325484D01*
X-441794Y-325444D01*
X-441709Y-325406D01*
X-441705Y-325401D01*
X-441699Y-325398D01*
X-441585Y-325277D01*
X-439585Y-322277D01*
X-439564Y-322226D01*
X-439534Y-322180D01*
X-439527Y-322135D01*
X-439509Y-322093D01*
X-439510Y-322038D01*
X-439501Y-321983D01*
X-439512Y-321939D01*
X-439512Y-321894D01*
X-439534Y-321844D01*
X-439547Y-321790D01*
X-439574Y-321754D01*
X-439592Y-321712D01*
X-439632Y-321674D01*
X-439665Y-321630D01*
X-439704Y-321607D01*
X-439737Y-321576D01*
X-439789Y-321557D01*
X-439836Y-321528D01*
X-439888Y-321520D01*
X-439923Y-321507D01*
X-439956Y-321508D01*
X-440000Y-321501D01*
X-444000Y-321501D01*
X-444054Y-321512D01*
X-444109Y-321513D01*
X-444150Y-321531D01*
X-444195Y-321540D01*
X-444240Y-321572D01*
X-444291Y-321594D01*
X-444321Y-321627D01*
X-444359Y-321653D01*
X-444388Y-321699D01*
X-444426Y-321740D01*
X-444441Y-321782D01*
X-444466Y-321820D01*
X-444475Y-321875D01*
X-444494Y-321927D01*
X-444491Y-321972D01*
X-444499Y-322017D01*
X-444486Y-322070D01*
X-444483Y-322125D01*
X-444462Y-322174D01*
X-444453Y-322210D01*
X-444450Y-322214D01*
X-444433Y-322237D01*
X-444415Y-322277D01*
X-442415Y-325277D01*
X-442411Y-325282D01*
X-442408Y-325288D01*
X-442340Y-325352D01*
X-442274Y-325417D01*
X-442268Y-325420D01*
X-442263Y-325424D01*
X-442176Y-325457D01*
X-442090Y-325491D01*
X-442083Y-325491D01*
X-442077Y-325493D01*
X-441984Y-325489D01*
G37*
D10*
X314700Y326980D02*
X314700Y342220D01*
X319780Y347300D01*
X355020Y347300D01*
X360100Y342220D01*
X365180Y347300D01*
X400420Y347300D01*
X405500Y342220D01*
X405500Y326980D01*
X400420Y321900D01*
X365180Y321900D01*
X360100Y326980D01*
X355020Y321900D01*
X319780Y321900D01*
X314700Y326980D01*
X314700Y-17780D02*
X314700Y-33020D01*
X314700Y-17780D02*
X319780Y-12700D01*
X355020Y-12700D01*
X360100Y-17780D01*
X365180Y-12700D01*
X400420Y-12700D01*
X405500Y-17780D01*
X405500Y-33020D01*
X400420Y-38100D01*
X365180Y-38100D01*
X360100Y-33020D01*
X355020Y-38100D01*
X319780Y-38100D01*
X314700Y-33020D01*
X314700Y-377780D02*
X314700Y-393020D01*
X314700Y-377780D02*
X319780Y-372700D01*
X355020Y-372700D01*
X360100Y-377780D01*
X365180Y-372700D01*
X400420Y-372700D01*
X405500Y-377780D01*
X405500Y-393020D01*
X400420Y-398100D01*
X365180Y-398100D01*
X360100Y-393020D01*
X355020Y-398100D01*
X319780Y-398100D01*
X314700Y-393020D01*
X-405400Y-342320D02*
X-405400Y-327080D01*
X-400320Y-322000D01*
X-365080Y-322000D01*
X-360000Y-327080D01*
X-354920Y-322000D01*
X-319680Y-322000D01*
X-314600Y-327080D01*
X-314600Y-342320D01*
X-319680Y-347400D01*
X-354920Y-347400D01*
X-360000Y-342320D01*
X-365080Y-347400D01*
X-400320Y-347400D01*
X-405400Y-342320D01*
X-405400Y17680D02*
X-405400Y32920D01*
X-400320Y38000D01*
X-365080Y38000D01*
X-360000Y32920D01*
X-354920Y38000D01*
X-319680Y38000D01*
X-314600Y32920D01*
X-314600Y17680D01*
X-319680Y12600D01*
X-354920Y12600D01*
X-360000Y17680D01*
X-365080Y12600D01*
X-400320Y12600D01*
X-405400Y17680D01*
X-405400Y377680D02*
X-405400Y392920D01*
X-400320Y398000D01*
X-365080Y398000D01*
X-360000Y392920D01*
X-354920Y398000D01*
X-319680Y398000D01*
X-314600Y392920D01*
X-314600Y377680D01*
X-319680Y372600D01*
X-354920Y372600D01*
X-360000Y377680D01*
X-365080Y372600D01*
X-400320Y372600D01*
X-405400Y377680D01*
D11*
X403452Y656967D02*
X403452Y677050D01*
X393410Y677050D01*
X390063Y673703D01*
X390063Y670356D01*
X393410Y667009D01*
X390063Y663661D01*
X390063Y660314D01*
X393410Y656967D01*
X403452Y656967D01*
X403452Y667009D02*
X393410Y667009D01*
X379991Y677050D02*
X373297Y677050D01*
X379991Y677050D02*
X383338Y673703D01*
X383338Y660314D01*
X379991Y656967D01*
X373297Y656967D01*
X369950Y660314D01*
X369950Y673703D01*
X373297Y677050D01*
X356530Y677050D02*
X356530Y656967D01*
X363225Y677050D02*
X349836Y677050D01*
X336417Y677050D02*
X336417Y656967D01*
X343111Y677050D02*
X329722Y677050D01*
X319650Y677050D02*
X312956Y677050D01*
X319650Y677050D02*
X322997Y673703D01*
X322997Y660314D01*
X319650Y656967D01*
X312956Y656967D01*
X309609Y660314D01*
X309609Y673703D01*
X312956Y677050D01*
X302884Y677050D02*
X302884Y656967D01*
X296189Y670356D02*
X302884Y677050D01*
X296189Y670356D02*
X289495Y677050D01*
X289495Y656967D01*
X529967Y265321D02*
X550050Y265321D01*
X536661Y272015D02*
X529967Y265321D01*
X536661Y272015D02*
X529967Y278709D01*
X550050Y278709D01*
X550050Y285434D02*
X529967Y285434D01*
X550050Y285434D02*
X550050Y295476D01*
X546703Y298823D01*
X540009Y298823D01*
X536661Y295476D01*
X536661Y285434D01*
X536661Y292129D02*
X529967Y298823D01*
X550050Y308895D02*
X550050Y315590D01*
X550050Y308895D02*
X546703Y305548D01*
X533314Y305548D01*
X529967Y308895D01*
X529967Y315590D01*
X533314Y318937D01*
X546703Y318937D01*
X550050Y315590D01*
X550050Y325662D02*
X529967Y325662D01*
X529967Y339050D02*
X550050Y325662D01*
X550050Y339050D02*
X529967Y339050D01*
X550050Y355817D02*
X546703Y359164D01*
X550050Y355817D02*
X550050Y349122D01*
X546703Y345775D01*
X533314Y345775D01*
X529967Y349122D01*
X529967Y355817D01*
X533314Y359164D01*
X540009Y359164D01*
X540009Y352470D01*
X550050Y396044D02*
X546703Y399391D01*
X550050Y396044D02*
X550050Y389350D01*
X546703Y386003D01*
X543356Y386003D01*
X540009Y389350D01*
X540009Y396044D01*
X536661Y399391D01*
X533314Y399391D01*
X529967Y396044D01*
X529967Y389350D01*
X533314Y386003D01*
X529967Y406116D02*
X529967Y412811D01*
X529967Y409463D02*
X550050Y409463D01*
X550050Y406116D02*
X550050Y412811D01*
X550050Y419525D02*
X529967Y419525D01*
X529967Y429567D01*
X533314Y432914D01*
X546703Y432914D01*
X550050Y429567D01*
X550050Y419525D01*
X550050Y439639D02*
X550050Y453028D01*
X550050Y439639D02*
X529967Y439639D01*
X529967Y453028D01*
X540009Y446333D02*
X540009Y439639D01*
X533314Y459753D02*
X529967Y459753D01*
X540009Y459753D02*
X553397Y459753D01*
X460050Y-99679D02*
X439967Y-99679D01*
X446661Y-92985D01*
X439967Y-86291D01*
X460050Y-86291D01*
X460050Y-79566D02*
X439967Y-79566D01*
X460050Y-79566D02*
X460050Y-69524D01*
X456703Y-66177D01*
X450009Y-66177D01*
X446661Y-69524D01*
X446661Y-79566D01*
X446661Y-72871D02*
X439967Y-66177D01*
X460050Y-56105D02*
X460050Y-49410D01*
X460050Y-56105D02*
X456703Y-59452D01*
X443314Y-59452D01*
X439967Y-56105D01*
X439967Y-49410D01*
X443314Y-46063D01*
X456703Y-46063D01*
X460050Y-49410D01*
X460050Y-39338D02*
X439967Y-39338D01*
X439967Y-25950D02*
X460050Y-39338D01*
X460050Y-25950D02*
X439967Y-25950D01*
X460050Y-9183D02*
X456703Y-5836D01*
X460050Y-9183D02*
X460050Y-15878D01*
X456703Y-19225D01*
X443314Y-19225D01*
X439967Y-15878D01*
X439967Y-9183D01*
X443314Y-5836D01*
X450009Y-5836D01*
X450009Y-12530D01*
X460050Y31044D02*
X456703Y34391D01*
X460050Y31044D02*
X460050Y24350D01*
X456703Y21003D01*
X453356Y21003D01*
X450009Y24350D01*
X450009Y31044D01*
X446661Y34391D01*
X443314Y34391D01*
X439967Y31044D01*
X439967Y24350D01*
X443314Y21003D01*
X439967Y41116D02*
X439967Y47811D01*
X439967Y44463D02*
X460050Y44463D01*
X460050Y41116D02*
X460050Y47811D01*
X460050Y54525D02*
X439967Y54525D01*
X439967Y64567D01*
X443314Y67914D01*
X456703Y67914D01*
X460050Y64567D01*
X460050Y54525D01*
X460050Y74639D02*
X460050Y88028D01*
X460050Y74639D02*
X439967Y74639D01*
X439967Y88028D01*
X450009Y81333D02*
X450009Y74639D01*
X443314Y94753D02*
X439967Y94753D01*
X450009Y94753D02*
X463397Y94753D01*
X529967Y-464679D02*
X550050Y-464679D01*
X536661Y-457985D02*
X529967Y-464679D01*
X536661Y-457985D02*
X529967Y-451291D01*
X550050Y-451291D01*
X550050Y-444566D02*
X529967Y-444566D01*
X550050Y-444566D02*
X550050Y-434524D01*
X546703Y-431177D01*
X540009Y-431177D01*
X536661Y-434524D01*
X536661Y-444566D01*
X536661Y-437871D02*
X529967Y-431177D01*
X550050Y-421105D02*
X550050Y-414410D01*
X550050Y-421105D02*
X546703Y-424452D01*
X533314Y-424452D01*
X529967Y-421105D01*
X529967Y-414410D01*
X533314Y-411063D01*
X546703Y-411063D01*
X550050Y-414410D01*
X550050Y-404338D02*
X529967Y-404338D01*
X529967Y-390950D02*
X550050Y-404338D01*
X550050Y-390950D02*
X529967Y-390950D01*
X550050Y-374183D02*
X546703Y-370836D01*
X550050Y-374183D02*
X550050Y-380878D01*
X546703Y-384225D01*
X533314Y-384225D01*
X529967Y-380878D01*
X529967Y-374183D01*
X533314Y-370836D01*
X540009Y-370836D01*
X540009Y-377530D01*
X550050Y-333956D02*
X546703Y-330609D01*
X550050Y-333956D02*
X550050Y-340650D01*
X546703Y-343997D01*
X543356Y-343997D01*
X540009Y-340650D01*
X540009Y-333956D01*
X536661Y-330609D01*
X533314Y-330609D01*
X529967Y-333956D01*
X529967Y-340650D01*
X533314Y-343997D01*
X529967Y-323884D02*
X529967Y-317189D01*
X529967Y-320537D02*
X550050Y-320537D01*
X550050Y-323884D02*
X550050Y-317189D01*
X550050Y-310475D02*
X529967Y-310475D01*
X529967Y-300433D01*
X533314Y-297086D01*
X546703Y-297086D01*
X550050Y-300433D01*
X550050Y-310475D01*
X550050Y-290361D02*
X550050Y-276972D01*
X550050Y-290361D02*
X529967Y-290361D01*
X529967Y-276972D01*
X540009Y-283667D02*
X540009Y-290361D01*
X533314Y-270247D02*
X529967Y-270247D01*
X540009Y-270247D02*
X553397Y-270247D01*
X-519967Y-265321D02*
X-540050Y-265321D01*
X-526661Y-272015D02*
X-519967Y-265321D01*
X-526661Y-272015D02*
X-519967Y-278709D01*
X-540050Y-278709D01*
X-540050Y-285434D02*
X-519967Y-285434D01*
X-540050Y-285434D02*
X-540050Y-295476D01*
X-536703Y-298823D01*
X-530009Y-298823D01*
X-526661Y-295476D01*
X-526661Y-285434D01*
X-526661Y-292129D02*
X-519967Y-298823D01*
X-540050Y-308895D02*
X-540050Y-315590D01*
X-540050Y-308895D02*
X-536703Y-305548D01*
X-523314Y-305548D01*
X-519967Y-308895D01*
X-519967Y-315590D01*
X-523314Y-318937D01*
X-536703Y-318937D01*
X-540050Y-315590D01*
X-540050Y-325662D02*
X-519967Y-325662D01*
X-519967Y-339050D02*
X-540050Y-325662D01*
X-540050Y-339050D02*
X-519967Y-339050D01*
X-540050Y-355817D02*
X-536703Y-359164D01*
X-540050Y-355817D02*
X-540050Y-349122D01*
X-536703Y-345775D01*
X-523314Y-345775D01*
X-519967Y-349122D01*
X-519967Y-355817D01*
X-523314Y-359164D01*
X-530009Y-359164D01*
X-530009Y-352470D01*
X-540050Y-396044D02*
X-536703Y-399391D01*
X-540050Y-396044D02*
X-540050Y-389350D01*
X-536703Y-386003D01*
X-533356Y-386003D01*
X-530009Y-389350D01*
X-530009Y-396044D01*
X-526661Y-399391D01*
X-523314Y-399391D01*
X-519967Y-396044D01*
X-519967Y-389350D01*
X-523314Y-386003D01*
X-519967Y-406116D02*
X-519967Y-412811D01*
X-519967Y-409463D02*
X-540050Y-409463D01*
X-540050Y-406116D02*
X-540050Y-412811D01*
X-540050Y-419525D02*
X-519967Y-419525D01*
X-519967Y-429567D01*
X-523314Y-432914D01*
X-536703Y-432914D01*
X-540050Y-429567D01*
X-540050Y-419525D01*
X-540050Y-439639D02*
X-540050Y-453028D01*
X-540050Y-439639D02*
X-519967Y-439639D01*
X-519967Y-453028D01*
X-530009Y-446333D02*
X-530009Y-439639D01*
X-523314Y-459753D02*
X-519967Y-459753D01*
X-530009Y-459753D02*
X-543397Y-459753D01*
X-540050Y94679D02*
X-519967Y94679D01*
X-526661Y87985D01*
X-519967Y81291D01*
X-540050Y81291D01*
X-540050Y74566D02*
X-519967Y74566D01*
X-540050Y74566D02*
X-540050Y64524D01*
X-536703Y61177D01*
X-530009Y61177D01*
X-526661Y64524D01*
X-526661Y74566D01*
X-526661Y67871D02*
X-519967Y61177D01*
X-540050Y51105D02*
X-540050Y44410D01*
X-540050Y51105D02*
X-536703Y54452D01*
X-523314Y54452D01*
X-519967Y51105D01*
X-519967Y44410D01*
X-523314Y41063D01*
X-536703Y41063D01*
X-540050Y44410D01*
X-540050Y34338D02*
X-519967Y34338D01*
X-519967Y20950D02*
X-540050Y34338D01*
X-540050Y20950D02*
X-519967Y20950D01*
X-540050Y4183D02*
X-536703Y836D01*
X-540050Y4183D02*
X-540050Y10878D01*
X-536703Y14225D01*
X-523314Y14225D01*
X-519967Y10878D01*
X-519967Y4183D01*
X-523314Y836D01*
X-530009Y836D01*
X-530009Y7530D01*
X-540050Y-36044D02*
X-536703Y-39391D01*
X-540050Y-36044D02*
X-540050Y-29350D01*
X-536703Y-26003D01*
X-533356Y-26003D01*
X-530009Y-29350D01*
X-530009Y-36044D01*
X-526661Y-39391D01*
X-523314Y-39391D01*
X-519967Y-36044D01*
X-519967Y-29350D01*
X-523314Y-26003D01*
X-519967Y-46116D02*
X-519967Y-52811D01*
X-519967Y-49463D02*
X-540050Y-49463D01*
X-540050Y-46116D02*
X-540050Y-52811D01*
X-540050Y-59525D02*
X-519967Y-59525D01*
X-519967Y-69567D01*
X-523314Y-72914D01*
X-536703Y-72914D01*
X-540050Y-69567D01*
X-540050Y-59525D01*
X-540050Y-79639D02*
X-540050Y-93028D01*
X-540050Y-79639D02*
X-519967Y-79639D01*
X-519967Y-93028D01*
X-530009Y-86333D02*
X-530009Y-79639D01*
X-523314Y-99753D02*
X-519967Y-99753D01*
X-530009Y-99753D02*
X-543397Y-99753D01*
X-535050Y449679D02*
X-514967Y449679D01*
X-521661Y442985D01*
X-514967Y436291D01*
X-535050Y436291D01*
X-535050Y429566D02*
X-514967Y429566D01*
X-535050Y429566D02*
X-535050Y419524D01*
X-531703Y416177D01*
X-525009Y416177D01*
X-521661Y419524D01*
X-521661Y429566D01*
X-521661Y422871D02*
X-514967Y416177D01*
X-535050Y406105D02*
X-535050Y399410D01*
X-535050Y406105D02*
X-531703Y409452D01*
X-518314Y409452D01*
X-514967Y406105D01*
X-514967Y399410D01*
X-518314Y396063D01*
X-531703Y396063D01*
X-535050Y399410D01*
X-535050Y389338D02*
X-514967Y389338D01*
X-514967Y375950D02*
X-535050Y389338D01*
X-535050Y375950D02*
X-514967Y375950D01*
X-535050Y359183D02*
X-531703Y355836D01*
X-535050Y359183D02*
X-535050Y365878D01*
X-531703Y369225D01*
X-518314Y369225D01*
X-514967Y365878D01*
X-514967Y359183D01*
X-518314Y355836D01*
X-525009Y355836D01*
X-525009Y362530D01*
X-535050Y318956D02*
X-531703Y315609D01*
X-535050Y318956D02*
X-535050Y325650D01*
X-531703Y328997D01*
X-528356Y328997D01*
X-525009Y325650D01*
X-525009Y318956D01*
X-521661Y315609D01*
X-518314Y315609D01*
X-514967Y318956D01*
X-514967Y325650D01*
X-518314Y328997D01*
X-514967Y308884D02*
X-514967Y302189D01*
X-514967Y305537D02*
X-535050Y305537D01*
X-535050Y308884D02*
X-535050Y302189D01*
X-535050Y295475D02*
X-514967Y295475D01*
X-514967Y285433D01*
X-518314Y282086D01*
X-531703Y282086D01*
X-535050Y285433D01*
X-535050Y295475D01*
X-535050Y275361D02*
X-535050Y261972D01*
X-535050Y275361D02*
X-514967Y275361D01*
X-514967Y261972D01*
X-525009Y268667D02*
X-525009Y275361D01*
X-518314Y255247D02*
X-514967Y255247D01*
X-525009Y255247D02*
X-538397Y255247D01*
D12*
X59372Y-623646D02*
X75642Y-623646D01*
X75642Y-615511D01*
X72930Y-612799D01*
X67507Y-612799D01*
X64795Y-615511D01*
X64795Y-623646D01*
X59372Y-604563D02*
X59372Y-599140D01*
X62084Y-596428D01*
X67507Y-596428D01*
X70219Y-599140D01*
X70219Y-604563D01*
X67507Y-607274D01*
X62084Y-607274D01*
X59372Y-604563D01*
X62084Y-590903D02*
X70219Y-590903D01*
X62084Y-590903D02*
X59372Y-588191D01*
X62084Y-585480D01*
X59372Y-582768D01*
X62084Y-580056D01*
X70219Y-580056D01*
X59372Y-571820D02*
X59372Y-566396D01*
X59372Y-571820D02*
X62084Y-574531D01*
X67507Y-574531D01*
X70219Y-571820D01*
X70219Y-566396D01*
X67507Y-563685D01*
X64795Y-563685D01*
X64795Y-574531D01*
X59372Y-558160D02*
X70219Y-558160D01*
X70219Y-552737D02*
X64795Y-558160D01*
X70219Y-552737D02*
X70219Y-550025D01*
X75642Y-520010D02*
X72930Y-517299D01*
X75642Y-520010D02*
X75642Y-525434D01*
X72930Y-528145D01*
X70219Y-528145D01*
X67507Y-525434D01*
X67507Y-520010D01*
X64795Y-517299D01*
X62084Y-517299D01*
X59372Y-520010D01*
X59372Y-525434D01*
X62084Y-528145D01*
X62084Y-511774D02*
X70219Y-511774D01*
X62084Y-511774D02*
X59372Y-509062D01*
X62084Y-506350D01*
X59372Y-503639D01*
X62084Y-500927D01*
X70219Y-500927D01*
X70219Y-495402D02*
X70219Y-492691D01*
X59372Y-492691D01*
X59372Y-495402D02*
X59372Y-489979D01*
X75642Y-492691D02*
X78354Y-492691D01*
X72930Y-481776D02*
X62084Y-481776D01*
X59372Y-479064D01*
X70219Y-479064D02*
X70219Y-484488D01*
X70219Y-470862D02*
X70219Y-462727D01*
X70219Y-470862D02*
X67507Y-473573D01*
X62084Y-473573D01*
X59372Y-470862D01*
X59372Y-462727D01*
X59372Y-457202D02*
X75642Y-457202D01*
X70219Y-454490D02*
X67507Y-457202D01*
X70219Y-454490D02*
X70219Y-449067D01*
X67507Y-446355D01*
X59372Y-446355D01*
D10*
X-17980Y389300D02*
X-32220Y389300D01*
X-830000Y209000D02*
X-830000Y1000D01*
X-830000Y-1000D02*
X-830000Y-209000D01*
X830000Y-209000D02*
X830000Y-1000D01*
X830000Y1000D02*
X830000Y209000D01*
X-37300Y369980D02*
X-37300Y384220D01*
X-32220Y389300D01*
X-17980Y389300D02*
X-12900Y384220D01*
X-7820Y389300D01*
X5420Y389300D01*
X10500Y384220D01*
X10500Y368980D01*
X5420Y364900D01*
X-7820Y364900D01*
X-12900Y369980D01*
X-17980Y364900D01*
X-32220Y364900D01*
X-37300Y369980D01*
D13*
X-92500Y414500D02*
X-125500Y414500D01*
X-92500Y414500D02*
X-92500Y429500D01*
X-125500Y429500D01*
X-125500Y414500D01*
D14*
X-77960Y412627D02*
X-77960Y403221D01*
X-77960Y412627D02*
X-82663Y412627D01*
X-84231Y411059D01*
X-84231Y407924D01*
X-82663Y406356D01*
X-77960Y406356D01*
X-81096Y406356D02*
X-84231Y403221D01*
X-92018Y403221D02*
X-92018Y412627D01*
X-87315Y407924D01*
X-93586Y407924D01*
X-96671Y404789D02*
X-96671Y411059D01*
X-98238Y412627D01*
X-101374Y412627D01*
X-102941Y411059D01*
X-102941Y404789D01*
X-101374Y403221D01*
X-98238Y403221D01*
X-96671Y404789D01*
X-102941Y411059D01*
X-106026Y411059D02*
X-107593Y412627D01*
X-110729Y412627D01*
X-112296Y411059D01*
X-112296Y409492D01*
X-110729Y407924D01*
X-109161Y407924D01*
X-110729Y407924D02*
X-112296Y406356D01*
X-112296Y404789D01*
X-110729Y403221D01*
X-107593Y403221D01*
X-106026Y404789D01*
D13*
X66000Y433500D02*
X66000Y346500D01*
X66000Y433500D02*
X-66000Y433500D01*
X-66000Y346500D01*
X66000Y346500D01*
D14*
X48062Y435781D02*
X49629Y437349D01*
X48062Y435781D02*
X46494Y435781D01*
X44926Y437349D01*
X44926Y445187D01*
X43359Y445187D02*
X46494Y445187D01*
X35571Y445187D02*
X35571Y435781D01*
X40274Y440484D02*
X35571Y445187D01*
X34004Y440484D02*
X40274Y440484D01*
X30919Y437349D02*
X30919Y443619D01*
X29351Y445187D01*
X26216Y445187D01*
X24648Y443619D01*
X24648Y437349D01*
X26216Y435781D01*
X29351Y435781D01*
X30919Y437349D01*
X24648Y443619D01*
X21564Y435781D02*
X15293Y435781D01*
X21564Y435781D02*
X15293Y442052D01*
X15293Y443619D01*
X16861Y445187D01*
X19996Y445187D01*
X21564Y443619D01*
D13*
X104000Y-103500D02*
X-104000Y-103500D01*
X104000Y-103500D02*
X104000Y-16500D01*
X-104000Y-16500D01*
X-104000Y-103500D01*
D10*
X33677Y-5492D02*
X35202Y-3967D01*
X33677Y-5492D02*
X32152Y-5492D01*
X30626Y-3967D01*
X30626Y3660D01*
X29101Y3660D02*
X32152Y3660D01*
X21271Y3660D02*
X21271Y-5492D01*
X25847Y-916D02*
X21271Y3660D01*
X19746Y-916D02*
X25847Y-916D01*
X16492Y-3967D02*
X16492Y2135D01*
X14967Y3660D01*
X11916Y3660D01*
X10391Y2135D01*
X10391Y-3967D01*
X11916Y-5492D01*
X14967Y-5492D01*
X16492Y-3967D01*
X10391Y2135D01*
X7137Y609D02*
X4086Y3660D01*
X4086Y-5492D01*
X1036Y-5492D02*
X7137Y-5492D01*
D13*
X-84000Y696500D02*
X124000Y696500D01*
X-84000Y696500D02*
X-84000Y562500D01*
X124000Y562500D01*
X124000Y696500D01*
D10*
X127048Y625542D02*
X136200Y619441D01*
X136200Y625542D02*
X127048Y619441D01*
X127048Y633372D02*
X136200Y633372D01*
X131624Y628796D01*
X131624Y634898D01*
X128573Y638152D02*
X134675Y638152D01*
X136200Y639677D01*
X136200Y642728D01*
X134675Y644253D01*
X128573Y644253D01*
X127048Y642728D01*
X127048Y639677D01*
X128573Y638152D01*
X134675Y644253D01*
X133149Y647507D02*
X136200Y650557D01*
X127048Y650557D01*
X127048Y647507D02*
X127048Y653608D01*
D13*
X-58500Y534500D02*
X-91500Y534500D01*
X-58500Y534500D02*
X-58500Y549500D01*
X-91500Y549500D01*
X-91500Y534500D01*
D14*
X-43960Y532627D02*
X-43960Y523221D01*
X-43960Y532627D02*
X-48663Y532627D01*
X-50231Y531059D01*
X-50231Y527924D01*
X-48663Y526356D01*
X-43960Y526356D01*
X-47096Y526356D02*
X-50231Y523221D01*
X-58018Y523221D02*
X-58018Y532627D01*
X-53315Y527924D01*
X-59586Y527924D01*
X-62671Y524789D02*
X-62671Y531059D01*
X-64238Y532627D01*
X-67374Y532627D01*
X-68941Y531059D01*
X-68941Y524789D01*
X-67374Y523221D01*
X-64238Y523221D01*
X-62671Y524789D01*
X-68941Y531059D01*
X-76729Y532627D02*
X-76729Y523221D01*
X-72026Y527924D02*
X-76729Y532627D01*
X-78296Y527924D02*
X-72026Y527924D01*
D13*
X57500Y331500D02*
X57500Y308500D01*
X106500Y308500D01*
X106500Y331500D01*
X57500Y331500D01*
D14*
X105769Y306059D02*
X107337Y307627D01*
X110472Y307627D01*
X112040Y306059D01*
X112040Y299789D01*
X110472Y298221D01*
X107337Y298221D01*
X105769Y299789D01*
X97982Y298221D02*
X97982Y307627D01*
X102685Y302924D01*
X96414Y302924D01*
X93329Y299789D02*
X93329Y306059D01*
X91762Y307627D01*
X88626Y307627D01*
X87059Y306059D01*
X87059Y299789D01*
X88626Y298221D01*
X91762Y298221D01*
X93329Y299789D01*
X87059Y306059D01*
X83974Y307627D02*
X77704Y307627D01*
X83974Y307627D02*
X83974Y302924D01*
X80839Y304492D01*
X79271Y304492D01*
X77704Y302924D01*
X77704Y299789D01*
X79271Y298221D01*
X82407Y298221D01*
X83974Y299789D01*
D13*
X96500Y-412500D02*
X96500Y-435500D01*
X145500Y-435500D01*
X145500Y-412500D01*
X96500Y-412500D01*
D10*
X137212Y-440726D02*
X138737Y-439200D01*
X141788Y-439200D01*
X143313Y-440726D01*
X143313Y-446827D01*
X141788Y-448352D01*
X138737Y-448352D01*
X137212Y-446827D01*
X133958Y-442251D02*
X130907Y-439200D01*
X130907Y-448352D01*
X133958Y-448352D02*
X127856Y-448352D01*
X124602Y-446827D02*
X124602Y-440726D01*
X123077Y-439200D01*
X120027Y-439200D01*
X118501Y-440726D01*
X118501Y-446827D01*
X120027Y-448352D01*
X123077Y-448352D01*
X124602Y-446827D01*
X118501Y-440726D01*
X115247Y-448352D02*
X109146Y-448352D01*
X115247Y-448352D02*
X109146Y-442251D01*
X109146Y-440726D01*
X110671Y-439200D01*
X113722Y-439200D01*
X115247Y-440726D01*
D13*
X156500Y-327000D02*
X179500Y-327000D01*
X179500Y-278000D01*
X156500Y-278000D01*
X156500Y-327000D01*
D14*
X181348Y-268781D02*
X182916Y-267213D01*
X186051Y-267213D01*
X187619Y-268781D01*
X187619Y-275051D01*
X186051Y-276619D01*
X182916Y-276619D01*
X181348Y-275051D01*
X178264Y-270348D02*
X175128Y-267213D01*
X175128Y-276619D01*
X171993Y-276619D02*
X178264Y-276619D01*
X168909Y-275051D02*
X168909Y-268781D01*
X167341Y-267213D01*
X164206Y-267213D01*
X162638Y-268781D01*
X162638Y-275051D01*
X164206Y-276619D01*
X167341Y-276619D01*
X168909Y-275051D01*
X162638Y-268781D01*
X159553Y-270348D02*
X156418Y-267213D01*
X156418Y-276619D01*
X159553Y-276619D02*
X153283Y-276619D01*
D13*
X-95500Y-358500D02*
X-95500Y-381500D01*
X-95500Y-358500D02*
X-144500Y-358500D01*
X-144500Y-381500D01*
X-95500Y-381500D01*
D14*
X-106163Y-383373D02*
X-107731Y-384941D01*
X-106163Y-383373D02*
X-103028Y-383373D01*
X-101460Y-384941D01*
X-101460Y-391211D01*
X-103028Y-392779D01*
X-106163Y-392779D01*
X-107731Y-391211D01*
X-110815Y-386508D02*
X-113951Y-383373D01*
X-113951Y-392779D01*
X-117086Y-392779D02*
X-110815Y-392779D01*
X-120171Y-391211D02*
X-120171Y-384941D01*
X-121738Y-383373D01*
X-124874Y-383373D01*
X-126441Y-384941D01*
X-126441Y-391211D01*
X-124874Y-392779D01*
X-121738Y-392779D01*
X-120171Y-391211D01*
X-126441Y-384941D01*
X-129526Y-384941D02*
X-131093Y-383373D01*
X-134229Y-383373D01*
X-135796Y-384941D01*
X-135796Y-386508D01*
X-134229Y-388076D01*
X-135796Y-389644D01*
X-135796Y-391211D01*
X-134229Y-392779D01*
X-131093Y-392779D01*
X-129526Y-391211D01*
X-129526Y-389644D01*
X-131093Y-388076D01*
X-129526Y-386508D01*
X-129526Y-384941D01*
X-131093Y-388076D02*
X-134229Y-388076D01*
D13*
X452000Y325500D02*
X452000Y362500D01*
X434000Y362500D01*
X434000Y325500D01*
X452000Y325500D01*
X445000Y342000D02*
X441000Y342000D01*
D14*
X455681Y336881D02*
X465087Y336881D01*
X455681Y336881D02*
X455681Y341584D01*
X457249Y343152D01*
X463519Y343152D01*
X465087Y341584D01*
X465087Y336881D01*
X465087Y350939D02*
X455681Y350939D01*
X460384Y346236D02*
X465087Y350939D01*
X460384Y352507D02*
X460384Y346236D01*
X457249Y355591D02*
X463519Y355591D01*
X465087Y357159D01*
X465087Y360294D01*
X463519Y361862D01*
X457249Y361862D01*
X455681Y360294D01*
X455681Y357159D01*
X457249Y355591D01*
X463519Y361862D01*
X455681Y364947D02*
X455681Y371217D01*
X455681Y364947D02*
X461952Y371217D01*
X463519Y371217D01*
X465087Y369650D01*
X465087Y366514D01*
X463519Y364947D01*
D13*
X411000Y-21500D02*
X411000Y-58500D01*
X429000Y-58500D01*
X429000Y-21500D01*
X411000Y-21500D01*
X418000Y-38000D02*
X422000Y-38000D01*
D14*
X421827Y-98540D02*
X412421Y-98540D01*
X412421Y-93837D01*
X413989Y-92269D01*
X420259Y-92269D01*
X421827Y-93837D01*
X421827Y-98540D01*
X421827Y-84482D02*
X412421Y-84482D01*
X417124Y-89185D02*
X421827Y-84482D01*
X417124Y-82914D02*
X417124Y-89185D01*
X413989Y-79829D02*
X420259Y-79829D01*
X421827Y-78262D01*
X421827Y-75126D01*
X420259Y-73559D01*
X413989Y-73559D01*
X412421Y-75126D01*
X412421Y-78262D01*
X413989Y-79829D01*
X420259Y-73559D01*
X420259Y-70474D02*
X421827Y-68907D01*
X421827Y-65771D01*
X420259Y-64204D01*
X418692Y-64204D01*
X417124Y-65771D01*
X417124Y-67339D01*
X417124Y-65771D02*
X415556Y-64204D01*
X413989Y-64204D01*
X412421Y-65771D01*
X412421Y-68907D01*
X413989Y-70474D01*
D13*
X426000Y-392500D02*
X426000Y-429500D01*
X444000Y-429500D01*
X444000Y-392500D01*
X426000Y-392500D01*
X433000Y-409000D02*
X437000Y-409000D01*
D14*
X447921Y-434540D02*
X457327Y-434540D01*
X447921Y-434540D02*
X447921Y-429837D01*
X449489Y-428269D01*
X455759Y-428269D01*
X457327Y-429837D01*
X457327Y-434540D01*
X457327Y-420482D02*
X447921Y-420482D01*
X452624Y-425185D02*
X457327Y-420482D01*
X452624Y-418914D02*
X452624Y-425185D01*
X449489Y-415829D02*
X455759Y-415829D01*
X457327Y-414262D01*
X457327Y-411126D01*
X455759Y-409559D01*
X449489Y-409559D01*
X447921Y-411126D01*
X447921Y-414262D01*
X449489Y-415829D01*
X455759Y-409559D01*
X457327Y-401771D02*
X447921Y-401771D01*
X452624Y-406474D02*
X457327Y-401771D01*
X452624Y-400204D02*
X452624Y-406474D01*
D13*
X-433000Y-342500D02*
X-433000Y-305500D01*
X-451000Y-305500D01*
X-451000Y-342500D01*
X-433000Y-342500D01*
X-440000Y-326000D02*
X-444000Y-326000D01*
D14*
X-429319Y-330619D02*
X-419913Y-330619D01*
X-429319Y-330619D02*
X-429319Y-325916D01*
X-427751Y-324348D01*
X-421481Y-324348D01*
X-419913Y-325916D01*
X-419913Y-330619D01*
X-419913Y-316561D02*
X-429319Y-316561D01*
X-424616Y-321264D02*
X-419913Y-316561D01*
X-424616Y-314993D02*
X-424616Y-321264D01*
X-427751Y-311909D02*
X-421481Y-311909D01*
X-419913Y-310341D01*
X-419913Y-307206D01*
X-421481Y-305638D01*
X-427751Y-305638D01*
X-429319Y-307206D01*
X-429319Y-310341D01*
X-427751Y-311909D01*
X-421481Y-305638D01*
X-419913Y-302553D02*
X-419913Y-296283D01*
X-419913Y-302553D02*
X-424616Y-302553D01*
X-423048Y-299418D01*
X-423048Y-297850D01*
X-424616Y-296283D01*
X-427751Y-296283D01*
X-429319Y-297850D01*
X-429319Y-300986D01*
X-427751Y-302553D01*
D13*
X-433000Y18500D02*
X-433000Y55500D01*
X-451000Y55500D01*
X-451000Y18500D01*
X-433000Y18500D01*
X-440000Y35000D02*
X-444000Y35000D01*
D14*
X-430319Y31381D02*
X-420913Y31381D01*
X-430319Y31381D02*
X-430319Y36084D01*
X-428751Y37652D01*
X-422481Y37652D01*
X-420913Y36084D01*
X-420913Y31381D01*
X-420913Y45439D02*
X-430319Y45439D01*
X-425616Y40736D02*
X-420913Y45439D01*
X-425616Y47007D02*
X-425616Y40736D01*
X-428751Y50091D02*
X-422481Y50091D01*
X-420913Y51659D01*
X-420913Y54794D01*
X-422481Y56362D01*
X-428751Y56362D01*
X-430319Y54794D01*
X-430319Y51659D01*
X-428751Y50091D01*
X-422481Y56362D01*
X-422481Y62582D02*
X-420913Y65717D01*
X-422481Y62582D02*
X-425616Y59447D01*
X-428751Y59447D01*
X-430319Y61014D01*
X-430319Y64150D01*
X-428751Y65717D01*
X-427184Y65717D01*
X-425616Y64150D01*
X-425616Y59447D01*
D13*
X-461000Y351500D02*
X-461000Y388500D01*
X-461000Y351500D02*
X-443000Y351500D01*
X-443000Y388500D01*
X-461000Y388500D01*
X-454000Y372000D02*
X-450000Y372000D01*
D14*
X-463673Y344960D02*
X-473079Y344960D01*
X-473079Y349663D01*
X-471511Y351231D01*
X-465241Y351231D01*
X-463673Y349663D01*
X-463673Y344960D01*
X-463673Y359018D02*
X-473079Y359018D01*
X-468376Y354315D02*
X-463673Y359018D01*
X-468376Y360586D02*
X-468376Y354315D01*
X-471511Y363671D02*
X-465241Y363671D01*
X-463673Y365238D01*
X-463673Y368374D01*
X-465241Y369941D01*
X-471511Y369941D01*
X-473079Y368374D01*
X-473079Y365238D01*
X-471511Y363671D01*
X-465241Y369941D01*
X-463673Y373026D02*
X-463673Y379296D01*
X-465241Y379296D01*
X-471511Y373026D01*
X-473079Y373026D01*
D13*
X-17500Y471000D02*
X19500Y471000D01*
X-17500Y471000D02*
X-17500Y453000D01*
X19500Y453000D01*
X19500Y471000D01*
X3000Y464000D02*
X3000Y460000D01*
D14*
X13119Y474181D02*
X13119Y483587D01*
X13119Y474181D02*
X8416Y474181D01*
X6848Y475749D01*
X6848Y482019D01*
X8416Y483587D01*
X13119Y483587D01*
X-939Y483587D02*
X-939Y474181D01*
X3764Y478884D02*
X-939Y483587D01*
X-2507Y478884D02*
X3764Y478884D01*
X-5591Y475749D02*
X-5591Y482019D01*
X-7159Y483587D01*
X-10294Y483587D01*
X-11862Y482019D01*
X-11862Y475749D01*
X-10294Y474181D01*
X-7159Y474181D01*
X-5591Y475749D01*
X-11862Y482019D01*
X-14947Y482019D02*
X-16514Y483587D01*
X-19650Y483587D01*
X-21217Y482019D01*
X-21217Y480452D01*
X-19650Y478884D01*
X-21217Y477316D01*
X-21217Y475749D01*
X-19650Y474181D01*
X-16514Y474181D01*
X-14947Y475749D01*
X-14947Y477316D01*
X-16514Y478884D01*
X-14947Y480452D01*
X-14947Y482019D01*
X-16514Y478884D02*
X-19650Y478884D01*
D13*
X125000Y504500D02*
X125000Y541500D01*
X107000Y541500D01*
X107000Y504500D01*
X125000Y504500D01*
X118000Y521000D02*
X114000Y521000D01*
D14*
X129181Y518381D02*
X138587Y518381D01*
X129181Y518381D02*
X129181Y523084D01*
X130749Y524652D01*
X137019Y524652D01*
X138587Y523084D01*
X138587Y518381D01*
X138587Y532439D02*
X129181Y532439D01*
X133884Y527736D02*
X138587Y532439D01*
X133884Y534007D02*
X133884Y527736D01*
X130749Y537091D02*
X137019Y537091D01*
X138587Y538659D01*
X138587Y541794D01*
X137019Y543362D01*
X130749Y543362D01*
X129181Y541794D01*
X129181Y538659D01*
X130749Y537091D01*
X137019Y543362D01*
X135452Y546447D02*
X138587Y549582D01*
X129181Y549582D01*
X129181Y546447D02*
X129181Y552717D01*
D13*
X117000Y432500D02*
X117000Y395500D01*
X117000Y432500D02*
X99000Y432500D01*
X99000Y395500D01*
X117000Y395500D01*
X110000Y412000D02*
X106000Y412000D01*
D14*
X119681Y402381D02*
X129087Y402381D01*
X119681Y402381D02*
X119681Y407084D01*
X121249Y408652D01*
X127519Y408652D01*
X129087Y407084D01*
X129087Y402381D01*
X129087Y416439D02*
X119681Y416439D01*
X124384Y411736D02*
X129087Y416439D01*
X124384Y418007D02*
X124384Y411736D01*
X125952Y421091D02*
X129087Y424227D01*
X119681Y424227D01*
X119681Y427362D02*
X119681Y421091D01*
X125952Y430447D02*
X129087Y433582D01*
X119681Y433582D01*
X119681Y430447D02*
X119681Y436717D01*
D13*
X-169500Y-413500D02*
X-169500Y-436500D01*
X-120500Y-436500D01*
X-120500Y-413500D01*
X-169500Y-413500D01*
D10*
X-132288Y-438726D02*
X-130763Y-437200D01*
X-127713Y-437200D01*
X-126187Y-438726D01*
X-126187Y-444827D01*
X-127713Y-446352D01*
X-130763Y-446352D01*
X-132288Y-444827D01*
X-135542Y-440251D02*
X-138593Y-437200D01*
X-138593Y-446352D01*
X-135542Y-446352D02*
X-141644Y-446352D01*
X-144898Y-444827D02*
X-144898Y-438726D01*
X-146423Y-437200D01*
X-149474Y-437200D01*
X-150999Y-438726D01*
X-150999Y-444827D01*
X-149474Y-446352D01*
X-146423Y-446352D01*
X-144898Y-444827D01*
X-150999Y-438726D01*
X-154253Y-444827D02*
X-155778Y-446352D01*
X-158829Y-446352D01*
X-160354Y-444827D01*
X-160354Y-438726D01*
X-158829Y-437200D01*
X-155778Y-437200D01*
X-154253Y-438726D01*
X-154253Y-440251D01*
X-155778Y-441776D01*
X-160354Y-441776D01*
D13*
X14500Y-351500D02*
X14500Y-328500D01*
X-34500Y-328500D01*
X-34500Y-351500D01*
X14500Y-351500D01*
D14*
X-39213Y-351916D02*
X-40781Y-350348D01*
X-39213Y-351916D02*
X-39213Y-355051D01*
X-40781Y-356619D01*
X-47051Y-356619D01*
X-48619Y-355051D01*
X-48619Y-351916D01*
X-47051Y-350348D01*
X-42348Y-347264D02*
X-39213Y-344128D01*
X-48619Y-344128D01*
X-48619Y-340993D02*
X-48619Y-347264D01*
X-47051Y-337909D02*
X-40781Y-337909D01*
X-39213Y-336341D01*
X-39213Y-333206D01*
X-40781Y-331638D01*
X-47051Y-331638D01*
X-48619Y-333206D01*
X-48619Y-336341D01*
X-47051Y-337909D01*
X-40781Y-331638D01*
X-39213Y-323850D02*
X-48619Y-323850D01*
X-43916Y-328553D02*
X-39213Y-323850D01*
X-43916Y-322283D02*
X-43916Y-328553D01*
D13*
X114500Y-347500D02*
X114500Y-351500D01*
X141000Y-339000D02*
X84000Y-339000D01*
X84000Y-360000D01*
X141000Y-360000D02*
X141000Y-339000D01*
X141000Y-360000D02*
X84000Y-360000D01*
D14*
X130119Y-362213D02*
X130119Y-371619D01*
X125416Y-371619D01*
X123848Y-370051D01*
X123848Y-363781D01*
X125416Y-362213D01*
X130119Y-362213D01*
X120764Y-365348D02*
X117628Y-362213D01*
X117628Y-371619D01*
X114493Y-371619D02*
X120764Y-371619D01*
X111409Y-370051D02*
X111409Y-363781D01*
X109841Y-362213D01*
X106706Y-362213D01*
X105138Y-363781D01*
X105138Y-370051D01*
X106706Y-371619D01*
X109841Y-371619D01*
X111409Y-370051D01*
X105138Y-363781D01*
X102053Y-365348D02*
X98918Y-362213D01*
X98918Y-371619D01*
X102053Y-371619D02*
X95783Y-371619D01*
D13*
X-18000Y-373000D02*
X-18000Y-377000D01*
X8500Y-364500D02*
X-48500Y-364500D01*
X-48500Y-385500D01*
X8500Y-385500D02*
X8500Y-364500D01*
X8500Y-385500D02*
X-48500Y-385500D01*
D14*
X819Y-366919D02*
X819Y-357513D01*
X819Y-366919D02*
X-3884Y-366919D01*
X-5452Y-365351D01*
X-5452Y-359081D01*
X-3884Y-357513D01*
X819Y-357513D01*
X-8536Y-360648D02*
X-11672Y-357513D01*
X-11672Y-366919D01*
X-14807Y-366919D02*
X-8536Y-366919D01*
X-17891Y-365351D02*
X-17891Y-359081D01*
X-19459Y-357513D01*
X-22594Y-357513D01*
X-24162Y-359081D01*
X-24162Y-365351D01*
X-22594Y-366919D01*
X-19459Y-366919D01*
X-17891Y-365351D01*
X-24162Y-359081D01*
X-27247Y-359081D02*
X-28814Y-357513D01*
X-31950Y-357513D01*
X-33517Y-359081D01*
X-33517Y-360648D01*
X-31950Y-362216D01*
X-30382Y-362216D01*
X-31950Y-362216D02*
X-33517Y-363784D01*
X-33517Y-365351D01*
X-31950Y-366919D01*
X-28814Y-366919D01*
X-27247Y-365351D01*
D13*
X-102000Y-322000D02*
X-102000Y-318000D01*
X-128500Y-330500D02*
X-71500Y-330500D01*
X-71500Y-309500D01*
X-128500Y-309500D02*
X-128500Y-330500D01*
X-128500Y-309500D02*
X-71500Y-309500D01*
D14*
X-91781Y-332013D02*
X-91781Y-341419D01*
X-96484Y-341419D01*
X-98052Y-339851D01*
X-98052Y-333581D01*
X-96484Y-332013D01*
X-91781Y-332013D01*
X-101136Y-335148D02*
X-104272Y-332013D01*
X-104272Y-341419D01*
X-107407Y-341419D02*
X-101136Y-341419D01*
X-110491Y-339851D02*
X-110491Y-333581D01*
X-112059Y-332013D01*
X-115194Y-332013D01*
X-116762Y-333581D01*
X-116762Y-339851D01*
X-115194Y-341419D01*
X-112059Y-341419D01*
X-110491Y-339851D01*
X-116762Y-333581D01*
X-124550Y-332013D02*
X-124550Y-341419D01*
X-119847Y-336716D02*
X-124550Y-332013D01*
X-126117Y-336716D02*
X-119847Y-336716D01*
D13*
X128000Y-329500D02*
X128000Y-296500D01*
X128000Y-329500D02*
X143000Y-329500D01*
X143000Y-296500D01*
X128000Y-296500D01*
D14*
X144221Y-329540D02*
X153627Y-329540D01*
X153627Y-324837D01*
X152059Y-323269D01*
X148924Y-323269D01*
X147356Y-324837D01*
X147356Y-329540D01*
X147356Y-326404D02*
X144221Y-323269D01*
X144221Y-320185D02*
X144221Y-313914D01*
X144221Y-320185D02*
X150492Y-313914D01*
X152059Y-313914D01*
X153627Y-315482D01*
X153627Y-318617D01*
X152059Y-320185D01*
X152059Y-310829D02*
X145789Y-310829D01*
X152059Y-310829D02*
X153627Y-309262D01*
X153627Y-306126D01*
X152059Y-304559D01*
X145789Y-304559D01*
X144221Y-306126D01*
X144221Y-309262D01*
X145789Y-310829D01*
X152059Y-304559D01*
X150492Y-301474D02*
X153627Y-298339D01*
X144221Y-298339D01*
X144221Y-301474D02*
X144221Y-295204D01*
D13*
X122500Y-330500D02*
X107500Y-330500D01*
X122500Y-330500D02*
X122500Y-297500D01*
X107500Y-297500D01*
X107500Y-330500D01*
D14*
X106287Y-325416D02*
X104719Y-323848D01*
X106287Y-325416D02*
X106287Y-328551D01*
X104719Y-330119D01*
X98449Y-330119D01*
X96881Y-328551D01*
X96881Y-325416D01*
X98449Y-323848D01*
X96881Y-320764D02*
X96881Y-314493D01*
X96881Y-320764D02*
X103152Y-314493D01*
X104719Y-314493D01*
X106287Y-316061D01*
X106287Y-319196D01*
X104719Y-320764D01*
X104719Y-311409D02*
X98449Y-311409D01*
X104719Y-311409D02*
X106287Y-309841D01*
X106287Y-306706D01*
X104719Y-305138D01*
X98449Y-305138D01*
X96881Y-306706D01*
X96881Y-309841D01*
X98449Y-311409D01*
X104719Y-305138D01*
X103152Y-302053D02*
X106287Y-298918D01*
X96881Y-298918D01*
X96881Y-302053D02*
X96881Y-295783D01*
D13*
X2500Y-283500D02*
X2500Y-316500D01*
X17500Y-316500D01*
X17500Y-283500D01*
X2500Y-283500D01*
D14*
X1287Y-315619D02*
X-8119Y-315619D01*
X1287Y-315619D02*
X1287Y-310916D01*
X-281Y-309348D01*
X-3416Y-309348D01*
X-4984Y-310916D01*
X-4984Y-315619D01*
X-4984Y-312484D02*
X-8119Y-309348D01*
X-8119Y-306264D02*
X-8119Y-299993D01*
X-8119Y-306264D02*
X-1848Y-299993D01*
X-281Y-299993D01*
X1287Y-301561D01*
X1287Y-304696D01*
X-281Y-306264D01*
X-281Y-296909D02*
X-6551Y-296909D01*
X-281Y-296909D02*
X1287Y-295341D01*
X1287Y-292206D01*
X-281Y-290638D01*
X-6551Y-290638D01*
X-8119Y-292206D01*
X-8119Y-295341D01*
X-6551Y-296909D01*
X-281Y-290638D01*
X1287Y-287553D02*
X1287Y-281283D01*
X-281Y-281283D01*
X-6551Y-287553D01*
X-8119Y-287553D01*
D13*
X22500Y-316500D02*
X37500Y-316500D01*
X37500Y-283500D01*
X22500Y-283500D01*
X22500Y-316500D01*
D14*
X47219Y-302848D02*
X48787Y-304416D01*
X48787Y-307551D01*
X47219Y-309119D01*
X40949Y-309119D01*
X39381Y-307551D01*
X39381Y-304416D01*
X40949Y-302848D01*
X39381Y-299764D02*
X39381Y-293493D01*
X39381Y-299764D02*
X45652Y-293493D01*
X47219Y-293493D01*
X48787Y-295061D01*
X48787Y-298196D01*
X47219Y-299764D01*
X47219Y-290409D02*
X40949Y-290409D01*
X47219Y-290409D02*
X48787Y-288841D01*
X48787Y-285706D01*
X47219Y-284138D01*
X40949Y-284138D01*
X39381Y-285706D01*
X39381Y-288841D01*
X40949Y-290409D01*
X47219Y-284138D01*
X48787Y-281053D02*
X48787Y-274783D01*
X48787Y-281053D02*
X44084Y-281053D01*
X45652Y-277918D01*
X45652Y-276350D01*
X44084Y-274783D01*
X40949Y-274783D01*
X39381Y-276350D01*
X39381Y-279486D01*
X40949Y-281053D01*
D13*
X64500Y-290500D02*
X64500Y-267500D01*
X64500Y-290500D02*
X113500Y-290500D01*
X113500Y-267500D01*
X64500Y-267500D01*
D14*
X98819Y-259448D02*
X100387Y-261016D01*
X100387Y-264151D01*
X98819Y-265719D01*
X92549Y-265719D01*
X90981Y-264151D01*
X90981Y-261016D01*
X92549Y-259448D01*
X90981Y-256364D02*
X90981Y-250093D01*
X90981Y-256364D02*
X97252Y-250093D01*
X98819Y-250093D01*
X100387Y-251661D01*
X100387Y-254796D01*
X98819Y-256364D01*
X98819Y-247009D02*
X92549Y-247009D01*
X98819Y-247009D02*
X100387Y-245441D01*
X100387Y-242306D01*
X98819Y-240738D01*
X92549Y-240738D01*
X90981Y-242306D01*
X90981Y-245441D01*
X92549Y-247009D01*
X98819Y-240738D01*
X90981Y-237653D02*
X90981Y-231383D01*
X90981Y-237653D02*
X97252Y-231383D01*
X98819Y-231383D01*
X100387Y-232950D01*
X100387Y-236086D01*
X98819Y-237653D01*
D13*
X-13500Y-274500D02*
X-36500Y-274500D01*
X-13500Y-274500D02*
X-13500Y-225500D01*
X-36500Y-225500D01*
X-36500Y-274500D01*
D14*
X-17713Y-217416D02*
X-19281Y-215848D01*
X-17713Y-217416D02*
X-17713Y-220551D01*
X-19281Y-222119D01*
X-25551Y-222119D01*
X-27119Y-220551D01*
X-27119Y-217416D01*
X-25551Y-215848D01*
X-27119Y-212764D02*
X-27119Y-206493D01*
X-27119Y-212764D02*
X-20848Y-206493D01*
X-19281Y-206493D01*
X-17713Y-208061D01*
X-17713Y-211196D01*
X-19281Y-212764D01*
X-19281Y-203409D02*
X-25551Y-203409D01*
X-19281Y-203409D02*
X-17713Y-201841D01*
X-17713Y-198706D01*
X-19281Y-197138D01*
X-25551Y-197138D01*
X-27119Y-198706D01*
X-27119Y-201841D01*
X-25551Y-203409D01*
X-19281Y-197138D01*
X-19281Y-190918D02*
X-17713Y-187783D01*
X-19281Y-190918D02*
X-22416Y-194053D01*
X-25551Y-194053D01*
X-27119Y-192486D01*
X-27119Y-189350D01*
X-25551Y-187783D01*
X-23984Y-187783D01*
X-22416Y-189350D01*
X-22416Y-194053D01*
D13*
X-108500Y-282500D02*
X-141500Y-282500D01*
X-108500Y-282500D02*
X-108500Y-267500D01*
X-141500Y-267500D01*
X-141500Y-282500D01*
D14*
X-69160Y-281979D02*
X-69160Y-272573D01*
X-73863Y-272573D01*
X-75431Y-274141D01*
X-75431Y-277276D01*
X-73863Y-278844D01*
X-69160Y-278844D01*
X-72296Y-278844D02*
X-75431Y-281979D01*
X-78515Y-281979D02*
X-84786Y-281979D01*
X-78515Y-281979D02*
X-84786Y-275708D01*
X-84786Y-274141D01*
X-83218Y-272573D01*
X-80083Y-272573D01*
X-78515Y-274141D01*
X-87871Y-274141D02*
X-87871Y-280411D01*
X-87871Y-274141D02*
X-89438Y-272573D01*
X-92574Y-272573D01*
X-94141Y-274141D01*
X-94141Y-280411D01*
X-92574Y-281979D01*
X-89438Y-281979D01*
X-87871Y-280411D01*
X-94141Y-274141D01*
X-97226Y-274141D02*
X-98793Y-272573D01*
X-101929Y-272573D01*
X-103496Y-274141D01*
X-103496Y-275708D01*
X-101929Y-277276D01*
X-103496Y-278844D01*
X-103496Y-280411D01*
X-101929Y-281979D01*
X-98793Y-281979D01*
X-97226Y-280411D01*
X-97226Y-278844D01*
X-98793Y-277276D01*
X-97226Y-275708D01*
X-97226Y-274141D01*
X-98793Y-277276D02*
X-101929Y-277276D01*
D13*
X-108500Y-287500D02*
X-108500Y-302500D01*
X-108500Y-287500D02*
X-141500Y-287500D01*
X-141500Y-302500D01*
X-108500Y-302500D01*
D14*
X-85552Y-290081D02*
X-83984Y-288513D01*
X-80849Y-288513D01*
X-79281Y-290081D01*
X-79281Y-296351D01*
X-80849Y-297919D01*
X-83984Y-297919D01*
X-85552Y-296351D01*
X-88636Y-297919D02*
X-94907Y-297919D01*
X-88636Y-297919D02*
X-94907Y-291648D01*
X-94907Y-290081D01*
X-93339Y-288513D01*
X-90204Y-288513D01*
X-88636Y-290081D01*
X-97991Y-290081D02*
X-97991Y-296351D01*
X-97991Y-290081D02*
X-99559Y-288513D01*
X-102694Y-288513D01*
X-104262Y-290081D01*
X-104262Y-296351D01*
X-102694Y-297919D01*
X-99559Y-297919D01*
X-97991Y-296351D01*
X-104262Y-290081D01*
X-107347Y-288513D02*
X-113617Y-288513D01*
X-113617Y-290081D01*
X-107347Y-296351D01*
X-107347Y-297919D01*
D13*
X-183500Y-330500D02*
X-206500Y-330500D01*
X-206500Y-379500D01*
X-183500Y-379500D01*
X-183500Y-330500D01*
D14*
X-208941Y-378769D02*
X-207373Y-380337D01*
X-207373Y-383472D01*
X-208941Y-385040D01*
X-215211Y-385040D01*
X-216779Y-383472D01*
X-216779Y-380337D01*
X-215211Y-378769D01*
X-216779Y-375685D02*
X-216779Y-369414D01*
X-216779Y-375685D02*
X-210508Y-369414D01*
X-208941Y-369414D01*
X-207373Y-370982D01*
X-207373Y-374117D01*
X-208941Y-375685D01*
X-208941Y-366329D02*
X-215211Y-366329D01*
X-208941Y-366329D02*
X-207373Y-364762D01*
X-207373Y-361626D01*
X-208941Y-360059D01*
X-215211Y-360059D01*
X-216779Y-361626D01*
X-216779Y-364762D01*
X-215211Y-366329D01*
X-208941Y-360059D01*
X-208941Y-356974D02*
X-207373Y-355407D01*
X-207373Y-352271D01*
X-208941Y-350704D01*
X-210508Y-350704D01*
X-212076Y-352271D01*
X-213644Y-350704D01*
X-215211Y-350704D01*
X-216779Y-352271D01*
X-216779Y-355407D01*
X-215211Y-356974D01*
X-213644Y-356974D01*
X-212076Y-355407D01*
X-210508Y-356974D01*
X-208941Y-356974D01*
X-212076Y-355407D02*
X-212076Y-352271D01*
D13*
X64000Y-220000D02*
X68000Y-220000D01*
X76500Y-246500D02*
X76500Y-189500D01*
X55500Y-189500D01*
X55500Y-246500D02*
X76500Y-246500D01*
X55500Y-246500D02*
X55500Y-189500D01*
D14*
X50787Y-228619D02*
X41381Y-228619D01*
X41381Y-223916D01*
X42949Y-222348D01*
X49219Y-222348D01*
X50787Y-223916D01*
X50787Y-228619D01*
X41381Y-219264D02*
X41381Y-212993D01*
X41381Y-219264D02*
X47652Y-212993D01*
X49219Y-212993D01*
X50787Y-214561D01*
X50787Y-217696D01*
X49219Y-219264D01*
X49219Y-209909D02*
X42949Y-209909D01*
X49219Y-209909D02*
X50787Y-208341D01*
X50787Y-205206D01*
X49219Y-203638D01*
X42949Y-203638D01*
X41381Y-205206D01*
X41381Y-208341D01*
X42949Y-209909D01*
X49219Y-203638D01*
X41381Y-200553D02*
X41381Y-194283D01*
X41381Y-200553D02*
X47652Y-194283D01*
X49219Y-194283D01*
X50787Y-195850D01*
X50787Y-198986D01*
X49219Y-200553D01*
D13*
X-53000Y-257000D02*
X-57000Y-257000D01*
X-44500Y-283500D02*
X-44500Y-226500D01*
X-65500Y-226500D01*
X-65500Y-283500D02*
X-44500Y-283500D01*
X-65500Y-283500D02*
X-65500Y-226500D01*
D14*
X-57719Y-223719D02*
X-48313Y-223719D01*
X-57719Y-223719D02*
X-57719Y-219016D01*
X-56151Y-217448D01*
X-49881Y-217448D01*
X-48313Y-219016D01*
X-48313Y-223719D01*
X-57719Y-214364D02*
X-57719Y-208093D01*
X-57719Y-214364D02*
X-51448Y-208093D01*
X-49881Y-208093D01*
X-48313Y-209661D01*
X-48313Y-212796D01*
X-49881Y-214364D01*
X-49881Y-205009D02*
X-56151Y-205009D01*
X-49881Y-205009D02*
X-48313Y-203441D01*
X-48313Y-200306D01*
X-49881Y-198738D01*
X-56151Y-198738D01*
X-57719Y-200306D01*
X-57719Y-203441D01*
X-56151Y-205009D01*
X-49881Y-198738D01*
X-48313Y-190950D02*
X-57719Y-190950D01*
X-53016Y-195653D02*
X-48313Y-190950D01*
X-53016Y-189383D02*
X-53016Y-195653D01*
D13*
X-223000Y-358000D02*
X-227000Y-358000D01*
X-235500Y-331500D02*
X-235500Y-388500D01*
X-214500Y-388500D01*
X-214500Y-331500D02*
X-235500Y-331500D01*
X-214500Y-331500D02*
X-214500Y-388500D01*
D14*
X-220373Y-427040D02*
X-229779Y-427040D01*
X-229779Y-422337D01*
X-228211Y-420769D01*
X-221941Y-420769D01*
X-220373Y-422337D01*
X-220373Y-427040D01*
X-229779Y-417685D02*
X-229779Y-411414D01*
X-229779Y-417685D02*
X-223508Y-411414D01*
X-221941Y-411414D01*
X-220373Y-412982D01*
X-220373Y-416117D01*
X-221941Y-417685D01*
X-221941Y-408329D02*
X-228211Y-408329D01*
X-221941Y-408329D02*
X-220373Y-406762D01*
X-220373Y-403626D01*
X-221941Y-402059D01*
X-228211Y-402059D01*
X-229779Y-403626D01*
X-229779Y-406762D01*
X-228211Y-408329D01*
X-221941Y-402059D01*
X-221941Y-395839D02*
X-220373Y-392704D01*
X-221941Y-395839D02*
X-225076Y-398974D01*
X-228211Y-398974D01*
X-229779Y-397407D01*
X-229779Y-394271D01*
X-228211Y-392704D01*
X-226644Y-392704D01*
X-225076Y-394271D01*
X-225076Y-398974D01*
D13*
X403500Y218000D02*
X403500Y502000D01*
X316500Y502000D01*
X316500Y218000D01*
X403500Y218000D01*
D14*
X418266Y337801D02*
X416698Y339369D01*
X416698Y340936D01*
X418266Y342504D01*
X426104Y342504D01*
X426104Y340936D02*
X426104Y344072D01*
X424536Y347156D02*
X426104Y348724D01*
X426104Y351859D01*
X424536Y353427D01*
X422969Y353427D01*
X421401Y351859D01*
X421401Y350292D01*
X421401Y351859D02*
X419833Y353427D01*
X418266Y353427D01*
X416698Y351859D01*
X416698Y348724D01*
X418266Y347156D01*
X418266Y356511D02*
X424536Y356511D01*
X426104Y358079D01*
X426104Y361214D01*
X424536Y362782D01*
X418266Y362782D01*
X416698Y361214D01*
X416698Y358079D01*
X418266Y356511D01*
X424536Y362782D01*
X422969Y365867D02*
X426104Y369002D01*
X416698Y369002D01*
X416698Y365867D02*
X416698Y372137D01*
D13*
X173000Y-393500D02*
X148000Y-393500D01*
X173000Y-393500D02*
X173000Y-332500D01*
X148000Y-332500D01*
X148000Y-393500D01*
D14*
X176381Y-372119D02*
X185787Y-372119D01*
X185787Y-365848D01*
X181084Y-368984D02*
X181084Y-372119D01*
X182652Y-362764D02*
X185787Y-359628D01*
X176381Y-359628D01*
X176381Y-356493D02*
X176381Y-362764D01*
X177949Y-353409D02*
X184219Y-353409D01*
X185787Y-351841D01*
X185787Y-348706D01*
X184219Y-347138D01*
X177949Y-347138D01*
X176381Y-348706D01*
X176381Y-351841D01*
X177949Y-353409D01*
X184219Y-347138D01*
X182652Y-344053D02*
X185787Y-340918D01*
X176381Y-340918D01*
X176381Y-344053D02*
X176381Y-337783D01*
D13*
X42500Y-385500D02*
X17500Y-385500D01*
X42500Y-385500D02*
X42500Y-324500D01*
X17500Y-324500D01*
X17500Y-385500D01*
D14*
X44881Y-362619D02*
X54287Y-362619D01*
X54287Y-356348D01*
X49584Y-359484D02*
X49584Y-362619D01*
X51152Y-353264D02*
X54287Y-350128D01*
X44881Y-350128D01*
X44881Y-346993D02*
X44881Y-353264D01*
X46449Y-343909D02*
X52719Y-343909D01*
X54287Y-342341D01*
X54287Y-339206D01*
X52719Y-337638D01*
X46449Y-337638D01*
X44881Y-339206D01*
X44881Y-342341D01*
X46449Y-343909D01*
X52719Y-337638D01*
X44881Y-334553D02*
X44881Y-328283D01*
X44881Y-334553D02*
X51152Y-328283D01*
X52719Y-328283D01*
X54287Y-329850D01*
X54287Y-332986D01*
X52719Y-334553D01*
D13*
X-67500Y-420500D02*
X-92500Y-420500D01*
X-67500Y-420500D02*
X-67500Y-359500D01*
X-92500Y-359500D01*
X-92500Y-420500D01*
D14*
X-63619Y-397619D02*
X-54213Y-397619D01*
X-54213Y-391348D01*
X-58916Y-394484D02*
X-58916Y-397619D01*
X-57348Y-388264D02*
X-54213Y-385128D01*
X-63619Y-385128D01*
X-63619Y-381993D02*
X-63619Y-388264D01*
X-62051Y-378909D02*
X-55781Y-378909D01*
X-54213Y-377341D01*
X-54213Y-374206D01*
X-55781Y-372638D01*
X-62051Y-372638D01*
X-63619Y-374206D01*
X-63619Y-377341D01*
X-62051Y-378909D01*
X-55781Y-372638D01*
X-55781Y-369553D02*
X-54213Y-367986D01*
X-54213Y-364850D01*
X-55781Y-363283D01*
X-57348Y-363283D01*
X-58916Y-364850D01*
X-58916Y-366418D01*
X-58916Y-364850D02*
X-60484Y-363283D01*
X-62051Y-363283D01*
X-63619Y-364850D01*
X-63619Y-367986D01*
X-62051Y-369553D01*
D13*
X128500Y-291500D02*
X128500Y-258500D01*
X143500Y-258500D01*
X143500Y-291500D01*
X128500Y-291500D01*
D14*
X132871Y-259190D02*
X142277Y-259190D01*
X132871Y-259190D02*
X132871Y-254487D01*
X134439Y-252919D01*
X140709Y-252919D01*
X142277Y-254487D01*
X142277Y-259190D01*
X132871Y-249835D02*
X132871Y-243564D01*
X132871Y-249835D02*
X139142Y-243564D01*
X140709Y-243564D01*
X142277Y-245132D01*
X142277Y-248267D01*
X140709Y-249835D01*
X140709Y-240479D02*
X134439Y-240479D01*
X140709Y-240479D02*
X142277Y-238912D01*
X142277Y-235776D01*
X140709Y-234209D01*
X134439Y-234209D01*
X132871Y-235776D01*
X132871Y-238912D01*
X134439Y-240479D01*
X140709Y-234209D01*
X139142Y-231124D02*
X142277Y-227989D01*
X132871Y-227989D01*
X132871Y-231124D02*
X132871Y-224854D01*
D13*
X34500Y-265500D02*
X1500Y-265500D01*
X1500Y-250500D01*
X34500Y-250500D01*
X34500Y-265500D01*
D14*
X31969Y-245269D02*
X31969Y-235863D01*
X31969Y-245269D02*
X27266Y-245269D01*
X25698Y-243701D01*
X25698Y-237431D01*
X27266Y-235863D01*
X31969Y-235863D01*
X22614Y-245269D02*
X16343Y-245269D01*
X22614Y-245269D02*
X16343Y-238998D01*
X16343Y-237431D01*
X17911Y-235863D01*
X21046Y-235863D01*
X22614Y-237431D01*
X13259Y-237431D02*
X13259Y-243701D01*
X13259Y-237431D02*
X11691Y-235863D01*
X8556Y-235863D01*
X6988Y-237431D01*
X6988Y-243701D01*
X8556Y-245269D01*
X11691Y-245269D01*
X13259Y-243701D01*
X6988Y-237431D01*
X3903Y-237431D02*
X2336Y-235863D01*
X-800Y-235863D01*
X-2367Y-237431D01*
X-2367Y-238998D01*
X-800Y-240566D01*
X768Y-240566D01*
X-800Y-240566D02*
X-2367Y-242134D01*
X-2367Y-243701D01*
X-800Y-245269D01*
X2336Y-245269D01*
X3903Y-243701D01*
D13*
X-108500Y-247500D02*
X-141500Y-247500D01*
X-108500Y-247500D02*
X-108500Y-262500D01*
X-141500Y-262500D01*
X-141500Y-247500D01*
D14*
X-70310Y-249223D02*
X-70310Y-258629D01*
X-75013Y-258629D01*
X-76581Y-257061D01*
X-76581Y-250791D01*
X-75013Y-249223D01*
X-70310Y-249223D01*
X-79665Y-258629D02*
X-85936Y-258629D01*
X-79665Y-258629D02*
X-85936Y-252358D01*
X-85936Y-250791D01*
X-84368Y-249223D01*
X-81233Y-249223D01*
X-79665Y-250791D01*
X-89021Y-250791D02*
X-89021Y-257061D01*
X-89021Y-250791D02*
X-90588Y-249223D01*
X-93724Y-249223D01*
X-95291Y-250791D01*
X-95291Y-257061D01*
X-93724Y-258629D01*
X-90588Y-258629D01*
X-89021Y-257061D01*
X-95291Y-250791D01*
X-98376Y-249223D02*
X-104646Y-249223D01*
X-98376Y-249223D02*
X-98376Y-253926D01*
X-101511Y-252358D01*
X-103079Y-252358D01*
X-104646Y-253926D01*
X-104646Y-257061D01*
X-103079Y-258629D01*
X-99943Y-258629D01*
X-98376Y-257061D01*
D13*
X403500Y-142000D02*
X403500Y142000D01*
X316500Y142000D01*
X316500Y-142000D01*
X403500Y-142000D01*
D14*
X418266Y-22199D02*
X416698Y-20631D01*
X416698Y-19064D01*
X418266Y-17496D01*
X426104Y-17496D01*
X426104Y-19064D02*
X426104Y-15928D01*
X424536Y-12844D02*
X426104Y-11276D01*
X426104Y-8141D01*
X424536Y-6573D01*
X422969Y-6573D01*
X421401Y-8141D01*
X421401Y-9708D01*
X421401Y-8141D02*
X419833Y-6573D01*
X418266Y-6573D01*
X416698Y-8141D01*
X416698Y-11276D01*
X418266Y-12844D01*
X418266Y-3489D02*
X424536Y-3489D01*
X426104Y-1921D01*
X426104Y1214D01*
X424536Y2782D01*
X418266Y2782D01*
X416698Y1214D01*
X416698Y-1921D01*
X418266Y-3489D01*
X424536Y2782D01*
X416698Y5867D02*
X416698Y12137D01*
X416698Y5867D02*
X422969Y12137D01*
X424536Y12137D01*
X426104Y10570D01*
X426104Y7434D01*
X424536Y5867D01*
D13*
X403500Y-218000D02*
X403500Y-502000D01*
X403500Y-218000D02*
X316500Y-218000D01*
X316500Y-502000D01*
X403500Y-502000D01*
D14*
X418266Y-382199D02*
X416698Y-380631D01*
X416698Y-379064D01*
X418266Y-377496D01*
X426104Y-377496D01*
X426104Y-379064D02*
X426104Y-375928D01*
X424536Y-372844D02*
X426104Y-371276D01*
X426104Y-368141D01*
X424536Y-366573D01*
X422969Y-366573D01*
X421401Y-368141D01*
X421401Y-369708D01*
X421401Y-368141D02*
X419833Y-366573D01*
X418266Y-366573D01*
X416698Y-368141D01*
X416698Y-371276D01*
X418266Y-372844D01*
X418266Y-363489D02*
X424536Y-363489D01*
X426104Y-361921D01*
X426104Y-358786D01*
X424536Y-357218D01*
X418266Y-357218D01*
X416698Y-358786D01*
X416698Y-361921D01*
X418266Y-363489D01*
X424536Y-357218D01*
X424536Y-354133D02*
X426104Y-352566D01*
X426104Y-349430D01*
X424536Y-347863D01*
X422969Y-347863D01*
X421401Y-349430D01*
X421401Y-350998D01*
X421401Y-349430D02*
X419833Y-347863D01*
X418266Y-347863D01*
X416698Y-349430D01*
X416698Y-352566D01*
X418266Y-354133D01*
D13*
X-403500Y-218000D02*
X-403500Y-502000D01*
X-316500Y-502000D01*
X-316500Y-218000D01*
X-403500Y-218000D01*
D14*
X-426096Y-372892D02*
X-424528Y-374460D01*
X-426096Y-372892D02*
X-426096Y-371324D01*
X-424528Y-369757D01*
X-416690Y-369757D01*
X-416690Y-371324D02*
X-416690Y-368189D01*
X-418258Y-365105D02*
X-416690Y-363537D01*
X-416690Y-360402D01*
X-418258Y-358834D01*
X-419825Y-358834D01*
X-421393Y-360402D01*
X-421393Y-361969D01*
X-421393Y-360402D02*
X-422961Y-358834D01*
X-424528Y-358834D01*
X-426096Y-360402D01*
X-426096Y-363537D01*
X-424528Y-365105D01*
X-424528Y-355749D02*
X-418258Y-355749D01*
X-416690Y-354182D01*
X-416690Y-351046D01*
X-418258Y-349479D01*
X-424528Y-349479D01*
X-426096Y-351046D01*
X-426096Y-354182D01*
X-424528Y-355749D01*
X-418258Y-349479D01*
X-416690Y-341691D02*
X-426096Y-341691D01*
X-421393Y-346394D02*
X-416690Y-341691D01*
X-421393Y-340124D02*
X-421393Y-346394D01*
D13*
X-403500Y-142000D02*
X-403500Y142000D01*
X-403500Y-142000D02*
X-316500Y-142000D01*
X-316500Y142000D01*
X-403500Y142000D01*
D14*
X-426096Y-12892D02*
X-424528Y-14460D01*
X-426096Y-12892D02*
X-426096Y-11324D01*
X-424528Y-9757D01*
X-416690Y-9757D01*
X-416690Y-11324D02*
X-416690Y-8189D01*
X-418258Y-5105D02*
X-416690Y-3537D01*
X-416690Y-402D01*
X-418258Y1166D01*
X-419825Y1166D01*
X-421393Y-402D01*
X-421393Y-1969D01*
X-421393Y-402D02*
X-422961Y1166D01*
X-424528Y1166D01*
X-426096Y-402D01*
X-426096Y-3537D01*
X-424528Y-5105D01*
X-424528Y4251D02*
X-418258Y4251D01*
X-416690Y5818D01*
X-416690Y8954D01*
X-418258Y10521D01*
X-424528Y10521D01*
X-426096Y8954D01*
X-426096Y5818D01*
X-424528Y4251D01*
X-418258Y10521D01*
X-416690Y13606D02*
X-416690Y19876D01*
X-416690Y13606D02*
X-421393Y13606D01*
X-419825Y16741D01*
X-419825Y18309D01*
X-421393Y19876D01*
X-424528Y19876D01*
X-426096Y18309D01*
X-426096Y15173D01*
X-424528Y13606D01*
D13*
X-403500Y218000D02*
X-403500Y502000D01*
X-403500Y218000D02*
X-316500Y218000D01*
X-316500Y502000D01*
X-403500Y502000D01*
D14*
X-426096Y347108D02*
X-424528Y345540D01*
X-426096Y347108D02*
X-426096Y348676D01*
X-424528Y350243D01*
X-416690Y350243D01*
X-416690Y348676D02*
X-416690Y351811D01*
X-418258Y354895D02*
X-416690Y356463D01*
X-416690Y359598D01*
X-418258Y361166D01*
X-419825Y361166D01*
X-421393Y359598D01*
X-421393Y358031D01*
X-421393Y359598D02*
X-422961Y361166D01*
X-424528Y361166D01*
X-426096Y359598D01*
X-426096Y356463D01*
X-424528Y354895D01*
X-424528Y364251D02*
X-418258Y364251D01*
X-416690Y365818D01*
X-416690Y368954D01*
X-418258Y370521D01*
X-424528Y370521D01*
X-426096Y368954D01*
X-426096Y365818D01*
X-424528Y364251D01*
X-418258Y370521D01*
X-418258Y376741D02*
X-416690Y379876D01*
X-418258Y376741D02*
X-421393Y373606D01*
X-424528Y373606D01*
X-426096Y375173D01*
X-426096Y378309D01*
X-424528Y379876D01*
X-422961Y379876D01*
X-421393Y378309D01*
X-421393Y373606D01*
D13*
X79500Y456000D02*
X116500Y456000D01*
X116500Y474000D01*
X79500Y474000D01*
X79500Y456000D01*
X96000Y463000D02*
X96000Y467000D01*
D14*
X124040Y452827D02*
X124040Y443421D01*
X119337Y443421D01*
X117769Y444989D01*
X117769Y451259D01*
X119337Y452827D01*
X124040Y452827D01*
X109982Y452827D02*
X109982Y443421D01*
X114685Y448124D02*
X109982Y452827D01*
X108414Y448124D02*
X114685Y448124D01*
X105329Y449692D02*
X102194Y452827D01*
X102194Y443421D01*
X105329Y443421D02*
X99059Y443421D01*
X95974Y444989D02*
X95974Y451259D01*
X94407Y452827D01*
X91271Y452827D01*
X89704Y451259D01*
X89704Y444989D01*
X91271Y443421D01*
X94407Y443421D01*
X95974Y444989D01*
X89704Y451259D01*
D13*
X847500Y209000D02*
X847500Y1000D01*
X847500Y209000D02*
X792500Y209000D01*
X792500Y1000D01*
X847500Y1000D01*
D14*
X779349Y102981D02*
X777781Y104549D01*
X777781Y106116D01*
X779349Y107684D01*
X787187Y107684D01*
X787187Y106116D02*
X787187Y109252D01*
X785619Y112336D02*
X787187Y113904D01*
X787187Y117039D01*
X785619Y118607D01*
X784052Y118607D01*
X782484Y117039D01*
X782484Y115472D01*
X782484Y117039D02*
X780916Y118607D01*
X779349Y118607D01*
X777781Y117039D01*
X777781Y113904D01*
X779349Y112336D01*
X784052Y121691D02*
X787187Y124827D01*
X777781Y124827D01*
X777781Y127962D02*
X777781Y121691D01*
X785619Y134182D02*
X787187Y137317D01*
X785619Y134182D02*
X782484Y131047D01*
X779349Y131047D01*
X777781Y132614D01*
X777781Y135750D01*
X779349Y137317D01*
X780916Y137317D01*
X782484Y135750D01*
X782484Y131047D01*
D13*
X847500Y-1000D02*
X847500Y-209000D01*
X847500Y-1000D02*
X792500Y-1000D01*
X792500Y-209000D01*
X847500Y-209000D01*
D14*
X779349Y-107019D02*
X777781Y-105451D01*
X777781Y-103884D01*
X779349Y-102316D01*
X787187Y-102316D01*
X787187Y-103884D02*
X787187Y-100748D01*
X785619Y-97664D02*
X787187Y-96096D01*
X787187Y-92961D01*
X785619Y-91393D01*
X784052Y-91393D01*
X782484Y-92961D01*
X782484Y-94528D01*
X782484Y-92961D02*
X780916Y-91393D01*
X779349Y-91393D01*
X777781Y-92961D01*
X777781Y-96096D01*
X779349Y-97664D01*
X777781Y-88309D02*
X777781Y-82038D01*
X777781Y-88309D02*
X784052Y-82038D01*
X785619Y-82038D01*
X787187Y-83606D01*
X787187Y-86741D01*
X785619Y-88309D01*
X785619Y-78953D02*
X779349Y-78953D01*
X785619Y-78953D02*
X787187Y-77386D01*
X787187Y-74250D01*
X785619Y-72683D01*
X779349Y-72683D01*
X777781Y-74250D01*
X777781Y-77386D01*
X779349Y-78953D01*
X785619Y-72683D01*
D13*
X-847500Y-1000D02*
X-847500Y-209000D01*
X-792500Y-209000D01*
X-792500Y-1000D01*
X-847500Y-1000D01*
D14*
X-787179Y-138072D02*
X-785611Y-139640D01*
X-787179Y-138072D02*
X-787179Y-136504D01*
X-785611Y-134937D01*
X-777773Y-134937D01*
X-777773Y-136504D02*
X-777773Y-133369D01*
X-779341Y-130285D02*
X-777773Y-128717D01*
X-777773Y-125582D01*
X-779341Y-124014D01*
X-780908Y-124014D01*
X-782476Y-125582D01*
X-782476Y-127149D01*
X-782476Y-125582D02*
X-784044Y-124014D01*
X-785611Y-124014D01*
X-787179Y-125582D01*
X-787179Y-128717D01*
X-785611Y-130285D01*
X-780908Y-120929D02*
X-777773Y-117794D01*
X-787179Y-117794D01*
X-787179Y-120929D02*
X-787179Y-114659D01*
X-785611Y-111574D02*
X-787179Y-110007D01*
X-787179Y-106871D01*
X-785611Y-105304D01*
X-779341Y-105304D01*
X-777773Y-106871D01*
X-777773Y-110007D01*
X-779341Y-111574D01*
X-780908Y-111574D01*
X-782476Y-110007D01*
X-782476Y-105304D01*
D13*
X-847500Y1000D02*
X-847500Y209000D01*
X-847500Y1000D02*
X-792500Y1000D01*
X-792500Y209000D01*
X-847500Y209000D01*
D14*
X-787179Y101928D02*
X-785611Y100360D01*
X-787179Y101928D02*
X-787179Y103496D01*
X-785611Y105063D01*
X-777773Y105063D01*
X-777773Y103496D02*
X-777773Y106631D01*
X-779341Y109715D02*
X-777773Y111283D01*
X-777773Y114418D01*
X-779341Y115986D01*
X-780908Y115986D01*
X-782476Y114418D01*
X-782476Y112851D01*
X-782476Y114418D02*
X-784044Y115986D01*
X-785611Y115986D01*
X-787179Y114418D01*
X-787179Y111283D01*
X-785611Y109715D01*
X-780908Y119071D02*
X-777773Y122206D01*
X-787179Y122206D01*
X-787179Y119071D02*
X-787179Y125341D01*
X-779341Y128426D02*
X-777773Y129993D01*
X-777773Y133129D01*
X-779341Y134696D01*
X-780908Y134696D01*
X-782476Y133129D01*
X-784044Y134696D01*
X-785611Y134696D01*
X-787179Y133129D01*
X-787179Y129993D01*
X-785611Y128426D01*
X-784044Y128426D01*
X-782476Y129993D01*
X-780908Y128426D01*
X-779341Y128426D01*
X-782476Y129993D02*
X-782476Y133129D01*
D13*
X616500Y230500D02*
X616500Y489500D01*
X616500Y230500D02*
X703500Y230500D01*
X703500Y489500D01*
X616500Y489500D01*
D14*
X600321Y344038D02*
X601889Y342471D01*
X600321Y344038D02*
X600321Y345606D01*
X601889Y347174D01*
X609727Y347174D01*
X609727Y348741D02*
X609727Y345606D01*
X608159Y351826D02*
X609727Y353393D01*
X609727Y356529D01*
X608159Y358096D01*
X606592Y358096D01*
X605024Y356529D01*
X605024Y354961D01*
X605024Y356529D02*
X603456Y358096D01*
X601889Y358096D01*
X600321Y356529D01*
X600321Y353393D01*
X601889Y351826D01*
X601889Y361181D02*
X608159Y361181D01*
X609727Y362749D01*
X609727Y365884D01*
X608159Y367452D01*
X601889Y367452D01*
X600321Y365884D01*
X600321Y362749D01*
X601889Y361181D01*
X608159Y367452D01*
X609727Y370536D02*
X609727Y376807D01*
X608159Y376807D01*
X601889Y370536D01*
X600321Y370536D01*
D13*
X754848Y375822D02*
X806835Y232989D01*
X754848Y375822D02*
X703165Y357011D01*
X755152Y214178D01*
X806835Y232989D01*
D14*
X789917Y293861D02*
X787908Y294798D01*
X787371Y296271D01*
X788308Y298280D01*
X795674Y300961D01*
X796210Y299488D02*
X795138Y302434D01*
X792610Y304796D02*
X793547Y306806D01*
X792474Y309752D01*
X790465Y310689D01*
X788992Y310153D01*
X788055Y308143D01*
X788591Y306670D01*
X788055Y308143D02*
X786046Y309080D01*
X784572Y308544D01*
X783636Y306535D01*
X784708Y303589D01*
X786717Y302652D01*
X787937Y313051D02*
X789811Y317070D01*
X780972Y313853D01*
X779900Y316799D02*
X782044Y310906D01*
X778845Y319697D02*
X776700Y325590D01*
X778845Y319697D02*
X782593Y327735D01*
X784066Y328271D01*
X786075Y327334D01*
X787147Y324388D01*
X786210Y322378D01*
D13*
X806835Y-232989D02*
X754848Y-375822D01*
X806835Y-232989D02*
X755152Y-214178D01*
X703165Y-357011D01*
X754848Y-375822D01*
D14*
X810992Y-260064D02*
X810055Y-258055D01*
X810992Y-260064D02*
X810456Y-261537D01*
X808446Y-262474D01*
X801081Y-259793D01*
X801617Y-258320D02*
X800544Y-261267D01*
X800963Y-264701D02*
X798953Y-265638D01*
X797881Y-268584D01*
X798818Y-270594D01*
X800291Y-271130D01*
X802300Y-270193D01*
X802837Y-268720D01*
X802300Y-270193D02*
X803237Y-272202D01*
X804710Y-272738D01*
X806720Y-271801D01*
X807792Y-268855D01*
X806855Y-266846D01*
X799236Y-274028D02*
X795217Y-275902D01*
X804056Y-279119D01*
X805129Y-276173D02*
X802984Y-282066D01*
X794563Y-282283D02*
X792554Y-283220D01*
X791482Y-286166D01*
X792419Y-288176D01*
X793892Y-288712D01*
X795901Y-287775D01*
X796437Y-286302D01*
X795901Y-287775D02*
X796838Y-289784D01*
X798311Y-290320D01*
X800320Y-289383D01*
X801393Y-286437D01*
X800456Y-284428D01*
D13*
X-754848Y-375822D02*
X-806835Y-232989D01*
X-754848Y-375822D02*
X-703165Y-357011D01*
X-755152Y-214178D01*
X-806835Y-232989D01*
D14*
X-785273Y-334514D02*
X-783264Y-335451D01*
X-785273Y-334514D02*
X-785809Y-333041D01*
X-784872Y-331031D01*
X-777507Y-328350D01*
X-776970Y-329823D02*
X-778043Y-326877D01*
X-780571Y-324515D02*
X-779634Y-322506D01*
X-780706Y-319559D01*
X-782716Y-318622D01*
X-784189Y-319159D01*
X-785126Y-321168D01*
X-784590Y-322641D01*
X-785126Y-321168D02*
X-787135Y-320231D01*
X-788608Y-320767D01*
X-789545Y-322776D01*
X-788473Y-325723D01*
X-786463Y-326660D01*
X-785244Y-316260D02*
X-783370Y-312241D01*
X-792209Y-315458D01*
X-793281Y-312512D02*
X-791136Y-318405D01*
X-785497Y-306397D02*
X-787642Y-300504D01*
X-785497Y-306397D02*
X-789917Y-308005D01*
X-789516Y-304523D01*
X-790052Y-303050D01*
X-792061Y-302113D01*
X-795008Y-303185D01*
X-795944Y-305194D01*
X-794872Y-308141D01*
X-792863Y-309078D01*
D13*
X-806835Y232989D02*
X-754848Y375822D01*
X-806835Y232989D02*
X-755152Y214178D01*
X-703165Y357011D01*
X-754848Y375822D01*
D14*
X-781632Y325361D02*
X-780695Y323352D01*
X-781231Y321878D01*
X-783240Y320942D01*
X-790606Y323622D01*
X-791142Y322149D02*
X-790070Y325096D01*
X-790724Y318715D02*
X-792733Y317778D01*
X-793806Y314831D01*
X-792869Y312822D01*
X-791396Y312286D01*
X-789386Y313223D01*
X-788850Y314696D01*
X-789386Y313223D02*
X-788449Y311214D01*
X-786976Y310677D01*
X-784967Y311614D01*
X-783895Y314561D01*
X-784831Y316570D01*
X-792451Y309387D02*
X-796469Y307513D01*
X-787630Y304296D01*
X-786558Y307243D02*
X-788703Y301350D01*
X-791366Y294032D02*
X-800205Y297249D01*
X-794177Y300060D01*
X-796322Y294168D01*
D15*
X-451600Y574000D02*
X-248400Y574000D01*
X-248400Y686000D02*
X-451600Y686000D01*
X-451600Y574000D01*
X-248400Y574000D02*
X-248400Y686000D01*
D13*
X-246000Y550000D02*
X-454000Y550000D01*
X-246000Y550000D02*
X-246000Y688500D01*
X-454000Y688500D01*
X-454000Y550000D01*
D14*
X-311928Y537821D02*
X-310360Y539389D01*
X-311928Y537821D02*
X-313496Y537821D01*
X-315063Y539389D01*
X-315063Y547227D01*
X-313496Y547227D02*
X-316631Y547227D01*
X-319715Y545659D02*
X-321283Y547227D01*
X-324418Y547227D01*
X-325986Y545659D01*
X-325986Y544092D01*
X-324418Y542524D01*
X-322851Y542524D01*
X-324418Y542524D02*
X-325986Y540956D01*
X-325986Y539389D01*
X-324418Y537821D01*
X-321283Y537821D01*
X-319715Y539389D01*
X-329071Y544092D02*
X-332206Y547227D01*
X-332206Y537821D01*
X-329071Y537821D02*
X-335341Y537821D01*
X-338426Y547227D02*
X-344696Y547227D01*
X-344696Y545659D01*
X-338426Y539389D01*
X-338426Y537821D01*
D13*
X-440500Y479500D02*
X-499500Y479500D01*
X-440500Y479500D02*
X-440500Y520500D01*
X-499500Y520500D01*
X-499500Y479500D01*
X-514500Y256500D02*
X-514500Y233500D01*
X-465500Y233500D01*
X-465500Y256500D01*
X-514500Y256500D01*
D14*
X-472781Y227509D02*
X-471213Y229077D01*
X-468078Y229077D01*
X-466510Y227509D01*
X-466510Y221239D01*
X-468078Y219671D01*
X-471213Y219671D01*
X-472781Y221239D01*
X-480568Y219671D02*
X-480568Y229077D01*
X-475865Y224374D01*
X-482136Y224374D01*
X-485221Y221239D02*
X-485221Y227509D01*
X-486788Y229077D01*
X-489924Y229077D01*
X-491491Y227509D01*
X-491491Y221239D01*
X-489924Y219671D01*
X-486788Y219671D01*
X-485221Y221239D01*
X-491491Y227509D01*
X-497711Y227509D02*
X-500846Y229077D01*
X-497711Y227509D02*
X-494576Y224374D01*
X-494576Y221239D01*
X-496143Y219671D01*
X-499279Y219671D01*
X-500846Y221239D01*
X-500846Y222806D01*
X-499279Y224374D01*
X-494576Y224374D01*
D13*
X-514500Y268500D02*
X-514500Y291500D01*
X-514500Y268500D02*
X-465500Y268500D01*
X-465500Y291500D01*
X-514500Y291500D01*
D14*
X-474781Y303509D02*
X-473213Y305077D01*
X-470078Y305077D01*
X-468510Y303509D01*
X-468510Y297239D01*
X-470078Y295671D01*
X-473213Y295671D01*
X-474781Y297239D01*
X-482568Y295671D02*
X-482568Y305077D01*
X-477865Y300374D01*
X-484136Y300374D01*
X-487221Y297239D02*
X-487221Y303509D01*
X-488788Y305077D01*
X-491924Y305077D01*
X-493491Y303509D01*
X-493491Y297239D01*
X-491924Y295671D01*
X-488788Y295671D01*
X-487221Y297239D01*
X-493491Y303509D01*
X-496576Y305077D02*
X-502846Y305077D01*
X-502846Y303509D01*
X-496576Y297239D01*
X-496576Y295671D01*
D13*
X509500Y390500D02*
X509500Y469500D01*
X430500Y469500D01*
X430500Y390500D01*
X509500Y390500D01*
D10*
X512508Y411798D02*
X521660Y411798D01*
X517084Y411798D02*
X517084Y417899D01*
X521660Y417899D02*
X512508Y417899D01*
X512508Y425729D02*
X521660Y425729D01*
X517084Y421153D01*
X517084Y427254D01*
X514033Y430508D02*
X520135Y430508D01*
X521660Y432033D01*
X521660Y435084D01*
X520135Y436609D01*
X514033Y436609D01*
X512508Y435084D01*
X512508Y432033D01*
X514033Y430508D01*
X520135Y436609D01*
X518609Y439863D02*
X521660Y442914D01*
X512508Y442914D01*
X512508Y445964D02*
X512508Y439863D01*
D13*
X-430500Y469500D02*
X-430500Y390500D01*
X-430500Y469500D02*
X-509500Y469500D01*
X-509500Y390500D01*
X-430500Y390500D01*
D10*
X-427492Y411798D02*
X-418340Y411798D01*
X-422916Y411798D02*
X-422916Y417899D01*
X-418340Y417899D02*
X-427492Y417899D01*
X-427492Y425729D02*
X-418340Y425729D01*
X-422916Y421153D01*
X-422916Y427254D01*
X-419866Y430508D02*
X-425967Y430508D01*
X-419866Y430508D02*
X-418340Y432033D01*
X-418340Y435084D01*
X-419866Y436609D01*
X-425967Y436609D01*
X-427492Y435084D01*
X-427492Y432033D01*
X-425967Y430508D01*
X-419866Y436609D01*
X-419866Y439863D02*
X-418340Y441388D01*
X-418340Y444439D01*
X-419866Y445964D01*
X-421391Y445964D01*
X-422916Y444439D01*
X-422916Y442914D01*
X-422916Y444439D02*
X-424441Y445964D01*
X-425967Y445964D01*
X-427492Y444439D01*
X-427492Y441388D01*
X-425967Y439863D01*
D13*
X469500Y-500500D02*
X469500Y-579500D01*
X469500Y-500500D02*
X390500Y-500500D01*
X390500Y-579500D01*
X469500Y-579500D01*
D10*
X472508Y-558202D02*
X481660Y-558202D01*
X477084Y-558202D02*
X477084Y-552101D01*
X481660Y-552101D02*
X472508Y-552101D01*
X472508Y-544271D02*
X481660Y-544271D01*
X477084Y-548847D01*
X477084Y-542746D01*
X474033Y-539492D02*
X480135Y-539492D01*
X481660Y-537967D01*
X481660Y-534916D01*
X480135Y-533391D01*
X474033Y-533391D01*
X472508Y-534916D01*
X472508Y-537967D01*
X474033Y-539492D01*
X480135Y-533391D01*
X472508Y-530137D02*
X472508Y-524036D01*
X472508Y-530137D02*
X478609Y-524036D01*
X480135Y-524036D01*
X481660Y-525561D01*
X481660Y-528612D01*
X480135Y-530137D01*
D13*
X-390500Y-500500D02*
X-390500Y-579500D01*
X-390500Y-500500D02*
X-469500Y-500500D01*
X-469500Y-579500D01*
X-390500Y-579500D01*
D10*
X-387492Y-558202D02*
X-378340Y-558202D01*
X-382916Y-558202D02*
X-382916Y-552101D01*
X-378340Y-552101D02*
X-387492Y-552101D01*
X-387492Y-544271D02*
X-378340Y-544271D01*
X-382916Y-548847D01*
X-382916Y-542746D01*
X-379866Y-539492D02*
X-385967Y-539492D01*
X-379866Y-539492D02*
X-378340Y-537967D01*
X-378340Y-534916D01*
X-379866Y-533391D01*
X-385967Y-533391D01*
X-387492Y-534916D01*
X-387492Y-537967D01*
X-385967Y-539492D01*
X-379866Y-533391D01*
X-378340Y-525561D02*
X-387492Y-525561D01*
X-382916Y-530137D02*
X-378340Y-525561D01*
X-382916Y-524036D02*
X-382916Y-530137D01*
D13*
X616500Y-489500D02*
X616500Y-230500D01*
X616500Y-489500D02*
X703500Y-489500D01*
X703500Y-230500D01*
X616500Y-230500D01*
D14*
X600321Y-375962D02*
X601889Y-377529D01*
X600321Y-375962D02*
X600321Y-374394D01*
X601889Y-372826D01*
X609727Y-372826D01*
X609727Y-371259D02*
X609727Y-374394D01*
X608159Y-368174D02*
X609727Y-366607D01*
X609727Y-363471D01*
X608159Y-361904D01*
X606592Y-361904D01*
X605024Y-363471D01*
X605024Y-365039D01*
X605024Y-363471D02*
X603456Y-361904D01*
X601889Y-361904D01*
X600321Y-363471D01*
X600321Y-366607D01*
X601889Y-368174D01*
X606592Y-358819D02*
X609727Y-355684D01*
X600321Y-355684D01*
X600321Y-358819D02*
X600321Y-352548D01*
X606592Y-349464D02*
X609727Y-346329D01*
X600321Y-346329D01*
X600321Y-349464D02*
X600321Y-343193D01*
D13*
X-616500Y-230500D02*
X-616500Y-489500D01*
X-616500Y-230500D02*
X-703500Y-230500D01*
X-703500Y-489500D01*
X-616500Y-489500D01*
D14*
X-608151Y-379129D02*
X-609719Y-377562D01*
X-609719Y-375994D01*
X-608151Y-374426D01*
X-600313Y-374426D01*
X-600313Y-372859D02*
X-600313Y-375994D01*
X-601881Y-369774D02*
X-600313Y-368207D01*
X-600313Y-365071D01*
X-601881Y-363504D01*
X-603448Y-363504D01*
X-605016Y-365071D01*
X-605016Y-366639D01*
X-605016Y-365071D02*
X-606584Y-363504D01*
X-608151Y-363504D01*
X-609719Y-365071D01*
X-609719Y-368207D01*
X-608151Y-369774D01*
X-603448Y-360419D02*
X-600313Y-357284D01*
X-609719Y-357284D01*
X-609719Y-360419D02*
X-609719Y-354148D01*
X-608151Y-351064D02*
X-601881Y-351064D01*
X-600313Y-349496D01*
X-600313Y-346361D01*
X-601881Y-344793D01*
X-608151Y-344793D01*
X-609719Y-346361D01*
X-609719Y-349496D01*
X-608151Y-351064D01*
X-601881Y-344793D01*
D13*
X-616500Y-129500D02*
X-616500Y129500D01*
X-703500Y129500D01*
X-703500Y-129500D01*
X-616500Y-129500D01*
D14*
X-608151Y-19129D02*
X-609719Y-17562D01*
X-609719Y-15994D01*
X-608151Y-14426D01*
X-600313Y-14426D01*
X-600313Y-12859D02*
X-600313Y-15994D01*
X-601881Y-9774D02*
X-600313Y-8207D01*
X-600313Y-5071D01*
X-601881Y-3504D01*
X-603448Y-3504D01*
X-605016Y-5071D01*
X-605016Y-6639D01*
X-605016Y-5071D02*
X-606584Y-3504D01*
X-608151Y-3504D01*
X-609719Y-5071D01*
X-609719Y-8207D01*
X-608151Y-9774D01*
X-608151Y-419D02*
X-601881Y-419D01*
X-600313Y1149D01*
X-600313Y4284D01*
X-601881Y5852D01*
X-608151Y5852D01*
X-609719Y4284D01*
X-609719Y1149D01*
X-608151Y-419D01*
X-601881Y5852D01*
X-608151Y8936D02*
X-609719Y10504D01*
X-609719Y13639D01*
X-608151Y15207D01*
X-601881Y15207D01*
X-600313Y13639D01*
X-600313Y10504D01*
X-601881Y8936D01*
X-603448Y8936D01*
X-605016Y10504D01*
X-605016Y15207D01*
D13*
X-616500Y230500D02*
X-616500Y489500D01*
X-703500Y489500D01*
X-703500Y230500D01*
X-616500Y230500D01*
D14*
X-608151Y340871D02*
X-609719Y342438D01*
X-609719Y344006D01*
X-608151Y345574D01*
X-600313Y345574D01*
X-600313Y347141D02*
X-600313Y344006D01*
X-601881Y350226D02*
X-600313Y351793D01*
X-600313Y354929D01*
X-601881Y356497D01*
X-603448Y356497D01*
X-605016Y354929D01*
X-605016Y353361D01*
X-605016Y354929D02*
X-606584Y356497D01*
X-608151Y356497D01*
X-609719Y354929D01*
X-609719Y351793D01*
X-608151Y350226D01*
X-608151Y359581D02*
X-601881Y359581D01*
X-600313Y361149D01*
X-600313Y364284D01*
X-601881Y365852D01*
X-608151Y365852D01*
X-609719Y364284D01*
X-609719Y361149D01*
X-608151Y359581D01*
X-601881Y365852D01*
X-601881Y368936D02*
X-600313Y370504D01*
X-600313Y373639D01*
X-601881Y375207D01*
X-603448Y375207D01*
X-605016Y373639D01*
X-606584Y375207D01*
X-608151Y375207D01*
X-609719Y373639D01*
X-609719Y370504D01*
X-608151Y368936D01*
X-606584Y368936D01*
X-605016Y370504D01*
X-603448Y368936D01*
X-601881Y368936D01*
X-605016Y370504D02*
X-605016Y373639D01*
D13*
X-38500Y-410500D02*
X-38500Y-433500D01*
X10500Y-433500D01*
X10500Y-410500D01*
X-38500Y-410500D01*
D10*
X50422Y-418497D02*
X52371Y-416548D01*
X56269Y-416548D01*
X58218Y-418497D01*
X58218Y-426293D01*
X56269Y-428242D01*
X52371Y-428242D01*
X50422Y-426293D01*
X46524Y-420446D02*
X42626Y-416548D01*
X42626Y-428242D01*
X46524Y-428242D02*
X38728Y-428242D01*
X34830Y-426293D02*
X34830Y-418497D01*
X32881Y-416548D01*
X28983Y-416548D01*
X27034Y-418497D01*
X27034Y-426293D01*
X28983Y-428242D01*
X32881Y-428242D01*
X34830Y-426293D01*
X27034Y-418497D01*
X19238Y-418497D02*
X15340Y-416548D01*
X19238Y-418497D02*
X23136Y-422395D01*
X23136Y-426293D01*
X21187Y-428242D01*
X17289Y-428242D01*
X15340Y-426293D01*
X15340Y-424344D01*
X17289Y-422395D01*
X23136Y-422395D01*
D13*
X571500Y-22500D02*
X571500Y-7500D01*
X538500Y-7500D01*
X538500Y-22500D01*
X571500Y-22500D01*
D14*
X567059Y58139D02*
X568626Y59707D01*
X571762Y59707D01*
X573329Y58139D01*
X573329Y51869D01*
X571762Y50301D01*
X568626Y50301D01*
X567059Y51869D01*
X559271Y50301D02*
X559271Y59707D01*
X563974Y55004D01*
X557704Y55004D01*
X554619Y51869D02*
X554619Y58139D01*
X553051Y59707D01*
X549916Y59707D01*
X548348Y58139D01*
X548348Y51869D01*
X549916Y50301D01*
X553051Y50301D01*
X554619Y51869D01*
X548348Y58139D01*
X545264Y58139D02*
X543696Y59707D01*
X540561Y59707D01*
X538993Y58139D01*
X538993Y56572D01*
X540561Y55004D01*
X538993Y53436D01*
X538993Y51869D01*
X540561Y50301D01*
X543696Y50301D01*
X545264Y51869D01*
X545264Y53436D01*
X543696Y55004D01*
X545264Y56572D01*
X545264Y58139D01*
X543696Y55004D02*
X540561Y55004D01*
D13*
X538500Y-87500D02*
X571500Y-87500D01*
X538500Y-87500D02*
X538500Y-102500D01*
X571500Y-102500D01*
X571500Y-87500D01*
D14*
X573329Y-165293D02*
X573329Y-174699D01*
X573329Y-165293D02*
X568626Y-165293D01*
X567059Y-166861D01*
X567059Y-169996D01*
X568626Y-171564D01*
X573329Y-171564D01*
X570194Y-171564D02*
X567059Y-174699D01*
X559271Y-174699D02*
X559271Y-165293D01*
X563974Y-169996D01*
X557704Y-169996D01*
X554619Y-173131D02*
X554619Y-166861D01*
X553051Y-165293D01*
X549916Y-165293D01*
X548348Y-166861D01*
X548348Y-173131D01*
X549916Y-174699D01*
X553051Y-174699D01*
X554619Y-173131D01*
X548348Y-166861D01*
X545264Y-165293D02*
X538993Y-165293D01*
X545264Y-165293D02*
X545264Y-169996D01*
X542128Y-168428D01*
X540561Y-168428D01*
X538993Y-169996D01*
X538993Y-173131D01*
X540561Y-174699D01*
X543696Y-174699D01*
X545264Y-173131D01*
D13*
X538500Y-107500D02*
X571500Y-107500D01*
X538500Y-107500D02*
X538500Y-122500D01*
X571500Y-122500D01*
X571500Y-107500D01*
D14*
X573329Y-180293D02*
X573329Y-189699D01*
X573329Y-180293D02*
X568626Y-180293D01*
X567059Y-181861D01*
X567059Y-184996D01*
X568626Y-186564D01*
X573329Y-186564D01*
X570194Y-186564D02*
X567059Y-189699D01*
X559271Y-189699D02*
X559271Y-180293D01*
X563974Y-184996D01*
X557704Y-184996D01*
X554619Y-188131D02*
X554619Y-181861D01*
X553051Y-180293D01*
X549916Y-180293D01*
X548348Y-181861D01*
X548348Y-188131D01*
X549916Y-189699D01*
X553051Y-189699D01*
X554619Y-188131D01*
X548348Y-181861D01*
X545264Y-181861D02*
X543696Y-180293D01*
X540561Y-180293D01*
X538993Y-181861D01*
X538993Y-183428D01*
X540561Y-184996D01*
X538993Y-186564D01*
X538993Y-188131D01*
X540561Y-189699D01*
X543696Y-189699D01*
X545264Y-188131D01*
X545264Y-186564D01*
X543696Y-184996D01*
X545264Y-183428D01*
X545264Y-181861D01*
X543696Y-184996D02*
X540561Y-184996D01*
D13*
X538500Y-2500D02*
X571500Y-2500D01*
X571500Y12500D01*
X538500Y12500D01*
X538500Y-2500D01*
D14*
X573329Y65301D02*
X573329Y74707D01*
X568626Y74707D01*
X567059Y73139D01*
X567059Y70004D01*
X568626Y68436D01*
X573329Y68436D01*
X570194Y68436D02*
X567059Y65301D01*
X559271Y65301D02*
X559271Y74707D01*
X563974Y70004D01*
X557704Y70004D01*
X554619Y66869D02*
X554619Y73139D01*
X553051Y74707D01*
X549916Y74707D01*
X548348Y73139D01*
X548348Y66869D01*
X549916Y65301D01*
X553051Y65301D01*
X554619Y66869D01*
X548348Y73139D01*
X545264Y74707D02*
X538993Y74707D01*
X538993Y73139D01*
X545264Y66869D01*
X545264Y65301D01*
D13*
X571500Y-127500D02*
X571500Y-142500D01*
X571500Y-127500D02*
X538500Y-127500D01*
X538500Y-142500D01*
X571500Y-142500D01*
D14*
X568626Y-195293D02*
X567059Y-196861D01*
X568626Y-195293D02*
X571762Y-195293D01*
X573329Y-196861D01*
X573329Y-203131D01*
X571762Y-204699D01*
X568626Y-204699D01*
X567059Y-203131D01*
X559271Y-204699D02*
X559271Y-195293D01*
X563974Y-199996D01*
X557704Y-199996D01*
X554619Y-203131D02*
X554619Y-196861D01*
X553051Y-195293D01*
X549916Y-195293D01*
X548348Y-196861D01*
X548348Y-203131D01*
X549916Y-204699D01*
X553051Y-204699D01*
X554619Y-203131D01*
X548348Y-196861D01*
X545264Y-203131D02*
X543696Y-204699D01*
X540561Y-204699D01*
X538993Y-203131D01*
X538993Y-196861D01*
X540561Y-195293D01*
X543696Y-195293D01*
X545264Y-196861D01*
X545264Y-198428D01*
X543696Y-199996D01*
X538993Y-199996D01*
D13*
X571500Y-82500D02*
X571500Y-67500D01*
X538500Y-67500D01*
X538500Y-82500D01*
X571500Y-82500D01*
D14*
X568626Y-150293D02*
X567059Y-151861D01*
X568626Y-150293D02*
X571762Y-150293D01*
X573329Y-151861D01*
X573329Y-158131D01*
X571762Y-159699D01*
X568626Y-159699D01*
X567059Y-158131D01*
X559271Y-159699D02*
X559271Y-150293D01*
X563974Y-154996D01*
X557704Y-154996D01*
X554619Y-158131D02*
X554619Y-151861D01*
X553051Y-150293D01*
X549916Y-150293D01*
X548348Y-151861D01*
X548348Y-158131D01*
X549916Y-159699D01*
X553051Y-159699D01*
X554619Y-158131D01*
X548348Y-151861D01*
X545264Y-151861D02*
X543696Y-150293D01*
X540561Y-150293D01*
X538993Y-151861D01*
X538993Y-153428D01*
X540561Y-154996D01*
X542128Y-154996D01*
X540561Y-154996D02*
X538993Y-156564D01*
X538993Y-158131D01*
X540561Y-159699D01*
X543696Y-159699D01*
X545264Y-158131D01*
D10*
X76500Y-359152D02*
X67348Y-359152D01*
X76500Y-362202D02*
X76500Y-356101D01*
X67348Y-352847D02*
X67348Y-346746D01*
X67348Y-352847D02*
X73449Y-346746D01*
X74975Y-346746D01*
X76500Y-348271D01*
X76500Y-351322D01*
X74975Y-352847D01*
X74975Y-343492D02*
X68873Y-343492D01*
X74975Y-343492D02*
X76500Y-341967D01*
X76500Y-338916D01*
X74975Y-337391D01*
X68873Y-337391D01*
X67348Y-338916D01*
X67348Y-341967D01*
X68873Y-343492D01*
X74975Y-337391D01*
X73449Y-334137D02*
X76500Y-331086D01*
X67348Y-331086D01*
X67348Y-328036D02*
X67348Y-334137D01*
X-48500Y-320152D02*
X-57652Y-320152D01*
X-48500Y-323202D02*
X-48500Y-317101D01*
X-57652Y-313847D02*
X-57652Y-307746D01*
X-57652Y-313847D02*
X-51551Y-307746D01*
X-50026Y-307746D01*
X-48500Y-309271D01*
X-48500Y-312322D01*
X-50026Y-313847D01*
X-50026Y-304492D02*
X-56127Y-304492D01*
X-50026Y-304492D02*
X-48500Y-302967D01*
X-48500Y-299916D01*
X-50026Y-298391D01*
X-56127Y-298391D01*
X-57652Y-299916D01*
X-57652Y-302967D01*
X-56127Y-304492D01*
X-50026Y-298391D01*
X-57652Y-295137D02*
X-57652Y-289036D01*
X-57652Y-295137D02*
X-51551Y-289036D01*
X-50026Y-289036D01*
X-48500Y-290561D01*
X-48500Y-293612D01*
X-50026Y-295137D01*
X-135348Y-353500D02*
X-135348Y-362652D01*
X-132298Y-353500D02*
X-138399Y-353500D01*
X-141653Y-362652D02*
X-147754Y-362652D01*
X-141653Y-362652D02*
X-147754Y-356551D01*
X-147754Y-355026D01*
X-146229Y-353500D01*
X-143178Y-353500D01*
X-141653Y-355026D01*
X-151008Y-355026D02*
X-151008Y-361127D01*
X-151008Y-355026D02*
X-152533Y-353500D01*
X-155584Y-353500D01*
X-157109Y-355026D01*
X-157109Y-361127D01*
X-155584Y-362652D01*
X-152533Y-362652D01*
X-151008Y-361127D01*
X-157109Y-355026D01*
X-160363Y-355026D02*
X-161888Y-353500D01*
X-164939Y-353500D01*
X-166464Y-355026D01*
X-166464Y-356551D01*
X-164939Y-358076D01*
X-163414Y-358076D01*
X-164939Y-358076D02*
X-166464Y-359601D01*
X-166464Y-361127D01*
X-164939Y-362652D01*
X-161888Y-362652D01*
X-160363Y-361127D01*
D13*
X308500Y246500D02*
X308500Y283500D01*
X271500Y283500D01*
X271500Y246500D01*
X308500Y246500D01*
D10*
X295660Y287120D02*
X286508Y287120D01*
X295660Y287120D02*
X295660Y291696D01*
X294135Y293221D01*
X291084Y293221D01*
X289559Y291696D01*
X289559Y287120D01*
X289559Y290171D02*
X286508Y293221D01*
X286508Y296475D02*
X295660Y296475D01*
X286508Y302576D01*
X295660Y302576D01*
X295660Y305830D02*
X295660Y311932D01*
X295660Y305830D02*
X291084Y305830D01*
X292609Y308881D01*
X292609Y310406D01*
X291084Y311932D01*
X288033Y311932D01*
X286508Y310406D01*
X286508Y307356D01*
X288033Y305830D01*
X288033Y315186D02*
X294135Y315186D01*
X295660Y316711D01*
X295660Y319762D01*
X294135Y321287D01*
X288033Y321287D01*
X286508Y319762D01*
X286508Y316711D01*
X288033Y315186D01*
X294135Y321287D01*
X292609Y324541D02*
X295660Y327591D01*
X286508Y327591D01*
X286508Y324541D02*
X286508Y330642D01*
D13*
X308500Y-431500D02*
X308500Y-468500D01*
X308500Y-431500D02*
X271500Y-431500D01*
X271500Y-468500D01*
X308500Y-468500D01*
D10*
X295660Y-427880D02*
X286508Y-427880D01*
X295660Y-427880D02*
X295660Y-423304D01*
X294135Y-421779D01*
X291084Y-421779D01*
X289559Y-423304D01*
X289559Y-427880D01*
X289559Y-424829D02*
X286508Y-421779D01*
X286508Y-418525D02*
X295660Y-418525D01*
X286508Y-412424D01*
X295660Y-412424D01*
X295660Y-409170D02*
X295660Y-403068D01*
X295660Y-409170D02*
X291084Y-409170D01*
X292609Y-406119D01*
X292609Y-404594D01*
X291084Y-403068D01*
X288033Y-403068D01*
X286508Y-404594D01*
X286508Y-407644D01*
X288033Y-409170D01*
X288033Y-399814D02*
X294135Y-399814D01*
X295660Y-398289D01*
X295660Y-395239D01*
X294135Y-393713D01*
X288033Y-393713D01*
X286508Y-395239D01*
X286508Y-398289D01*
X288033Y-399814D01*
X294135Y-393713D01*
X294135Y-390459D02*
X295660Y-388934D01*
X295660Y-385883D01*
X294135Y-384358D01*
X292609Y-384358D01*
X291084Y-385883D01*
X291084Y-387409D01*
X291084Y-385883D02*
X289559Y-384358D01*
X288033Y-384358D01*
X286508Y-385883D01*
X286508Y-388934D01*
X288033Y-390459D01*
D13*
X-308500Y-283500D02*
X-308500Y-246500D01*
X-308500Y-283500D02*
X-271500Y-283500D01*
X-271500Y-246500D01*
X-308500Y-246500D01*
D10*
X-295652Y-242880D02*
X-286500Y-242880D01*
X-286500Y-238304D01*
X-288026Y-236779D01*
X-291076Y-236779D01*
X-292601Y-238304D01*
X-292601Y-242880D01*
X-292601Y-239829D02*
X-295652Y-236779D01*
X-295652Y-233525D02*
X-286500Y-233525D01*
X-295652Y-227424D01*
X-286500Y-227424D01*
X-286500Y-224170D02*
X-286500Y-218068D01*
X-286500Y-224170D02*
X-291076Y-224170D01*
X-289551Y-221119D01*
X-289551Y-219594D01*
X-291076Y-218068D01*
X-294127Y-218068D01*
X-295652Y-219594D01*
X-295652Y-222644D01*
X-294127Y-224170D01*
X-294127Y-214814D02*
X-288026Y-214814D01*
X-286500Y-213289D01*
X-286500Y-210239D01*
X-288026Y-208713D01*
X-294127Y-208713D01*
X-295652Y-210239D01*
X-295652Y-213289D01*
X-294127Y-214814D01*
X-288026Y-208713D01*
X-286500Y-200883D02*
X-295652Y-200883D01*
X-291076Y-205459D02*
X-286500Y-200883D01*
X-291076Y-199358D02*
X-291076Y-205459D01*
D13*
X308500Y-113500D02*
X308500Y-76500D01*
X271500Y-76500D01*
X271500Y-113500D01*
X308500Y-113500D01*
D10*
X295660Y-72880D02*
X286508Y-72880D01*
X295660Y-72880D02*
X295660Y-68304D01*
X294135Y-66779D01*
X291084Y-66779D01*
X289559Y-68304D01*
X289559Y-72880D01*
X289559Y-69829D02*
X286508Y-66779D01*
X286508Y-63525D02*
X295660Y-63525D01*
X286508Y-57424D01*
X295660Y-57424D01*
X295660Y-54170D02*
X295660Y-48068D01*
X295660Y-54170D02*
X291084Y-54170D01*
X292609Y-51119D01*
X292609Y-49594D01*
X291084Y-48068D01*
X288033Y-48068D01*
X286508Y-49594D01*
X286508Y-52644D01*
X288033Y-54170D01*
X288033Y-44814D02*
X294135Y-44814D01*
X295660Y-43289D01*
X295660Y-40239D01*
X294135Y-38713D01*
X288033Y-38713D01*
X286508Y-40239D01*
X286508Y-43289D01*
X288033Y-44814D01*
X294135Y-38713D01*
X286508Y-35459D02*
X286508Y-29358D01*
X286508Y-35459D02*
X292609Y-29358D01*
X294135Y-29358D01*
X295660Y-30883D01*
X295660Y-33934D01*
X294135Y-35459D01*
D13*
X-308500Y71500D02*
X-308500Y108500D01*
X-308500Y71500D02*
X-271500Y71500D01*
X-271500Y108500D01*
X-308500Y108500D01*
D10*
X-295652Y112120D02*
X-286500Y112120D01*
X-286500Y116696D01*
X-288026Y118221D01*
X-291076Y118221D01*
X-292601Y116696D01*
X-292601Y112120D01*
X-292601Y115171D02*
X-295652Y118221D01*
X-295652Y121475D02*
X-286500Y121475D01*
X-295652Y127576D01*
X-286500Y127576D01*
X-286500Y130830D02*
X-286500Y136932D01*
X-286500Y130830D02*
X-291076Y130830D01*
X-289551Y133881D01*
X-289551Y135406D01*
X-291076Y136932D01*
X-294127Y136932D01*
X-295652Y135406D01*
X-295652Y132356D01*
X-294127Y130830D01*
X-294127Y140186D02*
X-288026Y140186D01*
X-286500Y141711D01*
X-286500Y144761D01*
X-288026Y146287D01*
X-294127Y146287D01*
X-295652Y144761D01*
X-295652Y141711D01*
X-294127Y140186D01*
X-288026Y146287D01*
X-286500Y149541D02*
X-286500Y155642D01*
X-286500Y149541D02*
X-291076Y149541D01*
X-289551Y152591D01*
X-289551Y154117D01*
X-291076Y155642D01*
X-294127Y155642D01*
X-295652Y154117D01*
X-295652Y151066D01*
X-294127Y149541D01*
D13*
X-308500Y431500D02*
X-308500Y468500D01*
X-308500Y431500D02*
X-271500Y431500D01*
X-271500Y468500D01*
X-308500Y468500D01*
D10*
X-295652Y472120D02*
X-286500Y472120D01*
X-286500Y476696D01*
X-288026Y478221D01*
X-291076Y478221D01*
X-292601Y476696D01*
X-292601Y472120D01*
X-292601Y475171D02*
X-295652Y478221D01*
X-295652Y481475D02*
X-286500Y481475D01*
X-295652Y487576D01*
X-286500Y487576D01*
X-286500Y490830D02*
X-286500Y496932D01*
X-286500Y490830D02*
X-291076Y490830D01*
X-289551Y493881D01*
X-289551Y495406D01*
X-291076Y496932D01*
X-294127Y496932D01*
X-295652Y495406D01*
X-295652Y492356D01*
X-294127Y490830D01*
X-294127Y500186D02*
X-288026Y500186D01*
X-286500Y501711D01*
X-286500Y504761D01*
X-288026Y506287D01*
X-294127Y506287D01*
X-295652Y504761D01*
X-295652Y501711D01*
X-294127Y500186D01*
X-288026Y506287D01*
X-288026Y512591D02*
X-286500Y515642D01*
X-288026Y512591D02*
X-291076Y509541D01*
X-294127Y509541D01*
X-295652Y511066D01*
X-295652Y514117D01*
X-294127Y515642D01*
X-292601Y515642D01*
X-291076Y514117D01*
X-291076Y509541D01*
D13*
X-93500Y-605000D02*
X-56500Y-605000D01*
X-93500Y-605000D02*
X-93500Y-625000D01*
X-56500Y-625000D01*
X-56500Y-605000D01*
D10*
X-61374Y-628000D02*
X-62899Y-629526D01*
X-61374Y-628000D02*
X-58323Y-628000D01*
X-56798Y-629526D01*
X-56798Y-635627D01*
X-58323Y-637152D01*
X-61374Y-637152D01*
X-62899Y-635627D01*
X-66153Y-631051D02*
X-69203Y-628000D01*
X-69203Y-637152D01*
X-66153Y-637152D02*
X-72254Y-637152D01*
X-75508Y-635627D02*
X-75508Y-629526D01*
X-77033Y-628000D01*
X-80084Y-628000D01*
X-81609Y-629526D01*
X-81609Y-635627D01*
X-80084Y-637152D01*
X-77033Y-637152D01*
X-75508Y-635627D01*
X-81609Y-629526D01*
X-84863Y-629526D02*
X-86388Y-628000D01*
X-89439Y-628000D01*
X-90964Y-629526D01*
X-90964Y-631051D01*
X-89439Y-632576D01*
X-87914Y-632576D01*
X-89439Y-632576D02*
X-90964Y-634101D01*
X-90964Y-635627D01*
X-89439Y-637152D01*
X-86388Y-637152D01*
X-84863Y-635627D01*
D16*
X53250Y-619500D02*
X53252Y-619430D01*
X53258Y-619360D01*
X53268Y-619291D01*
X53281Y-619222D01*
X53299Y-619154D01*
X53320Y-619087D01*
X53345Y-619022D01*
X53374Y-618958D01*
X53406Y-618895D01*
X53442Y-618835D01*
X53481Y-618777D01*
X53523Y-618721D01*
X53568Y-618667D01*
X53616Y-618616D01*
X53667Y-618568D01*
X53721Y-618523D01*
X53777Y-618481D01*
X53835Y-618442D01*
X53895Y-618406D01*
X53958Y-618374D01*
X54022Y-618345D01*
X54087Y-618320D01*
X54154Y-618299D01*
X54222Y-618281D01*
X54291Y-618268D01*
X54360Y-618258D01*
X54430Y-618252D01*
X54500Y-618250D01*
X54570Y-618252D01*
X54640Y-618258D01*
X54709Y-618268D01*
X54778Y-618281D01*
X54846Y-618299D01*
X54913Y-618320D01*
X54978Y-618345D01*
X55042Y-618374D01*
X55105Y-618406D01*
X55165Y-618442D01*
X55223Y-618481D01*
X55279Y-618523D01*
X55333Y-618568D01*
X55384Y-618616D01*
X55432Y-618667D01*
X55477Y-618721D01*
X55519Y-618777D01*
X55558Y-618835D01*
X55594Y-618895D01*
X55626Y-618958D01*
X55655Y-619022D01*
X55680Y-619087D01*
X55701Y-619154D01*
X55719Y-619222D01*
X55732Y-619291D01*
X55742Y-619360D01*
X55748Y-619430D01*
X55750Y-619500D01*
X55748Y-619570D01*
X55742Y-619640D01*
X55732Y-619709D01*
X55719Y-619778D01*
X55701Y-619846D01*
X55680Y-619913D01*
X55655Y-619978D01*
X55626Y-620042D01*
X55594Y-620105D01*
X55558Y-620165D01*
X55519Y-620223D01*
X55477Y-620279D01*
X55432Y-620333D01*
X55384Y-620384D01*
X55333Y-620432D01*
X55279Y-620477D01*
X55223Y-620519D01*
X55165Y-620558D01*
X55105Y-620594D01*
X55042Y-620626D01*
X54978Y-620655D01*
X54913Y-620680D01*
X54846Y-620701D01*
X54778Y-620719D01*
X54709Y-620732D01*
X54640Y-620742D01*
X54570Y-620748D01*
X54500Y-620750D01*
X54430Y-620748D01*
X54360Y-620742D01*
X54291Y-620732D01*
X54222Y-620719D01*
X54154Y-620701D01*
X54087Y-620680D01*
X54022Y-620655D01*
X53958Y-620626D01*
X53895Y-620594D01*
X53835Y-620558D01*
X53777Y-620519D01*
X53721Y-620477D01*
X53667Y-620432D01*
X53616Y-620384D01*
X53568Y-620333D01*
X53523Y-620279D01*
X53481Y-620223D01*
X53442Y-620165D01*
X53406Y-620105D01*
X53374Y-620042D01*
X53345Y-619978D01*
X53320Y-619913D01*
X53299Y-619846D01*
X53281Y-619778D01*
X53268Y-619709D01*
X53258Y-619640D01*
X53252Y-619570D01*
X53250Y-619500D01*
D17*
X-47000Y-584000D02*
X-47000Y-482000D01*
X-47000Y-584000D02*
X53000Y-584000D01*
X53000Y-482000D02*
X-47000Y-482000D01*
X53000Y-482000D02*
X53000Y-584000D01*
D13*
X163500Y524000D02*
X163500Y672500D01*
X163500Y524000D02*
X256500Y524000D01*
X256500Y672500D01*
X163500Y672500D01*
D10*
X222101Y630975D02*
X223627Y632500D01*
X226677Y632500D01*
X228202Y630975D01*
X228202Y629449D01*
X226677Y627924D01*
X223627Y627924D01*
X222101Y626399D01*
X222101Y624873D01*
X223627Y623348D01*
X226677Y623348D01*
X228202Y624873D01*
X218847Y629449D02*
X215797Y632500D01*
X215797Y623348D01*
X218847Y623348D02*
X212746Y623348D01*
X209492Y624873D02*
X209492Y630975D01*
X207967Y632500D01*
X204916Y632500D01*
X203391Y630975D01*
X203391Y624873D01*
X204916Y623348D01*
X207967Y623348D01*
X209492Y624873D01*
X203391Y630975D01*
X200137Y629449D02*
X197086Y632500D01*
X197086Y623348D01*
X194036Y623348D02*
X200137Y623348D01*
D13*
X24500Y225000D02*
X-64500Y225000D01*
X-64500Y155000D01*
X24500Y155000D01*
X24500Y225000D01*
D10*
X-69026Y171798D02*
X-75127Y171798D01*
X-69026Y171798D02*
X-67500Y173323D01*
X-67500Y176374D01*
X-69026Y177899D01*
X-75127Y177899D01*
X-76652Y176374D01*
X-76652Y173323D01*
X-75127Y171798D01*
X-73601Y174848D02*
X-76652Y177899D01*
X-70551Y181153D02*
X-67500Y184203D01*
X-76652Y184203D01*
X-76652Y181153D02*
X-76652Y187254D01*
X-75127Y190508D02*
X-69026Y190508D01*
X-67500Y192033D01*
X-67500Y195084D01*
X-69026Y196609D01*
X-75127Y196609D01*
X-76652Y195084D01*
X-76652Y192033D01*
X-75127Y190508D01*
X-69026Y196609D01*
X-69026Y199863D02*
X-67500Y201388D01*
X-67500Y204439D01*
X-69026Y205964D01*
X-70551Y205964D01*
X-72076Y204439D01*
X-72076Y202914D01*
X-72076Y204439D02*
X-73601Y205964D01*
X-75127Y205964D01*
X-76652Y204439D01*
X-76652Y201388D01*
X-75127Y199863D01*
D13*
X-40000Y231500D02*
X-40000Y268500D01*
X-60000Y268500D01*
X-60000Y231500D01*
X-40000Y231500D01*
D10*
X-36992Y231798D02*
X-27840Y231798D01*
X-27840Y236374D01*
X-29366Y237899D01*
X-32416Y237899D01*
X-33941Y236374D01*
X-33941Y231798D01*
X-33941Y234848D02*
X-36992Y237899D01*
X-30891Y241153D02*
X-27840Y244203D01*
X-36992Y244203D01*
X-36992Y241153D02*
X-36992Y247254D01*
X-35467Y250508D02*
X-29366Y250508D01*
X-27840Y252033D01*
X-27840Y255084D01*
X-29366Y256609D01*
X-35467Y256609D01*
X-36992Y255084D01*
X-36992Y252033D01*
X-35467Y250508D01*
X-29366Y256609D01*
X-27840Y259863D02*
X-27840Y265964D01*
X-29366Y265964D01*
X-35467Y259863D01*
X-36992Y259863D01*
D13*
X-60000Y268500D02*
X-60000Y231500D01*
X-60000Y268500D02*
X-80000Y268500D01*
X-80000Y231500D01*
X-60000Y231500D01*
D10*
X-56992Y231798D02*
X-47840Y231798D01*
X-47840Y236374D01*
X-49366Y237899D01*
X-52416Y237899D01*
X-53941Y236374D01*
X-53941Y231798D01*
X-53941Y234848D02*
X-56992Y237899D01*
X-50891Y241153D02*
X-47840Y244203D01*
X-56992Y244203D01*
X-56992Y241153D02*
X-56992Y247254D01*
X-55467Y250508D02*
X-49366Y250508D01*
X-47840Y252033D01*
X-47840Y255084D01*
X-49366Y256609D01*
X-55467Y256609D01*
X-56992Y255084D01*
X-56992Y252033D01*
X-55467Y250508D01*
X-49366Y256609D01*
X-49366Y259863D02*
X-47840Y261388D01*
X-47840Y264439D01*
X-49366Y265964D01*
X-50891Y265964D01*
X-52416Y264439D01*
X-53941Y265964D01*
X-55467Y265964D01*
X-56992Y264439D01*
X-56992Y261388D01*
X-55467Y259863D01*
X-53941Y259863D01*
X-52416Y261388D01*
X-50891Y259863D01*
X-49366Y259863D01*
X-52416Y261388D02*
X-52416Y264439D01*
D13*
X3500Y247500D02*
X36500Y247500D01*
X3500Y247500D02*
X3500Y232500D01*
X36500Y232500D01*
X36500Y247500D01*
D10*
X38202Y250508D02*
X38202Y259660D01*
X33626Y259660D01*
X32101Y258135D01*
X32101Y255084D01*
X33626Y253559D01*
X38202Y253559D01*
X35152Y253559D02*
X32101Y250508D01*
X28847Y256609D02*
X25797Y259660D01*
X25797Y250508D01*
X28847Y250508D02*
X22746Y250508D01*
X19492Y252033D02*
X19492Y258135D01*
X17967Y259660D01*
X14916Y259660D01*
X13391Y258135D01*
X13391Y252033D01*
X14916Y250508D01*
X17967Y250508D01*
X19492Y252033D01*
X13391Y258135D01*
X10137Y252033D02*
X8612Y250508D01*
X5561Y250508D01*
X4036Y252033D01*
X4036Y258135D01*
X5561Y259660D01*
X8612Y259660D01*
X10137Y258135D01*
X10137Y256609D01*
X8612Y255084D01*
X4036Y255084D01*
D13*
X42500Y246500D02*
X57500Y246500D01*
X42500Y246500D02*
X42500Y213500D01*
X57500Y213500D01*
X57500Y246500D01*
D10*
X37975Y217899D02*
X39500Y216374D01*
X39500Y213323D01*
X37975Y211798D01*
X31873Y211798D01*
X30348Y213323D01*
X30348Y216374D01*
X31873Y217899D01*
X36449Y221153D02*
X39500Y224203D01*
X30348Y224203D01*
X30348Y221153D02*
X30348Y227254D01*
X36449Y230508D02*
X39500Y233559D01*
X30348Y233559D01*
X30348Y236609D02*
X30348Y230508D01*
X31873Y239863D02*
X37975Y239863D01*
X39500Y241388D01*
X39500Y244439D01*
X37975Y245964D01*
X31873Y245964D01*
X30348Y244439D01*
X30348Y241388D01*
X31873Y239863D01*
X37975Y245964D01*
D13*
X532500Y103500D02*
X532500Y-125500D01*
X532500Y103500D02*
X477500Y103500D01*
X477500Y-125500D01*
X532500Y-125500D01*
D10*
X523202Y-136127D02*
X521677Y-137652D01*
X520152Y-137652D01*
X518627Y-136127D01*
X518627Y-128500D01*
X520152Y-128500D02*
X517101Y-128500D01*
X509271Y-128500D02*
X509271Y-137652D01*
X513847Y-133076D02*
X509271Y-128500D01*
X507746Y-133076D02*
X513847Y-133076D01*
X504492Y-136127D02*
X504492Y-130026D01*
X502967Y-128500D01*
X499916Y-128500D01*
X498391Y-130026D01*
X498391Y-136127D01*
X499916Y-137652D01*
X502967Y-137652D01*
X504492Y-136127D01*
X498391Y-130026D01*
X495137Y-130026D02*
X493612Y-128500D01*
X490561Y-128500D01*
X489036Y-130026D01*
X489036Y-131551D01*
X490561Y-133076D01*
X492086Y-133076D01*
X490561Y-133076D02*
X489036Y-134601D01*
X489036Y-136127D01*
X490561Y-137652D01*
X493612Y-137652D01*
X495137Y-136127D01*
D13*
X668500Y-116500D02*
X668500Y116500D01*
X581500Y116500D01*
X581500Y-116500D01*
X668500Y-116500D01*
D10*
X673033Y-18202D02*
X671508Y-16677D01*
X671508Y-15152D01*
X673033Y-13626D01*
X680660Y-13626D01*
X680660Y-12101D02*
X680660Y-15152D01*
X680660Y-4271D02*
X671508Y-4271D01*
X676084Y-8847D02*
X680660Y-4271D01*
X676084Y-2746D02*
X676084Y-8847D01*
X673033Y508D02*
X679135Y508D01*
X680660Y2033D01*
X680660Y5084D01*
X679135Y6609D01*
X673033Y6609D01*
X671508Y5084D01*
X671508Y2033D01*
X673033Y508D01*
X679135Y6609D01*
X680660Y14439D02*
X671508Y14439D01*
X676084Y9863D02*
X680660Y14439D01*
X676084Y15964D02*
X676084Y9863D01*
D13*
X-58500Y-602500D02*
X-91500Y-602500D01*
X-58500Y-602500D02*
X-58500Y-587500D01*
X-91500Y-587500D01*
X-91500Y-602500D01*
D10*
X-56798Y-587652D02*
X-56798Y-578500D01*
X-61374Y-578500D01*
X-62899Y-580026D01*
X-62899Y-583076D01*
X-61374Y-584601D01*
X-56798Y-584601D01*
X-59848Y-584601D02*
X-62899Y-587652D01*
X-66153Y-581551D02*
X-69203Y-578500D01*
X-69203Y-587652D01*
X-66153Y-587652D02*
X-72254Y-587652D01*
X-75508Y-586127D02*
X-75508Y-580026D01*
X-77033Y-578500D01*
X-80084Y-578500D01*
X-81609Y-580026D01*
X-81609Y-586127D01*
X-80084Y-587652D01*
X-77033Y-587652D01*
X-75508Y-586127D01*
X-81609Y-580026D01*
X-84863Y-587652D02*
X-90964Y-587652D01*
X-84863Y-587652D02*
X-90964Y-581551D01*
X-90964Y-580026D01*
X-89439Y-578500D01*
X-86388Y-578500D01*
X-84863Y-580026D01*
D13*
X538500Y-47500D02*
X571500Y-47500D01*
X538500Y-47500D02*
X538500Y-62500D01*
X571500Y-62500D01*
X571500Y-47500D01*
D10*
X573202Y20508D02*
X573202Y29660D01*
X568626Y29660D01*
X567101Y28135D01*
X567101Y25084D01*
X568626Y23559D01*
X573202Y23559D01*
X570152Y23559D02*
X567101Y20508D01*
X559271Y20508D02*
X559271Y29660D01*
X563847Y25084D01*
X557746Y25084D01*
X554492Y22033D02*
X554492Y28135D01*
X552967Y29660D01*
X549916Y29660D01*
X548391Y28135D01*
X548391Y22033D01*
X549916Y20508D01*
X552967Y20508D01*
X554492Y22033D01*
X548391Y28135D01*
X542086Y28135D02*
X539036Y29660D01*
X542086Y28135D02*
X545137Y25084D01*
X545137Y22033D01*
X543612Y20508D01*
X540561Y20508D01*
X539036Y22033D01*
X539036Y23559D01*
X540561Y25084D01*
X545137Y25084D01*
D13*
X538500Y-27500D02*
X538500Y-42500D01*
X571500Y-42500D01*
X571500Y-27500D01*
X538500Y-27500D01*
D10*
X567101Y42975D02*
X568627Y44500D01*
X571677Y44500D01*
X573202Y42975D01*
X573202Y36873D01*
X571677Y35348D01*
X568627Y35348D01*
X567101Y36873D01*
X559271Y35348D02*
X559271Y44500D01*
X563847Y39924D01*
X557746Y39924D01*
X554492Y36873D02*
X554492Y42975D01*
X552967Y44500D01*
X549916Y44500D01*
X548391Y42975D01*
X548391Y36873D01*
X549916Y35348D01*
X552967Y35348D01*
X554492Y36873D01*
X548391Y42975D01*
X540561Y44500D02*
X540561Y35348D01*
X545137Y39924D02*
X540561Y44500D01*
X539036Y39924D02*
X545137Y39924D01*
M02*
