G04 EAGLE Gerber RS-274X export*
G75*
%MOMM*%
%FSLAX34Y34*%
%LPD*%
%INSoldermask Bottom*%
%IPPOS*%
%AMOC8*
5,1,8,0,0,1.08239X$1,22.5*%
G01*
%ADD10C,0.605000*%
%ADD11C,0.300000*%
%ADD12C,1.200000*%
%ADD13C,1.471600*%
%ADD14C,0.901000*%
%ADD15C,0.301000*%
%ADD16C,1.600000*%
%ADD17C,0.306000*%
%ADD18C,0.297000*%
%ADD19C,5.100000*%
%ADD20C,3.300000*%
%ADD21C,2.350000*%
%ADD22C,2.700000*%
%ADD23C,1.300000*%
%ADD24C,1.900000*%
%ADD25C,4.500000*%
%ADD26C,0.756000*%
%ADD27C,0.290222*%
%ADD28C,0.299000*%
%ADD29C,1.375000*%
%ADD30C,1.150000*%
%ADD31C,0.850000*%

G36*
X-429930Y-577500D02*
X-429930Y-577500D01*
X-429860Y-577495D01*
X-429790Y-577490D01*
X-429720Y-577485D01*
X-429650Y-577480D01*
X-429580Y-577475D01*
X-429510Y-577470D01*
X-429440Y-577465D01*
X-429370Y-577460D01*
X-429301Y-577455D01*
X-429300Y-577455D01*
X-429231Y-577450D01*
X-429161Y-577445D01*
X-429091Y-577440D01*
X-429021Y-577435D01*
X-428951Y-577430D01*
X-428881Y-577425D01*
X-428811Y-577420D01*
X-428741Y-577415D01*
X-428671Y-577410D01*
X-428601Y-577405D01*
X-428532Y-577400D01*
X-428531Y-577400D01*
X-428462Y-577395D01*
X-428392Y-577390D01*
X-428322Y-577385D01*
X-428252Y-577380D01*
X-428182Y-577375D01*
X-428112Y-577370D01*
X-428042Y-577365D01*
X-427972Y-577360D01*
X-427902Y-577355D01*
X-427832Y-577350D01*
X-427763Y-577345D01*
X-427762Y-577345D01*
X-427693Y-577340D01*
X-427623Y-577335D01*
X-427553Y-577330D01*
X-427483Y-577325D01*
X-427413Y-577320D01*
X-427343Y-577315D01*
X-427273Y-577310D01*
X-427203Y-577305D01*
X-427133Y-577300D01*
X-427063Y-577295D01*
X-426994Y-577290D01*
X-426993Y-577290D01*
X-426924Y-577285D01*
X-426854Y-577280D01*
X-426784Y-577275D01*
X-426714Y-577270D01*
X-426644Y-577265D01*
X-426574Y-577260D01*
X-426504Y-577255D01*
X-426434Y-577250D01*
X-426364Y-577245D01*
X-426294Y-577240D01*
X-426224Y-577235D01*
X-426155Y-577230D01*
X-426085Y-577225D01*
X-426015Y-577220D01*
X-425945Y-577215D01*
X-425875Y-577210D01*
X-425805Y-577205D01*
X-425735Y-577200D01*
X-425665Y-577195D01*
X-425595Y-577190D01*
X-425525Y-577185D01*
X-425455Y-577180D01*
X-425386Y-577175D01*
X-425385Y-577175D01*
X-425316Y-577170D01*
X-425246Y-577165D01*
X-425176Y-577160D01*
X-425106Y-577155D01*
X-425036Y-577150D01*
X-424966Y-577145D01*
X-424896Y-577140D01*
X-424826Y-577135D01*
X-424756Y-577130D01*
X-424686Y-577125D01*
X-424663Y-577123D01*
X-424662Y-577123D01*
X-419434Y-575986D01*
X-419434Y-575985D01*
X-419433Y-575986D01*
X-414420Y-574116D01*
X-414420Y-574115D01*
X-414420Y-574116D01*
X-409724Y-571551D01*
X-409723Y-571551D01*
X-405440Y-568345D01*
X-405440Y-568344D01*
X-405439Y-568344D01*
X-401656Y-564561D01*
X-401656Y-564560D01*
X-401655Y-564560D01*
X-398449Y-560277D01*
X-398449Y-560276D01*
X-395884Y-555580D01*
X-395885Y-555580D01*
X-395884Y-555580D01*
X-394014Y-550567D01*
X-394015Y-550566D01*
X-394014Y-550566D01*
X-392877Y-545338D01*
X-392877Y-545337D01*
X-392495Y-540000D01*
X-392877Y-534663D01*
X-392877Y-534662D01*
X-394014Y-529434D01*
X-394015Y-529434D01*
X-394014Y-529433D01*
X-395884Y-524420D01*
X-395885Y-524420D01*
X-395884Y-524420D01*
X-398449Y-519724D01*
X-398449Y-519723D01*
X-401655Y-515440D01*
X-401656Y-515440D01*
X-401656Y-515439D01*
X-405439Y-511656D01*
X-405440Y-511656D01*
X-405440Y-511655D01*
X-409723Y-508449D01*
X-409724Y-508449D01*
X-414420Y-505884D01*
X-414420Y-505885D01*
X-414420Y-505884D01*
X-419433Y-504014D01*
X-419434Y-504015D01*
X-419434Y-504014D01*
X-424662Y-502877D01*
X-424663Y-502877D01*
X-430000Y-502495D01*
X-435337Y-502877D01*
X-435338Y-502877D01*
X-440566Y-504014D01*
X-440566Y-504015D01*
X-440567Y-504014D01*
X-445580Y-505884D01*
X-445580Y-505885D01*
X-445580Y-505884D01*
X-450276Y-508449D01*
X-450277Y-508449D01*
X-454560Y-511655D01*
X-454560Y-511656D01*
X-454561Y-511656D01*
X-458344Y-515439D01*
X-458344Y-515440D01*
X-458345Y-515440D01*
X-461551Y-519723D01*
X-461551Y-519724D01*
X-464116Y-524420D01*
X-464115Y-524420D01*
X-464116Y-524420D01*
X-465986Y-529433D01*
X-465985Y-529434D01*
X-465986Y-529434D01*
X-467123Y-534662D01*
X-467123Y-534663D01*
X-467505Y-540000D01*
X-467123Y-545337D01*
X-467123Y-545338D01*
X-465986Y-550566D01*
X-465985Y-550566D01*
X-465986Y-550567D01*
X-464116Y-555580D01*
X-464115Y-555580D01*
X-464116Y-555580D01*
X-461551Y-560276D01*
X-461551Y-560277D01*
X-458345Y-564560D01*
X-458344Y-564560D01*
X-458344Y-564561D01*
X-454561Y-568344D01*
X-454560Y-568344D01*
X-454560Y-568345D01*
X-450277Y-571551D01*
X-450276Y-571551D01*
X-445580Y-574116D01*
X-445580Y-574115D01*
X-445580Y-574116D01*
X-440567Y-575986D01*
X-440566Y-575985D01*
X-440566Y-575986D01*
X-435338Y-577123D01*
X-435337Y-577123D01*
X-435314Y-577125D01*
X-435244Y-577130D01*
X-435174Y-577135D01*
X-435104Y-577140D01*
X-435034Y-577145D01*
X-434964Y-577150D01*
X-434894Y-577155D01*
X-434824Y-577160D01*
X-434754Y-577165D01*
X-434684Y-577170D01*
X-434615Y-577175D01*
X-434614Y-577175D01*
X-434545Y-577180D01*
X-434475Y-577185D01*
X-434405Y-577190D01*
X-434335Y-577195D01*
X-434265Y-577200D01*
X-434195Y-577205D01*
X-434125Y-577210D01*
X-434055Y-577215D01*
X-433985Y-577220D01*
X-433915Y-577225D01*
X-433846Y-577230D01*
X-433845Y-577230D01*
X-433776Y-577235D01*
X-433706Y-577240D01*
X-433636Y-577245D01*
X-433566Y-577250D01*
X-433496Y-577255D01*
X-433426Y-577260D01*
X-433356Y-577265D01*
X-433286Y-577270D01*
X-433216Y-577275D01*
X-433146Y-577280D01*
X-433077Y-577285D01*
X-433076Y-577285D01*
X-433007Y-577290D01*
X-432937Y-577295D01*
X-432867Y-577300D01*
X-432797Y-577305D01*
X-432727Y-577310D01*
X-432657Y-577315D01*
X-432587Y-577320D01*
X-432517Y-577325D01*
X-432447Y-577330D01*
X-432377Y-577335D01*
X-432308Y-577340D01*
X-432307Y-577340D01*
X-432238Y-577345D01*
X-432168Y-577350D01*
X-432098Y-577355D01*
X-432028Y-577360D01*
X-431958Y-577365D01*
X-431888Y-577370D01*
X-431818Y-577375D01*
X-431748Y-577380D01*
X-431678Y-577385D01*
X-431608Y-577390D01*
X-431539Y-577395D01*
X-431538Y-577395D01*
X-431469Y-577400D01*
X-431468Y-577400D01*
X-431399Y-577405D01*
X-431329Y-577410D01*
X-431259Y-577415D01*
X-431189Y-577420D01*
X-431119Y-577425D01*
X-431049Y-577430D01*
X-430979Y-577435D01*
X-430909Y-577440D01*
X-430839Y-577445D01*
X-430769Y-577450D01*
X-430700Y-577455D01*
X-430699Y-577455D01*
X-430630Y-577460D01*
X-430560Y-577465D01*
X-430490Y-577470D01*
X-430420Y-577475D01*
X-430350Y-577480D01*
X-430280Y-577485D01*
X-430210Y-577490D01*
X-430140Y-577495D01*
X-430070Y-577500D01*
X-430000Y-577505D01*
X-429930Y-577500D01*
G37*
G36*
X430070Y-577500D02*
X430070Y-577500D01*
X430140Y-577495D01*
X430210Y-577490D01*
X430280Y-577485D01*
X430350Y-577480D01*
X430420Y-577475D01*
X430490Y-577470D01*
X430560Y-577465D01*
X430630Y-577460D01*
X430699Y-577455D01*
X430700Y-577455D01*
X430769Y-577450D01*
X430839Y-577445D01*
X430909Y-577440D01*
X430979Y-577435D01*
X431049Y-577430D01*
X431119Y-577425D01*
X431189Y-577420D01*
X431259Y-577415D01*
X431329Y-577410D01*
X431399Y-577405D01*
X431468Y-577400D01*
X431469Y-577400D01*
X431538Y-577395D01*
X431608Y-577390D01*
X431678Y-577385D01*
X431748Y-577380D01*
X431818Y-577375D01*
X431888Y-577370D01*
X431958Y-577365D01*
X432028Y-577360D01*
X432098Y-577355D01*
X432168Y-577350D01*
X432238Y-577345D01*
X432307Y-577340D01*
X432377Y-577335D01*
X432447Y-577330D01*
X432517Y-577325D01*
X432587Y-577320D01*
X432657Y-577315D01*
X432727Y-577310D01*
X432797Y-577305D01*
X432867Y-577300D01*
X432937Y-577295D01*
X433007Y-577290D01*
X433076Y-577285D01*
X433077Y-577285D01*
X433146Y-577280D01*
X433216Y-577275D01*
X433286Y-577270D01*
X433356Y-577265D01*
X433426Y-577260D01*
X433496Y-577255D01*
X433566Y-577250D01*
X433636Y-577245D01*
X433706Y-577240D01*
X433776Y-577235D01*
X433845Y-577230D01*
X433846Y-577230D01*
X433915Y-577225D01*
X433985Y-577220D01*
X434055Y-577215D01*
X434125Y-577210D01*
X434195Y-577205D01*
X434265Y-577200D01*
X434335Y-577195D01*
X434405Y-577190D01*
X434475Y-577185D01*
X434545Y-577180D01*
X434614Y-577175D01*
X434615Y-577175D01*
X434684Y-577170D01*
X434754Y-577165D01*
X434824Y-577160D01*
X434894Y-577155D01*
X434964Y-577150D01*
X435034Y-577145D01*
X435104Y-577140D01*
X435174Y-577135D01*
X435244Y-577130D01*
X435314Y-577125D01*
X435337Y-577123D01*
X435338Y-577123D01*
X440566Y-575986D01*
X440566Y-575985D01*
X440567Y-575986D01*
X445580Y-574116D01*
X445580Y-574115D01*
X445580Y-574116D01*
X450276Y-571551D01*
X450277Y-571551D01*
X454560Y-568345D01*
X454560Y-568344D01*
X454561Y-568344D01*
X458344Y-564561D01*
X458344Y-564560D01*
X458345Y-564560D01*
X461551Y-560277D01*
X461551Y-560276D01*
X464116Y-555580D01*
X464115Y-555580D01*
X464116Y-555580D01*
X465986Y-550567D01*
X465985Y-550566D01*
X465986Y-550566D01*
X467123Y-545338D01*
X467123Y-545337D01*
X467505Y-540000D01*
X467123Y-534663D01*
X467123Y-534662D01*
X465986Y-529434D01*
X465985Y-529434D01*
X465986Y-529433D01*
X464116Y-524420D01*
X464115Y-524420D01*
X464116Y-524420D01*
X461551Y-519724D01*
X461551Y-519723D01*
X458345Y-515440D01*
X458344Y-515440D01*
X458344Y-515439D01*
X454561Y-511656D01*
X454560Y-511656D01*
X454560Y-511655D01*
X450277Y-508449D01*
X450276Y-508449D01*
X445580Y-505884D01*
X445580Y-505885D01*
X445580Y-505884D01*
X440567Y-504014D01*
X440566Y-504015D01*
X440566Y-504014D01*
X435338Y-502877D01*
X435337Y-502877D01*
X430000Y-502495D01*
X424663Y-502877D01*
X424662Y-502877D01*
X419434Y-504014D01*
X419434Y-504015D01*
X419433Y-504014D01*
X414420Y-505884D01*
X414420Y-505885D01*
X414420Y-505884D01*
X409724Y-508449D01*
X409723Y-508449D01*
X405440Y-511655D01*
X405440Y-511656D01*
X405439Y-511656D01*
X401656Y-515439D01*
X401656Y-515440D01*
X401655Y-515440D01*
X398449Y-519723D01*
X398449Y-519724D01*
X395884Y-524420D01*
X395885Y-524420D01*
X395884Y-524420D01*
X394014Y-529433D01*
X394015Y-529434D01*
X394014Y-529434D01*
X392877Y-534662D01*
X392877Y-534663D01*
X392495Y-540000D01*
X392877Y-545337D01*
X392877Y-545338D01*
X394014Y-550566D01*
X394015Y-550566D01*
X394014Y-550567D01*
X395884Y-555580D01*
X395885Y-555580D01*
X395884Y-555580D01*
X398449Y-560276D01*
X398449Y-560277D01*
X401655Y-564560D01*
X401656Y-564560D01*
X401656Y-564561D01*
X405439Y-568344D01*
X405440Y-568344D01*
X405440Y-568345D01*
X409723Y-571551D01*
X409724Y-571551D01*
X414420Y-574116D01*
X414420Y-574115D01*
X414420Y-574116D01*
X419433Y-575986D01*
X419434Y-575985D01*
X419434Y-575986D01*
X424662Y-577123D01*
X424663Y-577123D01*
X424686Y-577125D01*
X424756Y-577130D01*
X424826Y-577135D01*
X424896Y-577140D01*
X424966Y-577145D01*
X425036Y-577150D01*
X425106Y-577155D01*
X425176Y-577160D01*
X425246Y-577165D01*
X425316Y-577170D01*
X425385Y-577175D01*
X425386Y-577175D01*
X425455Y-577180D01*
X425525Y-577185D01*
X425595Y-577190D01*
X425665Y-577195D01*
X425735Y-577200D01*
X425805Y-577205D01*
X425875Y-577210D01*
X425945Y-577215D01*
X426015Y-577220D01*
X426085Y-577225D01*
X426154Y-577230D01*
X426155Y-577230D01*
X426224Y-577235D01*
X426294Y-577240D01*
X426364Y-577245D01*
X426434Y-577250D01*
X426504Y-577255D01*
X426574Y-577260D01*
X426644Y-577265D01*
X426714Y-577270D01*
X426784Y-577275D01*
X426854Y-577280D01*
X426923Y-577285D01*
X426924Y-577285D01*
X426993Y-577290D01*
X426994Y-577290D01*
X427063Y-577295D01*
X427133Y-577300D01*
X427203Y-577305D01*
X427273Y-577310D01*
X427343Y-577315D01*
X427413Y-577320D01*
X427483Y-577325D01*
X427553Y-577330D01*
X427623Y-577335D01*
X427693Y-577340D01*
X427762Y-577345D01*
X427763Y-577345D01*
X427832Y-577350D01*
X427902Y-577355D01*
X427972Y-577360D01*
X428042Y-577365D01*
X428112Y-577370D01*
X428182Y-577375D01*
X428252Y-577380D01*
X428322Y-577385D01*
X428392Y-577390D01*
X428462Y-577395D01*
X428531Y-577400D01*
X428532Y-577400D01*
X428601Y-577405D01*
X428671Y-577410D01*
X428741Y-577415D01*
X428811Y-577420D01*
X428881Y-577425D01*
X428951Y-577430D01*
X429021Y-577435D01*
X429091Y-577440D01*
X429161Y-577445D01*
X429231Y-577450D01*
X429300Y-577455D01*
X429301Y-577455D01*
X429370Y-577460D01*
X429440Y-577465D01*
X429510Y-577470D01*
X429580Y-577475D01*
X429650Y-577480D01*
X429720Y-577485D01*
X429790Y-577490D01*
X429860Y-577495D01*
X429930Y-577500D01*
X430000Y-577505D01*
X430070Y-577500D01*
G37*
G36*
X-464663Y392877D02*
X-464663Y392877D01*
X-464662Y392877D01*
X-459434Y394014D01*
X-459434Y394015D01*
X-459433Y394014D01*
X-454420Y395884D01*
X-454420Y395885D01*
X-454420Y395884D01*
X-449724Y398449D01*
X-449723Y398449D01*
X-445440Y401655D01*
X-445440Y401656D01*
X-445439Y401656D01*
X-441656Y405439D01*
X-441656Y405440D01*
X-441655Y405440D01*
X-438449Y409723D01*
X-438449Y409724D01*
X-435884Y414420D01*
X-435885Y414420D01*
X-435884Y414420D01*
X-434014Y419433D01*
X-434015Y419434D01*
X-434014Y419434D01*
X-432877Y424662D01*
X-432877Y424663D01*
X-432495Y430000D01*
X-432877Y435337D01*
X-432877Y435338D01*
X-434014Y440566D01*
X-434015Y440566D01*
X-434014Y440567D01*
X-435884Y445580D01*
X-435885Y445580D01*
X-435884Y445580D01*
X-438449Y450276D01*
X-438449Y450277D01*
X-441655Y454560D01*
X-441656Y454560D01*
X-441656Y454561D01*
X-445439Y458344D01*
X-445440Y458344D01*
X-445440Y458345D01*
X-449723Y461551D01*
X-449724Y461551D01*
X-454420Y464116D01*
X-454420Y464115D01*
X-454420Y464116D01*
X-459433Y465986D01*
X-459434Y465985D01*
X-459434Y465986D01*
X-464662Y467123D01*
X-464663Y467123D01*
X-464708Y467127D01*
X-464777Y467131D01*
X-464847Y467136D01*
X-464916Y467141D01*
X-464986Y467146D01*
X-465055Y467151D01*
X-465125Y467156D01*
X-465194Y467161D01*
X-465264Y467166D01*
X-465333Y467171D01*
X-465402Y467176D01*
X-465403Y467176D01*
X-465472Y467181D01*
X-465541Y467186D01*
X-465542Y467186D01*
X-465611Y467191D01*
X-465680Y467196D01*
X-465750Y467201D01*
X-465819Y467206D01*
X-465889Y467211D01*
X-465958Y467216D01*
X-466028Y467221D01*
X-466097Y467226D01*
X-466167Y467231D01*
X-466236Y467236D01*
X-466306Y467241D01*
X-466375Y467246D01*
X-466445Y467251D01*
X-466514Y467256D01*
X-466584Y467261D01*
X-466653Y467266D01*
X-466722Y467271D01*
X-466723Y467271D01*
X-466792Y467276D01*
X-466861Y467281D01*
X-466862Y467281D01*
X-466931Y467286D01*
X-467000Y467290D01*
X-467001Y467290D01*
X-467070Y467295D01*
X-467139Y467300D01*
X-467209Y467305D01*
X-467278Y467310D01*
X-467348Y467315D01*
X-467417Y467320D01*
X-467487Y467325D01*
X-467556Y467330D01*
X-467626Y467335D01*
X-467695Y467340D01*
X-467765Y467345D01*
X-467834Y467350D01*
X-467904Y467355D01*
X-467973Y467360D01*
X-468042Y467365D01*
X-468043Y467365D01*
X-468112Y467370D01*
X-468181Y467375D01*
X-468182Y467375D01*
X-468251Y467380D01*
X-468320Y467385D01*
X-468321Y467385D01*
X-468390Y467390D01*
X-468459Y467395D01*
X-468529Y467400D01*
X-468598Y467405D01*
X-468668Y467410D01*
X-468737Y467415D01*
X-468807Y467420D01*
X-468876Y467425D01*
X-468946Y467430D01*
X-469015Y467435D01*
X-469085Y467440D01*
X-469154Y467445D01*
X-469224Y467449D01*
X-469293Y467454D01*
X-469363Y467459D01*
X-469432Y467464D01*
X-469501Y467469D01*
X-469502Y467469D01*
X-469571Y467474D01*
X-469640Y467479D01*
X-469641Y467479D01*
X-469710Y467484D01*
X-469779Y467489D01*
X-469849Y467494D01*
X-469918Y467499D01*
X-469988Y467504D01*
X-470000Y467505D01*
X-470012Y467504D01*
X-470082Y467499D01*
X-470151Y467494D01*
X-470221Y467489D01*
X-470290Y467484D01*
X-470360Y467479D01*
X-470429Y467474D01*
X-470498Y467469D01*
X-470499Y467469D01*
X-470568Y467464D01*
X-470637Y467459D01*
X-470707Y467454D01*
X-470776Y467449D01*
X-470846Y467445D01*
X-470915Y467440D01*
X-470985Y467435D01*
X-471054Y467430D01*
X-471124Y467425D01*
X-471193Y467420D01*
X-471263Y467415D01*
X-471332Y467410D01*
X-471402Y467405D01*
X-471471Y467400D01*
X-471541Y467395D01*
X-471610Y467390D01*
X-471680Y467385D01*
X-471749Y467380D01*
X-471818Y467375D01*
X-471819Y467375D01*
X-471888Y467370D01*
X-471957Y467365D01*
X-471958Y467365D01*
X-472027Y467360D01*
X-472096Y467355D01*
X-472166Y467350D01*
X-472235Y467345D01*
X-472305Y467340D01*
X-472374Y467335D01*
X-472444Y467330D01*
X-472513Y467325D01*
X-472583Y467320D01*
X-472652Y467315D01*
X-472722Y467310D01*
X-472791Y467305D01*
X-472861Y467300D01*
X-472930Y467295D01*
X-473000Y467290D01*
X-473069Y467286D01*
X-473138Y467281D01*
X-473139Y467281D01*
X-473208Y467276D01*
X-473277Y467271D01*
X-473278Y467271D01*
X-473347Y467266D01*
X-473416Y467261D01*
X-473486Y467256D01*
X-473555Y467251D01*
X-473625Y467246D01*
X-473694Y467241D01*
X-473764Y467236D01*
X-473833Y467231D01*
X-473903Y467226D01*
X-473972Y467221D01*
X-474042Y467216D01*
X-474111Y467211D01*
X-474181Y467206D01*
X-474250Y467201D01*
X-474320Y467196D01*
X-474389Y467191D01*
X-474458Y467186D01*
X-474459Y467186D01*
X-474528Y467181D01*
X-474597Y467176D01*
X-474598Y467176D01*
X-474667Y467171D01*
X-474736Y467166D01*
X-474806Y467161D01*
X-474875Y467156D01*
X-474945Y467151D01*
X-475014Y467146D01*
X-475084Y467141D01*
X-475153Y467136D01*
X-475223Y467131D01*
X-475292Y467127D01*
X-475337Y467123D01*
X-475338Y467123D01*
X-480566Y465986D01*
X-480566Y465985D01*
X-480567Y465986D01*
X-485580Y464116D01*
X-485580Y464115D01*
X-485580Y464116D01*
X-490276Y461551D01*
X-490277Y461551D01*
X-494560Y458345D01*
X-494560Y458344D01*
X-494561Y458344D01*
X-498344Y454561D01*
X-498344Y454560D01*
X-498345Y454560D01*
X-501551Y450277D01*
X-501551Y450276D01*
X-504116Y445580D01*
X-504115Y445580D01*
X-504116Y445580D01*
X-505986Y440567D01*
X-505985Y440566D01*
X-505986Y440566D01*
X-507123Y435338D01*
X-507123Y435337D01*
X-507505Y430000D01*
X-507123Y424663D01*
X-507123Y424662D01*
X-505986Y419434D01*
X-505985Y419434D01*
X-505986Y419433D01*
X-504116Y414420D01*
X-504115Y414420D01*
X-504116Y414420D01*
X-501551Y409724D01*
X-501551Y409723D01*
X-498345Y405440D01*
X-498344Y405440D01*
X-498344Y405439D01*
X-494561Y401656D01*
X-494560Y401656D01*
X-494560Y401655D01*
X-490277Y398449D01*
X-490276Y398449D01*
X-485580Y395884D01*
X-485580Y395885D01*
X-485580Y395884D01*
X-480567Y394014D01*
X-480566Y394015D01*
X-480566Y394014D01*
X-475338Y392877D01*
X-475337Y392877D01*
X-470000Y392495D01*
X-464663Y392877D01*
G37*
G36*
X475337Y392877D02*
X475337Y392877D01*
X475338Y392877D01*
X480566Y394014D01*
X480566Y394015D01*
X480567Y394014D01*
X485580Y395884D01*
X485580Y395885D01*
X485580Y395884D01*
X490276Y398449D01*
X490277Y398449D01*
X494560Y401655D01*
X494560Y401656D01*
X494561Y401656D01*
X498344Y405439D01*
X498344Y405440D01*
X498345Y405440D01*
X501551Y409723D01*
X501551Y409724D01*
X504116Y414420D01*
X504115Y414420D01*
X504116Y414420D01*
X505986Y419433D01*
X505985Y419434D01*
X505986Y419434D01*
X507123Y424662D01*
X507123Y424663D01*
X507505Y430000D01*
X507123Y435337D01*
X507123Y435338D01*
X505986Y440566D01*
X505985Y440566D01*
X505986Y440567D01*
X504116Y445580D01*
X504115Y445580D01*
X504116Y445580D01*
X501551Y450276D01*
X501551Y450277D01*
X498345Y454560D01*
X498344Y454560D01*
X498344Y454561D01*
X494561Y458344D01*
X494560Y458344D01*
X494560Y458345D01*
X490277Y461551D01*
X490276Y461551D01*
X485580Y464116D01*
X485580Y464115D01*
X485580Y464116D01*
X480567Y465986D01*
X480566Y465985D01*
X480566Y465986D01*
X475338Y467123D01*
X475337Y467123D01*
X475292Y467127D01*
X475223Y467131D01*
X475153Y467136D01*
X475084Y467141D01*
X475014Y467146D01*
X474945Y467151D01*
X474875Y467156D01*
X474806Y467161D01*
X474736Y467166D01*
X474667Y467171D01*
X474598Y467176D01*
X474597Y467176D01*
X474528Y467181D01*
X474459Y467186D01*
X474458Y467186D01*
X474389Y467191D01*
X474320Y467196D01*
X474250Y467201D01*
X474181Y467206D01*
X474111Y467211D01*
X474042Y467216D01*
X473972Y467221D01*
X473903Y467226D01*
X473833Y467231D01*
X473764Y467236D01*
X473694Y467241D01*
X473625Y467246D01*
X473555Y467251D01*
X473486Y467256D01*
X473416Y467261D01*
X473347Y467266D01*
X473278Y467271D01*
X473277Y467271D01*
X473208Y467276D01*
X473139Y467281D01*
X473138Y467281D01*
X473069Y467286D01*
X473000Y467290D01*
X472930Y467295D01*
X472861Y467300D01*
X472791Y467305D01*
X472722Y467310D01*
X472652Y467315D01*
X472583Y467320D01*
X472513Y467325D01*
X472444Y467330D01*
X472374Y467335D01*
X472305Y467340D01*
X472235Y467345D01*
X472166Y467350D01*
X472096Y467355D01*
X472027Y467360D01*
X471958Y467365D01*
X471957Y467365D01*
X471888Y467370D01*
X471819Y467375D01*
X471818Y467375D01*
X471749Y467380D01*
X471680Y467385D01*
X471610Y467390D01*
X471541Y467395D01*
X471471Y467400D01*
X471402Y467405D01*
X471332Y467410D01*
X471263Y467415D01*
X471193Y467420D01*
X471124Y467425D01*
X471054Y467430D01*
X470985Y467435D01*
X470915Y467440D01*
X470846Y467445D01*
X470776Y467449D01*
X470707Y467454D01*
X470638Y467459D01*
X470637Y467459D01*
X470568Y467464D01*
X470499Y467469D01*
X470498Y467469D01*
X470429Y467474D01*
X470360Y467479D01*
X470290Y467484D01*
X470221Y467489D01*
X470151Y467494D01*
X470082Y467499D01*
X470012Y467504D01*
X470000Y467505D01*
X469988Y467504D01*
X469918Y467499D01*
X469849Y467494D01*
X469779Y467489D01*
X469710Y467484D01*
X469641Y467479D01*
X469640Y467479D01*
X469571Y467474D01*
X469502Y467469D01*
X469501Y467469D01*
X469432Y467464D01*
X469363Y467459D01*
X469293Y467454D01*
X469224Y467449D01*
X469154Y467445D01*
X469085Y467440D01*
X469015Y467435D01*
X468946Y467430D01*
X468876Y467425D01*
X468807Y467420D01*
X468737Y467415D01*
X468668Y467410D01*
X468598Y467405D01*
X468529Y467400D01*
X468459Y467395D01*
X468390Y467390D01*
X468321Y467385D01*
X468320Y467385D01*
X468251Y467380D01*
X468182Y467375D01*
X468181Y467375D01*
X468112Y467370D01*
X468043Y467365D01*
X467973Y467360D01*
X467904Y467355D01*
X467834Y467350D01*
X467765Y467345D01*
X467695Y467340D01*
X467626Y467335D01*
X467556Y467330D01*
X467487Y467325D01*
X467417Y467320D01*
X467348Y467315D01*
X467278Y467310D01*
X467209Y467305D01*
X467139Y467300D01*
X467070Y467295D01*
X467001Y467290D01*
X467000Y467290D01*
X466931Y467286D01*
X466862Y467281D01*
X466861Y467281D01*
X466792Y467276D01*
X466723Y467271D01*
X466653Y467266D01*
X466584Y467261D01*
X466514Y467256D01*
X466445Y467251D01*
X466375Y467246D01*
X466306Y467241D01*
X466236Y467236D01*
X466167Y467231D01*
X466097Y467226D01*
X466028Y467221D01*
X465958Y467216D01*
X465889Y467211D01*
X465819Y467206D01*
X465750Y467201D01*
X465680Y467196D01*
X465611Y467191D01*
X465542Y467186D01*
X465541Y467186D01*
X465472Y467181D01*
X465403Y467176D01*
X465333Y467171D01*
X465264Y467166D01*
X465194Y467161D01*
X465125Y467156D01*
X465055Y467151D01*
X464986Y467146D01*
X464916Y467141D01*
X464847Y467136D01*
X464777Y467131D01*
X464708Y467127D01*
X464663Y467123D01*
X464662Y467123D01*
X459434Y465986D01*
X459434Y465985D01*
X459433Y465986D01*
X454420Y464116D01*
X454420Y464115D01*
X454420Y464116D01*
X449724Y461551D01*
X449723Y461551D01*
X445440Y458345D01*
X445440Y458344D01*
X445439Y458344D01*
X441656Y454561D01*
X441656Y454560D01*
X441655Y454560D01*
X438449Y450277D01*
X438449Y450276D01*
X435884Y445580D01*
X435885Y445580D01*
X435884Y445580D01*
X434014Y440567D01*
X434015Y440566D01*
X434014Y440566D01*
X432877Y435338D01*
X432877Y435337D01*
X432495Y430000D01*
X432877Y424663D01*
X432877Y424662D01*
X434014Y419434D01*
X434015Y419434D01*
X434014Y419433D01*
X435884Y414420D01*
X435885Y414420D01*
X435884Y414420D01*
X438449Y409724D01*
X438449Y409723D01*
X441655Y405440D01*
X441656Y405440D01*
X441656Y405439D01*
X445439Y401656D01*
X445440Y401656D01*
X445440Y401655D01*
X449723Y398449D01*
X449724Y398449D01*
X454420Y395884D01*
X454420Y395885D01*
X454420Y395884D01*
X459433Y394014D01*
X459434Y394015D01*
X459434Y394014D01*
X464662Y392877D01*
X464663Y392877D01*
X470000Y392495D01*
X475337Y392877D01*
G37*
G36*
X364020Y691242D02*
X364020Y691242D01*
X364039Y691240D01*
X364141Y691262D01*
X364243Y691279D01*
X364260Y691288D01*
X364280Y691292D01*
X364369Y691345D01*
X364460Y691394D01*
X364474Y691408D01*
X364491Y691418D01*
X364558Y691497D01*
X364630Y691572D01*
X364638Y691590D01*
X364651Y691605D01*
X364690Y691701D01*
X364733Y691795D01*
X364735Y691815D01*
X364743Y691833D01*
X364761Y692000D01*
X364761Y752000D01*
X364758Y752020D01*
X364760Y752039D01*
X364738Y752141D01*
X364722Y752243D01*
X364712Y752260D01*
X364708Y752280D01*
X364655Y752369D01*
X364606Y752460D01*
X364592Y752474D01*
X364582Y752491D01*
X364503Y752558D01*
X364428Y752630D01*
X364410Y752638D01*
X364395Y752651D01*
X364299Y752690D01*
X364205Y752733D01*
X364185Y752735D01*
X364167Y752743D01*
X364000Y752761D01*
X325000Y752761D01*
X324980Y752758D01*
X324961Y752760D01*
X324859Y752738D01*
X324757Y752722D01*
X324740Y752712D01*
X324720Y752708D01*
X324631Y752655D01*
X324540Y752606D01*
X324526Y752592D01*
X324509Y752582D01*
X324442Y752503D01*
X324371Y752428D01*
X324362Y752410D01*
X324349Y752395D01*
X324310Y752299D01*
X324267Y752205D01*
X324265Y752185D01*
X324257Y752167D01*
X324239Y752000D01*
X324239Y692000D01*
X324242Y691980D01*
X324240Y691961D01*
X324262Y691859D01*
X324279Y691757D01*
X324288Y691740D01*
X324292Y691720D01*
X324345Y691631D01*
X324394Y691540D01*
X324408Y691526D01*
X324418Y691509D01*
X324497Y691442D01*
X324572Y691371D01*
X324590Y691362D01*
X324605Y691349D01*
X324701Y691310D01*
X324795Y691267D01*
X324815Y691265D01*
X324833Y691257D01*
X325000Y691239D01*
X364000Y691239D01*
X364020Y691242D01*
G37*
%LPC*%
G36*
X-433363Y-561230D02*
X-433363Y-561230D01*
X-436642Y-560443D01*
X-439759Y-559152D01*
X-442634Y-557390D01*
X-445199Y-555199D01*
X-447390Y-552634D01*
X-449152Y-549759D01*
X-450443Y-546642D01*
X-451230Y-543363D01*
X-451495Y-540000D01*
X-451230Y-536637D01*
X-450443Y-533358D01*
X-449152Y-530242D01*
X-447390Y-527366D01*
X-445199Y-524801D01*
X-442634Y-522610D01*
X-439759Y-520848D01*
X-436642Y-519557D01*
X-433363Y-518770D01*
X-430000Y-518505D01*
X-429619Y-518535D01*
X-429556Y-518540D01*
X-428984Y-518585D01*
X-428920Y-518590D01*
X-428285Y-518640D01*
X-428221Y-518645D01*
X-427650Y-518690D01*
X-427586Y-518695D01*
X-426951Y-518745D01*
X-426887Y-518750D01*
X-426637Y-518770D01*
X-423358Y-519557D01*
X-420242Y-520848D01*
X-417366Y-522610D01*
X-414801Y-524801D01*
X-412610Y-527366D01*
X-410848Y-530242D01*
X-409557Y-533358D01*
X-408770Y-536637D01*
X-408505Y-540000D01*
X-408770Y-543363D01*
X-409557Y-546642D01*
X-410848Y-549759D01*
X-412610Y-552634D01*
X-414801Y-555199D01*
X-417366Y-557390D01*
X-420242Y-559152D01*
X-423358Y-560443D01*
X-426637Y-561230D01*
X-430000Y-561495D01*
X-433363Y-561230D01*
G37*
%LPD*%
%LPC*%
G36*
X426637Y-561230D02*
X426637Y-561230D01*
X423358Y-560443D01*
X420242Y-559152D01*
X417366Y-557390D01*
X414801Y-555199D01*
X412610Y-552634D01*
X410848Y-549759D01*
X409557Y-546642D01*
X408770Y-543363D01*
X408505Y-540000D01*
X408770Y-536637D01*
X409557Y-533358D01*
X410848Y-530242D01*
X412610Y-527366D01*
X414801Y-524801D01*
X417366Y-522610D01*
X420242Y-520848D01*
X423358Y-519557D01*
X426637Y-518770D01*
X430000Y-518505D01*
X430381Y-518535D01*
X430444Y-518540D01*
X431016Y-518585D01*
X431080Y-518590D01*
X431715Y-518640D01*
X431779Y-518645D01*
X432350Y-518690D01*
X432414Y-518695D01*
X433049Y-518745D01*
X433113Y-518750D01*
X433363Y-518770D01*
X436642Y-519557D01*
X439759Y-520848D01*
X442634Y-522610D01*
X445199Y-524801D01*
X447390Y-527366D01*
X449152Y-530242D01*
X450443Y-533358D01*
X451230Y-536637D01*
X451495Y-540000D01*
X451230Y-543363D01*
X450443Y-546642D01*
X449152Y-549759D01*
X447390Y-552634D01*
X445199Y-555199D01*
X442634Y-557390D01*
X439759Y-559152D01*
X436642Y-560443D01*
X433363Y-561230D01*
X430000Y-561495D01*
X426637Y-561230D01*
G37*
%LPD*%
%LPC*%
G36*
X-470118Y408514D02*
X-470118Y408514D01*
X-470434Y408539D01*
X-470749Y408564D01*
X-470939Y408579D01*
X-471254Y408604D01*
X-471570Y408629D01*
X-471886Y408653D01*
X-472075Y408668D01*
X-472391Y408693D01*
X-472707Y408718D01*
X-473022Y408743D01*
X-473212Y408758D01*
X-473363Y408770D01*
X-476642Y409557D01*
X-479759Y410848D01*
X-482634Y412610D01*
X-485199Y414801D01*
X-487390Y417366D01*
X-489152Y420242D01*
X-490443Y423358D01*
X-491230Y426637D01*
X-491495Y430000D01*
X-491230Y433363D01*
X-490443Y436642D01*
X-489152Y439759D01*
X-487390Y442634D01*
X-485199Y445199D01*
X-482634Y447390D01*
X-479759Y449152D01*
X-476642Y450443D01*
X-473363Y451230D01*
X-470000Y451495D01*
X-466637Y451230D01*
X-463358Y450443D01*
X-460242Y449152D01*
X-457366Y447390D01*
X-454801Y445199D01*
X-452610Y442634D01*
X-450848Y439759D01*
X-449557Y436642D01*
X-448770Y433363D01*
X-448505Y430000D01*
X-448770Y426637D01*
X-449557Y423358D01*
X-450848Y420242D01*
X-452610Y417366D01*
X-454801Y414801D01*
X-457366Y412610D01*
X-460242Y410848D01*
X-463358Y409557D01*
X-466637Y408770D01*
X-470000Y408505D01*
X-470118Y408514D01*
G37*
%LPD*%
%LPC*%
G36*
X469882Y408514D02*
X469882Y408514D01*
X469566Y408539D01*
X469251Y408564D01*
X469061Y408579D01*
X468746Y408604D01*
X468430Y408629D01*
X468114Y408653D01*
X467925Y408668D01*
X467609Y408693D01*
X467293Y408718D01*
X466978Y408743D01*
X466788Y408758D01*
X466637Y408770D01*
X463358Y409557D01*
X460242Y410848D01*
X457366Y412610D01*
X454801Y414801D01*
X452610Y417366D01*
X450848Y420242D01*
X449557Y423358D01*
X448770Y426637D01*
X448505Y430000D01*
X448770Y433363D01*
X449557Y436642D01*
X450848Y439759D01*
X452610Y442634D01*
X454801Y445199D01*
X457366Y447390D01*
X460242Y449152D01*
X463358Y450443D01*
X466637Y451230D01*
X470000Y451495D01*
X473363Y451230D01*
X476642Y450443D01*
X479759Y449152D01*
X482634Y447390D01*
X485199Y445199D01*
X487390Y442634D01*
X489152Y439759D01*
X490443Y436642D01*
X491230Y433363D01*
X491495Y430000D01*
X491230Y426637D01*
X490443Y423358D01*
X489152Y420242D01*
X487390Y417366D01*
X485199Y414801D01*
X482634Y412610D01*
X479759Y410848D01*
X476642Y409557D01*
X473363Y408770D01*
X470000Y408505D01*
X469882Y408514D01*
G37*
%LPD*%
D10*
X-114525Y419525D02*
X-120475Y419525D01*
X-120475Y424475D01*
X-114525Y424475D01*
X-114525Y419525D01*
X-103475Y419525D02*
X-97525Y419525D01*
X-103475Y419525D02*
X-103475Y424475D01*
X-97525Y424475D01*
X-97525Y419525D01*
D11*
X54300Y366000D02*
X54300Y350000D01*
X47300Y350000D01*
X47300Y366000D01*
X54300Y366000D01*
X54300Y352850D02*
X47300Y352850D01*
X47300Y355700D02*
X54300Y355700D01*
X54300Y358550D02*
X47300Y358550D01*
X47300Y361400D02*
X54300Y361400D01*
X54300Y364250D02*
X47300Y364250D01*
X54300Y414000D02*
X54300Y430000D01*
X54300Y414000D02*
X47300Y414000D01*
X47300Y430000D01*
X54300Y430000D01*
X54300Y416850D02*
X47300Y416850D01*
X47300Y419700D02*
X54300Y419700D01*
X54300Y422550D02*
X47300Y422550D01*
X47300Y425400D02*
X54300Y425400D01*
X54300Y428250D02*
X47300Y428250D01*
X28900Y366000D02*
X28900Y350000D01*
X21900Y350000D01*
X21900Y366000D01*
X28900Y366000D01*
X28900Y352850D02*
X21900Y352850D01*
X21900Y355700D02*
X28900Y355700D01*
X28900Y358550D02*
X21900Y358550D01*
X21900Y361400D02*
X28900Y361400D01*
X28900Y364250D02*
X21900Y364250D01*
X28900Y414000D02*
X28900Y430000D01*
X28900Y414000D02*
X21900Y414000D01*
X21900Y430000D01*
X28900Y430000D01*
X28900Y416850D02*
X21900Y416850D01*
X21900Y419700D02*
X28900Y419700D01*
X28900Y422550D02*
X21900Y422550D01*
X21900Y425400D02*
X28900Y425400D01*
X28900Y428250D02*
X21900Y428250D01*
X3500Y366000D02*
X3500Y350000D01*
X-3500Y350000D01*
X-3500Y366000D01*
X3500Y366000D01*
X3500Y352850D02*
X-3500Y352850D01*
X-3500Y355700D02*
X3500Y355700D01*
X3500Y358550D02*
X-3500Y358550D01*
X-3500Y361400D02*
X3500Y361400D01*
X3500Y364250D02*
X-3500Y364250D01*
X3500Y414000D02*
X3500Y430000D01*
X3500Y414000D02*
X-3500Y414000D01*
X-3500Y430000D01*
X3500Y430000D01*
X3500Y416850D02*
X-3500Y416850D01*
X-3500Y419700D02*
X3500Y419700D01*
X3500Y422550D02*
X-3500Y422550D01*
X-3500Y425400D02*
X3500Y425400D01*
X3500Y428250D02*
X-3500Y428250D01*
X-21900Y366000D02*
X-21900Y350000D01*
X-28900Y350000D01*
X-28900Y366000D01*
X-21900Y366000D01*
X-21900Y352850D02*
X-28900Y352850D01*
X-28900Y355700D02*
X-21900Y355700D01*
X-21900Y358550D02*
X-28900Y358550D01*
X-28900Y361400D02*
X-21900Y361400D01*
X-21900Y364250D02*
X-28900Y364250D01*
X-21900Y414000D02*
X-21900Y430000D01*
X-21900Y414000D02*
X-28900Y414000D01*
X-28900Y430000D01*
X-21900Y430000D01*
X-21900Y416850D02*
X-28900Y416850D01*
X-28900Y419700D02*
X-21900Y419700D01*
X-21900Y422550D02*
X-28900Y422550D01*
X-28900Y425400D02*
X-21900Y425400D01*
X-21900Y428250D02*
X-28900Y428250D01*
X-47300Y366000D02*
X-47300Y350000D01*
X-54300Y350000D01*
X-54300Y366000D01*
X-47300Y366000D01*
X-47300Y352850D02*
X-54300Y352850D01*
X-54300Y355700D02*
X-47300Y355700D01*
X-47300Y358550D02*
X-54300Y358550D01*
X-54300Y361400D02*
X-47300Y361400D01*
X-47300Y364250D02*
X-54300Y364250D01*
X-47300Y414000D02*
X-47300Y430000D01*
X-47300Y414000D02*
X-54300Y414000D01*
X-54300Y430000D01*
X-47300Y430000D01*
X-47300Y416850D02*
X-54300Y416850D01*
X-54300Y419700D02*
X-47300Y419700D01*
X-47300Y422550D02*
X-54300Y422550D01*
X-54300Y425400D02*
X-47300Y425400D01*
X-47300Y428250D02*
X-54300Y428250D01*
D12*
X50800Y402700D03*
X25400Y402700D03*
X25400Y377300D03*
X50800Y377300D03*
X0Y402700D03*
X0Y377300D03*
X-25400Y402700D03*
X-25400Y377300D03*
X-50800Y377300D03*
X-50800Y402700D03*
D11*
X-92400Y-20000D02*
X-92400Y-36000D01*
X-92400Y-20000D02*
X-85400Y-20000D01*
X-85400Y-36000D01*
X-92400Y-36000D01*
X-92400Y-33150D02*
X-85400Y-33150D01*
X-85400Y-30300D02*
X-92400Y-30300D01*
X-92400Y-27450D02*
X-85400Y-27450D01*
X-85400Y-24600D02*
X-92400Y-24600D01*
X-92400Y-21750D02*
X-85400Y-21750D01*
X-92400Y-84000D02*
X-92400Y-100000D01*
X-92400Y-84000D02*
X-85400Y-84000D01*
X-85400Y-100000D01*
X-92400Y-100000D01*
X-92400Y-97150D02*
X-85400Y-97150D01*
X-85400Y-94300D02*
X-92400Y-94300D01*
X-92400Y-91450D02*
X-85400Y-91450D01*
X-85400Y-88600D02*
X-92400Y-88600D01*
X-92400Y-85750D02*
X-85400Y-85750D01*
X-67000Y-36000D02*
X-67000Y-20000D01*
X-60000Y-20000D01*
X-60000Y-36000D01*
X-67000Y-36000D01*
X-67000Y-33150D02*
X-60000Y-33150D01*
X-60000Y-30300D02*
X-67000Y-30300D01*
X-67000Y-27450D02*
X-60000Y-27450D01*
X-60000Y-24600D02*
X-67000Y-24600D01*
X-67000Y-21750D02*
X-60000Y-21750D01*
X-67000Y-84000D02*
X-67000Y-100000D01*
X-67000Y-84000D02*
X-60000Y-84000D01*
X-60000Y-100000D01*
X-67000Y-100000D01*
X-67000Y-97150D02*
X-60000Y-97150D01*
X-60000Y-94300D02*
X-67000Y-94300D01*
X-67000Y-91450D02*
X-60000Y-91450D01*
X-60000Y-88600D02*
X-67000Y-88600D01*
X-67000Y-85750D02*
X-60000Y-85750D01*
X-41600Y-36000D02*
X-41600Y-20000D01*
X-34600Y-20000D01*
X-34600Y-36000D01*
X-41600Y-36000D01*
X-41600Y-33150D02*
X-34600Y-33150D01*
X-34600Y-30300D02*
X-41600Y-30300D01*
X-41600Y-27450D02*
X-34600Y-27450D01*
X-34600Y-24600D02*
X-41600Y-24600D01*
X-41600Y-21750D02*
X-34600Y-21750D01*
X-41600Y-84000D02*
X-41600Y-100000D01*
X-41600Y-84000D02*
X-34600Y-84000D01*
X-34600Y-100000D01*
X-41600Y-100000D01*
X-41600Y-97150D02*
X-34600Y-97150D01*
X-34600Y-94300D02*
X-41600Y-94300D01*
X-41600Y-91450D02*
X-34600Y-91450D01*
X-34600Y-88600D02*
X-41600Y-88600D01*
X-41600Y-85750D02*
X-34600Y-85750D01*
X-16200Y-36000D02*
X-16200Y-20000D01*
X-9200Y-20000D01*
X-9200Y-36000D01*
X-16200Y-36000D01*
X-16200Y-33150D02*
X-9200Y-33150D01*
X-9200Y-30300D02*
X-16200Y-30300D01*
X-16200Y-27450D02*
X-9200Y-27450D01*
X-9200Y-24600D02*
X-16200Y-24600D01*
X-16200Y-21750D02*
X-9200Y-21750D01*
X-16200Y-84000D02*
X-16200Y-100000D01*
X-16200Y-84000D02*
X-9200Y-84000D01*
X-9200Y-100000D01*
X-16200Y-100000D01*
X-16200Y-97150D02*
X-9200Y-97150D01*
X-9200Y-94300D02*
X-16200Y-94300D01*
X-16200Y-91450D02*
X-9200Y-91450D01*
X-9200Y-88600D02*
X-16200Y-88600D01*
X-16200Y-85750D02*
X-9200Y-85750D01*
X9200Y-36000D02*
X9200Y-20000D01*
X16200Y-20000D01*
X16200Y-36000D01*
X9200Y-36000D01*
X9200Y-33150D02*
X16200Y-33150D01*
X16200Y-30300D02*
X9200Y-30300D01*
X9200Y-27450D02*
X16200Y-27450D01*
X16200Y-24600D02*
X9200Y-24600D01*
X9200Y-21750D02*
X16200Y-21750D01*
X9200Y-84000D02*
X9200Y-100000D01*
X9200Y-84000D02*
X16200Y-84000D01*
X16200Y-100000D01*
X9200Y-100000D01*
X9200Y-97150D02*
X16200Y-97150D01*
X16200Y-94300D02*
X9200Y-94300D01*
X9200Y-91450D02*
X16200Y-91450D01*
X16200Y-88600D02*
X9200Y-88600D01*
X9200Y-85750D02*
X16200Y-85750D01*
X34600Y-36000D02*
X34600Y-20000D01*
X41600Y-20000D01*
X41600Y-36000D01*
X34600Y-36000D01*
X34600Y-33150D02*
X41600Y-33150D01*
X41600Y-30300D02*
X34600Y-30300D01*
X34600Y-27450D02*
X41600Y-27450D01*
X41600Y-24600D02*
X34600Y-24600D01*
X34600Y-21750D02*
X41600Y-21750D01*
X34600Y-84000D02*
X34600Y-100000D01*
X34600Y-84000D02*
X41600Y-84000D01*
X41600Y-100000D01*
X34600Y-100000D01*
X34600Y-97150D02*
X41600Y-97150D01*
X41600Y-94300D02*
X34600Y-94300D01*
X34600Y-91450D02*
X41600Y-91450D01*
X41600Y-88600D02*
X34600Y-88600D01*
X34600Y-85750D02*
X41600Y-85750D01*
X60000Y-36000D02*
X60000Y-20000D01*
X67000Y-20000D01*
X67000Y-36000D01*
X60000Y-36000D01*
X60000Y-33150D02*
X67000Y-33150D01*
X67000Y-30300D02*
X60000Y-30300D01*
X60000Y-27450D02*
X67000Y-27450D01*
X67000Y-24600D02*
X60000Y-24600D01*
X60000Y-21750D02*
X67000Y-21750D01*
X60000Y-84000D02*
X60000Y-100000D01*
X60000Y-84000D02*
X67000Y-84000D01*
X67000Y-100000D01*
X60000Y-100000D01*
X60000Y-97150D02*
X67000Y-97150D01*
X67000Y-94300D02*
X60000Y-94300D01*
X60000Y-91450D02*
X67000Y-91450D01*
X67000Y-88600D02*
X60000Y-88600D01*
X60000Y-85750D02*
X67000Y-85750D01*
X85400Y-36000D02*
X85400Y-20000D01*
X92400Y-20000D01*
X92400Y-36000D01*
X85400Y-36000D01*
X85400Y-33150D02*
X92400Y-33150D01*
X92400Y-30300D02*
X85400Y-30300D01*
X85400Y-27450D02*
X92400Y-27450D01*
X92400Y-24600D02*
X85400Y-24600D01*
X85400Y-21750D02*
X92400Y-21750D01*
X85400Y-84000D02*
X85400Y-100000D01*
X85400Y-84000D02*
X92400Y-84000D01*
X92400Y-100000D01*
X85400Y-100000D01*
X85400Y-97150D02*
X92400Y-97150D01*
X92400Y-94300D02*
X85400Y-94300D01*
X85400Y-91450D02*
X92400Y-91450D01*
X92400Y-88600D02*
X85400Y-88600D01*
X85400Y-85750D02*
X92400Y-85750D01*
D12*
X-88900Y-72700D03*
X-63500Y-72700D03*
X-63500Y-47300D03*
X-88900Y-47300D03*
X-38100Y-72700D03*
X-38100Y-47300D03*
X-12700Y-72700D03*
X-12700Y-47300D03*
X12700Y-47300D03*
X12700Y-72700D03*
X38100Y-72700D03*
X38100Y-47300D03*
X63500Y-47300D03*
X63500Y-72700D03*
X88900Y-72700D03*
X88900Y-47300D03*
D13*
X70800Y572300D03*
X70800Y597700D03*
X45400Y572300D03*
X45400Y597700D03*
X20000Y572300D03*
X20000Y597700D03*
X-5400Y572300D03*
X-5400Y597700D03*
X-30800Y572300D03*
X-30800Y597700D03*
D10*
X-80525Y539525D02*
X-86475Y539525D01*
X-86475Y544475D01*
X-80525Y544475D01*
X-80525Y539525D01*
X-69475Y539525D02*
X-63525Y539525D01*
X-69475Y539525D02*
X-69475Y544475D01*
X-63525Y544475D01*
X-63525Y539525D01*
D14*
X64005Y315005D02*
X71995Y315005D01*
X64005Y315005D02*
X64005Y324995D01*
X71995Y324995D01*
X71995Y315005D01*
X71995Y323564D02*
X64005Y323564D01*
X92005Y315005D02*
X99995Y315005D01*
X92005Y315005D02*
X92005Y324995D01*
X99995Y324995D01*
X99995Y315005D01*
X99995Y323564D02*
X92005Y323564D01*
X103005Y-428995D02*
X110995Y-428995D01*
X103005Y-428995D02*
X103005Y-419005D01*
X110995Y-419005D01*
X110995Y-428995D01*
X110995Y-420436D02*
X103005Y-420436D01*
X131005Y-428995D02*
X138995Y-428995D01*
X131005Y-428995D02*
X131005Y-419005D01*
X138995Y-419005D01*
X138995Y-428995D01*
X138995Y-420436D02*
X131005Y-420436D01*
X172995Y-320495D02*
X172995Y-312505D01*
X172995Y-320495D02*
X163005Y-320495D01*
X163005Y-312505D01*
X172995Y-312505D01*
X172995Y-292495D02*
X172995Y-284505D01*
X172995Y-292495D02*
X163005Y-292495D01*
X163005Y-284505D01*
X172995Y-284505D01*
X-102005Y-365005D02*
X-109995Y-365005D01*
X-102005Y-365005D02*
X-102005Y-374995D01*
X-109995Y-374995D01*
X-109995Y-365005D01*
X-109995Y-366436D02*
X-102005Y-366436D01*
X-130005Y-365005D02*
X-137995Y-365005D01*
X-130005Y-365005D02*
X-130005Y-374995D01*
X-137995Y-374995D01*
X-137995Y-365005D01*
X-137995Y-366436D02*
X-130005Y-366436D01*
D15*
X444995Y329005D02*
X444995Y336995D01*
X444995Y329005D02*
X441005Y329005D01*
X441005Y336995D01*
X444995Y336995D01*
X444995Y331864D02*
X441005Y331864D01*
X441005Y334723D02*
X444995Y334723D01*
X444995Y351005D02*
X444995Y358995D01*
X444995Y351005D02*
X441005Y351005D01*
X441005Y358995D01*
X444995Y358995D01*
X444995Y353864D02*
X441005Y353864D01*
X441005Y356723D02*
X444995Y356723D01*
X418005Y-25005D02*
X418005Y-32995D01*
X418005Y-25005D02*
X421995Y-25005D01*
X421995Y-32995D01*
X418005Y-32995D01*
X418005Y-30136D02*
X421995Y-30136D01*
X421995Y-27277D02*
X418005Y-27277D01*
X418005Y-47005D02*
X418005Y-54995D01*
X418005Y-47005D02*
X421995Y-47005D01*
X421995Y-54995D01*
X418005Y-54995D01*
X418005Y-52136D02*
X421995Y-52136D01*
X421995Y-49277D02*
X418005Y-49277D01*
X433005Y-396005D02*
X433005Y-403995D01*
X433005Y-396005D02*
X436995Y-396005D01*
X436995Y-403995D01*
X433005Y-403995D01*
X433005Y-401136D02*
X436995Y-401136D01*
X436995Y-398277D02*
X433005Y-398277D01*
X433005Y-418005D02*
X433005Y-425995D01*
X433005Y-418005D02*
X436995Y-418005D01*
X436995Y-425995D01*
X433005Y-425995D01*
X433005Y-423136D02*
X436995Y-423136D01*
X436995Y-420277D02*
X433005Y-420277D01*
X-440005Y-338995D02*
X-440005Y-331005D01*
X-440005Y-338995D02*
X-443995Y-338995D01*
X-443995Y-331005D01*
X-440005Y-331005D01*
X-440005Y-336136D02*
X-443995Y-336136D01*
X-443995Y-333277D02*
X-440005Y-333277D01*
X-440005Y-316995D02*
X-440005Y-309005D01*
X-440005Y-316995D02*
X-443995Y-316995D01*
X-443995Y-309005D01*
X-440005Y-309005D01*
X-440005Y-314136D02*
X-443995Y-314136D01*
X-443995Y-311277D02*
X-440005Y-311277D01*
X-440005Y22005D02*
X-440005Y29995D01*
X-440005Y22005D02*
X-443995Y22005D01*
X-443995Y29995D01*
X-440005Y29995D01*
X-440005Y24864D02*
X-443995Y24864D01*
X-443995Y27723D02*
X-440005Y27723D01*
X-440005Y44005D02*
X-440005Y51995D01*
X-440005Y44005D02*
X-443995Y44005D01*
X-443995Y51995D01*
X-440005Y51995D01*
X-440005Y46864D02*
X-443995Y46864D01*
X-443995Y49723D02*
X-440005Y49723D01*
X-453995Y377005D02*
X-453995Y384995D01*
X-450005Y384995D01*
X-450005Y377005D01*
X-453995Y377005D01*
X-453995Y379864D02*
X-450005Y379864D01*
X-450005Y382723D02*
X-453995Y382723D01*
X-453995Y362995D02*
X-453995Y355005D01*
X-453995Y362995D02*
X-450005Y362995D01*
X-450005Y355005D01*
X-453995Y355005D01*
X-453995Y357864D02*
X-450005Y357864D01*
X-450005Y360723D02*
X-453995Y360723D01*
X8005Y463995D02*
X15995Y463995D01*
X15995Y460005D01*
X8005Y460005D01*
X8005Y463995D01*
X8005Y462864D02*
X15995Y462864D01*
X-6005Y463995D02*
X-13995Y463995D01*
X-6005Y463995D02*
X-6005Y460005D01*
X-13995Y460005D01*
X-13995Y463995D01*
X-13995Y462864D02*
X-6005Y462864D01*
X117995Y508005D02*
X117995Y515995D01*
X117995Y508005D02*
X114005Y508005D01*
X114005Y515995D01*
X117995Y515995D01*
X117995Y510864D02*
X114005Y510864D01*
X114005Y513723D02*
X117995Y513723D01*
X117995Y530005D02*
X117995Y537995D01*
X117995Y530005D02*
X114005Y530005D01*
X114005Y537995D01*
X117995Y537995D01*
X117995Y532864D02*
X114005Y532864D01*
X114005Y535723D02*
X117995Y535723D01*
X109995Y406995D02*
X109995Y399005D01*
X106005Y399005D01*
X106005Y406995D01*
X109995Y406995D01*
X109995Y401864D02*
X106005Y401864D01*
X106005Y404723D02*
X109995Y404723D01*
X109995Y421005D02*
X109995Y428995D01*
X109995Y421005D02*
X106005Y421005D01*
X106005Y428995D01*
X109995Y428995D01*
X109995Y423864D02*
X106005Y423864D01*
X106005Y426723D02*
X109995Y426723D01*
D16*
X-156900Y-400000D03*
X-131500Y-400000D03*
X-106100Y-400000D03*
D14*
X-155005Y-429995D02*
X-162995Y-429995D01*
X-162995Y-420005D01*
X-155005Y-420005D01*
X-155005Y-429995D01*
X-155005Y-421436D02*
X-162995Y-421436D01*
X-134995Y-429995D02*
X-127005Y-429995D01*
X-134995Y-429995D02*
X-134995Y-420005D01*
X-127005Y-420005D01*
X-127005Y-429995D01*
X-127005Y-421436D02*
X-134995Y-421436D01*
X5Y-335005D02*
X7995Y-335005D01*
X7995Y-344995D01*
X5Y-344995D01*
X5Y-335005D01*
X5Y-336436D02*
X7995Y-336436D01*
X-20005Y-335005D02*
X-27995Y-335005D01*
X-20005Y-335005D02*
X-20005Y-344995D01*
X-27995Y-344995D01*
X-27995Y-335005D01*
X-27995Y-336436D02*
X-20005Y-336436D01*
D11*
X87500Y-343500D02*
X99500Y-343500D01*
X99500Y-355500D01*
X87500Y-355500D01*
X87500Y-343500D01*
X87500Y-352650D02*
X99500Y-352650D01*
X99500Y-349800D02*
X87500Y-349800D01*
X87500Y-346950D02*
X99500Y-346950D01*
X99500Y-344100D02*
X87500Y-344100D01*
X125500Y-343500D02*
X137500Y-343500D01*
X137500Y-355500D01*
X125500Y-355500D01*
X125500Y-343500D01*
X125500Y-352650D02*
X137500Y-352650D01*
X137500Y-349800D02*
X125500Y-349800D01*
X125500Y-346950D02*
X137500Y-346950D01*
X137500Y-344100D02*
X125500Y-344100D01*
X-33000Y-369000D02*
X-45000Y-369000D01*
X-33000Y-369000D02*
X-33000Y-381000D01*
X-45000Y-381000D01*
X-45000Y-369000D01*
X-45000Y-378150D02*
X-33000Y-378150D01*
X-33000Y-375300D02*
X-45000Y-375300D01*
X-45000Y-372450D02*
X-33000Y-372450D01*
X-33000Y-369600D02*
X-45000Y-369600D01*
X-7000Y-369000D02*
X5000Y-369000D01*
X5000Y-381000D01*
X-7000Y-381000D01*
X-7000Y-369000D01*
X-7000Y-378150D02*
X5000Y-378150D01*
X5000Y-375300D02*
X-7000Y-375300D01*
X-7000Y-372450D02*
X5000Y-372450D01*
X5000Y-369600D02*
X-7000Y-369600D01*
X-75000Y-326000D02*
X-87000Y-326000D01*
X-87000Y-314000D01*
X-75000Y-314000D01*
X-75000Y-326000D01*
X-75000Y-323150D02*
X-87000Y-323150D01*
X-87000Y-320300D02*
X-75000Y-320300D01*
X-75000Y-317450D02*
X-87000Y-317450D01*
X-87000Y-314600D02*
X-75000Y-314600D01*
X-113000Y-326000D02*
X-125000Y-326000D01*
X-125000Y-314000D01*
X-113000Y-314000D01*
X-113000Y-326000D01*
X-113000Y-323150D02*
X-125000Y-323150D01*
X-125000Y-320300D02*
X-113000Y-320300D01*
X-113000Y-317450D02*
X-125000Y-317450D01*
X-125000Y-314600D02*
X-113000Y-314600D01*
D10*
X133025Y-307475D02*
X133025Y-301525D01*
X137975Y-301525D01*
X137975Y-307475D01*
X133025Y-307475D01*
X133025Y-301728D02*
X137975Y-301728D01*
X133025Y-318525D02*
X133025Y-324475D01*
X133025Y-318525D02*
X137975Y-318525D01*
X137975Y-324475D01*
X133025Y-324475D01*
X133025Y-318728D02*
X137975Y-318728D01*
X117475Y-319525D02*
X117475Y-325475D01*
X112525Y-325475D01*
X112525Y-319525D01*
X117475Y-319525D01*
X117475Y-319728D02*
X112525Y-319728D01*
X117475Y-308475D02*
X117475Y-302525D01*
X117475Y-308475D02*
X112525Y-308475D01*
X112525Y-302525D01*
X117475Y-302525D01*
X117475Y-302728D02*
X112525Y-302728D01*
X7525Y-294475D02*
X7525Y-288525D01*
X12475Y-288525D01*
X12475Y-294475D01*
X7525Y-294475D01*
X7525Y-288728D02*
X12475Y-288728D01*
X7525Y-305525D02*
X7525Y-311475D01*
X7525Y-305525D02*
X12475Y-305525D01*
X12475Y-311475D01*
X7525Y-311475D01*
X7525Y-305728D02*
X12475Y-305728D01*
X32475Y-305525D02*
X32475Y-311475D01*
X27525Y-311475D01*
X27525Y-305525D01*
X32475Y-305525D01*
X32475Y-305728D02*
X27525Y-305728D01*
X32475Y-294475D02*
X32475Y-288525D01*
X32475Y-294475D02*
X27525Y-294475D01*
X27525Y-288525D01*
X32475Y-288525D01*
X32475Y-288728D02*
X27525Y-288728D01*
D14*
X71005Y-283995D02*
X78995Y-283995D01*
X71005Y-283995D02*
X71005Y-274005D01*
X78995Y-274005D01*
X78995Y-283995D01*
X78995Y-275436D02*
X71005Y-275436D01*
X99005Y-283995D02*
X106995Y-283995D01*
X99005Y-283995D02*
X99005Y-274005D01*
X106995Y-274005D01*
X106995Y-283995D01*
X106995Y-275436D02*
X99005Y-275436D01*
X-20005Y-267995D02*
X-20005Y-260005D01*
X-20005Y-267995D02*
X-29995Y-267995D01*
X-29995Y-260005D01*
X-20005Y-260005D01*
X-20005Y-239995D02*
X-20005Y-232005D01*
X-20005Y-239995D02*
X-29995Y-239995D01*
X-29995Y-232005D01*
X-20005Y-232005D01*
D10*
X-130525Y-277475D02*
X-136475Y-277475D01*
X-136475Y-272525D01*
X-130525Y-272525D01*
X-130525Y-277475D01*
X-119475Y-277475D02*
X-113525Y-277475D01*
X-119475Y-277475D02*
X-119475Y-272525D01*
X-113525Y-272525D01*
X-113525Y-277475D01*
X-113525Y-292525D02*
X-119475Y-292525D01*
X-113525Y-292525D02*
X-113525Y-297475D01*
X-119475Y-297475D01*
X-119475Y-292525D01*
X-130525Y-292525D02*
X-136475Y-292525D01*
X-130525Y-292525D02*
X-130525Y-297475D01*
X-136475Y-297475D01*
X-136475Y-292525D01*
D14*
X-199995Y-337005D02*
X-199995Y-344995D01*
X-199995Y-337005D02*
X-190005Y-337005D01*
X-190005Y-344995D01*
X-199995Y-344995D01*
X-199995Y-365005D02*
X-199995Y-372995D01*
X-199995Y-365005D02*
X-190005Y-365005D01*
X-190005Y-372995D01*
X-199995Y-372995D01*
D11*
X72000Y-205000D02*
X72000Y-193000D01*
X72000Y-205000D02*
X60000Y-205000D01*
X60000Y-193000D01*
X72000Y-193000D01*
X72000Y-202150D02*
X60000Y-202150D01*
X60000Y-199300D02*
X72000Y-199300D01*
X72000Y-196450D02*
X60000Y-196450D01*
X60000Y-193600D02*
X72000Y-193600D01*
X72000Y-231000D02*
X72000Y-243000D01*
X60000Y-243000D01*
X60000Y-231000D01*
X72000Y-231000D01*
X72000Y-240150D02*
X60000Y-240150D01*
X60000Y-237300D02*
X72000Y-237300D01*
X72000Y-234450D02*
X60000Y-234450D01*
X60000Y-231600D02*
X72000Y-231600D01*
X-49000Y-230000D02*
X-49000Y-242000D01*
X-61000Y-242000D01*
X-61000Y-230000D01*
X-49000Y-230000D01*
X-49000Y-239150D02*
X-61000Y-239150D01*
X-61000Y-236300D02*
X-49000Y-236300D01*
X-49000Y-233450D02*
X-61000Y-233450D01*
X-61000Y-230600D02*
X-49000Y-230600D01*
X-49000Y-268000D02*
X-49000Y-280000D01*
X-61000Y-280000D01*
X-61000Y-268000D01*
X-49000Y-268000D01*
X-49000Y-277150D02*
X-61000Y-277150D01*
X-61000Y-274300D02*
X-49000Y-274300D01*
X-49000Y-271450D02*
X-61000Y-271450D01*
X-61000Y-268600D02*
X-49000Y-268600D01*
X-231000Y-373000D02*
X-231000Y-385000D01*
X-231000Y-373000D02*
X-219000Y-373000D01*
X-219000Y-385000D01*
X-231000Y-385000D01*
X-231000Y-382150D02*
X-219000Y-382150D01*
X-219000Y-379300D02*
X-231000Y-379300D01*
X-231000Y-376450D02*
X-219000Y-376450D01*
X-219000Y-373600D02*
X-231000Y-373600D01*
X-231000Y-347000D02*
X-231000Y-335000D01*
X-219000Y-335000D01*
X-219000Y-347000D01*
X-231000Y-347000D01*
X-231000Y-344150D02*
X-219000Y-344150D01*
X-219000Y-341300D02*
X-231000Y-341300D01*
X-231000Y-338450D02*
X-219000Y-338450D01*
X-219000Y-335600D02*
X-231000Y-335600D01*
X384000Y229500D02*
X400000Y229500D01*
X384000Y229500D02*
X384000Y236500D01*
X400000Y236500D01*
X400000Y229500D01*
X400000Y232350D02*
X384000Y232350D01*
X384000Y235200D02*
X400000Y235200D01*
X400000Y254900D02*
X384000Y254900D01*
X384000Y261900D01*
X400000Y261900D01*
X400000Y254900D01*
X400000Y257750D02*
X384000Y257750D01*
X384000Y260600D02*
X400000Y260600D01*
X400000Y280300D02*
X384000Y280300D01*
X384000Y287300D01*
X400000Y287300D01*
X400000Y280300D01*
X400000Y283150D02*
X384000Y283150D01*
X384000Y286000D02*
X400000Y286000D01*
X400000Y305700D02*
X384000Y305700D01*
X384000Y312700D01*
X400000Y312700D01*
X400000Y305700D01*
X400000Y308550D02*
X384000Y308550D01*
X384000Y311400D02*
X400000Y311400D01*
X400000Y331100D02*
X384000Y331100D01*
X384000Y338100D01*
X400000Y338100D01*
X400000Y331100D01*
X400000Y333950D02*
X384000Y333950D01*
X384000Y336800D02*
X400000Y336800D01*
X400000Y356500D02*
X384000Y356500D01*
X384000Y363500D01*
X400000Y363500D01*
X400000Y356500D01*
X400000Y359350D02*
X384000Y359350D01*
X384000Y362200D02*
X400000Y362200D01*
X400000Y381900D02*
X384000Y381900D01*
X384000Y388900D01*
X400000Y388900D01*
X400000Y381900D01*
X400000Y384750D02*
X384000Y384750D01*
X384000Y387600D02*
X400000Y387600D01*
X400000Y407300D02*
X384000Y407300D01*
X384000Y414300D01*
X400000Y414300D01*
X400000Y407300D01*
X400000Y410150D02*
X384000Y410150D01*
X384000Y413000D02*
X400000Y413000D01*
X400000Y432700D02*
X384000Y432700D01*
X384000Y439700D01*
X400000Y439700D01*
X400000Y432700D01*
X400000Y435550D02*
X384000Y435550D01*
X384000Y438400D02*
X400000Y438400D01*
X400000Y458100D02*
X384000Y458100D01*
X384000Y465100D01*
X400000Y465100D01*
X400000Y458100D01*
X400000Y460950D02*
X384000Y460950D01*
X384000Y463800D02*
X400000Y463800D01*
X400000Y483500D02*
X384000Y483500D01*
X384000Y490500D01*
X400000Y490500D01*
X400000Y483500D01*
X400000Y486350D02*
X384000Y486350D01*
X384000Y489200D02*
X400000Y489200D01*
X336000Y483500D02*
X320000Y483500D01*
X320000Y490500D01*
X336000Y490500D01*
X336000Y483500D01*
X336000Y486350D02*
X320000Y486350D01*
X320000Y489200D02*
X336000Y489200D01*
X336000Y458100D02*
X320000Y458100D01*
X320000Y465100D01*
X336000Y465100D01*
X336000Y458100D01*
X336000Y460950D02*
X320000Y460950D01*
X320000Y463800D02*
X336000Y463800D01*
X336000Y432700D02*
X320000Y432700D01*
X320000Y439700D01*
X336000Y439700D01*
X336000Y432700D01*
X336000Y435550D02*
X320000Y435550D01*
X320000Y438400D02*
X336000Y438400D01*
X336000Y407300D02*
X320000Y407300D01*
X320000Y414300D01*
X336000Y414300D01*
X336000Y407300D01*
X336000Y410150D02*
X320000Y410150D01*
X320000Y413000D02*
X336000Y413000D01*
X336000Y381900D02*
X320000Y381900D01*
X320000Y388900D01*
X336000Y388900D01*
X336000Y381900D01*
X336000Y384750D02*
X320000Y384750D01*
X320000Y387600D02*
X336000Y387600D01*
X336000Y356500D02*
X320000Y356500D01*
X320000Y363500D01*
X336000Y363500D01*
X336000Y356500D01*
X336000Y359350D02*
X320000Y359350D01*
X320000Y362200D02*
X336000Y362200D01*
X336000Y331100D02*
X320000Y331100D01*
X320000Y338100D01*
X336000Y338100D01*
X336000Y331100D01*
X336000Y333950D02*
X320000Y333950D01*
X320000Y336800D02*
X336000Y336800D01*
X336000Y305700D02*
X320000Y305700D01*
X320000Y312700D01*
X336000Y312700D01*
X336000Y305700D01*
X336000Y308550D02*
X320000Y308550D01*
X320000Y311400D02*
X336000Y311400D01*
X336000Y280300D02*
X320000Y280300D01*
X320000Y287300D01*
X336000Y287300D01*
X336000Y280300D01*
X336000Y283150D02*
X320000Y283150D01*
X320000Y286000D02*
X336000Y286000D01*
X336000Y254900D02*
X320000Y254900D01*
X320000Y261900D01*
X336000Y261900D01*
X336000Y254900D01*
X336000Y257750D02*
X320000Y257750D01*
X320000Y260600D02*
X336000Y260600D01*
X336000Y229500D02*
X320000Y229500D01*
X320000Y236500D01*
X336000Y236500D01*
X336000Y229500D01*
X336000Y232350D02*
X320000Y232350D01*
X320000Y235200D02*
X336000Y235200D01*
D12*
X372700Y233000D03*
X372700Y258400D03*
X347300Y258400D03*
X347300Y233000D03*
X372700Y283800D03*
X347300Y283800D03*
X372700Y309200D03*
X347300Y309200D03*
X372700Y334600D03*
X347300Y334600D03*
X372700Y360000D03*
X347300Y360000D03*
X372700Y385400D03*
X347300Y385400D03*
X372700Y410800D03*
X347300Y410800D03*
X372700Y436200D03*
X347300Y436200D03*
X372700Y461600D03*
X347300Y461600D03*
X372700Y487000D03*
X347300Y487000D03*
D17*
X169470Y-376030D02*
X169470Y-389970D01*
X151530Y-389970D01*
X151530Y-376030D01*
X169470Y-376030D01*
X169470Y-387063D02*
X151530Y-387063D01*
X151530Y-384156D02*
X169470Y-384156D01*
X169470Y-381249D02*
X151530Y-381249D01*
X151530Y-378342D02*
X169470Y-378342D01*
X169470Y-349970D02*
X169470Y-336030D01*
X169470Y-349970D02*
X151530Y-349970D01*
X151530Y-336030D01*
X169470Y-336030D01*
X169470Y-347063D02*
X151530Y-347063D01*
X151530Y-344156D02*
X169470Y-344156D01*
X169470Y-341249D02*
X151530Y-341249D01*
X151530Y-338342D02*
X169470Y-338342D01*
X38970Y-368030D02*
X38970Y-381970D01*
X21030Y-381970D01*
X21030Y-368030D01*
X38970Y-368030D01*
X38970Y-379063D02*
X21030Y-379063D01*
X21030Y-376156D02*
X38970Y-376156D01*
X38970Y-373249D02*
X21030Y-373249D01*
X21030Y-370342D02*
X38970Y-370342D01*
X38970Y-341970D02*
X38970Y-328030D01*
X38970Y-341970D02*
X21030Y-341970D01*
X21030Y-328030D01*
X38970Y-328030D01*
X38970Y-339063D02*
X21030Y-339063D01*
X21030Y-336156D02*
X38970Y-336156D01*
X38970Y-333249D02*
X21030Y-333249D01*
X21030Y-330342D02*
X38970Y-330342D01*
X-71030Y-403030D02*
X-71030Y-416970D01*
X-88970Y-416970D01*
X-88970Y-403030D01*
X-71030Y-403030D01*
X-71030Y-414063D02*
X-88970Y-414063D01*
X-88970Y-411156D02*
X-71030Y-411156D01*
X-71030Y-408249D02*
X-88970Y-408249D01*
X-88970Y-405342D02*
X-71030Y-405342D01*
X-71030Y-376970D02*
X-71030Y-363030D01*
X-71030Y-376970D02*
X-88970Y-376970D01*
X-88970Y-363030D01*
X-71030Y-363030D01*
X-71030Y-374063D02*
X-88970Y-374063D01*
X-88970Y-371156D02*
X-71030Y-371156D01*
X-71030Y-368249D02*
X-88970Y-368249D01*
X-88970Y-365342D02*
X-71030Y-365342D01*
D18*
X140015Y-288015D02*
X140015Y-278985D01*
X140015Y-288015D02*
X131985Y-288015D01*
X131985Y-278985D01*
X140015Y-278985D01*
X140015Y-285194D02*
X131985Y-285194D01*
X131985Y-282373D02*
X140015Y-282373D01*
X140015Y-279552D02*
X131985Y-279552D01*
X140015Y-271015D02*
X140015Y-261985D01*
X140015Y-271015D02*
X131985Y-271015D01*
X131985Y-261985D01*
X140015Y-261985D01*
X140015Y-268194D02*
X131985Y-268194D01*
X131985Y-265373D02*
X140015Y-265373D01*
X140015Y-262552D02*
X131985Y-262552D01*
X31015Y-253985D02*
X21985Y-253985D01*
X31015Y-253985D02*
X31015Y-262015D01*
X21985Y-262015D01*
X21985Y-253985D01*
X21985Y-259194D02*
X31015Y-259194D01*
X31015Y-256373D02*
X21985Y-256373D01*
X14015Y-253985D02*
X4985Y-253985D01*
X14015Y-253985D02*
X14015Y-262015D01*
X4985Y-262015D01*
X4985Y-253985D01*
X4985Y-259194D02*
X14015Y-259194D01*
X14015Y-256373D02*
X4985Y-256373D01*
X-128985Y-259015D02*
X-138015Y-259015D01*
X-138015Y-250985D01*
X-128985Y-250985D01*
X-128985Y-259015D01*
X-128985Y-256194D02*
X-138015Y-256194D01*
X-138015Y-253373D02*
X-128985Y-253373D01*
X-121015Y-259015D02*
X-111985Y-259015D01*
X-121015Y-259015D02*
X-121015Y-250985D01*
X-111985Y-250985D01*
X-111985Y-259015D01*
X-111985Y-256194D02*
X-121015Y-256194D01*
X-121015Y-253373D02*
X-111985Y-253373D01*
D19*
X-138038Y-488823D03*
X-102038Y-551177D03*
D20*
X-205750Y-491543D03*
X-138250Y-608457D03*
D19*
X102038Y-551177D03*
X138038Y-488823D03*
D20*
X138250Y-608457D03*
X205750Y-491543D03*
D21*
X112000Y-702000D03*
X-114000Y-702000D03*
D22*
X-1000Y-702000D03*
D13*
X-133700Y649000D03*
X-108300Y649000D03*
D16*
X107600Y-400000D03*
X133000Y-400000D03*
X158400Y-400000D03*
X-25400Y-400000D03*
X0Y-400000D03*
X25400Y-400000D03*
D11*
X384000Y-130500D02*
X400000Y-130500D01*
X384000Y-130500D02*
X384000Y-123500D01*
X400000Y-123500D01*
X400000Y-130500D01*
X400000Y-127650D02*
X384000Y-127650D01*
X384000Y-124800D02*
X400000Y-124800D01*
X400000Y-105100D02*
X384000Y-105100D01*
X384000Y-98100D01*
X400000Y-98100D01*
X400000Y-105100D01*
X400000Y-102250D02*
X384000Y-102250D01*
X384000Y-99400D02*
X400000Y-99400D01*
X400000Y-79700D02*
X384000Y-79700D01*
X384000Y-72700D01*
X400000Y-72700D01*
X400000Y-79700D01*
X400000Y-76850D02*
X384000Y-76850D01*
X384000Y-74000D02*
X400000Y-74000D01*
X400000Y-54300D02*
X384000Y-54300D01*
X384000Y-47300D01*
X400000Y-47300D01*
X400000Y-54300D01*
X400000Y-51450D02*
X384000Y-51450D01*
X384000Y-48600D02*
X400000Y-48600D01*
X400000Y-28900D02*
X384000Y-28900D01*
X384000Y-21900D01*
X400000Y-21900D01*
X400000Y-28900D01*
X400000Y-26050D02*
X384000Y-26050D01*
X384000Y-23200D02*
X400000Y-23200D01*
X400000Y-3500D02*
X384000Y-3500D01*
X384000Y3500D01*
X400000Y3500D01*
X400000Y-3500D01*
X400000Y-650D02*
X384000Y-650D01*
X384000Y2200D02*
X400000Y2200D01*
X400000Y21900D02*
X384000Y21900D01*
X384000Y28900D01*
X400000Y28900D01*
X400000Y21900D01*
X400000Y24750D02*
X384000Y24750D01*
X384000Y27600D02*
X400000Y27600D01*
X400000Y47300D02*
X384000Y47300D01*
X384000Y54300D01*
X400000Y54300D01*
X400000Y47300D01*
X400000Y50150D02*
X384000Y50150D01*
X384000Y53000D02*
X400000Y53000D01*
X400000Y72700D02*
X384000Y72700D01*
X384000Y79700D01*
X400000Y79700D01*
X400000Y72700D01*
X400000Y75550D02*
X384000Y75550D01*
X384000Y78400D02*
X400000Y78400D01*
X400000Y98100D02*
X384000Y98100D01*
X384000Y105100D01*
X400000Y105100D01*
X400000Y98100D01*
X400000Y100950D02*
X384000Y100950D01*
X384000Y103800D02*
X400000Y103800D01*
X400000Y123500D02*
X384000Y123500D01*
X384000Y130500D01*
X400000Y130500D01*
X400000Y123500D01*
X400000Y126350D02*
X384000Y126350D01*
X384000Y129200D02*
X400000Y129200D01*
X336000Y123500D02*
X320000Y123500D01*
X320000Y130500D01*
X336000Y130500D01*
X336000Y123500D01*
X336000Y126350D02*
X320000Y126350D01*
X320000Y129200D02*
X336000Y129200D01*
X336000Y98100D02*
X320000Y98100D01*
X320000Y105100D01*
X336000Y105100D01*
X336000Y98100D01*
X336000Y100950D02*
X320000Y100950D01*
X320000Y103800D02*
X336000Y103800D01*
X336000Y72700D02*
X320000Y72700D01*
X320000Y79700D01*
X336000Y79700D01*
X336000Y72700D01*
X336000Y75550D02*
X320000Y75550D01*
X320000Y78400D02*
X336000Y78400D01*
X336000Y47300D02*
X320000Y47300D01*
X320000Y54300D01*
X336000Y54300D01*
X336000Y47300D01*
X336000Y50150D02*
X320000Y50150D01*
X320000Y53000D02*
X336000Y53000D01*
X336000Y21900D02*
X320000Y21900D01*
X320000Y28900D01*
X336000Y28900D01*
X336000Y21900D01*
X336000Y24750D02*
X320000Y24750D01*
X320000Y27600D02*
X336000Y27600D01*
X336000Y-3500D02*
X320000Y-3500D01*
X320000Y3500D01*
X336000Y3500D01*
X336000Y-3500D01*
X336000Y-650D02*
X320000Y-650D01*
X320000Y2200D02*
X336000Y2200D01*
X336000Y-28900D02*
X320000Y-28900D01*
X320000Y-21900D01*
X336000Y-21900D01*
X336000Y-28900D01*
X336000Y-26050D02*
X320000Y-26050D01*
X320000Y-23200D02*
X336000Y-23200D01*
X336000Y-54300D02*
X320000Y-54300D01*
X320000Y-47300D01*
X336000Y-47300D01*
X336000Y-54300D01*
X336000Y-51450D02*
X320000Y-51450D01*
X320000Y-48600D02*
X336000Y-48600D01*
X336000Y-79700D02*
X320000Y-79700D01*
X320000Y-72700D01*
X336000Y-72700D01*
X336000Y-79700D01*
X336000Y-76850D02*
X320000Y-76850D01*
X320000Y-74000D02*
X336000Y-74000D01*
X336000Y-105100D02*
X320000Y-105100D01*
X320000Y-98100D01*
X336000Y-98100D01*
X336000Y-105100D01*
X336000Y-102250D02*
X320000Y-102250D01*
X320000Y-99400D02*
X336000Y-99400D01*
X336000Y-130500D02*
X320000Y-130500D01*
X320000Y-123500D01*
X336000Y-123500D01*
X336000Y-130500D01*
X336000Y-127650D02*
X320000Y-127650D01*
X320000Y-124800D02*
X336000Y-124800D01*
D12*
X372700Y-127000D03*
X372700Y-101600D03*
X347300Y-101600D03*
X347300Y-127000D03*
X372700Y-76200D03*
X347300Y-76200D03*
X372700Y-50800D03*
X347300Y-50800D03*
X372700Y-25400D03*
X347300Y-25400D03*
X372700Y0D03*
X347300Y0D03*
X372700Y25400D03*
X347300Y25400D03*
X372700Y50800D03*
X347300Y50800D03*
X372700Y76200D03*
X347300Y76200D03*
X372700Y101600D03*
X347300Y101600D03*
X372700Y127000D03*
X347300Y127000D03*
D11*
X384000Y-490500D02*
X400000Y-490500D01*
X384000Y-490500D02*
X384000Y-483500D01*
X400000Y-483500D01*
X400000Y-490500D01*
X400000Y-487650D02*
X384000Y-487650D01*
X384000Y-484800D02*
X400000Y-484800D01*
X400000Y-465100D02*
X384000Y-465100D01*
X384000Y-458100D01*
X400000Y-458100D01*
X400000Y-465100D01*
X400000Y-462250D02*
X384000Y-462250D01*
X384000Y-459400D02*
X400000Y-459400D01*
X400000Y-439700D02*
X384000Y-439700D01*
X384000Y-432700D01*
X400000Y-432700D01*
X400000Y-439700D01*
X400000Y-436850D02*
X384000Y-436850D01*
X384000Y-434000D02*
X400000Y-434000D01*
X400000Y-414300D02*
X384000Y-414300D01*
X384000Y-407300D01*
X400000Y-407300D01*
X400000Y-414300D01*
X400000Y-411450D02*
X384000Y-411450D01*
X384000Y-408600D02*
X400000Y-408600D01*
X400000Y-388900D02*
X384000Y-388900D01*
X384000Y-381900D01*
X400000Y-381900D01*
X400000Y-388900D01*
X400000Y-386050D02*
X384000Y-386050D01*
X384000Y-383200D02*
X400000Y-383200D01*
X400000Y-363500D02*
X384000Y-363500D01*
X384000Y-356500D01*
X400000Y-356500D01*
X400000Y-363500D01*
X400000Y-360650D02*
X384000Y-360650D01*
X384000Y-357800D02*
X400000Y-357800D01*
X400000Y-338100D02*
X384000Y-338100D01*
X384000Y-331100D01*
X400000Y-331100D01*
X400000Y-338100D01*
X400000Y-335250D02*
X384000Y-335250D01*
X384000Y-332400D02*
X400000Y-332400D01*
X400000Y-312700D02*
X384000Y-312700D01*
X384000Y-305700D01*
X400000Y-305700D01*
X400000Y-312700D01*
X400000Y-309850D02*
X384000Y-309850D01*
X384000Y-307000D02*
X400000Y-307000D01*
X400000Y-287300D02*
X384000Y-287300D01*
X384000Y-280300D01*
X400000Y-280300D01*
X400000Y-287300D01*
X400000Y-284450D02*
X384000Y-284450D01*
X384000Y-281600D02*
X400000Y-281600D01*
X400000Y-261900D02*
X384000Y-261900D01*
X384000Y-254900D01*
X400000Y-254900D01*
X400000Y-261900D01*
X400000Y-259050D02*
X384000Y-259050D01*
X384000Y-256200D02*
X400000Y-256200D01*
X400000Y-236500D02*
X384000Y-236500D01*
X384000Y-229500D01*
X400000Y-229500D01*
X400000Y-236500D01*
X400000Y-233650D02*
X384000Y-233650D01*
X384000Y-230800D02*
X400000Y-230800D01*
X336000Y-236500D02*
X320000Y-236500D01*
X320000Y-229500D01*
X336000Y-229500D01*
X336000Y-236500D01*
X336000Y-233650D02*
X320000Y-233650D01*
X320000Y-230800D02*
X336000Y-230800D01*
X336000Y-261900D02*
X320000Y-261900D01*
X320000Y-254900D01*
X336000Y-254900D01*
X336000Y-261900D01*
X336000Y-259050D02*
X320000Y-259050D01*
X320000Y-256200D02*
X336000Y-256200D01*
X336000Y-287300D02*
X320000Y-287300D01*
X320000Y-280300D01*
X336000Y-280300D01*
X336000Y-287300D01*
X336000Y-284450D02*
X320000Y-284450D01*
X320000Y-281600D02*
X336000Y-281600D01*
X336000Y-312700D02*
X320000Y-312700D01*
X320000Y-305700D01*
X336000Y-305700D01*
X336000Y-312700D01*
X336000Y-309850D02*
X320000Y-309850D01*
X320000Y-307000D02*
X336000Y-307000D01*
X336000Y-338100D02*
X320000Y-338100D01*
X320000Y-331100D01*
X336000Y-331100D01*
X336000Y-338100D01*
X336000Y-335250D02*
X320000Y-335250D01*
X320000Y-332400D02*
X336000Y-332400D01*
X336000Y-363500D02*
X320000Y-363500D01*
X320000Y-356500D01*
X336000Y-356500D01*
X336000Y-363500D01*
X336000Y-360650D02*
X320000Y-360650D01*
X320000Y-357800D02*
X336000Y-357800D01*
X336000Y-388900D02*
X320000Y-388900D01*
X320000Y-381900D01*
X336000Y-381900D01*
X336000Y-388900D01*
X336000Y-386050D02*
X320000Y-386050D01*
X320000Y-383200D02*
X336000Y-383200D01*
X336000Y-414300D02*
X320000Y-414300D01*
X320000Y-407300D01*
X336000Y-407300D01*
X336000Y-414300D01*
X336000Y-411450D02*
X320000Y-411450D01*
X320000Y-408600D02*
X336000Y-408600D01*
X336000Y-439700D02*
X320000Y-439700D01*
X320000Y-432700D01*
X336000Y-432700D01*
X336000Y-439700D01*
X336000Y-436850D02*
X320000Y-436850D01*
X320000Y-434000D02*
X336000Y-434000D01*
X336000Y-465100D02*
X320000Y-465100D01*
X320000Y-458100D01*
X336000Y-458100D01*
X336000Y-465100D01*
X336000Y-462250D02*
X320000Y-462250D01*
X320000Y-459400D02*
X336000Y-459400D01*
X336000Y-490500D02*
X320000Y-490500D01*
X320000Y-483500D01*
X336000Y-483500D01*
X336000Y-490500D01*
X336000Y-487650D02*
X320000Y-487650D01*
X320000Y-484800D02*
X336000Y-484800D01*
D12*
X372700Y-487000D03*
X372700Y-461600D03*
X347300Y-461600D03*
X347300Y-487000D03*
X372700Y-436200D03*
X347300Y-436200D03*
X372700Y-410800D03*
X347300Y-410800D03*
X372700Y-385400D03*
X347300Y-385400D03*
X372700Y-360000D03*
X347300Y-360000D03*
X372700Y-334600D03*
X347300Y-334600D03*
X372700Y-309200D03*
X347300Y-309200D03*
X372700Y-283800D03*
X347300Y-283800D03*
X372700Y-258400D03*
X347300Y-258400D03*
X372700Y-233000D03*
X347300Y-233000D03*
D11*
X-384000Y-229500D02*
X-400000Y-229500D01*
X-384000Y-229500D02*
X-384000Y-236500D01*
X-400000Y-236500D01*
X-400000Y-229500D01*
X-400000Y-233650D02*
X-384000Y-233650D01*
X-384000Y-230800D02*
X-400000Y-230800D01*
X-400000Y-254900D02*
X-384000Y-254900D01*
X-384000Y-261900D01*
X-400000Y-261900D01*
X-400000Y-254900D01*
X-400000Y-259050D02*
X-384000Y-259050D01*
X-384000Y-256200D02*
X-400000Y-256200D01*
X-400000Y-280300D02*
X-384000Y-280300D01*
X-384000Y-287300D01*
X-400000Y-287300D01*
X-400000Y-280300D01*
X-400000Y-284450D02*
X-384000Y-284450D01*
X-384000Y-281600D02*
X-400000Y-281600D01*
X-400000Y-305700D02*
X-384000Y-305700D01*
X-384000Y-312700D01*
X-400000Y-312700D01*
X-400000Y-305700D01*
X-400000Y-309850D02*
X-384000Y-309850D01*
X-384000Y-307000D02*
X-400000Y-307000D01*
X-400000Y-331100D02*
X-384000Y-331100D01*
X-384000Y-338100D01*
X-400000Y-338100D01*
X-400000Y-331100D01*
X-400000Y-335250D02*
X-384000Y-335250D01*
X-384000Y-332400D02*
X-400000Y-332400D01*
X-400000Y-356500D02*
X-384000Y-356500D01*
X-384000Y-363500D01*
X-400000Y-363500D01*
X-400000Y-356500D01*
X-400000Y-360650D02*
X-384000Y-360650D01*
X-384000Y-357800D02*
X-400000Y-357800D01*
X-400000Y-381900D02*
X-384000Y-381900D01*
X-384000Y-388900D01*
X-400000Y-388900D01*
X-400000Y-381900D01*
X-400000Y-386050D02*
X-384000Y-386050D01*
X-384000Y-383200D02*
X-400000Y-383200D01*
X-400000Y-407300D02*
X-384000Y-407300D01*
X-384000Y-414300D01*
X-400000Y-414300D01*
X-400000Y-407300D01*
X-400000Y-411450D02*
X-384000Y-411450D01*
X-384000Y-408600D02*
X-400000Y-408600D01*
X-400000Y-432700D02*
X-384000Y-432700D01*
X-384000Y-439700D01*
X-400000Y-439700D01*
X-400000Y-432700D01*
X-400000Y-436850D02*
X-384000Y-436850D01*
X-384000Y-434000D02*
X-400000Y-434000D01*
X-400000Y-458100D02*
X-384000Y-458100D01*
X-384000Y-465100D01*
X-400000Y-465100D01*
X-400000Y-458100D01*
X-400000Y-462250D02*
X-384000Y-462250D01*
X-384000Y-459400D02*
X-400000Y-459400D01*
X-400000Y-483500D02*
X-384000Y-483500D01*
X-384000Y-490500D01*
X-400000Y-490500D01*
X-400000Y-483500D01*
X-400000Y-487650D02*
X-384000Y-487650D01*
X-384000Y-484800D02*
X-400000Y-484800D01*
X-336000Y-483500D02*
X-320000Y-483500D01*
X-320000Y-490500D01*
X-336000Y-490500D01*
X-336000Y-483500D01*
X-336000Y-487650D02*
X-320000Y-487650D01*
X-320000Y-484800D02*
X-336000Y-484800D01*
X-336000Y-458100D02*
X-320000Y-458100D01*
X-320000Y-465100D01*
X-336000Y-465100D01*
X-336000Y-458100D01*
X-336000Y-462250D02*
X-320000Y-462250D01*
X-320000Y-459400D02*
X-336000Y-459400D01*
X-336000Y-432700D02*
X-320000Y-432700D01*
X-320000Y-439700D01*
X-336000Y-439700D01*
X-336000Y-432700D01*
X-336000Y-436850D02*
X-320000Y-436850D01*
X-320000Y-434000D02*
X-336000Y-434000D01*
X-336000Y-407300D02*
X-320000Y-407300D01*
X-320000Y-414300D01*
X-336000Y-414300D01*
X-336000Y-407300D01*
X-336000Y-411450D02*
X-320000Y-411450D01*
X-320000Y-408600D02*
X-336000Y-408600D01*
X-336000Y-381900D02*
X-320000Y-381900D01*
X-320000Y-388900D01*
X-336000Y-388900D01*
X-336000Y-381900D01*
X-336000Y-386050D02*
X-320000Y-386050D01*
X-320000Y-383200D02*
X-336000Y-383200D01*
X-336000Y-356500D02*
X-320000Y-356500D01*
X-320000Y-363500D01*
X-336000Y-363500D01*
X-336000Y-356500D01*
X-336000Y-360650D02*
X-320000Y-360650D01*
X-320000Y-357800D02*
X-336000Y-357800D01*
X-336000Y-331100D02*
X-320000Y-331100D01*
X-320000Y-338100D01*
X-336000Y-338100D01*
X-336000Y-331100D01*
X-336000Y-335250D02*
X-320000Y-335250D01*
X-320000Y-332400D02*
X-336000Y-332400D01*
X-336000Y-305700D02*
X-320000Y-305700D01*
X-320000Y-312700D01*
X-336000Y-312700D01*
X-336000Y-305700D01*
X-336000Y-309850D02*
X-320000Y-309850D01*
X-320000Y-307000D02*
X-336000Y-307000D01*
X-336000Y-280300D02*
X-320000Y-280300D01*
X-320000Y-287300D01*
X-336000Y-287300D01*
X-336000Y-280300D01*
X-336000Y-284450D02*
X-320000Y-284450D01*
X-320000Y-281600D02*
X-336000Y-281600D01*
X-336000Y-254900D02*
X-320000Y-254900D01*
X-320000Y-261900D01*
X-336000Y-261900D01*
X-336000Y-254900D01*
X-336000Y-259050D02*
X-320000Y-259050D01*
X-320000Y-256200D02*
X-336000Y-256200D01*
X-336000Y-229500D02*
X-320000Y-229500D01*
X-320000Y-236500D01*
X-336000Y-236500D01*
X-336000Y-229500D01*
X-336000Y-233650D02*
X-320000Y-233650D01*
X-320000Y-230800D02*
X-336000Y-230800D01*
D12*
X-372700Y-233000D03*
X-372700Y-258400D03*
X-347300Y-258400D03*
X-347300Y-233000D03*
X-372700Y-283800D03*
X-347300Y-283800D03*
X-372700Y-309200D03*
X-347300Y-309200D03*
X-372700Y-334600D03*
X-347300Y-334600D03*
X-372700Y-360000D03*
X-347300Y-360000D03*
X-372700Y-385400D03*
X-347300Y-385400D03*
X-372700Y-410800D03*
X-347300Y-410800D03*
X-372700Y-436200D03*
X-347300Y-436200D03*
X-372700Y-461600D03*
X-347300Y-461600D03*
X-372700Y-487000D03*
X-347300Y-487000D03*
D11*
X-384000Y130500D02*
X-400000Y130500D01*
X-384000Y130500D02*
X-384000Y123500D01*
X-400000Y123500D01*
X-400000Y130500D01*
X-400000Y126350D02*
X-384000Y126350D01*
X-384000Y129200D02*
X-400000Y129200D01*
X-400000Y105100D02*
X-384000Y105100D01*
X-384000Y98100D01*
X-400000Y98100D01*
X-400000Y105100D01*
X-400000Y100950D02*
X-384000Y100950D01*
X-384000Y103800D02*
X-400000Y103800D01*
X-400000Y79700D02*
X-384000Y79700D01*
X-384000Y72700D01*
X-400000Y72700D01*
X-400000Y79700D01*
X-400000Y75550D02*
X-384000Y75550D01*
X-384000Y78400D02*
X-400000Y78400D01*
X-400000Y54300D02*
X-384000Y54300D01*
X-384000Y47300D01*
X-400000Y47300D01*
X-400000Y54300D01*
X-400000Y50150D02*
X-384000Y50150D01*
X-384000Y53000D02*
X-400000Y53000D01*
X-400000Y28900D02*
X-384000Y28900D01*
X-384000Y21900D01*
X-400000Y21900D01*
X-400000Y28900D01*
X-400000Y24750D02*
X-384000Y24750D01*
X-384000Y27600D02*
X-400000Y27600D01*
X-400000Y3500D02*
X-384000Y3500D01*
X-384000Y-3500D01*
X-400000Y-3500D01*
X-400000Y3500D01*
X-400000Y-650D02*
X-384000Y-650D01*
X-384000Y2200D02*
X-400000Y2200D01*
X-400000Y-21900D02*
X-384000Y-21900D01*
X-384000Y-28900D01*
X-400000Y-28900D01*
X-400000Y-21900D01*
X-400000Y-26050D02*
X-384000Y-26050D01*
X-384000Y-23200D02*
X-400000Y-23200D01*
X-400000Y-47300D02*
X-384000Y-47300D01*
X-384000Y-54300D01*
X-400000Y-54300D01*
X-400000Y-47300D01*
X-400000Y-51450D02*
X-384000Y-51450D01*
X-384000Y-48600D02*
X-400000Y-48600D01*
X-400000Y-72700D02*
X-384000Y-72700D01*
X-384000Y-79700D01*
X-400000Y-79700D01*
X-400000Y-72700D01*
X-400000Y-76850D02*
X-384000Y-76850D01*
X-384000Y-74000D02*
X-400000Y-74000D01*
X-400000Y-98100D02*
X-384000Y-98100D01*
X-384000Y-105100D01*
X-400000Y-105100D01*
X-400000Y-98100D01*
X-400000Y-102250D02*
X-384000Y-102250D01*
X-384000Y-99400D02*
X-400000Y-99400D01*
X-400000Y-123500D02*
X-384000Y-123500D01*
X-384000Y-130500D01*
X-400000Y-130500D01*
X-400000Y-123500D01*
X-400000Y-127650D02*
X-384000Y-127650D01*
X-384000Y-124800D02*
X-400000Y-124800D01*
X-336000Y-123500D02*
X-320000Y-123500D01*
X-320000Y-130500D01*
X-336000Y-130500D01*
X-336000Y-123500D01*
X-336000Y-127650D02*
X-320000Y-127650D01*
X-320000Y-124800D02*
X-336000Y-124800D01*
X-336000Y-98100D02*
X-320000Y-98100D01*
X-320000Y-105100D01*
X-336000Y-105100D01*
X-336000Y-98100D01*
X-336000Y-102250D02*
X-320000Y-102250D01*
X-320000Y-99400D02*
X-336000Y-99400D01*
X-336000Y-72700D02*
X-320000Y-72700D01*
X-320000Y-79700D01*
X-336000Y-79700D01*
X-336000Y-72700D01*
X-336000Y-76850D02*
X-320000Y-76850D01*
X-320000Y-74000D02*
X-336000Y-74000D01*
X-336000Y-47300D02*
X-320000Y-47300D01*
X-320000Y-54300D01*
X-336000Y-54300D01*
X-336000Y-47300D01*
X-336000Y-51450D02*
X-320000Y-51450D01*
X-320000Y-48600D02*
X-336000Y-48600D01*
X-336000Y-21900D02*
X-320000Y-21900D01*
X-320000Y-28900D01*
X-336000Y-28900D01*
X-336000Y-21900D01*
X-336000Y-26050D02*
X-320000Y-26050D01*
X-320000Y-23200D02*
X-336000Y-23200D01*
X-336000Y3500D02*
X-320000Y3500D01*
X-320000Y-3500D01*
X-336000Y-3500D01*
X-336000Y3500D01*
X-336000Y-650D02*
X-320000Y-650D01*
X-320000Y2200D02*
X-336000Y2200D01*
X-336000Y28900D02*
X-320000Y28900D01*
X-320000Y21900D01*
X-336000Y21900D01*
X-336000Y28900D01*
X-336000Y24750D02*
X-320000Y24750D01*
X-320000Y27600D02*
X-336000Y27600D01*
X-336000Y54300D02*
X-320000Y54300D01*
X-320000Y47300D01*
X-336000Y47300D01*
X-336000Y54300D01*
X-336000Y50150D02*
X-320000Y50150D01*
X-320000Y53000D02*
X-336000Y53000D01*
X-336000Y79700D02*
X-320000Y79700D01*
X-320000Y72700D01*
X-336000Y72700D01*
X-336000Y79700D01*
X-336000Y75550D02*
X-320000Y75550D01*
X-320000Y78400D02*
X-336000Y78400D01*
X-336000Y105100D02*
X-320000Y105100D01*
X-320000Y98100D01*
X-336000Y98100D01*
X-336000Y105100D01*
X-336000Y100950D02*
X-320000Y100950D01*
X-320000Y103800D02*
X-336000Y103800D01*
X-336000Y130500D02*
X-320000Y130500D01*
X-320000Y123500D01*
X-336000Y123500D01*
X-336000Y130500D01*
X-336000Y126350D02*
X-320000Y126350D01*
X-320000Y129200D02*
X-336000Y129200D01*
D12*
X-372700Y127000D03*
X-372700Y101600D03*
X-347300Y101600D03*
X-347300Y127000D03*
X-372700Y76200D03*
X-347300Y76200D03*
X-372700Y50800D03*
X-347300Y50800D03*
X-372700Y25400D03*
X-347300Y25400D03*
X-372700Y0D03*
X-347300Y0D03*
X-372700Y-25400D03*
X-347300Y-25400D03*
X-372700Y-50800D03*
X-347300Y-50800D03*
X-372700Y-76200D03*
X-347300Y-76200D03*
X-372700Y-101600D03*
X-347300Y-101600D03*
X-372700Y-127000D03*
X-347300Y-127000D03*
D11*
X-384000Y490500D02*
X-400000Y490500D01*
X-384000Y490500D02*
X-384000Y483500D01*
X-400000Y483500D01*
X-400000Y490500D01*
X-400000Y486350D02*
X-384000Y486350D01*
X-384000Y489200D02*
X-400000Y489200D01*
X-400000Y465100D02*
X-384000Y465100D01*
X-384000Y458100D01*
X-400000Y458100D01*
X-400000Y465100D01*
X-400000Y460950D02*
X-384000Y460950D01*
X-384000Y463800D02*
X-400000Y463800D01*
X-400000Y439700D02*
X-384000Y439700D01*
X-384000Y432700D01*
X-400000Y432700D01*
X-400000Y439700D01*
X-400000Y435550D02*
X-384000Y435550D01*
X-384000Y438400D02*
X-400000Y438400D01*
X-400000Y414300D02*
X-384000Y414300D01*
X-384000Y407300D01*
X-400000Y407300D01*
X-400000Y414300D01*
X-400000Y410150D02*
X-384000Y410150D01*
X-384000Y413000D02*
X-400000Y413000D01*
X-400000Y388900D02*
X-384000Y388900D01*
X-384000Y381900D01*
X-400000Y381900D01*
X-400000Y388900D01*
X-400000Y384750D02*
X-384000Y384750D01*
X-384000Y387600D02*
X-400000Y387600D01*
X-400000Y363500D02*
X-384000Y363500D01*
X-384000Y356500D01*
X-400000Y356500D01*
X-400000Y363500D01*
X-400000Y359350D02*
X-384000Y359350D01*
X-384000Y362200D02*
X-400000Y362200D01*
X-400000Y338100D02*
X-384000Y338100D01*
X-384000Y331100D01*
X-400000Y331100D01*
X-400000Y338100D01*
X-400000Y333950D02*
X-384000Y333950D01*
X-384000Y336800D02*
X-400000Y336800D01*
X-400000Y312700D02*
X-384000Y312700D01*
X-384000Y305700D01*
X-400000Y305700D01*
X-400000Y312700D01*
X-400000Y308550D02*
X-384000Y308550D01*
X-384000Y311400D02*
X-400000Y311400D01*
X-400000Y287300D02*
X-384000Y287300D01*
X-384000Y280300D01*
X-400000Y280300D01*
X-400000Y287300D01*
X-400000Y283150D02*
X-384000Y283150D01*
X-384000Y286000D02*
X-400000Y286000D01*
X-400000Y261900D02*
X-384000Y261900D01*
X-384000Y254900D01*
X-400000Y254900D01*
X-400000Y261900D01*
X-400000Y257750D02*
X-384000Y257750D01*
X-384000Y260600D02*
X-400000Y260600D01*
X-400000Y236500D02*
X-384000Y236500D01*
X-384000Y229500D01*
X-400000Y229500D01*
X-400000Y236500D01*
X-400000Y232350D02*
X-384000Y232350D01*
X-384000Y235200D02*
X-400000Y235200D01*
X-336000Y236500D02*
X-320000Y236500D01*
X-320000Y229500D01*
X-336000Y229500D01*
X-336000Y236500D01*
X-336000Y232350D02*
X-320000Y232350D01*
X-320000Y235200D02*
X-336000Y235200D01*
X-336000Y261900D02*
X-320000Y261900D01*
X-320000Y254900D01*
X-336000Y254900D01*
X-336000Y261900D01*
X-336000Y257750D02*
X-320000Y257750D01*
X-320000Y260600D02*
X-336000Y260600D01*
X-336000Y287300D02*
X-320000Y287300D01*
X-320000Y280300D01*
X-336000Y280300D01*
X-336000Y287300D01*
X-336000Y283150D02*
X-320000Y283150D01*
X-320000Y286000D02*
X-336000Y286000D01*
X-336000Y312700D02*
X-320000Y312700D01*
X-320000Y305700D01*
X-336000Y305700D01*
X-336000Y312700D01*
X-336000Y308550D02*
X-320000Y308550D01*
X-320000Y311400D02*
X-336000Y311400D01*
X-336000Y338100D02*
X-320000Y338100D01*
X-320000Y331100D01*
X-336000Y331100D01*
X-336000Y338100D01*
X-336000Y333950D02*
X-320000Y333950D01*
X-320000Y336800D02*
X-336000Y336800D01*
X-336000Y363500D02*
X-320000Y363500D01*
X-320000Y356500D01*
X-336000Y356500D01*
X-336000Y363500D01*
X-336000Y359350D02*
X-320000Y359350D01*
X-320000Y362200D02*
X-336000Y362200D01*
X-336000Y388900D02*
X-320000Y388900D01*
X-320000Y381900D01*
X-336000Y381900D01*
X-336000Y388900D01*
X-336000Y384750D02*
X-320000Y384750D01*
X-320000Y387600D02*
X-336000Y387600D01*
X-336000Y414300D02*
X-320000Y414300D01*
X-320000Y407300D01*
X-336000Y407300D01*
X-336000Y414300D01*
X-336000Y410150D02*
X-320000Y410150D01*
X-320000Y413000D02*
X-336000Y413000D01*
X-336000Y439700D02*
X-320000Y439700D01*
X-320000Y432700D01*
X-336000Y432700D01*
X-336000Y439700D01*
X-336000Y435550D02*
X-320000Y435550D01*
X-320000Y438400D02*
X-336000Y438400D01*
X-336000Y465100D02*
X-320000Y465100D01*
X-320000Y458100D01*
X-336000Y458100D01*
X-336000Y465100D01*
X-336000Y460950D02*
X-320000Y460950D01*
X-320000Y463800D02*
X-336000Y463800D01*
X-336000Y490500D02*
X-320000Y490500D01*
X-320000Y483500D01*
X-336000Y483500D01*
X-336000Y490500D01*
X-336000Y486350D02*
X-320000Y486350D01*
X-320000Y489200D02*
X-336000Y489200D01*
D12*
X-372700Y487000D03*
X-372700Y461600D03*
X-347300Y461600D03*
X-347300Y487000D03*
X-372700Y436200D03*
X-347300Y436200D03*
X-372700Y410800D03*
X-347300Y410800D03*
X-372700Y385400D03*
X-347300Y385400D03*
X-372700Y360000D03*
X-347300Y360000D03*
X-372700Y334600D03*
X-347300Y334600D03*
X-372700Y309200D03*
X-347300Y309200D03*
X-372700Y283800D03*
X-347300Y283800D03*
X-372700Y258400D03*
X-347300Y258400D03*
X-372700Y233000D03*
X-347300Y233000D03*
D15*
X83005Y463005D02*
X90995Y463005D01*
X83005Y463005D02*
X83005Y466995D01*
X90995Y466995D01*
X90995Y463005D01*
X90995Y465864D02*
X83005Y465864D01*
X105005Y463005D02*
X112995Y463005D01*
X105005Y463005D02*
X105005Y466995D01*
X112995Y466995D01*
X112995Y463005D01*
X112995Y465864D02*
X105005Y465864D01*
D16*
X820000Y193900D03*
X820000Y168500D03*
X820000Y143100D03*
X820000Y117700D03*
X820000Y92300D03*
X820000Y66900D03*
X820000Y41500D03*
X820000Y16100D03*
X820000Y-16100D03*
X820000Y-41500D03*
X820000Y-66900D03*
X820000Y-92300D03*
X820000Y-117700D03*
X820000Y-143100D03*
X820000Y-168500D03*
X820000Y-193900D03*
X-820000Y-193900D03*
X-820000Y-168500D03*
X-820000Y-143100D03*
X-820000Y-117700D03*
X-820000Y-92300D03*
X-820000Y-66900D03*
X-820000Y-41500D03*
X-820000Y-16100D03*
X-820000Y16100D03*
X-820000Y41500D03*
X-820000Y66900D03*
X-820000Y92300D03*
X-820000Y117700D03*
X-820000Y143100D03*
X-820000Y168500D03*
X-820000Y193900D03*
D11*
X684000Y477800D02*
X700000Y477800D01*
X700000Y470800D01*
X684000Y470800D01*
X684000Y477800D01*
X684000Y473650D02*
X700000Y473650D01*
X700000Y476500D02*
X684000Y476500D01*
X636000Y477800D02*
X620000Y477800D01*
X636000Y477800D02*
X636000Y470800D01*
X620000Y470800D01*
X620000Y477800D01*
X620000Y473650D02*
X636000Y473650D01*
X636000Y476500D02*
X620000Y476500D01*
X684000Y452400D02*
X700000Y452400D01*
X700000Y445400D01*
X684000Y445400D01*
X684000Y452400D01*
X684000Y448250D02*
X700000Y448250D01*
X700000Y451100D02*
X684000Y451100D01*
X636000Y452400D02*
X620000Y452400D01*
X636000Y452400D02*
X636000Y445400D01*
X620000Y445400D01*
X620000Y452400D01*
X620000Y448250D02*
X636000Y448250D01*
X636000Y451100D02*
X620000Y451100D01*
X684000Y427000D02*
X700000Y427000D01*
X700000Y420000D01*
X684000Y420000D01*
X684000Y427000D01*
X684000Y422850D02*
X700000Y422850D01*
X700000Y425700D02*
X684000Y425700D01*
X636000Y427000D02*
X620000Y427000D01*
X636000Y427000D02*
X636000Y420000D01*
X620000Y420000D01*
X620000Y427000D01*
X620000Y422850D02*
X636000Y422850D01*
X636000Y425700D02*
X620000Y425700D01*
X684000Y401600D02*
X700000Y401600D01*
X700000Y394600D01*
X684000Y394600D01*
X684000Y401600D01*
X684000Y397450D02*
X700000Y397450D01*
X700000Y400300D02*
X684000Y400300D01*
X636000Y401600D02*
X620000Y401600D01*
X636000Y401600D02*
X636000Y394600D01*
X620000Y394600D01*
X620000Y401600D01*
X620000Y397450D02*
X636000Y397450D01*
X636000Y400300D02*
X620000Y400300D01*
X684000Y376200D02*
X700000Y376200D01*
X700000Y369200D01*
X684000Y369200D01*
X684000Y376200D01*
X684000Y372050D02*
X700000Y372050D01*
X700000Y374900D02*
X684000Y374900D01*
X636000Y376200D02*
X620000Y376200D01*
X636000Y376200D02*
X636000Y369200D01*
X620000Y369200D01*
X620000Y376200D01*
X620000Y372050D02*
X636000Y372050D01*
X636000Y374900D02*
X620000Y374900D01*
X684000Y350800D02*
X700000Y350800D01*
X700000Y343800D01*
X684000Y343800D01*
X684000Y350800D01*
X684000Y346650D02*
X700000Y346650D01*
X700000Y349500D02*
X684000Y349500D01*
X636000Y350800D02*
X620000Y350800D01*
X636000Y350800D02*
X636000Y343800D01*
X620000Y343800D01*
X620000Y350800D01*
X620000Y346650D02*
X636000Y346650D01*
X636000Y349500D02*
X620000Y349500D01*
X684000Y325400D02*
X700000Y325400D01*
X700000Y318400D01*
X684000Y318400D01*
X684000Y325400D01*
X684000Y321250D02*
X700000Y321250D01*
X700000Y324100D02*
X684000Y324100D01*
X636000Y325400D02*
X620000Y325400D01*
X636000Y325400D02*
X636000Y318400D01*
X620000Y318400D01*
X620000Y325400D01*
X620000Y321250D02*
X636000Y321250D01*
X636000Y324100D02*
X620000Y324100D01*
X684000Y300000D02*
X700000Y300000D01*
X700000Y293000D01*
X684000Y293000D01*
X684000Y300000D01*
X684000Y295850D02*
X700000Y295850D01*
X700000Y298700D02*
X684000Y298700D01*
X636000Y300000D02*
X620000Y300000D01*
X636000Y300000D02*
X636000Y293000D01*
X620000Y293000D01*
X620000Y300000D01*
X620000Y295850D02*
X636000Y295850D01*
X636000Y298700D02*
X620000Y298700D01*
X684000Y274600D02*
X700000Y274600D01*
X700000Y267600D01*
X684000Y267600D01*
X684000Y274600D01*
X684000Y270450D02*
X700000Y270450D01*
X700000Y273300D02*
X684000Y273300D01*
X636000Y274600D02*
X620000Y274600D01*
X636000Y274600D02*
X636000Y267600D01*
X620000Y267600D01*
X620000Y274600D01*
X620000Y270450D02*
X636000Y270450D01*
X636000Y273300D02*
X620000Y273300D01*
X684000Y249200D02*
X700000Y249200D01*
X700000Y242200D01*
X684000Y242200D01*
X684000Y249200D01*
X684000Y245050D02*
X700000Y245050D01*
X700000Y247900D02*
X684000Y247900D01*
X636000Y249200D02*
X620000Y249200D01*
X636000Y249200D02*
X636000Y242200D01*
X620000Y242200D01*
X620000Y249200D01*
X620000Y245050D02*
X636000Y245050D01*
X636000Y247900D02*
X620000Y247900D01*
D12*
X647300Y474300D03*
X647300Y448900D03*
X672700Y448900D03*
X672700Y474300D03*
X647300Y423500D03*
X672700Y423500D03*
X647300Y398100D03*
X672700Y398100D03*
X672700Y372700D03*
X647300Y372700D03*
X647300Y347300D03*
X672700Y347300D03*
X672700Y321900D03*
X647300Y321900D03*
X647300Y296500D03*
X672700Y296500D03*
X647300Y271100D03*
X672700Y271100D03*
X647300Y245700D03*
X672700Y245700D03*
D23*
X747388Y353047D03*
X727863Y332426D03*
X756075Y329179D03*
X736550Y308557D03*
X764762Y305311D03*
X745238Y284689D03*
X773450Y281443D03*
X753925Y260821D03*
X782137Y257574D03*
X762612Y236953D03*
X786481Y-245640D03*
X758269Y-248887D03*
X777793Y-269508D03*
X749581Y-272755D03*
X769106Y-293377D03*
X740894Y-296623D03*
X760419Y-317245D03*
X732207Y-320492D03*
X751731Y-341113D03*
X723519Y-344360D03*
X-747388Y-353047D03*
X-727863Y-332426D03*
X-756075Y-329179D03*
X-736550Y-308557D03*
X-764762Y-305311D03*
X-745238Y-284689D03*
X-773450Y-281443D03*
X-753925Y-260821D03*
X-782137Y-257574D03*
X-762612Y-236953D03*
X-786481Y245640D03*
X-758269Y248887D03*
X-777793Y269508D03*
X-749581Y272755D03*
X-769106Y293377D03*
X-740894Y296623D03*
X-760419Y317245D03*
X-732207Y320492D03*
X-751731Y341113D03*
X-723519Y344360D03*
D16*
X-261100Y560000D03*
X-286500Y560000D03*
X-311900Y560000D03*
X-337300Y560000D03*
X-362700Y560000D03*
X-388100Y560000D03*
X-413500Y560000D03*
X-438900Y560000D03*
D24*
X444600Y500000D03*
X470000Y500000D03*
X495400Y500000D03*
X-482700Y500000D03*
X-457300Y500000D03*
D14*
X-500005Y240005D02*
X-507995Y240005D01*
X-507995Y249995D01*
X-500005Y249995D01*
X-500005Y240005D01*
X-500005Y248564D02*
X-507995Y248564D01*
X-479995Y240005D02*
X-472005Y240005D01*
X-479995Y240005D02*
X-479995Y249995D01*
X-472005Y249995D01*
X-472005Y240005D01*
X-472005Y248564D02*
X-479995Y248564D01*
X-500005Y275005D02*
X-507995Y275005D01*
X-507995Y284995D01*
X-500005Y284995D01*
X-500005Y275005D01*
X-500005Y283564D02*
X-507995Y283564D01*
X-479995Y275005D02*
X-472005Y275005D01*
X-479995Y275005D02*
X-479995Y284995D01*
X-472005Y284995D01*
X-472005Y275005D01*
X-472005Y283564D02*
X-479995Y283564D01*
D25*
X470000Y430000D03*
X-470000Y430000D03*
X430000Y-540000D03*
X-430000Y-540000D03*
D11*
X684000Y-242200D02*
X700000Y-242200D01*
X700000Y-249200D01*
X684000Y-249200D01*
X684000Y-242200D01*
X684000Y-246350D02*
X700000Y-246350D01*
X700000Y-243500D02*
X684000Y-243500D01*
X636000Y-242200D02*
X620000Y-242200D01*
X636000Y-242200D02*
X636000Y-249200D01*
X620000Y-249200D01*
X620000Y-242200D01*
X620000Y-246350D02*
X636000Y-246350D01*
X636000Y-243500D02*
X620000Y-243500D01*
X684000Y-267600D02*
X700000Y-267600D01*
X700000Y-274600D01*
X684000Y-274600D01*
X684000Y-267600D01*
X684000Y-271750D02*
X700000Y-271750D01*
X700000Y-268900D02*
X684000Y-268900D01*
X636000Y-267600D02*
X620000Y-267600D01*
X636000Y-267600D02*
X636000Y-274600D01*
X620000Y-274600D01*
X620000Y-267600D01*
X620000Y-271750D02*
X636000Y-271750D01*
X636000Y-268900D02*
X620000Y-268900D01*
X684000Y-293000D02*
X700000Y-293000D01*
X700000Y-300000D01*
X684000Y-300000D01*
X684000Y-293000D01*
X684000Y-297150D02*
X700000Y-297150D01*
X700000Y-294300D02*
X684000Y-294300D01*
X636000Y-293000D02*
X620000Y-293000D01*
X636000Y-293000D02*
X636000Y-300000D01*
X620000Y-300000D01*
X620000Y-293000D01*
X620000Y-297150D02*
X636000Y-297150D01*
X636000Y-294300D02*
X620000Y-294300D01*
X684000Y-318400D02*
X700000Y-318400D01*
X700000Y-325400D01*
X684000Y-325400D01*
X684000Y-318400D01*
X684000Y-322550D02*
X700000Y-322550D01*
X700000Y-319700D02*
X684000Y-319700D01*
X636000Y-318400D02*
X620000Y-318400D01*
X636000Y-318400D02*
X636000Y-325400D01*
X620000Y-325400D01*
X620000Y-318400D01*
X620000Y-322550D02*
X636000Y-322550D01*
X636000Y-319700D02*
X620000Y-319700D01*
X684000Y-343800D02*
X700000Y-343800D01*
X700000Y-350800D01*
X684000Y-350800D01*
X684000Y-343800D01*
X684000Y-347950D02*
X700000Y-347950D01*
X700000Y-345100D02*
X684000Y-345100D01*
X636000Y-343800D02*
X620000Y-343800D01*
X636000Y-343800D02*
X636000Y-350800D01*
X620000Y-350800D01*
X620000Y-343800D01*
X620000Y-347950D02*
X636000Y-347950D01*
X636000Y-345100D02*
X620000Y-345100D01*
X684000Y-369200D02*
X700000Y-369200D01*
X700000Y-376200D01*
X684000Y-376200D01*
X684000Y-369200D01*
X684000Y-373350D02*
X700000Y-373350D01*
X700000Y-370500D02*
X684000Y-370500D01*
X636000Y-369200D02*
X620000Y-369200D01*
X636000Y-369200D02*
X636000Y-376200D01*
X620000Y-376200D01*
X620000Y-369200D01*
X620000Y-373350D02*
X636000Y-373350D01*
X636000Y-370500D02*
X620000Y-370500D01*
X684000Y-394600D02*
X700000Y-394600D01*
X700000Y-401600D01*
X684000Y-401600D01*
X684000Y-394600D01*
X684000Y-398750D02*
X700000Y-398750D01*
X700000Y-395900D02*
X684000Y-395900D01*
X636000Y-394600D02*
X620000Y-394600D01*
X636000Y-394600D02*
X636000Y-401600D01*
X620000Y-401600D01*
X620000Y-394600D01*
X620000Y-398750D02*
X636000Y-398750D01*
X636000Y-395900D02*
X620000Y-395900D01*
X684000Y-420000D02*
X700000Y-420000D01*
X700000Y-427000D01*
X684000Y-427000D01*
X684000Y-420000D01*
X684000Y-424150D02*
X700000Y-424150D01*
X700000Y-421300D02*
X684000Y-421300D01*
X636000Y-420000D02*
X620000Y-420000D01*
X636000Y-420000D02*
X636000Y-427000D01*
X620000Y-427000D01*
X620000Y-420000D01*
X620000Y-424150D02*
X636000Y-424150D01*
X636000Y-421300D02*
X620000Y-421300D01*
X684000Y-445400D02*
X700000Y-445400D01*
X700000Y-452400D01*
X684000Y-452400D01*
X684000Y-445400D01*
X684000Y-449550D02*
X700000Y-449550D01*
X700000Y-446700D02*
X684000Y-446700D01*
X636000Y-445400D02*
X620000Y-445400D01*
X636000Y-445400D02*
X636000Y-452400D01*
X620000Y-452400D01*
X620000Y-445400D01*
X620000Y-449550D02*
X636000Y-449550D01*
X636000Y-446700D02*
X620000Y-446700D01*
X684000Y-470800D02*
X700000Y-470800D01*
X700000Y-477800D01*
X684000Y-477800D01*
X684000Y-470800D01*
X684000Y-474950D02*
X700000Y-474950D01*
X700000Y-472100D02*
X684000Y-472100D01*
X636000Y-470800D02*
X620000Y-470800D01*
X636000Y-470800D02*
X636000Y-477800D01*
X620000Y-477800D01*
X620000Y-470800D01*
X620000Y-474950D02*
X636000Y-474950D01*
X636000Y-472100D02*
X620000Y-472100D01*
D12*
X647300Y-245700D03*
X647300Y-271100D03*
X672700Y-271100D03*
X672700Y-245700D03*
X647300Y-296500D03*
X672700Y-296500D03*
X647300Y-321900D03*
X672700Y-321900D03*
X672700Y-347300D03*
X647300Y-347300D03*
X647300Y-372700D03*
X672700Y-372700D03*
X672700Y-398100D03*
X647300Y-398100D03*
X647300Y-423500D03*
X672700Y-423500D03*
X647300Y-448900D03*
X672700Y-448900D03*
X647300Y-474300D03*
X672700Y-474300D03*
D11*
X-684000Y-477800D02*
X-700000Y-477800D01*
X-700000Y-470800D01*
X-684000Y-470800D01*
X-684000Y-477800D01*
X-684000Y-474950D02*
X-700000Y-474950D01*
X-700000Y-472100D02*
X-684000Y-472100D01*
X-636000Y-477800D02*
X-620000Y-477800D01*
X-636000Y-477800D02*
X-636000Y-470800D01*
X-620000Y-470800D01*
X-620000Y-477800D01*
X-620000Y-474950D02*
X-636000Y-474950D01*
X-636000Y-472100D02*
X-620000Y-472100D01*
X-684000Y-452400D02*
X-700000Y-452400D01*
X-700000Y-445400D01*
X-684000Y-445400D01*
X-684000Y-452400D01*
X-684000Y-449550D02*
X-700000Y-449550D01*
X-700000Y-446700D02*
X-684000Y-446700D01*
X-636000Y-452400D02*
X-620000Y-452400D01*
X-636000Y-452400D02*
X-636000Y-445400D01*
X-620000Y-445400D01*
X-620000Y-452400D01*
X-620000Y-449550D02*
X-636000Y-449550D01*
X-636000Y-446700D02*
X-620000Y-446700D01*
X-684000Y-427000D02*
X-700000Y-427000D01*
X-700000Y-420000D01*
X-684000Y-420000D01*
X-684000Y-427000D01*
X-684000Y-424150D02*
X-700000Y-424150D01*
X-700000Y-421300D02*
X-684000Y-421300D01*
X-636000Y-427000D02*
X-620000Y-427000D01*
X-636000Y-427000D02*
X-636000Y-420000D01*
X-620000Y-420000D01*
X-620000Y-427000D01*
X-620000Y-424150D02*
X-636000Y-424150D01*
X-636000Y-421300D02*
X-620000Y-421300D01*
X-684000Y-401600D02*
X-700000Y-401600D01*
X-700000Y-394600D01*
X-684000Y-394600D01*
X-684000Y-401600D01*
X-684000Y-398750D02*
X-700000Y-398750D01*
X-700000Y-395900D02*
X-684000Y-395900D01*
X-636000Y-401600D02*
X-620000Y-401600D01*
X-636000Y-401600D02*
X-636000Y-394600D01*
X-620000Y-394600D01*
X-620000Y-401600D01*
X-620000Y-398750D02*
X-636000Y-398750D01*
X-636000Y-395900D02*
X-620000Y-395900D01*
X-684000Y-376200D02*
X-700000Y-376200D01*
X-700000Y-369200D01*
X-684000Y-369200D01*
X-684000Y-376200D01*
X-684000Y-373350D02*
X-700000Y-373350D01*
X-700000Y-370500D02*
X-684000Y-370500D01*
X-636000Y-376200D02*
X-620000Y-376200D01*
X-636000Y-376200D02*
X-636000Y-369200D01*
X-620000Y-369200D01*
X-620000Y-376200D01*
X-620000Y-373350D02*
X-636000Y-373350D01*
X-636000Y-370500D02*
X-620000Y-370500D01*
X-684000Y-350800D02*
X-700000Y-350800D01*
X-700000Y-343800D01*
X-684000Y-343800D01*
X-684000Y-350800D01*
X-684000Y-347950D02*
X-700000Y-347950D01*
X-700000Y-345100D02*
X-684000Y-345100D01*
X-636000Y-350800D02*
X-620000Y-350800D01*
X-636000Y-350800D02*
X-636000Y-343800D01*
X-620000Y-343800D01*
X-620000Y-350800D01*
X-620000Y-347950D02*
X-636000Y-347950D01*
X-636000Y-345100D02*
X-620000Y-345100D01*
X-684000Y-325400D02*
X-700000Y-325400D01*
X-700000Y-318400D01*
X-684000Y-318400D01*
X-684000Y-325400D01*
X-684000Y-322550D02*
X-700000Y-322550D01*
X-700000Y-319700D02*
X-684000Y-319700D01*
X-636000Y-325400D02*
X-620000Y-325400D01*
X-636000Y-325400D02*
X-636000Y-318400D01*
X-620000Y-318400D01*
X-620000Y-325400D01*
X-620000Y-322550D02*
X-636000Y-322550D01*
X-636000Y-319700D02*
X-620000Y-319700D01*
X-684000Y-300000D02*
X-700000Y-300000D01*
X-700000Y-293000D01*
X-684000Y-293000D01*
X-684000Y-300000D01*
X-684000Y-297150D02*
X-700000Y-297150D01*
X-700000Y-294300D02*
X-684000Y-294300D01*
X-636000Y-300000D02*
X-620000Y-300000D01*
X-636000Y-300000D02*
X-636000Y-293000D01*
X-620000Y-293000D01*
X-620000Y-300000D01*
X-620000Y-297150D02*
X-636000Y-297150D01*
X-636000Y-294300D02*
X-620000Y-294300D01*
X-684000Y-274600D02*
X-700000Y-274600D01*
X-700000Y-267600D01*
X-684000Y-267600D01*
X-684000Y-274600D01*
X-684000Y-271750D02*
X-700000Y-271750D01*
X-700000Y-268900D02*
X-684000Y-268900D01*
X-636000Y-274600D02*
X-620000Y-274600D01*
X-636000Y-274600D02*
X-636000Y-267600D01*
X-620000Y-267600D01*
X-620000Y-274600D01*
X-620000Y-271750D02*
X-636000Y-271750D01*
X-636000Y-268900D02*
X-620000Y-268900D01*
X-684000Y-249200D02*
X-700000Y-249200D01*
X-700000Y-242200D01*
X-684000Y-242200D01*
X-684000Y-249200D01*
X-684000Y-246350D02*
X-700000Y-246350D01*
X-700000Y-243500D02*
X-684000Y-243500D01*
X-636000Y-249200D02*
X-620000Y-249200D01*
X-636000Y-249200D02*
X-636000Y-242200D01*
X-620000Y-242200D01*
X-620000Y-249200D01*
X-620000Y-246350D02*
X-636000Y-246350D01*
X-636000Y-243500D02*
X-620000Y-243500D01*
D12*
X-647300Y-474300D03*
X-647300Y-448900D03*
X-672700Y-448900D03*
X-672700Y-474300D03*
X-647300Y-423500D03*
X-672700Y-423500D03*
X-647300Y-398100D03*
X-672700Y-398100D03*
X-672700Y-372700D03*
X-647300Y-372700D03*
X-647300Y-347300D03*
X-672700Y-347300D03*
X-672700Y-321900D03*
X-647300Y-321900D03*
X-647300Y-296500D03*
X-672700Y-296500D03*
X-647300Y-271100D03*
X-672700Y-271100D03*
X-647300Y-245700D03*
X-672700Y-245700D03*
D11*
X-684000Y-117800D02*
X-700000Y-117800D01*
X-700000Y-110800D01*
X-684000Y-110800D01*
X-684000Y-117800D01*
X-684000Y-114950D02*
X-700000Y-114950D01*
X-700000Y-112100D02*
X-684000Y-112100D01*
X-636000Y-117800D02*
X-620000Y-117800D01*
X-636000Y-117800D02*
X-636000Y-110800D01*
X-620000Y-110800D01*
X-620000Y-117800D01*
X-620000Y-114950D02*
X-636000Y-114950D01*
X-636000Y-112100D02*
X-620000Y-112100D01*
X-684000Y-92400D02*
X-700000Y-92400D01*
X-700000Y-85400D01*
X-684000Y-85400D01*
X-684000Y-92400D01*
X-684000Y-89550D02*
X-700000Y-89550D01*
X-700000Y-86700D02*
X-684000Y-86700D01*
X-636000Y-92400D02*
X-620000Y-92400D01*
X-636000Y-92400D02*
X-636000Y-85400D01*
X-620000Y-85400D01*
X-620000Y-92400D01*
X-620000Y-89550D02*
X-636000Y-89550D01*
X-636000Y-86700D02*
X-620000Y-86700D01*
X-684000Y-67000D02*
X-700000Y-67000D01*
X-700000Y-60000D01*
X-684000Y-60000D01*
X-684000Y-67000D01*
X-684000Y-64150D02*
X-700000Y-64150D01*
X-700000Y-61300D02*
X-684000Y-61300D01*
X-636000Y-67000D02*
X-620000Y-67000D01*
X-636000Y-67000D02*
X-636000Y-60000D01*
X-620000Y-60000D01*
X-620000Y-67000D01*
X-620000Y-64150D02*
X-636000Y-64150D01*
X-636000Y-61300D02*
X-620000Y-61300D01*
X-684000Y-41600D02*
X-700000Y-41600D01*
X-700000Y-34600D01*
X-684000Y-34600D01*
X-684000Y-41600D01*
X-684000Y-38750D02*
X-700000Y-38750D01*
X-700000Y-35900D02*
X-684000Y-35900D01*
X-636000Y-41600D02*
X-620000Y-41600D01*
X-636000Y-41600D02*
X-636000Y-34600D01*
X-620000Y-34600D01*
X-620000Y-41600D01*
X-620000Y-38750D02*
X-636000Y-38750D01*
X-636000Y-35900D02*
X-620000Y-35900D01*
X-684000Y-16200D02*
X-700000Y-16200D01*
X-700000Y-9200D01*
X-684000Y-9200D01*
X-684000Y-16200D01*
X-684000Y-13350D02*
X-700000Y-13350D01*
X-700000Y-10500D02*
X-684000Y-10500D01*
X-636000Y-16200D02*
X-620000Y-16200D01*
X-636000Y-16200D02*
X-636000Y-9200D01*
X-620000Y-9200D01*
X-620000Y-16200D01*
X-620000Y-13350D02*
X-636000Y-13350D01*
X-636000Y-10500D02*
X-620000Y-10500D01*
X-684000Y9200D02*
X-700000Y9200D01*
X-700000Y16200D01*
X-684000Y16200D01*
X-684000Y9200D01*
X-684000Y12050D02*
X-700000Y12050D01*
X-700000Y14900D02*
X-684000Y14900D01*
X-636000Y9200D02*
X-620000Y9200D01*
X-636000Y9200D02*
X-636000Y16200D01*
X-620000Y16200D01*
X-620000Y9200D01*
X-620000Y12050D02*
X-636000Y12050D01*
X-636000Y14900D02*
X-620000Y14900D01*
X-684000Y34600D02*
X-700000Y34600D01*
X-700000Y41600D01*
X-684000Y41600D01*
X-684000Y34600D01*
X-684000Y37450D02*
X-700000Y37450D01*
X-700000Y40300D02*
X-684000Y40300D01*
X-636000Y34600D02*
X-620000Y34600D01*
X-636000Y34600D02*
X-636000Y41600D01*
X-620000Y41600D01*
X-620000Y34600D01*
X-620000Y37450D02*
X-636000Y37450D01*
X-636000Y40300D02*
X-620000Y40300D01*
X-684000Y60000D02*
X-700000Y60000D01*
X-700000Y67000D01*
X-684000Y67000D01*
X-684000Y60000D01*
X-684000Y62850D02*
X-700000Y62850D01*
X-700000Y65700D02*
X-684000Y65700D01*
X-636000Y60000D02*
X-620000Y60000D01*
X-636000Y60000D02*
X-636000Y67000D01*
X-620000Y67000D01*
X-620000Y60000D01*
X-620000Y62850D02*
X-636000Y62850D01*
X-636000Y65700D02*
X-620000Y65700D01*
X-684000Y85400D02*
X-700000Y85400D01*
X-700000Y92400D01*
X-684000Y92400D01*
X-684000Y85400D01*
X-684000Y88250D02*
X-700000Y88250D01*
X-700000Y91100D02*
X-684000Y91100D01*
X-636000Y85400D02*
X-620000Y85400D01*
X-636000Y85400D02*
X-636000Y92400D01*
X-620000Y92400D01*
X-620000Y85400D01*
X-620000Y88250D02*
X-636000Y88250D01*
X-636000Y91100D02*
X-620000Y91100D01*
X-684000Y110800D02*
X-700000Y110800D01*
X-700000Y117800D01*
X-684000Y117800D01*
X-684000Y110800D01*
X-684000Y113650D02*
X-700000Y113650D01*
X-700000Y116500D02*
X-684000Y116500D01*
X-636000Y110800D02*
X-620000Y110800D01*
X-636000Y110800D02*
X-636000Y117800D01*
X-620000Y117800D01*
X-620000Y110800D01*
X-620000Y113650D02*
X-636000Y113650D01*
X-636000Y116500D02*
X-620000Y116500D01*
D12*
X-647300Y-114300D03*
X-647300Y-88900D03*
X-672700Y-88900D03*
X-672700Y-114300D03*
X-647300Y-63500D03*
X-672700Y-63500D03*
X-647300Y-38100D03*
X-672700Y-38100D03*
X-672700Y-12700D03*
X-647300Y-12700D03*
X-647300Y12700D03*
X-672700Y12700D03*
X-672700Y38100D03*
X-647300Y38100D03*
X-647300Y63500D03*
X-672700Y63500D03*
X-647300Y88900D03*
X-672700Y88900D03*
X-647300Y114300D03*
X-672700Y114300D03*
D11*
X-684000Y242200D02*
X-700000Y242200D01*
X-700000Y249200D01*
X-684000Y249200D01*
X-684000Y242200D01*
X-684000Y245050D02*
X-700000Y245050D01*
X-700000Y247900D02*
X-684000Y247900D01*
X-636000Y242200D02*
X-620000Y242200D01*
X-636000Y242200D02*
X-636000Y249200D01*
X-620000Y249200D01*
X-620000Y242200D01*
X-620000Y245050D02*
X-636000Y245050D01*
X-636000Y247900D02*
X-620000Y247900D01*
X-684000Y267600D02*
X-700000Y267600D01*
X-700000Y274600D01*
X-684000Y274600D01*
X-684000Y267600D01*
X-684000Y270450D02*
X-700000Y270450D01*
X-700000Y273300D02*
X-684000Y273300D01*
X-636000Y267600D02*
X-620000Y267600D01*
X-636000Y267600D02*
X-636000Y274600D01*
X-620000Y274600D01*
X-620000Y267600D01*
X-620000Y270450D02*
X-636000Y270450D01*
X-636000Y273300D02*
X-620000Y273300D01*
X-684000Y293000D02*
X-700000Y293000D01*
X-700000Y300000D01*
X-684000Y300000D01*
X-684000Y293000D01*
X-684000Y295850D02*
X-700000Y295850D01*
X-700000Y298700D02*
X-684000Y298700D01*
X-636000Y293000D02*
X-620000Y293000D01*
X-636000Y293000D02*
X-636000Y300000D01*
X-620000Y300000D01*
X-620000Y293000D01*
X-620000Y295850D02*
X-636000Y295850D01*
X-636000Y298700D02*
X-620000Y298700D01*
X-684000Y318400D02*
X-700000Y318400D01*
X-700000Y325400D01*
X-684000Y325400D01*
X-684000Y318400D01*
X-684000Y321250D02*
X-700000Y321250D01*
X-700000Y324100D02*
X-684000Y324100D01*
X-636000Y318400D02*
X-620000Y318400D01*
X-636000Y318400D02*
X-636000Y325400D01*
X-620000Y325400D01*
X-620000Y318400D01*
X-620000Y321250D02*
X-636000Y321250D01*
X-636000Y324100D02*
X-620000Y324100D01*
X-684000Y343800D02*
X-700000Y343800D01*
X-700000Y350800D01*
X-684000Y350800D01*
X-684000Y343800D01*
X-684000Y346650D02*
X-700000Y346650D01*
X-700000Y349500D02*
X-684000Y349500D01*
X-636000Y343800D02*
X-620000Y343800D01*
X-636000Y343800D02*
X-636000Y350800D01*
X-620000Y350800D01*
X-620000Y343800D01*
X-620000Y346650D02*
X-636000Y346650D01*
X-636000Y349500D02*
X-620000Y349500D01*
X-684000Y369200D02*
X-700000Y369200D01*
X-700000Y376200D01*
X-684000Y376200D01*
X-684000Y369200D01*
X-684000Y372050D02*
X-700000Y372050D01*
X-700000Y374900D02*
X-684000Y374900D01*
X-636000Y369200D02*
X-620000Y369200D01*
X-636000Y369200D02*
X-636000Y376200D01*
X-620000Y376200D01*
X-620000Y369200D01*
X-620000Y372050D02*
X-636000Y372050D01*
X-636000Y374900D02*
X-620000Y374900D01*
X-684000Y394600D02*
X-700000Y394600D01*
X-700000Y401600D01*
X-684000Y401600D01*
X-684000Y394600D01*
X-684000Y397450D02*
X-700000Y397450D01*
X-700000Y400300D02*
X-684000Y400300D01*
X-636000Y394600D02*
X-620000Y394600D01*
X-636000Y394600D02*
X-636000Y401600D01*
X-620000Y401600D01*
X-620000Y394600D01*
X-620000Y397450D02*
X-636000Y397450D01*
X-636000Y400300D02*
X-620000Y400300D01*
X-684000Y420000D02*
X-700000Y420000D01*
X-700000Y427000D01*
X-684000Y427000D01*
X-684000Y420000D01*
X-684000Y422850D02*
X-700000Y422850D01*
X-700000Y425700D02*
X-684000Y425700D01*
X-636000Y420000D02*
X-620000Y420000D01*
X-636000Y420000D02*
X-636000Y427000D01*
X-620000Y427000D01*
X-620000Y420000D01*
X-620000Y422850D02*
X-636000Y422850D01*
X-636000Y425700D02*
X-620000Y425700D01*
X-684000Y445400D02*
X-700000Y445400D01*
X-700000Y452400D01*
X-684000Y452400D01*
X-684000Y445400D01*
X-684000Y448250D02*
X-700000Y448250D01*
X-700000Y451100D02*
X-684000Y451100D01*
X-636000Y445400D02*
X-620000Y445400D01*
X-636000Y445400D02*
X-636000Y452400D01*
X-620000Y452400D01*
X-620000Y445400D01*
X-620000Y448250D02*
X-636000Y448250D01*
X-636000Y451100D02*
X-620000Y451100D01*
X-684000Y470800D02*
X-700000Y470800D01*
X-700000Y477800D01*
X-684000Y477800D01*
X-684000Y470800D01*
X-684000Y473650D02*
X-700000Y473650D01*
X-700000Y476500D02*
X-684000Y476500D01*
X-636000Y470800D02*
X-620000Y470800D01*
X-636000Y470800D02*
X-636000Y477800D01*
X-620000Y477800D01*
X-620000Y470800D01*
X-620000Y473650D02*
X-636000Y473650D01*
X-636000Y476500D02*
X-620000Y476500D01*
D12*
X-647300Y245700D03*
X-647300Y271100D03*
X-672700Y271100D03*
X-672700Y245700D03*
X-647300Y296500D03*
X-672700Y296500D03*
X-647300Y321900D03*
X-672700Y321900D03*
X-672700Y347300D03*
X-647300Y347300D03*
X-647300Y372700D03*
X-672700Y372700D03*
X-672700Y398100D03*
X-647300Y398100D03*
X-647300Y423500D03*
X-672700Y423500D03*
X-647300Y448900D03*
X-672700Y448900D03*
X-647300Y474300D03*
X-672700Y474300D03*
D14*
X-31995Y-426995D02*
X-24005Y-426995D01*
X-31995Y-426995D02*
X-31995Y-417005D01*
X-24005Y-417005D01*
X-24005Y-426995D01*
X-24005Y-418436D02*
X-31995Y-418436D01*
X-3995Y-426995D02*
X3995Y-426995D01*
X-3995Y-426995D02*
X-3995Y-417005D01*
X3995Y-417005D01*
X3995Y-426995D01*
X3995Y-418436D02*
X-3995Y-418436D01*
D10*
X560525Y-12525D02*
X566475Y-12525D01*
X566475Y-17475D01*
X560525Y-17475D01*
X560525Y-12525D01*
X549475Y-12525D02*
X543525Y-12525D01*
X549475Y-12525D02*
X549475Y-17475D01*
X543525Y-17475D01*
X543525Y-12525D01*
X560525Y-92525D02*
X566475Y-92525D01*
X566475Y-97475D01*
X560525Y-97475D01*
X560525Y-92525D01*
X549475Y-92525D02*
X543525Y-92525D01*
X549475Y-92525D02*
X549475Y-97475D01*
X543525Y-97475D01*
X543525Y-92525D01*
X560525Y-112525D02*
X566475Y-112525D01*
X566475Y-117475D01*
X560525Y-117475D01*
X560525Y-112525D01*
X549475Y-112525D02*
X543525Y-112525D01*
X549475Y-112525D02*
X549475Y-117475D01*
X543525Y-117475D01*
X543525Y-112525D01*
X543525Y2525D02*
X549475Y2525D01*
X543525Y2525D02*
X543525Y7475D01*
X549475Y7475D01*
X549475Y2525D01*
X560525Y2525D02*
X566475Y2525D01*
X560525Y2525D02*
X560525Y7475D01*
X566475Y7475D01*
X566475Y2525D01*
X566475Y-132525D02*
X560525Y-132525D01*
X566475Y-132525D02*
X566475Y-137475D01*
X560525Y-137475D01*
X560525Y-132525D01*
X549475Y-132525D02*
X543525Y-132525D01*
X549475Y-132525D02*
X549475Y-137475D01*
X543525Y-137475D01*
X543525Y-132525D01*
X560525Y-72525D02*
X566475Y-72525D01*
X566475Y-77475D01*
X560525Y-77475D01*
X560525Y-72525D01*
X549475Y-72525D02*
X543525Y-72525D01*
X549475Y-72525D02*
X549475Y-77475D01*
X543525Y-77475D01*
X543525Y-72525D01*
D18*
X84985Y-300485D02*
X84985Y-308515D01*
X84985Y-300485D02*
X97015Y-300485D01*
X97015Y-308515D01*
X84985Y-308515D01*
X84985Y-305694D02*
X97015Y-305694D01*
X97015Y-302873D02*
X84985Y-302873D01*
X84985Y-319485D02*
X84985Y-327515D01*
X84985Y-319485D02*
X97015Y-319485D01*
X97015Y-327515D01*
X84985Y-327515D01*
X84985Y-324694D02*
X97015Y-324694D01*
X97015Y-321873D02*
X84985Y-321873D01*
X62985Y-318015D02*
X62985Y-309985D01*
X75015Y-309985D01*
X75015Y-318015D01*
X62985Y-318015D01*
X62985Y-315194D02*
X75015Y-315194D01*
X75015Y-312373D02*
X62985Y-312373D01*
X-20015Y-299515D02*
X-20015Y-291485D01*
X-7985Y-291485D01*
X-7985Y-299515D01*
X-20015Y-299515D01*
X-20015Y-296694D02*
X-7985Y-296694D01*
X-7985Y-293873D02*
X-20015Y-293873D01*
X-20015Y-310485D02*
X-20015Y-318515D01*
X-20015Y-310485D02*
X-7985Y-310485D01*
X-7985Y-318515D01*
X-20015Y-318515D01*
X-20015Y-315694D02*
X-7985Y-315694D01*
X-7985Y-312873D02*
X-20015Y-312873D01*
X-42015Y-309015D02*
X-42015Y-300985D01*
X-29985Y-300985D01*
X-29985Y-309015D01*
X-42015Y-309015D01*
X-42015Y-306194D02*
X-29985Y-306194D01*
X-29985Y-303373D02*
X-42015Y-303373D01*
X-155985Y-325015D02*
X-164015Y-325015D01*
X-164015Y-312985D01*
X-155985Y-312985D01*
X-155985Y-325015D01*
X-155985Y-322194D02*
X-164015Y-322194D01*
X-164015Y-319373D02*
X-155985Y-319373D01*
X-155985Y-316552D02*
X-164015Y-316552D01*
X-164015Y-313731D02*
X-155985Y-313731D01*
X-145015Y-325015D02*
X-136985Y-325015D01*
X-145015Y-325015D02*
X-145015Y-312985D01*
X-136985Y-312985D01*
X-136985Y-325015D01*
X-136985Y-322194D02*
X-145015Y-322194D01*
X-145015Y-319373D02*
X-136985Y-319373D01*
X-136985Y-316552D02*
X-145015Y-316552D01*
X-145015Y-313731D02*
X-136985Y-313731D01*
X-146485Y-347015D02*
X-154515Y-347015D01*
X-154515Y-334985D01*
X-146485Y-334985D01*
X-146485Y-347015D01*
X-146485Y-344194D02*
X-154515Y-344194D01*
X-154515Y-341373D02*
X-146485Y-341373D01*
X-146485Y-338552D02*
X-154515Y-338552D01*
X-154515Y-335731D02*
X-146485Y-335731D01*
X281015Y251735D02*
X281015Y254265D01*
X281015Y251735D02*
X274985Y251735D01*
X274985Y254265D01*
X281015Y254265D01*
X305015Y254265D02*
X305015Y251735D01*
X298985Y251735D01*
X298985Y254265D01*
X305015Y254265D01*
X281015Y259735D02*
X281015Y262265D01*
X281015Y259735D02*
X274985Y259735D01*
X274985Y262265D01*
X281015Y262265D01*
X305015Y262265D02*
X305015Y259735D01*
X298985Y259735D01*
X298985Y262265D01*
X305015Y262265D01*
X281015Y267735D02*
X281015Y270265D01*
X281015Y267735D02*
X274985Y267735D01*
X274985Y270265D01*
X281015Y270265D01*
X305015Y270265D02*
X305015Y267735D01*
X298985Y267735D01*
X298985Y270265D01*
X305015Y270265D01*
X281015Y275735D02*
X281015Y278265D01*
X281015Y275735D02*
X274985Y275735D01*
X274985Y278265D01*
X281015Y278265D01*
X305015Y278265D02*
X305015Y275735D01*
X298985Y275735D01*
X298985Y278265D01*
X305015Y278265D01*
X281015Y-460735D02*
X281015Y-463265D01*
X274985Y-463265D01*
X274985Y-460735D01*
X281015Y-460735D01*
X305015Y-460735D02*
X305015Y-463265D01*
X298985Y-463265D01*
X298985Y-460735D01*
X305015Y-460735D01*
X281015Y-455265D02*
X281015Y-452735D01*
X281015Y-455265D02*
X274985Y-455265D01*
X274985Y-452735D01*
X281015Y-452735D01*
X305015Y-452735D02*
X305015Y-455265D01*
X298985Y-455265D01*
X298985Y-452735D01*
X305015Y-452735D01*
X281015Y-447265D02*
X281015Y-444735D01*
X281015Y-447265D02*
X274985Y-447265D01*
X274985Y-444735D01*
X281015Y-444735D01*
X305015Y-444735D02*
X305015Y-447265D01*
X298985Y-447265D01*
X298985Y-444735D01*
X305015Y-444735D01*
X281015Y-439265D02*
X281015Y-436735D01*
X281015Y-439265D02*
X274985Y-439265D01*
X274985Y-436735D01*
X281015Y-436735D01*
X305015Y-436735D02*
X305015Y-439265D01*
X298985Y-439265D01*
X298985Y-436735D01*
X305015Y-436735D01*
X-281015Y-254265D02*
X-281015Y-251735D01*
X-274985Y-251735D01*
X-274985Y-254265D01*
X-281015Y-254265D01*
X-305015Y-254265D02*
X-305015Y-251735D01*
X-298985Y-251735D01*
X-298985Y-254265D01*
X-305015Y-254265D01*
X-281015Y-259735D02*
X-281015Y-262265D01*
X-281015Y-259735D02*
X-274985Y-259735D01*
X-274985Y-262265D01*
X-281015Y-262265D01*
X-305015Y-262265D02*
X-305015Y-259735D01*
X-298985Y-259735D01*
X-298985Y-262265D01*
X-305015Y-262265D01*
X-281015Y-267735D02*
X-281015Y-270265D01*
X-281015Y-267735D02*
X-274985Y-267735D01*
X-274985Y-270265D01*
X-281015Y-270265D01*
X-305015Y-270265D02*
X-305015Y-267735D01*
X-298985Y-267735D01*
X-298985Y-270265D01*
X-305015Y-270265D01*
X-281015Y-275735D02*
X-281015Y-278265D01*
X-281015Y-275735D02*
X-274985Y-275735D01*
X-274985Y-278265D01*
X-281015Y-278265D01*
X-305015Y-278265D02*
X-305015Y-275735D01*
X-298985Y-275735D01*
X-298985Y-278265D01*
X-305015Y-278265D01*
X281015Y-108265D02*
X281015Y-105735D01*
X281015Y-108265D02*
X274985Y-108265D01*
X274985Y-105735D01*
X281015Y-105735D01*
X305015Y-105735D02*
X305015Y-108265D01*
X298985Y-108265D01*
X298985Y-105735D01*
X305015Y-105735D01*
X281015Y-100265D02*
X281015Y-97735D01*
X281015Y-100265D02*
X274985Y-100265D01*
X274985Y-97735D01*
X281015Y-97735D01*
X305015Y-97735D02*
X305015Y-100265D01*
X298985Y-100265D01*
X298985Y-97735D01*
X305015Y-97735D01*
X281015Y-92265D02*
X281015Y-89735D01*
X281015Y-92265D02*
X274985Y-92265D01*
X274985Y-89735D01*
X281015Y-89735D01*
X305015Y-89735D02*
X305015Y-92265D01*
X298985Y-92265D01*
X298985Y-89735D01*
X305015Y-89735D01*
X281015Y-84265D02*
X281015Y-81735D01*
X281015Y-84265D02*
X274985Y-84265D01*
X274985Y-81735D01*
X281015Y-81735D01*
X305015Y-81735D02*
X305015Y-84265D01*
X298985Y-84265D01*
X298985Y-81735D01*
X305015Y-81735D01*
X-281015Y100735D02*
X-281015Y103265D01*
X-274985Y103265D01*
X-274985Y100735D01*
X-281015Y100735D01*
X-305015Y100735D02*
X-305015Y103265D01*
X-298985Y103265D01*
X-298985Y100735D01*
X-305015Y100735D01*
X-281015Y95265D02*
X-281015Y92735D01*
X-281015Y95265D02*
X-274985Y95265D01*
X-274985Y92735D01*
X-281015Y92735D01*
X-305015Y92735D02*
X-305015Y95265D01*
X-298985Y95265D01*
X-298985Y92735D01*
X-305015Y92735D01*
X-281015Y87265D02*
X-281015Y84735D01*
X-281015Y87265D02*
X-274985Y87265D01*
X-274985Y84735D01*
X-281015Y84735D01*
X-305015Y84735D02*
X-305015Y87265D01*
X-298985Y87265D01*
X-298985Y84735D01*
X-305015Y84735D01*
X-281015Y79265D02*
X-281015Y76735D01*
X-281015Y79265D02*
X-274985Y79265D01*
X-274985Y76735D01*
X-281015Y76735D01*
X-305015Y76735D02*
X-305015Y79265D01*
X-298985Y79265D01*
X-298985Y76735D01*
X-305015Y76735D01*
X-281015Y460735D02*
X-281015Y463265D01*
X-274985Y463265D01*
X-274985Y460735D01*
X-281015Y460735D01*
X-305015Y460735D02*
X-305015Y463265D01*
X-298985Y463265D01*
X-298985Y460735D01*
X-305015Y460735D01*
X-281015Y455265D02*
X-281015Y452735D01*
X-281015Y455265D02*
X-274985Y455265D01*
X-274985Y452735D01*
X-281015Y452735D01*
X-305015Y452735D02*
X-305015Y455265D01*
X-298985Y455265D01*
X-298985Y452735D01*
X-305015Y452735D01*
X-281015Y447265D02*
X-281015Y444735D01*
X-281015Y447265D02*
X-274985Y447265D01*
X-274985Y444735D01*
X-281015Y444735D01*
X-305015Y444735D02*
X-305015Y447265D01*
X-298985Y447265D01*
X-298985Y444735D01*
X-305015Y444735D01*
X-281015Y439265D02*
X-281015Y436735D01*
X-281015Y439265D02*
X-274985Y439265D01*
X-274985Y436735D01*
X-281015Y436735D01*
X-305015Y436735D02*
X-305015Y439265D01*
X-298985Y439265D01*
X-298985Y436735D01*
X-305015Y436735D01*
D26*
X-68720Y-610780D02*
X-62280Y-610780D01*
X-62280Y-619220D01*
X-68720Y-619220D01*
X-68720Y-610780D01*
X-68720Y-612038D02*
X-62280Y-612038D01*
X-81280Y-610780D02*
X-87720Y-610780D01*
X-81280Y-610780D02*
X-81280Y-619220D01*
X-87720Y-619220D01*
X-87720Y-610780D01*
X-87720Y-612038D02*
X-81280Y-612038D01*
D18*
X48015Y-620760D02*
X48015Y-588980D01*
X48015Y-620760D02*
X41985Y-620760D01*
X41985Y-588980D01*
X48015Y-588980D01*
X48015Y-617939D02*
X41985Y-617939D01*
X41985Y-615118D02*
X48015Y-615118D01*
X48015Y-612297D02*
X41985Y-612297D01*
X41985Y-609476D02*
X48015Y-609476D01*
X48015Y-606655D02*
X41985Y-606655D01*
X41985Y-603834D02*
X48015Y-603834D01*
X48015Y-601013D02*
X41985Y-601013D01*
X41985Y-598192D02*
X48015Y-598192D01*
X48015Y-595371D02*
X41985Y-595371D01*
X41985Y-592550D02*
X48015Y-592550D01*
X48015Y-589729D02*
X41985Y-589729D01*
X36015Y-588980D02*
X36015Y-620760D01*
X29985Y-620760D01*
X29985Y-588980D01*
X36015Y-588980D01*
X36015Y-617939D02*
X29985Y-617939D01*
X29985Y-615118D02*
X36015Y-615118D01*
X36015Y-612297D02*
X29985Y-612297D01*
X29985Y-609476D02*
X36015Y-609476D01*
X36015Y-606655D02*
X29985Y-606655D01*
X29985Y-603834D02*
X36015Y-603834D01*
X36015Y-601013D02*
X29985Y-601013D01*
X29985Y-598192D02*
X36015Y-598192D01*
X36015Y-595371D02*
X29985Y-595371D01*
X29985Y-592550D02*
X36015Y-592550D01*
X36015Y-589729D02*
X29985Y-589729D01*
X24015Y-588980D02*
X24015Y-620760D01*
X17985Y-620760D01*
X17985Y-588980D01*
X24015Y-588980D01*
X24015Y-617939D02*
X17985Y-617939D01*
X17985Y-615118D02*
X24015Y-615118D01*
X24015Y-612297D02*
X17985Y-612297D01*
X17985Y-609476D02*
X24015Y-609476D01*
X24015Y-606655D02*
X17985Y-606655D01*
X17985Y-603834D02*
X24015Y-603834D01*
X24015Y-601013D02*
X17985Y-601013D01*
X17985Y-598192D02*
X24015Y-598192D01*
X24015Y-595371D02*
X17985Y-595371D01*
X17985Y-592550D02*
X24015Y-592550D01*
X24015Y-589729D02*
X17985Y-589729D01*
X12015Y-588980D02*
X12015Y-620760D01*
X5985Y-620760D01*
X5985Y-588980D01*
X12015Y-588980D01*
X12015Y-617939D02*
X5985Y-617939D01*
X5985Y-615118D02*
X12015Y-615118D01*
X12015Y-612297D02*
X5985Y-612297D01*
X5985Y-609476D02*
X12015Y-609476D01*
X12015Y-606655D02*
X5985Y-606655D01*
X5985Y-603834D02*
X12015Y-603834D01*
X12015Y-601013D02*
X5985Y-601013D01*
X5985Y-598192D02*
X12015Y-598192D01*
X12015Y-595371D02*
X5985Y-595371D01*
X5985Y-592550D02*
X12015Y-592550D01*
X12015Y-589729D02*
X5985Y-589729D01*
X15Y-588980D02*
X15Y-620760D01*
X-6015Y-620760D01*
X-6015Y-588980D01*
X15Y-588980D01*
X15Y-617939D02*
X-6015Y-617939D01*
X-6015Y-615118D02*
X15Y-615118D01*
X15Y-612297D02*
X-6015Y-612297D01*
X-6015Y-609476D02*
X15Y-609476D01*
X15Y-606655D02*
X-6015Y-606655D01*
X-6015Y-603834D02*
X15Y-603834D01*
X15Y-601013D02*
X-6015Y-601013D01*
X-6015Y-598192D02*
X15Y-598192D01*
X15Y-595371D02*
X-6015Y-595371D01*
X-6015Y-592550D02*
X15Y-592550D01*
X15Y-589729D02*
X-6015Y-589729D01*
X-11985Y-588980D02*
X-11985Y-620760D01*
X-18015Y-620760D01*
X-18015Y-588980D01*
X-11985Y-588980D01*
X-11985Y-617939D02*
X-18015Y-617939D01*
X-18015Y-615118D02*
X-11985Y-615118D01*
X-11985Y-612297D02*
X-18015Y-612297D01*
X-18015Y-609476D02*
X-11985Y-609476D01*
X-11985Y-606655D02*
X-18015Y-606655D01*
X-18015Y-603834D02*
X-11985Y-603834D01*
X-11985Y-601013D02*
X-18015Y-601013D01*
X-18015Y-598192D02*
X-11985Y-598192D01*
X-11985Y-595371D02*
X-18015Y-595371D01*
X-18015Y-592550D02*
X-11985Y-592550D01*
X-11985Y-589729D02*
X-18015Y-589729D01*
X-23985Y-588980D02*
X-23985Y-620760D01*
X-30015Y-620760D01*
X-30015Y-588980D01*
X-23985Y-588980D01*
X-23985Y-617939D02*
X-30015Y-617939D01*
X-30015Y-615118D02*
X-23985Y-615118D01*
X-23985Y-612297D02*
X-30015Y-612297D01*
X-30015Y-609476D02*
X-23985Y-609476D01*
X-23985Y-606655D02*
X-30015Y-606655D01*
X-30015Y-603834D02*
X-23985Y-603834D01*
X-23985Y-601013D02*
X-30015Y-601013D01*
X-30015Y-598192D02*
X-23985Y-598192D01*
X-23985Y-595371D02*
X-30015Y-595371D01*
X-30015Y-592550D02*
X-23985Y-592550D01*
X-23985Y-589729D02*
X-30015Y-589729D01*
X-35985Y-588980D02*
X-35985Y-620760D01*
X-42015Y-620760D01*
X-42015Y-588980D01*
X-35985Y-588980D01*
X-35985Y-617939D02*
X-42015Y-617939D01*
X-42015Y-615118D02*
X-35985Y-615118D01*
X-35985Y-612297D02*
X-42015Y-612297D01*
X-42015Y-609476D02*
X-35985Y-609476D01*
X-35985Y-606655D02*
X-42015Y-606655D01*
X-42015Y-603834D02*
X-35985Y-603834D01*
X-35985Y-601013D02*
X-42015Y-601013D01*
X-42015Y-598192D02*
X-35985Y-598192D01*
X-35985Y-595371D02*
X-42015Y-595371D01*
X-42015Y-592550D02*
X-35985Y-592550D01*
X-35985Y-589729D02*
X-42015Y-589729D01*
X-35985Y-477020D02*
X-35985Y-445240D01*
X-35985Y-477020D02*
X-42015Y-477020D01*
X-42015Y-445240D01*
X-35985Y-445240D01*
X-35985Y-474199D02*
X-42015Y-474199D01*
X-42015Y-471378D02*
X-35985Y-471378D01*
X-35985Y-468557D02*
X-42015Y-468557D01*
X-42015Y-465736D02*
X-35985Y-465736D01*
X-35985Y-462915D02*
X-42015Y-462915D01*
X-42015Y-460094D02*
X-35985Y-460094D01*
X-35985Y-457273D02*
X-42015Y-457273D01*
X-42015Y-454452D02*
X-35985Y-454452D01*
X-35985Y-451631D02*
X-42015Y-451631D01*
X-42015Y-448810D02*
X-35985Y-448810D01*
X-35985Y-445989D02*
X-42015Y-445989D01*
X-23985Y-445240D02*
X-23985Y-477020D01*
X-30015Y-477020D01*
X-30015Y-445240D01*
X-23985Y-445240D01*
X-23985Y-474199D02*
X-30015Y-474199D01*
X-30015Y-471378D02*
X-23985Y-471378D01*
X-23985Y-468557D02*
X-30015Y-468557D01*
X-30015Y-465736D02*
X-23985Y-465736D01*
X-23985Y-462915D02*
X-30015Y-462915D01*
X-30015Y-460094D02*
X-23985Y-460094D01*
X-23985Y-457273D02*
X-30015Y-457273D01*
X-30015Y-454452D02*
X-23985Y-454452D01*
X-23985Y-451631D02*
X-30015Y-451631D01*
X-30015Y-448810D02*
X-23985Y-448810D01*
X-23985Y-445989D02*
X-30015Y-445989D01*
X-11985Y-445240D02*
X-11985Y-477020D01*
X-18015Y-477020D01*
X-18015Y-445240D01*
X-11985Y-445240D01*
X-11985Y-474199D02*
X-18015Y-474199D01*
X-18015Y-471378D02*
X-11985Y-471378D01*
X-11985Y-468557D02*
X-18015Y-468557D01*
X-18015Y-465736D02*
X-11985Y-465736D01*
X-11985Y-462915D02*
X-18015Y-462915D01*
X-18015Y-460094D02*
X-11985Y-460094D01*
X-11985Y-457273D02*
X-18015Y-457273D01*
X-18015Y-454452D02*
X-11985Y-454452D01*
X-11985Y-451631D02*
X-18015Y-451631D01*
X-18015Y-448810D02*
X-11985Y-448810D01*
X-11985Y-445989D02*
X-18015Y-445989D01*
X15Y-445240D02*
X15Y-477020D01*
X-6015Y-477020D01*
X-6015Y-445240D01*
X15Y-445240D01*
X15Y-474199D02*
X-6015Y-474199D01*
X-6015Y-471378D02*
X15Y-471378D01*
X15Y-468557D02*
X-6015Y-468557D01*
X-6015Y-465736D02*
X15Y-465736D01*
X15Y-462915D02*
X-6015Y-462915D01*
X-6015Y-460094D02*
X15Y-460094D01*
X15Y-457273D02*
X-6015Y-457273D01*
X-6015Y-454452D02*
X15Y-454452D01*
X15Y-451631D02*
X-6015Y-451631D01*
X-6015Y-448810D02*
X15Y-448810D01*
X15Y-445989D02*
X-6015Y-445989D01*
X12015Y-445240D02*
X12015Y-477020D01*
X5985Y-477020D01*
X5985Y-445240D01*
X12015Y-445240D01*
X12015Y-474199D02*
X5985Y-474199D01*
X5985Y-471378D02*
X12015Y-471378D01*
X12015Y-468557D02*
X5985Y-468557D01*
X5985Y-465736D02*
X12015Y-465736D01*
X12015Y-462915D02*
X5985Y-462915D01*
X5985Y-460094D02*
X12015Y-460094D01*
X12015Y-457273D02*
X5985Y-457273D01*
X5985Y-454452D02*
X12015Y-454452D01*
X12015Y-451631D02*
X5985Y-451631D01*
X5985Y-448810D02*
X12015Y-448810D01*
X12015Y-445989D02*
X5985Y-445989D01*
X24015Y-445240D02*
X24015Y-477020D01*
X17985Y-477020D01*
X17985Y-445240D01*
X24015Y-445240D01*
X24015Y-474199D02*
X17985Y-474199D01*
X17985Y-471378D02*
X24015Y-471378D01*
X24015Y-468557D02*
X17985Y-468557D01*
X17985Y-465736D02*
X24015Y-465736D01*
X24015Y-462915D02*
X17985Y-462915D01*
X17985Y-460094D02*
X24015Y-460094D01*
X24015Y-457273D02*
X17985Y-457273D01*
X17985Y-454452D02*
X24015Y-454452D01*
X24015Y-451631D02*
X17985Y-451631D01*
X17985Y-448810D02*
X24015Y-448810D01*
X24015Y-445989D02*
X17985Y-445989D01*
X36015Y-445240D02*
X36015Y-477020D01*
X29985Y-477020D01*
X29985Y-445240D01*
X36015Y-445240D01*
X36015Y-474199D02*
X29985Y-474199D01*
X29985Y-471378D02*
X36015Y-471378D01*
X36015Y-468557D02*
X29985Y-468557D01*
X29985Y-465736D02*
X36015Y-465736D01*
X36015Y-462915D02*
X29985Y-462915D01*
X29985Y-460094D02*
X36015Y-460094D01*
X36015Y-457273D02*
X29985Y-457273D01*
X29985Y-454452D02*
X36015Y-454452D01*
X36015Y-451631D02*
X29985Y-451631D01*
X29985Y-448810D02*
X36015Y-448810D01*
X36015Y-445989D02*
X29985Y-445989D01*
X48015Y-445240D02*
X48015Y-477020D01*
X41985Y-477020D01*
X41985Y-445240D01*
X48015Y-445240D01*
X48015Y-474199D02*
X41985Y-474199D01*
X41985Y-471378D02*
X48015Y-471378D01*
X48015Y-468557D02*
X41985Y-468557D01*
X41985Y-465736D02*
X48015Y-465736D01*
X48015Y-462915D02*
X41985Y-462915D01*
X41985Y-460094D02*
X48015Y-460094D01*
X48015Y-457273D02*
X41985Y-457273D01*
X41985Y-454452D02*
X48015Y-454452D01*
X48015Y-451631D02*
X41985Y-451631D01*
X41985Y-448810D02*
X48015Y-448810D01*
X48015Y-445989D02*
X41985Y-445989D01*
D23*
X184600Y533000D03*
X210000Y533000D03*
X235400Y533000D03*
X184600Y558400D03*
X210000Y558400D03*
X235400Y558400D03*
X184600Y609200D03*
X235400Y609200D03*
D27*
X763Y218259D02*
X763Y207969D01*
X763Y218259D02*
X21213Y218259D01*
X21213Y207969D01*
X763Y207969D01*
X763Y210726D02*
X21213Y210726D01*
X21213Y213483D02*
X763Y213483D01*
X763Y216240D02*
X21213Y216240D01*
X763Y195145D02*
X763Y184855D01*
X763Y195145D02*
X21213Y195145D01*
X21213Y184855D01*
X763Y184855D01*
X763Y187612D02*
X21213Y187612D01*
X21213Y190369D02*
X763Y190369D01*
X763Y193126D02*
X21213Y193126D01*
X763Y172031D02*
X763Y161741D01*
X763Y172031D02*
X21213Y172031D01*
X21213Y161741D01*
X763Y161741D01*
X763Y164498D02*
X21213Y164498D01*
X21213Y167255D02*
X763Y167255D01*
X763Y170012D02*
X21213Y170012D01*
D28*
X-60995Y172995D02*
X-60995Y207005D01*
X-40985Y207005D01*
X-40985Y172995D01*
X-60995Y172995D01*
X-60995Y175835D02*
X-40985Y175835D01*
X-40985Y178675D02*
X-60995Y178675D01*
X-60995Y181515D02*
X-40985Y181515D01*
X-40985Y184355D02*
X-60995Y184355D01*
X-60995Y187195D02*
X-40985Y187195D01*
X-40985Y190035D02*
X-60995Y190035D01*
X-60995Y192875D02*
X-40985Y192875D01*
X-40985Y195715D02*
X-60995Y195715D01*
X-60995Y198555D02*
X-40985Y198555D01*
X-40985Y201395D02*
X-60995Y201395D01*
X-60995Y204235D02*
X-40985Y204235D01*
D26*
X-45780Y237280D02*
X-45780Y243720D01*
X-45780Y237280D02*
X-54220Y237280D01*
X-54220Y243720D01*
X-45780Y243720D01*
X-45780Y256280D02*
X-45780Y262720D01*
X-45780Y256280D02*
X-54220Y256280D01*
X-54220Y262720D01*
X-45780Y262720D01*
X-65780Y243720D02*
X-65780Y237280D01*
X-74220Y237280D01*
X-74220Y243720D01*
X-65780Y243720D01*
X-65780Y256280D02*
X-65780Y262720D01*
X-65780Y256280D02*
X-74220Y256280D01*
X-74220Y262720D01*
X-65780Y262720D01*
D10*
X25525Y242475D02*
X31475Y242475D01*
X31475Y237525D01*
X25525Y237525D01*
X25525Y242475D01*
X14475Y242475D02*
X8525Y242475D01*
X14475Y242475D02*
X14475Y237525D01*
X8525Y237525D01*
X8525Y242475D01*
X47525Y241475D02*
X47525Y235525D01*
X47525Y241475D02*
X52475Y241475D01*
X52475Y235525D01*
X47525Y235525D01*
X47525Y241272D02*
X52475Y241272D01*
X47525Y224475D02*
X47525Y218525D01*
X47525Y224475D02*
X52475Y224475D01*
X52475Y218525D01*
X47525Y218525D01*
X47525Y224272D02*
X52475Y224272D01*
D29*
X517700Y84250D03*
X492300Y71550D03*
X517700Y58850D03*
X492300Y46150D03*
X517700Y33450D03*
X492300Y20750D03*
X517700Y8050D03*
X492300Y-4650D03*
X517700Y-17350D03*
X492300Y-30050D03*
X517700Y-42750D03*
X492300Y-55450D03*
X517700Y-68150D03*
X492300Y-80850D03*
X517700Y-93550D03*
X492300Y-106250D03*
D11*
X585000Y-105100D02*
X601000Y-105100D01*
X585000Y-105100D02*
X585000Y-98100D01*
X601000Y-98100D01*
X601000Y-105100D01*
X601000Y-102250D02*
X585000Y-102250D01*
X585000Y-99400D02*
X601000Y-99400D01*
X649000Y-105100D02*
X665000Y-105100D01*
X649000Y-105100D02*
X649000Y-98100D01*
X665000Y-98100D01*
X665000Y-105100D01*
X665000Y-102250D02*
X649000Y-102250D01*
X649000Y-99400D02*
X665000Y-99400D01*
X601000Y-79700D02*
X585000Y-79700D01*
X585000Y-72700D01*
X601000Y-72700D01*
X601000Y-79700D01*
X601000Y-76850D02*
X585000Y-76850D01*
X585000Y-74000D02*
X601000Y-74000D01*
X649000Y-79700D02*
X665000Y-79700D01*
X649000Y-79700D02*
X649000Y-72700D01*
X665000Y-72700D01*
X665000Y-79700D01*
X665000Y-76850D02*
X649000Y-76850D01*
X649000Y-74000D02*
X665000Y-74000D01*
X601000Y-54300D02*
X585000Y-54300D01*
X585000Y-47300D01*
X601000Y-47300D01*
X601000Y-54300D01*
X601000Y-51450D02*
X585000Y-51450D01*
X585000Y-48600D02*
X601000Y-48600D01*
X649000Y-54300D02*
X665000Y-54300D01*
X649000Y-54300D02*
X649000Y-47300D01*
X665000Y-47300D01*
X665000Y-54300D01*
X665000Y-51450D02*
X649000Y-51450D01*
X649000Y-48600D02*
X665000Y-48600D01*
X601000Y-28900D02*
X585000Y-28900D01*
X585000Y-21900D01*
X601000Y-21900D01*
X601000Y-28900D01*
X601000Y-26050D02*
X585000Y-26050D01*
X585000Y-23200D02*
X601000Y-23200D01*
X649000Y-28900D02*
X665000Y-28900D01*
X649000Y-28900D02*
X649000Y-21900D01*
X665000Y-21900D01*
X665000Y-28900D01*
X665000Y-26050D02*
X649000Y-26050D01*
X649000Y-23200D02*
X665000Y-23200D01*
X601000Y-3500D02*
X585000Y-3500D01*
X585000Y3500D01*
X601000Y3500D01*
X601000Y-3500D01*
X601000Y-650D02*
X585000Y-650D01*
X585000Y2200D02*
X601000Y2200D01*
X649000Y-3500D02*
X665000Y-3500D01*
X649000Y-3500D02*
X649000Y3500D01*
X665000Y3500D01*
X665000Y-3500D01*
X665000Y-650D02*
X649000Y-650D01*
X649000Y2200D02*
X665000Y2200D01*
X601000Y21900D02*
X585000Y21900D01*
X585000Y28900D01*
X601000Y28900D01*
X601000Y21900D01*
X601000Y24750D02*
X585000Y24750D01*
X585000Y27600D02*
X601000Y27600D01*
X649000Y21900D02*
X665000Y21900D01*
X649000Y21900D02*
X649000Y28900D01*
X665000Y28900D01*
X665000Y21900D01*
X665000Y24750D02*
X649000Y24750D01*
X649000Y27600D02*
X665000Y27600D01*
X601000Y47300D02*
X585000Y47300D01*
X585000Y54300D01*
X601000Y54300D01*
X601000Y47300D01*
X601000Y50150D02*
X585000Y50150D01*
X585000Y53000D02*
X601000Y53000D01*
X649000Y47300D02*
X665000Y47300D01*
X649000Y47300D02*
X649000Y54300D01*
X665000Y54300D01*
X665000Y47300D01*
X665000Y50150D02*
X649000Y50150D01*
X649000Y53000D02*
X665000Y53000D01*
X601000Y72700D02*
X585000Y72700D01*
X585000Y79700D01*
X601000Y79700D01*
X601000Y72700D01*
X601000Y75550D02*
X585000Y75550D01*
X585000Y78400D02*
X601000Y78400D01*
X649000Y72700D02*
X665000Y72700D01*
X649000Y72700D02*
X649000Y79700D01*
X665000Y79700D01*
X665000Y72700D01*
X665000Y75550D02*
X649000Y75550D01*
X649000Y78400D02*
X665000Y78400D01*
X601000Y98100D02*
X585000Y98100D01*
X585000Y105100D01*
X601000Y105100D01*
X601000Y98100D01*
X601000Y100950D02*
X585000Y100950D01*
X585000Y103800D02*
X601000Y103800D01*
X649000Y98100D02*
X665000Y98100D01*
X649000Y98100D02*
X649000Y105100D01*
X665000Y105100D01*
X665000Y98100D01*
X665000Y100950D02*
X649000Y100950D01*
X649000Y103800D02*
X665000Y103800D01*
D12*
X637700Y-101600D03*
X637700Y-76200D03*
X612300Y-76200D03*
X612300Y-101600D03*
X637700Y-50800D03*
X612300Y-50800D03*
X637700Y-25400D03*
X612300Y-25400D03*
X612300Y0D03*
X637700Y0D03*
X637700Y25400D03*
X612300Y25400D03*
X612300Y50800D03*
X637700Y50800D03*
X637700Y76200D03*
X612300Y76200D03*
X637700Y101600D03*
X612300Y101600D03*
D10*
X-80525Y-597475D02*
X-86475Y-597475D01*
X-86475Y-592525D01*
X-80525Y-592525D01*
X-80525Y-597475D01*
X-69475Y-597475D02*
X-63525Y-597475D01*
X-69475Y-597475D02*
X-69475Y-592525D01*
X-63525Y-592525D01*
X-63525Y-597475D01*
X560525Y-52525D02*
X566475Y-52525D01*
X566475Y-57475D01*
X560525Y-57475D01*
X560525Y-52525D01*
X549475Y-52525D02*
X543525Y-52525D01*
X549475Y-52525D02*
X549475Y-57475D01*
X543525Y-57475D01*
X543525Y-52525D01*
X543525Y-37475D02*
X549475Y-37475D01*
X543525Y-37475D02*
X543525Y-32525D01*
X549475Y-32525D01*
X549475Y-37475D01*
X560525Y-37475D02*
X566475Y-37475D01*
X560525Y-37475D02*
X560525Y-32525D01*
X566475Y-32525D01*
X566475Y-37475D01*
D30*
X410000Y490000D03*
X410000Y475000D03*
X410000Y460000D03*
X395000Y475000D03*
X400000Y500000D03*
X380000Y500000D03*
X360000Y500000D03*
X340000Y500000D03*
X320000Y500000D03*
X310000Y490000D03*
X310000Y475000D03*
X325000Y475000D03*
X310000Y460000D03*
X410000Y-230000D03*
X410000Y-245000D03*
X410000Y-260000D03*
X395000Y-245000D03*
X400000Y-220000D03*
X380000Y-220000D03*
X360000Y-220000D03*
X340000Y-220000D03*
X320000Y-220000D03*
X310000Y-230000D03*
X310000Y-245000D03*
X325000Y-245000D03*
X310000Y-260000D03*
X-410000Y-490000D03*
X-410000Y-475000D03*
X-410000Y-460000D03*
X-395000Y-475000D03*
X-400000Y-500000D03*
X-380000Y-500000D03*
X-360000Y-500000D03*
X-340000Y-500000D03*
X-320000Y-500000D03*
X-310000Y-490000D03*
X-325000Y-475000D03*
X-310000Y-460000D03*
X-410000Y-130000D03*
X-410000Y-115000D03*
X-410000Y-100000D03*
X-395000Y-115000D03*
X-400000Y-140000D03*
X-380000Y-140000D03*
X-360000Y-140000D03*
X-340000Y-140000D03*
X-320000Y-140000D03*
X-310000Y-130000D03*
X-310000Y-115000D03*
X-325000Y-115000D03*
X-310000Y-100000D03*
X-410000Y230000D03*
X-410000Y245000D03*
X-410000Y260000D03*
X-395000Y245000D03*
X-400000Y220000D03*
X-380000Y220000D03*
X-360000Y220000D03*
X-340000Y220000D03*
X-320000Y220000D03*
X-310000Y230000D03*
X-310000Y245000D03*
X-325000Y245000D03*
X-310000Y260000D03*
X92000Y263000D03*
X92000Y248000D03*
X92000Y233000D03*
X77000Y233000D03*
X77000Y248000D03*
X77000Y263000D03*
X0Y-28000D03*
X410000Y435000D03*
X410000Y420000D03*
X410000Y405000D03*
X395000Y425000D03*
X380000Y425000D03*
X340000Y425000D03*
X325000Y425000D03*
X310000Y435000D03*
X310000Y420000D03*
X310000Y405000D03*
X410000Y-285000D03*
X410000Y-300000D03*
X410000Y-315000D03*
X395000Y-295000D03*
X380000Y-295000D03*
X340000Y-295000D03*
X325000Y-295000D03*
X310000Y-285000D03*
X310000Y-300000D03*
X310000Y-315000D03*
X-410000Y-435000D03*
X-410000Y-420000D03*
X-410000Y-405000D03*
X-395000Y-425000D03*
X-380000Y-425000D03*
X-340000Y-425000D03*
X-325000Y-425000D03*
X-310000Y-420000D03*
X-410000Y-75000D03*
X-410000Y-60000D03*
X-410000Y-45000D03*
X-395000Y-65000D03*
X-380000Y-65000D03*
X-340000Y-65000D03*
X-325000Y-65000D03*
X-310000Y-75000D03*
X-310000Y-60000D03*
X-310000Y-45000D03*
X-410000Y285000D03*
X-410000Y300000D03*
X-410000Y315000D03*
X-395000Y295000D03*
X-380000Y295000D03*
X-340000Y295000D03*
X-325000Y295000D03*
X-310000Y285000D03*
X-310000Y300000D03*
X-310000Y315000D03*
X145000Y460000D03*
X165000Y460000D03*
X185000Y460000D03*
X185000Y440000D03*
X165000Y440000D03*
X145000Y440000D03*
X185000Y205000D03*
X165000Y205000D03*
X145000Y205000D03*
X145000Y225000D03*
X165000Y225000D03*
X185000Y225000D03*
X185000Y245000D03*
X165000Y245000D03*
X145000Y245000D03*
X145000Y265000D03*
X165000Y265000D03*
X185000Y265000D03*
X92000Y218000D03*
X92000Y203000D03*
X77000Y218000D03*
X77000Y203000D03*
X-14000Y-280000D03*
X-275000Y-355000D03*
X310000Y-334850D03*
X-190000Y-285000D03*
X-175000Y435000D03*
X-298781Y346219D03*
X-285000Y-20000D03*
X300000Y385150D03*
X310000Y30000D03*
D16*
X-185000Y-20000D03*
D30*
X-190000Y300619D03*
X-184000Y54000D03*
X-157000Y361000D03*
X-78000Y-280000D03*
X-415000Y-355000D03*
X410700Y356600D03*
X50000Y-254000D03*
X50000Y-267000D03*
X63000Y-263000D03*
X415000Y-369000D03*
X248500Y-301000D03*
X239000Y-309000D03*
X248000Y-363000D03*
X240000Y-374000D03*
X-420000Y370000D03*
X-145000Y180000D03*
X-410000Y0D03*
D31*
X227500Y389000D03*
D30*
X180000Y-340000D03*
X222902Y-359098D03*
X222902Y-124480D03*
X-80000Y-120000D03*
X49500Y-322000D03*
X0Y-107670D03*
X-50920Y-107670D03*
X-415000Y-385000D03*
D16*
X-217500Y-42500D03*
X-217000Y63000D03*
D30*
X-217000Y405000D03*
X280000Y383520D03*
X-413000Y-26000D03*
X290000Y30000D03*
X415000Y-347000D03*
X-410000Y340000D03*
X-510000Y210000D03*
X-229230Y312580D03*
M02*
