G04 EAGLE Gerber RS-274X export*
G75*
%MOMM*%
%FSLAX34Y34*%
%LPD*%
%INSoldermask Top*%
%IPPOS*%
%AMOC8*
5,1,8,0,0,1.08239X$1,22.5*%
G01*
%ADD10C,1.200000*%
%ADD11C,1.471600*%
%ADD12C,0.605000*%
%ADD13C,0.299000*%
%ADD14C,0.297000*%
%ADD15C,1.600000*%
%ADD16C,5.100000*%
%ADD17C,3.300000*%
%ADD18C,2.350000*%
%ADD19C,2.700000*%
%ADD20C,0.301000*%
%ADD21C,1.300000*%
%ADD22C,0.296553*%
%ADD23C,1.900000*%
%ADD24C,4.500000*%
%ADD25C,1.370000*%
%ADD26C,0.300000*%
%ADD27C,0.298775*%
%ADD28C,1.375000*%
%ADD29C,1.150000*%
%ADD30C,0.850000*%

G36*
X364020Y691242D02*
X364020Y691242D01*
X364039Y691240D01*
X364141Y691262D01*
X364243Y691279D01*
X364260Y691288D01*
X364280Y691292D01*
X364369Y691345D01*
X364460Y691394D01*
X364474Y691408D01*
X364491Y691418D01*
X364558Y691497D01*
X364630Y691572D01*
X364638Y691590D01*
X364651Y691605D01*
X364690Y691701D01*
X364733Y691795D01*
X364735Y691815D01*
X364743Y691833D01*
X364761Y692000D01*
X364761Y752000D01*
X364758Y752020D01*
X364760Y752039D01*
X364738Y752141D01*
X364722Y752243D01*
X364712Y752260D01*
X364708Y752280D01*
X364655Y752369D01*
X364606Y752460D01*
X364592Y752474D01*
X364582Y752491D01*
X364503Y752558D01*
X364428Y752630D01*
X364410Y752638D01*
X364395Y752651D01*
X364299Y752690D01*
X364205Y752733D01*
X364185Y752735D01*
X364167Y752743D01*
X364000Y752761D01*
X324000Y752761D01*
X323980Y752758D01*
X323961Y752760D01*
X323859Y752738D01*
X323757Y752722D01*
X323740Y752712D01*
X323720Y752708D01*
X323631Y752655D01*
X323540Y752606D01*
X323526Y752592D01*
X323509Y752582D01*
X323442Y752503D01*
X323371Y752428D01*
X323362Y752410D01*
X323349Y752395D01*
X323310Y752299D01*
X323267Y752205D01*
X323265Y752185D01*
X323257Y752167D01*
X323239Y752000D01*
X323239Y692000D01*
X323242Y691980D01*
X323240Y691961D01*
X323262Y691859D01*
X323279Y691757D01*
X323288Y691740D01*
X323292Y691720D01*
X323345Y691631D01*
X323394Y691540D01*
X323408Y691526D01*
X323418Y691509D01*
X323497Y691442D01*
X323572Y691371D01*
X323590Y691362D01*
X323605Y691349D01*
X323701Y691310D01*
X323795Y691267D01*
X323815Y691265D01*
X323833Y691257D01*
X324000Y691239D01*
X364000Y691239D01*
X364020Y691242D01*
G37*
D10*
X50800Y402700D03*
X25400Y402700D03*
X25400Y377300D03*
X50800Y377300D03*
X0Y402700D03*
X0Y377300D03*
X-25400Y402700D03*
X-25400Y377300D03*
X-50800Y377300D03*
X-50800Y402700D03*
X-88900Y-72700D03*
X-63500Y-72700D03*
X-63500Y-47300D03*
X-88900Y-47300D03*
X-38100Y-72700D03*
X-38100Y-47300D03*
X-12700Y-72700D03*
X-12700Y-47300D03*
X12700Y-47300D03*
X12700Y-72700D03*
X38100Y-72700D03*
X38100Y-47300D03*
X63500Y-47300D03*
X63500Y-72700D03*
X88900Y-72700D03*
X88900Y-47300D03*
D11*
X70800Y572300D03*
X70800Y597700D03*
X45400Y572300D03*
X45400Y597700D03*
X20000Y572300D03*
X20000Y597700D03*
X-5400Y572300D03*
X-5400Y597700D03*
X-30800Y572300D03*
X-30800Y597700D03*
D12*
X-229475Y620525D02*
X-229475Y626475D01*
X-224525Y626475D01*
X-224525Y620525D01*
X-229475Y620525D01*
X-229475Y626272D02*
X-224525Y626272D01*
X-229475Y609475D02*
X-229475Y603525D01*
X-229475Y609475D02*
X-224525Y609475D01*
X-224525Y603525D01*
X-229475Y603525D01*
X-229475Y609272D02*
X-224525Y609272D01*
D13*
X-221995Y639495D02*
X-232005Y639495D01*
X-232005Y649505D01*
X-221995Y649505D01*
X-221995Y639495D01*
X-221995Y642335D02*
X-232005Y642335D01*
X-232005Y645175D02*
X-221995Y645175D01*
X-221995Y648015D02*
X-232005Y648015D01*
X-232005Y660495D02*
X-221995Y660495D01*
X-232005Y660495D02*
X-232005Y670505D01*
X-221995Y670505D01*
X-221995Y660495D01*
X-221995Y663335D02*
X-232005Y663335D01*
X-232005Y666175D02*
X-221995Y666175D01*
X-221995Y669015D02*
X-232005Y669015D01*
D12*
X-165475Y626475D02*
X-165475Y620525D01*
X-165475Y626475D02*
X-160525Y626475D01*
X-160525Y620525D01*
X-165475Y620525D01*
X-165475Y626272D02*
X-160525Y626272D01*
X-165475Y609475D02*
X-165475Y603525D01*
X-165475Y609475D02*
X-160525Y609475D01*
X-160525Y603525D01*
X-165475Y603525D01*
X-165475Y609272D02*
X-160525Y609272D01*
D13*
X-157995Y639495D02*
X-168005Y639495D01*
X-168005Y649505D01*
X-157995Y649505D01*
X-157995Y639495D01*
X-157995Y642335D02*
X-168005Y642335D01*
X-168005Y645175D02*
X-157995Y645175D01*
X-157995Y648015D02*
X-168005Y648015D01*
X-168005Y660495D02*
X-157995Y660495D01*
X-168005Y660495D02*
X-168005Y670505D01*
X-157995Y670505D01*
X-157995Y660495D01*
X-157995Y663335D02*
X-168005Y663335D01*
X-168005Y666175D02*
X-157995Y666175D01*
X-157995Y669015D02*
X-168005Y669015D01*
X-179995Y639495D02*
X-190005Y639495D01*
X-190005Y649505D01*
X-179995Y649505D01*
X-179995Y639495D01*
X-179995Y642335D02*
X-190005Y642335D01*
X-190005Y645175D02*
X-179995Y645175D01*
X-179995Y648015D02*
X-190005Y648015D01*
X-190005Y660495D02*
X-179995Y660495D01*
X-190005Y660495D02*
X-190005Y670505D01*
X-179995Y670505D01*
X-179995Y660495D01*
X-179995Y663335D02*
X-190005Y663335D01*
X-190005Y666175D02*
X-179995Y666175D01*
X-179995Y669015D02*
X-190005Y669015D01*
D12*
X-187475Y626475D02*
X-187475Y620525D01*
X-187475Y626475D02*
X-182525Y626475D01*
X-182525Y620525D01*
X-187475Y620525D01*
X-187475Y626272D02*
X-182525Y626272D01*
X-187475Y609475D02*
X-187475Y603525D01*
X-187475Y609475D02*
X-182525Y609475D01*
X-182525Y603525D01*
X-187475Y603525D01*
X-187475Y609272D02*
X-182525Y609272D01*
D14*
X-14515Y665485D02*
X-14515Y673515D01*
X-2485Y673515D01*
X-2485Y665485D01*
X-14515Y665485D01*
X-14515Y668306D02*
X-2485Y668306D01*
X-2485Y671127D02*
X-14515Y671127D01*
X7485Y664015D02*
X7485Y655985D01*
X7485Y664015D02*
X19515Y664015D01*
X19515Y655985D01*
X7485Y655985D01*
X7485Y658806D02*
X19515Y658806D01*
X19515Y661627D02*
X7485Y661627D01*
X-14515Y654515D02*
X-14515Y646485D01*
X-14515Y654515D02*
X-2485Y654515D01*
X-2485Y646485D01*
X-14515Y646485D01*
X-14515Y649306D02*
X-2485Y649306D01*
X-2485Y652127D02*
X-14515Y652127D01*
D12*
X-48025Y669025D02*
X-53975Y669025D01*
X-53975Y673975D01*
X-48025Y673975D01*
X-48025Y669025D01*
X-36975Y669025D02*
X-31025Y669025D01*
X-36975Y669025D02*
X-36975Y673975D01*
X-31025Y673975D01*
X-31025Y669025D01*
D14*
X56485Y673015D02*
X56485Y664985D01*
X56485Y673015D02*
X68515Y673015D01*
X68515Y664985D01*
X56485Y664985D01*
X56485Y667806D02*
X68515Y667806D01*
X68515Y670627D02*
X56485Y670627D01*
X56485Y654015D02*
X56485Y645985D01*
X56485Y654015D02*
X68515Y654015D01*
X68515Y645985D01*
X56485Y645985D01*
X56485Y648806D02*
X68515Y648806D01*
X68515Y651627D02*
X56485Y651627D01*
X78485Y655485D02*
X78485Y663515D01*
X90515Y663515D01*
X90515Y655485D01*
X78485Y655485D01*
X78485Y658306D02*
X90515Y658306D01*
X90515Y661127D02*
X78485Y661127D01*
D12*
X39975Y661025D02*
X39975Y666975D01*
X39975Y661025D02*
X35025Y661025D01*
X35025Y666975D01*
X39975Y666975D01*
X39975Y666772D02*
X35025Y666772D01*
X39975Y678025D02*
X39975Y683975D01*
X39975Y678025D02*
X35025Y678025D01*
X35025Y683975D01*
X39975Y683975D01*
X39975Y683772D02*
X35025Y683772D01*
X107525Y646475D02*
X107525Y640525D01*
X107525Y646475D02*
X112475Y646475D01*
X112475Y640525D01*
X107525Y640525D01*
X107525Y646272D02*
X112475Y646272D01*
X107525Y629475D02*
X107525Y623525D01*
X107525Y629475D02*
X112475Y629475D01*
X112475Y623525D01*
X107525Y623525D01*
X107525Y629272D02*
X112475Y629272D01*
X52975Y630975D02*
X47025Y630975D01*
X52975Y630975D02*
X52975Y626025D01*
X47025Y626025D01*
X47025Y630975D01*
X35975Y630975D02*
X30025Y630975D01*
X35975Y630975D02*
X35975Y626025D01*
X30025Y626025D01*
X30025Y630975D01*
X112475Y663525D02*
X112475Y669475D01*
X112475Y663525D02*
X107525Y663525D01*
X107525Y669475D01*
X112475Y669475D01*
X112475Y669272D02*
X107525Y669272D01*
X112475Y680525D02*
X112475Y686475D01*
X112475Y680525D02*
X107525Y680525D01*
X107525Y686475D01*
X112475Y686475D01*
X112475Y686272D02*
X107525Y686272D01*
X-48025Y649025D02*
X-53975Y649025D01*
X-53975Y653975D01*
X-48025Y653975D01*
X-48025Y649025D01*
X-36975Y649025D02*
X-31025Y649025D01*
X-36975Y649025D02*
X-36975Y653975D01*
X-31025Y653975D01*
X-31025Y649025D01*
X-70025Y650025D02*
X-70025Y655975D01*
X-70025Y650025D02*
X-74975Y650025D01*
X-74975Y655975D01*
X-70025Y655975D01*
X-70025Y655772D02*
X-74975Y655772D01*
X-70025Y667025D02*
X-70025Y672975D01*
X-70025Y667025D02*
X-74975Y667025D01*
X-74975Y672975D01*
X-70025Y672975D01*
X-70025Y672772D02*
X-74975Y672772D01*
X-208475Y626475D02*
X-208475Y620525D01*
X-208475Y626475D02*
X-203525Y626475D01*
X-203525Y620525D01*
X-208475Y620525D01*
X-208475Y626272D02*
X-203525Y626272D01*
X-208475Y609475D02*
X-208475Y603525D01*
X-208475Y609475D02*
X-203525Y609475D01*
X-203525Y603525D01*
X-208475Y603525D01*
X-208475Y609272D02*
X-203525Y609272D01*
D13*
X-200995Y639495D02*
X-211005Y639495D01*
X-211005Y649505D01*
X-200995Y649505D01*
X-200995Y639495D01*
X-200995Y642335D02*
X-211005Y642335D01*
X-211005Y645175D02*
X-200995Y645175D01*
X-200995Y648015D02*
X-211005Y648015D01*
X-211005Y660495D02*
X-200995Y660495D01*
X-211005Y660495D02*
X-211005Y670505D01*
X-200995Y670505D01*
X-200995Y660495D01*
X-200995Y663335D02*
X-211005Y663335D01*
X-211005Y666175D02*
X-200995Y666175D01*
X-200995Y669015D02*
X-211005Y669015D01*
D12*
X-50475Y132475D02*
X-44525Y132475D01*
X-44525Y127525D01*
X-50475Y127525D01*
X-50475Y132475D01*
X-61525Y132475D02*
X-67475Y132475D01*
X-61525Y132475D02*
X-61525Y127525D01*
X-67475Y127525D01*
X-67475Y132475D01*
X-26475Y107475D02*
X-20525Y107475D01*
X-20525Y102525D01*
X-26475Y102525D01*
X-26475Y107475D01*
X-37525Y107475D02*
X-43475Y107475D01*
X-37525Y107475D02*
X-37525Y102525D01*
X-43475Y102525D01*
X-43475Y107475D01*
D15*
X-156900Y-400000D03*
X-131500Y-400000D03*
X-106100Y-400000D03*
D10*
X372700Y233000D03*
X372700Y258400D03*
X347300Y258400D03*
X347300Y233000D03*
X372700Y283800D03*
X347300Y283800D03*
X372700Y309200D03*
X347300Y309200D03*
X372700Y334600D03*
X347300Y334600D03*
X372700Y360000D03*
X347300Y360000D03*
X372700Y385400D03*
X347300Y385400D03*
X372700Y410800D03*
X347300Y410800D03*
X372700Y436200D03*
X347300Y436200D03*
X372700Y461600D03*
X347300Y461600D03*
X372700Y487000D03*
X347300Y487000D03*
D12*
X-19525Y127525D02*
X-25475Y127525D01*
X-25475Y132475D01*
X-19525Y132475D01*
X-19525Y127525D01*
X-8475Y127525D02*
X-2525Y127525D01*
X-8475Y127525D02*
X-8475Y132475D01*
X-2525Y132475D01*
X-2525Y127525D01*
X-3475Y102525D02*
X2475Y102525D01*
X-3475Y102525D02*
X-3475Y107475D01*
X2475Y107475D01*
X2475Y102525D01*
X13525Y102525D02*
X19475Y102525D01*
X13525Y102525D02*
X13525Y107475D01*
X19475Y107475D01*
X19475Y102525D01*
D16*
X-138038Y-488823D03*
X-102038Y-551177D03*
D17*
X-205750Y-491543D03*
X-138250Y-608457D03*
D16*
X102038Y-551177D03*
X138038Y-488823D03*
D17*
X138250Y-608457D03*
X205750Y-491543D03*
D18*
X112000Y-702000D03*
X-114000Y-702000D03*
D19*
X-1000Y-702000D03*
D11*
X-133700Y649000D03*
X-108300Y649000D03*
D15*
X107600Y-400000D03*
X133000Y-400000D03*
X158400Y-400000D03*
X-25400Y-400000D03*
X0Y-400000D03*
X25400Y-400000D03*
D10*
X372700Y-127000D03*
X372700Y-101600D03*
X347300Y-101600D03*
X347300Y-127000D03*
X372700Y-76200D03*
X347300Y-76200D03*
X372700Y-50800D03*
X347300Y-50800D03*
X372700Y-25400D03*
X347300Y-25400D03*
X372700Y0D03*
X347300Y0D03*
X372700Y25400D03*
X347300Y25400D03*
X372700Y50800D03*
X347300Y50800D03*
X372700Y76200D03*
X347300Y76200D03*
X372700Y101600D03*
X347300Y101600D03*
X372700Y127000D03*
X347300Y127000D03*
X372700Y-487000D03*
X372700Y-461600D03*
X347300Y-461600D03*
X347300Y-487000D03*
X372700Y-436200D03*
X347300Y-436200D03*
X372700Y-410800D03*
X347300Y-410800D03*
X372700Y-385400D03*
X347300Y-385400D03*
X372700Y-360000D03*
X347300Y-360000D03*
X372700Y-334600D03*
X347300Y-334600D03*
X372700Y-309200D03*
X347300Y-309200D03*
X372700Y-283800D03*
X347300Y-283800D03*
X372700Y-258400D03*
X347300Y-258400D03*
X372700Y-233000D03*
X347300Y-233000D03*
X-372700Y-233000D03*
X-372700Y-258400D03*
X-347300Y-258400D03*
X-347300Y-233000D03*
X-372700Y-283800D03*
X-347300Y-283800D03*
X-372700Y-309200D03*
X-347300Y-309200D03*
X-372700Y-334600D03*
X-347300Y-334600D03*
X-372700Y-360000D03*
X-347300Y-360000D03*
X-372700Y-385400D03*
X-347300Y-385400D03*
X-372700Y-410800D03*
X-347300Y-410800D03*
X-372700Y-436200D03*
X-347300Y-436200D03*
X-372700Y-461600D03*
X-347300Y-461600D03*
X-372700Y-487000D03*
X-347300Y-487000D03*
X-372700Y127000D03*
X-372700Y101600D03*
X-347300Y101600D03*
X-347300Y127000D03*
X-372700Y76200D03*
X-347300Y76200D03*
X-372700Y50800D03*
X-347300Y50800D03*
X-372700Y25400D03*
X-347300Y25400D03*
X-372700Y0D03*
X-347300Y0D03*
X-372700Y-25400D03*
X-347300Y-25400D03*
X-372700Y-50800D03*
X-347300Y-50800D03*
X-372700Y-76200D03*
X-347300Y-76200D03*
X-372700Y-101600D03*
X-347300Y-101600D03*
X-372700Y-127000D03*
X-347300Y-127000D03*
X-372700Y487000D03*
X-372700Y461600D03*
X-347300Y461600D03*
X-347300Y487000D03*
X-372700Y436200D03*
X-347300Y436200D03*
X-372700Y410800D03*
X-347300Y410800D03*
X-372700Y385400D03*
X-347300Y385400D03*
X-372700Y360000D03*
X-347300Y360000D03*
X-372700Y334600D03*
X-347300Y334600D03*
X-372700Y309200D03*
X-347300Y309200D03*
X-372700Y283800D03*
X-347300Y283800D03*
X-372700Y258400D03*
X-347300Y258400D03*
X-372700Y233000D03*
X-347300Y233000D03*
D20*
X-63495Y633495D02*
X-55505Y633495D01*
X-55505Y629505D01*
X-63495Y629505D01*
X-63495Y633495D01*
X-63495Y632364D02*
X-55505Y632364D01*
X-77505Y633495D02*
X-85495Y633495D01*
X-77505Y633495D02*
X-77505Y629505D01*
X-85495Y629505D01*
X-85495Y633495D01*
X-85495Y632364D02*
X-77505Y632364D01*
D15*
X820000Y193900D03*
X820000Y168500D03*
X820000Y143100D03*
X820000Y117700D03*
X820000Y92300D03*
X820000Y66900D03*
X820000Y41500D03*
X820000Y16100D03*
X820000Y-16100D03*
X820000Y-41500D03*
X820000Y-66900D03*
X820000Y-92300D03*
X820000Y-117700D03*
X820000Y-143100D03*
X820000Y-168500D03*
X820000Y-193900D03*
X-820000Y-193900D03*
X-820000Y-168500D03*
X-820000Y-143100D03*
X-820000Y-117700D03*
X-820000Y-92300D03*
X-820000Y-66900D03*
X-820000Y-41500D03*
X-820000Y-16100D03*
X-820000Y16100D03*
X-820000Y41500D03*
X-820000Y66900D03*
X-820000Y92300D03*
X-820000Y117700D03*
X-820000Y143100D03*
X-820000Y168500D03*
X-820000Y193900D03*
D10*
X647300Y474300D03*
X647300Y448900D03*
X672700Y448900D03*
X672700Y474300D03*
X647300Y423500D03*
X672700Y423500D03*
X647300Y398100D03*
X672700Y398100D03*
X672700Y372700D03*
X647300Y372700D03*
X647300Y347300D03*
X672700Y347300D03*
X672700Y321900D03*
X647300Y321900D03*
X647300Y296500D03*
X672700Y296500D03*
X647300Y271100D03*
X672700Y271100D03*
X647300Y245700D03*
X672700Y245700D03*
D21*
X747388Y353047D03*
X727863Y332426D03*
X756075Y329179D03*
X736550Y308557D03*
X764762Y305311D03*
X745238Y284689D03*
X773450Y281443D03*
X753925Y260821D03*
X782137Y257574D03*
X762612Y236953D03*
X786481Y-245640D03*
X758269Y-248887D03*
X777793Y-269508D03*
X749581Y-272755D03*
X769106Y-293377D03*
X740894Y-296623D03*
X760419Y-317245D03*
X732207Y-320492D03*
X751731Y-341113D03*
X723519Y-344360D03*
X-747388Y-353047D03*
X-727863Y-332426D03*
X-756075Y-329179D03*
X-736550Y-308557D03*
X-764762Y-305311D03*
X-745238Y-284689D03*
X-773450Y-281443D03*
X-753925Y-260821D03*
X-782137Y-257574D03*
X-762612Y-236953D03*
X-786481Y245640D03*
X-758269Y248887D03*
X-777793Y269508D03*
X-749581Y272755D03*
X-769106Y293377D03*
X-740894Y296623D03*
X-760419Y317245D03*
X-732207Y320492D03*
X-751731Y341113D03*
X-723519Y344360D03*
D15*
X-261100Y560000D03*
X-286500Y560000D03*
X-311900Y560000D03*
X-337300Y560000D03*
X-362700Y560000D03*
X-388100Y560000D03*
X-413500Y560000D03*
X-438900Y560000D03*
D12*
X712225Y36725D02*
X718175Y36725D01*
X712225Y36725D02*
X712225Y41675D01*
X718175Y41675D01*
X718175Y36725D01*
X729225Y36725D02*
X735175Y36725D01*
X729225Y36725D02*
X729225Y41675D01*
X735175Y41675D01*
X735175Y36725D01*
X783625Y235525D02*
X789575Y235525D01*
X783625Y235525D02*
X783625Y240475D01*
X789575Y240475D01*
X789575Y235525D01*
X800625Y235525D02*
X806575Y235525D01*
X800625Y235525D02*
X800625Y240475D01*
X806575Y240475D01*
X806575Y235525D01*
D22*
X787911Y67869D02*
X787911Y63231D01*
X769557Y63231D01*
X769557Y67869D01*
X787911Y67869D01*
X787911Y66049D02*
X769557Y66049D01*
X787911Y75931D02*
X787911Y80569D01*
X787911Y75931D02*
X769557Y75931D01*
X769557Y80569D01*
X787911Y80569D01*
X787911Y78749D02*
X769557Y78749D01*
X787911Y88631D02*
X787911Y93269D01*
X787911Y88631D02*
X769557Y88631D01*
X769557Y93269D01*
X787911Y93269D01*
X787911Y91449D02*
X769557Y91449D01*
X787911Y101331D02*
X787911Y105969D01*
X787911Y101331D02*
X769557Y101331D01*
X769557Y105969D01*
X787911Y105969D01*
X787911Y104149D02*
X769557Y104149D01*
X787911Y114031D02*
X787911Y118669D01*
X787911Y114031D02*
X769557Y114031D01*
X769557Y118669D01*
X787911Y118669D01*
X787911Y116849D02*
X769557Y116849D01*
X787911Y126731D02*
X787911Y131369D01*
X787911Y126731D02*
X769557Y126731D01*
X769557Y131369D01*
X787911Y131369D01*
X787911Y129549D02*
X769557Y129549D01*
X787911Y139431D02*
X787911Y144069D01*
X787911Y139431D02*
X769557Y139431D01*
X769557Y144069D01*
X787911Y144069D01*
X787911Y142249D02*
X769557Y142249D01*
X787911Y152131D02*
X787911Y156769D01*
X787911Y152131D02*
X769557Y152131D01*
X769557Y156769D01*
X787911Y156769D01*
X787911Y154949D02*
X769557Y154949D01*
X726443Y156769D02*
X726443Y152131D01*
X708089Y152131D01*
X708089Y156769D01*
X726443Y156769D01*
X726443Y154949D02*
X708089Y154949D01*
X726443Y144069D02*
X726443Y139431D01*
X708089Y139431D01*
X708089Y144069D01*
X726443Y144069D01*
X726443Y142249D02*
X708089Y142249D01*
X726443Y131369D02*
X726443Y126731D01*
X708089Y126731D01*
X708089Y131369D01*
X726443Y131369D01*
X726443Y129549D02*
X708089Y129549D01*
X726443Y118669D02*
X726443Y114031D01*
X708089Y114031D01*
X708089Y118669D01*
X726443Y118669D01*
X726443Y116849D02*
X708089Y116849D01*
X726443Y105969D02*
X726443Y101331D01*
X708089Y101331D01*
X708089Y105969D01*
X726443Y105969D01*
X726443Y104149D02*
X708089Y104149D01*
X726443Y93269D02*
X726443Y88631D01*
X708089Y88631D01*
X708089Y93269D01*
X726443Y93269D01*
X726443Y91449D02*
X708089Y91449D01*
X726443Y80569D02*
X726443Y75931D01*
X708089Y75931D01*
X708089Y80569D01*
X726443Y80569D01*
X726443Y78749D02*
X708089Y78749D01*
X726443Y67869D02*
X726443Y63231D01*
X708089Y63231D01*
X708089Y67869D01*
X726443Y67869D01*
X726443Y66049D02*
X708089Y66049D01*
D12*
X723975Y183125D02*
X723975Y189075D01*
X723975Y183125D02*
X719025Y183125D01*
X719025Y189075D01*
X723975Y189075D01*
X723975Y188872D02*
X719025Y188872D01*
X723975Y200125D02*
X723975Y206075D01*
X723975Y200125D02*
X719025Y200125D01*
X719025Y206075D01*
X723975Y206075D01*
X723975Y205872D02*
X719025Y205872D01*
X757475Y-14525D02*
X757475Y-20475D01*
X752525Y-20475D01*
X752525Y-14525D01*
X757475Y-14525D01*
X757475Y-14728D02*
X752525Y-14728D01*
X757475Y-3475D02*
X757475Y2475D01*
X757475Y-3475D02*
X752525Y-3475D01*
X752525Y2475D01*
X757475Y2475D01*
X757475Y2272D02*
X752525Y2272D01*
X721475Y-277525D02*
X715525Y-277525D01*
X721475Y-277525D02*
X721475Y-282475D01*
X715525Y-282475D01*
X715525Y-277525D01*
X704475Y-277525D02*
X698525Y-277525D01*
X704475Y-277525D02*
X704475Y-282475D01*
X698525Y-282475D01*
X698525Y-277525D01*
D22*
X701089Y-46869D02*
X701089Y-42231D01*
X719443Y-42231D01*
X719443Y-46869D01*
X701089Y-46869D01*
X701089Y-44051D02*
X719443Y-44051D01*
X701089Y-54931D02*
X701089Y-59569D01*
X701089Y-54931D02*
X719443Y-54931D01*
X719443Y-59569D01*
X701089Y-59569D01*
X701089Y-56751D02*
X719443Y-56751D01*
X701089Y-67631D02*
X701089Y-72269D01*
X701089Y-67631D02*
X719443Y-67631D01*
X719443Y-72269D01*
X701089Y-72269D01*
X701089Y-69451D02*
X719443Y-69451D01*
X701089Y-80331D02*
X701089Y-84969D01*
X701089Y-80331D02*
X719443Y-80331D01*
X719443Y-84969D01*
X701089Y-84969D01*
X701089Y-82151D02*
X719443Y-82151D01*
X701089Y-93031D02*
X701089Y-97669D01*
X701089Y-93031D02*
X719443Y-93031D01*
X719443Y-97669D01*
X701089Y-97669D01*
X701089Y-94851D02*
X719443Y-94851D01*
X701089Y-105731D02*
X701089Y-110369D01*
X701089Y-105731D02*
X719443Y-105731D01*
X719443Y-110369D01*
X701089Y-110369D01*
X701089Y-107551D02*
X719443Y-107551D01*
X701089Y-118431D02*
X701089Y-123069D01*
X701089Y-118431D02*
X719443Y-118431D01*
X719443Y-123069D01*
X701089Y-123069D01*
X701089Y-120251D02*
X719443Y-120251D01*
X701089Y-131131D02*
X701089Y-135769D01*
X701089Y-131131D02*
X719443Y-131131D01*
X719443Y-135769D01*
X701089Y-135769D01*
X701089Y-132951D02*
X719443Y-132951D01*
X762557Y-131131D02*
X762557Y-135769D01*
X762557Y-131131D02*
X780911Y-131131D01*
X780911Y-135769D01*
X762557Y-135769D01*
X762557Y-132951D02*
X780911Y-132951D01*
X762557Y-123069D02*
X762557Y-118431D01*
X780911Y-118431D01*
X780911Y-123069D01*
X762557Y-123069D01*
X762557Y-120251D02*
X780911Y-120251D01*
X762557Y-110369D02*
X762557Y-105731D01*
X780911Y-105731D01*
X780911Y-110369D01*
X762557Y-110369D01*
X762557Y-107551D02*
X780911Y-107551D01*
X762557Y-97669D02*
X762557Y-93031D01*
X780911Y-93031D01*
X780911Y-97669D01*
X762557Y-97669D01*
X762557Y-94851D02*
X780911Y-94851D01*
X762557Y-84969D02*
X762557Y-80331D01*
X780911Y-80331D01*
X780911Y-84969D01*
X762557Y-84969D01*
X762557Y-82151D02*
X780911Y-82151D01*
X762557Y-72269D02*
X762557Y-67631D01*
X780911Y-67631D01*
X780911Y-72269D01*
X762557Y-72269D01*
X762557Y-69451D02*
X780911Y-69451D01*
X762557Y-59569D02*
X762557Y-54931D01*
X780911Y-54931D01*
X780911Y-59569D01*
X762557Y-59569D01*
X762557Y-56751D02*
X780911Y-56751D01*
X762557Y-46869D02*
X762557Y-42231D01*
X780911Y-42231D01*
X780911Y-46869D01*
X762557Y-46869D01*
X762557Y-44051D02*
X780911Y-44051D01*
D12*
X711525Y-157525D02*
X711525Y-163475D01*
X711525Y-157525D02*
X716475Y-157525D01*
X716475Y-163475D01*
X711525Y-163475D01*
X711525Y-157728D02*
X716475Y-157728D01*
X711525Y-174525D02*
X711525Y-180475D01*
X711525Y-174525D02*
X716475Y-174525D01*
X716475Y-180475D01*
X711525Y-180475D01*
X711525Y-174728D02*
X716475Y-174728D01*
X-592525Y-208025D02*
X-592525Y-213975D01*
X-597475Y-213975D01*
X-597475Y-208025D01*
X-592525Y-208025D01*
X-592525Y-208228D02*
X-597475Y-208228D01*
X-592525Y-196975D02*
X-592525Y-191025D01*
X-592525Y-196975D02*
X-597475Y-196975D01*
X-597475Y-191025D01*
X-592525Y-191025D01*
X-592525Y-191228D02*
X-597475Y-191228D01*
X-760025Y-135475D02*
X-760025Y-129525D01*
X-760025Y-135475D02*
X-764975Y-135475D01*
X-764975Y-129525D01*
X-760025Y-129525D01*
X-760025Y-129728D02*
X-764975Y-129728D01*
X-760025Y-118475D02*
X-760025Y-112525D01*
X-760025Y-118475D02*
X-764975Y-118475D01*
X-764975Y-112525D01*
X-760025Y-112525D01*
X-760025Y-112728D02*
X-764975Y-112728D01*
D22*
X-622869Y-140089D02*
X-618231Y-140089D01*
X-618231Y-158443D01*
X-622869Y-158443D01*
X-622869Y-140089D01*
X-622869Y-155625D02*
X-618231Y-155625D01*
X-618231Y-152807D02*
X-622869Y-152807D01*
X-622869Y-149989D02*
X-618231Y-149989D01*
X-618231Y-147171D02*
X-622869Y-147171D01*
X-622869Y-144353D02*
X-618231Y-144353D01*
X-618231Y-141535D02*
X-622869Y-141535D01*
X-630931Y-140089D02*
X-635569Y-140089D01*
X-630931Y-140089D02*
X-630931Y-158443D01*
X-635569Y-158443D01*
X-635569Y-140089D01*
X-635569Y-155625D02*
X-630931Y-155625D01*
X-630931Y-152807D02*
X-635569Y-152807D01*
X-635569Y-149989D02*
X-630931Y-149989D01*
X-630931Y-147171D02*
X-635569Y-147171D01*
X-635569Y-144353D02*
X-630931Y-144353D01*
X-630931Y-141535D02*
X-635569Y-141535D01*
X-643631Y-140089D02*
X-648269Y-140089D01*
X-643631Y-140089D02*
X-643631Y-158443D01*
X-648269Y-158443D01*
X-648269Y-140089D01*
X-648269Y-155625D02*
X-643631Y-155625D01*
X-643631Y-152807D02*
X-648269Y-152807D01*
X-648269Y-149989D02*
X-643631Y-149989D01*
X-643631Y-147171D02*
X-648269Y-147171D01*
X-648269Y-144353D02*
X-643631Y-144353D01*
X-643631Y-141535D02*
X-648269Y-141535D01*
X-656331Y-140089D02*
X-660969Y-140089D01*
X-656331Y-140089D02*
X-656331Y-158443D01*
X-660969Y-158443D01*
X-660969Y-140089D01*
X-660969Y-155625D02*
X-656331Y-155625D01*
X-656331Y-152807D02*
X-660969Y-152807D01*
X-660969Y-149989D02*
X-656331Y-149989D01*
X-656331Y-147171D02*
X-660969Y-147171D01*
X-660969Y-144353D02*
X-656331Y-144353D01*
X-656331Y-141535D02*
X-660969Y-141535D01*
X-669031Y-140089D02*
X-673669Y-140089D01*
X-669031Y-140089D02*
X-669031Y-158443D01*
X-673669Y-158443D01*
X-673669Y-140089D01*
X-673669Y-155625D02*
X-669031Y-155625D01*
X-669031Y-152807D02*
X-673669Y-152807D01*
X-673669Y-149989D02*
X-669031Y-149989D01*
X-669031Y-147171D02*
X-673669Y-147171D01*
X-673669Y-144353D02*
X-669031Y-144353D01*
X-669031Y-141535D02*
X-673669Y-141535D01*
X-681731Y-140089D02*
X-686369Y-140089D01*
X-681731Y-140089D02*
X-681731Y-158443D01*
X-686369Y-158443D01*
X-686369Y-140089D01*
X-686369Y-155625D02*
X-681731Y-155625D01*
X-681731Y-152807D02*
X-686369Y-152807D01*
X-686369Y-149989D02*
X-681731Y-149989D01*
X-681731Y-147171D02*
X-686369Y-147171D01*
X-686369Y-144353D02*
X-681731Y-144353D01*
X-681731Y-141535D02*
X-686369Y-141535D01*
X-694431Y-140089D02*
X-699069Y-140089D01*
X-694431Y-140089D02*
X-694431Y-158443D01*
X-699069Y-158443D01*
X-699069Y-140089D01*
X-699069Y-155625D02*
X-694431Y-155625D01*
X-694431Y-152807D02*
X-699069Y-152807D01*
X-699069Y-149989D02*
X-694431Y-149989D01*
X-694431Y-147171D02*
X-699069Y-147171D01*
X-699069Y-144353D02*
X-694431Y-144353D01*
X-694431Y-141535D02*
X-699069Y-141535D01*
X-707131Y-140089D02*
X-711769Y-140089D01*
X-707131Y-140089D02*
X-707131Y-158443D01*
X-711769Y-158443D01*
X-711769Y-140089D01*
X-711769Y-155625D02*
X-707131Y-155625D01*
X-707131Y-152807D02*
X-711769Y-152807D01*
X-711769Y-149989D02*
X-707131Y-149989D01*
X-707131Y-147171D02*
X-711769Y-147171D01*
X-711769Y-144353D02*
X-707131Y-144353D01*
X-707131Y-141535D02*
X-711769Y-141535D01*
X-711769Y-201557D02*
X-707131Y-201557D01*
X-707131Y-219911D01*
X-711769Y-219911D01*
X-711769Y-201557D01*
X-711769Y-217093D02*
X-707131Y-217093D01*
X-707131Y-214275D02*
X-711769Y-214275D01*
X-711769Y-211457D02*
X-707131Y-211457D01*
X-707131Y-208639D02*
X-711769Y-208639D01*
X-711769Y-205821D02*
X-707131Y-205821D01*
X-707131Y-203003D02*
X-711769Y-203003D01*
X-699069Y-201557D02*
X-694431Y-201557D01*
X-694431Y-219911D01*
X-699069Y-219911D01*
X-699069Y-201557D01*
X-699069Y-217093D02*
X-694431Y-217093D01*
X-694431Y-214275D02*
X-699069Y-214275D01*
X-699069Y-211457D02*
X-694431Y-211457D01*
X-694431Y-208639D02*
X-699069Y-208639D01*
X-699069Y-205821D02*
X-694431Y-205821D01*
X-694431Y-203003D02*
X-699069Y-203003D01*
X-686369Y-201557D02*
X-681731Y-201557D01*
X-681731Y-219911D01*
X-686369Y-219911D01*
X-686369Y-201557D01*
X-686369Y-217093D02*
X-681731Y-217093D01*
X-681731Y-214275D02*
X-686369Y-214275D01*
X-686369Y-211457D02*
X-681731Y-211457D01*
X-681731Y-208639D02*
X-686369Y-208639D01*
X-686369Y-205821D02*
X-681731Y-205821D01*
X-681731Y-203003D02*
X-686369Y-203003D01*
X-673669Y-201557D02*
X-669031Y-201557D01*
X-669031Y-219911D01*
X-673669Y-219911D01*
X-673669Y-201557D01*
X-673669Y-217093D02*
X-669031Y-217093D01*
X-669031Y-214275D02*
X-673669Y-214275D01*
X-673669Y-211457D02*
X-669031Y-211457D01*
X-669031Y-208639D02*
X-673669Y-208639D01*
X-673669Y-205821D02*
X-669031Y-205821D01*
X-669031Y-203003D02*
X-673669Y-203003D01*
X-660969Y-201557D02*
X-656331Y-201557D01*
X-656331Y-219911D01*
X-660969Y-219911D01*
X-660969Y-201557D01*
X-660969Y-217093D02*
X-656331Y-217093D01*
X-656331Y-214275D02*
X-660969Y-214275D01*
X-660969Y-211457D02*
X-656331Y-211457D01*
X-656331Y-208639D02*
X-660969Y-208639D01*
X-660969Y-205821D02*
X-656331Y-205821D01*
X-656331Y-203003D02*
X-660969Y-203003D01*
X-648269Y-201557D02*
X-643631Y-201557D01*
X-643631Y-219911D01*
X-648269Y-219911D01*
X-648269Y-201557D01*
X-648269Y-217093D02*
X-643631Y-217093D01*
X-643631Y-214275D02*
X-648269Y-214275D01*
X-648269Y-211457D02*
X-643631Y-211457D01*
X-643631Y-208639D02*
X-648269Y-208639D01*
X-648269Y-205821D02*
X-643631Y-205821D01*
X-643631Y-203003D02*
X-648269Y-203003D01*
X-635569Y-201557D02*
X-630931Y-201557D01*
X-630931Y-219911D01*
X-635569Y-219911D01*
X-635569Y-201557D01*
X-635569Y-217093D02*
X-630931Y-217093D01*
X-630931Y-214275D02*
X-635569Y-214275D01*
X-635569Y-211457D02*
X-630931Y-211457D01*
X-630931Y-208639D02*
X-635569Y-208639D01*
X-635569Y-205821D02*
X-630931Y-205821D01*
X-630931Y-203003D02*
X-635569Y-203003D01*
X-622869Y-201557D02*
X-618231Y-201557D01*
X-618231Y-219911D01*
X-622869Y-219911D01*
X-622869Y-201557D01*
X-622869Y-217093D02*
X-618231Y-217093D01*
X-618231Y-214275D02*
X-622869Y-214275D01*
X-622869Y-211457D02*
X-618231Y-211457D01*
X-618231Y-208639D02*
X-622869Y-208639D01*
X-622869Y-205821D02*
X-618231Y-205821D01*
X-618231Y-203003D02*
X-622869Y-203003D01*
D12*
X-733525Y-151525D02*
X-739475Y-151525D01*
X-733525Y-151525D02*
X-733525Y-156475D01*
X-739475Y-156475D01*
X-739475Y-151525D01*
X-750525Y-151525D02*
X-756475Y-151525D01*
X-750525Y-151525D02*
X-750525Y-156475D01*
X-756475Y-156475D01*
X-756475Y-151525D01*
X-729475Y105525D02*
X-729475Y111475D01*
X-724525Y111475D01*
X-724525Y105525D01*
X-729475Y105525D01*
X-729475Y111272D02*
X-724525Y111272D01*
X-729475Y94475D02*
X-729475Y88525D01*
X-729475Y94475D02*
X-724525Y94475D01*
X-724525Y88525D01*
X-729475Y88525D01*
X-729475Y94272D02*
X-724525Y94272D01*
X-714475Y263475D02*
X-708525Y263475D01*
X-708525Y258525D01*
X-714475Y258525D01*
X-714475Y263475D01*
X-725525Y263475D02*
X-731475Y263475D01*
X-725525Y263475D02*
X-725525Y258525D01*
X-731475Y258525D01*
X-731475Y263475D01*
D22*
X-680089Y137869D02*
X-680089Y133231D01*
X-698443Y133231D01*
X-698443Y137869D01*
X-680089Y137869D01*
X-680089Y136049D02*
X-698443Y136049D01*
X-680089Y145931D02*
X-680089Y150569D01*
X-680089Y145931D02*
X-698443Y145931D01*
X-698443Y150569D01*
X-680089Y150569D01*
X-680089Y148749D02*
X-698443Y148749D01*
X-680089Y158631D02*
X-680089Y163269D01*
X-680089Y158631D02*
X-698443Y158631D01*
X-698443Y163269D01*
X-680089Y163269D01*
X-680089Y161449D02*
X-698443Y161449D01*
X-680089Y171331D02*
X-680089Y175969D01*
X-680089Y171331D02*
X-698443Y171331D01*
X-698443Y175969D01*
X-680089Y175969D01*
X-680089Y174149D02*
X-698443Y174149D01*
X-680089Y184031D02*
X-680089Y188669D01*
X-680089Y184031D02*
X-698443Y184031D01*
X-698443Y188669D01*
X-680089Y188669D01*
X-680089Y186849D02*
X-698443Y186849D01*
X-680089Y196731D02*
X-680089Y201369D01*
X-680089Y196731D02*
X-698443Y196731D01*
X-698443Y201369D01*
X-680089Y201369D01*
X-680089Y199549D02*
X-698443Y199549D01*
X-680089Y209431D02*
X-680089Y214069D01*
X-680089Y209431D02*
X-698443Y209431D01*
X-698443Y214069D01*
X-680089Y214069D01*
X-680089Y212249D02*
X-698443Y212249D01*
X-680089Y222131D02*
X-680089Y226769D01*
X-680089Y222131D02*
X-698443Y222131D01*
X-698443Y226769D01*
X-680089Y226769D01*
X-680089Y224949D02*
X-698443Y224949D01*
X-741557Y226769D02*
X-741557Y222131D01*
X-759911Y222131D01*
X-759911Y226769D01*
X-741557Y226769D01*
X-741557Y224949D02*
X-759911Y224949D01*
X-741557Y214069D02*
X-741557Y209431D01*
X-759911Y209431D01*
X-759911Y214069D01*
X-741557Y214069D01*
X-741557Y212249D02*
X-759911Y212249D01*
X-741557Y201369D02*
X-741557Y196731D01*
X-759911Y196731D01*
X-759911Y201369D01*
X-741557Y201369D01*
X-741557Y199549D02*
X-759911Y199549D01*
X-741557Y188669D02*
X-741557Y184031D01*
X-759911Y184031D01*
X-759911Y188669D01*
X-741557Y188669D01*
X-741557Y186849D02*
X-759911Y186849D01*
X-741557Y175969D02*
X-741557Y171331D01*
X-759911Y171331D01*
X-759911Y175969D01*
X-741557Y175969D01*
X-741557Y174149D02*
X-759911Y174149D01*
X-741557Y163269D02*
X-741557Y158631D01*
X-759911Y158631D01*
X-759911Y163269D01*
X-741557Y163269D01*
X-741557Y161449D02*
X-759911Y161449D01*
X-741557Y150569D02*
X-741557Y145931D01*
X-759911Y145931D01*
X-759911Y150569D01*
X-741557Y150569D01*
X-741557Y148749D02*
X-759911Y148749D01*
X-741557Y137869D02*
X-741557Y133231D01*
X-759911Y133231D01*
X-759911Y137869D01*
X-741557Y137869D01*
X-741557Y136049D02*
X-759911Y136049D01*
D12*
X-657025Y204025D02*
X-657025Y209975D01*
X-657025Y204025D02*
X-661975Y204025D01*
X-661975Y209975D01*
X-657025Y209975D01*
X-657025Y209772D02*
X-661975Y209772D01*
X-657025Y221025D02*
X-657025Y226975D01*
X-657025Y221025D02*
X-661975Y221025D01*
X-661975Y226975D01*
X-657025Y226975D01*
X-657025Y226772D02*
X-661975Y226772D01*
D23*
X444600Y500000D03*
X470000Y500000D03*
X495400Y500000D03*
X-482700Y500000D03*
X-457300Y500000D03*
D24*
X470000Y430000D03*
X-470000Y430000D03*
X430000Y-540000D03*
X-430000Y-540000D03*
D25*
X160000Y-105000D03*
X-65000Y-195000D03*
X-100000Y-195000D03*
X225000Y130000D03*
X190000Y130000D03*
X155000Y130000D03*
X160000Y-25000D03*
D10*
X647300Y-245700D03*
X647300Y-271100D03*
X672700Y-271100D03*
X672700Y-245700D03*
X647300Y-296500D03*
X672700Y-296500D03*
X647300Y-321900D03*
X672700Y-321900D03*
X672700Y-347300D03*
X647300Y-347300D03*
X647300Y-372700D03*
X672700Y-372700D03*
X672700Y-398100D03*
X647300Y-398100D03*
X647300Y-423500D03*
X672700Y-423500D03*
X647300Y-448900D03*
X672700Y-448900D03*
X647300Y-474300D03*
X672700Y-474300D03*
X-647300Y-474300D03*
X-647300Y-448900D03*
X-672700Y-448900D03*
X-672700Y-474300D03*
X-647300Y-423500D03*
X-672700Y-423500D03*
X-647300Y-398100D03*
X-672700Y-398100D03*
X-672700Y-372700D03*
X-647300Y-372700D03*
X-647300Y-347300D03*
X-672700Y-347300D03*
X-672700Y-321900D03*
X-647300Y-321900D03*
X-647300Y-296500D03*
X-672700Y-296500D03*
X-647300Y-271100D03*
X-672700Y-271100D03*
X-647300Y-245700D03*
X-672700Y-245700D03*
X-647300Y-114300D03*
X-647300Y-88900D03*
X-672700Y-88900D03*
X-672700Y-114300D03*
X-647300Y-63500D03*
X-672700Y-63500D03*
X-647300Y-38100D03*
X-672700Y-38100D03*
X-672700Y-12700D03*
X-647300Y-12700D03*
X-647300Y12700D03*
X-672700Y12700D03*
X-672700Y38100D03*
X-647300Y38100D03*
X-647300Y63500D03*
X-672700Y63500D03*
X-647300Y88900D03*
X-672700Y88900D03*
X-647300Y114300D03*
X-672700Y114300D03*
X-647300Y245700D03*
X-647300Y271100D03*
X-672700Y271100D03*
X-672700Y245700D03*
X-647300Y296500D03*
X-672700Y296500D03*
X-647300Y321900D03*
X-672700Y321900D03*
X-672700Y347300D03*
X-647300Y347300D03*
X-647300Y372700D03*
X-672700Y372700D03*
X-672700Y398100D03*
X-647300Y398100D03*
X-647300Y423500D03*
X-672700Y423500D03*
X-647300Y448900D03*
X-672700Y448900D03*
X-647300Y474300D03*
X-672700Y474300D03*
D26*
X729500Y-158000D02*
X729500Y-161000D01*
X729500Y-158000D02*
X740500Y-158000D01*
X740500Y-161000D01*
X729500Y-161000D01*
X729500Y-158150D02*
X740500Y-158150D01*
X729500Y-167500D02*
X729500Y-170500D01*
X729500Y-167500D02*
X740500Y-167500D01*
X740500Y-170500D01*
X729500Y-170500D01*
X729500Y-167650D02*
X740500Y-167650D01*
X729500Y-177000D02*
X729500Y-180000D01*
X729500Y-177000D02*
X740500Y-177000D01*
X740500Y-180000D01*
X729500Y-180000D01*
X729500Y-177150D02*
X740500Y-177150D01*
X757500Y-177000D02*
X757500Y-180000D01*
X757500Y-177000D02*
X768500Y-177000D01*
X768500Y-180000D01*
X757500Y-180000D01*
X757500Y-177150D02*
X768500Y-177150D01*
X757500Y-161000D02*
X757500Y-158000D01*
X768500Y-158000D01*
X768500Y-161000D01*
X757500Y-161000D01*
X757500Y-158150D02*
X768500Y-158150D01*
X-743000Y-170000D02*
X-746000Y-170000D01*
X-743000Y-170000D02*
X-743000Y-181000D01*
X-746000Y-181000D01*
X-746000Y-170000D01*
X-746000Y-178150D02*
X-743000Y-178150D01*
X-743000Y-175300D02*
X-746000Y-175300D01*
X-746000Y-172450D02*
X-743000Y-172450D01*
X-752500Y-170000D02*
X-755500Y-170000D01*
X-752500Y-170000D02*
X-752500Y-181000D01*
X-755500Y-181000D01*
X-755500Y-170000D01*
X-755500Y-178150D02*
X-752500Y-178150D01*
X-752500Y-175300D02*
X-755500Y-175300D01*
X-755500Y-172450D02*
X-752500Y-172450D01*
X-762000Y-170000D02*
X-765000Y-170000D01*
X-762000Y-170000D02*
X-762000Y-181000D01*
X-765000Y-181000D01*
X-765000Y-170000D01*
X-765000Y-178150D02*
X-762000Y-178150D01*
X-762000Y-175300D02*
X-765000Y-175300D01*
X-765000Y-172450D02*
X-762000Y-172450D01*
X-762000Y-198000D02*
X-765000Y-198000D01*
X-762000Y-198000D02*
X-762000Y-209000D01*
X-765000Y-209000D01*
X-765000Y-198000D01*
X-765000Y-206150D02*
X-762000Y-206150D01*
X-762000Y-203300D02*
X-765000Y-203300D01*
X-765000Y-200450D02*
X-762000Y-200450D01*
X-746000Y-198000D02*
X-743000Y-198000D01*
X-743000Y-209000D01*
X-746000Y-209000D01*
X-746000Y-198000D01*
X-746000Y-206150D02*
X-743000Y-206150D01*
X-743000Y-203300D02*
X-746000Y-203300D01*
X-746000Y-200450D02*
X-743000Y-200450D01*
X-747000Y114500D02*
X-750000Y114500D01*
X-747000Y114500D02*
X-747000Y103500D01*
X-750000Y103500D01*
X-750000Y114500D01*
X-750000Y106350D02*
X-747000Y106350D01*
X-747000Y109200D02*
X-750000Y109200D01*
X-750000Y112050D02*
X-747000Y112050D01*
X-756500Y114500D02*
X-759500Y114500D01*
X-756500Y114500D02*
X-756500Y103500D01*
X-759500Y103500D01*
X-759500Y114500D01*
X-759500Y106350D02*
X-756500Y106350D01*
X-756500Y109200D02*
X-759500Y109200D01*
X-759500Y112050D02*
X-756500Y112050D01*
X-766000Y114500D02*
X-769000Y114500D01*
X-766000Y114500D02*
X-766000Y103500D01*
X-769000Y103500D01*
X-769000Y114500D01*
X-769000Y106350D02*
X-766000Y106350D01*
X-766000Y109200D02*
X-769000Y109200D01*
X-769000Y112050D02*
X-766000Y112050D01*
X-766000Y86500D02*
X-769000Y86500D01*
X-766000Y86500D02*
X-766000Y75500D01*
X-769000Y75500D01*
X-769000Y86500D01*
X-769000Y78350D02*
X-766000Y78350D01*
X-766000Y81200D02*
X-769000Y81200D01*
X-769000Y84050D02*
X-766000Y84050D01*
X-750000Y86500D02*
X-747000Y86500D01*
X-747000Y75500D01*
X-750000Y75500D01*
X-750000Y86500D01*
X-750000Y78350D02*
X-747000Y78350D01*
X-747000Y81200D02*
X-750000Y81200D01*
X-750000Y84050D02*
X-747000Y84050D01*
X741000Y176000D02*
X744000Y176000D01*
X741000Y176000D02*
X741000Y187000D01*
X744000Y187000D01*
X744000Y176000D01*
X744000Y178850D02*
X741000Y178850D01*
X741000Y181700D02*
X744000Y181700D01*
X744000Y184550D02*
X741000Y184550D01*
X750500Y176000D02*
X753500Y176000D01*
X750500Y176000D02*
X750500Y187000D01*
X753500Y187000D01*
X753500Y176000D01*
X753500Y178850D02*
X750500Y178850D01*
X750500Y181700D02*
X753500Y181700D01*
X753500Y184550D02*
X750500Y184550D01*
X760000Y176000D02*
X763000Y176000D01*
X760000Y176000D02*
X760000Y187000D01*
X763000Y187000D01*
X763000Y176000D01*
X763000Y178850D02*
X760000Y178850D01*
X760000Y181700D02*
X763000Y181700D01*
X763000Y184550D02*
X760000Y184550D01*
X760000Y204000D02*
X763000Y204000D01*
X760000Y204000D02*
X760000Y215000D01*
X763000Y215000D01*
X763000Y204000D01*
X763000Y206850D02*
X760000Y206850D01*
X760000Y209700D02*
X763000Y209700D01*
X763000Y212550D02*
X760000Y212550D01*
X744000Y204000D02*
X741000Y204000D01*
X741000Y215000D01*
X744000Y215000D01*
X744000Y204000D01*
X744000Y206850D02*
X741000Y206850D01*
X741000Y209700D02*
X744000Y209700D01*
X744000Y212550D02*
X741000Y212550D01*
D27*
X-11288Y-553468D02*
X-11288Y-563672D01*
X-11288Y-553468D02*
X-9212Y-553468D01*
X-9212Y-563672D01*
X-11288Y-563672D01*
X-11288Y-560833D02*
X-9212Y-560833D01*
X-9212Y-557994D02*
X-11288Y-557994D01*
X-11288Y-555155D02*
X-9212Y-555155D01*
X-17788Y-553468D02*
X-17788Y-563672D01*
X-17788Y-553468D02*
X-15712Y-553468D01*
X-15712Y-563672D01*
X-17788Y-563672D01*
X-17788Y-560833D02*
X-15712Y-560833D01*
X-15712Y-557994D02*
X-17788Y-557994D01*
X-17788Y-555155D02*
X-15712Y-555155D01*
X-24288Y-553468D02*
X-24288Y-563672D01*
X-24288Y-553468D02*
X-22212Y-553468D01*
X-22212Y-563672D01*
X-24288Y-563672D01*
X-24288Y-560833D02*
X-22212Y-560833D01*
X-22212Y-557994D02*
X-24288Y-557994D01*
X-24288Y-555155D02*
X-22212Y-555155D01*
X-30788Y-553468D02*
X-30788Y-563672D01*
X-30788Y-553468D02*
X-28712Y-553468D01*
X-28712Y-563672D01*
X-30788Y-563672D01*
X-30788Y-560833D02*
X-28712Y-560833D01*
X-28712Y-557994D02*
X-30788Y-557994D01*
X-30788Y-555155D02*
X-28712Y-555155D01*
X-30788Y-576328D02*
X-30788Y-586532D01*
X-30788Y-576328D02*
X-28712Y-576328D01*
X-28712Y-586532D01*
X-30788Y-586532D01*
X-30788Y-583693D02*
X-28712Y-583693D01*
X-28712Y-580854D02*
X-30788Y-580854D01*
X-30788Y-578015D02*
X-28712Y-578015D01*
X-24288Y-576328D02*
X-24288Y-586532D01*
X-24288Y-576328D02*
X-22212Y-576328D01*
X-22212Y-586532D01*
X-24288Y-586532D01*
X-24288Y-583693D02*
X-22212Y-583693D01*
X-22212Y-580854D02*
X-24288Y-580854D01*
X-24288Y-578015D02*
X-22212Y-578015D01*
X-17788Y-576328D02*
X-17788Y-586532D01*
X-17788Y-576328D02*
X-15712Y-576328D01*
X-15712Y-586532D01*
X-17788Y-586532D01*
X-17788Y-583693D02*
X-15712Y-583693D01*
X-15712Y-580854D02*
X-17788Y-580854D01*
X-17788Y-578015D02*
X-15712Y-578015D01*
X-11288Y-576328D02*
X-11288Y-586532D01*
X-11288Y-576328D02*
X-9212Y-576328D01*
X-9212Y-586532D01*
X-11288Y-586532D01*
X-11288Y-583693D02*
X-9212Y-583693D01*
X-9212Y-580854D02*
X-11288Y-580854D01*
X-11288Y-578015D02*
X-9212Y-578015D01*
D12*
X20525Y-599525D02*
X20525Y-605475D01*
X20525Y-599525D02*
X25475Y-599525D01*
X25475Y-605475D01*
X20525Y-605475D01*
X20525Y-599728D02*
X25475Y-599728D01*
X20525Y-616525D02*
X20525Y-622475D01*
X20525Y-616525D02*
X25475Y-616525D01*
X25475Y-622475D01*
X20525Y-622475D01*
X20525Y-616728D02*
X25475Y-616728D01*
X-68475Y-613475D02*
X-68475Y-607525D01*
X-63525Y-607525D01*
X-63525Y-613475D01*
X-68475Y-613475D01*
X-68475Y-607728D02*
X-63525Y-607728D01*
X-68475Y-624525D02*
X-68475Y-630475D01*
X-68475Y-624525D02*
X-63525Y-624525D01*
X-63525Y-630475D01*
X-68475Y-630475D01*
X-68475Y-624728D02*
X-63525Y-624728D01*
X-42525Y-620475D02*
X-42525Y-614525D01*
X-42525Y-620475D02*
X-47475Y-620475D01*
X-47475Y-614525D01*
X-42525Y-614525D01*
X-42525Y-614728D02*
X-47475Y-614728D01*
X-42525Y-603475D02*
X-42525Y-597525D01*
X-42525Y-603475D02*
X-47475Y-603475D01*
X-47475Y-597525D01*
X-42525Y-597525D01*
X-42525Y-597728D02*
X-47475Y-597728D01*
D14*
X-31515Y-627015D02*
X-23485Y-627015D01*
X-31515Y-627015D02*
X-31515Y-614985D01*
X-23485Y-614985D01*
X-23485Y-627015D01*
X-23485Y-624194D02*
X-31515Y-624194D01*
X-31515Y-621373D02*
X-23485Y-621373D01*
X-23485Y-618552D02*
X-31515Y-618552D01*
X-31515Y-615731D02*
X-23485Y-615731D01*
X-12515Y-627015D02*
X-4485Y-627015D01*
X-12515Y-627015D02*
X-12515Y-614985D01*
X-4485Y-614985D01*
X-4485Y-627015D01*
X-4485Y-624194D02*
X-12515Y-624194D01*
X-12515Y-621373D02*
X-4485Y-621373D01*
X-4485Y-618552D02*
X-12515Y-618552D01*
X-12515Y-615731D02*
X-4485Y-615731D01*
X-13985Y-605015D02*
X-22015Y-605015D01*
X-22015Y-592985D01*
X-13985Y-592985D01*
X-13985Y-605015D01*
X-13985Y-602194D02*
X-22015Y-602194D01*
X-22015Y-599373D02*
X-13985Y-599373D01*
X-13985Y-596552D02*
X-22015Y-596552D01*
X-22015Y-593731D02*
X-13985Y-593731D01*
X40485Y-629015D02*
X48515Y-629015D01*
X40485Y-629015D02*
X40485Y-616985D01*
X48515Y-616985D01*
X48515Y-629015D01*
X48515Y-626194D02*
X40485Y-626194D01*
X40485Y-623373D02*
X48515Y-623373D01*
X48515Y-620552D02*
X40485Y-620552D01*
X40485Y-617731D02*
X48515Y-617731D01*
X59485Y-629015D02*
X67515Y-629015D01*
X59485Y-629015D02*
X59485Y-616985D01*
X67515Y-616985D01*
X67515Y-629015D01*
X67515Y-626194D02*
X59485Y-626194D01*
X59485Y-623373D02*
X67515Y-623373D01*
X67515Y-620552D02*
X59485Y-620552D01*
X59485Y-617731D02*
X67515Y-617731D01*
X58015Y-607015D02*
X49985Y-607015D01*
X49985Y-594985D01*
X58015Y-594985D01*
X58015Y-607015D01*
X58015Y-604194D02*
X49985Y-604194D01*
X49985Y-601373D02*
X58015Y-601373D01*
X58015Y-598552D02*
X49985Y-598552D01*
X49985Y-595731D02*
X58015Y-595731D01*
D12*
X40475Y-577475D02*
X40475Y-571525D01*
X40475Y-577475D02*
X35525Y-577475D01*
X35525Y-571525D01*
X40475Y-571525D01*
X40475Y-571728D02*
X35525Y-571728D01*
X40475Y-560475D02*
X40475Y-554525D01*
X40475Y-560475D02*
X35525Y-560475D01*
X35525Y-554525D01*
X40475Y-554525D01*
X40475Y-554728D02*
X35525Y-554728D01*
D21*
X184600Y533000D03*
X210000Y533000D03*
X235400Y533000D03*
X184600Y558400D03*
X210000Y558400D03*
X235400Y558400D03*
X184600Y609200D03*
X235400Y609200D03*
D12*
X191475Y492475D02*
X185525Y492475D01*
X191475Y492475D02*
X191475Y487525D01*
X185525Y487525D01*
X185525Y492475D01*
X174475Y492475D02*
X168525Y492475D01*
X174475Y492475D02*
X174475Y487525D01*
X168525Y487525D01*
X168525Y492475D01*
X168525Y507525D02*
X174475Y507525D01*
X168525Y507525D02*
X168525Y512475D01*
X174475Y512475D01*
X174475Y507525D01*
X185525Y507525D02*
X191475Y507525D01*
X185525Y507525D02*
X185525Y512475D01*
X191475Y512475D01*
X191475Y507525D01*
X252525Y555525D02*
X252525Y561475D01*
X257475Y561475D01*
X257475Y555525D01*
X252525Y555525D01*
X252525Y561272D02*
X257475Y561272D01*
X252525Y544475D02*
X252525Y538525D01*
X252525Y544475D02*
X257475Y544475D01*
X257475Y538525D01*
X252525Y538525D01*
X252525Y544272D02*
X257475Y544272D01*
X164475Y544475D02*
X164475Y538525D01*
X159525Y538525D01*
X159525Y544475D01*
X164475Y544475D01*
X164475Y544272D02*
X159525Y544272D01*
X164475Y555525D02*
X164475Y561475D01*
X164475Y555525D02*
X159525Y555525D01*
X159525Y561475D01*
X164475Y561475D01*
X164475Y561272D02*
X159525Y561272D01*
D26*
X424500Y587500D02*
X466500Y587500D01*
X424500Y587500D02*
X424500Y604500D01*
X466500Y604500D01*
X466500Y587500D01*
X466500Y590350D02*
X424500Y590350D01*
X424500Y593200D02*
X466500Y593200D01*
X466500Y596050D02*
X424500Y596050D01*
X424500Y598900D02*
X466500Y598900D01*
X466500Y601750D02*
X424500Y601750D01*
X379500Y587500D02*
X337500Y587500D01*
X337500Y604500D01*
X379500Y604500D01*
X379500Y587500D01*
X379500Y590350D02*
X337500Y590350D01*
X337500Y593200D02*
X379500Y593200D01*
X379500Y596050D02*
X337500Y596050D01*
X337500Y598900D02*
X379500Y598900D01*
X379500Y601750D02*
X337500Y601750D01*
X-42500Y-481500D02*
X-84500Y-481500D01*
X-42500Y-481500D02*
X-42500Y-498500D01*
X-84500Y-498500D01*
X-84500Y-481500D01*
X-84500Y-495650D02*
X-42500Y-495650D01*
X-42500Y-492800D02*
X-84500Y-492800D01*
X-84500Y-489950D02*
X-42500Y-489950D01*
X-42500Y-487100D02*
X-84500Y-487100D01*
X-84500Y-484250D02*
X-42500Y-484250D01*
X2500Y-481500D02*
X44500Y-481500D01*
X44500Y-498500D01*
X2500Y-498500D01*
X2500Y-481500D01*
X2500Y-495650D02*
X44500Y-495650D01*
X44500Y-492800D02*
X2500Y-492800D01*
X2500Y-489950D02*
X44500Y-489950D01*
X44500Y-487100D02*
X2500Y-487100D01*
X2500Y-484250D02*
X44500Y-484250D01*
D28*
X517700Y84250D03*
X492300Y71550D03*
X517700Y58850D03*
X492300Y46150D03*
X517700Y33450D03*
X492300Y20750D03*
X517700Y8050D03*
X492300Y-4650D03*
X517700Y-17350D03*
X492300Y-30050D03*
X517700Y-42750D03*
X492300Y-55450D03*
X517700Y-68150D03*
X492300Y-80850D03*
X517700Y-93550D03*
X492300Y-106250D03*
D10*
X637700Y-101600D03*
X637700Y-76200D03*
X612300Y-76200D03*
X612300Y-101600D03*
X637700Y-50800D03*
X612300Y-50800D03*
X637700Y-25400D03*
X612300Y-25400D03*
X612300Y0D03*
X637700Y0D03*
X637700Y25400D03*
X612300Y25400D03*
X612300Y50800D03*
X637700Y50800D03*
X637700Y76200D03*
X612300Y76200D03*
X637700Y101600D03*
X612300Y101600D03*
D12*
X15525Y-554525D02*
X15525Y-560475D01*
X15525Y-554525D02*
X20475Y-554525D01*
X20475Y-560475D01*
X15525Y-560475D01*
X15525Y-554728D02*
X20475Y-554728D01*
X15525Y-571525D02*
X15525Y-577475D01*
X15525Y-571525D02*
X20475Y-571525D01*
X20475Y-577475D01*
X15525Y-577475D01*
X15525Y-571728D02*
X20475Y-571728D01*
D26*
X5500Y-611500D02*
X5500Y-616500D01*
X5500Y-611500D02*
X8500Y-611500D01*
X8500Y-616500D01*
X5500Y-616500D01*
X5500Y-613650D02*
X8500Y-613650D01*
X5500Y-603500D02*
X5500Y-598500D01*
X8500Y-598500D01*
X8500Y-603500D01*
X5500Y-603500D01*
X5500Y-600650D02*
X8500Y-600650D01*
D29*
X410000Y490000D03*
X410000Y475000D03*
X410000Y460000D03*
X395000Y475000D03*
X400000Y500000D03*
X380000Y500000D03*
X360000Y500000D03*
X340000Y500000D03*
X320000Y500000D03*
X310000Y490000D03*
X310000Y475000D03*
X325000Y475000D03*
X310000Y460000D03*
X410000Y-230000D03*
X410000Y-245000D03*
X410000Y-260000D03*
X395000Y-245000D03*
X400000Y-220000D03*
X380000Y-220000D03*
X360000Y-220000D03*
X340000Y-220000D03*
X320000Y-220000D03*
X310000Y-230000D03*
X310000Y-245000D03*
X325000Y-245000D03*
X310000Y-260000D03*
X-410000Y-490000D03*
X-410000Y-475000D03*
X-410000Y-460000D03*
X-395000Y-475000D03*
X-400000Y-500000D03*
X-380000Y-500000D03*
X-360000Y-500000D03*
X-340000Y-500000D03*
X-320000Y-500000D03*
X-310000Y-490000D03*
X-325000Y-475000D03*
X-310000Y-460000D03*
X-410000Y-130000D03*
X-410000Y-115000D03*
X-410000Y-100000D03*
X-395000Y-115000D03*
X-400000Y-140000D03*
X-380000Y-140000D03*
X-360000Y-140000D03*
X-340000Y-140000D03*
X-320000Y-140000D03*
X-310000Y-130000D03*
X-310000Y-115000D03*
X-325000Y-115000D03*
X-310000Y-100000D03*
X-410000Y230000D03*
X-410000Y245000D03*
X-410000Y260000D03*
X-395000Y245000D03*
X-400000Y220000D03*
X-380000Y220000D03*
X-360000Y220000D03*
X-340000Y220000D03*
X-320000Y220000D03*
X-310000Y230000D03*
X-310000Y245000D03*
X-325000Y245000D03*
X-310000Y260000D03*
X92000Y263000D03*
X92000Y248000D03*
X92000Y233000D03*
X77000Y233000D03*
X77000Y248000D03*
X77000Y263000D03*
X0Y-28000D03*
X410000Y435000D03*
X410000Y420000D03*
X410000Y405000D03*
X395000Y425000D03*
X380000Y425000D03*
X340000Y425000D03*
X325000Y425000D03*
X310000Y435000D03*
X310000Y420000D03*
X310000Y405000D03*
X410000Y-285000D03*
X410000Y-300000D03*
X410000Y-315000D03*
X395000Y-295000D03*
X380000Y-295000D03*
X340000Y-295000D03*
X325000Y-295000D03*
X310000Y-285000D03*
X310000Y-300000D03*
X310000Y-315000D03*
X-410000Y-435000D03*
X-410000Y-420000D03*
X-410000Y-405000D03*
X-395000Y-425000D03*
X-380000Y-425000D03*
X-340000Y-425000D03*
X-325000Y-425000D03*
X-310000Y-420000D03*
X-410000Y-75000D03*
X-410000Y-60000D03*
X-410000Y-45000D03*
X-395000Y-65000D03*
X-380000Y-65000D03*
X-340000Y-65000D03*
X-325000Y-65000D03*
X-310000Y-75000D03*
X-310000Y-60000D03*
X-310000Y-45000D03*
X-410000Y285000D03*
X-410000Y300000D03*
X-410000Y315000D03*
X-395000Y295000D03*
X-380000Y295000D03*
X-340000Y295000D03*
X-325000Y295000D03*
X-310000Y285000D03*
X-310000Y300000D03*
X-310000Y315000D03*
X145000Y460000D03*
X165000Y460000D03*
X185000Y460000D03*
X185000Y440000D03*
X165000Y440000D03*
X145000Y440000D03*
X185000Y205000D03*
X165000Y205000D03*
X145000Y205000D03*
X145000Y225000D03*
X165000Y225000D03*
X185000Y225000D03*
X185000Y245000D03*
X165000Y245000D03*
X145000Y245000D03*
X145000Y265000D03*
X165000Y265000D03*
X185000Y265000D03*
X92000Y218000D03*
X92000Y203000D03*
X77000Y218000D03*
X77000Y203000D03*
X-14000Y-280000D03*
X-275000Y-355000D03*
X310000Y-334850D03*
X-190000Y-285000D03*
X-175000Y435000D03*
X-298781Y346219D03*
X-285000Y-20000D03*
X300000Y385150D03*
X310000Y30000D03*
D15*
X-185000Y-20000D03*
D29*
X-190000Y300619D03*
X-184000Y54000D03*
X-157000Y361000D03*
X-78000Y-280000D03*
X-415000Y-355000D03*
X410700Y356600D03*
X50000Y-254000D03*
X50000Y-267000D03*
X63000Y-263000D03*
X415000Y-369000D03*
X248500Y-301000D03*
X239000Y-309000D03*
X248000Y-363000D03*
X240000Y-374000D03*
X-420000Y370000D03*
X-145000Y180000D03*
X-410000Y0D03*
D30*
X227500Y389000D03*
D29*
X180000Y-340000D03*
X222902Y-359098D03*
X222902Y-124480D03*
X-80000Y-120000D03*
X49500Y-322000D03*
X0Y-107670D03*
X-50920Y-107670D03*
X-415000Y-385000D03*
D15*
X-217500Y-42500D03*
X-217000Y63000D03*
D29*
X-217000Y405000D03*
X280000Y383520D03*
X-413000Y-26000D03*
X290000Y30000D03*
X415000Y-347000D03*
X-410000Y340000D03*
X-510000Y210000D03*
X-229230Y312580D03*
M02*
