G04 EAGLE Gerber RS-274X export*
G75*
%MOMM*%
%FSLAX34Y34*%
%LPD*%
%INSolderpaste Bottom*%
%IPPOS*%
%AMOC8*
5,1,8,0,0,1.08239X$1,22.5*%
G01*
%ADD10C,0.500000*%
%ADD11C,0.198000*%
%ADD12C,0.800000*%
%ADD13C,0.196000*%
%ADD14C,0.208000*%
%ADD15C,0.200000*%
%ADD16C,0.650000*%
%ADD17C,0.195072*%

G36*
X407963Y-536002D02*
X407963Y-536002D01*
X407965Y-536001D01*
X408821Y-532722D01*
X410161Y-529609D01*
X411956Y-526735D01*
X414164Y-524164D01*
X416735Y-521956D01*
X419609Y-520161D01*
X422722Y-518821D01*
X426001Y-517965D01*
X426003Y-517962D01*
X426005Y-517961D01*
X426005Y-517960D01*
X426005Y-503871D01*
X426004Y-503870D01*
X426001Y-503866D01*
X426000Y-503866D01*
X425999Y-503866D01*
X421172Y-504733D01*
X421172Y-504734D01*
X421171Y-504733D01*
X416505Y-506243D01*
X416504Y-506243D01*
X412083Y-508367D01*
X407988Y-511066D01*
X407988Y-511067D01*
X407987Y-511067D01*
X404293Y-514293D01*
X401067Y-517987D01*
X401067Y-517988D01*
X401066Y-517988D01*
X398367Y-522083D01*
X396243Y-526504D01*
X396243Y-526505D01*
X394733Y-531171D01*
X394734Y-531172D01*
X394733Y-531172D01*
X393866Y-535999D01*
X393866Y-536000D01*
X393869Y-536005D01*
X393870Y-536004D01*
X393871Y-536005D01*
X407960Y-536005D01*
X407963Y-536002D01*
G37*
G36*
X-393871Y-536005D02*
X-393871Y-536005D01*
X-393870Y-536004D01*
X-393866Y-536001D01*
X-393866Y-536000D01*
X-393866Y-535999D01*
X-394733Y-531172D01*
X-394734Y-531172D01*
X-394733Y-531171D01*
X-396243Y-526505D01*
X-396243Y-526504D01*
X-398367Y-522083D01*
X-401066Y-517988D01*
X-401067Y-517988D01*
X-401067Y-517987D01*
X-404293Y-514293D01*
X-407987Y-511067D01*
X-407988Y-511067D01*
X-407988Y-511066D01*
X-412083Y-508367D01*
X-416504Y-506243D01*
X-416505Y-506243D01*
X-421171Y-504733D01*
X-421172Y-504734D01*
X-421172Y-504733D01*
X-425999Y-503866D01*
X-426000Y-503866D01*
X-426005Y-503869D01*
X-426004Y-503870D01*
X-426005Y-503871D01*
X-426005Y-517960D01*
X-426002Y-517963D01*
X-426001Y-517965D01*
X-422722Y-518821D01*
X-419609Y-520161D01*
X-416735Y-521956D01*
X-414164Y-524164D01*
X-411956Y-526735D01*
X-410161Y-529609D01*
X-408821Y-532722D01*
X-407965Y-536001D01*
X-407961Y-536004D01*
X-407960Y-536005D01*
X-393871Y-536005D01*
X-393871Y-536005D01*
G37*
G36*
X466000Y393866D02*
X466000Y393866D01*
X466005Y393869D01*
X466004Y393870D01*
X466005Y393871D01*
X466005Y407960D01*
X466002Y407963D01*
X466001Y407965D01*
X462722Y408821D01*
X459609Y410161D01*
X456735Y411956D01*
X454164Y414164D01*
X451956Y416735D01*
X450161Y419609D01*
X448821Y422722D01*
X447965Y426001D01*
X447961Y426004D01*
X447960Y426005D01*
X433871Y426005D01*
X433870Y426004D01*
X433866Y426001D01*
X433866Y426000D01*
X433866Y425999D01*
X434733Y421172D01*
X434734Y421172D01*
X434733Y421171D01*
X436243Y416505D01*
X436243Y416504D01*
X438367Y412083D01*
X441066Y407988D01*
X441067Y407988D01*
X441067Y407987D01*
X444293Y404293D01*
X447987Y401067D01*
X447988Y401067D01*
X447988Y401066D01*
X452083Y398367D01*
X456504Y396243D01*
X456505Y396243D01*
X461171Y394733D01*
X461172Y394734D01*
X461172Y394733D01*
X465999Y393866D01*
X466000Y393866D01*
G37*
G36*
X-466000Y393866D02*
X-466000Y393866D01*
X-465999Y393866D01*
X-461172Y394733D01*
X-461172Y394734D01*
X-461171Y394733D01*
X-456505Y396243D01*
X-456504Y396243D01*
X-452083Y398367D01*
X-447988Y401066D01*
X-447988Y401067D01*
X-447987Y401067D01*
X-444293Y404293D01*
X-441067Y407987D01*
X-441067Y407988D01*
X-441066Y407988D01*
X-438367Y412083D01*
X-436243Y416504D01*
X-436243Y416505D01*
X-434733Y421171D01*
X-434734Y421172D01*
X-434733Y421172D01*
X-433866Y425999D01*
X-433866Y426000D01*
X-433869Y426005D01*
X-433870Y426004D01*
X-433871Y426005D01*
X-447960Y426005D01*
X-447963Y426002D01*
X-447965Y426001D01*
X-448821Y422722D01*
X-450161Y419609D01*
X-451956Y416735D01*
X-454164Y414164D01*
X-456735Y411956D01*
X-459609Y410161D01*
X-462722Y408821D01*
X-466001Y407965D01*
X-466004Y407961D01*
X-466005Y407960D01*
X-466005Y393871D01*
X-466004Y393870D01*
X-466001Y393866D01*
X-466000Y393866D01*
G37*
G36*
X426002Y-576132D02*
X426002Y-576132D01*
X426005Y-576131D01*
X426004Y-576130D01*
X426005Y-576130D01*
X426005Y-576129D01*
X426005Y-562040D01*
X426002Y-562037D01*
X426001Y-562035D01*
X422722Y-561179D01*
X419609Y-559839D01*
X416735Y-558044D01*
X414164Y-555836D01*
X411956Y-553265D01*
X410161Y-550391D01*
X408821Y-547278D01*
X407965Y-543999D01*
X407961Y-543996D01*
X407960Y-543995D01*
X393871Y-543995D01*
X393870Y-543996D01*
X393866Y-543999D01*
X393866Y-544000D01*
X393866Y-544001D01*
X394733Y-548828D01*
X394734Y-548828D01*
X394733Y-548829D01*
X396243Y-553495D01*
X396243Y-553496D01*
X398367Y-557917D01*
X401066Y-562012D01*
X401067Y-562012D01*
X401067Y-562013D01*
X404293Y-565707D01*
X407987Y-568933D01*
X407988Y-568933D01*
X407988Y-568934D01*
X412083Y-571633D01*
X416504Y-573757D01*
X416505Y-573757D01*
X421171Y-575267D01*
X421172Y-575267D01*
X425999Y-576134D01*
X426000Y-576134D01*
X426002Y-576132D01*
G37*
G36*
X-452037Y-536002D02*
X-452037Y-536002D01*
X-452035Y-536001D01*
X-451179Y-532722D01*
X-449839Y-529609D01*
X-448044Y-526735D01*
X-445836Y-524164D01*
X-443265Y-521956D01*
X-440391Y-520161D01*
X-437278Y-518821D01*
X-433999Y-517965D01*
X-433997Y-517962D01*
X-433995Y-517961D01*
X-433995Y-517960D01*
X-433995Y-503871D01*
X-433996Y-503870D01*
X-433999Y-503866D01*
X-434000Y-503866D01*
X-434001Y-503866D01*
X-438828Y-504733D01*
X-438828Y-504734D01*
X-438829Y-504733D01*
X-443495Y-506243D01*
X-443496Y-506243D01*
X-447917Y-508367D01*
X-452012Y-511066D01*
X-452012Y-511067D01*
X-452013Y-511067D01*
X-455707Y-514293D01*
X-458933Y-517987D01*
X-458933Y-517988D01*
X-458934Y-517988D01*
X-461633Y-522083D01*
X-463757Y-526504D01*
X-463757Y-526505D01*
X-465267Y-531171D01*
X-465267Y-531172D01*
X-466134Y-535999D01*
X-466134Y-536000D01*
X-466131Y-536005D01*
X-466130Y-536004D01*
X-466129Y-536005D01*
X-452040Y-536005D01*
X-452037Y-536002D01*
G37*
G36*
X-425999Y-576134D02*
X-425999Y-576134D01*
X-421172Y-575267D01*
X-421172Y-575266D01*
X-421171Y-575267D01*
X-416505Y-573757D01*
X-416504Y-573757D01*
X-412083Y-571633D01*
X-407988Y-568934D01*
X-407988Y-568933D01*
X-407987Y-568933D01*
X-404293Y-565707D01*
X-401067Y-562013D01*
X-401067Y-562012D01*
X-401066Y-562012D01*
X-398367Y-557917D01*
X-396243Y-553496D01*
X-396243Y-553495D01*
X-394733Y-548829D01*
X-394734Y-548828D01*
X-394733Y-548828D01*
X-393866Y-544001D01*
X-393866Y-544000D01*
X-393869Y-543995D01*
X-393870Y-543996D01*
X-393871Y-543995D01*
X-407960Y-543995D01*
X-407963Y-543998D01*
X-407965Y-543999D01*
X-408821Y-547278D01*
X-410161Y-550391D01*
X-411956Y-553265D01*
X-414164Y-555836D01*
X-416735Y-558044D01*
X-419609Y-559839D01*
X-422722Y-561179D01*
X-426001Y-562035D01*
X-426004Y-562039D01*
X-426005Y-562040D01*
X-426005Y-576129D01*
X-426005Y-576130D01*
X-426004Y-576130D01*
X-426001Y-576134D01*
X-426000Y-576134D01*
X-425999Y-576134D01*
G37*
G36*
X-433871Y433995D02*
X-433871Y433995D01*
X-433870Y433996D01*
X-433866Y433999D01*
X-433866Y434000D01*
X-433866Y434001D01*
X-434733Y438828D01*
X-434734Y438828D01*
X-434733Y438829D01*
X-436243Y443495D01*
X-436243Y443496D01*
X-438367Y447917D01*
X-441066Y452012D01*
X-441067Y452012D01*
X-441067Y452013D01*
X-444293Y455707D01*
X-447987Y458933D01*
X-447988Y458933D01*
X-447988Y458934D01*
X-452083Y461633D01*
X-456504Y463757D01*
X-456505Y463757D01*
X-461171Y465267D01*
X-461172Y465267D01*
X-465999Y466134D01*
X-466000Y466134D01*
X-466005Y466131D01*
X-466004Y466130D01*
X-466005Y466129D01*
X-466005Y452040D01*
X-466002Y452037D01*
X-466001Y452035D01*
X-462722Y451179D01*
X-459609Y449839D01*
X-456735Y448044D01*
X-454164Y445836D01*
X-451956Y443265D01*
X-450161Y440391D01*
X-448821Y437278D01*
X-447965Y433999D01*
X-447961Y433996D01*
X-447960Y433995D01*
X-433871Y433995D01*
X-433871Y433995D01*
G37*
G36*
X474000Y393866D02*
X474000Y393866D01*
X474001Y393866D01*
X478828Y394733D01*
X478828Y394734D01*
X478829Y394733D01*
X483495Y396243D01*
X483496Y396243D01*
X487917Y398367D01*
X492012Y401066D01*
X492012Y401067D01*
X492013Y401067D01*
X495707Y404293D01*
X498933Y407987D01*
X498933Y407988D01*
X498934Y407988D01*
X501633Y412083D01*
X503757Y416504D01*
X503757Y416505D01*
X505267Y421171D01*
X505267Y421172D01*
X506134Y425999D01*
X506134Y426000D01*
X506131Y426005D01*
X506130Y426004D01*
X506129Y426005D01*
X492040Y426005D01*
X492037Y426002D01*
X492035Y426001D01*
X491179Y422722D01*
X489839Y419609D01*
X488044Y416735D01*
X485836Y414164D01*
X483265Y411956D01*
X480391Y410161D01*
X477278Y408821D01*
X473999Y407965D01*
X473996Y407961D01*
X473995Y407960D01*
X473995Y393871D01*
X473996Y393870D01*
X473999Y393866D01*
X474000Y393866D01*
G37*
G36*
X466129Y-536005D02*
X466129Y-536005D01*
X466130Y-536005D01*
X466130Y-536004D01*
X466134Y-536001D01*
X466134Y-536000D01*
X466134Y-535999D01*
X465267Y-531172D01*
X465266Y-531172D01*
X465267Y-531171D01*
X463757Y-526505D01*
X463757Y-526504D01*
X461633Y-522083D01*
X458934Y-517988D01*
X458933Y-517988D01*
X458933Y-517987D01*
X455707Y-514293D01*
X452013Y-511067D01*
X452012Y-511067D01*
X452012Y-511066D01*
X447917Y-508367D01*
X443496Y-506243D01*
X443495Y-506243D01*
X438829Y-504733D01*
X438828Y-504734D01*
X438828Y-504733D01*
X434001Y-503866D01*
X434000Y-503866D01*
X433995Y-503869D01*
X433996Y-503870D01*
X433995Y-503871D01*
X433995Y-517960D01*
X433998Y-517963D01*
X433999Y-517965D01*
X437278Y-518821D01*
X440391Y-520161D01*
X443265Y-521956D01*
X445836Y-524164D01*
X448044Y-526735D01*
X449839Y-529609D01*
X451179Y-532722D01*
X452035Y-536001D01*
X452039Y-536004D01*
X452040Y-536005D01*
X466129Y-536005D01*
X466129Y-536005D01*
G37*
G36*
X447963Y433998D02*
X447963Y433998D01*
X447965Y433999D01*
X448821Y437278D01*
X450161Y440391D01*
X451956Y443265D01*
X454164Y445836D01*
X456735Y448044D01*
X459609Y449839D01*
X462722Y451179D01*
X466001Y452035D01*
X466004Y452039D01*
X466005Y452040D01*
X466005Y466129D01*
X466005Y466130D01*
X466004Y466130D01*
X466001Y466134D01*
X466000Y466134D01*
X465999Y466134D01*
X461172Y465267D01*
X461172Y465266D01*
X461171Y465267D01*
X456505Y463757D01*
X456504Y463757D01*
X452083Y461633D01*
X447988Y458934D01*
X447988Y458933D01*
X447987Y458933D01*
X444293Y455707D01*
X441067Y452013D01*
X441067Y452012D01*
X441066Y452012D01*
X438367Y447917D01*
X436243Y443496D01*
X436243Y443495D01*
X434733Y438829D01*
X434734Y438828D01*
X434733Y438828D01*
X433866Y434001D01*
X433866Y434000D01*
X433869Y433995D01*
X433870Y433996D01*
X433871Y433995D01*
X447960Y433995D01*
X447963Y433998D01*
G37*
G36*
X-474000Y393866D02*
X-474000Y393866D01*
X-473995Y393869D01*
X-473996Y393870D01*
X-473995Y393871D01*
X-473995Y407960D01*
X-473998Y407963D01*
X-473999Y407965D01*
X-477278Y408821D01*
X-480391Y410161D01*
X-483265Y411956D01*
X-485836Y414164D01*
X-488044Y416735D01*
X-489839Y419609D01*
X-491179Y422722D01*
X-492035Y426001D01*
X-492039Y426004D01*
X-492040Y426005D01*
X-506129Y426005D01*
X-506130Y426005D01*
X-506130Y426004D01*
X-506134Y426001D01*
X-506134Y426000D01*
X-506134Y425999D01*
X-505267Y421172D01*
X-505266Y421172D01*
X-505267Y421171D01*
X-503757Y416505D01*
X-503757Y416504D01*
X-501633Y412083D01*
X-498934Y407988D01*
X-498933Y407988D01*
X-498933Y407987D01*
X-495707Y404293D01*
X-492013Y401067D01*
X-492012Y401067D01*
X-492012Y401066D01*
X-487917Y398367D01*
X-483496Y396243D01*
X-483495Y396243D01*
X-478829Y394733D01*
X-478828Y394734D01*
X-478828Y394733D01*
X-474001Y393866D01*
X-474000Y393866D01*
G37*
G36*
X-433998Y-576132D02*
X-433998Y-576132D01*
X-433995Y-576131D01*
X-433996Y-576130D01*
X-433995Y-576130D01*
X-433995Y-576129D01*
X-433995Y-562040D01*
X-433998Y-562037D01*
X-433999Y-562035D01*
X-437278Y-561179D01*
X-440391Y-559839D01*
X-443265Y-558044D01*
X-445836Y-555836D01*
X-448044Y-553265D01*
X-449839Y-550391D01*
X-451179Y-547278D01*
X-452035Y-543999D01*
X-452039Y-543996D01*
X-452040Y-543995D01*
X-466129Y-543995D01*
X-466130Y-543995D01*
X-466130Y-543996D01*
X-466134Y-543999D01*
X-466134Y-544000D01*
X-466134Y-544001D01*
X-465267Y-548828D01*
X-465266Y-548828D01*
X-465267Y-548829D01*
X-463757Y-553495D01*
X-463757Y-553496D01*
X-461633Y-557917D01*
X-458934Y-562012D01*
X-458933Y-562012D01*
X-458933Y-562013D01*
X-455707Y-565707D01*
X-452013Y-568933D01*
X-452012Y-568933D01*
X-452012Y-568934D01*
X-447917Y-571633D01*
X-443496Y-573757D01*
X-443495Y-573757D01*
X-438829Y-575267D01*
X-438828Y-575267D01*
X-434001Y-576134D01*
X-434000Y-576134D01*
X-433998Y-576132D01*
G37*
G36*
X434001Y-576134D02*
X434001Y-576134D01*
X438828Y-575267D01*
X438828Y-575266D01*
X438829Y-575267D01*
X443495Y-573757D01*
X443496Y-573757D01*
X447917Y-571633D01*
X452012Y-568934D01*
X452012Y-568933D01*
X452013Y-568933D01*
X455707Y-565707D01*
X458933Y-562013D01*
X458933Y-562012D01*
X458934Y-562012D01*
X461633Y-557917D01*
X463757Y-553496D01*
X463757Y-553495D01*
X465267Y-548829D01*
X465267Y-548828D01*
X466134Y-544001D01*
X466134Y-544000D01*
X466131Y-543995D01*
X466130Y-543996D01*
X466129Y-543995D01*
X452040Y-543995D01*
X452037Y-543998D01*
X452035Y-543999D01*
X451179Y-547278D01*
X449839Y-550391D01*
X448044Y-553265D01*
X445836Y-555836D01*
X443265Y-558044D01*
X440391Y-559839D01*
X437278Y-561179D01*
X433999Y-562035D01*
X433996Y-562039D01*
X433995Y-562040D01*
X433995Y-576129D01*
X433995Y-576130D01*
X433996Y-576130D01*
X433999Y-576134D01*
X434000Y-576134D01*
X434001Y-576134D01*
G37*
G36*
X-492037Y433998D02*
X-492037Y433998D01*
X-492035Y433999D01*
X-491179Y437278D01*
X-489839Y440391D01*
X-488044Y443265D01*
X-485836Y445836D01*
X-483265Y448044D01*
X-480391Y449839D01*
X-477278Y451179D01*
X-473999Y452035D01*
X-473996Y452039D01*
X-473995Y452040D01*
X-473995Y466129D01*
X-473995Y466130D01*
X-473996Y466130D01*
X-473999Y466134D01*
X-474000Y466134D01*
X-474001Y466134D01*
X-478828Y465267D01*
X-478828Y465266D01*
X-478829Y465267D01*
X-483495Y463757D01*
X-483496Y463757D01*
X-487917Y461633D01*
X-492012Y458934D01*
X-492012Y458933D01*
X-492013Y458933D01*
X-495707Y455707D01*
X-498933Y452013D01*
X-498933Y452012D01*
X-498934Y452012D01*
X-501633Y447917D01*
X-503757Y443496D01*
X-503757Y443495D01*
X-505267Y438829D01*
X-505267Y438828D01*
X-506134Y434001D01*
X-506134Y434000D01*
X-506131Y433995D01*
X-506130Y433996D01*
X-506129Y433995D01*
X-492040Y433995D01*
X-492037Y433998D01*
G37*
G36*
X506129Y433995D02*
X506129Y433995D01*
X506130Y433995D01*
X506130Y433996D01*
X506134Y433999D01*
X506134Y434000D01*
X506134Y434001D01*
X505267Y438828D01*
X505266Y438828D01*
X505267Y438829D01*
X503757Y443495D01*
X503757Y443496D01*
X501633Y447917D01*
X498934Y452012D01*
X498933Y452012D01*
X498933Y452013D01*
X495707Y455707D01*
X492013Y458933D01*
X492012Y458933D01*
X492012Y458934D01*
X487917Y461633D01*
X483496Y463757D01*
X483495Y463757D01*
X478829Y465267D01*
X478828Y465267D01*
X474001Y466134D01*
X474000Y466134D01*
X473995Y466131D01*
X473996Y466130D01*
X473995Y466129D01*
X473995Y452040D01*
X473998Y452037D01*
X473999Y452035D01*
X477278Y451179D01*
X480391Y449839D01*
X483265Y448044D01*
X485836Y445836D01*
X488044Y443265D01*
X489839Y440391D01*
X491179Y437278D01*
X492035Y433999D01*
X492039Y433996D01*
X492040Y433995D01*
X506129Y433995D01*
X506129Y433995D01*
G37*
D10*
X-114500Y419500D02*
X-120500Y419500D01*
X-120500Y424500D01*
X-114500Y424500D01*
X-114500Y419500D01*
X-114500Y424250D02*
X-120500Y424250D01*
X-103500Y419500D02*
X-97500Y419500D01*
X-103500Y419500D02*
X-103500Y424500D01*
X-97500Y424500D01*
X-97500Y419500D01*
X-97500Y424250D02*
X-103500Y424250D01*
D11*
X54310Y366010D02*
X54310Y349990D01*
X47290Y349990D01*
X47290Y366010D01*
X54310Y366010D01*
X54310Y351871D02*
X47290Y351871D01*
X47290Y353752D02*
X54310Y353752D01*
X54310Y355633D02*
X47290Y355633D01*
X47290Y357514D02*
X54310Y357514D01*
X54310Y359395D02*
X47290Y359395D01*
X47290Y361276D02*
X54310Y361276D01*
X54310Y363157D02*
X47290Y363157D01*
X47290Y365038D02*
X54310Y365038D01*
X54310Y413990D02*
X54310Y430010D01*
X54310Y413990D02*
X47290Y413990D01*
X47290Y430010D01*
X54310Y430010D01*
X54310Y415871D02*
X47290Y415871D01*
X47290Y417752D02*
X54310Y417752D01*
X54310Y419633D02*
X47290Y419633D01*
X47290Y421514D02*
X54310Y421514D01*
X54310Y423395D02*
X47290Y423395D01*
X47290Y425276D02*
X54310Y425276D01*
X54310Y427157D02*
X47290Y427157D01*
X47290Y429038D02*
X54310Y429038D01*
X28910Y366010D02*
X28910Y349990D01*
X21890Y349990D01*
X21890Y366010D01*
X28910Y366010D01*
X28910Y351871D02*
X21890Y351871D01*
X21890Y353752D02*
X28910Y353752D01*
X28910Y355633D02*
X21890Y355633D01*
X21890Y357514D02*
X28910Y357514D01*
X28910Y359395D02*
X21890Y359395D01*
X21890Y361276D02*
X28910Y361276D01*
X28910Y363157D02*
X21890Y363157D01*
X21890Y365038D02*
X28910Y365038D01*
X28910Y413990D02*
X28910Y430010D01*
X28910Y413990D02*
X21890Y413990D01*
X21890Y430010D01*
X28910Y430010D01*
X28910Y415871D02*
X21890Y415871D01*
X21890Y417752D02*
X28910Y417752D01*
X28910Y419633D02*
X21890Y419633D01*
X21890Y421514D02*
X28910Y421514D01*
X28910Y423395D02*
X21890Y423395D01*
X21890Y425276D02*
X28910Y425276D01*
X28910Y427157D02*
X21890Y427157D01*
X21890Y429038D02*
X28910Y429038D01*
X3510Y366010D02*
X3510Y349990D01*
X-3510Y349990D01*
X-3510Y366010D01*
X3510Y366010D01*
X3510Y351871D02*
X-3510Y351871D01*
X-3510Y353752D02*
X3510Y353752D01*
X3510Y355633D02*
X-3510Y355633D01*
X-3510Y357514D02*
X3510Y357514D01*
X3510Y359395D02*
X-3510Y359395D01*
X-3510Y361276D02*
X3510Y361276D01*
X3510Y363157D02*
X-3510Y363157D01*
X-3510Y365038D02*
X3510Y365038D01*
X3510Y413990D02*
X3510Y430010D01*
X3510Y413990D02*
X-3510Y413990D01*
X-3510Y430010D01*
X3510Y430010D01*
X3510Y415871D02*
X-3510Y415871D01*
X-3510Y417752D02*
X3510Y417752D01*
X3510Y419633D02*
X-3510Y419633D01*
X-3510Y421514D02*
X3510Y421514D01*
X3510Y423395D02*
X-3510Y423395D01*
X-3510Y425276D02*
X3510Y425276D01*
X3510Y427157D02*
X-3510Y427157D01*
X-3510Y429038D02*
X3510Y429038D01*
X-21890Y366010D02*
X-21890Y349990D01*
X-28910Y349990D01*
X-28910Y366010D01*
X-21890Y366010D01*
X-21890Y351871D02*
X-28910Y351871D01*
X-28910Y353752D02*
X-21890Y353752D01*
X-21890Y355633D02*
X-28910Y355633D01*
X-28910Y357514D02*
X-21890Y357514D01*
X-21890Y359395D02*
X-28910Y359395D01*
X-28910Y361276D02*
X-21890Y361276D01*
X-21890Y363157D02*
X-28910Y363157D01*
X-28910Y365038D02*
X-21890Y365038D01*
X-21890Y413990D02*
X-21890Y430010D01*
X-21890Y413990D02*
X-28910Y413990D01*
X-28910Y430010D01*
X-21890Y430010D01*
X-21890Y415871D02*
X-28910Y415871D01*
X-28910Y417752D02*
X-21890Y417752D01*
X-21890Y419633D02*
X-28910Y419633D01*
X-28910Y421514D02*
X-21890Y421514D01*
X-21890Y423395D02*
X-28910Y423395D01*
X-28910Y425276D02*
X-21890Y425276D01*
X-21890Y427157D02*
X-28910Y427157D01*
X-28910Y429038D02*
X-21890Y429038D01*
X-47290Y366010D02*
X-47290Y349990D01*
X-54310Y349990D01*
X-54310Y366010D01*
X-47290Y366010D01*
X-47290Y351871D02*
X-54310Y351871D01*
X-54310Y353752D02*
X-47290Y353752D01*
X-47290Y355633D02*
X-54310Y355633D01*
X-54310Y357514D02*
X-47290Y357514D01*
X-47290Y359395D02*
X-54310Y359395D01*
X-54310Y361276D02*
X-47290Y361276D01*
X-47290Y363157D02*
X-54310Y363157D01*
X-54310Y365038D02*
X-47290Y365038D01*
X-47290Y413990D02*
X-47290Y430010D01*
X-47290Y413990D02*
X-54310Y413990D01*
X-54310Y430010D01*
X-47290Y430010D01*
X-47290Y415871D02*
X-54310Y415871D01*
X-54310Y417752D02*
X-47290Y417752D01*
X-47290Y419633D02*
X-54310Y419633D01*
X-54310Y421514D02*
X-47290Y421514D01*
X-47290Y423395D02*
X-54310Y423395D01*
X-54310Y425276D02*
X-47290Y425276D01*
X-47290Y427157D02*
X-54310Y427157D01*
X-54310Y429038D02*
X-47290Y429038D01*
X-92410Y-19990D02*
X-92410Y-36010D01*
X-92410Y-19990D02*
X-85390Y-19990D01*
X-85390Y-36010D01*
X-92410Y-36010D01*
X-92410Y-34129D02*
X-85390Y-34129D01*
X-85390Y-32248D02*
X-92410Y-32248D01*
X-92410Y-30367D02*
X-85390Y-30367D01*
X-85390Y-28486D02*
X-92410Y-28486D01*
X-92410Y-26605D02*
X-85390Y-26605D01*
X-85390Y-24724D02*
X-92410Y-24724D01*
X-92410Y-22843D02*
X-85390Y-22843D01*
X-85390Y-20962D02*
X-92410Y-20962D01*
X-92410Y-83990D02*
X-92410Y-100010D01*
X-92410Y-83990D02*
X-85390Y-83990D01*
X-85390Y-100010D01*
X-92410Y-100010D01*
X-92410Y-98129D02*
X-85390Y-98129D01*
X-85390Y-96248D02*
X-92410Y-96248D01*
X-92410Y-94367D02*
X-85390Y-94367D01*
X-85390Y-92486D02*
X-92410Y-92486D01*
X-92410Y-90605D02*
X-85390Y-90605D01*
X-85390Y-88724D02*
X-92410Y-88724D01*
X-92410Y-86843D02*
X-85390Y-86843D01*
X-85390Y-84962D02*
X-92410Y-84962D01*
X-67010Y-36010D02*
X-67010Y-19990D01*
X-59990Y-19990D01*
X-59990Y-36010D01*
X-67010Y-36010D01*
X-67010Y-34129D02*
X-59990Y-34129D01*
X-59990Y-32248D02*
X-67010Y-32248D01*
X-67010Y-30367D02*
X-59990Y-30367D01*
X-59990Y-28486D02*
X-67010Y-28486D01*
X-67010Y-26605D02*
X-59990Y-26605D01*
X-59990Y-24724D02*
X-67010Y-24724D01*
X-67010Y-22843D02*
X-59990Y-22843D01*
X-59990Y-20962D02*
X-67010Y-20962D01*
X-67010Y-83990D02*
X-67010Y-100010D01*
X-67010Y-83990D02*
X-59990Y-83990D01*
X-59990Y-100010D01*
X-67010Y-100010D01*
X-67010Y-98129D02*
X-59990Y-98129D01*
X-59990Y-96248D02*
X-67010Y-96248D01*
X-67010Y-94367D02*
X-59990Y-94367D01*
X-59990Y-92486D02*
X-67010Y-92486D01*
X-67010Y-90605D02*
X-59990Y-90605D01*
X-59990Y-88724D02*
X-67010Y-88724D01*
X-67010Y-86843D02*
X-59990Y-86843D01*
X-59990Y-84962D02*
X-67010Y-84962D01*
X-41610Y-36010D02*
X-41610Y-19990D01*
X-34590Y-19990D01*
X-34590Y-36010D01*
X-41610Y-36010D01*
X-41610Y-34129D02*
X-34590Y-34129D01*
X-34590Y-32248D02*
X-41610Y-32248D01*
X-41610Y-30367D02*
X-34590Y-30367D01*
X-34590Y-28486D02*
X-41610Y-28486D01*
X-41610Y-26605D02*
X-34590Y-26605D01*
X-34590Y-24724D02*
X-41610Y-24724D01*
X-41610Y-22843D02*
X-34590Y-22843D01*
X-34590Y-20962D02*
X-41610Y-20962D01*
X-41610Y-83990D02*
X-41610Y-100010D01*
X-41610Y-83990D02*
X-34590Y-83990D01*
X-34590Y-100010D01*
X-41610Y-100010D01*
X-41610Y-98129D02*
X-34590Y-98129D01*
X-34590Y-96248D02*
X-41610Y-96248D01*
X-41610Y-94367D02*
X-34590Y-94367D01*
X-34590Y-92486D02*
X-41610Y-92486D01*
X-41610Y-90605D02*
X-34590Y-90605D01*
X-34590Y-88724D02*
X-41610Y-88724D01*
X-41610Y-86843D02*
X-34590Y-86843D01*
X-34590Y-84962D02*
X-41610Y-84962D01*
X-16210Y-36010D02*
X-16210Y-19990D01*
X-9190Y-19990D01*
X-9190Y-36010D01*
X-16210Y-36010D01*
X-16210Y-34129D02*
X-9190Y-34129D01*
X-9190Y-32248D02*
X-16210Y-32248D01*
X-16210Y-30367D02*
X-9190Y-30367D01*
X-9190Y-28486D02*
X-16210Y-28486D01*
X-16210Y-26605D02*
X-9190Y-26605D01*
X-9190Y-24724D02*
X-16210Y-24724D01*
X-16210Y-22843D02*
X-9190Y-22843D01*
X-9190Y-20962D02*
X-16210Y-20962D01*
X-16210Y-83990D02*
X-16210Y-100010D01*
X-16210Y-83990D02*
X-9190Y-83990D01*
X-9190Y-100010D01*
X-16210Y-100010D01*
X-16210Y-98129D02*
X-9190Y-98129D01*
X-9190Y-96248D02*
X-16210Y-96248D01*
X-16210Y-94367D02*
X-9190Y-94367D01*
X-9190Y-92486D02*
X-16210Y-92486D01*
X-16210Y-90605D02*
X-9190Y-90605D01*
X-9190Y-88724D02*
X-16210Y-88724D01*
X-16210Y-86843D02*
X-9190Y-86843D01*
X-9190Y-84962D02*
X-16210Y-84962D01*
X9190Y-36010D02*
X9190Y-19990D01*
X16210Y-19990D01*
X16210Y-36010D01*
X9190Y-36010D01*
X9190Y-34129D02*
X16210Y-34129D01*
X16210Y-32248D02*
X9190Y-32248D01*
X9190Y-30367D02*
X16210Y-30367D01*
X16210Y-28486D02*
X9190Y-28486D01*
X9190Y-26605D02*
X16210Y-26605D01*
X16210Y-24724D02*
X9190Y-24724D01*
X9190Y-22843D02*
X16210Y-22843D01*
X16210Y-20962D02*
X9190Y-20962D01*
X9190Y-83990D02*
X9190Y-100010D01*
X9190Y-83990D02*
X16210Y-83990D01*
X16210Y-100010D01*
X9190Y-100010D01*
X9190Y-98129D02*
X16210Y-98129D01*
X16210Y-96248D02*
X9190Y-96248D01*
X9190Y-94367D02*
X16210Y-94367D01*
X16210Y-92486D02*
X9190Y-92486D01*
X9190Y-90605D02*
X16210Y-90605D01*
X16210Y-88724D02*
X9190Y-88724D01*
X9190Y-86843D02*
X16210Y-86843D01*
X16210Y-84962D02*
X9190Y-84962D01*
X34590Y-36010D02*
X34590Y-19990D01*
X41610Y-19990D01*
X41610Y-36010D01*
X34590Y-36010D01*
X34590Y-34129D02*
X41610Y-34129D01*
X41610Y-32248D02*
X34590Y-32248D01*
X34590Y-30367D02*
X41610Y-30367D01*
X41610Y-28486D02*
X34590Y-28486D01*
X34590Y-26605D02*
X41610Y-26605D01*
X41610Y-24724D02*
X34590Y-24724D01*
X34590Y-22843D02*
X41610Y-22843D01*
X41610Y-20962D02*
X34590Y-20962D01*
X34590Y-83990D02*
X34590Y-100010D01*
X34590Y-83990D02*
X41610Y-83990D01*
X41610Y-100010D01*
X34590Y-100010D01*
X34590Y-98129D02*
X41610Y-98129D01*
X41610Y-96248D02*
X34590Y-96248D01*
X34590Y-94367D02*
X41610Y-94367D01*
X41610Y-92486D02*
X34590Y-92486D01*
X34590Y-90605D02*
X41610Y-90605D01*
X41610Y-88724D02*
X34590Y-88724D01*
X34590Y-86843D02*
X41610Y-86843D01*
X41610Y-84962D02*
X34590Y-84962D01*
X59990Y-36010D02*
X59990Y-19990D01*
X67010Y-19990D01*
X67010Y-36010D01*
X59990Y-36010D01*
X59990Y-34129D02*
X67010Y-34129D01*
X67010Y-32248D02*
X59990Y-32248D01*
X59990Y-30367D02*
X67010Y-30367D01*
X67010Y-28486D02*
X59990Y-28486D01*
X59990Y-26605D02*
X67010Y-26605D01*
X67010Y-24724D02*
X59990Y-24724D01*
X59990Y-22843D02*
X67010Y-22843D01*
X67010Y-20962D02*
X59990Y-20962D01*
X59990Y-83990D02*
X59990Y-100010D01*
X59990Y-83990D02*
X67010Y-83990D01*
X67010Y-100010D01*
X59990Y-100010D01*
X59990Y-98129D02*
X67010Y-98129D01*
X67010Y-96248D02*
X59990Y-96248D01*
X59990Y-94367D02*
X67010Y-94367D01*
X67010Y-92486D02*
X59990Y-92486D01*
X59990Y-90605D02*
X67010Y-90605D01*
X67010Y-88724D02*
X59990Y-88724D01*
X59990Y-86843D02*
X67010Y-86843D01*
X67010Y-84962D02*
X59990Y-84962D01*
X85390Y-36010D02*
X85390Y-19990D01*
X92410Y-19990D01*
X92410Y-36010D01*
X85390Y-36010D01*
X85390Y-34129D02*
X92410Y-34129D01*
X92410Y-32248D02*
X85390Y-32248D01*
X85390Y-30367D02*
X92410Y-30367D01*
X92410Y-28486D02*
X85390Y-28486D01*
X85390Y-26605D02*
X92410Y-26605D01*
X92410Y-24724D02*
X85390Y-24724D01*
X85390Y-22843D02*
X92410Y-22843D01*
X92410Y-20962D02*
X85390Y-20962D01*
X85390Y-83990D02*
X85390Y-100010D01*
X85390Y-83990D02*
X92410Y-83990D01*
X92410Y-100010D01*
X85390Y-100010D01*
X85390Y-98129D02*
X92410Y-98129D01*
X92410Y-96248D02*
X85390Y-96248D01*
X85390Y-94367D02*
X92410Y-94367D01*
X92410Y-92486D02*
X85390Y-92486D01*
X85390Y-90605D02*
X92410Y-90605D01*
X92410Y-88724D02*
X85390Y-88724D01*
X85390Y-86843D02*
X92410Y-86843D01*
X92410Y-84962D02*
X85390Y-84962D01*
D10*
X-80500Y539500D02*
X-86500Y539500D01*
X-86500Y544500D01*
X-80500Y544500D01*
X-80500Y539500D01*
X-80500Y544250D02*
X-86500Y544250D01*
X-69500Y539500D02*
X-63500Y539500D01*
X-69500Y539500D02*
X-69500Y544500D01*
X-63500Y544500D01*
X-63500Y539500D01*
X-63500Y544250D02*
X-69500Y544250D01*
D12*
X64000Y315000D02*
X72000Y315000D01*
X64000Y315000D02*
X64000Y325000D01*
X72000Y325000D01*
X72000Y315000D01*
X72000Y322600D02*
X64000Y322600D01*
X92000Y315000D02*
X100000Y315000D01*
X92000Y315000D02*
X92000Y325000D01*
X100000Y325000D01*
X100000Y315000D01*
X100000Y322600D02*
X92000Y322600D01*
X103000Y-429000D02*
X111000Y-429000D01*
X103000Y-429000D02*
X103000Y-419000D01*
X111000Y-419000D01*
X111000Y-429000D01*
X111000Y-421400D02*
X103000Y-421400D01*
X131000Y-429000D02*
X139000Y-429000D01*
X131000Y-429000D02*
X131000Y-419000D01*
X139000Y-419000D01*
X139000Y-429000D01*
X139000Y-421400D02*
X131000Y-421400D01*
X173000Y-320500D02*
X173000Y-312500D01*
X173000Y-320500D02*
X163000Y-320500D01*
X163000Y-312500D01*
X173000Y-312500D01*
X173000Y-312900D02*
X163000Y-312900D01*
X173000Y-292500D02*
X173000Y-284500D01*
X173000Y-292500D02*
X163000Y-292500D01*
X163000Y-284500D01*
X173000Y-284500D01*
X173000Y-284900D02*
X163000Y-284900D01*
X-102000Y-365000D02*
X-110000Y-365000D01*
X-102000Y-365000D02*
X-102000Y-375000D01*
X-110000Y-375000D01*
X-110000Y-365000D01*
X-110000Y-367400D02*
X-102000Y-367400D01*
X-130000Y-365000D02*
X-138000Y-365000D01*
X-130000Y-365000D02*
X-130000Y-375000D01*
X-138000Y-375000D01*
X-138000Y-365000D01*
X-138000Y-367400D02*
X-130000Y-367400D01*
D11*
X445010Y328990D02*
X445010Y337010D01*
X445010Y328990D02*
X440990Y328990D01*
X440990Y337010D01*
X445010Y337010D01*
X445010Y330871D02*
X440990Y330871D01*
X440990Y332752D02*
X445010Y332752D01*
X445010Y334633D02*
X440990Y334633D01*
X440990Y336514D02*
X445010Y336514D01*
X445010Y350990D02*
X445010Y359010D01*
X445010Y350990D02*
X440990Y350990D01*
X440990Y359010D01*
X445010Y359010D01*
X445010Y352871D02*
X440990Y352871D01*
X440990Y354752D02*
X445010Y354752D01*
X445010Y356633D02*
X440990Y356633D01*
X440990Y358514D02*
X445010Y358514D01*
X417990Y-24990D02*
X417990Y-33010D01*
X417990Y-24990D02*
X422010Y-24990D01*
X422010Y-33010D01*
X417990Y-33010D01*
X417990Y-31129D02*
X422010Y-31129D01*
X422010Y-29248D02*
X417990Y-29248D01*
X417990Y-27367D02*
X422010Y-27367D01*
X422010Y-25486D02*
X417990Y-25486D01*
X417990Y-46990D02*
X417990Y-55010D01*
X417990Y-46990D02*
X422010Y-46990D01*
X422010Y-55010D01*
X417990Y-55010D01*
X417990Y-53129D02*
X422010Y-53129D01*
X422010Y-51248D02*
X417990Y-51248D01*
X417990Y-49367D02*
X422010Y-49367D01*
X422010Y-47486D02*
X417990Y-47486D01*
X432990Y-395990D02*
X432990Y-404010D01*
X432990Y-395990D02*
X437010Y-395990D01*
X437010Y-404010D01*
X432990Y-404010D01*
X432990Y-402129D02*
X437010Y-402129D01*
X437010Y-400248D02*
X432990Y-400248D01*
X432990Y-398367D02*
X437010Y-398367D01*
X437010Y-396486D02*
X432990Y-396486D01*
X432990Y-417990D02*
X432990Y-426010D01*
X432990Y-417990D02*
X437010Y-417990D01*
X437010Y-426010D01*
X432990Y-426010D01*
X432990Y-424129D02*
X437010Y-424129D01*
X437010Y-422248D02*
X432990Y-422248D01*
X432990Y-420367D02*
X437010Y-420367D01*
X437010Y-418486D02*
X432990Y-418486D01*
X-439990Y-339010D02*
X-439990Y-330990D01*
X-439990Y-339010D02*
X-444010Y-339010D01*
X-444010Y-330990D01*
X-439990Y-330990D01*
X-439990Y-337129D02*
X-444010Y-337129D01*
X-444010Y-335248D02*
X-439990Y-335248D01*
X-439990Y-333367D02*
X-444010Y-333367D01*
X-444010Y-331486D02*
X-439990Y-331486D01*
X-439990Y-317010D02*
X-439990Y-308990D01*
X-439990Y-317010D02*
X-444010Y-317010D01*
X-444010Y-308990D01*
X-439990Y-308990D01*
X-439990Y-315129D02*
X-444010Y-315129D01*
X-444010Y-313248D02*
X-439990Y-313248D01*
X-439990Y-311367D02*
X-444010Y-311367D01*
X-444010Y-309486D02*
X-439990Y-309486D01*
X-439990Y21990D02*
X-439990Y30010D01*
X-439990Y21990D02*
X-444010Y21990D01*
X-444010Y30010D01*
X-439990Y30010D01*
X-439990Y23871D02*
X-444010Y23871D01*
X-444010Y25752D02*
X-439990Y25752D01*
X-439990Y27633D02*
X-444010Y27633D01*
X-444010Y29514D02*
X-439990Y29514D01*
X-439990Y43990D02*
X-439990Y52010D01*
X-439990Y43990D02*
X-444010Y43990D01*
X-444010Y52010D01*
X-439990Y52010D01*
X-439990Y45871D02*
X-444010Y45871D01*
X-444010Y47752D02*
X-439990Y47752D01*
X-439990Y49633D02*
X-444010Y49633D01*
X-444010Y51514D02*
X-439990Y51514D01*
X-454010Y376990D02*
X-454010Y385010D01*
X-449990Y385010D01*
X-449990Y376990D01*
X-454010Y376990D01*
X-454010Y378871D02*
X-449990Y378871D01*
X-449990Y380752D02*
X-454010Y380752D01*
X-454010Y382633D02*
X-449990Y382633D01*
X-449990Y384514D02*
X-454010Y384514D01*
X-454010Y363010D02*
X-454010Y354990D01*
X-454010Y363010D02*
X-449990Y363010D01*
X-449990Y354990D01*
X-454010Y354990D01*
X-454010Y356871D02*
X-449990Y356871D01*
X-449990Y358752D02*
X-454010Y358752D01*
X-454010Y360633D02*
X-449990Y360633D01*
X-449990Y362514D02*
X-454010Y362514D01*
X7990Y464010D02*
X16010Y464010D01*
X16010Y459990D01*
X7990Y459990D01*
X7990Y464010D01*
X7990Y461871D02*
X16010Y461871D01*
X16010Y463752D02*
X7990Y463752D01*
X-5990Y464010D02*
X-14010Y464010D01*
X-5990Y464010D02*
X-5990Y459990D01*
X-14010Y459990D01*
X-14010Y464010D01*
X-14010Y461871D02*
X-5990Y461871D01*
X-5990Y463752D02*
X-14010Y463752D01*
X118010Y507990D02*
X118010Y516010D01*
X118010Y507990D02*
X113990Y507990D01*
X113990Y516010D01*
X118010Y516010D01*
X118010Y509871D02*
X113990Y509871D01*
X113990Y511752D02*
X118010Y511752D01*
X118010Y513633D02*
X113990Y513633D01*
X113990Y515514D02*
X118010Y515514D01*
X118010Y529990D02*
X118010Y538010D01*
X118010Y529990D02*
X113990Y529990D01*
X113990Y538010D01*
X118010Y538010D01*
X118010Y531871D02*
X113990Y531871D01*
X113990Y533752D02*
X118010Y533752D01*
X118010Y535633D02*
X113990Y535633D01*
X113990Y537514D02*
X118010Y537514D01*
X110010Y407010D02*
X110010Y398990D01*
X105990Y398990D01*
X105990Y407010D01*
X110010Y407010D01*
X110010Y400871D02*
X105990Y400871D01*
X105990Y402752D02*
X110010Y402752D01*
X110010Y404633D02*
X105990Y404633D01*
X105990Y406514D02*
X110010Y406514D01*
X110010Y420990D02*
X110010Y429010D01*
X110010Y420990D02*
X105990Y420990D01*
X105990Y429010D01*
X110010Y429010D01*
X110010Y422871D02*
X105990Y422871D01*
X105990Y424752D02*
X110010Y424752D01*
X110010Y426633D02*
X105990Y426633D01*
X105990Y428514D02*
X110010Y428514D01*
D12*
X-155000Y-430000D02*
X-163000Y-430000D01*
X-163000Y-420000D01*
X-155000Y-420000D01*
X-155000Y-430000D01*
X-155000Y-422400D02*
X-163000Y-422400D01*
X-135000Y-430000D02*
X-127000Y-430000D01*
X-135000Y-430000D02*
X-135000Y-420000D01*
X-127000Y-420000D01*
X-127000Y-430000D01*
X-127000Y-422400D02*
X-135000Y-422400D01*
X0Y-335000D02*
X8000Y-335000D01*
X8000Y-345000D01*
X0Y-345000D01*
X0Y-335000D01*
X0Y-337400D02*
X8000Y-337400D01*
X-20000Y-335000D02*
X-28000Y-335000D01*
X-20000Y-335000D02*
X-20000Y-345000D01*
X-28000Y-345000D01*
X-28000Y-335000D01*
X-28000Y-337400D02*
X-20000Y-337400D01*
D13*
X87480Y-343480D02*
X99520Y-343480D01*
X99520Y-355520D01*
X87480Y-355520D01*
X87480Y-343480D01*
X87480Y-353658D02*
X99520Y-353658D01*
X99520Y-351796D02*
X87480Y-351796D01*
X87480Y-349934D02*
X99520Y-349934D01*
X99520Y-348072D02*
X87480Y-348072D01*
X87480Y-346210D02*
X99520Y-346210D01*
X99520Y-344348D02*
X87480Y-344348D01*
X125480Y-343480D02*
X137520Y-343480D01*
X137520Y-355520D01*
X125480Y-355520D01*
X125480Y-343480D01*
X125480Y-353658D02*
X137520Y-353658D01*
X137520Y-351796D02*
X125480Y-351796D01*
X125480Y-349934D02*
X137520Y-349934D01*
X137520Y-348072D02*
X125480Y-348072D01*
X125480Y-346210D02*
X137520Y-346210D01*
X137520Y-344348D02*
X125480Y-344348D01*
X-32980Y-368980D02*
X-45020Y-368980D01*
X-32980Y-368980D02*
X-32980Y-381020D01*
X-45020Y-381020D01*
X-45020Y-368980D01*
X-45020Y-379158D02*
X-32980Y-379158D01*
X-32980Y-377296D02*
X-45020Y-377296D01*
X-45020Y-375434D02*
X-32980Y-375434D01*
X-32980Y-373572D02*
X-45020Y-373572D01*
X-45020Y-371710D02*
X-32980Y-371710D01*
X-32980Y-369848D02*
X-45020Y-369848D01*
X-7020Y-368980D02*
X5020Y-368980D01*
X5020Y-381020D01*
X-7020Y-381020D01*
X-7020Y-368980D01*
X-7020Y-379158D02*
X5020Y-379158D01*
X5020Y-377296D02*
X-7020Y-377296D01*
X-7020Y-375434D02*
X5020Y-375434D01*
X5020Y-373572D02*
X-7020Y-373572D01*
X-7020Y-371710D02*
X5020Y-371710D01*
X5020Y-369848D02*
X-7020Y-369848D01*
X-74980Y-326020D02*
X-87020Y-326020D01*
X-87020Y-313980D01*
X-74980Y-313980D01*
X-74980Y-326020D01*
X-74980Y-324158D02*
X-87020Y-324158D01*
X-87020Y-322296D02*
X-74980Y-322296D01*
X-74980Y-320434D02*
X-87020Y-320434D01*
X-87020Y-318572D02*
X-74980Y-318572D01*
X-74980Y-316710D02*
X-87020Y-316710D01*
X-87020Y-314848D02*
X-74980Y-314848D01*
X-112980Y-326020D02*
X-125020Y-326020D01*
X-125020Y-313980D01*
X-112980Y-313980D01*
X-112980Y-326020D01*
X-112980Y-324158D02*
X-125020Y-324158D01*
X-125020Y-322296D02*
X-112980Y-322296D01*
X-112980Y-320434D02*
X-125020Y-320434D01*
X-125020Y-318572D02*
X-112980Y-318572D01*
X-112980Y-316710D02*
X-125020Y-316710D01*
X-125020Y-314848D02*
X-112980Y-314848D01*
D10*
X133000Y-307500D02*
X133000Y-301500D01*
X138000Y-301500D01*
X138000Y-307500D01*
X133000Y-307500D01*
X133000Y-302750D02*
X138000Y-302750D01*
X133000Y-318500D02*
X133000Y-324500D01*
X133000Y-318500D02*
X138000Y-318500D01*
X138000Y-324500D01*
X133000Y-324500D01*
X133000Y-319750D02*
X138000Y-319750D01*
X117500Y-319500D02*
X117500Y-325500D01*
X112500Y-325500D01*
X112500Y-319500D01*
X117500Y-319500D01*
X117500Y-320750D02*
X112500Y-320750D01*
X117500Y-308500D02*
X117500Y-302500D01*
X117500Y-308500D02*
X112500Y-308500D01*
X112500Y-302500D01*
X117500Y-302500D01*
X117500Y-303750D02*
X112500Y-303750D01*
X7500Y-294500D02*
X7500Y-288500D01*
X12500Y-288500D01*
X12500Y-294500D01*
X7500Y-294500D01*
X7500Y-289750D02*
X12500Y-289750D01*
X7500Y-305500D02*
X7500Y-311500D01*
X7500Y-305500D02*
X12500Y-305500D01*
X12500Y-311500D01*
X7500Y-311500D01*
X7500Y-306750D02*
X12500Y-306750D01*
X32500Y-305500D02*
X32500Y-311500D01*
X27500Y-311500D01*
X27500Y-305500D01*
X32500Y-305500D01*
X32500Y-306750D02*
X27500Y-306750D01*
X32500Y-294500D02*
X32500Y-288500D01*
X32500Y-294500D02*
X27500Y-294500D01*
X27500Y-288500D01*
X32500Y-288500D01*
X32500Y-289750D02*
X27500Y-289750D01*
D12*
X71000Y-284000D02*
X79000Y-284000D01*
X71000Y-284000D02*
X71000Y-274000D01*
X79000Y-274000D01*
X79000Y-284000D01*
X79000Y-276400D02*
X71000Y-276400D01*
X99000Y-284000D02*
X107000Y-284000D01*
X99000Y-284000D02*
X99000Y-274000D01*
X107000Y-274000D01*
X107000Y-284000D01*
X107000Y-276400D02*
X99000Y-276400D01*
X-20000Y-268000D02*
X-20000Y-260000D01*
X-20000Y-268000D02*
X-30000Y-268000D01*
X-30000Y-260000D01*
X-20000Y-260000D01*
X-20000Y-260400D02*
X-30000Y-260400D01*
X-20000Y-240000D02*
X-20000Y-232000D01*
X-20000Y-240000D02*
X-30000Y-240000D01*
X-30000Y-232000D01*
X-20000Y-232000D01*
X-20000Y-232400D02*
X-30000Y-232400D01*
D10*
X-130500Y-277500D02*
X-136500Y-277500D01*
X-136500Y-272500D01*
X-130500Y-272500D01*
X-130500Y-277500D01*
X-130500Y-272750D02*
X-136500Y-272750D01*
X-119500Y-277500D02*
X-113500Y-277500D01*
X-119500Y-277500D02*
X-119500Y-272500D01*
X-113500Y-272500D01*
X-113500Y-277500D01*
X-113500Y-272750D02*
X-119500Y-272750D01*
X-119500Y-292500D02*
X-113500Y-292500D01*
X-113500Y-297500D01*
X-119500Y-297500D01*
X-119500Y-292500D01*
X-119500Y-292750D02*
X-113500Y-292750D01*
X-130500Y-292500D02*
X-136500Y-292500D01*
X-130500Y-292500D02*
X-130500Y-297500D01*
X-136500Y-297500D01*
X-136500Y-292500D01*
X-136500Y-292750D02*
X-130500Y-292750D01*
D12*
X-200000Y-337000D02*
X-200000Y-345000D01*
X-200000Y-337000D02*
X-190000Y-337000D01*
X-190000Y-345000D01*
X-200000Y-345000D01*
X-200000Y-337400D02*
X-190000Y-337400D01*
X-200000Y-365000D02*
X-200000Y-373000D01*
X-200000Y-365000D02*
X-190000Y-365000D01*
X-190000Y-373000D01*
X-200000Y-373000D01*
X-200000Y-365400D02*
X-190000Y-365400D01*
D13*
X72020Y-205020D02*
X72020Y-192980D01*
X72020Y-205020D02*
X59980Y-205020D01*
X59980Y-192980D01*
X72020Y-192980D01*
X72020Y-203158D02*
X59980Y-203158D01*
X59980Y-201296D02*
X72020Y-201296D01*
X72020Y-199434D02*
X59980Y-199434D01*
X59980Y-197572D02*
X72020Y-197572D01*
X72020Y-195710D02*
X59980Y-195710D01*
X59980Y-193848D02*
X72020Y-193848D01*
X72020Y-230980D02*
X72020Y-243020D01*
X59980Y-243020D01*
X59980Y-230980D01*
X72020Y-230980D01*
X72020Y-241158D02*
X59980Y-241158D01*
X59980Y-239296D02*
X72020Y-239296D01*
X72020Y-237434D02*
X59980Y-237434D01*
X59980Y-235572D02*
X72020Y-235572D01*
X72020Y-233710D02*
X59980Y-233710D01*
X59980Y-231848D02*
X72020Y-231848D01*
X-48980Y-229980D02*
X-48980Y-242020D01*
X-61020Y-242020D01*
X-61020Y-229980D01*
X-48980Y-229980D01*
X-48980Y-240158D02*
X-61020Y-240158D01*
X-61020Y-238296D02*
X-48980Y-238296D01*
X-48980Y-236434D02*
X-61020Y-236434D01*
X-61020Y-234572D02*
X-48980Y-234572D01*
X-48980Y-232710D02*
X-61020Y-232710D01*
X-61020Y-230848D02*
X-48980Y-230848D01*
X-48980Y-267980D02*
X-48980Y-280020D01*
X-61020Y-280020D01*
X-61020Y-267980D01*
X-48980Y-267980D01*
X-48980Y-278158D02*
X-61020Y-278158D01*
X-61020Y-276296D02*
X-48980Y-276296D01*
X-48980Y-274434D02*
X-61020Y-274434D01*
X-61020Y-272572D02*
X-48980Y-272572D01*
X-48980Y-270710D02*
X-61020Y-270710D01*
X-61020Y-268848D02*
X-48980Y-268848D01*
X-231020Y-372980D02*
X-231020Y-385020D01*
X-231020Y-372980D02*
X-218980Y-372980D01*
X-218980Y-385020D01*
X-231020Y-385020D01*
X-231020Y-383158D02*
X-218980Y-383158D01*
X-218980Y-381296D02*
X-231020Y-381296D01*
X-231020Y-379434D02*
X-218980Y-379434D01*
X-218980Y-377572D02*
X-231020Y-377572D01*
X-231020Y-375710D02*
X-218980Y-375710D01*
X-218980Y-373848D02*
X-231020Y-373848D01*
X-231020Y-347020D02*
X-231020Y-334980D01*
X-218980Y-334980D01*
X-218980Y-347020D01*
X-231020Y-347020D01*
X-231020Y-345158D02*
X-218980Y-345158D01*
X-218980Y-343296D02*
X-231020Y-343296D01*
X-231020Y-341434D02*
X-218980Y-341434D01*
X-218980Y-339572D02*
X-231020Y-339572D01*
X-231020Y-337710D02*
X-218980Y-337710D01*
X-218980Y-335848D02*
X-231020Y-335848D01*
D11*
X383990Y229490D02*
X400010Y229490D01*
X383990Y229490D02*
X383990Y236510D01*
X400010Y236510D01*
X400010Y229490D01*
X400010Y231371D02*
X383990Y231371D01*
X383990Y233252D02*
X400010Y233252D01*
X400010Y235133D02*
X383990Y235133D01*
X383990Y254890D02*
X400010Y254890D01*
X383990Y254890D02*
X383990Y261910D01*
X400010Y261910D01*
X400010Y254890D01*
X400010Y256771D02*
X383990Y256771D01*
X383990Y258652D02*
X400010Y258652D01*
X400010Y260533D02*
X383990Y260533D01*
X383990Y280290D02*
X400010Y280290D01*
X383990Y280290D02*
X383990Y287310D01*
X400010Y287310D01*
X400010Y280290D01*
X400010Y282171D02*
X383990Y282171D01*
X383990Y284052D02*
X400010Y284052D01*
X400010Y285933D02*
X383990Y285933D01*
X383990Y305690D02*
X400010Y305690D01*
X383990Y305690D02*
X383990Y312710D01*
X400010Y312710D01*
X400010Y305690D01*
X400010Y307571D02*
X383990Y307571D01*
X383990Y309452D02*
X400010Y309452D01*
X400010Y311333D02*
X383990Y311333D01*
X383990Y331090D02*
X400010Y331090D01*
X383990Y331090D02*
X383990Y338110D01*
X400010Y338110D01*
X400010Y331090D01*
X400010Y332971D02*
X383990Y332971D01*
X383990Y334852D02*
X400010Y334852D01*
X400010Y336733D02*
X383990Y336733D01*
X383990Y356490D02*
X400010Y356490D01*
X383990Y356490D02*
X383990Y363510D01*
X400010Y363510D01*
X400010Y356490D01*
X400010Y358371D02*
X383990Y358371D01*
X383990Y360252D02*
X400010Y360252D01*
X400010Y362133D02*
X383990Y362133D01*
X383990Y381890D02*
X400010Y381890D01*
X383990Y381890D02*
X383990Y388910D01*
X400010Y388910D01*
X400010Y381890D01*
X400010Y383771D02*
X383990Y383771D01*
X383990Y385652D02*
X400010Y385652D01*
X400010Y387533D02*
X383990Y387533D01*
X383990Y407290D02*
X400010Y407290D01*
X383990Y407290D02*
X383990Y414310D01*
X400010Y414310D01*
X400010Y407290D01*
X400010Y409171D02*
X383990Y409171D01*
X383990Y411052D02*
X400010Y411052D01*
X400010Y412933D02*
X383990Y412933D01*
X383990Y432690D02*
X400010Y432690D01*
X383990Y432690D02*
X383990Y439710D01*
X400010Y439710D01*
X400010Y432690D01*
X400010Y434571D02*
X383990Y434571D01*
X383990Y436452D02*
X400010Y436452D01*
X400010Y438333D02*
X383990Y438333D01*
X383990Y458090D02*
X400010Y458090D01*
X383990Y458090D02*
X383990Y465110D01*
X400010Y465110D01*
X400010Y458090D01*
X400010Y459971D02*
X383990Y459971D01*
X383990Y461852D02*
X400010Y461852D01*
X400010Y463733D02*
X383990Y463733D01*
X383990Y483490D02*
X400010Y483490D01*
X383990Y483490D02*
X383990Y490510D01*
X400010Y490510D01*
X400010Y483490D01*
X400010Y485371D02*
X383990Y485371D01*
X383990Y487252D02*
X400010Y487252D01*
X400010Y489133D02*
X383990Y489133D01*
X336010Y483490D02*
X319990Y483490D01*
X319990Y490510D01*
X336010Y490510D01*
X336010Y483490D01*
X336010Y485371D02*
X319990Y485371D01*
X319990Y487252D02*
X336010Y487252D01*
X336010Y489133D02*
X319990Y489133D01*
X319990Y458090D02*
X336010Y458090D01*
X319990Y458090D02*
X319990Y465110D01*
X336010Y465110D01*
X336010Y458090D01*
X336010Y459971D02*
X319990Y459971D01*
X319990Y461852D02*
X336010Y461852D01*
X336010Y463733D02*
X319990Y463733D01*
X319990Y432690D02*
X336010Y432690D01*
X319990Y432690D02*
X319990Y439710D01*
X336010Y439710D01*
X336010Y432690D01*
X336010Y434571D02*
X319990Y434571D01*
X319990Y436452D02*
X336010Y436452D01*
X336010Y438333D02*
X319990Y438333D01*
X319990Y407290D02*
X336010Y407290D01*
X319990Y407290D02*
X319990Y414310D01*
X336010Y414310D01*
X336010Y407290D01*
X336010Y409171D02*
X319990Y409171D01*
X319990Y411052D02*
X336010Y411052D01*
X336010Y412933D02*
X319990Y412933D01*
X319990Y381890D02*
X336010Y381890D01*
X319990Y381890D02*
X319990Y388910D01*
X336010Y388910D01*
X336010Y381890D01*
X336010Y383771D02*
X319990Y383771D01*
X319990Y385652D02*
X336010Y385652D01*
X336010Y387533D02*
X319990Y387533D01*
X319990Y356490D02*
X336010Y356490D01*
X319990Y356490D02*
X319990Y363510D01*
X336010Y363510D01*
X336010Y356490D01*
X336010Y358371D02*
X319990Y358371D01*
X319990Y360252D02*
X336010Y360252D01*
X336010Y362133D02*
X319990Y362133D01*
X319990Y331090D02*
X336010Y331090D01*
X319990Y331090D02*
X319990Y338110D01*
X336010Y338110D01*
X336010Y331090D01*
X336010Y332971D02*
X319990Y332971D01*
X319990Y334852D02*
X336010Y334852D01*
X336010Y336733D02*
X319990Y336733D01*
X319990Y305690D02*
X336010Y305690D01*
X319990Y305690D02*
X319990Y312710D01*
X336010Y312710D01*
X336010Y305690D01*
X336010Y307571D02*
X319990Y307571D01*
X319990Y309452D02*
X336010Y309452D01*
X336010Y311333D02*
X319990Y311333D01*
X319990Y280290D02*
X336010Y280290D01*
X319990Y280290D02*
X319990Y287310D01*
X336010Y287310D01*
X336010Y280290D01*
X336010Y282171D02*
X319990Y282171D01*
X319990Y284052D02*
X336010Y284052D01*
X336010Y285933D02*
X319990Y285933D01*
X319990Y254890D02*
X336010Y254890D01*
X319990Y254890D02*
X319990Y261910D01*
X336010Y261910D01*
X336010Y254890D01*
X336010Y256771D02*
X319990Y256771D01*
X319990Y258652D02*
X336010Y258652D01*
X336010Y260533D02*
X319990Y260533D01*
X319990Y229490D02*
X336010Y229490D01*
X319990Y229490D02*
X319990Y236510D01*
X336010Y236510D01*
X336010Y229490D01*
X336010Y231371D02*
X319990Y231371D01*
X319990Y233252D02*
X336010Y233252D01*
X336010Y235133D02*
X319990Y235133D01*
D14*
X169460Y-376040D02*
X169460Y-389960D01*
X151540Y-389960D01*
X151540Y-376040D01*
X169460Y-376040D01*
X169460Y-387984D02*
X151540Y-387984D01*
X151540Y-386008D02*
X169460Y-386008D01*
X169460Y-384032D02*
X151540Y-384032D01*
X151540Y-382056D02*
X169460Y-382056D01*
X169460Y-380080D02*
X151540Y-380080D01*
X151540Y-378104D02*
X169460Y-378104D01*
X169460Y-376128D02*
X151540Y-376128D01*
X169460Y-349960D02*
X169460Y-336040D01*
X169460Y-349960D02*
X151540Y-349960D01*
X151540Y-336040D01*
X169460Y-336040D01*
X169460Y-347984D02*
X151540Y-347984D01*
X151540Y-346008D02*
X169460Y-346008D01*
X169460Y-344032D02*
X151540Y-344032D01*
X151540Y-342056D02*
X169460Y-342056D01*
X169460Y-340080D02*
X151540Y-340080D01*
X151540Y-338104D02*
X169460Y-338104D01*
X169460Y-336128D02*
X151540Y-336128D01*
X38960Y-368040D02*
X38960Y-381960D01*
X21040Y-381960D01*
X21040Y-368040D01*
X38960Y-368040D01*
X38960Y-379984D02*
X21040Y-379984D01*
X21040Y-378008D02*
X38960Y-378008D01*
X38960Y-376032D02*
X21040Y-376032D01*
X21040Y-374056D02*
X38960Y-374056D01*
X38960Y-372080D02*
X21040Y-372080D01*
X21040Y-370104D02*
X38960Y-370104D01*
X38960Y-368128D02*
X21040Y-368128D01*
X38960Y-341960D02*
X38960Y-328040D01*
X38960Y-341960D02*
X21040Y-341960D01*
X21040Y-328040D01*
X38960Y-328040D01*
X38960Y-339984D02*
X21040Y-339984D01*
X21040Y-338008D02*
X38960Y-338008D01*
X38960Y-336032D02*
X21040Y-336032D01*
X21040Y-334056D02*
X38960Y-334056D01*
X38960Y-332080D02*
X21040Y-332080D01*
X21040Y-330104D02*
X38960Y-330104D01*
X38960Y-328128D02*
X21040Y-328128D01*
X-71040Y-403040D02*
X-71040Y-416960D01*
X-88960Y-416960D01*
X-88960Y-403040D01*
X-71040Y-403040D01*
X-71040Y-414984D02*
X-88960Y-414984D01*
X-88960Y-413008D02*
X-71040Y-413008D01*
X-71040Y-411032D02*
X-88960Y-411032D01*
X-88960Y-409056D02*
X-71040Y-409056D01*
X-71040Y-407080D02*
X-88960Y-407080D01*
X-88960Y-405104D02*
X-71040Y-405104D01*
X-71040Y-403128D02*
X-88960Y-403128D01*
X-71040Y-376960D02*
X-71040Y-363040D01*
X-71040Y-376960D02*
X-88960Y-376960D01*
X-88960Y-363040D01*
X-71040Y-363040D01*
X-71040Y-374984D02*
X-88960Y-374984D01*
X-88960Y-373008D02*
X-71040Y-373008D01*
X-71040Y-371032D02*
X-88960Y-371032D01*
X-88960Y-369056D02*
X-71040Y-369056D01*
X-71040Y-367080D02*
X-88960Y-367080D01*
X-88960Y-365104D02*
X-71040Y-365104D01*
X-71040Y-363128D02*
X-88960Y-363128D01*
D15*
X140000Y-288000D02*
X140000Y-279000D01*
X140000Y-288000D02*
X132000Y-288000D01*
X132000Y-279000D01*
X140000Y-279000D01*
X140000Y-286100D02*
X132000Y-286100D01*
X132000Y-284200D02*
X140000Y-284200D01*
X140000Y-282300D02*
X132000Y-282300D01*
X132000Y-280400D02*
X140000Y-280400D01*
X140000Y-271000D02*
X140000Y-262000D01*
X140000Y-271000D02*
X132000Y-271000D01*
X132000Y-262000D01*
X140000Y-262000D01*
X140000Y-269100D02*
X132000Y-269100D01*
X132000Y-267200D02*
X140000Y-267200D01*
X140000Y-265300D02*
X132000Y-265300D01*
X132000Y-263400D02*
X140000Y-263400D01*
X31000Y-254000D02*
X22000Y-254000D01*
X31000Y-254000D02*
X31000Y-262000D01*
X22000Y-262000D01*
X22000Y-254000D01*
X22000Y-260100D02*
X31000Y-260100D01*
X31000Y-258200D02*
X22000Y-258200D01*
X22000Y-256300D02*
X31000Y-256300D01*
X31000Y-254400D02*
X22000Y-254400D01*
X14000Y-254000D02*
X5000Y-254000D01*
X14000Y-254000D02*
X14000Y-262000D01*
X5000Y-262000D01*
X5000Y-254000D01*
X5000Y-260100D02*
X14000Y-260100D01*
X14000Y-258200D02*
X5000Y-258200D01*
X5000Y-256300D02*
X14000Y-256300D01*
X14000Y-254400D02*
X5000Y-254400D01*
X-129000Y-259000D02*
X-138000Y-259000D01*
X-138000Y-251000D01*
X-129000Y-251000D01*
X-129000Y-259000D01*
X-129000Y-257100D02*
X-138000Y-257100D01*
X-138000Y-255200D02*
X-129000Y-255200D01*
X-129000Y-253300D02*
X-138000Y-253300D01*
X-138000Y-251400D02*
X-129000Y-251400D01*
X-121000Y-259000D02*
X-112000Y-259000D01*
X-121000Y-259000D02*
X-121000Y-251000D01*
X-112000Y-251000D01*
X-112000Y-259000D01*
X-112000Y-257100D02*
X-121000Y-257100D01*
X-121000Y-255200D02*
X-112000Y-255200D01*
X-112000Y-253300D02*
X-121000Y-253300D01*
X-121000Y-251400D02*
X-112000Y-251400D01*
D11*
X383990Y-130510D02*
X400010Y-130510D01*
X383990Y-130510D02*
X383990Y-123490D01*
X400010Y-123490D01*
X400010Y-130510D01*
X400010Y-128629D02*
X383990Y-128629D01*
X383990Y-126748D02*
X400010Y-126748D01*
X400010Y-124867D02*
X383990Y-124867D01*
X383990Y-105110D02*
X400010Y-105110D01*
X383990Y-105110D02*
X383990Y-98090D01*
X400010Y-98090D01*
X400010Y-105110D01*
X400010Y-103229D02*
X383990Y-103229D01*
X383990Y-101348D02*
X400010Y-101348D01*
X400010Y-99467D02*
X383990Y-99467D01*
X383990Y-79710D02*
X400010Y-79710D01*
X383990Y-79710D02*
X383990Y-72690D01*
X400010Y-72690D01*
X400010Y-79710D01*
X400010Y-77829D02*
X383990Y-77829D01*
X383990Y-75948D02*
X400010Y-75948D01*
X400010Y-74067D02*
X383990Y-74067D01*
X383990Y-54310D02*
X400010Y-54310D01*
X383990Y-54310D02*
X383990Y-47290D01*
X400010Y-47290D01*
X400010Y-54310D01*
X400010Y-52429D02*
X383990Y-52429D01*
X383990Y-50548D02*
X400010Y-50548D01*
X400010Y-48667D02*
X383990Y-48667D01*
X383990Y-28910D02*
X400010Y-28910D01*
X383990Y-28910D02*
X383990Y-21890D01*
X400010Y-21890D01*
X400010Y-28910D01*
X400010Y-27029D02*
X383990Y-27029D01*
X383990Y-25148D02*
X400010Y-25148D01*
X400010Y-23267D02*
X383990Y-23267D01*
X383990Y-3510D02*
X400010Y-3510D01*
X383990Y-3510D02*
X383990Y3510D01*
X400010Y3510D01*
X400010Y-3510D01*
X400010Y-1629D02*
X383990Y-1629D01*
X383990Y252D02*
X400010Y252D01*
X400010Y2133D02*
X383990Y2133D01*
X383990Y21890D02*
X400010Y21890D01*
X383990Y21890D02*
X383990Y28910D01*
X400010Y28910D01*
X400010Y21890D01*
X400010Y23771D02*
X383990Y23771D01*
X383990Y25652D02*
X400010Y25652D01*
X400010Y27533D02*
X383990Y27533D01*
X383990Y47290D02*
X400010Y47290D01*
X383990Y47290D02*
X383990Y54310D01*
X400010Y54310D01*
X400010Y47290D01*
X400010Y49171D02*
X383990Y49171D01*
X383990Y51052D02*
X400010Y51052D01*
X400010Y52933D02*
X383990Y52933D01*
X383990Y72690D02*
X400010Y72690D01*
X383990Y72690D02*
X383990Y79710D01*
X400010Y79710D01*
X400010Y72690D01*
X400010Y74571D02*
X383990Y74571D01*
X383990Y76452D02*
X400010Y76452D01*
X400010Y78333D02*
X383990Y78333D01*
X383990Y98090D02*
X400010Y98090D01*
X383990Y98090D02*
X383990Y105110D01*
X400010Y105110D01*
X400010Y98090D01*
X400010Y99971D02*
X383990Y99971D01*
X383990Y101852D02*
X400010Y101852D01*
X400010Y103733D02*
X383990Y103733D01*
X383990Y123490D02*
X400010Y123490D01*
X383990Y123490D02*
X383990Y130510D01*
X400010Y130510D01*
X400010Y123490D01*
X400010Y125371D02*
X383990Y125371D01*
X383990Y127252D02*
X400010Y127252D01*
X400010Y129133D02*
X383990Y129133D01*
X336010Y123490D02*
X319990Y123490D01*
X319990Y130510D01*
X336010Y130510D01*
X336010Y123490D01*
X336010Y125371D02*
X319990Y125371D01*
X319990Y127252D02*
X336010Y127252D01*
X336010Y129133D02*
X319990Y129133D01*
X319990Y98090D02*
X336010Y98090D01*
X319990Y98090D02*
X319990Y105110D01*
X336010Y105110D01*
X336010Y98090D01*
X336010Y99971D02*
X319990Y99971D01*
X319990Y101852D02*
X336010Y101852D01*
X336010Y103733D02*
X319990Y103733D01*
X319990Y72690D02*
X336010Y72690D01*
X319990Y72690D02*
X319990Y79710D01*
X336010Y79710D01*
X336010Y72690D01*
X336010Y74571D02*
X319990Y74571D01*
X319990Y76452D02*
X336010Y76452D01*
X336010Y78333D02*
X319990Y78333D01*
X319990Y47290D02*
X336010Y47290D01*
X319990Y47290D02*
X319990Y54310D01*
X336010Y54310D01*
X336010Y47290D01*
X336010Y49171D02*
X319990Y49171D01*
X319990Y51052D02*
X336010Y51052D01*
X336010Y52933D02*
X319990Y52933D01*
X319990Y21890D02*
X336010Y21890D01*
X319990Y21890D02*
X319990Y28910D01*
X336010Y28910D01*
X336010Y21890D01*
X336010Y23771D02*
X319990Y23771D01*
X319990Y25652D02*
X336010Y25652D01*
X336010Y27533D02*
X319990Y27533D01*
X319990Y-3510D02*
X336010Y-3510D01*
X319990Y-3510D02*
X319990Y3510D01*
X336010Y3510D01*
X336010Y-3510D01*
X336010Y-1629D02*
X319990Y-1629D01*
X319990Y252D02*
X336010Y252D01*
X336010Y2133D02*
X319990Y2133D01*
X319990Y-28910D02*
X336010Y-28910D01*
X319990Y-28910D02*
X319990Y-21890D01*
X336010Y-21890D01*
X336010Y-28910D01*
X336010Y-27029D02*
X319990Y-27029D01*
X319990Y-25148D02*
X336010Y-25148D01*
X336010Y-23267D02*
X319990Y-23267D01*
X319990Y-54310D02*
X336010Y-54310D01*
X319990Y-54310D02*
X319990Y-47290D01*
X336010Y-47290D01*
X336010Y-54310D01*
X336010Y-52429D02*
X319990Y-52429D01*
X319990Y-50548D02*
X336010Y-50548D01*
X336010Y-48667D02*
X319990Y-48667D01*
X319990Y-79710D02*
X336010Y-79710D01*
X319990Y-79710D02*
X319990Y-72690D01*
X336010Y-72690D01*
X336010Y-79710D01*
X336010Y-77829D02*
X319990Y-77829D01*
X319990Y-75948D02*
X336010Y-75948D01*
X336010Y-74067D02*
X319990Y-74067D01*
X319990Y-105110D02*
X336010Y-105110D01*
X319990Y-105110D02*
X319990Y-98090D01*
X336010Y-98090D01*
X336010Y-105110D01*
X336010Y-103229D02*
X319990Y-103229D01*
X319990Y-101348D02*
X336010Y-101348D01*
X336010Y-99467D02*
X319990Y-99467D01*
X319990Y-130510D02*
X336010Y-130510D01*
X319990Y-130510D02*
X319990Y-123490D01*
X336010Y-123490D01*
X336010Y-130510D01*
X336010Y-128629D02*
X319990Y-128629D01*
X319990Y-126748D02*
X336010Y-126748D01*
X336010Y-124867D02*
X319990Y-124867D01*
X383990Y-490510D02*
X400010Y-490510D01*
X383990Y-490510D02*
X383990Y-483490D01*
X400010Y-483490D01*
X400010Y-490510D01*
X400010Y-488629D02*
X383990Y-488629D01*
X383990Y-486748D02*
X400010Y-486748D01*
X400010Y-484867D02*
X383990Y-484867D01*
X383990Y-465110D02*
X400010Y-465110D01*
X383990Y-465110D02*
X383990Y-458090D01*
X400010Y-458090D01*
X400010Y-465110D01*
X400010Y-463229D02*
X383990Y-463229D01*
X383990Y-461348D02*
X400010Y-461348D01*
X400010Y-459467D02*
X383990Y-459467D01*
X383990Y-439710D02*
X400010Y-439710D01*
X383990Y-439710D02*
X383990Y-432690D01*
X400010Y-432690D01*
X400010Y-439710D01*
X400010Y-437829D02*
X383990Y-437829D01*
X383990Y-435948D02*
X400010Y-435948D01*
X400010Y-434067D02*
X383990Y-434067D01*
X383990Y-414310D02*
X400010Y-414310D01*
X383990Y-414310D02*
X383990Y-407290D01*
X400010Y-407290D01*
X400010Y-414310D01*
X400010Y-412429D02*
X383990Y-412429D01*
X383990Y-410548D02*
X400010Y-410548D01*
X400010Y-408667D02*
X383990Y-408667D01*
X383990Y-388910D02*
X400010Y-388910D01*
X383990Y-388910D02*
X383990Y-381890D01*
X400010Y-381890D01*
X400010Y-388910D01*
X400010Y-387029D02*
X383990Y-387029D01*
X383990Y-385148D02*
X400010Y-385148D01*
X400010Y-383267D02*
X383990Y-383267D01*
X383990Y-363510D02*
X400010Y-363510D01*
X383990Y-363510D02*
X383990Y-356490D01*
X400010Y-356490D01*
X400010Y-363510D01*
X400010Y-361629D02*
X383990Y-361629D01*
X383990Y-359748D02*
X400010Y-359748D01*
X400010Y-357867D02*
X383990Y-357867D01*
X383990Y-338110D02*
X400010Y-338110D01*
X383990Y-338110D02*
X383990Y-331090D01*
X400010Y-331090D01*
X400010Y-338110D01*
X400010Y-336229D02*
X383990Y-336229D01*
X383990Y-334348D02*
X400010Y-334348D01*
X400010Y-332467D02*
X383990Y-332467D01*
X383990Y-312710D02*
X400010Y-312710D01*
X383990Y-312710D02*
X383990Y-305690D01*
X400010Y-305690D01*
X400010Y-312710D01*
X400010Y-310829D02*
X383990Y-310829D01*
X383990Y-308948D02*
X400010Y-308948D01*
X400010Y-307067D02*
X383990Y-307067D01*
X383990Y-287310D02*
X400010Y-287310D01*
X383990Y-287310D02*
X383990Y-280290D01*
X400010Y-280290D01*
X400010Y-287310D01*
X400010Y-285429D02*
X383990Y-285429D01*
X383990Y-283548D02*
X400010Y-283548D01*
X400010Y-281667D02*
X383990Y-281667D01*
X383990Y-261910D02*
X400010Y-261910D01*
X383990Y-261910D02*
X383990Y-254890D01*
X400010Y-254890D01*
X400010Y-261910D01*
X400010Y-260029D02*
X383990Y-260029D01*
X383990Y-258148D02*
X400010Y-258148D01*
X400010Y-256267D02*
X383990Y-256267D01*
X383990Y-236510D02*
X400010Y-236510D01*
X383990Y-236510D02*
X383990Y-229490D01*
X400010Y-229490D01*
X400010Y-236510D01*
X400010Y-234629D02*
X383990Y-234629D01*
X383990Y-232748D02*
X400010Y-232748D01*
X400010Y-230867D02*
X383990Y-230867D01*
X336010Y-236510D02*
X319990Y-236510D01*
X319990Y-229490D01*
X336010Y-229490D01*
X336010Y-236510D01*
X336010Y-234629D02*
X319990Y-234629D01*
X319990Y-232748D02*
X336010Y-232748D01*
X336010Y-230867D02*
X319990Y-230867D01*
X319990Y-261910D02*
X336010Y-261910D01*
X319990Y-261910D02*
X319990Y-254890D01*
X336010Y-254890D01*
X336010Y-261910D01*
X336010Y-260029D02*
X319990Y-260029D01*
X319990Y-258148D02*
X336010Y-258148D01*
X336010Y-256267D02*
X319990Y-256267D01*
X319990Y-287310D02*
X336010Y-287310D01*
X319990Y-287310D02*
X319990Y-280290D01*
X336010Y-280290D01*
X336010Y-287310D01*
X336010Y-285429D02*
X319990Y-285429D01*
X319990Y-283548D02*
X336010Y-283548D01*
X336010Y-281667D02*
X319990Y-281667D01*
X319990Y-312710D02*
X336010Y-312710D01*
X319990Y-312710D02*
X319990Y-305690D01*
X336010Y-305690D01*
X336010Y-312710D01*
X336010Y-310829D02*
X319990Y-310829D01*
X319990Y-308948D02*
X336010Y-308948D01*
X336010Y-307067D02*
X319990Y-307067D01*
X319990Y-338110D02*
X336010Y-338110D01*
X319990Y-338110D02*
X319990Y-331090D01*
X336010Y-331090D01*
X336010Y-338110D01*
X336010Y-336229D02*
X319990Y-336229D01*
X319990Y-334348D02*
X336010Y-334348D01*
X336010Y-332467D02*
X319990Y-332467D01*
X319990Y-363510D02*
X336010Y-363510D01*
X319990Y-363510D02*
X319990Y-356490D01*
X336010Y-356490D01*
X336010Y-363510D01*
X336010Y-361629D02*
X319990Y-361629D01*
X319990Y-359748D02*
X336010Y-359748D01*
X336010Y-357867D02*
X319990Y-357867D01*
X319990Y-388910D02*
X336010Y-388910D01*
X319990Y-388910D02*
X319990Y-381890D01*
X336010Y-381890D01*
X336010Y-388910D01*
X336010Y-387029D02*
X319990Y-387029D01*
X319990Y-385148D02*
X336010Y-385148D01*
X336010Y-383267D02*
X319990Y-383267D01*
X319990Y-414310D02*
X336010Y-414310D01*
X319990Y-414310D02*
X319990Y-407290D01*
X336010Y-407290D01*
X336010Y-414310D01*
X336010Y-412429D02*
X319990Y-412429D01*
X319990Y-410548D02*
X336010Y-410548D01*
X336010Y-408667D02*
X319990Y-408667D01*
X319990Y-439710D02*
X336010Y-439710D01*
X319990Y-439710D02*
X319990Y-432690D01*
X336010Y-432690D01*
X336010Y-439710D01*
X336010Y-437829D02*
X319990Y-437829D01*
X319990Y-435948D02*
X336010Y-435948D01*
X336010Y-434067D02*
X319990Y-434067D01*
X319990Y-465110D02*
X336010Y-465110D01*
X319990Y-465110D02*
X319990Y-458090D01*
X336010Y-458090D01*
X336010Y-465110D01*
X336010Y-463229D02*
X319990Y-463229D01*
X319990Y-461348D02*
X336010Y-461348D01*
X336010Y-459467D02*
X319990Y-459467D01*
X319990Y-490510D02*
X336010Y-490510D01*
X319990Y-490510D02*
X319990Y-483490D01*
X336010Y-483490D01*
X336010Y-490510D01*
X336010Y-488629D02*
X319990Y-488629D01*
X319990Y-486748D02*
X336010Y-486748D01*
X336010Y-484867D02*
X319990Y-484867D01*
X-383990Y-229490D02*
X-400010Y-229490D01*
X-383990Y-229490D02*
X-383990Y-236510D01*
X-400010Y-236510D01*
X-400010Y-229490D01*
X-400010Y-234629D02*
X-383990Y-234629D01*
X-383990Y-232748D02*
X-400010Y-232748D01*
X-400010Y-230867D02*
X-383990Y-230867D01*
X-383990Y-254890D02*
X-400010Y-254890D01*
X-383990Y-254890D02*
X-383990Y-261910D01*
X-400010Y-261910D01*
X-400010Y-254890D01*
X-400010Y-260029D02*
X-383990Y-260029D01*
X-383990Y-258148D02*
X-400010Y-258148D01*
X-400010Y-256267D02*
X-383990Y-256267D01*
X-383990Y-280290D02*
X-400010Y-280290D01*
X-383990Y-280290D02*
X-383990Y-287310D01*
X-400010Y-287310D01*
X-400010Y-280290D01*
X-400010Y-285429D02*
X-383990Y-285429D01*
X-383990Y-283548D02*
X-400010Y-283548D01*
X-400010Y-281667D02*
X-383990Y-281667D01*
X-383990Y-305690D02*
X-400010Y-305690D01*
X-383990Y-305690D02*
X-383990Y-312710D01*
X-400010Y-312710D01*
X-400010Y-305690D01*
X-400010Y-310829D02*
X-383990Y-310829D01*
X-383990Y-308948D02*
X-400010Y-308948D01*
X-400010Y-307067D02*
X-383990Y-307067D01*
X-383990Y-331090D02*
X-400010Y-331090D01*
X-383990Y-331090D02*
X-383990Y-338110D01*
X-400010Y-338110D01*
X-400010Y-331090D01*
X-400010Y-336229D02*
X-383990Y-336229D01*
X-383990Y-334348D02*
X-400010Y-334348D01*
X-400010Y-332467D02*
X-383990Y-332467D01*
X-383990Y-356490D02*
X-400010Y-356490D01*
X-383990Y-356490D02*
X-383990Y-363510D01*
X-400010Y-363510D01*
X-400010Y-356490D01*
X-400010Y-361629D02*
X-383990Y-361629D01*
X-383990Y-359748D02*
X-400010Y-359748D01*
X-400010Y-357867D02*
X-383990Y-357867D01*
X-383990Y-381890D02*
X-400010Y-381890D01*
X-383990Y-381890D02*
X-383990Y-388910D01*
X-400010Y-388910D01*
X-400010Y-381890D01*
X-400010Y-387029D02*
X-383990Y-387029D01*
X-383990Y-385148D02*
X-400010Y-385148D01*
X-400010Y-383267D02*
X-383990Y-383267D01*
X-383990Y-407290D02*
X-400010Y-407290D01*
X-383990Y-407290D02*
X-383990Y-414310D01*
X-400010Y-414310D01*
X-400010Y-407290D01*
X-400010Y-412429D02*
X-383990Y-412429D01*
X-383990Y-410548D02*
X-400010Y-410548D01*
X-400010Y-408667D02*
X-383990Y-408667D01*
X-383990Y-432690D02*
X-400010Y-432690D01*
X-383990Y-432690D02*
X-383990Y-439710D01*
X-400010Y-439710D01*
X-400010Y-432690D01*
X-400010Y-437829D02*
X-383990Y-437829D01*
X-383990Y-435948D02*
X-400010Y-435948D01*
X-400010Y-434067D02*
X-383990Y-434067D01*
X-383990Y-458090D02*
X-400010Y-458090D01*
X-383990Y-458090D02*
X-383990Y-465110D01*
X-400010Y-465110D01*
X-400010Y-458090D01*
X-400010Y-463229D02*
X-383990Y-463229D01*
X-383990Y-461348D02*
X-400010Y-461348D01*
X-400010Y-459467D02*
X-383990Y-459467D01*
X-383990Y-483490D02*
X-400010Y-483490D01*
X-383990Y-483490D02*
X-383990Y-490510D01*
X-400010Y-490510D01*
X-400010Y-483490D01*
X-400010Y-488629D02*
X-383990Y-488629D01*
X-383990Y-486748D02*
X-400010Y-486748D01*
X-400010Y-484867D02*
X-383990Y-484867D01*
X-336010Y-483490D02*
X-319990Y-483490D01*
X-319990Y-490510D01*
X-336010Y-490510D01*
X-336010Y-483490D01*
X-336010Y-488629D02*
X-319990Y-488629D01*
X-319990Y-486748D02*
X-336010Y-486748D01*
X-336010Y-484867D02*
X-319990Y-484867D01*
X-319990Y-458090D02*
X-336010Y-458090D01*
X-319990Y-458090D02*
X-319990Y-465110D01*
X-336010Y-465110D01*
X-336010Y-458090D01*
X-336010Y-463229D02*
X-319990Y-463229D01*
X-319990Y-461348D02*
X-336010Y-461348D01*
X-336010Y-459467D02*
X-319990Y-459467D01*
X-319990Y-432690D02*
X-336010Y-432690D01*
X-319990Y-432690D02*
X-319990Y-439710D01*
X-336010Y-439710D01*
X-336010Y-432690D01*
X-336010Y-437829D02*
X-319990Y-437829D01*
X-319990Y-435948D02*
X-336010Y-435948D01*
X-336010Y-434067D02*
X-319990Y-434067D01*
X-319990Y-407290D02*
X-336010Y-407290D01*
X-319990Y-407290D02*
X-319990Y-414310D01*
X-336010Y-414310D01*
X-336010Y-407290D01*
X-336010Y-412429D02*
X-319990Y-412429D01*
X-319990Y-410548D02*
X-336010Y-410548D01*
X-336010Y-408667D02*
X-319990Y-408667D01*
X-319990Y-381890D02*
X-336010Y-381890D01*
X-319990Y-381890D02*
X-319990Y-388910D01*
X-336010Y-388910D01*
X-336010Y-381890D01*
X-336010Y-387029D02*
X-319990Y-387029D01*
X-319990Y-385148D02*
X-336010Y-385148D01*
X-336010Y-383267D02*
X-319990Y-383267D01*
X-319990Y-356490D02*
X-336010Y-356490D01*
X-319990Y-356490D02*
X-319990Y-363510D01*
X-336010Y-363510D01*
X-336010Y-356490D01*
X-336010Y-361629D02*
X-319990Y-361629D01*
X-319990Y-359748D02*
X-336010Y-359748D01*
X-336010Y-357867D02*
X-319990Y-357867D01*
X-319990Y-331090D02*
X-336010Y-331090D01*
X-319990Y-331090D02*
X-319990Y-338110D01*
X-336010Y-338110D01*
X-336010Y-331090D01*
X-336010Y-336229D02*
X-319990Y-336229D01*
X-319990Y-334348D02*
X-336010Y-334348D01*
X-336010Y-332467D02*
X-319990Y-332467D01*
X-319990Y-305690D02*
X-336010Y-305690D01*
X-319990Y-305690D02*
X-319990Y-312710D01*
X-336010Y-312710D01*
X-336010Y-305690D01*
X-336010Y-310829D02*
X-319990Y-310829D01*
X-319990Y-308948D02*
X-336010Y-308948D01*
X-336010Y-307067D02*
X-319990Y-307067D01*
X-319990Y-280290D02*
X-336010Y-280290D01*
X-319990Y-280290D02*
X-319990Y-287310D01*
X-336010Y-287310D01*
X-336010Y-280290D01*
X-336010Y-285429D02*
X-319990Y-285429D01*
X-319990Y-283548D02*
X-336010Y-283548D01*
X-336010Y-281667D02*
X-319990Y-281667D01*
X-319990Y-254890D02*
X-336010Y-254890D01*
X-319990Y-254890D02*
X-319990Y-261910D01*
X-336010Y-261910D01*
X-336010Y-254890D01*
X-336010Y-260029D02*
X-319990Y-260029D01*
X-319990Y-258148D02*
X-336010Y-258148D01*
X-336010Y-256267D02*
X-319990Y-256267D01*
X-319990Y-229490D02*
X-336010Y-229490D01*
X-319990Y-229490D02*
X-319990Y-236510D01*
X-336010Y-236510D01*
X-336010Y-229490D01*
X-336010Y-234629D02*
X-319990Y-234629D01*
X-319990Y-232748D02*
X-336010Y-232748D01*
X-336010Y-230867D02*
X-319990Y-230867D01*
X-383990Y130510D02*
X-400010Y130510D01*
X-383990Y130510D02*
X-383990Y123490D01*
X-400010Y123490D01*
X-400010Y130510D01*
X-400010Y125371D02*
X-383990Y125371D01*
X-383990Y127252D02*
X-400010Y127252D01*
X-400010Y129133D02*
X-383990Y129133D01*
X-383990Y105110D02*
X-400010Y105110D01*
X-383990Y105110D02*
X-383990Y98090D01*
X-400010Y98090D01*
X-400010Y105110D01*
X-400010Y99971D02*
X-383990Y99971D01*
X-383990Y101852D02*
X-400010Y101852D01*
X-400010Y103733D02*
X-383990Y103733D01*
X-383990Y79710D02*
X-400010Y79710D01*
X-383990Y79710D02*
X-383990Y72690D01*
X-400010Y72690D01*
X-400010Y79710D01*
X-400010Y74571D02*
X-383990Y74571D01*
X-383990Y76452D02*
X-400010Y76452D01*
X-400010Y78333D02*
X-383990Y78333D01*
X-383990Y54310D02*
X-400010Y54310D01*
X-383990Y54310D02*
X-383990Y47290D01*
X-400010Y47290D01*
X-400010Y54310D01*
X-400010Y49171D02*
X-383990Y49171D01*
X-383990Y51052D02*
X-400010Y51052D01*
X-400010Y52933D02*
X-383990Y52933D01*
X-383990Y28910D02*
X-400010Y28910D01*
X-383990Y28910D02*
X-383990Y21890D01*
X-400010Y21890D01*
X-400010Y28910D01*
X-400010Y23771D02*
X-383990Y23771D01*
X-383990Y25652D02*
X-400010Y25652D01*
X-400010Y27533D02*
X-383990Y27533D01*
X-383990Y3510D02*
X-400010Y3510D01*
X-383990Y3510D02*
X-383990Y-3510D01*
X-400010Y-3510D01*
X-400010Y3510D01*
X-400010Y-1629D02*
X-383990Y-1629D01*
X-383990Y252D02*
X-400010Y252D01*
X-400010Y2133D02*
X-383990Y2133D01*
X-383990Y-21890D02*
X-400010Y-21890D01*
X-383990Y-21890D02*
X-383990Y-28910D01*
X-400010Y-28910D01*
X-400010Y-21890D01*
X-400010Y-27029D02*
X-383990Y-27029D01*
X-383990Y-25148D02*
X-400010Y-25148D01*
X-400010Y-23267D02*
X-383990Y-23267D01*
X-383990Y-47290D02*
X-400010Y-47290D01*
X-383990Y-47290D02*
X-383990Y-54310D01*
X-400010Y-54310D01*
X-400010Y-47290D01*
X-400010Y-52429D02*
X-383990Y-52429D01*
X-383990Y-50548D02*
X-400010Y-50548D01*
X-400010Y-48667D02*
X-383990Y-48667D01*
X-383990Y-72690D02*
X-400010Y-72690D01*
X-383990Y-72690D02*
X-383990Y-79710D01*
X-400010Y-79710D01*
X-400010Y-72690D01*
X-400010Y-77829D02*
X-383990Y-77829D01*
X-383990Y-75948D02*
X-400010Y-75948D01*
X-400010Y-74067D02*
X-383990Y-74067D01*
X-383990Y-98090D02*
X-400010Y-98090D01*
X-383990Y-98090D02*
X-383990Y-105110D01*
X-400010Y-105110D01*
X-400010Y-98090D01*
X-400010Y-103229D02*
X-383990Y-103229D01*
X-383990Y-101348D02*
X-400010Y-101348D01*
X-400010Y-99467D02*
X-383990Y-99467D01*
X-383990Y-123490D02*
X-400010Y-123490D01*
X-383990Y-123490D02*
X-383990Y-130510D01*
X-400010Y-130510D01*
X-400010Y-123490D01*
X-400010Y-128629D02*
X-383990Y-128629D01*
X-383990Y-126748D02*
X-400010Y-126748D01*
X-400010Y-124867D02*
X-383990Y-124867D01*
X-336010Y-123490D02*
X-319990Y-123490D01*
X-319990Y-130510D01*
X-336010Y-130510D01*
X-336010Y-123490D01*
X-336010Y-128629D02*
X-319990Y-128629D01*
X-319990Y-126748D02*
X-336010Y-126748D01*
X-336010Y-124867D02*
X-319990Y-124867D01*
X-319990Y-98090D02*
X-336010Y-98090D01*
X-319990Y-98090D02*
X-319990Y-105110D01*
X-336010Y-105110D01*
X-336010Y-98090D01*
X-336010Y-103229D02*
X-319990Y-103229D01*
X-319990Y-101348D02*
X-336010Y-101348D01*
X-336010Y-99467D02*
X-319990Y-99467D01*
X-319990Y-72690D02*
X-336010Y-72690D01*
X-319990Y-72690D02*
X-319990Y-79710D01*
X-336010Y-79710D01*
X-336010Y-72690D01*
X-336010Y-77829D02*
X-319990Y-77829D01*
X-319990Y-75948D02*
X-336010Y-75948D01*
X-336010Y-74067D02*
X-319990Y-74067D01*
X-319990Y-47290D02*
X-336010Y-47290D01*
X-319990Y-47290D02*
X-319990Y-54310D01*
X-336010Y-54310D01*
X-336010Y-47290D01*
X-336010Y-52429D02*
X-319990Y-52429D01*
X-319990Y-50548D02*
X-336010Y-50548D01*
X-336010Y-48667D02*
X-319990Y-48667D01*
X-319990Y-21890D02*
X-336010Y-21890D01*
X-319990Y-21890D02*
X-319990Y-28910D01*
X-336010Y-28910D01*
X-336010Y-21890D01*
X-336010Y-27029D02*
X-319990Y-27029D01*
X-319990Y-25148D02*
X-336010Y-25148D01*
X-336010Y-23267D02*
X-319990Y-23267D01*
X-319990Y3510D02*
X-336010Y3510D01*
X-319990Y3510D02*
X-319990Y-3510D01*
X-336010Y-3510D01*
X-336010Y3510D01*
X-336010Y-1629D02*
X-319990Y-1629D01*
X-319990Y252D02*
X-336010Y252D01*
X-336010Y2133D02*
X-319990Y2133D01*
X-319990Y28910D02*
X-336010Y28910D01*
X-319990Y28910D02*
X-319990Y21890D01*
X-336010Y21890D01*
X-336010Y28910D01*
X-336010Y23771D02*
X-319990Y23771D01*
X-319990Y25652D02*
X-336010Y25652D01*
X-336010Y27533D02*
X-319990Y27533D01*
X-319990Y54310D02*
X-336010Y54310D01*
X-319990Y54310D02*
X-319990Y47290D01*
X-336010Y47290D01*
X-336010Y54310D01*
X-336010Y49171D02*
X-319990Y49171D01*
X-319990Y51052D02*
X-336010Y51052D01*
X-336010Y52933D02*
X-319990Y52933D01*
X-319990Y79710D02*
X-336010Y79710D01*
X-319990Y79710D02*
X-319990Y72690D01*
X-336010Y72690D01*
X-336010Y79710D01*
X-336010Y74571D02*
X-319990Y74571D01*
X-319990Y76452D02*
X-336010Y76452D01*
X-336010Y78333D02*
X-319990Y78333D01*
X-319990Y105110D02*
X-336010Y105110D01*
X-319990Y105110D02*
X-319990Y98090D01*
X-336010Y98090D01*
X-336010Y105110D01*
X-336010Y99971D02*
X-319990Y99971D01*
X-319990Y101852D02*
X-336010Y101852D01*
X-336010Y103733D02*
X-319990Y103733D01*
X-319990Y130510D02*
X-336010Y130510D01*
X-319990Y130510D02*
X-319990Y123490D01*
X-336010Y123490D01*
X-336010Y130510D01*
X-336010Y125371D02*
X-319990Y125371D01*
X-319990Y127252D02*
X-336010Y127252D01*
X-336010Y129133D02*
X-319990Y129133D01*
X-383990Y490510D02*
X-400010Y490510D01*
X-383990Y490510D02*
X-383990Y483490D01*
X-400010Y483490D01*
X-400010Y490510D01*
X-400010Y485371D02*
X-383990Y485371D01*
X-383990Y487252D02*
X-400010Y487252D01*
X-400010Y489133D02*
X-383990Y489133D01*
X-383990Y465110D02*
X-400010Y465110D01*
X-383990Y465110D02*
X-383990Y458090D01*
X-400010Y458090D01*
X-400010Y465110D01*
X-400010Y459971D02*
X-383990Y459971D01*
X-383990Y461852D02*
X-400010Y461852D01*
X-400010Y463733D02*
X-383990Y463733D01*
X-383990Y439710D02*
X-400010Y439710D01*
X-383990Y439710D02*
X-383990Y432690D01*
X-400010Y432690D01*
X-400010Y439710D01*
X-400010Y434571D02*
X-383990Y434571D01*
X-383990Y436452D02*
X-400010Y436452D01*
X-400010Y438333D02*
X-383990Y438333D01*
X-383990Y414310D02*
X-400010Y414310D01*
X-383990Y414310D02*
X-383990Y407290D01*
X-400010Y407290D01*
X-400010Y414310D01*
X-400010Y409171D02*
X-383990Y409171D01*
X-383990Y411052D02*
X-400010Y411052D01*
X-400010Y412933D02*
X-383990Y412933D01*
X-383990Y388910D02*
X-400010Y388910D01*
X-383990Y388910D02*
X-383990Y381890D01*
X-400010Y381890D01*
X-400010Y388910D01*
X-400010Y383771D02*
X-383990Y383771D01*
X-383990Y385652D02*
X-400010Y385652D01*
X-400010Y387533D02*
X-383990Y387533D01*
X-383990Y363510D02*
X-400010Y363510D01*
X-383990Y363510D02*
X-383990Y356490D01*
X-400010Y356490D01*
X-400010Y363510D01*
X-400010Y358371D02*
X-383990Y358371D01*
X-383990Y360252D02*
X-400010Y360252D01*
X-400010Y362133D02*
X-383990Y362133D01*
X-383990Y338110D02*
X-400010Y338110D01*
X-383990Y338110D02*
X-383990Y331090D01*
X-400010Y331090D01*
X-400010Y338110D01*
X-400010Y332971D02*
X-383990Y332971D01*
X-383990Y334852D02*
X-400010Y334852D01*
X-400010Y336733D02*
X-383990Y336733D01*
X-383990Y312710D02*
X-400010Y312710D01*
X-383990Y312710D02*
X-383990Y305690D01*
X-400010Y305690D01*
X-400010Y312710D01*
X-400010Y307571D02*
X-383990Y307571D01*
X-383990Y309452D02*
X-400010Y309452D01*
X-400010Y311333D02*
X-383990Y311333D01*
X-383990Y287310D02*
X-400010Y287310D01*
X-383990Y287310D02*
X-383990Y280290D01*
X-400010Y280290D01*
X-400010Y287310D01*
X-400010Y282171D02*
X-383990Y282171D01*
X-383990Y284052D02*
X-400010Y284052D01*
X-400010Y285933D02*
X-383990Y285933D01*
X-383990Y261910D02*
X-400010Y261910D01*
X-383990Y261910D02*
X-383990Y254890D01*
X-400010Y254890D01*
X-400010Y261910D01*
X-400010Y256771D02*
X-383990Y256771D01*
X-383990Y258652D02*
X-400010Y258652D01*
X-400010Y260533D02*
X-383990Y260533D01*
X-383990Y236510D02*
X-400010Y236510D01*
X-383990Y236510D02*
X-383990Y229490D01*
X-400010Y229490D01*
X-400010Y236510D01*
X-400010Y231371D02*
X-383990Y231371D01*
X-383990Y233252D02*
X-400010Y233252D01*
X-400010Y235133D02*
X-383990Y235133D01*
X-336010Y236510D02*
X-319990Y236510D01*
X-319990Y229490D01*
X-336010Y229490D01*
X-336010Y236510D01*
X-336010Y231371D02*
X-319990Y231371D01*
X-319990Y233252D02*
X-336010Y233252D01*
X-336010Y235133D02*
X-319990Y235133D01*
X-319990Y261910D02*
X-336010Y261910D01*
X-319990Y261910D02*
X-319990Y254890D01*
X-336010Y254890D01*
X-336010Y261910D01*
X-336010Y256771D02*
X-319990Y256771D01*
X-319990Y258652D02*
X-336010Y258652D01*
X-336010Y260533D02*
X-319990Y260533D01*
X-319990Y287310D02*
X-336010Y287310D01*
X-319990Y287310D02*
X-319990Y280290D01*
X-336010Y280290D01*
X-336010Y287310D01*
X-336010Y282171D02*
X-319990Y282171D01*
X-319990Y284052D02*
X-336010Y284052D01*
X-336010Y285933D02*
X-319990Y285933D01*
X-319990Y312710D02*
X-336010Y312710D01*
X-319990Y312710D02*
X-319990Y305690D01*
X-336010Y305690D01*
X-336010Y312710D01*
X-336010Y307571D02*
X-319990Y307571D01*
X-319990Y309452D02*
X-336010Y309452D01*
X-336010Y311333D02*
X-319990Y311333D01*
X-319990Y338110D02*
X-336010Y338110D01*
X-319990Y338110D02*
X-319990Y331090D01*
X-336010Y331090D01*
X-336010Y338110D01*
X-336010Y332971D02*
X-319990Y332971D01*
X-319990Y334852D02*
X-336010Y334852D01*
X-336010Y336733D02*
X-319990Y336733D01*
X-319990Y363510D02*
X-336010Y363510D01*
X-319990Y363510D02*
X-319990Y356490D01*
X-336010Y356490D01*
X-336010Y363510D01*
X-336010Y358371D02*
X-319990Y358371D01*
X-319990Y360252D02*
X-336010Y360252D01*
X-336010Y362133D02*
X-319990Y362133D01*
X-319990Y388910D02*
X-336010Y388910D01*
X-319990Y388910D02*
X-319990Y381890D01*
X-336010Y381890D01*
X-336010Y388910D01*
X-336010Y383771D02*
X-319990Y383771D01*
X-319990Y385652D02*
X-336010Y385652D01*
X-336010Y387533D02*
X-319990Y387533D01*
X-319990Y414310D02*
X-336010Y414310D01*
X-319990Y414310D02*
X-319990Y407290D01*
X-336010Y407290D01*
X-336010Y414310D01*
X-336010Y409171D02*
X-319990Y409171D01*
X-319990Y411052D02*
X-336010Y411052D01*
X-336010Y412933D02*
X-319990Y412933D01*
X-319990Y439710D02*
X-336010Y439710D01*
X-319990Y439710D02*
X-319990Y432690D01*
X-336010Y432690D01*
X-336010Y439710D01*
X-336010Y434571D02*
X-319990Y434571D01*
X-319990Y436452D02*
X-336010Y436452D01*
X-336010Y438333D02*
X-319990Y438333D01*
X-319990Y465110D02*
X-336010Y465110D01*
X-319990Y465110D02*
X-319990Y458090D01*
X-336010Y458090D01*
X-336010Y465110D01*
X-336010Y459971D02*
X-319990Y459971D01*
X-319990Y461852D02*
X-336010Y461852D01*
X-336010Y463733D02*
X-319990Y463733D01*
X-319990Y490510D02*
X-336010Y490510D01*
X-319990Y490510D02*
X-319990Y483490D01*
X-336010Y483490D01*
X-336010Y490510D01*
X-336010Y485371D02*
X-319990Y485371D01*
X-319990Y487252D02*
X-336010Y487252D01*
X-336010Y489133D02*
X-319990Y489133D01*
X82990Y462990D02*
X91010Y462990D01*
X82990Y462990D02*
X82990Y467010D01*
X91010Y467010D01*
X91010Y462990D01*
X91010Y464871D02*
X82990Y464871D01*
X82990Y466752D02*
X91010Y466752D01*
X104990Y462990D02*
X113010Y462990D01*
X104990Y462990D02*
X104990Y467010D01*
X113010Y467010D01*
X113010Y462990D01*
X113010Y464871D02*
X104990Y464871D01*
X104990Y466752D02*
X113010Y466752D01*
X683990Y477810D02*
X700010Y477810D01*
X700010Y470790D01*
X683990Y470790D01*
X683990Y477810D01*
X683990Y472671D02*
X700010Y472671D01*
X700010Y474552D02*
X683990Y474552D01*
X683990Y476433D02*
X700010Y476433D01*
X636010Y477810D02*
X619990Y477810D01*
X636010Y477810D02*
X636010Y470790D01*
X619990Y470790D01*
X619990Y477810D01*
X619990Y472671D02*
X636010Y472671D01*
X636010Y474552D02*
X619990Y474552D01*
X619990Y476433D02*
X636010Y476433D01*
X683990Y452410D02*
X700010Y452410D01*
X700010Y445390D01*
X683990Y445390D01*
X683990Y452410D01*
X683990Y447271D02*
X700010Y447271D01*
X700010Y449152D02*
X683990Y449152D01*
X683990Y451033D02*
X700010Y451033D01*
X636010Y452410D02*
X619990Y452410D01*
X636010Y452410D02*
X636010Y445390D01*
X619990Y445390D01*
X619990Y452410D01*
X619990Y447271D02*
X636010Y447271D01*
X636010Y449152D02*
X619990Y449152D01*
X619990Y451033D02*
X636010Y451033D01*
X683990Y427010D02*
X700010Y427010D01*
X700010Y419990D01*
X683990Y419990D01*
X683990Y427010D01*
X683990Y421871D02*
X700010Y421871D01*
X700010Y423752D02*
X683990Y423752D01*
X683990Y425633D02*
X700010Y425633D01*
X636010Y427010D02*
X619990Y427010D01*
X636010Y427010D02*
X636010Y419990D01*
X619990Y419990D01*
X619990Y427010D01*
X619990Y421871D02*
X636010Y421871D01*
X636010Y423752D02*
X619990Y423752D01*
X619990Y425633D02*
X636010Y425633D01*
X683990Y401610D02*
X700010Y401610D01*
X700010Y394590D01*
X683990Y394590D01*
X683990Y401610D01*
X683990Y396471D02*
X700010Y396471D01*
X700010Y398352D02*
X683990Y398352D01*
X683990Y400233D02*
X700010Y400233D01*
X636010Y401610D02*
X619990Y401610D01*
X636010Y401610D02*
X636010Y394590D01*
X619990Y394590D01*
X619990Y401610D01*
X619990Y396471D02*
X636010Y396471D01*
X636010Y398352D02*
X619990Y398352D01*
X619990Y400233D02*
X636010Y400233D01*
X683990Y376210D02*
X700010Y376210D01*
X700010Y369190D01*
X683990Y369190D01*
X683990Y376210D01*
X683990Y371071D02*
X700010Y371071D01*
X700010Y372952D02*
X683990Y372952D01*
X683990Y374833D02*
X700010Y374833D01*
X636010Y376210D02*
X619990Y376210D01*
X636010Y376210D02*
X636010Y369190D01*
X619990Y369190D01*
X619990Y376210D01*
X619990Y371071D02*
X636010Y371071D01*
X636010Y372952D02*
X619990Y372952D01*
X619990Y374833D02*
X636010Y374833D01*
X683990Y350810D02*
X700010Y350810D01*
X700010Y343790D01*
X683990Y343790D01*
X683990Y350810D01*
X683990Y345671D02*
X700010Y345671D01*
X700010Y347552D02*
X683990Y347552D01*
X683990Y349433D02*
X700010Y349433D01*
X636010Y350810D02*
X619990Y350810D01*
X636010Y350810D02*
X636010Y343790D01*
X619990Y343790D01*
X619990Y350810D01*
X619990Y345671D02*
X636010Y345671D01*
X636010Y347552D02*
X619990Y347552D01*
X619990Y349433D02*
X636010Y349433D01*
X683990Y325410D02*
X700010Y325410D01*
X700010Y318390D01*
X683990Y318390D01*
X683990Y325410D01*
X683990Y320271D02*
X700010Y320271D01*
X700010Y322152D02*
X683990Y322152D01*
X683990Y324033D02*
X700010Y324033D01*
X636010Y325410D02*
X619990Y325410D01*
X636010Y325410D02*
X636010Y318390D01*
X619990Y318390D01*
X619990Y325410D01*
X619990Y320271D02*
X636010Y320271D01*
X636010Y322152D02*
X619990Y322152D01*
X619990Y324033D02*
X636010Y324033D01*
X683990Y300010D02*
X700010Y300010D01*
X700010Y292990D01*
X683990Y292990D01*
X683990Y300010D01*
X683990Y294871D02*
X700010Y294871D01*
X700010Y296752D02*
X683990Y296752D01*
X683990Y298633D02*
X700010Y298633D01*
X636010Y300010D02*
X619990Y300010D01*
X636010Y300010D02*
X636010Y292990D01*
X619990Y292990D01*
X619990Y300010D01*
X619990Y294871D02*
X636010Y294871D01*
X636010Y296752D02*
X619990Y296752D01*
X619990Y298633D02*
X636010Y298633D01*
X683990Y274610D02*
X700010Y274610D01*
X700010Y267590D01*
X683990Y267590D01*
X683990Y274610D01*
X683990Y269471D02*
X700010Y269471D01*
X700010Y271352D02*
X683990Y271352D01*
X683990Y273233D02*
X700010Y273233D01*
X636010Y274610D02*
X619990Y274610D01*
X636010Y274610D02*
X636010Y267590D01*
X619990Y267590D01*
X619990Y274610D01*
X619990Y269471D02*
X636010Y269471D01*
X636010Y271352D02*
X619990Y271352D01*
X619990Y273233D02*
X636010Y273233D01*
X683990Y249210D02*
X700010Y249210D01*
X700010Y242190D01*
X683990Y242190D01*
X683990Y249210D01*
X683990Y244071D02*
X700010Y244071D01*
X700010Y245952D02*
X683990Y245952D01*
X683990Y247833D02*
X700010Y247833D01*
X636010Y249210D02*
X619990Y249210D01*
X636010Y249210D02*
X636010Y242190D01*
X619990Y242190D01*
X619990Y249210D01*
X619990Y244071D02*
X636010Y244071D01*
X636010Y245952D02*
X619990Y245952D01*
X619990Y247833D02*
X636010Y247833D01*
D12*
X-500000Y240000D02*
X-508000Y240000D01*
X-508000Y250000D01*
X-500000Y250000D01*
X-500000Y240000D01*
X-500000Y247600D02*
X-508000Y247600D01*
X-480000Y240000D02*
X-472000Y240000D01*
X-480000Y240000D02*
X-480000Y250000D01*
X-472000Y250000D01*
X-472000Y240000D01*
X-472000Y247600D02*
X-480000Y247600D01*
X-500000Y275000D02*
X-508000Y275000D01*
X-508000Y285000D01*
X-500000Y285000D01*
X-500000Y275000D01*
X-500000Y282600D02*
X-508000Y282600D01*
X-480000Y275000D02*
X-472000Y275000D01*
X-480000Y275000D02*
X-480000Y285000D01*
X-472000Y285000D01*
X-472000Y275000D01*
X-472000Y282600D02*
X-480000Y282600D01*
D11*
X683990Y-242190D02*
X700010Y-242190D01*
X700010Y-249210D01*
X683990Y-249210D01*
X683990Y-242190D01*
X683990Y-247329D02*
X700010Y-247329D01*
X700010Y-245448D02*
X683990Y-245448D01*
X683990Y-243567D02*
X700010Y-243567D01*
X636010Y-242190D02*
X619990Y-242190D01*
X636010Y-242190D02*
X636010Y-249210D01*
X619990Y-249210D01*
X619990Y-242190D01*
X619990Y-247329D02*
X636010Y-247329D01*
X636010Y-245448D02*
X619990Y-245448D01*
X619990Y-243567D02*
X636010Y-243567D01*
X683990Y-267590D02*
X700010Y-267590D01*
X700010Y-274610D01*
X683990Y-274610D01*
X683990Y-267590D01*
X683990Y-272729D02*
X700010Y-272729D01*
X700010Y-270848D02*
X683990Y-270848D01*
X683990Y-268967D02*
X700010Y-268967D01*
X636010Y-267590D02*
X619990Y-267590D01*
X636010Y-267590D02*
X636010Y-274610D01*
X619990Y-274610D01*
X619990Y-267590D01*
X619990Y-272729D02*
X636010Y-272729D01*
X636010Y-270848D02*
X619990Y-270848D01*
X619990Y-268967D02*
X636010Y-268967D01*
X683990Y-292990D02*
X700010Y-292990D01*
X700010Y-300010D01*
X683990Y-300010D01*
X683990Y-292990D01*
X683990Y-298129D02*
X700010Y-298129D01*
X700010Y-296248D02*
X683990Y-296248D01*
X683990Y-294367D02*
X700010Y-294367D01*
X636010Y-292990D02*
X619990Y-292990D01*
X636010Y-292990D02*
X636010Y-300010D01*
X619990Y-300010D01*
X619990Y-292990D01*
X619990Y-298129D02*
X636010Y-298129D01*
X636010Y-296248D02*
X619990Y-296248D01*
X619990Y-294367D02*
X636010Y-294367D01*
X683990Y-318390D02*
X700010Y-318390D01*
X700010Y-325410D01*
X683990Y-325410D01*
X683990Y-318390D01*
X683990Y-323529D02*
X700010Y-323529D01*
X700010Y-321648D02*
X683990Y-321648D01*
X683990Y-319767D02*
X700010Y-319767D01*
X636010Y-318390D02*
X619990Y-318390D01*
X636010Y-318390D02*
X636010Y-325410D01*
X619990Y-325410D01*
X619990Y-318390D01*
X619990Y-323529D02*
X636010Y-323529D01*
X636010Y-321648D02*
X619990Y-321648D01*
X619990Y-319767D02*
X636010Y-319767D01*
X683990Y-343790D02*
X700010Y-343790D01*
X700010Y-350810D01*
X683990Y-350810D01*
X683990Y-343790D01*
X683990Y-348929D02*
X700010Y-348929D01*
X700010Y-347048D02*
X683990Y-347048D01*
X683990Y-345167D02*
X700010Y-345167D01*
X636010Y-343790D02*
X619990Y-343790D01*
X636010Y-343790D02*
X636010Y-350810D01*
X619990Y-350810D01*
X619990Y-343790D01*
X619990Y-348929D02*
X636010Y-348929D01*
X636010Y-347048D02*
X619990Y-347048D01*
X619990Y-345167D02*
X636010Y-345167D01*
X683990Y-369190D02*
X700010Y-369190D01*
X700010Y-376210D01*
X683990Y-376210D01*
X683990Y-369190D01*
X683990Y-374329D02*
X700010Y-374329D01*
X700010Y-372448D02*
X683990Y-372448D01*
X683990Y-370567D02*
X700010Y-370567D01*
X636010Y-369190D02*
X619990Y-369190D01*
X636010Y-369190D02*
X636010Y-376210D01*
X619990Y-376210D01*
X619990Y-369190D01*
X619990Y-374329D02*
X636010Y-374329D01*
X636010Y-372448D02*
X619990Y-372448D01*
X619990Y-370567D02*
X636010Y-370567D01*
X683990Y-394590D02*
X700010Y-394590D01*
X700010Y-401610D01*
X683990Y-401610D01*
X683990Y-394590D01*
X683990Y-399729D02*
X700010Y-399729D01*
X700010Y-397848D02*
X683990Y-397848D01*
X683990Y-395967D02*
X700010Y-395967D01*
X636010Y-394590D02*
X619990Y-394590D01*
X636010Y-394590D02*
X636010Y-401610D01*
X619990Y-401610D01*
X619990Y-394590D01*
X619990Y-399729D02*
X636010Y-399729D01*
X636010Y-397848D02*
X619990Y-397848D01*
X619990Y-395967D02*
X636010Y-395967D01*
X683990Y-419990D02*
X700010Y-419990D01*
X700010Y-427010D01*
X683990Y-427010D01*
X683990Y-419990D01*
X683990Y-425129D02*
X700010Y-425129D01*
X700010Y-423248D02*
X683990Y-423248D01*
X683990Y-421367D02*
X700010Y-421367D01*
X636010Y-419990D02*
X619990Y-419990D01*
X636010Y-419990D02*
X636010Y-427010D01*
X619990Y-427010D01*
X619990Y-419990D01*
X619990Y-425129D02*
X636010Y-425129D01*
X636010Y-423248D02*
X619990Y-423248D01*
X619990Y-421367D02*
X636010Y-421367D01*
X683990Y-445390D02*
X700010Y-445390D01*
X700010Y-452410D01*
X683990Y-452410D01*
X683990Y-445390D01*
X683990Y-450529D02*
X700010Y-450529D01*
X700010Y-448648D02*
X683990Y-448648D01*
X683990Y-446767D02*
X700010Y-446767D01*
X636010Y-445390D02*
X619990Y-445390D01*
X636010Y-445390D02*
X636010Y-452410D01*
X619990Y-452410D01*
X619990Y-445390D01*
X619990Y-450529D02*
X636010Y-450529D01*
X636010Y-448648D02*
X619990Y-448648D01*
X619990Y-446767D02*
X636010Y-446767D01*
X683990Y-470790D02*
X700010Y-470790D01*
X700010Y-477810D01*
X683990Y-477810D01*
X683990Y-470790D01*
X683990Y-475929D02*
X700010Y-475929D01*
X700010Y-474048D02*
X683990Y-474048D01*
X683990Y-472167D02*
X700010Y-472167D01*
X636010Y-470790D02*
X619990Y-470790D01*
X636010Y-470790D02*
X636010Y-477810D01*
X619990Y-477810D01*
X619990Y-470790D01*
X619990Y-475929D02*
X636010Y-475929D01*
X636010Y-474048D02*
X619990Y-474048D01*
X619990Y-472167D02*
X636010Y-472167D01*
X-683990Y-477810D02*
X-700010Y-477810D01*
X-700010Y-470790D01*
X-683990Y-470790D01*
X-683990Y-477810D01*
X-683990Y-475929D02*
X-700010Y-475929D01*
X-700010Y-474048D02*
X-683990Y-474048D01*
X-683990Y-472167D02*
X-700010Y-472167D01*
X-636010Y-477810D02*
X-619990Y-477810D01*
X-636010Y-477810D02*
X-636010Y-470790D01*
X-619990Y-470790D01*
X-619990Y-477810D01*
X-619990Y-475929D02*
X-636010Y-475929D01*
X-636010Y-474048D02*
X-619990Y-474048D01*
X-619990Y-472167D02*
X-636010Y-472167D01*
X-683990Y-452410D02*
X-700010Y-452410D01*
X-700010Y-445390D01*
X-683990Y-445390D01*
X-683990Y-452410D01*
X-683990Y-450529D02*
X-700010Y-450529D01*
X-700010Y-448648D02*
X-683990Y-448648D01*
X-683990Y-446767D02*
X-700010Y-446767D01*
X-636010Y-452410D02*
X-619990Y-452410D01*
X-636010Y-452410D02*
X-636010Y-445390D01*
X-619990Y-445390D01*
X-619990Y-452410D01*
X-619990Y-450529D02*
X-636010Y-450529D01*
X-636010Y-448648D02*
X-619990Y-448648D01*
X-619990Y-446767D02*
X-636010Y-446767D01*
X-683990Y-427010D02*
X-700010Y-427010D01*
X-700010Y-419990D01*
X-683990Y-419990D01*
X-683990Y-427010D01*
X-683990Y-425129D02*
X-700010Y-425129D01*
X-700010Y-423248D02*
X-683990Y-423248D01*
X-683990Y-421367D02*
X-700010Y-421367D01*
X-636010Y-427010D02*
X-619990Y-427010D01*
X-636010Y-427010D02*
X-636010Y-419990D01*
X-619990Y-419990D01*
X-619990Y-427010D01*
X-619990Y-425129D02*
X-636010Y-425129D01*
X-636010Y-423248D02*
X-619990Y-423248D01*
X-619990Y-421367D02*
X-636010Y-421367D01*
X-683990Y-401610D02*
X-700010Y-401610D01*
X-700010Y-394590D01*
X-683990Y-394590D01*
X-683990Y-401610D01*
X-683990Y-399729D02*
X-700010Y-399729D01*
X-700010Y-397848D02*
X-683990Y-397848D01*
X-683990Y-395967D02*
X-700010Y-395967D01*
X-636010Y-401610D02*
X-619990Y-401610D01*
X-636010Y-401610D02*
X-636010Y-394590D01*
X-619990Y-394590D01*
X-619990Y-401610D01*
X-619990Y-399729D02*
X-636010Y-399729D01*
X-636010Y-397848D02*
X-619990Y-397848D01*
X-619990Y-395967D02*
X-636010Y-395967D01*
X-683990Y-376210D02*
X-700010Y-376210D01*
X-700010Y-369190D01*
X-683990Y-369190D01*
X-683990Y-376210D01*
X-683990Y-374329D02*
X-700010Y-374329D01*
X-700010Y-372448D02*
X-683990Y-372448D01*
X-683990Y-370567D02*
X-700010Y-370567D01*
X-636010Y-376210D02*
X-619990Y-376210D01*
X-636010Y-376210D02*
X-636010Y-369190D01*
X-619990Y-369190D01*
X-619990Y-376210D01*
X-619990Y-374329D02*
X-636010Y-374329D01*
X-636010Y-372448D02*
X-619990Y-372448D01*
X-619990Y-370567D02*
X-636010Y-370567D01*
X-683990Y-350810D02*
X-700010Y-350810D01*
X-700010Y-343790D01*
X-683990Y-343790D01*
X-683990Y-350810D01*
X-683990Y-348929D02*
X-700010Y-348929D01*
X-700010Y-347048D02*
X-683990Y-347048D01*
X-683990Y-345167D02*
X-700010Y-345167D01*
X-636010Y-350810D02*
X-619990Y-350810D01*
X-636010Y-350810D02*
X-636010Y-343790D01*
X-619990Y-343790D01*
X-619990Y-350810D01*
X-619990Y-348929D02*
X-636010Y-348929D01*
X-636010Y-347048D02*
X-619990Y-347048D01*
X-619990Y-345167D02*
X-636010Y-345167D01*
X-683990Y-325410D02*
X-700010Y-325410D01*
X-700010Y-318390D01*
X-683990Y-318390D01*
X-683990Y-325410D01*
X-683990Y-323529D02*
X-700010Y-323529D01*
X-700010Y-321648D02*
X-683990Y-321648D01*
X-683990Y-319767D02*
X-700010Y-319767D01*
X-636010Y-325410D02*
X-619990Y-325410D01*
X-636010Y-325410D02*
X-636010Y-318390D01*
X-619990Y-318390D01*
X-619990Y-325410D01*
X-619990Y-323529D02*
X-636010Y-323529D01*
X-636010Y-321648D02*
X-619990Y-321648D01*
X-619990Y-319767D02*
X-636010Y-319767D01*
X-683990Y-300010D02*
X-700010Y-300010D01*
X-700010Y-292990D01*
X-683990Y-292990D01*
X-683990Y-300010D01*
X-683990Y-298129D02*
X-700010Y-298129D01*
X-700010Y-296248D02*
X-683990Y-296248D01*
X-683990Y-294367D02*
X-700010Y-294367D01*
X-636010Y-300010D02*
X-619990Y-300010D01*
X-636010Y-300010D02*
X-636010Y-292990D01*
X-619990Y-292990D01*
X-619990Y-300010D01*
X-619990Y-298129D02*
X-636010Y-298129D01*
X-636010Y-296248D02*
X-619990Y-296248D01*
X-619990Y-294367D02*
X-636010Y-294367D01*
X-683990Y-274610D02*
X-700010Y-274610D01*
X-700010Y-267590D01*
X-683990Y-267590D01*
X-683990Y-274610D01*
X-683990Y-272729D02*
X-700010Y-272729D01*
X-700010Y-270848D02*
X-683990Y-270848D01*
X-683990Y-268967D02*
X-700010Y-268967D01*
X-636010Y-274610D02*
X-619990Y-274610D01*
X-636010Y-274610D02*
X-636010Y-267590D01*
X-619990Y-267590D01*
X-619990Y-274610D01*
X-619990Y-272729D02*
X-636010Y-272729D01*
X-636010Y-270848D02*
X-619990Y-270848D01*
X-619990Y-268967D02*
X-636010Y-268967D01*
X-683990Y-249210D02*
X-700010Y-249210D01*
X-700010Y-242190D01*
X-683990Y-242190D01*
X-683990Y-249210D01*
X-683990Y-247329D02*
X-700010Y-247329D01*
X-700010Y-245448D02*
X-683990Y-245448D01*
X-683990Y-243567D02*
X-700010Y-243567D01*
X-636010Y-249210D02*
X-619990Y-249210D01*
X-636010Y-249210D02*
X-636010Y-242190D01*
X-619990Y-242190D01*
X-619990Y-249210D01*
X-619990Y-247329D02*
X-636010Y-247329D01*
X-636010Y-245448D02*
X-619990Y-245448D01*
X-619990Y-243567D02*
X-636010Y-243567D01*
X-683990Y-117810D02*
X-700010Y-117810D01*
X-700010Y-110790D01*
X-683990Y-110790D01*
X-683990Y-117810D01*
X-683990Y-115929D02*
X-700010Y-115929D01*
X-700010Y-114048D02*
X-683990Y-114048D01*
X-683990Y-112167D02*
X-700010Y-112167D01*
X-636010Y-117810D02*
X-619990Y-117810D01*
X-636010Y-117810D02*
X-636010Y-110790D01*
X-619990Y-110790D01*
X-619990Y-117810D01*
X-619990Y-115929D02*
X-636010Y-115929D01*
X-636010Y-114048D02*
X-619990Y-114048D01*
X-619990Y-112167D02*
X-636010Y-112167D01*
X-683990Y-92410D02*
X-700010Y-92410D01*
X-700010Y-85390D01*
X-683990Y-85390D01*
X-683990Y-92410D01*
X-683990Y-90529D02*
X-700010Y-90529D01*
X-700010Y-88648D02*
X-683990Y-88648D01*
X-683990Y-86767D02*
X-700010Y-86767D01*
X-636010Y-92410D02*
X-619990Y-92410D01*
X-636010Y-92410D02*
X-636010Y-85390D01*
X-619990Y-85390D01*
X-619990Y-92410D01*
X-619990Y-90529D02*
X-636010Y-90529D01*
X-636010Y-88648D02*
X-619990Y-88648D01*
X-619990Y-86767D02*
X-636010Y-86767D01*
X-683990Y-67010D02*
X-700010Y-67010D01*
X-700010Y-59990D01*
X-683990Y-59990D01*
X-683990Y-67010D01*
X-683990Y-65129D02*
X-700010Y-65129D01*
X-700010Y-63248D02*
X-683990Y-63248D01*
X-683990Y-61367D02*
X-700010Y-61367D01*
X-636010Y-67010D02*
X-619990Y-67010D01*
X-636010Y-67010D02*
X-636010Y-59990D01*
X-619990Y-59990D01*
X-619990Y-67010D01*
X-619990Y-65129D02*
X-636010Y-65129D01*
X-636010Y-63248D02*
X-619990Y-63248D01*
X-619990Y-61367D02*
X-636010Y-61367D01*
X-683990Y-41610D02*
X-700010Y-41610D01*
X-700010Y-34590D01*
X-683990Y-34590D01*
X-683990Y-41610D01*
X-683990Y-39729D02*
X-700010Y-39729D01*
X-700010Y-37848D02*
X-683990Y-37848D01*
X-683990Y-35967D02*
X-700010Y-35967D01*
X-636010Y-41610D02*
X-619990Y-41610D01*
X-636010Y-41610D02*
X-636010Y-34590D01*
X-619990Y-34590D01*
X-619990Y-41610D01*
X-619990Y-39729D02*
X-636010Y-39729D01*
X-636010Y-37848D02*
X-619990Y-37848D01*
X-619990Y-35967D02*
X-636010Y-35967D01*
X-683990Y-16210D02*
X-700010Y-16210D01*
X-700010Y-9190D01*
X-683990Y-9190D01*
X-683990Y-16210D01*
X-683990Y-14329D02*
X-700010Y-14329D01*
X-700010Y-12448D02*
X-683990Y-12448D01*
X-683990Y-10567D02*
X-700010Y-10567D01*
X-636010Y-16210D02*
X-619990Y-16210D01*
X-636010Y-16210D02*
X-636010Y-9190D01*
X-619990Y-9190D01*
X-619990Y-16210D01*
X-619990Y-14329D02*
X-636010Y-14329D01*
X-636010Y-12448D02*
X-619990Y-12448D01*
X-619990Y-10567D02*
X-636010Y-10567D01*
X-683990Y9190D02*
X-700010Y9190D01*
X-700010Y16210D01*
X-683990Y16210D01*
X-683990Y9190D01*
X-683990Y11071D02*
X-700010Y11071D01*
X-700010Y12952D02*
X-683990Y12952D01*
X-683990Y14833D02*
X-700010Y14833D01*
X-636010Y9190D02*
X-619990Y9190D01*
X-636010Y9190D02*
X-636010Y16210D01*
X-619990Y16210D01*
X-619990Y9190D01*
X-619990Y11071D02*
X-636010Y11071D01*
X-636010Y12952D02*
X-619990Y12952D01*
X-619990Y14833D02*
X-636010Y14833D01*
X-683990Y34590D02*
X-700010Y34590D01*
X-700010Y41610D01*
X-683990Y41610D01*
X-683990Y34590D01*
X-683990Y36471D02*
X-700010Y36471D01*
X-700010Y38352D02*
X-683990Y38352D01*
X-683990Y40233D02*
X-700010Y40233D01*
X-636010Y34590D02*
X-619990Y34590D01*
X-636010Y34590D02*
X-636010Y41610D01*
X-619990Y41610D01*
X-619990Y34590D01*
X-619990Y36471D02*
X-636010Y36471D01*
X-636010Y38352D02*
X-619990Y38352D01*
X-619990Y40233D02*
X-636010Y40233D01*
X-683990Y59990D02*
X-700010Y59990D01*
X-700010Y67010D01*
X-683990Y67010D01*
X-683990Y59990D01*
X-683990Y61871D02*
X-700010Y61871D01*
X-700010Y63752D02*
X-683990Y63752D01*
X-683990Y65633D02*
X-700010Y65633D01*
X-636010Y59990D02*
X-619990Y59990D01*
X-636010Y59990D02*
X-636010Y67010D01*
X-619990Y67010D01*
X-619990Y59990D01*
X-619990Y61871D02*
X-636010Y61871D01*
X-636010Y63752D02*
X-619990Y63752D01*
X-619990Y65633D02*
X-636010Y65633D01*
X-683990Y85390D02*
X-700010Y85390D01*
X-700010Y92410D01*
X-683990Y92410D01*
X-683990Y85390D01*
X-683990Y87271D02*
X-700010Y87271D01*
X-700010Y89152D02*
X-683990Y89152D01*
X-683990Y91033D02*
X-700010Y91033D01*
X-636010Y85390D02*
X-619990Y85390D01*
X-636010Y85390D02*
X-636010Y92410D01*
X-619990Y92410D01*
X-619990Y85390D01*
X-619990Y87271D02*
X-636010Y87271D01*
X-636010Y89152D02*
X-619990Y89152D01*
X-619990Y91033D02*
X-636010Y91033D01*
X-683990Y110790D02*
X-700010Y110790D01*
X-700010Y117810D01*
X-683990Y117810D01*
X-683990Y110790D01*
X-683990Y112671D02*
X-700010Y112671D01*
X-700010Y114552D02*
X-683990Y114552D01*
X-683990Y116433D02*
X-700010Y116433D01*
X-636010Y110790D02*
X-619990Y110790D01*
X-636010Y110790D02*
X-636010Y117810D01*
X-619990Y117810D01*
X-619990Y110790D01*
X-619990Y112671D02*
X-636010Y112671D01*
X-636010Y114552D02*
X-619990Y114552D01*
X-619990Y116433D02*
X-636010Y116433D01*
X-683990Y242190D02*
X-700010Y242190D01*
X-700010Y249210D01*
X-683990Y249210D01*
X-683990Y242190D01*
X-683990Y244071D02*
X-700010Y244071D01*
X-700010Y245952D02*
X-683990Y245952D01*
X-683990Y247833D02*
X-700010Y247833D01*
X-636010Y242190D02*
X-619990Y242190D01*
X-636010Y242190D02*
X-636010Y249210D01*
X-619990Y249210D01*
X-619990Y242190D01*
X-619990Y244071D02*
X-636010Y244071D01*
X-636010Y245952D02*
X-619990Y245952D01*
X-619990Y247833D02*
X-636010Y247833D01*
X-683990Y267590D02*
X-700010Y267590D01*
X-700010Y274610D01*
X-683990Y274610D01*
X-683990Y267590D01*
X-683990Y269471D02*
X-700010Y269471D01*
X-700010Y271352D02*
X-683990Y271352D01*
X-683990Y273233D02*
X-700010Y273233D01*
X-636010Y267590D02*
X-619990Y267590D01*
X-636010Y267590D02*
X-636010Y274610D01*
X-619990Y274610D01*
X-619990Y267590D01*
X-619990Y269471D02*
X-636010Y269471D01*
X-636010Y271352D02*
X-619990Y271352D01*
X-619990Y273233D02*
X-636010Y273233D01*
X-683990Y292990D02*
X-700010Y292990D01*
X-700010Y300010D01*
X-683990Y300010D01*
X-683990Y292990D01*
X-683990Y294871D02*
X-700010Y294871D01*
X-700010Y296752D02*
X-683990Y296752D01*
X-683990Y298633D02*
X-700010Y298633D01*
X-636010Y292990D02*
X-619990Y292990D01*
X-636010Y292990D02*
X-636010Y300010D01*
X-619990Y300010D01*
X-619990Y292990D01*
X-619990Y294871D02*
X-636010Y294871D01*
X-636010Y296752D02*
X-619990Y296752D01*
X-619990Y298633D02*
X-636010Y298633D01*
X-683990Y318390D02*
X-700010Y318390D01*
X-700010Y325410D01*
X-683990Y325410D01*
X-683990Y318390D01*
X-683990Y320271D02*
X-700010Y320271D01*
X-700010Y322152D02*
X-683990Y322152D01*
X-683990Y324033D02*
X-700010Y324033D01*
X-636010Y318390D02*
X-619990Y318390D01*
X-636010Y318390D02*
X-636010Y325410D01*
X-619990Y325410D01*
X-619990Y318390D01*
X-619990Y320271D02*
X-636010Y320271D01*
X-636010Y322152D02*
X-619990Y322152D01*
X-619990Y324033D02*
X-636010Y324033D01*
X-683990Y343790D02*
X-700010Y343790D01*
X-700010Y350810D01*
X-683990Y350810D01*
X-683990Y343790D01*
X-683990Y345671D02*
X-700010Y345671D01*
X-700010Y347552D02*
X-683990Y347552D01*
X-683990Y349433D02*
X-700010Y349433D01*
X-636010Y343790D02*
X-619990Y343790D01*
X-636010Y343790D02*
X-636010Y350810D01*
X-619990Y350810D01*
X-619990Y343790D01*
X-619990Y345671D02*
X-636010Y345671D01*
X-636010Y347552D02*
X-619990Y347552D01*
X-619990Y349433D02*
X-636010Y349433D01*
X-683990Y369190D02*
X-700010Y369190D01*
X-700010Y376210D01*
X-683990Y376210D01*
X-683990Y369190D01*
X-683990Y371071D02*
X-700010Y371071D01*
X-700010Y372952D02*
X-683990Y372952D01*
X-683990Y374833D02*
X-700010Y374833D01*
X-636010Y369190D02*
X-619990Y369190D01*
X-636010Y369190D02*
X-636010Y376210D01*
X-619990Y376210D01*
X-619990Y369190D01*
X-619990Y371071D02*
X-636010Y371071D01*
X-636010Y372952D02*
X-619990Y372952D01*
X-619990Y374833D02*
X-636010Y374833D01*
X-683990Y394590D02*
X-700010Y394590D01*
X-700010Y401610D01*
X-683990Y401610D01*
X-683990Y394590D01*
X-683990Y396471D02*
X-700010Y396471D01*
X-700010Y398352D02*
X-683990Y398352D01*
X-683990Y400233D02*
X-700010Y400233D01*
X-636010Y394590D02*
X-619990Y394590D01*
X-636010Y394590D02*
X-636010Y401610D01*
X-619990Y401610D01*
X-619990Y394590D01*
X-619990Y396471D02*
X-636010Y396471D01*
X-636010Y398352D02*
X-619990Y398352D01*
X-619990Y400233D02*
X-636010Y400233D01*
X-683990Y419990D02*
X-700010Y419990D01*
X-700010Y427010D01*
X-683990Y427010D01*
X-683990Y419990D01*
X-683990Y421871D02*
X-700010Y421871D01*
X-700010Y423752D02*
X-683990Y423752D01*
X-683990Y425633D02*
X-700010Y425633D01*
X-636010Y419990D02*
X-619990Y419990D01*
X-636010Y419990D02*
X-636010Y427010D01*
X-619990Y427010D01*
X-619990Y419990D01*
X-619990Y421871D02*
X-636010Y421871D01*
X-636010Y423752D02*
X-619990Y423752D01*
X-619990Y425633D02*
X-636010Y425633D01*
X-683990Y445390D02*
X-700010Y445390D01*
X-700010Y452410D01*
X-683990Y452410D01*
X-683990Y445390D01*
X-683990Y447271D02*
X-700010Y447271D01*
X-700010Y449152D02*
X-683990Y449152D01*
X-683990Y451033D02*
X-700010Y451033D01*
X-636010Y445390D02*
X-619990Y445390D01*
X-636010Y445390D02*
X-636010Y452410D01*
X-619990Y452410D01*
X-619990Y445390D01*
X-619990Y447271D02*
X-636010Y447271D01*
X-636010Y449152D02*
X-619990Y449152D01*
X-619990Y451033D02*
X-636010Y451033D01*
X-683990Y470790D02*
X-700010Y470790D01*
X-700010Y477810D01*
X-683990Y477810D01*
X-683990Y470790D01*
X-683990Y472671D02*
X-700010Y472671D01*
X-700010Y474552D02*
X-683990Y474552D01*
X-683990Y476433D02*
X-700010Y476433D01*
X-636010Y470790D02*
X-619990Y470790D01*
X-636010Y470790D02*
X-636010Y477810D01*
X-619990Y477810D01*
X-619990Y470790D01*
X-619990Y472671D02*
X-636010Y472671D01*
X-636010Y474552D02*
X-619990Y474552D01*
X-619990Y476433D02*
X-636010Y476433D01*
D12*
X-32000Y-427000D02*
X-24000Y-427000D01*
X-32000Y-427000D02*
X-32000Y-417000D01*
X-24000Y-417000D01*
X-24000Y-427000D01*
X-24000Y-419400D02*
X-32000Y-419400D01*
X-4000Y-427000D02*
X4000Y-427000D01*
X-4000Y-427000D02*
X-4000Y-417000D01*
X4000Y-417000D01*
X4000Y-427000D01*
X4000Y-419400D02*
X-4000Y-419400D01*
D10*
X560500Y-12500D02*
X566500Y-12500D01*
X566500Y-17500D01*
X560500Y-17500D01*
X560500Y-12500D01*
X560500Y-12750D02*
X566500Y-12750D01*
X549500Y-12500D02*
X543500Y-12500D01*
X549500Y-12500D02*
X549500Y-17500D01*
X543500Y-17500D01*
X543500Y-12500D01*
X543500Y-12750D02*
X549500Y-12750D01*
X560500Y-92500D02*
X566500Y-92500D01*
X566500Y-97500D01*
X560500Y-97500D01*
X560500Y-92500D01*
X560500Y-92750D02*
X566500Y-92750D01*
X549500Y-92500D02*
X543500Y-92500D01*
X549500Y-92500D02*
X549500Y-97500D01*
X543500Y-97500D01*
X543500Y-92500D01*
X543500Y-92750D02*
X549500Y-92750D01*
X560500Y-112500D02*
X566500Y-112500D01*
X566500Y-117500D01*
X560500Y-117500D01*
X560500Y-112500D01*
X560500Y-112750D02*
X566500Y-112750D01*
X549500Y-112500D02*
X543500Y-112500D01*
X549500Y-112500D02*
X549500Y-117500D01*
X543500Y-117500D01*
X543500Y-112500D01*
X543500Y-112750D02*
X549500Y-112750D01*
X549500Y2500D02*
X543500Y2500D01*
X543500Y7500D01*
X549500Y7500D01*
X549500Y2500D01*
X549500Y7250D02*
X543500Y7250D01*
X560500Y2500D02*
X566500Y2500D01*
X560500Y2500D02*
X560500Y7500D01*
X566500Y7500D01*
X566500Y2500D01*
X566500Y7250D02*
X560500Y7250D01*
X560500Y-132500D02*
X566500Y-132500D01*
X566500Y-137500D01*
X560500Y-137500D01*
X560500Y-132500D01*
X560500Y-132750D02*
X566500Y-132750D01*
X549500Y-132500D02*
X543500Y-132500D01*
X549500Y-132500D02*
X549500Y-137500D01*
X543500Y-137500D01*
X543500Y-132500D01*
X543500Y-132750D02*
X549500Y-132750D01*
X560500Y-72500D02*
X566500Y-72500D01*
X566500Y-77500D01*
X560500Y-77500D01*
X560500Y-72500D01*
X560500Y-72750D02*
X566500Y-72750D01*
X549500Y-72500D02*
X543500Y-72500D01*
X549500Y-72500D02*
X549500Y-77500D01*
X543500Y-77500D01*
X543500Y-72500D01*
X543500Y-72750D02*
X549500Y-72750D01*
D15*
X85000Y-300500D02*
X85000Y-308500D01*
X85000Y-300500D02*
X97000Y-300500D01*
X97000Y-308500D01*
X85000Y-308500D01*
X85000Y-306600D02*
X97000Y-306600D01*
X97000Y-304700D02*
X85000Y-304700D01*
X85000Y-302800D02*
X97000Y-302800D01*
X97000Y-300900D02*
X85000Y-300900D01*
X85000Y-319500D02*
X85000Y-327500D01*
X85000Y-319500D02*
X97000Y-319500D01*
X97000Y-327500D01*
X85000Y-327500D01*
X85000Y-325600D02*
X97000Y-325600D01*
X97000Y-323700D02*
X85000Y-323700D01*
X85000Y-321800D02*
X97000Y-321800D01*
X97000Y-319900D02*
X85000Y-319900D01*
X63000Y-318000D02*
X63000Y-310000D01*
X75000Y-310000D01*
X75000Y-318000D01*
X63000Y-318000D01*
X63000Y-316100D02*
X75000Y-316100D01*
X75000Y-314200D02*
X63000Y-314200D01*
X63000Y-312300D02*
X75000Y-312300D01*
X75000Y-310400D02*
X63000Y-310400D01*
X-20000Y-299500D02*
X-20000Y-291500D01*
X-8000Y-291500D01*
X-8000Y-299500D01*
X-20000Y-299500D01*
X-20000Y-297600D02*
X-8000Y-297600D01*
X-8000Y-295700D02*
X-20000Y-295700D01*
X-20000Y-293800D02*
X-8000Y-293800D01*
X-8000Y-291900D02*
X-20000Y-291900D01*
X-20000Y-310500D02*
X-20000Y-318500D01*
X-20000Y-310500D02*
X-8000Y-310500D01*
X-8000Y-318500D01*
X-20000Y-318500D01*
X-20000Y-316600D02*
X-8000Y-316600D01*
X-8000Y-314700D02*
X-20000Y-314700D01*
X-20000Y-312800D02*
X-8000Y-312800D01*
X-8000Y-310900D02*
X-20000Y-310900D01*
X-42000Y-309000D02*
X-42000Y-301000D01*
X-30000Y-301000D01*
X-30000Y-309000D01*
X-42000Y-309000D01*
X-42000Y-307100D02*
X-30000Y-307100D01*
X-30000Y-305200D02*
X-42000Y-305200D01*
X-42000Y-303300D02*
X-30000Y-303300D01*
X-30000Y-301400D02*
X-42000Y-301400D01*
X-156000Y-325000D02*
X-164000Y-325000D01*
X-164000Y-313000D01*
X-156000Y-313000D01*
X-156000Y-325000D01*
X-156000Y-323100D02*
X-164000Y-323100D01*
X-164000Y-321200D02*
X-156000Y-321200D01*
X-156000Y-319300D02*
X-164000Y-319300D01*
X-164000Y-317400D02*
X-156000Y-317400D01*
X-156000Y-315500D02*
X-164000Y-315500D01*
X-164000Y-313600D02*
X-156000Y-313600D01*
X-145000Y-325000D02*
X-137000Y-325000D01*
X-145000Y-325000D02*
X-145000Y-313000D01*
X-137000Y-313000D01*
X-137000Y-325000D01*
X-137000Y-323100D02*
X-145000Y-323100D01*
X-145000Y-321200D02*
X-137000Y-321200D01*
X-137000Y-319300D02*
X-145000Y-319300D01*
X-145000Y-317400D02*
X-137000Y-317400D01*
X-137000Y-315500D02*
X-145000Y-315500D01*
X-145000Y-313600D02*
X-137000Y-313600D01*
X-146500Y-347000D02*
X-154500Y-347000D01*
X-154500Y-335000D01*
X-146500Y-335000D01*
X-146500Y-347000D01*
X-146500Y-345100D02*
X-154500Y-345100D01*
X-154500Y-343200D02*
X-146500Y-343200D01*
X-146500Y-341300D02*
X-154500Y-341300D01*
X-154500Y-339400D02*
X-146500Y-339400D01*
X-146500Y-337500D02*
X-154500Y-337500D01*
X-154500Y-335600D02*
X-146500Y-335600D01*
D11*
X281010Y251740D02*
X281010Y254260D01*
X281010Y251740D02*
X274990Y251740D01*
X274990Y254260D01*
X281010Y254260D01*
X281010Y253621D02*
X274990Y253621D01*
X305010Y254260D02*
X305010Y251740D01*
X298990Y251740D01*
X298990Y254260D01*
X305010Y254260D01*
X305010Y253621D02*
X298990Y253621D01*
X281010Y259740D02*
X281010Y262260D01*
X281010Y259740D02*
X274990Y259740D01*
X274990Y262260D01*
X281010Y262260D01*
X281010Y261621D02*
X274990Y261621D01*
X305010Y262260D02*
X305010Y259740D01*
X298990Y259740D01*
X298990Y262260D01*
X305010Y262260D01*
X305010Y261621D02*
X298990Y261621D01*
X281010Y267740D02*
X281010Y270260D01*
X281010Y267740D02*
X274990Y267740D01*
X274990Y270260D01*
X281010Y270260D01*
X281010Y269621D02*
X274990Y269621D01*
X305010Y270260D02*
X305010Y267740D01*
X298990Y267740D01*
X298990Y270260D01*
X305010Y270260D01*
X305010Y269621D02*
X298990Y269621D01*
X281010Y275740D02*
X281010Y278260D01*
X281010Y275740D02*
X274990Y275740D01*
X274990Y278260D01*
X281010Y278260D01*
X281010Y277621D02*
X274990Y277621D01*
X305010Y278260D02*
X305010Y275740D01*
X298990Y275740D01*
X298990Y278260D01*
X305010Y278260D01*
X305010Y277621D02*
X298990Y277621D01*
X281010Y-460740D02*
X281010Y-463260D01*
X274990Y-463260D01*
X274990Y-460740D01*
X281010Y-460740D01*
X281010Y-461379D02*
X274990Y-461379D01*
X305010Y-460740D02*
X305010Y-463260D01*
X298990Y-463260D01*
X298990Y-460740D01*
X305010Y-460740D01*
X305010Y-461379D02*
X298990Y-461379D01*
X281010Y-455260D02*
X281010Y-452740D01*
X281010Y-455260D02*
X274990Y-455260D01*
X274990Y-452740D01*
X281010Y-452740D01*
X281010Y-453379D02*
X274990Y-453379D01*
X305010Y-452740D02*
X305010Y-455260D01*
X298990Y-455260D01*
X298990Y-452740D01*
X305010Y-452740D01*
X305010Y-453379D02*
X298990Y-453379D01*
X281010Y-447260D02*
X281010Y-444740D01*
X281010Y-447260D02*
X274990Y-447260D01*
X274990Y-444740D01*
X281010Y-444740D01*
X281010Y-445379D02*
X274990Y-445379D01*
X305010Y-444740D02*
X305010Y-447260D01*
X298990Y-447260D01*
X298990Y-444740D01*
X305010Y-444740D01*
X305010Y-445379D02*
X298990Y-445379D01*
X281010Y-439260D02*
X281010Y-436740D01*
X281010Y-439260D02*
X274990Y-439260D01*
X274990Y-436740D01*
X281010Y-436740D01*
X281010Y-437379D02*
X274990Y-437379D01*
X305010Y-436740D02*
X305010Y-439260D01*
X298990Y-439260D01*
X298990Y-436740D01*
X305010Y-436740D01*
X305010Y-437379D02*
X298990Y-437379D01*
X-281010Y-254260D02*
X-281010Y-251740D01*
X-274990Y-251740D01*
X-274990Y-254260D01*
X-281010Y-254260D01*
X-281010Y-252379D02*
X-274990Y-252379D01*
X-305010Y-251740D02*
X-305010Y-254260D01*
X-305010Y-251740D02*
X-298990Y-251740D01*
X-298990Y-254260D01*
X-305010Y-254260D01*
X-305010Y-252379D02*
X-298990Y-252379D01*
X-281010Y-259740D02*
X-281010Y-262260D01*
X-281010Y-259740D02*
X-274990Y-259740D01*
X-274990Y-262260D01*
X-281010Y-262260D01*
X-281010Y-260379D02*
X-274990Y-260379D01*
X-305010Y-259740D02*
X-305010Y-262260D01*
X-305010Y-259740D02*
X-298990Y-259740D01*
X-298990Y-262260D01*
X-305010Y-262260D01*
X-305010Y-260379D02*
X-298990Y-260379D01*
X-281010Y-267740D02*
X-281010Y-270260D01*
X-281010Y-267740D02*
X-274990Y-267740D01*
X-274990Y-270260D01*
X-281010Y-270260D01*
X-281010Y-268379D02*
X-274990Y-268379D01*
X-305010Y-267740D02*
X-305010Y-270260D01*
X-305010Y-267740D02*
X-298990Y-267740D01*
X-298990Y-270260D01*
X-305010Y-270260D01*
X-305010Y-268379D02*
X-298990Y-268379D01*
X-281010Y-275740D02*
X-281010Y-278260D01*
X-281010Y-275740D02*
X-274990Y-275740D01*
X-274990Y-278260D01*
X-281010Y-278260D01*
X-281010Y-276379D02*
X-274990Y-276379D01*
X-305010Y-275740D02*
X-305010Y-278260D01*
X-305010Y-275740D02*
X-298990Y-275740D01*
X-298990Y-278260D01*
X-305010Y-278260D01*
X-305010Y-276379D02*
X-298990Y-276379D01*
X281010Y-108260D02*
X281010Y-105740D01*
X281010Y-108260D02*
X274990Y-108260D01*
X274990Y-105740D01*
X281010Y-105740D01*
X281010Y-106379D02*
X274990Y-106379D01*
X305010Y-105740D02*
X305010Y-108260D01*
X298990Y-108260D01*
X298990Y-105740D01*
X305010Y-105740D01*
X305010Y-106379D02*
X298990Y-106379D01*
X281010Y-100260D02*
X281010Y-97740D01*
X281010Y-100260D02*
X274990Y-100260D01*
X274990Y-97740D01*
X281010Y-97740D01*
X281010Y-98379D02*
X274990Y-98379D01*
X305010Y-97740D02*
X305010Y-100260D01*
X298990Y-100260D01*
X298990Y-97740D01*
X305010Y-97740D01*
X305010Y-98379D02*
X298990Y-98379D01*
X281010Y-92260D02*
X281010Y-89740D01*
X281010Y-92260D02*
X274990Y-92260D01*
X274990Y-89740D01*
X281010Y-89740D01*
X281010Y-90379D02*
X274990Y-90379D01*
X305010Y-89740D02*
X305010Y-92260D01*
X298990Y-92260D01*
X298990Y-89740D01*
X305010Y-89740D01*
X305010Y-90379D02*
X298990Y-90379D01*
X281010Y-84260D02*
X281010Y-81740D01*
X281010Y-84260D02*
X274990Y-84260D01*
X274990Y-81740D01*
X281010Y-81740D01*
X281010Y-82379D02*
X274990Y-82379D01*
X305010Y-81740D02*
X305010Y-84260D01*
X298990Y-84260D01*
X298990Y-81740D01*
X305010Y-81740D01*
X305010Y-82379D02*
X298990Y-82379D01*
X-281010Y100740D02*
X-281010Y103260D01*
X-274990Y103260D01*
X-274990Y100740D01*
X-281010Y100740D01*
X-281010Y102621D02*
X-274990Y102621D01*
X-305010Y103260D02*
X-305010Y100740D01*
X-305010Y103260D02*
X-298990Y103260D01*
X-298990Y100740D01*
X-305010Y100740D01*
X-305010Y102621D02*
X-298990Y102621D01*
X-281010Y95260D02*
X-281010Y92740D01*
X-281010Y95260D02*
X-274990Y95260D01*
X-274990Y92740D01*
X-281010Y92740D01*
X-281010Y94621D02*
X-274990Y94621D01*
X-305010Y95260D02*
X-305010Y92740D01*
X-305010Y95260D02*
X-298990Y95260D01*
X-298990Y92740D01*
X-305010Y92740D01*
X-305010Y94621D02*
X-298990Y94621D01*
X-281010Y87260D02*
X-281010Y84740D01*
X-281010Y87260D02*
X-274990Y87260D01*
X-274990Y84740D01*
X-281010Y84740D01*
X-281010Y86621D02*
X-274990Y86621D01*
X-305010Y87260D02*
X-305010Y84740D01*
X-305010Y87260D02*
X-298990Y87260D01*
X-298990Y84740D01*
X-305010Y84740D01*
X-305010Y86621D02*
X-298990Y86621D01*
X-281010Y79260D02*
X-281010Y76740D01*
X-281010Y79260D02*
X-274990Y79260D01*
X-274990Y76740D01*
X-281010Y76740D01*
X-281010Y78621D02*
X-274990Y78621D01*
X-305010Y79260D02*
X-305010Y76740D01*
X-305010Y79260D02*
X-298990Y79260D01*
X-298990Y76740D01*
X-305010Y76740D01*
X-305010Y78621D02*
X-298990Y78621D01*
X-281010Y460740D02*
X-281010Y463260D01*
X-274990Y463260D01*
X-274990Y460740D01*
X-281010Y460740D01*
X-281010Y462621D02*
X-274990Y462621D01*
X-305010Y463260D02*
X-305010Y460740D01*
X-305010Y463260D02*
X-298990Y463260D01*
X-298990Y460740D01*
X-305010Y460740D01*
X-305010Y462621D02*
X-298990Y462621D01*
X-281010Y455260D02*
X-281010Y452740D01*
X-281010Y455260D02*
X-274990Y455260D01*
X-274990Y452740D01*
X-281010Y452740D01*
X-281010Y454621D02*
X-274990Y454621D01*
X-305010Y455260D02*
X-305010Y452740D01*
X-305010Y455260D02*
X-298990Y455260D01*
X-298990Y452740D01*
X-305010Y452740D01*
X-305010Y454621D02*
X-298990Y454621D01*
X-281010Y447260D02*
X-281010Y444740D01*
X-281010Y447260D02*
X-274990Y447260D01*
X-274990Y444740D01*
X-281010Y444740D01*
X-281010Y446621D02*
X-274990Y446621D01*
X-305010Y447260D02*
X-305010Y444740D01*
X-305010Y447260D02*
X-298990Y447260D01*
X-298990Y444740D01*
X-305010Y444740D01*
X-305010Y446621D02*
X-298990Y446621D01*
X-281010Y439260D02*
X-281010Y436740D01*
X-281010Y439260D02*
X-274990Y439260D01*
X-274990Y436740D01*
X-281010Y436740D01*
X-281010Y438621D02*
X-274990Y438621D01*
X-305010Y439260D02*
X-305010Y436740D01*
X-305010Y439260D02*
X-298990Y439260D01*
X-298990Y436740D01*
X-305010Y436740D01*
X-305010Y438621D02*
X-298990Y438621D01*
D16*
X-68750Y-610750D02*
X-62250Y-610750D01*
X-62250Y-619250D01*
X-68750Y-619250D01*
X-68750Y-610750D01*
X-68750Y-613075D02*
X-62250Y-613075D01*
X-81250Y-610750D02*
X-87750Y-610750D01*
X-81250Y-610750D02*
X-81250Y-619250D01*
X-87750Y-619250D01*
X-87750Y-610750D01*
X-87750Y-613075D02*
X-81250Y-613075D01*
D15*
X48000Y-620745D02*
X48000Y-588995D01*
X48000Y-620745D02*
X42000Y-620745D01*
X42000Y-588995D01*
X48000Y-588995D01*
X48000Y-618845D02*
X42000Y-618845D01*
X42000Y-616945D02*
X48000Y-616945D01*
X48000Y-615045D02*
X42000Y-615045D01*
X42000Y-613145D02*
X48000Y-613145D01*
X48000Y-611245D02*
X42000Y-611245D01*
X42000Y-609345D02*
X48000Y-609345D01*
X48000Y-607445D02*
X42000Y-607445D01*
X42000Y-605545D02*
X48000Y-605545D01*
X48000Y-603645D02*
X42000Y-603645D01*
X42000Y-601745D02*
X48000Y-601745D01*
X48000Y-599845D02*
X42000Y-599845D01*
X42000Y-597945D02*
X48000Y-597945D01*
X48000Y-596045D02*
X42000Y-596045D01*
X42000Y-594145D02*
X48000Y-594145D01*
X48000Y-592245D02*
X42000Y-592245D01*
X42000Y-590345D02*
X48000Y-590345D01*
X36000Y-588995D02*
X36000Y-620745D01*
X30000Y-620745D01*
X30000Y-588995D01*
X36000Y-588995D01*
X36000Y-618845D02*
X30000Y-618845D01*
X30000Y-616945D02*
X36000Y-616945D01*
X36000Y-615045D02*
X30000Y-615045D01*
X30000Y-613145D02*
X36000Y-613145D01*
X36000Y-611245D02*
X30000Y-611245D01*
X30000Y-609345D02*
X36000Y-609345D01*
X36000Y-607445D02*
X30000Y-607445D01*
X30000Y-605545D02*
X36000Y-605545D01*
X36000Y-603645D02*
X30000Y-603645D01*
X30000Y-601745D02*
X36000Y-601745D01*
X36000Y-599845D02*
X30000Y-599845D01*
X30000Y-597945D02*
X36000Y-597945D01*
X36000Y-596045D02*
X30000Y-596045D01*
X30000Y-594145D02*
X36000Y-594145D01*
X36000Y-592245D02*
X30000Y-592245D01*
X30000Y-590345D02*
X36000Y-590345D01*
X24000Y-588995D02*
X24000Y-620745D01*
X18000Y-620745D01*
X18000Y-588995D01*
X24000Y-588995D01*
X24000Y-618845D02*
X18000Y-618845D01*
X18000Y-616945D02*
X24000Y-616945D01*
X24000Y-615045D02*
X18000Y-615045D01*
X18000Y-613145D02*
X24000Y-613145D01*
X24000Y-611245D02*
X18000Y-611245D01*
X18000Y-609345D02*
X24000Y-609345D01*
X24000Y-607445D02*
X18000Y-607445D01*
X18000Y-605545D02*
X24000Y-605545D01*
X24000Y-603645D02*
X18000Y-603645D01*
X18000Y-601745D02*
X24000Y-601745D01*
X24000Y-599845D02*
X18000Y-599845D01*
X18000Y-597945D02*
X24000Y-597945D01*
X24000Y-596045D02*
X18000Y-596045D01*
X18000Y-594145D02*
X24000Y-594145D01*
X24000Y-592245D02*
X18000Y-592245D01*
X18000Y-590345D02*
X24000Y-590345D01*
X12000Y-588995D02*
X12000Y-620745D01*
X6000Y-620745D01*
X6000Y-588995D01*
X12000Y-588995D01*
X12000Y-618845D02*
X6000Y-618845D01*
X6000Y-616945D02*
X12000Y-616945D01*
X12000Y-615045D02*
X6000Y-615045D01*
X6000Y-613145D02*
X12000Y-613145D01*
X12000Y-611245D02*
X6000Y-611245D01*
X6000Y-609345D02*
X12000Y-609345D01*
X12000Y-607445D02*
X6000Y-607445D01*
X6000Y-605545D02*
X12000Y-605545D01*
X12000Y-603645D02*
X6000Y-603645D01*
X6000Y-601745D02*
X12000Y-601745D01*
X12000Y-599845D02*
X6000Y-599845D01*
X6000Y-597945D02*
X12000Y-597945D01*
X12000Y-596045D02*
X6000Y-596045D01*
X6000Y-594145D02*
X12000Y-594145D01*
X12000Y-592245D02*
X6000Y-592245D01*
X6000Y-590345D02*
X12000Y-590345D01*
X0Y-588995D02*
X0Y-620745D01*
X-6000Y-620745D01*
X-6000Y-588995D01*
X0Y-588995D01*
X0Y-618845D02*
X-6000Y-618845D01*
X-6000Y-616945D02*
X0Y-616945D01*
X0Y-615045D02*
X-6000Y-615045D01*
X-6000Y-613145D02*
X0Y-613145D01*
X0Y-611245D02*
X-6000Y-611245D01*
X-6000Y-609345D02*
X0Y-609345D01*
X0Y-607445D02*
X-6000Y-607445D01*
X-6000Y-605545D02*
X0Y-605545D01*
X0Y-603645D02*
X-6000Y-603645D01*
X-6000Y-601745D02*
X0Y-601745D01*
X0Y-599845D02*
X-6000Y-599845D01*
X-6000Y-597945D02*
X0Y-597945D01*
X0Y-596045D02*
X-6000Y-596045D01*
X-6000Y-594145D02*
X0Y-594145D01*
X0Y-592245D02*
X-6000Y-592245D01*
X-6000Y-590345D02*
X0Y-590345D01*
X-12000Y-588995D02*
X-12000Y-620745D01*
X-18000Y-620745D01*
X-18000Y-588995D01*
X-12000Y-588995D01*
X-12000Y-618845D02*
X-18000Y-618845D01*
X-18000Y-616945D02*
X-12000Y-616945D01*
X-12000Y-615045D02*
X-18000Y-615045D01*
X-18000Y-613145D02*
X-12000Y-613145D01*
X-12000Y-611245D02*
X-18000Y-611245D01*
X-18000Y-609345D02*
X-12000Y-609345D01*
X-12000Y-607445D02*
X-18000Y-607445D01*
X-18000Y-605545D02*
X-12000Y-605545D01*
X-12000Y-603645D02*
X-18000Y-603645D01*
X-18000Y-601745D02*
X-12000Y-601745D01*
X-12000Y-599845D02*
X-18000Y-599845D01*
X-18000Y-597945D02*
X-12000Y-597945D01*
X-12000Y-596045D02*
X-18000Y-596045D01*
X-18000Y-594145D02*
X-12000Y-594145D01*
X-12000Y-592245D02*
X-18000Y-592245D01*
X-18000Y-590345D02*
X-12000Y-590345D01*
X-24000Y-588995D02*
X-24000Y-620745D01*
X-30000Y-620745D01*
X-30000Y-588995D01*
X-24000Y-588995D01*
X-24000Y-618845D02*
X-30000Y-618845D01*
X-30000Y-616945D02*
X-24000Y-616945D01*
X-24000Y-615045D02*
X-30000Y-615045D01*
X-30000Y-613145D02*
X-24000Y-613145D01*
X-24000Y-611245D02*
X-30000Y-611245D01*
X-30000Y-609345D02*
X-24000Y-609345D01*
X-24000Y-607445D02*
X-30000Y-607445D01*
X-30000Y-605545D02*
X-24000Y-605545D01*
X-24000Y-603645D02*
X-30000Y-603645D01*
X-30000Y-601745D02*
X-24000Y-601745D01*
X-24000Y-599845D02*
X-30000Y-599845D01*
X-30000Y-597945D02*
X-24000Y-597945D01*
X-24000Y-596045D02*
X-30000Y-596045D01*
X-30000Y-594145D02*
X-24000Y-594145D01*
X-24000Y-592245D02*
X-30000Y-592245D01*
X-30000Y-590345D02*
X-24000Y-590345D01*
X-36000Y-588995D02*
X-36000Y-620745D01*
X-42000Y-620745D01*
X-42000Y-588995D01*
X-36000Y-588995D01*
X-36000Y-618845D02*
X-42000Y-618845D01*
X-42000Y-616945D02*
X-36000Y-616945D01*
X-36000Y-615045D02*
X-42000Y-615045D01*
X-42000Y-613145D02*
X-36000Y-613145D01*
X-36000Y-611245D02*
X-42000Y-611245D01*
X-42000Y-609345D02*
X-36000Y-609345D01*
X-36000Y-607445D02*
X-42000Y-607445D01*
X-42000Y-605545D02*
X-36000Y-605545D01*
X-36000Y-603645D02*
X-42000Y-603645D01*
X-42000Y-601745D02*
X-36000Y-601745D01*
X-36000Y-599845D02*
X-42000Y-599845D01*
X-42000Y-597945D02*
X-36000Y-597945D01*
X-36000Y-596045D02*
X-42000Y-596045D01*
X-42000Y-594145D02*
X-36000Y-594145D01*
X-36000Y-592245D02*
X-42000Y-592245D01*
X-42000Y-590345D02*
X-36000Y-590345D01*
X-36000Y-477005D02*
X-36000Y-445255D01*
X-36000Y-477005D02*
X-42000Y-477005D01*
X-42000Y-445255D01*
X-36000Y-445255D01*
X-36000Y-475105D02*
X-42000Y-475105D01*
X-42000Y-473205D02*
X-36000Y-473205D01*
X-36000Y-471305D02*
X-42000Y-471305D01*
X-42000Y-469405D02*
X-36000Y-469405D01*
X-36000Y-467505D02*
X-42000Y-467505D01*
X-42000Y-465605D02*
X-36000Y-465605D01*
X-36000Y-463705D02*
X-42000Y-463705D01*
X-42000Y-461805D02*
X-36000Y-461805D01*
X-36000Y-459905D02*
X-42000Y-459905D01*
X-42000Y-458005D02*
X-36000Y-458005D01*
X-36000Y-456105D02*
X-42000Y-456105D01*
X-42000Y-454205D02*
X-36000Y-454205D01*
X-36000Y-452305D02*
X-42000Y-452305D01*
X-42000Y-450405D02*
X-36000Y-450405D01*
X-36000Y-448505D02*
X-42000Y-448505D01*
X-42000Y-446605D02*
X-36000Y-446605D01*
X-24000Y-445255D02*
X-24000Y-477005D01*
X-30000Y-477005D01*
X-30000Y-445255D01*
X-24000Y-445255D01*
X-24000Y-475105D02*
X-30000Y-475105D01*
X-30000Y-473205D02*
X-24000Y-473205D01*
X-24000Y-471305D02*
X-30000Y-471305D01*
X-30000Y-469405D02*
X-24000Y-469405D01*
X-24000Y-467505D02*
X-30000Y-467505D01*
X-30000Y-465605D02*
X-24000Y-465605D01*
X-24000Y-463705D02*
X-30000Y-463705D01*
X-30000Y-461805D02*
X-24000Y-461805D01*
X-24000Y-459905D02*
X-30000Y-459905D01*
X-30000Y-458005D02*
X-24000Y-458005D01*
X-24000Y-456105D02*
X-30000Y-456105D01*
X-30000Y-454205D02*
X-24000Y-454205D01*
X-24000Y-452305D02*
X-30000Y-452305D01*
X-30000Y-450405D02*
X-24000Y-450405D01*
X-24000Y-448505D02*
X-30000Y-448505D01*
X-30000Y-446605D02*
X-24000Y-446605D01*
X-12000Y-445255D02*
X-12000Y-477005D01*
X-18000Y-477005D01*
X-18000Y-445255D01*
X-12000Y-445255D01*
X-12000Y-475105D02*
X-18000Y-475105D01*
X-18000Y-473205D02*
X-12000Y-473205D01*
X-12000Y-471305D02*
X-18000Y-471305D01*
X-18000Y-469405D02*
X-12000Y-469405D01*
X-12000Y-467505D02*
X-18000Y-467505D01*
X-18000Y-465605D02*
X-12000Y-465605D01*
X-12000Y-463705D02*
X-18000Y-463705D01*
X-18000Y-461805D02*
X-12000Y-461805D01*
X-12000Y-459905D02*
X-18000Y-459905D01*
X-18000Y-458005D02*
X-12000Y-458005D01*
X-12000Y-456105D02*
X-18000Y-456105D01*
X-18000Y-454205D02*
X-12000Y-454205D01*
X-12000Y-452305D02*
X-18000Y-452305D01*
X-18000Y-450405D02*
X-12000Y-450405D01*
X-12000Y-448505D02*
X-18000Y-448505D01*
X-18000Y-446605D02*
X-12000Y-446605D01*
X0Y-445255D02*
X0Y-477005D01*
X-6000Y-477005D01*
X-6000Y-445255D01*
X0Y-445255D01*
X0Y-475105D02*
X-6000Y-475105D01*
X-6000Y-473205D02*
X0Y-473205D01*
X0Y-471305D02*
X-6000Y-471305D01*
X-6000Y-469405D02*
X0Y-469405D01*
X0Y-467505D02*
X-6000Y-467505D01*
X-6000Y-465605D02*
X0Y-465605D01*
X0Y-463705D02*
X-6000Y-463705D01*
X-6000Y-461805D02*
X0Y-461805D01*
X0Y-459905D02*
X-6000Y-459905D01*
X-6000Y-458005D02*
X0Y-458005D01*
X0Y-456105D02*
X-6000Y-456105D01*
X-6000Y-454205D02*
X0Y-454205D01*
X0Y-452305D02*
X-6000Y-452305D01*
X-6000Y-450405D02*
X0Y-450405D01*
X0Y-448505D02*
X-6000Y-448505D01*
X-6000Y-446605D02*
X0Y-446605D01*
X12000Y-445255D02*
X12000Y-477005D01*
X6000Y-477005D01*
X6000Y-445255D01*
X12000Y-445255D01*
X12000Y-475105D02*
X6000Y-475105D01*
X6000Y-473205D02*
X12000Y-473205D01*
X12000Y-471305D02*
X6000Y-471305D01*
X6000Y-469405D02*
X12000Y-469405D01*
X12000Y-467505D02*
X6000Y-467505D01*
X6000Y-465605D02*
X12000Y-465605D01*
X12000Y-463705D02*
X6000Y-463705D01*
X6000Y-461805D02*
X12000Y-461805D01*
X12000Y-459905D02*
X6000Y-459905D01*
X6000Y-458005D02*
X12000Y-458005D01*
X12000Y-456105D02*
X6000Y-456105D01*
X6000Y-454205D02*
X12000Y-454205D01*
X12000Y-452305D02*
X6000Y-452305D01*
X6000Y-450405D02*
X12000Y-450405D01*
X12000Y-448505D02*
X6000Y-448505D01*
X6000Y-446605D02*
X12000Y-446605D01*
X24000Y-445255D02*
X24000Y-477005D01*
X18000Y-477005D01*
X18000Y-445255D01*
X24000Y-445255D01*
X24000Y-475105D02*
X18000Y-475105D01*
X18000Y-473205D02*
X24000Y-473205D01*
X24000Y-471305D02*
X18000Y-471305D01*
X18000Y-469405D02*
X24000Y-469405D01*
X24000Y-467505D02*
X18000Y-467505D01*
X18000Y-465605D02*
X24000Y-465605D01*
X24000Y-463705D02*
X18000Y-463705D01*
X18000Y-461805D02*
X24000Y-461805D01*
X24000Y-459905D02*
X18000Y-459905D01*
X18000Y-458005D02*
X24000Y-458005D01*
X24000Y-456105D02*
X18000Y-456105D01*
X18000Y-454205D02*
X24000Y-454205D01*
X24000Y-452305D02*
X18000Y-452305D01*
X18000Y-450405D02*
X24000Y-450405D01*
X24000Y-448505D02*
X18000Y-448505D01*
X18000Y-446605D02*
X24000Y-446605D01*
X36000Y-445255D02*
X36000Y-477005D01*
X30000Y-477005D01*
X30000Y-445255D01*
X36000Y-445255D01*
X36000Y-475105D02*
X30000Y-475105D01*
X30000Y-473205D02*
X36000Y-473205D01*
X36000Y-471305D02*
X30000Y-471305D01*
X30000Y-469405D02*
X36000Y-469405D01*
X36000Y-467505D02*
X30000Y-467505D01*
X30000Y-465605D02*
X36000Y-465605D01*
X36000Y-463705D02*
X30000Y-463705D01*
X30000Y-461805D02*
X36000Y-461805D01*
X36000Y-459905D02*
X30000Y-459905D01*
X30000Y-458005D02*
X36000Y-458005D01*
X36000Y-456105D02*
X30000Y-456105D01*
X30000Y-454205D02*
X36000Y-454205D01*
X36000Y-452305D02*
X30000Y-452305D01*
X30000Y-450405D02*
X36000Y-450405D01*
X36000Y-448505D02*
X30000Y-448505D01*
X30000Y-446605D02*
X36000Y-446605D01*
X48000Y-445255D02*
X48000Y-477005D01*
X42000Y-477005D01*
X42000Y-445255D01*
X48000Y-445255D01*
X48000Y-475105D02*
X42000Y-475105D01*
X42000Y-473205D02*
X48000Y-473205D01*
X48000Y-471305D02*
X42000Y-471305D01*
X42000Y-469405D02*
X48000Y-469405D01*
X48000Y-467505D02*
X42000Y-467505D01*
X42000Y-465605D02*
X48000Y-465605D01*
X48000Y-463705D02*
X42000Y-463705D01*
X42000Y-461805D02*
X48000Y-461805D01*
X48000Y-459905D02*
X42000Y-459905D01*
X42000Y-458005D02*
X48000Y-458005D01*
X48000Y-456105D02*
X42000Y-456105D01*
X42000Y-454205D02*
X48000Y-454205D01*
X48000Y-452305D02*
X42000Y-452305D01*
X42000Y-450405D02*
X48000Y-450405D01*
X48000Y-448505D02*
X42000Y-448505D01*
X42000Y-446605D02*
X48000Y-446605D01*
D17*
X787Y207993D02*
X787Y218235D01*
X21189Y218235D01*
X21189Y207993D01*
X787Y207993D01*
X787Y209846D02*
X21189Y209846D01*
X21189Y211699D02*
X787Y211699D01*
X787Y213552D02*
X21189Y213552D01*
X21189Y215405D02*
X787Y215405D01*
X787Y217258D02*
X21189Y217258D01*
X787Y195121D02*
X787Y184879D01*
X787Y195121D02*
X21189Y195121D01*
X21189Y184879D01*
X787Y184879D01*
X787Y186732D02*
X21189Y186732D01*
X21189Y188585D02*
X787Y188585D01*
X787Y190438D02*
X21189Y190438D01*
X21189Y192291D02*
X787Y192291D01*
X787Y194144D02*
X21189Y194144D01*
X787Y172007D02*
X787Y161765D01*
X787Y172007D02*
X21189Y172007D01*
X21189Y161765D01*
X787Y161765D01*
X787Y163618D02*
X21189Y163618D01*
X21189Y165471D02*
X787Y165471D01*
X787Y167324D02*
X21189Y167324D01*
X21189Y169177D02*
X787Y169177D01*
X787Y171030D02*
X21189Y171030D01*
D11*
X-61000Y172990D02*
X-61000Y207010D01*
X-40980Y207010D01*
X-40980Y172990D01*
X-61000Y172990D01*
X-61000Y174871D02*
X-40980Y174871D01*
X-40980Y176752D02*
X-61000Y176752D01*
X-61000Y178633D02*
X-40980Y178633D01*
X-40980Y180514D02*
X-61000Y180514D01*
X-61000Y182395D02*
X-40980Y182395D01*
X-40980Y184276D02*
X-61000Y184276D01*
X-61000Y186157D02*
X-40980Y186157D01*
X-40980Y188038D02*
X-61000Y188038D01*
X-61000Y189919D02*
X-40980Y189919D01*
X-40980Y191800D02*
X-61000Y191800D01*
X-61000Y193681D02*
X-40980Y193681D01*
X-40980Y195562D02*
X-61000Y195562D01*
X-61000Y197443D02*
X-40980Y197443D01*
X-40980Y199324D02*
X-61000Y199324D01*
X-61000Y201205D02*
X-40980Y201205D01*
X-40980Y203086D02*
X-61000Y203086D01*
X-61000Y204967D02*
X-40980Y204967D01*
X-40980Y206848D02*
X-61000Y206848D01*
D16*
X-45750Y237250D02*
X-45750Y243750D01*
X-45750Y237250D02*
X-54250Y237250D01*
X-54250Y243750D01*
X-45750Y243750D01*
X-45750Y243425D02*
X-54250Y243425D01*
X-45750Y256250D02*
X-45750Y262750D01*
X-45750Y256250D02*
X-54250Y256250D01*
X-54250Y262750D01*
X-45750Y262750D01*
X-45750Y262425D02*
X-54250Y262425D01*
X-65750Y243750D02*
X-65750Y237250D01*
X-74250Y237250D01*
X-74250Y243750D01*
X-65750Y243750D01*
X-65750Y243425D02*
X-74250Y243425D01*
X-65750Y256250D02*
X-65750Y262750D01*
X-65750Y256250D02*
X-74250Y256250D01*
X-74250Y262750D01*
X-65750Y262750D01*
X-65750Y262425D02*
X-74250Y262425D01*
D10*
X25500Y242500D02*
X31500Y242500D01*
X31500Y237500D01*
X25500Y237500D01*
X25500Y242500D01*
X25500Y242250D02*
X31500Y242250D01*
X14500Y242500D02*
X8500Y242500D01*
X14500Y242500D02*
X14500Y237500D01*
X8500Y237500D01*
X8500Y242500D01*
X8500Y242250D02*
X14500Y242250D01*
X47500Y241500D02*
X47500Y235500D01*
X47500Y241500D02*
X52500Y241500D01*
X52500Y235500D01*
X47500Y235500D01*
X47500Y240250D02*
X52500Y240250D01*
X47500Y224500D02*
X47500Y218500D01*
X47500Y224500D02*
X52500Y224500D01*
X52500Y218500D01*
X47500Y218500D01*
X47500Y223250D02*
X52500Y223250D01*
D11*
X584990Y-105110D02*
X601010Y-105110D01*
X584990Y-105110D02*
X584990Y-98090D01*
X601010Y-98090D01*
X601010Y-105110D01*
X601010Y-103229D02*
X584990Y-103229D01*
X584990Y-101348D02*
X601010Y-101348D01*
X601010Y-99467D02*
X584990Y-99467D01*
X648990Y-105110D02*
X665010Y-105110D01*
X648990Y-105110D02*
X648990Y-98090D01*
X665010Y-98090D01*
X665010Y-105110D01*
X665010Y-103229D02*
X648990Y-103229D01*
X648990Y-101348D02*
X665010Y-101348D01*
X665010Y-99467D02*
X648990Y-99467D01*
X601010Y-79710D02*
X584990Y-79710D01*
X584990Y-72690D01*
X601010Y-72690D01*
X601010Y-79710D01*
X601010Y-77829D02*
X584990Y-77829D01*
X584990Y-75948D02*
X601010Y-75948D01*
X601010Y-74067D02*
X584990Y-74067D01*
X648990Y-79710D02*
X665010Y-79710D01*
X648990Y-79710D02*
X648990Y-72690D01*
X665010Y-72690D01*
X665010Y-79710D01*
X665010Y-77829D02*
X648990Y-77829D01*
X648990Y-75948D02*
X665010Y-75948D01*
X665010Y-74067D02*
X648990Y-74067D01*
X601010Y-54310D02*
X584990Y-54310D01*
X584990Y-47290D01*
X601010Y-47290D01*
X601010Y-54310D01*
X601010Y-52429D02*
X584990Y-52429D01*
X584990Y-50548D02*
X601010Y-50548D01*
X601010Y-48667D02*
X584990Y-48667D01*
X648990Y-54310D02*
X665010Y-54310D01*
X648990Y-54310D02*
X648990Y-47290D01*
X665010Y-47290D01*
X665010Y-54310D01*
X665010Y-52429D02*
X648990Y-52429D01*
X648990Y-50548D02*
X665010Y-50548D01*
X665010Y-48667D02*
X648990Y-48667D01*
X601010Y-28910D02*
X584990Y-28910D01*
X584990Y-21890D01*
X601010Y-21890D01*
X601010Y-28910D01*
X601010Y-27029D02*
X584990Y-27029D01*
X584990Y-25148D02*
X601010Y-25148D01*
X601010Y-23267D02*
X584990Y-23267D01*
X648990Y-28910D02*
X665010Y-28910D01*
X648990Y-28910D02*
X648990Y-21890D01*
X665010Y-21890D01*
X665010Y-28910D01*
X665010Y-27029D02*
X648990Y-27029D01*
X648990Y-25148D02*
X665010Y-25148D01*
X665010Y-23267D02*
X648990Y-23267D01*
X601010Y-3510D02*
X584990Y-3510D01*
X584990Y3510D01*
X601010Y3510D01*
X601010Y-3510D01*
X601010Y-1629D02*
X584990Y-1629D01*
X584990Y252D02*
X601010Y252D01*
X601010Y2133D02*
X584990Y2133D01*
X648990Y-3510D02*
X665010Y-3510D01*
X648990Y-3510D02*
X648990Y3510D01*
X665010Y3510D01*
X665010Y-3510D01*
X665010Y-1629D02*
X648990Y-1629D01*
X648990Y252D02*
X665010Y252D01*
X665010Y2133D02*
X648990Y2133D01*
X601010Y21890D02*
X584990Y21890D01*
X584990Y28910D01*
X601010Y28910D01*
X601010Y21890D01*
X601010Y23771D02*
X584990Y23771D01*
X584990Y25652D02*
X601010Y25652D01*
X601010Y27533D02*
X584990Y27533D01*
X648990Y21890D02*
X665010Y21890D01*
X648990Y21890D02*
X648990Y28910D01*
X665010Y28910D01*
X665010Y21890D01*
X665010Y23771D02*
X648990Y23771D01*
X648990Y25652D02*
X665010Y25652D01*
X665010Y27533D02*
X648990Y27533D01*
X601010Y47290D02*
X584990Y47290D01*
X584990Y54310D01*
X601010Y54310D01*
X601010Y47290D01*
X601010Y49171D02*
X584990Y49171D01*
X584990Y51052D02*
X601010Y51052D01*
X601010Y52933D02*
X584990Y52933D01*
X648990Y47290D02*
X665010Y47290D01*
X648990Y47290D02*
X648990Y54310D01*
X665010Y54310D01*
X665010Y47290D01*
X665010Y49171D02*
X648990Y49171D01*
X648990Y51052D02*
X665010Y51052D01*
X665010Y52933D02*
X648990Y52933D01*
X601010Y72690D02*
X584990Y72690D01*
X584990Y79710D01*
X601010Y79710D01*
X601010Y72690D01*
X601010Y74571D02*
X584990Y74571D01*
X584990Y76452D02*
X601010Y76452D01*
X601010Y78333D02*
X584990Y78333D01*
X648990Y72690D02*
X665010Y72690D01*
X648990Y72690D02*
X648990Y79710D01*
X665010Y79710D01*
X665010Y72690D01*
X665010Y74571D02*
X648990Y74571D01*
X648990Y76452D02*
X665010Y76452D01*
X665010Y78333D02*
X648990Y78333D01*
X601010Y98090D02*
X584990Y98090D01*
X584990Y105110D01*
X601010Y105110D01*
X601010Y98090D01*
X601010Y99971D02*
X584990Y99971D01*
X584990Y101852D02*
X601010Y101852D01*
X601010Y103733D02*
X584990Y103733D01*
X648990Y98090D02*
X665010Y98090D01*
X648990Y98090D02*
X648990Y105110D01*
X665010Y105110D01*
X665010Y98090D01*
X665010Y99971D02*
X648990Y99971D01*
X648990Y101852D02*
X665010Y101852D01*
X665010Y103733D02*
X648990Y103733D01*
D10*
X-80500Y-597500D02*
X-86500Y-597500D01*
X-86500Y-592500D01*
X-80500Y-592500D01*
X-80500Y-597500D01*
X-80500Y-592750D02*
X-86500Y-592750D01*
X-69500Y-597500D02*
X-63500Y-597500D01*
X-69500Y-597500D02*
X-69500Y-592500D01*
X-63500Y-592500D01*
X-63500Y-597500D01*
X-63500Y-592750D02*
X-69500Y-592750D01*
X560500Y-52500D02*
X566500Y-52500D01*
X566500Y-57500D01*
X560500Y-57500D01*
X560500Y-52500D01*
X560500Y-52750D02*
X566500Y-52750D01*
X549500Y-52500D02*
X543500Y-52500D01*
X549500Y-52500D02*
X549500Y-57500D01*
X543500Y-57500D01*
X543500Y-52500D01*
X543500Y-52750D02*
X549500Y-52750D01*
X549500Y-37500D02*
X543500Y-37500D01*
X543500Y-32500D01*
X549500Y-32500D01*
X549500Y-37500D01*
X549500Y-32750D02*
X543500Y-32750D01*
X560500Y-37500D02*
X566500Y-37500D01*
X560500Y-37500D02*
X560500Y-32500D01*
X566500Y-32500D01*
X566500Y-37500D01*
X566500Y-32750D02*
X560500Y-32750D01*
M02*
