M48
;GenerationSoftware,Autodesk,EAGLE,9.6.2*%
;CreationDate,2023-07-04T14:03:41Z*%
FMAT,2
ICI,OFF
METRIC,TZ,000.000
T2C0.350
T1C3.000
%
G90
M71
T1
X-7500Y-25000
X7500Y-25000
T2
X8500Y15750
X-9000Y15500
X6000Y14000
X-5600Y-17600
X-1625Y-7375
X-5100Y3100
X-2200Y-26100
X9700Y-22200
X3400Y-26800
X4100Y-3700
X-9000Y12700
X-3000Y11700
X8000Y-17000
X8000Y-15000
X6000Y-16000
X0Y-19000
X7250Y-13050
X1950Y-19200
X7650Y-19650
X8600Y-7000
X4750Y-11000
X3750Y-11050
X7750Y-6250
M30