G04 EAGLE Gerber RS-274X export*
G75*
%MOMM*%
%FSLAX34Y34*%
%LPD*%
%INSilkscreen Top*%
%IPPOS*%
%AMOC8*
5,1,8,0,0,1.08239X$1,22.5*%
G01*
%ADD10C,0.127000*%
%ADD11C,0.101600*%
%ADD12C,0.100000*%
%ADD13C,0.152400*%
%ADD14C,0.050800*%

G36*
X43042Y16377D02*
X43042Y16377D01*
X43131Y16379D01*
X43153Y16388D01*
X43176Y16391D01*
X43256Y16430D01*
X43338Y16464D01*
X43356Y16480D01*
X43377Y16490D01*
X43438Y16555D01*
X43504Y16615D01*
X43515Y16636D01*
X43531Y16653D01*
X43566Y16735D01*
X43607Y16815D01*
X43610Y16841D01*
X43619Y16860D01*
X43621Y16910D01*
X43634Y17000D01*
X43634Y23000D01*
X43618Y23088D01*
X43609Y23176D01*
X43599Y23197D01*
X43595Y23221D01*
X43549Y23298D01*
X43510Y23377D01*
X43493Y23394D01*
X43480Y23414D01*
X43411Y23470D01*
X43347Y23531D01*
X43325Y23540D01*
X43306Y23555D01*
X43222Y23584D01*
X43140Y23619D01*
X43116Y23620D01*
X43094Y23627D01*
X43005Y23625D01*
X42916Y23629D01*
X42893Y23621D01*
X42869Y23621D01*
X42787Y23587D01*
X42702Y23560D01*
X42681Y23544D01*
X42662Y23536D01*
X42624Y23502D01*
X42552Y23448D01*
X39552Y20448D01*
X39514Y20395D01*
X39469Y20347D01*
X39450Y20303D01*
X39423Y20264D01*
X39407Y20201D01*
X39381Y20140D01*
X39379Y20093D01*
X39368Y20047D01*
X39374Y19982D01*
X39371Y19916D01*
X39386Y19871D01*
X39391Y19824D01*
X39420Y19765D01*
X39440Y19702D01*
X39473Y19658D01*
X39490Y19623D01*
X39519Y19596D01*
X39552Y19552D01*
X42552Y16552D01*
X42625Y16501D01*
X42694Y16445D01*
X42716Y16437D01*
X42736Y16423D01*
X42822Y16401D01*
X42906Y16373D01*
X42930Y16373D01*
X42953Y16368D01*
X43042Y16377D01*
G37*
G36*
X-4446Y-133488D02*
X-4446Y-133488D01*
X-4391Y-133487D01*
X-4350Y-133469D01*
X-4305Y-133460D01*
X-4260Y-133428D01*
X-4209Y-133406D01*
X-4179Y-133373D01*
X-4141Y-133347D01*
X-4112Y-133301D01*
X-4074Y-133260D01*
X-4059Y-133218D01*
X-4034Y-133180D01*
X-4025Y-133125D01*
X-4006Y-133074D01*
X-4009Y-133028D01*
X-4001Y-132983D01*
X-4014Y-132930D01*
X-4017Y-132875D01*
X-4038Y-132826D01*
X-4047Y-132790D01*
X-4066Y-132764D01*
X-4085Y-132723D01*
X-6085Y-129723D01*
X-6089Y-129718D01*
X-6092Y-129712D01*
X-6133Y-129673D01*
X-6162Y-129634D01*
X-6191Y-129617D01*
X-6226Y-129583D01*
X-6232Y-129580D01*
X-6237Y-129576D01*
X-6301Y-129552D01*
X-6333Y-129533D01*
X-6363Y-129528D01*
X-6410Y-129509D01*
X-6417Y-129509D01*
X-6423Y-129507D01*
X-6475Y-129509D01*
X-6497Y-129505D01*
X-6503Y-129505D01*
X-6533Y-129511D01*
X-6609Y-129513D01*
X-6615Y-129516D01*
X-6622Y-129516D01*
X-6671Y-129539D01*
X-6698Y-129545D01*
X-6730Y-129567D01*
X-6791Y-129594D01*
X-6795Y-129599D01*
X-6801Y-129602D01*
X-6838Y-129641D01*
X-6862Y-129657D01*
X-6879Y-129685D01*
X-6915Y-129723D01*
X-8915Y-132723D01*
X-8936Y-132774D01*
X-8966Y-132820D01*
X-8973Y-132865D01*
X-8991Y-132907D01*
X-8990Y-132962D01*
X-8999Y-133017D01*
X-8988Y-133061D01*
X-8988Y-133106D01*
X-8966Y-133157D01*
X-8953Y-133210D01*
X-8926Y-133246D01*
X-8908Y-133288D01*
X-8868Y-133326D01*
X-8835Y-133370D01*
X-8796Y-133393D01*
X-8763Y-133424D01*
X-8711Y-133443D01*
X-8664Y-133472D01*
X-8612Y-133480D01*
X-8577Y-133493D01*
X-8544Y-133492D01*
X-8500Y-133499D01*
X-4500Y-133499D01*
X-4446Y-133488D01*
G37*
D10*
X86000Y216000D02*
X106000Y216000D01*
X106000Y158000D01*
X86000Y158000D01*
X86000Y216000D01*
X71000Y-219000D02*
X105000Y-219000D01*
X105000Y-177000D01*
X71000Y-177000D01*
X71000Y-219000D01*
D11*
X-57470Y226508D02*
X-57470Y235492D01*
X-54974Y235492D01*
X-54875Y235490D01*
X-54776Y235484D01*
X-54677Y235474D01*
X-54579Y235460D01*
X-54481Y235443D01*
X-54384Y235421D01*
X-54288Y235396D01*
X-54193Y235367D01*
X-54100Y235334D01*
X-54007Y235297D01*
X-53917Y235257D01*
X-53828Y235213D01*
X-53740Y235166D01*
X-53655Y235115D01*
X-53572Y235061D01*
X-53491Y235004D01*
X-53412Y234943D01*
X-53336Y234879D01*
X-53262Y234813D01*
X-53192Y234743D01*
X-53124Y234671D01*
X-53058Y234596D01*
X-52996Y234519D01*
X-52937Y234439D01*
X-52882Y234357D01*
X-52829Y234273D01*
X-52780Y234186D01*
X-52734Y234098D01*
X-52692Y234008D01*
X-52654Y233917D01*
X-52619Y233824D01*
X-52588Y233729D01*
X-52561Y233634D01*
X-52537Y233538D01*
X-52518Y233440D01*
X-52502Y233342D01*
X-52490Y233244D01*
X-52482Y233145D01*
X-52478Y233046D01*
X-52478Y232946D01*
X-52482Y232847D01*
X-52490Y232748D01*
X-52502Y232650D01*
X-52518Y232552D01*
X-52537Y232454D01*
X-52561Y232358D01*
X-52588Y232263D01*
X-52619Y232168D01*
X-52654Y232075D01*
X-52692Y231984D01*
X-52734Y231894D01*
X-52780Y231806D01*
X-52829Y231719D01*
X-52882Y231635D01*
X-52937Y231553D01*
X-52996Y231473D01*
X-53058Y231396D01*
X-53124Y231321D01*
X-53192Y231249D01*
X-53262Y231179D01*
X-53336Y231113D01*
X-53412Y231049D01*
X-53491Y230988D01*
X-53572Y230931D01*
X-53655Y230877D01*
X-53740Y230826D01*
X-53828Y230779D01*
X-53917Y230735D01*
X-54007Y230695D01*
X-54100Y230658D01*
X-54193Y230625D01*
X-54288Y230596D01*
X-54384Y230571D01*
X-54481Y230549D01*
X-54579Y230532D01*
X-54677Y230518D01*
X-54776Y230508D01*
X-54875Y230502D01*
X-54974Y230500D01*
X-54974Y230501D02*
X-57470Y230501D01*
X-47328Y230002D02*
X-45082Y230002D01*
X-47328Y230002D02*
X-47410Y230000D01*
X-47492Y229994D01*
X-47573Y229985D01*
X-47654Y229971D01*
X-47734Y229954D01*
X-47813Y229933D01*
X-47891Y229909D01*
X-47968Y229881D01*
X-48044Y229849D01*
X-48117Y229813D01*
X-48190Y229775D01*
X-48260Y229733D01*
X-48328Y229687D01*
X-48394Y229639D01*
X-48458Y229587D01*
X-48519Y229533D01*
X-48578Y229476D01*
X-48634Y229416D01*
X-48687Y229353D01*
X-48737Y229288D01*
X-48783Y229221D01*
X-48827Y229152D01*
X-48868Y229081D01*
X-48905Y229008D01*
X-48938Y228933D01*
X-48968Y228857D01*
X-48994Y228779D01*
X-49017Y228701D01*
X-49036Y228621D01*
X-49052Y228540D01*
X-49063Y228459D01*
X-49071Y228378D01*
X-49075Y228296D01*
X-49075Y228214D01*
X-49071Y228132D01*
X-49063Y228051D01*
X-49052Y227970D01*
X-49036Y227889D01*
X-49017Y227809D01*
X-48994Y227731D01*
X-48968Y227653D01*
X-48938Y227577D01*
X-48905Y227502D01*
X-48868Y227429D01*
X-48827Y227358D01*
X-48783Y227289D01*
X-48737Y227222D01*
X-48687Y227157D01*
X-48634Y227094D01*
X-48578Y227034D01*
X-48519Y226977D01*
X-48458Y226923D01*
X-48394Y226871D01*
X-48328Y226823D01*
X-48260Y226777D01*
X-48190Y226735D01*
X-48117Y226697D01*
X-48044Y226661D01*
X-47968Y226629D01*
X-47891Y226601D01*
X-47813Y226577D01*
X-47734Y226556D01*
X-47654Y226539D01*
X-47573Y226525D01*
X-47492Y226516D01*
X-47410Y226510D01*
X-47328Y226508D01*
X-45082Y226508D01*
X-45082Y231000D01*
X-45084Y231076D01*
X-45090Y231151D01*
X-45099Y231227D01*
X-45113Y231301D01*
X-45130Y231375D01*
X-45151Y231448D01*
X-45175Y231520D01*
X-45203Y231590D01*
X-45235Y231659D01*
X-45270Y231727D01*
X-45309Y231792D01*
X-45350Y231855D01*
X-45395Y231916D01*
X-45443Y231975D01*
X-45494Y232031D01*
X-45548Y232085D01*
X-45604Y232136D01*
X-45663Y232184D01*
X-45724Y232229D01*
X-45787Y232270D01*
X-45853Y232309D01*
X-45920Y232344D01*
X-45989Y232376D01*
X-46059Y232404D01*
X-46131Y232428D01*
X-46204Y232449D01*
X-46278Y232466D01*
X-46352Y232480D01*
X-46428Y232489D01*
X-46503Y232495D01*
X-46579Y232497D01*
X-48576Y232497D01*
X-40173Y230002D02*
X-37678Y229004D01*
X-40174Y230002D02*
X-40238Y230029D01*
X-40301Y230061D01*
X-40362Y230096D01*
X-40422Y230134D01*
X-40479Y230175D01*
X-40534Y230219D01*
X-40586Y230266D01*
X-40635Y230316D01*
X-40682Y230369D01*
X-40726Y230424D01*
X-40767Y230481D01*
X-40805Y230541D01*
X-40839Y230602D01*
X-40870Y230665D01*
X-40898Y230730D01*
X-40921Y230796D01*
X-40942Y230864D01*
X-40958Y230932D01*
X-40971Y231002D01*
X-40980Y231071D01*
X-40986Y231142D01*
X-40987Y231212D01*
X-40985Y231282D01*
X-40978Y231352D01*
X-40968Y231422D01*
X-40954Y231491D01*
X-40937Y231559D01*
X-40916Y231627D01*
X-40891Y231692D01*
X-40862Y231757D01*
X-40831Y231820D01*
X-40795Y231881D01*
X-40757Y231940D01*
X-40715Y231996D01*
X-40671Y232051D01*
X-40623Y232103D01*
X-40573Y232152D01*
X-40520Y232198D01*
X-40464Y232242D01*
X-40407Y232282D01*
X-40347Y232320D01*
X-40285Y232353D01*
X-40222Y232384D01*
X-40157Y232411D01*
X-40091Y232434D01*
X-40023Y232454D01*
X-39954Y232470D01*
X-39885Y232483D01*
X-39815Y232491D01*
X-39745Y232496D01*
X-39675Y232497D01*
X-39674Y232497D02*
X-39529Y232494D01*
X-39385Y232486D01*
X-39240Y232475D01*
X-39096Y232460D01*
X-38953Y232441D01*
X-38810Y232419D01*
X-38667Y232393D01*
X-38525Y232363D01*
X-38385Y232330D01*
X-38244Y232293D01*
X-38105Y232253D01*
X-37967Y232209D01*
X-37831Y232161D01*
X-37695Y232110D01*
X-37561Y232056D01*
X-37428Y231998D01*
X-37677Y229003D02*
X-37613Y228976D01*
X-37550Y228944D01*
X-37489Y228909D01*
X-37429Y228871D01*
X-37372Y228830D01*
X-37317Y228786D01*
X-37265Y228739D01*
X-37216Y228689D01*
X-37169Y228636D01*
X-37125Y228581D01*
X-37084Y228524D01*
X-37046Y228464D01*
X-37012Y228403D01*
X-36981Y228340D01*
X-36953Y228275D01*
X-36930Y228209D01*
X-36909Y228141D01*
X-36893Y228073D01*
X-36880Y228003D01*
X-36871Y227934D01*
X-36865Y227863D01*
X-36864Y227793D01*
X-36866Y227723D01*
X-36873Y227653D01*
X-36883Y227583D01*
X-36897Y227514D01*
X-36914Y227446D01*
X-36935Y227378D01*
X-36960Y227313D01*
X-36989Y227248D01*
X-37020Y227185D01*
X-37056Y227124D01*
X-37094Y227065D01*
X-37136Y227009D01*
X-37180Y226954D01*
X-37228Y226902D01*
X-37278Y226853D01*
X-37331Y226807D01*
X-37387Y226763D01*
X-37444Y226723D01*
X-37504Y226685D01*
X-37566Y226652D01*
X-37629Y226621D01*
X-37694Y226594D01*
X-37760Y226571D01*
X-37828Y226551D01*
X-37897Y226535D01*
X-37966Y226522D01*
X-38036Y226514D01*
X-38106Y226509D01*
X-38176Y226508D01*
X-38177Y226508D02*
X-38377Y226513D01*
X-38577Y226523D01*
X-38777Y226538D01*
X-38976Y226557D01*
X-39175Y226581D01*
X-39373Y226610D01*
X-39570Y226644D01*
X-39767Y226682D01*
X-39962Y226724D01*
X-40157Y226772D01*
X-40350Y226824D01*
X-40542Y226880D01*
X-40733Y226941D01*
X-40922Y227007D01*
X-33905Y232497D02*
X-30911Y232497D01*
X-32907Y235492D02*
X-32907Y228005D01*
X-32905Y227929D01*
X-32899Y227854D01*
X-32890Y227778D01*
X-32876Y227704D01*
X-32859Y227630D01*
X-32838Y227557D01*
X-32814Y227485D01*
X-32786Y227415D01*
X-32754Y227346D01*
X-32719Y227279D01*
X-32680Y227213D01*
X-32639Y227150D01*
X-32594Y227089D01*
X-32546Y227030D01*
X-32495Y226974D01*
X-32441Y226920D01*
X-32385Y226869D01*
X-32326Y226821D01*
X-32265Y226776D01*
X-32202Y226735D01*
X-32136Y226696D01*
X-32069Y226661D01*
X-32000Y226629D01*
X-31930Y226601D01*
X-31858Y226577D01*
X-31785Y226556D01*
X-31711Y226539D01*
X-31637Y226525D01*
X-31561Y226516D01*
X-31486Y226510D01*
X-31410Y226508D01*
X-30911Y226508D01*
X-25728Y230002D02*
X-23482Y230002D01*
X-25728Y230002D02*
X-25810Y230000D01*
X-25892Y229994D01*
X-25973Y229985D01*
X-26054Y229971D01*
X-26134Y229954D01*
X-26213Y229933D01*
X-26291Y229909D01*
X-26368Y229881D01*
X-26444Y229849D01*
X-26517Y229813D01*
X-26590Y229775D01*
X-26660Y229733D01*
X-26728Y229687D01*
X-26794Y229639D01*
X-26858Y229587D01*
X-26919Y229533D01*
X-26978Y229476D01*
X-27034Y229416D01*
X-27087Y229353D01*
X-27137Y229288D01*
X-27183Y229221D01*
X-27227Y229152D01*
X-27268Y229081D01*
X-27305Y229008D01*
X-27338Y228933D01*
X-27368Y228857D01*
X-27394Y228779D01*
X-27417Y228701D01*
X-27436Y228621D01*
X-27452Y228540D01*
X-27463Y228459D01*
X-27471Y228378D01*
X-27475Y228296D01*
X-27475Y228214D01*
X-27471Y228132D01*
X-27463Y228051D01*
X-27452Y227970D01*
X-27436Y227889D01*
X-27417Y227809D01*
X-27394Y227731D01*
X-27368Y227653D01*
X-27338Y227577D01*
X-27305Y227502D01*
X-27268Y227429D01*
X-27227Y227358D01*
X-27183Y227289D01*
X-27137Y227222D01*
X-27087Y227157D01*
X-27034Y227094D01*
X-26978Y227034D01*
X-26919Y226977D01*
X-26858Y226923D01*
X-26794Y226871D01*
X-26728Y226823D01*
X-26660Y226777D01*
X-26590Y226735D01*
X-26517Y226697D01*
X-26444Y226661D01*
X-26368Y226629D01*
X-26291Y226601D01*
X-26213Y226577D01*
X-26134Y226556D01*
X-26054Y226539D01*
X-25973Y226525D01*
X-25892Y226516D01*
X-25810Y226510D01*
X-25728Y226508D01*
X-23482Y226508D01*
X-23482Y231000D01*
X-23484Y231076D01*
X-23490Y231151D01*
X-23499Y231227D01*
X-23513Y231301D01*
X-23530Y231375D01*
X-23551Y231448D01*
X-23575Y231520D01*
X-23603Y231590D01*
X-23635Y231659D01*
X-23670Y231727D01*
X-23709Y231792D01*
X-23750Y231855D01*
X-23795Y231916D01*
X-23843Y231975D01*
X-23894Y232031D01*
X-23948Y232085D01*
X-24004Y232136D01*
X-24063Y232184D01*
X-24124Y232229D01*
X-24187Y232270D01*
X-24253Y232309D01*
X-24320Y232344D01*
X-24389Y232376D01*
X-24459Y232404D01*
X-24531Y232428D01*
X-24604Y232449D01*
X-24678Y232466D01*
X-24752Y232480D01*
X-24828Y232489D01*
X-24903Y232495D01*
X-24979Y232497D01*
X-26976Y232497D01*
X-14101Y226508D02*
X-10108Y226508D01*
X-14101Y226508D02*
X-14101Y235492D01*
X-10108Y235492D01*
X-11106Y231499D02*
X-14101Y231499D01*
X-6422Y232497D02*
X-6422Y226508D01*
X-6422Y232497D02*
X-3927Y232497D01*
X-3851Y232495D01*
X-3776Y232489D01*
X-3700Y232480D01*
X-3626Y232466D01*
X-3552Y232449D01*
X-3479Y232428D01*
X-3407Y232404D01*
X-3337Y232376D01*
X-3268Y232344D01*
X-3201Y232309D01*
X-3135Y232270D01*
X-3072Y232229D01*
X-3011Y232184D01*
X-2952Y232136D01*
X-2896Y232085D01*
X-2842Y232031D01*
X-2791Y231975D01*
X-2743Y231916D01*
X-2698Y231855D01*
X-2657Y231792D01*
X-2618Y231727D01*
X-2583Y231659D01*
X-2551Y231590D01*
X-2523Y231520D01*
X-2499Y231448D01*
X-2478Y231375D01*
X-2461Y231301D01*
X-2447Y231227D01*
X-2438Y231152D01*
X-2432Y231076D01*
X-2430Y231000D01*
X-2429Y231000D02*
X-2429Y226508D01*
X3187Y226508D02*
X5184Y226508D01*
X3187Y226508D02*
X3111Y226510D01*
X3036Y226516D01*
X2960Y226525D01*
X2886Y226539D01*
X2812Y226556D01*
X2739Y226577D01*
X2667Y226601D01*
X2597Y226629D01*
X2528Y226661D01*
X2461Y226696D01*
X2395Y226735D01*
X2332Y226776D01*
X2271Y226821D01*
X2212Y226869D01*
X2156Y226920D01*
X2102Y226974D01*
X2051Y227030D01*
X2003Y227089D01*
X1958Y227150D01*
X1917Y227213D01*
X1878Y227279D01*
X1843Y227346D01*
X1811Y227415D01*
X1783Y227485D01*
X1759Y227557D01*
X1738Y227630D01*
X1721Y227704D01*
X1707Y227778D01*
X1698Y227854D01*
X1692Y227929D01*
X1690Y228005D01*
X1690Y231000D01*
X1692Y231076D01*
X1698Y231151D01*
X1707Y231227D01*
X1721Y231301D01*
X1738Y231375D01*
X1759Y231448D01*
X1783Y231520D01*
X1811Y231590D01*
X1843Y231659D01*
X1878Y231726D01*
X1917Y231792D01*
X1958Y231855D01*
X2003Y231916D01*
X2051Y231975D01*
X2102Y232031D01*
X2156Y232085D01*
X2212Y232136D01*
X2271Y232184D01*
X2332Y232229D01*
X2395Y232270D01*
X2461Y232309D01*
X2528Y232344D01*
X2597Y232376D01*
X2667Y232404D01*
X2739Y232428D01*
X2812Y232449D01*
X2886Y232466D01*
X2960Y232480D01*
X3036Y232489D01*
X3111Y232495D01*
X3187Y232497D01*
X5184Y232497D01*
X8578Y230501D02*
X8578Y228504D01*
X8578Y230501D02*
X8580Y230589D01*
X8586Y230677D01*
X8596Y230765D01*
X8609Y230852D01*
X8627Y230939D01*
X8648Y231025D01*
X8673Y231109D01*
X8702Y231193D01*
X8734Y231275D01*
X8770Y231356D01*
X8810Y231435D01*
X8853Y231512D01*
X8899Y231587D01*
X8949Y231660D01*
X9002Y231731D01*
X9058Y231799D01*
X9117Y231865D01*
X9178Y231928D01*
X9243Y231988D01*
X9310Y232046D01*
X9379Y232100D01*
X9451Y232151D01*
X9525Y232199D01*
X9602Y232244D01*
X9680Y232285D01*
X9759Y232323D01*
X9841Y232357D01*
X9924Y232388D01*
X10008Y232415D01*
X10093Y232438D01*
X10179Y232458D01*
X10266Y232473D01*
X10354Y232485D01*
X10442Y232493D01*
X10530Y232497D01*
X10618Y232497D01*
X10706Y232493D01*
X10794Y232485D01*
X10882Y232473D01*
X10969Y232458D01*
X11055Y232438D01*
X11140Y232415D01*
X11224Y232388D01*
X11307Y232357D01*
X11389Y232323D01*
X11468Y232285D01*
X11546Y232244D01*
X11623Y232199D01*
X11697Y232151D01*
X11769Y232100D01*
X11838Y232046D01*
X11905Y231988D01*
X11970Y231928D01*
X12031Y231865D01*
X12090Y231799D01*
X12146Y231731D01*
X12199Y231660D01*
X12249Y231587D01*
X12295Y231512D01*
X12338Y231435D01*
X12378Y231356D01*
X12414Y231275D01*
X12446Y231193D01*
X12475Y231109D01*
X12500Y231025D01*
X12521Y230939D01*
X12539Y230852D01*
X12552Y230765D01*
X12562Y230677D01*
X12568Y230589D01*
X12570Y230501D01*
X12571Y230501D02*
X12571Y228504D01*
X12570Y228504D02*
X12568Y228416D01*
X12562Y228328D01*
X12552Y228240D01*
X12539Y228153D01*
X12521Y228066D01*
X12500Y227980D01*
X12475Y227896D01*
X12446Y227812D01*
X12414Y227730D01*
X12378Y227649D01*
X12338Y227570D01*
X12295Y227493D01*
X12249Y227418D01*
X12199Y227345D01*
X12146Y227274D01*
X12090Y227206D01*
X12031Y227140D01*
X11970Y227077D01*
X11905Y227017D01*
X11838Y226959D01*
X11769Y226905D01*
X11697Y226854D01*
X11623Y226806D01*
X11546Y226761D01*
X11468Y226720D01*
X11389Y226682D01*
X11307Y226648D01*
X11224Y226617D01*
X11140Y226590D01*
X11055Y226567D01*
X10969Y226547D01*
X10882Y226532D01*
X10794Y226520D01*
X10706Y226512D01*
X10618Y226508D01*
X10530Y226508D01*
X10442Y226512D01*
X10354Y226520D01*
X10266Y226532D01*
X10179Y226547D01*
X10093Y226567D01*
X10008Y226590D01*
X9924Y226617D01*
X9841Y226648D01*
X9759Y226682D01*
X9680Y226720D01*
X9602Y226761D01*
X9525Y226806D01*
X9451Y226854D01*
X9379Y226905D01*
X9310Y226959D01*
X9243Y227017D01*
X9178Y227077D01*
X9117Y227140D01*
X9058Y227206D01*
X9002Y227274D01*
X8949Y227345D01*
X8899Y227418D01*
X8853Y227493D01*
X8810Y227570D01*
X8770Y227649D01*
X8734Y227730D01*
X8702Y227812D01*
X8673Y227896D01*
X8648Y227980D01*
X8627Y228066D01*
X8609Y228153D01*
X8596Y228240D01*
X8586Y228328D01*
X8580Y228416D01*
X8578Y228504D01*
X20318Y226508D02*
X20318Y235492D01*
X20318Y226508D02*
X17823Y226508D01*
X17747Y226510D01*
X17672Y226516D01*
X17596Y226525D01*
X17522Y226539D01*
X17448Y226556D01*
X17375Y226577D01*
X17303Y226601D01*
X17233Y226629D01*
X17164Y226661D01*
X17097Y226696D01*
X17031Y226735D01*
X16968Y226776D01*
X16907Y226821D01*
X16848Y226869D01*
X16792Y226920D01*
X16738Y226974D01*
X16687Y227030D01*
X16639Y227089D01*
X16594Y227150D01*
X16553Y227213D01*
X16514Y227279D01*
X16479Y227346D01*
X16447Y227415D01*
X16419Y227485D01*
X16395Y227557D01*
X16374Y227630D01*
X16357Y227704D01*
X16343Y227778D01*
X16334Y227854D01*
X16328Y227929D01*
X16326Y228005D01*
X16325Y228005D02*
X16325Y231000D01*
X16326Y231000D02*
X16328Y231076D01*
X16334Y231151D01*
X16343Y231227D01*
X16357Y231301D01*
X16374Y231375D01*
X16395Y231448D01*
X16419Y231520D01*
X16447Y231590D01*
X16479Y231659D01*
X16514Y231726D01*
X16553Y231792D01*
X16594Y231855D01*
X16639Y231916D01*
X16687Y231975D01*
X16738Y232031D01*
X16792Y232085D01*
X16848Y232136D01*
X16907Y232184D01*
X16968Y232229D01*
X17031Y232270D01*
X17097Y232309D01*
X17164Y232344D01*
X17233Y232376D01*
X17303Y232404D01*
X17375Y232428D01*
X17448Y232449D01*
X17522Y232466D01*
X17596Y232480D01*
X17672Y232489D01*
X17747Y232495D01*
X17823Y232497D01*
X20318Y232497D01*
X25975Y226508D02*
X28471Y226508D01*
X25975Y226508D02*
X25899Y226510D01*
X25824Y226516D01*
X25748Y226525D01*
X25674Y226539D01*
X25600Y226556D01*
X25527Y226577D01*
X25455Y226601D01*
X25385Y226629D01*
X25316Y226661D01*
X25249Y226696D01*
X25183Y226735D01*
X25120Y226776D01*
X25059Y226821D01*
X25000Y226869D01*
X24944Y226920D01*
X24890Y226974D01*
X24839Y227030D01*
X24791Y227089D01*
X24746Y227150D01*
X24705Y227213D01*
X24666Y227279D01*
X24631Y227346D01*
X24599Y227415D01*
X24571Y227485D01*
X24547Y227557D01*
X24526Y227630D01*
X24509Y227704D01*
X24495Y227778D01*
X24486Y227854D01*
X24480Y227929D01*
X24478Y228005D01*
X24478Y230501D01*
X24480Y230589D01*
X24486Y230677D01*
X24496Y230765D01*
X24509Y230852D01*
X24527Y230939D01*
X24548Y231025D01*
X24573Y231109D01*
X24602Y231193D01*
X24634Y231275D01*
X24670Y231356D01*
X24710Y231435D01*
X24753Y231512D01*
X24799Y231587D01*
X24849Y231660D01*
X24902Y231731D01*
X24958Y231799D01*
X25017Y231865D01*
X25078Y231928D01*
X25143Y231988D01*
X25210Y232046D01*
X25279Y232100D01*
X25351Y232151D01*
X25425Y232199D01*
X25502Y232244D01*
X25580Y232285D01*
X25659Y232323D01*
X25741Y232357D01*
X25824Y232388D01*
X25908Y232415D01*
X25993Y232438D01*
X26079Y232458D01*
X26166Y232473D01*
X26254Y232485D01*
X26342Y232493D01*
X26430Y232497D01*
X26518Y232497D01*
X26606Y232493D01*
X26694Y232485D01*
X26782Y232473D01*
X26869Y232458D01*
X26955Y232438D01*
X27040Y232415D01*
X27124Y232388D01*
X27207Y232357D01*
X27289Y232323D01*
X27368Y232285D01*
X27446Y232244D01*
X27523Y232199D01*
X27597Y232151D01*
X27669Y232100D01*
X27738Y232046D01*
X27805Y231988D01*
X27870Y231928D01*
X27931Y231865D01*
X27990Y231799D01*
X28046Y231731D01*
X28099Y231660D01*
X28149Y231587D01*
X28195Y231512D01*
X28238Y231435D01*
X28278Y231356D01*
X28314Y231275D01*
X28346Y231193D01*
X28375Y231109D01*
X28400Y231025D01*
X28421Y230939D01*
X28439Y230852D01*
X28452Y230765D01*
X28462Y230677D01*
X28468Y230589D01*
X28470Y230501D01*
X28471Y230501D02*
X28471Y229503D01*
X24478Y229503D01*
X32637Y232497D02*
X32637Y226508D01*
X32637Y232497D02*
X35632Y232497D01*
X35632Y231499D01*
X43479Y231000D02*
X43481Y231177D01*
X43487Y231353D01*
X43498Y231530D01*
X43513Y231706D01*
X43532Y231882D01*
X43555Y232057D01*
X43582Y232231D01*
X43614Y232405D01*
X43649Y232578D01*
X43689Y232751D01*
X43733Y232922D01*
X43781Y233092D01*
X43833Y233261D01*
X43889Y233428D01*
X43949Y233595D01*
X44013Y233760D01*
X44080Y233923D01*
X44152Y234084D01*
X44228Y234244D01*
X44227Y234244D02*
X44256Y234324D01*
X44289Y234402D01*
X44326Y234478D01*
X44366Y234553D01*
X44409Y234626D01*
X44456Y234697D01*
X44506Y234766D01*
X44559Y234832D01*
X44615Y234896D01*
X44674Y234957D01*
X44735Y235015D01*
X44800Y235070D01*
X44866Y235123D01*
X44935Y235172D01*
X45007Y235218D01*
X45080Y235261D01*
X45155Y235300D01*
X45232Y235336D01*
X45310Y235369D01*
X45390Y235397D01*
X45471Y235422D01*
X45553Y235443D01*
X45636Y235461D01*
X45720Y235474D01*
X45805Y235484D01*
X45889Y235490D01*
X45974Y235492D01*
X46059Y235490D01*
X46143Y235484D01*
X46228Y235474D01*
X46312Y235461D01*
X46395Y235443D01*
X46477Y235422D01*
X46558Y235397D01*
X46638Y235369D01*
X46716Y235336D01*
X46793Y235300D01*
X46868Y235261D01*
X46942Y235218D01*
X47013Y235172D01*
X47082Y235123D01*
X47148Y235070D01*
X47213Y235015D01*
X47274Y234957D01*
X47333Y234896D01*
X47389Y234832D01*
X47442Y234766D01*
X47492Y234697D01*
X47539Y234626D01*
X47582Y234553D01*
X47622Y234478D01*
X47659Y234402D01*
X47692Y234324D01*
X47721Y234244D01*
X47797Y234085D01*
X47869Y233923D01*
X47936Y233760D01*
X48000Y233595D01*
X48060Y233429D01*
X48116Y233261D01*
X48168Y233092D01*
X48216Y232922D01*
X48260Y232751D01*
X48300Y232579D01*
X48335Y232405D01*
X48367Y232232D01*
X48394Y232057D01*
X48417Y231882D01*
X48436Y231706D01*
X48451Y231530D01*
X48462Y231353D01*
X48468Y231177D01*
X48470Y231000D01*
X43478Y231000D02*
X43480Y230823D01*
X43486Y230647D01*
X43497Y230470D01*
X43512Y230294D01*
X43531Y230118D01*
X43554Y229943D01*
X43581Y229768D01*
X43613Y229595D01*
X43648Y229421D01*
X43688Y229249D01*
X43732Y229078D01*
X43780Y228908D01*
X43832Y228739D01*
X43888Y228571D01*
X43948Y228405D01*
X44012Y228240D01*
X44079Y228077D01*
X44151Y227915D01*
X44227Y227756D01*
X44256Y227676D01*
X44289Y227598D01*
X44326Y227522D01*
X44366Y227447D01*
X44409Y227374D01*
X44456Y227303D01*
X44506Y227234D01*
X44559Y227168D01*
X44615Y227104D01*
X44674Y227043D01*
X44735Y226985D01*
X44800Y226930D01*
X44866Y226877D01*
X44935Y226828D01*
X45007Y226782D01*
X45080Y226739D01*
X45155Y226700D01*
X45232Y226664D01*
X45310Y226631D01*
X45390Y226603D01*
X45471Y226578D01*
X45553Y226557D01*
X45636Y226539D01*
X45720Y226526D01*
X45805Y226516D01*
X45889Y226510D01*
X45974Y226508D01*
X47721Y227756D02*
X47797Y227915D01*
X47869Y228077D01*
X47936Y228240D01*
X48000Y228405D01*
X48060Y228571D01*
X48116Y228739D01*
X48168Y228908D01*
X48216Y229078D01*
X48260Y229249D01*
X48300Y229421D01*
X48335Y229595D01*
X48367Y229768D01*
X48394Y229943D01*
X48417Y230118D01*
X48436Y230294D01*
X48451Y230470D01*
X48462Y230647D01*
X48468Y230823D01*
X48470Y231000D01*
X47721Y227756D02*
X47692Y227676D01*
X47659Y227598D01*
X47622Y227522D01*
X47582Y227447D01*
X47539Y227374D01*
X47492Y227303D01*
X47442Y227234D01*
X47389Y227168D01*
X47333Y227104D01*
X47274Y227043D01*
X47213Y226985D01*
X47148Y226930D01*
X47082Y226877D01*
X47013Y226828D01*
X46941Y226782D01*
X46868Y226739D01*
X46793Y226700D01*
X46716Y226664D01*
X46638Y226631D01*
X46558Y226603D01*
X46477Y226578D01*
X46395Y226557D01*
X46312Y226539D01*
X46228Y226526D01*
X46143Y226516D01*
X46059Y226510D01*
X45974Y226508D01*
X43978Y228504D02*
X47971Y233496D01*
X52479Y226508D02*
X55473Y226508D01*
X55560Y226510D01*
X55647Y226516D01*
X55734Y226525D01*
X55820Y226538D01*
X55905Y226555D01*
X55990Y226576D01*
X56073Y226600D01*
X56156Y226628D01*
X56237Y226660D01*
X56317Y226695D01*
X56395Y226734D01*
X56471Y226775D01*
X56545Y226821D01*
X56618Y226869D01*
X56688Y226920D01*
X56756Y226975D01*
X56821Y227032D01*
X56884Y227093D01*
X56945Y227156D01*
X57002Y227221D01*
X57057Y227289D01*
X57108Y227359D01*
X57156Y227432D01*
X57202Y227506D01*
X57243Y227582D01*
X57282Y227660D01*
X57317Y227740D01*
X57349Y227821D01*
X57377Y227904D01*
X57401Y227987D01*
X57422Y228072D01*
X57439Y228157D01*
X57452Y228243D01*
X57461Y228330D01*
X57467Y228417D01*
X57469Y228504D01*
X57470Y228504D02*
X57470Y229503D01*
X57469Y229503D02*
X57467Y229590D01*
X57461Y229677D01*
X57452Y229764D01*
X57439Y229850D01*
X57422Y229935D01*
X57401Y230020D01*
X57377Y230103D01*
X57349Y230186D01*
X57317Y230267D01*
X57282Y230347D01*
X57243Y230425D01*
X57202Y230501D01*
X57156Y230575D01*
X57108Y230648D01*
X57057Y230718D01*
X57002Y230786D01*
X56945Y230851D01*
X56884Y230914D01*
X56821Y230975D01*
X56756Y231032D01*
X56688Y231087D01*
X56618Y231138D01*
X56545Y231186D01*
X56471Y231232D01*
X56395Y231273D01*
X56317Y231312D01*
X56237Y231347D01*
X56156Y231379D01*
X56073Y231407D01*
X55990Y231431D01*
X55905Y231452D01*
X55820Y231469D01*
X55734Y231482D01*
X55647Y231491D01*
X55560Y231497D01*
X55473Y231499D01*
X52479Y231499D01*
X52479Y235492D01*
X57470Y235492D01*
D12*
X-43500Y-8500D02*
X-58500Y-8500D01*
X-58500Y24500D01*
X-43500Y24500D01*
X-43500Y-8500D01*
D11*
X-63508Y-5264D02*
X-63508Y-3267D01*
X-63508Y-5264D02*
X-63510Y-5351D01*
X-63516Y-5438D01*
X-63525Y-5525D01*
X-63538Y-5611D01*
X-63555Y-5696D01*
X-63576Y-5781D01*
X-63600Y-5864D01*
X-63628Y-5947D01*
X-63660Y-6028D01*
X-63695Y-6108D01*
X-63734Y-6186D01*
X-63775Y-6262D01*
X-63821Y-6336D01*
X-63869Y-6409D01*
X-63920Y-6479D01*
X-63975Y-6547D01*
X-64032Y-6612D01*
X-64093Y-6675D01*
X-64156Y-6736D01*
X-64221Y-6793D01*
X-64289Y-6848D01*
X-64359Y-6899D01*
X-64432Y-6947D01*
X-64506Y-6993D01*
X-64582Y-7034D01*
X-64660Y-7073D01*
X-64740Y-7108D01*
X-64821Y-7140D01*
X-64904Y-7168D01*
X-64987Y-7192D01*
X-65072Y-7213D01*
X-65157Y-7230D01*
X-65243Y-7243D01*
X-65330Y-7252D01*
X-65417Y-7258D01*
X-65504Y-7260D01*
X-70496Y-7260D01*
X-70583Y-7258D01*
X-70670Y-7252D01*
X-70757Y-7243D01*
X-70843Y-7230D01*
X-70928Y-7213D01*
X-71013Y-7192D01*
X-71096Y-7168D01*
X-71179Y-7140D01*
X-71260Y-7108D01*
X-71340Y-7073D01*
X-71418Y-7034D01*
X-71494Y-6993D01*
X-71568Y-6947D01*
X-71641Y-6899D01*
X-71711Y-6848D01*
X-71779Y-6793D01*
X-71844Y-6736D01*
X-71907Y-6675D01*
X-71968Y-6612D01*
X-72025Y-6547D01*
X-72080Y-6479D01*
X-72131Y-6409D01*
X-72179Y-6336D01*
X-72225Y-6262D01*
X-72266Y-6186D01*
X-72305Y-6108D01*
X-72340Y-6028D01*
X-72372Y-5947D01*
X-72400Y-5864D01*
X-72424Y-5781D01*
X-72445Y-5696D01*
X-72462Y-5611D01*
X-72475Y-5525D01*
X-72484Y-5438D01*
X-72490Y-5351D01*
X-72492Y-5264D01*
X-72492Y-3267D01*
X-70496Y269D02*
X-72492Y2765D01*
X-63508Y2765D01*
X-63508Y5260D02*
X-63508Y269D01*
X-68000Y9270D02*
X-68177Y9272D01*
X-68353Y9278D01*
X-68530Y9289D01*
X-68706Y9304D01*
X-68882Y9323D01*
X-69057Y9346D01*
X-69231Y9373D01*
X-69405Y9405D01*
X-69578Y9440D01*
X-69751Y9480D01*
X-69922Y9524D01*
X-70092Y9572D01*
X-70261Y9624D01*
X-70428Y9680D01*
X-70595Y9740D01*
X-70760Y9804D01*
X-70923Y9871D01*
X-71084Y9943D01*
X-71244Y10019D01*
X-71244Y10018D02*
X-71324Y10047D01*
X-71402Y10080D01*
X-71478Y10117D01*
X-71553Y10157D01*
X-71626Y10200D01*
X-71697Y10247D01*
X-71766Y10297D01*
X-71832Y10350D01*
X-71896Y10406D01*
X-71957Y10465D01*
X-72015Y10526D01*
X-72070Y10591D01*
X-72123Y10657D01*
X-72172Y10726D01*
X-72218Y10798D01*
X-72261Y10871D01*
X-72300Y10946D01*
X-72336Y11023D01*
X-72369Y11101D01*
X-72397Y11181D01*
X-72422Y11262D01*
X-72443Y11344D01*
X-72461Y11427D01*
X-72474Y11511D01*
X-72484Y11596D01*
X-72490Y11680D01*
X-72492Y11765D01*
X-72490Y11850D01*
X-72484Y11934D01*
X-72474Y12019D01*
X-72461Y12103D01*
X-72443Y12186D01*
X-72422Y12268D01*
X-72397Y12349D01*
X-72369Y12429D01*
X-72336Y12507D01*
X-72300Y12584D01*
X-72261Y12659D01*
X-72218Y12733D01*
X-72172Y12804D01*
X-72123Y12873D01*
X-72070Y12939D01*
X-72015Y13004D01*
X-71957Y13065D01*
X-71896Y13124D01*
X-71832Y13180D01*
X-71766Y13233D01*
X-71697Y13283D01*
X-71626Y13330D01*
X-71553Y13373D01*
X-71478Y13413D01*
X-71402Y13450D01*
X-71324Y13483D01*
X-71244Y13512D01*
X-71085Y13588D01*
X-70923Y13660D01*
X-70760Y13727D01*
X-70595Y13791D01*
X-70429Y13851D01*
X-70261Y13907D01*
X-70092Y13959D01*
X-69922Y14007D01*
X-69751Y14051D01*
X-69579Y14091D01*
X-69405Y14126D01*
X-69232Y14158D01*
X-69057Y14185D01*
X-68882Y14208D01*
X-68706Y14227D01*
X-68530Y14242D01*
X-68353Y14253D01*
X-68177Y14259D01*
X-68000Y14261D01*
X-68000Y9269D02*
X-67823Y9271D01*
X-67647Y9277D01*
X-67470Y9288D01*
X-67294Y9303D01*
X-67118Y9322D01*
X-66943Y9345D01*
X-66768Y9372D01*
X-66595Y9404D01*
X-66421Y9439D01*
X-66249Y9479D01*
X-66078Y9523D01*
X-65908Y9571D01*
X-65739Y9623D01*
X-65571Y9679D01*
X-65405Y9739D01*
X-65240Y9803D01*
X-65077Y9870D01*
X-64915Y9942D01*
X-64756Y10018D01*
X-64676Y10047D01*
X-64598Y10080D01*
X-64522Y10117D01*
X-64447Y10157D01*
X-64374Y10200D01*
X-64303Y10247D01*
X-64234Y10297D01*
X-64168Y10350D01*
X-64104Y10406D01*
X-64043Y10465D01*
X-63985Y10526D01*
X-63930Y10591D01*
X-63877Y10657D01*
X-63828Y10726D01*
X-63782Y10798D01*
X-63739Y10871D01*
X-63700Y10946D01*
X-63664Y11023D01*
X-63631Y11101D01*
X-63603Y11181D01*
X-63578Y11262D01*
X-63557Y11344D01*
X-63539Y11427D01*
X-63526Y11511D01*
X-63516Y11596D01*
X-63510Y11680D01*
X-63508Y11765D01*
X-64756Y13512D02*
X-64915Y13588D01*
X-65077Y13660D01*
X-65240Y13727D01*
X-65405Y13791D01*
X-65571Y13851D01*
X-65739Y13907D01*
X-65908Y13959D01*
X-66078Y14007D01*
X-66249Y14051D01*
X-66421Y14091D01*
X-66595Y14126D01*
X-66768Y14158D01*
X-66943Y14185D01*
X-67118Y14208D01*
X-67294Y14227D01*
X-67470Y14242D01*
X-67647Y14253D01*
X-67823Y14259D01*
X-68000Y14261D01*
X-64756Y13512D02*
X-64676Y13483D01*
X-64598Y13450D01*
X-64522Y13413D01*
X-64447Y13373D01*
X-64374Y13330D01*
X-64303Y13283D01*
X-64234Y13233D01*
X-64168Y13180D01*
X-64104Y13124D01*
X-64043Y13065D01*
X-63985Y13004D01*
X-63930Y12939D01*
X-63877Y12873D01*
X-63828Y12804D01*
X-63782Y12732D01*
X-63739Y12659D01*
X-63700Y12584D01*
X-63664Y12507D01*
X-63631Y12429D01*
X-63603Y12349D01*
X-63578Y12268D01*
X-63557Y12186D01*
X-63539Y12103D01*
X-63526Y12019D01*
X-63516Y11934D01*
X-63510Y11850D01*
X-63508Y11765D01*
X-65504Y9768D02*
X-70496Y13761D01*
X-72492Y21014D02*
X-72490Y21107D01*
X-72484Y21199D01*
X-72475Y21292D01*
X-72461Y21384D01*
X-72444Y21475D01*
X-72423Y21565D01*
X-72399Y21655D01*
X-72370Y21743D01*
X-72338Y21830D01*
X-72303Y21916D01*
X-72264Y22000D01*
X-72221Y22083D01*
X-72175Y22164D01*
X-72126Y22242D01*
X-72074Y22319D01*
X-72018Y22394D01*
X-71960Y22466D01*
X-71898Y22535D01*
X-71834Y22602D01*
X-71767Y22666D01*
X-71698Y22728D01*
X-71626Y22786D01*
X-71551Y22842D01*
X-71474Y22894D01*
X-71396Y22943D01*
X-71315Y22989D01*
X-71232Y23032D01*
X-71148Y23071D01*
X-71062Y23106D01*
X-70975Y23138D01*
X-70887Y23167D01*
X-70797Y23191D01*
X-70707Y23212D01*
X-70616Y23229D01*
X-70524Y23243D01*
X-70431Y23252D01*
X-70339Y23258D01*
X-70246Y23260D01*
X-72493Y21014D02*
X-72491Y20907D01*
X-72485Y20801D01*
X-72475Y20694D01*
X-72461Y20589D01*
X-72444Y20483D01*
X-72422Y20379D01*
X-72397Y20275D01*
X-72368Y20172D01*
X-72335Y20071D01*
X-72298Y19971D01*
X-72257Y19872D01*
X-72213Y19775D01*
X-72166Y19679D01*
X-72115Y19585D01*
X-72060Y19494D01*
X-72002Y19404D01*
X-71941Y19317D01*
X-71877Y19231D01*
X-71809Y19149D01*
X-71739Y19069D01*
X-71665Y18991D01*
X-71589Y18916D01*
X-71510Y18844D01*
X-71429Y18776D01*
X-71345Y18710D01*
X-71258Y18647D01*
X-71170Y18588D01*
X-71079Y18531D01*
X-70986Y18479D01*
X-70891Y18429D01*
X-70795Y18384D01*
X-70697Y18342D01*
X-70597Y18303D01*
X-70496Y18268D01*
X-68499Y22512D02*
X-68568Y22582D01*
X-68639Y22648D01*
X-68713Y22712D01*
X-68790Y22772D01*
X-68869Y22830D01*
X-68950Y22884D01*
X-69034Y22934D01*
X-69119Y22982D01*
X-69207Y23026D01*
X-69296Y23066D01*
X-69386Y23103D01*
X-69478Y23136D01*
X-69571Y23165D01*
X-69666Y23190D01*
X-69761Y23212D01*
X-69857Y23229D01*
X-69954Y23243D01*
X-70051Y23253D01*
X-70148Y23259D01*
X-70246Y23261D01*
X-68499Y22512D02*
X-63508Y18269D01*
X-63508Y23260D01*
D12*
X-80000Y162500D02*
X-80000Y199500D01*
X-80000Y162500D02*
X-100000Y162500D01*
X-100000Y199500D01*
X-80000Y199500D01*
D11*
X-85428Y204540D02*
X-85428Y206572D01*
X-85428Y204540D02*
X-85430Y204451D01*
X-85436Y204363D01*
X-85445Y204275D01*
X-85459Y204187D01*
X-85476Y204100D01*
X-85497Y204014D01*
X-85522Y203929D01*
X-85551Y203845D01*
X-85583Y203762D01*
X-85618Y203681D01*
X-85658Y203602D01*
X-85700Y203524D01*
X-85746Y203448D01*
X-85795Y203374D01*
X-85848Y203303D01*
X-85903Y203234D01*
X-85962Y203167D01*
X-86023Y203103D01*
X-86087Y203042D01*
X-86154Y202983D01*
X-86223Y202928D01*
X-86294Y202875D01*
X-86368Y202826D01*
X-86444Y202780D01*
X-86522Y202738D01*
X-86601Y202698D01*
X-86682Y202663D01*
X-86765Y202631D01*
X-86849Y202602D01*
X-86934Y202577D01*
X-87020Y202556D01*
X-87107Y202539D01*
X-87195Y202525D01*
X-87283Y202516D01*
X-87371Y202510D01*
X-87460Y202508D01*
X-92540Y202508D01*
X-92629Y202510D01*
X-92717Y202516D01*
X-92805Y202525D01*
X-92893Y202539D01*
X-92980Y202556D01*
X-93066Y202577D01*
X-93151Y202602D01*
X-93235Y202631D01*
X-93318Y202663D01*
X-93399Y202698D01*
X-93478Y202738D01*
X-93556Y202780D01*
X-93632Y202826D01*
X-93706Y202875D01*
X-93777Y202928D01*
X-93846Y202983D01*
X-93913Y203042D01*
X-93977Y203103D01*
X-94038Y203167D01*
X-94097Y203234D01*
X-94152Y203303D01*
X-94205Y203374D01*
X-94254Y203448D01*
X-94300Y203524D01*
X-94342Y203602D01*
X-94382Y203681D01*
X-94417Y203762D01*
X-94449Y203845D01*
X-94478Y203929D01*
X-94503Y204014D01*
X-94524Y204100D01*
X-94541Y204187D01*
X-94555Y204275D01*
X-94564Y204363D01*
X-94570Y204451D01*
X-94572Y204540D01*
X-94572Y206572D01*
X-92540Y210158D02*
X-94572Y212698D01*
X-85428Y212698D01*
X-85428Y210158D02*
X-85428Y215238D01*
X-90000Y219302D02*
X-90180Y219304D01*
X-90360Y219311D01*
X-90539Y219321D01*
X-90718Y219336D01*
X-90897Y219356D01*
X-91076Y219379D01*
X-91253Y219407D01*
X-91430Y219439D01*
X-91607Y219475D01*
X-91782Y219516D01*
X-91956Y219560D01*
X-92129Y219609D01*
X-92301Y219662D01*
X-92472Y219719D01*
X-92641Y219780D01*
X-92809Y219845D01*
X-92975Y219914D01*
X-93139Y219987D01*
X-93302Y220064D01*
X-93380Y220092D01*
X-93457Y220125D01*
X-93532Y220160D01*
X-93606Y220199D01*
X-93678Y220241D01*
X-93747Y220286D01*
X-93815Y220335D01*
X-93881Y220386D01*
X-93944Y220440D01*
X-94005Y220497D01*
X-94064Y220556D01*
X-94119Y220618D01*
X-94172Y220683D01*
X-94222Y220749D01*
X-94269Y220818D01*
X-94313Y220889D01*
X-94353Y220962D01*
X-94390Y221036D01*
X-94425Y221112D01*
X-94455Y221190D01*
X-94482Y221268D01*
X-94506Y221348D01*
X-94526Y221429D01*
X-94543Y221511D01*
X-94555Y221593D01*
X-94565Y221676D01*
X-94570Y221759D01*
X-94572Y221842D01*
X-94570Y221925D01*
X-94565Y222008D01*
X-94555Y222091D01*
X-94543Y222173D01*
X-94526Y222255D01*
X-94506Y222336D01*
X-94482Y222416D01*
X-94455Y222494D01*
X-94425Y222572D01*
X-94390Y222648D01*
X-94353Y222722D01*
X-94313Y222795D01*
X-94269Y222866D01*
X-94222Y222935D01*
X-94172Y223001D01*
X-94119Y223066D01*
X-94064Y223128D01*
X-94005Y223187D01*
X-93944Y223244D01*
X-93881Y223298D01*
X-93815Y223349D01*
X-93747Y223398D01*
X-93678Y223443D01*
X-93606Y223485D01*
X-93532Y223524D01*
X-93457Y223559D01*
X-93380Y223592D01*
X-93302Y223620D01*
X-93139Y223697D01*
X-92975Y223770D01*
X-92809Y223839D01*
X-92641Y223904D01*
X-92472Y223965D01*
X-92301Y224022D01*
X-92129Y224075D01*
X-91956Y224124D01*
X-91782Y224168D01*
X-91607Y224209D01*
X-91430Y224245D01*
X-91253Y224277D01*
X-91076Y224305D01*
X-90897Y224328D01*
X-90718Y224348D01*
X-90539Y224363D01*
X-90360Y224373D01*
X-90180Y224380D01*
X-90000Y224382D01*
X-90000Y219302D02*
X-89820Y219304D01*
X-89640Y219311D01*
X-89461Y219321D01*
X-89282Y219336D01*
X-89103Y219356D01*
X-88924Y219379D01*
X-88747Y219407D01*
X-88570Y219439D01*
X-88393Y219475D01*
X-88218Y219516D01*
X-88044Y219560D01*
X-87871Y219609D01*
X-87699Y219662D01*
X-87528Y219719D01*
X-87359Y219780D01*
X-87191Y219845D01*
X-87025Y219914D01*
X-86861Y219987D01*
X-86698Y220064D01*
X-86620Y220092D01*
X-86543Y220125D01*
X-86468Y220160D01*
X-86394Y220199D01*
X-86322Y220241D01*
X-86253Y220286D01*
X-86185Y220335D01*
X-86119Y220386D01*
X-86056Y220440D01*
X-85995Y220497D01*
X-85936Y220556D01*
X-85881Y220618D01*
X-85828Y220683D01*
X-85778Y220749D01*
X-85731Y220818D01*
X-85687Y220889D01*
X-85647Y220962D01*
X-85610Y221036D01*
X-85575Y221112D01*
X-85545Y221190D01*
X-85518Y221268D01*
X-85494Y221348D01*
X-85474Y221429D01*
X-85457Y221511D01*
X-85445Y221593D01*
X-85435Y221676D01*
X-85430Y221759D01*
X-85428Y221842D01*
X-86698Y223620D02*
X-86861Y223697D01*
X-87025Y223770D01*
X-87191Y223839D01*
X-87359Y223904D01*
X-87528Y223965D01*
X-87699Y224022D01*
X-87871Y224075D01*
X-88044Y224124D01*
X-88218Y224168D01*
X-88393Y224209D01*
X-88570Y224245D01*
X-88747Y224277D01*
X-88924Y224305D01*
X-89103Y224328D01*
X-89282Y224348D01*
X-89461Y224363D01*
X-89640Y224373D01*
X-89820Y224380D01*
X-90000Y224382D01*
X-86698Y223620D02*
X-86620Y223592D01*
X-86543Y223559D01*
X-86468Y223524D01*
X-86394Y223485D01*
X-86322Y223443D01*
X-86253Y223398D01*
X-86185Y223349D01*
X-86119Y223298D01*
X-86056Y223244D01*
X-85995Y223187D01*
X-85936Y223128D01*
X-85881Y223066D01*
X-85828Y223001D01*
X-85778Y222935D01*
X-85731Y222866D01*
X-85687Y222795D01*
X-85647Y222722D01*
X-85610Y222648D01*
X-85575Y222572D01*
X-85545Y222494D01*
X-85518Y222416D01*
X-85494Y222336D01*
X-85474Y222255D01*
X-85457Y222173D01*
X-85445Y222091D01*
X-85435Y222008D01*
X-85430Y221925D01*
X-85428Y221842D01*
X-87460Y219810D02*
X-92540Y223874D01*
X-92540Y228446D02*
X-94572Y230986D01*
X-85428Y230986D01*
X-85428Y228446D02*
X-85428Y233526D01*
D12*
X2500Y-245500D02*
X2500Y-260500D01*
X-30500Y-260500D01*
X-30500Y-245500D01*
X2500Y-245500D01*
D11*
X-60036Y-257492D02*
X-62032Y-257492D01*
X-62119Y-257490D01*
X-62206Y-257484D01*
X-62293Y-257475D01*
X-62379Y-257462D01*
X-62464Y-257445D01*
X-62549Y-257424D01*
X-62632Y-257400D01*
X-62715Y-257372D01*
X-62796Y-257340D01*
X-62876Y-257305D01*
X-62954Y-257266D01*
X-63030Y-257225D01*
X-63104Y-257179D01*
X-63177Y-257131D01*
X-63247Y-257080D01*
X-63315Y-257025D01*
X-63380Y-256968D01*
X-63443Y-256907D01*
X-63504Y-256844D01*
X-63561Y-256779D01*
X-63616Y-256711D01*
X-63667Y-256641D01*
X-63715Y-256568D01*
X-63761Y-256494D01*
X-63802Y-256418D01*
X-63841Y-256340D01*
X-63876Y-256260D01*
X-63908Y-256179D01*
X-63936Y-256096D01*
X-63960Y-256013D01*
X-63981Y-255928D01*
X-63998Y-255843D01*
X-64011Y-255757D01*
X-64020Y-255670D01*
X-64026Y-255583D01*
X-64028Y-255496D01*
X-64029Y-255496D02*
X-64029Y-250504D01*
X-64027Y-250417D01*
X-64021Y-250330D01*
X-64012Y-250243D01*
X-63999Y-250157D01*
X-63982Y-250072D01*
X-63961Y-249987D01*
X-63937Y-249904D01*
X-63909Y-249821D01*
X-63877Y-249740D01*
X-63842Y-249660D01*
X-63803Y-249582D01*
X-63761Y-249506D01*
X-63716Y-249431D01*
X-63668Y-249359D01*
X-63616Y-249288D01*
X-63562Y-249220D01*
X-63504Y-249155D01*
X-63444Y-249092D01*
X-63381Y-249032D01*
X-63316Y-248974D01*
X-63248Y-248920D01*
X-63177Y-248868D01*
X-63105Y-248820D01*
X-63031Y-248775D01*
X-62954Y-248733D01*
X-62876Y-248694D01*
X-62796Y-248659D01*
X-62715Y-248627D01*
X-62633Y-248599D01*
X-62549Y-248575D01*
X-62464Y-248554D01*
X-62379Y-248537D01*
X-62293Y-248524D01*
X-62206Y-248515D01*
X-62119Y-248509D01*
X-62032Y-248507D01*
X-62032Y-248508D02*
X-60036Y-248508D01*
X-56499Y-250504D02*
X-54004Y-248508D01*
X-54004Y-257492D01*
X-56499Y-257492D02*
X-51508Y-257492D01*
X-47499Y-253000D02*
X-47497Y-252823D01*
X-47491Y-252647D01*
X-47480Y-252470D01*
X-47465Y-252294D01*
X-47446Y-252118D01*
X-47423Y-251943D01*
X-47396Y-251768D01*
X-47364Y-251595D01*
X-47329Y-251421D01*
X-47289Y-251249D01*
X-47245Y-251078D01*
X-47197Y-250908D01*
X-47145Y-250739D01*
X-47089Y-250571D01*
X-47029Y-250405D01*
X-46965Y-250240D01*
X-46898Y-250077D01*
X-46826Y-249915D01*
X-46750Y-249756D01*
X-46751Y-249756D02*
X-46722Y-249676D01*
X-46689Y-249598D01*
X-46652Y-249522D01*
X-46612Y-249447D01*
X-46569Y-249374D01*
X-46522Y-249303D01*
X-46472Y-249234D01*
X-46419Y-249168D01*
X-46363Y-249104D01*
X-46304Y-249043D01*
X-46243Y-248985D01*
X-46179Y-248930D01*
X-46112Y-248877D01*
X-46043Y-248828D01*
X-45972Y-248782D01*
X-45898Y-248739D01*
X-45823Y-248700D01*
X-45746Y-248664D01*
X-45668Y-248631D01*
X-45588Y-248603D01*
X-45507Y-248578D01*
X-45425Y-248557D01*
X-45342Y-248539D01*
X-45258Y-248526D01*
X-45173Y-248516D01*
X-45089Y-248510D01*
X-45004Y-248508D01*
X-44919Y-248510D01*
X-44835Y-248516D01*
X-44750Y-248526D01*
X-44666Y-248539D01*
X-44583Y-248557D01*
X-44501Y-248578D01*
X-44420Y-248603D01*
X-44340Y-248631D01*
X-44262Y-248664D01*
X-44185Y-248700D01*
X-44110Y-248739D01*
X-44037Y-248782D01*
X-43965Y-248828D01*
X-43896Y-248877D01*
X-43830Y-248930D01*
X-43765Y-248985D01*
X-43704Y-249043D01*
X-43645Y-249104D01*
X-43589Y-249168D01*
X-43536Y-249234D01*
X-43486Y-249303D01*
X-43439Y-249374D01*
X-43396Y-249447D01*
X-43356Y-249522D01*
X-43319Y-249598D01*
X-43286Y-249676D01*
X-43257Y-249756D01*
X-43181Y-249915D01*
X-43109Y-250077D01*
X-43042Y-250240D01*
X-42978Y-250405D01*
X-42918Y-250571D01*
X-42862Y-250739D01*
X-42810Y-250908D01*
X-42762Y-251078D01*
X-42718Y-251249D01*
X-42678Y-251421D01*
X-42643Y-251595D01*
X-42611Y-251768D01*
X-42584Y-251943D01*
X-42561Y-252118D01*
X-42542Y-252294D01*
X-42527Y-252470D01*
X-42516Y-252647D01*
X-42510Y-252823D01*
X-42508Y-253000D01*
X-47499Y-253000D02*
X-47497Y-253177D01*
X-47491Y-253353D01*
X-47480Y-253530D01*
X-47465Y-253706D01*
X-47446Y-253882D01*
X-47423Y-254057D01*
X-47396Y-254232D01*
X-47364Y-254405D01*
X-47329Y-254579D01*
X-47289Y-254751D01*
X-47245Y-254922D01*
X-47197Y-255092D01*
X-47145Y-255261D01*
X-47089Y-255429D01*
X-47029Y-255595D01*
X-46965Y-255760D01*
X-46898Y-255923D01*
X-46826Y-256085D01*
X-46750Y-256244D01*
X-46751Y-256244D02*
X-46722Y-256324D01*
X-46689Y-256402D01*
X-46652Y-256478D01*
X-46612Y-256553D01*
X-46569Y-256626D01*
X-46522Y-256697D01*
X-46472Y-256766D01*
X-46419Y-256832D01*
X-46363Y-256896D01*
X-46304Y-256957D01*
X-46243Y-257015D01*
X-46178Y-257070D01*
X-46112Y-257123D01*
X-46043Y-257172D01*
X-45971Y-257218D01*
X-45898Y-257261D01*
X-45823Y-257300D01*
X-45746Y-257336D01*
X-45668Y-257369D01*
X-45588Y-257397D01*
X-45507Y-257422D01*
X-45425Y-257443D01*
X-45342Y-257461D01*
X-45258Y-257474D01*
X-45173Y-257484D01*
X-45089Y-257490D01*
X-45004Y-257492D01*
X-43257Y-256244D02*
X-43181Y-256085D01*
X-43109Y-255923D01*
X-43042Y-255760D01*
X-42978Y-255595D01*
X-42918Y-255429D01*
X-42862Y-255261D01*
X-42810Y-255092D01*
X-42762Y-254922D01*
X-42718Y-254751D01*
X-42678Y-254579D01*
X-42643Y-254405D01*
X-42611Y-254232D01*
X-42584Y-254057D01*
X-42561Y-253882D01*
X-42542Y-253706D01*
X-42527Y-253530D01*
X-42516Y-253353D01*
X-42510Y-253177D01*
X-42508Y-253000D01*
X-43257Y-256244D02*
X-43286Y-256324D01*
X-43319Y-256402D01*
X-43356Y-256478D01*
X-43396Y-256553D01*
X-43439Y-256626D01*
X-43486Y-256697D01*
X-43536Y-256766D01*
X-43589Y-256832D01*
X-43645Y-256896D01*
X-43704Y-256957D01*
X-43765Y-257015D01*
X-43830Y-257071D01*
X-43896Y-257123D01*
X-43965Y-257172D01*
X-44037Y-257218D01*
X-44110Y-257261D01*
X-44185Y-257300D01*
X-44262Y-257336D01*
X-44340Y-257369D01*
X-44420Y-257397D01*
X-44501Y-257422D01*
X-44583Y-257443D01*
X-44666Y-257461D01*
X-44750Y-257474D01*
X-44835Y-257484D01*
X-44919Y-257490D01*
X-45004Y-257492D01*
X-47000Y-255496D02*
X-43007Y-250504D01*
X-38499Y-257492D02*
X-35504Y-257492D01*
X-35417Y-257490D01*
X-35330Y-257484D01*
X-35243Y-257475D01*
X-35157Y-257462D01*
X-35072Y-257445D01*
X-34987Y-257424D01*
X-34904Y-257400D01*
X-34821Y-257372D01*
X-34740Y-257340D01*
X-34660Y-257305D01*
X-34582Y-257266D01*
X-34506Y-257225D01*
X-34432Y-257179D01*
X-34359Y-257131D01*
X-34289Y-257080D01*
X-34221Y-257025D01*
X-34156Y-256968D01*
X-34093Y-256907D01*
X-34032Y-256844D01*
X-33975Y-256779D01*
X-33920Y-256711D01*
X-33869Y-256641D01*
X-33821Y-256568D01*
X-33775Y-256494D01*
X-33734Y-256418D01*
X-33695Y-256340D01*
X-33660Y-256260D01*
X-33628Y-256179D01*
X-33600Y-256096D01*
X-33576Y-256013D01*
X-33555Y-255928D01*
X-33538Y-255843D01*
X-33525Y-255757D01*
X-33516Y-255670D01*
X-33510Y-255583D01*
X-33508Y-255496D01*
X-33508Y-254497D01*
X-33510Y-254410D01*
X-33516Y-254323D01*
X-33525Y-254236D01*
X-33538Y-254150D01*
X-33555Y-254065D01*
X-33576Y-253980D01*
X-33600Y-253897D01*
X-33628Y-253814D01*
X-33660Y-253733D01*
X-33695Y-253653D01*
X-33734Y-253575D01*
X-33775Y-253499D01*
X-33821Y-253425D01*
X-33869Y-253352D01*
X-33920Y-253282D01*
X-33975Y-253214D01*
X-34032Y-253149D01*
X-34093Y-253086D01*
X-34156Y-253025D01*
X-34221Y-252968D01*
X-34289Y-252913D01*
X-34359Y-252862D01*
X-34432Y-252814D01*
X-34506Y-252768D01*
X-34582Y-252727D01*
X-34660Y-252688D01*
X-34740Y-252653D01*
X-34821Y-252621D01*
X-34904Y-252593D01*
X-34987Y-252569D01*
X-35072Y-252548D01*
X-35157Y-252531D01*
X-35243Y-252518D01*
X-35330Y-252509D01*
X-35417Y-252503D01*
X-35504Y-252501D01*
X-38499Y-252501D01*
X-38499Y-248508D01*
X-33508Y-248508D01*
D12*
X-26500Y-53500D02*
X-26500Y-38500D01*
X6500Y-38500D01*
X6500Y-53500D01*
X-26500Y-53500D01*
D11*
X-31508Y-57267D02*
X-31508Y-59264D01*
X-31510Y-59351D01*
X-31516Y-59438D01*
X-31525Y-59525D01*
X-31538Y-59611D01*
X-31555Y-59696D01*
X-31576Y-59781D01*
X-31600Y-59864D01*
X-31628Y-59947D01*
X-31660Y-60028D01*
X-31695Y-60108D01*
X-31734Y-60186D01*
X-31775Y-60262D01*
X-31821Y-60336D01*
X-31869Y-60409D01*
X-31920Y-60479D01*
X-31975Y-60547D01*
X-32032Y-60612D01*
X-32093Y-60675D01*
X-32156Y-60736D01*
X-32221Y-60793D01*
X-32289Y-60848D01*
X-32359Y-60899D01*
X-32432Y-60947D01*
X-32506Y-60993D01*
X-32582Y-61034D01*
X-32660Y-61073D01*
X-32740Y-61108D01*
X-32821Y-61140D01*
X-32904Y-61168D01*
X-32987Y-61192D01*
X-33072Y-61213D01*
X-33157Y-61230D01*
X-33243Y-61243D01*
X-33330Y-61252D01*
X-33417Y-61258D01*
X-33504Y-61260D01*
X-38496Y-61260D01*
X-38583Y-61258D01*
X-38670Y-61252D01*
X-38757Y-61243D01*
X-38843Y-61230D01*
X-38928Y-61213D01*
X-39013Y-61192D01*
X-39096Y-61168D01*
X-39179Y-61140D01*
X-39260Y-61108D01*
X-39340Y-61073D01*
X-39418Y-61034D01*
X-39494Y-60993D01*
X-39568Y-60947D01*
X-39641Y-60899D01*
X-39711Y-60848D01*
X-39779Y-60793D01*
X-39844Y-60736D01*
X-39907Y-60675D01*
X-39968Y-60612D01*
X-40025Y-60547D01*
X-40080Y-60479D01*
X-40131Y-60409D01*
X-40179Y-60336D01*
X-40225Y-60262D01*
X-40266Y-60186D01*
X-40305Y-60108D01*
X-40340Y-60028D01*
X-40372Y-59947D01*
X-40400Y-59864D01*
X-40424Y-59781D01*
X-40445Y-59696D01*
X-40462Y-59611D01*
X-40475Y-59525D01*
X-40484Y-59438D01*
X-40490Y-59351D01*
X-40492Y-59264D01*
X-40492Y-57267D01*
X-38496Y-53731D02*
X-40492Y-51235D01*
X-31508Y-51235D01*
X-31508Y-48740D02*
X-31508Y-53731D01*
X-36000Y-44731D02*
X-36177Y-44729D01*
X-36353Y-44723D01*
X-36530Y-44712D01*
X-36706Y-44697D01*
X-36882Y-44678D01*
X-37057Y-44655D01*
X-37232Y-44628D01*
X-37405Y-44596D01*
X-37579Y-44561D01*
X-37751Y-44521D01*
X-37922Y-44477D01*
X-38092Y-44429D01*
X-38261Y-44377D01*
X-38429Y-44321D01*
X-38595Y-44261D01*
X-38760Y-44197D01*
X-38923Y-44130D01*
X-39085Y-44058D01*
X-39244Y-43982D01*
X-39324Y-43953D01*
X-39402Y-43920D01*
X-39478Y-43883D01*
X-39553Y-43843D01*
X-39626Y-43800D01*
X-39697Y-43753D01*
X-39766Y-43703D01*
X-39832Y-43650D01*
X-39896Y-43594D01*
X-39957Y-43535D01*
X-40015Y-43474D01*
X-40070Y-43409D01*
X-40123Y-43343D01*
X-40172Y-43274D01*
X-40218Y-43202D01*
X-40261Y-43129D01*
X-40300Y-43054D01*
X-40336Y-42977D01*
X-40369Y-42899D01*
X-40397Y-42819D01*
X-40422Y-42738D01*
X-40443Y-42656D01*
X-40461Y-42573D01*
X-40474Y-42489D01*
X-40484Y-42404D01*
X-40490Y-42320D01*
X-40492Y-42235D01*
X-40490Y-42150D01*
X-40484Y-42066D01*
X-40474Y-41981D01*
X-40461Y-41897D01*
X-40443Y-41814D01*
X-40422Y-41732D01*
X-40397Y-41651D01*
X-40369Y-41571D01*
X-40336Y-41493D01*
X-40300Y-41416D01*
X-40261Y-41341D01*
X-40218Y-41268D01*
X-40172Y-41196D01*
X-40123Y-41127D01*
X-40070Y-41061D01*
X-40015Y-40996D01*
X-39957Y-40935D01*
X-39896Y-40876D01*
X-39832Y-40820D01*
X-39766Y-40767D01*
X-39697Y-40717D01*
X-39626Y-40670D01*
X-39553Y-40627D01*
X-39478Y-40587D01*
X-39402Y-40550D01*
X-39324Y-40517D01*
X-39244Y-40488D01*
X-39244Y-40489D02*
X-39084Y-40413D01*
X-38923Y-40341D01*
X-38760Y-40274D01*
X-38595Y-40210D01*
X-38428Y-40150D01*
X-38261Y-40094D01*
X-38092Y-40042D01*
X-37922Y-39994D01*
X-37751Y-39950D01*
X-37578Y-39910D01*
X-37405Y-39875D01*
X-37231Y-39843D01*
X-37057Y-39816D01*
X-36882Y-39793D01*
X-36706Y-39774D01*
X-36530Y-39759D01*
X-36353Y-39748D01*
X-36177Y-39742D01*
X-36000Y-39740D01*
X-36000Y-44731D02*
X-35823Y-44729D01*
X-35647Y-44723D01*
X-35470Y-44712D01*
X-35294Y-44697D01*
X-35118Y-44678D01*
X-34943Y-44655D01*
X-34768Y-44628D01*
X-34595Y-44596D01*
X-34421Y-44561D01*
X-34249Y-44521D01*
X-34078Y-44477D01*
X-33908Y-44429D01*
X-33739Y-44377D01*
X-33571Y-44321D01*
X-33405Y-44261D01*
X-33240Y-44197D01*
X-33077Y-44130D01*
X-32915Y-44058D01*
X-32756Y-43982D01*
X-32676Y-43953D01*
X-32598Y-43920D01*
X-32522Y-43883D01*
X-32447Y-43843D01*
X-32374Y-43800D01*
X-32303Y-43753D01*
X-32234Y-43703D01*
X-32168Y-43650D01*
X-32104Y-43594D01*
X-32043Y-43535D01*
X-31985Y-43474D01*
X-31930Y-43409D01*
X-31877Y-43343D01*
X-31828Y-43274D01*
X-31782Y-43202D01*
X-31739Y-43129D01*
X-31700Y-43054D01*
X-31664Y-42977D01*
X-31631Y-42899D01*
X-31603Y-42819D01*
X-31578Y-42738D01*
X-31557Y-42656D01*
X-31539Y-42573D01*
X-31526Y-42489D01*
X-31516Y-42404D01*
X-31510Y-42320D01*
X-31508Y-42235D01*
X-32756Y-40488D02*
X-32915Y-40412D01*
X-33077Y-40340D01*
X-33240Y-40273D01*
X-33405Y-40209D01*
X-33571Y-40149D01*
X-33739Y-40093D01*
X-33908Y-40041D01*
X-34078Y-39993D01*
X-34249Y-39949D01*
X-34421Y-39909D01*
X-34595Y-39874D01*
X-34768Y-39842D01*
X-34943Y-39815D01*
X-35118Y-39792D01*
X-35294Y-39773D01*
X-35470Y-39758D01*
X-35647Y-39747D01*
X-35823Y-39741D01*
X-36000Y-39739D01*
X-32756Y-40488D02*
X-32676Y-40517D01*
X-32598Y-40550D01*
X-32522Y-40587D01*
X-32447Y-40627D01*
X-32374Y-40670D01*
X-32303Y-40717D01*
X-32234Y-40767D01*
X-32168Y-40820D01*
X-32104Y-40876D01*
X-32043Y-40935D01*
X-31985Y-40996D01*
X-31929Y-41061D01*
X-31877Y-41127D01*
X-31828Y-41196D01*
X-31782Y-41268D01*
X-31739Y-41341D01*
X-31700Y-41416D01*
X-31664Y-41493D01*
X-31631Y-41571D01*
X-31603Y-41651D01*
X-31578Y-41732D01*
X-31557Y-41814D01*
X-31539Y-41897D01*
X-31526Y-41981D01*
X-31516Y-42066D01*
X-31510Y-42150D01*
X-31508Y-42235D01*
X-33504Y-44232D02*
X-38496Y-40239D01*
X-31508Y-35731D02*
X-31508Y-33235D01*
X-31510Y-33136D01*
X-31516Y-33037D01*
X-31526Y-32938D01*
X-31540Y-32840D01*
X-31557Y-32742D01*
X-31579Y-32645D01*
X-31604Y-32549D01*
X-31633Y-32454D01*
X-31666Y-32361D01*
X-31703Y-32268D01*
X-31743Y-32178D01*
X-31787Y-32089D01*
X-31834Y-32001D01*
X-31885Y-31916D01*
X-31939Y-31833D01*
X-31996Y-31752D01*
X-32057Y-31673D01*
X-32121Y-31597D01*
X-32187Y-31523D01*
X-32257Y-31453D01*
X-32329Y-31385D01*
X-32404Y-31319D01*
X-32481Y-31257D01*
X-32561Y-31198D01*
X-32643Y-31143D01*
X-32727Y-31090D01*
X-32814Y-31041D01*
X-32902Y-30995D01*
X-32992Y-30953D01*
X-33083Y-30915D01*
X-33176Y-30880D01*
X-33271Y-30849D01*
X-33366Y-30822D01*
X-33462Y-30798D01*
X-33560Y-30779D01*
X-33658Y-30763D01*
X-33756Y-30751D01*
X-33855Y-30743D01*
X-33954Y-30739D01*
X-34054Y-30739D01*
X-34153Y-30743D01*
X-34252Y-30751D01*
X-34350Y-30763D01*
X-34448Y-30779D01*
X-34546Y-30798D01*
X-34642Y-30822D01*
X-34737Y-30849D01*
X-34832Y-30880D01*
X-34925Y-30915D01*
X-35016Y-30953D01*
X-35106Y-30995D01*
X-35194Y-31041D01*
X-35281Y-31090D01*
X-35365Y-31143D01*
X-35447Y-31198D01*
X-35527Y-31257D01*
X-35604Y-31319D01*
X-35679Y-31385D01*
X-35751Y-31453D01*
X-35821Y-31523D01*
X-35887Y-31597D01*
X-35951Y-31673D01*
X-36012Y-31752D01*
X-36069Y-31833D01*
X-36123Y-31916D01*
X-36174Y-32001D01*
X-36221Y-32089D01*
X-36265Y-32178D01*
X-36305Y-32268D01*
X-36342Y-32361D01*
X-36375Y-32454D01*
X-36404Y-32549D01*
X-36429Y-32645D01*
X-36451Y-32742D01*
X-36468Y-32840D01*
X-36482Y-32938D01*
X-36492Y-33037D01*
X-36498Y-33136D01*
X-36500Y-33235D01*
X-40492Y-32736D02*
X-40492Y-35731D01*
X-40492Y-32736D02*
X-40490Y-32648D01*
X-40484Y-32560D01*
X-40474Y-32472D01*
X-40461Y-32385D01*
X-40443Y-32298D01*
X-40422Y-32212D01*
X-40397Y-32128D01*
X-40368Y-32044D01*
X-40336Y-31962D01*
X-40300Y-31881D01*
X-40260Y-31802D01*
X-40217Y-31725D01*
X-40171Y-31650D01*
X-40121Y-31577D01*
X-40068Y-31506D01*
X-40012Y-31438D01*
X-39953Y-31372D01*
X-39892Y-31309D01*
X-39827Y-31249D01*
X-39760Y-31191D01*
X-39691Y-31137D01*
X-39619Y-31086D01*
X-39545Y-31038D01*
X-39468Y-30993D01*
X-39390Y-30952D01*
X-39311Y-30914D01*
X-39229Y-30880D01*
X-39146Y-30849D01*
X-39062Y-30822D01*
X-38977Y-30799D01*
X-38891Y-30779D01*
X-38804Y-30764D01*
X-38716Y-30752D01*
X-38628Y-30744D01*
X-38540Y-30740D01*
X-38452Y-30740D01*
X-38364Y-30744D01*
X-38276Y-30752D01*
X-38188Y-30764D01*
X-38101Y-30779D01*
X-38015Y-30799D01*
X-37930Y-30822D01*
X-37846Y-30849D01*
X-37763Y-30880D01*
X-37681Y-30914D01*
X-37602Y-30952D01*
X-37524Y-30993D01*
X-37447Y-31038D01*
X-37373Y-31086D01*
X-37301Y-31137D01*
X-37232Y-31191D01*
X-37165Y-31249D01*
X-37100Y-31309D01*
X-37039Y-31372D01*
X-36980Y-31438D01*
X-36924Y-31506D01*
X-36871Y-31577D01*
X-36821Y-31650D01*
X-36775Y-31725D01*
X-36732Y-31802D01*
X-36692Y-31881D01*
X-36656Y-31962D01*
X-36624Y-32044D01*
X-36595Y-32128D01*
X-36570Y-32212D01*
X-36549Y-32298D01*
X-36531Y-32385D01*
X-36518Y-32472D01*
X-36508Y-32560D01*
X-36502Y-32648D01*
X-36500Y-32736D01*
X-36499Y-32736D02*
X-36499Y-34733D01*
X91508Y122201D02*
X100492Y122201D01*
X91508Y122201D02*
X91508Y124697D01*
X91510Y124795D01*
X91516Y124893D01*
X91525Y124990D01*
X91539Y125087D01*
X91556Y125184D01*
X91577Y125280D01*
X91602Y125375D01*
X91630Y125468D01*
X91662Y125561D01*
X91698Y125652D01*
X91737Y125742D01*
X91780Y125830D01*
X91826Y125917D01*
X91876Y126001D01*
X91929Y126084D01*
X91985Y126164D01*
X92044Y126242D01*
X92106Y126318D01*
X92171Y126391D01*
X92239Y126462D01*
X92310Y126530D01*
X92383Y126595D01*
X92459Y126657D01*
X92537Y126716D01*
X92617Y126772D01*
X92700Y126825D01*
X92784Y126875D01*
X92871Y126921D01*
X92959Y126964D01*
X93049Y127003D01*
X93140Y127039D01*
X93233Y127071D01*
X93326Y127099D01*
X93421Y127124D01*
X93517Y127145D01*
X93614Y127162D01*
X93711Y127176D01*
X93808Y127185D01*
X93906Y127191D01*
X94004Y127193D01*
X94004Y127192D02*
X97996Y127192D01*
X97996Y127193D02*
X98094Y127191D01*
X98192Y127185D01*
X98289Y127176D01*
X98386Y127162D01*
X98483Y127145D01*
X98579Y127124D01*
X98674Y127099D01*
X98767Y127071D01*
X98860Y127039D01*
X98951Y127003D01*
X99041Y126964D01*
X99129Y126921D01*
X99216Y126875D01*
X99300Y126825D01*
X99383Y126772D01*
X99463Y126716D01*
X99541Y126657D01*
X99617Y126595D01*
X99690Y126530D01*
X99761Y126462D01*
X99829Y126391D01*
X99894Y126318D01*
X99956Y126242D01*
X100015Y126164D01*
X100071Y126084D01*
X100124Y126001D01*
X100174Y125917D01*
X100220Y125830D01*
X100263Y125742D01*
X100302Y125652D01*
X100338Y125561D01*
X100370Y125468D01*
X100398Y125374D01*
X100423Y125280D01*
X100444Y125184D01*
X100461Y125087D01*
X100475Y124990D01*
X100484Y124893D01*
X100490Y124795D01*
X100492Y124697D01*
X100492Y122201D01*
X93504Y131501D02*
X91508Y133997D01*
X100492Y133997D01*
X100492Y136492D02*
X100492Y131501D01*
X96000Y140501D02*
X95823Y140503D01*
X95647Y140509D01*
X95470Y140520D01*
X95294Y140535D01*
X95118Y140554D01*
X94943Y140577D01*
X94768Y140604D01*
X94595Y140636D01*
X94421Y140671D01*
X94249Y140711D01*
X94078Y140755D01*
X93908Y140803D01*
X93739Y140855D01*
X93571Y140911D01*
X93405Y140971D01*
X93240Y141035D01*
X93077Y141102D01*
X92915Y141174D01*
X92756Y141250D01*
X92756Y141249D02*
X92676Y141278D01*
X92598Y141311D01*
X92522Y141348D01*
X92447Y141388D01*
X92374Y141431D01*
X92303Y141478D01*
X92234Y141528D01*
X92168Y141581D01*
X92104Y141637D01*
X92043Y141696D01*
X91985Y141757D01*
X91930Y141821D01*
X91877Y141888D01*
X91828Y141957D01*
X91782Y142028D01*
X91739Y142102D01*
X91700Y142177D01*
X91664Y142254D01*
X91631Y142332D01*
X91603Y142412D01*
X91578Y142493D01*
X91557Y142575D01*
X91539Y142658D01*
X91526Y142742D01*
X91516Y142827D01*
X91510Y142911D01*
X91508Y142996D01*
X91510Y143081D01*
X91516Y143165D01*
X91526Y143250D01*
X91539Y143334D01*
X91557Y143417D01*
X91578Y143499D01*
X91603Y143580D01*
X91631Y143660D01*
X91664Y143738D01*
X91700Y143815D01*
X91739Y143890D01*
X91782Y143964D01*
X91828Y144035D01*
X91877Y144104D01*
X91930Y144171D01*
X91985Y144235D01*
X92043Y144296D01*
X92104Y144355D01*
X92168Y144411D01*
X92234Y144464D01*
X92303Y144514D01*
X92374Y144561D01*
X92447Y144604D01*
X92522Y144644D01*
X92598Y144681D01*
X92676Y144714D01*
X92756Y144743D01*
X92915Y144819D01*
X93077Y144891D01*
X93240Y144958D01*
X93405Y145022D01*
X93571Y145082D01*
X93739Y145138D01*
X93908Y145190D01*
X94078Y145238D01*
X94249Y145282D01*
X94421Y145322D01*
X94595Y145357D01*
X94768Y145389D01*
X94943Y145416D01*
X95118Y145439D01*
X95294Y145458D01*
X95470Y145473D01*
X95647Y145484D01*
X95823Y145490D01*
X96000Y145492D01*
X96000Y140501D02*
X96177Y140503D01*
X96353Y140509D01*
X96530Y140520D01*
X96706Y140535D01*
X96882Y140554D01*
X97057Y140577D01*
X97232Y140604D01*
X97405Y140636D01*
X97579Y140671D01*
X97751Y140711D01*
X97922Y140755D01*
X98092Y140803D01*
X98261Y140855D01*
X98429Y140911D01*
X98595Y140971D01*
X98760Y141035D01*
X98923Y141102D01*
X99085Y141174D01*
X99244Y141250D01*
X99244Y141249D02*
X99324Y141278D01*
X99402Y141311D01*
X99478Y141348D01*
X99553Y141388D01*
X99626Y141431D01*
X99697Y141478D01*
X99766Y141528D01*
X99832Y141581D01*
X99896Y141637D01*
X99957Y141696D01*
X100015Y141757D01*
X100070Y141822D01*
X100123Y141888D01*
X100172Y141957D01*
X100218Y142029D01*
X100261Y142102D01*
X100300Y142177D01*
X100336Y142254D01*
X100369Y142332D01*
X100397Y142412D01*
X100422Y142493D01*
X100443Y142575D01*
X100461Y142658D01*
X100474Y142742D01*
X100484Y142827D01*
X100490Y142911D01*
X100492Y142996D01*
X99244Y144743D02*
X99085Y144819D01*
X98923Y144891D01*
X98760Y144958D01*
X98595Y145022D01*
X98429Y145082D01*
X98261Y145138D01*
X98092Y145190D01*
X97922Y145238D01*
X97751Y145282D01*
X97579Y145322D01*
X97405Y145357D01*
X97232Y145389D01*
X97057Y145416D01*
X96882Y145439D01*
X96706Y145458D01*
X96530Y145473D01*
X96353Y145484D01*
X96177Y145490D01*
X96000Y145492D01*
X99244Y144743D02*
X99324Y144714D01*
X99402Y144681D01*
X99478Y144644D01*
X99553Y144604D01*
X99626Y144561D01*
X99697Y144514D01*
X99766Y144464D01*
X99832Y144411D01*
X99896Y144355D01*
X99957Y144296D01*
X100015Y144235D01*
X100070Y144170D01*
X100123Y144104D01*
X100172Y144035D01*
X100218Y143963D01*
X100261Y143890D01*
X100300Y143815D01*
X100336Y143738D01*
X100369Y143660D01*
X100397Y143580D01*
X100422Y143499D01*
X100443Y143417D01*
X100461Y143334D01*
X100474Y143250D01*
X100484Y143165D01*
X100490Y143081D01*
X100492Y142996D01*
X98496Y141000D02*
X93504Y144993D01*
X93504Y149501D02*
X91508Y151996D01*
X100492Y151996D01*
X100492Y149501D02*
X100492Y154492D01*
D10*
X67000Y149600D02*
X67002Y149709D01*
X67008Y149818D01*
X67018Y149926D01*
X67032Y150034D01*
X67049Y150142D01*
X67071Y150249D01*
X67096Y150355D01*
X67126Y150459D01*
X67159Y150563D01*
X67196Y150666D01*
X67236Y150767D01*
X67280Y150866D01*
X67328Y150964D01*
X67380Y151061D01*
X67434Y151155D01*
X67492Y151247D01*
X67554Y151337D01*
X67619Y151424D01*
X67686Y151510D01*
X67757Y151593D01*
X67831Y151673D01*
X67908Y151750D01*
X67987Y151825D01*
X68069Y151896D01*
X68154Y151965D01*
X68241Y152030D01*
X68330Y152093D01*
X68422Y152151D01*
X68516Y152207D01*
X68611Y152259D01*
X68709Y152308D01*
X68808Y152353D01*
X68909Y152395D01*
X69011Y152432D01*
X69114Y152466D01*
X69219Y152497D01*
X69325Y152523D01*
X69431Y152546D01*
X69539Y152564D01*
X69647Y152579D01*
X69755Y152590D01*
X69864Y152597D01*
X69973Y152600D01*
X70082Y152599D01*
X70191Y152594D01*
X70299Y152585D01*
X70407Y152572D01*
X70515Y152555D01*
X70622Y152535D01*
X70728Y152510D01*
X70833Y152482D01*
X70937Y152450D01*
X71040Y152414D01*
X71142Y152374D01*
X71242Y152331D01*
X71340Y152284D01*
X71437Y152234D01*
X71531Y152180D01*
X71624Y152122D01*
X71715Y152062D01*
X71803Y151998D01*
X71889Y151931D01*
X71972Y151861D01*
X72053Y151788D01*
X72131Y151712D01*
X72206Y151633D01*
X72279Y151551D01*
X72348Y151467D01*
X72414Y151381D01*
X72477Y151292D01*
X72537Y151201D01*
X72594Y151108D01*
X72647Y151013D01*
X72696Y150916D01*
X72742Y150817D01*
X72784Y150717D01*
X72823Y150615D01*
X72858Y150511D01*
X72889Y150407D01*
X72917Y150302D01*
X72940Y150195D01*
X72960Y150088D01*
X72976Y149980D01*
X72988Y149872D01*
X72996Y149763D01*
X73000Y149654D01*
X73000Y149546D01*
X72996Y149437D01*
X72988Y149328D01*
X72976Y149220D01*
X72960Y149112D01*
X72940Y149005D01*
X72917Y148898D01*
X72889Y148793D01*
X72858Y148689D01*
X72823Y148585D01*
X72784Y148483D01*
X72742Y148383D01*
X72696Y148284D01*
X72647Y148187D01*
X72594Y148092D01*
X72537Y147999D01*
X72477Y147908D01*
X72414Y147819D01*
X72348Y147733D01*
X72279Y147649D01*
X72206Y147567D01*
X72131Y147488D01*
X72053Y147412D01*
X71972Y147339D01*
X71889Y147269D01*
X71803Y147202D01*
X71715Y147138D01*
X71624Y147078D01*
X71531Y147020D01*
X71437Y146966D01*
X71340Y146916D01*
X71242Y146869D01*
X71142Y146826D01*
X71040Y146786D01*
X70937Y146750D01*
X70833Y146718D01*
X70728Y146690D01*
X70622Y146665D01*
X70515Y146645D01*
X70407Y146628D01*
X70299Y146615D01*
X70191Y146606D01*
X70082Y146601D01*
X69973Y146600D01*
X69864Y146603D01*
X69755Y146610D01*
X69647Y146621D01*
X69539Y146636D01*
X69431Y146654D01*
X69325Y146677D01*
X69219Y146703D01*
X69114Y146734D01*
X69011Y146768D01*
X68909Y146805D01*
X68808Y146847D01*
X68709Y146892D01*
X68611Y146941D01*
X68516Y146993D01*
X68422Y147049D01*
X68330Y147107D01*
X68241Y147170D01*
X68154Y147235D01*
X68069Y147304D01*
X67987Y147375D01*
X67908Y147450D01*
X67831Y147527D01*
X67757Y147607D01*
X67686Y147690D01*
X67619Y147776D01*
X67554Y147863D01*
X67492Y147953D01*
X67434Y148045D01*
X67380Y148139D01*
X67328Y148236D01*
X67280Y148334D01*
X67236Y148433D01*
X67196Y148534D01*
X67159Y148637D01*
X67126Y148741D01*
X67096Y148845D01*
X67071Y148951D01*
X67049Y149058D01*
X67032Y149166D01*
X67018Y149274D01*
X67008Y149382D01*
X67002Y149491D01*
X67000Y149600D01*
X-73500Y159600D02*
X-73500Y209600D01*
X73500Y209600D02*
X73500Y159600D01*
X67100Y159600D01*
X-54100Y159600D02*
X-73500Y159600D01*
X54100Y209600D02*
X73500Y209600D01*
X-67100Y209600D02*
X-73500Y209600D01*
D11*
X-81132Y156492D02*
X-81132Y149504D01*
X-81134Y149417D01*
X-81140Y149330D01*
X-81149Y149243D01*
X-81162Y149157D01*
X-81179Y149072D01*
X-81200Y148987D01*
X-81224Y148904D01*
X-81252Y148821D01*
X-81284Y148740D01*
X-81319Y148660D01*
X-81358Y148582D01*
X-81399Y148506D01*
X-81445Y148432D01*
X-81493Y148359D01*
X-81544Y148289D01*
X-81599Y148221D01*
X-81656Y148156D01*
X-81717Y148093D01*
X-81780Y148032D01*
X-81845Y147975D01*
X-81913Y147920D01*
X-81983Y147869D01*
X-82056Y147821D01*
X-82130Y147775D01*
X-82206Y147734D01*
X-82284Y147695D01*
X-82364Y147660D01*
X-82445Y147628D01*
X-82528Y147600D01*
X-82611Y147576D01*
X-82696Y147555D01*
X-82781Y147538D01*
X-82867Y147525D01*
X-82954Y147516D01*
X-83041Y147510D01*
X-83128Y147508D01*
X-84127Y147508D01*
X-76865Y154496D02*
X-74369Y156492D01*
X-74369Y147508D01*
X-76865Y147508D02*
X-71873Y147508D01*
X-67865Y152000D02*
X-67863Y152177D01*
X-67857Y152353D01*
X-67846Y152530D01*
X-67831Y152706D01*
X-67812Y152882D01*
X-67789Y153057D01*
X-67762Y153232D01*
X-67730Y153405D01*
X-67695Y153579D01*
X-67655Y153751D01*
X-67611Y153922D01*
X-67563Y154092D01*
X-67511Y154261D01*
X-67455Y154429D01*
X-67395Y154595D01*
X-67331Y154760D01*
X-67264Y154923D01*
X-67192Y155085D01*
X-67116Y155244D01*
X-67087Y155324D01*
X-67054Y155402D01*
X-67017Y155478D01*
X-66977Y155553D01*
X-66934Y155626D01*
X-66887Y155697D01*
X-66837Y155766D01*
X-66784Y155832D01*
X-66728Y155896D01*
X-66669Y155957D01*
X-66608Y156015D01*
X-66543Y156070D01*
X-66477Y156123D01*
X-66408Y156172D01*
X-66336Y156218D01*
X-66263Y156261D01*
X-66188Y156300D01*
X-66111Y156336D01*
X-66033Y156369D01*
X-65953Y156397D01*
X-65872Y156422D01*
X-65790Y156443D01*
X-65707Y156461D01*
X-65623Y156474D01*
X-65538Y156484D01*
X-65454Y156490D01*
X-65369Y156492D01*
X-65284Y156490D01*
X-65200Y156484D01*
X-65115Y156474D01*
X-65031Y156461D01*
X-64948Y156443D01*
X-64866Y156422D01*
X-64785Y156397D01*
X-64705Y156369D01*
X-64627Y156336D01*
X-64550Y156300D01*
X-64475Y156261D01*
X-64402Y156218D01*
X-64330Y156172D01*
X-64261Y156123D01*
X-64195Y156070D01*
X-64130Y156015D01*
X-64069Y155957D01*
X-64010Y155896D01*
X-63954Y155832D01*
X-63901Y155766D01*
X-63851Y155697D01*
X-63804Y155626D01*
X-63761Y155553D01*
X-63721Y155478D01*
X-63684Y155402D01*
X-63651Y155324D01*
X-63622Y155244D01*
X-63623Y155244D02*
X-63547Y155084D01*
X-63475Y154923D01*
X-63408Y154760D01*
X-63344Y154595D01*
X-63284Y154428D01*
X-63228Y154261D01*
X-63176Y154092D01*
X-63128Y153922D01*
X-63084Y153751D01*
X-63044Y153578D01*
X-63009Y153405D01*
X-62977Y153231D01*
X-62950Y153057D01*
X-62927Y152882D01*
X-62908Y152706D01*
X-62893Y152530D01*
X-62882Y152353D01*
X-62876Y152177D01*
X-62874Y152000D01*
X-67865Y152000D02*
X-67863Y151823D01*
X-67857Y151647D01*
X-67846Y151470D01*
X-67831Y151294D01*
X-67812Y151118D01*
X-67789Y150943D01*
X-67762Y150768D01*
X-67730Y150595D01*
X-67695Y150421D01*
X-67655Y150249D01*
X-67611Y150078D01*
X-67563Y149908D01*
X-67511Y149739D01*
X-67455Y149571D01*
X-67395Y149405D01*
X-67331Y149240D01*
X-67264Y149077D01*
X-67192Y148915D01*
X-67116Y148756D01*
X-67087Y148676D01*
X-67054Y148598D01*
X-67017Y148522D01*
X-66977Y148447D01*
X-66934Y148374D01*
X-66887Y148303D01*
X-66837Y148234D01*
X-66784Y148168D01*
X-66728Y148104D01*
X-66669Y148043D01*
X-66608Y147985D01*
X-66543Y147930D01*
X-66477Y147877D01*
X-66408Y147828D01*
X-66336Y147782D01*
X-66263Y147739D01*
X-66188Y147700D01*
X-66111Y147664D01*
X-66033Y147631D01*
X-65953Y147603D01*
X-65872Y147578D01*
X-65790Y147557D01*
X-65707Y147539D01*
X-65623Y147526D01*
X-65538Y147516D01*
X-65454Y147510D01*
X-65369Y147508D01*
X-63622Y148756D02*
X-63546Y148915D01*
X-63474Y149077D01*
X-63407Y149240D01*
X-63343Y149405D01*
X-63283Y149571D01*
X-63227Y149739D01*
X-63175Y149908D01*
X-63127Y150078D01*
X-63083Y150249D01*
X-63043Y150421D01*
X-63008Y150595D01*
X-62976Y150768D01*
X-62949Y150943D01*
X-62926Y151118D01*
X-62907Y151294D01*
X-62892Y151470D01*
X-62881Y151647D01*
X-62875Y151823D01*
X-62873Y152000D01*
X-63622Y148756D02*
X-63651Y148676D01*
X-63684Y148598D01*
X-63721Y148522D01*
X-63761Y148447D01*
X-63804Y148374D01*
X-63851Y148303D01*
X-63901Y148234D01*
X-63954Y148168D01*
X-64010Y148104D01*
X-64069Y148043D01*
X-64130Y147985D01*
X-64195Y147929D01*
X-64261Y147877D01*
X-64330Y147828D01*
X-64402Y147782D01*
X-64475Y147739D01*
X-64550Y147700D01*
X-64627Y147664D01*
X-64705Y147631D01*
X-64785Y147603D01*
X-64866Y147578D01*
X-64948Y147557D01*
X-65031Y147539D01*
X-65115Y147526D01*
X-65200Y147516D01*
X-65284Y147510D01*
X-65369Y147508D01*
X-67365Y149504D02*
X-63373Y154496D01*
X-58865Y154496D02*
X-56369Y156492D01*
X-56369Y147508D01*
X-53874Y147508D02*
X-58865Y147508D01*
D12*
X-52500Y-127500D02*
X-52500Y-160500D01*
X-52500Y-127500D02*
X-37500Y-127500D01*
X-37500Y-160500D01*
X-52500Y-160500D01*
D11*
X-55508Y-159963D02*
X-64492Y-159963D01*
X-64492Y-157467D01*
X-64490Y-157368D01*
X-64484Y-157269D01*
X-64474Y-157170D01*
X-64460Y-157072D01*
X-64443Y-156974D01*
X-64421Y-156877D01*
X-64396Y-156781D01*
X-64367Y-156686D01*
X-64334Y-156593D01*
X-64297Y-156500D01*
X-64257Y-156410D01*
X-64213Y-156321D01*
X-64166Y-156233D01*
X-64115Y-156148D01*
X-64061Y-156065D01*
X-64004Y-155984D01*
X-63943Y-155905D01*
X-63879Y-155829D01*
X-63813Y-155755D01*
X-63743Y-155685D01*
X-63671Y-155617D01*
X-63596Y-155551D01*
X-63519Y-155489D01*
X-63439Y-155430D01*
X-63357Y-155375D01*
X-63273Y-155322D01*
X-63186Y-155273D01*
X-63098Y-155227D01*
X-63008Y-155185D01*
X-62917Y-155147D01*
X-62824Y-155112D01*
X-62729Y-155081D01*
X-62634Y-155054D01*
X-62538Y-155030D01*
X-62440Y-155011D01*
X-62342Y-154995D01*
X-62244Y-154983D01*
X-62145Y-154975D01*
X-62046Y-154971D01*
X-61946Y-154971D01*
X-61847Y-154975D01*
X-61748Y-154983D01*
X-61650Y-154995D01*
X-61552Y-155011D01*
X-61454Y-155030D01*
X-61358Y-155054D01*
X-61263Y-155081D01*
X-61168Y-155112D01*
X-61075Y-155147D01*
X-60984Y-155185D01*
X-60894Y-155227D01*
X-60806Y-155273D01*
X-60719Y-155322D01*
X-60635Y-155375D01*
X-60553Y-155430D01*
X-60473Y-155489D01*
X-60396Y-155551D01*
X-60321Y-155617D01*
X-60249Y-155685D01*
X-60179Y-155755D01*
X-60113Y-155829D01*
X-60049Y-155905D01*
X-59988Y-155984D01*
X-59931Y-156065D01*
X-59877Y-156148D01*
X-59826Y-156233D01*
X-59779Y-156321D01*
X-59735Y-156410D01*
X-59695Y-156500D01*
X-59658Y-156593D01*
X-59625Y-156686D01*
X-59596Y-156781D01*
X-59571Y-156877D01*
X-59549Y-156974D01*
X-59532Y-157072D01*
X-59518Y-157170D01*
X-59508Y-157269D01*
X-59502Y-157368D01*
X-59500Y-157467D01*
X-59501Y-157467D02*
X-59501Y-159963D01*
X-59501Y-156968D02*
X-55508Y-154972D01*
X-62496Y-151028D02*
X-64492Y-148533D01*
X-55508Y-148533D01*
X-55508Y-151028D02*
X-55508Y-146037D01*
X-60000Y-142029D02*
X-60177Y-142027D01*
X-60353Y-142021D01*
X-60530Y-142010D01*
X-60706Y-141995D01*
X-60882Y-141976D01*
X-61057Y-141953D01*
X-61232Y-141926D01*
X-61405Y-141894D01*
X-61579Y-141859D01*
X-61751Y-141819D01*
X-61922Y-141775D01*
X-62092Y-141727D01*
X-62261Y-141675D01*
X-62429Y-141619D01*
X-62595Y-141559D01*
X-62760Y-141495D01*
X-62923Y-141428D01*
X-63085Y-141356D01*
X-63244Y-141280D01*
X-63324Y-141251D01*
X-63402Y-141218D01*
X-63478Y-141181D01*
X-63553Y-141141D01*
X-63626Y-141098D01*
X-63697Y-141051D01*
X-63766Y-141001D01*
X-63832Y-140948D01*
X-63896Y-140892D01*
X-63957Y-140833D01*
X-64015Y-140772D01*
X-64070Y-140707D01*
X-64123Y-140641D01*
X-64172Y-140572D01*
X-64218Y-140500D01*
X-64261Y-140427D01*
X-64300Y-140352D01*
X-64336Y-140275D01*
X-64369Y-140197D01*
X-64397Y-140117D01*
X-64422Y-140036D01*
X-64443Y-139954D01*
X-64461Y-139871D01*
X-64474Y-139787D01*
X-64484Y-139702D01*
X-64490Y-139618D01*
X-64492Y-139533D01*
X-64490Y-139448D01*
X-64484Y-139364D01*
X-64474Y-139279D01*
X-64461Y-139195D01*
X-64443Y-139112D01*
X-64422Y-139030D01*
X-64397Y-138949D01*
X-64369Y-138869D01*
X-64336Y-138791D01*
X-64300Y-138714D01*
X-64261Y-138639D01*
X-64218Y-138566D01*
X-64172Y-138494D01*
X-64123Y-138425D01*
X-64070Y-138359D01*
X-64015Y-138294D01*
X-63957Y-138233D01*
X-63896Y-138174D01*
X-63832Y-138118D01*
X-63766Y-138065D01*
X-63697Y-138015D01*
X-63626Y-137968D01*
X-63553Y-137925D01*
X-63478Y-137885D01*
X-63402Y-137848D01*
X-63324Y-137815D01*
X-63244Y-137786D01*
X-63244Y-137787D02*
X-63084Y-137711D01*
X-62923Y-137639D01*
X-62760Y-137572D01*
X-62595Y-137508D01*
X-62428Y-137448D01*
X-62261Y-137392D01*
X-62092Y-137340D01*
X-61922Y-137292D01*
X-61751Y-137248D01*
X-61578Y-137208D01*
X-61405Y-137173D01*
X-61231Y-137141D01*
X-61057Y-137114D01*
X-60882Y-137091D01*
X-60706Y-137072D01*
X-60530Y-137057D01*
X-60353Y-137046D01*
X-60177Y-137040D01*
X-60000Y-137038D01*
X-60000Y-142029D02*
X-59823Y-142027D01*
X-59647Y-142021D01*
X-59470Y-142010D01*
X-59294Y-141995D01*
X-59118Y-141976D01*
X-58943Y-141953D01*
X-58768Y-141926D01*
X-58595Y-141894D01*
X-58421Y-141859D01*
X-58249Y-141819D01*
X-58078Y-141775D01*
X-57908Y-141727D01*
X-57739Y-141675D01*
X-57571Y-141619D01*
X-57405Y-141559D01*
X-57240Y-141495D01*
X-57077Y-141428D01*
X-56915Y-141356D01*
X-56756Y-141280D01*
X-56676Y-141251D01*
X-56598Y-141218D01*
X-56522Y-141181D01*
X-56447Y-141141D01*
X-56374Y-141098D01*
X-56303Y-141051D01*
X-56234Y-141001D01*
X-56168Y-140948D01*
X-56104Y-140892D01*
X-56043Y-140833D01*
X-55985Y-140772D01*
X-55930Y-140707D01*
X-55877Y-140641D01*
X-55828Y-140572D01*
X-55782Y-140500D01*
X-55739Y-140427D01*
X-55700Y-140352D01*
X-55664Y-140275D01*
X-55631Y-140197D01*
X-55603Y-140117D01*
X-55578Y-140036D01*
X-55557Y-139954D01*
X-55539Y-139871D01*
X-55526Y-139787D01*
X-55516Y-139702D01*
X-55510Y-139618D01*
X-55508Y-139533D01*
X-56756Y-137786D02*
X-56915Y-137710D01*
X-57077Y-137638D01*
X-57240Y-137571D01*
X-57405Y-137507D01*
X-57571Y-137447D01*
X-57739Y-137391D01*
X-57908Y-137339D01*
X-58078Y-137291D01*
X-58249Y-137247D01*
X-58421Y-137207D01*
X-58595Y-137172D01*
X-58768Y-137140D01*
X-58943Y-137113D01*
X-59118Y-137090D01*
X-59294Y-137071D01*
X-59470Y-137056D01*
X-59647Y-137045D01*
X-59823Y-137039D01*
X-60000Y-137037D01*
X-56756Y-137786D02*
X-56676Y-137815D01*
X-56598Y-137848D01*
X-56522Y-137885D01*
X-56447Y-137925D01*
X-56374Y-137968D01*
X-56303Y-138015D01*
X-56234Y-138065D01*
X-56168Y-138118D01*
X-56104Y-138174D01*
X-56043Y-138233D01*
X-55985Y-138294D01*
X-55929Y-138359D01*
X-55877Y-138425D01*
X-55828Y-138494D01*
X-55782Y-138566D01*
X-55739Y-138639D01*
X-55700Y-138714D01*
X-55664Y-138791D01*
X-55631Y-138869D01*
X-55603Y-138949D01*
X-55578Y-139030D01*
X-55557Y-139112D01*
X-55539Y-139195D01*
X-55526Y-139279D01*
X-55516Y-139364D01*
X-55510Y-139448D01*
X-55508Y-139533D01*
X-57504Y-141529D02*
X-62496Y-137536D01*
X-55508Y-133029D02*
X-55508Y-130034D01*
X-55510Y-129947D01*
X-55516Y-129860D01*
X-55525Y-129773D01*
X-55538Y-129687D01*
X-55555Y-129602D01*
X-55576Y-129517D01*
X-55600Y-129434D01*
X-55628Y-129351D01*
X-55660Y-129270D01*
X-55695Y-129190D01*
X-55734Y-129112D01*
X-55775Y-129036D01*
X-55821Y-128962D01*
X-55869Y-128889D01*
X-55920Y-128819D01*
X-55975Y-128751D01*
X-56032Y-128686D01*
X-56093Y-128623D01*
X-56156Y-128562D01*
X-56221Y-128505D01*
X-56289Y-128450D01*
X-56359Y-128399D01*
X-56432Y-128351D01*
X-56506Y-128305D01*
X-56582Y-128264D01*
X-56660Y-128225D01*
X-56740Y-128190D01*
X-56821Y-128158D01*
X-56904Y-128130D01*
X-56987Y-128106D01*
X-57072Y-128085D01*
X-57157Y-128068D01*
X-57243Y-128055D01*
X-57330Y-128046D01*
X-57417Y-128040D01*
X-57504Y-128038D01*
X-57504Y-128037D02*
X-58503Y-128037D01*
X-58503Y-128038D02*
X-58590Y-128040D01*
X-58677Y-128046D01*
X-58764Y-128055D01*
X-58850Y-128068D01*
X-58935Y-128085D01*
X-59020Y-128106D01*
X-59103Y-128130D01*
X-59186Y-128158D01*
X-59267Y-128190D01*
X-59347Y-128225D01*
X-59425Y-128264D01*
X-59501Y-128305D01*
X-59575Y-128351D01*
X-59648Y-128399D01*
X-59718Y-128450D01*
X-59786Y-128505D01*
X-59851Y-128562D01*
X-59914Y-128623D01*
X-59975Y-128686D01*
X-60032Y-128751D01*
X-60087Y-128819D01*
X-60138Y-128889D01*
X-60186Y-128962D01*
X-60232Y-129036D01*
X-60273Y-129112D01*
X-60312Y-129190D01*
X-60347Y-129270D01*
X-60379Y-129351D01*
X-60407Y-129434D01*
X-60431Y-129517D01*
X-60452Y-129602D01*
X-60469Y-129687D01*
X-60482Y-129773D01*
X-60491Y-129860D01*
X-60497Y-129947D01*
X-60499Y-130034D01*
X-60499Y-133029D01*
X-64492Y-133029D01*
X-64492Y-128037D01*
D12*
X-37500Y-208500D02*
X-37500Y-241500D01*
X-52500Y-241500D01*
X-52500Y-208500D01*
X-37500Y-208500D01*
D11*
X-55508Y-240963D02*
X-64492Y-240963D01*
X-64492Y-238467D01*
X-64490Y-238368D01*
X-64484Y-238269D01*
X-64474Y-238170D01*
X-64460Y-238072D01*
X-64443Y-237974D01*
X-64421Y-237877D01*
X-64396Y-237781D01*
X-64367Y-237686D01*
X-64334Y-237593D01*
X-64297Y-237500D01*
X-64257Y-237410D01*
X-64213Y-237321D01*
X-64166Y-237233D01*
X-64115Y-237148D01*
X-64061Y-237065D01*
X-64004Y-236984D01*
X-63943Y-236905D01*
X-63879Y-236829D01*
X-63813Y-236755D01*
X-63743Y-236685D01*
X-63671Y-236617D01*
X-63596Y-236551D01*
X-63519Y-236489D01*
X-63439Y-236430D01*
X-63357Y-236375D01*
X-63273Y-236322D01*
X-63186Y-236273D01*
X-63098Y-236227D01*
X-63008Y-236185D01*
X-62917Y-236147D01*
X-62824Y-236112D01*
X-62729Y-236081D01*
X-62634Y-236054D01*
X-62538Y-236030D01*
X-62440Y-236011D01*
X-62342Y-235995D01*
X-62244Y-235983D01*
X-62145Y-235975D01*
X-62046Y-235971D01*
X-61946Y-235971D01*
X-61847Y-235975D01*
X-61748Y-235983D01*
X-61650Y-235995D01*
X-61552Y-236011D01*
X-61454Y-236030D01*
X-61358Y-236054D01*
X-61263Y-236081D01*
X-61168Y-236112D01*
X-61075Y-236147D01*
X-60984Y-236185D01*
X-60894Y-236227D01*
X-60806Y-236273D01*
X-60719Y-236322D01*
X-60635Y-236375D01*
X-60553Y-236430D01*
X-60473Y-236489D01*
X-60396Y-236551D01*
X-60321Y-236617D01*
X-60249Y-236685D01*
X-60179Y-236755D01*
X-60113Y-236829D01*
X-60049Y-236905D01*
X-59988Y-236984D01*
X-59931Y-237065D01*
X-59877Y-237148D01*
X-59826Y-237233D01*
X-59779Y-237321D01*
X-59735Y-237410D01*
X-59695Y-237500D01*
X-59658Y-237593D01*
X-59625Y-237686D01*
X-59596Y-237781D01*
X-59571Y-237877D01*
X-59549Y-237974D01*
X-59532Y-238072D01*
X-59518Y-238170D01*
X-59508Y-238269D01*
X-59502Y-238368D01*
X-59500Y-238467D01*
X-59501Y-238467D02*
X-59501Y-240963D01*
X-59501Y-237968D02*
X-55508Y-235972D01*
X-62496Y-232028D02*
X-64492Y-229533D01*
X-55508Y-229533D01*
X-55508Y-232028D02*
X-55508Y-227037D01*
X-60000Y-223029D02*
X-60177Y-223027D01*
X-60353Y-223021D01*
X-60530Y-223010D01*
X-60706Y-222995D01*
X-60882Y-222976D01*
X-61057Y-222953D01*
X-61232Y-222926D01*
X-61405Y-222894D01*
X-61579Y-222859D01*
X-61751Y-222819D01*
X-61922Y-222775D01*
X-62092Y-222727D01*
X-62261Y-222675D01*
X-62429Y-222619D01*
X-62595Y-222559D01*
X-62760Y-222495D01*
X-62923Y-222428D01*
X-63085Y-222356D01*
X-63244Y-222280D01*
X-63324Y-222251D01*
X-63402Y-222218D01*
X-63478Y-222181D01*
X-63553Y-222141D01*
X-63626Y-222098D01*
X-63697Y-222051D01*
X-63766Y-222001D01*
X-63832Y-221948D01*
X-63896Y-221892D01*
X-63957Y-221833D01*
X-64015Y-221772D01*
X-64070Y-221707D01*
X-64123Y-221641D01*
X-64172Y-221572D01*
X-64218Y-221500D01*
X-64261Y-221427D01*
X-64300Y-221352D01*
X-64336Y-221275D01*
X-64369Y-221197D01*
X-64397Y-221117D01*
X-64422Y-221036D01*
X-64443Y-220954D01*
X-64461Y-220871D01*
X-64474Y-220787D01*
X-64484Y-220702D01*
X-64490Y-220618D01*
X-64492Y-220533D01*
X-64490Y-220448D01*
X-64484Y-220364D01*
X-64474Y-220279D01*
X-64461Y-220195D01*
X-64443Y-220112D01*
X-64422Y-220030D01*
X-64397Y-219949D01*
X-64369Y-219869D01*
X-64336Y-219791D01*
X-64300Y-219714D01*
X-64261Y-219639D01*
X-64218Y-219566D01*
X-64172Y-219494D01*
X-64123Y-219425D01*
X-64070Y-219359D01*
X-64015Y-219294D01*
X-63957Y-219233D01*
X-63896Y-219174D01*
X-63832Y-219118D01*
X-63766Y-219065D01*
X-63697Y-219015D01*
X-63626Y-218968D01*
X-63553Y-218925D01*
X-63478Y-218885D01*
X-63402Y-218848D01*
X-63324Y-218815D01*
X-63244Y-218786D01*
X-63244Y-218787D02*
X-63084Y-218711D01*
X-62923Y-218639D01*
X-62760Y-218572D01*
X-62595Y-218508D01*
X-62428Y-218448D01*
X-62261Y-218392D01*
X-62092Y-218340D01*
X-61922Y-218292D01*
X-61751Y-218248D01*
X-61578Y-218208D01*
X-61405Y-218173D01*
X-61231Y-218141D01*
X-61057Y-218114D01*
X-60882Y-218091D01*
X-60706Y-218072D01*
X-60530Y-218057D01*
X-60353Y-218046D01*
X-60177Y-218040D01*
X-60000Y-218038D01*
X-60000Y-223029D02*
X-59823Y-223027D01*
X-59647Y-223021D01*
X-59470Y-223010D01*
X-59294Y-222995D01*
X-59118Y-222976D01*
X-58943Y-222953D01*
X-58768Y-222926D01*
X-58595Y-222894D01*
X-58421Y-222859D01*
X-58249Y-222819D01*
X-58078Y-222775D01*
X-57908Y-222727D01*
X-57739Y-222675D01*
X-57571Y-222619D01*
X-57405Y-222559D01*
X-57240Y-222495D01*
X-57077Y-222428D01*
X-56915Y-222356D01*
X-56756Y-222280D01*
X-56676Y-222251D01*
X-56598Y-222218D01*
X-56522Y-222181D01*
X-56447Y-222141D01*
X-56374Y-222098D01*
X-56303Y-222051D01*
X-56234Y-222001D01*
X-56168Y-221948D01*
X-56104Y-221892D01*
X-56043Y-221833D01*
X-55985Y-221772D01*
X-55930Y-221707D01*
X-55877Y-221641D01*
X-55828Y-221572D01*
X-55782Y-221500D01*
X-55739Y-221427D01*
X-55700Y-221352D01*
X-55664Y-221275D01*
X-55631Y-221197D01*
X-55603Y-221117D01*
X-55578Y-221036D01*
X-55557Y-220954D01*
X-55539Y-220871D01*
X-55526Y-220787D01*
X-55516Y-220702D01*
X-55510Y-220618D01*
X-55508Y-220533D01*
X-56756Y-218786D02*
X-56915Y-218710D01*
X-57077Y-218638D01*
X-57240Y-218571D01*
X-57405Y-218507D01*
X-57571Y-218447D01*
X-57739Y-218391D01*
X-57908Y-218339D01*
X-58078Y-218291D01*
X-58249Y-218247D01*
X-58421Y-218207D01*
X-58595Y-218172D01*
X-58768Y-218140D01*
X-58943Y-218113D01*
X-59118Y-218090D01*
X-59294Y-218071D01*
X-59470Y-218056D01*
X-59647Y-218045D01*
X-59823Y-218039D01*
X-60000Y-218037D01*
X-56756Y-218786D02*
X-56676Y-218815D01*
X-56598Y-218848D01*
X-56522Y-218885D01*
X-56447Y-218925D01*
X-56374Y-218968D01*
X-56303Y-219015D01*
X-56234Y-219065D01*
X-56168Y-219118D01*
X-56104Y-219174D01*
X-56043Y-219233D01*
X-55985Y-219294D01*
X-55929Y-219359D01*
X-55877Y-219425D01*
X-55828Y-219494D01*
X-55782Y-219566D01*
X-55739Y-219639D01*
X-55700Y-219714D01*
X-55664Y-219791D01*
X-55631Y-219869D01*
X-55603Y-219949D01*
X-55578Y-220030D01*
X-55557Y-220112D01*
X-55539Y-220195D01*
X-55526Y-220279D01*
X-55516Y-220364D01*
X-55510Y-220448D01*
X-55508Y-220533D01*
X-57504Y-222529D02*
X-62496Y-218536D01*
X-60499Y-214029D02*
X-60499Y-211034D01*
X-60497Y-210947D01*
X-60491Y-210860D01*
X-60482Y-210773D01*
X-60469Y-210687D01*
X-60452Y-210602D01*
X-60431Y-210517D01*
X-60407Y-210434D01*
X-60379Y-210351D01*
X-60347Y-210270D01*
X-60312Y-210190D01*
X-60273Y-210112D01*
X-60232Y-210036D01*
X-60186Y-209962D01*
X-60138Y-209889D01*
X-60087Y-209819D01*
X-60032Y-209751D01*
X-59975Y-209686D01*
X-59914Y-209623D01*
X-59851Y-209562D01*
X-59786Y-209505D01*
X-59718Y-209450D01*
X-59648Y-209399D01*
X-59575Y-209351D01*
X-59501Y-209305D01*
X-59425Y-209264D01*
X-59347Y-209225D01*
X-59267Y-209190D01*
X-59186Y-209158D01*
X-59103Y-209130D01*
X-59020Y-209106D01*
X-58935Y-209085D01*
X-58850Y-209068D01*
X-58764Y-209055D01*
X-58677Y-209046D01*
X-58590Y-209040D01*
X-58503Y-209038D01*
X-58503Y-209037D02*
X-58004Y-209037D01*
X-57905Y-209039D01*
X-57806Y-209045D01*
X-57707Y-209055D01*
X-57609Y-209069D01*
X-57511Y-209086D01*
X-57414Y-209108D01*
X-57318Y-209133D01*
X-57223Y-209162D01*
X-57130Y-209195D01*
X-57037Y-209232D01*
X-56947Y-209272D01*
X-56858Y-209316D01*
X-56770Y-209363D01*
X-56685Y-209414D01*
X-56602Y-209468D01*
X-56521Y-209525D01*
X-56442Y-209586D01*
X-56366Y-209650D01*
X-56292Y-209716D01*
X-56222Y-209786D01*
X-56154Y-209858D01*
X-56088Y-209933D01*
X-56026Y-210010D01*
X-55967Y-210090D01*
X-55912Y-210172D01*
X-55859Y-210256D01*
X-55810Y-210343D01*
X-55764Y-210431D01*
X-55722Y-210521D01*
X-55684Y-210612D01*
X-55649Y-210705D01*
X-55618Y-210800D01*
X-55591Y-210895D01*
X-55567Y-210991D01*
X-55548Y-211089D01*
X-55532Y-211187D01*
X-55520Y-211285D01*
X-55512Y-211384D01*
X-55508Y-211483D01*
X-55508Y-211583D01*
X-55512Y-211682D01*
X-55520Y-211781D01*
X-55532Y-211879D01*
X-55548Y-211977D01*
X-55567Y-212075D01*
X-55591Y-212171D01*
X-55618Y-212266D01*
X-55649Y-212361D01*
X-55684Y-212454D01*
X-55722Y-212545D01*
X-55764Y-212635D01*
X-55810Y-212723D01*
X-55859Y-212810D01*
X-55912Y-212894D01*
X-55967Y-212976D01*
X-56026Y-213056D01*
X-56088Y-213133D01*
X-56154Y-213208D01*
X-56222Y-213280D01*
X-56292Y-213350D01*
X-56366Y-213416D01*
X-56442Y-213480D01*
X-56521Y-213541D01*
X-56602Y-213598D01*
X-56685Y-213652D01*
X-56770Y-213703D01*
X-56858Y-213750D01*
X-56947Y-213794D01*
X-57037Y-213834D01*
X-57130Y-213871D01*
X-57223Y-213904D01*
X-57318Y-213933D01*
X-57414Y-213958D01*
X-57511Y-213980D01*
X-57609Y-213997D01*
X-57707Y-214011D01*
X-57806Y-214021D01*
X-57905Y-214027D01*
X-58004Y-214029D01*
X-60499Y-214029D01*
X-60624Y-214027D01*
X-60750Y-214021D01*
X-60875Y-214011D01*
X-60999Y-213998D01*
X-61124Y-213980D01*
X-61247Y-213958D01*
X-61370Y-213933D01*
X-61492Y-213904D01*
X-61613Y-213870D01*
X-61733Y-213834D01*
X-61852Y-213793D01*
X-61969Y-213749D01*
X-62085Y-213701D01*
X-62199Y-213649D01*
X-62312Y-213594D01*
X-62423Y-213535D01*
X-62532Y-213473D01*
X-62639Y-213407D01*
X-62743Y-213339D01*
X-62846Y-213266D01*
X-62946Y-213191D01*
X-63044Y-213113D01*
X-63140Y-213031D01*
X-63232Y-212947D01*
X-63322Y-212859D01*
X-63410Y-212769D01*
X-63494Y-212677D01*
X-63576Y-212581D01*
X-63654Y-212483D01*
X-63729Y-212383D01*
X-63802Y-212280D01*
X-63870Y-212176D01*
X-63936Y-212069D01*
X-63998Y-211960D01*
X-64057Y-211849D01*
X-64112Y-211736D01*
X-64164Y-211622D01*
X-64212Y-211506D01*
X-64256Y-211389D01*
X-64297Y-211270D01*
X-64333Y-211150D01*
X-64367Y-211029D01*
X-64396Y-210907D01*
X-64421Y-210784D01*
X-64443Y-210661D01*
X-64461Y-210536D01*
X-64474Y-210412D01*
X-64484Y-210287D01*
X-64490Y-210161D01*
X-64492Y-210036D01*
D13*
X9906Y16256D02*
X9908Y16391D01*
X9914Y16526D01*
X9924Y16660D01*
X9938Y16794D01*
X9956Y16928D01*
X9977Y17061D01*
X10003Y17193D01*
X10033Y17325D01*
X10066Y17456D01*
X10103Y17585D01*
X10145Y17714D01*
X10189Y17841D01*
X10238Y17967D01*
X10290Y18091D01*
X10346Y18214D01*
X10406Y18335D01*
X10469Y18454D01*
X10535Y18571D01*
X10605Y18686D01*
X10679Y18800D01*
X10756Y18911D01*
X10835Y19019D01*
X10919Y19125D01*
X11005Y19229D01*
X11094Y19330D01*
X11186Y19429D01*
X11281Y19524D01*
X11379Y19617D01*
X11479Y19707D01*
X11582Y19794D01*
X11688Y19878D01*
X11796Y19959D01*
X11906Y20036D01*
X12019Y20110D01*
X12134Y20181D01*
X12251Y20249D01*
X12369Y20313D01*
X12490Y20373D01*
X12612Y20430D01*
X12736Y20483D01*
X12862Y20533D01*
X12988Y20579D01*
X13117Y20621D01*
X13246Y20659D01*
X13376Y20693D01*
X13508Y20724D01*
X13640Y20751D01*
X13773Y20773D01*
X13906Y20792D01*
X14040Y20807D01*
X14175Y20818D01*
X14309Y20825D01*
X14444Y20828D01*
X14579Y20827D01*
X14714Y20822D01*
X14848Y20813D01*
X14983Y20800D01*
X15117Y20783D01*
X15250Y20762D01*
X15382Y20738D01*
X15514Y20709D01*
X15645Y20677D01*
X15775Y20640D01*
X15904Y20600D01*
X16031Y20556D01*
X16157Y20508D01*
X16282Y20457D01*
X16405Y20402D01*
X16527Y20343D01*
X16646Y20281D01*
X16764Y20215D01*
X16880Y20146D01*
X16993Y20074D01*
X17105Y19998D01*
X17214Y19919D01*
X17321Y19837D01*
X17425Y19751D01*
X17527Y19663D01*
X17626Y19571D01*
X17723Y19477D01*
X17816Y19380D01*
X17907Y19280D01*
X17995Y19178D01*
X18079Y19073D01*
X18161Y18965D01*
X18239Y18855D01*
X18314Y18743D01*
X18386Y18629D01*
X18454Y18513D01*
X18519Y18394D01*
X18580Y18274D01*
X18638Y18152D01*
X18692Y18029D01*
X18743Y17904D01*
X18789Y17777D01*
X18832Y17650D01*
X18872Y17521D01*
X18907Y17390D01*
X18939Y17259D01*
X18966Y17127D01*
X18990Y16995D01*
X19010Y16861D01*
X19026Y16727D01*
X19038Y16593D01*
X19046Y16458D01*
X19050Y16323D01*
X19050Y16189D01*
X19046Y16054D01*
X19038Y15919D01*
X19026Y15785D01*
X19010Y15651D01*
X18990Y15517D01*
X18966Y15385D01*
X18939Y15253D01*
X18907Y15122D01*
X18872Y14991D01*
X18832Y14862D01*
X18789Y14735D01*
X18743Y14608D01*
X18692Y14483D01*
X18638Y14360D01*
X18580Y14238D01*
X18519Y14118D01*
X18454Y13999D01*
X18386Y13883D01*
X18314Y13769D01*
X18239Y13657D01*
X18161Y13547D01*
X18079Y13439D01*
X17995Y13334D01*
X17907Y13232D01*
X17816Y13132D01*
X17723Y13035D01*
X17626Y12941D01*
X17527Y12849D01*
X17425Y12761D01*
X17321Y12675D01*
X17214Y12593D01*
X17105Y12514D01*
X16993Y12438D01*
X16880Y12366D01*
X16764Y12297D01*
X16646Y12231D01*
X16527Y12169D01*
X16405Y12110D01*
X16282Y12055D01*
X16157Y12004D01*
X16031Y11956D01*
X15904Y11912D01*
X15775Y11872D01*
X15645Y11835D01*
X15514Y11803D01*
X15382Y11774D01*
X15250Y11750D01*
X15117Y11729D01*
X14983Y11712D01*
X14848Y11699D01*
X14714Y11690D01*
X14579Y11685D01*
X14444Y11684D01*
X14309Y11687D01*
X14175Y11694D01*
X14040Y11705D01*
X13906Y11720D01*
X13773Y11739D01*
X13640Y11761D01*
X13508Y11788D01*
X13376Y11819D01*
X13246Y11853D01*
X13117Y11891D01*
X12988Y11933D01*
X12862Y11979D01*
X12736Y12029D01*
X12612Y12082D01*
X12490Y12139D01*
X12369Y12199D01*
X12251Y12263D01*
X12134Y12331D01*
X12019Y12402D01*
X11906Y12476D01*
X11796Y12553D01*
X11688Y12634D01*
X11582Y12718D01*
X11479Y12805D01*
X11379Y12895D01*
X11281Y12988D01*
X11186Y13083D01*
X11094Y13182D01*
X11005Y13283D01*
X10919Y13387D01*
X10835Y13493D01*
X10756Y13601D01*
X10679Y13712D01*
X10605Y13826D01*
X10535Y13941D01*
X10469Y14058D01*
X10406Y14177D01*
X10346Y14298D01*
X10290Y14421D01*
X10238Y14545D01*
X10189Y14671D01*
X10145Y14798D01*
X10103Y14927D01*
X10066Y15056D01*
X10033Y15187D01*
X10003Y15319D01*
X9977Y15451D01*
X9956Y15584D01*
X9938Y15718D01*
X9924Y15852D01*
X9914Y15986D01*
X9908Y16121D01*
X9906Y16256D01*
X-22828Y25146D02*
X-22828Y-25146D01*
X22828Y-25146D01*
X22828Y25146D01*
X-22828Y25146D01*
D14*
X-20542Y22860D02*
X-20542Y-22860D01*
X20542Y-22860D01*
X20542Y22860D01*
X-20542Y22860D01*
D11*
X-16146Y34004D02*
X-16146Y40492D01*
X-16146Y34004D02*
X-16144Y33905D01*
X-16138Y33806D01*
X-16128Y33707D01*
X-16114Y33609D01*
X-16097Y33511D01*
X-16075Y33414D01*
X-16050Y33318D01*
X-16021Y33223D01*
X-15988Y33130D01*
X-15951Y33037D01*
X-15911Y32947D01*
X-15867Y32858D01*
X-15820Y32770D01*
X-15769Y32685D01*
X-15715Y32602D01*
X-15658Y32521D01*
X-15597Y32442D01*
X-15533Y32366D01*
X-15467Y32292D01*
X-15397Y32222D01*
X-15325Y32154D01*
X-15250Y32088D01*
X-15173Y32026D01*
X-15093Y31967D01*
X-15011Y31912D01*
X-14927Y31859D01*
X-14840Y31810D01*
X-14752Y31764D01*
X-14662Y31722D01*
X-14571Y31684D01*
X-14478Y31649D01*
X-14383Y31618D01*
X-14288Y31591D01*
X-14192Y31567D01*
X-14094Y31548D01*
X-13996Y31532D01*
X-13898Y31520D01*
X-13799Y31512D01*
X-13700Y31508D01*
X-13600Y31508D01*
X-13501Y31512D01*
X-13402Y31520D01*
X-13304Y31532D01*
X-13206Y31548D01*
X-13108Y31567D01*
X-13012Y31591D01*
X-12917Y31618D01*
X-12822Y31649D01*
X-12729Y31684D01*
X-12638Y31722D01*
X-12548Y31764D01*
X-12460Y31810D01*
X-12373Y31859D01*
X-12289Y31912D01*
X-12207Y31967D01*
X-12127Y32026D01*
X-12050Y32088D01*
X-11975Y32154D01*
X-11903Y32222D01*
X-11833Y32292D01*
X-11767Y32366D01*
X-11703Y32442D01*
X-11642Y32521D01*
X-11585Y32602D01*
X-11531Y32685D01*
X-11480Y32770D01*
X-11433Y32858D01*
X-11389Y32947D01*
X-11349Y33037D01*
X-11312Y33130D01*
X-11279Y33223D01*
X-11250Y33318D01*
X-11225Y33414D01*
X-11203Y33511D01*
X-11186Y33609D01*
X-11172Y33707D01*
X-11162Y33806D01*
X-11156Y33905D01*
X-11154Y34004D01*
X-11154Y40492D01*
X-6846Y38496D02*
X-4350Y40492D01*
X-4350Y31508D01*
X-6846Y31508D02*
X-1854Y31508D01*
X2155Y36000D02*
X2157Y36177D01*
X2163Y36353D01*
X2174Y36530D01*
X2189Y36706D01*
X2208Y36882D01*
X2231Y37057D01*
X2258Y37231D01*
X2290Y37405D01*
X2325Y37578D01*
X2365Y37751D01*
X2409Y37922D01*
X2457Y38092D01*
X2509Y38261D01*
X2565Y38428D01*
X2625Y38595D01*
X2689Y38760D01*
X2756Y38923D01*
X2828Y39084D01*
X2904Y39244D01*
X2903Y39244D02*
X2932Y39324D01*
X2965Y39402D01*
X3002Y39478D01*
X3042Y39553D01*
X3085Y39626D01*
X3132Y39697D01*
X3182Y39766D01*
X3235Y39832D01*
X3291Y39896D01*
X3350Y39957D01*
X3411Y40015D01*
X3476Y40070D01*
X3542Y40123D01*
X3611Y40172D01*
X3683Y40218D01*
X3756Y40261D01*
X3831Y40300D01*
X3908Y40336D01*
X3986Y40369D01*
X4066Y40397D01*
X4147Y40422D01*
X4229Y40443D01*
X4312Y40461D01*
X4396Y40474D01*
X4481Y40484D01*
X4565Y40490D01*
X4650Y40492D01*
X4735Y40490D01*
X4819Y40484D01*
X4904Y40474D01*
X4988Y40461D01*
X5071Y40443D01*
X5153Y40422D01*
X5234Y40397D01*
X5314Y40369D01*
X5392Y40336D01*
X5469Y40300D01*
X5544Y40261D01*
X5618Y40218D01*
X5689Y40172D01*
X5758Y40123D01*
X5824Y40070D01*
X5889Y40015D01*
X5950Y39957D01*
X6009Y39896D01*
X6065Y39832D01*
X6118Y39766D01*
X6168Y39697D01*
X6215Y39626D01*
X6258Y39553D01*
X6298Y39478D01*
X6335Y39402D01*
X6368Y39324D01*
X6397Y39244D01*
X6473Y39085D01*
X6545Y38923D01*
X6612Y38760D01*
X6676Y38595D01*
X6736Y38429D01*
X6792Y38261D01*
X6844Y38092D01*
X6892Y37922D01*
X6936Y37751D01*
X6976Y37579D01*
X7011Y37405D01*
X7043Y37232D01*
X7070Y37057D01*
X7093Y36882D01*
X7112Y36706D01*
X7127Y36530D01*
X7138Y36353D01*
X7144Y36177D01*
X7146Y36000D01*
X2154Y36000D02*
X2156Y35823D01*
X2162Y35647D01*
X2173Y35470D01*
X2188Y35294D01*
X2207Y35118D01*
X2230Y34943D01*
X2257Y34768D01*
X2289Y34595D01*
X2324Y34421D01*
X2364Y34249D01*
X2408Y34078D01*
X2456Y33908D01*
X2508Y33739D01*
X2564Y33571D01*
X2624Y33405D01*
X2688Y33240D01*
X2755Y33077D01*
X2827Y32915D01*
X2903Y32756D01*
X2932Y32676D01*
X2965Y32598D01*
X3002Y32522D01*
X3042Y32447D01*
X3085Y32374D01*
X3132Y32303D01*
X3182Y32234D01*
X3235Y32168D01*
X3291Y32104D01*
X3350Y32043D01*
X3411Y31985D01*
X3476Y31930D01*
X3542Y31877D01*
X3611Y31828D01*
X3683Y31782D01*
X3756Y31739D01*
X3831Y31700D01*
X3908Y31664D01*
X3986Y31631D01*
X4066Y31603D01*
X4147Y31578D01*
X4229Y31557D01*
X4312Y31539D01*
X4396Y31526D01*
X4481Y31516D01*
X4565Y31510D01*
X4650Y31508D01*
X6397Y32756D02*
X6473Y32915D01*
X6545Y33077D01*
X6612Y33240D01*
X6676Y33405D01*
X6736Y33571D01*
X6792Y33739D01*
X6844Y33908D01*
X6892Y34078D01*
X6936Y34249D01*
X6976Y34421D01*
X7011Y34595D01*
X7043Y34768D01*
X7070Y34943D01*
X7093Y35118D01*
X7112Y35294D01*
X7127Y35470D01*
X7138Y35647D01*
X7144Y35823D01*
X7146Y36000D01*
X6397Y32756D02*
X6368Y32676D01*
X6335Y32598D01*
X6298Y32522D01*
X6258Y32447D01*
X6215Y32374D01*
X6168Y32303D01*
X6118Y32234D01*
X6065Y32168D01*
X6009Y32104D01*
X5950Y32043D01*
X5889Y31985D01*
X5824Y31930D01*
X5758Y31877D01*
X5689Y31828D01*
X5617Y31782D01*
X5544Y31739D01*
X5469Y31700D01*
X5392Y31664D01*
X5314Y31631D01*
X5234Y31603D01*
X5153Y31578D01*
X5071Y31557D01*
X4988Y31539D01*
X4904Y31526D01*
X4819Y31516D01*
X4735Y31510D01*
X4650Y31508D01*
X2654Y33504D02*
X6646Y38496D01*
X11154Y38496D02*
X13650Y40492D01*
X13650Y31508D01*
X11154Y31508D02*
X16146Y31508D01*
D12*
X-25500Y35500D02*
X-58500Y35500D01*
X-58500Y50500D01*
X-25500Y50500D01*
X-25500Y35500D01*
D11*
X-57963Y53508D02*
X-57963Y62492D01*
X-55467Y62492D01*
X-55368Y62490D01*
X-55269Y62484D01*
X-55170Y62474D01*
X-55072Y62460D01*
X-54974Y62443D01*
X-54877Y62421D01*
X-54781Y62396D01*
X-54686Y62367D01*
X-54593Y62334D01*
X-54500Y62297D01*
X-54410Y62257D01*
X-54321Y62213D01*
X-54233Y62166D01*
X-54148Y62115D01*
X-54065Y62061D01*
X-53984Y62004D01*
X-53905Y61943D01*
X-53829Y61879D01*
X-53755Y61813D01*
X-53685Y61743D01*
X-53617Y61671D01*
X-53551Y61596D01*
X-53489Y61519D01*
X-53430Y61439D01*
X-53375Y61357D01*
X-53322Y61273D01*
X-53273Y61186D01*
X-53227Y61098D01*
X-53185Y61008D01*
X-53147Y60917D01*
X-53112Y60824D01*
X-53081Y60729D01*
X-53054Y60634D01*
X-53030Y60538D01*
X-53011Y60440D01*
X-52995Y60342D01*
X-52983Y60244D01*
X-52975Y60145D01*
X-52971Y60046D01*
X-52971Y59946D01*
X-52975Y59847D01*
X-52983Y59748D01*
X-52995Y59650D01*
X-53011Y59552D01*
X-53030Y59454D01*
X-53054Y59358D01*
X-53081Y59263D01*
X-53112Y59168D01*
X-53147Y59075D01*
X-53185Y58984D01*
X-53227Y58894D01*
X-53273Y58806D01*
X-53322Y58719D01*
X-53375Y58635D01*
X-53430Y58553D01*
X-53489Y58473D01*
X-53551Y58396D01*
X-53617Y58321D01*
X-53685Y58249D01*
X-53755Y58179D01*
X-53829Y58113D01*
X-53905Y58049D01*
X-53984Y57988D01*
X-54065Y57931D01*
X-54148Y57877D01*
X-54233Y57826D01*
X-54321Y57779D01*
X-54410Y57735D01*
X-54500Y57695D01*
X-54593Y57658D01*
X-54686Y57625D01*
X-54781Y57596D01*
X-54877Y57571D01*
X-54974Y57549D01*
X-55072Y57532D01*
X-55170Y57518D01*
X-55269Y57508D01*
X-55368Y57502D01*
X-55467Y57500D01*
X-55467Y57501D02*
X-57963Y57501D01*
X-54968Y57501D02*
X-52972Y53508D01*
X-49028Y60496D02*
X-46533Y62492D01*
X-46533Y53508D01*
X-49028Y53508D02*
X-44037Y53508D01*
X-40029Y58000D02*
X-40027Y58177D01*
X-40021Y58353D01*
X-40010Y58530D01*
X-39995Y58706D01*
X-39976Y58882D01*
X-39953Y59057D01*
X-39926Y59232D01*
X-39894Y59405D01*
X-39859Y59579D01*
X-39819Y59751D01*
X-39775Y59922D01*
X-39727Y60092D01*
X-39675Y60261D01*
X-39619Y60429D01*
X-39559Y60595D01*
X-39495Y60760D01*
X-39428Y60923D01*
X-39356Y61085D01*
X-39280Y61244D01*
X-39251Y61324D01*
X-39218Y61402D01*
X-39181Y61478D01*
X-39141Y61553D01*
X-39098Y61626D01*
X-39051Y61697D01*
X-39001Y61766D01*
X-38948Y61832D01*
X-38892Y61896D01*
X-38833Y61957D01*
X-38772Y62015D01*
X-38707Y62070D01*
X-38641Y62123D01*
X-38572Y62172D01*
X-38500Y62218D01*
X-38427Y62261D01*
X-38352Y62300D01*
X-38275Y62336D01*
X-38197Y62369D01*
X-38117Y62397D01*
X-38036Y62422D01*
X-37954Y62443D01*
X-37871Y62461D01*
X-37787Y62474D01*
X-37702Y62484D01*
X-37618Y62490D01*
X-37533Y62492D01*
X-37448Y62490D01*
X-37364Y62484D01*
X-37279Y62474D01*
X-37195Y62461D01*
X-37112Y62443D01*
X-37030Y62422D01*
X-36949Y62397D01*
X-36869Y62369D01*
X-36791Y62336D01*
X-36714Y62300D01*
X-36639Y62261D01*
X-36566Y62218D01*
X-36494Y62172D01*
X-36425Y62123D01*
X-36359Y62070D01*
X-36294Y62015D01*
X-36233Y61957D01*
X-36174Y61896D01*
X-36118Y61832D01*
X-36065Y61766D01*
X-36015Y61697D01*
X-35968Y61626D01*
X-35925Y61553D01*
X-35885Y61478D01*
X-35848Y61402D01*
X-35815Y61324D01*
X-35786Y61244D01*
X-35787Y61244D02*
X-35711Y61084D01*
X-35639Y60923D01*
X-35572Y60760D01*
X-35508Y60595D01*
X-35448Y60428D01*
X-35392Y60261D01*
X-35340Y60092D01*
X-35292Y59922D01*
X-35248Y59751D01*
X-35208Y59578D01*
X-35173Y59405D01*
X-35141Y59231D01*
X-35114Y59057D01*
X-35091Y58882D01*
X-35072Y58706D01*
X-35057Y58530D01*
X-35046Y58353D01*
X-35040Y58177D01*
X-35038Y58000D01*
X-40029Y58000D02*
X-40027Y57823D01*
X-40021Y57647D01*
X-40010Y57470D01*
X-39995Y57294D01*
X-39976Y57118D01*
X-39953Y56943D01*
X-39926Y56768D01*
X-39894Y56595D01*
X-39859Y56421D01*
X-39819Y56249D01*
X-39775Y56078D01*
X-39727Y55908D01*
X-39675Y55739D01*
X-39619Y55571D01*
X-39559Y55405D01*
X-39495Y55240D01*
X-39428Y55077D01*
X-39356Y54915D01*
X-39280Y54756D01*
X-39251Y54676D01*
X-39218Y54598D01*
X-39181Y54522D01*
X-39141Y54447D01*
X-39098Y54374D01*
X-39051Y54303D01*
X-39001Y54234D01*
X-38948Y54168D01*
X-38892Y54104D01*
X-38833Y54043D01*
X-38772Y53985D01*
X-38707Y53930D01*
X-38641Y53877D01*
X-38572Y53828D01*
X-38500Y53782D01*
X-38427Y53739D01*
X-38352Y53700D01*
X-38275Y53664D01*
X-38197Y53631D01*
X-38117Y53603D01*
X-38036Y53578D01*
X-37954Y53557D01*
X-37871Y53539D01*
X-37787Y53526D01*
X-37702Y53516D01*
X-37618Y53510D01*
X-37533Y53508D01*
X-35786Y54756D02*
X-35710Y54915D01*
X-35638Y55077D01*
X-35571Y55240D01*
X-35507Y55405D01*
X-35447Y55571D01*
X-35391Y55739D01*
X-35339Y55908D01*
X-35291Y56078D01*
X-35247Y56249D01*
X-35207Y56421D01*
X-35172Y56595D01*
X-35140Y56768D01*
X-35113Y56943D01*
X-35090Y57118D01*
X-35071Y57294D01*
X-35056Y57470D01*
X-35045Y57647D01*
X-35039Y57823D01*
X-35037Y58000D01*
X-35786Y54756D02*
X-35815Y54676D01*
X-35848Y54598D01*
X-35885Y54522D01*
X-35925Y54447D01*
X-35968Y54374D01*
X-36015Y54303D01*
X-36065Y54234D01*
X-36118Y54168D01*
X-36174Y54104D01*
X-36233Y54043D01*
X-36294Y53985D01*
X-36359Y53929D01*
X-36425Y53877D01*
X-36494Y53828D01*
X-36566Y53782D01*
X-36639Y53739D01*
X-36714Y53700D01*
X-36791Y53664D01*
X-36869Y53631D01*
X-36949Y53603D01*
X-37030Y53578D01*
X-37112Y53557D01*
X-37195Y53539D01*
X-37279Y53526D01*
X-37364Y53516D01*
X-37448Y53510D01*
X-37533Y53508D01*
X-39529Y55504D02*
X-35536Y60496D01*
X-28283Y62492D02*
X-28190Y62490D01*
X-28098Y62484D01*
X-28005Y62475D01*
X-27913Y62461D01*
X-27822Y62444D01*
X-27732Y62423D01*
X-27642Y62399D01*
X-27554Y62370D01*
X-27467Y62338D01*
X-27381Y62303D01*
X-27297Y62264D01*
X-27214Y62221D01*
X-27133Y62175D01*
X-27055Y62126D01*
X-26978Y62074D01*
X-26903Y62018D01*
X-26831Y61960D01*
X-26762Y61898D01*
X-26695Y61834D01*
X-26631Y61767D01*
X-26569Y61698D01*
X-26511Y61626D01*
X-26455Y61551D01*
X-26403Y61474D01*
X-26354Y61396D01*
X-26308Y61315D01*
X-26265Y61232D01*
X-26226Y61148D01*
X-26191Y61062D01*
X-26159Y60975D01*
X-26130Y60887D01*
X-26106Y60797D01*
X-26085Y60707D01*
X-26068Y60616D01*
X-26054Y60524D01*
X-26045Y60431D01*
X-26039Y60339D01*
X-26037Y60246D01*
X-28283Y62492D02*
X-28390Y62490D01*
X-28496Y62484D01*
X-28602Y62474D01*
X-28708Y62460D01*
X-28814Y62443D01*
X-28918Y62421D01*
X-29022Y62396D01*
X-29124Y62367D01*
X-29226Y62334D01*
X-29326Y62297D01*
X-29425Y62256D01*
X-29522Y62212D01*
X-29617Y62165D01*
X-29711Y62114D01*
X-29803Y62059D01*
X-29892Y62001D01*
X-29980Y61940D01*
X-30065Y61876D01*
X-30148Y61808D01*
X-30228Y61738D01*
X-30305Y61665D01*
X-30380Y61588D01*
X-30452Y61509D01*
X-30521Y61428D01*
X-30587Y61344D01*
X-30649Y61258D01*
X-30709Y61169D01*
X-30765Y61078D01*
X-30817Y60985D01*
X-30867Y60891D01*
X-30912Y60794D01*
X-30954Y60696D01*
X-30993Y60597D01*
X-31028Y60496D01*
X-26787Y58499D02*
X-26717Y58568D01*
X-26651Y58640D01*
X-26587Y58714D01*
X-26527Y58791D01*
X-26469Y58870D01*
X-26415Y58951D01*
X-26364Y59034D01*
X-26317Y59120D01*
X-26273Y59207D01*
X-26233Y59296D01*
X-26196Y59386D01*
X-26163Y59478D01*
X-26134Y59572D01*
X-26109Y59666D01*
X-26087Y59761D01*
X-26070Y59857D01*
X-26056Y59954D01*
X-26046Y60051D01*
X-26040Y60148D01*
X-26038Y60246D01*
X-26786Y58499D02*
X-31029Y53508D01*
X-26037Y53508D01*
D12*
X19500Y-90500D02*
X19500Y-123500D01*
X19500Y-90500D02*
X34500Y-90500D01*
X34500Y-123500D01*
X19500Y-123500D01*
D11*
X37508Y-122963D02*
X46492Y-122963D01*
X37508Y-122963D02*
X37508Y-120467D01*
X37510Y-120368D01*
X37516Y-120269D01*
X37526Y-120170D01*
X37540Y-120072D01*
X37557Y-119974D01*
X37579Y-119877D01*
X37604Y-119781D01*
X37633Y-119686D01*
X37666Y-119593D01*
X37703Y-119500D01*
X37743Y-119410D01*
X37787Y-119321D01*
X37834Y-119233D01*
X37885Y-119148D01*
X37939Y-119065D01*
X37996Y-118984D01*
X38057Y-118905D01*
X38121Y-118829D01*
X38187Y-118755D01*
X38257Y-118685D01*
X38329Y-118617D01*
X38404Y-118551D01*
X38481Y-118489D01*
X38561Y-118430D01*
X38643Y-118375D01*
X38727Y-118322D01*
X38814Y-118273D01*
X38902Y-118227D01*
X38992Y-118185D01*
X39083Y-118147D01*
X39176Y-118112D01*
X39271Y-118081D01*
X39366Y-118054D01*
X39462Y-118030D01*
X39560Y-118011D01*
X39658Y-117995D01*
X39756Y-117983D01*
X39855Y-117975D01*
X39954Y-117971D01*
X40054Y-117971D01*
X40153Y-117975D01*
X40252Y-117983D01*
X40350Y-117995D01*
X40448Y-118011D01*
X40546Y-118030D01*
X40642Y-118054D01*
X40737Y-118081D01*
X40832Y-118112D01*
X40925Y-118147D01*
X41016Y-118185D01*
X41106Y-118227D01*
X41194Y-118273D01*
X41281Y-118322D01*
X41365Y-118375D01*
X41447Y-118430D01*
X41527Y-118489D01*
X41604Y-118551D01*
X41679Y-118617D01*
X41751Y-118685D01*
X41821Y-118755D01*
X41887Y-118829D01*
X41951Y-118905D01*
X42012Y-118984D01*
X42069Y-119065D01*
X42123Y-119148D01*
X42174Y-119233D01*
X42221Y-119321D01*
X42265Y-119410D01*
X42305Y-119500D01*
X42342Y-119593D01*
X42375Y-119686D01*
X42404Y-119781D01*
X42429Y-119877D01*
X42451Y-119974D01*
X42468Y-120072D01*
X42482Y-120170D01*
X42492Y-120269D01*
X42498Y-120368D01*
X42500Y-120467D01*
X42499Y-120467D02*
X42499Y-122963D01*
X42499Y-119968D02*
X46492Y-117972D01*
X39504Y-114028D02*
X37508Y-111533D01*
X46492Y-111533D01*
X46492Y-114028D02*
X46492Y-109037D01*
X42000Y-105029D02*
X41823Y-105027D01*
X41647Y-105021D01*
X41470Y-105010D01*
X41294Y-104995D01*
X41118Y-104976D01*
X40943Y-104953D01*
X40768Y-104926D01*
X40595Y-104894D01*
X40421Y-104859D01*
X40249Y-104819D01*
X40078Y-104775D01*
X39908Y-104727D01*
X39739Y-104675D01*
X39571Y-104619D01*
X39405Y-104559D01*
X39240Y-104495D01*
X39077Y-104428D01*
X38915Y-104356D01*
X38756Y-104280D01*
X38676Y-104251D01*
X38598Y-104218D01*
X38522Y-104181D01*
X38447Y-104141D01*
X38374Y-104098D01*
X38303Y-104051D01*
X38234Y-104001D01*
X38168Y-103948D01*
X38104Y-103892D01*
X38043Y-103833D01*
X37985Y-103772D01*
X37930Y-103708D01*
X37877Y-103641D01*
X37828Y-103572D01*
X37782Y-103501D01*
X37739Y-103427D01*
X37700Y-103352D01*
X37664Y-103275D01*
X37631Y-103197D01*
X37603Y-103117D01*
X37578Y-103036D01*
X37557Y-102954D01*
X37539Y-102871D01*
X37526Y-102787D01*
X37516Y-102702D01*
X37510Y-102618D01*
X37508Y-102533D01*
X37510Y-102448D01*
X37516Y-102364D01*
X37526Y-102279D01*
X37539Y-102195D01*
X37557Y-102112D01*
X37578Y-102030D01*
X37603Y-101949D01*
X37631Y-101869D01*
X37664Y-101791D01*
X37700Y-101714D01*
X37739Y-101639D01*
X37782Y-101566D01*
X37828Y-101494D01*
X37877Y-101425D01*
X37930Y-101359D01*
X37985Y-101294D01*
X38043Y-101233D01*
X38104Y-101174D01*
X38168Y-101118D01*
X38234Y-101065D01*
X38303Y-101015D01*
X38374Y-100968D01*
X38447Y-100925D01*
X38522Y-100885D01*
X38598Y-100848D01*
X38676Y-100815D01*
X38756Y-100786D01*
X38915Y-100710D01*
X39077Y-100638D01*
X39240Y-100571D01*
X39405Y-100507D01*
X39571Y-100447D01*
X39739Y-100391D01*
X39908Y-100339D01*
X40078Y-100291D01*
X40249Y-100247D01*
X40421Y-100207D01*
X40595Y-100172D01*
X40768Y-100140D01*
X40943Y-100113D01*
X41118Y-100090D01*
X41294Y-100071D01*
X41470Y-100056D01*
X41647Y-100045D01*
X41823Y-100039D01*
X42000Y-100037D01*
X42000Y-105029D02*
X42177Y-105027D01*
X42353Y-105021D01*
X42530Y-105010D01*
X42706Y-104995D01*
X42882Y-104976D01*
X43057Y-104953D01*
X43232Y-104926D01*
X43405Y-104894D01*
X43579Y-104859D01*
X43751Y-104819D01*
X43922Y-104775D01*
X44092Y-104727D01*
X44261Y-104675D01*
X44429Y-104619D01*
X44595Y-104559D01*
X44760Y-104495D01*
X44923Y-104428D01*
X45085Y-104356D01*
X45244Y-104280D01*
X45324Y-104251D01*
X45402Y-104218D01*
X45478Y-104181D01*
X45553Y-104141D01*
X45626Y-104098D01*
X45697Y-104051D01*
X45766Y-104001D01*
X45832Y-103948D01*
X45896Y-103892D01*
X45957Y-103833D01*
X46015Y-103772D01*
X46070Y-103707D01*
X46123Y-103641D01*
X46172Y-103572D01*
X46218Y-103500D01*
X46261Y-103427D01*
X46300Y-103352D01*
X46336Y-103275D01*
X46369Y-103197D01*
X46397Y-103117D01*
X46422Y-103036D01*
X46443Y-102954D01*
X46461Y-102871D01*
X46474Y-102787D01*
X46484Y-102702D01*
X46490Y-102618D01*
X46492Y-102533D01*
X45244Y-100786D02*
X45085Y-100710D01*
X44923Y-100638D01*
X44760Y-100571D01*
X44595Y-100507D01*
X44429Y-100447D01*
X44261Y-100391D01*
X44092Y-100339D01*
X43922Y-100291D01*
X43751Y-100247D01*
X43579Y-100207D01*
X43405Y-100172D01*
X43232Y-100140D01*
X43057Y-100113D01*
X42882Y-100090D01*
X42706Y-100071D01*
X42530Y-100056D01*
X42353Y-100045D01*
X42177Y-100039D01*
X42000Y-100037D01*
X45244Y-100786D02*
X45324Y-100815D01*
X45402Y-100848D01*
X45478Y-100885D01*
X45553Y-100925D01*
X45626Y-100968D01*
X45697Y-101015D01*
X45766Y-101065D01*
X45832Y-101118D01*
X45896Y-101174D01*
X45957Y-101233D01*
X46015Y-101294D01*
X46071Y-101359D01*
X46123Y-101425D01*
X46172Y-101494D01*
X46218Y-101566D01*
X46261Y-101639D01*
X46300Y-101714D01*
X46336Y-101791D01*
X46369Y-101869D01*
X46397Y-101949D01*
X46422Y-102030D01*
X46443Y-102112D01*
X46461Y-102195D01*
X46474Y-102279D01*
X46484Y-102364D01*
X46490Y-102448D01*
X46492Y-102533D01*
X44496Y-104529D02*
X39504Y-100536D01*
X46492Y-96029D02*
X46492Y-93533D01*
X46490Y-93434D01*
X46484Y-93335D01*
X46474Y-93236D01*
X46460Y-93138D01*
X46443Y-93040D01*
X46421Y-92943D01*
X46396Y-92847D01*
X46367Y-92752D01*
X46334Y-92659D01*
X46297Y-92566D01*
X46257Y-92476D01*
X46213Y-92387D01*
X46166Y-92299D01*
X46115Y-92214D01*
X46061Y-92131D01*
X46004Y-92050D01*
X45943Y-91971D01*
X45879Y-91895D01*
X45813Y-91821D01*
X45743Y-91751D01*
X45671Y-91683D01*
X45596Y-91617D01*
X45519Y-91555D01*
X45439Y-91496D01*
X45357Y-91441D01*
X45273Y-91388D01*
X45186Y-91339D01*
X45098Y-91293D01*
X45008Y-91251D01*
X44917Y-91213D01*
X44824Y-91178D01*
X44729Y-91147D01*
X44634Y-91120D01*
X44538Y-91096D01*
X44440Y-91077D01*
X44342Y-91061D01*
X44244Y-91049D01*
X44145Y-91041D01*
X44046Y-91037D01*
X43946Y-91037D01*
X43847Y-91041D01*
X43748Y-91049D01*
X43650Y-91061D01*
X43552Y-91077D01*
X43454Y-91096D01*
X43358Y-91120D01*
X43263Y-91147D01*
X43168Y-91178D01*
X43075Y-91213D01*
X42984Y-91251D01*
X42894Y-91293D01*
X42806Y-91339D01*
X42719Y-91388D01*
X42635Y-91441D01*
X42553Y-91496D01*
X42473Y-91555D01*
X42396Y-91617D01*
X42321Y-91683D01*
X42249Y-91751D01*
X42179Y-91821D01*
X42113Y-91895D01*
X42049Y-91971D01*
X41988Y-92050D01*
X41931Y-92131D01*
X41877Y-92214D01*
X41826Y-92299D01*
X41779Y-92387D01*
X41735Y-92476D01*
X41695Y-92566D01*
X41658Y-92659D01*
X41625Y-92752D01*
X41596Y-92847D01*
X41571Y-92943D01*
X41549Y-93040D01*
X41532Y-93138D01*
X41518Y-93236D01*
X41508Y-93335D01*
X41502Y-93434D01*
X41500Y-93533D01*
X37508Y-93034D02*
X37508Y-96029D01*
X37508Y-93034D02*
X37510Y-92946D01*
X37516Y-92858D01*
X37526Y-92770D01*
X37539Y-92683D01*
X37557Y-92596D01*
X37578Y-92510D01*
X37603Y-92426D01*
X37632Y-92342D01*
X37664Y-92260D01*
X37700Y-92179D01*
X37740Y-92100D01*
X37783Y-92023D01*
X37829Y-91948D01*
X37879Y-91875D01*
X37932Y-91804D01*
X37988Y-91736D01*
X38047Y-91670D01*
X38108Y-91607D01*
X38173Y-91547D01*
X38240Y-91489D01*
X38309Y-91435D01*
X38381Y-91384D01*
X38455Y-91336D01*
X38532Y-91291D01*
X38610Y-91250D01*
X38689Y-91212D01*
X38771Y-91178D01*
X38854Y-91147D01*
X38938Y-91120D01*
X39023Y-91097D01*
X39109Y-91077D01*
X39196Y-91062D01*
X39284Y-91050D01*
X39372Y-91042D01*
X39460Y-91038D01*
X39548Y-91038D01*
X39636Y-91042D01*
X39724Y-91050D01*
X39812Y-91062D01*
X39899Y-91077D01*
X39985Y-91097D01*
X40070Y-91120D01*
X40154Y-91147D01*
X40237Y-91178D01*
X40319Y-91212D01*
X40398Y-91250D01*
X40476Y-91291D01*
X40553Y-91336D01*
X40627Y-91384D01*
X40699Y-91435D01*
X40768Y-91489D01*
X40835Y-91547D01*
X40900Y-91607D01*
X40961Y-91670D01*
X41020Y-91736D01*
X41076Y-91804D01*
X41129Y-91875D01*
X41179Y-91948D01*
X41225Y-92023D01*
X41268Y-92100D01*
X41308Y-92179D01*
X41344Y-92260D01*
X41376Y-92342D01*
X41405Y-92426D01*
X41430Y-92510D01*
X41451Y-92596D01*
X41469Y-92683D01*
X41482Y-92770D01*
X41492Y-92858D01*
X41498Y-92946D01*
X41500Y-93034D01*
X41501Y-93034D02*
X41501Y-95030D01*
D12*
X-17500Y-126500D02*
X-32500Y-126500D01*
X-32500Y-93500D01*
X-17500Y-93500D01*
X-17500Y-126500D01*
D11*
X-35508Y-123264D02*
X-35508Y-121267D01*
X-35508Y-123264D02*
X-35510Y-123351D01*
X-35516Y-123438D01*
X-35525Y-123525D01*
X-35538Y-123611D01*
X-35555Y-123696D01*
X-35576Y-123781D01*
X-35600Y-123864D01*
X-35628Y-123947D01*
X-35660Y-124028D01*
X-35695Y-124108D01*
X-35734Y-124186D01*
X-35775Y-124262D01*
X-35821Y-124336D01*
X-35869Y-124409D01*
X-35920Y-124479D01*
X-35975Y-124547D01*
X-36032Y-124612D01*
X-36093Y-124675D01*
X-36156Y-124736D01*
X-36221Y-124793D01*
X-36289Y-124848D01*
X-36359Y-124899D01*
X-36432Y-124947D01*
X-36506Y-124993D01*
X-36582Y-125034D01*
X-36660Y-125073D01*
X-36740Y-125108D01*
X-36821Y-125140D01*
X-36904Y-125168D01*
X-36987Y-125192D01*
X-37072Y-125213D01*
X-37157Y-125230D01*
X-37243Y-125243D01*
X-37330Y-125252D01*
X-37417Y-125258D01*
X-37504Y-125260D01*
X-42496Y-125260D01*
X-42583Y-125258D01*
X-42670Y-125252D01*
X-42757Y-125243D01*
X-42843Y-125230D01*
X-42928Y-125213D01*
X-43013Y-125192D01*
X-43096Y-125168D01*
X-43179Y-125140D01*
X-43260Y-125108D01*
X-43340Y-125073D01*
X-43418Y-125034D01*
X-43494Y-124993D01*
X-43568Y-124947D01*
X-43641Y-124899D01*
X-43711Y-124848D01*
X-43779Y-124793D01*
X-43844Y-124736D01*
X-43907Y-124675D01*
X-43968Y-124612D01*
X-44025Y-124547D01*
X-44080Y-124479D01*
X-44131Y-124409D01*
X-44179Y-124336D01*
X-44225Y-124262D01*
X-44266Y-124186D01*
X-44305Y-124108D01*
X-44340Y-124028D01*
X-44372Y-123947D01*
X-44400Y-123864D01*
X-44424Y-123781D01*
X-44445Y-123696D01*
X-44462Y-123611D01*
X-44475Y-123525D01*
X-44484Y-123438D01*
X-44490Y-123351D01*
X-44492Y-123264D01*
X-44492Y-121267D01*
X-42496Y-117731D02*
X-44492Y-115235D01*
X-35508Y-115235D01*
X-35508Y-112740D02*
X-35508Y-117731D01*
X-40000Y-108731D02*
X-40177Y-108729D01*
X-40353Y-108723D01*
X-40530Y-108712D01*
X-40706Y-108697D01*
X-40882Y-108678D01*
X-41057Y-108655D01*
X-41232Y-108628D01*
X-41405Y-108596D01*
X-41579Y-108561D01*
X-41751Y-108521D01*
X-41922Y-108477D01*
X-42092Y-108429D01*
X-42261Y-108377D01*
X-42429Y-108321D01*
X-42595Y-108261D01*
X-42760Y-108197D01*
X-42923Y-108130D01*
X-43085Y-108058D01*
X-43244Y-107982D01*
X-43324Y-107953D01*
X-43402Y-107920D01*
X-43478Y-107883D01*
X-43553Y-107843D01*
X-43626Y-107800D01*
X-43697Y-107753D01*
X-43766Y-107703D01*
X-43832Y-107650D01*
X-43896Y-107594D01*
X-43957Y-107535D01*
X-44015Y-107474D01*
X-44070Y-107409D01*
X-44123Y-107343D01*
X-44172Y-107274D01*
X-44218Y-107202D01*
X-44261Y-107129D01*
X-44300Y-107054D01*
X-44336Y-106977D01*
X-44369Y-106899D01*
X-44397Y-106819D01*
X-44422Y-106738D01*
X-44443Y-106656D01*
X-44461Y-106573D01*
X-44474Y-106489D01*
X-44484Y-106404D01*
X-44490Y-106320D01*
X-44492Y-106235D01*
X-44490Y-106150D01*
X-44484Y-106066D01*
X-44474Y-105981D01*
X-44461Y-105897D01*
X-44443Y-105814D01*
X-44422Y-105732D01*
X-44397Y-105651D01*
X-44369Y-105571D01*
X-44336Y-105493D01*
X-44300Y-105416D01*
X-44261Y-105341D01*
X-44218Y-105268D01*
X-44172Y-105196D01*
X-44123Y-105127D01*
X-44070Y-105061D01*
X-44015Y-104996D01*
X-43957Y-104935D01*
X-43896Y-104876D01*
X-43832Y-104820D01*
X-43766Y-104767D01*
X-43697Y-104717D01*
X-43626Y-104670D01*
X-43553Y-104627D01*
X-43478Y-104587D01*
X-43402Y-104550D01*
X-43324Y-104517D01*
X-43244Y-104488D01*
X-43244Y-104489D02*
X-43084Y-104413D01*
X-42923Y-104341D01*
X-42760Y-104274D01*
X-42595Y-104210D01*
X-42428Y-104150D01*
X-42261Y-104094D01*
X-42092Y-104042D01*
X-41922Y-103994D01*
X-41751Y-103950D01*
X-41578Y-103910D01*
X-41405Y-103875D01*
X-41231Y-103843D01*
X-41057Y-103816D01*
X-40882Y-103793D01*
X-40706Y-103774D01*
X-40530Y-103759D01*
X-40353Y-103748D01*
X-40177Y-103742D01*
X-40000Y-103740D01*
X-40000Y-108731D02*
X-39823Y-108729D01*
X-39647Y-108723D01*
X-39470Y-108712D01*
X-39294Y-108697D01*
X-39118Y-108678D01*
X-38943Y-108655D01*
X-38768Y-108628D01*
X-38595Y-108596D01*
X-38421Y-108561D01*
X-38249Y-108521D01*
X-38078Y-108477D01*
X-37908Y-108429D01*
X-37739Y-108377D01*
X-37571Y-108321D01*
X-37405Y-108261D01*
X-37240Y-108197D01*
X-37077Y-108130D01*
X-36915Y-108058D01*
X-36756Y-107982D01*
X-36676Y-107953D01*
X-36598Y-107920D01*
X-36522Y-107883D01*
X-36447Y-107843D01*
X-36374Y-107800D01*
X-36303Y-107753D01*
X-36234Y-107703D01*
X-36168Y-107650D01*
X-36104Y-107594D01*
X-36043Y-107535D01*
X-35985Y-107474D01*
X-35930Y-107409D01*
X-35877Y-107343D01*
X-35828Y-107274D01*
X-35782Y-107202D01*
X-35739Y-107129D01*
X-35700Y-107054D01*
X-35664Y-106977D01*
X-35631Y-106899D01*
X-35603Y-106819D01*
X-35578Y-106738D01*
X-35557Y-106656D01*
X-35539Y-106573D01*
X-35526Y-106489D01*
X-35516Y-106404D01*
X-35510Y-106320D01*
X-35508Y-106235D01*
X-36756Y-104488D02*
X-36915Y-104412D01*
X-37077Y-104340D01*
X-37240Y-104273D01*
X-37405Y-104209D01*
X-37571Y-104149D01*
X-37739Y-104093D01*
X-37908Y-104041D01*
X-38078Y-103993D01*
X-38249Y-103949D01*
X-38421Y-103909D01*
X-38595Y-103874D01*
X-38768Y-103842D01*
X-38943Y-103815D01*
X-39118Y-103792D01*
X-39294Y-103773D01*
X-39470Y-103758D01*
X-39647Y-103747D01*
X-39823Y-103741D01*
X-40000Y-103739D01*
X-36756Y-104488D02*
X-36676Y-104517D01*
X-36598Y-104550D01*
X-36522Y-104587D01*
X-36447Y-104627D01*
X-36374Y-104670D01*
X-36303Y-104717D01*
X-36234Y-104767D01*
X-36168Y-104820D01*
X-36104Y-104876D01*
X-36043Y-104935D01*
X-35985Y-104996D01*
X-35929Y-105061D01*
X-35877Y-105127D01*
X-35828Y-105196D01*
X-35782Y-105268D01*
X-35739Y-105341D01*
X-35700Y-105416D01*
X-35664Y-105493D01*
X-35631Y-105571D01*
X-35603Y-105651D01*
X-35578Y-105732D01*
X-35557Y-105814D01*
X-35539Y-105897D01*
X-35526Y-105981D01*
X-35516Y-106066D01*
X-35510Y-106150D01*
X-35508Y-106235D01*
X-37504Y-108232D02*
X-42496Y-104239D01*
X-37504Y-99731D02*
X-44492Y-97734D01*
X-37504Y-99731D02*
X-37504Y-94740D01*
X-39501Y-96237D02*
X-35508Y-96237D01*
D12*
X50500Y-136500D02*
X50500Y-243500D01*
X-36500Y-243500D01*
X-36500Y-136500D01*
X50500Y-136500D01*
D11*
X53508Y-169325D02*
X60112Y-169325D01*
X60212Y-169323D01*
X60311Y-169317D01*
X60411Y-169307D01*
X60509Y-169294D01*
X60608Y-169276D01*
X60705Y-169255D01*
X60801Y-169230D01*
X60897Y-169201D01*
X60991Y-169168D01*
X61084Y-169132D01*
X61175Y-169092D01*
X61265Y-169048D01*
X61353Y-169001D01*
X61439Y-168951D01*
X61523Y-168897D01*
X61605Y-168840D01*
X61684Y-168780D01*
X61762Y-168716D01*
X61836Y-168650D01*
X61908Y-168581D01*
X61977Y-168509D01*
X62043Y-168435D01*
X62107Y-168357D01*
X62167Y-168278D01*
X62224Y-168196D01*
X62278Y-168112D01*
X62328Y-168026D01*
X62375Y-167938D01*
X62419Y-167848D01*
X62459Y-167757D01*
X62495Y-167664D01*
X62528Y-167570D01*
X62557Y-167474D01*
X62582Y-167378D01*
X62603Y-167281D01*
X62621Y-167182D01*
X62634Y-167084D01*
X62644Y-166984D01*
X62650Y-166885D01*
X62652Y-166785D01*
X62650Y-166685D01*
X62644Y-166586D01*
X62634Y-166486D01*
X62621Y-166388D01*
X62603Y-166289D01*
X62582Y-166192D01*
X62557Y-166096D01*
X62528Y-166000D01*
X62495Y-165906D01*
X62459Y-165813D01*
X62419Y-165722D01*
X62375Y-165632D01*
X62328Y-165544D01*
X62278Y-165458D01*
X62224Y-165374D01*
X62167Y-165292D01*
X62107Y-165213D01*
X62043Y-165135D01*
X61977Y-165061D01*
X61908Y-164989D01*
X61836Y-164920D01*
X61762Y-164854D01*
X61684Y-164790D01*
X61605Y-164730D01*
X61523Y-164673D01*
X61439Y-164619D01*
X61353Y-164569D01*
X61265Y-164522D01*
X61175Y-164478D01*
X61084Y-164438D01*
X60991Y-164402D01*
X60897Y-164369D01*
X60801Y-164340D01*
X60705Y-164315D01*
X60608Y-164294D01*
X60509Y-164276D01*
X60411Y-164263D01*
X60311Y-164253D01*
X60212Y-164247D01*
X60112Y-164245D01*
X53508Y-164245D01*
X55540Y-159876D02*
X53508Y-157336D01*
X62652Y-157336D01*
X62652Y-159876D02*
X62652Y-154796D01*
X58080Y-150732D02*
X57900Y-150730D01*
X57720Y-150723D01*
X57541Y-150713D01*
X57362Y-150698D01*
X57183Y-150678D01*
X57004Y-150655D01*
X56827Y-150627D01*
X56650Y-150595D01*
X56473Y-150559D01*
X56298Y-150518D01*
X56124Y-150474D01*
X55951Y-150425D01*
X55779Y-150372D01*
X55608Y-150315D01*
X55439Y-150254D01*
X55271Y-150189D01*
X55105Y-150120D01*
X54941Y-150047D01*
X54778Y-149970D01*
X54700Y-149942D01*
X54623Y-149909D01*
X54548Y-149874D01*
X54474Y-149835D01*
X54402Y-149793D01*
X54333Y-149748D01*
X54265Y-149699D01*
X54199Y-149648D01*
X54136Y-149594D01*
X54075Y-149537D01*
X54016Y-149478D01*
X53961Y-149416D01*
X53908Y-149351D01*
X53858Y-149285D01*
X53811Y-149216D01*
X53767Y-149145D01*
X53727Y-149072D01*
X53690Y-148998D01*
X53655Y-148922D01*
X53625Y-148844D01*
X53598Y-148766D01*
X53574Y-148686D01*
X53554Y-148605D01*
X53537Y-148523D01*
X53525Y-148441D01*
X53515Y-148358D01*
X53510Y-148275D01*
X53508Y-148192D01*
X53510Y-148109D01*
X53515Y-148026D01*
X53525Y-147943D01*
X53537Y-147861D01*
X53554Y-147779D01*
X53574Y-147698D01*
X53598Y-147618D01*
X53625Y-147540D01*
X53655Y-147462D01*
X53690Y-147386D01*
X53727Y-147312D01*
X53767Y-147239D01*
X53811Y-147168D01*
X53858Y-147099D01*
X53908Y-147033D01*
X53961Y-146968D01*
X54016Y-146906D01*
X54075Y-146847D01*
X54136Y-146790D01*
X54199Y-146736D01*
X54265Y-146685D01*
X54333Y-146636D01*
X54402Y-146591D01*
X54474Y-146549D01*
X54548Y-146510D01*
X54623Y-146475D01*
X54700Y-146442D01*
X54778Y-146414D01*
X54941Y-146337D01*
X55105Y-146264D01*
X55271Y-146195D01*
X55439Y-146130D01*
X55608Y-146069D01*
X55779Y-146012D01*
X55951Y-145959D01*
X56124Y-145910D01*
X56298Y-145866D01*
X56473Y-145825D01*
X56650Y-145789D01*
X56827Y-145757D01*
X57004Y-145729D01*
X57183Y-145706D01*
X57362Y-145686D01*
X57541Y-145671D01*
X57720Y-145661D01*
X57900Y-145654D01*
X58080Y-145652D01*
X58080Y-150732D02*
X58260Y-150730D01*
X58440Y-150723D01*
X58619Y-150713D01*
X58798Y-150698D01*
X58977Y-150678D01*
X59156Y-150655D01*
X59333Y-150627D01*
X59510Y-150595D01*
X59687Y-150559D01*
X59862Y-150518D01*
X60036Y-150474D01*
X60209Y-150425D01*
X60381Y-150372D01*
X60552Y-150315D01*
X60721Y-150254D01*
X60889Y-150189D01*
X61055Y-150120D01*
X61219Y-150047D01*
X61382Y-149970D01*
X61460Y-149942D01*
X61537Y-149909D01*
X61612Y-149874D01*
X61686Y-149835D01*
X61758Y-149793D01*
X61827Y-149748D01*
X61895Y-149699D01*
X61961Y-149648D01*
X62024Y-149594D01*
X62085Y-149537D01*
X62144Y-149478D01*
X62199Y-149416D01*
X62252Y-149351D01*
X62302Y-149285D01*
X62349Y-149216D01*
X62393Y-149145D01*
X62433Y-149072D01*
X62470Y-148998D01*
X62505Y-148922D01*
X62535Y-148844D01*
X62562Y-148766D01*
X62586Y-148686D01*
X62606Y-148605D01*
X62623Y-148523D01*
X62635Y-148441D01*
X62645Y-148358D01*
X62650Y-148275D01*
X62652Y-148192D01*
X61382Y-146414D02*
X61219Y-146337D01*
X61055Y-146264D01*
X60889Y-146195D01*
X60721Y-146130D01*
X60552Y-146069D01*
X60381Y-146012D01*
X60209Y-145959D01*
X60036Y-145910D01*
X59862Y-145866D01*
X59687Y-145825D01*
X59510Y-145789D01*
X59333Y-145757D01*
X59156Y-145729D01*
X58977Y-145706D01*
X58798Y-145686D01*
X58619Y-145671D01*
X58440Y-145661D01*
X58260Y-145654D01*
X58080Y-145652D01*
X61382Y-146414D02*
X61460Y-146442D01*
X61537Y-146475D01*
X61612Y-146510D01*
X61686Y-146549D01*
X61758Y-146591D01*
X61827Y-146636D01*
X61895Y-146685D01*
X61961Y-146736D01*
X62024Y-146790D01*
X62085Y-146847D01*
X62144Y-146906D01*
X62199Y-146968D01*
X62252Y-147033D01*
X62302Y-147099D01*
X62349Y-147168D01*
X62393Y-147239D01*
X62433Y-147312D01*
X62470Y-147386D01*
X62505Y-147462D01*
X62535Y-147540D01*
X62562Y-147618D01*
X62586Y-147698D01*
X62606Y-147779D01*
X62623Y-147861D01*
X62635Y-147943D01*
X62645Y-148026D01*
X62650Y-148109D01*
X62652Y-148192D01*
X60620Y-150224D02*
X55540Y-146160D01*
X62652Y-141588D02*
X62652Y-139048D01*
X62650Y-138948D01*
X62644Y-138849D01*
X62634Y-138749D01*
X62621Y-138651D01*
X62603Y-138552D01*
X62582Y-138455D01*
X62557Y-138359D01*
X62528Y-138263D01*
X62495Y-138169D01*
X62459Y-138076D01*
X62419Y-137985D01*
X62375Y-137895D01*
X62328Y-137807D01*
X62278Y-137721D01*
X62224Y-137637D01*
X62167Y-137555D01*
X62107Y-137476D01*
X62043Y-137398D01*
X61977Y-137324D01*
X61908Y-137252D01*
X61836Y-137183D01*
X61762Y-137117D01*
X61684Y-137053D01*
X61605Y-136993D01*
X61523Y-136936D01*
X61439Y-136882D01*
X61353Y-136832D01*
X61265Y-136785D01*
X61175Y-136741D01*
X61084Y-136701D01*
X60991Y-136665D01*
X60897Y-136632D01*
X60801Y-136603D01*
X60705Y-136578D01*
X60608Y-136557D01*
X60509Y-136539D01*
X60411Y-136526D01*
X60311Y-136516D01*
X60212Y-136510D01*
X60112Y-136508D01*
X60012Y-136510D01*
X59913Y-136516D01*
X59813Y-136526D01*
X59715Y-136539D01*
X59616Y-136557D01*
X59519Y-136578D01*
X59423Y-136603D01*
X59327Y-136632D01*
X59233Y-136665D01*
X59140Y-136701D01*
X59049Y-136741D01*
X58959Y-136785D01*
X58871Y-136832D01*
X58785Y-136882D01*
X58701Y-136936D01*
X58619Y-136993D01*
X58540Y-137053D01*
X58462Y-137117D01*
X58388Y-137183D01*
X58316Y-137252D01*
X58247Y-137324D01*
X58181Y-137398D01*
X58117Y-137476D01*
X58057Y-137555D01*
X58000Y-137637D01*
X57946Y-137721D01*
X57896Y-137807D01*
X57849Y-137895D01*
X57805Y-137985D01*
X57765Y-138076D01*
X57729Y-138169D01*
X57696Y-138263D01*
X57667Y-138359D01*
X57642Y-138455D01*
X57621Y-138552D01*
X57603Y-138651D01*
X57590Y-138749D01*
X57580Y-138849D01*
X57574Y-138948D01*
X57572Y-139048D01*
X53508Y-138540D02*
X53508Y-141588D01*
X53508Y-138540D02*
X53510Y-138451D01*
X53516Y-138363D01*
X53525Y-138275D01*
X53539Y-138187D01*
X53556Y-138100D01*
X53577Y-138014D01*
X53602Y-137929D01*
X53631Y-137845D01*
X53663Y-137762D01*
X53698Y-137681D01*
X53738Y-137602D01*
X53780Y-137524D01*
X53826Y-137448D01*
X53875Y-137374D01*
X53928Y-137303D01*
X53983Y-137234D01*
X54042Y-137167D01*
X54103Y-137103D01*
X54167Y-137042D01*
X54234Y-136983D01*
X54303Y-136928D01*
X54374Y-136875D01*
X54448Y-136826D01*
X54524Y-136780D01*
X54602Y-136738D01*
X54681Y-136698D01*
X54762Y-136663D01*
X54845Y-136631D01*
X54929Y-136602D01*
X55014Y-136577D01*
X55100Y-136556D01*
X55187Y-136539D01*
X55275Y-136525D01*
X55363Y-136516D01*
X55451Y-136510D01*
X55540Y-136508D01*
X55629Y-136510D01*
X55717Y-136516D01*
X55805Y-136525D01*
X55893Y-136539D01*
X55980Y-136556D01*
X56066Y-136577D01*
X56151Y-136602D01*
X56235Y-136631D01*
X56318Y-136663D01*
X56399Y-136698D01*
X56478Y-136738D01*
X56556Y-136780D01*
X56632Y-136826D01*
X56706Y-136875D01*
X56777Y-136928D01*
X56846Y-136983D01*
X56913Y-137042D01*
X56977Y-137103D01*
X57038Y-137167D01*
X57097Y-137234D01*
X57152Y-137303D01*
X57205Y-137374D01*
X57254Y-137448D01*
X57300Y-137524D01*
X57342Y-137602D01*
X57382Y-137681D01*
X57417Y-137762D01*
X57449Y-137845D01*
X57478Y-137929D01*
X57503Y-138014D01*
X57524Y-138100D01*
X57541Y-138187D01*
X57555Y-138275D01*
X57564Y-138363D01*
X57570Y-138451D01*
X57572Y-138540D01*
X57572Y-140572D01*
D12*
X-37500Y-168500D02*
X-37500Y-201500D01*
X-52500Y-201500D01*
X-52500Y-168500D01*
X-37500Y-168500D01*
D11*
X-55508Y-200963D02*
X-64492Y-200963D01*
X-64492Y-198467D01*
X-64490Y-198368D01*
X-64484Y-198269D01*
X-64474Y-198170D01*
X-64460Y-198072D01*
X-64443Y-197974D01*
X-64421Y-197877D01*
X-64396Y-197781D01*
X-64367Y-197686D01*
X-64334Y-197593D01*
X-64297Y-197500D01*
X-64257Y-197410D01*
X-64213Y-197321D01*
X-64166Y-197233D01*
X-64115Y-197148D01*
X-64061Y-197065D01*
X-64004Y-196984D01*
X-63943Y-196905D01*
X-63879Y-196829D01*
X-63813Y-196755D01*
X-63743Y-196685D01*
X-63671Y-196617D01*
X-63596Y-196551D01*
X-63519Y-196489D01*
X-63439Y-196430D01*
X-63357Y-196375D01*
X-63273Y-196322D01*
X-63186Y-196273D01*
X-63098Y-196227D01*
X-63008Y-196185D01*
X-62917Y-196147D01*
X-62824Y-196112D01*
X-62729Y-196081D01*
X-62634Y-196054D01*
X-62538Y-196030D01*
X-62440Y-196011D01*
X-62342Y-195995D01*
X-62244Y-195983D01*
X-62145Y-195975D01*
X-62046Y-195971D01*
X-61946Y-195971D01*
X-61847Y-195975D01*
X-61748Y-195983D01*
X-61650Y-195995D01*
X-61552Y-196011D01*
X-61454Y-196030D01*
X-61358Y-196054D01*
X-61263Y-196081D01*
X-61168Y-196112D01*
X-61075Y-196147D01*
X-60984Y-196185D01*
X-60894Y-196227D01*
X-60806Y-196273D01*
X-60719Y-196322D01*
X-60635Y-196375D01*
X-60553Y-196430D01*
X-60473Y-196489D01*
X-60396Y-196551D01*
X-60321Y-196617D01*
X-60249Y-196685D01*
X-60179Y-196755D01*
X-60113Y-196829D01*
X-60049Y-196905D01*
X-59988Y-196984D01*
X-59931Y-197065D01*
X-59877Y-197148D01*
X-59826Y-197233D01*
X-59779Y-197321D01*
X-59735Y-197410D01*
X-59695Y-197500D01*
X-59658Y-197593D01*
X-59625Y-197686D01*
X-59596Y-197781D01*
X-59571Y-197877D01*
X-59549Y-197974D01*
X-59532Y-198072D01*
X-59518Y-198170D01*
X-59508Y-198269D01*
X-59502Y-198368D01*
X-59500Y-198467D01*
X-59501Y-198467D02*
X-59501Y-200963D01*
X-59501Y-197968D02*
X-55508Y-195972D01*
X-62496Y-192028D02*
X-64492Y-189533D01*
X-55508Y-189533D01*
X-55508Y-192028D02*
X-55508Y-187037D01*
X-60000Y-183029D02*
X-60177Y-183027D01*
X-60353Y-183021D01*
X-60530Y-183010D01*
X-60706Y-182995D01*
X-60882Y-182976D01*
X-61057Y-182953D01*
X-61232Y-182926D01*
X-61405Y-182894D01*
X-61579Y-182859D01*
X-61751Y-182819D01*
X-61922Y-182775D01*
X-62092Y-182727D01*
X-62261Y-182675D01*
X-62429Y-182619D01*
X-62595Y-182559D01*
X-62760Y-182495D01*
X-62923Y-182428D01*
X-63085Y-182356D01*
X-63244Y-182280D01*
X-63324Y-182251D01*
X-63402Y-182218D01*
X-63478Y-182181D01*
X-63553Y-182141D01*
X-63626Y-182098D01*
X-63697Y-182051D01*
X-63766Y-182001D01*
X-63832Y-181948D01*
X-63896Y-181892D01*
X-63957Y-181833D01*
X-64015Y-181772D01*
X-64070Y-181707D01*
X-64123Y-181641D01*
X-64172Y-181572D01*
X-64218Y-181500D01*
X-64261Y-181427D01*
X-64300Y-181352D01*
X-64336Y-181275D01*
X-64369Y-181197D01*
X-64397Y-181117D01*
X-64422Y-181036D01*
X-64443Y-180954D01*
X-64461Y-180871D01*
X-64474Y-180787D01*
X-64484Y-180702D01*
X-64490Y-180618D01*
X-64492Y-180533D01*
X-64490Y-180448D01*
X-64484Y-180364D01*
X-64474Y-180279D01*
X-64461Y-180195D01*
X-64443Y-180112D01*
X-64422Y-180030D01*
X-64397Y-179949D01*
X-64369Y-179869D01*
X-64336Y-179791D01*
X-64300Y-179714D01*
X-64261Y-179639D01*
X-64218Y-179566D01*
X-64172Y-179494D01*
X-64123Y-179425D01*
X-64070Y-179359D01*
X-64015Y-179294D01*
X-63957Y-179233D01*
X-63896Y-179174D01*
X-63832Y-179118D01*
X-63766Y-179065D01*
X-63697Y-179015D01*
X-63626Y-178968D01*
X-63553Y-178925D01*
X-63478Y-178885D01*
X-63402Y-178848D01*
X-63324Y-178815D01*
X-63244Y-178786D01*
X-63244Y-178787D02*
X-63084Y-178711D01*
X-62923Y-178639D01*
X-62760Y-178572D01*
X-62595Y-178508D01*
X-62428Y-178448D01*
X-62261Y-178392D01*
X-62092Y-178340D01*
X-61922Y-178292D01*
X-61751Y-178248D01*
X-61578Y-178208D01*
X-61405Y-178173D01*
X-61231Y-178141D01*
X-61057Y-178114D01*
X-60882Y-178091D01*
X-60706Y-178072D01*
X-60530Y-178057D01*
X-60353Y-178046D01*
X-60177Y-178040D01*
X-60000Y-178038D01*
X-60000Y-183029D02*
X-59823Y-183027D01*
X-59647Y-183021D01*
X-59470Y-183010D01*
X-59294Y-182995D01*
X-59118Y-182976D01*
X-58943Y-182953D01*
X-58768Y-182926D01*
X-58595Y-182894D01*
X-58421Y-182859D01*
X-58249Y-182819D01*
X-58078Y-182775D01*
X-57908Y-182727D01*
X-57739Y-182675D01*
X-57571Y-182619D01*
X-57405Y-182559D01*
X-57240Y-182495D01*
X-57077Y-182428D01*
X-56915Y-182356D01*
X-56756Y-182280D01*
X-56676Y-182251D01*
X-56598Y-182218D01*
X-56522Y-182181D01*
X-56447Y-182141D01*
X-56374Y-182098D01*
X-56303Y-182051D01*
X-56234Y-182001D01*
X-56168Y-181948D01*
X-56104Y-181892D01*
X-56043Y-181833D01*
X-55985Y-181772D01*
X-55930Y-181707D01*
X-55877Y-181641D01*
X-55828Y-181572D01*
X-55782Y-181500D01*
X-55739Y-181427D01*
X-55700Y-181352D01*
X-55664Y-181275D01*
X-55631Y-181197D01*
X-55603Y-181117D01*
X-55578Y-181036D01*
X-55557Y-180954D01*
X-55539Y-180871D01*
X-55526Y-180787D01*
X-55516Y-180702D01*
X-55510Y-180618D01*
X-55508Y-180533D01*
X-56756Y-178786D02*
X-56915Y-178710D01*
X-57077Y-178638D01*
X-57240Y-178571D01*
X-57405Y-178507D01*
X-57571Y-178447D01*
X-57739Y-178391D01*
X-57908Y-178339D01*
X-58078Y-178291D01*
X-58249Y-178247D01*
X-58421Y-178207D01*
X-58595Y-178172D01*
X-58768Y-178140D01*
X-58943Y-178113D01*
X-59118Y-178090D01*
X-59294Y-178071D01*
X-59470Y-178056D01*
X-59647Y-178045D01*
X-59823Y-178039D01*
X-60000Y-178037D01*
X-56756Y-178786D02*
X-56676Y-178815D01*
X-56598Y-178848D01*
X-56522Y-178885D01*
X-56447Y-178925D01*
X-56374Y-178968D01*
X-56303Y-179015D01*
X-56234Y-179065D01*
X-56168Y-179118D01*
X-56104Y-179174D01*
X-56043Y-179233D01*
X-55985Y-179294D01*
X-55929Y-179359D01*
X-55877Y-179425D01*
X-55828Y-179494D01*
X-55782Y-179566D01*
X-55739Y-179639D01*
X-55700Y-179714D01*
X-55664Y-179791D01*
X-55631Y-179869D01*
X-55603Y-179949D01*
X-55578Y-180030D01*
X-55557Y-180112D01*
X-55539Y-180195D01*
X-55526Y-180279D01*
X-55516Y-180364D01*
X-55510Y-180448D01*
X-55508Y-180533D01*
X-57504Y-182529D02*
X-62496Y-178536D01*
X-58004Y-174029D02*
X-58103Y-174027D01*
X-58202Y-174021D01*
X-58301Y-174011D01*
X-58399Y-173997D01*
X-58497Y-173980D01*
X-58594Y-173958D01*
X-58690Y-173933D01*
X-58785Y-173904D01*
X-58878Y-173871D01*
X-58971Y-173834D01*
X-59061Y-173794D01*
X-59150Y-173750D01*
X-59238Y-173703D01*
X-59323Y-173652D01*
X-59406Y-173598D01*
X-59487Y-173541D01*
X-59566Y-173480D01*
X-59642Y-173416D01*
X-59716Y-173350D01*
X-59786Y-173280D01*
X-59854Y-173208D01*
X-59920Y-173133D01*
X-59982Y-173056D01*
X-60041Y-172976D01*
X-60096Y-172894D01*
X-60149Y-172810D01*
X-60198Y-172723D01*
X-60244Y-172635D01*
X-60286Y-172545D01*
X-60324Y-172454D01*
X-60359Y-172361D01*
X-60390Y-172266D01*
X-60417Y-172171D01*
X-60441Y-172075D01*
X-60460Y-171977D01*
X-60476Y-171879D01*
X-60488Y-171781D01*
X-60496Y-171682D01*
X-60500Y-171583D01*
X-60500Y-171483D01*
X-60496Y-171384D01*
X-60488Y-171285D01*
X-60476Y-171187D01*
X-60460Y-171089D01*
X-60441Y-170991D01*
X-60417Y-170895D01*
X-60390Y-170800D01*
X-60359Y-170705D01*
X-60324Y-170612D01*
X-60286Y-170521D01*
X-60244Y-170431D01*
X-60198Y-170343D01*
X-60149Y-170256D01*
X-60096Y-170172D01*
X-60041Y-170090D01*
X-59982Y-170010D01*
X-59920Y-169933D01*
X-59854Y-169858D01*
X-59786Y-169786D01*
X-59716Y-169716D01*
X-59642Y-169650D01*
X-59566Y-169586D01*
X-59487Y-169525D01*
X-59406Y-169468D01*
X-59323Y-169414D01*
X-59238Y-169363D01*
X-59150Y-169316D01*
X-59061Y-169272D01*
X-58971Y-169232D01*
X-58878Y-169195D01*
X-58785Y-169162D01*
X-58690Y-169133D01*
X-58594Y-169108D01*
X-58497Y-169086D01*
X-58399Y-169069D01*
X-58301Y-169055D01*
X-58202Y-169045D01*
X-58103Y-169039D01*
X-58004Y-169037D01*
X-57905Y-169039D01*
X-57806Y-169045D01*
X-57707Y-169055D01*
X-57609Y-169069D01*
X-57511Y-169086D01*
X-57414Y-169108D01*
X-57318Y-169133D01*
X-57223Y-169162D01*
X-57130Y-169195D01*
X-57037Y-169232D01*
X-56947Y-169272D01*
X-56858Y-169316D01*
X-56770Y-169363D01*
X-56685Y-169414D01*
X-56602Y-169468D01*
X-56521Y-169525D01*
X-56442Y-169586D01*
X-56366Y-169650D01*
X-56292Y-169716D01*
X-56222Y-169786D01*
X-56154Y-169858D01*
X-56088Y-169933D01*
X-56026Y-170010D01*
X-55967Y-170090D01*
X-55912Y-170172D01*
X-55859Y-170256D01*
X-55810Y-170343D01*
X-55764Y-170431D01*
X-55722Y-170521D01*
X-55684Y-170612D01*
X-55649Y-170705D01*
X-55618Y-170800D01*
X-55591Y-170895D01*
X-55567Y-170991D01*
X-55548Y-171089D01*
X-55532Y-171187D01*
X-55520Y-171285D01*
X-55512Y-171384D01*
X-55508Y-171483D01*
X-55508Y-171583D01*
X-55512Y-171682D01*
X-55520Y-171781D01*
X-55532Y-171879D01*
X-55548Y-171977D01*
X-55567Y-172075D01*
X-55591Y-172171D01*
X-55618Y-172266D01*
X-55649Y-172361D01*
X-55684Y-172454D01*
X-55722Y-172545D01*
X-55764Y-172635D01*
X-55810Y-172723D01*
X-55859Y-172810D01*
X-55912Y-172894D01*
X-55967Y-172976D01*
X-56026Y-173056D01*
X-56088Y-173133D01*
X-56154Y-173208D01*
X-56222Y-173280D01*
X-56292Y-173350D01*
X-56366Y-173416D01*
X-56442Y-173480D01*
X-56521Y-173541D01*
X-56602Y-173598D01*
X-56685Y-173652D01*
X-56770Y-173703D01*
X-56858Y-173750D01*
X-56947Y-173794D01*
X-57037Y-173834D01*
X-57130Y-173871D01*
X-57223Y-173904D01*
X-57318Y-173933D01*
X-57414Y-173958D01*
X-57511Y-173980D01*
X-57609Y-173997D01*
X-57707Y-174011D01*
X-57806Y-174021D01*
X-57905Y-174027D01*
X-58004Y-174029D01*
X-62496Y-173529D02*
X-62584Y-173527D01*
X-62672Y-173521D01*
X-62760Y-173511D01*
X-62847Y-173498D01*
X-62934Y-173480D01*
X-63020Y-173459D01*
X-63104Y-173434D01*
X-63188Y-173405D01*
X-63270Y-173373D01*
X-63351Y-173337D01*
X-63430Y-173297D01*
X-63507Y-173254D01*
X-63582Y-173208D01*
X-63655Y-173158D01*
X-63726Y-173105D01*
X-63794Y-173049D01*
X-63860Y-172990D01*
X-63923Y-172929D01*
X-63983Y-172864D01*
X-64041Y-172797D01*
X-64095Y-172728D01*
X-64146Y-172656D01*
X-64194Y-172582D01*
X-64239Y-172505D01*
X-64280Y-172427D01*
X-64318Y-172348D01*
X-64352Y-172266D01*
X-64383Y-172183D01*
X-64410Y-172099D01*
X-64433Y-172014D01*
X-64453Y-171928D01*
X-64468Y-171841D01*
X-64480Y-171753D01*
X-64488Y-171665D01*
X-64492Y-171577D01*
X-64492Y-171489D01*
X-64488Y-171401D01*
X-64480Y-171313D01*
X-64468Y-171225D01*
X-64453Y-171138D01*
X-64433Y-171052D01*
X-64410Y-170967D01*
X-64383Y-170883D01*
X-64352Y-170800D01*
X-64318Y-170718D01*
X-64280Y-170639D01*
X-64239Y-170561D01*
X-64194Y-170484D01*
X-64146Y-170410D01*
X-64095Y-170338D01*
X-64041Y-170269D01*
X-63983Y-170202D01*
X-63923Y-170137D01*
X-63860Y-170076D01*
X-63794Y-170017D01*
X-63726Y-169961D01*
X-63655Y-169908D01*
X-63582Y-169858D01*
X-63507Y-169812D01*
X-63430Y-169769D01*
X-63351Y-169729D01*
X-63270Y-169693D01*
X-63188Y-169661D01*
X-63104Y-169632D01*
X-63020Y-169607D01*
X-62934Y-169586D01*
X-62847Y-169568D01*
X-62760Y-169555D01*
X-62672Y-169545D01*
X-62584Y-169539D01*
X-62496Y-169537D01*
X-62408Y-169539D01*
X-62320Y-169545D01*
X-62232Y-169555D01*
X-62145Y-169568D01*
X-62058Y-169586D01*
X-61972Y-169607D01*
X-61888Y-169632D01*
X-61804Y-169661D01*
X-61722Y-169693D01*
X-61641Y-169729D01*
X-61562Y-169769D01*
X-61485Y-169812D01*
X-61410Y-169858D01*
X-61337Y-169908D01*
X-61266Y-169961D01*
X-61198Y-170017D01*
X-61132Y-170076D01*
X-61069Y-170137D01*
X-61009Y-170202D01*
X-60951Y-170269D01*
X-60897Y-170338D01*
X-60846Y-170410D01*
X-60798Y-170484D01*
X-60753Y-170561D01*
X-60712Y-170639D01*
X-60674Y-170718D01*
X-60640Y-170800D01*
X-60609Y-170883D01*
X-60582Y-170967D01*
X-60559Y-171052D01*
X-60539Y-171138D01*
X-60524Y-171225D01*
X-60512Y-171313D01*
X-60504Y-171401D01*
X-60500Y-171489D01*
X-60500Y-171577D01*
X-60504Y-171665D01*
X-60512Y-171753D01*
X-60524Y-171841D01*
X-60539Y-171928D01*
X-60559Y-172014D01*
X-60582Y-172099D01*
X-60609Y-172183D01*
X-60640Y-172266D01*
X-60674Y-172348D01*
X-60712Y-172427D01*
X-60753Y-172505D01*
X-60798Y-172582D01*
X-60846Y-172656D01*
X-60897Y-172728D01*
X-60951Y-172797D01*
X-61009Y-172864D01*
X-61069Y-172929D01*
X-61132Y-172990D01*
X-61198Y-173049D01*
X-61266Y-173105D01*
X-61337Y-173158D01*
X-61410Y-173208D01*
X-61485Y-173254D01*
X-61562Y-173297D01*
X-61641Y-173337D01*
X-61722Y-173373D01*
X-61804Y-173405D01*
X-61888Y-173434D01*
X-61972Y-173459D01*
X-62058Y-173480D01*
X-62145Y-173498D01*
X-62232Y-173511D01*
X-62320Y-173521D01*
X-62408Y-173527D01*
X-62496Y-173529D01*
X96008Y-170996D02*
X104992Y-170996D01*
X96008Y-173492D02*
X96008Y-168501D01*
X98004Y-165092D02*
X96008Y-162597D01*
X104992Y-162597D01*
X104992Y-165092D02*
X104992Y-160101D01*
X100500Y-156092D02*
X100323Y-156090D01*
X100147Y-156084D01*
X99970Y-156073D01*
X99794Y-156058D01*
X99618Y-156039D01*
X99443Y-156016D01*
X99268Y-155989D01*
X99095Y-155957D01*
X98921Y-155922D01*
X98749Y-155882D01*
X98578Y-155838D01*
X98408Y-155790D01*
X98239Y-155738D01*
X98071Y-155682D01*
X97905Y-155622D01*
X97740Y-155558D01*
X97577Y-155491D01*
X97415Y-155419D01*
X97256Y-155343D01*
X97256Y-155344D02*
X97176Y-155315D01*
X97098Y-155282D01*
X97022Y-155245D01*
X96947Y-155205D01*
X96874Y-155162D01*
X96803Y-155115D01*
X96734Y-155065D01*
X96668Y-155012D01*
X96604Y-154956D01*
X96543Y-154897D01*
X96485Y-154836D01*
X96430Y-154772D01*
X96377Y-154705D01*
X96328Y-154636D01*
X96282Y-154565D01*
X96239Y-154491D01*
X96200Y-154416D01*
X96164Y-154339D01*
X96131Y-154261D01*
X96103Y-154181D01*
X96078Y-154100D01*
X96057Y-154018D01*
X96039Y-153935D01*
X96026Y-153851D01*
X96016Y-153766D01*
X96010Y-153682D01*
X96008Y-153597D01*
X96010Y-153512D01*
X96016Y-153428D01*
X96026Y-153343D01*
X96039Y-153259D01*
X96057Y-153176D01*
X96078Y-153094D01*
X96103Y-153013D01*
X96131Y-152933D01*
X96164Y-152855D01*
X96200Y-152778D01*
X96239Y-152703D01*
X96282Y-152630D01*
X96328Y-152558D01*
X96377Y-152489D01*
X96430Y-152423D01*
X96485Y-152358D01*
X96543Y-152297D01*
X96604Y-152238D01*
X96668Y-152182D01*
X96734Y-152129D01*
X96803Y-152079D01*
X96874Y-152032D01*
X96947Y-151989D01*
X97022Y-151949D01*
X97098Y-151912D01*
X97176Y-151879D01*
X97256Y-151850D01*
X97415Y-151774D01*
X97577Y-151702D01*
X97740Y-151635D01*
X97905Y-151571D01*
X98071Y-151511D01*
X98239Y-151455D01*
X98408Y-151403D01*
X98578Y-151355D01*
X98749Y-151311D01*
X98921Y-151271D01*
X99095Y-151236D01*
X99268Y-151204D01*
X99443Y-151177D01*
X99618Y-151154D01*
X99794Y-151135D01*
X99970Y-151120D01*
X100147Y-151109D01*
X100323Y-151103D01*
X100500Y-151101D01*
X100500Y-156092D02*
X100677Y-156090D01*
X100853Y-156084D01*
X101030Y-156073D01*
X101206Y-156058D01*
X101382Y-156039D01*
X101557Y-156016D01*
X101732Y-155989D01*
X101905Y-155957D01*
X102079Y-155922D01*
X102251Y-155882D01*
X102422Y-155838D01*
X102592Y-155790D01*
X102761Y-155738D01*
X102929Y-155682D01*
X103095Y-155622D01*
X103260Y-155558D01*
X103423Y-155491D01*
X103585Y-155419D01*
X103744Y-155343D01*
X103744Y-155344D02*
X103824Y-155315D01*
X103902Y-155282D01*
X103978Y-155245D01*
X104053Y-155205D01*
X104126Y-155162D01*
X104197Y-155115D01*
X104266Y-155065D01*
X104332Y-155012D01*
X104396Y-154956D01*
X104457Y-154897D01*
X104515Y-154836D01*
X104570Y-154771D01*
X104623Y-154705D01*
X104672Y-154636D01*
X104718Y-154564D01*
X104761Y-154491D01*
X104800Y-154416D01*
X104836Y-154339D01*
X104869Y-154261D01*
X104897Y-154181D01*
X104922Y-154100D01*
X104943Y-154018D01*
X104961Y-153935D01*
X104974Y-153851D01*
X104984Y-153766D01*
X104990Y-153682D01*
X104992Y-153597D01*
X103744Y-151850D02*
X103585Y-151774D01*
X103423Y-151702D01*
X103260Y-151635D01*
X103095Y-151571D01*
X102929Y-151511D01*
X102761Y-151455D01*
X102592Y-151403D01*
X102422Y-151355D01*
X102251Y-151311D01*
X102079Y-151271D01*
X101905Y-151236D01*
X101732Y-151204D01*
X101557Y-151177D01*
X101382Y-151154D01*
X101206Y-151135D01*
X101030Y-151120D01*
X100853Y-151109D01*
X100677Y-151103D01*
X100500Y-151101D01*
X103744Y-151850D02*
X103824Y-151879D01*
X103902Y-151912D01*
X103978Y-151949D01*
X104053Y-151989D01*
X104126Y-152032D01*
X104197Y-152079D01*
X104266Y-152129D01*
X104332Y-152182D01*
X104396Y-152238D01*
X104457Y-152297D01*
X104515Y-152358D01*
X104571Y-152423D01*
X104623Y-152489D01*
X104672Y-152558D01*
X104718Y-152630D01*
X104761Y-152703D01*
X104800Y-152778D01*
X104836Y-152855D01*
X104869Y-152933D01*
X104897Y-153013D01*
X104922Y-153094D01*
X104943Y-153176D01*
X104961Y-153259D01*
X104974Y-153343D01*
X104984Y-153428D01*
X104990Y-153512D01*
X104992Y-153597D01*
X102996Y-155593D02*
X98004Y-151600D01*
X98004Y-147092D02*
X96008Y-144597D01*
X104992Y-144597D01*
X104992Y-147092D02*
X104992Y-142101D01*
D12*
X27500Y-243500D02*
X27500Y-276500D01*
X12500Y-276500D01*
X12500Y-243500D01*
X27500Y-243500D01*
D11*
X-22433Y-263508D02*
X-22433Y-272492D01*
X-22433Y-263508D02*
X-19938Y-263508D01*
X-19839Y-263510D01*
X-19740Y-263516D01*
X-19641Y-263526D01*
X-19543Y-263540D01*
X-19445Y-263557D01*
X-19348Y-263579D01*
X-19252Y-263604D01*
X-19157Y-263633D01*
X-19064Y-263666D01*
X-18971Y-263703D01*
X-18881Y-263743D01*
X-18792Y-263787D01*
X-18704Y-263834D01*
X-18619Y-263885D01*
X-18536Y-263939D01*
X-18455Y-263996D01*
X-18376Y-264057D01*
X-18300Y-264121D01*
X-18226Y-264187D01*
X-18156Y-264257D01*
X-18088Y-264329D01*
X-18022Y-264404D01*
X-17960Y-264481D01*
X-17901Y-264561D01*
X-17846Y-264643D01*
X-17793Y-264727D01*
X-17744Y-264814D01*
X-17698Y-264902D01*
X-17656Y-264992D01*
X-17618Y-265083D01*
X-17583Y-265176D01*
X-17552Y-265271D01*
X-17525Y-265366D01*
X-17501Y-265462D01*
X-17482Y-265560D01*
X-17466Y-265658D01*
X-17454Y-265756D01*
X-17446Y-265855D01*
X-17442Y-265954D01*
X-17442Y-266054D01*
X-17446Y-266153D01*
X-17454Y-266252D01*
X-17466Y-266350D01*
X-17482Y-266448D01*
X-17501Y-266546D01*
X-17525Y-266642D01*
X-17552Y-266737D01*
X-17583Y-266832D01*
X-17618Y-266925D01*
X-17656Y-267016D01*
X-17698Y-267106D01*
X-17744Y-267194D01*
X-17793Y-267281D01*
X-17846Y-267365D01*
X-17901Y-267447D01*
X-17960Y-267527D01*
X-18022Y-267604D01*
X-18088Y-267679D01*
X-18156Y-267751D01*
X-18226Y-267821D01*
X-18300Y-267887D01*
X-18376Y-267951D01*
X-18455Y-268012D01*
X-18536Y-268069D01*
X-18619Y-268123D01*
X-18704Y-268174D01*
X-18792Y-268221D01*
X-18881Y-268265D01*
X-18971Y-268305D01*
X-19064Y-268342D01*
X-19157Y-268375D01*
X-19252Y-268404D01*
X-19348Y-268429D01*
X-19445Y-268451D01*
X-19543Y-268468D01*
X-19641Y-268482D01*
X-19740Y-268492D01*
X-19839Y-268498D01*
X-19938Y-268500D01*
X-19938Y-268499D02*
X-22433Y-268499D01*
X-19439Y-268499D02*
X-17442Y-272492D01*
X-13499Y-265504D02*
X-11004Y-263508D01*
X-11004Y-272492D01*
X-13499Y-272492D02*
X-8508Y-272492D01*
X-4499Y-268000D02*
X-4497Y-267823D01*
X-4491Y-267647D01*
X-4480Y-267470D01*
X-4465Y-267294D01*
X-4446Y-267118D01*
X-4423Y-266943D01*
X-4396Y-266768D01*
X-4364Y-266595D01*
X-4329Y-266421D01*
X-4289Y-266249D01*
X-4245Y-266078D01*
X-4197Y-265908D01*
X-4145Y-265739D01*
X-4089Y-265571D01*
X-4029Y-265405D01*
X-3965Y-265240D01*
X-3898Y-265077D01*
X-3826Y-264915D01*
X-3750Y-264756D01*
X-3751Y-264756D02*
X-3722Y-264676D01*
X-3689Y-264598D01*
X-3652Y-264522D01*
X-3612Y-264447D01*
X-3569Y-264374D01*
X-3522Y-264303D01*
X-3472Y-264234D01*
X-3419Y-264168D01*
X-3363Y-264104D01*
X-3304Y-264043D01*
X-3243Y-263985D01*
X-3179Y-263930D01*
X-3112Y-263877D01*
X-3043Y-263828D01*
X-2972Y-263782D01*
X-2898Y-263739D01*
X-2823Y-263700D01*
X-2746Y-263664D01*
X-2668Y-263631D01*
X-2588Y-263603D01*
X-2507Y-263578D01*
X-2425Y-263557D01*
X-2342Y-263539D01*
X-2258Y-263526D01*
X-2173Y-263516D01*
X-2089Y-263510D01*
X-2004Y-263508D01*
X-1919Y-263510D01*
X-1835Y-263516D01*
X-1750Y-263526D01*
X-1666Y-263539D01*
X-1583Y-263557D01*
X-1501Y-263578D01*
X-1420Y-263603D01*
X-1340Y-263631D01*
X-1262Y-263664D01*
X-1185Y-263700D01*
X-1110Y-263739D01*
X-1037Y-263782D01*
X-965Y-263828D01*
X-896Y-263877D01*
X-830Y-263930D01*
X-765Y-263985D01*
X-704Y-264043D01*
X-645Y-264104D01*
X-589Y-264168D01*
X-536Y-264234D01*
X-486Y-264303D01*
X-439Y-264374D01*
X-396Y-264447D01*
X-356Y-264522D01*
X-319Y-264598D01*
X-286Y-264676D01*
X-257Y-264756D01*
X-181Y-264915D01*
X-109Y-265077D01*
X-42Y-265240D01*
X22Y-265405D01*
X82Y-265571D01*
X138Y-265739D01*
X190Y-265908D01*
X238Y-266078D01*
X282Y-266249D01*
X322Y-266421D01*
X357Y-266595D01*
X389Y-266768D01*
X416Y-266943D01*
X439Y-267118D01*
X458Y-267294D01*
X473Y-267470D01*
X484Y-267647D01*
X490Y-267823D01*
X492Y-268000D01*
X-4499Y-268000D02*
X-4497Y-268177D01*
X-4491Y-268353D01*
X-4480Y-268530D01*
X-4465Y-268706D01*
X-4446Y-268882D01*
X-4423Y-269057D01*
X-4396Y-269232D01*
X-4364Y-269405D01*
X-4329Y-269579D01*
X-4289Y-269751D01*
X-4245Y-269922D01*
X-4197Y-270092D01*
X-4145Y-270261D01*
X-4089Y-270429D01*
X-4029Y-270595D01*
X-3965Y-270760D01*
X-3898Y-270923D01*
X-3826Y-271085D01*
X-3750Y-271244D01*
X-3751Y-271244D02*
X-3722Y-271324D01*
X-3689Y-271402D01*
X-3652Y-271478D01*
X-3612Y-271553D01*
X-3569Y-271626D01*
X-3522Y-271697D01*
X-3472Y-271766D01*
X-3419Y-271832D01*
X-3363Y-271896D01*
X-3304Y-271957D01*
X-3243Y-272015D01*
X-3178Y-272070D01*
X-3112Y-272123D01*
X-3043Y-272172D01*
X-2971Y-272218D01*
X-2898Y-272261D01*
X-2823Y-272300D01*
X-2746Y-272336D01*
X-2668Y-272369D01*
X-2588Y-272397D01*
X-2507Y-272422D01*
X-2425Y-272443D01*
X-2342Y-272461D01*
X-2258Y-272474D01*
X-2173Y-272484D01*
X-2089Y-272490D01*
X-2004Y-272492D01*
X-257Y-271244D02*
X-181Y-271085D01*
X-109Y-270923D01*
X-42Y-270760D01*
X22Y-270595D01*
X82Y-270429D01*
X138Y-270261D01*
X190Y-270092D01*
X238Y-269922D01*
X282Y-269751D01*
X322Y-269579D01*
X357Y-269405D01*
X389Y-269232D01*
X416Y-269057D01*
X439Y-268882D01*
X458Y-268706D01*
X473Y-268530D01*
X484Y-268353D01*
X490Y-268177D01*
X492Y-268000D01*
X-257Y-271244D02*
X-286Y-271324D01*
X-319Y-271402D01*
X-356Y-271478D01*
X-396Y-271553D01*
X-439Y-271626D01*
X-486Y-271697D01*
X-536Y-271766D01*
X-589Y-271832D01*
X-645Y-271896D01*
X-704Y-271957D01*
X-765Y-272015D01*
X-830Y-272071D01*
X-896Y-272123D01*
X-965Y-272172D01*
X-1037Y-272218D01*
X-1110Y-272261D01*
X-1185Y-272300D01*
X-1262Y-272336D01*
X-1340Y-272369D01*
X-1420Y-272397D01*
X-1501Y-272422D01*
X-1583Y-272443D01*
X-1666Y-272461D01*
X-1750Y-272474D01*
X-1835Y-272484D01*
X-1919Y-272490D01*
X-2004Y-272492D01*
X-4000Y-270496D02*
X-7Y-265504D01*
X4501Y-265504D02*
X6996Y-263508D01*
X6996Y-272492D01*
X4501Y-272492D02*
X9492Y-272492D01*
D12*
X35500Y-276500D02*
X35500Y-243500D01*
X50500Y-243500D01*
X50500Y-276500D01*
X35500Y-276500D01*
D11*
X53508Y-272492D02*
X53508Y-263508D01*
X56004Y-263508D01*
X56103Y-263510D01*
X56202Y-263516D01*
X56301Y-263526D01*
X56399Y-263540D01*
X56497Y-263557D01*
X56594Y-263579D01*
X56690Y-263604D01*
X56785Y-263633D01*
X56878Y-263666D01*
X56971Y-263703D01*
X57061Y-263743D01*
X57150Y-263787D01*
X57238Y-263834D01*
X57323Y-263885D01*
X57406Y-263939D01*
X57487Y-263996D01*
X57566Y-264057D01*
X57642Y-264121D01*
X57716Y-264187D01*
X57786Y-264257D01*
X57854Y-264329D01*
X57920Y-264404D01*
X57982Y-264481D01*
X58041Y-264561D01*
X58096Y-264643D01*
X58149Y-264727D01*
X58198Y-264814D01*
X58244Y-264902D01*
X58286Y-264992D01*
X58324Y-265083D01*
X58359Y-265176D01*
X58390Y-265271D01*
X58417Y-265366D01*
X58441Y-265462D01*
X58460Y-265560D01*
X58476Y-265658D01*
X58488Y-265756D01*
X58496Y-265855D01*
X58500Y-265954D01*
X58500Y-266054D01*
X58496Y-266153D01*
X58488Y-266252D01*
X58476Y-266350D01*
X58460Y-266448D01*
X58441Y-266546D01*
X58417Y-266642D01*
X58390Y-266737D01*
X58359Y-266832D01*
X58324Y-266925D01*
X58286Y-267016D01*
X58244Y-267106D01*
X58198Y-267194D01*
X58149Y-267281D01*
X58096Y-267365D01*
X58041Y-267447D01*
X57982Y-267527D01*
X57920Y-267604D01*
X57854Y-267679D01*
X57786Y-267751D01*
X57716Y-267821D01*
X57642Y-267887D01*
X57566Y-267951D01*
X57487Y-268012D01*
X57406Y-268069D01*
X57323Y-268123D01*
X57238Y-268174D01*
X57150Y-268221D01*
X57061Y-268265D01*
X56971Y-268305D01*
X56878Y-268342D01*
X56785Y-268375D01*
X56690Y-268404D01*
X56594Y-268429D01*
X56497Y-268451D01*
X56399Y-268468D01*
X56301Y-268482D01*
X56202Y-268492D01*
X56103Y-268498D01*
X56004Y-268500D01*
X56004Y-268499D02*
X53508Y-268499D01*
X56503Y-268499D02*
X58499Y-272492D01*
X62442Y-265504D02*
X64938Y-263508D01*
X64938Y-272492D01*
X67433Y-272492D02*
X62442Y-272492D01*
X71442Y-268000D02*
X71444Y-267823D01*
X71450Y-267647D01*
X71461Y-267470D01*
X71476Y-267294D01*
X71495Y-267118D01*
X71518Y-266943D01*
X71545Y-266768D01*
X71577Y-266595D01*
X71612Y-266421D01*
X71652Y-266249D01*
X71696Y-266078D01*
X71744Y-265908D01*
X71796Y-265739D01*
X71852Y-265571D01*
X71912Y-265405D01*
X71976Y-265240D01*
X72043Y-265077D01*
X72115Y-264915D01*
X72191Y-264756D01*
X72220Y-264676D01*
X72253Y-264598D01*
X72290Y-264522D01*
X72330Y-264447D01*
X72373Y-264374D01*
X72420Y-264303D01*
X72470Y-264234D01*
X72523Y-264168D01*
X72579Y-264104D01*
X72638Y-264043D01*
X72699Y-263985D01*
X72763Y-263930D01*
X72830Y-263877D01*
X72899Y-263828D01*
X72970Y-263782D01*
X73044Y-263739D01*
X73119Y-263700D01*
X73196Y-263664D01*
X73274Y-263631D01*
X73354Y-263603D01*
X73435Y-263578D01*
X73517Y-263557D01*
X73600Y-263539D01*
X73684Y-263526D01*
X73769Y-263516D01*
X73853Y-263510D01*
X73938Y-263508D01*
X74023Y-263510D01*
X74107Y-263516D01*
X74192Y-263526D01*
X74276Y-263539D01*
X74359Y-263557D01*
X74441Y-263578D01*
X74522Y-263603D01*
X74602Y-263631D01*
X74680Y-263664D01*
X74757Y-263700D01*
X74832Y-263739D01*
X74906Y-263782D01*
X74977Y-263828D01*
X75046Y-263877D01*
X75113Y-263930D01*
X75177Y-263985D01*
X75238Y-264043D01*
X75297Y-264104D01*
X75353Y-264168D01*
X75406Y-264234D01*
X75456Y-264303D01*
X75503Y-264374D01*
X75546Y-264447D01*
X75586Y-264522D01*
X75623Y-264598D01*
X75656Y-264676D01*
X75685Y-264756D01*
X75761Y-264915D01*
X75833Y-265077D01*
X75900Y-265240D01*
X75964Y-265405D01*
X76024Y-265571D01*
X76080Y-265739D01*
X76132Y-265908D01*
X76180Y-266078D01*
X76224Y-266249D01*
X76264Y-266421D01*
X76299Y-266595D01*
X76331Y-266768D01*
X76358Y-266943D01*
X76381Y-267118D01*
X76400Y-267294D01*
X76415Y-267470D01*
X76426Y-267647D01*
X76432Y-267823D01*
X76434Y-268000D01*
X71442Y-268000D02*
X71444Y-268177D01*
X71450Y-268353D01*
X71461Y-268530D01*
X71476Y-268706D01*
X71495Y-268882D01*
X71518Y-269057D01*
X71545Y-269232D01*
X71577Y-269405D01*
X71612Y-269579D01*
X71652Y-269751D01*
X71696Y-269922D01*
X71744Y-270092D01*
X71796Y-270261D01*
X71852Y-270429D01*
X71912Y-270595D01*
X71976Y-270760D01*
X72043Y-270923D01*
X72115Y-271085D01*
X72191Y-271244D01*
X72220Y-271324D01*
X72253Y-271402D01*
X72290Y-271478D01*
X72330Y-271553D01*
X72373Y-271626D01*
X72420Y-271697D01*
X72470Y-271766D01*
X72523Y-271832D01*
X72579Y-271896D01*
X72638Y-271957D01*
X72699Y-272015D01*
X72764Y-272070D01*
X72830Y-272123D01*
X72899Y-272172D01*
X72971Y-272218D01*
X73044Y-272261D01*
X73119Y-272300D01*
X73196Y-272336D01*
X73274Y-272369D01*
X73354Y-272397D01*
X73435Y-272422D01*
X73517Y-272443D01*
X73600Y-272461D01*
X73684Y-272474D01*
X73769Y-272484D01*
X73853Y-272490D01*
X73938Y-272492D01*
X75685Y-271244D02*
X75761Y-271085D01*
X75833Y-270923D01*
X75900Y-270760D01*
X75964Y-270595D01*
X76024Y-270429D01*
X76080Y-270261D01*
X76132Y-270092D01*
X76180Y-269922D01*
X76224Y-269751D01*
X76264Y-269579D01*
X76299Y-269405D01*
X76331Y-269232D01*
X76358Y-269057D01*
X76381Y-268882D01*
X76400Y-268706D01*
X76415Y-268530D01*
X76426Y-268353D01*
X76432Y-268177D01*
X76434Y-268000D01*
X75685Y-271244D02*
X75656Y-271324D01*
X75623Y-271402D01*
X75586Y-271478D01*
X75546Y-271553D01*
X75503Y-271626D01*
X75456Y-271697D01*
X75406Y-271766D01*
X75353Y-271832D01*
X75297Y-271896D01*
X75238Y-271957D01*
X75177Y-272015D01*
X75112Y-272070D01*
X75046Y-272123D01*
X74977Y-272172D01*
X74905Y-272218D01*
X74832Y-272261D01*
X74757Y-272300D01*
X74680Y-272336D01*
X74602Y-272369D01*
X74522Y-272397D01*
X74441Y-272422D01*
X74359Y-272443D01*
X74276Y-272461D01*
X74192Y-272474D01*
X74107Y-272484D01*
X74023Y-272490D01*
X73938Y-272492D01*
X71941Y-270496D02*
X75934Y-265504D01*
X80442Y-264506D02*
X80442Y-263508D01*
X85433Y-263508D01*
X82938Y-272492D01*
D12*
X53500Y-225500D02*
X53500Y-192500D01*
X68500Y-192500D01*
X68500Y-225500D01*
X53500Y-225500D01*
D11*
X53508Y-228508D02*
X53508Y-237492D01*
X53508Y-228508D02*
X56004Y-228508D01*
X56103Y-228510D01*
X56202Y-228516D01*
X56301Y-228526D01*
X56399Y-228540D01*
X56497Y-228557D01*
X56594Y-228579D01*
X56690Y-228604D01*
X56785Y-228633D01*
X56878Y-228666D01*
X56971Y-228703D01*
X57061Y-228743D01*
X57150Y-228787D01*
X57238Y-228834D01*
X57323Y-228885D01*
X57406Y-228939D01*
X57487Y-228996D01*
X57566Y-229057D01*
X57642Y-229121D01*
X57716Y-229187D01*
X57786Y-229257D01*
X57854Y-229329D01*
X57920Y-229404D01*
X57982Y-229481D01*
X58041Y-229561D01*
X58096Y-229643D01*
X58149Y-229727D01*
X58198Y-229814D01*
X58244Y-229902D01*
X58286Y-229992D01*
X58324Y-230083D01*
X58359Y-230176D01*
X58390Y-230271D01*
X58417Y-230366D01*
X58441Y-230462D01*
X58460Y-230560D01*
X58476Y-230658D01*
X58488Y-230756D01*
X58496Y-230855D01*
X58500Y-230954D01*
X58500Y-231054D01*
X58496Y-231153D01*
X58488Y-231252D01*
X58476Y-231350D01*
X58460Y-231448D01*
X58441Y-231546D01*
X58417Y-231642D01*
X58390Y-231737D01*
X58359Y-231832D01*
X58324Y-231925D01*
X58286Y-232016D01*
X58244Y-232106D01*
X58198Y-232194D01*
X58149Y-232281D01*
X58096Y-232365D01*
X58041Y-232447D01*
X57982Y-232527D01*
X57920Y-232604D01*
X57854Y-232679D01*
X57786Y-232751D01*
X57716Y-232821D01*
X57642Y-232887D01*
X57566Y-232951D01*
X57487Y-233012D01*
X57406Y-233069D01*
X57323Y-233123D01*
X57238Y-233174D01*
X57150Y-233221D01*
X57061Y-233265D01*
X56971Y-233305D01*
X56878Y-233342D01*
X56785Y-233375D01*
X56690Y-233404D01*
X56594Y-233429D01*
X56497Y-233451D01*
X56399Y-233468D01*
X56301Y-233482D01*
X56202Y-233492D01*
X56103Y-233498D01*
X56004Y-233500D01*
X56004Y-233499D02*
X53508Y-233499D01*
X56503Y-233499D02*
X58499Y-237492D01*
X62442Y-230504D02*
X64938Y-228508D01*
X64938Y-237492D01*
X67433Y-237492D02*
X62442Y-237492D01*
X71442Y-233000D02*
X71444Y-232823D01*
X71450Y-232647D01*
X71461Y-232470D01*
X71476Y-232294D01*
X71495Y-232118D01*
X71518Y-231943D01*
X71545Y-231768D01*
X71577Y-231595D01*
X71612Y-231421D01*
X71652Y-231249D01*
X71696Y-231078D01*
X71744Y-230908D01*
X71796Y-230739D01*
X71852Y-230571D01*
X71912Y-230405D01*
X71976Y-230240D01*
X72043Y-230077D01*
X72115Y-229915D01*
X72191Y-229756D01*
X72220Y-229676D01*
X72253Y-229598D01*
X72290Y-229522D01*
X72330Y-229447D01*
X72373Y-229374D01*
X72420Y-229303D01*
X72470Y-229234D01*
X72523Y-229168D01*
X72579Y-229104D01*
X72638Y-229043D01*
X72699Y-228985D01*
X72763Y-228930D01*
X72830Y-228877D01*
X72899Y-228828D01*
X72970Y-228782D01*
X73044Y-228739D01*
X73119Y-228700D01*
X73196Y-228664D01*
X73274Y-228631D01*
X73354Y-228603D01*
X73435Y-228578D01*
X73517Y-228557D01*
X73600Y-228539D01*
X73684Y-228526D01*
X73769Y-228516D01*
X73853Y-228510D01*
X73938Y-228508D01*
X74023Y-228510D01*
X74107Y-228516D01*
X74192Y-228526D01*
X74276Y-228539D01*
X74359Y-228557D01*
X74441Y-228578D01*
X74522Y-228603D01*
X74602Y-228631D01*
X74680Y-228664D01*
X74757Y-228700D01*
X74832Y-228739D01*
X74906Y-228782D01*
X74977Y-228828D01*
X75046Y-228877D01*
X75113Y-228930D01*
X75177Y-228985D01*
X75238Y-229043D01*
X75297Y-229104D01*
X75353Y-229168D01*
X75406Y-229234D01*
X75456Y-229303D01*
X75503Y-229374D01*
X75546Y-229447D01*
X75586Y-229522D01*
X75623Y-229598D01*
X75656Y-229676D01*
X75685Y-229756D01*
X75761Y-229915D01*
X75833Y-230077D01*
X75900Y-230240D01*
X75964Y-230405D01*
X76024Y-230571D01*
X76080Y-230739D01*
X76132Y-230908D01*
X76180Y-231078D01*
X76224Y-231249D01*
X76264Y-231421D01*
X76299Y-231595D01*
X76331Y-231768D01*
X76358Y-231943D01*
X76381Y-232118D01*
X76400Y-232294D01*
X76415Y-232470D01*
X76426Y-232647D01*
X76432Y-232823D01*
X76434Y-233000D01*
X71442Y-233000D02*
X71444Y-233177D01*
X71450Y-233353D01*
X71461Y-233530D01*
X71476Y-233706D01*
X71495Y-233882D01*
X71518Y-234057D01*
X71545Y-234232D01*
X71577Y-234405D01*
X71612Y-234579D01*
X71652Y-234751D01*
X71696Y-234922D01*
X71744Y-235092D01*
X71796Y-235261D01*
X71852Y-235429D01*
X71912Y-235595D01*
X71976Y-235760D01*
X72043Y-235923D01*
X72115Y-236085D01*
X72191Y-236244D01*
X72220Y-236324D01*
X72253Y-236402D01*
X72290Y-236478D01*
X72330Y-236553D01*
X72373Y-236626D01*
X72420Y-236697D01*
X72470Y-236766D01*
X72523Y-236832D01*
X72579Y-236896D01*
X72638Y-236957D01*
X72699Y-237015D01*
X72764Y-237070D01*
X72830Y-237123D01*
X72899Y-237172D01*
X72971Y-237218D01*
X73044Y-237261D01*
X73119Y-237300D01*
X73196Y-237336D01*
X73274Y-237369D01*
X73354Y-237397D01*
X73435Y-237422D01*
X73517Y-237443D01*
X73600Y-237461D01*
X73684Y-237474D01*
X73769Y-237484D01*
X73853Y-237490D01*
X73938Y-237492D01*
X75685Y-236244D02*
X75761Y-236085D01*
X75833Y-235923D01*
X75900Y-235760D01*
X75964Y-235595D01*
X76024Y-235429D01*
X76080Y-235261D01*
X76132Y-235092D01*
X76180Y-234922D01*
X76224Y-234751D01*
X76264Y-234579D01*
X76299Y-234405D01*
X76331Y-234232D01*
X76358Y-234057D01*
X76381Y-233882D01*
X76400Y-233706D01*
X76415Y-233530D01*
X76426Y-233353D01*
X76432Y-233177D01*
X76434Y-233000D01*
X75685Y-236244D02*
X75656Y-236324D01*
X75623Y-236402D01*
X75586Y-236478D01*
X75546Y-236553D01*
X75503Y-236626D01*
X75456Y-236697D01*
X75406Y-236766D01*
X75353Y-236832D01*
X75297Y-236896D01*
X75238Y-236957D01*
X75177Y-237015D01*
X75112Y-237070D01*
X75046Y-237123D01*
X74977Y-237172D01*
X74905Y-237218D01*
X74832Y-237261D01*
X74757Y-237300D01*
X74680Y-237336D01*
X74602Y-237369D01*
X74522Y-237397D01*
X74441Y-237422D01*
X74359Y-237443D01*
X74276Y-237461D01*
X74192Y-237474D01*
X74107Y-237484D01*
X74023Y-237490D01*
X73938Y-237492D01*
X71941Y-235496D02*
X75934Y-230504D01*
X80442Y-235496D02*
X82439Y-228508D01*
X80442Y-235496D02*
X85433Y-235496D01*
X83936Y-233499D02*
X83936Y-237492D01*
D12*
X14000Y-127000D02*
X-14000Y-127000D01*
X-14000Y-91000D01*
X14000Y-91000D01*
X14000Y-127000D01*
D11*
X-16408Y-85452D02*
X-16408Y-78848D01*
X-16408Y-85452D02*
X-16406Y-85552D01*
X-16400Y-85651D01*
X-16390Y-85751D01*
X-16377Y-85849D01*
X-16359Y-85948D01*
X-16338Y-86045D01*
X-16313Y-86141D01*
X-16284Y-86237D01*
X-16251Y-86331D01*
X-16215Y-86424D01*
X-16175Y-86515D01*
X-16131Y-86605D01*
X-16084Y-86693D01*
X-16034Y-86779D01*
X-15980Y-86863D01*
X-15923Y-86945D01*
X-15863Y-87024D01*
X-15799Y-87102D01*
X-15733Y-87176D01*
X-15664Y-87248D01*
X-15592Y-87317D01*
X-15518Y-87383D01*
X-15440Y-87447D01*
X-15361Y-87507D01*
X-15279Y-87564D01*
X-15195Y-87618D01*
X-15109Y-87668D01*
X-15021Y-87715D01*
X-14931Y-87759D01*
X-14840Y-87799D01*
X-14747Y-87835D01*
X-14653Y-87868D01*
X-14557Y-87897D01*
X-14461Y-87922D01*
X-14364Y-87943D01*
X-14265Y-87961D01*
X-14167Y-87974D01*
X-14067Y-87984D01*
X-13968Y-87990D01*
X-13868Y-87992D01*
X-13768Y-87990D01*
X-13669Y-87984D01*
X-13569Y-87974D01*
X-13471Y-87961D01*
X-13372Y-87943D01*
X-13275Y-87922D01*
X-13179Y-87897D01*
X-13083Y-87868D01*
X-12989Y-87835D01*
X-12896Y-87799D01*
X-12805Y-87759D01*
X-12715Y-87715D01*
X-12627Y-87668D01*
X-12541Y-87618D01*
X-12457Y-87564D01*
X-12375Y-87507D01*
X-12296Y-87447D01*
X-12218Y-87383D01*
X-12144Y-87317D01*
X-12072Y-87248D01*
X-12003Y-87176D01*
X-11937Y-87102D01*
X-11873Y-87024D01*
X-11813Y-86945D01*
X-11756Y-86863D01*
X-11702Y-86779D01*
X-11652Y-86693D01*
X-11605Y-86605D01*
X-11561Y-86515D01*
X-11521Y-86424D01*
X-11485Y-86331D01*
X-11452Y-86237D01*
X-11423Y-86141D01*
X-11398Y-86045D01*
X-11377Y-85948D01*
X-11359Y-85849D01*
X-11346Y-85751D01*
X-11336Y-85651D01*
X-11330Y-85552D01*
X-11328Y-85452D01*
X-11328Y-78848D01*
X-6960Y-80880D02*
X-4420Y-78848D01*
X-4420Y-87992D01*
X-6960Y-87992D02*
X-1880Y-87992D01*
X2185Y-83420D02*
X2187Y-83240D01*
X2194Y-83060D01*
X2204Y-82881D01*
X2219Y-82702D01*
X2239Y-82523D01*
X2262Y-82344D01*
X2290Y-82167D01*
X2322Y-81990D01*
X2358Y-81813D01*
X2399Y-81638D01*
X2443Y-81464D01*
X2492Y-81291D01*
X2545Y-81119D01*
X2602Y-80948D01*
X2663Y-80779D01*
X2728Y-80611D01*
X2797Y-80445D01*
X2870Y-80281D01*
X2947Y-80118D01*
X2946Y-80118D02*
X2974Y-80040D01*
X3007Y-79963D01*
X3042Y-79888D01*
X3081Y-79814D01*
X3123Y-79742D01*
X3168Y-79673D01*
X3217Y-79605D01*
X3268Y-79539D01*
X3322Y-79476D01*
X3379Y-79415D01*
X3438Y-79356D01*
X3500Y-79301D01*
X3565Y-79248D01*
X3631Y-79198D01*
X3700Y-79151D01*
X3771Y-79107D01*
X3844Y-79067D01*
X3918Y-79030D01*
X3994Y-78995D01*
X4072Y-78965D01*
X4150Y-78938D01*
X4230Y-78914D01*
X4311Y-78894D01*
X4393Y-78877D01*
X4475Y-78865D01*
X4558Y-78855D01*
X4641Y-78850D01*
X4724Y-78848D01*
X4807Y-78850D01*
X4890Y-78855D01*
X4973Y-78865D01*
X5055Y-78877D01*
X5137Y-78894D01*
X5218Y-78914D01*
X5298Y-78938D01*
X5376Y-78965D01*
X5454Y-78995D01*
X5530Y-79030D01*
X5604Y-79067D01*
X5677Y-79107D01*
X5748Y-79151D01*
X5817Y-79198D01*
X5883Y-79248D01*
X5948Y-79301D01*
X6010Y-79356D01*
X6069Y-79415D01*
X6126Y-79476D01*
X6180Y-79539D01*
X6231Y-79605D01*
X6280Y-79673D01*
X6325Y-79742D01*
X6367Y-79814D01*
X6406Y-79888D01*
X6441Y-79963D01*
X6474Y-80040D01*
X6502Y-80118D01*
X6579Y-80281D01*
X6652Y-80445D01*
X6721Y-80611D01*
X6786Y-80779D01*
X6847Y-80948D01*
X6904Y-81119D01*
X6957Y-81291D01*
X7006Y-81464D01*
X7050Y-81638D01*
X7091Y-81813D01*
X7127Y-81990D01*
X7159Y-82167D01*
X7187Y-82344D01*
X7210Y-82523D01*
X7230Y-82702D01*
X7245Y-82881D01*
X7255Y-83060D01*
X7262Y-83240D01*
X7264Y-83420D01*
X2185Y-83420D02*
X2187Y-83600D01*
X2194Y-83780D01*
X2204Y-83959D01*
X2219Y-84138D01*
X2239Y-84317D01*
X2262Y-84496D01*
X2290Y-84673D01*
X2322Y-84850D01*
X2358Y-85027D01*
X2399Y-85202D01*
X2443Y-85376D01*
X2492Y-85549D01*
X2545Y-85721D01*
X2602Y-85892D01*
X2663Y-86061D01*
X2728Y-86229D01*
X2797Y-86395D01*
X2870Y-86559D01*
X2947Y-86722D01*
X2946Y-86722D02*
X2974Y-86800D01*
X3007Y-86877D01*
X3042Y-86952D01*
X3081Y-87026D01*
X3123Y-87098D01*
X3168Y-87167D01*
X3217Y-87235D01*
X3268Y-87301D01*
X3322Y-87364D01*
X3379Y-87425D01*
X3438Y-87484D01*
X3500Y-87539D01*
X3565Y-87592D01*
X3631Y-87642D01*
X3700Y-87689D01*
X3771Y-87733D01*
X3844Y-87773D01*
X3918Y-87810D01*
X3994Y-87845D01*
X4072Y-87875D01*
X4150Y-87902D01*
X4230Y-87926D01*
X4311Y-87946D01*
X4393Y-87963D01*
X4475Y-87975D01*
X4558Y-87985D01*
X4641Y-87990D01*
X4724Y-87992D01*
X6502Y-86722D02*
X6579Y-86559D01*
X6652Y-86395D01*
X6721Y-86229D01*
X6786Y-86061D01*
X6847Y-85892D01*
X6904Y-85721D01*
X6957Y-85549D01*
X7006Y-85376D01*
X7050Y-85202D01*
X7091Y-85027D01*
X7127Y-84850D01*
X7159Y-84673D01*
X7187Y-84496D01*
X7210Y-84317D01*
X7230Y-84138D01*
X7245Y-83959D01*
X7255Y-83780D01*
X7262Y-83600D01*
X7264Y-83420D01*
X6502Y-86722D02*
X6474Y-86800D01*
X6441Y-86877D01*
X6406Y-86952D01*
X6367Y-87026D01*
X6325Y-87098D01*
X6280Y-87167D01*
X6231Y-87235D01*
X6180Y-87301D01*
X6126Y-87364D01*
X6069Y-87425D01*
X6010Y-87484D01*
X5948Y-87539D01*
X5883Y-87592D01*
X5817Y-87642D01*
X5748Y-87689D01*
X5677Y-87733D01*
X5604Y-87773D01*
X5530Y-87810D01*
X5454Y-87845D01*
X5376Y-87875D01*
X5298Y-87902D01*
X5218Y-87926D01*
X5137Y-87946D01*
X5055Y-87963D01*
X4973Y-87975D01*
X4890Y-87985D01*
X4807Y-87990D01*
X4724Y-87992D01*
X2692Y-85960D02*
X6756Y-80880D01*
X14122Y-78848D02*
X14216Y-78850D01*
X14311Y-78856D01*
X14405Y-78866D01*
X14498Y-78879D01*
X14591Y-78897D01*
X14683Y-78918D01*
X14774Y-78943D01*
X14864Y-78972D01*
X14953Y-79004D01*
X15040Y-79041D01*
X15126Y-79080D01*
X15210Y-79124D01*
X15292Y-79170D01*
X15372Y-79220D01*
X15450Y-79274D01*
X15526Y-79330D01*
X15599Y-79390D01*
X15670Y-79452D01*
X15738Y-79518D01*
X15804Y-79586D01*
X15866Y-79657D01*
X15926Y-79730D01*
X15982Y-79806D01*
X16036Y-79884D01*
X16086Y-79964D01*
X16132Y-80046D01*
X16176Y-80130D01*
X16215Y-80216D01*
X16252Y-80303D01*
X16284Y-80392D01*
X16313Y-80482D01*
X16338Y-80573D01*
X16359Y-80665D01*
X16377Y-80758D01*
X16390Y-80851D01*
X16400Y-80945D01*
X16406Y-81040D01*
X16408Y-81134D01*
X14122Y-78848D02*
X14016Y-78850D01*
X13911Y-78856D01*
X13806Y-78865D01*
X13701Y-78878D01*
X13597Y-78895D01*
X13494Y-78916D01*
X13391Y-78940D01*
X13289Y-78969D01*
X13189Y-79000D01*
X13089Y-79036D01*
X12991Y-79074D01*
X12895Y-79117D01*
X12799Y-79163D01*
X12706Y-79212D01*
X12615Y-79264D01*
X12525Y-79320D01*
X12437Y-79379D01*
X12352Y-79441D01*
X12269Y-79506D01*
X12188Y-79574D01*
X12110Y-79645D01*
X12035Y-79719D01*
X11962Y-79795D01*
X11892Y-79874D01*
X11825Y-79955D01*
X11760Y-80039D01*
X11699Y-80125D01*
X11641Y-80213D01*
X11586Y-80303D01*
X11535Y-80395D01*
X11486Y-80489D01*
X11441Y-80585D01*
X11400Y-80682D01*
X11362Y-80780D01*
X11328Y-80880D01*
X15646Y-82912D02*
X15713Y-82845D01*
X15778Y-82776D01*
X15840Y-82704D01*
X15899Y-82631D01*
X15955Y-82554D01*
X16009Y-82476D01*
X16059Y-82396D01*
X16106Y-82314D01*
X16150Y-82230D01*
X16190Y-82144D01*
X16228Y-82057D01*
X16262Y-81969D01*
X16292Y-81879D01*
X16319Y-81789D01*
X16343Y-81697D01*
X16363Y-81604D01*
X16379Y-81511D01*
X16392Y-81417D01*
X16401Y-81323D01*
X16406Y-81229D01*
X16408Y-81134D01*
X15646Y-82912D02*
X11328Y-87992D01*
X16408Y-87992D01*
M02*
