G04 EAGLE Gerber RS-274X export*
G75*
%MOMM*%
%FSLAX34Y34*%
%LPD*%
%INSolderpaste Top*%
%IPPOS*%
%AMOC8*
5,1,8,0,0,1.08239X$1,22.5*%
G01*
%ADD10C,0.500000*%
%ADD11C,0.650000*%
%ADD12C,0.196000*%
%ADD13C,0.195000*%
%ADD14C,0.201166*%
%ADD15C,0.198119*%
%ADD16C,0.200000*%
%ADD17C,0.198688*%


D10*
X-48500Y2500D02*
X-48500Y-3500D01*
X-53500Y-3500D01*
X-53500Y2500D01*
X-48500Y2500D01*
X-48500Y1250D02*
X-53500Y1250D01*
X-48500Y13500D02*
X-48500Y19500D01*
X-48500Y13500D02*
X-53500Y13500D01*
X-53500Y19500D01*
X-48500Y19500D01*
X-48500Y18250D02*
X-53500Y18250D01*
D11*
X-94250Y187250D02*
X-94250Y193750D01*
X-85750Y193750D01*
X-85750Y187250D01*
X-94250Y187250D01*
X-94250Y193425D02*
X-85750Y193425D01*
X-94250Y174750D02*
X-94250Y168250D01*
X-94250Y174750D02*
X-85750Y174750D01*
X-85750Y168250D01*
X-94250Y168250D01*
X-94250Y174425D02*
X-85750Y174425D01*
D10*
X-8500Y-250500D02*
X-2500Y-250500D01*
X-2500Y-255500D01*
X-8500Y-255500D01*
X-8500Y-250500D01*
X-8500Y-250750D02*
X-2500Y-250750D01*
X-19500Y-250500D02*
X-25500Y-250500D01*
X-19500Y-250500D02*
X-19500Y-255500D01*
X-25500Y-255500D01*
X-25500Y-250500D01*
X-25500Y-250750D02*
X-19500Y-250750D01*
X-21500Y-48500D02*
X-15500Y-48500D01*
X-21500Y-48500D02*
X-21500Y-43500D01*
X-15500Y-43500D01*
X-15500Y-48500D01*
X-15500Y-43750D02*
X-21500Y-43750D01*
X-4500Y-48500D02*
X1500Y-48500D01*
X-4500Y-48500D02*
X-4500Y-43500D01*
X1500Y-43500D01*
X1500Y-48500D01*
X1500Y-43750D02*
X-4500Y-43750D01*
D12*
X89980Y161980D02*
X89980Y174020D01*
X102020Y174020D01*
X102020Y161980D01*
X89980Y161980D01*
X89980Y163842D02*
X102020Y163842D01*
X102020Y165704D02*
X89980Y165704D01*
X89980Y167566D02*
X102020Y167566D01*
X102020Y169428D02*
X89980Y169428D01*
X89980Y171290D02*
X102020Y171290D01*
X102020Y173152D02*
X89980Y173152D01*
X89980Y199980D02*
X89980Y212020D01*
X102020Y212020D01*
X102020Y199980D01*
X89980Y199980D01*
X89980Y201842D02*
X102020Y201842D01*
X102020Y203704D02*
X89980Y203704D01*
X89980Y205566D02*
X102020Y205566D01*
X102020Y207428D02*
X89980Y207428D01*
X89980Y209290D02*
X102020Y209290D01*
X102020Y211152D02*
X89980Y211152D01*
D13*
X63675Y176125D02*
X50625Y176125D01*
X63675Y176125D02*
X63675Y148075D01*
X50625Y148075D01*
X50625Y176125D01*
X50625Y149927D02*
X63675Y149927D01*
X63675Y151779D02*
X50625Y151779D01*
X50625Y153631D02*
X63675Y153631D01*
X63675Y155483D02*
X50625Y155483D01*
X50625Y157335D02*
X63675Y157335D01*
X63675Y159187D02*
X50625Y159187D01*
X50625Y161039D02*
X63675Y161039D01*
X63675Y162891D02*
X50625Y162891D01*
X50625Y164743D02*
X63675Y164743D01*
X63675Y166595D02*
X50625Y166595D01*
X50625Y168447D02*
X63675Y168447D01*
X63675Y170299D02*
X50625Y170299D01*
X50625Y172151D02*
X63675Y172151D01*
X63675Y174003D02*
X50625Y174003D01*
X50625Y175855D02*
X63675Y175855D01*
X50975Y221125D02*
X37925Y221125D01*
X50975Y221125D02*
X50975Y193075D01*
X37925Y193075D01*
X37925Y221125D01*
X37925Y194927D02*
X50975Y194927D01*
X50975Y196779D02*
X37925Y196779D01*
X37925Y198631D02*
X50975Y198631D01*
X50975Y200483D02*
X37925Y200483D01*
X37925Y202335D02*
X50975Y202335D01*
X50975Y204187D02*
X37925Y204187D01*
X37925Y206039D02*
X50975Y206039D01*
X50975Y207891D02*
X37925Y207891D01*
X37925Y209743D02*
X50975Y209743D01*
X50975Y211595D02*
X37925Y211595D01*
X37925Y213447D02*
X50975Y213447D01*
X50975Y215299D02*
X37925Y215299D01*
X37925Y217151D02*
X50975Y217151D01*
X50975Y219003D02*
X37925Y219003D01*
X37925Y220855D02*
X50975Y220855D01*
X38275Y176125D02*
X25225Y176125D01*
X38275Y176125D02*
X38275Y148075D01*
X25225Y148075D01*
X25225Y176125D01*
X25225Y149927D02*
X38275Y149927D01*
X38275Y151779D02*
X25225Y151779D01*
X25225Y153631D02*
X38275Y153631D01*
X38275Y155483D02*
X25225Y155483D01*
X25225Y157335D02*
X38275Y157335D01*
X38275Y159187D02*
X25225Y159187D01*
X25225Y161039D02*
X38275Y161039D01*
X38275Y162891D02*
X25225Y162891D01*
X25225Y164743D02*
X38275Y164743D01*
X38275Y166595D02*
X25225Y166595D01*
X25225Y168447D02*
X38275Y168447D01*
X38275Y170299D02*
X25225Y170299D01*
X25225Y172151D02*
X38275Y172151D01*
X38275Y174003D02*
X25225Y174003D01*
X25225Y175855D02*
X38275Y175855D01*
X25575Y221125D02*
X12525Y221125D01*
X25575Y221125D02*
X25575Y193075D01*
X12525Y193075D01*
X12525Y221125D01*
X12525Y194927D02*
X25575Y194927D01*
X25575Y196779D02*
X12525Y196779D01*
X12525Y198631D02*
X25575Y198631D01*
X25575Y200483D02*
X12525Y200483D01*
X12525Y202335D02*
X25575Y202335D01*
X25575Y204187D02*
X12525Y204187D01*
X12525Y206039D02*
X25575Y206039D01*
X25575Y207891D02*
X12525Y207891D01*
X12525Y209743D02*
X25575Y209743D01*
X25575Y211595D02*
X12525Y211595D01*
X12525Y213447D02*
X25575Y213447D01*
X25575Y215299D02*
X12525Y215299D01*
X12525Y217151D02*
X25575Y217151D01*
X25575Y219003D02*
X12525Y219003D01*
X12525Y220855D02*
X25575Y220855D01*
X12875Y176125D02*
X-175Y176125D01*
X12875Y176125D02*
X12875Y148075D01*
X-175Y148075D01*
X-175Y176125D01*
X-175Y149927D02*
X12875Y149927D01*
X12875Y151779D02*
X-175Y151779D01*
X-175Y153631D02*
X12875Y153631D01*
X12875Y155483D02*
X-175Y155483D01*
X-175Y157335D02*
X12875Y157335D01*
X12875Y159187D02*
X-175Y159187D01*
X-175Y161039D02*
X12875Y161039D01*
X12875Y162891D02*
X-175Y162891D01*
X-175Y164743D02*
X12875Y164743D01*
X12875Y166595D02*
X-175Y166595D01*
X-175Y168447D02*
X12875Y168447D01*
X12875Y170299D02*
X-175Y170299D01*
X-175Y172151D02*
X12875Y172151D01*
X12875Y174003D02*
X-175Y174003D01*
X-175Y175855D02*
X12875Y175855D01*
X175Y221125D02*
X-12875Y221125D01*
X175Y221125D02*
X175Y193075D01*
X-12875Y193075D01*
X-12875Y221125D01*
X-12875Y194927D02*
X175Y194927D01*
X175Y196779D02*
X-12875Y196779D01*
X-12875Y198631D02*
X175Y198631D01*
X175Y200483D02*
X-12875Y200483D01*
X-12875Y202335D02*
X175Y202335D01*
X175Y204187D02*
X-12875Y204187D01*
X-12875Y206039D02*
X175Y206039D01*
X175Y207891D02*
X-12875Y207891D01*
X-12875Y209743D02*
X175Y209743D01*
X175Y211595D02*
X-12875Y211595D01*
X-12875Y213447D02*
X175Y213447D01*
X175Y215299D02*
X-12875Y215299D01*
X-12875Y217151D02*
X175Y217151D01*
X175Y219003D02*
X-12875Y219003D01*
X-12875Y220855D02*
X175Y220855D01*
X-12525Y176125D02*
X-25575Y176125D01*
X-12525Y176125D02*
X-12525Y148075D01*
X-25575Y148075D01*
X-25575Y176125D01*
X-25575Y149927D02*
X-12525Y149927D01*
X-12525Y151779D02*
X-25575Y151779D01*
X-25575Y153631D02*
X-12525Y153631D01*
X-12525Y155483D02*
X-25575Y155483D01*
X-25575Y157335D02*
X-12525Y157335D01*
X-12525Y159187D02*
X-25575Y159187D01*
X-25575Y161039D02*
X-12525Y161039D01*
X-12525Y162891D02*
X-25575Y162891D01*
X-25575Y164743D02*
X-12525Y164743D01*
X-12525Y166595D02*
X-25575Y166595D01*
X-25575Y168447D02*
X-12525Y168447D01*
X-12525Y170299D02*
X-25575Y170299D01*
X-25575Y172151D02*
X-12525Y172151D01*
X-12525Y174003D02*
X-25575Y174003D01*
X-25575Y175855D02*
X-12525Y175855D01*
X-25225Y221125D02*
X-38275Y221125D01*
X-25225Y221125D02*
X-25225Y193075D01*
X-38275Y193075D01*
X-38275Y221125D01*
X-38275Y194927D02*
X-25225Y194927D01*
X-25225Y196779D02*
X-38275Y196779D01*
X-38275Y198631D02*
X-25225Y198631D01*
X-25225Y200483D02*
X-38275Y200483D01*
X-38275Y202335D02*
X-25225Y202335D01*
X-25225Y204187D02*
X-38275Y204187D01*
X-38275Y206039D02*
X-25225Y206039D01*
X-25225Y207891D02*
X-38275Y207891D01*
X-38275Y209743D02*
X-25225Y209743D01*
X-25225Y211595D02*
X-38275Y211595D01*
X-38275Y213447D02*
X-25225Y213447D01*
X-25225Y215299D02*
X-38275Y215299D01*
X-38275Y217151D02*
X-25225Y217151D01*
X-25225Y219003D02*
X-38275Y219003D01*
X-38275Y220855D02*
X-25225Y220855D01*
X-37925Y176125D02*
X-50975Y176125D01*
X-37925Y176125D02*
X-37925Y148075D01*
X-50975Y148075D01*
X-50975Y176125D01*
X-50975Y149927D02*
X-37925Y149927D01*
X-37925Y151779D02*
X-50975Y151779D01*
X-50975Y153631D02*
X-37925Y153631D01*
X-37925Y155483D02*
X-50975Y155483D01*
X-50975Y157335D02*
X-37925Y157335D01*
X-37925Y159187D02*
X-50975Y159187D01*
X-50975Y161039D02*
X-37925Y161039D01*
X-37925Y162891D02*
X-50975Y162891D01*
X-50975Y164743D02*
X-37925Y164743D01*
X-37925Y166595D02*
X-50975Y166595D01*
X-50975Y168447D02*
X-37925Y168447D01*
X-37925Y170299D02*
X-50975Y170299D01*
X-50975Y172151D02*
X-37925Y172151D01*
X-37925Y174003D02*
X-50975Y174003D01*
X-50975Y175855D02*
X-37925Y175855D01*
X-50625Y221125D02*
X-63675Y221125D01*
X-50625Y221125D02*
X-50625Y193075D01*
X-63675Y193075D01*
X-63675Y221125D01*
X-63675Y194927D02*
X-50625Y194927D01*
X-50625Y196779D02*
X-63675Y196779D01*
X-63675Y198631D02*
X-50625Y198631D01*
X-50625Y200483D02*
X-63675Y200483D01*
X-63675Y202335D02*
X-50625Y202335D01*
X-50625Y204187D02*
X-63675Y204187D01*
X-63675Y206039D02*
X-50625Y206039D01*
X-50625Y207891D02*
X-63675Y207891D01*
X-63675Y209743D02*
X-50625Y209743D01*
X-50625Y211595D02*
X-63675Y211595D01*
X-63675Y213447D02*
X-50625Y213447D01*
X-50625Y215299D02*
X-63675Y215299D01*
X-63675Y217151D02*
X-50625Y217151D01*
X-50625Y219003D02*
X-63675Y219003D01*
X-63675Y220855D02*
X-50625Y220855D01*
D10*
X-42500Y-149500D02*
X-42500Y-155500D01*
X-47500Y-155500D01*
X-47500Y-149500D01*
X-42500Y-149500D01*
X-42500Y-150750D02*
X-47500Y-150750D01*
X-42500Y-138500D02*
X-42500Y-132500D01*
X-42500Y-138500D02*
X-47500Y-138500D01*
X-47500Y-132500D01*
X-42500Y-132500D01*
X-42500Y-133750D02*
X-47500Y-133750D01*
X-47500Y-213500D02*
X-47500Y-219500D01*
X-47500Y-213500D02*
X-42500Y-213500D01*
X-42500Y-219500D01*
X-47500Y-219500D01*
X-47500Y-214750D02*
X-42500Y-214750D01*
X-47500Y-230500D02*
X-47500Y-236500D01*
X-47500Y-230500D02*
X-42500Y-230500D01*
X-42500Y-236500D01*
X-47500Y-236500D01*
X-47500Y-231750D02*
X-42500Y-231750D01*
D14*
X30375Y18982D02*
X30375Y20018D01*
X38269Y20018D01*
X38269Y18982D01*
X30375Y18982D01*
X30375Y13518D02*
X30375Y12482D01*
X30375Y13518D02*
X38269Y13518D01*
X38269Y12482D01*
X30375Y12482D01*
X30375Y7018D02*
X30375Y5982D01*
X30375Y7018D02*
X38269Y7018D01*
X38269Y5982D01*
X30375Y5982D01*
X30375Y518D02*
X30375Y-518D01*
X30375Y518D02*
X38269Y518D01*
X38269Y-518D01*
X30375Y-518D01*
X30375Y-5982D02*
X30375Y-7018D01*
X30375Y-5982D02*
X38269Y-5982D01*
X38269Y-7018D01*
X30375Y-7018D01*
X30375Y-12482D02*
X30375Y-13518D01*
X30375Y-12482D02*
X38269Y-12482D01*
X38269Y-13518D01*
X30375Y-13518D01*
X30375Y-18982D02*
X30375Y-20018D01*
X30375Y-18982D02*
X38269Y-18982D01*
X38269Y-20018D01*
X30375Y-20018D01*
X-38269Y-20018D02*
X-38269Y-18982D01*
X-30375Y-18982D01*
X-30375Y-20018D01*
X-38269Y-20018D01*
X-38269Y-13518D02*
X-38269Y-12482D01*
X-30375Y-12482D01*
X-30375Y-13518D01*
X-38269Y-13518D01*
X-38269Y-7018D02*
X-38269Y-5982D01*
X-30375Y-5982D01*
X-30375Y-7018D01*
X-38269Y-7018D01*
X-38269Y-518D02*
X-38269Y518D01*
X-30375Y518D01*
X-30375Y-518D01*
X-38269Y-518D01*
X-38269Y5982D02*
X-38269Y7018D01*
X-30375Y7018D01*
X-30375Y5982D01*
X-38269Y5982D01*
X-38269Y12482D02*
X-38269Y13518D01*
X-30375Y13518D01*
X-30375Y12482D01*
X-38269Y12482D01*
X-38269Y18982D02*
X-38269Y20018D01*
X-30375Y20018D01*
X-30375Y18982D01*
X-38269Y18982D01*
D10*
X-36500Y45500D02*
X-30500Y45500D01*
X-30500Y40500D01*
X-36500Y40500D01*
X-36500Y45500D01*
X-36500Y45250D02*
X-30500Y45250D01*
X-47500Y45500D02*
X-53500Y45500D01*
X-47500Y45500D02*
X-47500Y40500D01*
X-53500Y40500D01*
X-53500Y45500D01*
X-53500Y45250D02*
X-47500Y45250D01*
X29500Y-112500D02*
X29500Y-118500D01*
X24500Y-118500D01*
X24500Y-112500D01*
X29500Y-112500D01*
X29500Y-113750D02*
X24500Y-113750D01*
X29500Y-101500D02*
X29500Y-95500D01*
X29500Y-101500D02*
X24500Y-101500D01*
X24500Y-95500D01*
X29500Y-95500D01*
X29500Y-96750D02*
X24500Y-96750D01*
X-22500Y-115500D02*
X-22500Y-121500D01*
X-27500Y-121500D01*
X-27500Y-115500D01*
X-22500Y-115500D01*
X-22500Y-116750D02*
X-27500Y-116750D01*
X-22500Y-104500D02*
X-22500Y-98500D01*
X-22500Y-104500D02*
X-27500Y-104500D01*
X-27500Y-98500D01*
X-22500Y-98500D01*
X-22500Y-99750D02*
X-27500Y-99750D01*
D15*
X-32904Y-143238D02*
X-32904Y-147862D01*
X-32904Y-143238D02*
X-14564Y-143238D01*
X-14564Y-147862D01*
X-32904Y-147862D01*
X-32904Y-145980D02*
X-14564Y-145980D01*
X-14564Y-144098D02*
X-32904Y-144098D01*
X-32904Y-155938D02*
X-32904Y-160562D01*
X-32904Y-155938D02*
X-14564Y-155938D01*
X-14564Y-160562D01*
X-32904Y-160562D01*
X-32904Y-158680D02*
X-14564Y-158680D01*
X-14564Y-156798D02*
X-32904Y-156798D01*
X-32904Y-168638D02*
X-32904Y-173262D01*
X-32904Y-168638D02*
X-14564Y-168638D01*
X-14564Y-173262D01*
X-32904Y-173262D01*
X-32904Y-171380D02*
X-14564Y-171380D01*
X-14564Y-169498D02*
X-32904Y-169498D01*
X-32904Y-181338D02*
X-32904Y-185962D01*
X-32904Y-181338D02*
X-14564Y-181338D01*
X-14564Y-185962D01*
X-32904Y-185962D01*
X-32904Y-184080D02*
X-14564Y-184080D01*
X-14564Y-182198D02*
X-32904Y-182198D01*
X-32904Y-194038D02*
X-32904Y-198662D01*
X-32904Y-194038D02*
X-14564Y-194038D01*
X-14564Y-198662D01*
X-32904Y-198662D01*
X-32904Y-196780D02*
X-14564Y-196780D01*
X-14564Y-194898D02*
X-32904Y-194898D01*
X-32904Y-206738D02*
X-32904Y-211362D01*
X-32904Y-206738D02*
X-14564Y-206738D01*
X-14564Y-211362D01*
X-32904Y-211362D01*
X-32904Y-209480D02*
X-14564Y-209480D01*
X-14564Y-207598D02*
X-32904Y-207598D01*
X-32904Y-219438D02*
X-32904Y-224062D01*
X-32904Y-219438D02*
X-14564Y-219438D01*
X-14564Y-224062D01*
X-32904Y-224062D01*
X-32904Y-222180D02*
X-14564Y-222180D01*
X-14564Y-220298D02*
X-32904Y-220298D01*
X-32904Y-232138D02*
X-32904Y-236762D01*
X-32904Y-232138D02*
X-14564Y-232138D01*
X-14564Y-236762D01*
X-32904Y-236762D01*
X-32904Y-234880D02*
X-14564Y-234880D01*
X-14564Y-232998D02*
X-32904Y-232998D01*
X28564Y-232138D02*
X28564Y-236762D01*
X28564Y-232138D02*
X46904Y-232138D01*
X46904Y-236762D01*
X28564Y-236762D01*
X28564Y-234880D02*
X46904Y-234880D01*
X46904Y-232998D02*
X28564Y-232998D01*
X28564Y-224062D02*
X28564Y-219438D01*
X46904Y-219438D01*
X46904Y-224062D01*
X28564Y-224062D01*
X28564Y-222180D02*
X46904Y-222180D01*
X46904Y-220298D02*
X28564Y-220298D01*
X28564Y-211362D02*
X28564Y-206738D01*
X46904Y-206738D01*
X46904Y-211362D01*
X28564Y-211362D01*
X28564Y-209480D02*
X46904Y-209480D01*
X46904Y-207598D02*
X28564Y-207598D01*
X28564Y-198662D02*
X28564Y-194038D01*
X46904Y-194038D01*
X46904Y-198662D01*
X28564Y-198662D01*
X28564Y-196780D02*
X46904Y-196780D01*
X46904Y-194898D02*
X28564Y-194898D01*
X28564Y-185962D02*
X28564Y-181338D01*
X46904Y-181338D01*
X46904Y-185962D01*
X28564Y-185962D01*
X28564Y-184080D02*
X46904Y-184080D01*
X46904Y-182198D02*
X28564Y-182198D01*
X28564Y-173262D02*
X28564Y-168638D01*
X46904Y-168638D01*
X46904Y-173262D01*
X28564Y-173262D01*
X28564Y-171380D02*
X46904Y-171380D01*
X46904Y-169498D02*
X28564Y-169498D01*
X28564Y-160562D02*
X28564Y-155938D01*
X46904Y-155938D01*
X46904Y-160562D01*
X28564Y-160562D01*
X28564Y-158680D02*
X46904Y-158680D01*
X46904Y-156798D02*
X28564Y-156798D01*
X28564Y-147862D02*
X28564Y-143238D01*
X46904Y-143238D01*
X46904Y-147862D01*
X28564Y-147862D01*
X28564Y-145980D02*
X46904Y-145980D01*
X46904Y-144098D02*
X28564Y-144098D01*
D10*
X-47500Y-173500D02*
X-47500Y-179500D01*
X-47500Y-173500D02*
X-42500Y-173500D01*
X-42500Y-179500D01*
X-47500Y-179500D01*
X-47500Y-174750D02*
X-42500Y-174750D01*
X-47500Y-190500D02*
X-47500Y-196500D01*
X-47500Y-190500D02*
X-42500Y-190500D01*
X-42500Y-196500D01*
X-47500Y-196500D01*
X-47500Y-191750D02*
X-42500Y-191750D01*
D16*
X74500Y-215000D02*
X82500Y-215000D01*
X74500Y-215000D02*
X74500Y-203000D01*
X82500Y-203000D01*
X82500Y-215000D01*
X82500Y-213100D02*
X74500Y-213100D01*
X74500Y-211200D02*
X82500Y-211200D01*
X82500Y-209300D02*
X74500Y-209300D01*
X74500Y-207400D02*
X82500Y-207400D01*
X82500Y-205500D02*
X74500Y-205500D01*
X74500Y-203600D02*
X82500Y-203600D01*
X93500Y-215000D02*
X101500Y-215000D01*
X93500Y-215000D02*
X93500Y-203000D01*
X101500Y-203000D01*
X101500Y-215000D01*
X101500Y-213100D02*
X93500Y-213100D01*
X93500Y-211200D02*
X101500Y-211200D01*
X101500Y-209300D02*
X93500Y-209300D01*
X93500Y-207400D02*
X101500Y-207400D01*
X101500Y-205500D02*
X93500Y-205500D01*
X93500Y-203600D02*
X101500Y-203600D01*
X92000Y-193000D02*
X84000Y-193000D01*
X84000Y-181000D01*
X92000Y-181000D01*
X92000Y-193000D01*
X92000Y-191100D02*
X84000Y-191100D01*
X84000Y-189200D02*
X92000Y-189200D01*
X92000Y-187300D02*
X84000Y-187300D01*
X84000Y-185400D02*
X92000Y-185400D01*
X92000Y-183500D02*
X84000Y-183500D01*
X84000Y-181600D02*
X92000Y-181600D01*
D10*
X17500Y-248500D02*
X17500Y-254500D01*
X17500Y-248500D02*
X22500Y-248500D01*
X22500Y-254500D01*
X17500Y-254500D01*
X17500Y-249750D02*
X22500Y-249750D01*
X17500Y-265500D02*
X17500Y-271500D01*
X17500Y-265500D02*
X22500Y-265500D01*
X22500Y-271500D01*
X17500Y-271500D01*
X17500Y-266750D02*
X22500Y-266750D01*
X45500Y-265500D02*
X45500Y-271500D01*
X40500Y-271500D01*
X40500Y-265500D01*
X45500Y-265500D01*
X45500Y-266750D02*
X40500Y-266750D01*
X45500Y-254500D02*
X45500Y-248500D01*
X45500Y-254500D02*
X40500Y-254500D01*
X40500Y-248500D01*
X45500Y-248500D01*
X45500Y-249750D02*
X40500Y-249750D01*
X63500Y-220500D02*
X63500Y-214500D01*
X63500Y-220500D02*
X58500Y-220500D01*
X58500Y-214500D01*
X63500Y-214500D01*
X63500Y-215750D02*
X58500Y-215750D01*
X63500Y-203500D02*
X63500Y-197500D01*
X63500Y-203500D02*
X58500Y-203500D01*
X58500Y-197500D01*
X63500Y-197500D01*
X63500Y-198750D02*
X58500Y-198750D01*
D17*
X-5719Y-123445D02*
X-5719Y-116725D01*
X-5719Y-123445D02*
X-7281Y-123445D01*
X-7281Y-116725D01*
X-5719Y-116725D01*
X-5719Y-121557D02*
X-7281Y-121557D01*
X-7281Y-119669D02*
X-5719Y-119669D01*
X-5719Y-117781D02*
X-7281Y-117781D01*
X781Y-116725D02*
X781Y-123445D01*
X-781Y-123445D01*
X-781Y-116725D01*
X781Y-116725D01*
X781Y-121557D02*
X-781Y-121557D01*
X-781Y-119669D02*
X781Y-119669D01*
X781Y-117781D02*
X-781Y-117781D01*
X7281Y-116725D02*
X7281Y-123445D01*
X5719Y-123445D01*
X5719Y-116725D01*
X7281Y-116725D01*
X7281Y-121557D02*
X5719Y-121557D01*
X5719Y-119669D02*
X7281Y-119669D01*
X7281Y-117781D02*
X5719Y-117781D01*
X7281Y-101276D02*
X7281Y-94556D01*
X7281Y-101276D02*
X5719Y-101276D01*
X5719Y-94556D01*
X7281Y-94556D01*
X7281Y-99388D02*
X5719Y-99388D01*
X5719Y-97500D02*
X7281Y-97500D01*
X7281Y-95612D02*
X5719Y-95612D01*
X781Y-94556D02*
X781Y-101276D01*
X-781Y-101276D01*
X-781Y-94556D01*
X781Y-94556D01*
X781Y-99388D02*
X-781Y-99388D01*
X-781Y-97500D02*
X781Y-97500D01*
X781Y-95612D02*
X-781Y-95612D01*
X-5719Y-94556D02*
X-5719Y-101276D01*
X-7281Y-101276D01*
X-7281Y-94556D01*
X-5719Y-94556D01*
X-5719Y-99388D02*
X-7281Y-99388D01*
X-7281Y-97500D02*
X-5719Y-97500D01*
X-5719Y-95612D02*
X-7281Y-95612D01*
M02*
