G04 EAGLE Gerber RS-274X export*
G75*
%MOMM*%
%FSLAX34Y34*%
%LPD*%
%INSoldermask Top*%
%IPPOS*%
%AMOC8*
5,1,8,0,0,1.08239X$1,22.5*%
G01*
%ADD10C,3.100000*%
%ADD11C,0.605000*%
%ADD12C,0.756000*%
%ADD13C,0.300000*%
%ADD14C,0.288000*%
%ADD15C,0.299550*%
%ADD16C,0.296553*%
%ADD17C,0.297000*%
%ADD18C,0.300166*%


D10*
X-75000Y-250000D03*
X75000Y-250000D03*
D11*
X-48525Y-3475D02*
X-48525Y2475D01*
X-48525Y-3475D02*
X-53475Y-3475D01*
X-53475Y2475D01*
X-48525Y2475D01*
X-48525Y2272D02*
X-53475Y2272D01*
X-48525Y13525D02*
X-48525Y19475D01*
X-48525Y13525D02*
X-53475Y13525D01*
X-53475Y19475D01*
X-48525Y19475D01*
X-48525Y19272D02*
X-53475Y19272D01*
D12*
X-94220Y187280D02*
X-94220Y193720D01*
X-85780Y193720D01*
X-85780Y187280D01*
X-94220Y187280D01*
X-94220Y174720D02*
X-94220Y168280D01*
X-94220Y174720D02*
X-85780Y174720D01*
X-85780Y168280D01*
X-94220Y168280D01*
D11*
X-8475Y-250525D02*
X-2525Y-250525D01*
X-2525Y-255475D01*
X-8475Y-255475D01*
X-8475Y-250525D01*
X-19525Y-250525D02*
X-25475Y-250525D01*
X-19525Y-250525D02*
X-19525Y-255475D01*
X-25475Y-255475D01*
X-25475Y-250525D01*
X-21475Y-48475D02*
X-15525Y-48475D01*
X-21475Y-48475D02*
X-21475Y-43525D01*
X-15525Y-43525D01*
X-15525Y-48475D01*
X-4475Y-48475D02*
X1475Y-48475D01*
X-4475Y-48475D02*
X-4475Y-43525D01*
X1475Y-43525D01*
X1475Y-48475D01*
D13*
X90000Y162000D02*
X90000Y174000D01*
X102000Y174000D01*
X102000Y162000D01*
X90000Y162000D01*
X90000Y164850D02*
X102000Y164850D01*
X102000Y167700D02*
X90000Y167700D01*
X90000Y170550D02*
X102000Y170550D01*
X102000Y173400D02*
X90000Y173400D01*
X90000Y200000D02*
X90000Y212000D01*
X102000Y212000D01*
X102000Y200000D01*
X90000Y200000D01*
X90000Y202850D02*
X102000Y202850D01*
X102000Y205700D02*
X90000Y205700D01*
X90000Y208550D02*
X102000Y208550D01*
X102000Y211400D02*
X90000Y211400D01*
D14*
X63710Y176160D02*
X50590Y176160D01*
X63710Y176160D02*
X63710Y148040D01*
X50590Y148040D01*
X50590Y176160D01*
X50590Y150776D02*
X63710Y150776D01*
X63710Y153512D02*
X50590Y153512D01*
X50590Y156248D02*
X63710Y156248D01*
X63710Y158984D02*
X50590Y158984D01*
X50590Y161720D02*
X63710Y161720D01*
X63710Y164456D02*
X50590Y164456D01*
X50590Y167192D02*
X63710Y167192D01*
X63710Y169928D02*
X50590Y169928D01*
X50590Y172664D02*
X63710Y172664D01*
X63710Y175400D02*
X50590Y175400D01*
X51010Y221160D02*
X37890Y221160D01*
X51010Y221160D02*
X51010Y193040D01*
X37890Y193040D01*
X37890Y221160D01*
X37890Y195776D02*
X51010Y195776D01*
X51010Y198512D02*
X37890Y198512D01*
X37890Y201248D02*
X51010Y201248D01*
X51010Y203984D02*
X37890Y203984D01*
X37890Y206720D02*
X51010Y206720D01*
X51010Y209456D02*
X37890Y209456D01*
X37890Y212192D02*
X51010Y212192D01*
X51010Y214928D02*
X37890Y214928D01*
X37890Y217664D02*
X51010Y217664D01*
X51010Y220400D02*
X37890Y220400D01*
X38310Y176160D02*
X25190Y176160D01*
X38310Y176160D02*
X38310Y148040D01*
X25190Y148040D01*
X25190Y176160D01*
X25190Y150776D02*
X38310Y150776D01*
X38310Y153512D02*
X25190Y153512D01*
X25190Y156248D02*
X38310Y156248D01*
X38310Y158984D02*
X25190Y158984D01*
X25190Y161720D02*
X38310Y161720D01*
X38310Y164456D02*
X25190Y164456D01*
X25190Y167192D02*
X38310Y167192D01*
X38310Y169928D02*
X25190Y169928D01*
X25190Y172664D02*
X38310Y172664D01*
X38310Y175400D02*
X25190Y175400D01*
X25610Y221160D02*
X12490Y221160D01*
X25610Y221160D02*
X25610Y193040D01*
X12490Y193040D01*
X12490Y221160D01*
X12490Y195776D02*
X25610Y195776D01*
X25610Y198512D02*
X12490Y198512D01*
X12490Y201248D02*
X25610Y201248D01*
X25610Y203984D02*
X12490Y203984D01*
X12490Y206720D02*
X25610Y206720D01*
X25610Y209456D02*
X12490Y209456D01*
X12490Y212192D02*
X25610Y212192D01*
X25610Y214928D02*
X12490Y214928D01*
X12490Y217664D02*
X25610Y217664D01*
X25610Y220400D02*
X12490Y220400D01*
X12910Y176160D02*
X-210Y176160D01*
X12910Y176160D02*
X12910Y148040D01*
X-210Y148040D01*
X-210Y176160D01*
X-210Y150776D02*
X12910Y150776D01*
X12910Y153512D02*
X-210Y153512D01*
X-210Y156248D02*
X12910Y156248D01*
X12910Y158984D02*
X-210Y158984D01*
X-210Y161720D02*
X12910Y161720D01*
X12910Y164456D02*
X-210Y164456D01*
X-210Y167192D02*
X12910Y167192D01*
X12910Y169928D02*
X-210Y169928D01*
X-210Y172664D02*
X12910Y172664D01*
X12910Y175400D02*
X-210Y175400D01*
X210Y221160D02*
X-12910Y221160D01*
X210Y221160D02*
X210Y193040D01*
X-12910Y193040D01*
X-12910Y221160D01*
X-12910Y195776D02*
X210Y195776D01*
X210Y198512D02*
X-12910Y198512D01*
X-12910Y201248D02*
X210Y201248D01*
X210Y203984D02*
X-12910Y203984D01*
X-12910Y206720D02*
X210Y206720D01*
X210Y209456D02*
X-12910Y209456D01*
X-12910Y212192D02*
X210Y212192D01*
X210Y214928D02*
X-12910Y214928D01*
X-12910Y217664D02*
X210Y217664D01*
X210Y220400D02*
X-12910Y220400D01*
X-12490Y176160D02*
X-25610Y176160D01*
X-12490Y176160D02*
X-12490Y148040D01*
X-25610Y148040D01*
X-25610Y176160D01*
X-25610Y150776D02*
X-12490Y150776D01*
X-12490Y153512D02*
X-25610Y153512D01*
X-25610Y156248D02*
X-12490Y156248D01*
X-12490Y158984D02*
X-25610Y158984D01*
X-25610Y161720D02*
X-12490Y161720D01*
X-12490Y164456D02*
X-25610Y164456D01*
X-25610Y167192D02*
X-12490Y167192D01*
X-12490Y169928D02*
X-25610Y169928D01*
X-25610Y172664D02*
X-12490Y172664D01*
X-12490Y175400D02*
X-25610Y175400D01*
X-25190Y221160D02*
X-38310Y221160D01*
X-25190Y221160D02*
X-25190Y193040D01*
X-38310Y193040D01*
X-38310Y221160D01*
X-38310Y195776D02*
X-25190Y195776D01*
X-25190Y198512D02*
X-38310Y198512D01*
X-38310Y201248D02*
X-25190Y201248D01*
X-25190Y203984D02*
X-38310Y203984D01*
X-38310Y206720D02*
X-25190Y206720D01*
X-25190Y209456D02*
X-38310Y209456D01*
X-38310Y212192D02*
X-25190Y212192D01*
X-25190Y214928D02*
X-38310Y214928D01*
X-38310Y217664D02*
X-25190Y217664D01*
X-25190Y220400D02*
X-38310Y220400D01*
X-37890Y176160D02*
X-51010Y176160D01*
X-37890Y176160D02*
X-37890Y148040D01*
X-51010Y148040D01*
X-51010Y176160D01*
X-51010Y150776D02*
X-37890Y150776D01*
X-37890Y153512D02*
X-51010Y153512D01*
X-51010Y156248D02*
X-37890Y156248D01*
X-37890Y158984D02*
X-51010Y158984D01*
X-51010Y161720D02*
X-37890Y161720D01*
X-37890Y164456D02*
X-51010Y164456D01*
X-51010Y167192D02*
X-37890Y167192D01*
X-37890Y169928D02*
X-51010Y169928D01*
X-51010Y172664D02*
X-37890Y172664D01*
X-37890Y175400D02*
X-51010Y175400D01*
X-50590Y221160D02*
X-63710Y221160D01*
X-50590Y221160D02*
X-50590Y193040D01*
X-63710Y193040D01*
X-63710Y221160D01*
X-63710Y195776D02*
X-50590Y195776D01*
X-50590Y198512D02*
X-63710Y198512D01*
X-63710Y201248D02*
X-50590Y201248D01*
X-50590Y203984D02*
X-63710Y203984D01*
X-63710Y206720D02*
X-50590Y206720D01*
X-50590Y209456D02*
X-63710Y209456D01*
X-63710Y212192D02*
X-50590Y212192D01*
X-50590Y214928D02*
X-63710Y214928D01*
X-63710Y217664D02*
X-50590Y217664D01*
X-50590Y220400D02*
X-63710Y220400D01*
D11*
X-42525Y-149525D02*
X-42525Y-155475D01*
X-47475Y-155475D01*
X-47475Y-149525D01*
X-42525Y-149525D01*
X-42525Y-149728D02*
X-47475Y-149728D01*
X-42525Y-138475D02*
X-42525Y-132525D01*
X-42525Y-138475D02*
X-47475Y-138475D01*
X-47475Y-132525D01*
X-42525Y-132525D01*
X-42525Y-132728D02*
X-47475Y-132728D01*
X-47475Y-213525D02*
X-47475Y-219475D01*
X-47475Y-213525D02*
X-42525Y-213525D01*
X-42525Y-219475D01*
X-47475Y-219475D01*
X-47475Y-213728D02*
X-42525Y-213728D01*
X-47475Y-230525D02*
X-47475Y-236475D01*
X-47475Y-230525D02*
X-42525Y-230525D01*
X-42525Y-236475D01*
X-47475Y-236475D01*
X-47475Y-230728D02*
X-42525Y-230728D01*
D15*
X30367Y18974D02*
X30367Y20026D01*
X38277Y20026D01*
X38277Y18974D01*
X30367Y18974D01*
X30367Y13526D02*
X30367Y12474D01*
X30367Y13526D02*
X38277Y13526D01*
X38277Y12474D01*
X30367Y12474D01*
X30367Y7026D02*
X30367Y5974D01*
X30367Y7026D02*
X38277Y7026D01*
X38277Y5974D01*
X30367Y5974D01*
X30367Y526D02*
X30367Y-526D01*
X30367Y526D02*
X38277Y526D01*
X38277Y-526D01*
X30367Y-526D01*
X30367Y-5974D02*
X30367Y-7026D01*
X30367Y-5974D02*
X38277Y-5974D01*
X38277Y-7026D01*
X30367Y-7026D01*
X30367Y-12474D02*
X30367Y-13526D01*
X30367Y-12474D02*
X38277Y-12474D01*
X38277Y-13526D01*
X30367Y-13526D01*
X30367Y-18974D02*
X30367Y-20026D01*
X30367Y-18974D02*
X38277Y-18974D01*
X38277Y-20026D01*
X30367Y-20026D01*
X-38277Y-20026D02*
X-38277Y-18974D01*
X-30367Y-18974D01*
X-30367Y-20026D01*
X-38277Y-20026D01*
X-38277Y-13526D02*
X-38277Y-12474D01*
X-30367Y-12474D01*
X-30367Y-13526D01*
X-38277Y-13526D01*
X-38277Y-7026D02*
X-38277Y-5974D01*
X-30367Y-5974D01*
X-30367Y-7026D01*
X-38277Y-7026D01*
X-38277Y-526D02*
X-38277Y526D01*
X-30367Y526D01*
X-30367Y-526D01*
X-38277Y-526D01*
X-38277Y5974D02*
X-38277Y7026D01*
X-30367Y7026D01*
X-30367Y5974D01*
X-38277Y5974D01*
X-38277Y12474D02*
X-38277Y13526D01*
X-30367Y13526D01*
X-30367Y12474D01*
X-38277Y12474D01*
X-38277Y18974D02*
X-38277Y20026D01*
X-30367Y20026D01*
X-30367Y18974D01*
X-38277Y18974D01*
D11*
X-36475Y45475D02*
X-30525Y45475D01*
X-30525Y40525D01*
X-36475Y40525D01*
X-36475Y45475D01*
X-47525Y45475D02*
X-53475Y45475D01*
X-47525Y45475D02*
X-47525Y40525D01*
X-53475Y40525D01*
X-53475Y45475D01*
X29475Y-112525D02*
X29475Y-118475D01*
X24525Y-118475D01*
X24525Y-112525D01*
X29475Y-112525D01*
X29475Y-112728D02*
X24525Y-112728D01*
X29475Y-101475D02*
X29475Y-95525D01*
X29475Y-101475D02*
X24525Y-101475D01*
X24525Y-95525D01*
X29475Y-95525D01*
X29475Y-95728D02*
X24525Y-95728D01*
X-22525Y-115525D02*
X-22525Y-121475D01*
X-27475Y-121475D01*
X-27475Y-115525D01*
X-22525Y-115525D01*
X-22525Y-115728D02*
X-27475Y-115728D01*
X-22525Y-104475D02*
X-22525Y-98525D01*
X-22525Y-104475D02*
X-27475Y-104475D01*
X-27475Y-98525D01*
X-22525Y-98525D01*
X-22525Y-98728D02*
X-27475Y-98728D01*
D16*
X-32911Y-143231D02*
X-32911Y-147869D01*
X-32911Y-143231D02*
X-14557Y-143231D01*
X-14557Y-147869D01*
X-32911Y-147869D01*
X-32911Y-145051D02*
X-14557Y-145051D01*
X-32911Y-155931D02*
X-32911Y-160569D01*
X-32911Y-155931D02*
X-14557Y-155931D01*
X-14557Y-160569D01*
X-32911Y-160569D01*
X-32911Y-157751D02*
X-14557Y-157751D01*
X-32911Y-168631D02*
X-32911Y-173269D01*
X-32911Y-168631D02*
X-14557Y-168631D01*
X-14557Y-173269D01*
X-32911Y-173269D01*
X-32911Y-170451D02*
X-14557Y-170451D01*
X-32911Y-181331D02*
X-32911Y-185969D01*
X-32911Y-181331D02*
X-14557Y-181331D01*
X-14557Y-185969D01*
X-32911Y-185969D01*
X-32911Y-183151D02*
X-14557Y-183151D01*
X-32911Y-194031D02*
X-32911Y-198669D01*
X-32911Y-194031D02*
X-14557Y-194031D01*
X-14557Y-198669D01*
X-32911Y-198669D01*
X-32911Y-195851D02*
X-14557Y-195851D01*
X-32911Y-206731D02*
X-32911Y-211369D01*
X-32911Y-206731D02*
X-14557Y-206731D01*
X-14557Y-211369D01*
X-32911Y-211369D01*
X-32911Y-208551D02*
X-14557Y-208551D01*
X-32911Y-219431D02*
X-32911Y-224069D01*
X-32911Y-219431D02*
X-14557Y-219431D01*
X-14557Y-224069D01*
X-32911Y-224069D01*
X-32911Y-221251D02*
X-14557Y-221251D01*
X-32911Y-232131D02*
X-32911Y-236769D01*
X-32911Y-232131D02*
X-14557Y-232131D01*
X-14557Y-236769D01*
X-32911Y-236769D01*
X-32911Y-233951D02*
X-14557Y-233951D01*
X28557Y-232131D02*
X28557Y-236769D01*
X28557Y-232131D02*
X46911Y-232131D01*
X46911Y-236769D01*
X28557Y-236769D01*
X28557Y-233951D02*
X46911Y-233951D01*
X28557Y-224069D02*
X28557Y-219431D01*
X46911Y-219431D01*
X46911Y-224069D01*
X28557Y-224069D01*
X28557Y-221251D02*
X46911Y-221251D01*
X28557Y-211369D02*
X28557Y-206731D01*
X46911Y-206731D01*
X46911Y-211369D01*
X28557Y-211369D01*
X28557Y-208551D02*
X46911Y-208551D01*
X28557Y-198669D02*
X28557Y-194031D01*
X46911Y-194031D01*
X46911Y-198669D01*
X28557Y-198669D01*
X28557Y-195851D02*
X46911Y-195851D01*
X28557Y-185969D02*
X28557Y-181331D01*
X46911Y-181331D01*
X46911Y-185969D01*
X28557Y-185969D01*
X28557Y-183151D02*
X46911Y-183151D01*
X28557Y-173269D02*
X28557Y-168631D01*
X46911Y-168631D01*
X46911Y-173269D01*
X28557Y-173269D01*
X28557Y-170451D02*
X46911Y-170451D01*
X28557Y-160569D02*
X28557Y-155931D01*
X46911Y-155931D01*
X46911Y-160569D01*
X28557Y-160569D01*
X28557Y-157751D02*
X46911Y-157751D01*
X28557Y-147869D02*
X28557Y-143231D01*
X46911Y-143231D01*
X46911Y-147869D01*
X28557Y-147869D01*
X28557Y-145051D02*
X46911Y-145051D01*
D11*
X-47475Y-173525D02*
X-47475Y-179475D01*
X-47475Y-173525D02*
X-42525Y-173525D01*
X-42525Y-179475D01*
X-47475Y-179475D01*
X-47475Y-173728D02*
X-42525Y-173728D01*
X-47475Y-190525D02*
X-47475Y-196475D01*
X-47475Y-190525D02*
X-42525Y-190525D01*
X-42525Y-196475D01*
X-47475Y-196475D01*
X-47475Y-190728D02*
X-42525Y-190728D01*
D17*
X74485Y-215015D02*
X82515Y-215015D01*
X74485Y-215015D02*
X74485Y-202985D01*
X82515Y-202985D01*
X82515Y-215015D01*
X82515Y-212194D02*
X74485Y-212194D01*
X74485Y-209373D02*
X82515Y-209373D01*
X82515Y-206552D02*
X74485Y-206552D01*
X74485Y-203731D02*
X82515Y-203731D01*
X93485Y-215015D02*
X101515Y-215015D01*
X93485Y-215015D02*
X93485Y-202985D01*
X101515Y-202985D01*
X101515Y-215015D01*
X101515Y-212194D02*
X93485Y-212194D01*
X93485Y-209373D02*
X101515Y-209373D01*
X101515Y-206552D02*
X93485Y-206552D01*
X93485Y-203731D02*
X101515Y-203731D01*
X92015Y-193015D02*
X83985Y-193015D01*
X83985Y-180985D01*
X92015Y-180985D01*
X92015Y-193015D01*
X92015Y-190194D02*
X83985Y-190194D01*
X83985Y-187373D02*
X92015Y-187373D01*
X92015Y-184552D02*
X83985Y-184552D01*
X83985Y-181731D02*
X92015Y-181731D01*
D11*
X17525Y-248525D02*
X17525Y-254475D01*
X17525Y-248525D02*
X22475Y-248525D01*
X22475Y-254475D01*
X17525Y-254475D01*
X17525Y-248728D02*
X22475Y-248728D01*
X17525Y-265525D02*
X17525Y-271475D01*
X17525Y-265525D02*
X22475Y-265525D01*
X22475Y-271475D01*
X17525Y-271475D01*
X17525Y-265728D02*
X22475Y-265728D01*
X45475Y-265525D02*
X45475Y-271475D01*
X40525Y-271475D01*
X40525Y-265525D01*
X45475Y-265525D01*
X45475Y-265728D02*
X40525Y-265728D01*
X45475Y-254475D02*
X45475Y-248525D01*
X45475Y-254475D02*
X40525Y-254475D01*
X40525Y-248525D01*
X45475Y-248525D01*
X45475Y-248728D02*
X40525Y-248728D01*
X63475Y-220475D02*
X63475Y-214525D01*
X63475Y-220475D02*
X58525Y-220475D01*
X58525Y-214525D01*
X63475Y-214525D01*
X63475Y-214728D02*
X58525Y-214728D01*
X63475Y-203475D02*
X63475Y-197525D01*
X63475Y-203475D02*
X58525Y-203475D01*
X58525Y-197525D01*
X63475Y-197525D01*
X63475Y-197728D02*
X58525Y-197728D01*
D18*
X-5727Y-123437D02*
X-5727Y-116733D01*
X-5727Y-123437D02*
X-7273Y-123437D01*
X-7273Y-116733D01*
X-5727Y-116733D01*
X-5727Y-120585D02*
X-7273Y-120585D01*
X-7273Y-117733D02*
X-5727Y-117733D01*
X773Y-116733D02*
X773Y-123437D01*
X-773Y-123437D01*
X-773Y-116733D01*
X773Y-116733D01*
X773Y-120585D02*
X-773Y-120585D01*
X-773Y-117733D02*
X773Y-117733D01*
X7273Y-116733D02*
X7273Y-123437D01*
X5727Y-123437D01*
X5727Y-116733D01*
X7273Y-116733D01*
X7273Y-120585D02*
X5727Y-120585D01*
X5727Y-117733D02*
X7273Y-117733D01*
X7273Y-101268D02*
X7273Y-94564D01*
X7273Y-101268D02*
X5727Y-101268D01*
X5727Y-94564D01*
X7273Y-94564D01*
X7273Y-98416D02*
X5727Y-98416D01*
X5727Y-95564D02*
X7273Y-95564D01*
X773Y-94564D02*
X773Y-101268D01*
X-773Y-101268D01*
X-773Y-94564D01*
X773Y-94564D01*
X773Y-98416D02*
X-773Y-98416D01*
X-773Y-95564D02*
X773Y-95564D01*
X-5727Y-94564D02*
X-5727Y-101268D01*
X-7273Y-101268D01*
X-7273Y-94564D01*
X-5727Y-94564D01*
X-5727Y-98416D02*
X-7273Y-98416D01*
X-7273Y-95564D02*
X-5727Y-95564D01*
M02*
