G04 EAGLE Gerber RS-274X export*
G75*
%MOMM*%
%FSLAX34Y34*%
%LPD*%
%INCopper Layer 15*%
%IPPOS*%
%AMOC8*
5,1,8,0,0,1.08239X$1,22.5*%
G01*
%ADD10C,3.000000*%
%ADD11C,1.219200*%
%ADD12C,1.275000*%
%ADD13C,1.500000*%
%ADD14C,0.650000*%
%ADD15C,0.609600*%

G36*
X630996Y-341999D02*
X630996Y-341999D01*
X630999Y-341999D01*
X632189Y-341996D01*
X632239Y-341999D01*
X671999Y-341999D01*
X672012Y-341998D01*
X672044Y-341998D01*
X682227Y-341633D01*
X682243Y-341630D01*
X682362Y-341621D01*
X702519Y-338721D01*
X702529Y-338718D01*
X702539Y-338718D01*
X702696Y-338682D01*
X722236Y-332945D01*
X722246Y-332941D01*
X722256Y-332939D01*
X722406Y-332881D01*
X740931Y-324423D01*
X740940Y-324418D01*
X740949Y-324415D01*
X741090Y-324336D01*
X758224Y-313329D01*
X758232Y-313323D01*
X758241Y-313318D01*
X758369Y-313221D01*
X773763Y-299888D01*
X773770Y-299881D01*
X773778Y-299875D01*
X773891Y-299761D01*
X787233Y-284374D01*
X787239Y-284366D01*
X787246Y-284359D01*
X787342Y-284230D01*
X798359Y-267102D01*
X798364Y-267093D01*
X798370Y-267085D01*
X798446Y-266943D01*
X806916Y-248423D01*
X806921Y-248407D01*
X806966Y-248297D01*
X810189Y-238631D01*
X810192Y-238618D01*
X810203Y-238587D01*
X810207Y-238574D01*
X810208Y-238569D01*
X810211Y-238559D01*
X816740Y-215305D01*
X816742Y-215289D01*
X816753Y-215252D01*
X827801Y-168224D01*
X827803Y-168205D01*
X827816Y-168153D01*
X836153Y-120569D01*
X836154Y-120550D01*
X836163Y-120498D01*
X841763Y-72515D01*
X841763Y-72496D01*
X841769Y-72443D01*
X844612Y-24218D01*
X844611Y-24202D01*
X844614Y-24164D01*
X844999Y-20D01*
X844998Y-8D01*
X844999Y20D01*
X844614Y24164D01*
X844612Y24179D01*
X844612Y24218D01*
X841769Y72443D01*
X841766Y72462D01*
X841763Y72515D01*
X836163Y120497D01*
X836159Y120516D01*
X836153Y120569D01*
X827816Y168153D01*
X827810Y168171D01*
X827801Y168224D01*
X816753Y215252D01*
X816748Y215267D01*
X816740Y215305D01*
X810211Y238560D01*
X810209Y238565D01*
X810206Y238575D01*
X810203Y238588D01*
X810197Y238601D01*
X810189Y238631D01*
X806966Y248297D01*
X806959Y248312D01*
X806916Y248423D01*
X798446Y266943D01*
X798441Y266952D01*
X798438Y266962D01*
X798359Y267102D01*
X787342Y284230D01*
X787335Y284237D01*
X787331Y284246D01*
X787233Y284374D01*
X773891Y299761D01*
X773884Y299767D01*
X773878Y299776D01*
X773763Y299888D01*
X758369Y313221D01*
X758361Y313226D01*
X758354Y313234D01*
X758224Y313329D01*
X741090Y324336D01*
X741081Y324341D01*
X741073Y324347D01*
X740931Y324423D01*
X722406Y332881D01*
X722396Y332884D01*
X722388Y332890D01*
X722236Y332945D01*
X702696Y338682D01*
X702686Y338684D01*
X702677Y338688D01*
X702519Y338721D01*
X682362Y341621D01*
X682346Y341621D01*
X682227Y341633D01*
X672044Y341998D01*
X672031Y341997D01*
X671999Y341999D01*
X621189Y341999D01*
X621168Y341997D01*
X621088Y341995D01*
X612630Y341319D01*
X612620Y341317D01*
X612482Y341298D01*
X595727Y337944D01*
X595709Y337938D01*
X595689Y337936D01*
X595535Y337890D01*
X579511Y331956D01*
X579494Y331947D01*
X579476Y331942D01*
X579331Y331872D01*
X564432Y323505D01*
X564417Y323493D01*
X564399Y323486D01*
X564267Y323394D01*
X550861Y312799D01*
X550854Y312792D01*
X550749Y312699D01*
X545423Y307360D01*
X545418Y307353D01*
X545411Y307347D01*
X545384Y307312D01*
X544625Y306553D01*
X544616Y306541D01*
X544590Y306516D01*
X543965Y305839D01*
X543868Y305781D01*
X543851Y305766D01*
X543842Y305761D01*
X543829Y305748D01*
X543747Y305675D01*
X469103Y231030D01*
X469042Y230952D01*
X468974Y230880D01*
X468945Y230827D01*
X468908Y230779D01*
X468868Y230688D01*
X468820Y230602D01*
X468805Y230543D01*
X468781Y230487D01*
X468766Y230389D01*
X468741Y230294D01*
X468735Y230194D01*
X468731Y230173D01*
X468733Y230161D01*
X468731Y230133D01*
X468731Y5816D01*
X468734Y5786D01*
X468732Y5757D01*
X468754Y5629D01*
X468771Y5500D01*
X468781Y5473D01*
X468787Y5444D01*
X468840Y5325D01*
X468888Y5204D01*
X468905Y5181D01*
X468917Y5154D01*
X468998Y5052D01*
X469074Y4947D01*
X469097Y4928D01*
X469116Y4905D01*
X469219Y4827D01*
X469319Y4744D01*
X469346Y4732D01*
X469370Y4714D01*
X469514Y4643D01*
X471422Y3853D01*
X475853Y-578D01*
X478251Y-6367D01*
X478251Y-12633D01*
X475853Y-18422D01*
X471422Y-22853D01*
X469514Y-23643D01*
X469489Y-23658D01*
X469461Y-23667D01*
X469351Y-23736D01*
X469238Y-23801D01*
X469217Y-23821D01*
X469192Y-23837D01*
X469103Y-23931D01*
X469010Y-24022D01*
X468994Y-24047D01*
X468974Y-24069D01*
X468911Y-24182D01*
X468843Y-24293D01*
X468835Y-24321D01*
X468820Y-24347D01*
X468788Y-24473D01*
X468750Y-24597D01*
X468748Y-24626D01*
X468741Y-24655D01*
X468731Y-24816D01*
X468731Y-230133D01*
X468743Y-230231D01*
X468746Y-230330D01*
X468763Y-230388D01*
X468771Y-230448D01*
X468807Y-230541D01*
X468835Y-230636D01*
X468865Y-230688D01*
X468888Y-230744D01*
X468946Y-230824D01*
X468996Y-230910D01*
X469062Y-230985D01*
X469074Y-231001D01*
X469084Y-231009D01*
X469103Y-231030D01*
X544525Y-306453D01*
X544537Y-306462D01*
X544563Y-306489D01*
X551549Y-312913D01*
X551557Y-312918D01*
X551665Y-313007D01*
X567039Y-324115D01*
X567055Y-324124D01*
X567070Y-324137D01*
X567209Y-324219D01*
X584131Y-332784D01*
X584149Y-332791D01*
X584165Y-332801D01*
X584315Y-332860D01*
X602369Y-338673D01*
X602388Y-338677D01*
X602406Y-338685D01*
X602563Y-338719D01*
X621304Y-341637D01*
X621314Y-341637D01*
X621453Y-341651D01*
X630936Y-341998D01*
X630950Y-341997D01*
X630982Y-341999D01*
X630995Y-341999D01*
X630996Y-341999D01*
G37*
G36*
X240020Y-144996D02*
X240020Y-144996D01*
X240039Y-144998D01*
X240141Y-144976D01*
X240243Y-144960D01*
X240260Y-144950D01*
X240280Y-144946D01*
X240369Y-144893D01*
X240460Y-144844D01*
X240474Y-144830D01*
X240491Y-144820D01*
X240558Y-144741D01*
X240630Y-144666D01*
X240638Y-144648D01*
X240651Y-144633D01*
X240690Y-144537D01*
X240733Y-144443D01*
X240735Y-144423D01*
X240743Y-144405D01*
X240761Y-144238D01*
X240761Y144238D01*
X240758Y144258D01*
X240760Y144277D01*
X240738Y144379D01*
X240721Y144481D01*
X240712Y144498D01*
X240708Y144518D01*
X240655Y144607D01*
X240606Y144698D01*
X240592Y144712D01*
X240582Y144729D01*
X240503Y144796D01*
X240428Y144868D01*
X240410Y144876D01*
X240395Y144889D01*
X240299Y144928D01*
X240205Y144971D01*
X240185Y144973D01*
X240167Y144981D01*
X240000Y144999D01*
X-175000Y144999D01*
X-175013Y144997D01*
X-175033Y144999D01*
X-184118Y144602D01*
X-184149Y144595D01*
X-184217Y144591D01*
X-202111Y141436D01*
X-202141Y141426D01*
X-202239Y141402D01*
X-219313Y135187D01*
X-219341Y135172D01*
X-219434Y135131D01*
X-235169Y126046D01*
X-235193Y126026D01*
X-235278Y125970D01*
X-249197Y114291D01*
X-249217Y114267D01*
X-249291Y114197D01*
X-260970Y100278D01*
X-260986Y100251D01*
X-261046Y100169D01*
X-270131Y84434D01*
X-270142Y84404D01*
X-270187Y84313D01*
X-276402Y67239D01*
X-276407Y67208D01*
X-276436Y67111D01*
X-279591Y49217D01*
X-279591Y49185D01*
X-279602Y49118D01*
X-279999Y40033D01*
X-279997Y40020D01*
X-279999Y40000D01*
X-279999Y-40000D01*
X-279997Y-40013D01*
X-279999Y-40033D01*
X-279602Y-49118D01*
X-279602Y-49120D01*
X-279602Y-49121D01*
X-279595Y-49151D01*
X-279591Y-49217D01*
X-276436Y-67111D01*
X-276426Y-67141D01*
X-276402Y-67239D01*
X-270187Y-84313D01*
X-270172Y-84341D01*
X-270131Y-84434D01*
X-261046Y-100169D01*
X-261026Y-100193D01*
X-260970Y-100278D01*
X-249291Y-114197D01*
X-249267Y-114217D01*
X-249197Y-114291D01*
X-235278Y-125970D01*
X-235251Y-125986D01*
X-235169Y-126046D01*
X-219434Y-135131D01*
X-219404Y-135142D01*
X-219313Y-135187D01*
X-202239Y-141402D01*
X-202208Y-141407D01*
X-202111Y-141436D01*
X-184217Y-144591D01*
X-184185Y-144591D01*
X-184118Y-144602D01*
X-175033Y-144999D01*
X-175020Y-144997D01*
X-175000Y-144999D01*
X240000Y-144999D01*
X240020Y-144996D01*
G37*
%LPC*%
G36*
X-170054Y-136504D02*
X-170054Y-136504D01*
X-170078Y-136505D01*
X-170121Y-136501D01*
X-170943Y-136501D01*
X-171006Y-136489D01*
X-171083Y-136466D01*
X-171127Y-136467D01*
X-171170Y-136459D01*
X-171249Y-136470D01*
X-171328Y-136472D01*
X-171370Y-136487D01*
X-171413Y-136493D01*
X-171432Y-136501D01*
X-172021Y-136343D01*
X-172052Y-136340D01*
X-172151Y-136320D01*
X-172740Y-136269D01*
X-172746Y-136261D01*
X-172823Y-136204D01*
X-172896Y-136141D01*
X-172907Y-136136D01*
X-172915Y-136130D01*
X-172929Y-136125D01*
X-172943Y-136114D01*
X-173100Y-136054D01*
X-173101Y-136054D01*
X-173113Y-136053D01*
X-173124Y-136048D01*
X-173135Y-136048D01*
X-173145Y-136044D01*
X-173246Y-136040D01*
X-173346Y-136031D01*
X-173359Y-136034D01*
X-173369Y-136033D01*
X-173378Y-136036D01*
X-173391Y-136035D01*
X-173508Y-136064D01*
X-174047Y-135812D01*
X-174077Y-135804D01*
X-174171Y-135767D01*
X-174742Y-135614D01*
X-174744Y-135609D01*
X-174811Y-135537D01*
X-174873Y-135461D01*
X-174884Y-135454D01*
X-174890Y-135447D01*
X-174902Y-135440D01*
X-174912Y-135429D01*
X-175056Y-135342D01*
X-175057Y-135341D01*
X-175070Y-135338D01*
X-175081Y-135330D01*
X-175092Y-135328D01*
X-175102Y-135322D01*
X-175199Y-135302D01*
X-175294Y-135275D01*
X-175309Y-135276D01*
X-175321Y-135273D01*
X-175330Y-135274D01*
X-175343Y-135271D01*
X-175463Y-135279D01*
X-175950Y-134938D01*
X-175978Y-134924D01*
X-176065Y-134871D01*
X-176601Y-134621D01*
X-176604Y-134609D01*
X-176656Y-134531D01*
X-176703Y-134448D01*
X-176712Y-134440D01*
X-176717Y-134431D01*
X-176730Y-134421D01*
X-176741Y-134404D01*
X-176868Y-134295D01*
X-176869Y-134294D01*
X-176878Y-134290D01*
X-176885Y-134283D01*
X-176895Y-134279D01*
X-176904Y-134272D01*
X-176999Y-134233D01*
X-177092Y-134190D01*
X-177103Y-134189D01*
X-177111Y-134185D01*
X-177120Y-134185D01*
X-177132Y-134180D01*
X-177251Y-134166D01*
X-177672Y-133746D01*
X-177697Y-133728D01*
X-177773Y-133661D01*
X-178257Y-133322D01*
X-178257Y-133317D01*
X-178296Y-133226D01*
X-178328Y-133133D01*
X-178336Y-133123D01*
X-178339Y-133114D01*
X-178348Y-133104D01*
X-178354Y-133090D01*
X-178458Y-132959D01*
X-178459Y-132958D01*
X-178471Y-132950D01*
X-178479Y-132939D01*
X-178489Y-132933D01*
X-178496Y-132924D01*
X-178579Y-132872D01*
X-178659Y-132815D01*
X-178674Y-132810D01*
X-178684Y-132803D01*
X-178694Y-132801D01*
X-178705Y-132794D01*
X-178820Y-132760D01*
X-179161Y-132273D01*
X-179183Y-132251D01*
X-179246Y-132172D01*
X-179664Y-131754D01*
X-179663Y-131748D01*
X-179685Y-131652D01*
X-179701Y-131556D01*
X-179707Y-131545D01*
X-179709Y-131535D01*
X-179715Y-131524D01*
X-179719Y-131508D01*
X-179800Y-131361D01*
X-179800Y-131360D01*
X-179810Y-131350D01*
X-179816Y-131339D01*
X-179824Y-131331D01*
X-179830Y-131321D01*
X-179903Y-131255D01*
X-179972Y-131184D01*
X-179986Y-131177D01*
X-179994Y-131169D01*
X-180003Y-131165D01*
X-180013Y-131157D01*
X-180120Y-131103D01*
X-180371Y-130565D01*
X-180389Y-130539D01*
X-180438Y-130450D01*
X-180776Y-129966D01*
X-180775Y-129962D01*
X-180780Y-129863D01*
X-180779Y-129764D01*
X-180783Y-129752D01*
X-180783Y-129742D01*
X-180787Y-129731D01*
X-180788Y-129716D01*
X-180841Y-129557D01*
X-180842Y-129556D01*
X-180850Y-129544D01*
X-180854Y-129530D01*
X-180861Y-129521D01*
X-180865Y-129510D01*
X-180925Y-129433D01*
X-180980Y-129352D01*
X-180993Y-129343D01*
X-181001Y-129332D01*
X-181008Y-129327D01*
X-181016Y-129317D01*
X-181113Y-129246D01*
X-181267Y-128671D01*
X-181280Y-128643D01*
X-181312Y-128547D01*
X-181563Y-128010D01*
X-181556Y-127995D01*
X-181546Y-127903D01*
X-181529Y-127813D01*
X-181531Y-127800D01*
X-181529Y-127790D01*
X-181532Y-127772D01*
X-181530Y-127750D01*
X-181558Y-127585D01*
X-181559Y-127583D01*
X-181562Y-127576D01*
X-181563Y-127569D01*
X-181568Y-127559D01*
X-181570Y-127548D01*
X-181619Y-127456D01*
X-181663Y-127361D01*
X-181670Y-127354D01*
X-181673Y-127349D01*
X-181679Y-127342D01*
X-181685Y-127331D01*
X-181768Y-127244D01*
X-181820Y-126651D01*
X-181828Y-126621D01*
X-181843Y-126521D01*
X-182004Y-125921D01*
X-182002Y-125912D01*
X-181973Y-125837D01*
X-181972Y-125793D01*
X-181961Y-125751D01*
X-181967Y-125671D01*
X-181964Y-125591D01*
X-181977Y-125549D01*
X-181980Y-125505D01*
X-182001Y-125457D01*
X-182001Y-124621D01*
X-182005Y-124597D01*
X-182004Y-124554D01*
X-182070Y-123800D01*
X-182053Y-123773D01*
X-182041Y-123716D01*
X-182019Y-123661D01*
X-182008Y-123563D01*
X-182002Y-123532D01*
X-182003Y-123518D01*
X-182001Y-123495D01*
X-182001Y134034D01*
X-182009Y134082D01*
X-182007Y134131D01*
X-182028Y134202D01*
X-182040Y134276D01*
X-182063Y134320D01*
X-182077Y134366D01*
X-182084Y134376D01*
X-182006Y135070D01*
X-182007Y135099D01*
X-182001Y135155D01*
X-182001Y135742D01*
X-182015Y135828D01*
X-182020Y135915D01*
X-182036Y135960D01*
X-182040Y135982D01*
X-181866Y136480D01*
X-181866Y136481D01*
X-181865Y136482D01*
X-181828Y136646D01*
X-181756Y137282D01*
X-181714Y137362D01*
X-181710Y137390D01*
X-181699Y137415D01*
X-181696Y137442D01*
X-181365Y137970D01*
X-181364Y137971D01*
X-181363Y137973D01*
X-181291Y138124D01*
X-181079Y138728D01*
X-181020Y138797D01*
X-181010Y138823D01*
X-180993Y138845D01*
X-180985Y138871D01*
X-180544Y139312D01*
X-180543Y139313D01*
X-180542Y139314D01*
X-180438Y139445D01*
X-180097Y139987D01*
X-180024Y140042D01*
X-180009Y140064D01*
X-179988Y140082D01*
X-179974Y140106D01*
X-179445Y140438D01*
X-179444Y140439D01*
X-179443Y140439D01*
X-179312Y140544D01*
X-178859Y140997D01*
X-178777Y141033D01*
X-178756Y141052D01*
X-178732Y141065D01*
X-178713Y141084D01*
X-178124Y141291D01*
X-178123Y141291D01*
X-178121Y141291D01*
X-177970Y141365D01*
X-177428Y141705D01*
X-177339Y141722D01*
X-177315Y141736D01*
X-177289Y141743D01*
X-177266Y141758D01*
X-176646Y141828D01*
X-176645Y141828D01*
X-176643Y141828D01*
X-176480Y141866D01*
X-175971Y142044D01*
X-175909Y142019D01*
X-175862Y142014D01*
X-175837Y142007D01*
X-175806Y142008D01*
X-175742Y142001D01*
X-175155Y142001D01*
X-175127Y142005D01*
X-175070Y142006D01*
X-174364Y142085D01*
X-174359Y142083D01*
X-174294Y142047D01*
X-174246Y142037D01*
X-174200Y142019D01*
X-174075Y142005D01*
X-174052Y142001D01*
X-174045Y142002D01*
X-174034Y142001D01*
X-143466Y142001D01*
X-143418Y142009D01*
X-143369Y142007D01*
X-143298Y142028D01*
X-143224Y142040D01*
X-143180Y142063D01*
X-143134Y142077D01*
X-143124Y142084D01*
X-142430Y142006D01*
X-142401Y142007D01*
X-142345Y142001D01*
X-141758Y142001D01*
X-141672Y142015D01*
X-141585Y142020D01*
X-141540Y142036D01*
X-141518Y142040D01*
X-141020Y141866D01*
X-141019Y141866D01*
X-141018Y141865D01*
X-140854Y141828D01*
X-140218Y141756D01*
X-140138Y141714D01*
X-140110Y141710D01*
X-140085Y141699D01*
X-140058Y141696D01*
X-139530Y141365D01*
X-139528Y141364D01*
X-139527Y141363D01*
X-139376Y141291D01*
X-138772Y141079D01*
X-138703Y141020D01*
X-138677Y141010D01*
X-138655Y140993D01*
X-138629Y140985D01*
X-138188Y140544D01*
X-138187Y140543D01*
X-138186Y140542D01*
X-138055Y140438D01*
X-137513Y140097D01*
X-137458Y140024D01*
X-137436Y140009D01*
X-137418Y139988D01*
X-137394Y139974D01*
X-137062Y139445D01*
X-137061Y139444D01*
X-137061Y139443D01*
X-136956Y139312D01*
X-136503Y138859D01*
X-136467Y138777D01*
X-136448Y138756D01*
X-136435Y138732D01*
X-136416Y138713D01*
X-136209Y138124D01*
X-136209Y138123D01*
X-136209Y138121D01*
X-136135Y137970D01*
X-135795Y137428D01*
X-135778Y137339D01*
X-135764Y137315D01*
X-135757Y137289D01*
X-135742Y137266D01*
X-135672Y136646D01*
X-135672Y136645D01*
X-135672Y136643D01*
X-135634Y136480D01*
X-135456Y135971D01*
X-135481Y135909D01*
X-135486Y135862D01*
X-135493Y135837D01*
X-135492Y135806D01*
X-135499Y135742D01*
X-135499Y135155D01*
X-135495Y135127D01*
X-135495Y135119D01*
X-135497Y135101D01*
X-135495Y135092D01*
X-135494Y135070D01*
X-135415Y134364D01*
X-135417Y134359D01*
X-135453Y134294D01*
X-135463Y134246D01*
X-135481Y134200D01*
X-135495Y134075D01*
X-135499Y134052D01*
X-135498Y134045D01*
X-135499Y134034D01*
X-135499Y120966D01*
X-135491Y120918D01*
X-135493Y120869D01*
X-135472Y120798D01*
X-135460Y120724D01*
X-135437Y120680D01*
X-135423Y120634D01*
X-135416Y120624D01*
X-135494Y119930D01*
X-135493Y119901D01*
X-135499Y119845D01*
X-135499Y119258D01*
X-135485Y119172D01*
X-135480Y119085D01*
X-135464Y119040D01*
X-135460Y119018D01*
X-135634Y118520D01*
X-135634Y118519D01*
X-135635Y118518D01*
X-135672Y118354D01*
X-135744Y117718D01*
X-135786Y117638D01*
X-135790Y117610D01*
X-135801Y117585D01*
X-135804Y117558D01*
X-136135Y117030D01*
X-136136Y117028D01*
X-136137Y117027D01*
X-136209Y116876D01*
X-136421Y116272D01*
X-136480Y116203D01*
X-136490Y116177D01*
X-136507Y116155D01*
X-136515Y116129D01*
X-136956Y115688D01*
X-136957Y115687D01*
X-136958Y115686D01*
X-137062Y115555D01*
X-137403Y115013D01*
X-137476Y114958D01*
X-137491Y114936D01*
X-137512Y114918D01*
X-137526Y114894D01*
X-138055Y114562D01*
X-138056Y114561D01*
X-138057Y114561D01*
X-138188Y114456D01*
X-138641Y114003D01*
X-138723Y113967D01*
X-138744Y113948D01*
X-138768Y113935D01*
X-138787Y113916D01*
X-139376Y113709D01*
X-139377Y113709D01*
X-139379Y113709D01*
X-139530Y113635D01*
X-140072Y113295D01*
X-140161Y113278D01*
X-140185Y113264D01*
X-140211Y113257D01*
X-140234Y113242D01*
X-140854Y113172D01*
X-140855Y113172D01*
X-140857Y113172D01*
X-141020Y113134D01*
X-141529Y112956D01*
X-141591Y112981D01*
X-141638Y112986D01*
X-141663Y112993D01*
X-141694Y112992D01*
X-141758Y112999D01*
X-142345Y112999D01*
X-142373Y112995D01*
X-142430Y112994D01*
X-143136Y112915D01*
X-143141Y112917D01*
X-143206Y112953D01*
X-143254Y112963D01*
X-143300Y112981D01*
X-143425Y112995D01*
X-143448Y112999D01*
X-143455Y112998D01*
X-143466Y112999D01*
X-144845Y112999D01*
X-144873Y112995D01*
X-144930Y112994D01*
X-145579Y112921D01*
X-145581Y112921D01*
X-145582Y112921D01*
X-145746Y112883D01*
X-146215Y112719D01*
X-146216Y112718D01*
X-146218Y112718D01*
X-146369Y112645D01*
X-146790Y112381D01*
X-146791Y112380D01*
X-146792Y112379D01*
X-146923Y112274D01*
X-147274Y111923D01*
X-147275Y111922D01*
X-147276Y111921D01*
X-147381Y111790D01*
X-147645Y111369D01*
X-147646Y111367D01*
X-147647Y111366D01*
X-147719Y111215D01*
X-147883Y110746D01*
X-147884Y110744D01*
X-147884Y110743D01*
X-147921Y110579D01*
X-147994Y109930D01*
X-147993Y109901D01*
X-147999Y109845D01*
X-147999Y97155D01*
X-147995Y97127D01*
X-147994Y97070D01*
X-147921Y96421D01*
X-147921Y96419D01*
X-147921Y96418D01*
X-147883Y96254D01*
X-147719Y95785D01*
X-147718Y95784D01*
X-147718Y95782D01*
X-147645Y95631D01*
X-147381Y95210D01*
X-147380Y95209D01*
X-147379Y95208D01*
X-147274Y95077D01*
X-146923Y94726D01*
X-146922Y94725D01*
X-146921Y94724D01*
X-146790Y94619D01*
X-146369Y94355D01*
X-146367Y94354D01*
X-146366Y94353D01*
X-146215Y94281D01*
X-145746Y94117D01*
X-145744Y94116D01*
X-145743Y94116D01*
X-145579Y94079D01*
X-144930Y94006D01*
X-144901Y94007D01*
X-144845Y94001D01*
X-119834Y94001D01*
X-119763Y94012D01*
X-119691Y94014D01*
X-119642Y94032D01*
X-119591Y94040D01*
X-119528Y94074D01*
X-119460Y94099D01*
X-119420Y94131D01*
X-119373Y94156D01*
X-119324Y94208D01*
X-119268Y94252D01*
X-119240Y94296D01*
X-119204Y94334D01*
X-119174Y94399D01*
X-119135Y94459D01*
X-119122Y94510D01*
X-119100Y94557D01*
X-119093Y94628D01*
X-119075Y94698D01*
X-119079Y94750D01*
X-119073Y94801D01*
X-119089Y94872D01*
X-119094Y94943D01*
X-119115Y94991D01*
X-119126Y95042D01*
X-119162Y95103D01*
X-119191Y95169D01*
X-119235Y95225D01*
X-119252Y95253D01*
X-119270Y95268D01*
X-119295Y95300D01*
X-121551Y97555D01*
X-122826Y100634D01*
X-122826Y103966D01*
X-121551Y107045D01*
X-119195Y109401D01*
X-116116Y110676D01*
X-112784Y110676D01*
X-109705Y109401D01*
X-107349Y107045D01*
X-106074Y103966D01*
X-106074Y100634D01*
X-107349Y97555D01*
X-109605Y95300D01*
X-109647Y95242D01*
X-109696Y95190D01*
X-109718Y95143D01*
X-109748Y95101D01*
X-109769Y95032D01*
X-109800Y94967D01*
X-109805Y94915D01*
X-109821Y94865D01*
X-109819Y94794D01*
X-109827Y94723D01*
X-109816Y94672D01*
X-109814Y94620D01*
X-109790Y94552D01*
X-109774Y94482D01*
X-109748Y94437D01*
X-109730Y94389D01*
X-109685Y94333D01*
X-109648Y94271D01*
X-109609Y94237D01*
X-109576Y94197D01*
X-109516Y94158D01*
X-109461Y94111D01*
X-109413Y94092D01*
X-109369Y94064D01*
X-109300Y94046D01*
X-109233Y94019D01*
X-109162Y94011D01*
X-109131Y94003D01*
X-109107Y94005D01*
X-109066Y94001D01*
X-94434Y94001D01*
X-94363Y94012D01*
X-94291Y94014D01*
X-94242Y94032D01*
X-94191Y94040D01*
X-94128Y94074D01*
X-94060Y94099D01*
X-94020Y94131D01*
X-93973Y94156D01*
X-93924Y94208D01*
X-93868Y94252D01*
X-93840Y94296D01*
X-93804Y94334D01*
X-93774Y94399D01*
X-93735Y94459D01*
X-93722Y94510D01*
X-93700Y94557D01*
X-93693Y94628D01*
X-93675Y94698D01*
X-93679Y94750D01*
X-93673Y94801D01*
X-93689Y94872D01*
X-93694Y94943D01*
X-93715Y94991D01*
X-93726Y95042D01*
X-93762Y95103D01*
X-93791Y95169D01*
X-93835Y95225D01*
X-93852Y95253D01*
X-93870Y95268D01*
X-93895Y95300D01*
X-96151Y97555D01*
X-97426Y100634D01*
X-97426Y103966D01*
X-96151Y107045D01*
X-93795Y109401D01*
X-90716Y110676D01*
X-87384Y110676D01*
X-84305Y109401D01*
X-81949Y107045D01*
X-80674Y103966D01*
X-80674Y100634D01*
X-81949Y97555D01*
X-84205Y95300D01*
X-84247Y95242D01*
X-84296Y95190D01*
X-84318Y95143D01*
X-84348Y95101D01*
X-84369Y95032D01*
X-84400Y94967D01*
X-84405Y94915D01*
X-84421Y94865D01*
X-84419Y94794D01*
X-84427Y94723D01*
X-84416Y94672D01*
X-84414Y94620D01*
X-84390Y94552D01*
X-84374Y94482D01*
X-84348Y94437D01*
X-84330Y94389D01*
X-84285Y94333D01*
X-84248Y94271D01*
X-84209Y94237D01*
X-84176Y94197D01*
X-84116Y94158D01*
X-84061Y94111D01*
X-84013Y94092D01*
X-83969Y94064D01*
X-83900Y94046D01*
X-83833Y94019D01*
X-83762Y94011D01*
X-83731Y94003D01*
X-83707Y94005D01*
X-83666Y94001D01*
X-69034Y94001D01*
X-68963Y94012D01*
X-68891Y94014D01*
X-68842Y94032D01*
X-68791Y94040D01*
X-68728Y94074D01*
X-68660Y94099D01*
X-68620Y94131D01*
X-68573Y94156D01*
X-68524Y94208D01*
X-68468Y94252D01*
X-68440Y94296D01*
X-68404Y94334D01*
X-68374Y94399D01*
X-68335Y94459D01*
X-68322Y94510D01*
X-68300Y94557D01*
X-68293Y94628D01*
X-68275Y94698D01*
X-68279Y94750D01*
X-68273Y94801D01*
X-68289Y94872D01*
X-68294Y94943D01*
X-68315Y94991D01*
X-68326Y95042D01*
X-68362Y95103D01*
X-68391Y95169D01*
X-68435Y95225D01*
X-68452Y95253D01*
X-68470Y95268D01*
X-68495Y95300D01*
X-70751Y97555D01*
X-72026Y100634D01*
X-72026Y103966D01*
X-70751Y107045D01*
X-68395Y109401D01*
X-65316Y110676D01*
X-61984Y110676D01*
X-58905Y109401D01*
X-56549Y107045D01*
X-55274Y103966D01*
X-55274Y100634D01*
X-56549Y97555D01*
X-58805Y95300D01*
X-58847Y95242D01*
X-58896Y95190D01*
X-58918Y95143D01*
X-58948Y95101D01*
X-58969Y95032D01*
X-59000Y94967D01*
X-59005Y94915D01*
X-59021Y94865D01*
X-59019Y94794D01*
X-59027Y94723D01*
X-59016Y94672D01*
X-59014Y94620D01*
X-58990Y94552D01*
X-58974Y94482D01*
X-58948Y94437D01*
X-58930Y94389D01*
X-58885Y94333D01*
X-58848Y94271D01*
X-58809Y94237D01*
X-58776Y94197D01*
X-58716Y94158D01*
X-58661Y94111D01*
X-58613Y94092D01*
X-58569Y94064D01*
X-58500Y94046D01*
X-58433Y94019D01*
X-58362Y94011D01*
X-58331Y94003D01*
X-58307Y94005D01*
X-58266Y94001D01*
X-43634Y94001D01*
X-43563Y94012D01*
X-43491Y94014D01*
X-43442Y94032D01*
X-43391Y94040D01*
X-43328Y94074D01*
X-43260Y94099D01*
X-43220Y94131D01*
X-43173Y94156D01*
X-43124Y94208D01*
X-43068Y94252D01*
X-43040Y94296D01*
X-43004Y94334D01*
X-42974Y94399D01*
X-42935Y94459D01*
X-42922Y94510D01*
X-42900Y94557D01*
X-42893Y94628D01*
X-42875Y94698D01*
X-42879Y94750D01*
X-42873Y94801D01*
X-42889Y94872D01*
X-42894Y94943D01*
X-42915Y94991D01*
X-42926Y95042D01*
X-42962Y95103D01*
X-42991Y95169D01*
X-43035Y95225D01*
X-43052Y95253D01*
X-43070Y95268D01*
X-43095Y95300D01*
X-45351Y97555D01*
X-46626Y100634D01*
X-46626Y103966D01*
X-45351Y107045D01*
X-42995Y109401D01*
X-39916Y110676D01*
X-36584Y110676D01*
X-33505Y109401D01*
X-31149Y107045D01*
X-29874Y103966D01*
X-29874Y100634D01*
X-31149Y97555D01*
X-33405Y95300D01*
X-33447Y95242D01*
X-33496Y95190D01*
X-33518Y95143D01*
X-33548Y95101D01*
X-33569Y95032D01*
X-33600Y94967D01*
X-33605Y94915D01*
X-33621Y94865D01*
X-33619Y94794D01*
X-33627Y94723D01*
X-33616Y94672D01*
X-33614Y94620D01*
X-33590Y94552D01*
X-33574Y94482D01*
X-33548Y94437D01*
X-33530Y94389D01*
X-33485Y94333D01*
X-33448Y94271D01*
X-33409Y94237D01*
X-33376Y94197D01*
X-33316Y94158D01*
X-33261Y94111D01*
X-33213Y94092D01*
X-33169Y94064D01*
X-33100Y94046D01*
X-33033Y94019D01*
X-32962Y94011D01*
X-32931Y94003D01*
X-32907Y94005D01*
X-32866Y94001D01*
X-10136Y94001D01*
X-10110Y94005D01*
X-10061Y94004D01*
X-9004Y94109D01*
X-8980Y94115D01*
X-8857Y94138D01*
X-7971Y94407D01*
X-7949Y94417D01*
X-7833Y94464D01*
X-7016Y94900D01*
X-6997Y94915D01*
X-6892Y94983D01*
X-6176Y95571D01*
X-6160Y95589D01*
X-6071Y95676D01*
X-5483Y96392D01*
X-5471Y96413D01*
X-5400Y96516D01*
X-4964Y97333D01*
X-4956Y97356D01*
X-4907Y97471D01*
X-4638Y98357D01*
X-4635Y98381D01*
X-4632Y98393D01*
X-4631Y98396D01*
X-4630Y98402D01*
X-4609Y98504D01*
X-4504Y99561D01*
X-4506Y99587D01*
X-4501Y99636D01*
X-4501Y109034D01*
X-4509Y109082D01*
X-4507Y109131D01*
X-4528Y109202D01*
X-4540Y109276D01*
X-4563Y109320D01*
X-4577Y109366D01*
X-4584Y109376D01*
X-4506Y110070D01*
X-4507Y110099D01*
X-4501Y110155D01*
X-4501Y110742D01*
X-4515Y110828D01*
X-4520Y110915D01*
X-4536Y110960D01*
X-4540Y110982D01*
X-4366Y111480D01*
X-4366Y111481D01*
X-4365Y111482D01*
X-4328Y111646D01*
X-4256Y112282D01*
X-4214Y112362D01*
X-4210Y112390D01*
X-4199Y112415D01*
X-4196Y112442D01*
X-3865Y112970D01*
X-3864Y112972D01*
X-3863Y112973D01*
X-3791Y113124D01*
X-3579Y113728D01*
X-3520Y113797D01*
X-3510Y113823D01*
X-3493Y113845D01*
X-3485Y113871D01*
X-3044Y114312D01*
X-3043Y114313D01*
X-3042Y114314D01*
X-2938Y114445D01*
X-2597Y114987D01*
X-2524Y115042D01*
X-2509Y115064D01*
X-2488Y115082D01*
X-2474Y115106D01*
X-1945Y115438D01*
X-1944Y115439D01*
X-1943Y115439D01*
X-1863Y115503D01*
X-1862Y115504D01*
X-1812Y115544D01*
X-1359Y115997D01*
X-1277Y116033D01*
X-1256Y116052D01*
X-1232Y116065D01*
X-1213Y116084D01*
X-624Y116291D01*
X-623Y116291D01*
X-621Y116291D01*
X-470Y116365D01*
X72Y116705D01*
X161Y116722D01*
X185Y116736D01*
X211Y116743D01*
X234Y116758D01*
X854Y116828D01*
X855Y116828D01*
X857Y116828D01*
X1020Y116866D01*
X1529Y117044D01*
X1591Y117019D01*
X1638Y117014D01*
X1663Y117007D01*
X1694Y117008D01*
X1758Y117001D01*
X2345Y117001D01*
X2373Y117005D01*
X2430Y117006D01*
X3136Y117085D01*
X3141Y117083D01*
X3206Y117047D01*
X3254Y117037D01*
X3300Y117019D01*
X3425Y117005D01*
X3448Y117001D01*
X3455Y117002D01*
X3466Y117001D01*
X4845Y117001D01*
X4873Y117005D01*
X4930Y117006D01*
X5579Y117079D01*
X5581Y117079D01*
X5582Y117079D01*
X5746Y117117D01*
X6215Y117281D01*
X6216Y117282D01*
X6218Y117282D01*
X6369Y117355D01*
X6790Y117619D01*
X6791Y117620D01*
X6792Y117621D01*
X6923Y117726D01*
X7274Y118077D01*
X7275Y118078D01*
X7276Y118079D01*
X7381Y118210D01*
X7645Y118631D01*
X7646Y118633D01*
X7647Y118634D01*
X7719Y118785D01*
X7883Y119254D01*
X7884Y119256D01*
X7884Y119257D01*
X7921Y119421D01*
X7994Y120070D01*
X7993Y120099D01*
X7999Y120155D01*
X7999Y134034D01*
X7991Y134082D01*
X7993Y134131D01*
X7972Y134202D01*
X7960Y134276D01*
X7937Y134320D01*
X7923Y134366D01*
X7916Y134376D01*
X7994Y135070D01*
X7993Y135099D01*
X7999Y135155D01*
X7999Y135742D01*
X7985Y135828D01*
X7980Y135915D01*
X7964Y135960D01*
X7960Y135982D01*
X8134Y136480D01*
X8134Y136481D01*
X8135Y136482D01*
X8172Y136646D01*
X8244Y137282D01*
X8286Y137362D01*
X8290Y137389D01*
X8301Y137415D01*
X8304Y137442D01*
X8635Y137970D01*
X8636Y137971D01*
X8637Y137973D01*
X8709Y138124D01*
X8921Y138728D01*
X8980Y138797D01*
X8990Y138823D01*
X9007Y138845D01*
X9015Y138871D01*
X9456Y139312D01*
X9457Y139313D01*
X9458Y139314D01*
X9562Y139445D01*
X9903Y139987D01*
X9976Y140042D01*
X9992Y140064D01*
X10012Y140082D01*
X10026Y140106D01*
X10555Y140438D01*
X10556Y140439D01*
X10557Y140439D01*
X10688Y140544D01*
X11141Y140997D01*
X11223Y141033D01*
X11244Y141052D01*
X11268Y141065D01*
X11287Y141084D01*
X11876Y141291D01*
X11877Y141291D01*
X11879Y141291D01*
X12030Y141365D01*
X12572Y141705D01*
X12661Y141722D01*
X12685Y141736D01*
X12711Y141743D01*
X12734Y141758D01*
X13354Y141828D01*
X13355Y141828D01*
X13357Y141828D01*
X13520Y141866D01*
X14029Y142044D01*
X14091Y142019D01*
X14138Y142014D01*
X14163Y142007D01*
X14194Y142008D01*
X14258Y142001D01*
X14845Y142001D01*
X14873Y142005D01*
X14930Y142006D01*
X15636Y142085D01*
X15641Y142083D01*
X15706Y142047D01*
X15754Y142037D01*
X15800Y142019D01*
X15925Y142005D01*
X15948Y142001D01*
X15955Y142002D01*
X15966Y142001D01*
X34034Y142001D01*
X34082Y142009D01*
X34131Y142007D01*
X34202Y142028D01*
X34276Y142040D01*
X34320Y142063D01*
X34366Y142077D01*
X34376Y142084D01*
X35070Y142006D01*
X35099Y142007D01*
X35155Y142001D01*
X35742Y142001D01*
X35828Y142015D01*
X35915Y142020D01*
X35960Y142036D01*
X35982Y142040D01*
X36480Y141866D01*
X36481Y141866D01*
X36482Y141865D01*
X36646Y141828D01*
X37282Y141756D01*
X37362Y141714D01*
X37390Y141710D01*
X37415Y141699D01*
X37442Y141696D01*
X37970Y141365D01*
X37972Y141364D01*
X37973Y141363D01*
X38124Y141291D01*
X38728Y141079D01*
X38797Y141020D01*
X38823Y141010D01*
X38845Y140993D01*
X38871Y140985D01*
X39312Y140544D01*
X39313Y140543D01*
X39314Y140542D01*
X39445Y140438D01*
X39987Y140097D01*
X40042Y140024D01*
X40064Y140009D01*
X40082Y139988D01*
X40106Y139974D01*
X40438Y139445D01*
X40439Y139444D01*
X40439Y139443D01*
X40544Y139312D01*
X40997Y138859D01*
X41033Y138777D01*
X41052Y138756D01*
X41065Y138732D01*
X41084Y138713D01*
X41291Y138124D01*
X41291Y138123D01*
X41291Y138121D01*
X41365Y137970D01*
X41705Y137428D01*
X41722Y137339D01*
X41736Y137315D01*
X41743Y137289D01*
X41758Y137266D01*
X41828Y136646D01*
X41828Y136645D01*
X41828Y136643D01*
X41866Y136480D01*
X42044Y135971D01*
X42019Y135909D01*
X42014Y135862D01*
X42007Y135837D01*
X42008Y135806D01*
X42001Y135742D01*
X42001Y135155D01*
X42005Y135127D01*
X42005Y135119D01*
X42003Y135101D01*
X42005Y135092D01*
X42006Y135070D01*
X42085Y134364D01*
X42083Y134359D01*
X42047Y134294D01*
X42037Y134246D01*
X42019Y134200D01*
X42005Y134075D01*
X42001Y134052D01*
X42002Y134045D01*
X42001Y134034D01*
X42001Y122600D01*
X42020Y122485D01*
X42037Y122369D01*
X42039Y122363D01*
X42040Y122357D01*
X42095Y122255D01*
X42148Y122150D01*
X42153Y122145D01*
X42156Y122140D01*
X42240Y122060D01*
X42324Y121978D01*
X42330Y121974D01*
X42334Y121970D01*
X42351Y121963D01*
X42471Y121897D01*
X46331Y120298D01*
X49848Y116781D01*
X51751Y112187D01*
X51751Y107213D01*
X49848Y102619D01*
X46331Y99102D01*
X42471Y97503D01*
X42371Y97442D01*
X42271Y97382D01*
X42267Y97377D01*
X42262Y97374D01*
X42187Y97283D01*
X42111Y97195D01*
X42109Y97189D01*
X42105Y97184D01*
X42063Y97076D01*
X42019Y96967D01*
X42018Y96959D01*
X42017Y96955D01*
X42016Y96936D01*
X42001Y96800D01*
X42001Y75966D01*
X42009Y75918D01*
X42007Y75869D01*
X42028Y75798D01*
X42040Y75724D01*
X42063Y75680D01*
X42077Y75634D01*
X42084Y75624D01*
X42006Y74930D01*
X42007Y74901D01*
X42001Y74845D01*
X42001Y74258D01*
X42010Y74202D01*
X42010Y74201D01*
X42010Y74200D01*
X42015Y74172D01*
X42020Y74085D01*
X42036Y74040D01*
X42040Y74018D01*
X41866Y73520D01*
X41866Y73519D01*
X41865Y73518D01*
X41828Y73354D01*
X41756Y72718D01*
X41714Y72638D01*
X41710Y72610D01*
X41699Y72585D01*
X41696Y72558D01*
X41365Y72030D01*
X41364Y72028D01*
X41363Y72027D01*
X41291Y71876D01*
X41079Y71272D01*
X41020Y71203D01*
X41010Y71177D01*
X40993Y71155D01*
X40985Y71129D01*
X40544Y70688D01*
X40543Y70687D01*
X40542Y70686D01*
X40438Y70555D01*
X40097Y70013D01*
X40024Y69958D01*
X40009Y69936D01*
X39988Y69918D01*
X39974Y69894D01*
X39445Y69562D01*
X39444Y69561D01*
X39443Y69561D01*
X39401Y69527D01*
X39384Y69518D01*
X39367Y69500D01*
X39312Y69456D01*
X38859Y69003D01*
X38777Y68967D01*
X38756Y68948D01*
X38732Y68935D01*
X38713Y68916D01*
X38124Y68709D01*
X38123Y68709D01*
X38121Y68709D01*
X37970Y68635D01*
X37428Y68295D01*
X37339Y68278D01*
X37315Y68264D01*
X37289Y68257D01*
X37266Y68242D01*
X36646Y68172D01*
X36645Y68172D01*
X36643Y68172D01*
X36480Y68134D01*
X35971Y67956D01*
X35909Y67981D01*
X35862Y67986D01*
X35837Y67993D01*
X35806Y67992D01*
X35742Y67999D01*
X35155Y67999D01*
X35127Y67995D01*
X35070Y67994D01*
X34364Y67915D01*
X34359Y67917D01*
X34294Y67953D01*
X34246Y67963D01*
X34200Y67981D01*
X34075Y67995D01*
X34052Y67999D01*
X34045Y67998D01*
X34034Y67999D01*
X-84845Y67999D01*
X-84873Y67995D01*
X-84930Y67994D01*
X-85579Y67921D01*
X-85581Y67921D01*
X-85582Y67921D01*
X-85746Y67883D01*
X-86215Y67719D01*
X-86216Y67718D01*
X-86218Y67718D01*
X-86369Y67645D01*
X-86790Y67381D01*
X-86791Y67380D01*
X-86792Y67379D01*
X-86923Y67274D01*
X-87274Y66923D01*
X-87275Y66922D01*
X-87276Y66921D01*
X-87381Y66790D01*
X-87645Y66369D01*
X-87646Y66367D01*
X-87647Y66366D01*
X-87719Y66215D01*
X-87883Y65746D01*
X-87884Y65744D01*
X-87884Y65743D01*
X-87921Y65579D01*
X-87994Y64930D01*
X-87993Y64901D01*
X-87999Y64845D01*
X-87999Y35988D01*
X-87991Y35935D01*
X-87992Y35881D01*
X-87971Y35814D01*
X-87960Y35746D01*
X-87934Y35698D01*
X-87924Y35665D01*
X-87996Y34939D01*
X-87994Y34913D01*
X-87999Y34864D01*
X-87999Y34421D01*
X-87983Y34320D01*
X-87972Y34218D01*
X-87962Y34194D01*
X-87960Y34178D01*
X-87946Y34153D01*
X-87966Y34087D01*
X-87967Y34081D01*
X-87971Y34073D01*
X-88112Y33607D01*
X-88115Y33583D01*
X-88141Y33460D01*
X-88207Y32788D01*
X-88526Y32192D01*
X-88534Y32170D01*
X-88583Y32054D01*
X-88779Y31408D01*
X-89208Y30885D01*
X-89220Y30864D01*
X-89291Y30761D01*
X-89609Y30165D01*
X-90131Y29737D01*
X-90147Y29719D01*
X-90237Y29631D01*
X-90665Y29109D01*
X-91261Y28791D01*
X-91280Y28776D01*
X-91385Y28708D01*
X-91908Y28279D01*
X-92554Y28083D01*
X-92576Y28073D01*
X-92692Y28026D01*
X-93288Y27707D01*
X-93960Y27641D01*
X-93983Y27635D01*
X-94107Y27612D01*
X-94573Y27471D01*
X-94578Y27468D01*
X-94587Y27466D01*
X-94662Y27444D01*
X-94754Y27481D01*
X-94780Y27484D01*
X-94795Y27489D01*
X-94828Y27489D01*
X-94921Y27499D01*
X-95364Y27499D01*
X-95390Y27495D01*
X-95439Y27496D01*
X-96173Y27423D01*
X-96218Y27450D01*
X-96271Y27461D01*
X-96322Y27481D01*
X-96430Y27493D01*
X-96459Y27499D01*
X-96470Y27497D01*
X-96488Y27499D01*
X-123345Y27499D01*
X-123373Y27495D01*
X-123430Y27494D01*
X-124079Y27421D01*
X-124081Y27421D01*
X-124082Y27421D01*
X-124246Y27383D01*
X-124715Y27219D01*
X-124716Y27218D01*
X-124718Y27218D01*
X-124869Y27145D01*
X-125290Y26881D01*
X-125291Y26880D01*
X-125292Y26879D01*
X-125423Y26774D01*
X-125774Y26423D01*
X-125775Y26422D01*
X-125776Y26421D01*
X-125881Y26290D01*
X-126145Y25869D01*
X-126146Y25867D01*
X-126147Y25866D01*
X-126219Y25715D01*
X-126383Y25246D01*
X-126384Y25244D01*
X-126384Y25243D01*
X-126421Y25079D01*
X-126494Y24430D01*
X-126493Y24401D01*
X-126499Y24345D01*
X-126499Y-79879D01*
X-126495Y-79903D01*
X-126496Y-79946D01*
X-126376Y-81321D01*
X-126368Y-81352D01*
X-126353Y-81452D01*
X-126027Y-82669D01*
X-126014Y-82697D01*
X-125982Y-82794D01*
X-125449Y-83935D01*
X-125431Y-83961D01*
X-125383Y-84050D01*
X-124660Y-85082D01*
X-124638Y-85105D01*
X-124575Y-85184D01*
X-123684Y-86075D01*
X-123659Y-86093D01*
X-123582Y-86160D01*
X-122550Y-86883D01*
X-122522Y-86896D01*
X-122435Y-86949D01*
X-121294Y-87482D01*
X-121263Y-87490D01*
X-121169Y-87527D01*
X-119952Y-87853D01*
X-119921Y-87856D01*
X-119821Y-87876D01*
X-118446Y-87996D01*
X-118422Y-87995D01*
X-118379Y-87999D01*
X28995Y-87999D01*
X29052Y-87990D01*
X29111Y-87990D01*
X29173Y-87970D01*
X29237Y-87960D01*
X29289Y-87932D01*
X29296Y-87930D01*
X30054Y-87996D01*
X30078Y-87995D01*
X30121Y-87999D01*
X30943Y-87999D01*
X31006Y-88011D01*
X31083Y-88034D01*
X31127Y-88033D01*
X31170Y-88041D01*
X31249Y-88030D01*
X31328Y-88028D01*
X31370Y-88013D01*
X31413Y-88007D01*
X31432Y-87999D01*
X32021Y-88157D01*
X32052Y-88160D01*
X32151Y-88180D01*
X32740Y-88231D01*
X32746Y-88239D01*
X32823Y-88296D01*
X32896Y-88359D01*
X32907Y-88364D01*
X32915Y-88370D01*
X32929Y-88375D01*
X32943Y-88386D01*
X33100Y-88446D01*
X33101Y-88446D01*
X33113Y-88447D01*
X33124Y-88452D01*
X33135Y-88452D01*
X33145Y-88456D01*
X33246Y-88460D01*
X33346Y-88469D01*
X33359Y-88466D01*
X33369Y-88467D01*
X33378Y-88464D01*
X33391Y-88465D01*
X33508Y-88436D01*
X34047Y-88688D01*
X34077Y-88696D01*
X34171Y-88733D01*
X34742Y-88886D01*
X34744Y-88891D01*
X34811Y-88963D01*
X34873Y-89039D01*
X34884Y-89046D01*
X34890Y-89053D01*
X34902Y-89060D01*
X34912Y-89071D01*
X35056Y-89158D01*
X35057Y-89159D01*
X35070Y-89162D01*
X35081Y-89170D01*
X35092Y-89172D01*
X35102Y-89178D01*
X35199Y-89198D01*
X35294Y-89225D01*
X35309Y-89224D01*
X35321Y-89227D01*
X35330Y-89226D01*
X35343Y-89229D01*
X35463Y-89221D01*
X35950Y-89562D01*
X35978Y-89576D01*
X36065Y-89629D01*
X36599Y-89878D01*
X36600Y-89882D01*
X36654Y-89965D01*
X36703Y-90052D01*
X36712Y-90060D01*
X36717Y-90069D01*
X36726Y-90076D01*
X36734Y-90089D01*
X36860Y-90200D01*
X36861Y-90200D01*
X36874Y-90207D01*
X36885Y-90217D01*
X36895Y-90221D01*
X36904Y-90228D01*
X36995Y-90265D01*
X37083Y-90307D01*
X37099Y-90310D01*
X37111Y-90315D01*
X37120Y-90316D01*
X37132Y-90320D01*
X37251Y-90334D01*
X37672Y-90754D01*
X37697Y-90772D01*
X37773Y-90839D01*
X38257Y-91178D01*
X38257Y-91183D01*
X38296Y-91274D01*
X38328Y-91367D01*
X38336Y-91376D01*
X38339Y-91386D01*
X38348Y-91396D01*
X38354Y-91410D01*
X38458Y-91541D01*
X38459Y-91542D01*
X38471Y-91550D01*
X38479Y-91561D01*
X38489Y-91567D01*
X38496Y-91576D01*
X38579Y-91628D01*
X38659Y-91685D01*
X38674Y-91690D01*
X38684Y-91697D01*
X38694Y-91699D01*
X38704Y-91706D01*
X38820Y-91740D01*
X39161Y-92227D01*
X39183Y-92249D01*
X39246Y-92328D01*
X39664Y-92746D01*
X39663Y-92752D01*
X39685Y-92848D01*
X39701Y-92944D01*
X39707Y-92955D01*
X39709Y-92965D01*
X39715Y-92976D01*
X39719Y-92992D01*
X39800Y-93139D01*
X39800Y-93140D01*
X39810Y-93150D01*
X39816Y-93161D01*
X39824Y-93169D01*
X39830Y-93179D01*
X39903Y-93245D01*
X39972Y-93316D01*
X39986Y-93323D01*
X39994Y-93331D01*
X40003Y-93335D01*
X40013Y-93343D01*
X40120Y-93397D01*
X40371Y-93935D01*
X40389Y-93961D01*
X40438Y-94050D01*
X40776Y-94534D01*
X40775Y-94538D01*
X40780Y-94637D01*
X40779Y-94736D01*
X40783Y-94748D01*
X40783Y-94758D01*
X40787Y-94769D01*
X40788Y-94784D01*
X40841Y-94943D01*
X40842Y-94944D01*
X40850Y-94956D01*
X40854Y-94970D01*
X40861Y-94979D01*
X40865Y-94990D01*
X40925Y-95067D01*
X40980Y-95148D01*
X40993Y-95157D01*
X41001Y-95168D01*
X41008Y-95173D01*
X41016Y-95183D01*
X41113Y-95254D01*
X41267Y-95829D01*
X41280Y-95857D01*
X41312Y-95953D01*
X41561Y-96487D01*
X41561Y-96489D01*
X41548Y-96589D01*
X41529Y-96687D01*
X41531Y-96700D01*
X41529Y-96710D01*
X41531Y-96720D01*
X41529Y-96733D01*
X41554Y-96899D01*
X41554Y-96900D01*
X41561Y-96915D01*
X41563Y-96931D01*
X41568Y-96941D01*
X41570Y-96952D01*
X41615Y-97037D01*
X41654Y-97125D01*
X41666Y-97138D01*
X41673Y-97151D01*
X41679Y-97158D01*
X41685Y-97169D01*
X41768Y-97256D01*
X41820Y-97849D01*
X41828Y-97879D01*
X41843Y-97979D01*
X42004Y-98579D01*
X42002Y-98588D01*
X41973Y-98663D01*
X41972Y-98707D01*
X41961Y-98750D01*
X41967Y-98829D01*
X41964Y-98909D01*
X41977Y-98951D01*
X41980Y-98995D01*
X42001Y-99043D01*
X42001Y-99879D01*
X42005Y-99903D01*
X42004Y-99946D01*
X42070Y-100700D01*
X42053Y-100727D01*
X42041Y-100784D01*
X42019Y-100839D01*
X42008Y-100937D01*
X42002Y-100968D01*
X42003Y-100982D01*
X42001Y-101005D01*
X42001Y-123495D01*
X42010Y-123552D01*
X42010Y-123611D01*
X42030Y-123673D01*
X42040Y-123737D01*
X42068Y-123789D01*
X42070Y-123796D01*
X42004Y-124554D01*
X42005Y-124578D01*
X42001Y-124621D01*
X42001Y-125443D01*
X41989Y-125506D01*
X41966Y-125583D01*
X41967Y-125627D01*
X41959Y-125670D01*
X41970Y-125749D01*
X41972Y-125828D01*
X41987Y-125870D01*
X41993Y-125913D01*
X42001Y-125932D01*
X41843Y-126521D01*
X41840Y-126552D01*
X41820Y-126651D01*
X41769Y-127240D01*
X41761Y-127246D01*
X41704Y-127323D01*
X41641Y-127396D01*
X41636Y-127407D01*
X41630Y-127415D01*
X41625Y-127429D01*
X41614Y-127443D01*
X41554Y-127600D01*
X41554Y-127601D01*
X41553Y-127613D01*
X41548Y-127624D01*
X41548Y-127635D01*
X41544Y-127645D01*
X41540Y-127746D01*
X41531Y-127846D01*
X41534Y-127859D01*
X41533Y-127869D01*
X41536Y-127878D01*
X41535Y-127891D01*
X41564Y-128008D01*
X41312Y-128547D01*
X41304Y-128577D01*
X41267Y-128671D01*
X41114Y-129242D01*
X41109Y-129244D01*
X41037Y-129311D01*
X40961Y-129373D01*
X40954Y-129384D01*
X40947Y-129390D01*
X40940Y-129402D01*
X40929Y-129412D01*
X40842Y-129556D01*
X40841Y-129557D01*
X40838Y-129570D01*
X40830Y-129581D01*
X40828Y-129592D01*
X40822Y-129602D01*
X40802Y-129699D01*
X40775Y-129794D01*
X40776Y-129809D01*
X40773Y-129821D01*
X40774Y-129830D01*
X40771Y-129843D01*
X40779Y-129963D01*
X40438Y-130450D01*
X40424Y-130478D01*
X40371Y-130565D01*
X40121Y-131101D01*
X40109Y-131104D01*
X40031Y-131156D01*
X39948Y-131203D01*
X39940Y-131212D01*
X39931Y-131217D01*
X39921Y-131230D01*
X39904Y-131241D01*
X39795Y-131368D01*
X39794Y-131369D01*
X39790Y-131378D01*
X39783Y-131385D01*
X39779Y-131395D01*
X39772Y-131404D01*
X39733Y-131499D01*
X39690Y-131592D01*
X39689Y-131603D01*
X39685Y-131611D01*
X39685Y-131620D01*
X39680Y-131632D01*
X39666Y-131751D01*
X39246Y-132172D01*
X39228Y-132197D01*
X39161Y-132273D01*
X38822Y-132757D01*
X38817Y-132757D01*
X38726Y-132796D01*
X38633Y-132828D01*
X38623Y-132836D01*
X38614Y-132839D01*
X38604Y-132848D01*
X38590Y-132854D01*
X38459Y-132958D01*
X38458Y-132959D01*
X38450Y-132971D01*
X38439Y-132979D01*
X38433Y-132989D01*
X38424Y-132996D01*
X38372Y-133079D01*
X38315Y-133159D01*
X38310Y-133174D01*
X38303Y-133184D01*
X38301Y-133194D01*
X38294Y-133205D01*
X38260Y-133320D01*
X37773Y-133661D01*
X37751Y-133683D01*
X37672Y-133746D01*
X37254Y-134164D01*
X37248Y-134163D01*
X37152Y-134185D01*
X37056Y-134201D01*
X37045Y-134207D01*
X37035Y-134209D01*
X37024Y-134215D01*
X37008Y-134219D01*
X36861Y-134300D01*
X36860Y-134300D01*
X36850Y-134310D01*
X36839Y-134316D01*
X36831Y-134324D01*
X36821Y-134330D01*
X36755Y-134403D01*
X36684Y-134472D01*
X36677Y-134486D01*
X36669Y-134494D01*
X36665Y-134503D01*
X36657Y-134513D01*
X36603Y-134620D01*
X36065Y-134871D01*
X36039Y-134889D01*
X35950Y-134938D01*
X35466Y-135276D01*
X35462Y-135275D01*
X35363Y-135280D01*
X35264Y-135279D01*
X35252Y-135283D01*
X35242Y-135283D01*
X35231Y-135287D01*
X35216Y-135288D01*
X35057Y-135341D01*
X35056Y-135342D01*
X35044Y-135350D01*
X35030Y-135354D01*
X35021Y-135361D01*
X35010Y-135365D01*
X34933Y-135425D01*
X34852Y-135480D01*
X34843Y-135493D01*
X34832Y-135501D01*
X34827Y-135508D01*
X34817Y-135516D01*
X34746Y-135613D01*
X34171Y-135767D01*
X34143Y-135780D01*
X34047Y-135812D01*
X33510Y-136063D01*
X33495Y-136056D01*
X33403Y-136046D01*
X33313Y-136029D01*
X33300Y-136031D01*
X33290Y-136029D01*
X33272Y-136032D01*
X33250Y-136030D01*
X33085Y-136058D01*
X33083Y-136059D01*
X33076Y-136062D01*
X33069Y-136063D01*
X33059Y-136068D01*
X33048Y-136070D01*
X32956Y-136119D01*
X32861Y-136163D01*
X32854Y-136170D01*
X32849Y-136173D01*
X32842Y-136179D01*
X32831Y-136185D01*
X32744Y-136268D01*
X32151Y-136320D01*
X32121Y-136328D01*
X32021Y-136343D01*
X31421Y-136504D01*
X31412Y-136502D01*
X31337Y-136473D01*
X31293Y-136472D01*
X31251Y-136461D01*
X31171Y-136467D01*
X31091Y-136464D01*
X31049Y-136477D01*
X31005Y-136480D01*
X30957Y-136501D01*
X30121Y-136501D01*
X30097Y-136505D01*
X30054Y-136504D01*
X29300Y-136570D01*
X29273Y-136553D01*
X29216Y-136541D01*
X29161Y-136519D01*
X29063Y-136508D01*
X29032Y-136502D01*
X29018Y-136503D01*
X28995Y-136501D01*
X-168995Y-136501D01*
X-169052Y-136510D01*
X-169111Y-136510D01*
X-169173Y-136530D01*
X-169237Y-136540D01*
X-169289Y-136568D01*
X-169296Y-136570D01*
X-170054Y-136504D01*
G37*
%LPD*%
G36*
X30000Y-134505D02*
X30000Y-134505D01*
X31737Y-134353D01*
X31738Y-134353D01*
X33421Y-133902D01*
X33422Y-133901D01*
X35002Y-133165D01*
X35002Y-133164D01*
X35003Y-133164D01*
X36431Y-132165D01*
X36431Y-132164D01*
X37664Y-130931D01*
X37665Y-130931D01*
X38664Y-129503D01*
X38664Y-129502D01*
X38665Y-129502D01*
X39401Y-127922D01*
X39402Y-127921D01*
X39853Y-126238D01*
X39853Y-126237D01*
X40005Y-124500D01*
X40005Y-100000D01*
X39853Y-98263D01*
X39853Y-98262D01*
X39402Y-96579D01*
X39401Y-96578D01*
X38665Y-94998D01*
X38664Y-94998D01*
X38664Y-94997D01*
X37665Y-93569D01*
X37664Y-93569D01*
X36431Y-92336D01*
X36431Y-92335D01*
X35003Y-91336D01*
X35002Y-91336D01*
X35002Y-91335D01*
X33422Y-90599D01*
X33421Y-90598D01*
X31738Y-90147D01*
X31737Y-90147D01*
X30000Y-89995D01*
X-118500Y-89995D01*
X-120236Y-89843D01*
X-121918Y-89392D01*
X-123498Y-88656D01*
X-124925Y-87657D01*
X-126157Y-86425D01*
X-127156Y-84998D01*
X-127892Y-83418D01*
X-128343Y-81736D01*
X-128495Y-80000D01*
X-128495Y24500D01*
X-128494Y24505D01*
X-128494Y24510D01*
X-128493Y24515D01*
X-128491Y24535D01*
X-128491Y24540D01*
X-128490Y24540D01*
X-128491Y24540D01*
X-128490Y24545D01*
X-128489Y24550D01*
X-128489Y24555D01*
X-128488Y24560D01*
X-128488Y24565D01*
X-128487Y24570D01*
X-128487Y24575D01*
X-128484Y24595D01*
X-128484Y24600D01*
X-128483Y24605D01*
X-128483Y24610D01*
X-128482Y24615D01*
X-128482Y24620D01*
X-128481Y24624D01*
X-128481Y24625D01*
X-128480Y24629D01*
X-128480Y24630D01*
X-128480Y24634D01*
X-128478Y24654D01*
X-128477Y24659D01*
X-128477Y24664D01*
X-128476Y24664D01*
X-128477Y24664D01*
X-128476Y24669D01*
X-128475Y24674D01*
X-128475Y24679D01*
X-128474Y24684D01*
X-128474Y24689D01*
X-128473Y24694D01*
X-128471Y24714D01*
X-128470Y24719D01*
X-128470Y24724D01*
X-128469Y24729D01*
X-128469Y24734D01*
X-128468Y24739D01*
X-128468Y24744D01*
X-128467Y24749D01*
X-128466Y24754D01*
X-128464Y24774D01*
X-128464Y24779D01*
X-128463Y24783D01*
X-128463Y24784D01*
X-128463Y24788D01*
X-128462Y24788D01*
X-128463Y24789D01*
X-128462Y24793D01*
X-128461Y24798D01*
X-128461Y24803D01*
X-128460Y24808D01*
X-128460Y24813D01*
X-128457Y24833D01*
X-128457Y24838D01*
X-128456Y24843D01*
X-128456Y24848D01*
X-128455Y24853D01*
X-128455Y24858D01*
X-128454Y24863D01*
X-128454Y24868D01*
X-128453Y24873D01*
X-128450Y24898D01*
X-128450Y24903D01*
X-128449Y24908D01*
X-128449Y24913D01*
X-128448Y24913D01*
X-128449Y24913D01*
X-128448Y24918D01*
X-128447Y24923D01*
X-128447Y24928D01*
X-128446Y24933D01*
X-128443Y24957D01*
X-128443Y24962D01*
X-128442Y24967D01*
X-128442Y24972D01*
X-128441Y24977D01*
X-128441Y24982D01*
X-128440Y24987D01*
X-128440Y24992D01*
X-128437Y25017D01*
X-128436Y25022D01*
X-128436Y25027D01*
X-128435Y25032D01*
X-128435Y25037D01*
X-128434Y25037D01*
X-128435Y25037D01*
X-128434Y25042D01*
X-128433Y25047D01*
X-128433Y25052D01*
X-128432Y25057D01*
X-128430Y25077D01*
X-128429Y25082D01*
X-128429Y25087D01*
X-128428Y25092D01*
X-128428Y25097D01*
X-128427Y25101D01*
X-128427Y25102D01*
X-128427Y25106D01*
X-128427Y25107D01*
X-128426Y25111D01*
X-128426Y25116D01*
X-128423Y25136D01*
X-128423Y25141D01*
X-128422Y25146D01*
X-128422Y25151D01*
X-128421Y25156D01*
X-128421Y25161D01*
X-128420Y25161D01*
X-128421Y25161D01*
X-128420Y25166D01*
X-128419Y25171D01*
X-128419Y25176D01*
X-128417Y25196D01*
X-128416Y25201D01*
X-128415Y25206D01*
X-128415Y25211D01*
X-128414Y25216D01*
X-128414Y25221D01*
X-128413Y25226D01*
X-128413Y25231D01*
X-128412Y25236D01*
X-128410Y25256D01*
X-128409Y25260D01*
X-128409Y25261D01*
X-128409Y25265D01*
X-128409Y25266D01*
X-128408Y25270D01*
X-128408Y25275D01*
X-128407Y25280D01*
X-128407Y25285D01*
X-128406Y25285D01*
X-128407Y25285D01*
X-128406Y25290D01*
X-128405Y25295D01*
X-128403Y25315D01*
X-128403Y25320D01*
X-128402Y25325D01*
X-128401Y25330D01*
X-128401Y25335D01*
X-128400Y25340D01*
X-128400Y25345D01*
X-128399Y25350D01*
X-128399Y25355D01*
X-128396Y25375D01*
X-128396Y25380D01*
X-128395Y25385D01*
X-128395Y25390D01*
X-128394Y25395D01*
X-128394Y25400D01*
X-128393Y25405D01*
X-128393Y25410D01*
X-128392Y25410D01*
X-128393Y25410D01*
X-128392Y25415D01*
X-128390Y25434D01*
X-128389Y25439D01*
X-128389Y25444D01*
X-128388Y25449D01*
X-128387Y25454D01*
X-128387Y25459D01*
X-128386Y25464D01*
X-128386Y25469D01*
X-128385Y25474D01*
X-128383Y25494D01*
X-128382Y25499D01*
X-128382Y25504D01*
X-128381Y25509D01*
X-128381Y25514D01*
X-128380Y25519D01*
X-128380Y25524D01*
X-128379Y25529D01*
X-128379Y25534D01*
X-128378Y25534D01*
X-128379Y25534D01*
X-128376Y25559D01*
X-128375Y25564D01*
X-128375Y25569D01*
X-128374Y25574D01*
X-128373Y25578D01*
X-128373Y25579D01*
X-128373Y25583D01*
X-128373Y25584D01*
X-128372Y25588D01*
X-128372Y25593D01*
X-128370Y25611D01*
X-128000Y26667D01*
X-127405Y27614D01*
X-126614Y28405D01*
X-125667Y29000D01*
X-124611Y29370D01*
X-123500Y29495D01*
X-95500Y29495D01*
X-94427Y29601D01*
X-94426Y29601D01*
X-93394Y29914D01*
X-93393Y29914D01*
X-92442Y30423D01*
X-92441Y30423D01*
X-91608Y31107D01*
X-91608Y31108D01*
X-91607Y31108D01*
X-90923Y31941D01*
X-90923Y31942D01*
X-90414Y32893D01*
X-90414Y32894D01*
X-90101Y33926D01*
X-90101Y33927D01*
X-89995Y35000D01*
X-89995Y52575D01*
X-89997Y52577D01*
X-89996Y52579D01*
X-90245Y52827D01*
X-90245Y57173D01*
X-89996Y57421D01*
X-89996Y57423D01*
X-89996Y57424D01*
X-89995Y57425D01*
X-89995Y65000D01*
X-89995Y65001D01*
X-89994Y65006D01*
X-89994Y65010D01*
X-89994Y65011D01*
X-89993Y65015D01*
X-89993Y65016D01*
X-89991Y65035D01*
X-89990Y65040D01*
X-89990Y65045D01*
X-89989Y65050D01*
X-89989Y65055D01*
X-89988Y65060D01*
X-89988Y65065D01*
X-89987Y65070D01*
X-89987Y65075D01*
X-89984Y65095D01*
X-89984Y65100D01*
X-89983Y65105D01*
X-89983Y65110D01*
X-89982Y65115D01*
X-89982Y65120D01*
X-89981Y65120D01*
X-89982Y65120D01*
X-89981Y65125D01*
X-89980Y65130D01*
X-89980Y65135D01*
X-89978Y65155D01*
X-89977Y65160D01*
X-89976Y65165D01*
X-89976Y65169D01*
X-89976Y65170D01*
X-89975Y65174D01*
X-89975Y65175D01*
X-89975Y65179D01*
X-89974Y65184D01*
X-89974Y65189D01*
X-89973Y65194D01*
X-89971Y65214D01*
X-89970Y65219D01*
X-89970Y65224D01*
X-89969Y65229D01*
X-89969Y65234D01*
X-89968Y65239D01*
X-89968Y65244D01*
X-89967Y65244D01*
X-89968Y65244D01*
X-89967Y65249D01*
X-89966Y65254D01*
X-89964Y65279D01*
X-89963Y65284D01*
X-89962Y65289D01*
X-89962Y65294D01*
X-89961Y65299D01*
X-89961Y65304D01*
X-89960Y65309D01*
X-89960Y65314D01*
X-89957Y65338D01*
X-89956Y65343D01*
X-89956Y65348D01*
X-89955Y65353D01*
X-89955Y65358D01*
X-89954Y65363D01*
X-89954Y65368D01*
X-89953Y65368D01*
X-89954Y65368D01*
X-89953Y65373D01*
X-89950Y65398D01*
X-89950Y65403D01*
X-89949Y65408D01*
X-89948Y65413D01*
X-89948Y65418D01*
X-89947Y65423D01*
X-89947Y65428D01*
X-89946Y65433D01*
X-89946Y65438D01*
X-89943Y65458D01*
X-89943Y65463D01*
X-89942Y65468D01*
X-89942Y65473D01*
X-89941Y65478D01*
X-89941Y65483D01*
X-89940Y65487D01*
X-89940Y65488D01*
X-89940Y65492D01*
X-89939Y65492D01*
X-89940Y65493D01*
X-89939Y65497D01*
X-89937Y65517D01*
X-89936Y65522D01*
X-89936Y65527D01*
X-89935Y65532D01*
X-89934Y65537D01*
X-89934Y65542D01*
X-89933Y65547D01*
X-89933Y65552D01*
X-89932Y65557D01*
X-89930Y65577D01*
X-89929Y65582D01*
X-89929Y65587D01*
X-89928Y65592D01*
X-89928Y65597D01*
X-89927Y65602D01*
X-89927Y65607D01*
X-89926Y65612D01*
X-89926Y65617D01*
X-89925Y65617D01*
X-89926Y65617D01*
X-89923Y65637D01*
X-89923Y65642D01*
X-89922Y65646D01*
X-89922Y65647D01*
X-89922Y65651D01*
X-89922Y65652D01*
X-89921Y65656D01*
X-89920Y65661D01*
X-89920Y65666D01*
X-89919Y65671D01*
X-89919Y65676D01*
X-89917Y65696D01*
X-89916Y65701D01*
X-89915Y65706D01*
X-89915Y65711D01*
X-89914Y65716D01*
X-89914Y65721D01*
X-89913Y65726D01*
X-89913Y65731D01*
X-89912Y65736D01*
X-89910Y65756D01*
X-89909Y65761D01*
X-89909Y65766D01*
X-89908Y65771D01*
X-89908Y65776D01*
X-89907Y65781D01*
X-89906Y65786D01*
X-89906Y65791D01*
X-89905Y65796D01*
X-89903Y65815D01*
X-89903Y65820D01*
X-89902Y65825D01*
X-89901Y65830D01*
X-89901Y65835D01*
X-89900Y65840D01*
X-89900Y65845D01*
X-89899Y65850D01*
X-89899Y65855D01*
X-89896Y65875D01*
X-89896Y65880D01*
X-89895Y65885D01*
X-89895Y65890D01*
X-89894Y65895D01*
X-89894Y65900D01*
X-89893Y65905D01*
X-89892Y65910D01*
X-89892Y65915D01*
X-89889Y65940D01*
X-89889Y65945D01*
X-89888Y65950D01*
X-89887Y65955D01*
X-89887Y65960D01*
X-89886Y65964D01*
X-89886Y65965D01*
X-89886Y65969D01*
X-89886Y65970D01*
X-89885Y65974D01*
X-89882Y65999D01*
X-89882Y66004D01*
X-89881Y66009D01*
X-89881Y66014D01*
X-89880Y66019D01*
X-89880Y66024D01*
X-89879Y66029D01*
X-89878Y66034D01*
X-89876Y66059D01*
X-89875Y66064D01*
X-89875Y66069D01*
X-89874Y66074D01*
X-89873Y66079D01*
X-89873Y66084D01*
X-89872Y66089D01*
X-89872Y66094D01*
X-89870Y66111D01*
X-89500Y67167D01*
X-88905Y68114D01*
X-88114Y68905D01*
X-87167Y69500D01*
X-86111Y69870D01*
X-85000Y69995D01*
X35000Y69995D01*
X35001Y69995D01*
X36113Y70120D01*
X36114Y70121D01*
X37171Y70490D01*
X37171Y70491D01*
X37172Y70491D01*
X38120Y71087D01*
X38121Y71087D01*
X38913Y71879D01*
X38913Y71880D01*
X39509Y72828D01*
X39509Y72829D01*
X39510Y72829D01*
X39879Y73886D01*
X39880Y73887D01*
X39880Y73890D01*
X39880Y73895D01*
X39881Y73900D01*
X39882Y73905D01*
X39882Y73910D01*
X39884Y73929D01*
X39885Y73934D01*
X39885Y73939D01*
X39886Y73939D01*
X39885Y73939D01*
X39886Y73944D01*
X39887Y73949D01*
X39887Y73954D01*
X39888Y73959D01*
X39888Y73964D01*
X39889Y73969D01*
X39891Y73989D01*
X39892Y73994D01*
X39892Y73999D01*
X39893Y74004D01*
X39893Y74009D01*
X39894Y74014D01*
X39894Y74019D01*
X39895Y74024D01*
X39896Y74029D01*
X39898Y74049D01*
X39898Y74054D01*
X39899Y74059D01*
X39899Y74064D01*
X39900Y74064D01*
X39899Y74064D01*
X39900Y74069D01*
X39901Y74073D01*
X39901Y74074D01*
X39901Y74078D01*
X39901Y74079D01*
X39902Y74083D01*
X39902Y74088D01*
X39905Y74113D01*
X39906Y74118D01*
X39906Y74123D01*
X39907Y74128D01*
X39907Y74133D01*
X39908Y74138D01*
X39908Y74143D01*
X39909Y74148D01*
X39912Y74173D01*
X39912Y74178D01*
X39913Y74183D01*
X39913Y74188D01*
X39914Y74188D01*
X39913Y74188D01*
X39914Y74193D01*
X39915Y74198D01*
X39915Y74203D01*
X39916Y74208D01*
X39919Y74232D01*
X39919Y74233D01*
X39919Y74237D01*
X39919Y74238D01*
X39920Y74242D01*
X39920Y74247D01*
X39921Y74252D01*
X39921Y74257D01*
X39922Y74262D01*
X39922Y74267D01*
X39925Y74292D01*
X39926Y74297D01*
X39926Y74302D01*
X39927Y74307D01*
X39927Y74312D01*
X39928Y74312D01*
X39927Y74312D01*
X39928Y74317D01*
X39929Y74322D01*
X39929Y74327D01*
X39930Y74332D01*
X39932Y74352D01*
X39933Y74357D01*
X39933Y74362D01*
X39934Y74367D01*
X39934Y74372D01*
X39935Y74377D01*
X39935Y74382D01*
X39936Y74387D01*
X39936Y74391D01*
X39936Y74392D01*
X39939Y74411D01*
X39939Y74416D01*
X39940Y74421D01*
X39940Y74426D01*
X39941Y74431D01*
X39941Y74436D01*
X39942Y74436D01*
X39941Y74436D01*
X39942Y74441D01*
X39943Y74446D01*
X39943Y74451D01*
X39945Y74471D01*
X39946Y74476D01*
X39947Y74481D01*
X39947Y74486D01*
X39948Y74491D01*
X39948Y74496D01*
X39949Y74501D01*
X39949Y74506D01*
X39950Y74511D01*
X39952Y74531D01*
X39953Y74536D01*
X39953Y74541D01*
X39954Y74546D01*
X39954Y74550D01*
X39954Y74551D01*
X39955Y74555D01*
X39955Y74556D01*
X39955Y74560D01*
X39956Y74560D01*
X39955Y74560D01*
X39956Y74565D01*
X39957Y74570D01*
X39959Y74590D01*
X39959Y74595D01*
X39960Y74600D01*
X39961Y74605D01*
X39961Y74610D01*
X39962Y74615D01*
X39962Y74620D01*
X39963Y74625D01*
X39963Y74630D01*
X39966Y74650D01*
X39966Y74655D01*
X39967Y74660D01*
X39967Y74665D01*
X39968Y74670D01*
X39968Y74675D01*
X39969Y74680D01*
X39969Y74685D01*
X39970Y74685D01*
X39969Y74685D01*
X39970Y74690D01*
X39972Y74710D01*
X39973Y74714D01*
X39973Y74715D01*
X39973Y74719D01*
X39974Y74724D01*
X39975Y74729D01*
X39975Y74734D01*
X39976Y74739D01*
X39976Y74744D01*
X39977Y74749D01*
X39979Y74769D01*
X39980Y74774D01*
X39980Y74779D01*
X39981Y74784D01*
X39981Y74789D01*
X39982Y74794D01*
X39982Y74799D01*
X39983Y74804D01*
X39983Y74809D01*
X39984Y74809D01*
X39983Y74809D01*
X39986Y74834D01*
X39987Y74839D01*
X39987Y74844D01*
X39988Y74849D01*
X39989Y74854D01*
X39989Y74859D01*
X39990Y74864D01*
X39990Y74868D01*
X39990Y74869D01*
X39993Y74893D01*
X39994Y74898D01*
X39994Y74903D01*
X39995Y74908D01*
X39995Y74913D01*
X39996Y74918D01*
X39996Y74923D01*
X39997Y74928D01*
X40000Y74953D01*
X40000Y74958D01*
X40001Y74963D01*
X40001Y74968D01*
X40002Y74973D01*
X40003Y74978D01*
X40003Y74983D01*
X40004Y74988D01*
X40005Y74999D01*
X40005Y75000D01*
X40005Y97200D01*
X40001Y97205D01*
X40000Y97204D01*
X40000Y97205D01*
X36764Y97205D01*
X32172Y99107D01*
X28657Y102622D01*
X26755Y107214D01*
X26755Y112186D01*
X28657Y116778D01*
X32172Y120293D01*
X36765Y122195D01*
X40000Y122195D01*
X40005Y122200D01*
X40005Y135000D01*
X40005Y135001D01*
X39880Y136113D01*
X39879Y136114D01*
X39510Y137171D01*
X39509Y137171D01*
X39509Y137172D01*
X38913Y138120D01*
X38913Y138121D01*
X38121Y138913D01*
X38120Y138913D01*
X37172Y139509D01*
X37171Y139509D01*
X37171Y139510D01*
X36114Y139879D01*
X36113Y139880D01*
X35001Y140005D01*
X35000Y140005D01*
X15000Y140005D01*
X14999Y140005D01*
X13887Y139880D01*
X13886Y139879D01*
X12829Y139510D01*
X12829Y139509D01*
X12828Y139509D01*
X11880Y138913D01*
X11879Y138913D01*
X11087Y138121D01*
X11087Y138120D01*
X10491Y137172D01*
X10491Y137171D01*
X10490Y137171D01*
X10121Y136114D01*
X10120Y136113D01*
X10120Y136110D01*
X10117Y136085D01*
X10117Y136080D01*
X10116Y136075D01*
X10116Y136070D01*
X10115Y136065D01*
X10114Y136060D01*
X10114Y136055D01*
X10113Y136050D01*
X10111Y136025D01*
X10110Y136020D01*
X10109Y136015D01*
X10109Y136010D01*
X10108Y136005D01*
X10108Y136000D01*
X10107Y135995D01*
X10107Y135990D01*
X10106Y135985D01*
X10104Y135966D01*
X10104Y135965D01*
X10103Y135961D01*
X10103Y135956D01*
X10102Y135951D01*
X10102Y135946D01*
X10101Y135941D01*
X10100Y135936D01*
X10100Y135931D01*
X10099Y135926D01*
X10097Y135906D01*
X10097Y135901D01*
X10096Y135896D01*
X10095Y135891D01*
X10095Y135886D01*
X10094Y135881D01*
X10094Y135876D01*
X10093Y135871D01*
X10093Y135866D01*
X10090Y135846D01*
X10090Y135841D01*
X10089Y135836D01*
X10089Y135831D01*
X10088Y135826D01*
X10088Y135821D01*
X10087Y135816D01*
X10086Y135812D01*
X10086Y135811D01*
X10086Y135807D01*
X10086Y135806D01*
X10084Y135787D01*
X10083Y135782D01*
X10083Y135777D01*
X10082Y135772D01*
X10081Y135767D01*
X10081Y135762D01*
X10080Y135757D01*
X10080Y135752D01*
X10079Y135747D01*
X10077Y135727D01*
X10076Y135722D01*
X10076Y135717D01*
X10075Y135712D01*
X10075Y135707D01*
X10074Y135702D01*
X10074Y135697D01*
X10073Y135692D01*
X10072Y135687D01*
X10070Y135667D01*
X10070Y135662D01*
X10069Y135657D01*
X10069Y135653D01*
X10069Y135652D01*
X10068Y135648D01*
X10068Y135647D01*
X10067Y135643D01*
X10067Y135638D01*
X10066Y135633D01*
X10066Y135628D01*
X10064Y135608D01*
X10063Y135608D01*
X10063Y135603D01*
X10062Y135598D01*
X10062Y135593D01*
X10061Y135588D01*
X10061Y135583D01*
X10060Y135578D01*
X10060Y135573D01*
X10059Y135568D01*
X10057Y135548D01*
X10056Y135543D01*
X10056Y135538D01*
X10055Y135533D01*
X10055Y135528D01*
X10054Y135523D01*
X10053Y135518D01*
X10053Y135513D01*
X10052Y135508D01*
X10050Y135484D01*
X10049Y135484D01*
X10050Y135484D01*
X10049Y135479D01*
X10048Y135474D01*
X10048Y135469D01*
X10047Y135464D01*
X10047Y135459D01*
X10046Y135454D01*
X10046Y135449D01*
X10043Y135424D01*
X10042Y135419D01*
X10042Y135414D01*
X10041Y135409D01*
X10041Y135404D01*
X10040Y135399D01*
X10039Y135394D01*
X10039Y135389D01*
X10036Y135364D01*
X10036Y135359D01*
X10035Y135359D01*
X10036Y135359D01*
X10035Y135354D01*
X10034Y135349D01*
X10034Y135344D01*
X10033Y135339D01*
X10033Y135335D01*
X10033Y135334D01*
X10032Y135330D01*
X10032Y135329D01*
X10029Y135305D01*
X10029Y135300D01*
X10028Y135295D01*
X10028Y135290D01*
X10027Y135285D01*
X10027Y135280D01*
X10026Y135275D01*
X10025Y135270D01*
X10025Y135265D01*
X10023Y135245D01*
X10022Y135240D01*
X10022Y135235D01*
X10021Y135235D01*
X10022Y135235D01*
X10021Y135230D01*
X10020Y135225D01*
X10020Y135220D01*
X10019Y135215D01*
X10019Y135210D01*
X10018Y135205D01*
X10016Y135185D01*
X10015Y135180D01*
X10015Y135176D01*
X10015Y135175D01*
X10014Y135171D01*
X10014Y135170D01*
X10014Y135166D01*
X10013Y135161D01*
X10013Y135156D01*
X10012Y135151D01*
X10011Y135146D01*
X10009Y135126D01*
X10009Y135121D01*
X10008Y135116D01*
X10008Y135111D01*
X10007Y135111D01*
X10008Y135111D01*
X10007Y135106D01*
X10006Y135101D01*
X10006Y135096D01*
X10005Y135091D01*
X10005Y135086D01*
X10002Y135066D01*
X10002Y135061D01*
X10001Y135056D01*
X10001Y135051D01*
X10000Y135046D01*
X10000Y135041D01*
X9999Y135036D01*
X9999Y135031D01*
X9998Y135026D01*
X9996Y135007D01*
X9995Y135002D01*
X9995Y135001D01*
X9995Y135000D01*
X9995Y120000D01*
X9993Y119981D01*
X9992Y119976D01*
X9992Y119971D01*
X9991Y119966D01*
X9991Y119961D01*
X9990Y119956D01*
X9990Y119951D01*
X9989Y119951D01*
X9990Y119951D01*
X9989Y119946D01*
X9986Y119921D01*
X9986Y119916D01*
X9985Y119912D01*
X9985Y119911D01*
X9984Y119907D01*
X9984Y119906D01*
X9984Y119902D01*
X9983Y119897D01*
X9983Y119892D01*
X9982Y119887D01*
X9979Y119862D01*
X9979Y119857D01*
X9978Y119852D01*
X9978Y119847D01*
X9977Y119842D01*
X9977Y119837D01*
X9976Y119832D01*
X9976Y119827D01*
X9975Y119827D01*
X9976Y119827D01*
X9975Y119822D01*
X9973Y119802D01*
X9972Y119797D01*
X9972Y119792D01*
X9971Y119787D01*
X9970Y119782D01*
X9970Y119777D01*
X9969Y119772D01*
X9969Y119767D01*
X9968Y119762D01*
X9966Y119743D01*
X9965Y119738D01*
X9965Y119733D01*
X9964Y119728D01*
X9964Y119723D01*
X9963Y119718D01*
X9963Y119713D01*
X9962Y119708D01*
X9962Y119703D01*
X9961Y119703D01*
X9962Y119703D01*
X9959Y119683D01*
X9959Y119678D01*
X9958Y119673D01*
X9958Y119668D01*
X9957Y119663D01*
X9956Y119658D01*
X9956Y119653D01*
X9955Y119648D01*
X9955Y119643D01*
X9953Y119623D01*
X9952Y119618D01*
X9951Y119613D01*
X9951Y119608D01*
X9950Y119603D01*
X9950Y119598D01*
X9949Y119594D01*
X9949Y119593D01*
X9949Y119589D01*
X9949Y119588D01*
X9948Y119584D01*
X9946Y119564D01*
X9945Y119559D01*
X9945Y119554D01*
X9944Y119549D01*
X9944Y119544D01*
X9943Y119539D01*
X9942Y119534D01*
X9942Y119529D01*
X9941Y119524D01*
X9939Y119504D01*
X9939Y119499D01*
X9938Y119494D01*
X9937Y119489D01*
X9937Y119484D01*
X9936Y119479D01*
X9936Y119474D01*
X9935Y119469D01*
X9935Y119464D01*
X9932Y119444D01*
X9932Y119439D01*
X9931Y119435D01*
X9931Y119434D01*
X9931Y119430D01*
X9931Y119429D01*
X9930Y119425D01*
X9930Y119420D01*
X9929Y119415D01*
X9928Y119410D01*
X9928Y119405D01*
X9926Y119385D01*
X9925Y119380D01*
X9925Y119375D01*
X9924Y119370D01*
X9923Y119365D01*
X9923Y119360D01*
X9922Y119355D01*
X9922Y119350D01*
X9921Y119345D01*
X9918Y119320D01*
X9918Y119315D01*
X9917Y119310D01*
X9917Y119305D01*
X9916Y119300D01*
X9916Y119295D01*
X9915Y119290D01*
X9914Y119285D01*
X9912Y119261D01*
X9911Y119256D01*
X9911Y119251D01*
X9910Y119246D01*
X9909Y119241D01*
X9909Y119236D01*
X9908Y119231D01*
X9908Y119226D01*
X9905Y119201D01*
X9904Y119196D01*
X9904Y119191D01*
X9903Y119186D01*
X9903Y119181D01*
X9902Y119176D01*
X9902Y119171D01*
X9901Y119166D01*
X9900Y119161D01*
X9898Y119141D01*
X9898Y119136D01*
X9897Y119131D01*
X9897Y119126D01*
X9896Y119121D01*
X9895Y119117D01*
X9895Y119116D01*
X9895Y119112D01*
X9895Y119111D01*
X9894Y119107D01*
X9894Y119102D01*
X9892Y119082D01*
X9891Y119077D01*
X9890Y119072D01*
X9890Y119067D01*
X9889Y119062D01*
X9889Y119057D01*
X9888Y119052D01*
X9888Y119047D01*
X9887Y119042D01*
X9885Y119022D01*
X9884Y119017D01*
X9884Y119012D01*
X9883Y119007D01*
X9883Y119002D01*
X9882Y118997D01*
X9881Y118992D01*
X9881Y118987D01*
X9880Y118982D01*
X9878Y118962D01*
X9878Y118958D01*
X9878Y118957D01*
X9877Y118953D01*
X9877Y118952D01*
X9876Y118948D01*
X9876Y118943D01*
X9875Y118938D01*
X9875Y118933D01*
X9874Y118928D01*
X9874Y118923D01*
X9871Y118903D01*
X9871Y118898D01*
X9870Y118893D01*
X9870Y118889D01*
X9500Y117833D01*
X8905Y116886D01*
X8114Y116095D01*
X7167Y115500D01*
X6111Y115130D01*
X6029Y115121D01*
X5985Y115116D01*
X5941Y115111D01*
X5897Y115106D01*
X5853Y115101D01*
X5809Y115096D01*
X5765Y115091D01*
X5721Y115086D01*
X5677Y115081D01*
X5633Y115076D01*
X5588Y115071D01*
X5544Y115066D01*
X5500Y115061D01*
X5456Y115056D01*
X5412Y115051D01*
X5368Y115046D01*
X5324Y115042D01*
X5280Y115037D01*
X5000Y115005D01*
X2500Y115005D01*
X2499Y115005D01*
X1387Y114880D01*
X1386Y114879D01*
X329Y114510D01*
X329Y114509D01*
X328Y114509D01*
X-620Y113913D01*
X-621Y113913D01*
X-1413Y113121D01*
X-1413Y113120D01*
X-2009Y112172D01*
X-2009Y112171D01*
X-2010Y112171D01*
X-2379Y111114D01*
X-2380Y111113D01*
X-2380Y111112D01*
X-2383Y111087D01*
X-2383Y111082D01*
X-2384Y111077D01*
X-2384Y111072D01*
X-2385Y111067D01*
X-2385Y111062D01*
X-2386Y111057D01*
X-2386Y111052D01*
X-2389Y111027D01*
X-2390Y111022D01*
X-2390Y111017D01*
X-2391Y111012D01*
X-2391Y111008D01*
X-2392Y111007D01*
X-2391Y111007D01*
X-2392Y111003D01*
X-2392Y111002D01*
X-2393Y110998D01*
X-2393Y110993D01*
X-2394Y110988D01*
X-2396Y110968D01*
X-2397Y110963D01*
X-2397Y110958D01*
X-2398Y110953D01*
X-2398Y110948D01*
X-2399Y110943D01*
X-2399Y110938D01*
X-2400Y110933D01*
X-2400Y110928D01*
X-2403Y110908D01*
X-2403Y110903D01*
X-2404Y110898D01*
X-2404Y110893D01*
X-2405Y110888D01*
X-2405Y110883D01*
X-2406Y110883D01*
X-2405Y110883D01*
X-2406Y110878D01*
X-2407Y110873D01*
X-2407Y110868D01*
X-2409Y110849D01*
X-2409Y110848D01*
X-2410Y110844D01*
X-2410Y110843D01*
X-2411Y110839D01*
X-2411Y110834D01*
X-2412Y110829D01*
X-2412Y110824D01*
X-2413Y110819D01*
X-2413Y110814D01*
X-2414Y110809D01*
X-2416Y110789D01*
X-2417Y110784D01*
X-2417Y110779D01*
X-2418Y110774D01*
X-2418Y110769D01*
X-2419Y110764D01*
X-2419Y110759D01*
X-2420Y110759D01*
X-2419Y110759D01*
X-2420Y110754D01*
X-2421Y110749D01*
X-2423Y110729D01*
X-2423Y110724D01*
X-2424Y110719D01*
X-2425Y110714D01*
X-2425Y110709D01*
X-2426Y110704D01*
X-2426Y110699D01*
X-2427Y110694D01*
X-2427Y110690D01*
X-2427Y110689D01*
X-2430Y110670D01*
X-2430Y110665D01*
X-2431Y110660D01*
X-2431Y110655D01*
X-2432Y110650D01*
X-2432Y110645D01*
X-2433Y110640D01*
X-2433Y110635D01*
X-2434Y110635D01*
X-2433Y110635D01*
X-2434Y110630D01*
X-2436Y110610D01*
X-2437Y110605D01*
X-2437Y110600D01*
X-2438Y110595D01*
X-2439Y110590D01*
X-2439Y110585D01*
X-2440Y110580D01*
X-2440Y110575D01*
X-2441Y110570D01*
X-2443Y110550D01*
X-2444Y110545D01*
X-2444Y110540D01*
X-2445Y110535D01*
X-2445Y110531D01*
X-2445Y110530D01*
X-2446Y110526D01*
X-2446Y110525D01*
X-2446Y110521D01*
X-2447Y110516D01*
X-2447Y110511D01*
X-2448Y110511D01*
X-2447Y110511D01*
X-2450Y110486D01*
X-2451Y110481D01*
X-2451Y110476D01*
X-2452Y110471D01*
X-2453Y110466D01*
X-2453Y110461D01*
X-2454Y110456D01*
X-2454Y110451D01*
X-2457Y110426D01*
X-2458Y110421D01*
X-2458Y110416D01*
X-2459Y110411D01*
X-2459Y110406D01*
X-2460Y110401D01*
X-2460Y110396D01*
X-2461Y110391D01*
X-2464Y110367D01*
X-2464Y110366D01*
X-2464Y110362D01*
X-2465Y110357D01*
X-2465Y110352D01*
X-2466Y110347D01*
X-2467Y110342D01*
X-2467Y110337D01*
X-2468Y110332D01*
X-2470Y110307D01*
X-2471Y110302D01*
X-2472Y110297D01*
X-2472Y110292D01*
X-2473Y110287D01*
X-2473Y110282D01*
X-2474Y110277D01*
X-2474Y110272D01*
X-2475Y110267D01*
X-2477Y110247D01*
X-2478Y110242D01*
X-2478Y110237D01*
X-2479Y110232D01*
X-2479Y110227D01*
X-2480Y110222D01*
X-2481Y110217D01*
X-2481Y110213D01*
X-2481Y110212D01*
X-2482Y110208D01*
X-2482Y110207D01*
X-2484Y110188D01*
X-2484Y110183D01*
X-2485Y110178D01*
X-2486Y110173D01*
X-2486Y110168D01*
X-2487Y110163D01*
X-2487Y110158D01*
X-2488Y110153D01*
X-2488Y110148D01*
X-2491Y110128D01*
X-2491Y110123D01*
X-2492Y110118D01*
X-2492Y110113D01*
X-2493Y110108D01*
X-2493Y110103D01*
X-2494Y110098D01*
X-2495Y110093D01*
X-2495Y110088D01*
X-2497Y110068D01*
X-2498Y110063D01*
X-2498Y110058D01*
X-2499Y110054D01*
X-2499Y110053D01*
X-2500Y110049D01*
X-2500Y110048D01*
X-2500Y110044D01*
X-2501Y110039D01*
X-2501Y110034D01*
X-2502Y110029D01*
X-2504Y110009D01*
X-2505Y110004D01*
X-2505Y110001D01*
X-2505Y110000D01*
X-2505Y99500D01*
X-2649Y98038D01*
X-3076Y96632D01*
X-3768Y95336D01*
X-4700Y94200D01*
X-5836Y93268D01*
X-7132Y92576D01*
X-8538Y92149D01*
X-10000Y92005D01*
X-145000Y92005D01*
X-146111Y92130D01*
X-147167Y92500D01*
X-148114Y93095D01*
X-148905Y93886D01*
X-149500Y94833D01*
X-149870Y95889D01*
X-149995Y97000D01*
X-149995Y110000D01*
X-149995Y110003D01*
X-149994Y110007D01*
X-149994Y110008D01*
X-149994Y110012D01*
X-149994Y110013D01*
X-149993Y110017D01*
X-149992Y110022D01*
X-149990Y110042D01*
X-149990Y110047D01*
X-149989Y110052D01*
X-149989Y110057D01*
X-149988Y110062D01*
X-149987Y110067D01*
X-149987Y110072D01*
X-149986Y110077D01*
X-149986Y110082D01*
X-149983Y110107D01*
X-149982Y110112D01*
X-149982Y110117D01*
X-149981Y110122D01*
X-149981Y110127D01*
X-149980Y110132D01*
X-149980Y110137D01*
X-149979Y110142D01*
X-149976Y110166D01*
X-149976Y110167D01*
X-149976Y110171D01*
X-149976Y110172D01*
X-149975Y110176D01*
X-149975Y110181D01*
X-149974Y110186D01*
X-149973Y110191D01*
X-149973Y110196D01*
X-149972Y110201D01*
X-149970Y110226D01*
X-149969Y110231D01*
X-149968Y110236D01*
X-149968Y110241D01*
X-149967Y110246D01*
X-149967Y110251D01*
X-149966Y110256D01*
X-149966Y110261D01*
X-149963Y110286D01*
X-149962Y110291D01*
X-149962Y110296D01*
X-149961Y110301D01*
X-149961Y110306D01*
X-149960Y110311D01*
X-149959Y110316D01*
X-149959Y110321D01*
X-149958Y110325D01*
X-149958Y110326D01*
X-149956Y110345D01*
X-149956Y110350D01*
X-149955Y110355D01*
X-149954Y110360D01*
X-149954Y110365D01*
X-149953Y110370D01*
X-149953Y110375D01*
X-149952Y110380D01*
X-149952Y110385D01*
X-149949Y110405D01*
X-149949Y110410D01*
X-149948Y110415D01*
X-149948Y110420D01*
X-149947Y110425D01*
X-149947Y110430D01*
X-149946Y110435D01*
X-149945Y110440D01*
X-149945Y110445D01*
X-149943Y110465D01*
X-149942Y110470D01*
X-149942Y110475D01*
X-149941Y110480D01*
X-149940Y110484D01*
X-149940Y110485D01*
X-149940Y110489D01*
X-149940Y110490D01*
X-149939Y110494D01*
X-149939Y110499D01*
X-149938Y110504D01*
X-149936Y110524D01*
X-149935Y110529D01*
X-149935Y110534D01*
X-149934Y110539D01*
X-149934Y110544D01*
X-149933Y110549D01*
X-149933Y110554D01*
X-149932Y110559D01*
X-149931Y110564D01*
X-149929Y110584D01*
X-149929Y110589D01*
X-149928Y110594D01*
X-149928Y110599D01*
X-149927Y110604D01*
X-149926Y110609D01*
X-149926Y110614D01*
X-149925Y110619D01*
X-149925Y110624D01*
X-149923Y110643D01*
X-149922Y110644D01*
X-149922Y110648D01*
X-149922Y110649D01*
X-149921Y110653D01*
X-149921Y110658D01*
X-149920Y110663D01*
X-149920Y110668D01*
X-149919Y110673D01*
X-149919Y110678D01*
X-149918Y110683D01*
X-149916Y110703D01*
X-149915Y110708D01*
X-149915Y110713D01*
X-149914Y110718D01*
X-149914Y110723D01*
X-149913Y110728D01*
X-149912Y110733D01*
X-149912Y110738D01*
X-149911Y110743D01*
X-149909Y110763D01*
X-149909Y110768D01*
X-149908Y110768D01*
X-149909Y110768D01*
X-149908Y110773D01*
X-149907Y110778D01*
X-149907Y110783D01*
X-149906Y110788D01*
X-149906Y110793D01*
X-149905Y110798D01*
X-149905Y110802D01*
X-149905Y110803D01*
X-149902Y110827D01*
X-149901Y110832D01*
X-149901Y110837D01*
X-149900Y110842D01*
X-149900Y110847D01*
X-149899Y110852D01*
X-149898Y110857D01*
X-149898Y110862D01*
X-149895Y110887D01*
X-149895Y110892D01*
X-149894Y110892D01*
X-149895Y110892D01*
X-149894Y110897D01*
X-149893Y110902D01*
X-149893Y110907D01*
X-149892Y110912D01*
X-149892Y110917D01*
X-149891Y110922D01*
X-149888Y110947D01*
X-149888Y110952D01*
X-149887Y110957D01*
X-149887Y110961D01*
X-149887Y110962D01*
X-149886Y110966D01*
X-149886Y110967D01*
X-149886Y110971D01*
X-149885Y110976D01*
X-149884Y110981D01*
X-149882Y111006D01*
X-149881Y111011D01*
X-149881Y111016D01*
X-149880Y111016D01*
X-149881Y111016D01*
X-149880Y111021D01*
X-149879Y111026D01*
X-149879Y111031D01*
X-149878Y111036D01*
X-149878Y111041D01*
X-149877Y111046D01*
X-149875Y111066D01*
X-149874Y111071D01*
X-149874Y111076D01*
X-149873Y111081D01*
X-149873Y111086D01*
X-149872Y111091D01*
X-149872Y111096D01*
X-149871Y111101D01*
X-149870Y111106D01*
X-149870Y111111D01*
X-149500Y112167D01*
X-148905Y113114D01*
X-148114Y113905D01*
X-147167Y114500D01*
X-146111Y114870D01*
X-145000Y114995D01*
X-142500Y114995D01*
X-142499Y114995D01*
X-141387Y115120D01*
X-141386Y115121D01*
X-140329Y115490D01*
X-140329Y115491D01*
X-140328Y115491D01*
X-139380Y116087D01*
X-139379Y116087D01*
X-138587Y116879D01*
X-138587Y116880D01*
X-137991Y117828D01*
X-137991Y117829D01*
X-137990Y117829D01*
X-137621Y118886D01*
X-137620Y118887D01*
X-137621Y118887D01*
X-137620Y118887D01*
X-137620Y118892D01*
X-137619Y118897D01*
X-137619Y118902D01*
X-137618Y118907D01*
X-137618Y118911D01*
X-137618Y118912D01*
X-137617Y118916D01*
X-137617Y118917D01*
X-137615Y118936D01*
X-137614Y118941D01*
X-137614Y118946D01*
X-137613Y118951D01*
X-137613Y118956D01*
X-137612Y118961D01*
X-137612Y118966D01*
X-137611Y118966D01*
X-137612Y118966D01*
X-137611Y118971D01*
X-137610Y118976D01*
X-137608Y119001D01*
X-137607Y119006D01*
X-137606Y119011D01*
X-137606Y119016D01*
X-137605Y119021D01*
X-137605Y119026D01*
X-137604Y119031D01*
X-137604Y119036D01*
X-137601Y119061D01*
X-137600Y119066D01*
X-137600Y119070D01*
X-137600Y119071D01*
X-137599Y119075D01*
X-137599Y119076D01*
X-137599Y119080D01*
X-137598Y119085D01*
X-137598Y119090D01*
X-137597Y119090D01*
X-137598Y119090D01*
X-137597Y119095D01*
X-137594Y119120D01*
X-137594Y119125D01*
X-137593Y119130D01*
X-137592Y119135D01*
X-137592Y119140D01*
X-137591Y119145D01*
X-137591Y119150D01*
X-137590Y119155D01*
X-137587Y119180D01*
X-137587Y119185D01*
X-137586Y119190D01*
X-137586Y119195D01*
X-137585Y119200D01*
X-137585Y119205D01*
X-137584Y119210D01*
X-137584Y119215D01*
X-137583Y119215D01*
X-137584Y119215D01*
X-137583Y119220D01*
X-137581Y119239D01*
X-137580Y119244D01*
X-137580Y119249D01*
X-137579Y119254D01*
X-137578Y119259D01*
X-137578Y119264D01*
X-137577Y119269D01*
X-137577Y119274D01*
X-137576Y119279D01*
X-137574Y119299D01*
X-137573Y119304D01*
X-137573Y119309D01*
X-137572Y119314D01*
X-137572Y119319D01*
X-137571Y119324D01*
X-137571Y119329D01*
X-137570Y119334D01*
X-137570Y119339D01*
X-137569Y119339D01*
X-137570Y119339D01*
X-137567Y119359D01*
X-137567Y119364D01*
X-137566Y119369D01*
X-137566Y119374D01*
X-137565Y119379D01*
X-137564Y119384D01*
X-137564Y119388D01*
X-137564Y119389D01*
X-137563Y119393D01*
X-137563Y119394D01*
X-137563Y119398D01*
X-137561Y119418D01*
X-137560Y119423D01*
X-137559Y119428D01*
X-137559Y119433D01*
X-137558Y119438D01*
X-137558Y119443D01*
X-137557Y119448D01*
X-137557Y119453D01*
X-137556Y119458D01*
X-137554Y119478D01*
X-137553Y119483D01*
X-137553Y119488D01*
X-137552Y119493D01*
X-137552Y119498D01*
X-137551Y119503D01*
X-137550Y119508D01*
X-137550Y119513D01*
X-137549Y119518D01*
X-137547Y119538D01*
X-137547Y119543D01*
X-137546Y119547D01*
X-137546Y119548D01*
X-137545Y119552D01*
X-137545Y119553D01*
X-137545Y119557D01*
X-137544Y119562D01*
X-137544Y119567D01*
X-137543Y119572D01*
X-137543Y119577D01*
X-137540Y119597D01*
X-137540Y119602D01*
X-137539Y119607D01*
X-137539Y119612D01*
X-137538Y119617D01*
X-137538Y119622D01*
X-137537Y119627D01*
X-137536Y119632D01*
X-137536Y119637D01*
X-137534Y119657D01*
X-137533Y119662D01*
X-137533Y119667D01*
X-137532Y119672D01*
X-137531Y119677D01*
X-137531Y119682D01*
X-137530Y119687D01*
X-137530Y119692D01*
X-137529Y119697D01*
X-137526Y119721D01*
X-137526Y119726D01*
X-137525Y119731D01*
X-137525Y119736D01*
X-137524Y119741D01*
X-137524Y119746D01*
X-137523Y119751D01*
X-137522Y119756D01*
X-137520Y119781D01*
X-137519Y119786D01*
X-137519Y119791D01*
X-137518Y119796D01*
X-137517Y119801D01*
X-137517Y119806D01*
X-137516Y119811D01*
X-137516Y119816D01*
X-137513Y119841D01*
X-137512Y119846D01*
X-137512Y119851D01*
X-137511Y119856D01*
X-137511Y119861D01*
X-137510Y119865D01*
X-137510Y119866D01*
X-137510Y119870D01*
X-137510Y119871D01*
X-137509Y119875D01*
X-137508Y119880D01*
X-137506Y119900D01*
X-137506Y119905D01*
X-137505Y119910D01*
X-137505Y119915D01*
X-137504Y119920D01*
X-137503Y119925D01*
X-137503Y119930D01*
X-137502Y119935D01*
X-137502Y119940D01*
X-137500Y119960D01*
X-137499Y119965D01*
X-137498Y119970D01*
X-137498Y119975D01*
X-137497Y119980D01*
X-137497Y119985D01*
X-137496Y119990D01*
X-137496Y119995D01*
X-137495Y119999D01*
X-137495Y120000D01*
X-137495Y135000D01*
X-137495Y135001D01*
X-137620Y136113D01*
X-137621Y136114D01*
X-137990Y137171D01*
X-137991Y137171D01*
X-137991Y137172D01*
X-138587Y138120D01*
X-138587Y138121D01*
X-139379Y138913D01*
X-139380Y138913D01*
X-140328Y139509D01*
X-140329Y139509D01*
X-140329Y139510D01*
X-141386Y139879D01*
X-141387Y139880D01*
X-142499Y140005D01*
X-142500Y140005D01*
X-175000Y140005D01*
X-175001Y140005D01*
X-176113Y139880D01*
X-176114Y139879D01*
X-177171Y139510D01*
X-177171Y139509D01*
X-177172Y139509D01*
X-178120Y138913D01*
X-178121Y138913D01*
X-178913Y138121D01*
X-178913Y138120D01*
X-179509Y137172D01*
X-179509Y137171D01*
X-179510Y137171D01*
X-179879Y136114D01*
X-179880Y136113D01*
X-179880Y136110D01*
X-179883Y136085D01*
X-179883Y136080D01*
X-179884Y136075D01*
X-179884Y136070D01*
X-179885Y136065D01*
X-179886Y136060D01*
X-179886Y136055D01*
X-179887Y136050D01*
X-179889Y136025D01*
X-179890Y136025D01*
X-179890Y136020D01*
X-179891Y136015D01*
X-179891Y136010D01*
X-179892Y136005D01*
X-179892Y136000D01*
X-179893Y135995D01*
X-179893Y135990D01*
X-179894Y135985D01*
X-179896Y135966D01*
X-179896Y135965D01*
X-179897Y135961D01*
X-179897Y135956D01*
X-179898Y135951D01*
X-179898Y135946D01*
X-179899Y135941D01*
X-179900Y135936D01*
X-179900Y135931D01*
X-179901Y135926D01*
X-179903Y135906D01*
X-179903Y135901D01*
X-179904Y135901D01*
X-179903Y135901D01*
X-179904Y135896D01*
X-179905Y135891D01*
X-179905Y135886D01*
X-179906Y135881D01*
X-179906Y135876D01*
X-179907Y135871D01*
X-179907Y135866D01*
X-179910Y135846D01*
X-179910Y135841D01*
X-179911Y135836D01*
X-179911Y135831D01*
X-179912Y135826D01*
X-179912Y135821D01*
X-179913Y135816D01*
X-179914Y135812D01*
X-179914Y135811D01*
X-179914Y135807D01*
X-179914Y135806D01*
X-179916Y135787D01*
X-179917Y135782D01*
X-179917Y135777D01*
X-179918Y135777D01*
X-179917Y135777D01*
X-179918Y135772D01*
X-179919Y135767D01*
X-179919Y135762D01*
X-179920Y135757D01*
X-179920Y135752D01*
X-179921Y135747D01*
X-179923Y135727D01*
X-179924Y135722D01*
X-179924Y135717D01*
X-179925Y135712D01*
X-179925Y135707D01*
X-179926Y135702D01*
X-179926Y135697D01*
X-179927Y135692D01*
X-179928Y135687D01*
X-179930Y135667D01*
X-179930Y135662D01*
X-179931Y135657D01*
X-179931Y135653D01*
X-179932Y135652D01*
X-179931Y135652D01*
X-179932Y135648D01*
X-179932Y135647D01*
X-179933Y135643D01*
X-179933Y135638D01*
X-179934Y135633D01*
X-179934Y135628D01*
X-179937Y135608D01*
X-179937Y135603D01*
X-179938Y135598D01*
X-179938Y135593D01*
X-179939Y135588D01*
X-179939Y135583D01*
X-179940Y135578D01*
X-179940Y135573D01*
X-179941Y135568D01*
X-179943Y135548D01*
X-179944Y135543D01*
X-179944Y135538D01*
X-179945Y135533D01*
X-179945Y135528D01*
X-179946Y135528D01*
X-179945Y135528D01*
X-179946Y135523D01*
X-179947Y135518D01*
X-179947Y135513D01*
X-179948Y135508D01*
X-179951Y135484D01*
X-179951Y135479D01*
X-179952Y135474D01*
X-179952Y135469D01*
X-179953Y135464D01*
X-179953Y135459D01*
X-179954Y135454D01*
X-179954Y135449D01*
X-179957Y135424D01*
X-179958Y135419D01*
X-179958Y135414D01*
X-179959Y135409D01*
X-179959Y135404D01*
X-179960Y135404D01*
X-179959Y135404D01*
X-179960Y135399D01*
X-179961Y135394D01*
X-179961Y135389D01*
X-179964Y135364D01*
X-179965Y135359D01*
X-179965Y135354D01*
X-179966Y135349D01*
X-179966Y135344D01*
X-179967Y135339D01*
X-179967Y135335D01*
X-179967Y135334D01*
X-179968Y135330D01*
X-179968Y135329D01*
X-179971Y135305D01*
X-179971Y135300D01*
X-179972Y135295D01*
X-179972Y135290D01*
X-179973Y135285D01*
X-179973Y135280D01*
X-179974Y135280D01*
X-179973Y135280D01*
X-179974Y135275D01*
X-179975Y135270D01*
X-179975Y135265D01*
X-179977Y135245D01*
X-179978Y135240D01*
X-179979Y135235D01*
X-179979Y135230D01*
X-179980Y135225D01*
X-179980Y135220D01*
X-179981Y135215D01*
X-179981Y135210D01*
X-179982Y135205D01*
X-179984Y135185D01*
X-179985Y135180D01*
X-179985Y135176D01*
X-179985Y135175D01*
X-179986Y135171D01*
X-179986Y135170D01*
X-179986Y135166D01*
X-179987Y135161D01*
X-179987Y135156D01*
X-179988Y135156D01*
X-179987Y135156D01*
X-179988Y135151D01*
X-179989Y135146D01*
X-179991Y135126D01*
X-179991Y135121D01*
X-179992Y135116D01*
X-179993Y135111D01*
X-179993Y135106D01*
X-179994Y135101D01*
X-179994Y135096D01*
X-179995Y135091D01*
X-179995Y135086D01*
X-179998Y135066D01*
X-179998Y135061D01*
X-179999Y135056D01*
X-179999Y135051D01*
X-180000Y135046D01*
X-180000Y135041D01*
X-180001Y135036D01*
X-180001Y135031D01*
X-180002Y135031D01*
X-180001Y135031D01*
X-180002Y135026D01*
X-180004Y135007D01*
X-180005Y135002D01*
X-180005Y135001D01*
X-180005Y135000D01*
X-180005Y-124500D01*
X-179853Y-126237D01*
X-179853Y-126238D01*
X-179402Y-127921D01*
X-179401Y-127922D01*
X-178665Y-129502D01*
X-178664Y-129502D01*
X-178664Y-129503D01*
X-177665Y-130931D01*
X-177664Y-130931D01*
X-176431Y-132164D01*
X-176431Y-132165D01*
X-175003Y-133164D01*
X-175002Y-133164D01*
X-175002Y-133165D01*
X-173422Y-133901D01*
X-173421Y-133902D01*
X-171738Y-134353D01*
X-171737Y-134353D01*
X-170000Y-134505D01*
X30000Y-134505D01*
X30000Y-134505D01*
G37*
%LPC*%
G36*
X666379Y192499D02*
X666379Y192499D01*
X659385Y194373D01*
X653114Y197994D01*
X647994Y203114D01*
X644373Y209385D01*
X642499Y216379D01*
X642499Y223621D01*
X644373Y230615D01*
X647994Y236886D01*
X653114Y242006D01*
X659385Y245627D01*
X666379Y247501D01*
X673621Y247501D01*
X680615Y245627D01*
X686886Y242006D01*
X692006Y236886D01*
X695627Y230615D01*
X697501Y223621D01*
X697501Y216379D01*
X695627Y209385D01*
X692006Y203114D01*
X686886Y197994D01*
X680615Y194373D01*
X673621Y192499D01*
X666379Y192499D01*
G37*
%LPD*%
%LPC*%
G36*
X666379Y-247501D02*
X666379Y-247501D01*
X659385Y-245627D01*
X653114Y-242006D01*
X647994Y-236886D01*
X644373Y-230615D01*
X642499Y-223621D01*
X642499Y-216379D01*
X644373Y-209385D01*
X647994Y-203114D01*
X653114Y-197994D01*
X659385Y-194373D01*
X666379Y-192499D01*
X673621Y-192499D01*
X680615Y-194373D01*
X686886Y-197994D01*
X692006Y-203114D01*
X695627Y-209385D01*
X697501Y-216379D01*
X697501Y-223621D01*
X695627Y-230615D01*
X692006Y-236886D01*
X686886Y-242006D01*
X680615Y-245627D01*
X673621Y-247501D01*
X666379Y-247501D01*
G37*
%LPD*%
%LPC*%
G36*
X616445Y272999D02*
X616445Y272999D01*
X609578Y274839D01*
X603421Y278394D01*
X598394Y283421D01*
X594839Y289578D01*
X592999Y296445D01*
X592999Y303555D01*
X594839Y310422D01*
X598394Y316579D01*
X603421Y321606D01*
X609578Y325161D01*
X616445Y327001D01*
X623555Y327001D01*
X630422Y325161D01*
X636579Y321606D01*
X641606Y316579D01*
X645161Y310422D01*
X647001Y303555D01*
X647001Y296445D01*
X645161Y289578D01*
X641606Y283421D01*
X636579Y278394D01*
X630422Y274839D01*
X623555Y272999D01*
X616445Y272999D01*
G37*
%LPD*%
%LPC*%
G36*
X616445Y-327001D02*
X616445Y-327001D01*
X609578Y-325161D01*
X603421Y-321606D01*
X598394Y-316579D01*
X594839Y-310422D01*
X592999Y-303555D01*
X592999Y-296445D01*
X594839Y-289578D01*
X598394Y-283421D01*
X603421Y-278394D01*
X609578Y-274839D01*
X616445Y-272999D01*
X623555Y-272999D01*
X630422Y-274839D01*
X636579Y-278394D01*
X641606Y-283421D01*
X645161Y-289578D01*
X647001Y-296445D01*
X647001Y-303555D01*
X645161Y-310422D01*
X641606Y-316579D01*
X636579Y-321606D01*
X630422Y-325161D01*
X623555Y-327001D01*
X616445Y-327001D01*
G37*
%LPD*%
%LPC*%
G36*
X-228555Y-27001D02*
X-228555Y-27001D01*
X-235422Y-25161D01*
X-241579Y-21606D01*
X-246606Y-16579D01*
X-250161Y-10422D01*
X-252001Y-3555D01*
X-252001Y3555D01*
X-250161Y10422D01*
X-246606Y16579D01*
X-241579Y21606D01*
X-235422Y25161D01*
X-228555Y27001D01*
X-221445Y27001D01*
X-214578Y25161D01*
X-208421Y21606D01*
X-203394Y16579D01*
X-199839Y10422D01*
X-197999Y3555D01*
X-197999Y-3555D01*
X-199839Y-10422D01*
X-203394Y-16579D01*
X-208421Y-21606D01*
X-214578Y-25161D01*
X-221445Y-27001D01*
X-228555Y-27001D01*
G37*
%LPD*%
%LPC*%
G36*
X806022Y115399D02*
X806022Y115399D01*
X798671Y118444D01*
X793044Y124071D01*
X789999Y131422D01*
X789999Y139378D01*
X793044Y146729D01*
X798671Y152356D01*
X806022Y155401D01*
X813978Y155401D01*
X821329Y152356D01*
X826956Y146729D01*
X830001Y139378D01*
X830001Y131422D01*
X826956Y124071D01*
X821329Y118444D01*
X813978Y115399D01*
X806022Y115399D01*
G37*
%LPD*%
%LPC*%
G36*
X806022Y64599D02*
X806022Y64599D01*
X798671Y67644D01*
X793044Y73271D01*
X789999Y80622D01*
X789999Y88578D01*
X793044Y95929D01*
X798671Y101556D01*
X806022Y104601D01*
X813978Y104601D01*
X821329Y101556D01*
X826956Y95929D01*
X830001Y88578D01*
X830001Y80622D01*
X826956Y73271D01*
X821329Y67644D01*
X813978Y64599D01*
X806022Y64599D01*
G37*
%LPD*%
%LPC*%
G36*
X806022Y-104601D02*
X806022Y-104601D01*
X798671Y-101556D01*
X793044Y-95929D01*
X789999Y-88578D01*
X789999Y-80622D01*
X793044Y-73271D01*
X798671Y-67644D01*
X806022Y-64599D01*
X813978Y-64599D01*
X821329Y-67644D01*
X826956Y-73271D01*
X830001Y-80622D01*
X830001Y-88578D01*
X826956Y-95929D01*
X821329Y-101556D01*
X813978Y-104601D01*
X806022Y-104601D01*
G37*
%LPD*%
%LPC*%
G36*
X806022Y-155401D02*
X806022Y-155401D01*
X798671Y-152356D01*
X793044Y-146729D01*
X789999Y-139378D01*
X789999Y-131422D01*
X793044Y-124071D01*
X798671Y-118444D01*
X806022Y-115399D01*
X813978Y-115399D01*
X821329Y-118444D01*
X826956Y-124071D01*
X830001Y-131422D01*
X830001Y-139378D01*
X826956Y-146729D01*
X821329Y-152356D01*
X813978Y-155401D01*
X806022Y-155401D01*
G37*
%LPD*%
%LPC*%
G36*
X675367Y-15751D02*
X675367Y-15751D01*
X669578Y-13353D01*
X665147Y-8922D01*
X662749Y-3133D01*
X662749Y3133D01*
X665147Y8922D01*
X669578Y13353D01*
X675367Y15751D01*
X681633Y15751D01*
X687422Y13353D01*
X691853Y8922D01*
X694251Y3133D01*
X694251Y-3133D01*
X691853Y-8922D01*
X687422Y-13353D01*
X681633Y-15751D01*
X675367Y-15751D01*
G37*
%LPD*%
%LPC*%
G36*
X18160Y9749D02*
X18160Y9749D01*
X14760Y11158D01*
X12158Y13760D01*
X10749Y17160D01*
X10749Y20840D01*
X12158Y24240D01*
X14760Y26842D01*
X18160Y28251D01*
X21840Y28251D01*
X25240Y26842D01*
X27842Y24240D01*
X29251Y20840D01*
X29251Y17160D01*
X27842Y13760D01*
X25240Y11158D01*
X21840Y9749D01*
X18160Y9749D01*
G37*
%LPD*%
%LPC*%
G36*
X-101840Y-19251D02*
X-101840Y-19251D01*
X-105240Y-17842D01*
X-107842Y-15240D01*
X-109251Y-11840D01*
X-109251Y-8160D01*
X-107842Y-4760D01*
X-105240Y-2158D01*
X-101840Y-749D01*
X-98160Y-749D01*
X-94760Y-2158D01*
X-92158Y-4760D01*
X-90749Y-8160D01*
X-90749Y-11840D01*
X-92158Y-15240D01*
X-94760Y-17842D01*
X-98160Y-19251D01*
X-101840Y-19251D01*
G37*
%LPD*%
%LPC*%
G36*
X-27216Y119324D02*
X-27216Y119324D01*
X-30295Y120599D01*
X-32651Y122955D01*
X-33926Y126034D01*
X-33926Y129366D01*
X-32651Y132445D01*
X-30295Y134801D01*
X-27216Y136076D01*
X-23884Y136076D01*
X-20805Y134801D01*
X-18449Y132445D01*
X-17174Y129366D01*
X-17174Y126034D01*
X-18449Y122955D01*
X-20805Y120599D01*
X-23884Y119324D01*
X-27216Y119324D01*
G37*
%LPD*%
%LPC*%
G36*
X-78016Y119324D02*
X-78016Y119324D01*
X-81095Y120599D01*
X-83451Y122955D01*
X-84726Y126034D01*
X-84726Y129366D01*
X-83451Y132445D01*
X-81095Y134801D01*
X-78016Y136076D01*
X-74684Y136076D01*
X-71605Y134801D01*
X-69249Y132445D01*
X-67974Y129366D01*
X-67974Y126034D01*
X-69249Y122955D01*
X-71605Y120599D01*
X-74684Y119324D01*
X-78016Y119324D01*
G37*
%LPD*%
%LPC*%
G36*
X-103416Y119324D02*
X-103416Y119324D01*
X-106495Y120599D01*
X-108851Y122955D01*
X-110126Y126034D01*
X-110126Y129366D01*
X-108851Y132445D01*
X-106495Y134801D01*
X-103416Y136076D01*
X-100084Y136076D01*
X-97005Y134801D01*
X-94649Y132445D01*
X-93374Y129366D01*
X-93374Y126034D01*
X-94649Y122955D01*
X-97005Y120599D01*
X-100084Y119324D01*
X-103416Y119324D01*
G37*
%LPD*%
%LPC*%
G36*
X-52616Y119324D02*
X-52616Y119324D01*
X-55695Y120599D01*
X-58051Y122955D01*
X-59326Y126034D01*
X-59326Y129366D01*
X-58051Y132445D01*
X-55695Y134801D01*
X-52616Y136076D01*
X-49284Y136076D01*
X-46205Y134801D01*
X-43849Y132445D01*
X-42574Y129366D01*
X-42574Y126034D01*
X-43849Y122955D01*
X-46205Y120599D01*
X-49284Y119324D01*
X-52616Y119324D01*
G37*
%LPD*%
%LPC*%
G36*
X795689Y-8097D02*
X795689Y-8097D01*
X792714Y-6864D01*
X790436Y-4586D01*
X789203Y-1611D01*
X789203Y1611D01*
X790436Y4586D01*
X792714Y6864D01*
X795689Y8097D01*
X798911Y8097D01*
X801886Y6864D01*
X804164Y4586D01*
X805397Y1611D01*
X805397Y-1611D01*
X804164Y-4586D01*
X801886Y-6864D01*
X798911Y-8097D01*
X795689Y-8097D01*
G37*
%LPD*%
%LPC*%
G36*
X221325Y56249D02*
X221325Y56249D01*
X218249Y59325D01*
X218249Y63675D01*
X221325Y66751D01*
X225675Y66751D01*
X228751Y63675D01*
X228751Y59325D01*
X225675Y56249D01*
X221325Y56249D01*
G37*
%LPD*%
%LPC*%
G36*
X221325Y43749D02*
X221325Y43749D01*
X218249Y46825D01*
X218249Y51175D01*
X221325Y54251D01*
X225675Y54251D01*
X228751Y51175D01*
X228751Y46825D01*
X225675Y43749D01*
X221325Y43749D01*
G37*
%LPD*%
%LPC*%
G36*
X-82175Y14749D02*
X-82175Y14749D01*
X-85251Y17825D01*
X-85251Y22175D01*
X-82175Y25251D01*
X-77825Y25251D01*
X-74749Y22175D01*
X-74749Y17825D01*
X-77825Y14749D01*
X-82175Y14749D01*
G37*
%LPD*%
%LPC*%
G36*
X121825Y-78751D02*
X121825Y-78751D01*
X118749Y-75675D01*
X118749Y-71325D01*
X121825Y-68249D01*
X126175Y-68249D01*
X129251Y-71325D01*
X129251Y-75675D01*
X126175Y-78751D01*
X121825Y-78751D01*
G37*
%LPD*%
%LPC*%
G36*
X145685Y-123111D02*
X145685Y-123111D01*
X142610Y-120035D01*
X142610Y-115685D01*
X145685Y-112610D01*
X150035Y-112610D01*
X153111Y-115685D01*
X153111Y-120035D01*
X150035Y-123111D01*
X145685Y-123111D01*
G37*
%LPD*%
D10*
X570000Y-220000D03*
X670000Y-220000D03*
X570000Y220000D03*
X670000Y220000D03*
D11*
X797300Y0D03*
X822700Y0D03*
D12*
X25250Y127700D03*
X12550Y102300D03*
X-150Y127700D03*
X-12850Y102300D03*
X-25550Y127700D03*
X-38250Y102300D03*
X-50950Y127700D03*
X-63650Y102300D03*
X-76350Y127700D03*
X-89050Y102300D03*
X-101750Y127700D03*
X-114450Y102300D03*
X-127150Y127700D03*
X-139850Y102300D03*
X-152550Y127700D03*
X-165250Y102300D03*
D13*
X810000Y135400D03*
X810000Y84600D03*
X810000Y-84600D03*
X810000Y-135400D03*
D14*
X223500Y-128000D03*
X223500Y-67500D03*
X223500Y102500D03*
X223500Y74500D03*
X223500Y-14500D03*
X177000Y15500D03*
X-196000Y138000D03*
X60000Y140000D03*
X80000Y140000D03*
X100000Y140000D03*
X120000Y140000D03*
X140000Y140000D03*
X160000Y140000D03*
X180000Y140000D03*
X-220000Y130000D03*
X-242000Y116000D03*
X-258000Y96000D03*
X-270000Y72000D03*
X-276000Y42000D03*
X-276000Y14000D03*
X-276000Y-16000D03*
X-276000Y-44000D03*
X-268000Y-68000D03*
X-258000Y-88000D03*
X-242000Y-108000D03*
X-222000Y-124000D03*
X-204000Y-136000D03*
X-180000Y-140000D03*
X-160000Y-140000D03*
X-140000Y-140000D03*
X-120000Y-140000D03*
X-100000Y-140000D03*
X-80000Y-140000D03*
X-60000Y-140000D03*
X-40000Y-140000D03*
X-20000Y-140000D03*
X40000Y-140000D03*
X60000Y-140000D03*
X80000Y-140000D03*
X100000Y-140000D03*
X120000Y-140000D03*
X140000Y-140000D03*
X160000Y-140000D03*
X180000Y-140000D03*
X200000Y-140000D03*
X25000Y-35000D03*
X25000Y-55000D03*
X5000Y-55000D03*
X-15000Y-55000D03*
X-15000Y-35000D03*
X-35000Y-55000D03*
X-35000Y-75000D03*
X-15000Y-75000D03*
X5000Y-75000D03*
X25000Y-75000D03*
X-195000Y-120000D03*
X-195000Y-95000D03*
X-220000Y-100000D03*
X-215000Y-75000D03*
X-240000Y-80000D03*
X-195000Y-75000D03*
X-195000Y-55000D03*
X-215000Y-55000D03*
X-235000Y-55000D03*
X-255000Y-55000D03*
X-255000Y45000D03*
X-235000Y45000D03*
X-215000Y45000D03*
X-195000Y45000D03*
X-195000Y65000D03*
X-215000Y65000D03*
X-235000Y65000D03*
X-255000Y70000D03*
X-235000Y90000D03*
X-215000Y90000D03*
X-195000Y90000D03*
X-215000Y110000D03*
X-195000Y115000D03*
X-195000Y-35000D03*
X-255000Y-35000D03*
X-85000Y55000D03*
X140000Y90000D03*
X195000Y90000D03*
X205000Y120000D03*
X100000Y100000D03*
X20000Y-130000D03*
X20000Y-120000D03*
X20000Y-110000D03*
X20000Y-100000D03*
X30000Y-100000D03*
X30000Y-110000D03*
X30000Y-120000D03*
X30000Y-130000D03*
X-106500Y50500D03*
X-96000Y40000D03*
X124000Y-73500D03*
X147860Y-117860D03*
X20000Y19000D03*
X-100000Y-10000D03*
X436000Y-30000D03*
X520000Y80000D03*
X520000Y70000D03*
X510000Y70000D03*
X510000Y80000D03*
X500000Y80000D03*
X500000Y70000D03*
X480000Y70000D03*
X480000Y80000D03*
X490000Y80000D03*
X490000Y70000D03*
X613500Y0D03*
D15*
X796604Y-26096D02*
X822700Y0D01*
X796604Y-26096D02*
X796370Y-26324D01*
X796130Y-26547D01*
X795885Y-26764D01*
X795635Y-26974D01*
X795379Y-27179D01*
X795119Y-27377D01*
X794854Y-27569D01*
X794584Y-27754D01*
X794310Y-27932D01*
X794031Y-28104D01*
X793749Y-28268D01*
X793462Y-28426D01*
X793172Y-28577D01*
X792878Y-28720D01*
X792580Y-28856D01*
X792280Y-28985D01*
X791976Y-29107D01*
X791669Y-29221D01*
X791360Y-29327D01*
X791048Y-29426D01*
X790734Y-29517D01*
X790418Y-29601D01*
X790099Y-29676D01*
X789779Y-29744D01*
X789458Y-29804D01*
X789135Y-29856D01*
X788811Y-29900D01*
X788485Y-29936D01*
X788160Y-29964D01*
X787833Y-29984D01*
X787506Y-29996D01*
X787179Y-30000D01*
X636061Y-22561D02*
X613500Y0D01*
X636060Y-22561D02*
X636493Y-22983D01*
X636935Y-23395D01*
X637388Y-23796D01*
X637849Y-24186D01*
X638320Y-24566D01*
X638799Y-24934D01*
X639288Y-25290D01*
X639784Y-25635D01*
X640289Y-25968D01*
X640801Y-26289D01*
X641321Y-26597D01*
X641848Y-26893D01*
X642382Y-27176D01*
X642923Y-27447D01*
X643469Y-27705D01*
X644022Y-27949D01*
X644581Y-28181D01*
X645145Y-28399D01*
X645713Y-28603D01*
X646287Y-28794D01*
X646865Y-28971D01*
X647447Y-29135D01*
X648033Y-29284D01*
X648622Y-29420D01*
X649214Y-29541D01*
X649809Y-29648D01*
X650406Y-29741D01*
X651006Y-29820D01*
X651607Y-29885D01*
X652209Y-29935D01*
X652812Y-29971D01*
X653417Y-29993D01*
X654021Y-30000D01*
X787179Y-30000D01*
D14*
X350000Y-67500D03*
X678500Y0D03*
X462500Y-9500D03*
X440000Y112000D03*
X-80000Y20000D03*
X223500Y61500D03*
X223500Y49000D03*
M02*
