G04 EAGLE Gerber RS-274X export*
G75*
%MOMM*%
%FSLAX34Y34*%
%LPD*%
%INCopper Layer 2*%
%IPPOS*%
%AMOC8*
5,1,8,0,0,1.08239X$1,22.5*%
G01*
%ADD10C,3.000000*%
%ADD11C,1.219200*%
%ADD12C,1.275000*%
%ADD13C,1.500000*%
%ADD14C,0.650000*%
%ADD15C,0.609600*%
%ADD16C,0.254000*%

G36*
X-164193Y-144988D02*
X-164193Y-144988D01*
X-164122Y-144986D01*
X-164073Y-144968D01*
X-164021Y-144960D01*
X-163958Y-144926D01*
X-163891Y-144901D01*
X-163850Y-144869D01*
X-163804Y-144844D01*
X-163755Y-144792D01*
X-163699Y-144748D01*
X-163671Y-144704D01*
X-163635Y-144666D01*
X-163605Y-144601D01*
X-163566Y-144541D01*
X-163553Y-144490D01*
X-163531Y-144443D01*
X-163523Y-144372D01*
X-163506Y-144302D01*
X-163510Y-144250D01*
X-163504Y-144199D01*
X-163519Y-144128D01*
X-163525Y-144057D01*
X-163545Y-144009D01*
X-163556Y-143958D01*
X-163593Y-143897D01*
X-163621Y-143831D01*
X-163666Y-143775D01*
X-163682Y-143747D01*
X-163700Y-143732D01*
X-163726Y-143700D01*
X-165251Y-142175D01*
X-165251Y-137825D01*
X-162175Y-134749D01*
X-157825Y-134749D01*
X-154749Y-137825D01*
X-154749Y-142175D01*
X-156274Y-143700D01*
X-156316Y-143758D01*
X-156365Y-143810D01*
X-156387Y-143857D01*
X-156418Y-143899D01*
X-156439Y-143968D01*
X-156469Y-144033D01*
X-156475Y-144085D01*
X-156490Y-144135D01*
X-156488Y-144206D01*
X-156496Y-144277D01*
X-156485Y-144328D01*
X-156484Y-144380D01*
X-156459Y-144448D01*
X-156444Y-144518D01*
X-156417Y-144563D01*
X-156399Y-144611D01*
X-156354Y-144667D01*
X-156318Y-144729D01*
X-156278Y-144763D01*
X-156245Y-144803D01*
X-156185Y-144842D01*
X-156131Y-144889D01*
X-156082Y-144908D01*
X-156039Y-144936D01*
X-155969Y-144954D01*
X-155903Y-144981D01*
X-155831Y-144989D01*
X-155800Y-144997D01*
X-155777Y-144995D01*
X-155736Y-144999D01*
X-144264Y-144999D01*
X-144193Y-144988D01*
X-144122Y-144986D01*
X-144073Y-144968D01*
X-144021Y-144960D01*
X-143958Y-144926D01*
X-143891Y-144901D01*
X-143850Y-144869D01*
X-143804Y-144844D01*
X-143755Y-144792D01*
X-143699Y-144748D01*
X-143671Y-144704D01*
X-143635Y-144666D01*
X-143605Y-144601D01*
X-143566Y-144541D01*
X-143553Y-144490D01*
X-143531Y-144443D01*
X-143523Y-144372D01*
X-143506Y-144302D01*
X-143510Y-144250D01*
X-143504Y-144199D01*
X-143519Y-144128D01*
X-143525Y-144057D01*
X-143545Y-144009D01*
X-143556Y-143958D01*
X-143593Y-143897D01*
X-143621Y-143831D01*
X-143666Y-143775D01*
X-143682Y-143747D01*
X-143700Y-143732D01*
X-143726Y-143700D01*
X-145251Y-142175D01*
X-145251Y-137825D01*
X-142175Y-134749D01*
X-137825Y-134749D01*
X-134749Y-137825D01*
X-134749Y-142175D01*
X-136274Y-143700D01*
X-136316Y-143758D01*
X-136365Y-143810D01*
X-136387Y-143857D01*
X-136418Y-143899D01*
X-136439Y-143968D01*
X-136469Y-144033D01*
X-136475Y-144085D01*
X-136490Y-144135D01*
X-136488Y-144206D01*
X-136496Y-144277D01*
X-136485Y-144328D01*
X-136484Y-144380D01*
X-136459Y-144448D01*
X-136444Y-144518D01*
X-136417Y-144563D01*
X-136399Y-144611D01*
X-136354Y-144667D01*
X-136318Y-144729D01*
X-136278Y-144763D01*
X-136245Y-144803D01*
X-136185Y-144842D01*
X-136131Y-144889D01*
X-136082Y-144908D01*
X-136039Y-144936D01*
X-135969Y-144954D01*
X-135903Y-144981D01*
X-135831Y-144989D01*
X-135800Y-144997D01*
X-135777Y-144995D01*
X-135736Y-144999D01*
X-124264Y-144999D01*
X-124193Y-144988D01*
X-124122Y-144986D01*
X-124073Y-144968D01*
X-124021Y-144960D01*
X-123958Y-144926D01*
X-123891Y-144901D01*
X-123850Y-144869D01*
X-123804Y-144844D01*
X-123755Y-144792D01*
X-123699Y-144748D01*
X-123671Y-144704D01*
X-123635Y-144666D01*
X-123605Y-144601D01*
X-123566Y-144541D01*
X-123553Y-144490D01*
X-123531Y-144443D01*
X-123523Y-144372D01*
X-123506Y-144302D01*
X-123510Y-144250D01*
X-123504Y-144199D01*
X-123519Y-144128D01*
X-123525Y-144057D01*
X-123545Y-144009D01*
X-123556Y-143958D01*
X-123593Y-143897D01*
X-123621Y-143831D01*
X-123666Y-143775D01*
X-123682Y-143747D01*
X-123700Y-143732D01*
X-123726Y-143700D01*
X-125251Y-142175D01*
X-125251Y-137825D01*
X-122175Y-134749D01*
X-117825Y-134749D01*
X-114749Y-137825D01*
X-114749Y-142175D01*
X-116274Y-143700D01*
X-116316Y-143758D01*
X-116365Y-143810D01*
X-116387Y-143857D01*
X-116418Y-143899D01*
X-116439Y-143968D01*
X-116469Y-144033D01*
X-116475Y-144085D01*
X-116490Y-144135D01*
X-116488Y-144206D01*
X-116496Y-144277D01*
X-116485Y-144328D01*
X-116484Y-144380D01*
X-116459Y-144448D01*
X-116444Y-144518D01*
X-116417Y-144563D01*
X-116399Y-144611D01*
X-116354Y-144667D01*
X-116318Y-144729D01*
X-116278Y-144763D01*
X-116245Y-144803D01*
X-116185Y-144842D01*
X-116131Y-144889D01*
X-116082Y-144908D01*
X-116039Y-144936D01*
X-115969Y-144954D01*
X-115903Y-144981D01*
X-115831Y-144989D01*
X-115800Y-144997D01*
X-115777Y-144995D01*
X-115736Y-144999D01*
X-104264Y-144999D01*
X-104193Y-144988D01*
X-104122Y-144986D01*
X-104073Y-144968D01*
X-104021Y-144960D01*
X-103958Y-144926D01*
X-103891Y-144901D01*
X-103850Y-144869D01*
X-103804Y-144844D01*
X-103755Y-144792D01*
X-103699Y-144748D01*
X-103671Y-144704D01*
X-103635Y-144666D01*
X-103605Y-144601D01*
X-103566Y-144541D01*
X-103553Y-144490D01*
X-103531Y-144443D01*
X-103523Y-144372D01*
X-103506Y-144302D01*
X-103510Y-144250D01*
X-103504Y-144199D01*
X-103519Y-144128D01*
X-103525Y-144057D01*
X-103545Y-144009D01*
X-103556Y-143958D01*
X-103593Y-143897D01*
X-103621Y-143831D01*
X-103666Y-143775D01*
X-103682Y-143747D01*
X-103700Y-143732D01*
X-103726Y-143700D01*
X-105251Y-142175D01*
X-105251Y-137825D01*
X-102175Y-134749D01*
X-97825Y-134749D01*
X-94749Y-137825D01*
X-94749Y-142175D01*
X-96274Y-143700D01*
X-96316Y-143758D01*
X-96365Y-143810D01*
X-96387Y-143857D01*
X-96418Y-143899D01*
X-96439Y-143968D01*
X-96469Y-144033D01*
X-96475Y-144085D01*
X-96490Y-144135D01*
X-96488Y-144206D01*
X-96496Y-144277D01*
X-96485Y-144328D01*
X-96484Y-144380D01*
X-96459Y-144448D01*
X-96444Y-144518D01*
X-96417Y-144563D01*
X-96399Y-144611D01*
X-96354Y-144667D01*
X-96318Y-144729D01*
X-96278Y-144763D01*
X-96245Y-144803D01*
X-96185Y-144842D01*
X-96131Y-144889D01*
X-96082Y-144908D01*
X-96039Y-144936D01*
X-95969Y-144954D01*
X-95903Y-144981D01*
X-95831Y-144989D01*
X-95800Y-144997D01*
X-95777Y-144995D01*
X-95736Y-144999D01*
X-84264Y-144999D01*
X-84193Y-144988D01*
X-84122Y-144986D01*
X-84073Y-144968D01*
X-84021Y-144960D01*
X-83958Y-144926D01*
X-83891Y-144901D01*
X-83850Y-144869D01*
X-83804Y-144844D01*
X-83755Y-144792D01*
X-83699Y-144748D01*
X-83671Y-144704D01*
X-83635Y-144666D01*
X-83605Y-144601D01*
X-83566Y-144541D01*
X-83553Y-144490D01*
X-83531Y-144443D01*
X-83523Y-144372D01*
X-83506Y-144302D01*
X-83510Y-144250D01*
X-83504Y-144199D01*
X-83519Y-144128D01*
X-83525Y-144057D01*
X-83545Y-144009D01*
X-83556Y-143958D01*
X-83593Y-143897D01*
X-83621Y-143831D01*
X-83666Y-143775D01*
X-83682Y-143747D01*
X-83700Y-143732D01*
X-83726Y-143700D01*
X-85251Y-142175D01*
X-85251Y-137825D01*
X-82175Y-134749D01*
X-77825Y-134749D01*
X-74749Y-137825D01*
X-74749Y-142175D01*
X-76274Y-143700D01*
X-76316Y-143758D01*
X-76365Y-143810D01*
X-76387Y-143857D01*
X-76418Y-143899D01*
X-76439Y-143968D01*
X-76469Y-144033D01*
X-76475Y-144085D01*
X-76490Y-144135D01*
X-76488Y-144206D01*
X-76496Y-144277D01*
X-76485Y-144328D01*
X-76484Y-144380D01*
X-76459Y-144448D01*
X-76444Y-144518D01*
X-76417Y-144563D01*
X-76399Y-144611D01*
X-76354Y-144667D01*
X-76318Y-144729D01*
X-76278Y-144763D01*
X-76245Y-144803D01*
X-76185Y-144842D01*
X-76131Y-144889D01*
X-76082Y-144908D01*
X-76039Y-144936D01*
X-75969Y-144954D01*
X-75903Y-144981D01*
X-75831Y-144989D01*
X-75800Y-144997D01*
X-75777Y-144995D01*
X-75736Y-144999D01*
X-64264Y-144999D01*
X-64193Y-144988D01*
X-64122Y-144986D01*
X-64073Y-144968D01*
X-64021Y-144960D01*
X-63958Y-144926D01*
X-63891Y-144901D01*
X-63850Y-144869D01*
X-63804Y-144844D01*
X-63755Y-144792D01*
X-63699Y-144748D01*
X-63671Y-144704D01*
X-63635Y-144666D01*
X-63605Y-144601D01*
X-63566Y-144541D01*
X-63553Y-144490D01*
X-63531Y-144443D01*
X-63523Y-144372D01*
X-63506Y-144302D01*
X-63510Y-144250D01*
X-63504Y-144199D01*
X-63519Y-144128D01*
X-63525Y-144057D01*
X-63545Y-144009D01*
X-63556Y-143958D01*
X-63593Y-143897D01*
X-63621Y-143831D01*
X-63666Y-143775D01*
X-63682Y-143747D01*
X-63700Y-143732D01*
X-63726Y-143700D01*
X-65251Y-142175D01*
X-65251Y-137825D01*
X-62175Y-134749D01*
X-57825Y-134749D01*
X-54749Y-137825D01*
X-54749Y-142175D01*
X-56274Y-143700D01*
X-56316Y-143758D01*
X-56365Y-143810D01*
X-56387Y-143857D01*
X-56418Y-143899D01*
X-56439Y-143968D01*
X-56469Y-144033D01*
X-56475Y-144085D01*
X-56490Y-144135D01*
X-56488Y-144206D01*
X-56496Y-144277D01*
X-56485Y-144328D01*
X-56484Y-144380D01*
X-56459Y-144448D01*
X-56444Y-144518D01*
X-56417Y-144563D01*
X-56399Y-144611D01*
X-56354Y-144667D01*
X-56318Y-144729D01*
X-56278Y-144763D01*
X-56245Y-144803D01*
X-56185Y-144842D01*
X-56131Y-144889D01*
X-56082Y-144908D01*
X-56039Y-144936D01*
X-55969Y-144954D01*
X-55903Y-144981D01*
X-55831Y-144989D01*
X-55800Y-144997D01*
X-55777Y-144995D01*
X-55736Y-144999D01*
X-44264Y-144999D01*
X-44193Y-144988D01*
X-44122Y-144986D01*
X-44073Y-144968D01*
X-44021Y-144960D01*
X-43958Y-144926D01*
X-43891Y-144901D01*
X-43850Y-144869D01*
X-43804Y-144844D01*
X-43755Y-144792D01*
X-43699Y-144748D01*
X-43671Y-144704D01*
X-43635Y-144666D01*
X-43605Y-144601D01*
X-43566Y-144541D01*
X-43553Y-144490D01*
X-43531Y-144443D01*
X-43523Y-144372D01*
X-43506Y-144302D01*
X-43510Y-144250D01*
X-43504Y-144199D01*
X-43519Y-144128D01*
X-43525Y-144057D01*
X-43545Y-144009D01*
X-43556Y-143958D01*
X-43593Y-143897D01*
X-43621Y-143831D01*
X-43666Y-143775D01*
X-43682Y-143747D01*
X-43700Y-143732D01*
X-43726Y-143700D01*
X-45251Y-142175D01*
X-45251Y-137825D01*
X-42175Y-134749D01*
X-37825Y-134749D01*
X-34749Y-137825D01*
X-34749Y-142175D01*
X-36274Y-143700D01*
X-36316Y-143758D01*
X-36365Y-143810D01*
X-36387Y-143857D01*
X-36418Y-143899D01*
X-36439Y-143968D01*
X-36469Y-144033D01*
X-36475Y-144085D01*
X-36490Y-144135D01*
X-36488Y-144206D01*
X-36496Y-144277D01*
X-36485Y-144328D01*
X-36484Y-144380D01*
X-36459Y-144448D01*
X-36444Y-144518D01*
X-36417Y-144563D01*
X-36399Y-144611D01*
X-36354Y-144667D01*
X-36318Y-144729D01*
X-36278Y-144763D01*
X-36245Y-144803D01*
X-36185Y-144842D01*
X-36131Y-144889D01*
X-36082Y-144908D01*
X-36039Y-144936D01*
X-35969Y-144954D01*
X-35903Y-144981D01*
X-35831Y-144989D01*
X-35800Y-144997D01*
X-35777Y-144995D01*
X-35736Y-144999D01*
X-24264Y-144999D01*
X-24193Y-144988D01*
X-24122Y-144986D01*
X-24073Y-144968D01*
X-24021Y-144960D01*
X-23958Y-144926D01*
X-23891Y-144901D01*
X-23850Y-144869D01*
X-23804Y-144844D01*
X-23755Y-144792D01*
X-23699Y-144748D01*
X-23671Y-144704D01*
X-23635Y-144666D01*
X-23605Y-144601D01*
X-23566Y-144541D01*
X-23553Y-144490D01*
X-23531Y-144443D01*
X-23523Y-144372D01*
X-23506Y-144302D01*
X-23510Y-144250D01*
X-23504Y-144199D01*
X-23519Y-144128D01*
X-23525Y-144057D01*
X-23545Y-144009D01*
X-23556Y-143958D01*
X-23593Y-143897D01*
X-23621Y-143831D01*
X-23666Y-143775D01*
X-23682Y-143747D01*
X-23700Y-143732D01*
X-23726Y-143700D01*
X-25251Y-142175D01*
X-25251Y-137825D01*
X-22175Y-134749D01*
X-17825Y-134749D01*
X-14749Y-137825D01*
X-14749Y-142175D01*
X-16274Y-143700D01*
X-16316Y-143758D01*
X-16365Y-143810D01*
X-16387Y-143857D01*
X-16418Y-143899D01*
X-16439Y-143968D01*
X-16469Y-144033D01*
X-16475Y-144085D01*
X-16490Y-144135D01*
X-16488Y-144206D01*
X-16496Y-144277D01*
X-16485Y-144328D01*
X-16484Y-144380D01*
X-16459Y-144448D01*
X-16444Y-144518D01*
X-16417Y-144563D01*
X-16399Y-144611D01*
X-16354Y-144667D01*
X-16318Y-144729D01*
X-16278Y-144763D01*
X-16245Y-144803D01*
X-16185Y-144842D01*
X-16131Y-144889D01*
X-16082Y-144908D01*
X-16039Y-144936D01*
X-15969Y-144954D01*
X-15903Y-144981D01*
X-15831Y-144989D01*
X-15800Y-144997D01*
X-15777Y-144995D01*
X-15736Y-144999D01*
X35736Y-144999D01*
X35807Y-144988D01*
X35878Y-144986D01*
X35927Y-144968D01*
X35979Y-144960D01*
X36042Y-144926D01*
X36109Y-144901D01*
X36150Y-144869D01*
X36196Y-144844D01*
X36245Y-144792D01*
X36301Y-144748D01*
X36329Y-144704D01*
X36365Y-144666D01*
X36395Y-144601D01*
X36434Y-144541D01*
X36447Y-144490D01*
X36469Y-144443D01*
X36477Y-144372D01*
X36494Y-144302D01*
X36490Y-144250D01*
X36496Y-144199D01*
X36481Y-144128D01*
X36475Y-144057D01*
X36455Y-144009D01*
X36444Y-143958D01*
X36407Y-143897D01*
X36379Y-143831D01*
X36334Y-143775D01*
X36318Y-143747D01*
X36300Y-143732D01*
X36274Y-143700D01*
X34749Y-142175D01*
X34749Y-137825D01*
X37825Y-134749D01*
X42175Y-134749D01*
X45251Y-137825D01*
X45251Y-142175D01*
X43726Y-143700D01*
X43684Y-143758D01*
X43635Y-143810D01*
X43613Y-143857D01*
X43582Y-143899D01*
X43561Y-143968D01*
X43531Y-144033D01*
X43525Y-144085D01*
X43510Y-144135D01*
X43512Y-144206D01*
X43504Y-144277D01*
X43515Y-144328D01*
X43516Y-144380D01*
X43541Y-144448D01*
X43556Y-144518D01*
X43583Y-144563D01*
X43601Y-144611D01*
X43646Y-144667D01*
X43682Y-144729D01*
X43722Y-144763D01*
X43755Y-144803D01*
X43815Y-144842D01*
X43869Y-144889D01*
X43918Y-144908D01*
X43961Y-144936D01*
X44031Y-144954D01*
X44097Y-144981D01*
X44169Y-144989D01*
X44200Y-144997D01*
X44223Y-144995D01*
X44264Y-144999D01*
X55736Y-144999D01*
X55807Y-144988D01*
X55878Y-144986D01*
X55927Y-144968D01*
X55979Y-144960D01*
X56042Y-144926D01*
X56109Y-144901D01*
X56150Y-144869D01*
X56196Y-144844D01*
X56245Y-144792D01*
X56301Y-144748D01*
X56329Y-144704D01*
X56365Y-144666D01*
X56395Y-144601D01*
X56434Y-144541D01*
X56447Y-144490D01*
X56469Y-144443D01*
X56477Y-144372D01*
X56494Y-144302D01*
X56490Y-144250D01*
X56496Y-144199D01*
X56481Y-144128D01*
X56475Y-144057D01*
X56455Y-144009D01*
X56444Y-143958D01*
X56407Y-143897D01*
X56379Y-143831D01*
X56334Y-143775D01*
X56318Y-143747D01*
X56300Y-143732D01*
X56274Y-143700D01*
X54749Y-142175D01*
X54749Y-137825D01*
X57825Y-134749D01*
X62175Y-134749D01*
X65251Y-137825D01*
X65251Y-142175D01*
X63726Y-143700D01*
X63684Y-143758D01*
X63635Y-143810D01*
X63613Y-143857D01*
X63582Y-143899D01*
X63561Y-143968D01*
X63531Y-144033D01*
X63525Y-144085D01*
X63510Y-144135D01*
X63512Y-144206D01*
X63504Y-144277D01*
X63515Y-144328D01*
X63516Y-144380D01*
X63541Y-144448D01*
X63556Y-144518D01*
X63583Y-144563D01*
X63601Y-144611D01*
X63646Y-144667D01*
X63682Y-144729D01*
X63722Y-144763D01*
X63755Y-144803D01*
X63815Y-144842D01*
X63869Y-144889D01*
X63918Y-144908D01*
X63961Y-144936D01*
X64031Y-144954D01*
X64097Y-144981D01*
X64169Y-144989D01*
X64200Y-144997D01*
X64223Y-144995D01*
X64264Y-144999D01*
X75736Y-144999D01*
X75807Y-144988D01*
X75878Y-144986D01*
X75927Y-144968D01*
X75979Y-144960D01*
X76042Y-144926D01*
X76109Y-144901D01*
X76150Y-144869D01*
X76196Y-144844D01*
X76245Y-144792D01*
X76301Y-144748D01*
X76329Y-144704D01*
X76365Y-144666D01*
X76395Y-144601D01*
X76434Y-144541D01*
X76447Y-144490D01*
X76469Y-144443D01*
X76477Y-144372D01*
X76494Y-144302D01*
X76490Y-144250D01*
X76496Y-144199D01*
X76481Y-144128D01*
X76475Y-144057D01*
X76455Y-144009D01*
X76444Y-143958D01*
X76407Y-143897D01*
X76379Y-143831D01*
X76334Y-143775D01*
X76318Y-143747D01*
X76300Y-143732D01*
X76274Y-143700D01*
X74749Y-142175D01*
X74749Y-137825D01*
X77825Y-134749D01*
X82175Y-134749D01*
X85251Y-137825D01*
X85251Y-142175D01*
X83726Y-143700D01*
X83684Y-143758D01*
X83635Y-143810D01*
X83613Y-143857D01*
X83582Y-143899D01*
X83561Y-143968D01*
X83531Y-144033D01*
X83525Y-144085D01*
X83510Y-144135D01*
X83512Y-144206D01*
X83504Y-144277D01*
X83515Y-144328D01*
X83516Y-144380D01*
X83541Y-144448D01*
X83556Y-144518D01*
X83583Y-144563D01*
X83601Y-144611D01*
X83646Y-144667D01*
X83682Y-144729D01*
X83722Y-144763D01*
X83755Y-144803D01*
X83815Y-144842D01*
X83869Y-144889D01*
X83918Y-144908D01*
X83961Y-144936D01*
X84031Y-144954D01*
X84097Y-144981D01*
X84169Y-144989D01*
X84200Y-144997D01*
X84223Y-144995D01*
X84264Y-144999D01*
X95736Y-144999D01*
X95807Y-144988D01*
X95878Y-144986D01*
X95927Y-144968D01*
X95979Y-144960D01*
X96042Y-144926D01*
X96109Y-144901D01*
X96150Y-144869D01*
X96196Y-144844D01*
X96245Y-144792D01*
X96301Y-144748D01*
X96329Y-144704D01*
X96365Y-144666D01*
X96395Y-144601D01*
X96434Y-144541D01*
X96447Y-144490D01*
X96469Y-144443D01*
X96477Y-144372D01*
X96494Y-144302D01*
X96490Y-144250D01*
X96496Y-144199D01*
X96481Y-144128D01*
X96475Y-144057D01*
X96455Y-144009D01*
X96444Y-143958D01*
X96407Y-143897D01*
X96379Y-143831D01*
X96334Y-143775D01*
X96318Y-143747D01*
X96300Y-143732D01*
X96274Y-143700D01*
X94749Y-142175D01*
X94749Y-137825D01*
X97825Y-134749D01*
X102175Y-134749D01*
X105251Y-137825D01*
X105251Y-142175D01*
X103726Y-143700D01*
X103684Y-143758D01*
X103635Y-143810D01*
X103613Y-143857D01*
X103582Y-143899D01*
X103561Y-143968D01*
X103531Y-144033D01*
X103525Y-144085D01*
X103510Y-144135D01*
X103512Y-144206D01*
X103504Y-144277D01*
X103515Y-144328D01*
X103516Y-144380D01*
X103541Y-144448D01*
X103556Y-144518D01*
X103583Y-144563D01*
X103601Y-144611D01*
X103646Y-144667D01*
X103682Y-144729D01*
X103722Y-144763D01*
X103755Y-144803D01*
X103815Y-144842D01*
X103869Y-144889D01*
X103918Y-144908D01*
X103961Y-144936D01*
X104031Y-144954D01*
X104097Y-144981D01*
X104169Y-144989D01*
X104200Y-144997D01*
X104223Y-144995D01*
X104264Y-144999D01*
X115736Y-144999D01*
X115807Y-144988D01*
X115878Y-144986D01*
X115927Y-144968D01*
X115979Y-144960D01*
X116042Y-144926D01*
X116109Y-144901D01*
X116150Y-144869D01*
X116196Y-144844D01*
X116245Y-144792D01*
X116301Y-144748D01*
X116329Y-144704D01*
X116365Y-144666D01*
X116395Y-144601D01*
X116434Y-144541D01*
X116447Y-144490D01*
X116469Y-144443D01*
X116477Y-144372D01*
X116494Y-144302D01*
X116490Y-144250D01*
X116496Y-144199D01*
X116481Y-144128D01*
X116475Y-144057D01*
X116455Y-144009D01*
X116444Y-143958D01*
X116407Y-143897D01*
X116379Y-143831D01*
X116334Y-143775D01*
X116318Y-143747D01*
X116300Y-143732D01*
X116274Y-143700D01*
X114749Y-142175D01*
X114749Y-137825D01*
X117825Y-134749D01*
X122175Y-134749D01*
X125251Y-137825D01*
X125251Y-142175D01*
X123726Y-143700D01*
X123684Y-143758D01*
X123635Y-143810D01*
X123613Y-143857D01*
X123582Y-143899D01*
X123561Y-143968D01*
X123531Y-144033D01*
X123525Y-144085D01*
X123510Y-144135D01*
X123512Y-144206D01*
X123504Y-144277D01*
X123515Y-144328D01*
X123516Y-144380D01*
X123541Y-144448D01*
X123556Y-144518D01*
X123583Y-144563D01*
X123601Y-144611D01*
X123646Y-144667D01*
X123682Y-144729D01*
X123722Y-144763D01*
X123755Y-144803D01*
X123815Y-144842D01*
X123869Y-144889D01*
X123918Y-144908D01*
X123961Y-144936D01*
X124031Y-144954D01*
X124097Y-144981D01*
X124169Y-144989D01*
X124200Y-144997D01*
X124223Y-144995D01*
X124264Y-144999D01*
X135736Y-144999D01*
X135807Y-144988D01*
X135878Y-144986D01*
X135927Y-144968D01*
X135979Y-144960D01*
X136042Y-144926D01*
X136109Y-144901D01*
X136150Y-144869D01*
X136196Y-144844D01*
X136245Y-144792D01*
X136301Y-144748D01*
X136329Y-144704D01*
X136365Y-144666D01*
X136395Y-144601D01*
X136434Y-144541D01*
X136447Y-144490D01*
X136469Y-144443D01*
X136477Y-144372D01*
X136494Y-144302D01*
X136490Y-144250D01*
X136496Y-144199D01*
X136481Y-144128D01*
X136475Y-144057D01*
X136455Y-144009D01*
X136444Y-143958D01*
X136407Y-143897D01*
X136379Y-143831D01*
X136334Y-143775D01*
X136318Y-143747D01*
X136300Y-143732D01*
X136274Y-143700D01*
X134749Y-142175D01*
X134749Y-137825D01*
X137825Y-134749D01*
X142175Y-134749D01*
X145251Y-137825D01*
X145251Y-142175D01*
X143726Y-143700D01*
X143684Y-143758D01*
X143635Y-143810D01*
X143613Y-143857D01*
X143582Y-143899D01*
X143561Y-143968D01*
X143531Y-144033D01*
X143525Y-144085D01*
X143510Y-144135D01*
X143512Y-144206D01*
X143504Y-144277D01*
X143515Y-144328D01*
X143516Y-144380D01*
X143541Y-144448D01*
X143556Y-144518D01*
X143583Y-144563D01*
X143601Y-144611D01*
X143646Y-144667D01*
X143682Y-144729D01*
X143722Y-144763D01*
X143755Y-144803D01*
X143815Y-144842D01*
X143869Y-144889D01*
X143918Y-144908D01*
X143961Y-144936D01*
X144031Y-144954D01*
X144097Y-144981D01*
X144169Y-144989D01*
X144200Y-144997D01*
X144223Y-144995D01*
X144264Y-144999D01*
X155736Y-144999D01*
X155807Y-144988D01*
X155878Y-144986D01*
X155927Y-144968D01*
X155979Y-144960D01*
X156042Y-144926D01*
X156109Y-144901D01*
X156150Y-144869D01*
X156196Y-144844D01*
X156245Y-144792D01*
X156301Y-144748D01*
X156329Y-144704D01*
X156365Y-144666D01*
X156395Y-144601D01*
X156434Y-144541D01*
X156447Y-144490D01*
X156469Y-144443D01*
X156477Y-144372D01*
X156494Y-144302D01*
X156490Y-144250D01*
X156496Y-144199D01*
X156481Y-144128D01*
X156475Y-144057D01*
X156455Y-144009D01*
X156444Y-143958D01*
X156407Y-143897D01*
X156379Y-143831D01*
X156334Y-143775D01*
X156318Y-143747D01*
X156300Y-143732D01*
X156274Y-143700D01*
X154749Y-142175D01*
X154749Y-137825D01*
X157825Y-134749D01*
X162175Y-134749D01*
X165251Y-137825D01*
X165251Y-142175D01*
X163726Y-143700D01*
X163684Y-143758D01*
X163635Y-143810D01*
X163613Y-143857D01*
X163582Y-143899D01*
X163561Y-143968D01*
X163531Y-144033D01*
X163525Y-144085D01*
X163510Y-144135D01*
X163512Y-144206D01*
X163504Y-144277D01*
X163515Y-144328D01*
X163516Y-144380D01*
X163541Y-144448D01*
X163556Y-144518D01*
X163583Y-144563D01*
X163601Y-144611D01*
X163646Y-144667D01*
X163682Y-144729D01*
X163722Y-144763D01*
X163755Y-144803D01*
X163815Y-144842D01*
X163869Y-144889D01*
X163918Y-144908D01*
X163961Y-144936D01*
X164031Y-144954D01*
X164097Y-144981D01*
X164169Y-144989D01*
X164200Y-144997D01*
X164223Y-144995D01*
X164264Y-144999D01*
X175736Y-144999D01*
X175807Y-144988D01*
X175878Y-144986D01*
X175927Y-144968D01*
X175979Y-144960D01*
X176042Y-144926D01*
X176109Y-144901D01*
X176150Y-144869D01*
X176196Y-144844D01*
X176245Y-144792D01*
X176301Y-144748D01*
X176329Y-144704D01*
X176365Y-144666D01*
X176395Y-144601D01*
X176434Y-144541D01*
X176447Y-144490D01*
X176469Y-144443D01*
X176477Y-144372D01*
X176494Y-144302D01*
X176490Y-144250D01*
X176496Y-144199D01*
X176481Y-144128D01*
X176475Y-144057D01*
X176455Y-144009D01*
X176444Y-143958D01*
X176407Y-143897D01*
X176379Y-143831D01*
X176334Y-143775D01*
X176318Y-143747D01*
X176300Y-143732D01*
X176274Y-143700D01*
X174749Y-142175D01*
X174749Y-137825D01*
X177825Y-134749D01*
X182175Y-134749D01*
X185251Y-137825D01*
X185251Y-142175D01*
X183726Y-143700D01*
X183684Y-143758D01*
X183635Y-143810D01*
X183613Y-143857D01*
X183582Y-143899D01*
X183561Y-143968D01*
X183531Y-144033D01*
X183525Y-144085D01*
X183510Y-144135D01*
X183512Y-144206D01*
X183504Y-144277D01*
X183515Y-144328D01*
X183516Y-144380D01*
X183541Y-144448D01*
X183556Y-144518D01*
X183583Y-144563D01*
X183601Y-144611D01*
X183646Y-144667D01*
X183682Y-144729D01*
X183722Y-144763D01*
X183755Y-144803D01*
X183815Y-144842D01*
X183869Y-144889D01*
X183918Y-144908D01*
X183961Y-144936D01*
X184031Y-144954D01*
X184097Y-144981D01*
X184169Y-144989D01*
X184200Y-144997D01*
X184223Y-144995D01*
X184264Y-144999D01*
X195736Y-144999D01*
X195807Y-144988D01*
X195878Y-144986D01*
X195927Y-144968D01*
X195979Y-144960D01*
X196042Y-144926D01*
X196109Y-144901D01*
X196150Y-144869D01*
X196196Y-144844D01*
X196245Y-144792D01*
X196301Y-144748D01*
X196329Y-144704D01*
X196365Y-144666D01*
X196395Y-144601D01*
X196434Y-144541D01*
X196447Y-144490D01*
X196469Y-144443D01*
X196477Y-144372D01*
X196494Y-144302D01*
X196490Y-144250D01*
X196496Y-144199D01*
X196481Y-144128D01*
X196475Y-144057D01*
X196455Y-144009D01*
X196444Y-143958D01*
X196407Y-143897D01*
X196379Y-143831D01*
X196334Y-143775D01*
X196318Y-143747D01*
X196300Y-143732D01*
X196274Y-143700D01*
X194749Y-142175D01*
X194749Y-137825D01*
X197825Y-134749D01*
X202175Y-134749D01*
X205251Y-137825D01*
X205251Y-142175D01*
X203726Y-143700D01*
X203684Y-143758D01*
X203635Y-143810D01*
X203613Y-143857D01*
X203582Y-143899D01*
X203561Y-143968D01*
X203531Y-144033D01*
X203525Y-144085D01*
X203510Y-144135D01*
X203512Y-144206D01*
X203504Y-144277D01*
X203515Y-144328D01*
X203516Y-144380D01*
X203541Y-144448D01*
X203556Y-144518D01*
X203583Y-144563D01*
X203601Y-144611D01*
X203646Y-144667D01*
X203682Y-144729D01*
X203722Y-144763D01*
X203755Y-144803D01*
X203815Y-144842D01*
X203869Y-144889D01*
X203918Y-144908D01*
X203961Y-144936D01*
X204031Y-144954D01*
X204097Y-144981D01*
X204169Y-144989D01*
X204200Y-144997D01*
X204223Y-144995D01*
X204264Y-144999D01*
X240000Y-144999D01*
X240020Y-144996D01*
X240039Y-144998D01*
X240141Y-144976D01*
X240243Y-144960D01*
X240260Y-144950D01*
X240280Y-144946D01*
X240369Y-144893D01*
X240460Y-144844D01*
X240474Y-144830D01*
X240491Y-144820D01*
X240558Y-144741D01*
X240630Y-144666D01*
X240638Y-144648D01*
X240651Y-144633D01*
X240690Y-144537D01*
X240733Y-144443D01*
X240735Y-144423D01*
X240743Y-144405D01*
X240761Y-144238D01*
X240761Y144238D01*
X240758Y144258D01*
X240760Y144277D01*
X240738Y144379D01*
X240721Y144481D01*
X240712Y144498D01*
X240708Y144518D01*
X240655Y144607D01*
X240606Y144698D01*
X240592Y144712D01*
X240582Y144729D01*
X240503Y144796D01*
X240428Y144868D01*
X240410Y144876D01*
X240395Y144889D01*
X240299Y144928D01*
X240205Y144971D01*
X240185Y144973D01*
X240167Y144981D01*
X240000Y144999D01*
X184264Y144999D01*
X184193Y144988D01*
X184122Y144986D01*
X184073Y144968D01*
X184021Y144960D01*
X183958Y144926D01*
X183891Y144901D01*
X183850Y144869D01*
X183804Y144844D01*
X183755Y144792D01*
X183699Y144748D01*
X183671Y144704D01*
X183635Y144666D01*
X183605Y144601D01*
X183566Y144541D01*
X183553Y144490D01*
X183531Y144443D01*
X183523Y144372D01*
X183506Y144302D01*
X183510Y144250D01*
X183504Y144199D01*
X183519Y144128D01*
X183525Y144057D01*
X183545Y144009D01*
X183556Y143958D01*
X183593Y143897D01*
X183621Y143831D01*
X183666Y143775D01*
X183682Y143747D01*
X183700Y143732D01*
X183726Y143700D01*
X185251Y142175D01*
X185251Y137825D01*
X182175Y134749D01*
X177825Y134749D01*
X174749Y137825D01*
X174749Y142175D01*
X176274Y143700D01*
X176316Y143758D01*
X176365Y143810D01*
X176387Y143857D01*
X176418Y143899D01*
X176439Y143968D01*
X176469Y144033D01*
X176475Y144085D01*
X176490Y144135D01*
X176488Y144206D01*
X176496Y144277D01*
X176485Y144328D01*
X176484Y144380D01*
X176459Y144448D01*
X176444Y144518D01*
X176417Y144563D01*
X176399Y144611D01*
X176354Y144667D01*
X176318Y144729D01*
X176278Y144763D01*
X176245Y144803D01*
X176185Y144842D01*
X176131Y144889D01*
X176082Y144908D01*
X176039Y144936D01*
X175969Y144954D01*
X175903Y144981D01*
X175831Y144989D01*
X175800Y144997D01*
X175777Y144995D01*
X175736Y144999D01*
X164264Y144999D01*
X164193Y144988D01*
X164122Y144986D01*
X164073Y144968D01*
X164021Y144960D01*
X163958Y144926D01*
X163891Y144901D01*
X163850Y144869D01*
X163804Y144844D01*
X163755Y144792D01*
X163699Y144748D01*
X163671Y144704D01*
X163635Y144666D01*
X163605Y144601D01*
X163566Y144541D01*
X163553Y144490D01*
X163531Y144443D01*
X163523Y144372D01*
X163506Y144302D01*
X163510Y144250D01*
X163504Y144199D01*
X163519Y144128D01*
X163525Y144057D01*
X163545Y144009D01*
X163556Y143958D01*
X163593Y143897D01*
X163621Y143831D01*
X163666Y143775D01*
X163682Y143747D01*
X163700Y143732D01*
X163726Y143700D01*
X165251Y142175D01*
X165251Y137825D01*
X162175Y134749D01*
X157825Y134749D01*
X154749Y137825D01*
X154749Y142175D01*
X156274Y143700D01*
X156316Y143758D01*
X156365Y143810D01*
X156387Y143857D01*
X156418Y143899D01*
X156439Y143968D01*
X156469Y144033D01*
X156475Y144085D01*
X156490Y144135D01*
X156488Y144206D01*
X156496Y144277D01*
X156485Y144328D01*
X156484Y144380D01*
X156459Y144448D01*
X156444Y144518D01*
X156417Y144563D01*
X156399Y144611D01*
X156354Y144667D01*
X156318Y144729D01*
X156278Y144763D01*
X156245Y144803D01*
X156185Y144842D01*
X156131Y144889D01*
X156082Y144908D01*
X156039Y144936D01*
X155969Y144954D01*
X155903Y144981D01*
X155831Y144989D01*
X155800Y144997D01*
X155777Y144995D01*
X155736Y144999D01*
X144264Y144999D01*
X144193Y144988D01*
X144122Y144986D01*
X144073Y144968D01*
X144021Y144960D01*
X143958Y144926D01*
X143891Y144901D01*
X143850Y144869D01*
X143804Y144844D01*
X143755Y144792D01*
X143699Y144748D01*
X143671Y144704D01*
X143635Y144666D01*
X143605Y144601D01*
X143566Y144541D01*
X143553Y144490D01*
X143531Y144443D01*
X143523Y144372D01*
X143506Y144302D01*
X143510Y144250D01*
X143504Y144199D01*
X143519Y144128D01*
X143525Y144057D01*
X143545Y144009D01*
X143556Y143958D01*
X143593Y143897D01*
X143621Y143831D01*
X143666Y143775D01*
X143682Y143747D01*
X143700Y143732D01*
X143726Y143700D01*
X145251Y142175D01*
X145251Y137825D01*
X142175Y134749D01*
X137825Y134749D01*
X134749Y137825D01*
X134749Y142175D01*
X136274Y143700D01*
X136316Y143758D01*
X136365Y143810D01*
X136387Y143857D01*
X136418Y143899D01*
X136439Y143968D01*
X136469Y144033D01*
X136475Y144085D01*
X136490Y144135D01*
X136488Y144206D01*
X136496Y144277D01*
X136485Y144328D01*
X136484Y144380D01*
X136459Y144448D01*
X136444Y144518D01*
X136417Y144563D01*
X136399Y144611D01*
X136354Y144667D01*
X136318Y144729D01*
X136278Y144763D01*
X136245Y144803D01*
X136185Y144842D01*
X136131Y144889D01*
X136082Y144908D01*
X136039Y144936D01*
X135969Y144954D01*
X135903Y144981D01*
X135831Y144989D01*
X135800Y144997D01*
X135777Y144995D01*
X135736Y144999D01*
X124264Y144999D01*
X124193Y144988D01*
X124122Y144986D01*
X124073Y144968D01*
X124021Y144960D01*
X123958Y144926D01*
X123891Y144901D01*
X123850Y144869D01*
X123804Y144844D01*
X123755Y144792D01*
X123699Y144748D01*
X123671Y144704D01*
X123635Y144666D01*
X123605Y144601D01*
X123566Y144541D01*
X123553Y144490D01*
X123531Y144443D01*
X123523Y144372D01*
X123506Y144302D01*
X123510Y144250D01*
X123504Y144199D01*
X123519Y144128D01*
X123525Y144057D01*
X123545Y144009D01*
X123556Y143958D01*
X123593Y143897D01*
X123621Y143831D01*
X123666Y143775D01*
X123682Y143747D01*
X123700Y143732D01*
X123726Y143700D01*
X125251Y142175D01*
X125251Y137825D01*
X122175Y134749D01*
X117825Y134749D01*
X114749Y137825D01*
X114749Y142175D01*
X116274Y143700D01*
X116316Y143758D01*
X116365Y143810D01*
X116387Y143857D01*
X116418Y143899D01*
X116439Y143968D01*
X116469Y144033D01*
X116475Y144085D01*
X116490Y144135D01*
X116488Y144206D01*
X116496Y144277D01*
X116485Y144328D01*
X116484Y144380D01*
X116459Y144448D01*
X116444Y144518D01*
X116417Y144563D01*
X116399Y144611D01*
X116354Y144667D01*
X116318Y144729D01*
X116278Y144763D01*
X116245Y144803D01*
X116185Y144842D01*
X116131Y144889D01*
X116082Y144908D01*
X116039Y144936D01*
X115969Y144954D01*
X115903Y144981D01*
X115831Y144989D01*
X115800Y144997D01*
X115777Y144995D01*
X115736Y144999D01*
X104264Y144999D01*
X104193Y144988D01*
X104122Y144986D01*
X104073Y144968D01*
X104021Y144960D01*
X103958Y144926D01*
X103891Y144901D01*
X103850Y144869D01*
X103804Y144844D01*
X103755Y144792D01*
X103699Y144748D01*
X103671Y144704D01*
X103635Y144666D01*
X103605Y144601D01*
X103566Y144541D01*
X103553Y144490D01*
X103531Y144443D01*
X103523Y144372D01*
X103506Y144302D01*
X103510Y144250D01*
X103504Y144199D01*
X103519Y144128D01*
X103525Y144057D01*
X103545Y144009D01*
X103556Y143958D01*
X103593Y143897D01*
X103621Y143831D01*
X103666Y143775D01*
X103682Y143747D01*
X103700Y143732D01*
X103726Y143700D01*
X105251Y142175D01*
X105251Y137825D01*
X102175Y134749D01*
X97825Y134749D01*
X94749Y137825D01*
X94749Y142175D01*
X96274Y143700D01*
X96316Y143758D01*
X96365Y143810D01*
X96387Y143857D01*
X96418Y143899D01*
X96439Y143968D01*
X96469Y144033D01*
X96475Y144085D01*
X96490Y144135D01*
X96488Y144206D01*
X96496Y144277D01*
X96485Y144328D01*
X96484Y144380D01*
X96459Y144448D01*
X96444Y144518D01*
X96417Y144563D01*
X96399Y144611D01*
X96354Y144667D01*
X96318Y144729D01*
X96278Y144763D01*
X96245Y144803D01*
X96185Y144842D01*
X96131Y144889D01*
X96082Y144908D01*
X96039Y144936D01*
X95969Y144954D01*
X95903Y144981D01*
X95831Y144989D01*
X95800Y144997D01*
X95777Y144995D01*
X95736Y144999D01*
X84264Y144999D01*
X84193Y144988D01*
X84122Y144986D01*
X84073Y144968D01*
X84021Y144960D01*
X83958Y144926D01*
X83891Y144901D01*
X83850Y144869D01*
X83804Y144844D01*
X83755Y144792D01*
X83699Y144748D01*
X83671Y144704D01*
X83635Y144666D01*
X83605Y144601D01*
X83566Y144541D01*
X83553Y144490D01*
X83531Y144443D01*
X83523Y144372D01*
X83506Y144302D01*
X83510Y144250D01*
X83504Y144199D01*
X83519Y144128D01*
X83525Y144057D01*
X83545Y144009D01*
X83556Y143958D01*
X83593Y143897D01*
X83621Y143831D01*
X83666Y143775D01*
X83682Y143747D01*
X83700Y143732D01*
X83726Y143700D01*
X85251Y142175D01*
X85251Y137825D01*
X82175Y134749D01*
X77825Y134749D01*
X74749Y137825D01*
X74749Y142175D01*
X76274Y143700D01*
X76316Y143758D01*
X76365Y143810D01*
X76387Y143857D01*
X76418Y143899D01*
X76439Y143968D01*
X76469Y144033D01*
X76475Y144085D01*
X76490Y144135D01*
X76488Y144206D01*
X76496Y144277D01*
X76485Y144328D01*
X76484Y144380D01*
X76459Y144448D01*
X76444Y144518D01*
X76417Y144563D01*
X76399Y144611D01*
X76354Y144667D01*
X76318Y144729D01*
X76278Y144763D01*
X76245Y144803D01*
X76185Y144842D01*
X76131Y144889D01*
X76082Y144908D01*
X76039Y144936D01*
X75969Y144954D01*
X75903Y144981D01*
X75831Y144989D01*
X75800Y144997D01*
X75777Y144995D01*
X75736Y144999D01*
X64264Y144999D01*
X64193Y144988D01*
X64122Y144986D01*
X64073Y144968D01*
X64021Y144960D01*
X63958Y144926D01*
X63891Y144901D01*
X63850Y144869D01*
X63804Y144844D01*
X63755Y144792D01*
X63699Y144748D01*
X63671Y144704D01*
X63635Y144666D01*
X63605Y144601D01*
X63566Y144541D01*
X63553Y144490D01*
X63531Y144443D01*
X63523Y144372D01*
X63506Y144302D01*
X63510Y144250D01*
X63504Y144199D01*
X63519Y144128D01*
X63525Y144057D01*
X63545Y144009D01*
X63556Y143958D01*
X63593Y143897D01*
X63621Y143831D01*
X63666Y143775D01*
X63682Y143747D01*
X63700Y143732D01*
X63726Y143700D01*
X65251Y142175D01*
X65251Y137825D01*
X62175Y134749D01*
X57825Y134749D01*
X54749Y137825D01*
X54749Y142175D01*
X56274Y143700D01*
X56316Y143758D01*
X56365Y143810D01*
X56387Y143857D01*
X56418Y143899D01*
X56439Y143968D01*
X56469Y144033D01*
X56475Y144085D01*
X56490Y144135D01*
X56488Y144206D01*
X56496Y144277D01*
X56485Y144328D01*
X56484Y144380D01*
X56459Y144448D01*
X56444Y144518D01*
X56417Y144563D01*
X56399Y144611D01*
X56354Y144667D01*
X56318Y144729D01*
X56278Y144763D01*
X56245Y144803D01*
X56185Y144842D01*
X56131Y144889D01*
X56082Y144908D01*
X56039Y144936D01*
X55969Y144954D01*
X55903Y144981D01*
X55831Y144989D01*
X55800Y144997D01*
X55777Y144995D01*
X55736Y144999D01*
X-175000Y144999D01*
X-175013Y144997D01*
X-175033Y144999D01*
X-184118Y144602D01*
X-184149Y144595D01*
X-184217Y144591D01*
X-192084Y143204D01*
X-192089Y143202D01*
X-192094Y143202D01*
X-192205Y143162D01*
X-192316Y143123D01*
X-192321Y143119D01*
X-192325Y143118D01*
X-192417Y143044D01*
X-192510Y142972D01*
X-192513Y142967D01*
X-192517Y142964D01*
X-192582Y142864D01*
X-192646Y142766D01*
X-192648Y142761D01*
X-192650Y142757D01*
X-192679Y142642D01*
X-192710Y142529D01*
X-192709Y142523D01*
X-192711Y142518D01*
X-192701Y142401D01*
X-192694Y142283D01*
X-192692Y142278D01*
X-192691Y142273D01*
X-192646Y142165D01*
X-192601Y142056D01*
X-192597Y142052D01*
X-192595Y142047D01*
X-192490Y141916D01*
X-190749Y140175D01*
X-190749Y135825D01*
X-193825Y132749D01*
X-198175Y132749D01*
X-201251Y135825D01*
X-201251Y140175D01*
X-201243Y140183D01*
X-201234Y140195D01*
X-201223Y140204D01*
X-201163Y140294D01*
X-201099Y140382D01*
X-201095Y140397D01*
X-201087Y140409D01*
X-201059Y140513D01*
X-201027Y140618D01*
X-201027Y140632D01*
X-201024Y140646D01*
X-201031Y140755D01*
X-201033Y140863D01*
X-201038Y140877D01*
X-201039Y140892D01*
X-201080Y140992D01*
X-201118Y141094D01*
X-201127Y141106D01*
X-201133Y141120D01*
X-201204Y141202D01*
X-201271Y141286D01*
X-201284Y141294D01*
X-201293Y141306D01*
X-201387Y141361D01*
X-201478Y141419D01*
X-201493Y141423D01*
X-201505Y141431D01*
X-201612Y141453D01*
X-201717Y141480D01*
X-201732Y141478D01*
X-201746Y141481D01*
X-201913Y141471D01*
X-202111Y141436D01*
X-202141Y141426D01*
X-202239Y141402D01*
X-217053Y136010D01*
X-217107Y135979D01*
X-217166Y135958D01*
X-217214Y135920D01*
X-217267Y135890D01*
X-217309Y135843D01*
X-217358Y135804D01*
X-217391Y135753D01*
X-217432Y135707D01*
X-217457Y135650D01*
X-217491Y135597D01*
X-217506Y135538D01*
X-217530Y135482D01*
X-217536Y135419D01*
X-217551Y135359D01*
X-217546Y135298D01*
X-217551Y135236D01*
X-217537Y135176D01*
X-217532Y135114D01*
X-217508Y135057D01*
X-217493Y134997D01*
X-217460Y134945D01*
X-217435Y134887D01*
X-217379Y134817D01*
X-217362Y134789D01*
X-217348Y134779D01*
X-217331Y134756D01*
X-214749Y132175D01*
X-214749Y127825D01*
X-217825Y124749D01*
X-222175Y124749D01*
X-225251Y127825D01*
X-225251Y130454D01*
X-225266Y130548D01*
X-225275Y130643D01*
X-225286Y130669D01*
X-225290Y130697D01*
X-225335Y130781D01*
X-225373Y130868D01*
X-225392Y130889D01*
X-225406Y130914D01*
X-225475Y130980D01*
X-225539Y131050D01*
X-225563Y131064D01*
X-225584Y131083D01*
X-225670Y131124D01*
X-225754Y131170D01*
X-225781Y131175D01*
X-225807Y131187D01*
X-225902Y131198D01*
X-225995Y131215D01*
X-226023Y131211D01*
X-226051Y131214D01*
X-226145Y131194D01*
X-226239Y131181D01*
X-226271Y131166D01*
X-226292Y131162D01*
X-226320Y131145D01*
X-226393Y131113D01*
X-235169Y126046D01*
X-235193Y126026D01*
X-235278Y125970D01*
X-239680Y122276D01*
X-239715Y122236D01*
X-239756Y122203D01*
X-239794Y122143D01*
X-239840Y122090D01*
X-239860Y122040D01*
X-239889Y121996D01*
X-239906Y121927D01*
X-239933Y121862D01*
X-239936Y121809D01*
X-239949Y121757D01*
X-239944Y121687D01*
X-239948Y121616D01*
X-239934Y121565D01*
X-239930Y121512D01*
X-239902Y121447D01*
X-239884Y121379D01*
X-239855Y121334D01*
X-239834Y121286D01*
X-239764Y121198D01*
X-239748Y121174D01*
X-239739Y121167D01*
X-239729Y121155D01*
X-236749Y118175D01*
X-236749Y113825D01*
X-239825Y110749D01*
X-244175Y110749D01*
X-247251Y113825D01*
X-247251Y114291D01*
X-247257Y114329D01*
X-247255Y114368D01*
X-247277Y114450D01*
X-247290Y114534D01*
X-247309Y114568D01*
X-247319Y114605D01*
X-247366Y114676D01*
X-247406Y114751D01*
X-247434Y114778D01*
X-247455Y114810D01*
X-247522Y114862D01*
X-247584Y114920D01*
X-247619Y114937D01*
X-247650Y114960D01*
X-247730Y114988D01*
X-247807Y115024D01*
X-247845Y115028D01*
X-247882Y115041D01*
X-247967Y115042D01*
X-248051Y115051D01*
X-248089Y115043D01*
X-248128Y115043D01*
X-248209Y115017D01*
X-248292Y114999D01*
X-248325Y114979D01*
X-248362Y114967D01*
X-248501Y114874D01*
X-249197Y114291D01*
X-249217Y114267D01*
X-249291Y114197D01*
X-259104Y102501D01*
X-259124Y102468D01*
X-259151Y102440D01*
X-259186Y102363D01*
X-259230Y102290D01*
X-259238Y102252D01*
X-259254Y102217D01*
X-259263Y102133D01*
X-259281Y102049D01*
X-259277Y102011D01*
X-259281Y101973D01*
X-259263Y101890D01*
X-259254Y101805D01*
X-259237Y101770D01*
X-259229Y101732D01*
X-259185Y101659D01*
X-259149Y101582D01*
X-259123Y101554D01*
X-259103Y101521D01*
X-259038Y101466D01*
X-258979Y101404D01*
X-258945Y101386D01*
X-258916Y101361D01*
X-258837Y101329D01*
X-258762Y101290D01*
X-258724Y101284D01*
X-258688Y101269D01*
X-258521Y101251D01*
X-255825Y101251D01*
X-252749Y98175D01*
X-252749Y93825D01*
X-255825Y90749D01*
X-260175Y90749D01*
X-263474Y94048D01*
X-263570Y94117D01*
X-263666Y94188D01*
X-263670Y94189D01*
X-263673Y94191D01*
X-263787Y94226D01*
X-263900Y94263D01*
X-263904Y94263D01*
X-263908Y94264D01*
X-264027Y94261D01*
X-264146Y94259D01*
X-264150Y94258D01*
X-264154Y94257D01*
X-264267Y94216D01*
X-264378Y94177D01*
X-264381Y94174D01*
X-264385Y94173D01*
X-264478Y94099D01*
X-264572Y94025D01*
X-264575Y94021D01*
X-264577Y94019D01*
X-264585Y94008D01*
X-264671Y93890D01*
X-270131Y84434D01*
X-270142Y84404D01*
X-270187Y84313D01*
X-272386Y78272D01*
X-272389Y78256D01*
X-272391Y78252D01*
X-272392Y78242D01*
X-272404Y78217D01*
X-272414Y78123D01*
X-272431Y78031D01*
X-272427Y78002D01*
X-272431Y77973D01*
X-272411Y77880D01*
X-272398Y77787D01*
X-272385Y77761D01*
X-272378Y77732D01*
X-272330Y77651D01*
X-272288Y77567D01*
X-272267Y77546D01*
X-272252Y77521D01*
X-272181Y77460D01*
X-272114Y77393D01*
X-272088Y77380D01*
X-272065Y77361D01*
X-271978Y77326D01*
X-271893Y77284D01*
X-271864Y77280D01*
X-271837Y77269D01*
X-271670Y77251D01*
X-267825Y77251D01*
X-264749Y74175D01*
X-264749Y69825D01*
X-267825Y66749D01*
X-272175Y66749D01*
X-274559Y69134D01*
X-274610Y69170D01*
X-274654Y69214D01*
X-274710Y69242D01*
X-274759Y69277D01*
X-274819Y69296D01*
X-274875Y69323D01*
X-274936Y69332D01*
X-274994Y69350D01*
X-275057Y69348D01*
X-275119Y69356D01*
X-275179Y69345D01*
X-275240Y69343D01*
X-275299Y69322D01*
X-275360Y69310D01*
X-275413Y69280D01*
X-275471Y69259D01*
X-275520Y69220D01*
X-275574Y69189D01*
X-275615Y69144D01*
X-275663Y69105D01*
X-275697Y69053D01*
X-275739Y69006D01*
X-275778Y68926D01*
X-275796Y68898D01*
X-275800Y68881D01*
X-275813Y68856D01*
X-276402Y67239D01*
X-276407Y67208D01*
X-276436Y67111D01*
X-279591Y49217D01*
X-279591Y49185D01*
X-279602Y49118D01*
X-279667Y47629D01*
X-279663Y47593D01*
X-279667Y47558D01*
X-279656Y47507D01*
X-279654Y47453D01*
X-279642Y47420D01*
X-279638Y47385D01*
X-279622Y47351D01*
X-279614Y47317D01*
X-279589Y47274D01*
X-279570Y47222D01*
X-279548Y47195D01*
X-279532Y47163D01*
X-279505Y47134D01*
X-279488Y47106D01*
X-279452Y47075D01*
X-279416Y47030D01*
X-279386Y47011D01*
X-279362Y46986D01*
X-279326Y46967D01*
X-279301Y46946D01*
X-279258Y46929D01*
X-279209Y46897D01*
X-279175Y46889D01*
X-279143Y46872D01*
X-279102Y46866D01*
X-279073Y46854D01*
X-279010Y46847D01*
X-278971Y46837D01*
X-278941Y46840D01*
X-278910Y46836D01*
X-278900Y46835D01*
X-278813Y46850D01*
X-278725Y46856D01*
X-278693Y46870D01*
X-278666Y46875D01*
X-278662Y46876D01*
X-278658Y46876D01*
X-278580Y46918D01*
X-278499Y46953D01*
X-278465Y46980D01*
X-278445Y46991D01*
X-278444Y46992D01*
X-278441Y46993D01*
X-278420Y47016D01*
X-278368Y47058D01*
X-278175Y47251D01*
X-273825Y47251D01*
X-270749Y44175D01*
X-270749Y39825D01*
X-273825Y36749D01*
X-278175Y36749D01*
X-278700Y37274D01*
X-278758Y37316D01*
X-278810Y37365D01*
X-278857Y37387D01*
X-278899Y37418D01*
X-278968Y37439D01*
X-279033Y37469D01*
X-279085Y37475D01*
X-279135Y37490D01*
X-279206Y37488D01*
X-279277Y37496D01*
X-279328Y37485D01*
X-279380Y37484D01*
X-279448Y37459D01*
X-279518Y37444D01*
X-279563Y37417D01*
X-279611Y37399D01*
X-279667Y37354D01*
X-279729Y37318D01*
X-279763Y37278D01*
X-279803Y37245D01*
X-279842Y37185D01*
X-279889Y37131D01*
X-279908Y37082D01*
X-279936Y37039D01*
X-279954Y36969D01*
X-279981Y36903D01*
X-279989Y36831D01*
X-279997Y36800D01*
X-279995Y36777D01*
X-279999Y36736D01*
X-279999Y19264D01*
X-279988Y19193D01*
X-279986Y19122D01*
X-279968Y19073D01*
X-279960Y19021D01*
X-279926Y18958D01*
X-279901Y18891D01*
X-279869Y18850D01*
X-279844Y18804D01*
X-279792Y18755D01*
X-279748Y18699D01*
X-279704Y18671D01*
X-279666Y18635D01*
X-279601Y18604D01*
X-279541Y18566D01*
X-279490Y18553D01*
X-279443Y18531D01*
X-279372Y18523D01*
X-279302Y18506D01*
X-279250Y18510D01*
X-279199Y18504D01*
X-279128Y18519D01*
X-279057Y18525D01*
X-279009Y18545D01*
X-278958Y18556D01*
X-278897Y18593D01*
X-278831Y18621D01*
X-278775Y18666D01*
X-278747Y18682D01*
X-278732Y18700D01*
X-278700Y18726D01*
X-278175Y19251D01*
X-273825Y19251D01*
X-270749Y16175D01*
X-270749Y11825D01*
X-273825Y8749D01*
X-278175Y8749D01*
X-278700Y9274D01*
X-278758Y9316D01*
X-278810Y9365D01*
X-278857Y9387D01*
X-278899Y9418D01*
X-278968Y9439D01*
X-279033Y9469D01*
X-279085Y9475D01*
X-279135Y9490D01*
X-279206Y9488D01*
X-279277Y9496D01*
X-279328Y9485D01*
X-279380Y9484D01*
X-279448Y9459D01*
X-279518Y9444D01*
X-279563Y9417D01*
X-279611Y9399D01*
X-279667Y9354D01*
X-279729Y9318D01*
X-279763Y9278D01*
X-279803Y9245D01*
X-279842Y9185D01*
X-279889Y9131D01*
X-279908Y9082D01*
X-279936Y9039D01*
X-279954Y8969D01*
X-279981Y8903D01*
X-279989Y8831D01*
X-279997Y8800D01*
X-279995Y8777D01*
X-279999Y8736D01*
X-279999Y-10736D01*
X-279988Y-10807D01*
X-279986Y-10878D01*
X-279968Y-10927D01*
X-279960Y-10979D01*
X-279926Y-11042D01*
X-279901Y-11109D01*
X-279869Y-11150D01*
X-279844Y-11196D01*
X-279792Y-11245D01*
X-279748Y-11301D01*
X-279704Y-11329D01*
X-279666Y-11365D01*
X-279601Y-11396D01*
X-279541Y-11434D01*
X-279490Y-11447D01*
X-279443Y-11469D01*
X-279372Y-11477D01*
X-279302Y-11494D01*
X-279250Y-11490D01*
X-279199Y-11496D01*
X-279128Y-11481D01*
X-279057Y-11475D01*
X-279009Y-11455D01*
X-278958Y-11444D01*
X-278897Y-11407D01*
X-278831Y-11379D01*
X-278775Y-11334D01*
X-278747Y-11318D01*
X-278732Y-11300D01*
X-278700Y-11274D01*
X-278175Y-10749D01*
X-273825Y-10749D01*
X-270749Y-13825D01*
X-270749Y-18175D01*
X-273825Y-21251D01*
X-278175Y-21251D01*
X-278700Y-20726D01*
X-278758Y-20684D01*
X-278810Y-20635D01*
X-278857Y-20613D01*
X-278899Y-20582D01*
X-278968Y-20561D01*
X-279033Y-20531D01*
X-279085Y-20525D01*
X-279135Y-20510D01*
X-279206Y-20512D01*
X-279277Y-20504D01*
X-279328Y-20515D01*
X-279380Y-20516D01*
X-279448Y-20541D01*
X-279518Y-20556D01*
X-279563Y-20583D01*
X-279611Y-20601D01*
X-279667Y-20646D01*
X-279729Y-20682D01*
X-279763Y-20722D01*
X-279803Y-20755D01*
X-279842Y-20815D01*
X-279889Y-20869D01*
X-279908Y-20918D01*
X-279936Y-20961D01*
X-279954Y-21031D01*
X-279981Y-21097D01*
X-279989Y-21169D01*
X-279997Y-21200D01*
X-279995Y-21223D01*
X-279999Y-21264D01*
X-279999Y-38736D01*
X-279988Y-38807D01*
X-279986Y-38878D01*
X-279968Y-38927D01*
X-279960Y-38979D01*
X-279926Y-39042D01*
X-279901Y-39109D01*
X-279869Y-39150D01*
X-279844Y-39196D01*
X-279792Y-39245D01*
X-279748Y-39301D01*
X-279704Y-39329D01*
X-279666Y-39365D01*
X-279601Y-39396D01*
X-279541Y-39434D01*
X-279490Y-39447D01*
X-279443Y-39469D01*
X-279372Y-39477D01*
X-279302Y-39494D01*
X-279250Y-39490D01*
X-279199Y-39496D01*
X-279128Y-39481D01*
X-279057Y-39475D01*
X-279009Y-39455D01*
X-278958Y-39444D01*
X-278897Y-39407D01*
X-278831Y-39379D01*
X-278775Y-39334D01*
X-278747Y-39318D01*
X-278732Y-39300D01*
X-278700Y-39274D01*
X-278175Y-38749D01*
X-273825Y-38749D01*
X-270749Y-41825D01*
X-270749Y-46175D01*
X-273825Y-49251D01*
X-278175Y-49251D01*
X-278180Y-49246D01*
X-278192Y-49237D01*
X-278201Y-49226D01*
X-278291Y-49166D01*
X-278379Y-49102D01*
X-278394Y-49098D01*
X-278406Y-49090D01*
X-278511Y-49062D01*
X-278615Y-49030D01*
X-278629Y-49030D01*
X-278643Y-49027D01*
X-278752Y-49034D01*
X-278860Y-49036D01*
X-278874Y-49041D01*
X-278889Y-49042D01*
X-278990Y-49084D01*
X-279091Y-49121D01*
X-279103Y-49130D01*
X-279117Y-49136D01*
X-279199Y-49207D01*
X-279284Y-49274D01*
X-279291Y-49287D01*
X-279303Y-49296D01*
X-279358Y-49390D01*
X-279417Y-49481D01*
X-279420Y-49496D01*
X-279428Y-49508D01*
X-279450Y-49614D01*
X-279477Y-49720D01*
X-279475Y-49735D01*
X-279479Y-49749D01*
X-279468Y-49916D01*
X-276436Y-67111D01*
X-276426Y-67141D01*
X-276402Y-67239D01*
X-270187Y-84313D01*
X-270172Y-84341D01*
X-270131Y-84434D01*
X-261046Y-100169D01*
X-261026Y-100193D01*
X-260970Y-100278D01*
X-249291Y-114197D01*
X-249267Y-114217D01*
X-249197Y-114291D01*
X-235278Y-125970D01*
X-235251Y-125986D01*
X-235169Y-126046D01*
X-219434Y-135131D01*
X-219404Y-135142D01*
X-219313Y-135187D01*
X-210272Y-138478D01*
X-210244Y-138483D01*
X-210217Y-138496D01*
X-210123Y-138506D01*
X-210031Y-138523D01*
X-210002Y-138519D01*
X-209973Y-138523D01*
X-209880Y-138503D01*
X-209787Y-138490D01*
X-209761Y-138477D01*
X-209732Y-138470D01*
X-209651Y-138422D01*
X-209567Y-138380D01*
X-209546Y-138359D01*
X-209521Y-138344D01*
X-209460Y-138272D01*
X-209393Y-138206D01*
X-209380Y-138180D01*
X-209361Y-138157D01*
X-209326Y-138070D01*
X-209284Y-137985D01*
X-209280Y-137956D01*
X-209269Y-137929D01*
X-209251Y-137762D01*
X-209251Y-133825D01*
X-206175Y-130749D01*
X-201825Y-130749D01*
X-198749Y-133825D01*
X-198749Y-138175D01*
X-200991Y-140417D01*
X-200994Y-140421D01*
X-200999Y-140424D01*
X-201066Y-140521D01*
X-201135Y-140617D01*
X-201136Y-140622D01*
X-201139Y-140626D01*
X-201172Y-140739D01*
X-201207Y-140852D01*
X-201207Y-140857D01*
X-201209Y-140862D01*
X-201204Y-140979D01*
X-201201Y-141098D01*
X-201199Y-141103D01*
X-201199Y-141108D01*
X-201157Y-141217D01*
X-201116Y-141329D01*
X-201113Y-141333D01*
X-201111Y-141338D01*
X-201037Y-141428D01*
X-200963Y-141521D01*
X-200958Y-141524D01*
X-200955Y-141528D01*
X-200856Y-141589D01*
X-200756Y-141654D01*
X-200751Y-141655D01*
X-200746Y-141658D01*
X-200585Y-141705D01*
X-184916Y-144468D01*
X-184902Y-144468D01*
X-184888Y-144472D01*
X-184779Y-144469D01*
X-184670Y-144471D01*
X-184656Y-144466D01*
X-184642Y-144466D01*
X-184539Y-144428D01*
X-184436Y-144395D01*
X-184424Y-144386D01*
X-184411Y-144381D01*
X-184326Y-144314D01*
X-184239Y-144249D01*
X-184230Y-144237D01*
X-184219Y-144228D01*
X-184160Y-144136D01*
X-184098Y-144047D01*
X-184094Y-144033D01*
X-184086Y-144021D01*
X-184059Y-143915D01*
X-184029Y-143811D01*
X-184029Y-143797D01*
X-184026Y-143782D01*
X-184034Y-143674D01*
X-184038Y-143565D01*
X-184044Y-143552D01*
X-184045Y-143537D01*
X-184087Y-143437D01*
X-184126Y-143336D01*
X-184135Y-143324D01*
X-184141Y-143311D01*
X-184246Y-143180D01*
X-185251Y-142175D01*
X-185251Y-137825D01*
X-182175Y-134749D01*
X-177825Y-134749D01*
X-174749Y-137825D01*
X-174749Y-142175D01*
X-176243Y-143669D01*
X-176275Y-143714D01*
X-176315Y-143752D01*
X-176347Y-143813D01*
X-176387Y-143869D01*
X-176403Y-143921D01*
X-176429Y-143970D01*
X-176439Y-144038D01*
X-176459Y-144104D01*
X-176458Y-144159D01*
X-176466Y-144214D01*
X-176455Y-144281D01*
X-176453Y-144350D01*
X-176434Y-144401D01*
X-176425Y-144456D01*
X-176392Y-144516D01*
X-176368Y-144581D01*
X-176334Y-144624D01*
X-176308Y-144672D01*
X-176258Y-144719D01*
X-176215Y-144773D01*
X-176168Y-144803D01*
X-176128Y-144840D01*
X-176065Y-144869D01*
X-176008Y-144906D01*
X-175954Y-144919D01*
X-175904Y-144942D01*
X-175798Y-144958D01*
X-175769Y-144966D01*
X-175757Y-144965D01*
X-175738Y-144968D01*
X-175033Y-144999D01*
X-175020Y-144997D01*
X-175000Y-144999D01*
X-164264Y-144999D01*
X-164193Y-144988D01*
G37*
G36*
X570077Y-260000D02*
X570077Y-260000D01*
X570153Y-259995D01*
X570229Y-259990D01*
X570305Y-259985D01*
X570306Y-259985D01*
X570382Y-259980D01*
X570458Y-259975D01*
X570534Y-259970D01*
X570535Y-259970D01*
X570611Y-259965D01*
X570687Y-259960D01*
X570763Y-259955D01*
X570839Y-259950D01*
X570840Y-259950D01*
X570916Y-259945D01*
X570992Y-259940D01*
X571068Y-259935D01*
X571069Y-259935D01*
X571145Y-259930D01*
X571221Y-259925D01*
X571297Y-259920D01*
X571373Y-259915D01*
X571374Y-259915D01*
X571450Y-259910D01*
X571526Y-259905D01*
X571602Y-259900D01*
X571603Y-259900D01*
X571679Y-259895D01*
X571755Y-259890D01*
X571831Y-259885D01*
X571907Y-259880D01*
X571908Y-259880D01*
X571984Y-259875D01*
X572060Y-259870D01*
X572136Y-259865D01*
X572137Y-259865D01*
X572213Y-259860D01*
X572289Y-259855D01*
X572365Y-259850D01*
X572441Y-259845D01*
X572442Y-259845D01*
X572518Y-259840D01*
X572594Y-259835D01*
X572670Y-259830D01*
X572671Y-259830D01*
X572747Y-259825D01*
X572823Y-259820D01*
X572899Y-259815D01*
X572976Y-259810D01*
X573052Y-259805D01*
X573128Y-259800D01*
X573204Y-259795D01*
X573205Y-259795D01*
X573281Y-259790D01*
X573357Y-259785D01*
X573433Y-259780D01*
X573510Y-259775D01*
X573586Y-259770D01*
X573662Y-259765D01*
X573738Y-259760D01*
X573739Y-259760D01*
X573815Y-259755D01*
X573891Y-259750D01*
X573967Y-259745D01*
X574044Y-259740D01*
X574120Y-259735D01*
X574196Y-259730D01*
X574272Y-259725D01*
X574273Y-259725D01*
X574349Y-259720D01*
X574425Y-259715D01*
X574501Y-259710D01*
X574578Y-259705D01*
X574654Y-259700D01*
X574730Y-259695D01*
X574806Y-259690D01*
X574807Y-259690D01*
X574883Y-259685D01*
X574959Y-259680D01*
X575035Y-259675D01*
X575112Y-259670D01*
X575188Y-259665D01*
X575264Y-259660D01*
X575340Y-259655D01*
X575341Y-259655D01*
X575417Y-259650D01*
X575493Y-259645D01*
X575569Y-259640D01*
X575646Y-259635D01*
X575722Y-259630D01*
X575798Y-259625D01*
X575874Y-259620D01*
X575875Y-259620D01*
X575951Y-259615D01*
X576027Y-259610D01*
X576103Y-259605D01*
X576180Y-259600D01*
X576256Y-259595D01*
X576332Y-259590D01*
X576408Y-259585D01*
X576409Y-259585D01*
X576485Y-259580D01*
X576527Y-259577D01*
X582942Y-258301D01*
X582943Y-258301D01*
X589136Y-256199D01*
X589136Y-256198D01*
X595002Y-253306D01*
X595002Y-253305D01*
X595003Y-253305D01*
X600441Y-249672D01*
X600441Y-249671D01*
X605359Y-245359D01*
X609671Y-240441D01*
X609672Y-240441D01*
X613305Y-235003D01*
X613305Y-235002D01*
X613306Y-235002D01*
X616198Y-229136D01*
X616199Y-229136D01*
X618301Y-222943D01*
X618301Y-222942D01*
X618301Y-222941D01*
X618306Y-222916D01*
X618307Y-222911D01*
X618312Y-222886D01*
X618313Y-222881D01*
X618318Y-222856D01*
X618319Y-222851D01*
X618324Y-222826D01*
X618325Y-222821D01*
X618329Y-222801D01*
X618330Y-222796D01*
X618335Y-222771D01*
X618336Y-222766D01*
X618341Y-222741D01*
X618342Y-222736D01*
X618347Y-222711D01*
X618348Y-222706D01*
X618353Y-222681D01*
X618358Y-222656D01*
X618359Y-222651D01*
X618364Y-222626D01*
X618365Y-222621D01*
X618370Y-222596D01*
X618371Y-222591D01*
X618376Y-222566D01*
X618381Y-222541D01*
X618382Y-222536D01*
X618387Y-222511D01*
X618388Y-222506D01*
X618393Y-222481D01*
X618394Y-222476D01*
X618399Y-222451D01*
X618404Y-222426D01*
X618405Y-222421D01*
X618410Y-222396D01*
X618411Y-222391D01*
X618416Y-222366D01*
X618417Y-222361D01*
X618422Y-222336D01*
X618427Y-222311D01*
X618428Y-222306D01*
X618433Y-222281D01*
X618434Y-222276D01*
X618439Y-222251D01*
X618440Y-222246D01*
X618445Y-222221D01*
X618446Y-222216D01*
X618451Y-222191D01*
X618456Y-222166D01*
X618457Y-222161D01*
X618462Y-222136D01*
X618463Y-222131D01*
X618468Y-222106D01*
X618469Y-222101D01*
X618473Y-222076D01*
X618474Y-222076D01*
X618473Y-222076D01*
X618478Y-222051D01*
X618479Y-222046D01*
X618484Y-222021D01*
X618485Y-222016D01*
X618490Y-221991D01*
X618491Y-221986D01*
X618496Y-221961D01*
X618501Y-221936D01*
X618502Y-221931D01*
X618507Y-221906D01*
X618508Y-221901D01*
X618513Y-221876D01*
X618514Y-221871D01*
X618519Y-221846D01*
X618524Y-221821D01*
X618525Y-221816D01*
X618530Y-221791D01*
X618531Y-221786D01*
X618536Y-221761D01*
X618537Y-221756D01*
X618542Y-221731D01*
X618543Y-221726D01*
X618547Y-221706D01*
X618548Y-221701D01*
X618553Y-221676D01*
X618554Y-221671D01*
X618559Y-221646D01*
X618560Y-221641D01*
X618565Y-221616D01*
X618566Y-221611D01*
X618571Y-221586D01*
X618576Y-221561D01*
X618577Y-221556D01*
X618582Y-221531D01*
X618583Y-221526D01*
X618588Y-221501D01*
X618589Y-221496D01*
X618594Y-221471D01*
X618599Y-221446D01*
X618600Y-221441D01*
X618605Y-221416D01*
X618606Y-221411D01*
X618611Y-221386D01*
X618612Y-221381D01*
X618617Y-221356D01*
X618622Y-221331D01*
X618623Y-221326D01*
X618628Y-221301D01*
X618629Y-221296D01*
X618634Y-221271D01*
X618635Y-221266D01*
X618640Y-221241D01*
X618645Y-221216D01*
X618646Y-221211D01*
X618651Y-221186D01*
X618652Y-221181D01*
X618656Y-221156D01*
X618657Y-221156D01*
X618657Y-221151D01*
X618658Y-221151D01*
X618657Y-221151D01*
X618662Y-221126D01*
X618663Y-221121D01*
X618668Y-221096D01*
X618673Y-221071D01*
X618674Y-221066D01*
X618679Y-221041D01*
X618680Y-221036D01*
X618685Y-221011D01*
X618686Y-221006D01*
X618691Y-220981D01*
X618696Y-220956D01*
X618697Y-220951D01*
X618702Y-220926D01*
X618703Y-220921D01*
X618708Y-220896D01*
X618709Y-220891D01*
X618714Y-220866D01*
X618719Y-220841D01*
X618720Y-220836D01*
X618725Y-220811D01*
X618726Y-220806D01*
X618731Y-220781D01*
X618732Y-220776D01*
X618737Y-220751D01*
X618742Y-220726D01*
X618743Y-220721D01*
X618748Y-220696D01*
X618749Y-220691D01*
X618754Y-220666D01*
X618755Y-220661D01*
X618760Y-220636D01*
X618761Y-220631D01*
X618765Y-220611D01*
X618766Y-220606D01*
X618771Y-220581D01*
X618772Y-220576D01*
X618777Y-220551D01*
X618778Y-220546D01*
X618783Y-220521D01*
X618784Y-220516D01*
X618789Y-220491D01*
X618794Y-220466D01*
X618795Y-220461D01*
X618800Y-220436D01*
X618801Y-220431D01*
X618806Y-220406D01*
X618807Y-220401D01*
X618812Y-220376D01*
X618817Y-220351D01*
X618818Y-220346D01*
X618823Y-220321D01*
X618824Y-220316D01*
X618829Y-220291D01*
X618830Y-220286D01*
X618835Y-220261D01*
X618839Y-220236D01*
X618840Y-220236D01*
X618840Y-220231D01*
X618841Y-220231D01*
X618840Y-220231D01*
X618845Y-220206D01*
X618846Y-220201D01*
X618851Y-220176D01*
X618852Y-220171D01*
X618857Y-220146D01*
X618858Y-220141D01*
X618862Y-220121D01*
X618863Y-220116D01*
X618868Y-220091D01*
X618869Y-220086D01*
X618874Y-220061D01*
X618875Y-220056D01*
X618880Y-220031D01*
X618881Y-220026D01*
X618886Y-220001D01*
X618891Y-219976D01*
X618892Y-219971D01*
X618897Y-219946D01*
X618898Y-219941D01*
X618903Y-219916D01*
X618904Y-219911D01*
X618909Y-219886D01*
X618914Y-219861D01*
X618915Y-219856D01*
X618920Y-219831D01*
X618921Y-219826D01*
X618926Y-219801D01*
X618927Y-219796D01*
X618932Y-219771D01*
X618937Y-219746D01*
X618938Y-219741D01*
X618943Y-219716D01*
X618944Y-219711D01*
X618949Y-219686D01*
X618950Y-219681D01*
X618955Y-219656D01*
X618960Y-219631D01*
X618961Y-219626D01*
X618966Y-219601D01*
X618967Y-219596D01*
X618972Y-219571D01*
X618973Y-219566D01*
X618978Y-219541D01*
X618979Y-219536D01*
X618984Y-219511D01*
X618989Y-219486D01*
X618990Y-219481D01*
X618995Y-219456D01*
X618996Y-219451D01*
X619001Y-219426D01*
X619002Y-219421D01*
X619007Y-219396D01*
X619012Y-219371D01*
X619013Y-219366D01*
X619018Y-219341D01*
X619019Y-219336D01*
X619023Y-219311D01*
X619024Y-219311D01*
X619023Y-219311D01*
X619024Y-219306D01*
X619025Y-219306D01*
X619024Y-219306D01*
X619029Y-219281D01*
X619034Y-219256D01*
X619035Y-219251D01*
X619040Y-219226D01*
X619041Y-219221D01*
X619046Y-219196D01*
X619047Y-219191D01*
X619052Y-219166D01*
X619057Y-219141D01*
X619058Y-219136D01*
X619063Y-219111D01*
X619064Y-219106D01*
X619069Y-219081D01*
X619070Y-219076D01*
X619075Y-219051D01*
X619076Y-219046D01*
X619080Y-219026D01*
X619081Y-219021D01*
X619086Y-218996D01*
X619087Y-218991D01*
X619092Y-218966D01*
X619093Y-218961D01*
X619098Y-218936D01*
X619099Y-218931D01*
X619104Y-218906D01*
X619109Y-218881D01*
X619110Y-218876D01*
X619115Y-218851D01*
X619116Y-218846D01*
X619121Y-218821D01*
X619122Y-218816D01*
X619127Y-218791D01*
X619132Y-218766D01*
X619133Y-218761D01*
X619138Y-218736D01*
X619139Y-218731D01*
X619144Y-218706D01*
X619145Y-218701D01*
X619150Y-218676D01*
X619155Y-218651D01*
X619156Y-218646D01*
X619161Y-218621D01*
X619162Y-218616D01*
X619167Y-218591D01*
X619168Y-218586D01*
X619173Y-218561D01*
X619178Y-218536D01*
X619179Y-218531D01*
X619184Y-218506D01*
X619185Y-218501D01*
X619190Y-218476D01*
X619191Y-218471D01*
X619196Y-218446D01*
X619197Y-218441D01*
X619202Y-218416D01*
X619206Y-218391D01*
X619207Y-218391D01*
X619207Y-218386D01*
X619208Y-218386D01*
X619207Y-218386D01*
X619212Y-218361D01*
X619213Y-218356D01*
X619218Y-218331D01*
X619219Y-218326D01*
X619224Y-218301D01*
X619229Y-218276D01*
X619230Y-218271D01*
X619235Y-218246D01*
X619236Y-218241D01*
X619241Y-218216D01*
X619242Y-218211D01*
X619247Y-218186D01*
X619252Y-218161D01*
X619253Y-218156D01*
X619258Y-218131D01*
X619259Y-218126D01*
X619264Y-218101D01*
X619265Y-218096D01*
X619270Y-218071D01*
X619275Y-218046D01*
X619276Y-218041D01*
X619281Y-218016D01*
X619282Y-218011D01*
X619287Y-217986D01*
X619288Y-217981D01*
X619293Y-217956D01*
X619294Y-217951D01*
X619298Y-217931D01*
X619299Y-217926D01*
X619304Y-217901D01*
X619305Y-217896D01*
X619310Y-217871D01*
X619311Y-217866D01*
X619316Y-217841D01*
X619317Y-217836D01*
X619322Y-217811D01*
X619327Y-217786D01*
X619328Y-217781D01*
X619333Y-217756D01*
X619334Y-217751D01*
X619339Y-217726D01*
X619340Y-217721D01*
X619345Y-217696D01*
X619350Y-217671D01*
X619351Y-217666D01*
X619356Y-217641D01*
X619357Y-217636D01*
X619362Y-217611D01*
X619363Y-217606D01*
X619368Y-217581D01*
X619373Y-217556D01*
X619374Y-217551D01*
X619379Y-217526D01*
X619380Y-217521D01*
X619385Y-217496D01*
X619386Y-217491D01*
X619390Y-217466D01*
X619391Y-217466D01*
X619390Y-217466D01*
X619395Y-217441D01*
X619396Y-217436D01*
X619401Y-217411D01*
X619402Y-217406D01*
X619407Y-217381D01*
X619408Y-217376D01*
X619413Y-217351D01*
X619414Y-217346D01*
X619419Y-217321D01*
X619424Y-217296D01*
X619425Y-217291D01*
X619430Y-217266D01*
X619431Y-217261D01*
X619436Y-217236D01*
X619437Y-217231D01*
X619442Y-217206D01*
X619447Y-217181D01*
X619448Y-217176D01*
X619453Y-217151D01*
X619454Y-217146D01*
X619459Y-217121D01*
X619460Y-217116D01*
X619465Y-217091D01*
X619470Y-217066D01*
X619471Y-217061D01*
X619476Y-217036D01*
X619477Y-217031D01*
X619482Y-217006D01*
X619483Y-217001D01*
X619488Y-216976D01*
X619493Y-216951D01*
X619494Y-216946D01*
X619499Y-216921D01*
X619500Y-216916D01*
X619505Y-216891D01*
X619506Y-216886D01*
X619511Y-216861D01*
X619512Y-216856D01*
X619516Y-216836D01*
X619517Y-216831D01*
X619522Y-216806D01*
X619523Y-216801D01*
X619528Y-216776D01*
X619529Y-216771D01*
X619534Y-216746D01*
X619535Y-216741D01*
X619540Y-216716D01*
X619545Y-216691D01*
X619546Y-216686D01*
X619551Y-216661D01*
X619552Y-216656D01*
X619557Y-216631D01*
X619558Y-216626D01*
X619563Y-216601D01*
X619568Y-216576D01*
X619569Y-216571D01*
X619573Y-216546D01*
X619574Y-216546D01*
X619574Y-216541D01*
X619575Y-216541D01*
X619574Y-216541D01*
X619577Y-216527D01*
X619582Y-216461D01*
X619582Y-216451D01*
X619583Y-216441D01*
X619584Y-216431D01*
X619584Y-216421D01*
X619585Y-216411D01*
X619594Y-216266D01*
X619595Y-216256D01*
X619596Y-216246D01*
X619596Y-216236D01*
X619597Y-216226D01*
X619606Y-216081D01*
X619607Y-216071D01*
X619608Y-216061D01*
X619608Y-216051D01*
X619609Y-216041D01*
X619610Y-216031D01*
X619619Y-215896D01*
X619619Y-215886D01*
X619620Y-215876D01*
X619621Y-215866D01*
X619621Y-215856D01*
X619622Y-215846D01*
X619631Y-215701D01*
X619632Y-215691D01*
X619633Y-215681D01*
X619633Y-215671D01*
X619634Y-215661D01*
X619635Y-215651D01*
X619643Y-215516D01*
X619644Y-215516D01*
X619644Y-215506D01*
X619645Y-215496D01*
X619645Y-215486D01*
X619646Y-215476D01*
X619647Y-215466D01*
X619656Y-215321D01*
X619657Y-215311D01*
X619658Y-215301D01*
X619658Y-215291D01*
X619659Y-215281D01*
X619668Y-215136D01*
X619669Y-215126D01*
X619670Y-215116D01*
X619670Y-215106D01*
X619671Y-215096D01*
X619672Y-215086D01*
X619681Y-214951D01*
X619681Y-214941D01*
X619682Y-214931D01*
X619682Y-214921D01*
X619683Y-214921D01*
X619682Y-214921D01*
X619683Y-214911D01*
X619684Y-214901D01*
X619693Y-214756D01*
X619694Y-214746D01*
X619695Y-214736D01*
X619695Y-214726D01*
X619696Y-214716D01*
X619697Y-214706D01*
X619705Y-214571D01*
X619706Y-214561D01*
X619707Y-214551D01*
X619707Y-214541D01*
X619708Y-214531D01*
X619709Y-214521D01*
X619718Y-214376D01*
X619719Y-214366D01*
X619720Y-214356D01*
X619720Y-214346D01*
X619721Y-214336D01*
X619721Y-214326D01*
X619722Y-214326D01*
X619721Y-214326D01*
X619730Y-214191D01*
X619731Y-214181D01*
X619732Y-214171D01*
X619732Y-214161D01*
X619733Y-214151D01*
X619734Y-214141D01*
X619742Y-214006D01*
X619743Y-213996D01*
X619744Y-213986D01*
X619744Y-213976D01*
X619745Y-213966D01*
X619746Y-213956D01*
X619755Y-213811D01*
X619756Y-213801D01*
X619757Y-213791D01*
X619757Y-213781D01*
X619758Y-213771D01*
X619759Y-213761D01*
X619767Y-213626D01*
X619768Y-213616D01*
X619769Y-213606D01*
X619769Y-213596D01*
X619770Y-213586D01*
X619771Y-213576D01*
X619780Y-213431D01*
X619781Y-213421D01*
X619781Y-213411D01*
X619782Y-213401D01*
X619783Y-213391D01*
X619783Y-213381D01*
X619792Y-213246D01*
X619793Y-213236D01*
X619794Y-213226D01*
X619794Y-213216D01*
X619795Y-213206D01*
X619796Y-213196D01*
X619805Y-213051D01*
X619806Y-213041D01*
X619806Y-213031D01*
X619807Y-213021D01*
X619808Y-213011D01*
X619817Y-212866D01*
X619818Y-212856D01*
X619818Y-212846D01*
X619819Y-212846D01*
X619818Y-212846D01*
X619819Y-212836D01*
X619820Y-212826D01*
X619820Y-212816D01*
X619829Y-212681D01*
X619830Y-212671D01*
X619831Y-212661D01*
X619831Y-212651D01*
X619832Y-212641D01*
X619833Y-212631D01*
X619842Y-212486D01*
X619843Y-212476D01*
X619843Y-212466D01*
X619844Y-212456D01*
X619845Y-212446D01*
X619845Y-212436D01*
X619854Y-212301D01*
X619855Y-212291D01*
X619856Y-212281D01*
X619856Y-212271D01*
X619857Y-212261D01*
X619857Y-212251D01*
X619858Y-212251D01*
X619857Y-212251D01*
X619867Y-212106D01*
X619868Y-212096D01*
X619868Y-212086D01*
X619869Y-212076D01*
X619870Y-212066D01*
X619879Y-211921D01*
X619880Y-211911D01*
X619880Y-211901D01*
X619881Y-211891D01*
X619882Y-211881D01*
X619882Y-211871D01*
X619891Y-211736D01*
X619892Y-211726D01*
X619893Y-211716D01*
X619893Y-211706D01*
X619894Y-211696D01*
X619895Y-211686D01*
X619904Y-211541D01*
X619905Y-211531D01*
X619905Y-211521D01*
X619906Y-211511D01*
X619907Y-211501D01*
X619907Y-211491D01*
X619916Y-211356D01*
X619917Y-211346D01*
X619917Y-211336D01*
X619918Y-211326D01*
X619919Y-211316D01*
X619919Y-211306D01*
X619929Y-211161D01*
X619930Y-211151D01*
X619930Y-211141D01*
X619931Y-211131D01*
X619932Y-211121D01*
X619932Y-211111D01*
X619941Y-210976D01*
X619942Y-210966D01*
X619942Y-210956D01*
X619943Y-210946D01*
X619944Y-210936D01*
X619944Y-210926D01*
X619953Y-210791D01*
X619954Y-210781D01*
X619954Y-210771D01*
X619955Y-210771D01*
X619954Y-210771D01*
X619955Y-210761D01*
X619956Y-210751D01*
X619956Y-210741D01*
X619966Y-210596D01*
X619967Y-210586D01*
X619967Y-210576D01*
X619968Y-210566D01*
X619969Y-210556D01*
X619969Y-210546D01*
X619978Y-210411D01*
X619979Y-210401D01*
X619979Y-210391D01*
X619980Y-210381D01*
X619981Y-210371D01*
X619981Y-210361D01*
X619991Y-210216D01*
X619992Y-210206D01*
X619992Y-210196D01*
X619993Y-210186D01*
X619993Y-210176D01*
X619994Y-210176D01*
X619993Y-210176D01*
X619994Y-210166D01*
X620003Y-210031D01*
X620004Y-210021D01*
X620004Y-210011D01*
X620005Y-210000D01*
X620005Y210000D01*
X619577Y216527D01*
X618301Y222942D01*
X618301Y222943D01*
X616199Y229136D01*
X616198Y229136D01*
X613306Y235002D01*
X613305Y235002D01*
X613305Y235003D01*
X609672Y240441D01*
X609671Y240441D01*
X605359Y245359D01*
X600441Y249671D01*
X600441Y249672D01*
X595003Y253305D01*
X595002Y253305D01*
X595002Y253306D01*
X589136Y256198D01*
X589136Y256199D01*
X582943Y258301D01*
X582942Y258301D01*
X576527Y259577D01*
X576523Y259577D01*
X576447Y259582D01*
X576371Y259587D01*
X576296Y259592D01*
X576295Y259592D01*
X576220Y259597D01*
X576144Y259602D01*
X576068Y259607D01*
X575992Y259612D01*
X575916Y259617D01*
X575841Y259622D01*
X575765Y259627D01*
X575689Y259632D01*
X575613Y259637D01*
X575537Y259642D01*
X575462Y259647D01*
X575461Y259647D01*
X575386Y259652D01*
X575310Y259657D01*
X575234Y259662D01*
X575158Y259667D01*
X575083Y259672D01*
X575082Y259672D01*
X575007Y259677D01*
X574931Y259682D01*
X574855Y259687D01*
X574779Y259692D01*
X574704Y259697D01*
X574703Y259697D01*
X574628Y259702D01*
X574552Y259707D01*
X574476Y259712D01*
X574400Y259717D01*
X574324Y259722D01*
X574249Y259727D01*
X574173Y259732D01*
X574097Y259736D01*
X574021Y259741D01*
X573945Y259746D01*
X573870Y259751D01*
X573869Y259751D01*
X573794Y259756D01*
X573718Y259761D01*
X573642Y259766D01*
X573566Y259771D01*
X573491Y259776D01*
X573490Y259776D01*
X573415Y259781D01*
X573339Y259786D01*
X573263Y259791D01*
X573187Y259796D01*
X573112Y259801D01*
X573111Y259801D01*
X573036Y259806D01*
X572960Y259811D01*
X572884Y259816D01*
X572808Y259821D01*
X572732Y259826D01*
X572657Y259831D01*
X572581Y259836D01*
X572505Y259841D01*
X572429Y259846D01*
X572353Y259851D01*
X572278Y259856D01*
X572277Y259856D01*
X572202Y259861D01*
X572126Y259866D01*
X572050Y259871D01*
X571974Y259876D01*
X571899Y259881D01*
X571898Y259881D01*
X571823Y259886D01*
X571747Y259891D01*
X571671Y259895D01*
X571595Y259900D01*
X571520Y259905D01*
X571519Y259905D01*
X571444Y259910D01*
X571368Y259915D01*
X571292Y259920D01*
X571216Y259925D01*
X571140Y259930D01*
X571065Y259935D01*
X570989Y259940D01*
X570913Y259945D01*
X570837Y259950D01*
X570761Y259955D01*
X570686Y259960D01*
X570685Y259960D01*
X570610Y259965D01*
X570534Y259970D01*
X570458Y259975D01*
X570382Y259980D01*
X570307Y259985D01*
X570306Y259985D01*
X570231Y259990D01*
X570155Y259995D01*
X570079Y260000D01*
X570003Y260005D01*
X570000Y260005D01*
X569996Y260005D01*
X569908Y260000D01*
X569819Y259995D01*
X569731Y259990D01*
X569642Y259985D01*
X569554Y259980D01*
X569466Y259975D01*
X569465Y259975D01*
X569377Y259970D01*
X569289Y259965D01*
X569288Y259965D01*
X569200Y259960D01*
X569112Y259955D01*
X569111Y259955D01*
X569023Y259950D01*
X568935Y259945D01*
X568934Y259945D01*
X568846Y259940D01*
X568758Y259935D01*
X568757Y259935D01*
X568669Y259930D01*
X568581Y259925D01*
X568580Y259925D01*
X568492Y259920D01*
X568404Y259915D01*
X568315Y259910D01*
X568227Y259905D01*
X568138Y259900D01*
X568050Y259895D01*
X567961Y259891D01*
X567961Y259890D01*
X567873Y259886D01*
X567785Y259881D01*
X567784Y259881D01*
X567696Y259876D01*
X567608Y259871D01*
X567607Y259871D01*
X567519Y259866D01*
X567431Y259861D01*
X567430Y259861D01*
X567342Y259856D01*
X567254Y259851D01*
X567253Y259851D01*
X567165Y259846D01*
X567077Y259841D01*
X567076Y259841D01*
X566988Y259836D01*
X566900Y259831D01*
X566899Y259831D01*
X566811Y259826D01*
X566723Y259821D01*
X566722Y259821D01*
X566634Y259816D01*
X566546Y259811D01*
X566457Y259806D01*
X566369Y259801D01*
X566280Y259796D01*
X566192Y259791D01*
X566103Y259786D01*
X566015Y259781D01*
X565927Y259776D01*
X565926Y259776D01*
X565838Y259771D01*
X565750Y259766D01*
X565749Y259766D01*
X565661Y259761D01*
X565573Y259756D01*
X565572Y259756D01*
X565484Y259751D01*
X565396Y259746D01*
X565395Y259746D01*
X565307Y259741D01*
X565219Y259736D01*
X565218Y259736D01*
X565130Y259732D01*
X565130Y259731D01*
X565042Y259727D01*
X565041Y259727D01*
X564953Y259722D01*
X564865Y259717D01*
X564776Y259712D01*
X564688Y259707D01*
X564599Y259702D01*
X564511Y259697D01*
X564422Y259692D01*
X564334Y259687D01*
X564245Y259682D01*
X564157Y259677D01*
X564069Y259672D01*
X564068Y259672D01*
X563980Y259667D01*
X563892Y259662D01*
X563891Y259662D01*
X563803Y259657D01*
X563715Y259652D01*
X563714Y259652D01*
X563626Y259647D01*
X563538Y259642D01*
X563537Y259642D01*
X563449Y259637D01*
X563361Y259632D01*
X563360Y259632D01*
X563272Y259627D01*
X563184Y259622D01*
X563183Y259622D01*
X563095Y259617D01*
X563007Y259612D01*
X562918Y259607D01*
X562830Y259602D01*
X562741Y259597D01*
X562653Y259592D01*
X562564Y259587D01*
X562476Y259582D01*
X562388Y259577D01*
X562387Y259577D01*
X562299Y259573D01*
X562299Y259572D01*
X562211Y259568D01*
X562210Y259568D01*
X562122Y259563D01*
X562034Y259558D01*
X562033Y259558D01*
X561945Y259553D01*
X561857Y259548D01*
X561856Y259548D01*
X561768Y259543D01*
X561680Y259538D01*
X561679Y259538D01*
X561591Y259533D01*
X561503Y259528D01*
X561502Y259528D01*
X561414Y259523D01*
X561326Y259518D01*
X561325Y259518D01*
X561237Y259513D01*
X561149Y259508D01*
X561060Y259503D01*
X561043Y259502D01*
X561042Y259502D01*
X552197Y257999D01*
X543576Y255515D01*
X535287Y252082D01*
X527435Y247742D01*
X520118Y242551D01*
X520118Y242550D01*
X513428Y236572D01*
X507450Y229883D01*
X507450Y229882D01*
X507449Y229882D01*
X502258Y222565D01*
X497918Y214713D01*
X494485Y206424D01*
X492001Y197803D01*
X491995Y197767D01*
X491994Y197762D01*
X491993Y197757D01*
X491992Y197752D01*
X491991Y197747D01*
X491991Y197742D01*
X491990Y197737D01*
X491989Y197732D01*
X491988Y197727D01*
X491987Y197722D01*
X491986Y197717D01*
X491986Y197712D01*
X491985Y197707D01*
X491984Y197702D01*
X491983Y197697D01*
X491982Y197692D01*
X491981Y197687D01*
X491980Y197682D01*
X491980Y197677D01*
X491979Y197672D01*
X491940Y197444D01*
X491939Y197439D01*
X491938Y197434D01*
X491937Y197429D01*
X491937Y197424D01*
X491936Y197419D01*
X491935Y197414D01*
X491934Y197409D01*
X491933Y197404D01*
X491932Y197399D01*
X491932Y197394D01*
X491931Y197394D01*
X491932Y197394D01*
X491931Y197389D01*
X491930Y197384D01*
X491929Y197379D01*
X491928Y197374D01*
X491927Y197369D01*
X491926Y197364D01*
X491926Y197359D01*
X491925Y197354D01*
X491924Y197349D01*
X491884Y197116D01*
X491883Y197111D01*
X491883Y197106D01*
X491882Y197101D01*
X491881Y197096D01*
X491880Y197091D01*
X491879Y197086D01*
X491878Y197081D01*
X491877Y197076D01*
X491877Y197071D01*
X491876Y197066D01*
X491875Y197061D01*
X491874Y197056D01*
X491873Y197051D01*
X491872Y197046D01*
X491872Y197041D01*
X491871Y197036D01*
X491870Y197031D01*
X491869Y197027D01*
X491869Y197026D01*
X491868Y197022D01*
X491829Y196793D01*
X491829Y196788D01*
X491828Y196788D01*
X491829Y196788D01*
X491828Y196783D01*
X491827Y196778D01*
X491826Y196773D01*
X491825Y196768D01*
X491824Y196763D01*
X491823Y196758D01*
X491823Y196753D01*
X491822Y196748D01*
X491821Y196743D01*
X491820Y196738D01*
X491819Y196733D01*
X491818Y196728D01*
X491818Y196723D01*
X491817Y196718D01*
X491816Y196713D01*
X491815Y196709D01*
X491815Y196708D01*
X491814Y196704D01*
X491814Y196703D01*
X491813Y196699D01*
X491812Y196694D01*
X491774Y196465D01*
X491773Y196460D01*
X491772Y196455D01*
X491771Y196450D01*
X491770Y196445D01*
X491769Y196440D01*
X491769Y196435D01*
X491768Y196430D01*
X491767Y196425D01*
X491766Y196420D01*
X491765Y196415D01*
X491764Y196410D01*
X491764Y196405D01*
X491763Y196405D01*
X491764Y196405D01*
X491763Y196400D01*
X491762Y196395D01*
X491761Y196391D01*
X491761Y196390D01*
X491760Y196386D01*
X491760Y196385D01*
X491759Y196381D01*
X491758Y196376D01*
X491758Y196371D01*
X491719Y196142D01*
X491718Y196137D01*
X491717Y196132D01*
X491716Y196127D01*
X491715Y196122D01*
X491715Y196117D01*
X491714Y196112D01*
X491713Y196107D01*
X491712Y196102D01*
X491711Y196097D01*
X491710Y196092D01*
X491709Y196087D01*
X491709Y196082D01*
X491708Y196077D01*
X491707Y196073D01*
X491707Y196072D01*
X491706Y196068D01*
X491706Y196067D01*
X491705Y196063D01*
X491704Y196058D01*
X491704Y196053D01*
X491703Y196048D01*
X491702Y196043D01*
X491663Y195814D01*
X491662Y195809D01*
X491661Y195804D01*
X491661Y195799D01*
X491660Y195799D01*
X491661Y195799D01*
X491660Y195794D01*
X491659Y195789D01*
X491658Y195784D01*
X491657Y195779D01*
X491656Y195774D01*
X491655Y195769D01*
X491655Y195764D01*
X491654Y195759D01*
X491653Y195755D01*
X491653Y195754D01*
X491652Y195750D01*
X491652Y195749D01*
X491651Y195745D01*
X491650Y195740D01*
X491650Y195735D01*
X491649Y195730D01*
X491648Y195725D01*
X491647Y195720D01*
X491608Y195491D01*
X491607Y195486D01*
X491606Y195481D01*
X491606Y195476D01*
X491605Y195471D01*
X491604Y195466D01*
X491603Y195461D01*
X491602Y195456D01*
X491601Y195451D01*
X491601Y195446D01*
X491600Y195441D01*
X491599Y195437D01*
X491599Y195436D01*
X491598Y195432D01*
X491598Y195431D01*
X491597Y195427D01*
X491596Y195422D01*
X491596Y195417D01*
X491595Y195417D01*
X491595Y195412D01*
X491594Y195407D01*
X491593Y195402D01*
X491592Y195397D01*
X491591Y195392D01*
X491552Y195163D01*
X491552Y195158D01*
X491551Y195153D01*
X491550Y195148D01*
X491549Y195143D01*
X491548Y195138D01*
X491547Y195133D01*
X491547Y195128D01*
X491546Y195123D01*
X491545Y195119D01*
X491545Y195118D01*
X491544Y195114D01*
X491544Y195113D01*
X491543Y195109D01*
X491542Y195104D01*
X491541Y195099D01*
X491541Y195094D01*
X491540Y195089D01*
X491539Y195084D01*
X491538Y195079D01*
X491537Y195074D01*
X491536Y195069D01*
X491497Y194835D01*
X491496Y194830D01*
X491495Y194825D01*
X491494Y194820D01*
X491493Y194815D01*
X491493Y194810D01*
X491492Y194810D01*
X491493Y194810D01*
X491492Y194805D01*
X491491Y194801D01*
X491491Y194800D01*
X491490Y194796D01*
X491490Y194795D01*
X491489Y194791D01*
X491488Y194786D01*
X491487Y194781D01*
X491487Y194776D01*
X491486Y194771D01*
X491485Y194766D01*
X491484Y194761D01*
X491483Y194756D01*
X491482Y194751D01*
X491482Y194746D01*
X491481Y194741D01*
X491442Y194512D01*
X491441Y194507D01*
X491440Y194502D01*
X491439Y194497D01*
X491438Y194492D01*
X491438Y194487D01*
X491437Y194483D01*
X491437Y194482D01*
X491436Y194478D01*
X491436Y194477D01*
X491435Y194473D01*
X491434Y194468D01*
X491433Y194463D01*
X491433Y194458D01*
X491432Y194453D01*
X491431Y194448D01*
X491430Y194443D01*
X491429Y194438D01*
X491428Y194433D01*
X491428Y194428D01*
X491427Y194428D01*
X491427Y194423D01*
X491426Y194418D01*
X491425Y194413D01*
X491386Y194184D01*
X491385Y194179D01*
X491384Y194174D01*
X491384Y194169D01*
X491383Y194165D01*
X491383Y194164D01*
X491382Y194160D01*
X491382Y194159D01*
X491381Y194155D01*
X491380Y194150D01*
X491379Y194145D01*
X491379Y194140D01*
X491378Y194135D01*
X491377Y194130D01*
X491376Y194125D01*
X491375Y194120D01*
X491374Y194115D01*
X491373Y194110D01*
X491373Y194105D01*
X491372Y194100D01*
X491371Y194095D01*
X491370Y194090D01*
X491331Y193861D01*
X491330Y193856D01*
X491330Y193851D01*
X491329Y193847D01*
X491329Y193846D01*
X491328Y193842D01*
X491328Y193841D01*
X491327Y193837D01*
X491326Y193832D01*
X491325Y193827D01*
X491325Y193822D01*
X491324Y193822D01*
X491325Y193822D01*
X491324Y193817D01*
X491323Y193812D01*
X491322Y193807D01*
X491321Y193802D01*
X491320Y193797D01*
X491319Y193792D01*
X491319Y193787D01*
X491318Y193782D01*
X491317Y193777D01*
X491316Y193772D01*
X491315Y193767D01*
X491314Y193762D01*
X491276Y193533D01*
X491275Y193529D01*
X491275Y193528D01*
X491274Y193524D01*
X491274Y193523D01*
X491273Y193519D01*
X491272Y193514D01*
X491271Y193509D01*
X491270Y193504D01*
X491270Y193499D01*
X491269Y193494D01*
X491268Y193489D01*
X491267Y193484D01*
X491266Y193479D01*
X491265Y193474D01*
X491265Y193469D01*
X491264Y193464D01*
X491263Y193459D01*
X491262Y193454D01*
X491261Y193449D01*
X491260Y193444D01*
X491260Y193439D01*
X491259Y193439D01*
X491221Y193211D01*
X491221Y193210D01*
X491220Y193206D01*
X491220Y193205D01*
X491219Y193201D01*
X491218Y193196D01*
X491217Y193191D01*
X491216Y193186D01*
X491216Y193181D01*
X491215Y193176D01*
X491214Y193171D01*
X491213Y193166D01*
X491212Y193161D01*
X491211Y193156D01*
X491211Y193151D01*
X491210Y193146D01*
X491209Y193141D01*
X491208Y193136D01*
X491207Y193131D01*
X491206Y193126D01*
X491205Y193121D01*
X491205Y193116D01*
X491204Y193111D01*
X491165Y192883D01*
X491164Y192878D01*
X491163Y192873D01*
X491162Y192868D01*
X491162Y192863D01*
X491161Y192858D01*
X491160Y192853D01*
X491159Y192848D01*
X491158Y192843D01*
X491157Y192838D01*
X491157Y192833D01*
X491156Y192833D01*
X491157Y192833D01*
X491156Y192828D01*
X491155Y192823D01*
X491154Y192818D01*
X491153Y192813D01*
X491152Y192808D01*
X491151Y192803D01*
X491151Y192798D01*
X491150Y192793D01*
X491149Y192788D01*
X491109Y192555D01*
X491108Y192550D01*
X491108Y192545D01*
X491107Y192540D01*
X491106Y192535D01*
X491105Y192530D01*
X491104Y192525D01*
X491103Y192520D01*
X491102Y192515D01*
X491102Y192510D01*
X491101Y192505D01*
X491100Y192500D01*
X491099Y192495D01*
X491098Y192490D01*
X491097Y192485D01*
X491097Y192480D01*
X491096Y192475D01*
X491095Y192470D01*
X491094Y192465D01*
X491093Y192460D01*
X491054Y192232D01*
X491054Y192227D01*
X491053Y192227D01*
X491054Y192227D01*
X491053Y192222D01*
X491052Y192217D01*
X491051Y192212D01*
X491050Y192207D01*
X491049Y192202D01*
X491048Y192197D01*
X491048Y192192D01*
X491047Y192187D01*
X491046Y192182D01*
X491045Y192177D01*
X491044Y192172D01*
X491043Y192167D01*
X491043Y192162D01*
X491042Y192157D01*
X491041Y192152D01*
X491040Y192147D01*
X491039Y192142D01*
X491038Y192137D01*
X490999Y191904D01*
X490998Y191899D01*
X490997Y191894D01*
X490996Y191889D01*
X490995Y191884D01*
X490994Y191879D01*
X490994Y191874D01*
X490993Y191869D01*
X490992Y191864D01*
X490991Y191859D01*
X490990Y191854D01*
X490989Y191849D01*
X490989Y191844D01*
X490988Y191844D01*
X490989Y191844D01*
X490988Y191839D01*
X490987Y191834D01*
X490986Y191829D01*
X490985Y191824D01*
X490984Y191819D01*
X490983Y191814D01*
X490983Y191809D01*
X490944Y191581D01*
X490943Y191576D01*
X490942Y191571D01*
X490941Y191566D01*
X490940Y191561D01*
X490940Y191556D01*
X490939Y191551D01*
X490938Y191546D01*
X490937Y191541D01*
X490936Y191536D01*
X490935Y191531D01*
X490934Y191526D01*
X490934Y191521D01*
X490933Y191516D01*
X490932Y191511D01*
X490931Y191506D01*
X490930Y191501D01*
X490929Y191496D01*
X490929Y191491D01*
X490928Y191486D01*
X490927Y191481D01*
X490888Y191253D01*
X490887Y191248D01*
X490886Y191243D01*
X490886Y191238D01*
X490885Y191238D01*
X490886Y191238D01*
X490885Y191233D01*
X490884Y191228D01*
X490883Y191223D01*
X490882Y191218D01*
X490881Y191213D01*
X490880Y191208D01*
X490880Y191203D01*
X490879Y191198D01*
X490878Y191193D01*
X490877Y191188D01*
X490876Y191183D01*
X490875Y191178D01*
X490875Y191173D01*
X490874Y191168D01*
X490873Y191163D01*
X490872Y191158D01*
X490833Y190930D01*
X490832Y190925D01*
X490831Y190920D01*
X490831Y190915D01*
X490830Y190910D01*
X490829Y190905D01*
X490828Y190900D01*
X490827Y190895D01*
X490826Y190890D01*
X490826Y190885D01*
X490825Y190880D01*
X490824Y190875D01*
X490823Y190870D01*
X490822Y190865D01*
X490821Y190860D01*
X490821Y190855D01*
X490820Y190855D01*
X490820Y190850D01*
X490819Y190845D01*
X490818Y190840D01*
X490817Y190835D01*
X490816Y190830D01*
X490777Y190602D01*
X490777Y190597D01*
X490776Y190592D01*
X490775Y190587D01*
X490774Y190582D01*
X490773Y190577D01*
X490772Y190572D01*
X490772Y190567D01*
X490771Y190562D01*
X490770Y190557D01*
X490769Y190552D01*
X490768Y190547D01*
X490767Y190542D01*
X490766Y190537D01*
X490766Y190532D01*
X490765Y190527D01*
X490764Y190522D01*
X490763Y190517D01*
X490762Y190512D01*
X490761Y190508D01*
X490761Y190507D01*
X490723Y190279D01*
X490722Y190274D01*
X490721Y190269D01*
X490720Y190264D01*
X490719Y190259D01*
X490718Y190254D01*
X490718Y190249D01*
X490717Y190249D01*
X490718Y190249D01*
X490717Y190244D01*
X490716Y190239D01*
X490715Y190234D01*
X490714Y190229D01*
X490713Y190224D01*
X490712Y190219D01*
X490712Y190214D01*
X490711Y190209D01*
X490710Y190204D01*
X490709Y190199D01*
X490708Y190194D01*
X490707Y190190D01*
X490707Y190189D01*
X490707Y190185D01*
X490706Y190180D01*
X490667Y189951D01*
X490666Y189946D01*
X490665Y189941D01*
X490664Y189936D01*
X490663Y189931D01*
X490663Y189926D01*
X490662Y189921D01*
X490661Y189916D01*
X490660Y189911D01*
X490659Y189906D01*
X490658Y189901D01*
X490658Y189896D01*
X490657Y189891D01*
X490656Y189886D01*
X490655Y189881D01*
X490654Y189876D01*
X490653Y189872D01*
X490653Y189871D01*
X490653Y189867D01*
X490652Y189867D01*
X490652Y189866D01*
X490652Y189862D01*
X490651Y189857D01*
X490611Y189623D01*
X490610Y189618D01*
X490609Y189613D01*
X490609Y189608D01*
X490608Y189603D01*
X490607Y189598D01*
X490606Y189593D01*
X490605Y189588D01*
X490604Y189583D01*
X490604Y189578D01*
X490603Y189573D01*
X490602Y189568D01*
X490601Y189563D01*
X490600Y189558D01*
X490599Y189554D01*
X490599Y189553D01*
X490598Y189549D01*
X490598Y189548D01*
X490598Y189544D01*
X490597Y189539D01*
X490596Y189534D01*
X490595Y189529D01*
X490556Y189300D01*
X490555Y189295D01*
X490555Y189290D01*
X490554Y189285D01*
X490553Y189280D01*
X490552Y189275D01*
X490551Y189270D01*
X490550Y189265D01*
X490550Y189260D01*
X490549Y189260D01*
X490550Y189260D01*
X490549Y189255D01*
X490548Y189250D01*
X490547Y189245D01*
X490546Y189240D01*
X490545Y189236D01*
X490545Y189235D01*
X490544Y189231D01*
X490544Y189230D01*
X490544Y189226D01*
X490543Y189221D01*
X490542Y189216D01*
X490541Y189211D01*
X490540Y189206D01*
X490501Y188972D01*
X490500Y188967D01*
X490499Y188962D01*
X490498Y188958D01*
X490498Y188957D01*
X490494Y188893D01*
X490494Y188888D01*
X490491Y188823D01*
X490490Y188818D01*
X490487Y188754D01*
X490487Y188753D01*
X490486Y188749D01*
X490482Y188679D01*
X490479Y188609D01*
X490475Y188540D01*
X490474Y188535D01*
X490471Y188470D01*
X490470Y188465D01*
X490467Y188401D01*
X490467Y188396D01*
X490463Y188331D01*
X490463Y188326D01*
X490459Y188257D01*
X490455Y188187D01*
X490451Y188118D01*
X490451Y188117D01*
X490451Y188113D01*
X490447Y188048D01*
X490447Y188043D01*
X490443Y187978D01*
X490443Y187973D01*
X490439Y187909D01*
X490439Y187904D01*
X490435Y187834D01*
X490431Y187765D01*
X490427Y187695D01*
X490427Y187690D01*
X490423Y187626D01*
X490423Y187621D01*
X490419Y187556D01*
X490419Y187551D01*
X490415Y187486D01*
X490415Y187482D01*
X490415Y187481D01*
X490411Y187412D01*
X490407Y187342D01*
X490403Y187273D01*
X490403Y187268D01*
X490400Y187203D01*
X490399Y187198D01*
X490396Y187134D01*
X490395Y187129D01*
X490392Y187064D01*
X490391Y187059D01*
X490388Y186990D01*
X490384Y186920D01*
X490380Y186851D01*
X490380Y186850D01*
X490379Y186846D01*
X490379Y186845D01*
X490376Y186781D01*
X490376Y186776D01*
X490372Y186711D01*
X490372Y186706D01*
X490368Y186642D01*
X490368Y186637D01*
X490364Y186567D01*
X490360Y186498D01*
X490356Y186428D01*
X490356Y186423D01*
X490352Y186359D01*
X490352Y186354D01*
X490348Y186289D01*
X490348Y186284D01*
X490344Y186219D01*
X490344Y186215D01*
X490344Y186214D01*
X490340Y186145D01*
X490336Y186075D01*
X490332Y186006D01*
X490328Y185936D01*
X490328Y185931D01*
X490325Y185867D01*
X490324Y185867D01*
X490324Y185862D01*
X490321Y185797D01*
X490320Y185792D01*
X490317Y185728D01*
X490316Y185723D01*
X490313Y185653D01*
X490312Y185653D01*
X490313Y185653D01*
X490309Y185583D01*
X490305Y185514D01*
X490304Y185509D01*
X490301Y185444D01*
X490301Y185439D01*
X490300Y185439D01*
X490301Y185439D01*
X490297Y185375D01*
X490297Y185370D01*
X490293Y185305D01*
X490293Y185300D01*
X490289Y185231D01*
X490285Y185161D01*
X490281Y185092D01*
X490281Y185087D01*
X490277Y185022D01*
X490277Y185017D01*
X490273Y184952D01*
X490273Y184947D01*
X490269Y184883D01*
X490269Y184878D01*
X490265Y184808D01*
X490261Y184739D01*
X490257Y184669D01*
X490257Y184664D01*
X490253Y184600D01*
X490253Y184595D01*
X490249Y184530D01*
X490249Y184525D01*
X490246Y184461D01*
X490246Y184460D01*
X490245Y184456D01*
X490241Y184386D01*
X490237Y184316D01*
X490234Y184247D01*
X490233Y184242D01*
X490230Y184177D01*
X490229Y184172D01*
X490226Y184108D01*
X490225Y184103D01*
X490222Y184038D01*
X490222Y184033D01*
X490218Y183964D01*
X490214Y183894D01*
X490210Y183825D01*
X490210Y183824D01*
X490210Y183820D01*
X490206Y183755D01*
X490206Y183750D01*
X490202Y183685D01*
X490202Y183680D01*
X490198Y183616D01*
X490198Y183611D01*
X490194Y183541D01*
X490190Y183472D01*
X490186Y183402D01*
X490186Y183397D01*
X490182Y183333D01*
X490182Y183328D01*
X490178Y183263D01*
X490178Y183258D01*
X490174Y183193D01*
X490174Y183189D01*
X490174Y183188D01*
X490170Y183119D01*
X490166Y183049D01*
X490162Y182980D01*
X490162Y182975D01*
X490158Y182910D01*
X490158Y182905D01*
X490155Y182841D01*
X490154Y182836D01*
X490151Y182771D01*
X490150Y182766D01*
X490147Y182702D01*
X490146Y182697D01*
X490143Y182627D01*
X490139Y182558D01*
X490139Y182557D01*
X490135Y182488D01*
X490134Y182483D01*
X490131Y182418D01*
X490131Y182413D01*
X490127Y182349D01*
X490127Y182344D01*
X490123Y182279D01*
X490123Y182274D01*
X490119Y182205D01*
X490115Y182135D01*
X490111Y182066D01*
X490111Y182061D01*
X490107Y181996D01*
X490107Y181991D01*
X490103Y181926D01*
X490103Y181922D01*
X490103Y181921D01*
X490099Y181857D01*
X490099Y181852D01*
X490095Y181782D01*
X490091Y181713D01*
X490087Y181643D01*
X490087Y181638D01*
X490083Y181574D01*
X490083Y181569D01*
X490080Y181504D01*
X490079Y181504D01*
X490079Y181499D01*
X490076Y181435D01*
X490075Y181430D01*
X490071Y181360D01*
X490068Y181290D01*
X490067Y181290D01*
X490068Y181290D01*
X490064Y181221D01*
X490063Y181216D01*
X490060Y181151D01*
X490059Y181146D01*
X490056Y181082D01*
X490056Y181077D01*
X490055Y181077D01*
X490056Y181077D01*
X490052Y181012D01*
X490052Y181007D01*
X490048Y180938D01*
X490044Y180868D01*
X490040Y180799D01*
X490040Y180794D01*
X490036Y180729D01*
X490036Y180724D01*
X490032Y180659D01*
X490032Y180654D01*
X490028Y180590D01*
X490028Y180585D01*
X490024Y180515D01*
X490020Y180446D01*
X490016Y180376D01*
X490016Y180371D01*
X490012Y180307D01*
X490012Y180302D01*
X490008Y180237D01*
X490008Y180232D01*
X490004Y180168D01*
X490004Y180167D01*
X490004Y180163D01*
X490000Y180093D01*
X489996Y180023D01*
X489995Y180000D01*
X489995Y105000D01*
X489975Y104772D01*
X489960Y104603D01*
X489950Y104489D01*
X489950Y104488D01*
X489935Y104320D01*
X489911Y104036D01*
X489886Y103753D01*
X489871Y103584D01*
X489861Y103470D01*
X489846Y103301D01*
X489843Y103264D01*
X489392Y101582D01*
X488656Y100002D01*
X487657Y98575D01*
X486425Y97343D01*
X484998Y96344D01*
X483418Y95608D01*
X481736Y95157D01*
X478263Y94853D01*
X478262Y94853D01*
X476579Y94402D01*
X476578Y94401D01*
X474998Y93665D01*
X474998Y93664D01*
X474997Y93664D01*
X473569Y92665D01*
X473569Y92664D01*
X472336Y91431D01*
X472335Y91431D01*
X471336Y90003D01*
X471336Y90002D01*
X471335Y90002D01*
X470599Y88422D01*
X470598Y88421D01*
X470147Y86738D01*
X470147Y86737D01*
X470139Y86651D01*
X470115Y86367D01*
X470090Y86084D01*
X470075Y85915D01*
X470065Y85801D01*
X470050Y85632D01*
X470026Y85349D01*
X470011Y85180D01*
X470001Y85066D01*
X469995Y85000D01*
X469995Y65000D01*
X470147Y63263D01*
X470147Y63262D01*
X470598Y61579D01*
X470599Y61578D01*
X471335Y59998D01*
X471336Y59998D01*
X471336Y59997D01*
X472335Y58569D01*
X472336Y58569D01*
X473569Y57336D01*
X473569Y57335D01*
X474997Y56336D01*
X474998Y56336D01*
X474998Y56335D01*
X476578Y55599D01*
X476579Y55598D01*
X478262Y55147D01*
X478263Y55147D01*
X481736Y54843D01*
X483418Y54392D01*
X484998Y53656D01*
X486425Y52657D01*
X487657Y51425D01*
X488656Y49998D01*
X489392Y48418D01*
X489843Y46736D01*
X489995Y45000D01*
X489995Y-59000D01*
X489992Y-59024D01*
X489992Y-59029D01*
X489991Y-59034D01*
X489991Y-59039D01*
X489990Y-59044D01*
X489989Y-59049D01*
X489989Y-59054D01*
X489988Y-59059D01*
X489988Y-59064D01*
X489987Y-59069D01*
X489987Y-59074D01*
X489986Y-59079D01*
X489986Y-59084D01*
X489985Y-59084D01*
X489986Y-59084D01*
X489985Y-59089D01*
X489984Y-59094D01*
X489984Y-59099D01*
X489983Y-59104D01*
X489983Y-59109D01*
X489982Y-59114D01*
X489982Y-59119D01*
X489981Y-59124D01*
X489980Y-59129D01*
X489980Y-59134D01*
X489979Y-59139D01*
X489979Y-59144D01*
X489978Y-59149D01*
X489978Y-59154D01*
X489977Y-59159D01*
X489970Y-59219D01*
X489970Y-59224D01*
X489969Y-59229D01*
X489969Y-59234D01*
X489968Y-59239D01*
X489967Y-59244D01*
X489967Y-59249D01*
X489966Y-59254D01*
X489966Y-59259D01*
X489965Y-59264D01*
X489965Y-59269D01*
X489964Y-59274D01*
X489964Y-59279D01*
X489963Y-59284D01*
X489962Y-59289D01*
X489962Y-59294D01*
X489961Y-59299D01*
X489961Y-59304D01*
X489960Y-59309D01*
X489960Y-59314D01*
X489959Y-59319D01*
X489958Y-59324D01*
X489958Y-59329D01*
X489957Y-59334D01*
X489957Y-59339D01*
X489956Y-59344D01*
X489956Y-59349D01*
X489955Y-59354D01*
X489949Y-59409D01*
X489948Y-59414D01*
X489948Y-59419D01*
X489947Y-59424D01*
X489947Y-59429D01*
X489946Y-59434D01*
X489946Y-59439D01*
X489945Y-59439D01*
X489946Y-59439D01*
X489945Y-59444D01*
X489944Y-59449D01*
X489944Y-59454D01*
X489943Y-59459D01*
X489943Y-59464D01*
X489942Y-59469D01*
X489942Y-59474D01*
X489941Y-59479D01*
X489940Y-59484D01*
X489940Y-59489D01*
X489939Y-59494D01*
X489939Y-59499D01*
X489938Y-59504D01*
X489938Y-59509D01*
X489937Y-59514D01*
X489937Y-59519D01*
X489936Y-59519D01*
X489937Y-59519D01*
X489936Y-59524D01*
X489935Y-59529D01*
X489935Y-59534D01*
X489934Y-59539D01*
X489934Y-59544D01*
X489933Y-59549D01*
X489927Y-59604D01*
X489926Y-59609D01*
X489926Y-59614D01*
X489925Y-59619D01*
X489925Y-59624D01*
X489924Y-59629D01*
X489924Y-59634D01*
X489923Y-59639D01*
X489922Y-59644D01*
X489922Y-59649D01*
X489921Y-59654D01*
X489921Y-59659D01*
X489920Y-59664D01*
X489920Y-59669D01*
X489919Y-59674D01*
X489918Y-59679D01*
X489918Y-59684D01*
X489917Y-59689D01*
X489917Y-59694D01*
X489916Y-59699D01*
X489916Y-59704D01*
X489915Y-59709D01*
X489915Y-59714D01*
X489914Y-59719D01*
X489913Y-59724D01*
X489913Y-59729D01*
X489912Y-59734D01*
X489912Y-59739D01*
X489905Y-59799D01*
X489904Y-59804D01*
X489904Y-59809D01*
X489903Y-59814D01*
X489903Y-59819D01*
X489902Y-59824D01*
X489902Y-59829D01*
X489901Y-59834D01*
X489900Y-59839D01*
X489900Y-59844D01*
X489899Y-59849D01*
X489899Y-59854D01*
X489898Y-59859D01*
X489898Y-59864D01*
X489897Y-59869D01*
X489897Y-59874D01*
X489896Y-59874D01*
X489897Y-59874D01*
X489896Y-59879D01*
X489895Y-59884D01*
X489895Y-59889D01*
X489894Y-59894D01*
X489894Y-59899D01*
X489893Y-59904D01*
X489893Y-59909D01*
X489892Y-59914D01*
X489891Y-59919D01*
X489891Y-59924D01*
X489890Y-59929D01*
X489890Y-59934D01*
X489883Y-59994D01*
X489882Y-59999D01*
X489882Y-60000D01*
X489550Y-60950D01*
X489014Y-61803D01*
X488303Y-62514D01*
X487450Y-63050D01*
X486500Y-63382D01*
X485500Y-63495D01*
X350000Y-63495D01*
X349999Y-63495D01*
X349109Y-63595D01*
X349109Y-63596D01*
X349108Y-63596D01*
X348263Y-63891D01*
X348262Y-63892D01*
X347503Y-64368D01*
X347503Y-64369D01*
X346869Y-65003D01*
X346868Y-65003D01*
X346392Y-65762D01*
X346392Y-65763D01*
X346391Y-65763D01*
X346096Y-66608D01*
X346096Y-66609D01*
X346095Y-66609D01*
X346095Y-66614D01*
X346094Y-66619D01*
X346094Y-66624D01*
X346093Y-66629D01*
X346093Y-66634D01*
X346092Y-66639D01*
X346091Y-66644D01*
X346091Y-66649D01*
X346090Y-66654D01*
X346090Y-66659D01*
X346089Y-66664D01*
X346089Y-66669D01*
X346088Y-66674D01*
X346087Y-66679D01*
X346087Y-66684D01*
X346086Y-66689D01*
X346086Y-66694D01*
X346085Y-66699D01*
X346085Y-66704D01*
X346078Y-66759D01*
X346078Y-66764D01*
X346077Y-66769D01*
X346077Y-66774D01*
X346076Y-66779D01*
X346076Y-66784D01*
X346075Y-66789D01*
X346075Y-66794D01*
X346074Y-66794D01*
X346075Y-66794D01*
X346074Y-66799D01*
X346073Y-66804D01*
X346073Y-66809D01*
X346072Y-66814D01*
X346072Y-66819D01*
X346071Y-66824D01*
X346071Y-66829D01*
X346070Y-66834D01*
X346069Y-66839D01*
X346069Y-66844D01*
X346068Y-66849D01*
X346068Y-66854D01*
X346067Y-66859D01*
X346067Y-66864D01*
X346066Y-66869D01*
X346066Y-66874D01*
X346065Y-66874D01*
X346066Y-66874D01*
X346065Y-66879D01*
X346064Y-66884D01*
X346064Y-66889D01*
X346063Y-66894D01*
X346057Y-66949D01*
X346056Y-66954D01*
X346056Y-66959D01*
X346055Y-66964D01*
X346055Y-66969D01*
X346054Y-66974D01*
X346054Y-66979D01*
X346053Y-66984D01*
X346053Y-66989D01*
X346052Y-66994D01*
X346051Y-66999D01*
X346051Y-67004D01*
X346050Y-67009D01*
X346050Y-67014D01*
X346049Y-67019D01*
X346049Y-67024D01*
X346048Y-67029D01*
X346047Y-67034D01*
X346047Y-67039D01*
X346046Y-67044D01*
X346046Y-67049D01*
X346045Y-67054D01*
X346045Y-67059D01*
X346044Y-67064D01*
X346044Y-67069D01*
X346043Y-67074D01*
X346042Y-67079D01*
X346042Y-67084D01*
X346036Y-67139D01*
X346035Y-67144D01*
X346035Y-67149D01*
X346034Y-67149D01*
X346035Y-67149D01*
X346034Y-67154D01*
X346033Y-67159D01*
X346033Y-67164D01*
X346032Y-67169D01*
X346032Y-67174D01*
X346031Y-67179D01*
X346031Y-67184D01*
X346030Y-67189D01*
X346029Y-67194D01*
X346029Y-67199D01*
X346028Y-67204D01*
X346028Y-67209D01*
X346027Y-67214D01*
X346027Y-67219D01*
X346026Y-67224D01*
X346026Y-67229D01*
X346025Y-67229D01*
X346026Y-67229D01*
X346025Y-67234D01*
X346024Y-67239D01*
X346024Y-67244D01*
X346023Y-67249D01*
X346023Y-67254D01*
X346022Y-67259D01*
X346022Y-67264D01*
X346021Y-67269D01*
X346020Y-67274D01*
X346014Y-67334D01*
X346013Y-67339D01*
X346013Y-67344D01*
X346012Y-67349D01*
X346011Y-67354D01*
X346011Y-67359D01*
X346010Y-67364D01*
X346010Y-67369D01*
X346009Y-67374D01*
X346009Y-67379D01*
X346008Y-67384D01*
X346007Y-67389D01*
X346007Y-67394D01*
X346006Y-67399D01*
X346006Y-67404D01*
X346005Y-67409D01*
X346005Y-67414D01*
X346004Y-67419D01*
X346004Y-67424D01*
X346003Y-67429D01*
X346002Y-67434D01*
X346002Y-67439D01*
X346001Y-67444D01*
X346001Y-67449D01*
X346000Y-67454D01*
X346000Y-67459D01*
X345999Y-67464D01*
X345995Y-67499D01*
X345996Y-67500D01*
X345995Y-67501D01*
X346096Y-68400D01*
X346097Y-68400D01*
X346097Y-68401D01*
X346395Y-69255D01*
X346396Y-69255D01*
X346396Y-69256D01*
X346877Y-70022D01*
X346878Y-70022D01*
X346878Y-70023D01*
X347518Y-70663D01*
X347519Y-70663D01*
X348285Y-71145D01*
X348286Y-71145D01*
X349140Y-71444D01*
X349141Y-71444D01*
X350040Y-71546D01*
X350041Y-71546D01*
X485041Y-71546D01*
X486143Y-71670D01*
X487190Y-72037D01*
X488130Y-72627D01*
X488914Y-73411D01*
X489504Y-74350D01*
X489871Y-75398D01*
X489995Y-76500D01*
X489995Y-180000D01*
X490498Y-188957D01*
X490498Y-188958D01*
X492001Y-197803D01*
X494485Y-206424D01*
X497918Y-214713D01*
X502258Y-222565D01*
X507449Y-229882D01*
X507450Y-229882D01*
X507450Y-229883D01*
X513428Y-236572D01*
X520118Y-242550D01*
X520118Y-242551D01*
X527435Y-247742D01*
X535287Y-252082D01*
X543576Y-255515D01*
X552197Y-257999D01*
X561042Y-259502D01*
X561043Y-259502D01*
X561096Y-259505D01*
X561097Y-259505D01*
X561185Y-259510D01*
X561186Y-259510D01*
X561274Y-259515D01*
X561275Y-259515D01*
X561363Y-259520D01*
X561364Y-259520D01*
X561452Y-259525D01*
X561453Y-259525D01*
X561541Y-259530D01*
X561542Y-259530D01*
X561630Y-259535D01*
X561631Y-259535D01*
X561720Y-259540D01*
X561809Y-259545D01*
X561898Y-259550D01*
X561987Y-259555D01*
X562076Y-259560D01*
X562165Y-259565D01*
X562254Y-259570D01*
X562343Y-259575D01*
X562432Y-259580D01*
X562521Y-259585D01*
X562610Y-259590D01*
X562699Y-259595D01*
X562788Y-259600D01*
X562877Y-259605D01*
X562966Y-259610D01*
X563055Y-259615D01*
X563144Y-259620D01*
X563233Y-259625D01*
X563322Y-259630D01*
X563411Y-259635D01*
X563500Y-259640D01*
X563589Y-259645D01*
X563678Y-259650D01*
X563767Y-259655D01*
X563768Y-259655D01*
X563856Y-259660D01*
X563857Y-259660D01*
X563945Y-259665D01*
X563946Y-259665D01*
X564034Y-259670D01*
X564035Y-259670D01*
X564123Y-259675D01*
X564124Y-259675D01*
X564212Y-259680D01*
X564213Y-259680D01*
X564301Y-259685D01*
X564302Y-259685D01*
X564390Y-259690D01*
X564391Y-259690D01*
X564480Y-259695D01*
X564569Y-259700D01*
X564658Y-259705D01*
X564747Y-259710D01*
X564836Y-259715D01*
X564925Y-259720D01*
X565014Y-259725D01*
X565103Y-259730D01*
X565192Y-259735D01*
X565281Y-259740D01*
X565370Y-259745D01*
X565459Y-259750D01*
X565548Y-259755D01*
X565637Y-259760D01*
X565726Y-259765D01*
X565815Y-259770D01*
X565904Y-259775D01*
X565993Y-259780D01*
X566082Y-259785D01*
X566171Y-259790D01*
X566260Y-259795D01*
X566349Y-259800D01*
X566438Y-259805D01*
X566527Y-259810D01*
X566616Y-259815D01*
X566617Y-259815D01*
X566705Y-259820D01*
X566706Y-259820D01*
X566794Y-259825D01*
X566795Y-259825D01*
X566883Y-259830D01*
X566884Y-259830D01*
X566972Y-259835D01*
X566973Y-259835D01*
X567061Y-259840D01*
X567062Y-259840D01*
X567150Y-259845D01*
X567151Y-259845D01*
X567239Y-259850D01*
X567240Y-259850D01*
X567329Y-259855D01*
X567418Y-259860D01*
X567507Y-259865D01*
X567596Y-259870D01*
X567685Y-259875D01*
X567774Y-259880D01*
X567863Y-259885D01*
X567952Y-259890D01*
X568041Y-259895D01*
X568130Y-259900D01*
X568219Y-259905D01*
X568308Y-259910D01*
X568397Y-259915D01*
X568486Y-259920D01*
X568575Y-259925D01*
X568664Y-259930D01*
X568753Y-259935D01*
X568842Y-259940D01*
X568931Y-259945D01*
X569020Y-259950D01*
X569109Y-259955D01*
X569198Y-259960D01*
X569287Y-259965D01*
X569376Y-259970D01*
X569377Y-259970D01*
X569465Y-259975D01*
X569466Y-259975D01*
X569554Y-259980D01*
X569555Y-259980D01*
X569643Y-259985D01*
X569644Y-259985D01*
X569732Y-259990D01*
X569733Y-259990D01*
X569821Y-259995D01*
X569822Y-259995D01*
X569910Y-260000D01*
X569911Y-260000D01*
X569999Y-260005D01*
X570001Y-260005D01*
X570077Y-260000D01*
G37*
G36*
X690001Y-260005D02*
X690001Y-260005D01*
X690089Y-260000D01*
X690090Y-260000D01*
X690178Y-259995D01*
X690179Y-259995D01*
X690267Y-259990D01*
X690268Y-259990D01*
X690356Y-259985D01*
X690357Y-259985D01*
X690445Y-259980D01*
X690446Y-259980D01*
X690534Y-259975D01*
X690535Y-259975D01*
X690624Y-259970D01*
X690713Y-259965D01*
X690802Y-259960D01*
X690891Y-259955D01*
X690980Y-259950D01*
X691069Y-259945D01*
X691158Y-259940D01*
X691247Y-259935D01*
X691336Y-259930D01*
X691425Y-259925D01*
X691514Y-259920D01*
X691603Y-259915D01*
X691692Y-259910D01*
X691781Y-259905D01*
X691870Y-259900D01*
X691959Y-259895D01*
X692048Y-259890D01*
X692137Y-259885D01*
X692226Y-259880D01*
X692315Y-259875D01*
X692404Y-259870D01*
X692493Y-259865D01*
X692494Y-259865D01*
X692582Y-259860D01*
X692583Y-259860D01*
X692671Y-259855D01*
X692672Y-259855D01*
X692760Y-259850D01*
X692761Y-259850D01*
X692849Y-259845D01*
X692850Y-259845D01*
X692938Y-259840D01*
X692939Y-259840D01*
X693027Y-259835D01*
X693028Y-259835D01*
X693116Y-259830D01*
X693117Y-259830D01*
X693205Y-259825D01*
X693206Y-259825D01*
X693294Y-259820D01*
X693295Y-259820D01*
X693384Y-259815D01*
X693473Y-259810D01*
X693562Y-259805D01*
X693651Y-259800D01*
X693740Y-259795D01*
X693829Y-259790D01*
X693918Y-259785D01*
X694007Y-259780D01*
X694096Y-259775D01*
X694185Y-259770D01*
X694274Y-259765D01*
X694363Y-259760D01*
X694452Y-259755D01*
X694541Y-259750D01*
X694630Y-259745D01*
X694719Y-259740D01*
X694808Y-259735D01*
X694897Y-259730D01*
X694986Y-259725D01*
X695075Y-259720D01*
X695164Y-259715D01*
X695253Y-259710D01*
X695342Y-259705D01*
X695343Y-259705D01*
X695431Y-259700D01*
X695432Y-259700D01*
X695520Y-259695D01*
X695521Y-259695D01*
X695609Y-259690D01*
X695610Y-259690D01*
X695698Y-259685D01*
X695699Y-259685D01*
X695787Y-259680D01*
X695788Y-259680D01*
X695876Y-259675D01*
X695877Y-259675D01*
X695965Y-259670D01*
X695966Y-259670D01*
X696054Y-259665D01*
X696055Y-259665D01*
X696143Y-259660D01*
X696144Y-259660D01*
X696233Y-259655D01*
X696322Y-259650D01*
X696411Y-259645D01*
X696500Y-259640D01*
X696589Y-259635D01*
X696678Y-259630D01*
X696767Y-259625D01*
X696856Y-259620D01*
X696945Y-259615D01*
X697034Y-259610D01*
X697123Y-259605D01*
X697212Y-259600D01*
X697301Y-259595D01*
X697390Y-259590D01*
X697479Y-259585D01*
X697568Y-259580D01*
X697657Y-259575D01*
X697746Y-259570D01*
X697835Y-259565D01*
X697924Y-259560D01*
X698013Y-259555D01*
X698102Y-259550D01*
X698103Y-259550D01*
X698191Y-259545D01*
X698192Y-259545D01*
X698280Y-259540D01*
X698281Y-259540D01*
X698369Y-259535D01*
X698370Y-259535D01*
X698458Y-259530D01*
X698459Y-259530D01*
X698547Y-259525D01*
X698548Y-259525D01*
X698636Y-259520D01*
X698637Y-259520D01*
X698725Y-259515D01*
X698726Y-259515D01*
X698814Y-259510D01*
X698815Y-259510D01*
X698903Y-259505D01*
X698904Y-259505D01*
X698957Y-259502D01*
X698958Y-259502D01*
X707803Y-257999D01*
X716424Y-255515D01*
X724713Y-252082D01*
X732565Y-247742D01*
X739882Y-242551D01*
X739882Y-242550D01*
X739883Y-242550D01*
X746572Y-236572D01*
X752550Y-229883D01*
X752550Y-229882D01*
X752551Y-229882D01*
X757742Y-222565D01*
X762082Y-214713D01*
X765515Y-206424D01*
X767999Y-197803D01*
X768003Y-197781D01*
X768004Y-197776D01*
X768007Y-197756D01*
X768008Y-197751D01*
X768012Y-197726D01*
X768013Y-197721D01*
X768016Y-197701D01*
X768017Y-197696D01*
X768022Y-197671D01*
X768026Y-197646D01*
X768027Y-197641D01*
X768030Y-197621D01*
X768031Y-197616D01*
X768035Y-197591D01*
X768036Y-197586D01*
X768039Y-197566D01*
X768040Y-197561D01*
X768044Y-197536D01*
X768045Y-197536D01*
X768044Y-197536D01*
X768049Y-197511D01*
X768050Y-197506D01*
X768053Y-197486D01*
X768054Y-197481D01*
X768058Y-197456D01*
X768059Y-197451D01*
X768062Y-197431D01*
X768063Y-197426D01*
X768067Y-197401D01*
X768072Y-197376D01*
X768073Y-197371D01*
X768076Y-197351D01*
X768077Y-197346D01*
X768081Y-197321D01*
X768082Y-197316D01*
X768085Y-197296D01*
X768086Y-197291D01*
X768090Y-197266D01*
X768095Y-197241D01*
X768095Y-197236D01*
X768099Y-197216D01*
X768100Y-197211D01*
X768104Y-197186D01*
X768105Y-197181D01*
X768108Y-197161D01*
X768109Y-197156D01*
X768113Y-197131D01*
X768118Y-197106D01*
X768118Y-197101D01*
X768122Y-197081D01*
X768123Y-197076D01*
X768127Y-197051D01*
X768128Y-197046D01*
X768131Y-197026D01*
X768132Y-197021D01*
X768136Y-196996D01*
X768140Y-196971D01*
X768141Y-196971D01*
X768140Y-196971D01*
X768141Y-196966D01*
X768145Y-196946D01*
X768146Y-196941D01*
X768150Y-196916D01*
X768151Y-196911D01*
X768154Y-196891D01*
X768155Y-196886D01*
X768159Y-196861D01*
X768163Y-196836D01*
X768164Y-196831D01*
X768168Y-196811D01*
X768169Y-196806D01*
X768173Y-196781D01*
X768174Y-196776D01*
X768177Y-196756D01*
X768178Y-196751D01*
X768182Y-196726D01*
X768186Y-196701D01*
X768187Y-196696D01*
X768191Y-196676D01*
X768191Y-196671D01*
X768196Y-196646D01*
X768197Y-196641D01*
X768200Y-196621D01*
X768201Y-196616D01*
X768205Y-196591D01*
X768209Y-196566D01*
X768210Y-196561D01*
X768214Y-196541D01*
X768214Y-196536D01*
X768219Y-196511D01*
X768219Y-196506D01*
X768220Y-196506D01*
X768223Y-196486D01*
X768224Y-196481D01*
X768228Y-196456D01*
X768232Y-196431D01*
X768233Y-196426D01*
X768236Y-196406D01*
X768237Y-196406D01*
X768236Y-196406D01*
X768237Y-196401D01*
X768242Y-196376D01*
X768242Y-196371D01*
X768246Y-196351D01*
X768247Y-196346D01*
X768251Y-196321D01*
X768255Y-196296D01*
X768256Y-196291D01*
X768259Y-196271D01*
X768260Y-196266D01*
X768265Y-196241D01*
X768265Y-196236D01*
X768269Y-196216D01*
X768270Y-196211D01*
X768274Y-196186D01*
X768278Y-196161D01*
X768279Y-196156D01*
X768282Y-196136D01*
X768283Y-196131D01*
X768287Y-196106D01*
X768288Y-196101D01*
X768292Y-196081D01*
X768293Y-196076D01*
X768297Y-196051D01*
X768301Y-196026D01*
X768302Y-196021D01*
X768305Y-196001D01*
X768306Y-195996D01*
X768310Y-195971D01*
X768311Y-195966D01*
X768315Y-195946D01*
X768315Y-195941D01*
X768316Y-195941D01*
X768320Y-195916D01*
X768324Y-195891D01*
X768325Y-195886D01*
X768328Y-195866D01*
X768329Y-195861D01*
X768333Y-195836D01*
X768334Y-195831D01*
X768338Y-195811D01*
X768338Y-195806D01*
X768343Y-195781D01*
X768347Y-195756D01*
X768348Y-195751D01*
X768351Y-195731D01*
X768352Y-195726D01*
X768356Y-195701D01*
X768357Y-195696D01*
X768361Y-195676D01*
X768361Y-195671D01*
X768366Y-195646D01*
X768370Y-195621D01*
X768371Y-195616D01*
X768374Y-195596D01*
X768375Y-195591D01*
X768379Y-195566D01*
X768380Y-195561D01*
X768383Y-195541D01*
X768384Y-195536D01*
X768389Y-195511D01*
X768393Y-195486D01*
X768394Y-195481D01*
X768398Y-195456D01*
X768402Y-195431D01*
X768403Y-195426D01*
X768406Y-195406D01*
X768407Y-195401D01*
X768411Y-195376D01*
X768412Y-195376D01*
X768411Y-195376D01*
X768416Y-195351D01*
X768417Y-195346D01*
X768421Y-195321D01*
X768425Y-195296D01*
X768426Y-195291D01*
X768429Y-195271D01*
X768430Y-195266D01*
X768434Y-195241D01*
X768439Y-195216D01*
X768440Y-195211D01*
X768444Y-195186D01*
X768448Y-195161D01*
X768449Y-195156D01*
X768452Y-195136D01*
X768453Y-195131D01*
X768457Y-195106D01*
X768462Y-195081D01*
X768462Y-195076D01*
X768467Y-195051D01*
X768471Y-195026D01*
X768472Y-195021D01*
X768475Y-195001D01*
X768476Y-194996D01*
X768480Y-194971D01*
X768485Y-194946D01*
X768485Y-194941D01*
X768490Y-194916D01*
X768494Y-194891D01*
X768495Y-194886D01*
X768498Y-194866D01*
X768499Y-194861D01*
X768503Y-194836D01*
X768507Y-194811D01*
X768508Y-194811D01*
X768507Y-194811D01*
X768508Y-194806D01*
X768513Y-194781D01*
X768517Y-194756D01*
X768518Y-194751D01*
X768521Y-194731D01*
X768522Y-194726D01*
X768526Y-194701D01*
X768530Y-194676D01*
X768531Y-194671D01*
X768536Y-194646D01*
X768540Y-194621D01*
X768541Y-194616D01*
X768544Y-194596D01*
X768545Y-194591D01*
X768549Y-194566D01*
X768553Y-194541D01*
X768554Y-194536D01*
X768558Y-194511D01*
X768563Y-194486D01*
X768564Y-194481D01*
X768567Y-194461D01*
X768568Y-194456D01*
X768572Y-194431D01*
X768576Y-194406D01*
X768577Y-194401D01*
X768581Y-194376D01*
X768586Y-194351D01*
X768586Y-194346D01*
X768587Y-194346D01*
X768590Y-194326D01*
X768591Y-194321D01*
X768595Y-194296D01*
X768599Y-194271D01*
X768600Y-194266D01*
X768604Y-194241D01*
X768609Y-194216D01*
X768609Y-194211D01*
X768613Y-194191D01*
X768614Y-194186D01*
X768618Y-194161D01*
X768622Y-194136D01*
X768623Y-194131D01*
X768627Y-194106D01*
X768632Y-194081D01*
X768632Y-194076D01*
X768636Y-194056D01*
X768637Y-194051D01*
X768641Y-194026D01*
X768645Y-194001D01*
X768646Y-193996D01*
X768650Y-193971D01*
X768654Y-193946D01*
X768655Y-193941D01*
X768659Y-193921D01*
X768660Y-193916D01*
X768664Y-193891D01*
X768668Y-193866D01*
X768669Y-193861D01*
X768673Y-193836D01*
X768677Y-193811D01*
X768678Y-193806D01*
X768682Y-193786D01*
X768682Y-193781D01*
X768683Y-193781D01*
X768682Y-193781D01*
X768687Y-193756D01*
X768691Y-193731D01*
X768692Y-193726D01*
X768696Y-193701D01*
X768700Y-193676D01*
X768701Y-193671D01*
X768705Y-193651D01*
X768705Y-193646D01*
X768710Y-193621D01*
X768714Y-193596D01*
X768715Y-193591D01*
X768719Y-193566D01*
X768723Y-193541D01*
X768724Y-193536D01*
X768728Y-193516D01*
X768728Y-193511D01*
X768733Y-193486D01*
X768737Y-193461D01*
X768738Y-193456D01*
X768742Y-193431D01*
X768746Y-193406D01*
X768747Y-193401D01*
X768750Y-193381D01*
X768751Y-193376D01*
X768756Y-193351D01*
X768760Y-193326D01*
X768761Y-193321D01*
X768765Y-193296D01*
X768769Y-193271D01*
X768770Y-193266D01*
X768773Y-193246D01*
X768774Y-193241D01*
X768778Y-193216D01*
X768779Y-193216D01*
X768778Y-193216D01*
X768783Y-193191D01*
X768784Y-193186D01*
X768788Y-193161D01*
X768792Y-193136D01*
X768793Y-193131D01*
X768796Y-193111D01*
X768797Y-193106D01*
X768801Y-193081D01*
X768806Y-193056D01*
X768807Y-193051D01*
X768811Y-193026D01*
X768815Y-193001D01*
X768816Y-192996D01*
X768819Y-192976D01*
X768820Y-192971D01*
X768824Y-192946D01*
X768829Y-192921D01*
X768829Y-192916D01*
X768834Y-192891D01*
X768838Y-192866D01*
X768839Y-192861D01*
X768842Y-192841D01*
X768843Y-192836D01*
X768847Y-192811D01*
X768852Y-192786D01*
X768852Y-192781D01*
X768857Y-192756D01*
X768861Y-192731D01*
X768862Y-192726D01*
X768865Y-192706D01*
X768866Y-192701D01*
X768870Y-192676D01*
X768874Y-192651D01*
X768875Y-192651D01*
X768874Y-192651D01*
X768875Y-192646D01*
X768880Y-192621D01*
X768884Y-192596D01*
X768885Y-192591D01*
X768888Y-192571D01*
X768889Y-192566D01*
X768893Y-192541D01*
X768897Y-192516D01*
X768898Y-192511D01*
X768903Y-192486D01*
X768907Y-192461D01*
X768908Y-192456D01*
X768911Y-192436D01*
X768912Y-192431D01*
X768916Y-192406D01*
X768920Y-192381D01*
X768921Y-192376D01*
X768925Y-192351D01*
X768930Y-192326D01*
X768931Y-192321D01*
X768934Y-192301D01*
X768935Y-192296D01*
X768939Y-192271D01*
X768943Y-192246D01*
X768944Y-192241D01*
X768948Y-192216D01*
X768953Y-192191D01*
X768953Y-192186D01*
X768954Y-192186D01*
X768957Y-192166D01*
X768958Y-192161D01*
X768962Y-192136D01*
X768966Y-192111D01*
X768967Y-192106D01*
X768971Y-192081D01*
X768976Y-192056D01*
X768976Y-192051D01*
X768980Y-192031D01*
X768981Y-192026D01*
X768985Y-192001D01*
X768989Y-191976D01*
X768990Y-191971D01*
X768994Y-191946D01*
X768999Y-191921D01*
X768999Y-191916D01*
X769003Y-191896D01*
X769004Y-191891D01*
X769008Y-191866D01*
X769012Y-191841D01*
X769013Y-191836D01*
X769017Y-191811D01*
X769021Y-191786D01*
X769022Y-191781D01*
X769026Y-191761D01*
X769027Y-191756D01*
X769031Y-191731D01*
X769035Y-191706D01*
X769036Y-191701D01*
X769040Y-191676D01*
X769044Y-191651D01*
X769045Y-191646D01*
X769049Y-191626D01*
X769049Y-191621D01*
X769050Y-191621D01*
X769049Y-191621D01*
X769054Y-191596D01*
X769058Y-191571D01*
X769059Y-191566D01*
X769063Y-191541D01*
X769067Y-191516D01*
X769068Y-191511D01*
X769072Y-191491D01*
X769072Y-191486D01*
X769077Y-191461D01*
X769081Y-191436D01*
X769082Y-191431D01*
X769086Y-191406D01*
X769090Y-191381D01*
X769091Y-191376D01*
X769095Y-191356D01*
X769095Y-191351D01*
X769100Y-191326D01*
X769104Y-191301D01*
X769105Y-191296D01*
X769109Y-191271D01*
X769113Y-191246D01*
X769114Y-191241D01*
X769117Y-191221D01*
X769118Y-191216D01*
X769123Y-191191D01*
X769127Y-191166D01*
X769128Y-191161D01*
X769132Y-191136D01*
X769136Y-191111D01*
X769137Y-191106D01*
X769140Y-191086D01*
X769141Y-191081D01*
X769145Y-191056D01*
X769146Y-191056D01*
X769145Y-191056D01*
X769150Y-191031D01*
X769151Y-191026D01*
X769155Y-191001D01*
X769159Y-190976D01*
X769160Y-190971D01*
X769163Y-190951D01*
X769164Y-190946D01*
X769168Y-190921D01*
X769173Y-190896D01*
X769174Y-190891D01*
X769178Y-190866D01*
X769182Y-190841D01*
X769183Y-190836D01*
X769186Y-190816D01*
X769187Y-190811D01*
X769191Y-190786D01*
X769192Y-190781D01*
X769196Y-190761D01*
X769196Y-190756D01*
X769201Y-190731D01*
X769205Y-190706D01*
X769206Y-190701D01*
X769209Y-190681D01*
X769210Y-190676D01*
X769214Y-190651D01*
X769215Y-190646D01*
X769219Y-190626D01*
X769219Y-190621D01*
X769224Y-190596D01*
X769228Y-190571D01*
X769229Y-190566D01*
X769232Y-190546D01*
X769233Y-190541D01*
X769237Y-190516D01*
X769238Y-190511D01*
X769241Y-190491D01*
X769242Y-190491D01*
X769241Y-190491D01*
X769242Y-190486D01*
X769247Y-190461D01*
X769251Y-190436D01*
X769252Y-190431D01*
X769255Y-190411D01*
X769256Y-190406D01*
X769260Y-190381D01*
X769261Y-190376D01*
X769264Y-190356D01*
X769265Y-190351D01*
X769270Y-190326D01*
X769274Y-190301D01*
X769275Y-190296D01*
X769278Y-190276D01*
X769279Y-190271D01*
X769283Y-190246D01*
X769284Y-190241D01*
X769287Y-190221D01*
X769288Y-190216D01*
X769292Y-190191D01*
X769297Y-190166D01*
X769298Y-190161D01*
X769301Y-190141D01*
X769302Y-190136D01*
X769306Y-190111D01*
X769307Y-190106D01*
X769310Y-190086D01*
X769311Y-190081D01*
X769315Y-190056D01*
X769320Y-190031D01*
X769320Y-190026D01*
X769321Y-190026D01*
X769324Y-190006D01*
X769325Y-190001D01*
X769329Y-189976D01*
X769330Y-189971D01*
X769333Y-189951D01*
X769334Y-189946D01*
X769338Y-189921D01*
X769343Y-189896D01*
X769343Y-189891D01*
X769347Y-189871D01*
X769348Y-189866D01*
X769352Y-189841D01*
X769353Y-189836D01*
X769356Y-189816D01*
X769357Y-189811D01*
X769361Y-189786D01*
X769366Y-189761D01*
X769366Y-189756D01*
X769370Y-189736D01*
X769371Y-189731D01*
X769375Y-189706D01*
X769376Y-189701D01*
X769379Y-189681D01*
X769380Y-189676D01*
X769384Y-189651D01*
X769388Y-189626D01*
X769389Y-189621D01*
X769393Y-189601D01*
X769394Y-189596D01*
X769398Y-189571D01*
X769399Y-189566D01*
X769402Y-189546D01*
X769403Y-189541D01*
X769407Y-189516D01*
X769411Y-189491D01*
X769412Y-189486D01*
X769416Y-189466D01*
X769416Y-189461D01*
X769417Y-189461D01*
X769416Y-189461D01*
X769421Y-189436D01*
X769422Y-189431D01*
X769425Y-189411D01*
X769426Y-189406D01*
X769430Y-189381D01*
X769434Y-189356D01*
X769435Y-189351D01*
X769439Y-189331D01*
X769439Y-189326D01*
X769444Y-189301D01*
X769445Y-189296D01*
X769448Y-189276D01*
X769449Y-189271D01*
X769453Y-189246D01*
X769457Y-189221D01*
X769458Y-189216D01*
X769462Y-189196D01*
X769462Y-189191D01*
X769467Y-189166D01*
X769467Y-189161D01*
X769471Y-189141D01*
X769472Y-189136D01*
X769476Y-189111D01*
X769480Y-189086D01*
X769481Y-189081D01*
X769484Y-189061D01*
X769485Y-189056D01*
X769490Y-189031D01*
X769490Y-189026D01*
X769494Y-189006D01*
X769495Y-189001D01*
X769499Y-188976D01*
X769502Y-188958D01*
X769502Y-188957D01*
X769518Y-188671D01*
X769518Y-188666D01*
X769519Y-188661D01*
X769519Y-188656D01*
X769519Y-188651D01*
X769519Y-188646D01*
X769520Y-188641D01*
X769520Y-188636D01*
X769537Y-188326D01*
X769538Y-188321D01*
X769538Y-188316D01*
X769538Y-188311D01*
X769539Y-188306D01*
X769539Y-188301D01*
X769539Y-188296D01*
X769539Y-188291D01*
X769557Y-187981D01*
X769557Y-187976D01*
X769557Y-187971D01*
X769558Y-187966D01*
X769558Y-187961D01*
X769558Y-187956D01*
X769558Y-187951D01*
X769559Y-187951D01*
X769558Y-187951D01*
X769559Y-187946D01*
X769576Y-187636D01*
X769576Y-187631D01*
X769577Y-187626D01*
X769577Y-187621D01*
X769577Y-187616D01*
X769578Y-187611D01*
X769578Y-187606D01*
X769578Y-187601D01*
X769578Y-187596D01*
X769596Y-187286D01*
X769596Y-187281D01*
X769596Y-187276D01*
X769597Y-187271D01*
X769597Y-187266D01*
X769597Y-187261D01*
X769598Y-187256D01*
X769598Y-187251D01*
X769615Y-186941D01*
X769615Y-186936D01*
X769616Y-186936D01*
X769616Y-186931D01*
X769616Y-186926D01*
X769616Y-186921D01*
X769617Y-186916D01*
X769617Y-186911D01*
X769617Y-186906D01*
X769635Y-186596D01*
X769635Y-186591D01*
X769635Y-186586D01*
X769635Y-186581D01*
X769636Y-186576D01*
X769636Y-186571D01*
X769636Y-186566D01*
X769637Y-186561D01*
X769654Y-186251D01*
X769654Y-186246D01*
X769655Y-186241D01*
X769655Y-186236D01*
X769655Y-186231D01*
X769655Y-186226D01*
X769656Y-186221D01*
X769656Y-186216D01*
X769674Y-185901D01*
X769674Y-185896D01*
X769674Y-185891D01*
X769674Y-185886D01*
X769675Y-185881D01*
X769675Y-185876D01*
X769675Y-185871D01*
X769676Y-185866D01*
X769693Y-185556D01*
X769693Y-185551D01*
X769694Y-185546D01*
X769694Y-185541D01*
X769694Y-185536D01*
X769694Y-185531D01*
X769695Y-185526D01*
X769695Y-185521D01*
X769712Y-185211D01*
X769713Y-185206D01*
X769713Y-185201D01*
X769713Y-185196D01*
X769713Y-185191D01*
X769714Y-185191D01*
X769713Y-185191D01*
X769714Y-185186D01*
X769714Y-185181D01*
X769714Y-185176D01*
X769732Y-184866D01*
X769732Y-184861D01*
X769732Y-184856D01*
X769733Y-184851D01*
X769733Y-184846D01*
X769733Y-184841D01*
X769733Y-184836D01*
X769734Y-184831D01*
X769751Y-184521D01*
X769751Y-184516D01*
X769752Y-184511D01*
X769752Y-184506D01*
X769752Y-184501D01*
X769753Y-184496D01*
X769753Y-184491D01*
X769753Y-184486D01*
X769753Y-184481D01*
X769771Y-184171D01*
X769771Y-184166D01*
X769771Y-184161D01*
X769772Y-184156D01*
X769772Y-184151D01*
X769772Y-184146D01*
X769772Y-184141D01*
X769773Y-184136D01*
X769790Y-183826D01*
X769790Y-183821D01*
X769791Y-183816D01*
X769791Y-183811D01*
X769791Y-183806D01*
X769792Y-183801D01*
X769792Y-183796D01*
X769792Y-183791D01*
X769810Y-183481D01*
X769810Y-183476D01*
X769810Y-183471D01*
X769810Y-183466D01*
X769811Y-183461D01*
X769811Y-183456D01*
X769811Y-183451D01*
X769811Y-183446D01*
X769812Y-183446D01*
X769811Y-183446D01*
X769829Y-183136D01*
X769829Y-183131D01*
X769829Y-183126D01*
X769830Y-183121D01*
X769830Y-183116D01*
X769830Y-183111D01*
X769831Y-183106D01*
X769831Y-183101D01*
X769848Y-182791D01*
X769849Y-182786D01*
X769849Y-182781D01*
X769849Y-182776D01*
X769849Y-182771D01*
X769850Y-182766D01*
X769850Y-182761D01*
X769850Y-182756D01*
X769851Y-182751D01*
X769868Y-182441D01*
X769868Y-182436D01*
X769868Y-182431D01*
X769869Y-182431D01*
X769868Y-182431D01*
X769869Y-182426D01*
X769869Y-182421D01*
X769869Y-182416D01*
X769870Y-182411D01*
X769870Y-182406D01*
X769887Y-182096D01*
X769888Y-182091D01*
X769888Y-182086D01*
X769888Y-182081D01*
X769888Y-182076D01*
X769889Y-182071D01*
X769889Y-182066D01*
X769889Y-182061D01*
X769907Y-181751D01*
X769907Y-181746D01*
X769907Y-181741D01*
X769908Y-181736D01*
X769908Y-181731D01*
X769908Y-181726D01*
X769908Y-181721D01*
X769909Y-181716D01*
X769926Y-181406D01*
X769926Y-181401D01*
X769927Y-181396D01*
X769927Y-181391D01*
X769927Y-181386D01*
X769927Y-181381D01*
X769928Y-181376D01*
X769928Y-181371D01*
X769928Y-181366D01*
X769946Y-181056D01*
X769946Y-181051D01*
X769946Y-181046D01*
X769947Y-181041D01*
X769947Y-181036D01*
X769947Y-181031D01*
X769947Y-181026D01*
X769948Y-181021D01*
X769965Y-180711D01*
X769965Y-180706D01*
X769966Y-180701D01*
X769966Y-180696D01*
X769966Y-180691D01*
X769966Y-180686D01*
X769967Y-180686D01*
X769966Y-180686D01*
X769967Y-180681D01*
X769967Y-180676D01*
X769984Y-180366D01*
X769985Y-180361D01*
X769985Y-180356D01*
X769985Y-180351D01*
X769986Y-180346D01*
X769986Y-180341D01*
X769986Y-180336D01*
X769986Y-180331D01*
X770004Y-180021D01*
X770004Y-180016D01*
X770004Y-180011D01*
X770005Y-180006D01*
X770005Y-180000D01*
X770005Y180000D01*
X769502Y188957D01*
X769502Y188958D01*
X767999Y197803D01*
X765515Y206424D01*
X762082Y214713D01*
X757742Y222565D01*
X752551Y229882D01*
X752550Y229882D01*
X752550Y229883D01*
X746572Y236572D01*
X739883Y242550D01*
X739882Y242550D01*
X739882Y242551D01*
X732565Y247742D01*
X724713Y252082D01*
X716424Y255515D01*
X707803Y257999D01*
X698958Y259502D01*
X698957Y259502D01*
X698940Y259503D01*
X698851Y259508D01*
X698763Y259513D01*
X698674Y259518D01*
X698586Y259523D01*
X698498Y259528D01*
X698497Y259528D01*
X698409Y259533D01*
X698321Y259538D01*
X698320Y259538D01*
X698232Y259543D01*
X698144Y259548D01*
X698143Y259548D01*
X698055Y259553D01*
X697967Y259558D01*
X697966Y259558D01*
X697878Y259563D01*
X697790Y259568D01*
X697789Y259568D01*
X697701Y259572D01*
X697701Y259573D01*
X697613Y259577D01*
X697524Y259582D01*
X697436Y259587D01*
X697347Y259592D01*
X697259Y259597D01*
X697170Y259602D01*
X697082Y259607D01*
X696993Y259612D01*
X696905Y259617D01*
X696816Y259622D01*
X696728Y259627D01*
X696640Y259632D01*
X696639Y259632D01*
X696551Y259637D01*
X696463Y259642D01*
X696462Y259642D01*
X696374Y259647D01*
X696286Y259652D01*
X696285Y259652D01*
X696197Y259657D01*
X696109Y259662D01*
X696108Y259662D01*
X696020Y259667D01*
X695932Y259672D01*
X695931Y259672D01*
X695843Y259677D01*
X695755Y259682D01*
X695666Y259687D01*
X695578Y259692D01*
X695489Y259697D01*
X695401Y259702D01*
X695312Y259707D01*
X695224Y259712D01*
X695135Y259717D01*
X695047Y259722D01*
X694959Y259727D01*
X694958Y259727D01*
X694870Y259731D01*
X694870Y259732D01*
X694782Y259736D01*
X694781Y259736D01*
X694693Y259741D01*
X694605Y259746D01*
X694604Y259746D01*
X694516Y259751D01*
X694428Y259756D01*
X694427Y259756D01*
X694339Y259761D01*
X694251Y259766D01*
X694250Y259766D01*
X694162Y259771D01*
X694074Y259776D01*
X693985Y259781D01*
X693897Y259786D01*
X693808Y259791D01*
X693720Y259796D01*
X693631Y259801D01*
X693543Y259806D01*
X693454Y259811D01*
X693366Y259816D01*
X693277Y259821D01*
X693189Y259826D01*
X693101Y259831D01*
X693100Y259831D01*
X693012Y259836D01*
X692924Y259841D01*
X692923Y259841D01*
X692835Y259846D01*
X692747Y259851D01*
X692746Y259851D01*
X692658Y259856D01*
X692570Y259861D01*
X692569Y259861D01*
X692481Y259866D01*
X692393Y259871D01*
X692392Y259871D01*
X692304Y259876D01*
X692216Y259881D01*
X692127Y259886D01*
X692039Y259891D01*
X691950Y259895D01*
X691862Y259900D01*
X691773Y259905D01*
X691685Y259910D01*
X691596Y259915D01*
X691508Y259920D01*
X691420Y259925D01*
X691419Y259925D01*
X691331Y259930D01*
X691243Y259935D01*
X691242Y259935D01*
X691154Y259940D01*
X691066Y259945D01*
X691065Y259945D01*
X690977Y259950D01*
X690889Y259955D01*
X690888Y259955D01*
X690800Y259960D01*
X690712Y259965D01*
X690711Y259965D01*
X690623Y259970D01*
X690535Y259975D01*
X690534Y259975D01*
X690446Y259980D01*
X690358Y259985D01*
X690269Y259990D01*
X690181Y259995D01*
X690092Y260000D01*
X690004Y260005D01*
X690000Y260005D01*
X689997Y260005D01*
X689921Y260000D01*
X689845Y259995D01*
X689769Y259990D01*
X689694Y259985D01*
X689693Y259985D01*
X689618Y259980D01*
X689542Y259975D01*
X689466Y259970D01*
X689390Y259965D01*
X689315Y259960D01*
X689314Y259960D01*
X689239Y259955D01*
X689163Y259950D01*
X689087Y259945D01*
X689011Y259940D01*
X688936Y259935D01*
X688935Y259935D01*
X688860Y259930D01*
X688784Y259925D01*
X688708Y259920D01*
X688632Y259915D01*
X688556Y259910D01*
X688481Y259905D01*
X688480Y259905D01*
X688405Y259900D01*
X688329Y259895D01*
X688253Y259891D01*
X688177Y259886D01*
X688102Y259881D01*
X688101Y259881D01*
X688026Y259876D01*
X687950Y259871D01*
X687874Y259866D01*
X687798Y259861D01*
X687723Y259856D01*
X687722Y259856D01*
X687647Y259851D01*
X687571Y259846D01*
X687495Y259841D01*
X687419Y259836D01*
X687344Y259831D01*
X687343Y259831D01*
X687268Y259826D01*
X687192Y259821D01*
X687116Y259816D01*
X687040Y259811D01*
X686964Y259806D01*
X686889Y259801D01*
X686888Y259801D01*
X686813Y259796D01*
X686737Y259791D01*
X686661Y259786D01*
X686585Y259781D01*
X686510Y259776D01*
X686509Y259776D01*
X686434Y259771D01*
X686358Y259766D01*
X686282Y259761D01*
X686206Y259756D01*
X686131Y259751D01*
X686130Y259751D01*
X686055Y259746D01*
X685979Y259741D01*
X685903Y259736D01*
X685827Y259732D01*
X685751Y259727D01*
X685676Y259722D01*
X685600Y259717D01*
X685524Y259712D01*
X685448Y259707D01*
X685372Y259702D01*
X685297Y259697D01*
X685296Y259697D01*
X685221Y259692D01*
X685145Y259687D01*
X685069Y259682D01*
X684993Y259677D01*
X684918Y259672D01*
X684917Y259672D01*
X684842Y259667D01*
X684766Y259662D01*
X684690Y259657D01*
X684614Y259652D01*
X684539Y259647D01*
X684538Y259647D01*
X684463Y259642D01*
X684387Y259637D01*
X684311Y259632D01*
X684235Y259627D01*
X684159Y259622D01*
X684084Y259617D01*
X684008Y259612D01*
X683932Y259607D01*
X683856Y259602D01*
X683780Y259597D01*
X683705Y259592D01*
X683704Y259592D01*
X683629Y259587D01*
X683553Y259582D01*
X683477Y259577D01*
X683473Y259577D01*
X677058Y258301D01*
X677057Y258301D01*
X670864Y256199D01*
X670864Y256198D01*
X664998Y253306D01*
X664998Y253305D01*
X664997Y253305D01*
X659559Y249672D01*
X659559Y249671D01*
X654641Y245359D01*
X650329Y240441D01*
X650328Y240441D01*
X646695Y235003D01*
X646695Y235002D01*
X646694Y235002D01*
X643802Y229136D01*
X643801Y229136D01*
X641699Y222943D01*
X641699Y222942D01*
X641697Y222934D01*
X641694Y222919D01*
X641692Y222909D01*
X641689Y222894D01*
X641686Y222879D01*
X641684Y222869D01*
X641681Y222854D01*
X641678Y222839D01*
X641676Y222829D01*
X641673Y222814D01*
X641671Y222799D01*
X641670Y222799D01*
X641671Y222799D01*
X641666Y222775D01*
X641663Y222760D01*
X641658Y222735D01*
X641655Y222720D01*
X641650Y222695D01*
X641647Y222680D01*
X641644Y222665D01*
X641642Y222655D01*
X641639Y222640D01*
X641636Y222626D01*
X641636Y222625D01*
X641634Y222616D01*
X641631Y222601D01*
X641628Y222586D01*
X641626Y222576D01*
X641623Y222561D01*
X641620Y222546D01*
X641615Y222521D01*
X641612Y222506D01*
X641607Y222481D01*
X641604Y222467D01*
X641604Y222466D01*
X641599Y222442D01*
X641596Y222427D01*
X641593Y222412D01*
X641591Y222402D01*
X641588Y222387D01*
X641586Y222372D01*
X641585Y222372D01*
X641586Y222372D01*
X641584Y222362D01*
X641581Y222347D01*
X641578Y222332D01*
X641573Y222308D01*
X641573Y222307D01*
X641570Y222293D01*
X641565Y222268D01*
X641562Y222253D01*
X641557Y222228D01*
X641554Y222213D01*
X641551Y222198D01*
X641549Y222188D01*
X641546Y222173D01*
X641543Y222158D01*
X641541Y222149D01*
X641541Y222148D01*
X641538Y222134D01*
X641535Y222119D01*
X641533Y222109D01*
X641530Y222094D01*
X641527Y222079D01*
X641522Y222054D01*
X641519Y222039D01*
X641514Y222014D01*
X641511Y221999D01*
X641506Y221975D01*
X641503Y221960D01*
X641501Y221945D01*
X641500Y221945D01*
X641501Y221945D01*
X641499Y221935D01*
X641496Y221920D01*
X641493Y221905D01*
X641491Y221895D01*
X641488Y221880D01*
X641485Y221865D01*
X641483Y221855D01*
X641480Y221840D01*
X641477Y221826D01*
X641477Y221825D01*
X641472Y221801D01*
X641469Y221786D01*
X641464Y221761D01*
X641461Y221746D01*
X641456Y221721D01*
X641453Y221706D01*
X641450Y221691D01*
X641448Y221681D01*
X641445Y221667D01*
X641445Y221666D01*
X641442Y221652D01*
X641440Y221642D01*
X641437Y221627D01*
X641434Y221612D01*
X641432Y221602D01*
X641429Y221587D01*
X641426Y221572D01*
X641421Y221547D01*
X641418Y221532D01*
X641414Y221508D01*
X641414Y221507D01*
X641411Y221493D01*
X641408Y221478D01*
X641406Y221468D01*
X641403Y221453D01*
X641400Y221438D01*
X641398Y221428D01*
X641395Y221413D01*
X641392Y221398D01*
X641390Y221388D01*
X641387Y221373D01*
X641384Y221358D01*
X641379Y221334D01*
X641376Y221319D01*
X641371Y221294D01*
X641368Y221279D01*
X641363Y221254D01*
X641360Y221239D01*
X641357Y221224D01*
X641355Y221214D01*
X641352Y221199D01*
X641349Y221185D01*
X641347Y221175D01*
X641344Y221160D01*
X641341Y221145D01*
X641339Y221135D01*
X641336Y221120D01*
X641333Y221105D01*
X641329Y221080D01*
X641326Y221065D01*
X641321Y221040D01*
X641318Y221026D01*
X641313Y221001D01*
X641310Y220986D01*
X641307Y220971D01*
X641305Y220961D01*
X641302Y220946D01*
X641299Y220931D01*
X641297Y220921D01*
X641294Y220906D01*
X641291Y220891D01*
X641289Y220881D01*
X641286Y220867D01*
X641283Y220852D01*
X641278Y220827D01*
X641275Y220812D01*
X641270Y220787D01*
X641267Y220772D01*
X641262Y220747D01*
X641259Y220732D01*
X641256Y220718D01*
X641256Y220717D01*
X641254Y220708D01*
X641251Y220693D01*
X641248Y220678D01*
X641247Y220668D01*
X641246Y220668D01*
X641244Y220653D01*
X641241Y220638D01*
X641236Y220613D01*
X641233Y220598D01*
X641228Y220573D01*
X641225Y220559D01*
X641225Y220558D01*
X641220Y220534D01*
X641217Y220519D01*
X641214Y220504D01*
X641212Y220494D01*
X641209Y220479D01*
X641206Y220464D01*
X641204Y220454D01*
X641201Y220439D01*
X641198Y220424D01*
X641196Y220414D01*
X641193Y220400D01*
X641193Y220399D01*
X641190Y220385D01*
X641185Y220360D01*
X641182Y220345D01*
X641177Y220320D01*
X641174Y220305D01*
X641169Y220280D01*
X641166Y220265D01*
X641163Y220250D01*
X641162Y220241D01*
X641161Y220240D01*
X641159Y220226D01*
X641156Y220211D01*
X641154Y220201D01*
X641151Y220186D01*
X641148Y220171D01*
X641146Y220161D01*
X641143Y220146D01*
X641140Y220131D01*
X641135Y220106D01*
X641132Y220091D01*
X641127Y220067D01*
X641124Y220052D01*
X641119Y220027D01*
X641116Y220012D01*
X641113Y219997D01*
X641111Y219987D01*
X641108Y219972D01*
X641105Y219957D01*
X641103Y219947D01*
X641100Y219932D01*
X641097Y219918D01*
X641097Y219917D01*
X641092Y219893D01*
X641089Y219878D01*
X641084Y219853D01*
X641081Y219838D01*
X641077Y219813D01*
X641076Y219813D01*
X641074Y219798D01*
X641071Y219783D01*
X641069Y219773D01*
X641066Y219759D01*
X641066Y219758D01*
X641063Y219744D01*
X641061Y219734D01*
X641058Y219719D01*
X641055Y219704D01*
X641053Y219694D01*
X641050Y219679D01*
X641047Y219664D01*
X641042Y219639D01*
X641039Y219624D01*
X641034Y219600D01*
X641034Y219599D01*
X641031Y219585D01*
X641026Y219560D01*
X641023Y219545D01*
X641020Y219530D01*
X641018Y219520D01*
X641015Y219505D01*
X641012Y219490D01*
X641010Y219480D01*
X641007Y219465D01*
X641004Y219450D01*
X641002Y219441D01*
X640999Y219426D01*
X640996Y219411D01*
X640992Y219386D01*
X640991Y219386D01*
X640989Y219371D01*
X640984Y219346D01*
X640981Y219331D01*
X640976Y219306D01*
X640973Y219291D01*
X640970Y219277D01*
X640968Y219267D01*
X640965Y219252D01*
X640962Y219237D01*
X640960Y219227D01*
X640957Y219212D01*
X640954Y219197D01*
X640949Y219172D01*
X640946Y219157D01*
X640941Y219132D01*
X640938Y219118D01*
X640933Y219093D01*
X640930Y219078D01*
X640927Y219063D01*
X640925Y219053D01*
X640922Y219038D01*
X640919Y219023D01*
X640917Y219013D01*
X640914Y218998D01*
X640911Y218983D01*
X640909Y218973D01*
X640907Y218959D01*
X640906Y218959D01*
X640907Y218959D01*
X640904Y218944D01*
X640899Y218919D01*
X640896Y218904D01*
X640891Y218879D01*
X640888Y218864D01*
X640883Y218839D01*
X640880Y218824D01*
X640877Y218810D01*
X640877Y218809D01*
X640875Y218800D01*
X640872Y218785D01*
X640869Y218770D01*
X640867Y218760D01*
X640864Y218745D01*
X640861Y218730D01*
X640859Y218720D01*
X640856Y218705D01*
X640853Y218690D01*
X640848Y218665D01*
X640845Y218651D01*
X640845Y218650D01*
X640840Y218626D01*
X640837Y218611D01*
X640832Y218586D01*
X640829Y218571D01*
X640826Y218556D01*
X640824Y218546D01*
X640822Y218531D01*
X640821Y218531D01*
X640822Y218531D01*
X640819Y218516D01*
X640817Y218506D01*
X640814Y218492D01*
X640814Y218491D01*
X640811Y218477D01*
X640809Y218467D01*
X640806Y218452D01*
X640803Y218437D01*
X640798Y218412D01*
X640795Y218397D01*
X640790Y218372D01*
X640787Y218357D01*
X640784Y218342D01*
X640782Y218333D01*
X640782Y218332D01*
X640779Y218318D01*
X640776Y218303D01*
X640774Y218293D01*
X640771Y218278D01*
X640768Y218263D01*
X640766Y218253D01*
X640763Y218238D01*
X640760Y218223D01*
X640755Y218198D01*
X640752Y218183D01*
X640747Y218159D01*
X640744Y218144D01*
X640739Y218119D01*
X640737Y218104D01*
X640736Y218104D01*
X640737Y218104D01*
X640734Y218089D01*
X640732Y218079D01*
X640729Y218064D01*
X640726Y218049D01*
X640724Y218039D01*
X640721Y218024D01*
X640718Y218010D01*
X640718Y218009D01*
X640716Y218000D01*
X640713Y217985D01*
X640710Y217970D01*
X640705Y217945D01*
X640702Y217930D01*
X640697Y217905D01*
X640694Y217890D01*
X640689Y217865D01*
X640686Y217851D01*
X640686Y217850D01*
X640683Y217836D01*
X640681Y217826D01*
X640678Y217811D01*
X640675Y217796D01*
X640673Y217786D01*
X640670Y217771D01*
X640667Y217756D01*
X640665Y217746D01*
X640662Y217731D01*
X640659Y217716D01*
X640654Y217692D01*
X640654Y217691D01*
X640652Y217677D01*
X640651Y217677D01*
X640652Y217677D01*
X640647Y217652D01*
X640644Y217637D01*
X640639Y217612D01*
X640636Y217597D01*
X640633Y217582D01*
X640631Y217572D01*
X640628Y217557D01*
X640625Y217542D01*
X640623Y217533D01*
X640620Y217518D01*
X640617Y217503D01*
X640612Y217478D01*
X640609Y217463D01*
X640604Y217438D01*
X640601Y217423D01*
X640596Y217398D01*
X640593Y217383D01*
X640590Y217369D01*
X640588Y217359D01*
X640585Y217344D01*
X640582Y217329D01*
X640580Y217319D01*
X640577Y217304D01*
X640574Y217289D01*
X640572Y217279D01*
X640569Y217264D01*
X640567Y217249D01*
X640566Y217249D01*
X640567Y217249D01*
X640562Y217224D01*
X640559Y217210D01*
X640554Y217185D01*
X640551Y217170D01*
X640546Y217145D01*
X640543Y217130D01*
X640540Y217115D01*
X640538Y217105D01*
X640535Y217090D01*
X640532Y217075D01*
X640530Y217065D01*
X640527Y217051D01*
X640524Y217036D01*
X640522Y217026D01*
X640519Y217011D01*
X640516Y216996D01*
X640511Y216971D01*
X640508Y216956D01*
X640503Y216931D01*
X640500Y216916D01*
X640495Y216892D01*
X640492Y216877D01*
X640489Y216862D01*
X640487Y216852D01*
X640484Y216837D01*
X640482Y216822D01*
X640481Y216822D01*
X640482Y216822D01*
X640480Y216812D01*
X640477Y216797D01*
X640474Y216782D01*
X640469Y216757D01*
X640466Y216743D01*
X640466Y216742D01*
X640461Y216718D01*
X640458Y216703D01*
X640453Y216678D01*
X640450Y216663D01*
X640447Y216648D01*
X640445Y216638D01*
X640442Y216623D01*
X640439Y216608D01*
X640437Y216598D01*
X640434Y216584D01*
X640434Y216583D01*
X640431Y216569D01*
X640429Y216559D01*
X640426Y216544D01*
X640423Y216529D01*
X640423Y216527D01*
X640421Y216494D01*
X640419Y216469D01*
X640417Y216434D01*
X640414Y216400D01*
X640413Y216375D01*
X640411Y216340D01*
X640408Y216305D01*
X640407Y216280D01*
X640404Y216246D01*
X640402Y216211D01*
X640400Y216186D01*
X640398Y216151D01*
X640396Y216116D01*
X640394Y216092D01*
X640392Y216057D01*
X640390Y216022D01*
X640388Y215997D01*
X640386Y215962D01*
X640384Y215928D01*
X640382Y215903D01*
X640380Y215868D01*
X640377Y215833D01*
X640376Y215808D01*
X640373Y215774D01*
X640371Y215739D01*
X640370Y215714D01*
X640367Y215679D01*
X640365Y215644D01*
X640363Y215620D01*
X640361Y215585D01*
X640359Y215550D01*
X640355Y215490D01*
X640353Y215456D01*
X640350Y215421D01*
X640349Y215396D01*
X640346Y215361D01*
X640344Y215326D01*
X640343Y215302D01*
X640342Y215302D01*
X640343Y215302D01*
X640340Y215267D01*
X640338Y215232D01*
X640336Y215207D01*
X640334Y215172D01*
X640332Y215138D01*
X640330Y215113D01*
X640328Y215078D01*
X640326Y215043D01*
X640324Y215018D01*
X640322Y214984D01*
X640319Y214949D01*
X640318Y214924D01*
X640315Y214889D01*
X640313Y214854D01*
X640312Y214830D01*
X640312Y214829D01*
X640309Y214795D01*
X640307Y214760D01*
X640305Y214735D01*
X640303Y214700D01*
X640301Y214666D01*
X640299Y214641D01*
X640297Y214606D01*
X640295Y214571D01*
X640293Y214546D01*
X640291Y214512D01*
X640291Y214511D01*
X640288Y214477D01*
X640287Y214452D01*
X640285Y214417D01*
X640282Y214382D01*
X640281Y214357D01*
X640278Y214323D01*
X640276Y214288D01*
X640274Y214263D01*
X640272Y214228D01*
X640270Y214194D01*
X640270Y214193D01*
X640268Y214169D01*
X640266Y214134D01*
X640264Y214099D01*
X640261Y214064D01*
X640260Y214040D01*
X640260Y214039D01*
X640258Y214005D01*
X640257Y214005D01*
X640258Y214005D01*
X640255Y213970D01*
X640254Y213945D01*
X640251Y213910D01*
X640249Y213876D01*
X640249Y213875D01*
X640247Y213851D01*
X640245Y213816D01*
X640243Y213781D01*
X640241Y213756D01*
X640239Y213722D01*
X640239Y213721D01*
X640237Y213687D01*
X640235Y213662D01*
X640233Y213627D01*
X640230Y213592D01*
X640229Y213567D01*
X640227Y213533D01*
X640224Y213498D01*
X640223Y213473D01*
X640220Y213438D01*
X640218Y213404D01*
X640218Y213403D01*
X640216Y213379D01*
X640214Y213344D01*
X640212Y213309D01*
X640210Y213284D01*
X640208Y213249D01*
X640206Y213215D01*
X640204Y213190D01*
X640202Y213155D01*
X640200Y213120D01*
X640198Y213095D01*
X640196Y213061D01*
X640193Y213026D01*
X640192Y213001D01*
X640189Y212966D01*
X640187Y212931D01*
X640186Y212907D01*
X640183Y212872D01*
X640181Y212837D01*
X640179Y212812D01*
X640177Y212777D01*
X640175Y212743D01*
X640171Y212683D01*
X640169Y212648D01*
X640166Y212613D01*
X640165Y212589D01*
X640162Y212554D01*
X640160Y212519D01*
X640159Y212494D01*
X640158Y212494D01*
X640159Y212494D01*
X640156Y212459D01*
X640154Y212425D01*
X640152Y212400D01*
X640150Y212365D01*
X640148Y212330D01*
X640146Y212305D01*
X640144Y212271D01*
X640142Y212236D01*
X640140Y212211D01*
X640138Y212176D01*
X640135Y212141D01*
X640134Y212117D01*
X640131Y212082D01*
X640129Y212047D01*
X640128Y212022D01*
X640125Y211987D01*
X640123Y211953D01*
X640121Y211928D01*
X640119Y211893D01*
X640117Y211858D01*
X640115Y211833D01*
X640113Y211799D01*
X640111Y211764D01*
X640109Y211739D01*
X640107Y211704D01*
X640104Y211669D01*
X640103Y211645D01*
X640101Y211610D01*
X640098Y211575D01*
X640097Y211550D01*
X640094Y211515D01*
X640092Y211481D01*
X640090Y211456D01*
X640088Y211421D01*
X640086Y211386D01*
X640084Y211361D01*
X640082Y211327D01*
X640080Y211292D01*
X640077Y211257D01*
X640076Y211232D01*
X640074Y211197D01*
X640073Y211197D01*
X640074Y211197D01*
X640071Y211163D01*
X640070Y211138D01*
X640067Y211103D01*
X640065Y211068D01*
X640063Y211043D01*
X640061Y211009D01*
X640059Y210974D01*
X640057Y210949D01*
X640055Y210914D01*
X640053Y210879D01*
X640051Y210855D01*
X640051Y210854D01*
X640049Y210820D01*
X640046Y210785D01*
X640045Y210760D01*
X640043Y210725D01*
X640040Y210691D01*
X640039Y210666D01*
X640036Y210631D01*
X640034Y210596D01*
X640032Y210571D01*
X640030Y210537D01*
X640030Y210536D01*
X640028Y210502D01*
X640026Y210477D01*
X640024Y210442D01*
X640022Y210407D01*
X640020Y210382D01*
X640018Y210348D01*
X640016Y210313D01*
X640014Y210288D01*
X640012Y210253D01*
X640009Y210219D01*
X640009Y210218D01*
X640008Y210194D01*
X640005Y210159D01*
X640003Y210124D01*
X640002Y210099D01*
X639999Y210065D01*
X639999Y210064D01*
X639997Y210030D01*
X639995Y210005D01*
X639995Y210000D01*
X639995Y-210000D01*
X640423Y-216527D01*
X641699Y-222942D01*
X641699Y-222943D01*
X643801Y-229136D01*
X643802Y-229136D01*
X646694Y-235002D01*
X646695Y-235002D01*
X646695Y-235003D01*
X650328Y-240441D01*
X650329Y-240441D01*
X654641Y-245359D01*
X659559Y-249671D01*
X659559Y-249672D01*
X664997Y-253305D01*
X664998Y-253305D01*
X664998Y-253306D01*
X670864Y-256198D01*
X670864Y-256199D01*
X677057Y-258301D01*
X677058Y-258301D01*
X683473Y-259577D01*
X683515Y-259580D01*
X683591Y-259585D01*
X683592Y-259585D01*
X683668Y-259590D01*
X683744Y-259595D01*
X683820Y-259600D01*
X683897Y-259605D01*
X683973Y-259610D01*
X684049Y-259615D01*
X684125Y-259620D01*
X684126Y-259620D01*
X684202Y-259625D01*
X684278Y-259630D01*
X684354Y-259635D01*
X684355Y-259635D01*
X684431Y-259640D01*
X684507Y-259645D01*
X684583Y-259650D01*
X684659Y-259655D01*
X684660Y-259655D01*
X684736Y-259660D01*
X684812Y-259665D01*
X684888Y-259670D01*
X684889Y-259670D01*
X684965Y-259675D01*
X685041Y-259680D01*
X685117Y-259685D01*
X685194Y-259690D01*
X685270Y-259695D01*
X685346Y-259700D01*
X685422Y-259705D01*
X685423Y-259705D01*
X685499Y-259710D01*
X685575Y-259715D01*
X685651Y-259720D01*
X685728Y-259725D01*
X685804Y-259730D01*
X685880Y-259735D01*
X685956Y-259740D01*
X685957Y-259740D01*
X686033Y-259745D01*
X686109Y-259750D01*
X686185Y-259755D01*
X686262Y-259760D01*
X686338Y-259765D01*
X686414Y-259770D01*
X686490Y-259775D01*
X686491Y-259775D01*
X686567Y-259780D01*
X686643Y-259785D01*
X686719Y-259790D01*
X686796Y-259795D01*
X686872Y-259800D01*
X686948Y-259805D01*
X687024Y-259810D01*
X687025Y-259810D01*
X687101Y-259815D01*
X687177Y-259820D01*
X687253Y-259825D01*
X687330Y-259830D01*
X687406Y-259835D01*
X687482Y-259840D01*
X687558Y-259845D01*
X687559Y-259845D01*
X687635Y-259850D01*
X687711Y-259855D01*
X687787Y-259860D01*
X687864Y-259865D01*
X687940Y-259870D01*
X688016Y-259875D01*
X688092Y-259880D01*
X688093Y-259880D01*
X688169Y-259885D01*
X688245Y-259890D01*
X688321Y-259895D01*
X688398Y-259900D01*
X688474Y-259905D01*
X688550Y-259910D01*
X688626Y-259915D01*
X688627Y-259915D01*
X688703Y-259920D01*
X688779Y-259925D01*
X688855Y-259930D01*
X688932Y-259935D01*
X689008Y-259940D01*
X689084Y-259945D01*
X689160Y-259950D01*
X689161Y-259950D01*
X689237Y-259955D01*
X689313Y-259960D01*
X689389Y-259965D01*
X689466Y-259970D01*
X689542Y-259975D01*
X689618Y-259980D01*
X689694Y-259985D01*
X689695Y-259985D01*
X689771Y-259990D01*
X689847Y-259995D01*
X689923Y-260000D01*
X690000Y-260005D01*
X690001Y-260005D01*
X690001Y-260005D01*
G37*
%LPC*%
G36*
X221325Y-133251D02*
X221325Y-133251D01*
X218249Y-130175D01*
X218249Y-125817D01*
X218281Y-125772D01*
X218341Y-125703D01*
X218353Y-125672D01*
X218372Y-125646D01*
X218399Y-125559D01*
X218433Y-125474D01*
X218437Y-125434D01*
X218444Y-125411D01*
X218443Y-125379D01*
X218451Y-125308D01*
X218451Y-70192D01*
X218437Y-70102D01*
X218429Y-70011D01*
X218417Y-69981D01*
X218412Y-69950D01*
X218369Y-69869D01*
X218333Y-69785D01*
X218307Y-69753D01*
X218296Y-69732D01*
X218273Y-69710D01*
X218249Y-69680D01*
X218249Y-65317D01*
X218281Y-65272D01*
X218341Y-65203D01*
X218353Y-65172D01*
X218372Y-65146D01*
X218399Y-65059D01*
X218433Y-64974D01*
X218437Y-64934D01*
X218444Y-64911D01*
X218443Y-64879D01*
X218451Y-64808D01*
X218451Y-17192D01*
X218437Y-17102D01*
X218429Y-17011D01*
X218417Y-16981D01*
X218412Y-16950D01*
X218369Y-16869D01*
X218333Y-16785D01*
X218307Y-16753D01*
X218296Y-16732D01*
X218273Y-16710D01*
X218249Y-16680D01*
X218249Y-12317D01*
X218281Y-12272D01*
X218341Y-12203D01*
X218353Y-12172D01*
X218372Y-12146D01*
X218399Y-12059D01*
X218433Y-11974D01*
X218437Y-11934D01*
X218444Y-11911D01*
X218443Y-11879D01*
X218451Y-11808D01*
X218451Y9690D01*
X218448Y9710D01*
X218450Y9729D01*
X218428Y9831D01*
X218412Y9933D01*
X218402Y9950D01*
X218398Y9970D01*
X218345Y10059D01*
X218296Y10150D01*
X218282Y10164D01*
X218272Y10181D01*
X218193Y10248D01*
X218118Y10320D01*
X218100Y10328D01*
X218085Y10341D01*
X217989Y10380D01*
X217895Y10423D01*
X217875Y10425D01*
X217857Y10433D01*
X217690Y10451D01*
X179692Y10451D01*
X179602Y10437D01*
X179511Y10429D01*
X179481Y10417D01*
X179450Y10412D01*
X179369Y10369D01*
X179285Y10333D01*
X179253Y10307D01*
X179232Y10296D01*
X179210Y10273D01*
X179180Y10249D01*
X174825Y10249D01*
X171749Y13325D01*
X171749Y17675D01*
X174825Y20751D01*
X179183Y20751D01*
X179228Y20719D01*
X179297Y20659D01*
X179328Y20647D01*
X179354Y20628D01*
X179441Y20601D01*
X179526Y20567D01*
X179566Y20563D01*
X179589Y20556D01*
X179621Y20557D01*
X179692Y20549D01*
X217690Y20549D01*
X217710Y20552D01*
X217729Y20550D01*
X217831Y20572D01*
X217933Y20588D01*
X217950Y20598D01*
X217970Y20602D01*
X218059Y20655D01*
X218150Y20704D01*
X218164Y20718D01*
X218181Y20728D01*
X218248Y20807D01*
X218320Y20882D01*
X218328Y20900D01*
X218341Y20915D01*
X218380Y21011D01*
X218423Y21105D01*
X218425Y21125D01*
X218433Y21143D01*
X218451Y21310D01*
X218451Y22394D01*
X220308Y29322D01*
X223894Y35534D01*
X226430Y38070D01*
X226431Y38071D01*
X226432Y38072D01*
X226447Y38093D01*
X226480Y38125D01*
X227456Y39314D01*
X227470Y39339D01*
X227490Y39359D01*
X227571Y39506D01*
X228743Y42335D01*
X228749Y42362D01*
X228762Y42387D01*
X228797Y42551D01*
X228948Y44082D01*
X228946Y44109D01*
X228951Y44157D01*
X228951Y45188D01*
X228940Y45259D01*
X228938Y45330D01*
X228920Y45379D01*
X228912Y45431D01*
X228878Y45494D01*
X228853Y45561D01*
X228821Y45602D01*
X228796Y45648D01*
X228744Y45697D01*
X228700Y45753D01*
X228656Y45781D01*
X228618Y45817D01*
X228553Y45847D01*
X228493Y45886D01*
X228442Y45899D01*
X228395Y45921D01*
X228324Y45929D01*
X228254Y45946D01*
X228202Y45942D01*
X228151Y45948D01*
X228080Y45933D01*
X228009Y45927D01*
X227961Y45907D01*
X227910Y45896D01*
X227849Y45859D01*
X227783Y45831D01*
X227727Y45786D01*
X227699Y45770D01*
X227684Y45752D01*
X227652Y45726D01*
X225675Y43749D01*
X221325Y43749D01*
X218249Y46825D01*
X218249Y47946D01*
X218230Y48061D01*
X218213Y48177D01*
X218211Y48183D01*
X218210Y48189D01*
X218155Y48291D01*
X218102Y48396D01*
X218097Y48401D01*
X218094Y48406D01*
X218010Y48486D01*
X217926Y48568D01*
X217920Y48572D01*
X217916Y48575D01*
X217899Y48583D01*
X217779Y48649D01*
X216886Y49019D01*
X216859Y49026D01*
X216834Y49039D01*
X216670Y49073D01*
X215125Y49226D01*
X215099Y49224D01*
X215050Y49229D01*
X130763Y49229D01*
X119406Y52273D01*
X109223Y58152D01*
X106247Y61128D01*
X97394Y69981D01*
X97216Y70158D01*
X96213Y71162D01*
X96197Y71173D01*
X96176Y71196D01*
X94550Y72623D01*
X94530Y72635D01*
X94500Y72657D01*
X94476Y72680D01*
X94457Y72688D01*
X94428Y72709D01*
X90689Y74868D01*
X90674Y74874D01*
X90662Y74883D01*
X90505Y74944D01*
X86335Y76062D01*
X86311Y76064D01*
X86188Y76086D01*
X84029Y76228D01*
X84010Y76226D01*
X83979Y76229D01*
X-59504Y76229D01*
X-66796Y78183D01*
X-73333Y81958D01*
X-74821Y83446D01*
X-85551Y94175D01*
X-85646Y94244D01*
X-85739Y94313D01*
X-85745Y94315D01*
X-85750Y94319D01*
X-85862Y94353D01*
X-85973Y94389D01*
X-85979Y94389D01*
X-85985Y94391D01*
X-86102Y94388D01*
X-86219Y94387D01*
X-86226Y94385D01*
X-86231Y94385D01*
X-86249Y94378D01*
X-86380Y94340D01*
X-87384Y93924D01*
X-90716Y93924D01*
X-93795Y95199D01*
X-96151Y97555D01*
X-97426Y100634D01*
X-97426Y103966D01*
X-96151Y107045D01*
X-93795Y109401D01*
X-90716Y110676D01*
X-87384Y110676D01*
X-84305Y109401D01*
X-81949Y107045D01*
X-80674Y103966D01*
X-80674Y100634D01*
X-81090Y99630D01*
X-81099Y99591D01*
X-81110Y99567D01*
X-81115Y99523D01*
X-81117Y99516D01*
X-81145Y99403D01*
X-81145Y99397D01*
X-81146Y99391D01*
X-81135Y99274D01*
X-81126Y99158D01*
X-81124Y99152D01*
X-81123Y99146D01*
X-81075Y99038D01*
X-81030Y98932D01*
X-81025Y98926D01*
X-81023Y98921D01*
X-81010Y98907D01*
X-80925Y98801D01*
X-71377Y89252D01*
X-71362Y89241D01*
X-71340Y89218D01*
X-69239Y87375D01*
X-69219Y87363D01*
X-69131Y87299D01*
X-69124Y87292D01*
X-69122Y87291D01*
X-69118Y87288D01*
X-64287Y84499D01*
X-64272Y84494D01*
X-64259Y84484D01*
X-64103Y84423D01*
X-58715Y82979D01*
X-58691Y82977D01*
X-58568Y82955D01*
X-55779Y82772D01*
X-55760Y82774D01*
X-55729Y82771D01*
X-48770Y82771D01*
X-48699Y82782D01*
X-48627Y82784D01*
X-48578Y82802D01*
X-48527Y82810D01*
X-48464Y82844D01*
X-48396Y82869D01*
X-48356Y82901D01*
X-48310Y82926D01*
X-48260Y82978D01*
X-48204Y83022D01*
X-48176Y83066D01*
X-48140Y83104D01*
X-48110Y83169D01*
X-48071Y83229D01*
X-48058Y83280D01*
X-48037Y83327D01*
X-48029Y83398D01*
X-48011Y83468D01*
X-48015Y83520D01*
X-48009Y83571D01*
X-48025Y83642D01*
X-48030Y83713D01*
X-48051Y83761D01*
X-48062Y83812D01*
X-48099Y83873D01*
X-48127Y83939D01*
X-48171Y83995D01*
X-48188Y84023D01*
X-48206Y84038D01*
X-48231Y84070D01*
X-52056Y87895D01*
X-54221Y93121D01*
X-54221Y99350D01*
X-54236Y99446D01*
X-54246Y99543D01*
X-54256Y99567D01*
X-54260Y99593D01*
X-54306Y99679D01*
X-54346Y99768D01*
X-54363Y99787D01*
X-54376Y99811D01*
X-54446Y99878D01*
X-54512Y99949D01*
X-54535Y99962D01*
X-54554Y99980D01*
X-54642Y100021D01*
X-54728Y100068D01*
X-54753Y100073D01*
X-54777Y100084D01*
X-54874Y100094D01*
X-54970Y100112D01*
X-54996Y100108D01*
X-55021Y100111D01*
X-55117Y100090D01*
X-55213Y100076D01*
X-55236Y100064D01*
X-55262Y100058D01*
X-55345Y100008D01*
X-55432Y99964D01*
X-55451Y99946D01*
X-55473Y99932D01*
X-55536Y99858D01*
X-55604Y99789D01*
X-55620Y99760D01*
X-55633Y99745D01*
X-55645Y99715D01*
X-55685Y99642D01*
X-56549Y97555D01*
X-58905Y95199D01*
X-61984Y93924D01*
X-65316Y93924D01*
X-68395Y95199D01*
X-70751Y97555D01*
X-72026Y100634D01*
X-72026Y103966D01*
X-70751Y107045D01*
X-68395Y109401D01*
X-65316Y110676D01*
X-61984Y110676D01*
X-58905Y109401D01*
X-56549Y107045D01*
X-55685Y104958D01*
X-55634Y104875D01*
X-55588Y104789D01*
X-55569Y104771D01*
X-55556Y104749D01*
X-55481Y104687D01*
X-55410Y104620D01*
X-55386Y104609D01*
X-55366Y104592D01*
X-55275Y104558D01*
X-55187Y104516D01*
X-55161Y104514D01*
X-55137Y104504D01*
X-55039Y104500D01*
X-54943Y104489D01*
X-54917Y104495D01*
X-54891Y104494D01*
X-54797Y104521D01*
X-54702Y104542D01*
X-54680Y104555D01*
X-54655Y104562D01*
X-54575Y104618D01*
X-54491Y104668D01*
X-54474Y104688D01*
X-54453Y104703D01*
X-54394Y104781D01*
X-54331Y104855D01*
X-54321Y104879D01*
X-54306Y104900D01*
X-54276Y104992D01*
X-54239Y105083D01*
X-54236Y105115D01*
X-54230Y105134D01*
X-54230Y105167D01*
X-54221Y105250D01*
X-54221Y119480D01*
X-54240Y119595D01*
X-54257Y119711D01*
X-54259Y119717D01*
X-54260Y119723D01*
X-54315Y119825D01*
X-54368Y119931D01*
X-54373Y119935D01*
X-54376Y119940D01*
X-54460Y120021D01*
X-54544Y120103D01*
X-54550Y120106D01*
X-54554Y120110D01*
X-54571Y120118D01*
X-54691Y120184D01*
X-55695Y120599D01*
X-58051Y122955D01*
X-59326Y126034D01*
X-59326Y129366D01*
X-58051Y132445D01*
X-55695Y134801D01*
X-52616Y136076D01*
X-49284Y136076D01*
X-46205Y134801D01*
X-43849Y132445D01*
X-42574Y129366D01*
X-42574Y126034D01*
X-43849Y122955D01*
X-46205Y120599D01*
X-47209Y120184D01*
X-47309Y120122D01*
X-47409Y120062D01*
X-47413Y120057D01*
X-47418Y120054D01*
X-47493Y119963D01*
X-47569Y119875D01*
X-47571Y119869D01*
X-47575Y119865D01*
X-47617Y119756D01*
X-47661Y119647D01*
X-47662Y119639D01*
X-47663Y119635D01*
X-47664Y119617D01*
X-47679Y119480D01*
X-47679Y105250D01*
X-47664Y105154D01*
X-47654Y105057D01*
X-47644Y105033D01*
X-47640Y105007D01*
X-47594Y104921D01*
X-47554Y104832D01*
X-47537Y104813D01*
X-47524Y104789D01*
X-47454Y104722D01*
X-47388Y104651D01*
X-47365Y104638D01*
X-47346Y104620D01*
X-47258Y104579D01*
X-47172Y104532D01*
X-47147Y104527D01*
X-47123Y104516D01*
X-47026Y104506D01*
X-46930Y104488D01*
X-46904Y104492D01*
X-46879Y104489D01*
X-46783Y104510D01*
X-46687Y104524D01*
X-46664Y104536D01*
X-46638Y104542D01*
X-46555Y104592D01*
X-46468Y104636D01*
X-46449Y104654D01*
X-46427Y104668D01*
X-46364Y104742D01*
X-46296Y104811D01*
X-46280Y104840D01*
X-46267Y104855D01*
X-46255Y104885D01*
X-46215Y104958D01*
X-45351Y107045D01*
X-42995Y109401D01*
X-39916Y110676D01*
X-36584Y110676D01*
X-33505Y109401D01*
X-31149Y107045D01*
X-29874Y103966D01*
X-29874Y100634D01*
X-31149Y97555D01*
X-33505Y95199D01*
X-36584Y93924D01*
X-39916Y93924D01*
X-42995Y95199D01*
X-45351Y97555D01*
X-46215Y99642D01*
X-46266Y99725D01*
X-46312Y99811D01*
X-46331Y99829D01*
X-46344Y99851D01*
X-46419Y99913D01*
X-46490Y99980D01*
X-46514Y99991D01*
X-46534Y100008D01*
X-46625Y100042D01*
X-46713Y100084D01*
X-46739Y100086D01*
X-46763Y100096D01*
X-46861Y100100D01*
X-46957Y100111D01*
X-46983Y100105D01*
X-47009Y100106D01*
X-47103Y100079D01*
X-47198Y100058D01*
X-47220Y100045D01*
X-47245Y100038D01*
X-47325Y99982D01*
X-47409Y99932D01*
X-47426Y99912D01*
X-47447Y99897D01*
X-47506Y99819D01*
X-47569Y99745D01*
X-47579Y99721D01*
X-47594Y99700D01*
X-47624Y99608D01*
X-47661Y99517D01*
X-47664Y99485D01*
X-47670Y99466D01*
X-47670Y99433D01*
X-47679Y99350D01*
X-47679Y95950D01*
X-47675Y95924D01*
X-47676Y95875D01*
X-47543Y94526D01*
X-47535Y94498D01*
X-47535Y94470D01*
X-47488Y94309D01*
X-46455Y91815D01*
X-46421Y91759D01*
X-46395Y91699D01*
X-46343Y91634D01*
X-46326Y91606D01*
X-46311Y91594D01*
X-46290Y91568D01*
X-44382Y89660D01*
X-44329Y89621D01*
X-44282Y89575D01*
X-44209Y89535D01*
X-44182Y89516D01*
X-44163Y89510D01*
X-44135Y89495D01*
X-41641Y88462D01*
X-41613Y88455D01*
X-41588Y88442D01*
X-41424Y88407D01*
X-40075Y88274D01*
X-40048Y88276D01*
X-40000Y88271D01*
X40968Y88271D01*
X40988Y88274D01*
X41007Y88272D01*
X41109Y88294D01*
X41211Y88310D01*
X41228Y88320D01*
X41248Y88324D01*
X41337Y88377D01*
X41428Y88426D01*
X41442Y88440D01*
X41459Y88450D01*
X41526Y88529D01*
X41598Y88604D01*
X41606Y88622D01*
X41619Y88637D01*
X41658Y88733D01*
X41701Y88827D01*
X41703Y88847D01*
X41711Y88865D01*
X41729Y89032D01*
X41729Y90546D01*
X43276Y93224D01*
X45954Y94771D01*
X49046Y94771D01*
X51724Y93224D01*
X53271Y90546D01*
X53271Y89032D01*
X53274Y89012D01*
X53272Y88993D01*
X53294Y88891D01*
X53310Y88789D01*
X53320Y88772D01*
X53324Y88752D01*
X53377Y88663D01*
X53426Y88572D01*
X53440Y88558D01*
X53450Y88541D01*
X53529Y88474D01*
X53604Y88402D01*
X53622Y88394D01*
X53637Y88381D01*
X53733Y88342D01*
X53827Y88299D01*
X53847Y88297D01*
X53865Y88289D01*
X54032Y88271D01*
X88254Y88271D01*
X95546Y86317D01*
X102083Y82542D01*
X103571Y81054D01*
X105509Y79116D01*
X105933Y78692D01*
X113373Y71252D01*
X113388Y71241D01*
X113410Y71218D01*
X116686Y68345D01*
X116707Y68332D01*
X116796Y68266D01*
X116802Y68261D01*
X116804Y68260D01*
X116808Y68258D01*
X124340Y63909D01*
X124355Y63903D01*
X124367Y63894D01*
X124524Y63833D01*
X132925Y61582D01*
X132949Y61579D01*
X133072Y61557D01*
X137421Y61272D01*
X137440Y61274D01*
X137471Y61271D01*
X215050Y61271D01*
X215076Y61275D01*
X215125Y61274D01*
X216670Y61427D01*
X216697Y61434D01*
X216725Y61434D01*
X216886Y61481D01*
X217779Y61851D01*
X217879Y61912D01*
X217979Y61972D01*
X217983Y61977D01*
X217988Y61980D01*
X218063Y62070D01*
X218139Y62159D01*
X218141Y62165D01*
X218145Y62170D01*
X218187Y62279D01*
X218231Y62387D01*
X218232Y62395D01*
X218233Y62399D01*
X218234Y62418D01*
X218249Y62554D01*
X218249Y63675D01*
X221325Y66751D01*
X225675Y66751D01*
X227217Y65209D01*
X227296Y65152D01*
X227371Y65090D01*
X227396Y65080D01*
X227417Y65065D01*
X227510Y65036D01*
X227601Y65002D01*
X227627Y65000D01*
X227652Y64993D01*
X227749Y64995D01*
X227846Y64991D01*
X227872Y64998D01*
X227898Y64999D01*
X227989Y65033D01*
X228083Y65060D01*
X228104Y65075D01*
X228129Y65084D01*
X228205Y65145D01*
X228285Y65200D01*
X228300Y65221D01*
X228321Y65237D01*
X228374Y65319D01*
X228432Y65397D01*
X228440Y65422D01*
X228454Y65444D01*
X228478Y65539D01*
X228508Y65631D01*
X228507Y65657D01*
X228514Y65683D01*
X228506Y65780D01*
X228505Y65877D01*
X228496Y65909D01*
X228495Y65928D01*
X228482Y65958D01*
X228459Y66038D01*
X228103Y66897D01*
X228068Y66953D01*
X228043Y67013D01*
X227991Y67078D01*
X227973Y67106D01*
X227960Y67117D01*
X227959Y67119D01*
X227955Y67122D01*
X227938Y67144D01*
X226644Y68438D01*
X226591Y68476D01*
X226544Y68522D01*
X226471Y68562D01*
X226444Y68581D01*
X226426Y68587D01*
X226397Y68603D01*
X224976Y69191D01*
X224913Y69206D01*
X224852Y69231D01*
X224769Y69240D01*
X224737Y69247D01*
X224718Y69246D01*
X224685Y69249D01*
X221325Y69249D01*
X218249Y72325D01*
X218249Y76683D01*
X218281Y76728D01*
X218341Y76797D01*
X218353Y76828D01*
X218372Y76854D01*
X218399Y76941D01*
X218433Y77026D01*
X218437Y77066D01*
X218444Y77089D01*
X218443Y77121D01*
X218451Y77192D01*
X218451Y99808D01*
X218437Y99898D01*
X218429Y99989D01*
X218417Y100019D01*
X218412Y100050D01*
X218369Y100131D01*
X218333Y100215D01*
X218307Y100247D01*
X218296Y100268D01*
X218273Y100290D01*
X218249Y100320D01*
X218249Y104675D01*
X221325Y107751D01*
X225675Y107751D01*
X228751Y104675D01*
X228751Y100317D01*
X228719Y100272D01*
X228659Y100203D01*
X228647Y100172D01*
X228628Y100146D01*
X228601Y100059D01*
X228567Y99974D01*
X228563Y99934D01*
X228556Y99911D01*
X228557Y99879D01*
X228549Y99808D01*
X228549Y79247D01*
X228568Y79132D01*
X228585Y79016D01*
X228587Y79011D01*
X228588Y79004D01*
X228643Y78902D01*
X228696Y78797D01*
X228701Y78793D01*
X228704Y78787D01*
X228788Y78707D01*
X228872Y78625D01*
X228878Y78621D01*
X228882Y78618D01*
X228899Y78610D01*
X229019Y78544D01*
X232308Y77182D01*
X236682Y72808D01*
X239049Y67093D01*
X239049Y40436D01*
X236201Y33561D01*
X235272Y32632D01*
X233570Y30930D01*
X233559Y30915D01*
X233536Y30894D01*
X232123Y29283D01*
X232110Y29262D01*
X232036Y29161D01*
X229898Y25458D01*
X229892Y25443D01*
X229883Y25430D01*
X229822Y25274D01*
X228715Y21143D01*
X228712Y21119D01*
X228691Y20996D01*
X228550Y18857D01*
X228552Y18839D01*
X228549Y18808D01*
X228549Y-11808D01*
X228550Y-11816D01*
X228550Y-11820D01*
X228554Y-11838D01*
X228563Y-11898D01*
X228571Y-11989D01*
X228583Y-12019D01*
X228588Y-12050D01*
X228631Y-12131D01*
X228667Y-12215D01*
X228693Y-12247D01*
X228704Y-12268D01*
X228727Y-12290D01*
X228751Y-12320D01*
X228751Y-16683D01*
X228719Y-16728D01*
X228659Y-16797D01*
X228647Y-16828D01*
X228628Y-16854D01*
X228601Y-16941D01*
X228567Y-17026D01*
X228563Y-17066D01*
X228556Y-17089D01*
X228557Y-17121D01*
X228549Y-17192D01*
X228549Y-64808D01*
X228563Y-64898D01*
X228571Y-64989D01*
X228583Y-65019D01*
X228588Y-65050D01*
X228631Y-65131D01*
X228667Y-65215D01*
X228693Y-65247D01*
X228704Y-65268D01*
X228727Y-65290D01*
X228751Y-65320D01*
X228751Y-69683D01*
X228719Y-69728D01*
X228659Y-69797D01*
X228647Y-69828D01*
X228628Y-69854D01*
X228601Y-69941D01*
X228567Y-70026D01*
X228563Y-70066D01*
X228556Y-70089D01*
X228557Y-70121D01*
X228549Y-70192D01*
X228549Y-125308D01*
X228563Y-125398D01*
X228571Y-125489D01*
X228583Y-125519D01*
X228588Y-125550D01*
X228631Y-125631D01*
X228667Y-125715D01*
X228693Y-125747D01*
X228704Y-125768D01*
X228727Y-125790D01*
X228751Y-125820D01*
X228751Y-130175D01*
X225675Y-133251D01*
X221325Y-133251D01*
G37*
%LPD*%
%LPC*%
G36*
X-228555Y-27001D02*
X-228555Y-27001D01*
X-235422Y-25161D01*
X-241579Y-21606D01*
X-246606Y-16579D01*
X-250161Y-10422D01*
X-252001Y-3555D01*
X-252001Y3555D01*
X-250161Y10422D01*
X-246606Y16579D01*
X-241579Y21606D01*
X-235422Y25161D01*
X-228555Y27001D01*
X-221445Y27001D01*
X-214578Y25161D01*
X-208421Y21606D01*
X-203394Y16579D01*
X-199839Y10422D01*
X-197999Y3555D01*
X-197999Y-3555D01*
X-199839Y-10422D01*
X-203394Y-16579D01*
X-208421Y-21606D01*
X-214578Y-25161D01*
X-221445Y-27001D01*
X-228555Y-27001D01*
G37*
%LPD*%
%LPC*%
G36*
X36763Y97199D02*
X36763Y97199D01*
X32169Y99102D01*
X28652Y102619D01*
X26749Y107213D01*
X26749Y112187D01*
X28652Y116781D01*
X32169Y120298D01*
X36763Y122201D01*
X41737Y122201D01*
X46331Y120298D01*
X49848Y116781D01*
X51751Y112187D01*
X51751Y107213D01*
X49848Y102619D01*
X46331Y99102D01*
X41737Y97199D01*
X36763Y97199D01*
G37*
%LPD*%
%LPC*%
G36*
X18160Y9749D02*
X18160Y9749D01*
X14760Y11158D01*
X12158Y13760D01*
X10749Y17160D01*
X10749Y20840D01*
X12158Y24240D01*
X14760Y26842D01*
X18160Y28251D01*
X21840Y28251D01*
X25240Y26842D01*
X27842Y24240D01*
X29251Y20840D01*
X29251Y17160D01*
X27842Y13760D01*
X25240Y11158D01*
X21840Y9749D01*
X18160Y9749D01*
G37*
%LPD*%
%LPC*%
G36*
X-101840Y-19251D02*
X-101840Y-19251D01*
X-105240Y-17842D01*
X-107842Y-15240D01*
X-109251Y-11840D01*
X-109251Y-8160D01*
X-107842Y-4760D01*
X-105240Y-2158D01*
X-101840Y-749D01*
X-98160Y-749D01*
X-94760Y-2158D01*
X-92158Y-4760D01*
X-90749Y-8160D01*
X-90749Y-11840D01*
X-92158Y-15240D01*
X-94760Y-17842D01*
X-98160Y-19251D01*
X-101840Y-19251D01*
G37*
%LPD*%
%LPC*%
G36*
X-103416Y119324D02*
X-103416Y119324D01*
X-106495Y120599D01*
X-108851Y122955D01*
X-110126Y126034D01*
X-110126Y129366D01*
X-108851Y132445D01*
X-106495Y134801D01*
X-103416Y136076D01*
X-100084Y136076D01*
X-97005Y134801D01*
X-94649Y132445D01*
X-93374Y129366D01*
X-93374Y126034D01*
X-94649Y122955D01*
X-97005Y120599D01*
X-100084Y119324D01*
X-103416Y119324D01*
G37*
%LPD*%
%LPC*%
G36*
X-78016Y119324D02*
X-78016Y119324D01*
X-81095Y120599D01*
X-83451Y122955D01*
X-84726Y126034D01*
X-84726Y129366D01*
X-83451Y132445D01*
X-81095Y134801D01*
X-78016Y136076D01*
X-74684Y136076D01*
X-71605Y134801D01*
X-69249Y132445D01*
X-67974Y129366D01*
X-67974Y126034D01*
X-69249Y122955D01*
X-71605Y120599D01*
X-74684Y119324D01*
X-78016Y119324D01*
G37*
%LPD*%
%LPC*%
G36*
X-128816Y119324D02*
X-128816Y119324D01*
X-131895Y120599D01*
X-134251Y122955D01*
X-135526Y126034D01*
X-135526Y129366D01*
X-134251Y132445D01*
X-131895Y134801D01*
X-128816Y136076D01*
X-125484Y136076D01*
X-122405Y134801D01*
X-120049Y132445D01*
X-118774Y129366D01*
X-118774Y126034D01*
X-120049Y122955D01*
X-122405Y120599D01*
X-125484Y119324D01*
X-128816Y119324D01*
G37*
%LPD*%
%LPC*%
G36*
X-27216Y119324D02*
X-27216Y119324D01*
X-30295Y120599D01*
X-32651Y122955D01*
X-33926Y126034D01*
X-33926Y129366D01*
X-32651Y132445D01*
X-30295Y134801D01*
X-27216Y136076D01*
X-23884Y136076D01*
X-20805Y134801D01*
X-18449Y132445D01*
X-17174Y129366D01*
X-17174Y126034D01*
X-18449Y122955D01*
X-20805Y120599D01*
X-23884Y119324D01*
X-27216Y119324D01*
G37*
%LPD*%
%LPC*%
G36*
X-116116Y93924D02*
X-116116Y93924D01*
X-119195Y95199D01*
X-121551Y97555D01*
X-122826Y100634D01*
X-122826Y103966D01*
X-121551Y107045D01*
X-119195Y109401D01*
X-116116Y110676D01*
X-112784Y110676D01*
X-109705Y109401D01*
X-107349Y107045D01*
X-106074Y103966D01*
X-106074Y100634D01*
X-107349Y97555D01*
X-109705Y95199D01*
X-112784Y93924D01*
X-116116Y93924D01*
G37*
%LPD*%
%LPC*%
G36*
X-14516Y93924D02*
X-14516Y93924D01*
X-17595Y95199D01*
X-19951Y97555D01*
X-21226Y100634D01*
X-21226Y103966D01*
X-19951Y107045D01*
X-17595Y109401D01*
X-14516Y110676D01*
X-11184Y110676D01*
X-8105Y109401D01*
X-5749Y107045D01*
X-4474Y103966D01*
X-4474Y100634D01*
X-5749Y97555D01*
X-8105Y95199D01*
X-11184Y93924D01*
X-14516Y93924D01*
G37*
%LPD*%
%LPC*%
G36*
X-141516Y93924D02*
X-141516Y93924D01*
X-144595Y95199D01*
X-146951Y97555D01*
X-148226Y100634D01*
X-148226Y103966D01*
X-146951Y107045D01*
X-144595Y109401D01*
X-141516Y110676D01*
X-138184Y110676D01*
X-135105Y109401D01*
X-132749Y107045D01*
X-131474Y103966D01*
X-131474Y100634D01*
X-132749Y97555D01*
X-135105Y95199D01*
X-138184Y93924D01*
X-141516Y93924D01*
G37*
%LPD*%
%LPC*%
G36*
X-1816Y119324D02*
X-1816Y119324D01*
X-4895Y120599D01*
X-7251Y122955D01*
X-8526Y126034D01*
X-8526Y129366D01*
X-7251Y132445D01*
X-4895Y134801D01*
X-1816Y136076D01*
X1516Y136076D01*
X4595Y134801D01*
X6951Y132445D01*
X8226Y129366D01*
X8226Y126034D01*
X6951Y122955D01*
X4595Y120599D01*
X1516Y119324D01*
X-1816Y119324D01*
G37*
%LPD*%
%LPC*%
G36*
X-217175Y104749D02*
X-217175Y104749D01*
X-220251Y107825D01*
X-220251Y112175D01*
X-217175Y115251D01*
X-212825Y115251D01*
X-209749Y112175D01*
X-209749Y107825D01*
X-212825Y104749D01*
X-217175Y104749D01*
G37*
%LPD*%
%LPC*%
G36*
X-197175Y84749D02*
X-197175Y84749D01*
X-200251Y87825D01*
X-200251Y92175D01*
X-197175Y95251D01*
X-192825Y95251D01*
X-189749Y92175D01*
X-189749Y87825D01*
X-192825Y84749D01*
X-197175Y84749D01*
G37*
%LPD*%
%LPC*%
G36*
X-237175Y84749D02*
X-237175Y84749D01*
X-240251Y87825D01*
X-240251Y92175D01*
X-237175Y95251D01*
X-232825Y95251D01*
X-229749Y92175D01*
X-229749Y87825D01*
X-232825Y84749D01*
X-237175Y84749D01*
G37*
%LPD*%
%LPC*%
G36*
X-217175Y84749D02*
X-217175Y84749D01*
X-220251Y87825D01*
X-220251Y92175D01*
X-217175Y95251D01*
X-212825Y95251D01*
X-209749Y92175D01*
X-209749Y87825D01*
X-212825Y84749D01*
X-217175Y84749D01*
G37*
%LPD*%
%LPC*%
G36*
X-257175Y64749D02*
X-257175Y64749D01*
X-260251Y67825D01*
X-260251Y72175D01*
X-257175Y75251D01*
X-252825Y75251D01*
X-249749Y72175D01*
X-249749Y67825D01*
X-252825Y64749D01*
X-257175Y64749D01*
G37*
%LPD*%
%LPC*%
G36*
X-237175Y59749D02*
X-237175Y59749D01*
X-240251Y62825D01*
X-240251Y67175D01*
X-237175Y70251D01*
X-232825Y70251D01*
X-229749Y67175D01*
X-229749Y62825D01*
X-232825Y59749D01*
X-237175Y59749D01*
G37*
%LPD*%
%LPC*%
G36*
X-217175Y59749D02*
X-217175Y59749D01*
X-220251Y62825D01*
X-220251Y67175D01*
X-217175Y70251D01*
X-212825Y70251D01*
X-209749Y67175D01*
X-209749Y62825D01*
X-212825Y59749D01*
X-217175Y59749D01*
G37*
%LPD*%
%LPC*%
G36*
X-87175Y49749D02*
X-87175Y49749D01*
X-90251Y52825D01*
X-90251Y57175D01*
X-87175Y60251D01*
X-82825Y60251D01*
X-79749Y57175D01*
X-79749Y52825D01*
X-82825Y49749D01*
X-87175Y49749D01*
G37*
%LPD*%
%LPC*%
G36*
X-237175Y39749D02*
X-237175Y39749D01*
X-240251Y42825D01*
X-240251Y47175D01*
X-237175Y50251D01*
X-232825Y50251D01*
X-229749Y47175D01*
X-229749Y42825D01*
X-232825Y39749D01*
X-237175Y39749D01*
G37*
%LPD*%
%LPC*%
G36*
X-197175Y39749D02*
X-197175Y39749D01*
X-200251Y42825D01*
X-200251Y47175D01*
X-197175Y50251D01*
X-192825Y50251D01*
X-189749Y47175D01*
X-189749Y42825D01*
X-192825Y39749D01*
X-197175Y39749D01*
G37*
%LPD*%
%LPC*%
G36*
X-217175Y39749D02*
X-217175Y39749D01*
X-220251Y42825D01*
X-220251Y47175D01*
X-217175Y50251D01*
X-212825Y50251D01*
X-209749Y47175D01*
X-209749Y42825D01*
X-212825Y39749D01*
X-217175Y39749D01*
G37*
%LPD*%
%LPC*%
G36*
X-257175Y39749D02*
X-257175Y39749D01*
X-260251Y42825D01*
X-260251Y47175D01*
X-257175Y50251D01*
X-252825Y50251D01*
X-249749Y47175D01*
X-249749Y42825D01*
X-252825Y39749D01*
X-257175Y39749D01*
G37*
%LPD*%
%LPC*%
G36*
X-197175Y59749D02*
X-197175Y59749D01*
X-200251Y62825D01*
X-200251Y67175D01*
X-197175Y70251D01*
X-192825Y70251D01*
X-189749Y67175D01*
X-189749Y62825D01*
X-192825Y59749D01*
X-197175Y59749D01*
G37*
%LPD*%
%LPC*%
G36*
X-82175Y14749D02*
X-82175Y14749D01*
X-85251Y17825D01*
X-85251Y22175D01*
X-82175Y25251D01*
X-77825Y25251D01*
X-74749Y22175D01*
X-74749Y17825D01*
X-77825Y14749D01*
X-82175Y14749D01*
G37*
%LPD*%
%LPC*%
G36*
X-197175Y109749D02*
X-197175Y109749D01*
X-200251Y112825D01*
X-200251Y117175D01*
X-197175Y120251D01*
X-192825Y120251D01*
X-189749Y117175D01*
X-189749Y112825D01*
X-192825Y109749D01*
X-197175Y109749D01*
G37*
%LPD*%
%LPC*%
G36*
X22825Y-40251D02*
X22825Y-40251D01*
X19749Y-37175D01*
X19749Y-32825D01*
X22825Y-29749D01*
X27175Y-29749D01*
X30251Y-32825D01*
X30251Y-37175D01*
X27175Y-40251D01*
X22825Y-40251D01*
G37*
%LPD*%
%LPC*%
G36*
X-17175Y-40251D02*
X-17175Y-40251D01*
X-20251Y-37175D01*
X-20251Y-32825D01*
X-17175Y-29749D01*
X-12825Y-29749D01*
X-9749Y-32825D01*
X-9749Y-37175D01*
X-12825Y-40251D01*
X-17175Y-40251D01*
G37*
%LPD*%
%LPC*%
G36*
X-257175Y-40251D02*
X-257175Y-40251D01*
X-260251Y-37175D01*
X-260251Y-32825D01*
X-257175Y-29749D01*
X-252825Y-29749D01*
X-249749Y-32825D01*
X-249749Y-37175D01*
X-252825Y-40251D01*
X-257175Y-40251D01*
G37*
%LPD*%
%LPC*%
G36*
X-197175Y-40251D02*
X-197175Y-40251D01*
X-200251Y-37175D01*
X-200251Y-32825D01*
X-197175Y-29749D01*
X-192825Y-29749D01*
X-189749Y-32825D01*
X-189749Y-37175D01*
X-192825Y-40251D01*
X-197175Y-40251D01*
G37*
%LPD*%
%LPC*%
G36*
X22825Y-60251D02*
X22825Y-60251D01*
X19749Y-57175D01*
X19749Y-52825D01*
X22825Y-49749D01*
X27175Y-49749D01*
X30251Y-52825D01*
X30251Y-57175D01*
X27175Y-60251D01*
X22825Y-60251D01*
G37*
%LPD*%
%LPC*%
G36*
X-17175Y-60251D02*
X-17175Y-60251D01*
X-20251Y-57175D01*
X-20251Y-52825D01*
X-17175Y-49749D01*
X-12825Y-49749D01*
X-9749Y-52825D01*
X-9749Y-57175D01*
X-12825Y-60251D01*
X-17175Y-60251D01*
G37*
%LPD*%
%LPC*%
G36*
X-37175Y-60251D02*
X-37175Y-60251D01*
X-40251Y-57175D01*
X-40251Y-52825D01*
X-37175Y-49749D01*
X-32825Y-49749D01*
X-29749Y-52825D01*
X-29749Y-57175D01*
X-32825Y-60251D01*
X-37175Y-60251D01*
G37*
%LPD*%
%LPC*%
G36*
X-197175Y-60251D02*
X-197175Y-60251D01*
X-200251Y-57175D01*
X-200251Y-52825D01*
X-197175Y-49749D01*
X-192825Y-49749D01*
X-189749Y-52825D01*
X-189749Y-57175D01*
X-192825Y-60251D01*
X-197175Y-60251D01*
G37*
%LPD*%
%LPC*%
G36*
X-217175Y-60251D02*
X-217175Y-60251D01*
X-220251Y-57175D01*
X-220251Y-52825D01*
X-217175Y-49749D01*
X-212825Y-49749D01*
X-209749Y-52825D01*
X-209749Y-57175D01*
X-212825Y-60251D01*
X-217175Y-60251D01*
G37*
%LPD*%
%LPC*%
G36*
X-237175Y-60251D02*
X-237175Y-60251D01*
X-240251Y-57175D01*
X-240251Y-52825D01*
X-237175Y-49749D01*
X-232825Y-49749D01*
X-229749Y-52825D01*
X-229749Y-57175D01*
X-232825Y-60251D01*
X-237175Y-60251D01*
G37*
%LPD*%
%LPC*%
G36*
X-257175Y-60251D02*
X-257175Y-60251D01*
X-260251Y-57175D01*
X-260251Y-52825D01*
X-257175Y-49749D01*
X-252825Y-49749D01*
X-249749Y-52825D01*
X-249749Y-57175D01*
X-252825Y-60251D01*
X-257175Y-60251D01*
G37*
%LPD*%
%LPC*%
G36*
X-270175Y-73251D02*
X-270175Y-73251D01*
X-273251Y-70175D01*
X-273251Y-65825D01*
X-270175Y-62749D01*
X-265825Y-62749D01*
X-262749Y-65825D01*
X-262749Y-70175D01*
X-265825Y-73251D01*
X-270175Y-73251D01*
G37*
%LPD*%
%LPC*%
G36*
X22825Y-80251D02*
X22825Y-80251D01*
X19749Y-77175D01*
X19749Y-72825D01*
X22825Y-69749D01*
X27175Y-69749D01*
X30251Y-72825D01*
X30251Y-77175D01*
X27175Y-80251D01*
X22825Y-80251D01*
G37*
%LPD*%
%LPC*%
G36*
X-17175Y-80251D02*
X-17175Y-80251D01*
X-20251Y-77175D01*
X-20251Y-72825D01*
X-17175Y-69749D01*
X-12825Y-69749D01*
X-9749Y-72825D01*
X-9749Y-77175D01*
X-12825Y-80251D01*
X-17175Y-80251D01*
G37*
%LPD*%
%LPC*%
G36*
X-37175Y-80251D02*
X-37175Y-80251D01*
X-40251Y-77175D01*
X-40251Y-72825D01*
X-37175Y-69749D01*
X-32825Y-69749D01*
X-29749Y-72825D01*
X-29749Y-77175D01*
X-32825Y-80251D01*
X-37175Y-80251D01*
G37*
%LPD*%
%LPC*%
G36*
X-197175Y-80251D02*
X-197175Y-80251D01*
X-200251Y-77175D01*
X-200251Y-72825D01*
X-197175Y-69749D01*
X-192825Y-69749D01*
X-189749Y-72825D01*
X-189749Y-77175D01*
X-192825Y-80251D01*
X-197175Y-80251D01*
G37*
%LPD*%
%LPC*%
G36*
X-217175Y-80251D02*
X-217175Y-80251D01*
X-220251Y-77175D01*
X-220251Y-72825D01*
X-217175Y-69749D01*
X-212825Y-69749D01*
X-209749Y-72825D01*
X-209749Y-77175D01*
X-212825Y-80251D01*
X-217175Y-80251D01*
G37*
%LPD*%
%LPC*%
G36*
X-242175Y-85251D02*
X-242175Y-85251D01*
X-245251Y-82175D01*
X-245251Y-77825D01*
X-242175Y-74749D01*
X-237825Y-74749D01*
X-234749Y-77825D01*
X-234749Y-82175D01*
X-237825Y-85251D01*
X-242175Y-85251D01*
G37*
%LPD*%
%LPC*%
G36*
X-260175Y-93251D02*
X-260175Y-93251D01*
X-263251Y-90175D01*
X-263251Y-85825D01*
X-260175Y-82749D01*
X-255825Y-82749D01*
X-252749Y-85825D01*
X-252749Y-90175D01*
X-255825Y-93251D01*
X-260175Y-93251D01*
G37*
%LPD*%
%LPC*%
G36*
X-197175Y-100251D02*
X-197175Y-100251D01*
X-200251Y-97175D01*
X-200251Y-92825D01*
X-197175Y-89749D01*
X-192825Y-89749D01*
X-189749Y-92825D01*
X-189749Y-97175D01*
X-192825Y-100251D01*
X-197175Y-100251D01*
G37*
%LPD*%
%LPC*%
G36*
X-222175Y-105251D02*
X-222175Y-105251D01*
X-225251Y-102175D01*
X-225251Y-97825D01*
X-222175Y-94749D01*
X-217825Y-94749D01*
X-214749Y-97825D01*
X-214749Y-102175D01*
X-217825Y-105251D01*
X-222175Y-105251D01*
G37*
%LPD*%
%LPC*%
G36*
X-244175Y-113251D02*
X-244175Y-113251D01*
X-247251Y-110175D01*
X-247251Y-105825D01*
X-244175Y-102749D01*
X-239825Y-102749D01*
X-236749Y-105825D01*
X-236749Y-110175D01*
X-239825Y-113251D01*
X-244175Y-113251D01*
G37*
%LPD*%
%LPC*%
G36*
X-197175Y-125251D02*
X-197175Y-125251D01*
X-200251Y-122175D01*
X-200251Y-117825D01*
X-197175Y-114749D01*
X-192825Y-114749D01*
X-189749Y-117825D01*
X-189749Y-122175D01*
X-192825Y-125251D01*
X-197175Y-125251D01*
G37*
%LPD*%
%LPC*%
G36*
X-224175Y-129251D02*
X-224175Y-129251D01*
X-227251Y-126175D01*
X-227251Y-121825D01*
X-224175Y-118749D01*
X-219825Y-118749D01*
X-216749Y-121825D01*
X-216749Y-126175D01*
X-219825Y-129251D01*
X-224175Y-129251D01*
G37*
%LPD*%
%LPC*%
G36*
X2825Y-80251D02*
X2825Y-80251D01*
X-251Y-77175D01*
X-251Y-72825D01*
X2825Y-69749D01*
X7175Y-69749D01*
X10251Y-72825D01*
X10251Y-77175D01*
X7175Y-80251D01*
X2825Y-80251D01*
G37*
%LPD*%
%LPC*%
G36*
X2825Y-60251D02*
X2825Y-60251D01*
X-251Y-57175D01*
X-251Y-52825D01*
X2825Y-49749D01*
X7175Y-49749D01*
X10251Y-52825D01*
X10251Y-57175D01*
X7175Y-60251D01*
X2825Y-60251D01*
G37*
%LPD*%
D10*
X570000Y-220000D03*
X670000Y-220000D03*
X570000Y220000D03*
X670000Y220000D03*
D11*
X797300Y0D03*
X822700Y0D03*
D12*
X25250Y127700D03*
X12550Y102300D03*
X-150Y127700D03*
X-12850Y102300D03*
X-25550Y127700D03*
X-38250Y102300D03*
X-50950Y127700D03*
X-63650Y102300D03*
X-76350Y127700D03*
X-89050Y102300D03*
X-101750Y127700D03*
X-114450Y102300D03*
X-127150Y127700D03*
X-139850Y102300D03*
X-152550Y127700D03*
X-165250Y102300D03*
D13*
X810000Y135400D03*
X810000Y84600D03*
X810000Y-84600D03*
X810000Y-135400D03*
D14*
X223500Y-128000D03*
X223500Y-67500D03*
X223500Y102500D03*
X223500Y74500D03*
X223500Y-14500D03*
D15*
X223500Y-67500D02*
X223500Y-128000D01*
X223500Y-67500D02*
X223500Y-14500D01*
X223500Y15500D01*
X223500Y18808D01*
X223506Y19336D01*
X223525Y19864D01*
X223557Y20391D01*
X223600Y20917D01*
X223657Y21443D01*
X223726Y21966D01*
X223807Y22488D01*
X223901Y23008D01*
X224007Y23525D01*
X224126Y24040D01*
X224256Y24552D01*
X224399Y25060D01*
X224554Y25565D01*
X224721Y26066D01*
X224899Y26563D01*
X225090Y27056D01*
X225292Y27544D01*
X225505Y28027D01*
X225731Y28505D01*
X225967Y28977D01*
X226215Y29443D01*
X226473Y29904D01*
X226743Y30358D01*
X227023Y30806D01*
X227314Y31247D01*
X227615Y31681D01*
X227926Y32107D01*
X228248Y32526D01*
X228579Y32937D01*
X228920Y33341D01*
X229271Y33736D01*
X229631Y34122D01*
X230000Y34500D01*
X230234Y34740D01*
X230462Y34986D01*
X230684Y35237D01*
X230900Y35493D01*
X231109Y35755D01*
X231312Y36022D01*
X231509Y36293D01*
X231698Y36570D01*
X231881Y36851D01*
X232057Y37136D01*
X232226Y37425D01*
X232387Y37719D01*
X232542Y38017D01*
X232689Y38318D01*
X232828Y38623D01*
X232960Y38931D01*
X233085Y39242D01*
X233202Y39556D01*
X233311Y39873D01*
X233412Y40193D01*
X233505Y40514D01*
X233591Y40839D01*
X233668Y41165D01*
X233738Y41493D01*
X233799Y41822D01*
X233852Y42153D01*
X233897Y42485D01*
X233934Y42818D01*
X233963Y43152D01*
X233984Y43487D01*
X233996Y43822D01*
X234000Y44157D01*
X223500Y74500D02*
X223500Y102500D01*
D14*
X177000Y15500D03*
D15*
X223500Y15500D01*
X234000Y64000D02*
X233997Y64254D01*
X233988Y64507D01*
X233972Y64761D01*
X233951Y65013D01*
X233923Y65266D01*
X233890Y65517D01*
X233850Y65768D01*
X233804Y66017D01*
X233753Y66266D01*
X233695Y66513D01*
X233631Y66758D01*
X233562Y67002D01*
X233486Y67245D01*
X233405Y67485D01*
X233318Y67723D01*
X233225Y67959D01*
X233126Y68193D01*
X233022Y68425D01*
X232912Y68654D01*
X232797Y68880D01*
X232677Y69103D01*
X232551Y69323D01*
X232419Y69540D01*
X232283Y69754D01*
X232141Y69965D01*
X231995Y70172D01*
X231843Y70375D01*
X231687Y70575D01*
X231525Y70771D01*
X231359Y70963D01*
X231189Y71151D01*
X231014Y71334D01*
X230834Y71514D01*
X230651Y71689D01*
X230463Y71859D01*
X230271Y72025D01*
X230075Y72187D01*
X229875Y72343D01*
X229672Y72495D01*
X229465Y72641D01*
X229254Y72783D01*
X229040Y72919D01*
X228823Y73051D01*
X228603Y73177D01*
X228380Y73297D01*
X228154Y73412D01*
X227925Y73522D01*
X227693Y73626D01*
X227459Y73725D01*
X227223Y73818D01*
X226985Y73905D01*
X226745Y73986D01*
X226502Y74062D01*
X226258Y74131D01*
X226013Y74195D01*
X225766Y74253D01*
X225517Y74304D01*
X225268Y74350D01*
X225017Y74390D01*
X224766Y74423D01*
X224513Y74451D01*
X224261Y74472D01*
X224007Y74488D01*
X223754Y74497D01*
X223500Y74500D01*
X234000Y64000D02*
X234000Y44157D01*
D14*
X-196000Y138000D03*
X60000Y140000D03*
X80000Y140000D03*
X100000Y140000D03*
X120000Y140000D03*
X140000Y140000D03*
X160000Y140000D03*
X180000Y140000D03*
X-220000Y130000D03*
X-242000Y116000D03*
X-258000Y96000D03*
X-270000Y72000D03*
X-276000Y42000D03*
X-276000Y14000D03*
X-276000Y-16000D03*
X-276000Y-44000D03*
X-268000Y-68000D03*
X-258000Y-88000D03*
X-242000Y-108000D03*
X-222000Y-124000D03*
X-204000Y-136000D03*
X-180000Y-140000D03*
X-160000Y-140000D03*
X-140000Y-140000D03*
X-120000Y-140000D03*
X-100000Y-140000D03*
X-80000Y-140000D03*
X-60000Y-140000D03*
X-40000Y-140000D03*
X-20000Y-140000D03*
X40000Y-140000D03*
X60000Y-140000D03*
X80000Y-140000D03*
X100000Y-140000D03*
X120000Y-140000D03*
X140000Y-140000D03*
X160000Y-140000D03*
X180000Y-140000D03*
X200000Y-140000D03*
X25000Y-35000D03*
X25000Y-55000D03*
X5000Y-55000D03*
X-15000Y-55000D03*
X-15000Y-35000D03*
X-35000Y-55000D03*
X-35000Y-75000D03*
X-15000Y-75000D03*
X5000Y-75000D03*
X25000Y-75000D03*
X-195000Y-120000D03*
X-195000Y-95000D03*
X-220000Y-100000D03*
X-215000Y-75000D03*
X-240000Y-80000D03*
X-195000Y-75000D03*
X-195000Y-55000D03*
X-215000Y-55000D03*
X-235000Y-55000D03*
X-255000Y-55000D03*
X-255000Y45000D03*
X-235000Y45000D03*
X-215000Y45000D03*
X-195000Y45000D03*
X-195000Y65000D03*
X-215000Y65000D03*
X-235000Y65000D03*
X-255000Y70000D03*
X-235000Y90000D03*
X-215000Y90000D03*
X-195000Y90000D03*
X-215000Y110000D03*
X-195000Y115000D03*
X-195000Y-35000D03*
X-255000Y-35000D03*
X-85000Y55000D03*
X20000Y-130000D03*
X20000Y-120000D03*
X20000Y-110000D03*
X20000Y-100000D03*
X30000Y-100000D03*
X30000Y-110000D03*
X30000Y-120000D03*
X30000Y-130000D03*
X-106500Y50500D03*
X-96000Y40000D03*
X124000Y-73500D03*
X147860Y-117860D03*
X20000Y19000D03*
X-100000Y-10000D03*
X436000Y-30000D03*
X520000Y80000D03*
X520000Y70000D03*
X510000Y70000D03*
X510000Y80000D03*
X500000Y80000D03*
X500000Y70000D03*
X480000Y70000D03*
X480000Y80000D03*
X490000Y80000D03*
X490000Y70000D03*
X613500Y0D03*
X350000Y-67500D03*
X678500Y0D03*
X462500Y-9500D03*
X440000Y112000D03*
X-80000Y20000D03*
X223500Y61500D03*
D16*
X137471Y58000D02*
X136582Y58011D01*
X135694Y58042D01*
X134806Y58095D01*
X133921Y58169D01*
X133037Y58264D01*
X132156Y58380D01*
X131277Y58517D01*
X130402Y58675D01*
X129532Y58854D01*
X128665Y59053D01*
X127804Y59273D01*
X126948Y59513D01*
X126098Y59774D01*
X125255Y60054D01*
X124419Y60355D01*
X123589Y60675D01*
X122768Y61016D01*
X121955Y61375D01*
X121151Y61754D01*
X120356Y62152D01*
X119571Y62569D01*
X118796Y63004D01*
X118032Y63458D01*
X117278Y63929D01*
X116536Y64419D01*
X115806Y64926D01*
X115088Y65450D01*
X114383Y65991D01*
X113691Y66549D01*
X113012Y67123D01*
X112347Y67713D01*
X111697Y68319D01*
X111061Y68940D01*
X137471Y58000D02*
X215050Y58000D01*
X215334Y58003D01*
X215619Y58014D01*
X215903Y58030D01*
X216186Y58054D01*
X216469Y58085D01*
X216751Y58122D01*
X217032Y58165D01*
X217312Y58216D01*
X217590Y58273D01*
X217867Y58337D01*
X218143Y58407D01*
X218417Y58484D01*
X218689Y58567D01*
X218958Y58657D01*
X219226Y58753D01*
X219491Y58856D01*
X219754Y58965D01*
X220014Y59080D01*
X220271Y59201D01*
X220526Y59328D01*
X220777Y59462D01*
X221025Y59601D01*
X221270Y59746D01*
X221511Y59897D01*
X221748Y60054D01*
X221982Y60216D01*
X222211Y60384D01*
X222437Y60557D01*
X222658Y60735D01*
X222876Y60919D01*
X223088Y61108D01*
X223296Y61301D01*
X223500Y61500D01*
X111061Y68940D02*
X102440Y77561D01*
X102007Y77983D01*
X101565Y78395D01*
X101112Y78796D01*
X100651Y79186D01*
X100180Y79566D01*
X99701Y79934D01*
X99212Y80290D01*
X98716Y80635D01*
X98211Y80968D01*
X97699Y81289D01*
X97179Y81597D01*
X96652Y81893D01*
X96118Y82176D01*
X95577Y82447D01*
X95031Y82705D01*
X94478Y82949D01*
X93919Y83181D01*
X93355Y83399D01*
X92787Y83603D01*
X92213Y83794D01*
X91635Y83971D01*
X91053Y84135D01*
X90467Y84284D01*
X89878Y84420D01*
X89286Y84541D01*
X88691Y84648D01*
X88094Y84741D01*
X87494Y84820D01*
X86893Y84885D01*
X86291Y84935D01*
X85688Y84971D01*
X85083Y84993D01*
X84479Y85000D01*
X-50950Y95950D02*
X-50950Y127700D01*
X-50950Y95950D02*
X-50947Y95685D01*
X-50937Y95421D01*
X-50921Y95157D01*
X-50899Y94893D01*
X-50870Y94630D01*
X-50835Y94368D01*
X-50794Y94106D01*
X-50746Y93846D01*
X-50692Y93587D01*
X-50632Y93329D01*
X-50565Y93073D01*
X-50493Y92819D01*
X-50414Y92566D01*
X-50329Y92316D01*
X-50238Y92067D01*
X-50142Y91821D01*
X-50039Y91577D01*
X-49930Y91336D01*
X-49816Y91097D01*
X-49696Y90861D01*
X-49570Y90628D01*
X-49439Y90399D01*
X-49302Y90172D01*
X-49159Y89949D01*
X-49012Y89730D01*
X-48859Y89514D01*
X-48701Y89302D01*
X-48537Y89093D01*
X-48369Y88889D01*
X-48196Y88689D01*
X-48018Y88493D01*
X-47836Y88301D01*
X-47649Y88114D01*
X-47457Y87932D01*
X-47261Y87754D01*
X-47061Y87581D01*
X-46857Y87413D01*
X-46648Y87249D01*
X-46436Y87091D01*
X-46220Y86938D01*
X-46001Y86791D01*
X-45778Y86648D01*
X-45551Y86511D01*
X-45322Y86380D01*
X-45089Y86254D01*
X-44853Y86134D01*
X-44614Y86020D01*
X-44373Y85911D01*
X-44129Y85808D01*
X-43883Y85712D01*
X-43634Y85621D01*
X-43384Y85536D01*
X-43131Y85457D01*
X-42877Y85385D01*
X-42621Y85318D01*
X-42363Y85258D01*
X-42104Y85204D01*
X-41844Y85156D01*
X-41582Y85115D01*
X-41320Y85080D01*
X-41057Y85051D01*
X-40793Y85029D01*
X-40529Y85013D01*
X-40265Y85003D01*
X-40000Y85000D01*
X50000Y87500D02*
X50002Y87402D01*
X50008Y87304D01*
X50017Y87206D01*
X50031Y87109D01*
X50048Y87012D01*
X50069Y86916D01*
X50094Y86821D01*
X50122Y86727D01*
X50155Y86635D01*
X50190Y86543D01*
X50230Y86453D01*
X50272Y86365D01*
X50319Y86278D01*
X50368Y86194D01*
X50421Y86111D01*
X50477Y86031D01*
X50537Y85952D01*
X50599Y85876D01*
X50664Y85803D01*
X50732Y85732D01*
X50803Y85664D01*
X50876Y85599D01*
X50952Y85537D01*
X51031Y85477D01*
X51111Y85421D01*
X51194Y85368D01*
X51278Y85319D01*
X51365Y85272D01*
X51453Y85230D01*
X51543Y85190D01*
X51635Y85155D01*
X51727Y85122D01*
X51821Y85094D01*
X51916Y85069D01*
X52012Y85048D01*
X52109Y85031D01*
X52206Y85017D01*
X52304Y85008D01*
X52402Y85002D01*
X52500Y85000D01*
X50000Y87500D02*
X50000Y89000D01*
X49998Y89098D01*
X49992Y89196D01*
X49983Y89294D01*
X49969Y89391D01*
X49952Y89488D01*
X49931Y89584D01*
X49906Y89679D01*
X49878Y89773D01*
X49845Y89865D01*
X49810Y89957D01*
X49770Y90047D01*
X49728Y90135D01*
X49681Y90222D01*
X49632Y90306D01*
X49579Y90389D01*
X49523Y90469D01*
X49463Y90548D01*
X49401Y90624D01*
X49336Y90697D01*
X49268Y90768D01*
X49197Y90836D01*
X49124Y90901D01*
X49048Y90963D01*
X48969Y91023D01*
X48889Y91079D01*
X48806Y91132D01*
X48722Y91181D01*
X48635Y91228D01*
X48547Y91270D01*
X48457Y91310D01*
X48365Y91345D01*
X48273Y91378D01*
X48179Y91406D01*
X48084Y91431D01*
X47988Y91452D01*
X47891Y91469D01*
X47794Y91483D01*
X47696Y91492D01*
X47598Y91498D01*
X47500Y91500D01*
X45000Y89000D02*
X45000Y87500D01*
X44998Y87402D01*
X44992Y87304D01*
X44983Y87206D01*
X44969Y87109D01*
X44952Y87012D01*
X44931Y86916D01*
X44906Y86821D01*
X44878Y86727D01*
X44845Y86635D01*
X44810Y86543D01*
X44770Y86453D01*
X44728Y86365D01*
X44681Y86278D01*
X44632Y86194D01*
X44579Y86111D01*
X44523Y86031D01*
X44463Y85952D01*
X44401Y85876D01*
X44336Y85803D01*
X44268Y85732D01*
X44197Y85664D01*
X44124Y85599D01*
X44048Y85537D01*
X43969Y85477D01*
X43889Y85421D01*
X43806Y85368D01*
X43722Y85319D01*
X43635Y85272D01*
X43547Y85230D01*
X43457Y85190D01*
X43365Y85155D01*
X43273Y85122D01*
X43179Y85094D01*
X43084Y85069D01*
X42988Y85048D01*
X42891Y85031D01*
X42794Y85017D01*
X42696Y85008D01*
X42598Y85002D01*
X42500Y85000D01*
X52500Y85000D02*
X84479Y85000D01*
X42500Y85000D02*
X-40000Y85000D01*
X45000Y89000D02*
X45002Y89098D01*
X45008Y89196D01*
X45017Y89294D01*
X45031Y89391D01*
X45048Y89488D01*
X45069Y89584D01*
X45094Y89679D01*
X45122Y89773D01*
X45155Y89865D01*
X45190Y89957D01*
X45230Y90047D01*
X45272Y90135D01*
X45319Y90222D01*
X45368Y90306D01*
X45421Y90389D01*
X45477Y90469D01*
X45537Y90548D01*
X45599Y90624D01*
X45664Y90697D01*
X45732Y90768D01*
X45803Y90836D01*
X45876Y90901D01*
X45952Y90963D01*
X46031Y91023D01*
X46111Y91079D01*
X46194Y91132D01*
X46278Y91181D01*
X46365Y91228D01*
X46453Y91270D01*
X46543Y91310D01*
X46635Y91345D01*
X46727Y91378D01*
X46821Y91406D01*
X46916Y91431D01*
X47012Y91452D01*
X47109Y91469D01*
X47206Y91483D01*
X47304Y91492D01*
X47402Y91498D01*
X47500Y91500D01*
D14*
X223500Y49000D03*
D16*
X136642Y52500D02*
X135657Y52512D01*
X134673Y52547D01*
X133690Y52605D01*
X132708Y52687D01*
X131729Y52793D01*
X130752Y52921D01*
X129779Y53073D01*
X128810Y53248D01*
X127845Y53446D01*
X126885Y53667D01*
X125931Y53910D01*
X124982Y54176D01*
X124041Y54465D01*
X123106Y54776D01*
X122179Y55109D01*
X121261Y55465D01*
X120351Y55841D01*
X119450Y56240D01*
X118559Y56660D01*
X117678Y57101D01*
X116808Y57562D01*
X115949Y58045D01*
X115102Y58547D01*
X114268Y59070D01*
X113445Y59612D01*
X112636Y60174D01*
X111841Y60755D01*
X111059Y61354D01*
X110293Y61972D01*
X109541Y62608D01*
X108804Y63262D01*
X108083Y63933D01*
X107378Y64621D01*
X136642Y52500D02*
X215050Y52500D01*
X215334Y52497D01*
X215619Y52486D01*
X215903Y52470D01*
X216186Y52446D01*
X216469Y52415D01*
X216751Y52378D01*
X217032Y52335D01*
X217312Y52284D01*
X217590Y52227D01*
X217867Y52163D01*
X218143Y52093D01*
X218417Y52016D01*
X218689Y51933D01*
X218958Y51843D01*
X219226Y51747D01*
X219491Y51644D01*
X219754Y51535D01*
X220014Y51420D01*
X220271Y51299D01*
X220526Y51172D01*
X220777Y51038D01*
X221025Y50899D01*
X221270Y50754D01*
X221511Y50603D01*
X221748Y50446D01*
X221982Y50284D01*
X222211Y50116D01*
X222437Y49943D01*
X222658Y49765D01*
X222876Y49581D01*
X223088Y49392D01*
X223296Y49199D01*
X223500Y49000D01*
X107379Y64622D02*
X98525Y73475D01*
X98526Y73475D02*
X98175Y73817D01*
X97817Y74150D01*
X97451Y74475D01*
X97077Y74791D01*
X96696Y75099D01*
X96307Y75397D01*
X95912Y75685D01*
X95510Y75965D01*
X95101Y76234D01*
X94686Y76494D01*
X94265Y76744D01*
X93838Y76984D01*
X93406Y77213D01*
X92968Y77432D01*
X92525Y77641D01*
X92077Y77839D01*
X91625Y78026D01*
X91168Y78203D01*
X90707Y78369D01*
X90243Y78523D01*
X89775Y78667D01*
X89303Y78799D01*
X88829Y78920D01*
X88352Y79030D01*
X87872Y79128D01*
X87390Y79215D01*
X86907Y79291D01*
X86421Y79355D01*
X85934Y79407D01*
X85447Y79448D01*
X84958Y79477D01*
X84469Y79494D01*
X83979Y79500D01*
X-55729Y79500D02*
X-56333Y79507D01*
X-56938Y79529D01*
X-57541Y79565D01*
X-58143Y79615D01*
X-58744Y79680D01*
X-59344Y79759D01*
X-59941Y79852D01*
X-60536Y79959D01*
X-61128Y80080D01*
X-61717Y80216D01*
X-62303Y80365D01*
X-62885Y80529D01*
X-63463Y80706D01*
X-64037Y80897D01*
X-64605Y81101D01*
X-65169Y81319D01*
X-65728Y81551D01*
X-66281Y81795D01*
X-66827Y82053D01*
X-67368Y82324D01*
X-67902Y82607D01*
X-68429Y82903D01*
X-68949Y83211D01*
X-69461Y83532D01*
X-69966Y83865D01*
X-70462Y84210D01*
X-70951Y84566D01*
X-71430Y84934D01*
X-71901Y85314D01*
X-72362Y85704D01*
X-72815Y86105D01*
X-73257Y86517D01*
X-73690Y86939D01*
X-73690Y86940D02*
X-89050Y102300D01*
X-55729Y79500D02*
X83979Y79500D01*
M02*
