M48
;GenerationSoftware,Autodesk,EAGLE,9.6.2*%
;CreationDate,2023-07-04T10:32:40Z*%
FMAT,2
ICI,OFF
METRIC,TZ,000.000
T7C0.350
T6C0.813
T5C0.850
T4C1.000
T3C1.500
T2C2.000
T1C4.400
%
G90
M71
T1
X-22500Y0
X62000Y30000
X62000Y-30000
T2
X57000Y-22000
X67000Y-22000
X57000Y22000
X67000Y22000
T3
X3925Y10970
T4
X81000Y-13540
X81000Y13540
X81000Y8460
X81000Y-8460
T5
X1255Y10230
X2525Y12770
X-15Y12770
X-1285Y10230
X-2555Y12770
X-3825Y10230
X-5095Y12770
X-6365Y10230
X-7635Y12770
X-8905Y10230
X-10175Y12770
X-11445Y10230
X-12715Y12770
X-13985Y10230
X-15255Y12770
X-16525Y10230
T6
X79730Y0
X82270Y0
T7
X-12000Y-14000
X-10000Y-14000
X-8000Y-14000
X-6000Y-14000
X-4000Y-14000
X-2000Y-14000
X4000Y-14000
X6000Y-14000
X8000Y-14000
X10000Y-14000
X12000Y-14000
X14000Y-14000
X16000Y-14000
X18000Y-14000
X20000Y-14000
X2500Y-3500
X2500Y-5500
X500Y-5500
X-1500Y-5500
X-1500Y-3500
X-3500Y-5500
X-3500Y-7500
X-1500Y-7500
X500Y-7500
X2500Y-7500
X-19500Y-12000
X-19500Y-9500
X-22000Y-10000
X-21500Y-7500
X-24000Y-8000
X-19500Y-7500
X-19500Y-5500
X-21500Y-5500
X-23500Y-5500
X-25500Y-5500
X-25500Y4500
X-23500Y4500
X-21500Y4500
X-19500Y4500
X-19500Y6500
X-21500Y6500
X-23500Y6500
X-25500Y7000
X-23500Y9000
X-27600Y4200
X-19500Y9000
X-21500Y11000
X-19500Y11500
X-19500Y-3500
X-25500Y-3500
X-8500Y5500
X14000Y9000
X19500Y9000
X20500Y12000
X10000Y10000
X2000Y-13000
X2000Y-12000
X2000Y-11000
X2000Y-10000
X3000Y-10000
X3000Y-11000
X3000Y-12000
X3000Y-13000
X-10650Y5050
X-9600Y4000
X12400Y-7350
X14786Y-11786
X2000Y1900
X-10000Y-1000
X43600Y-3000
X52000Y8000
X52000Y7000
X51000Y7000
X51000Y8000
X50000Y8000
X50000Y7000
X48000Y7000
X48000Y8000
X49000Y8000
X49000Y7000
X61350Y0
X22350Y-12800
X67850Y0
X46250Y-950
X44000Y11200
X-8000Y2000
X22350Y6150
X22350Y4900
X22350Y-6750
X22350Y10250
X22350Y7450
X22350Y-1450
X17700Y1550
X-19600Y13800
X6000Y14000
X8000Y14000
X10000Y14000
X12000Y14000
X14000Y14000
X-21500Y9000
X16000Y14000
X18000Y14000
X-22000Y13000
X-24200Y11600
X-25800Y9600
X-27000Y7200
X-27600Y1400
X-27600Y-1600
X-27600Y-4400
X-26800Y-6800
X-25800Y-8800
X-24200Y-10800
X-22200Y-12400
X-20400Y-13600
X-18000Y-14000
X-16000Y-14000
X-14000Y-14000
X35000Y-6750
M30