G04 EAGLE Gerber RS-274X export*
G75*
%MOMM*%
%FSLAX34Y34*%
%LPD*%
%IN*%
%IPPOS*%
%AMOC8*
5,1,8,0,0,1.08239X$1,22.5*%
G01*
%ADD10C,0.254000*%


D10*
X-285000Y-40000D02*
X-284581Y-49587D01*
X-283329Y-59101D01*
X-281252Y-68470D01*
X-278366Y-77622D01*
X-274694Y-86488D01*
X-270263Y-95000D01*
X-265107Y-103093D01*
X-259265Y-110707D01*
X-252782Y-117782D01*
X-245707Y-124265D01*
X-238093Y-130107D01*
X-230000Y-135263D01*
X-221488Y-139694D01*
X-212622Y-143366D01*
X-203470Y-146252D01*
X-194101Y-148329D01*
X-184587Y-149581D01*
X-175000Y-150000D01*
X296000Y-150000D01*
X313870Y-150774D01*
X331604Y-153102D01*
X349068Y-156967D01*
X366129Y-162340D01*
X382657Y-169179D01*
X398525Y-177432D01*
X413614Y-187037D01*
X427808Y-197921D01*
X441000Y-210000D01*
X541000Y-310000D01*
X549197Y-317472D01*
X558015Y-324200D01*
X567385Y-330135D01*
X577237Y-335230D01*
X587495Y-339448D01*
X598082Y-342755D01*
X608917Y-345127D01*
X619918Y-346546D01*
X631000Y-347000D01*
X672000Y-347000D01*
X681336Y-346706D01*
X694269Y-345323D01*
X707032Y-342819D01*
X719529Y-339212D01*
X731663Y-334529D01*
X743344Y-328807D01*
X754481Y-322089D01*
X764990Y-314425D01*
X774791Y-305875D01*
X783810Y-296502D01*
X791978Y-286380D01*
X799232Y-275584D01*
X805518Y-264197D01*
X810787Y-252306D01*
X815000Y-240000D01*
X820693Y-219879D01*
X836853Y-147533D01*
X846647Y-74053D01*
X850000Y0D01*
X849709Y20909D01*
X844535Y94857D01*
X832936Y168073D01*
X815000Y240000D01*
X812084Y248873D01*
X807108Y260891D01*
X801105Y272429D01*
X794118Y283400D01*
X786202Y293721D01*
X777417Y303312D01*
X767829Y312101D01*
X757511Y320021D01*
X746543Y327011D01*
X735007Y333019D01*
X722991Y337999D01*
X710587Y341913D01*
X697889Y344730D01*
X684994Y346430D01*
X672000Y347000D01*
X621000Y347000D01*
X610989Y346156D01*
X601089Y344442D01*
X591377Y341872D01*
X581925Y338466D01*
X572807Y334248D01*
X564090Y329252D01*
X555843Y323516D01*
X548126Y317082D01*
X541000Y310000D01*
X441000Y210000D01*
X427808Y197921D01*
X413614Y187037D01*
X398525Y177432D01*
X382657Y169179D01*
X366129Y162340D01*
X349068Y156967D01*
X331604Y153102D01*
X313870Y150774D01*
X296000Y150000D01*
X-175000Y150000D01*
X-184587Y149581D01*
X-194101Y148329D01*
X-203470Y146252D01*
X-212622Y143366D01*
X-221488Y139694D01*
X-230000Y135263D01*
X-238093Y130107D01*
X-245707Y124265D01*
X-252782Y117782D01*
X-259265Y110707D01*
X-265107Y103093D01*
X-270263Y95000D01*
X-274694Y86488D01*
X-278366Y77622D01*
X-281252Y68470D01*
X-283329Y59101D01*
X-284581Y49587D01*
X-285000Y40000D01*
X-285000Y-40000D01*
X46750Y109332D02*
X46678Y108598D01*
X46534Y107875D01*
X46320Y107170D01*
X46038Y106489D01*
X45691Y105840D01*
X45281Y105227D01*
X44814Y104657D01*
X44293Y104136D01*
X43723Y103669D01*
X43110Y103259D01*
X42461Y102912D01*
X41780Y102630D01*
X41075Y102416D01*
X40352Y102272D01*
X39618Y102200D01*
X38882Y102200D01*
X38148Y102272D01*
X37425Y102416D01*
X36720Y102630D01*
X36039Y102912D01*
X35390Y103259D01*
X34777Y103669D01*
X34207Y104136D01*
X33686Y104657D01*
X33219Y105227D01*
X32809Y105840D01*
X32462Y106489D01*
X32180Y107170D01*
X31966Y107875D01*
X31822Y108598D01*
X31750Y109332D01*
X31750Y110068D01*
X31822Y110802D01*
X31966Y111525D01*
X32180Y112230D01*
X32462Y112911D01*
X32809Y113560D01*
X33219Y114173D01*
X33686Y114743D01*
X34207Y115264D01*
X34777Y115731D01*
X35390Y116141D01*
X36039Y116488D01*
X36720Y116770D01*
X37425Y116984D01*
X38148Y117128D01*
X38882Y117200D01*
X39618Y117200D01*
X40352Y117128D01*
X41075Y116984D01*
X41780Y116770D01*
X42461Y116488D01*
X43110Y116141D01*
X43723Y115731D01*
X44293Y115264D01*
X44814Y114743D01*
X45281Y114173D01*
X45691Y113560D01*
X46038Y112911D01*
X46320Y112230D01*
X46534Y111525D01*
X46678Y110802D01*
X46750Y110068D01*
X46750Y109332D01*
X-203000Y-617D02*
X-203069Y-1850D01*
X-203207Y-3077D01*
X-203414Y-4294D01*
X-203689Y-5497D01*
X-204031Y-6684D01*
X-204438Y-7849D01*
X-204911Y-8989D01*
X-205447Y-10102D01*
X-206044Y-11182D01*
X-206700Y-12227D01*
X-207415Y-13234D01*
X-208185Y-14199D01*
X-209007Y-15120D01*
X-209880Y-15993D01*
X-210801Y-16815D01*
X-211766Y-17585D01*
X-212773Y-18300D01*
X-213818Y-18956D01*
X-214898Y-19554D01*
X-216011Y-20089D01*
X-217151Y-20562D01*
X-218316Y-20969D01*
X-219503Y-21311D01*
X-220706Y-21586D01*
X-221923Y-21793D01*
X-223150Y-21931D01*
X-224383Y-22000D01*
X-225617Y-22000D01*
X-226850Y-21931D01*
X-228077Y-21793D01*
X-229294Y-21586D01*
X-230497Y-21311D01*
X-231684Y-20969D01*
X-232849Y-20562D01*
X-233989Y-20089D01*
X-235102Y-19554D01*
X-236182Y-18956D01*
X-237227Y-18300D01*
X-238234Y-17585D01*
X-239199Y-16815D01*
X-240120Y-15993D01*
X-240993Y-15120D01*
X-241815Y-14199D01*
X-242585Y-13234D01*
X-243300Y-12227D01*
X-243956Y-11182D01*
X-244554Y-10102D01*
X-245089Y-8989D01*
X-245562Y-7849D01*
X-245969Y-6684D01*
X-246311Y-5497D01*
X-246586Y-4294D01*
X-246793Y-3077D01*
X-246931Y-1850D01*
X-247000Y-617D01*
X-247000Y617D01*
X-246931Y1850D01*
X-246793Y3077D01*
X-246586Y4294D01*
X-246311Y5497D01*
X-245969Y6684D01*
X-245562Y7849D01*
X-245089Y8989D01*
X-244554Y10102D01*
X-243956Y11182D01*
X-243300Y12227D01*
X-242585Y13234D01*
X-241815Y14199D01*
X-240993Y15120D01*
X-240120Y15993D01*
X-239199Y16815D01*
X-238234Y17585D01*
X-237227Y18300D01*
X-236182Y18956D01*
X-235102Y19554D01*
X-233989Y20089D01*
X-232849Y20562D01*
X-231684Y20969D01*
X-230497Y21311D01*
X-229294Y21586D01*
X-228077Y21793D01*
X-226850Y21931D01*
X-225617Y22000D01*
X-224383Y22000D01*
X-223150Y21931D01*
X-221923Y21793D01*
X-220706Y21586D01*
X-219503Y21311D01*
X-218316Y20969D01*
X-217151Y20562D01*
X-216011Y20089D01*
X-214898Y19554D01*
X-213818Y18956D01*
X-212773Y18300D01*
X-211766Y17585D01*
X-210801Y16815D01*
X-209880Y15993D01*
X-209007Y15120D01*
X-208185Y14199D01*
X-207415Y13234D01*
X-206700Y12227D01*
X-206044Y11182D01*
X-205447Y10102D01*
X-204911Y8989D01*
X-204438Y7849D01*
X-204031Y6684D01*
X-203689Y5497D01*
X-203414Y4294D01*
X-203207Y3077D01*
X-203069Y1850D01*
X-203000Y617D01*
X-203000Y-617D01*
X642000Y299383D02*
X641931Y298150D01*
X641793Y296923D01*
X641586Y295706D01*
X641311Y294503D01*
X640969Y293316D01*
X640562Y292151D01*
X640089Y291011D01*
X639554Y289898D01*
X638956Y288818D01*
X638300Y287773D01*
X637585Y286766D01*
X636815Y285801D01*
X635993Y284880D01*
X635120Y284007D01*
X634199Y283185D01*
X633234Y282415D01*
X632227Y281700D01*
X631182Y281044D01*
X630102Y280447D01*
X628989Y279911D01*
X627849Y279438D01*
X626684Y279031D01*
X625497Y278689D01*
X624294Y278414D01*
X623077Y278207D01*
X621850Y278069D01*
X620617Y278000D01*
X619383Y278000D01*
X618150Y278069D01*
X616923Y278207D01*
X615706Y278414D01*
X614503Y278689D01*
X613316Y279031D01*
X612151Y279438D01*
X611011Y279911D01*
X609898Y280447D01*
X608818Y281044D01*
X607773Y281700D01*
X606766Y282415D01*
X605801Y283185D01*
X604880Y284007D01*
X604007Y284880D01*
X603185Y285801D01*
X602415Y286766D01*
X601700Y287773D01*
X601044Y288818D01*
X600447Y289898D01*
X599911Y291011D01*
X599438Y292151D01*
X599031Y293316D01*
X598689Y294503D01*
X598414Y295706D01*
X598207Y296923D01*
X598069Y298150D01*
X598000Y299383D01*
X598000Y300617D01*
X598069Y301850D01*
X598207Y303077D01*
X598414Y304294D01*
X598689Y305497D01*
X599031Y306684D01*
X599438Y307849D01*
X599911Y308989D01*
X600447Y310102D01*
X601044Y311182D01*
X601700Y312227D01*
X602415Y313234D01*
X603185Y314199D01*
X604007Y315120D01*
X604880Y315993D01*
X605801Y316815D01*
X606766Y317585D01*
X607773Y318300D01*
X608818Y318956D01*
X609898Y319554D01*
X611011Y320089D01*
X612151Y320562D01*
X613316Y320969D01*
X614503Y321311D01*
X615706Y321586D01*
X616923Y321793D01*
X618150Y321931D01*
X619383Y322000D01*
X620617Y322000D01*
X621850Y321931D01*
X623077Y321793D01*
X624294Y321586D01*
X625497Y321311D01*
X626684Y320969D01*
X627849Y320562D01*
X628989Y320089D01*
X630102Y319554D01*
X631182Y318956D01*
X632227Y318300D01*
X633234Y317585D01*
X634199Y316815D01*
X635120Y315993D01*
X635993Y315120D01*
X636815Y314199D01*
X637585Y313234D01*
X638300Y312227D01*
X638956Y311182D01*
X639554Y310102D01*
X640089Y308989D01*
X640562Y307849D01*
X640969Y306684D01*
X641311Y305497D01*
X641586Y304294D01*
X641793Y303077D01*
X641931Y301850D01*
X642000Y300617D01*
X642000Y299383D01*
X642000Y-300617D02*
X641931Y-301850D01*
X641793Y-303077D01*
X641586Y-304294D01*
X641311Y-305497D01*
X640969Y-306684D01*
X640562Y-307849D01*
X640089Y-308989D01*
X639554Y-310102D01*
X638956Y-311182D01*
X638300Y-312227D01*
X637585Y-313234D01*
X636815Y-314199D01*
X635993Y-315120D01*
X635120Y-315993D01*
X634199Y-316815D01*
X633234Y-317585D01*
X632227Y-318300D01*
X631182Y-318956D01*
X630102Y-319554D01*
X628989Y-320089D01*
X627849Y-320562D01*
X626684Y-320969D01*
X625497Y-321311D01*
X624294Y-321586D01*
X623077Y-321793D01*
X621850Y-321931D01*
X620617Y-322000D01*
X619383Y-322000D01*
X618150Y-321931D01*
X616923Y-321793D01*
X615706Y-321586D01*
X614503Y-321311D01*
X613316Y-320969D01*
X612151Y-320562D01*
X611011Y-320089D01*
X609898Y-319554D01*
X608818Y-318956D01*
X607773Y-318300D01*
X606766Y-317585D01*
X605801Y-316815D01*
X604880Y-315993D01*
X604007Y-315120D01*
X603185Y-314199D01*
X602415Y-313234D01*
X601700Y-312227D01*
X601044Y-311182D01*
X600447Y-310102D01*
X599911Y-308989D01*
X599438Y-307849D01*
X599031Y-306684D01*
X598689Y-305497D01*
X598414Y-304294D01*
X598207Y-303077D01*
X598069Y-301850D01*
X598000Y-300617D01*
X598000Y-299383D01*
X598069Y-298150D01*
X598207Y-296923D01*
X598414Y-295706D01*
X598689Y-294503D01*
X599031Y-293316D01*
X599438Y-292151D01*
X599911Y-291011D01*
X600447Y-289898D01*
X601044Y-288818D01*
X601700Y-287773D01*
X602415Y-286766D01*
X603185Y-285801D01*
X604007Y-284880D01*
X604880Y-284007D01*
X605801Y-283185D01*
X606766Y-282415D01*
X607773Y-281700D01*
X608818Y-281044D01*
X609898Y-280447D01*
X611011Y-279911D01*
X612151Y-279438D01*
X613316Y-279031D01*
X614503Y-278689D01*
X615706Y-278414D01*
X616923Y-278207D01*
X618150Y-278069D01*
X619383Y-278000D01*
X620617Y-278000D01*
X621850Y-278069D01*
X623077Y-278207D01*
X624294Y-278414D01*
X625497Y-278689D01*
X626684Y-279031D01*
X627849Y-279438D01*
X628989Y-279911D01*
X630102Y-280447D01*
X631182Y-281044D01*
X632227Y-281700D01*
X633234Y-282415D01*
X634199Y-283185D01*
X635120Y-284007D01*
X635993Y-284880D01*
X636815Y-285801D01*
X637585Y-286766D01*
X638300Y-287773D01*
X638956Y-288818D01*
X639554Y-289898D01*
X640089Y-291011D01*
X640562Y-292151D01*
X640969Y-293316D01*
X641311Y-294503D01*
X641586Y-295706D01*
X641793Y-296923D01*
X641931Y-298150D01*
X642000Y-299383D01*
X642000Y-300617D01*
M02*
