G04 EAGLE Gerber RS-274X export*
G75*
%MOMM*%
%FSLAX34Y34*%
%LPD*%
%INSolderpaste Bottom*%
%IPPOS*%
%AMOC8*
5,1,8,0,0,1.08239X$1,22.5*%
G01*
%ADD10C,0.800000*%
%ADD11C,0.500000*%
%ADD12C,0.650000*%
%ADD13C,0.192000*%
%ADD14C,0.227500*%
%ADD15C,0.201000*%
%ADD16C,0.200000*%
%ADD17C,0.198000*%
%ADD18C,0.195000*%
%ADD19C,0.194400*%
%ADD20C,0.392500*%
%ADD21C,0.209000*%
%ADD22C,0.900000*%


D10*
X-115000Y70000D02*
X-107000Y70000D01*
X-107000Y60000D01*
X-115000Y60000D01*
X-115000Y70000D01*
X-115000Y67600D02*
X-107000Y67600D01*
X-135000Y70000D02*
X-143000Y70000D01*
X-135000Y70000D02*
X-135000Y60000D01*
X-143000Y60000D01*
X-143000Y70000D01*
X-143000Y67600D02*
X-135000Y67600D01*
D11*
X-109500Y42500D02*
X-103500Y42500D01*
X-103500Y37500D01*
X-109500Y37500D01*
X-109500Y42500D01*
X-109500Y42250D02*
X-103500Y42250D01*
X-120500Y42500D02*
X-126500Y42500D01*
X-120500Y42500D02*
X-120500Y37500D01*
X-126500Y37500D01*
X-126500Y42500D01*
X-126500Y42250D02*
X-120500Y42250D01*
D12*
X-73750Y64250D02*
X-67250Y64250D01*
X-67250Y55750D01*
X-73750Y55750D01*
X-73750Y64250D01*
X-73750Y61925D02*
X-67250Y61925D01*
X-86250Y64250D02*
X-92750Y64250D01*
X-86250Y64250D02*
X-86250Y55750D01*
X-92750Y55750D01*
X-92750Y64250D01*
X-92750Y61925D02*
X-86250Y61925D01*
D11*
X-82500Y-48500D02*
X-82500Y-54500D01*
X-82500Y-48500D02*
X-77500Y-48500D01*
X-77500Y-54500D01*
X-82500Y-54500D01*
X-82500Y-49750D02*
X-77500Y-49750D01*
X-82500Y-65500D02*
X-82500Y-71500D01*
X-82500Y-65500D02*
X-77500Y-65500D01*
X-77500Y-71500D01*
X-82500Y-71500D01*
X-82500Y-66750D02*
X-77500Y-66750D01*
X-95500Y-92500D02*
X-101500Y-92500D01*
X-101500Y-87500D01*
X-95500Y-87500D01*
X-95500Y-92500D01*
X-95500Y-87750D02*
X-101500Y-87750D01*
X-84500Y-92500D02*
X-78500Y-92500D01*
X-84500Y-92500D02*
X-84500Y-87500D01*
X-78500Y-87500D01*
X-78500Y-92500D01*
X-78500Y-87750D02*
X-84500Y-87750D01*
X-62500Y-54500D02*
X-62500Y-48500D01*
X-57500Y-48500D01*
X-57500Y-54500D01*
X-62500Y-54500D01*
X-62500Y-49750D02*
X-57500Y-49750D01*
X-62500Y-65500D02*
X-62500Y-71500D01*
X-62500Y-65500D02*
X-57500Y-65500D01*
X-57500Y-71500D01*
X-62500Y-71500D01*
X-62500Y-66750D02*
X-57500Y-66750D01*
D13*
X416960Y-63960D02*
X439040Y-63960D01*
X439040Y-86040D01*
X416960Y-86040D01*
X416960Y-63960D01*
X416960Y-84216D02*
X439040Y-84216D01*
X439040Y-82392D02*
X416960Y-82392D01*
X416960Y-80568D02*
X439040Y-80568D01*
X439040Y-78744D02*
X416960Y-78744D01*
X416960Y-76920D02*
X439040Y-76920D01*
X439040Y-75096D02*
X416960Y-75096D01*
X416960Y-73272D02*
X439040Y-73272D01*
X439040Y-71448D02*
X416960Y-71448D01*
X416960Y-69624D02*
X439040Y-69624D01*
X439040Y-67800D02*
X416960Y-67800D01*
X416960Y-65976D02*
X439040Y-65976D01*
X439040Y-64152D02*
X416960Y-64152D01*
X460960Y-63960D02*
X483040Y-63960D01*
X483040Y-86040D01*
X460960Y-86040D01*
X460960Y-63960D01*
X460960Y-84216D02*
X483040Y-84216D01*
X483040Y-82392D02*
X460960Y-82392D01*
X460960Y-80568D02*
X483040Y-80568D01*
X483040Y-78744D02*
X460960Y-78744D01*
X460960Y-76920D02*
X483040Y-76920D01*
X483040Y-75096D02*
X460960Y-75096D01*
X460960Y-73272D02*
X483040Y-73272D01*
X483040Y-71448D02*
X460960Y-71448D01*
X460960Y-69624D02*
X483040Y-69624D01*
X483040Y-67800D02*
X460960Y-67800D01*
X460960Y-65976D02*
X483040Y-65976D01*
X483040Y-64152D02*
X460960Y-64152D01*
D14*
X152063Y-30037D02*
X145237Y-30037D01*
X152063Y-30037D02*
X152063Y-39963D01*
X145237Y-39963D01*
X145237Y-30037D01*
X145237Y-37802D02*
X152063Y-37802D01*
X152063Y-35641D02*
X145237Y-35641D01*
X145237Y-33480D02*
X152063Y-33480D01*
X152063Y-31319D02*
X145237Y-31319D01*
X177937Y-30037D02*
X184763Y-30037D01*
X184763Y-39963D01*
X177937Y-39963D01*
X177937Y-30037D01*
X177937Y-37802D02*
X184763Y-37802D01*
X184763Y-35641D02*
X177937Y-35641D01*
X177937Y-33480D02*
X184763Y-33480D01*
X184763Y-31319D02*
X177937Y-31319D01*
D15*
X-89505Y31505D02*
X-90495Y31505D01*
X-90495Y43495D01*
X-89505Y43495D01*
X-89505Y31505D01*
X-89505Y33414D02*
X-90495Y33414D01*
X-90495Y35323D02*
X-89505Y35323D01*
X-89505Y37232D02*
X-90495Y37232D01*
X-90495Y39141D02*
X-89505Y39141D01*
X-89505Y41050D02*
X-90495Y41050D01*
X-90495Y42959D02*
X-89505Y42959D01*
X-80495Y31505D02*
X-79505Y31505D01*
X-80495Y31505D02*
X-80495Y43495D01*
X-79505Y43495D01*
X-79505Y31505D01*
X-79505Y33414D02*
X-80495Y33414D01*
X-80495Y35323D02*
X-79505Y35323D01*
X-79505Y37232D02*
X-80495Y37232D01*
X-80495Y39141D02*
X-79505Y39141D01*
X-79505Y41050D02*
X-80495Y41050D01*
X-80495Y42959D02*
X-79505Y42959D01*
X-70495Y31505D02*
X-69505Y31505D01*
X-70495Y31505D02*
X-70495Y43495D01*
X-69505Y43495D01*
X-69505Y31505D01*
X-69505Y33414D02*
X-70495Y33414D01*
X-70495Y35323D02*
X-69505Y35323D01*
X-69505Y37232D02*
X-70495Y37232D01*
X-70495Y39141D02*
X-69505Y39141D01*
X-69505Y41050D02*
X-70495Y41050D01*
X-70495Y42959D02*
X-69505Y42959D01*
X-65495Y31505D02*
X-64505Y31505D01*
X-65495Y31505D02*
X-65495Y43495D01*
X-64505Y43495D01*
X-64505Y31505D01*
X-64505Y33414D02*
X-65495Y33414D01*
X-65495Y35323D02*
X-64505Y35323D01*
X-64505Y37232D02*
X-65495Y37232D01*
X-65495Y39141D02*
X-64505Y39141D01*
X-64505Y41050D02*
X-65495Y41050D01*
X-65495Y42959D02*
X-64505Y42959D01*
X-60495Y31505D02*
X-59505Y31505D01*
X-60495Y31505D02*
X-60495Y43495D01*
X-59505Y43495D01*
X-59505Y31505D01*
X-59505Y33414D02*
X-60495Y33414D01*
X-60495Y35323D02*
X-59505Y35323D01*
X-59505Y37232D02*
X-60495Y37232D01*
X-60495Y39141D02*
X-59505Y39141D01*
X-59505Y41050D02*
X-60495Y41050D01*
X-60495Y42959D02*
X-59505Y42959D01*
X-55495Y31505D02*
X-54505Y31505D01*
X-55495Y31505D02*
X-55495Y43495D01*
X-54505Y43495D01*
X-54505Y31505D01*
X-54505Y33414D02*
X-55495Y33414D01*
X-55495Y35323D02*
X-54505Y35323D01*
X-54505Y37232D02*
X-55495Y37232D01*
X-55495Y39141D02*
X-54505Y39141D01*
X-54505Y41050D02*
X-55495Y41050D01*
X-55495Y42959D02*
X-54505Y42959D01*
X-54505Y-13495D02*
X-55495Y-13495D01*
X-55495Y-1505D01*
X-54505Y-1505D01*
X-54505Y-13495D01*
X-54505Y-11586D02*
X-55495Y-11586D01*
X-55495Y-9677D02*
X-54505Y-9677D01*
X-54505Y-7768D02*
X-55495Y-7768D01*
X-55495Y-5859D02*
X-54505Y-5859D01*
X-54505Y-3950D02*
X-55495Y-3950D01*
X-55495Y-2041D02*
X-54505Y-2041D01*
X-59505Y-13495D02*
X-60495Y-13495D01*
X-60495Y-1505D01*
X-59505Y-1505D01*
X-59505Y-13495D01*
X-59505Y-11586D02*
X-60495Y-11586D01*
X-60495Y-9677D02*
X-59505Y-9677D01*
X-59505Y-7768D02*
X-60495Y-7768D01*
X-60495Y-5859D02*
X-59505Y-5859D01*
X-59505Y-3950D02*
X-60495Y-3950D01*
X-60495Y-2041D02*
X-59505Y-2041D01*
X-64505Y-13495D02*
X-65495Y-13495D01*
X-65495Y-1505D01*
X-64505Y-1505D01*
X-64505Y-13495D01*
X-64505Y-11586D02*
X-65495Y-11586D01*
X-65495Y-9677D02*
X-64505Y-9677D01*
X-64505Y-7768D02*
X-65495Y-7768D01*
X-65495Y-5859D02*
X-64505Y-5859D01*
X-64505Y-3950D02*
X-65495Y-3950D01*
X-65495Y-2041D02*
X-64505Y-2041D01*
X-69505Y-13495D02*
X-70495Y-13495D01*
X-70495Y-1505D01*
X-69505Y-1505D01*
X-69505Y-13495D01*
X-69505Y-11586D02*
X-70495Y-11586D01*
X-70495Y-9677D02*
X-69505Y-9677D01*
X-69505Y-7768D02*
X-70495Y-7768D01*
X-70495Y-5859D02*
X-69505Y-5859D01*
X-69505Y-3950D02*
X-70495Y-3950D01*
X-70495Y-2041D02*
X-69505Y-2041D01*
X-79505Y-13495D02*
X-80495Y-13495D01*
X-80495Y-1505D01*
X-79505Y-1505D01*
X-79505Y-13495D01*
X-79505Y-11586D02*
X-80495Y-11586D01*
X-80495Y-9677D02*
X-79505Y-9677D01*
X-79505Y-7768D02*
X-80495Y-7768D01*
X-80495Y-5859D02*
X-79505Y-5859D01*
X-79505Y-3950D02*
X-80495Y-3950D01*
X-80495Y-2041D02*
X-79505Y-2041D01*
X-89505Y-13495D02*
X-90495Y-13495D01*
X-90495Y-1505D01*
X-89505Y-1505D01*
X-89505Y-13495D01*
X-89505Y-11586D02*
X-90495Y-11586D01*
X-90495Y-9677D02*
X-89505Y-9677D01*
X-89505Y-7768D02*
X-90495Y-7768D01*
X-90495Y-5859D02*
X-89505Y-5859D01*
X-89505Y-3950D02*
X-90495Y-3950D01*
X-90495Y-2041D02*
X-89505Y-2041D01*
D16*
X424012Y2886D02*
X424012Y10886D01*
X424012Y2886D02*
X404012Y2886D01*
X404012Y10886D01*
X424012Y10886D01*
X424012Y4786D02*
X404012Y4786D01*
X404012Y6686D02*
X424012Y6686D01*
X424012Y8586D02*
X404012Y8586D01*
X404012Y10486D02*
X424012Y10486D01*
X424012Y26000D02*
X424012Y34000D01*
X424012Y26000D02*
X404012Y26000D01*
X404012Y34000D01*
X424012Y34000D01*
X424012Y27900D02*
X404012Y27900D01*
X404012Y29800D02*
X424012Y29800D01*
X424012Y31700D02*
X404012Y31700D01*
X404012Y33600D02*
X424012Y33600D01*
X424012Y49114D02*
X424012Y57114D01*
X424012Y49114D02*
X404012Y49114D01*
X404012Y57114D01*
X424012Y57114D01*
X424012Y51014D02*
X404012Y51014D01*
X404012Y52914D02*
X424012Y52914D01*
X424012Y54814D02*
X404012Y54814D01*
X404012Y56714D02*
X424012Y56714D01*
D17*
X486000Y47010D02*
X486000Y12990D01*
X465980Y12990D01*
X465980Y47010D01*
X486000Y47010D01*
X486000Y14871D02*
X465980Y14871D01*
X465980Y16752D02*
X486000Y16752D01*
X486000Y18633D02*
X465980Y18633D01*
X465980Y20514D02*
X486000Y20514D01*
X486000Y22395D02*
X465980Y22395D01*
X465980Y24276D02*
X486000Y24276D01*
X486000Y26157D02*
X465980Y26157D01*
X465980Y28038D02*
X486000Y28038D01*
X486000Y29919D02*
X465980Y29919D01*
X465980Y31800D02*
X486000Y31800D01*
X486000Y33681D02*
X465980Y33681D01*
X465980Y35562D02*
X486000Y35562D01*
X486000Y37443D02*
X465980Y37443D01*
X465980Y39324D02*
X486000Y39324D01*
X486000Y41205D02*
X465980Y41205D01*
X465980Y43086D02*
X486000Y43086D01*
X486000Y44967D02*
X465980Y44967D01*
X465980Y46848D02*
X486000Y46848D01*
D10*
X183000Y-55000D02*
X175000Y-55000D01*
X183000Y-55000D02*
X183000Y-65000D01*
X175000Y-65000D01*
X175000Y-55000D01*
X175000Y-57400D02*
X183000Y-57400D01*
X155000Y-55000D02*
X147000Y-55000D01*
X155000Y-55000D02*
X155000Y-65000D01*
X147000Y-65000D01*
X147000Y-55000D01*
X147000Y-57400D02*
X155000Y-57400D01*
D11*
X-28500Y62500D02*
X-34500Y62500D01*
X-28500Y62500D02*
X-28500Y57500D01*
X-34500Y57500D01*
X-34500Y62500D01*
X-34500Y62250D02*
X-28500Y62250D01*
X-45500Y62500D02*
X-51500Y62500D01*
X-45500Y62500D02*
X-45500Y57500D01*
X-51500Y57500D01*
X-51500Y62500D01*
X-51500Y62250D02*
X-45500Y62250D01*
X-97500Y-65500D02*
X-97500Y-71500D01*
X-102500Y-71500D01*
X-102500Y-65500D01*
X-97500Y-65500D01*
X-97500Y-66750D02*
X-102500Y-66750D01*
X-97500Y-54500D02*
X-97500Y-48500D01*
X-97500Y-54500D02*
X-102500Y-54500D01*
X-102500Y-48500D01*
X-97500Y-48500D01*
X-97500Y-49750D02*
X-102500Y-49750D01*
X-101500Y-32500D02*
X-95500Y-32500D01*
X-101500Y-32500D02*
X-101500Y-27500D01*
X-95500Y-27500D01*
X-95500Y-32500D01*
X-95500Y-27750D02*
X-101500Y-27750D01*
X-84500Y-32500D02*
X-78500Y-32500D01*
X-84500Y-32500D02*
X-84500Y-27500D01*
X-78500Y-27500D01*
X-78500Y-32500D01*
X-78500Y-27750D02*
X-84500Y-27750D01*
X-117500Y-45500D02*
X-117500Y-51500D01*
X-122500Y-51500D01*
X-122500Y-45500D01*
X-117500Y-45500D01*
X-117500Y-46750D02*
X-122500Y-46750D01*
X-117500Y-34500D02*
X-117500Y-28500D01*
X-117500Y-34500D02*
X-122500Y-34500D01*
X-122500Y-28500D01*
X-117500Y-28500D01*
X-117500Y-29750D02*
X-122500Y-29750D01*
D10*
X-30000Y7000D02*
X-30000Y15000D01*
X-30000Y7000D02*
X-40000Y7000D01*
X-40000Y15000D01*
X-30000Y15000D01*
X-30000Y14600D02*
X-40000Y14600D01*
X-30000Y35000D02*
X-30000Y43000D01*
X-30000Y35000D02*
X-40000Y35000D01*
X-40000Y43000D01*
X-30000Y43000D01*
X-30000Y42600D02*
X-40000Y42600D01*
D18*
X66475Y-87475D02*
X89525Y-87475D01*
X89525Y-100525D01*
X66475Y-100525D01*
X66475Y-87475D01*
X66475Y-98673D02*
X89525Y-98673D01*
X89525Y-96821D02*
X66475Y-96821D01*
X66475Y-94969D02*
X89525Y-94969D01*
X89525Y-93117D02*
X66475Y-93117D01*
X66475Y-91265D02*
X89525Y-91265D01*
X89525Y-89413D02*
X66475Y-89413D01*
X66475Y-87561D02*
X89525Y-87561D01*
X89525Y-49875D02*
X66475Y-49875D01*
X89525Y-49875D02*
X89525Y-62925D01*
X66475Y-62925D01*
X66475Y-49875D01*
X66475Y-61073D02*
X89525Y-61073D01*
X89525Y-59221D02*
X66475Y-59221D01*
X66475Y-57369D02*
X89525Y-57369D01*
X89525Y-55517D02*
X66475Y-55517D01*
X66475Y-53665D02*
X89525Y-53665D01*
X89525Y-51813D02*
X66475Y-51813D01*
X66475Y-49961D02*
X89525Y-49961D01*
X89525Y-12275D02*
X66475Y-12275D01*
X89525Y-12275D02*
X89525Y-25325D01*
X66475Y-25325D01*
X66475Y-12275D01*
X66475Y-23473D02*
X89525Y-23473D01*
X89525Y-21621D02*
X66475Y-21621D01*
X66475Y-19769D02*
X89525Y-19769D01*
X89525Y-17917D02*
X66475Y-17917D01*
X66475Y-16065D02*
X89525Y-16065D01*
X89525Y-14213D02*
X66475Y-14213D01*
X66475Y-12361D02*
X89525Y-12361D01*
X89525Y25325D02*
X66475Y25325D01*
X89525Y25325D02*
X89525Y12275D01*
X66475Y12275D01*
X66475Y25325D01*
X66475Y14127D02*
X89525Y14127D01*
X89525Y15979D02*
X66475Y15979D01*
X66475Y17831D02*
X89525Y17831D01*
X89525Y19683D02*
X66475Y19683D01*
X66475Y21535D02*
X89525Y21535D01*
X89525Y23387D02*
X66475Y23387D01*
X66475Y25239D02*
X89525Y25239D01*
X89525Y62925D02*
X66475Y62925D01*
X89525Y62925D02*
X89525Y49875D01*
X66475Y49875D01*
X66475Y62925D01*
X66475Y51727D02*
X89525Y51727D01*
X89525Y53579D02*
X66475Y53579D01*
X66475Y55431D02*
X89525Y55431D01*
X89525Y57283D02*
X66475Y57283D01*
X66475Y59135D02*
X89525Y59135D01*
X89525Y60987D02*
X66475Y60987D01*
X66475Y62839D02*
X89525Y62839D01*
X89525Y101525D02*
X66475Y101525D01*
X89525Y101525D02*
X89525Y88475D01*
X66475Y88475D01*
X66475Y101525D01*
X66475Y90327D02*
X89525Y90327D01*
X89525Y92179D02*
X66475Y92179D01*
X66475Y94031D02*
X89525Y94031D01*
X89525Y95883D02*
X66475Y95883D01*
X66475Y97735D02*
X89525Y97735D01*
X89525Y99587D02*
X66475Y99587D01*
X66475Y101439D02*
X89525Y101439D01*
X370475Y101525D02*
X393525Y101525D01*
X393525Y88475D01*
X370475Y88475D01*
X370475Y101525D01*
X370475Y90327D02*
X393525Y90327D01*
X393525Y92179D02*
X370475Y92179D01*
X370475Y94031D02*
X393525Y94031D01*
X393525Y95883D02*
X370475Y95883D01*
X370475Y97735D02*
X393525Y97735D01*
X393525Y99587D02*
X370475Y99587D01*
X370475Y101439D02*
X393525Y101439D01*
X393525Y62925D02*
X370475Y62925D01*
X393525Y62925D02*
X393525Y49875D01*
X370475Y49875D01*
X370475Y62925D01*
X370475Y51727D02*
X393525Y51727D01*
X393525Y53579D02*
X370475Y53579D01*
X370475Y55431D02*
X393525Y55431D01*
X393525Y57283D02*
X370475Y57283D01*
X370475Y59135D02*
X393525Y59135D01*
X393525Y60987D02*
X370475Y60987D01*
X370475Y62839D02*
X393525Y62839D01*
X393525Y25325D02*
X370475Y25325D01*
X393525Y25325D02*
X393525Y12275D01*
X370475Y12275D01*
X370475Y25325D01*
X370475Y14127D02*
X393525Y14127D01*
X393525Y15979D02*
X370475Y15979D01*
X370475Y17831D02*
X393525Y17831D01*
X393525Y19683D02*
X370475Y19683D01*
X370475Y21535D02*
X393525Y21535D01*
X393525Y23387D02*
X370475Y23387D01*
X370475Y25239D02*
X393525Y25239D01*
X393525Y-12275D02*
X370475Y-12275D01*
X393525Y-12275D02*
X393525Y-25325D01*
X370475Y-25325D01*
X370475Y-12275D01*
X370475Y-23473D02*
X393525Y-23473D01*
X393525Y-21621D02*
X370475Y-21621D01*
X370475Y-19769D02*
X393525Y-19769D01*
X393525Y-17917D02*
X370475Y-17917D01*
X370475Y-16065D02*
X393525Y-16065D01*
X393525Y-14213D02*
X370475Y-14213D01*
X370475Y-12361D02*
X393525Y-12361D01*
X393525Y-49875D02*
X370475Y-49875D01*
X393525Y-49875D02*
X393525Y-62925D01*
X370475Y-62925D01*
X370475Y-49875D01*
X370475Y-61073D02*
X393525Y-61073D01*
X393525Y-59221D02*
X370475Y-59221D01*
X370475Y-57369D02*
X393525Y-57369D01*
X393525Y-55517D02*
X370475Y-55517D01*
X370475Y-53665D02*
X393525Y-53665D01*
X393525Y-51813D02*
X370475Y-51813D01*
X370475Y-49961D02*
X393525Y-49961D01*
X393525Y-87475D02*
X370475Y-87475D01*
X393525Y-87475D02*
X393525Y-100525D01*
X370475Y-100525D01*
X370475Y-87475D01*
X370475Y-98673D02*
X393525Y-98673D01*
X393525Y-96821D02*
X370475Y-96821D01*
X370475Y-94969D02*
X393525Y-94969D01*
X393525Y-93117D02*
X370475Y-93117D01*
X370475Y-91265D02*
X393525Y-91265D01*
X393525Y-89413D02*
X370475Y-89413D01*
X370475Y-87561D02*
X393525Y-87561D01*
D19*
X765328Y124672D02*
X765328Y144328D01*
X765328Y124672D02*
X744672Y124672D01*
X744672Y144328D01*
X765328Y144328D01*
X765328Y126519D02*
X744672Y126519D01*
X744672Y128366D02*
X765328Y128366D01*
X765328Y130213D02*
X744672Y130213D01*
X744672Y132060D02*
X765328Y132060D01*
X765328Y133907D02*
X744672Y133907D01*
X744672Y135754D02*
X765328Y135754D01*
X765328Y137601D02*
X744672Y137601D01*
X744672Y139448D02*
X765328Y139448D01*
X765328Y141295D02*
X744672Y141295D01*
X744672Y143142D02*
X765328Y143142D01*
X765328Y95328D02*
X765328Y75672D01*
X744672Y75672D01*
X744672Y95328D01*
X765328Y95328D01*
X765328Y77519D02*
X744672Y77519D01*
X744672Y79366D02*
X765328Y79366D01*
X765328Y81213D02*
X744672Y81213D01*
X744672Y83060D02*
X765328Y83060D01*
X765328Y84907D02*
X744672Y84907D01*
X744672Y86754D02*
X765328Y86754D01*
X765328Y88601D02*
X744672Y88601D01*
X744672Y90448D02*
X765328Y90448D01*
X765328Y92295D02*
X744672Y92295D01*
X744672Y94142D02*
X765328Y94142D01*
X744672Y-124672D02*
X744672Y-144328D01*
X744672Y-124672D02*
X765328Y-124672D01*
X765328Y-144328D01*
X744672Y-144328D01*
X744672Y-142481D02*
X765328Y-142481D01*
X765328Y-140634D02*
X744672Y-140634D01*
X744672Y-138787D02*
X765328Y-138787D01*
X765328Y-136940D02*
X744672Y-136940D01*
X744672Y-135093D02*
X765328Y-135093D01*
X765328Y-133246D02*
X744672Y-133246D01*
X744672Y-131399D02*
X765328Y-131399D01*
X765328Y-129552D02*
X744672Y-129552D01*
X744672Y-127705D02*
X765328Y-127705D01*
X765328Y-125858D02*
X744672Y-125858D01*
X744672Y-95328D02*
X744672Y-75672D01*
X765328Y-75672D01*
X765328Y-95328D01*
X744672Y-95328D01*
X744672Y-93481D02*
X765328Y-93481D01*
X765328Y-91634D02*
X744672Y-91634D01*
X744672Y-89787D02*
X765328Y-89787D01*
X765328Y-87940D02*
X744672Y-87940D01*
X744672Y-86093D02*
X765328Y-86093D01*
X765328Y-84246D02*
X744672Y-84246D01*
X744672Y-82399D02*
X765328Y-82399D01*
X765328Y-80552D02*
X744672Y-80552D01*
X744672Y-78705D02*
X765328Y-78705D01*
X765328Y-76858D02*
X744672Y-76858D01*
D10*
X600000Y40000D02*
X592000Y40000D01*
X592000Y50000D01*
X600000Y50000D01*
X600000Y40000D01*
X600000Y47600D02*
X592000Y47600D01*
X620000Y40000D02*
X628000Y40000D01*
X620000Y40000D02*
X620000Y50000D01*
X628000Y50000D01*
X628000Y40000D01*
X628000Y47600D02*
X620000Y47600D01*
D17*
X600010Y-12990D02*
X600010Y-17010D01*
X585990Y-17010D01*
X585990Y-12990D01*
X600010Y-12990D01*
X600010Y-15129D02*
X585990Y-15129D01*
X585990Y-13248D02*
X600010Y-13248D01*
D20*
X633888Y-8038D02*
X633888Y8038D01*
X633888Y-8038D02*
X622112Y-8038D01*
X622112Y8038D01*
X633888Y8038D01*
X633888Y-4309D02*
X622112Y-4309D01*
X622112Y-580D02*
X633888Y-580D01*
X633888Y3149D02*
X622112Y3149D01*
X622112Y6878D02*
X633888Y6878D01*
D17*
X600010Y12990D02*
X600010Y17010D01*
X600010Y12990D02*
X585990Y12990D01*
X585990Y17010D01*
X600010Y17010D01*
X600010Y14871D02*
X585990Y14871D01*
X585990Y16752D02*
X600010Y16752D01*
D21*
X-3455Y-92545D02*
X-3455Y-134455D01*
X-3455Y-92545D02*
X13455Y-92545D01*
X13455Y-134455D01*
X-3455Y-134455D01*
X-3455Y-132470D02*
X13455Y-132470D01*
X13455Y-130485D02*
X-3455Y-130485D01*
X-3455Y-128500D02*
X13455Y-128500D01*
X13455Y-126515D02*
X-3455Y-126515D01*
X-3455Y-124530D02*
X13455Y-124530D01*
X13455Y-122545D02*
X-3455Y-122545D01*
X-3455Y-120560D02*
X13455Y-120560D01*
X13455Y-118575D02*
X-3455Y-118575D01*
X-3455Y-116590D02*
X13455Y-116590D01*
X13455Y-114605D02*
X-3455Y-114605D01*
X-3455Y-112620D02*
X13455Y-112620D01*
X13455Y-110635D02*
X-3455Y-110635D01*
X-3455Y-108650D02*
X13455Y-108650D01*
X13455Y-106665D02*
X-3455Y-106665D01*
X-3455Y-104680D02*
X13455Y-104680D01*
X13455Y-102695D02*
X-3455Y-102695D01*
X-3455Y-100710D02*
X13455Y-100710D01*
X13455Y-98725D02*
X-3455Y-98725D01*
X-3455Y-96740D02*
X13455Y-96740D01*
X13455Y-94755D02*
X-3455Y-94755D01*
X-3455Y-92770D02*
X13455Y-92770D01*
X-3455Y-47455D02*
X-3455Y-5545D01*
X13455Y-5545D01*
X13455Y-47455D01*
X-3455Y-47455D01*
X-3455Y-45470D02*
X13455Y-45470D01*
X13455Y-43485D02*
X-3455Y-43485D01*
X-3455Y-41500D02*
X13455Y-41500D01*
X13455Y-39515D02*
X-3455Y-39515D01*
X-3455Y-37530D02*
X13455Y-37530D01*
X13455Y-35545D02*
X-3455Y-35545D01*
X-3455Y-33560D02*
X13455Y-33560D01*
X13455Y-31575D02*
X-3455Y-31575D01*
X-3455Y-29590D02*
X13455Y-29590D01*
X13455Y-27605D02*
X-3455Y-27605D01*
X-3455Y-25620D02*
X13455Y-25620D01*
X13455Y-23635D02*
X-3455Y-23635D01*
X-3455Y-21650D02*
X13455Y-21650D01*
X13455Y-19665D02*
X-3455Y-19665D01*
X-3455Y-17680D02*
X13455Y-17680D01*
X13455Y-15695D02*
X-3455Y-15695D01*
X-3455Y-13710D02*
X13455Y-13710D01*
X13455Y-11725D02*
X-3455Y-11725D01*
X-3455Y-9740D02*
X13455Y-9740D01*
X13455Y-7755D02*
X-3455Y-7755D01*
X-3455Y-5770D02*
X13455Y-5770D01*
D10*
X147000Y-104500D02*
X155000Y-104500D01*
X147000Y-104500D02*
X147000Y-85500D01*
X155000Y-85500D01*
X155000Y-104500D01*
X155000Y-96900D02*
X147000Y-96900D01*
X147000Y-89300D02*
X155000Y-89300D01*
X175000Y-104500D02*
X183000Y-104500D01*
X175000Y-104500D02*
X175000Y-85500D01*
X183000Y-85500D01*
X183000Y-104500D01*
X183000Y-96900D02*
X175000Y-96900D01*
X175000Y-89300D02*
X183000Y-89300D01*
D22*
X498500Y13500D02*
X498500Y22500D01*
X521500Y22500D01*
X521500Y13500D01*
X498500Y13500D01*
X498500Y22050D02*
X521500Y22050D01*
X498500Y-33500D02*
X498500Y-42500D01*
X498500Y-33500D02*
X521500Y-33500D01*
X521500Y-42500D01*
X498500Y-42500D01*
X498500Y-33950D02*
X521500Y-33950D01*
D10*
X592000Y-59500D02*
X600000Y-59500D01*
X592000Y-59500D02*
X592000Y-40500D01*
X600000Y-40500D01*
X600000Y-59500D01*
X600000Y-51900D02*
X592000Y-51900D01*
X592000Y-44300D02*
X600000Y-44300D01*
X620000Y-59500D02*
X628000Y-59500D01*
X620000Y-59500D02*
X620000Y-40500D01*
X628000Y-40500D01*
X628000Y-59500D01*
X628000Y-51900D02*
X620000Y-51900D01*
X620000Y-44300D02*
X628000Y-44300D01*
D11*
X572500Y-41500D02*
X572500Y-35500D01*
X572500Y-41500D02*
X567500Y-41500D01*
X567500Y-35500D01*
X572500Y-35500D01*
X572500Y-36750D02*
X567500Y-36750D01*
X572500Y-24500D02*
X572500Y-18500D01*
X572500Y-24500D02*
X567500Y-24500D01*
X567500Y-18500D01*
X572500Y-18500D01*
X572500Y-19750D02*
X567500Y-19750D01*
X572500Y18500D02*
X572500Y24500D01*
X572500Y18500D02*
X567500Y18500D01*
X567500Y24500D01*
X572500Y24500D01*
X572500Y23250D02*
X567500Y23250D01*
X572500Y35500D02*
X572500Y41500D01*
X572500Y35500D02*
X567500Y35500D01*
X567500Y41500D01*
X572500Y41500D01*
X572500Y40250D02*
X567500Y40250D01*
X-103500Y22500D02*
X-109500Y22500D01*
X-103500Y22500D02*
X-103500Y17500D01*
X-109500Y17500D01*
X-109500Y22500D01*
X-109500Y22250D02*
X-103500Y22250D01*
X-120500Y22500D02*
X-126500Y22500D01*
X-120500Y22500D02*
X-120500Y17500D01*
X-126500Y17500D01*
X-126500Y22500D01*
X-126500Y22250D02*
X-120500Y22250D01*
D22*
X743500Y11500D02*
X752500Y11500D01*
X752500Y-11500D01*
X743500Y-11500D01*
X743500Y11500D01*
X743500Y-2950D02*
X752500Y-2950D01*
X752500Y5600D02*
X743500Y5600D01*
X696500Y11500D02*
X687500Y11500D01*
X696500Y11500D02*
X696500Y-11500D01*
X687500Y-11500D01*
X687500Y11500D01*
X687500Y-2950D02*
X696500Y-2950D01*
X696500Y5600D02*
X687500Y5600D01*
X426500Y-41500D02*
X417500Y-41500D01*
X417500Y-18500D01*
X426500Y-18500D01*
X426500Y-41500D01*
X426500Y-32950D02*
X417500Y-32950D01*
X417500Y-24400D02*
X426500Y-24400D01*
X473500Y-41500D02*
X482500Y-41500D01*
X473500Y-41500D02*
X473500Y-18500D01*
X482500Y-18500D01*
X482500Y-41500D01*
X482500Y-32950D02*
X473500Y-32950D01*
X473500Y-24400D02*
X482500Y-24400D01*
D10*
X270000Y-125000D02*
X262000Y-125000D01*
X262000Y-115000D01*
X270000Y-115000D01*
X270000Y-125000D01*
X270000Y-117400D02*
X262000Y-117400D01*
X290000Y-125000D02*
X298000Y-125000D01*
X290000Y-125000D02*
X290000Y-115000D01*
X298000Y-115000D01*
X298000Y-125000D01*
X298000Y-117400D02*
X290000Y-117400D01*
X465000Y-130000D02*
X473000Y-130000D01*
X473000Y-140000D01*
X465000Y-140000D01*
X465000Y-130000D01*
X465000Y-132400D02*
X473000Y-132400D01*
X445000Y-130000D02*
X437000Y-130000D01*
X445000Y-130000D02*
X445000Y-140000D01*
X437000Y-140000D01*
X437000Y-130000D01*
X437000Y-132400D02*
X445000Y-132400D01*
X410000Y-115000D02*
X410000Y-107000D01*
X420000Y-107000D01*
X420000Y-115000D01*
X410000Y-115000D01*
X410000Y-107400D02*
X420000Y-107400D01*
X410000Y-135000D02*
X410000Y-143000D01*
X410000Y-135000D02*
X420000Y-135000D01*
X420000Y-143000D01*
X410000Y-143000D01*
X410000Y-135400D02*
X420000Y-135400D01*
M02*
